<svg xmlns="http://www.w3.org/2000/svg" xmlns:xlink="http://www.w3.org/1999/xlink" viewBox="0 0 36.77 42.32"><defs><style>.cls-1,.cls-3{fill:none;}.cls-2{fill:#3493d0;}.cls-3{stroke-width:6px;stroke:url(#New_Pattern_Swatch_1);}.cls-4{font-size:32.34px;fill:#fff;font-family:Coiny-Regular, Coiny;}.cls-5{letter-spacing:-0.11em;}</style><pattern id="New_Pattern_Swatch_1" data-name="New Pattern Swatch 1" width="56.57" height="56.57" patternTransform="translate(1 -54.59)" patternUnits="userSpaceOnUse" viewBox="0 0 56.57 56.57"><rect class="cls-1" width="56.57" height="56.57"/><rect class="cls-2" width="56.57" height="56.57"/></pattern></defs><title>11</title><g id="Layer_2" data-name="Layer 2"><g id="Layer_1-2" data-name="Layer 1"><path class="cls-3" d="M14.05,22.36a5.88,5.88,0,0,1-.94,3.74,3.54,3.54,0,0,1-2.85,1.11,4.59,4.59,0,0,1-2-.38A2.57,2.57,0,0,1,7,25.4a8.18,8.18,0,0,1-.43-2.78L6.56,10.56A5.13,5.13,0,0,1,4,10,2,2,0,0,1,3,8.1a2.12,2.12,0,0,1,.92-1.76,4.24,4.24,0,0,1,2.57-.7l1.83,0,1.67,0c1.59,0,2.67.26,3.21.79A3.75,3.75,0,0,1,14,9.23Z"/><path class="cls-3" d="M17,25a2.11,2.11,0,0,1,.92-1.78,4.31,4.31,0,0,1,2.61-.68c2.35,0,3.52.82,3.52,2.46a2.35,2.35,0,0,1-.45,1.5,2.21,2.21,0,0,1-1.2.76,7.61,7.61,0,0,1-1.88.19A5,5,0,0,1,18,26.89,2,2,0,0,1,17,25Z"/><path class="cls-3" d="M33.77,22.36a5.82,5.82,0,0,1-.94,3.74A3.5,3.5,0,0,1,30,27.21a4.73,4.73,0,0,1-2-.38,2.53,2.53,0,0,1-1.18-1.43,8.18,8.18,0,0,1-.43-2.78l-.06-12.06A5.12,5.12,0,0,1,23.73,10a2,2,0,0,1-1-1.89,2.12,2.12,0,0,1,.92-1.76,4.22,4.22,0,0,1,2.57-.7l1.83,0,1.66,0c1.6,0,2.67.26,3.22.79a3.75,3.75,0,0,1,.82,2.76Z"/><text class="cls-4" transform="matrix(1, 0, 0, 1, 2.01, 27.25)">1<tspan class="cls-5" x="14.04" y="0">.</tspan><tspan x="19.73" y="0">1</tspan></text></g></g></svg>