<svg xmlns="http://www.w3.org/2000/svg" viewBox="0 0 36.77 27.83"><defs><style>.cls-1{fill:#d63a39;}.cls-2{fill:#fff;}</style></defs><title>11t_1</title><g id="Layer_2" data-name="Layer 2"><g id="Layer_1-2" data-name="Layer 1"><path class="cls-1" d="M10.26,27.57a7.47,7.47,0,0,1-3.38-.7,5.53,5.53,0,0,1-2.63-3A11.18,11.18,0,0,1,3.61,20l0-9.59a6.25,6.25,0,0,1-1-.48A5,5,0,0,1,0,5.45,5.1,5.1,0,0,1,2.12,1.3,7.09,7.09,0,0,1,6.49,0L8.36,0H10c2.45,0,4.14.52,5.29,1.63A6.57,6.57,0,0,1,17,6.59l0,13.13a8.51,8.51,0,0,1-1.65,5.67A6.42,6.42,0,0,1,10.26,27.57Zm-.46-6,.46,0a1.45,1.45,0,0,0,.58-.08,5.49,5.49,0,0,0,.21-1.77L11,6.6a3.49,3.49,0,0,0,0-.51A7.49,7.49,0,0,0,10,6H9.55L9.61,20A5.9,5.9,0,0,0,9.8,21.55Z"/><path class="cls-1" d="M20.54,27.83a7.89,7.89,0,0,1-4-1A5,5,0,0,1,14,22.37h0a5.07,5.07,0,0,1,2.15-4.19,7.2,7.2,0,0,1,4.38-1.27,7.4,7.4,0,0,1,4.36,1.16,5.08,5.08,0,0,1,2.16,4.3,5.14,5.14,0,0,1-3.89,5.17A10.81,10.81,0,0,1,20.54,27.83Z"/><path class="cls-1" d="M30,27.57a7.47,7.47,0,0,1-3.38-.7,5.46,5.46,0,0,1-2.63-3A10.76,10.76,0,0,1,23.34,20l-.05-9.59a6.54,6.54,0,0,1-1-.48,5,5,0,0,1-2.52-4.51A5.12,5.12,0,0,1,21.84,1.3,7.14,7.14,0,0,1,26.22,0l1.87,0h1.62c2.46,0,4.14.52,5.3,1.63a6.52,6.52,0,0,1,1.74,4.93l0,13.13a8.56,8.56,0,0,1-1.64,5.67A6.42,6.42,0,0,1,30,27.57Zm-.47-6a2.83,2.83,0,0,0,.47,0,1.49,1.49,0,0,0,.58-.08,5.76,5.76,0,0,0,.2-1.77l0-13.13c0-.2,0-.37,0-.5a7.55,7.55,0,0,0-1-.06h-.44L29.34,20A5.89,5.89,0,0,0,29.52,21.54Z"/><path class="cls-2" d="M14.05,19.72a5.88,5.88,0,0,1-.94,3.74,3.54,3.54,0,0,1-2.85,1.11,4.58,4.58,0,0,1-2-.39A2.55,2.55,0,0,1,7,22.76,8.23,8.23,0,0,1,6.61,20L6.56,7.92A5.13,5.13,0,0,1,4,7.35,2,2,0,0,1,3,5.46,2.12,2.12,0,0,1,3.92,3.7,4.17,4.17,0,0,1,6.49,3L8.32,3H10a4.71,4.71,0,0,1,3.21.8A3.73,3.73,0,0,1,14,6.59Z"/><path class="cls-2" d="M17,22.37a2.13,2.13,0,0,1,.92-1.78,4.38,4.38,0,0,1,2.61-.68c2.35,0,3.52.82,3.52,2.46a2.36,2.36,0,0,1-.45,1.51,2.27,2.27,0,0,1-1.2.76,7.61,7.61,0,0,1-1.88.19A5,5,0,0,1,18,24.25,2,2,0,0,1,17,22.37Z"/><path class="cls-2" d="M33.77,19.72a5.82,5.82,0,0,1-.94,3.74A3.5,3.5,0,0,1,30,24.57a4.58,4.58,0,0,1-2-.39,2.51,2.51,0,0,1-1.18-1.42A8.23,8.23,0,0,1,26.34,20L26.28,7.92a5.12,5.12,0,0,1-2.55-.57,2,2,0,0,1-1-1.89,2.1,2.1,0,0,1,.92-1.76A4.13,4.13,0,0,1,26.22,3l1.83,0h1.66a4.81,4.81,0,0,1,3.22.79,3.76,3.76,0,0,1,.82,2.77Z"/></g></g></svg>