<svg xmlns="http://www.w3.org/2000/svg" viewBox="0 0 46.46 28.43"><defs><style>.cls-1{fill:none;stroke:#3293d1;stroke-width:6.6px;}.cls-2{fill:#fff;}</style></defs><title>12</title><g id="Layer_2" data-name="Layer 2"><g id="Layer_1-2" data-name="Layer 1"><path class="cls-1" d="M14.35,20a5.88,5.88,0,0,1-.94,3.74,3.54,3.54,0,0,1-2.85,1.11,4.58,4.58,0,0,1-2-.39,2.55,2.55,0,0,1-1.18-1.42,8.23,8.23,0,0,1-.43-2.78l0-12.06A5.13,5.13,0,0,1,4.3,7.65a2,2,0,0,1-1-1.89A2.12,2.12,0,0,1,4.22,4a4.17,4.17,0,0,1,2.57-.7l1.83,0h1.67a4.71,4.71,0,0,1,3.21.8,3.73,3.73,0,0,1,.83,2.76Z"/><path class="cls-1" d="M17.32,22.67a2.13,2.13,0,0,1,.92-1.78,4.38,4.38,0,0,1,2.61-.68c2.35,0,3.52.82,3.52,2.46a2.36,2.36,0,0,1-.45,1.51,2.27,2.27,0,0,1-1.2.76,7.61,7.61,0,0,1-1.88.19,5,5,0,0,1-2.52-.58A2,2,0,0,1,17.32,22.67Z"/><path class="cls-1" d="M36.86,18.89h3.59c1.81,0,2.71,1,2.71,3a3.06,3.06,0,0,1-.86,2.44,4.85,4.85,0,0,1-3.06.73H30.48a5.61,5.61,0,0,1-3.09-.6c-.55-.4-.82-1.26-.82-2.57a4.1,4.1,0,0,1,.13-1.12,2.66,2.66,0,0,1,.49-.92,4.2,4.2,0,0,1,1-.87c1.16-.78,2.08-1.4,2.75-1.88s1.32-1,2-1.5a10.22,10.22,0,0,0,1.4-1.36A7.42,7.42,0,0,0,35.1,13a4.71,4.71,0,0,0,.49-1.42A11.62,11.62,0,0,0,35.7,9.9c0-1.21-.38-1.81-1.13-1.81s-1.23.71-1.23,2.13a1.51,1.51,0,0,1-.78,1.55,5.66,5.66,0,0,1-2.29.36,3.44,3.44,0,0,1-2.8-.91,4.78,4.78,0,0,1-.73-3,4.16,4.16,0,0,1,2-3.51A9.44,9.44,0,0,1,34.28,3.3q8.8,0,8.79,6.69a10.8,10.8,0,0,1-.35,2.83A8.41,8.41,0,0,1,41.84,15a7,7,0,0,1-1.41,1.63,13,13,0,0,1-1.66,1.26A21,21,0,0,1,36.86,18.89Z"/><path class="cls-2" d="M14.35,20a5.88,5.88,0,0,1-.94,3.74,3.54,3.54,0,0,1-2.85,1.11,4.58,4.58,0,0,1-2-.39,2.55,2.55,0,0,1-1.18-1.42,8.23,8.23,0,0,1-.43-2.78l0-12.06A5.13,5.13,0,0,1,4.3,7.65a2,2,0,0,1-1-1.89A2.12,2.12,0,0,1,4.22,4a4.17,4.17,0,0,1,2.57-.7l1.83,0h1.67a4.71,4.71,0,0,1,3.21.8,3.73,3.73,0,0,1,.83,2.76Z"/><path class="cls-2" d="M17.32,22.67a2.13,2.13,0,0,1,.92-1.78,4.38,4.38,0,0,1,2.61-.68c2.35,0,3.52.82,3.52,2.46a2.36,2.36,0,0,1-.45,1.51,2.27,2.27,0,0,1-1.2.76,7.61,7.61,0,0,1-1.88.19,5,5,0,0,1-2.52-.58A2,2,0,0,1,17.32,22.67Z"/><path class="cls-2" d="M36.86,18.89h3.59c1.81,0,2.71,1,2.71,3a3.06,3.06,0,0,1-.86,2.44,4.85,4.85,0,0,1-3.06.73H30.48a5.61,5.61,0,0,1-3.09-.6c-.55-.4-.82-1.26-.82-2.57a4.1,4.1,0,0,1,.13-1.12,2.66,2.66,0,0,1,.49-.92,4.2,4.2,0,0,1,1-.87c1.16-.78,2.08-1.4,2.75-1.88s1.32-1,2-1.5a10.22,10.22,0,0,0,1.4-1.36A7.42,7.42,0,0,0,35.1,13a4.71,4.71,0,0,0,.49-1.42A11.62,11.62,0,0,0,35.7,9.9c0-1.21-.38-1.81-1.13-1.81s-1.23.71-1.23,2.13a1.51,1.51,0,0,1-.78,1.55,5.66,5.66,0,0,1-2.29.36,3.44,3.44,0,0,1-2.8-.91,4.78,4.78,0,0,1-.73-3,4.16,4.16,0,0,1,2-3.51A9.44,9.44,0,0,1,34.28,3.3q8.8,0,8.79,6.69a10.8,10.8,0,0,1-.35,2.83A8.41,8.41,0,0,1,41.84,15a7,7,0,0,1-1.41,1.63,13,13,0,0,1-1.66,1.26A21,21,0,0,1,36.86,18.89Z"/></g></g></svg>