<svg xmlns="http://www.w3.org/2000/svg" viewBox="0 0 63.68 39"><defs><style>.cls-1{fill:none;stroke:#fff;stroke-width:7px;}.cls-2{fill:#c8aa2d;}</style></defs><title>12si</title><g id="Layer_2" data-name="Layer 2"><g id="Layer_1-2" data-name="Layer 1"><path class="cls-1" d="M19.21,28q0,3.84-1.34,5.47a4.92,4.92,0,0,1-4.05,1.64,6.29,6.29,0,0,1-2.89-.57,3.63,3.63,0,0,1-1.68-2.09,12.48,12.48,0,0,1-.62-4.07L8.56,10.71a7.18,7.18,0,0,1-3.64-.83A3,3,0,0,1,3.5,7.1,3.15,3.15,0,0,1,4.81,4.52a5.85,5.85,0,0,1,3.66-1l2.6,0,2.37,0c2.26,0,3.79.39,4.57,1.16s1.17,2.12,1.17,4.05Z"/><path class="cls-1" d="M23.44,31.89a3.09,3.09,0,0,1,1.31-2.6,6,6,0,0,1,3.7-1q5,0,5,3.6a3.5,3.5,0,0,1-.65,2.21,3.11,3.11,0,0,1-1.7,1.11,10.4,10.4,0,0,1-2.67.29,6.85,6.85,0,0,1-3.58-.86A2.92,2.92,0,0,1,23.44,31.89Z"/><path class="cls-1" d="M51.21,26.35h5.11q3.85,0,3.86,4.45A4.55,4.55,0,0,1,59,34.38c-.81.71-2.26,1.07-4.34,1.07H42.15c-2.15,0-3.61-.29-4.39-.88s-1.18-1.84-1.17-3.77a6.49,6.49,0,0,1,.18-1.63,3.77,3.77,0,0,1,.69-1.35,6.39,6.39,0,0,1,1.38-1.28q2.49-1.71,3.91-2.75c1-.7,1.88-1.43,2.79-2.21a14.33,14.33,0,0,0,2-2,11,11,0,0,0,1.17-1.87,6.78,6.78,0,0,0,.7-2.09,17.28,17.28,0,0,0,.16-2.46c0-1.77-.54-2.65-1.61-2.65s-1.75,1-1.75,3.12a2.27,2.27,0,0,1-1.1,2.28,7.94,7.94,0,0,1-3.27.52c-2,0-3.29-.44-4-1.33a7.32,7.32,0,0,1-1-4.4,6.2,6.2,0,0,1,2.84-5.15q2.82-2.05,7.88-2.06,12.51,0,12.5,9.81a15.78,15.78,0,0,1-.51,4.15,13,13,0,0,1-1.24,3.13,10.17,10.17,0,0,1-2,2.39,19.41,19.41,0,0,1-2.37,1.85A28.36,28.36,0,0,1,51.21,26.35Z"/><path class="cls-2" d="M19.21,28q0,3.84-1.34,5.47a4.92,4.92,0,0,1-4.05,1.64,6.29,6.29,0,0,1-2.89-.57,3.63,3.63,0,0,1-1.68-2.09,12.48,12.48,0,0,1-.62-4.07L8.56,10.71a7.18,7.18,0,0,1-3.64-.83A3,3,0,0,1,3.5,7.1,3.15,3.15,0,0,1,4.81,4.52a5.85,5.85,0,0,1,3.66-1l2.6,0,2.37,0c2.26,0,3.79.39,4.57,1.16s1.17,2.12,1.17,4.05Z"/><path class="cls-2" d="M23.44,31.89a3.09,3.09,0,0,1,1.31-2.6,6,6,0,0,1,3.7-1q5,0,5,3.6a3.5,3.5,0,0,1-.65,2.21,3.11,3.11,0,0,1-1.7,1.11,10.4,10.4,0,0,1-2.67.29,6.85,6.85,0,0,1-3.58-.86A2.92,2.92,0,0,1,23.44,31.89Z"/><path class="cls-2" d="M51.21,26.35h5.11q3.85,0,3.86,4.45A4.55,4.55,0,0,1,59,34.38c-.81.71-2.26,1.07-4.34,1.07H42.15c-2.15,0-3.61-.29-4.39-.88s-1.18-1.84-1.17-3.77a6.49,6.49,0,0,1,.18-1.63,3.77,3.77,0,0,1,.69-1.35,6.39,6.39,0,0,1,1.38-1.28q2.49-1.71,3.91-2.75c1-.7,1.88-1.43,2.79-2.21a14.33,14.33,0,0,0,2-2,11,11,0,0,0,1.17-1.87,6.78,6.78,0,0,0,.7-2.09,17.28,17.28,0,0,0,.16-2.46c0-1.77-.54-2.65-1.61-2.65s-1.75,1-1.75,3.12a2.27,2.27,0,0,1-1.1,2.28,7.94,7.94,0,0,1-3.27.52c-2,0-3.29-.44-4-1.33a7.32,7.32,0,0,1-1-4.4,6.2,6.2,0,0,1,2.84-5.15q2.82-2.05,7.88-2.06,12.51,0,12.5,9.81a15.78,15.78,0,0,1-.51,4.15,13,13,0,0,1-1.24,3.13,10.17,10.17,0,0,1-2,2.39,19.41,19.41,0,0,1-2.37,1.85A28.36,28.36,0,0,1,51.21,26.35Z"/></g></g></svg>