<svg xmlns="http://www.w3.org/2000/svg" viewBox="0 0 63.96 39"><defs><style>.cls-1{fill:none;stroke:#fff;stroke-width:7px;}.cls-2{fill:#c8aa2d;}</style></defs><title>13si</title><g id="Layer_2" data-name="Layer 2"><g id="Layer_1-2" data-name="Layer 1"><path class="cls-1" d="M19.21,28q0,3.84-1.34,5.47a4.92,4.92,0,0,1-4.05,1.64,6.29,6.29,0,0,1-2.89-.57,3.63,3.63,0,0,1-1.68-2.09,12.48,12.48,0,0,1-.62-4.07L8.56,10.71a7.18,7.18,0,0,1-3.64-.83A3,3,0,0,1,3.5,7.1,3.15,3.15,0,0,1,4.81,4.52a5.85,5.85,0,0,1,3.66-1l2.6,0,2.37,0c2.26,0,3.79.39,4.57,1.16s1.17,2.12,1.17,4.05Z"/><path class="cls-1" d="M23.44,31.89a3.09,3.09,0,0,1,1.31-2.6,6,6,0,0,1,3.7-1q5,0,5,3.6a3.5,3.5,0,0,1-.65,2.21,3.11,3.11,0,0,1-1.7,1.11,10.4,10.4,0,0,1-2.67.29,6.85,6.85,0,0,1-3.58-.86A2.92,2.92,0,0,1,23.44,31.89Z"/><path class="cls-1" d="M49.71,13.79q0-2.32-4.19-2.33a22.86,22.86,0,0,0-2.36.17c-1,.11-1.73.16-2.19.16-2.21,0-3.31-1.35-3.31-4.07s3.2-4.22,9.57-4.22q6.21,0,9.29,2.09A6.29,6.29,0,0,1,59.59,11a8.73,8.73,0,0,1-4,7.49,10.75,10.75,0,0,1,3.75,3,8.14,8.14,0,0,1,1.08,4.58,8.32,8.32,0,0,1-3.16,6.71,12.93,12.93,0,0,1-8.44,2.58c-4.41,0-7.58-.47-9.49-1.4a4.48,4.48,0,0,1-2.87-4.24,4.43,4.43,0,0,1,.92-3.25A3.59,3.59,0,0,1,40,25.68c.56,0,1.41.07,2.58.19a25.55,25.55,0,0,0,2.67.19q5,0,5-1.89a1.81,1.81,0,0,0-1-1.78,8.92,8.92,0,0,0-3.63-.5,7.27,7.27,0,0,1-3.77-.71,2.92,2.92,0,0,1-1.1-2.65q0-2.94,3.77-2.94a19.63,19.63,0,0,0,3.61-.24c.79-.16,1.24-.34,1.36-.54A2.14,2.14,0,0,0,49.71,13.79Z"/><path class="cls-2" d="M19.21,28q0,3.84-1.34,5.47a4.92,4.92,0,0,1-4.05,1.64,6.29,6.29,0,0,1-2.89-.57,3.63,3.63,0,0,1-1.68-2.09,12.48,12.48,0,0,1-.62-4.07L8.56,10.71a7.18,7.18,0,0,1-3.64-.83A3,3,0,0,1,3.5,7.1,3.15,3.15,0,0,1,4.81,4.52a5.85,5.85,0,0,1,3.66-1l2.6,0,2.37,0c2.26,0,3.79.39,4.57,1.16s1.17,2.12,1.17,4.05Z"/><path class="cls-2" d="M23.44,31.89a3.09,3.09,0,0,1,1.31-2.6,6,6,0,0,1,3.7-1q5,0,5,3.6a3.5,3.5,0,0,1-.65,2.21,3.11,3.11,0,0,1-1.7,1.11,10.4,10.4,0,0,1-2.67.29,6.85,6.85,0,0,1-3.58-.86A2.92,2.92,0,0,1,23.44,31.89Z"/><path class="cls-2" d="M49.71,13.79q0-2.32-4.19-2.33a22.86,22.86,0,0,0-2.36.17c-1,.11-1.73.16-2.19.16-2.21,0-3.31-1.35-3.31-4.07s3.2-4.22,9.57-4.22q6.21,0,9.29,2.09A6.29,6.29,0,0,1,59.59,11a8.73,8.73,0,0,1-4,7.49,10.75,10.75,0,0,1,3.75,3,8.14,8.14,0,0,1,1.08,4.58,8.32,8.32,0,0,1-3.16,6.71,12.93,12.93,0,0,1-8.44,2.58c-4.41,0-7.58-.47-9.49-1.4a4.48,4.48,0,0,1-2.87-4.24,4.43,4.43,0,0,1,.92-3.25A3.59,3.59,0,0,1,40,25.68c.56,0,1.41.07,2.58.19a25.55,25.55,0,0,0,2.67.19q5,0,5-1.89a1.81,1.81,0,0,0-1-1.78,8.92,8.92,0,0,0-3.63-.5,7.27,7.27,0,0,1-3.77-.71,2.92,2.92,0,0,1-1.1-2.65q0-2.94,3.77-2.94a19.63,19.63,0,0,0,3.61-.24c.79-.16,1.24-.34,1.36-.54A2.14,2.14,0,0,0,49.71,13.79Z"/></g></g></svg>