<svg xmlns="http://www.w3.org/2000/svg" viewBox="0 0 46.79 28.43"><defs><style>.cls-1{fill:none;stroke:#d63a39;stroke-width:6.6px;}.cls-2{fill:#fff;}</style></defs><title>15t</title><g id="Layer_2" data-name="Layer 2"><g id="Layer_1-2" data-name="Layer 1"><path class="cls-1" d="M14.35,20a5.88,5.88,0,0,1-.94,3.74,3.54,3.54,0,0,1-2.85,1.11,4.58,4.58,0,0,1-2-.39,2.55,2.55,0,0,1-1.18-1.42,8.23,8.23,0,0,1-.43-2.78l0-12.06A5.13,5.13,0,0,1,4.3,7.65a2,2,0,0,1-1-1.89A2.12,2.12,0,0,1,4.22,4a4.17,4.17,0,0,1,2.57-.7c.44,0,1,0,1.83,0h1.67a4.77,4.77,0,0,1,3.21.79,3.76,3.76,0,0,1,.83,2.77Z"/><path class="cls-1" d="M17.32,22.67a2.12,2.12,0,0,1,.92-1.78,4.38,4.38,0,0,1,2.61-.68c2.35,0,3.52.82,3.52,2.46a2.31,2.31,0,0,1-.45,1.5,2.15,2.15,0,0,1-1.2.76,7.56,7.56,0,0,1-1.88.2,5.05,5.05,0,0,1-2.52-.58A2,2,0,0,1,17.32,22.67Z"/><path class="cls-1" d="M40.88,8.54H34.25l-.07,2.1a16.63,16.63,0,0,1,5.92.87q3.39,1.39,3.39,5.83a7.15,7.15,0,0,1-2.37,5.72c-1.57,1.36-4,2-7.15,2a12.61,12.61,0,0,1-5.49-.86,2.83,2.83,0,0,1-1.62-2.67c0-2.11.75-3.17,2.24-3.17a10.35,10.35,0,0,1,2,.36,10,10,0,0,0,2.08.35,4.87,4.87,0,0,0,2.2-.38,1.45,1.45,0,0,0,.72-1.39q0-1.82-6.08-1.82a2.64,2.64,0,0,1-2.23-.74,5.46,5.46,0,0,1-.55-3V6a2.46,2.46,0,0,1,.82-2A4.78,4.78,0,0,1,31,3.33H40.2a2.88,2.88,0,0,1,2.07.58,3.45,3.45,0,0,1,.55,2.3A2.9,2.9,0,0,1,42.38,8,1.86,1.86,0,0,1,40.88,8.54Z"/><path class="cls-2" d="M14.35,20a5.88,5.88,0,0,1-.94,3.74,3.54,3.54,0,0,1-2.85,1.11,4.58,4.58,0,0,1-2-.39,2.55,2.55,0,0,1-1.18-1.42,8.23,8.23,0,0,1-.43-2.78l0-12.06A5.13,5.13,0,0,1,4.3,7.65a2,2,0,0,1-1-1.89A2.12,2.12,0,0,1,4.22,4a4.17,4.17,0,0,1,2.57-.7c.44,0,1,0,1.83,0h1.67a4.77,4.77,0,0,1,3.21.79,3.76,3.76,0,0,1,.83,2.77Z"/><path class="cls-2" d="M17.32,22.67a2.12,2.12,0,0,1,.92-1.78,4.38,4.38,0,0,1,2.61-.68c2.35,0,3.52.82,3.52,2.46a2.31,2.31,0,0,1-.45,1.5,2.15,2.15,0,0,1-1.2.76,7.56,7.56,0,0,1-1.88.2,5.05,5.05,0,0,1-2.52-.58A2,2,0,0,1,17.32,22.67Z"/><path class="cls-2" d="M40.88,8.54H34.25l-.07,2.1a16.63,16.63,0,0,1,5.92.87q3.39,1.39,3.39,5.83a7.15,7.15,0,0,1-2.37,5.72c-1.57,1.36-4,2-7.15,2a12.61,12.61,0,0,1-5.49-.86,2.83,2.83,0,0,1-1.62-2.67c0-2.11.75-3.17,2.24-3.17a10.35,10.35,0,0,1,2,.36,10,10,0,0,0,2.08.35,4.87,4.87,0,0,0,2.2-.38,1.45,1.45,0,0,0,.72-1.39q0-1.82-6.08-1.82a2.64,2.64,0,0,1-2.23-.74,5.46,5.46,0,0,1-.55-3V6a2.46,2.46,0,0,1,.82-2A4.78,4.78,0,0,1,31,3.33H40.2a2.88,2.88,0,0,1,2.07.58,3.45,3.45,0,0,1,.55,2.3A2.9,2.9,0,0,1,42.38,8,1.86,1.86,0,0,1,40.88,8.54Z"/></g></g></svg>