<svg xmlns="http://www.w3.org/2000/svg" viewBox="0 0 17.65 28.17"><defs><style>.cls-1{fill:#d63a39;}.cls-2{fill:#fff;}</style></defs><title>1n</title><g id="Layer_2" data-name="Layer 2"><g id="Layer_1-2" data-name="Layer 1"><path class="cls-1" d="M10.56,28.17a7.64,7.64,0,0,1-3.51-.74,5.69,5.69,0,0,1-2.78-3.17,11.3,11.3,0,0,1-.66-3.93l0-9.39a6.6,6.6,0,0,1-.89-.42A5.28,5.28,0,0,1,0,5.75,5.43,5.43,0,0,1,2.24,1.36,7.38,7.38,0,0,1,6.79,0c.45,0,1.07,0,1.88,0h1.62c1.6,0,3.9.18,5.5,1.72a6.83,6.83,0,0,1,1.84,5.14l0,13.13a8.81,8.81,0,0,1-1.72,5.86A6.72,6.72,0,0,1,10.56,28.17Zm-.23-6.61a2.61,2.61,0,0,0,.57,0A6.48,6.48,0,0,0,11.05,20L11,6.89c0-.08,0-.16,0-.23-.21,0-.46,0-.87,0l.06,13.63A7.16,7.16,0,0,0,10.33,21.56Z"/><path class="cls-2" d="M14.35,20a5.83,5.83,0,0,1-.94,3.73,3.51,3.51,0,0,1-2.85,1.12,4.58,4.58,0,0,1-2-.39,2.55,2.55,0,0,1-1.18-1.42,8.23,8.23,0,0,1-.43-2.78L6.85,8.21A5.12,5.12,0,0,1,4.3,7.65a2,2,0,0,1-1-1.89A2.12,2.12,0,0,1,4.22,4a4.15,4.15,0,0,1,2.57-.7c.44,0,1,0,1.83,0h1.67a4.77,4.77,0,0,1,3.21.79,3.76,3.76,0,0,1,.83,2.77Z"/></g></g></svg>