<svg xmlns="http://www.w3.org/2000/svg" viewBox="0 0 22.71 38.62"><defs><style>.cls-1{fill:none;stroke:#fff;stroke-width:7px;}.cls-2{fill:#c8aa2d;}</style></defs><title>1sin</title><g id="Layer_2" data-name="Layer 2"><g id="Layer_1-2" data-name="Layer 1"><path class="cls-1" d="M19.21,28q0,3.84-1.34,5.47a4.92,4.92,0,0,1-4.05,1.64,6.29,6.29,0,0,1-2.89-.57,3.66,3.66,0,0,1-1.68-2.09,12.48,12.48,0,0,1-.62-4.07L8.56,10.71a7.18,7.18,0,0,1-3.64-.83A3,3,0,0,1,3.5,7.1,3.15,3.15,0,0,1,4.81,4.52a5.85,5.85,0,0,1,3.66-1l2.6,0,2.37,0c2.26,0,3.79.38,4.57,1.16s1.17,2.12,1.17,4.05Z"/><path class="cls-2" d="M19.21,28q0,3.84-1.34,5.47a4.92,4.92,0,0,1-4.05,1.64,6.29,6.29,0,0,1-2.89-.57,3.66,3.66,0,0,1-1.68-2.09,12.48,12.48,0,0,1-.62-4.07L8.56,10.71a7.18,7.18,0,0,1-3.64-.83A3,3,0,0,1,3.5,7.1,3.15,3.15,0,0,1,4.81,4.52a5.85,5.85,0,0,1,3.66-1l2.6,0,2.37,0c2.26,0,3.79.38,4.57,1.16s1.17,2.12,1.17,4.05Z"/></g></g></svg>