<svg xmlns="http://www.w3.org/2000/svg" viewBox="0 0 70.36 39"><defs><style>.cls-1{fill:none;stroke:#fff;stroke-width:7px;}.cls-2{fill:#c8aa2d;}</style></defs><title>22si</title><g id="Layer_2" data-name="Layer 2"><g id="Layer_1-2" data-name="Layer 1"><path class="cls-1" d="M18.13,26.35h5.1c2.58,0,3.86,1.48,3.86,4.45a4.55,4.55,0,0,1-1.22,3.58c-.82.71-2.27,1.07-4.35,1.07H9.06c-2.15,0-3.61-.29-4.39-.88S3.5,32.73,3.5,30.8a6.49,6.49,0,0,1,.18-1.63,4,4,0,0,1,.7-1.35,6,6,0,0,1,1.38-1.28c1.65-1.14,3-2.06,3.91-2.75s1.88-1.43,2.78-2.21a13.79,13.79,0,0,0,2-2,11.72,11.72,0,0,0,1.18-1.87,7.07,7.07,0,0,0,.69-2.08,16.15,16.15,0,0,0,.16-2.47c0-1.77-.53-2.65-1.61-2.65s-1.74,1-1.74,3.13A2.28,2.28,0,0,1,12,15.92a7.94,7.94,0,0,1-3.27.52c-2,0-3.28-.44-4-1.33a7.25,7.25,0,0,1-1-4.4A6.17,6.17,0,0,1,6.58,5.56C8.47,4.19,11.09,3.5,14.47,3.5Q27,3.5,27,13.31a16.66,16.66,0,0,1-.51,4.15,13,13,0,0,1-1.25,3.13,10.17,10.17,0,0,1-2,2.39,18,18,0,0,1-2.37,1.85A29.34,29.34,0,0,1,18.13,26.35Z"/><path class="cls-1" d="M30.12,31.89a3.12,3.12,0,0,1,1.31-2.6,6,6,0,0,1,3.71-1q5,0,5,3.6a3.5,3.5,0,0,1-.65,2.21,3.14,3.14,0,0,1-1.7,1.11,10.51,10.51,0,0,1-2.67.29,6.85,6.85,0,0,1-3.58-.86A2.93,2.93,0,0,1,30.12,31.89Z"/><path class="cls-1" d="M57.9,26.35H63q3.87,0,3.86,4.45a4.55,4.55,0,0,1-1.22,3.58c-.81.71-2.26,1.07-4.35,1.07H48.83c-2.14,0-3.61-.29-4.39-.88s-1.17-1.84-1.17-3.77a6.46,6.46,0,0,1,.19-1.63,3.77,3.77,0,0,1,.69-1.35,6.39,6.39,0,0,1,1.38-1.28q2.49-1.71,3.91-2.75c1-.7,1.88-1.43,2.79-2.21a14.33,14.33,0,0,0,2-2,11,11,0,0,0,1.17-1.87,7,7,0,0,0,.69-2.09,17.14,17.14,0,0,0,.17-2.46c0-1.77-.54-2.65-1.61-2.65s-1.75,1-1.75,3.12a2.26,2.26,0,0,1-1.11,2.28,7.86,7.86,0,0,1-3.26.52c-2,0-3.29-.44-4-1.33a7.25,7.25,0,0,1-1-4.4,6.19,6.19,0,0,1,2.83-5.15q2.84-2.05,7.89-2.06,12.51,0,12.5,9.81a15.78,15.78,0,0,1-.51,4.15A13,13,0,0,1,65,20.59,10,10,0,0,1,63,23a18,18,0,0,1-2.37,1.85A28.08,28.08,0,0,1,57.9,26.35Z"/><path class="cls-2" d="M18.13,26.35h5.1c2.58,0,3.86,1.48,3.86,4.45a4.55,4.55,0,0,1-1.22,3.58c-.82.71-2.27,1.07-4.35,1.07H9.06c-2.15,0-3.61-.29-4.39-.88S3.5,32.73,3.5,30.8a6.49,6.49,0,0,1,.18-1.63,4,4,0,0,1,.7-1.35,6,6,0,0,1,1.38-1.28c1.65-1.14,3-2.06,3.91-2.75s1.88-1.43,2.78-2.21a13.79,13.79,0,0,0,2-2,11.72,11.72,0,0,0,1.18-1.87,7.07,7.07,0,0,0,.69-2.08,16.15,16.15,0,0,0,.16-2.47c0-1.77-.53-2.65-1.61-2.65s-1.74,1-1.74,3.13A2.28,2.28,0,0,1,12,15.92a7.94,7.94,0,0,1-3.27.52c-2,0-3.28-.44-4-1.33a7.25,7.25,0,0,1-1-4.4A6.17,6.17,0,0,1,6.58,5.56C8.47,4.19,11.09,3.5,14.47,3.5Q27,3.5,27,13.31a16.66,16.66,0,0,1-.51,4.15,13,13,0,0,1-1.25,3.13,10.17,10.17,0,0,1-2,2.39,18,18,0,0,1-2.37,1.85A29.34,29.34,0,0,1,18.13,26.35Z"/><path class="cls-2" d="M30.12,31.89a3.12,3.12,0,0,1,1.31-2.6,6,6,0,0,1,3.71-1q5,0,5,3.6a3.5,3.5,0,0,1-.65,2.21,3.14,3.14,0,0,1-1.7,1.11,10.51,10.51,0,0,1-2.67.29,6.85,6.85,0,0,1-3.58-.86A2.93,2.93,0,0,1,30.12,31.89Z"/><path class="cls-2" d="M57.9,26.35H63q3.87,0,3.86,4.45a4.55,4.55,0,0,1-1.22,3.58c-.81.71-2.26,1.07-4.35,1.07H48.83c-2.14,0-3.61-.29-4.39-.88s-1.17-1.84-1.17-3.77a6.46,6.46,0,0,1,.19-1.63,3.77,3.77,0,0,1,.69-1.35,6.39,6.39,0,0,1,1.38-1.28q2.49-1.71,3.91-2.75c1-.7,1.88-1.43,2.79-2.21a14.33,14.33,0,0,0,2-2,11,11,0,0,0,1.17-1.87,7,7,0,0,0,.69-2.09,17.14,17.14,0,0,0,.17-2.46c0-1.77-.54-2.65-1.61-2.65s-1.75,1-1.75,3.12a2.26,2.26,0,0,1-1.11,2.28,7.86,7.86,0,0,1-3.26.52c-2,0-3.29-.44-4-1.33a7.25,7.25,0,0,1-1-4.4,6.19,6.19,0,0,1,2.83-5.15q2.84-2.05,7.89-2.06,12.51,0,12.5,9.81a15.78,15.78,0,0,1-.51,4.15A13,13,0,0,1,65,20.59,10,10,0,0,1,63,23a18,18,0,0,1-2.37,1.85A28.08,28.08,0,0,1,57.9,26.35Z"/></g></g></svg>