<svg xmlns="http://www.w3.org/2000/svg" viewBox="0 0 70.64 39"><defs><style>.cls-1{fill:none;stroke:#fff;stroke-width:7px;}.cls-2{fill:#c8aa2d;}</style></defs><title>23si</title><g id="Layer_2" data-name="Layer 2"><g id="Layer_1-2" data-name="Layer 1"><path class="cls-1" d="M18.13,26.35h5.1c2.58,0,3.86,1.48,3.86,4.45a4.55,4.55,0,0,1-1.22,3.58c-.82.71-2.27,1.07-4.35,1.07H9.06c-2.15,0-3.61-.29-4.39-.88S3.5,32.73,3.5,30.81a6.52,6.52,0,0,1,.18-1.64,4,4,0,0,1,.7-1.35,6,6,0,0,1,1.38-1.28c1.65-1.14,3-2.06,3.91-2.75s1.88-1.43,2.78-2.2a14.29,14.29,0,0,0,2-2,11.72,11.72,0,0,0,1.18-1.87,7.07,7.07,0,0,0,.69-2.08,16.15,16.15,0,0,0,.16-2.47c0-1.77-.53-2.65-1.61-2.65s-1.74,1-1.74,3.13A2.28,2.28,0,0,1,12,15.92a7.94,7.94,0,0,1-3.27.52c-2,0-3.28-.44-4-1.33a7.25,7.25,0,0,1-1-4.4A6.17,6.17,0,0,1,6.58,5.56C8.47,4.19,11.09,3.5,14.47,3.5Q27,3.5,27,13.31a16.66,16.66,0,0,1-.51,4.15,13,13,0,0,1-1.25,3.13,10.17,10.17,0,0,1-2,2.39,18,18,0,0,1-2.37,1.85A29.34,29.34,0,0,1,18.13,26.35Z"/><path class="cls-1" d="M30.12,31.9a3.12,3.12,0,0,1,1.31-2.61,6,6,0,0,1,3.71-1q5,0,5,3.61a3.49,3.49,0,0,1-.65,2.2,3.14,3.14,0,0,1-1.7,1.11,10.51,10.51,0,0,1-2.67.29,6.85,6.85,0,0,1-3.58-.86A2.93,2.93,0,0,1,30.12,31.9Z"/><path class="cls-1" d="M56.39,13.79q0-2.32-4.18-2.33a23.21,23.21,0,0,0-2.37.17c-1,.11-1.72.17-2.18.17q-3.31,0-3.31-4.08T53.92,3.5c4.14,0,7.23.7,9.29,2.09A6.32,6.32,0,0,1,66.28,11a8.73,8.73,0,0,1-4,7.49,10.75,10.75,0,0,1,3.75,3,8.14,8.14,0,0,1,1.07,4.58A8.28,8.28,0,0,1,64,32.87a12.93,12.93,0,0,1-8.44,2.58c-4.42,0-7.58-.47-9.5-1.4a4.5,4.5,0,0,1-2.87-4.24,4.47,4.47,0,0,1,.92-3.25,3.63,3.63,0,0,1,2.58-.87c.55,0,1.41.06,2.57.18a25.91,25.91,0,0,0,2.67.19q5,0,5-1.89a1.81,1.81,0,0,0-1-1.78,8.92,8.92,0,0,0-3.63-.5,7.27,7.27,0,0,1-3.77-.71,2.9,2.9,0,0,1-1.1-2.65q0-2.94,3.77-2.94a19.63,19.63,0,0,0,3.61-.24c.78-.16,1.23-.34,1.36-.54A2.16,2.16,0,0,0,56.39,13.79Z"/><path class="cls-2" d="M18.13,26.35h5.1c2.58,0,3.86,1.48,3.86,4.45a4.55,4.55,0,0,1-1.22,3.58c-.82.71-2.27,1.07-4.35,1.07H9.06c-2.15,0-3.61-.29-4.39-.88S3.5,32.73,3.5,30.81a6.52,6.52,0,0,1,.18-1.64,4,4,0,0,1,.7-1.35,6,6,0,0,1,1.38-1.28c1.65-1.14,3-2.06,3.91-2.75s1.88-1.43,2.78-2.2a14.29,14.29,0,0,0,2-2,11.72,11.72,0,0,0,1.18-1.87,7.07,7.07,0,0,0,.69-2.08,16.15,16.15,0,0,0,.16-2.47c0-1.77-.53-2.65-1.61-2.65s-1.74,1-1.74,3.13A2.28,2.28,0,0,1,12,15.92a7.94,7.94,0,0,1-3.27.52c-2,0-3.28-.44-4-1.33a7.25,7.25,0,0,1-1-4.4A6.17,6.17,0,0,1,6.58,5.56C8.47,4.19,11.09,3.5,14.47,3.5Q27,3.5,27,13.31a16.66,16.66,0,0,1-.51,4.15,13,13,0,0,1-1.25,3.13,10.17,10.17,0,0,1-2,2.39,18,18,0,0,1-2.37,1.85A29.34,29.34,0,0,1,18.13,26.35Z"/><path class="cls-2" d="M30.12,31.9a3.12,3.12,0,0,1,1.31-2.61,6,6,0,0,1,3.71-1q5,0,5,3.61a3.49,3.49,0,0,1-.65,2.2,3.14,3.14,0,0,1-1.7,1.11,10.51,10.51,0,0,1-2.67.29,6.85,6.85,0,0,1-3.58-.86A2.93,2.93,0,0,1,30.12,31.9Z"/><path class="cls-2" d="M56.39,13.79q0-2.32-4.18-2.33a23.21,23.21,0,0,0-2.37.17c-1,.11-1.72.17-2.18.17q-3.31,0-3.31-4.08T53.92,3.5c4.14,0,7.23.7,9.29,2.09A6.32,6.32,0,0,1,66.28,11a8.73,8.73,0,0,1-4,7.49,10.75,10.75,0,0,1,3.75,3,8.14,8.14,0,0,1,1.07,4.58A8.28,8.28,0,0,1,64,32.87a12.93,12.93,0,0,1-8.44,2.58c-4.42,0-7.58-.47-9.5-1.4a4.5,4.5,0,0,1-2.87-4.24,4.47,4.47,0,0,1,.92-3.25,3.63,3.63,0,0,1,2.58-.87c.55,0,1.41.06,2.57.18a25.91,25.91,0,0,0,2.67.19q5,0,5-1.89a1.81,1.81,0,0,0-1-1.78,8.92,8.92,0,0,0-3.63-.5,7.27,7.27,0,0,1-3.77-.71,2.9,2.9,0,0,1-1.1-2.65q0-2.94,3.77-2.94a19.63,19.63,0,0,0,3.61-.24c.78-.16,1.23-.34,1.36-.54A2.16,2.16,0,0,0,56.39,13.79Z"/></g></g></svg>