<svg xmlns="http://www.w3.org/2000/svg" xmlns:xlink="http://www.w3.org/1999/xlink" viewBox="0 0 50.6 27.83"><defs><style>.cls-1,.cls-3{fill:none;}.cls-2{fill:#3493d0;}.cls-3{stroke-linecap:round;stroke-linejoin:round;stroke-width:6px;stroke:url(#New_Pattern_Swatch_1);}.cls-4{fill:#fff;}</style><pattern id="New_Pattern_Swatch_1" data-name="New Pattern Swatch 1" width="56.57" height="56.57" patternTransform="translate(0 47.95)" patternUnits="userSpaceOnUse" viewBox="0 0 56.57 56.57"><rect class="cls-1" width="56.57" height="56.57"/><rect class="cls-2" width="56.57" height="56.57"/></pattern></defs><title>24_1</title><g id="Layer_2" data-name="Layer 2"><g id="Layer_1-2" data-name="Layer 1"><path class="cls-3" d="M13.29,18.59h3.59c1.81,0,2.71,1,2.71,3a3.06,3.06,0,0,1-.86,2.44,4.85,4.85,0,0,1-3.06.73H6.91a5.61,5.61,0,0,1-3.09-.6C3.27,23.8,3,22.94,3,21.63a4.15,4.15,0,0,1,.13-1.12,2.66,2.66,0,0,1,.49-.92,4.2,4.2,0,0,1,1-.87c1.16-.78,2.08-1.4,2.75-1.88s1.32-1,2-1.5A10.22,10.22,0,0,0,10.7,14a7.42,7.42,0,0,0,.83-1.28A4.71,4.71,0,0,0,12,11.28a11.62,11.62,0,0,0,.11-1.68c0-1.21-.38-1.81-1.13-1.81S9.77,8.5,9.77,9.92A1.51,1.51,0,0,1,9,11.47a5.66,5.66,0,0,1-2.29.36,3.44,3.44,0,0,1-2.8-.91,4.78,4.78,0,0,1-.73-3,4.16,4.16,0,0,1,2-3.51A9.44,9.44,0,0,1,10.71,3q8.8,0,8.79,6.69a10.8,10.8,0,0,1-.35,2.83,8.41,8.41,0,0,1-.88,2.14,7,7,0,0,1-1.41,1.63,13,13,0,0,1-1.66,1.26A21,21,0,0,1,13.29,18.59Z"/><path class="cls-3" d="M21.72,22.37a2.12,2.12,0,0,1,.93-1.78,4.33,4.33,0,0,1,2.6-.68c2.35,0,3.52.82,3.52,2.46a2.36,2.36,0,0,1-.45,1.51,2.16,2.16,0,0,1-1.2.75,7.47,7.47,0,0,1-1.87.2,5,5,0,0,1-2.53-.58A2,2,0,0,1,21.72,22.37Z"/><path class="cls-3" d="M41.42,24.57a3.4,3.4,0,0,1-2.78-1.05,5.75,5.75,0,0,1-.87-3.67h-6a4.33,4.33,0,0,1-3.12-1,3.47,3.47,0,0,1-1-2.59,5.41,5.41,0,0,1,.87-3q2.31-3.59,5.18-7.76A5.33,5.33,0,0,1,38.33,3l2.81,0a4.8,4.8,0,0,1,3.2.79,3.71,3.71,0,0,1,.84,2.77v8.54a2.91,2.91,0,0,1,1.9.68,2.43,2.43,0,0,1,.52,1.74,2.18,2.18,0,0,1-.55,1.7,3.37,3.37,0,0,1-1.88.57,5.59,5.59,0,0,1-.94,3.65A3.5,3.5,0,0,1,41.42,24.57Zm-3.68-9.31.1-6.89L33.5,15.26Z"/><path class="cls-4" d="M13.29,18.59h3.59c1.81,0,2.71,1,2.71,3a3.06,3.06,0,0,1-.86,2.44,4.85,4.85,0,0,1-3.06.73H6.91a5.61,5.61,0,0,1-3.09-.6C3.27,23.8,3,22.94,3,21.63a4.15,4.15,0,0,1,.13-1.12,2.66,2.66,0,0,1,.49-.92,4.2,4.2,0,0,1,1-.87c1.16-.78,2.08-1.4,2.75-1.88s1.32-1,2-1.5A10.22,10.22,0,0,0,10.7,14a7.42,7.42,0,0,0,.83-1.28A4.71,4.71,0,0,0,12,11.28a11.62,11.62,0,0,0,.11-1.68c0-1.21-.38-1.81-1.13-1.81S9.77,8.5,9.77,9.92A1.51,1.51,0,0,1,9,11.47a5.66,5.66,0,0,1-2.29.36,3.44,3.44,0,0,1-2.8-.91,4.78,4.78,0,0,1-.73-3,4.16,4.16,0,0,1,2-3.51A9.44,9.44,0,0,1,10.71,3q8.8,0,8.79,6.69a10.8,10.8,0,0,1-.35,2.83,8.41,8.41,0,0,1-.88,2.14,7,7,0,0,1-1.41,1.63,13,13,0,0,1-1.66,1.26A21,21,0,0,1,13.29,18.59Z"/><path class="cls-4" d="M21.72,22.37a2.12,2.12,0,0,1,.93-1.78,4.33,4.33,0,0,1,2.6-.68c2.35,0,3.52.82,3.52,2.46a2.36,2.36,0,0,1-.45,1.51,2.16,2.16,0,0,1-1.2.75,7.47,7.47,0,0,1-1.87.2,5,5,0,0,1-2.53-.58A2,2,0,0,1,21.72,22.37Z"/><path class="cls-4" d="M41.42,24.57a3.4,3.4,0,0,1-2.78-1.05,5.75,5.75,0,0,1-.87-3.67h-6a4.33,4.33,0,0,1-3.12-1,3.47,3.47,0,0,1-1-2.59,5.41,5.41,0,0,1,.87-3q2.31-3.59,5.18-7.76A5.33,5.33,0,0,1,38.33,3l2.81,0a4.8,4.8,0,0,1,3.2.79,3.71,3.71,0,0,1,.84,2.77v8.54a2.91,2.91,0,0,1,1.9.68,2.43,2.43,0,0,1,.52,1.74,2.18,2.18,0,0,1-.55,1.7,3.37,3.37,0,0,1-1.88.57,5.59,5.59,0,0,1-.94,3.65A3.5,3.5,0,0,1,41.42,24.57Zm-3.68-9.31.1-6.89L33.5,15.26Z"/></g></g></svg>