<svg xmlns="http://www.w3.org/2000/svg" viewBox="0 0 70.42 40.37"><defs><style>.cls-1{fill:none;stroke:#fff;stroke-width:7px;}.cls-2{fill:#c8aa2d;}</style></defs><title>24si</title><g id="Layer_2" data-name="Layer 2"><g id="Layer_1-2" data-name="Layer 1"><path class="cls-1" d="M18.13,27.72h5.1c2.58,0,3.86,1.49,3.86,4.46a4.58,4.58,0,0,1-1.22,3.58c-.82.71-2.27,1.06-4.35,1.06H9.06c-2.15,0-3.61-.29-4.39-.87S3.5,34.1,3.5,32.18a6.58,6.58,0,0,1,.18-1.64,4,4,0,0,1,.7-1.35,6,6,0,0,1,1.38-1.28c1.65-1.14,3-2.05,3.91-2.75s1.88-1.43,2.78-2.2a14.88,14.88,0,0,0,2-2,12.3,12.3,0,0,0,1.18-1.88A7.07,7.07,0,0,0,16.32,17a16.15,16.15,0,0,0,.16-2.47c0-1.77-.53-2.65-1.61-2.65s-1.74,1-1.74,3.13A2.27,2.27,0,0,1,12,17.29a7.94,7.94,0,0,1-3.27.52c-2,0-3.28-.44-4-1.32a7.3,7.3,0,0,1-1-4.41A6.17,6.17,0,0,1,6.58,6.93c1.89-1.37,4.51-2.06,7.89-2.06Q27,4.87,27,14.68a16.66,16.66,0,0,1-.51,4.15A13,13,0,0,1,25.21,22a10,10,0,0,1-2,2.39,18,18,0,0,1-2.37,1.85A29.34,29.34,0,0,1,18.13,27.72Z"/><path class="cls-1" d="M30.12,33.27a3.12,3.12,0,0,1,1.31-2.61,6.06,6.06,0,0,1,3.71-1c3.34,0,5,1.21,5,3.61a3.49,3.49,0,0,1-.65,2.2,3.22,3.22,0,0,1-1.7,1.12,11,11,0,0,1-2.67.28A6.85,6.85,0,0,1,31.55,36,3,3,0,0,1,30.12,33.27Z"/><path class="cls-1" d="M58.12,36.49A4.76,4.76,0,0,1,54.17,35q-1.24-1.55-1.24-5.38h-8.5A6,6,0,0,1,40,28.1a5.15,5.15,0,0,1-1.45-3.79,8.18,8.18,0,0,1,1.25-4.46q3.27-5.27,7.37-11.38a7.5,7.5,0,0,1,6.58-3.6l4,0c2.23,0,3.75.39,4.55,1.16s1.19,2.13,1.19,4.05V22.65a4.16,4.16,0,0,1,2.71,1,3.73,3.73,0,0,1,.74,2.56,3.26,3.26,0,0,1-.79,2.49,4.54,4.54,0,0,1-2.67.83c0,2.5-.45,4.28-1.33,5.36A4.94,4.94,0,0,1,58.12,36.49ZM52.89,22.84,53,12.74l-6.17,10.1Z"/><path class="cls-2" d="M18.13,27.72h5.1c2.58,0,3.86,1.49,3.86,4.46a4.58,4.58,0,0,1-1.22,3.58c-.82.71-2.27,1.06-4.35,1.06H9.06c-2.15,0-3.61-.29-4.39-.87S3.5,34.1,3.5,32.18a6.58,6.58,0,0,1,.18-1.64,4,4,0,0,1,.7-1.35,6,6,0,0,1,1.38-1.28c1.65-1.14,3-2.05,3.91-2.75s1.88-1.43,2.78-2.2a14.88,14.88,0,0,0,2-2,12.3,12.3,0,0,0,1.18-1.88A7.07,7.07,0,0,0,16.32,17a16.15,16.15,0,0,0,.16-2.47c0-1.77-.53-2.65-1.61-2.65s-1.74,1-1.74,3.13A2.27,2.27,0,0,1,12,17.29a7.94,7.94,0,0,1-3.27.52c-2,0-3.28-.44-4-1.32a7.3,7.3,0,0,1-1-4.41A6.17,6.17,0,0,1,6.58,6.93c1.89-1.37,4.51-2.06,7.89-2.06Q27,4.87,27,14.68a16.66,16.66,0,0,1-.51,4.15A13,13,0,0,1,25.21,22a10,10,0,0,1-2,2.39,18,18,0,0,1-2.37,1.85A29.34,29.34,0,0,1,18.13,27.72Z"/><path class="cls-2" d="M30.12,33.27a3.12,3.12,0,0,1,1.31-2.61,6.06,6.06,0,0,1,3.71-1c3.34,0,5,1.21,5,3.61a3.49,3.49,0,0,1-.65,2.2,3.22,3.22,0,0,1-1.7,1.12,11,11,0,0,1-2.67.28A6.85,6.85,0,0,1,31.55,36,3,3,0,0,1,30.12,33.27Z"/><path class="cls-2" d="M58.12,36.49A4.76,4.76,0,0,1,54.17,35q-1.24-1.55-1.24-5.38h-8.5A6,6,0,0,1,40,28.1a5.15,5.15,0,0,1-1.45-3.79,8.18,8.18,0,0,1,1.25-4.46q3.27-5.27,7.37-11.38a7.5,7.5,0,0,1,6.58-3.6l4,0c2.23,0,3.75.39,4.55,1.16s1.19,2.13,1.19,4.05V22.65a4.16,4.16,0,0,1,2.71,1,3.73,3.73,0,0,1,.74,2.56,3.26,3.26,0,0,1-.79,2.49,4.54,4.54,0,0,1-2.67.83c0,2.5-.45,4.28-1.33,5.36A4.94,4.94,0,0,1,58.12,36.49ZM52.89,22.84,53,12.74l-6.17,10.1Z"/></g></g></svg>