<svg xmlns="http://www.w3.org/2000/svg" viewBox="0 0 51.49 28.43"><defs><style>.cls-1{fill:none;stroke:#d63a39;stroke-width:6.6px;}.cls-2{fill:#fff;}</style></defs><title>25t</title><g id="Layer_2" data-name="Layer 2"><g id="Layer_1-2" data-name="Layer 1"><path class="cls-1" d="M13.59,18.89h3.59c1.81,0,2.71,1,2.71,3A3.06,3.06,0,0,1,19,24.37,4.85,4.85,0,0,1,16,25.1H7.21a5.61,5.61,0,0,1-3.09-.6c-.55-.4-.82-1.26-.82-2.57a4.15,4.15,0,0,1,.13-1.12,2.66,2.66,0,0,1,.49-.92,4.2,4.2,0,0,1,1-.87c1.16-.78,2.08-1.4,2.75-1.88s1.32-1,2-1.5A10.22,10.22,0,0,0,11,14.28,7.42,7.42,0,0,0,11.83,13a4.71,4.71,0,0,0,.49-1.42,11.62,11.62,0,0,0,.11-1.68c0-1.21-.38-1.81-1.13-1.81s-1.23.71-1.23,2.13a1.51,1.51,0,0,1-.78,1.55,5.68,5.68,0,0,1-2.3.36,3.42,3.42,0,0,1-2.79-.91,4.78,4.78,0,0,1-.73-3,4.16,4.16,0,0,1,2-3.51A9.44,9.44,0,0,1,11,3.3q8.8,0,8.79,6.69a10.8,10.8,0,0,1-.35,2.83A8.41,8.41,0,0,1,18.57,15a7,7,0,0,1-1.41,1.63,13,13,0,0,1-1.66,1.26A21,21,0,0,1,13.59,18.89Z"/><path class="cls-1" d="M22,22.67A2.12,2.12,0,0,1,23,20.89a4.33,4.33,0,0,1,2.6-.68c2.35,0,3.52.82,3.52,2.46a2.31,2.31,0,0,1-.45,1.5,2.12,2.12,0,0,1-1.2.76,7.47,7.47,0,0,1-1.87.2A5,5,0,0,1,23,24.55,2,2,0,0,1,22,22.67Z"/><path class="cls-1" d="M45.58,8.54H39l-.07,2.1a16.63,16.63,0,0,1,5.92.87q3.39,1.39,3.39,5.83a7.15,7.15,0,0,1-2.37,5.72q-2.35,2-7.14,2a12.67,12.67,0,0,1-5.5-.86,2.83,2.83,0,0,1-1.62-2.67c0-2.11.75-3.17,2.24-3.17a10.24,10.24,0,0,1,2.05.36,10.05,10.05,0,0,0,2.09.35,4.93,4.93,0,0,0,2.2-.38,1.46,1.46,0,0,0,.71-1.39q0-1.82-6.08-1.82a2.65,2.65,0,0,1-2.23-.74,5.46,5.46,0,0,1-.55-3V6a2.42,2.42,0,0,1,.82-2,4.7,4.7,0,0,1,2.9-.67H44.9A2.84,2.84,0,0,1,47,3.91a3.45,3.45,0,0,1,.55,2.3A2.9,2.9,0,0,1,47.08,8,1.86,1.86,0,0,1,45.58,8.54Z"/><path class="cls-2" d="M13.59,18.89h3.59c1.81,0,2.71,1,2.71,3A3.06,3.06,0,0,1,19,24.37,4.85,4.85,0,0,1,16,25.1H7.21a5.61,5.61,0,0,1-3.09-.6c-.55-.4-.82-1.26-.82-2.57a4.15,4.15,0,0,1,.13-1.12,2.66,2.66,0,0,1,.49-.92,4.2,4.2,0,0,1,1-.87c1.16-.78,2.08-1.4,2.75-1.88s1.32-1,2-1.5A10.22,10.22,0,0,0,11,14.28,7.42,7.42,0,0,0,11.83,13a4.71,4.71,0,0,0,.49-1.42,11.62,11.62,0,0,0,.11-1.68c0-1.21-.38-1.81-1.13-1.81s-1.23.71-1.23,2.13a1.51,1.51,0,0,1-.78,1.55,5.68,5.68,0,0,1-2.3.36,3.42,3.42,0,0,1-2.79-.91,4.78,4.78,0,0,1-.73-3,4.16,4.16,0,0,1,2-3.51A9.44,9.44,0,0,1,11,3.3q8.8,0,8.79,6.69a10.8,10.8,0,0,1-.35,2.83A8.41,8.41,0,0,1,18.57,15a7,7,0,0,1-1.41,1.63,13,13,0,0,1-1.66,1.26A21,21,0,0,1,13.59,18.89Z"/><path class="cls-2" d="M22,22.67A2.12,2.12,0,0,1,23,20.89a4.33,4.33,0,0,1,2.6-.68c2.35,0,3.52.82,3.52,2.46a2.31,2.31,0,0,1-.45,1.5,2.12,2.12,0,0,1-1.2.76,7.47,7.47,0,0,1-1.87.2A5,5,0,0,1,23,24.55,2,2,0,0,1,22,22.67Z"/><path class="cls-2" d="M45.58,8.54H39l-.07,2.1a16.63,16.63,0,0,1,5.92.87q3.39,1.39,3.39,5.83a7.15,7.15,0,0,1-2.37,5.72q-2.35,2-7.14,2a12.67,12.67,0,0,1-5.5-.86,2.83,2.83,0,0,1-1.62-2.67c0-2.11.75-3.17,2.24-3.17a10.24,10.24,0,0,1,2.05.36,10.05,10.05,0,0,0,2.09.35,4.93,4.93,0,0,0,2.2-.38,1.46,1.46,0,0,0,.71-1.39q0-1.82-6.08-1.82a2.65,2.65,0,0,1-2.23-.74,5.46,5.46,0,0,1-.55-3V6a2.42,2.42,0,0,1,.82-2,4.7,4.7,0,0,1,2.9-.67H44.9A2.84,2.84,0,0,1,47,3.91a3.45,3.45,0,0,1,.55,2.3A2.9,2.9,0,0,1,47.08,8,1.86,1.86,0,0,1,45.58,8.54Z"/></g></g></svg>