<svg xmlns="http://www.w3.org/2000/svg" viewBox="0 0 23.19 28.4"><defs><style>.cls-1{fill:#d63a39;}.cls-2{fill:#fff;}</style></defs><title>2n</title><g id="Layer_2" data-name="Layer 2"><g id="Layer_1-2" data-name="Layer 1"><path class="cls-1" d="M16,28.4H7.21a8.31,8.31,0,0,1-5-1.23C.73,26.12,0,24.35,0,21.92a7.33,7.33,0,0,1,.25-2,5.9,5.9,0,0,1,1.07-2.08A8,8,0,0,1,3,16.29l1.67-1.12a5.59,5.59,0,0,1-3.07-1.88A7.9,7.9,0,0,1,.17,8.21,7.39,7.39,0,0,1,3.56,2,12.74,12.74,0,0,1,11,0c3.71,0,6.52.77,8.6,2.35A9.1,9.1,0,0,1,23.1,10a13.65,13.65,0,0,1-.48,3.71,11.51,11.51,0,0,1-1.23,3L21.2,17a5.2,5.2,0,0,1,.47.47,6.5,6.5,0,0,1,1.52,4.48,6.14,6.14,0,0,1-2,5A7.76,7.76,0,0,1,16,28.4ZM6.69,21.79H13.5l-1-4.32c-.24.22-.5.45-.8.7-.7.58-1.43,1.14-2.16,1.65S7.92,21,6.72,21.76ZM15.25,7.37a6.17,6.17,0,0,1,.48,2.53,13.19,13.19,0,0,1-.16,2.2,7.82,7.82,0,0,1-.63,2.05L15,14.1a3.61,3.61,0,0,0,.76-.85,5.51,5.51,0,0,0,.52-1.32A7.48,7.48,0,0,0,16.5,10c0-1.71-.62-2.19-.89-2.39A3.17,3.17,0,0,0,15.25,7.37ZM6.8,8.83h.08a6.3,6.3,0,0,1,.39-1.35c-.5.37-.5.59-.5.74A5,5,0,0,0,6.8,8.83Z"/><path class="cls-2" d="M13.59,18.89h3.59c1.81,0,2.71,1,2.71,3A3.06,3.06,0,0,1,19,24.37,4.85,4.85,0,0,1,16,25.1H7.21a5.61,5.61,0,0,1-3.09-.6c-.55-.4-.82-1.26-.82-2.57a4.15,4.15,0,0,1,.13-1.12,2.66,2.66,0,0,1,.49-.92,4.2,4.2,0,0,1,1-.87c1.16-.78,2.08-1.4,2.75-1.88s1.32-1,2-1.5A10.22,10.22,0,0,0,11,14.28,7.42,7.42,0,0,0,11.83,13a4.42,4.42,0,0,0,.48-1.42,10.25,10.25,0,0,0,.12-1.68c0-1.21-.38-1.81-1.13-1.81s-1.23.71-1.23,2.13a1.51,1.51,0,0,1-.78,1.55,5.68,5.68,0,0,1-2.3.36,3.42,3.42,0,0,1-2.79-.91,4.78,4.78,0,0,1-.73-3,4.17,4.17,0,0,1,2-3.51A9.49,9.49,0,0,1,11,3.3q8.8,0,8.79,6.69a10.38,10.38,0,0,1-.36,2.83A8.07,8.07,0,0,1,18.57,15a7.26,7.26,0,0,1-1.41,1.63,13,13,0,0,1-1.66,1.26A21,21,0,0,1,13.59,18.89Z"/></g></g></svg>