<svg xmlns="http://www.w3.org/2000/svg" viewBox="0 0 30.59 38.95"><defs><style>.cls-1{fill:none;stroke:#fff;stroke-width:7px;}.cls-2{fill:#c8aa2d;}</style></defs><title>2sin</title><g id="Layer_2" data-name="Layer 2"><g id="Layer_1-2" data-name="Layer 1"><path class="cls-1" d="M18.13,26.35h5.1c2.58,0,3.86,1.48,3.86,4.45a4.55,4.55,0,0,1-1.22,3.58c-.82.71-2.27,1.07-4.35,1.07H9.06c-2.15,0-3.61-.29-4.39-.88S3.5,32.73,3.5,30.8a6.49,6.49,0,0,1,.18-1.63,4,4,0,0,1,.7-1.35,6,6,0,0,1,1.38-1.28c1.65-1.14,3-2.06,3.91-2.75s1.88-1.43,2.78-2.21a13.79,13.79,0,0,0,2-2,11.72,11.72,0,0,0,1.18-1.87,7,7,0,0,0,.69-2.09,15.93,15.93,0,0,0,.16-2.46c0-1.77-.53-2.65-1.61-2.65s-1.74,1-1.74,3.12A2.29,2.29,0,0,1,12,15.92a7.94,7.94,0,0,1-3.27.52c-2,0-3.28-.44-4-1.33a7.25,7.25,0,0,1-1-4.4A6.17,6.17,0,0,1,6.58,5.56C8.47,4.19,11.09,3.5,14.47,3.5Q27,3.5,27,13.31a16.66,16.66,0,0,1-.51,4.15,13,13,0,0,1-1.25,3.13,10.17,10.17,0,0,1-2,2.39,18,18,0,0,1-2.37,1.85C20.1,25.3,19.2,25.81,18.13,26.35Z"/><path class="cls-2" d="M18.13,26.35h5.1c2.58,0,3.86,1.48,3.86,4.45a4.55,4.55,0,0,1-1.22,3.58c-.82.71-2.27,1.07-4.35,1.07H9.06c-2.15,0-3.61-.29-4.39-.88S3.5,32.73,3.5,30.8a6.49,6.49,0,0,1,.18-1.63,4,4,0,0,1,.7-1.35,6,6,0,0,1,1.38-1.28c1.65-1.14,3-2.06,3.91-2.75s1.88-1.43,2.78-2.21a13.79,13.79,0,0,0,2-2,11.72,11.72,0,0,0,1.18-1.87,7,7,0,0,0,.69-2.09,15.93,15.93,0,0,0,.16-2.46c0-1.77-.53-2.65-1.61-2.65s-1.74,1-1.74,3.12A2.29,2.29,0,0,1,12,15.92a7.94,7.94,0,0,1-3.27.52c-2,0-3.28-.44-4-1.33a7.25,7.25,0,0,1-1-4.4A6.17,6.17,0,0,1,6.58,5.56C8.47,4.19,11.09,3.5,14.47,3.5Q27,3.5,27,13.31a16.66,16.66,0,0,1-.51,4.15,13,13,0,0,1-1.25,3.13,10.17,10.17,0,0,1-2,2.39,18,18,0,0,1-2.37,1.85C20.1,25.3,19.2,25.81,18.13,26.35Z"/></g></g></svg>