<svg xmlns="http://www.w3.org/2000/svg" xmlns:xlink="http://www.w3.org/1999/xlink" viewBox="0 0 41.67 27.83"><defs><style>.cls-1,.cls-3{fill:none;}.cls-2{fill:#3493d0;}.cls-3{stroke-width:6px;stroke:url(#New_Pattern_Swatch_1);}.cls-4{fill:#fff;}</style><pattern id="New_Pattern_Swatch_1" data-name="New Pattern Swatch 1" width="56.57" height="56.57" patternTransform="translate(22.82 -51.62)" patternUnits="userSpaceOnUse" viewBox="0 0 56.57 56.57"><rect class="cls-1" width="56.57" height="56.57"/><rect class="cls-2" width="56.57" height="56.57"/></pattern></defs><title>31</title><g id="Layer_2" data-name="Layer 2"><g id="Layer_1-2" data-name="Layer 1"><path class="cls-3" d="M12.29,10q0-1.59-2.94-1.59a15.57,15.57,0,0,0-1.67.12c-.7.07-1.21.11-1.53.11-1.55,0-2.33-.93-2.33-2.78S6.07,3,10.55,3c2.91,0,5.09.48,6.53,1.42a4.29,4.29,0,0,1,2.17,3.72,5.92,5.92,0,0,1-2.79,5.11,7.42,7.42,0,0,1,2.63,2.09,5.36,5.36,0,0,1,.76,3.12A5.59,5.59,0,0,1,17.63,23,9.28,9.28,0,0,1,11.7,24.8c-3.11,0-5.33-.32-6.68-1A3.06,3.06,0,0,1,3,21a3,3,0,0,1,.65-2.22,2.55,2.55,0,0,1,1.81-.59c.39,0,1,0,1.81.12a18.2,18.2,0,0,0,1.88.13c2.35,0,3.52-.43,3.52-1.29A1.23,1.23,0,0,0,12,15.89a6.44,6.44,0,0,0-2.56-.34,5.21,5.21,0,0,1-2.65-.49A2,2,0,0,1,6,13.25c0-1.33.89-2,2.66-2a15.33,15.33,0,0,0,2.54-.16c.55-.11.86-.24.95-.38A1.33,1.33,0,0,0,12.29,10Z"/><path class="cls-3" d="M21.92,22.37a2.13,2.13,0,0,1,.92-1.78,4.36,4.36,0,0,1,2.61-.68c2.34,0,3.52.82,3.52,2.46a2.31,2.31,0,0,1-.46,1.51,2.24,2.24,0,0,1-1.19.76,8.13,8.13,0,0,1-1.88.19,5,5,0,0,1-2.52-.58A2,2,0,0,1,21.92,22.37Z"/><path class="cls-3" d="M38.67,19.72a5.82,5.82,0,0,1-.94,3.74,3.52,3.52,0,0,1-2.85,1.11,4.5,4.5,0,0,1-2-.39,2.51,2.51,0,0,1-1.18-1.42A8.2,8.2,0,0,1,31.23,20L31.18,7.92a5.07,5.07,0,0,1-2.55-.57,2,2,0,0,1-1-1.89,2.11,2.11,0,0,1,.93-1.76A4.13,4.13,0,0,1,31.12,3L33,3h1.66a4.81,4.81,0,0,1,3.22.79,3.76,3.76,0,0,1,.82,2.77Z"/><path class="cls-4" d="M12.29,10q0-1.59-2.94-1.59a15.57,15.57,0,0,0-1.67.12c-.7.07-1.21.11-1.53.11-1.55,0-2.33-.93-2.33-2.78S6.07,3,10.55,3c2.91,0,5.09.48,6.53,1.42a4.29,4.29,0,0,1,2.17,3.72,5.92,5.92,0,0,1-2.79,5.11,7.42,7.42,0,0,1,2.63,2.09,5.36,5.36,0,0,1,.76,3.12A5.59,5.59,0,0,1,17.63,23,9.28,9.28,0,0,1,11.7,24.8c-3.11,0-5.33-.32-6.68-1A3.06,3.06,0,0,1,3,21a3,3,0,0,1,.65-2.22,2.55,2.55,0,0,1,1.81-.59c.39,0,1,0,1.81.12a18.2,18.2,0,0,0,1.88.13c2.35,0,3.52-.43,3.52-1.29A1.23,1.23,0,0,0,12,15.89a6.44,6.44,0,0,0-2.56-.34,5.21,5.21,0,0,1-2.65-.49A2,2,0,0,1,6,13.25c0-1.33.89-2,2.66-2a15.33,15.33,0,0,0,2.54-.16c.55-.11.86-.24.95-.38A1.33,1.33,0,0,0,12.29,10Z"/><path class="cls-4" d="M21.92,22.37a2.13,2.13,0,0,1,.92-1.78,4.36,4.36,0,0,1,2.61-.68c2.34,0,3.52.82,3.52,2.46a2.31,2.31,0,0,1-.46,1.51,2.24,2.24,0,0,1-1.19.76,8.13,8.13,0,0,1-1.88.19,5,5,0,0,1-2.52-.58A2,2,0,0,1,21.92,22.37Z"/><path class="cls-4" d="M38.67,19.72a5.82,5.82,0,0,1-.94,3.74,3.52,3.52,0,0,1-2.85,1.11,4.5,4.5,0,0,1-2-.39,2.51,2.51,0,0,1-1.18-1.42A8.2,8.2,0,0,1,31.23,20L31.18,7.92a5.07,5.07,0,0,1-2.55-.57,2,2,0,0,1-1-1.89,2.11,2.11,0,0,1,.93-1.76A4.13,4.13,0,0,1,31.12,3L33,3h1.66a4.81,4.81,0,0,1,3.22.79,3.76,3.76,0,0,1,.82,2.77Z"/></g></g></svg>