<svg xmlns="http://www.w3.org/2000/svg" xmlns:xlink="http://www.w3.org/1999/xlink" viewBox="0 0 50.76 27.83"><defs><style>.cls-1,.cls-3{fill:none;}.cls-2{fill:#3493d0;}.cls-3{stroke-width:6px;stroke:url(#New_Pattern_Swatch_1);}.cls-4{fill:#fff;}</style><pattern id="New_Pattern_Swatch_1" data-name="New Pattern Swatch 1" width="56.57" height="56.57" patternTransform="translate(22.82 -19.04)" patternUnits="userSpaceOnUse" viewBox="0 0 56.57 56.57"><rect class="cls-1" width="56.57" height="56.57"/><rect class="cls-2" width="56.57" height="56.57"/></pattern></defs><title>32</title><g id="Layer_2" data-name="Layer 2"><g id="Layer_1-2" data-name="Layer 1"><path class="cls-3" d="M12.29,10q0-1.59-2.94-1.59a15.57,15.57,0,0,0-1.67.12c-.7.07-1.21.11-1.53.11-1.55,0-2.33-.93-2.33-2.78S6.07,3,10.55,3c2.91,0,5.09.48,6.53,1.42a4.29,4.29,0,0,1,2.17,3.72,5.92,5.92,0,0,1-2.79,5.11,7.42,7.42,0,0,1,2.63,2.09,5.36,5.36,0,0,1,.76,3.12A5.59,5.59,0,0,1,17.63,23,9.28,9.28,0,0,1,11.7,24.8c-3.11,0-5.33-.32-6.68-1A3.06,3.06,0,0,1,3,21a3,3,0,0,1,.65-2.22,2.55,2.55,0,0,1,1.81-.59c.39,0,1,0,1.81.12a18.2,18.2,0,0,0,1.88.13c2.35,0,3.52-.43,3.52-1.29A1.23,1.23,0,0,0,12,15.89a6.44,6.44,0,0,0-2.56-.34,5.21,5.21,0,0,1-2.65-.49A2,2,0,0,1,6,13.25c0-1.33.89-2,2.66-2a15.33,15.33,0,0,0,2.54-.16c.55-.11.86-.24.95-.38A1.33,1.33,0,0,0,12.29,10Z"/><path class="cls-3" d="M21.92,22.37a2.13,2.13,0,0,1,.92-1.78,4.36,4.36,0,0,1,2.61-.68c2.34,0,3.52.82,3.52,2.46a2.31,2.31,0,0,1-.46,1.51,2.24,2.24,0,0,1-1.19.76,8.13,8.13,0,0,1-1.88.19,5,5,0,0,1-2.52-.58A2,2,0,0,1,21.92,22.37Z"/><path class="cls-3" d="M41.45,18.59H45c1.81,0,2.72,1,2.72,3a3.06,3.06,0,0,1-.86,2.44,4.85,4.85,0,0,1-3.06.73H35.08A5.61,5.61,0,0,1,32,24.2c-.55-.4-.82-1.26-.82-2.57a4.1,4.1,0,0,1,.13-1.12,2.63,2.63,0,0,1,.48-.92,4.41,4.41,0,0,1,1-.87c1.17-.78,2.09-1.4,2.75-1.88s1.33-1,2-1.5A9.83,9.83,0,0,0,38.87,14a8.06,8.06,0,0,0,.83-1.28,4.68,4.68,0,0,0,.48-1.42A10.25,10.25,0,0,0,40.3,9.6c0-1.21-.38-1.81-1.13-1.81s-1.23.71-1.23,2.13a1.51,1.51,0,0,1-.78,1.55,5.68,5.68,0,0,1-2.3.36,3.42,3.42,0,0,1-2.79-.91,4.78,4.78,0,0,1-.73-3,4.17,4.17,0,0,1,2-3.51A9.49,9.49,0,0,1,38.88,3q8.79,0,8.79,6.69a10.38,10.38,0,0,1-.36,2.83,8.8,8.8,0,0,1-.87,2.14A7.26,7.26,0,0,1,45,16.29a12.39,12.39,0,0,1-1.67,1.26A19.69,19.69,0,0,1,41.45,18.59Z"/><path class="cls-4" d="M12.29,10q0-1.59-2.94-1.59a15.57,15.57,0,0,0-1.67.12c-.7.07-1.21.11-1.53.11-1.55,0-2.33-.93-2.33-2.78S6.07,3,10.55,3c2.91,0,5.09.48,6.53,1.42a4.29,4.29,0,0,1,2.17,3.72,5.92,5.92,0,0,1-2.79,5.11,7.42,7.42,0,0,1,2.63,2.09,5.36,5.36,0,0,1,.76,3.12A5.59,5.59,0,0,1,17.63,23,9.28,9.28,0,0,1,11.7,24.8c-3.11,0-5.33-.32-6.68-1A3.06,3.06,0,0,1,3,21a3,3,0,0,1,.65-2.22,2.55,2.55,0,0,1,1.81-.59c.39,0,1,0,1.81.12a18.2,18.2,0,0,0,1.88.13c2.35,0,3.52-.43,3.52-1.29A1.23,1.23,0,0,0,12,15.89a6.44,6.44,0,0,0-2.56-.34,5.21,5.21,0,0,1-2.65-.49A2,2,0,0,1,6,13.25c0-1.33.89-2,2.66-2a15.33,15.33,0,0,0,2.54-.16c.55-.11.86-.24.95-.38A1.33,1.33,0,0,0,12.29,10Z"/><path class="cls-4" d="M21.92,22.37a2.13,2.13,0,0,1,.92-1.78,4.36,4.36,0,0,1,2.61-.68c2.34,0,3.52.82,3.52,2.46a2.31,2.31,0,0,1-.46,1.51,2.24,2.24,0,0,1-1.19.76,8.13,8.13,0,0,1-1.88.19,5,5,0,0,1-2.52-.58A2,2,0,0,1,21.92,22.37Z"/><path class="cls-4" d="M41.45,18.59H45c1.81,0,2.72,1,2.72,3a3.06,3.06,0,0,1-.86,2.44,4.85,4.85,0,0,1-3.06.73H35.08A5.61,5.61,0,0,1,32,24.2c-.55-.4-.82-1.26-.82-2.57a4.1,4.1,0,0,1,.13-1.12,2.63,2.63,0,0,1,.48-.92,4.41,4.41,0,0,1,1-.87c1.17-.78,2.09-1.4,2.75-1.88s1.33-1,2-1.5A9.83,9.83,0,0,0,38.87,14a8.06,8.06,0,0,0,.83-1.28,4.68,4.68,0,0,0,.48-1.42A10.25,10.25,0,0,0,40.3,9.6c0-1.21-.38-1.81-1.13-1.81s-1.23.71-1.23,2.13a1.51,1.51,0,0,1-.78,1.55,5.68,5.68,0,0,1-2.3.36,3.42,3.42,0,0,1-2.79-.91,4.78,4.78,0,0,1-.73-3,4.17,4.17,0,0,1,2-3.51A9.49,9.49,0,0,1,38.88,3q8.79,0,8.79,6.69a10.38,10.38,0,0,1-.36,2.83,8.8,8.8,0,0,1-.87,2.14A7.26,7.26,0,0,1,45,16.29a12.39,12.39,0,0,1-1.67,1.26A19.69,19.69,0,0,1,41.45,18.59Z"/></g></g></svg>