<svg xmlns="http://www.w3.org/2000/svg" viewBox="0 0 70.64 39"><defs><style>.cls-1{fill:none;stroke:#fff;stroke-width:7px;}.cls-2{fill:#c8aa2d;}</style></defs><title>32si</title><g id="Layer_2" data-name="Layer 2"><g id="Layer_1-2" data-name="Layer 1"><path class="cls-1" d="M16.71,13.79q0-2.32-4.18-2.33a23.21,23.21,0,0,0-2.37.17c-1,.11-1.72.17-2.18.17q-3.32,0-3.31-4.08T14.24,3.5q6.21,0,9.28,2.09A6.3,6.3,0,0,1,26.6,11a8.73,8.73,0,0,1-4,7.49,10.7,10.7,0,0,1,3.74,3,8.14,8.14,0,0,1,1.08,4.58,8.26,8.26,0,0,1-3.16,6.71,12.91,12.91,0,0,1-8.44,2.58q-6.61,0-9.49-1.4A4.5,4.5,0,0,1,3.5,29.81a4.47,4.47,0,0,1,.92-3.25A3.61,3.61,0,0,1,7,25.69a25.32,25.32,0,0,1,2.57.19q1.75.18,2.67.18,5,0,5-1.89a1.83,1.83,0,0,0-1-1.78,9,9,0,0,0-3.63-.5,7.25,7.25,0,0,1-3.77-.71,2.9,2.9,0,0,1-1.1-2.65c0-2,1.25-2.94,3.77-2.94a19.71,19.71,0,0,0,3.61-.24c.78-.16,1.23-.34,1.36-.54A2.16,2.16,0,0,0,16.71,13.79Z"/><path class="cls-1" d="M30.4,31.89a3.12,3.12,0,0,1,1.31-2.6,6,6,0,0,1,3.7-1q5,0,5,3.6a3.5,3.5,0,0,1-.64,2.21,3.13,3.13,0,0,1-1.71,1.11,10.37,10.37,0,0,1-2.66.29,6.89,6.89,0,0,1-3.59-.86A2.94,2.94,0,0,1,30.4,31.89Z"/><path class="cls-1" d="M58.18,26.35h5.1c2.58,0,3.86,1.48,3.86,4.45a4.55,4.55,0,0,1-1.22,3.58c-.82.71-2.26,1.07-4.35,1.07H49.11c-2.15,0-3.61-.29-4.39-.88s-1.17-1.84-1.17-3.77a6.49,6.49,0,0,1,.18-1.63,4,4,0,0,1,.7-1.35,6,6,0,0,1,1.38-1.28c1.65-1.14,3-2.06,3.91-2.75s1.88-1.43,2.78-2.21a13.79,13.79,0,0,0,2-2,11.72,11.72,0,0,0,1.18-1.87,7,7,0,0,0,.69-2.09,15.93,15.93,0,0,0,.16-2.46c0-1.77-.53-2.65-1.61-2.65s-1.74,1-1.75,3.12a2.27,2.27,0,0,1-1.1,2.28,7.91,7.91,0,0,1-3.27.52c-2,0-3.28-.44-4-1.33a7.18,7.18,0,0,1-1-4.4,6.17,6.17,0,0,1,2.83-5.15c1.89-1.37,4.51-2.06,7.89-2.06Q67,3.5,67,13.31a16.66,16.66,0,0,1-.51,4.15,13,13,0,0,1-1.25,3.13,10.17,10.17,0,0,1-2,2.39,18,18,0,0,1-2.37,1.85A29.34,29.34,0,0,1,58.18,26.35Z"/><path class="cls-2" d="M16.71,13.79q0-2.32-4.18-2.33a23.21,23.21,0,0,0-2.37.17c-1,.11-1.72.17-2.18.17q-3.32,0-3.31-4.08T14.24,3.5q6.21,0,9.28,2.09A6.3,6.3,0,0,1,26.6,11a8.73,8.73,0,0,1-4,7.49,10.7,10.7,0,0,1,3.74,3,8.14,8.14,0,0,1,1.08,4.58,8.26,8.26,0,0,1-3.16,6.71,12.91,12.91,0,0,1-8.44,2.58q-6.61,0-9.49-1.4A4.5,4.5,0,0,1,3.5,29.81a4.47,4.47,0,0,1,.92-3.25A3.61,3.61,0,0,1,7,25.69a25.32,25.32,0,0,1,2.57.19q1.75.18,2.67.18,5,0,5-1.89a1.83,1.83,0,0,0-1-1.78,9,9,0,0,0-3.63-.5,7.25,7.25,0,0,1-3.77-.71,2.9,2.9,0,0,1-1.1-2.65c0-2,1.25-2.94,3.77-2.94a19.71,19.71,0,0,0,3.61-.24c.78-.16,1.23-.34,1.36-.54A2.16,2.16,0,0,0,16.71,13.79Z"/><path class="cls-2" d="M30.4,31.89a3.12,3.12,0,0,1,1.31-2.6,6,6,0,0,1,3.7-1q5,0,5,3.6a3.5,3.5,0,0,1-.64,2.21,3.13,3.13,0,0,1-1.71,1.11,10.37,10.37,0,0,1-2.66.29,6.89,6.89,0,0,1-3.59-.86A2.94,2.94,0,0,1,30.4,31.89Z"/><path class="cls-2" d="M58.18,26.35h5.1c2.58,0,3.86,1.48,3.86,4.45a4.55,4.55,0,0,1-1.22,3.58c-.82.71-2.26,1.07-4.35,1.07H49.11c-2.15,0-3.61-.29-4.39-.88s-1.17-1.84-1.17-3.77a6.49,6.49,0,0,1,.18-1.63,4,4,0,0,1,.7-1.35,6,6,0,0,1,1.38-1.28c1.65-1.14,3-2.06,3.91-2.75s1.88-1.43,2.78-2.21a13.79,13.79,0,0,0,2-2,11.72,11.72,0,0,0,1.18-1.87,7,7,0,0,0,.69-2.09,15.93,15.93,0,0,0,.16-2.46c0-1.77-.53-2.65-1.61-2.65s-1.74,1-1.75,3.12a2.27,2.27,0,0,1-1.1,2.28,7.91,7.91,0,0,1-3.27.52c-2,0-3.28-.44-4-1.33a7.18,7.18,0,0,1-1-4.4,6.17,6.17,0,0,1,2.83-5.15c1.89-1.37,4.51-2.06,7.89-2.06Q67,3.5,67,13.31a16.66,16.66,0,0,1-.51,4.15,13,13,0,0,1-1.25,3.13,10.17,10.17,0,0,1-2,2.39,18,18,0,0,1-2.37,1.85A29.34,29.34,0,0,1,58.18,26.35Z"/></g></g></svg>