<svg xmlns="http://www.w3.org/2000/svg" viewBox="0 0 70.92 39"><defs><style>.cls-1{fill:none;stroke:#fff;stroke-width:7px;}.cls-2{fill:#c8aa2d;}</style></defs><title>33si</title><g id="Layer_2" data-name="Layer 2"><g id="Layer_1-2" data-name="Layer 1"><path class="cls-1" d="M16.71,13.79q0-2.32-4.18-2.33a23.21,23.21,0,0,0-2.37.17c-1,.11-1.72.17-2.18.17q-3.32,0-3.31-4.08T14.24,3.5q6.21,0,9.28,2.09A6.3,6.3,0,0,1,26.6,11a8.73,8.73,0,0,1-4,7.49,10.7,10.7,0,0,1,3.74,3,8.14,8.14,0,0,1,1.08,4.58,8.26,8.26,0,0,1-3.16,6.71,12.91,12.91,0,0,1-8.44,2.58q-6.61,0-9.49-1.4A4.5,4.5,0,0,1,3.5,29.81a4.47,4.47,0,0,1,.92-3.25A3.61,3.61,0,0,1,7,25.69a25.32,25.32,0,0,1,2.57.19q1.75.18,2.67.18,5,0,5-1.89a1.83,1.83,0,0,0-1-1.78,9,9,0,0,0-3.63-.5,7.25,7.25,0,0,1-3.77-.71,2.9,2.9,0,0,1-1.1-2.65c0-2,1.25-2.94,3.77-2.94a19.71,19.71,0,0,0,3.61-.24c.78-.16,1.23-.34,1.36-.54A2.16,2.16,0,0,0,16.71,13.79Z"/><path class="cls-1" d="M30.4,31.9a3.12,3.12,0,0,1,1.31-2.61,6,6,0,0,1,3.7-1q5,0,5,3.61a3.49,3.49,0,0,1-.64,2.2,3.13,3.13,0,0,1-1.71,1.11,10.37,10.37,0,0,1-2.66.29,6.89,6.89,0,0,1-3.59-.86A2.94,2.94,0,0,1,30.4,31.9Z"/><path class="cls-1" d="M56.67,13.79q0-2.32-4.18-2.33a23,23,0,0,0-2.37.17c-1,.11-1.73.16-2.19.16-2.2,0-3.3-1.35-3.3-4.07S47.82,3.5,54.2,3.5c4.13,0,7.23.7,9.28,2.09A6.33,6.33,0,0,1,66.56,11a8.73,8.73,0,0,1-4,7.49,10.8,10.8,0,0,1,3.74,3,8.14,8.14,0,0,1,1.08,4.58,8.29,8.29,0,0,1-3.16,6.71,12.91,12.91,0,0,1-8.44,2.58c-4.41,0-7.58-.47-9.49-1.4a4.49,4.49,0,0,1-2.87-4.24,4.47,4.47,0,0,1,.92-3.25A3.6,3.6,0,0,1,47,25.69c.55,0,1.41.06,2.57.18a25.73,25.73,0,0,0,2.67.19q5,0,5-1.89a1.82,1.82,0,0,0-1-1.78,9,9,0,0,0-3.63-.5,7.25,7.25,0,0,1-3.77-.71,2.9,2.9,0,0,1-1.11-2.65c0-2,1.26-2.94,3.78-2.94a19.71,19.71,0,0,0,3.61-.24q1.17-.24,1.35-.54A2,2,0,0,0,56.67,13.79Z"/><path class="cls-2" d="M16.71,13.79q0-2.32-4.18-2.33a23.21,23.21,0,0,0-2.37.17c-1,.11-1.72.17-2.18.17q-3.32,0-3.31-4.08T14.24,3.5q6.21,0,9.28,2.09A6.3,6.3,0,0,1,26.6,11a8.73,8.73,0,0,1-4,7.49,10.7,10.7,0,0,1,3.74,3,8.14,8.14,0,0,1,1.08,4.58,8.26,8.26,0,0,1-3.16,6.71,12.91,12.91,0,0,1-8.44,2.58q-6.61,0-9.49-1.4A4.5,4.5,0,0,1,3.5,29.81a4.47,4.47,0,0,1,.92-3.25A3.61,3.61,0,0,1,7,25.69a25.32,25.32,0,0,1,2.57.19q1.75.18,2.67.18,5,0,5-1.89a1.83,1.83,0,0,0-1-1.78,9,9,0,0,0-3.63-.5,7.25,7.25,0,0,1-3.77-.71,2.9,2.9,0,0,1-1.1-2.65c0-2,1.25-2.94,3.77-2.94a19.71,19.71,0,0,0,3.61-.24c.78-.16,1.23-.34,1.36-.54A2.16,2.16,0,0,0,16.71,13.79Z"/><path class="cls-2" d="M30.4,31.9a3.12,3.12,0,0,1,1.31-2.61,6,6,0,0,1,3.7-1q5,0,5,3.61a3.49,3.49,0,0,1-.64,2.2,3.13,3.13,0,0,1-1.71,1.11,10.37,10.37,0,0,1-2.66.29,6.89,6.89,0,0,1-3.59-.86A2.94,2.94,0,0,1,30.4,31.9Z"/><path class="cls-2" d="M56.67,13.79q0-2.32-4.18-2.33a23,23,0,0,0-2.37.17c-1,.11-1.73.16-2.19.16-2.2,0-3.3-1.35-3.3-4.07S47.82,3.5,54.2,3.5c4.13,0,7.23.7,9.28,2.09A6.33,6.33,0,0,1,66.56,11a8.73,8.73,0,0,1-4,7.49,10.8,10.8,0,0,1,3.74,3,8.14,8.14,0,0,1,1.08,4.58,8.29,8.29,0,0,1-3.16,6.71,12.91,12.91,0,0,1-8.44,2.58c-4.41,0-7.58-.47-9.49-1.4a4.49,4.49,0,0,1-2.87-4.24,4.47,4.47,0,0,1,.92-3.25A3.6,3.6,0,0,1,47,25.69c.55,0,1.41.06,2.57.18a25.73,25.73,0,0,0,2.67.19q5,0,5-1.89a1.82,1.82,0,0,0-1-1.78,9,9,0,0,0-3.63-.5,7.25,7.25,0,0,1-3.77-.71,2.9,2.9,0,0,1-1.11-2.65c0-2,1.26-2.94,3.78-2.94a19.71,19.71,0,0,0,3.61-.24q1.17-.24,1.35-.54A2,2,0,0,0,56.67,13.79Z"/></g></g></svg>