<svg xmlns="http://www.w3.org/2000/svg" viewBox="0 0 70.69 39"><defs><style>.cls-1{fill:none;stroke:#fff;stroke-linecap:round;stroke-linejoin:round;stroke-width:7px;}.cls-2{fill:#c8aa2d;}</style></defs><title>34si</title><g id="Layer_2" data-name="Layer 2"><g id="Layer_1-2" data-name="Layer 1"><path class="cls-1" d="M16.71,13.79q0-2.32-4.18-2.33a23.21,23.21,0,0,0-2.37.17c-1,.11-1.72.17-2.18.17q-3.32,0-3.31-4.08T14.24,3.5q6.21,0,9.28,2.09A6.3,6.3,0,0,1,26.6,11a8.73,8.73,0,0,1-4,7.49,10.7,10.7,0,0,1,3.74,3,8.14,8.14,0,0,1,1.08,4.58,8.26,8.26,0,0,1-3.16,6.71,12.91,12.91,0,0,1-8.44,2.58q-6.61,0-9.49-1.4A4.5,4.5,0,0,1,3.5,29.81a4.47,4.47,0,0,1,.92-3.25A3.61,3.61,0,0,1,7,25.69a25.32,25.32,0,0,1,2.57.19q1.75.18,2.67.18,5,0,5-1.89a1.83,1.83,0,0,0-1-1.78,9,9,0,0,0-3.63-.5,7.25,7.25,0,0,1-3.77-.71,2.9,2.9,0,0,1-1.1-2.65c0-2,1.25-2.94,3.77-2.94a19.71,19.71,0,0,0,3.61-.24c.78-.16,1.23-.34,1.36-.54A2.16,2.16,0,0,0,16.71,13.79Z"/><path class="cls-1" d="M30.4,31.89a3.12,3.12,0,0,1,1.31-2.6,6,6,0,0,1,3.7-1q5,0,5,3.6a3.5,3.5,0,0,1-.64,2.21,3.13,3.13,0,0,1-1.71,1.11,10.37,10.37,0,0,1-2.66.29,6.89,6.89,0,0,1-3.59-.86A2.94,2.94,0,0,1,30.4,31.89Z"/><path class="cls-1" d="M58.4,35.12a4.78,4.78,0,0,1-3.95-1.54Q53.21,32,53.21,28.2H44.7a6,6,0,0,1-4.43-1.47,5.17,5.17,0,0,1-1.45-3.8,8.09,8.09,0,0,1,1.25-4.45q3.27-5.26,7.36-11.38A7.51,7.51,0,0,1,54,3.5l4,0c2.24,0,3.76.38,4.55,1.16s1.2,2.12,1.2,4.05V21.28a4.13,4.13,0,0,1,2.71,1,3.73,3.73,0,0,1,.73,2.56,3.23,3.23,0,0,1-.78,2.49,4.64,4.64,0,0,1-2.67.83c0,2.5-.45,4.28-1.34,5.36A4.9,4.9,0,0,1,58.4,35.12ZM53.17,21.47l.15-10.1-6.18,10.1Z"/><path class="cls-2" d="M16.71,13.79q0-2.32-4.18-2.33a23.21,23.21,0,0,0-2.37.17c-1,.11-1.72.17-2.18.17q-3.32,0-3.31-4.08T14.24,3.5q6.21,0,9.28,2.09A6.3,6.3,0,0,1,26.6,11a8.73,8.73,0,0,1-4,7.49,10.7,10.7,0,0,1,3.74,3,8.14,8.14,0,0,1,1.08,4.58,8.26,8.26,0,0,1-3.16,6.71,12.91,12.91,0,0,1-8.44,2.58q-6.61,0-9.49-1.4A4.5,4.5,0,0,1,3.5,29.81a4.47,4.47,0,0,1,.92-3.25A3.61,3.61,0,0,1,7,25.69a25.32,25.32,0,0,1,2.57.19q1.75.18,2.67.18,5,0,5-1.89a1.83,1.83,0,0,0-1-1.78,9,9,0,0,0-3.63-.5,7.25,7.25,0,0,1-3.77-.71,2.9,2.9,0,0,1-1.1-2.65c0-2,1.25-2.94,3.77-2.94a19.71,19.71,0,0,0,3.61-.24c.78-.16,1.23-.34,1.36-.54A2.16,2.16,0,0,0,16.71,13.79Z"/><path class="cls-2" d="M30.4,31.89a3.12,3.12,0,0,1,1.31-2.6,6,6,0,0,1,3.7-1q5,0,5,3.6a3.5,3.5,0,0,1-.64,2.21,3.13,3.13,0,0,1-1.71,1.11,10.37,10.37,0,0,1-2.66.29,6.89,6.89,0,0,1-3.59-.86A2.94,2.94,0,0,1,30.4,31.89Z"/><path class="cls-2" d="M58.4,35.12a4.78,4.78,0,0,1-3.95-1.54Q53.21,32,53.21,28.2H44.7a6,6,0,0,1-4.43-1.47,5.17,5.17,0,0,1-1.45-3.8,8.09,8.09,0,0,1,1.25-4.45q3.27-5.26,7.36-11.38A7.51,7.51,0,0,1,54,3.5l4,0c2.24,0,3.76.38,4.55,1.16s1.2,2.12,1.2,4.05V21.28a4.13,4.13,0,0,1,2.71,1,3.73,3.73,0,0,1,.73,2.56,3.23,3.23,0,0,1-.78,2.49,4.64,4.64,0,0,1-2.67.83c0,2.5-.45,4.28-1.34,5.36A4.9,4.9,0,0,1,58.4,35.12ZM53.17,21.47l.15-10.1-6.18,10.1Z"/></g></g></svg>