<svg xmlns="http://www.w3.org/2000/svg" viewBox="0 0 23.45 28.4"><defs><style>.cls-1{fill:#d63a39;}.cls-2{fill:#fff;}</style></defs><title>3n</title><g id="Layer_2" data-name="Layer 2"><g id="Layer_1-2" data-name="Layer 1"><path class="cls-1" d="M12,28.4c-3.69,0-6.26-.41-8.09-1.27A6.39,6.39,0,0,1,0,21.24a6,6,0,0,1,1.71-4.63,5.39,5.39,0,0,1,1.62-1,6.09,6.09,0,0,1-.32-2,5.52,5.52,0,0,1,.41-2.09,5.07,5.07,0,0,1-1.25-1.08A6.35,6.35,0,0,1,.82,6.17C.82,3.36,2.57,0,10.85,0c3.6,0,6.33.64,8.34,2a7.6,7.6,0,0,1,3.65,6.48,9.14,9.14,0,0,1-1.22,4.69,6.62,6.62,0,0,1,.47.61,8.55,8.55,0,0,1,1.36,5A8.89,8.89,0,0,1,20,25.92,12.54,12.54,0,0,1,12,28.4Zm-.12-6.6H12a6.13,6.13,0,0,0,3.88-1.05,2.31,2.31,0,0,0,1-2,2.89,2.89,0,0,0-.17-1.23,2.07,2.07,0,0,0-.41-.39v.28C16.27,18.85,15.64,21.12,11.88,21.8ZM9.29,10.32h0ZM14.51,7a4.54,4.54,0,0,1,1.36,2.86,2.69,2.69,0,0,0,.38-1.44c0-.23,0-.52-.68-1A4.3,4.3,0,0,0,14.51,7Z"/><path class="cls-2" d="M12.59,10.32q0-1.59-2.94-1.59A15.57,15.57,0,0,0,8,8.85c-.7.07-1.21.11-1.53.11C4.9,9,4.12,8,4.12,6.18S6.37,3.3,10.85,3.3q4.37,0,6.53,1.42a4.26,4.26,0,0,1,2.16,3.72,5.91,5.91,0,0,1-2.78,5.11,7.42,7.42,0,0,1,2.63,2.09,5.36,5.36,0,0,1,.76,3.12,5.56,5.56,0,0,1-2.22,4.57A9.23,9.23,0,0,1,12,25.1c-3.11,0-5.33-.32-6.68-1a3.06,3.06,0,0,1-2-2.89A3,3,0,0,1,4,19a2.55,2.55,0,0,1,1.81-.6c.39,0,1,.05,1.81.13a18.2,18.2,0,0,0,1.88.13c2.35,0,3.52-.43,3.52-1.29a1.22,1.22,0,0,0-.68-1.21,6.35,6.35,0,0,0-2.55-.34,5.21,5.21,0,0,1-2.65-.49,2,2,0,0,1-.78-1.81c0-1.34.89-2,2.66-2a14.09,14.09,0,0,0,2.54-.17c.55-.1.86-.23,1-.37A1.33,1.33,0,0,0,12.59,10.32Z"/></g></g></svg>