<svg xmlns="http://www.w3.org/2000/svg" viewBox="0 0 30.96 38.95"><defs><style>.cls-1{fill:none;stroke:#fff;stroke-width:7px;}.cls-2{fill:#c8aa2d;}</style></defs><title>3sin</title><g id="Layer_2" data-name="Layer 2"><g id="Layer_1-2" data-name="Layer 1"><path class="cls-1" d="M16.71,13.79q0-2.32-4.18-2.33a23.21,23.21,0,0,0-2.37.17c-1,.11-1.72.16-2.18.16-2.21,0-3.31-1.35-3.31-4.07S7.86,3.5,14.24,3.5q6.21,0,9.28,2.08A6.33,6.33,0,0,1,26.6,11a8.75,8.75,0,0,1-4,7.49,10.6,10.6,0,0,1,3.74,3,8.14,8.14,0,0,1,1.08,4.58,8.28,8.28,0,0,1-3.15,6.71,13,13,0,0,1-8.45,2.58q-6.61,0-9.49-1.4A4.5,4.5,0,0,1,3.5,29.81a4.47,4.47,0,0,1,.92-3.25A3.63,3.63,0,0,1,7,25.68c.55,0,1.41.07,2.57.19a25.91,25.91,0,0,0,2.67.19q5,0,5-1.89a1.82,1.82,0,0,0-1-1.78,8.92,8.92,0,0,0-3.63-.5,7.25,7.25,0,0,1-3.77-.71,2.9,2.9,0,0,1-1.1-2.65q0-2.94,3.77-2.94a19.71,19.71,0,0,0,3.61-.24c.78-.16,1.23-.34,1.36-.54A2.16,2.16,0,0,0,16.71,13.79Z"/><path class="cls-2" d="M16.71,13.79q0-2.32-4.18-2.33a23.21,23.21,0,0,0-2.37.17c-1,.11-1.72.16-2.18.16-2.21,0-3.31-1.35-3.31-4.07S7.86,3.5,14.24,3.5q6.21,0,9.28,2.08A6.33,6.33,0,0,1,26.6,11a8.75,8.75,0,0,1-4,7.49,10.6,10.6,0,0,1,3.74,3,8.14,8.14,0,0,1,1.08,4.58,8.28,8.28,0,0,1-3.15,6.71,13,13,0,0,1-8.45,2.58q-6.61,0-9.49-1.4A4.5,4.5,0,0,1,3.5,29.81a4.47,4.47,0,0,1,.92-3.25A3.63,3.63,0,0,1,7,25.68c.55,0,1.41.07,2.57.19a25.91,25.91,0,0,0,2.67.19q5,0,5-1.89a1.82,1.82,0,0,0-1-1.78,8.92,8.92,0,0,0-3.63-.5,7.25,7.25,0,0,1-3.77-.71,2.9,2.9,0,0,1-1.1-2.65q0-2.94,3.77-2.94a19.71,19.71,0,0,0,3.61-.24c.78-.16,1.23-.34,1.36-.54A2.16,2.16,0,0,0,16.71,13.79Z"/></g></g></svg>