<svg xmlns="http://www.w3.org/2000/svg" xmlns:xlink="http://www.w3.org/1999/xlink" viewBox="0 0 44.74 30.11"><defs><style>.cls-1,.cls-3{fill:none;}.cls-2{fill:#3493d0;}.cls-3{stroke-width:6px;stroke:url(#New_Pattern_Swatch_1);}.cls-4{fill:#fff;}</style><pattern id="New_Pattern_Swatch_1" data-name="New Pattern Swatch 1" width="56.57" height="56.57" patternTransform="translate(48.66 -51.62)" patternUnits="userSpaceOnUse" viewBox="0 0 56.57 56.57"><rect class="cls-1" width="56.57" height="56.57"/><rect class="cls-2" width="56.57" height="56.57"/></pattern></defs><title>41</title><g id="Layer_2" data-name="Layer 2"><g id="Layer_1-2" data-name="Layer 1"><path class="cls-3" d="M16.77,26.85A3.41,3.41,0,0,1,14,25.8a5.88,5.88,0,0,1-.87-3.67h-6a4.26,4.26,0,0,1-3.12-1,3.47,3.47,0,0,1-1-2.58,5.32,5.32,0,0,1,.88-3q2.3-3.6,5.18-7.77a5.32,5.32,0,0,1,4.62-2.45l2.82,0a4.76,4.76,0,0,1,3.2.79,3.71,3.71,0,0,1,.84,2.77V17.4a3.05,3.05,0,0,1,1.91.68A2.52,2.52,0,0,1,23,19.83a2.15,2.15,0,0,1-.55,1.7,3.28,3.28,0,0,1-1.87.56,5.68,5.68,0,0,1-1,3.66A3.49,3.49,0,0,1,16.77,26.85Zm-3.68-9.32.1-6.89L8.85,17.53Z"/><path class="cls-3" d="M25,24.65a2.08,2.08,0,0,1,.92-1.78,4.33,4.33,0,0,1,2.6-.68c2.35,0,3.53.82,3.53,2.46a2.41,2.41,0,0,1-.46,1.5,2.17,2.17,0,0,1-1.2.76,7.47,7.47,0,0,1-1.87.2A4.89,4.89,0,0,1,26,26.52,2,2,0,0,1,25,24.65Z"/><path class="cls-3" d="M41.74,22a5.85,5.85,0,0,1-.94,3.73A3.54,3.54,0,0,1,38,26.85a4.58,4.58,0,0,1-2-.39A2.5,2.5,0,0,1,34.74,25a8.22,8.22,0,0,1-.44-2.79l0-12.06a5.25,5.25,0,0,1-2.56-.56,2,2,0,0,1-1-1.9A2.11,2.11,0,0,1,31.62,6a4.2,4.2,0,0,1,2.57-.69H36l1.67,0a4.77,4.77,0,0,1,3.22.79,3.76,3.76,0,0,1,.82,2.77Z"/><path class="cls-4" d="M16.77,26.85A3.41,3.41,0,0,1,14,25.8a5.88,5.88,0,0,1-.87-3.67h-6a4.26,4.26,0,0,1-3.12-1,3.47,3.47,0,0,1-1-2.58,5.32,5.32,0,0,1,.88-3q2.3-3.6,5.18-7.77a5.32,5.32,0,0,1,4.62-2.45l2.82,0a4.76,4.76,0,0,1,3.2.79,3.71,3.71,0,0,1,.84,2.77V17.4a3.05,3.05,0,0,1,1.91.68A2.52,2.52,0,0,1,23,19.83a2.15,2.15,0,0,1-.55,1.7,3.28,3.28,0,0,1-1.87.56,5.68,5.68,0,0,1-1,3.66A3.49,3.49,0,0,1,16.77,26.85Zm-3.68-9.32.1-6.89L8.85,17.53Z"/><path class="cls-4" d="M25,24.65a2.08,2.08,0,0,1,.92-1.78,4.33,4.33,0,0,1,2.6-.68c2.35,0,3.53.82,3.53,2.46a2.41,2.41,0,0,1-.46,1.5,2.17,2.17,0,0,1-1.2.76,7.47,7.47,0,0,1-1.87.2A4.89,4.89,0,0,1,26,26.52,2,2,0,0,1,25,24.65Z"/><path class="cls-4" d="M41.74,22a5.85,5.85,0,0,1-.94,3.73A3.54,3.54,0,0,1,38,26.85a4.58,4.58,0,0,1-2-.39A2.5,2.5,0,0,1,34.74,25a8.22,8.22,0,0,1-.44-2.79l0-12.06a5.25,5.25,0,0,1-2.56-.56,2,2,0,0,1-1-1.9A2.11,2.11,0,0,1,31.62,6a4.2,4.2,0,0,1,2.57-.69H36l1.67,0a4.77,4.77,0,0,1,3.22.79,3.76,3.76,0,0,1,.82,2.77Z"/></g></g></svg>