<svg xmlns="http://www.w3.org/2000/svg" viewBox="0 0 45.34 28.43"><defs><style>.cls-1{fill:none;stroke:#3293d1;stroke-linecap:round;stroke-linejoin:round;stroke-width:6.6px;}.cls-2{fill:#fff;}</style></defs><title>41_1</title><g id="Layer_2" data-name="Layer 2"><g id="Layer_1-2" data-name="Layer 1"><path class="cls-1" d="M17.07,24.87a3.41,3.41,0,0,1-2.78-1.05,5.86,5.86,0,0,1-.87-3.67h-6a4.25,4.25,0,0,1-3.12-1,3.47,3.47,0,0,1-1-2.59,5.34,5.34,0,0,1,.88-3q2.3-3.58,5.18-7.76A5.3,5.3,0,0,1,14,3.3l2.82,0a4.75,4.75,0,0,1,3.2.8,3.69,3.69,0,0,1,.84,2.76v8.54a2.94,2.94,0,0,1,1.91.68,2.5,2.5,0,0,1,.51,1.74,2.14,2.14,0,0,1-.55,1.7,3.36,3.36,0,0,1-1.87.57,5.65,5.65,0,0,1-.95,3.65A3.49,3.49,0,0,1,17.07,24.87Zm-3.68-9.31.1-6.89L9.15,15.56Z"/><path class="cls-1" d="M25.29,22.67a2.11,2.11,0,0,1,.92-1.78,4.33,4.33,0,0,1,2.6-.68c2.35,0,3.53.82,3.53,2.46a2.42,2.42,0,0,1-.46,1.51,2.23,2.23,0,0,1-1.2.76,8,8,0,0,1-1.87.19,4.9,4.9,0,0,1-2.52-.58A2,2,0,0,1,25.29,22.67Z"/><path class="cls-1" d="M42,20a5.88,5.88,0,0,1-.94,3.74,3.54,3.54,0,0,1-2.85,1.11,4.58,4.58,0,0,1-2-.39A2.5,2.5,0,0,1,35,23.06a8.2,8.2,0,0,1-.44-2.78L34.55,8.22A5.13,5.13,0,0,1,32,7.65a2,2,0,0,1-1-1.89A2.11,2.11,0,0,1,31.92,4a4.13,4.13,0,0,1,2.57-.7l1.82,0H38a4.82,4.82,0,0,1,3.22.79A3.76,3.76,0,0,1,42,6.89Z"/><path class="cls-2" d="M17.07,24.87a3.41,3.41,0,0,1-2.78-1.05,5.86,5.86,0,0,1-.87-3.67h-6a4.25,4.25,0,0,1-3.12-1,3.47,3.47,0,0,1-1-2.59,5.34,5.34,0,0,1,.88-3q2.3-3.58,5.18-7.76A5.3,5.3,0,0,1,14,3.3l2.82,0a4.75,4.75,0,0,1,3.2.8,3.69,3.69,0,0,1,.84,2.76v8.54a2.94,2.94,0,0,1,1.91.68,2.5,2.5,0,0,1,.51,1.74,2.14,2.14,0,0,1-.55,1.7,3.36,3.36,0,0,1-1.87.57,5.65,5.65,0,0,1-.95,3.65A3.49,3.49,0,0,1,17.07,24.87Zm-3.68-9.31.1-6.89L9.15,15.56Z"/><path class="cls-2" d="M25.29,22.67a2.11,2.11,0,0,1,.92-1.78,4.33,4.33,0,0,1,2.6-.68c2.35,0,3.53.82,3.53,2.46a2.42,2.42,0,0,1-.46,1.51,2.23,2.23,0,0,1-1.2.76,8,8,0,0,1-1.87.19,4.9,4.9,0,0,1-2.52-.58A2,2,0,0,1,25.29,22.67Z"/><path class="cls-2" d="M42,20a5.88,5.88,0,0,1-.94,3.74,3.54,3.54,0,0,1-2.85,1.11,4.58,4.58,0,0,1-2-.39A2.5,2.5,0,0,1,35,23.06a8.2,8.2,0,0,1-.44-2.78L34.55,8.22A5.13,5.13,0,0,1,32,7.65a2,2,0,0,1-1-1.89A2.11,2.11,0,0,1,31.92,4a4.13,4.13,0,0,1,2.57-.7l1.82,0H38a4.82,4.82,0,0,1,3.22.79A3.76,3.76,0,0,1,42,6.89Z"/></g></g></svg>