<svg xmlns="http://www.w3.org/2000/svg" viewBox="0 0 62.08 40.37"><defs><style>.cls-1{fill:none;stroke:#fff;stroke-width:7px;}.cls-2{fill:#c8aa2d;}</style></defs><title>41si</title><g id="Layer_2" data-name="Layer 2"><g id="Layer_1-2" data-name="Layer 1"><path class="cls-1" d="M23.08,36.49A4.75,4.75,0,0,1,19.13,35c-.83-1-1.24-2.82-1.24-5.38H9.38A6,6,0,0,1,5,28.1,5.15,5.15,0,0,1,3.5,24.31a8.06,8.06,0,0,1,1.25-4.45Q8,14.6,12.11,8.48a7.51,7.51,0,0,1,6.58-3.6l4,0c2.24,0,3.76.39,4.55,1.16s1.2,2.13,1.19,4.06V22.65a4.19,4.19,0,0,1,2.72,1,3.71,3.71,0,0,1,.73,2.56,3.23,3.23,0,0,1-.78,2.49,4.68,4.68,0,0,1-2.67.82q0,3.75-1.34,5.36A4.87,4.87,0,0,1,23.08,36.49ZM17.85,22.84,18,12.74l-6.18,10.1Z"/><path class="cls-1" d="M34.76,33.27a3.15,3.15,0,0,1,1.31-2.61,6.06,6.06,0,0,1,3.71-1q5,0,5,3.6a3.53,3.53,0,0,1-.65,2.2,3.11,3.11,0,0,1-1.7,1.12,10.55,10.55,0,0,1-2.67.28A6.89,6.89,0,0,1,36.18,36,3,3,0,0,1,34.76,33.27Z"/><path class="cls-1" d="M58.58,29.38q0,3.84-1.34,5.48a4.91,4.91,0,0,1-4,1.63,6.34,6.34,0,0,1-2.9-.57,3.64,3.64,0,0,1-1.68-2.08A12.53,12.53,0,0,1,48,29.76l-.08-17.68a7.17,7.17,0,0,1-3.63-.83,3,3,0,0,1-1.43-2.77,3.16,3.16,0,0,1,1.32-2.59,5.87,5.87,0,0,1,3.65-1c.62,0,1.48,0,2.6,0s1.91,0,2.37,0c2.27,0,3.79.39,4.57,1.16s1.17,2.13,1.17,4.06Z"/><path class="cls-2" d="M23.08,36.49A4.75,4.75,0,0,1,19.13,35c-.83-1-1.24-2.82-1.24-5.38H9.38A6,6,0,0,1,5,28.1,5.15,5.15,0,0,1,3.5,24.31a8.06,8.06,0,0,1,1.25-4.45Q8,14.6,12.11,8.48a7.51,7.51,0,0,1,6.58-3.6l4,0c2.24,0,3.76.39,4.55,1.16s1.2,2.13,1.19,4.06V22.65a4.19,4.19,0,0,1,2.72,1,3.71,3.71,0,0,1,.73,2.56,3.23,3.23,0,0,1-.78,2.49,4.68,4.68,0,0,1-2.67.82q0,3.75-1.34,5.36A4.87,4.87,0,0,1,23.08,36.49ZM17.85,22.84,18,12.74l-6.18,10.1Z"/><path class="cls-2" d="M34.76,33.27a3.15,3.15,0,0,1,1.31-2.61,6.06,6.06,0,0,1,3.71-1q5,0,5,3.6a3.53,3.53,0,0,1-.65,2.2,3.11,3.11,0,0,1-1.7,1.12,10.55,10.55,0,0,1-2.67.28A6.89,6.89,0,0,1,36.18,36,3,3,0,0,1,34.76,33.27Z"/><path class="cls-2" d="M58.58,29.38q0,3.84-1.34,5.48a4.91,4.91,0,0,1-4,1.63,6.34,6.34,0,0,1-2.9-.57,3.64,3.64,0,0,1-1.68-2.08A12.53,12.53,0,0,1,48,29.76l-.08-17.68a7.17,7.17,0,0,1-3.63-.83,3,3,0,0,1-1.43-2.77,3.16,3.16,0,0,1,1.32-2.59,5.87,5.87,0,0,1,3.65-1c.62,0,1.48,0,2.6,0s1.91,0,2.37,0c2.27,0,3.79.39,4.57,1.16s1.17,2.13,1.17,4.06Z"/></g></g></svg>