<svg xmlns="http://www.w3.org/2000/svg" xmlns:xlink="http://www.w3.org/1999/xlink" viewBox="0 0 53.83 30.11"><defs><style>.cls-1,.cls-3{fill:none;}.cls-2{fill:#3493d0;}.cls-3{stroke-width:6px;stroke:url(#New_Pattern_Swatch_1);}.cls-4{fill:#fff;}</style><pattern id="New_Pattern_Swatch_1" data-name="New Pattern Swatch 1" width="56.57" height="56.57" patternTransform="translate(48.66 -22.14)" patternUnits="userSpaceOnUse" viewBox="0 0 56.57 56.57"><rect class="cls-1" width="56.57" height="56.57"/><rect class="cls-2" width="56.57" height="56.57"/></pattern></defs><title>42</title><g id="Layer_2" data-name="Layer 2"><g id="Layer_1-2" data-name="Layer 1"><path class="cls-3" d="M16.77,26.85A3.41,3.41,0,0,1,14,25.8a5.88,5.88,0,0,1-.87-3.67h-6a4.26,4.26,0,0,1-3.12-1,3.47,3.47,0,0,1-1-2.58,5.32,5.32,0,0,1,.88-3q2.3-3.6,5.18-7.77a5.32,5.32,0,0,1,4.62-2.45l2.82,0a4.76,4.76,0,0,1,3.2.79,3.71,3.71,0,0,1,.84,2.77V17.4a3.05,3.05,0,0,1,1.91.68A2.52,2.52,0,0,1,23,19.83a2.15,2.15,0,0,1-.55,1.7,3.28,3.28,0,0,1-1.87.56,5.68,5.68,0,0,1-1,3.66A3.49,3.49,0,0,1,16.77,26.85Zm-3.68-9.32.1-6.89L8.85,17.53Z"/><path class="cls-3" d="M25,24.65a2.08,2.08,0,0,1,.92-1.78,4.33,4.33,0,0,1,2.6-.68c2.35,0,3.53.82,3.53,2.46a2.41,2.41,0,0,1-.46,1.5,2.17,2.17,0,0,1-1.2.76,7.47,7.47,0,0,1-1.87.2A4.89,4.89,0,0,1,26,26.52,2,2,0,0,1,25,24.65Z"/><path class="cls-3" d="M44.52,20.86h3.59c1.81,0,2.72,1,2.72,3A3.07,3.07,0,0,1,50,26.34a4.81,4.81,0,0,1-3.06.73H38.15a5.61,5.61,0,0,1-3.09-.6c-.55-.39-.83-1.25-.82-2.57a4,4,0,0,1,.13-1.11,2.47,2.47,0,0,1,.48-.92,4.2,4.2,0,0,1,1-.88c1.17-.77,2.08-1.4,2.75-1.87s1.32-1,2-1.51a9.32,9.32,0,0,0,1.41-1.36A7.29,7.29,0,0,0,42.76,15a4.76,4.76,0,0,0,.49-1.43,11.39,11.39,0,0,0,.12-1.68c0-1.2-.38-1.81-1.14-1.81S41,10.77,41,12.2a1.54,1.54,0,0,1-.77,1.55,5.74,5.74,0,0,1-2.3.35,3.49,3.49,0,0,1-2.8-.9,4.89,4.89,0,0,1-.72-3,4.17,4.17,0,0,1,2-3.51A9.49,9.49,0,0,1,42,5.28q8.79,0,8.79,6.69a10.44,10.44,0,0,1-.36,2.83,8.49,8.49,0,0,1-.88,2.13,6.8,6.8,0,0,1-1.4,1.64,15.23,15.23,0,0,1-1.67,1.26A19.83,19.83,0,0,1,44.52,20.86Z"/><path class="cls-4" d="M16.77,26.85A3.41,3.41,0,0,1,14,25.8a5.88,5.88,0,0,1-.87-3.67h-6a4.26,4.26,0,0,1-3.12-1,3.47,3.47,0,0,1-1-2.58,5.32,5.32,0,0,1,.88-3q2.3-3.6,5.18-7.77a5.32,5.32,0,0,1,4.62-2.45l2.82,0a4.76,4.76,0,0,1,3.2.79,3.71,3.71,0,0,1,.84,2.77V17.4a3.05,3.05,0,0,1,1.91.68A2.52,2.52,0,0,1,23,19.83a2.15,2.15,0,0,1-.55,1.7,3.28,3.28,0,0,1-1.87.56,5.68,5.68,0,0,1-1,3.66A3.49,3.49,0,0,1,16.77,26.85Zm-3.68-9.32.1-6.89L8.85,17.53Z"/><path class="cls-4" d="M25,24.65a2.08,2.08,0,0,1,.92-1.78,4.33,4.33,0,0,1,2.6-.68c2.35,0,3.53.82,3.53,2.46a2.41,2.41,0,0,1-.46,1.5,2.17,2.17,0,0,1-1.2.76,7.47,7.47,0,0,1-1.87.2A4.89,4.89,0,0,1,26,26.52,2,2,0,0,1,25,24.65Z"/><path class="cls-4" d="M44.52,20.86h3.59c1.81,0,2.72,1,2.72,3A3.07,3.07,0,0,1,50,26.34a4.81,4.81,0,0,1-3.06.73H38.15a5.61,5.61,0,0,1-3.09-.6c-.55-.39-.83-1.25-.82-2.57a4,4,0,0,1,.13-1.11,2.47,2.47,0,0,1,.48-.92,4.2,4.2,0,0,1,1-.88c1.17-.77,2.08-1.4,2.75-1.87s1.32-1,2-1.51a9.32,9.32,0,0,0,1.41-1.36A7.29,7.29,0,0,0,42.76,15a4.76,4.76,0,0,0,.49-1.43,11.39,11.39,0,0,0,.12-1.68c0-1.2-.38-1.81-1.14-1.81S41,10.77,41,12.2a1.54,1.54,0,0,1-.77,1.55,5.74,5.74,0,0,1-2.3.35,3.49,3.49,0,0,1-2.8-.9,4.89,4.89,0,0,1-.72-3,4.17,4.17,0,0,1,2-3.51A9.49,9.49,0,0,1,42,5.28q8.79,0,8.79,6.69a10.44,10.44,0,0,1-.36,2.83,8.49,8.49,0,0,1-.88,2.13,6.8,6.8,0,0,1-1.4,1.64,15.23,15.23,0,0,1-1.67,1.26A19.83,19.83,0,0,1,44.52,20.86Z"/></g></g></svg>