<svg xmlns="http://www.w3.org/2000/svg" viewBox="0 0 75 40.37"><defs><style>.cls-1{fill:none;stroke:#fff;stroke-width:7px;}.cls-2{fill:#c8aa2d;}</style></defs><title>42si</title><g id="Layer_2" data-name="Layer 2"><g id="Layer_1-2" data-name="Layer 1"><path class="cls-1" d="M23.08,36.49A4.75,4.75,0,0,1,19.13,35c-.83-1-1.24-2.82-1.24-5.38H9.38A6,6,0,0,1,5,28.1,5.15,5.15,0,0,1,3.5,24.31a8.06,8.06,0,0,1,1.25-4.45Q8,14.6,12.11,8.48a7.51,7.51,0,0,1,6.58-3.6l4,0c2.24,0,3.76.39,4.55,1.16s1.2,2.13,1.19,4.06V22.65a4.19,4.19,0,0,1,2.72,1,3.71,3.71,0,0,1,.73,2.56,3.23,3.23,0,0,1-.78,2.49,4.68,4.68,0,0,1-2.67.82q0,3.75-1.34,5.36A4.87,4.87,0,0,1,23.08,36.49ZM17.85,22.84,18,12.74l-6.18,10.1Z"/><path class="cls-1" d="M34.76,33.27a3.15,3.15,0,0,1,1.31-2.61,6.06,6.06,0,0,1,3.71-1q5,0,5,3.6a3.53,3.53,0,0,1-.65,2.2,3.11,3.11,0,0,1-1.7,1.12,10.55,10.55,0,0,1-2.67.28A6.89,6.89,0,0,1,36.18,36,3,3,0,0,1,34.76,33.27Z"/><path class="cls-1" d="M62.54,27.72h5.1c2.58,0,3.86,1.49,3.86,4.46a4.57,4.57,0,0,1-1.22,3.58c-.81.71-2.26,1.06-4.35,1.06H53.47c-2.14,0-3.61-.29-4.39-.87s-1.17-1.84-1.17-3.77a6.11,6.11,0,0,1,.19-1.64,3.94,3.94,0,0,1,.69-1.35,6.39,6.39,0,0,1,1.38-1.28q2.49-1.69,3.91-2.75c1-.69,1.88-1.43,2.78-2.2a14.48,14.48,0,0,0,2-2A12.16,12.16,0,0,0,60,19.1,7.12,7.12,0,0,0,60.73,17a16,16,0,0,0,.16-2.46c0-1.77-.53-2.66-1.6-2.66s-1.75,1-1.75,3.13a2.23,2.23,0,0,1-1.11,2.27,7.84,7.84,0,0,1-3.26.53c-2,0-3.29-.45-4-1.33a7.3,7.3,0,0,1-1-4.41A6.17,6.17,0,0,1,51,6.94c1.89-1.38,4.52-2.06,7.89-2.06q12.51,0,12.5,9.81a15.83,15.83,0,0,1-.51,4.15A12.91,12.91,0,0,1,69.63,22a10.26,10.26,0,0,1-2,2.4,18.88,18.88,0,0,1-2.37,1.85A28.22,28.22,0,0,1,62.54,27.72Z"/><path class="cls-2" d="M23.08,36.49A4.75,4.75,0,0,1,19.13,35c-.83-1-1.24-2.82-1.24-5.38H9.38A6,6,0,0,1,5,28.1,5.15,5.15,0,0,1,3.5,24.31a8.06,8.06,0,0,1,1.25-4.45Q8,14.6,12.11,8.48a7.51,7.51,0,0,1,6.58-3.6l4,0c2.24,0,3.76.39,4.55,1.16s1.2,2.13,1.19,4.06V22.65a4.19,4.19,0,0,1,2.72,1,3.71,3.71,0,0,1,.73,2.56,3.23,3.23,0,0,1-.78,2.49,4.68,4.68,0,0,1-2.67.82q0,3.75-1.34,5.36A4.87,4.87,0,0,1,23.08,36.49ZM17.85,22.84,18,12.74l-6.18,10.1Z"/><path class="cls-2" d="M34.76,33.27a3.15,3.15,0,0,1,1.31-2.61,6.06,6.06,0,0,1,3.71-1q5,0,5,3.6a3.53,3.53,0,0,1-.65,2.2,3.11,3.11,0,0,1-1.7,1.12,10.55,10.55,0,0,1-2.67.28A6.89,6.89,0,0,1,36.18,36,3,3,0,0,1,34.76,33.27Z"/><path class="cls-2" d="M62.54,27.72h5.1c2.58,0,3.86,1.49,3.86,4.46a4.57,4.57,0,0,1-1.22,3.58c-.81.71-2.26,1.06-4.35,1.06H53.47c-2.14,0-3.61-.29-4.39-.87s-1.17-1.84-1.17-3.77a6.11,6.11,0,0,1,.19-1.64,3.94,3.94,0,0,1,.69-1.35,6.39,6.39,0,0,1,1.38-1.28q2.49-1.69,3.91-2.75c1-.69,1.88-1.43,2.78-2.2a14.48,14.48,0,0,0,2-2A12.16,12.16,0,0,0,60,19.1,7.12,7.12,0,0,0,60.73,17a16,16,0,0,0,.16-2.46c0-1.77-.53-2.66-1.6-2.66s-1.75,1-1.75,3.13a2.23,2.23,0,0,1-1.11,2.27,7.84,7.84,0,0,1-3.26.53c-2,0-3.29-.45-4-1.33a7.3,7.3,0,0,1-1-4.41A6.17,6.17,0,0,1,51,6.94c1.89-1.38,4.52-2.06,7.89-2.06q12.51,0,12.5,9.81a15.83,15.83,0,0,1-.51,4.15A12.91,12.91,0,0,1,69.63,22a10.26,10.26,0,0,1-2,2.4,18.88,18.88,0,0,1-2.37,1.85A28.22,28.22,0,0,1,62.54,27.72Z"/></g></g></svg>