<svg xmlns="http://www.w3.org/2000/svg" xmlns:xlink="http://www.w3.org/1999/xlink" viewBox="0 0 54.02 30.11"><defs><style>.cls-1,.cls-3{fill:none;}.cls-2{fill:#3493d0;}.cls-3{stroke-width:6px;stroke:url(#New_Pattern_Swatch_1);}.cls-4{fill:#fff;}</style><pattern id="New_Pattern_Swatch_1" data-name="New Pattern Swatch 1" width="56.57" height="56.57" patternTransform="translate(48.66 7.34)" patternUnits="userSpaceOnUse" viewBox="0 0 56.57 56.57"><rect class="cls-1" width="56.57" height="56.57"/><rect class="cls-2" width="56.57" height="56.57"/></pattern></defs><title>43</title><g id="Layer_2" data-name="Layer 2"><g id="Layer_1-2" data-name="Layer 1"><path class="cls-3" d="M16.77,26.85A3.41,3.41,0,0,1,14,25.8a5.88,5.88,0,0,1-.87-3.67h-6a4.26,4.26,0,0,1-3.12-1,3.47,3.47,0,0,1-1-2.58,5.32,5.32,0,0,1,.88-3c1.53-2.4,3.25-5,5.18-7.77a5.32,5.32,0,0,1,4.62-2.45l2.82,0a4.76,4.76,0,0,1,3.2.79,3.71,3.71,0,0,1,.84,2.77V17.4a3.05,3.05,0,0,1,1.91.68A2.52,2.52,0,0,1,23,19.83a2.15,2.15,0,0,1-.55,1.7,3.28,3.28,0,0,1-1.87.56,5.68,5.68,0,0,1-1,3.66A3.49,3.49,0,0,1,16.77,26.85Zm-3.68-9.32.1-6.89L8.85,17.53Z"/><path class="cls-3" d="M25,24.65a2.08,2.08,0,0,1,.92-1.78,4.33,4.33,0,0,1,2.6-.68c2.35,0,3.53.82,3.53,2.46a2.41,2.41,0,0,1-.46,1.5,2.17,2.17,0,0,1-1.2.76,7.47,7.47,0,0,1-1.87.2A4.89,4.89,0,0,1,26,26.52,2,2,0,0,1,25,24.65Z"/><path class="cls-3" d="M43.46,12.29c0-1-1-1.58-2.94-1.58-.41,0-1,0-1.67.11a15.14,15.14,0,0,1-1.53.12C35.77,10.94,35,10,35,8.15s2.25-2.87,6.73-2.87q4.37,0,6.53,1.42a4.29,4.29,0,0,1,2.17,3.72,5.93,5.93,0,0,1-2.79,5.11,7.41,7.41,0,0,1,2.63,2.08A5.41,5.41,0,0,1,51,20.73a5.57,5.57,0,0,1-2.22,4.58,9.23,9.23,0,0,1-5.93,1.76c-3.11,0-5.33-.32-6.68-.95a3.08,3.08,0,0,1-2-2.9A3,3,0,0,1,34.82,21a2.55,2.55,0,0,1,1.81-.6,18,18,0,0,1,1.81.13,18.37,18.37,0,0,0,1.88.13c2.35,0,3.52-.43,3.52-1.29a1.24,1.24,0,0,0-.67-1.22,6.64,6.64,0,0,0-2.56-.34A5.34,5.34,0,0,1,38,17.34a2,2,0,0,1-.78-1.81c0-1.34.89-2,2.66-2a14.3,14.3,0,0,0,2.54-.16c.55-.11.87-.23.95-.37A1.35,1.35,0,0,0,43.46,12.29Z"/><path class="cls-4" d="M16.77,26.85A3.41,3.41,0,0,1,14,25.8a5.88,5.88,0,0,1-.87-3.67h-6a4.26,4.26,0,0,1-3.12-1,3.47,3.47,0,0,1-1-2.58,5.32,5.32,0,0,1,.88-3c1.53-2.4,3.25-5,5.18-7.77a5.32,5.32,0,0,1,4.62-2.45l2.82,0a4.76,4.76,0,0,1,3.2.79,3.71,3.71,0,0,1,.84,2.77V17.4a3.05,3.05,0,0,1,1.91.68A2.52,2.52,0,0,1,23,19.83a2.15,2.15,0,0,1-.55,1.7,3.28,3.28,0,0,1-1.87.56,5.68,5.68,0,0,1-1,3.66A3.49,3.49,0,0,1,16.77,26.85Zm-3.68-9.32.1-6.89L8.85,17.53Z"/><path class="cls-4" d="M25,24.65a2.08,2.08,0,0,1,.92-1.78,4.33,4.33,0,0,1,2.6-.68c2.35,0,3.53.82,3.53,2.46a2.41,2.41,0,0,1-.46,1.5,2.17,2.17,0,0,1-1.2.76,7.47,7.47,0,0,1-1.87.2A4.89,4.89,0,0,1,26,26.52,2,2,0,0,1,25,24.65Z"/><path class="cls-4" d="M43.46,12.29c0-1-1-1.58-2.94-1.58-.41,0-1,0-1.67.11a15.14,15.14,0,0,1-1.53.12C35.77,10.94,35,10,35,8.15s2.25-2.87,6.73-2.87q4.37,0,6.53,1.42a4.29,4.29,0,0,1,2.17,3.72,5.93,5.93,0,0,1-2.79,5.11,7.41,7.41,0,0,1,2.63,2.08A5.41,5.41,0,0,1,51,20.73a5.57,5.57,0,0,1-2.22,4.58,9.23,9.23,0,0,1-5.93,1.76c-3.11,0-5.33-.32-6.68-.95a3.08,3.08,0,0,1-2-2.9A3,3,0,0,1,34.82,21a2.55,2.55,0,0,1,1.81-.6,18,18,0,0,1,1.81.13,18.37,18.37,0,0,0,1.88.13c2.35,0,3.52-.43,3.52-1.29a1.24,1.24,0,0,0-.67-1.22,6.64,6.64,0,0,0-2.56-.34A5.34,5.34,0,0,1,38,17.34a2,2,0,0,1-.78-1.81c0-1.34.89-2,2.66-2a14.3,14.3,0,0,0,2.54-.16c.55-.11.87-.23.95-.37A1.35,1.35,0,0,0,43.46,12.29Z"/></g></g></svg>