<svg xmlns="http://www.w3.org/2000/svg" viewBox="0 0 75.28 40.37"><defs><style>.cls-1{fill:none;stroke:#fff;stroke-width:7px;}.cls-2{fill:#c8aa2d;}</style></defs><title>43si</title><g id="Layer_2" data-name="Layer 2"><g id="Layer_1-2" data-name="Layer 1"><path class="cls-1" d="M23.08,36.49A4.75,4.75,0,0,1,19.13,35c-.83-1-1.24-2.82-1.24-5.38H9.38A6,6,0,0,1,5,28.1,5.15,5.15,0,0,1,3.5,24.31a8.06,8.06,0,0,1,1.25-4.45Q8,14.6,12.11,8.48a7.51,7.51,0,0,1,6.58-3.6l4,0c2.24,0,3.76.39,4.55,1.16s1.2,2.13,1.19,4.06V22.65a4.19,4.19,0,0,1,2.72,1,3.71,3.71,0,0,1,.73,2.56,3.23,3.23,0,0,1-.78,2.49,4.68,4.68,0,0,1-2.67.82q0,3.75-1.34,5.36A4.87,4.87,0,0,1,23.08,36.49ZM17.85,22.84,18,12.74l-6.18,10.1Z"/><path class="cls-1" d="M34.76,33.27a3.15,3.15,0,0,1,1.31-2.61,6.06,6.06,0,0,1,3.71-1q5,0,5,3.6a3.53,3.53,0,0,1-.65,2.2,3.11,3.11,0,0,1-1.7,1.12,10.55,10.55,0,0,1-2.67.28A6.89,6.89,0,0,1,36.18,36,3,3,0,0,1,34.76,33.27Z"/><path class="cls-1" d="M61,15.16q0-2.33-4.18-2.32a20.63,20.63,0,0,0-2.37.17c-1,.11-1.72.16-2.18.16Q49,13.17,49,9.09t9.57-4.21q6.21,0,9.28,2.08a6.32,6.32,0,0,1,3.08,5.45,8.72,8.72,0,0,1-4,7.49A10.61,10.61,0,0,1,70.7,23a8.1,8.1,0,0,1,1.08,4.57,8.27,8.27,0,0,1-3.15,6.71,13,13,0,0,1-8.44,2.58c-4.42,0-7.58-.46-9.5-1.39a4.53,4.53,0,0,1-2.87-4.25,4.43,4.43,0,0,1,.92-3.24,3.59,3.59,0,0,1,2.58-.88,25.32,25.32,0,0,1,2.57.19,25.91,25.91,0,0,0,2.67.19q5,0,5-1.9a1.82,1.82,0,0,0-1-1.78A9,9,0,0,0,57,23.27a7.35,7.35,0,0,1-3.77-.71,2.92,2.92,0,0,1-1.1-2.66q0-2.94,3.77-2.94a20.88,20.88,0,0,0,3.61-.23c.78-.16,1.23-.34,1.36-.55A2.1,2.1,0,0,0,61,15.16Z"/><path class="cls-2" d="M23.08,36.49A4.75,4.75,0,0,1,19.13,35c-.83-1-1.24-2.82-1.24-5.38H9.38A6,6,0,0,1,5,28.1,5.15,5.15,0,0,1,3.5,24.31a8.06,8.06,0,0,1,1.25-4.45Q8,14.6,12.11,8.48a7.51,7.51,0,0,1,6.58-3.6l4,0c2.24,0,3.76.39,4.55,1.16s1.2,2.13,1.19,4.06V22.65a4.19,4.19,0,0,1,2.72,1,3.71,3.71,0,0,1,.73,2.56,3.23,3.23,0,0,1-.78,2.49,4.68,4.68,0,0,1-2.67.82q0,3.75-1.34,5.36A4.87,4.87,0,0,1,23.08,36.49ZM17.85,22.84,18,12.74l-6.18,10.1Z"/><path class="cls-2" d="M34.76,33.27a3.15,3.15,0,0,1,1.31-2.61,6.06,6.06,0,0,1,3.71-1q5,0,5,3.6a3.53,3.53,0,0,1-.65,2.2,3.11,3.11,0,0,1-1.7,1.12,10.55,10.55,0,0,1-2.67.28A6.89,6.89,0,0,1,36.18,36,3,3,0,0,1,34.76,33.27Z"/><path class="cls-2" d="M61,15.16q0-2.33-4.18-2.32a20.63,20.63,0,0,0-2.37.17c-1,.11-1.72.16-2.18.16Q49,13.17,49,9.09t9.57-4.21q6.21,0,9.28,2.08a6.32,6.32,0,0,1,3.08,5.45,8.72,8.72,0,0,1-4,7.49A10.61,10.61,0,0,1,70.7,23a8.1,8.1,0,0,1,1.08,4.57,8.27,8.27,0,0,1-3.15,6.71,13,13,0,0,1-8.44,2.58c-4.42,0-7.58-.46-9.5-1.39a4.53,4.53,0,0,1-2.87-4.25,4.43,4.43,0,0,1,.92-3.24,3.59,3.59,0,0,1,2.58-.88,25.32,25.32,0,0,1,2.57.19,25.91,25.91,0,0,0,2.67.19q5,0,5-1.9a1.82,1.82,0,0,0-1-1.78A9,9,0,0,0,57,23.27a7.35,7.35,0,0,1-3.77-.71,2.92,2.92,0,0,1-1.1-2.66q0-2.94,3.77-2.94a20.88,20.88,0,0,0,3.61-.23c.78-.16,1.23-.34,1.36-.55A2.1,2.1,0,0,0,61,15.16Z"/></g></g></svg>