<svg xmlns="http://www.w3.org/2000/svg" xmlns:xlink="http://www.w3.org/1999/xlink" viewBox="0 0 53.86 27.83"><defs><style>.cls-1,.cls-3{fill:none;}.cls-2{fill:#3493d0;}.cls-3{stroke-linecap:round;stroke-linejoin:round;stroke-width:6px;stroke:url(#New_Pattern_Swatch_1);}.cls-4{fill:#fff;}</style><pattern id="New_Pattern_Swatch_1" data-name="New Pattern Swatch 1" width="56.57" height="56.57" patternTransform="translate(48.66 36.82)" patternUnits="userSpaceOnUse" viewBox="0 0 56.57 56.57"><rect class="cls-1" width="56.57" height="56.57"/><rect class="cls-2" width="56.57" height="56.57"/></pattern></defs><title>44</title><g id="Layer_2" data-name="Layer 2"><g id="Layer_1-2" data-name="Layer 1"><path class="cls-3" d="M16.77,24.57A3.41,3.41,0,0,1,14,23.52a5.86,5.86,0,0,1-.87-3.67h-6a4.25,4.25,0,0,1-3.12-1,3.47,3.47,0,0,1-1-2.59,5.34,5.34,0,0,1,.88-3q2.3-3.59,5.18-7.76A5.3,5.3,0,0,1,13.68,3L16.5,3a4.75,4.75,0,0,1,3.2.8,3.69,3.69,0,0,1,.84,2.76v8.54a2.94,2.94,0,0,1,1.91.68A2.5,2.5,0,0,1,23,17.55a2.14,2.14,0,0,1-.55,1.7,3.36,3.36,0,0,1-1.87.57,5.65,5.65,0,0,1-1,3.65A3.49,3.49,0,0,1,16.77,24.57Zm-3.68-9.31.1-6.89L8.85,15.26Z"/><path class="cls-3" d="M25,22.37a2.1,2.1,0,0,1,.92-1.78,4.33,4.33,0,0,1,2.6-.68c2.35,0,3.53.82,3.53,2.46a2.42,2.42,0,0,1-.46,1.51,2.16,2.16,0,0,1-1.2.75,7.47,7.47,0,0,1-1.87.2A5,5,0,0,1,26,24.25,2,2,0,0,1,25,22.37Z"/><path class="cls-3" d="M44.68,24.57a3.41,3.41,0,0,1-2.78-1.05A5.88,5.88,0,0,1,41,19.85H35a4.33,4.33,0,0,1-3.12-1,3.5,3.5,0,0,1-1-2.59,5.41,5.41,0,0,1,.87-3Q34.09,9.64,37,5.46A5.33,5.33,0,0,1,41.59,3l2.82,0a4.82,4.82,0,0,1,3.2.79,3.71,3.71,0,0,1,.84,2.77v8.54a2.91,2.91,0,0,1,1.9.68,2.43,2.43,0,0,1,.52,1.74,2.14,2.14,0,0,1-.55,1.7,3.37,3.37,0,0,1-1.88.57,5.59,5.59,0,0,1-.94,3.65A3.49,3.49,0,0,1,44.68,24.57ZM41,15.26l.1-6.89-4.34,6.89Z"/><path class="cls-4" d="M16.77,24.57A3.41,3.41,0,0,1,14,23.52a5.86,5.86,0,0,1-.87-3.67h-6a4.25,4.25,0,0,1-3.12-1,3.47,3.47,0,0,1-1-2.59,5.34,5.34,0,0,1,.88-3q2.3-3.59,5.18-7.76A5.3,5.3,0,0,1,13.68,3L16.5,3a4.75,4.75,0,0,1,3.2.8,3.69,3.69,0,0,1,.84,2.76v8.54a2.94,2.94,0,0,1,1.91.68A2.5,2.5,0,0,1,23,17.55a2.14,2.14,0,0,1-.55,1.7,3.36,3.36,0,0,1-1.87.57,5.65,5.65,0,0,1-1,3.65A3.49,3.49,0,0,1,16.77,24.57Zm-3.68-9.31.1-6.89L8.85,15.26Z"/><path class="cls-4" d="M25,22.37a2.1,2.1,0,0,1,.92-1.78,4.33,4.33,0,0,1,2.6-.68c2.35,0,3.53.82,3.53,2.46a2.42,2.42,0,0,1-.46,1.51,2.16,2.16,0,0,1-1.2.75,7.47,7.47,0,0,1-1.87.2A5,5,0,0,1,26,24.25,2,2,0,0,1,25,22.37Z"/><path class="cls-4" d="M44.68,24.57a3.41,3.41,0,0,1-2.78-1.05A5.88,5.88,0,0,1,41,19.85H35a4.33,4.33,0,0,1-3.12-1,3.5,3.5,0,0,1-1-2.59,5.41,5.41,0,0,1,.87-3Q34.09,9.64,37,5.46A5.33,5.33,0,0,1,41.59,3l2.82,0a4.82,4.82,0,0,1,3.2.79,3.71,3.71,0,0,1,.84,2.77v8.54a2.91,2.91,0,0,1,1.9.68,2.43,2.43,0,0,1,.52,1.74,2.14,2.14,0,0,1-.55,1.7,3.37,3.37,0,0,1-1.88.57,5.59,5.59,0,0,1-.94,3.65A3.49,3.49,0,0,1,44.68,24.57ZM41,15.26l.1-6.89-4.34,6.89Z"/></g></g></svg>