<svg xmlns="http://www.w3.org/2000/svg" viewBox="0 0 75.05 39"><defs><style>.cls-1{fill:none;stroke:#fff;stroke-linecap:round;stroke-linejoin:round;stroke-width:7px;}.cls-2{fill:#c8aa2d;}</style></defs><title>44si</title><g id="Layer_2" data-name="Layer 2"><g id="Layer_1-2" data-name="Layer 1"><path class="cls-1" d="M23.08,35.12a4.78,4.78,0,0,1-3.95-1.54Q17.89,32,17.89,28.2H9.38A6,6,0,0,1,5,26.73,5.17,5.17,0,0,1,3.5,22.94a8.1,8.1,0,0,1,1.25-4.46Q8,13.22,12.11,7.1a7.51,7.51,0,0,1,6.58-3.6l4,0c2.24,0,3.76.38,4.55,1.16s1.2,2.12,1.19,4.05V21.28a4.14,4.14,0,0,1,2.72,1,3.73,3.73,0,0,1,.73,2.56,3.23,3.23,0,0,1-.78,2.49,4.67,4.67,0,0,1-2.67.83c0,2.5-.45,4.28-1.34,5.36A4.9,4.9,0,0,1,23.08,35.12ZM17.85,21.47,18,11.37l-6.18,10.1Z"/><path class="cls-1" d="M34.76,31.89a3.12,3.12,0,0,1,1.31-2.6,6,6,0,0,1,3.71-1q5,0,5,3.6a3.56,3.56,0,0,1-.65,2.21,3.14,3.14,0,0,1-1.7,1.11,10.51,10.51,0,0,1-2.67.29,6.89,6.89,0,0,1-3.59-.86A2.94,2.94,0,0,1,34.76,31.89Z"/><path class="cls-1" d="M62.76,35.12a4.78,4.78,0,0,1-3.95-1.54Q57.57,32,57.57,28.2H49.06a6,6,0,0,1-4.43-1.47,5.17,5.17,0,0,1-1.45-3.8,8.09,8.09,0,0,1,1.25-4.45Q47.7,13.22,51.79,7.1a7.51,7.51,0,0,1,6.58-3.6l4,0c2.24,0,3.76.38,4.56,1.16s1.19,2.12,1.19,4.05V21.28a4.13,4.13,0,0,1,2.71,1,3.73,3.73,0,0,1,.73,2.56,3.23,3.23,0,0,1-.78,2.49,4.62,4.62,0,0,1-2.67.83c0,2.5-.45,4.28-1.34,5.36A4.9,4.9,0,0,1,62.76,35.12ZM57.53,21.47l.15-10.1-6.17,10.1Z"/><path class="cls-2" d="M23.08,35.12a4.78,4.78,0,0,1-3.95-1.54Q17.89,32,17.89,28.2H9.38A6,6,0,0,1,5,26.73,5.17,5.17,0,0,1,3.5,22.94a8.1,8.1,0,0,1,1.25-4.46Q8,13.22,12.11,7.1a7.51,7.51,0,0,1,6.58-3.6l4,0c2.24,0,3.76.38,4.55,1.16s1.2,2.12,1.19,4.05V21.28a4.14,4.14,0,0,1,2.72,1,3.73,3.73,0,0,1,.73,2.56,3.23,3.23,0,0,1-.78,2.49,4.67,4.67,0,0,1-2.67.83c0,2.5-.45,4.28-1.34,5.36A4.9,4.9,0,0,1,23.08,35.12ZM17.85,21.47,18,11.37l-6.18,10.1Z"/><path class="cls-2" d="M34.76,31.89a3.12,3.12,0,0,1,1.31-2.6,6,6,0,0,1,3.71-1q5,0,5,3.6a3.56,3.56,0,0,1-.65,2.21,3.14,3.14,0,0,1-1.7,1.11,10.51,10.51,0,0,1-2.67.29,6.89,6.89,0,0,1-3.59-.86A2.94,2.94,0,0,1,34.76,31.89Z"/><path class="cls-2" d="M62.76,35.12a4.78,4.78,0,0,1-3.95-1.54Q57.57,32,57.57,28.2H49.06a6,6,0,0,1-4.43-1.47,5.17,5.17,0,0,1-1.45-3.8,8.09,8.09,0,0,1,1.25-4.45Q47.7,13.22,51.79,7.1a7.51,7.51,0,0,1,6.58-3.6l4,0c2.24,0,3.76.38,4.56,1.16s1.19,2.12,1.19,4.05V21.28a4.13,4.13,0,0,1,2.71,1,3.73,3.73,0,0,1,.73,2.56,3.23,3.23,0,0,1-.78,2.49,4.62,4.62,0,0,1-2.67.83c0,2.5-.45,4.28-1.34,5.36A4.9,4.9,0,0,1,62.76,35.12ZM57.53,21.47l.15-10.1-6.17,10.1Z"/></g></g></svg>