<svg xmlns="http://www.w3.org/2000/svg" viewBox="0 0 26.55 28.17"><defs><style>.cls-1{fill:#d63a39;}.cls-2{fill:#fff;}</style></defs><title>4n</title><g id="Layer_2" data-name="Layer 2"><g id="Layer_1-2" data-name="Layer 1"><path class="cls-1" d="M17.07,28.17a6.57,6.57,0,0,1-5.32-2.24,6.58,6.58,0,0,1-1.24-2.48H7.44A7.45,7.45,0,0,1,2,21.5a6.76,6.76,0,0,1-2-4.94A8.68,8.68,0,0,1,1.42,11.7C3,9.32,4.71,6.68,6.64,3.88A8.59,8.59,0,0,1,14,0l2.85,0h0c2.43,0,4.21.56,5.42,1.69a6.8,6.8,0,0,1,1.88,5.17V13a5,5,0,0,1,1,.81,5.67,5.67,0,0,1,1.41,4,5.23,5.23,0,0,1-1.71,4.21,4.79,4.79,0,0,1-.95.64,7,7,0,0,1-1.5,3.21A6.67,6.67,0,0,1,17.07,28.17Zm-.24-6.61a3.38,3.38,0,0,0,.56,0,6.61,6.61,0,0,0,.14-1.44,3.3,3.3,0,0,1,1-2.34,3.31,3.31,0,0,1-1-2.35V6.89c0-.09,0-.16,0-.23-.18,0-.43,0-.73,0h-.72a3.27,3.27,0,0,1,.71,2.1l-.1,6.89a3.27,3.27,0,0,1-.92,2.23,3.3,3.3,0,0,1,.95,2.31A7.27,7.27,0,0,0,16.83,21.56Z"/><path class="cls-2" d="M17.07,24.87a3.41,3.41,0,0,1-2.78-1.05,5.86,5.86,0,0,1-.87-3.67h-6a4.25,4.25,0,0,1-3.12-1,3.47,3.47,0,0,1-1-2.59,5.34,5.34,0,0,1,.88-3q2.3-3.58,5.18-7.76A5.3,5.3,0,0,1,14,3.3l2.82,0a4.75,4.75,0,0,1,3.2.8,3.69,3.69,0,0,1,.84,2.76v8.54a2.94,2.94,0,0,1,1.91.68,2.5,2.5,0,0,1,.51,1.74,2.14,2.14,0,0,1-.55,1.7,3.36,3.36,0,0,1-1.87.57,5.65,5.65,0,0,1-.95,3.65A3.49,3.49,0,0,1,17.07,24.87Zm-3.68-9.31.1-6.89L9.15,15.56Z"/></g></g></svg>