<svg xmlns="http://www.w3.org/2000/svg" viewBox="0 0 35.37 39.99"><defs><style>.cls-1{fill:none;stroke:#fff;stroke-width:7px;}.cls-2{fill:#c8aa2d;}</style></defs><title>4sin</title><g id="Layer_2" data-name="Layer 2"><g id="Layer_1-2" data-name="Layer 1"><path class="cls-1" d="M23.08,36.49A4.75,4.75,0,0,1,19.13,35c-.83-1-1.24-2.82-1.24-5.38H9.38A6,6,0,0,1,5,28.1,5.15,5.15,0,0,1,3.5,24.31a8.12,8.12,0,0,1,1.25-4.46Q8,14.6,12.11,8.48a7.54,7.54,0,0,1,6.58-3.61l4,0c2.24,0,3.76.39,4.55,1.16s1.2,2.13,1.2,4.06l0,12.51a4.19,4.19,0,0,1,2.72,1,3.71,3.71,0,0,1,.73,2.56,3.19,3.19,0,0,1-.78,2.48,4.6,4.6,0,0,1-2.67.83q0,3.75-1.34,5.36A4.87,4.87,0,0,1,23.08,36.49ZM17.85,22.84,18,12.74l-6.18,10.1Z"/><path class="cls-2" d="M23.08,36.49A4.75,4.75,0,0,1,19.13,35c-.83-1-1.24-2.82-1.24-5.38H9.38A6,6,0,0,1,5,28.1,5.15,5.15,0,0,1,3.5,24.31a8.12,8.12,0,0,1,1.25-4.46Q8,14.6,12.11,8.48a7.54,7.54,0,0,1,6.58-3.61l4,0c2.24,0,3.76.39,4.55,1.16s1.2,2.13,1.2,4.06l0,12.51a4.19,4.19,0,0,1,2.72,1,3.71,3.71,0,0,1,.73,2.56,3.19,3.19,0,0,1-.78,2.48,4.6,4.6,0,0,1-2.67.83q0,3.75-1.34,5.36A4.87,4.87,0,0,1,23.08,36.49ZM17.85,22.84,18,12.74l-6.18,10.1Z"/></g></g></svg>