<svg xmlns="http://www.w3.org/2000/svg" viewBox="0 0 23.23 28.36"><defs><style>.cls-1{fill:#d63a39;}.cls-2{fill:#fff;}</style></defs><title>5n</title><g id="Layer_2" data-name="Layer 2"><g id="Layer_1-2" data-name="Layer 1"><path class="cls-1" d="M10.41,28.36c-3.21,0-5.45-.39-7-1.24A6.15,6.15,0,0,1,0,21.54a6.81,6.81,0,0,1,1.62-4.83h0C.8,15.59.43,14.07.43,11.77V6A5.63,5.63,0,0,1,2.49,1.39,7.67,7.67,0,0,1,7.45,0h9.19a5.86,5.86,0,0,1,4.47,1.62,6.48,6.48,0,0,1,1.45,4.56,5.86,5.86,0,0,1-1.19,3.88,3.74,3.74,0,0,1-.48.51,9.54,9.54,0,0,1,2.34,6.74,10.44,10.44,0,0,1-3.51,8.22C17.53,27.41,14.4,28.36,10.41,28.36Zm4.29-14a4.34,4.34,0,0,1,1.18,3,4.74,4.74,0,0,1-2,4,4.43,4.43,0,0,0,1.52-.79,3.88,3.88,0,0,0,1.22-3.23c0-2.21-.84-2.56-1.35-2.76A4.77,4.77,0,0,0,14.7,14.34ZM7.14,13.16ZM7,12.2h.24l.17-5.6H7V12.2Z"/><path class="cls-2" d="M17.31,8.51H10.68l-.06,2.1a16.63,16.63,0,0,1,5.92.87q3.39,1.39,3.39,5.82A7.22,7.22,0,0,1,17.56,23c-1.58,1.36-4,2-7.15,2a12.7,12.7,0,0,1-5.5-.85A2.83,2.83,0,0,1,3.3,21.54c0-2.11.75-3.17,2.23-3.17a10.3,10.3,0,0,1,2.06.36,10.73,10.73,0,0,0,2.08.35,4.75,4.75,0,0,0,2.2-.39,1.42,1.42,0,0,0,.71-1.39c0-1.2-2-1.81-6.07-1.81a2.67,2.67,0,0,1-2.23-.74,5.46,5.46,0,0,1-.55-3V6a2.44,2.44,0,0,1,.83-2A4.74,4.74,0,0,1,7.45,3.3h9.19a2.83,2.83,0,0,1,2.07.58,3.51,3.51,0,0,1,.55,2.3A2.84,2.84,0,0,1,18.82,8,1.83,1.83,0,0,1,17.31,8.51Z"/></g></g></svg>