<svg xmlns="http://www.w3.org/2000/svg" viewBox="0 0 30.64 38.9"><defs><style>.cls-1{fill:none;stroke:#fff;stroke-width:7px;}.cls-2{fill:#c8aa2d;}</style></defs><title>5sin</title><g id="Layer_2" data-name="Layer 2"><g id="Layer_1-2" data-name="Layer 1"><path class="cls-1" d="M23.43,11.13H14l-.09,3.08a23,23,0,0,1,8.41,1.28q4.83,2,4.82,8.54c0,3.6-1.12,6.39-3.36,8.39s-5.63,3-10.17,3c-3.68,0-6.28-.41-7.81-1.25a4.15,4.15,0,0,1-2.3-3.91q0-4.65,3.18-4.65a15,15,0,0,1,2.92.52,14.08,14.08,0,0,0,3,.52,6.77,6.77,0,0,0,3.13-.56,2.14,2.14,0,0,0,1-2q0-2.66-8.64-2.66c-1.59,0-2.65-.36-3.17-1.09s-.78-2.18-.78-4.36V7.44a3.65,3.65,0,0,1,1.17-3,6.65,6.65,0,0,1,4.12-1H22.47a4,4,0,0,1,2.94.85c.52.57.78,1.69.78,3.37a4.32,4.32,0,0,1-.62,2.63A2.6,2.6,0,0,1,23.43,11.13Z"/><path class="cls-2" d="M23.43,11.13H14l-.09,3.08a23,23,0,0,1,8.41,1.28q4.83,2,4.82,8.54c0,3.6-1.12,6.39-3.36,8.39s-5.63,3-10.17,3c-3.68,0-6.28-.41-7.81-1.25a4.15,4.15,0,0,1-2.3-3.91q0-4.65,3.18-4.65a15,15,0,0,1,2.92.52,14.08,14.08,0,0,0,3,.52,6.77,6.77,0,0,0,3.13-.56,2.14,2.14,0,0,0,1-2q0-2.66-8.64-2.66c-1.59,0-2.65-.36-3.17-1.09s-.78-2.18-.78-4.36V7.44a3.65,3.65,0,0,1,1.17-3,6.65,6.65,0,0,1,4.12-1H22.47a4,4,0,0,1,2.94.85c.52.57.78,1.69.78,3.37a4.32,4.32,0,0,1-.62,2.63A2.6,2.6,0,0,1,23.43,11.13Z"/></g></g></svg>