<svg xmlns="http://www.w3.org/2000/svg" viewBox="0 0 24.06 28.82"><defs><style>.cls-1{fill:#d63a39;}.cls-2{fill:#fff;}</style></defs><title>6n</title><g id="Layer_2" data-name="Layer 2"><g id="Layer_1-2" data-name="Layer 1"><path class="cls-1" d="M12.77,28.82a15.21,15.21,0,0,1-4.27-.57,10.9,10.9,0,0,1-3.6-1.76A12.3,12.3,0,0,1,2.51,24.1,10.48,10.48,0,0,1,.9,20.94a18.34,18.34,0,0,1-.69-2.89A19.46,19.46,0,0,1,0,15.16,20.06,20.06,0,0,1,.75,9.49a13.94,13.94,0,0,1,2.5-4.86,11.82,11.82,0,0,1,4.81-3.5A17,17,0,0,1,14.47,0a11.32,11.32,0,0,1,6.12,1.62,6.6,6.6,0,0,1,3.32,5.66,6.34,6.34,0,0,1-1.44,4,5.56,5.56,0,0,1-.52.56c.23.28.45.58.65.88a9,9,0,0,1,1.46,5,11.31,11.31,0,0,1-1.47,5.8,10,10,0,0,1-4.16,4A12.32,12.32,0,0,1,12.77,28.82ZM6.69,16.69c0,.12,0,.25,0,.38a12.46,12.46,0,0,0,.44,1.86,4.09,4.09,0,0,0,.42.92,9.46,9.46,0,0,1-.13-1.61,10.11,10.11,0,0,1,.16-1.85Zm7.53,2.45ZM17.37,17c0,.4.06.82.06,1.24h0v.2q0-.33,0-.69A3,3,0,0,0,17.37,17ZM7.62,10a8.2,8.2,0,0,0-.54,1.36A13.46,13.46,0,0,0,6.64,14l.51-2.53A6.81,6.81,0,0,1,7.62,10Z"/><path class="cls-2" d="M10.38,12.1a11,11,0,0,1,3.27-.52,8.2,8.2,0,0,1,3.66.79,6.24,6.24,0,0,1,2.53,2.2,5.65,5.65,0,0,1,.92,3.19,8.13,8.13,0,0,1-1,4.15,6.77,6.77,0,0,1-2.82,2.69,9,9,0,0,1-4.15.92,12,12,0,0,1-3.35-.44A7.78,7.78,0,0,1,6.9,23.87a9.06,9.06,0,0,1-1.75-1.75A7.47,7.47,0,0,1,4,19.94a14.34,14.34,0,0,1-.56-2.38,15.54,15.54,0,0,1-.18-2.39,17,17,0,0,1,.62-4.76A10.63,10.63,0,0,1,5.83,6.7,8.33,8.33,0,0,1,9.31,4.19a13.65,13.65,0,0,1,5.16-.89,8,8,0,0,1,4.36,1.12,3.28,3.28,0,0,1,1.78,2.86,3,3,0,0,1-.7,2,2.24,2.24,0,0,1-1.86.86,4.9,4.9,0,0,1-1.73-.52,5.43,5.43,0,0,0-2.12-.51,3.89,3.89,0,0,0-2.46.87A3.64,3.64,0,0,0,10.38,12.1Zm3.75,6.14a6.53,6.53,0,0,0-.42-2.44c-.28-.7-.68-1.05-1.19-1.05s-1,.35-1.28,1.07a6,6,0,0,0-.47,2.42,5.46,5.46,0,0,0,.45,2.28,1.41,1.41,0,0,0,1.28,1,1.33,1.33,0,0,0,1.22-1A5.94,5.94,0,0,0,14.13,18.24Z"/></g></g></svg>