<svg xmlns="http://www.w3.org/2000/svg" viewBox="0 0 31.83 39.57"><defs><style>.cls-1{fill:none;stroke:#fff;stroke-width:7px;}.cls-2{fill:#c8aa2d;}</style></defs><title>6sin</title><g id="Layer_2" data-name="Layer 2"><g id="Layer_1-2" data-name="Layer 1"><path class="cls-1" d="M13.57,16.39a15.91,15.91,0,0,1,4.65-.76,11.26,11.26,0,0,1,5.19,1.17A8.89,8.89,0,0,1,27,20a8.54,8.54,0,0,1,1.31,4.67,12.2,12.2,0,0,1-1.46,6.09,9.7,9.7,0,0,1-4,3.93A12.33,12.33,0,0,1,17,36.07a16.81,16.81,0,0,1-4.76-.64,10.72,10.72,0,0,1-3.58-1.78,12.5,12.5,0,0,1-2.48-2.56,10.89,10.89,0,0,1-1.59-3.2,23.16,23.16,0,0,1-.8-3.48A23.77,23.77,0,0,1,3.5,20.9a25.26,25.26,0,0,1,.88-7A15.77,15.77,0,0,1,7.1,8.48,11.93,11.93,0,0,1,12,4.8a19.06,19.06,0,0,1,7.34-1.3,11.14,11.14,0,0,1,6.21,1.64,4.85,4.85,0,0,1,2.52,4.19,4.51,4.51,0,0,1-1,2.87,3.18,3.18,0,0,1-2.65,1.25A7,7,0,0,1,22,12.7a7.33,7.33,0,0,0-3-.76,5.39,5.39,0,0,0-3.49,1.28A5.3,5.3,0,0,0,13.57,16.39Zm5.33,9a10.06,10.06,0,0,0-.59-3.58c-.4-1-1-1.54-1.7-1.54s-1.38.52-1.82,1.57a8.85,8.85,0,0,0-.67,3.55,8.09,8.09,0,0,0,.64,3.34c.43,1,1,1.45,1.81,1.45a1.89,1.89,0,0,0,1.75-1.42A8.84,8.84,0,0,0,18.9,25.4Z"/><path class="cls-2" d="M13.57,16.39a15.91,15.91,0,0,1,4.65-.76,11.26,11.26,0,0,1,5.19,1.17A8.89,8.89,0,0,1,27,20a8.54,8.54,0,0,1,1.31,4.67,12.2,12.2,0,0,1-1.46,6.09,9.7,9.7,0,0,1-4,3.93A12.33,12.33,0,0,1,17,36.07a16.81,16.81,0,0,1-4.76-.64,10.72,10.72,0,0,1-3.58-1.78,12.5,12.5,0,0,1-2.48-2.56,10.89,10.89,0,0,1-1.59-3.2,23.16,23.16,0,0,1-.8-3.48A23.77,23.77,0,0,1,3.5,20.9a25.26,25.26,0,0,1,.88-7A15.77,15.77,0,0,1,7.1,8.48,11.93,11.93,0,0,1,12,4.8a19.06,19.06,0,0,1,7.34-1.3,11.14,11.14,0,0,1,6.21,1.64,4.85,4.85,0,0,1,2.52,4.19,4.51,4.51,0,0,1-1,2.87,3.18,3.18,0,0,1-2.65,1.25A7,7,0,0,1,22,12.7a7.33,7.33,0,0,0-3-.76,5.39,5.39,0,0,0-3.49,1.28A5.3,5.3,0,0,0,13.57,16.39Zm5.33,9a10.06,10.06,0,0,0-.59-3.58c-.4-1-1-1.54-1.7-1.54s-1.38.52-1.82,1.57a8.85,8.85,0,0,0-.67,3.55,8.09,8.09,0,0,0,.64,3.34c.43,1,1,1.45,1.81,1.45a1.89,1.89,0,0,0,1.75-1.42A8.84,8.84,0,0,0,18.9,25.4Z"/></g></g></svg>