<svg xmlns="http://www.w3.org/2000/svg" viewBox="0 0 23.9 28.17"><defs><style>.cls-1{fill:#d63a39;}.cls-2{fill:#fff;}</style></defs><title>7n</title><g id="Layer_2" data-name="Layer 2"><g id="Layer_1-2" data-name="Layer 1"><path class="cls-1" d="M9.49,28.17a7,7,0,0,1-5-1.79,6.57,6.57,0,0,1-2-4.91A16.84,16.84,0,0,1,3.2,17,24,24,0,0,1,4.7,12.9c.18-.38.37-.76.56-1.13a6.11,6.11,0,0,1-3.39-1.28A5.62,5.62,0,0,1,0,6C0,3.12,1.27,1.72,2.33,1A8.36,8.36,0,0,1,6.89,0l9.56,0a8.87,8.87,0,0,1,5.06,1.17c1.09.73,2.39,2.24,2.39,5.3,0,.21,0,.43,0,.65a4.56,4.56,0,0,1-.27,1.25A4.27,4.27,0,0,1,23,9.62a4.27,4.27,0,0,1-.74,1l-.12.13a5.33,5.33,0,0,1-.36.42c-.17.2-.3.34-.4.44a19.27,19.27,0,0,0-3.37,4.93,22.68,22.68,0,0,0-1.55,5.25c-.4,2.38-1.06,3.88-2.14,4.86A7,7,0,0,1,9.49,28.17Zm-.35-6.62a5,5,0,0,0,.68,0c0-.21.11-.49.17-.86a29.37,29.37,0,0,1,2-6.79,25.46,25.46,0,0,1,4.56-6.74L16.69,7l.16-.19.21-.24h-.58L13.2,11.22c-.27.4-.66,1-1.13,1.84s-1,1.72-1.42,2.7a17.39,17.39,0,0,0-1.09,3,10.35,10.35,0,0,0-.42,2.75h0ZM17.21,6.72v0Zm-.05-.1,0,0,0,0Zm.31-.55h0Z"/><path class="cls-2" d="M5.84,21.47a13.58,13.58,0,0,1,.54-3.62,21,21,0,0,1,1.29-3.52c.51-1.06,1-2,1.54-2.93s.95-1.59,1.3-2.08l.55-.78H6.6A4.3,4.3,0,0,1,4,8,2.47,2.47,0,0,1,3.3,6c0-1.1.26-1.81.79-2.15a5.65,5.65,0,0,1,2.8-.5l9.57,0a6.13,6.13,0,0,1,3.22.61,2.89,2.89,0,0,1,.92,2.56c0,.13,0,.26,0,.39a1.17,1.17,0,0,1-.08.37,3.19,3.19,0,0,0-.09.31,1.19,1.19,0,0,1-.15.3,1.82,1.82,0,0,0-.16.28,1.61,1.61,0,0,1-.23.29l-.24.27c0,.06-.14.17-.29.34a3.43,3.43,0,0,1-.33.36,22.42,22.42,0,0,0-4,5.85,25.61,25.61,0,0,0-1.78,6,5.43,5.43,0,0,1-1.11,3,4,4,0,0,1-2.65.65A3.8,3.8,0,0,1,6.78,24,3.27,3.27,0,0,1,5.84,21.47Z"/></g></g></svg>