<svg xmlns="http://www.w3.org/2000/svg" viewBox="0 0 31.6 38.62"><defs><style>.cls-1{fill:none;stroke:#fff;stroke-width:7px;}.cls-2{fill:#c8aa2d;}</style></defs><title>7sin</title><g id="Layer_2" data-name="Layer 2"><g id="Layer_1-2" data-name="Layer 1"><path class="cls-1" d="M7.11,30.14a20.58,20.58,0,0,1,.77-5.31,30.83,30.83,0,0,1,1.84-5.16q1.08-2.33,2.19-4.29c.73-1.32,1.35-2.34,1.84-3.06l.78-1.14H8.19c-1.81,0-3-.28-3.7-.85a3.66,3.66,0,0,1-1-2.89c0-1.62.38-2.67,1.13-3.16a7.76,7.76,0,0,1,4-.73l13.61,0a8.48,8.48,0,0,1,4.57.9c.88.6,1.31,1.85,1.31,3.75,0,.18,0,.37,0,.56a2.44,2.44,0,0,1-.12.55,4.39,4.39,0,0,0-.14.45,1.69,1.69,0,0,1-.2.45,3.32,3.32,0,0,0-.23.4,2.34,2.34,0,0,1-.33.43l-.34.4c-.06.08-.2.25-.42.5a6.51,6.51,0,0,1-.46.52A32.62,32.62,0,0,0,20.18,21a39.12,39.12,0,0,0-2.54,8.82c-.37,2.27-.89,3.73-1.56,4.36s-1.94.95-3.78.95a5.35,5.35,0,0,1-3.86-1.3A4.91,4.91,0,0,1,7.11,30.14Z"/><path class="cls-2" d="M7.11,30.14a20.58,20.58,0,0,1,.77-5.31,30.83,30.83,0,0,1,1.84-5.16q1.08-2.33,2.19-4.29c.73-1.32,1.35-2.34,1.84-3.06l.78-1.14H8.19c-1.81,0-3-.28-3.7-.85a3.66,3.66,0,0,1-1-2.89c0-1.62.38-2.67,1.13-3.16a7.76,7.76,0,0,1,4-.73l13.61,0a8.48,8.48,0,0,1,4.57.9c.88.6,1.31,1.85,1.31,3.75,0,.18,0,.37,0,.56a2.44,2.44,0,0,1-.12.55,4.39,4.39,0,0,0-.14.45,1.69,1.69,0,0,1-.2.45,3.32,3.32,0,0,0-.23.4,2.34,2.34,0,0,1-.33.43l-.34.4c-.06.08-.2.25-.42.5a6.51,6.51,0,0,1-.46.52A32.62,32.62,0,0,0,20.18,21a39.12,39.12,0,0,0-2.54,8.82c-.37,2.27-.89,3.73-1.56,4.36s-1.94.95-3.78.95a5.35,5.35,0,0,1-3.86-1.3A4.91,4.91,0,0,1,7.11,30.14Z"/></g></g></svg>