<svg xmlns="http://www.w3.org/2000/svg" viewBox="0 0 24.35 28.46"><defs><style>.cls-1{fill:#d63a39;}.cls-2{fill:#fff;}</style></defs><title>8n</title><g id="Layer_2" data-name="Layer 2"><g id="Layer_1-2" data-name="Layer 1"><path class="cls-1" d="M12.19,28.46a16.51,16.51,0,0,1-5.59-.9A10.59,10.59,0,0,1,2,24.42a8.46,8.46,0,0,1-2-5.5,8.82,8.82,0,0,1,2-5.67,8.46,8.46,0,0,1-.87-3.87,8.53,8.53,0,0,1,3.53-7.1A12.53,12.53,0,0,1,12.24,0a12.42,12.42,0,0,1,7.62,2.29,8.55,8.55,0,0,1,3.5,7.09,8.47,8.47,0,0,1-.91,3.91,8.81,8.81,0,0,1,1.9,5.63,8.49,8.49,0,0,1-4,7.33A14.52,14.52,0,0,1,12.19,28.46Zm5-9.6A10.11,10.11,0,0,1,17,20.54a1.84,1.84,0,0,0,.75-1.62A2.21,2.21,0,0,0,17,17.06a9.64,9.64,0,0,1,.16,1.8ZM7.38,17.08a2.18,2.18,0,0,0-.78,1.84A1.8,1.8,0,0,0,7,20.17a3.34,3.34,0,0,0,.32.33,9.84,9.84,0,0,1-.14-1.65A9.32,9.32,0,0,1,7.38,17.08Zm4,1.75a2.34,2.34,0,0,0,1.63,0A2.23,2.23,0,0,0,11.41,18.83ZM10.8,9.29a2.2,2.2,0,0,0,1.47.58,2.18,2.18,0,0,0,1.43-.55,2.16,2.16,0,0,0-1.45-.59A2.2,2.2,0,0,0,10.8,9.29Z"/><path class="cls-2" d="M12.19,25.16a13.33,13.33,0,0,1-4.48-.71,7.23,7.23,0,0,1-3.2-2.15A5.08,5.08,0,0,1,3.3,18.92a5.62,5.62,0,0,1,3.27-5.24,5,5,0,0,1-2.19-4.3,5.24,5.24,0,0,1,2.2-4.45A9.22,9.22,0,0,1,12.24,3.3a9.14,9.14,0,0,1,5.64,1.63,5.25,5.25,0,0,1,2.18,4.45,5.1,5.1,0,0,1-2.2,4.3,5.65,5.65,0,0,1,3.19,5.24,5.21,5.21,0,0,1-2.51,4.58A11.25,11.25,0,0,1,12.19,25.16Zm1.65-6.3a5.46,5.46,0,0,0-.42-2.22c-.28-.64-.67-1-1.19-1a1.39,1.39,0,0,0-1.26,1,5,5,0,0,0-.46,2.2,5.92,5.92,0,0,0,.18,1.47,2.82,2.82,0,0,0,.58,1.16,1.24,1.24,0,0,0,1,.47A1.31,1.31,0,0,0,13.44,21,5.4,5.4,0,0,0,13.84,18.86Zm-.05-9.77a3.66,3.66,0,0,0-.41-1.76,1.23,1.23,0,0,0-1.11-.76,1.15,1.15,0,0,0-.89.42,2.61,2.61,0,0,0-.55,1,4.59,4.59,0,0,0-.18,1.3,4.06,4.06,0,0,0,.42,1.9,1.29,1.29,0,0,0,1.18.81,1.25,1.25,0,0,0,1.15-.87A5,5,0,0,0,13.79,9.09Z"/></g></g></svg>