<?xml version="1.0" encoding="utf-8"?>
<!-- Generator: Adobe Illustrator 24.0.2, SVG Export Plug-In . SVG Version: 6.00 Build 0)  -->
<svg version="1.1" id="Layer_1" xmlns="http://www.w3.org/2000/svg" xmlns:xlink="http://www.w3.org/1999/xlink" x="0px" y="0px"
	 viewBox="0 0 24.4 28.5" style="enable-background:new 0 0 24.4 28.5;" xml:space="preserve">
<style type="text/css">
	.st0{fill:#D63A39;}
	.st1{fill:#FFFFFF;}
</style>
<title>8n</title>
<g id="Layer_2_1_">
	<g id="Layer_1-2">
		<path class="st0" d="M12.2,28.5c-1.9,0-3.8-0.3-5.6-0.9c-1.8-0.6-3.4-1.7-4.6-3.1c-1.3-1.5-2-3.5-2-5.5c0-2.1,0.7-4.1,2-5.7
			C1.4,12,1.1,10.7,1.1,9.4C1.1,6.6,2.4,3.9,4.7,2.3C6.9,0.7,9.5-0.1,12.2,0c2.7-0.1,5.4,0.7,7.6,2.3c2.3,1.6,3.6,4.3,3.5,7.1
			c0,1.4-0.3,2.7-0.9,3.9c1.3,1.6,1.9,3.6,1.9,5.6c0,3-1.5,5.8-4,7.3C17.9,27.8,15.1,28.5,12.2,28.5z"/>
		<path class="st1" d="M12.2,25.2c-1.5,0-3-0.2-4.5-0.7c-1.2-0.4-2.3-1.2-3.2-2.1c-0.8-0.9-1.2-2.1-1.2-3.4
			c-0.1-2.2,1.2-4.3,3.3-5.2c-1.4-1-2.2-2.6-2.2-4.3C4.3,7.6,5.1,5.9,6.6,4.9c1.7-1.1,3.6-1.7,5.7-1.6c2-0.1,4,0.5,5.6,1.6
			c1.4,1,2.2,2.7,2.2,4.4c0,1.7-0.8,3.3-2.2,4.3c2,1,3.3,3,3.2,5.2c0,1.9-0.9,3.6-2.5,4.6C16.6,24.7,14.4,25.3,12.2,25.2z
			 M13.8,18.9c0-0.8-0.1-1.5-0.4-2.2c-0.3-0.6-0.7-1-1.2-1c-0.6,0-1.1,0.4-1.3,1c-0.3,0.7-0.5,1.4-0.5,2.2c0,0.5,0.1,1,0.2,1.5
			c0.1,0.4,0.3,0.8,0.6,1.2c0.2,0.3,0.6,0.5,1,0.5c0.5,0,1-0.4,1.2-0.9C13.7,20.3,13.9,19.6,13.8,18.9z M13.8,9.1
			c0-0.6-0.1-1.2-0.4-1.8c-0.2-0.5-0.6-0.7-1.1-0.8c-0.3,0-0.7,0.2-0.9,0.4c-0.3,0.3-0.4,0.6-0.6,1c-0.1,0.4-0.2,0.9-0.2,1.3
			c0,0.7,0.1,1.3,0.4,1.9c0.2,0.5,0.7,0.8,1.2,0.8c0.5,0,1-0.4,1.1-0.9C13.7,10.5,13.8,9.8,13.8,9.1z"/>
	</g>
</g>
</svg>
