<svg xmlns="http://www.w3.org/2000/svg" viewBox="0 0 32.24 39.04"><defs><style>.cls-1{fill:none;stroke:#fff;stroke-width:7px;}.cls-2{fill:#c8aa2d;}</style></defs><title>8sin</title><g id="Layer_2" data-name="Layer 2"><g id="Layer_1-2" data-name="Layer 1"><path class="cls-1" d="M16.14,35.54a18.19,18.19,0,0,1-6.37-1,10.26,10.26,0,0,1-4.55-3.15,7.59,7.59,0,0,1-1.72-5,8.25,8.25,0,0,1,4.65-7.68A7.53,7.53,0,0,1,5,12.41,7.79,7.79,0,0,1,8.16,5.89,12.92,12.92,0,0,1,16.21,3.5a12.79,12.79,0,0,1,8,2.39,7.79,7.79,0,0,1,3.1,6.52,7.52,7.52,0,0,1-3.13,6.3,8.33,8.33,0,0,1,4.54,7.68,7.72,7.72,0,0,1-3.56,6.71A15.66,15.66,0,0,1,16.14,35.54Zm2.35-9.24a8.41,8.41,0,0,0-.59-3.25c-.4-.93-1-1.39-1.7-1.39a2,2,0,0,0-1.8,1.42,7.88,7.88,0,0,0-.65,3.22A8.88,8.88,0,0,0,14,28.46a4,4,0,0,0,.82,1.7,1.72,1.72,0,0,0,1.36.69,1.86,1.86,0,0,0,1.72-1.35A8,8,0,0,0,18.49,26.3ZM18.41,12a5.57,5.57,0,0,0-.57-2.58,1.75,1.75,0,0,0-1.59-1.11A1.6,1.6,0,0,0,15,8.9a3.86,3.86,0,0,0-.79,1.52,7.33,7.33,0,0,0-.25,1.9,6.1,6.1,0,0,0,.6,2.79,1.83,1.83,0,0,0,1.67,1.19A1.78,1.78,0,0,0,17.86,15,7.64,7.64,0,0,0,18.41,12Z"/><path class="cls-2" d="M16.14,35.54a18.19,18.19,0,0,1-6.37-1,10.26,10.26,0,0,1-4.55-3.15,7.59,7.59,0,0,1-1.72-5,8.25,8.25,0,0,1,4.65-7.68A7.53,7.53,0,0,1,5,12.41,7.79,7.79,0,0,1,8.16,5.89,12.92,12.92,0,0,1,16.21,3.5a12.79,12.79,0,0,1,8,2.39,7.79,7.79,0,0,1,3.1,6.52,7.52,7.52,0,0,1-3.13,6.3,8.33,8.33,0,0,1,4.54,7.68,7.72,7.72,0,0,1-3.56,6.71A15.66,15.66,0,0,1,16.14,35.54Zm2.35-9.24a8.41,8.41,0,0,0-.59-3.25c-.4-.93-1-1.39-1.7-1.39a2,2,0,0,0-1.8,1.42,7.88,7.88,0,0,0-.65,3.22A8.88,8.88,0,0,0,14,28.46a4,4,0,0,0,.82,1.7,1.72,1.72,0,0,0,1.36.69,1.86,1.86,0,0,0,1.72-1.35A8,8,0,0,0,18.49,26.3ZM18.41,12a5.57,5.57,0,0,0-.57-2.58,1.75,1.75,0,0,0-1.59-1.11A1.6,1.6,0,0,0,15,8.9a3.86,3.86,0,0,0-.79,1.52,7.33,7.33,0,0,0-.25,1.9,6.1,6.1,0,0,0,.6,2.79,1.83,1.83,0,0,0,1.67,1.19A1.78,1.78,0,0,0,17.86,15,7.64,7.64,0,0,0,18.41,12Z"/></g></g></svg>