<svg xmlns="http://www.w3.org/2000/svg" viewBox="0 0 24.06 28.75"><defs><style>.cls-1{fill:#d63a39;}.cls-2{fill:#fff;}</style></defs><title>9n</title><g id="Layer_2" data-name="Layer 2"><g id="Layer_1-2" data-name="Layer 1"><path class="cls-1" d="M9.92,28.75a11.46,11.46,0,0,1-6.14-1.59A6.55,6.55,0,0,1,.44,21.5,6.35,6.35,0,0,1,1.9,17.45,4.89,4.89,0,0,1,2.27,17,10,10,0,0,1,0,10.54,10.52,10.52,0,0,1,1.49,5,9.69,9.69,0,0,1,5.68,1.18,12.9,12.9,0,0,1,11.26,0a14.25,14.25,0,0,1,5.1.88,11.07,11.07,0,0,1,3.91,2.48,12,12,0,0,1,2.35,3.46,14.68,14.68,0,0,1,1.15,3.71,20.73,20.73,0,0,1,.29,3.57,20.53,20.53,0,0,1-.45,4.41A14.11,14.11,0,0,1,22,22.58a11.8,11.8,0,0,1-2.86,3.34A12.2,12.2,0,0,1,15,28.06,17.56,17.56,0,0,1,9.92,28.75Zm7.53-14.19-.57,3a6.68,6.68,0,0,1-.78,2.12c.08-.11.16-.24.23-.36a7.64,7.64,0,0,0,.83-2.17A13.22,13.22,0,0,0,17.45,14.56ZM16.18,8.75a10.66,10.66,0,0,1,.19,2,10.05,10.05,0,0,1-.18,1.91l1.17-.36-.09-.67a8.7,8.7,0,0,0-.66-2.07A5.49,5.49,0,0,0,16.18,8.75Z"/><path class="cls-2" d="M13.64,16.88a10.82,10.82,0,0,1-3.23.52A7.07,7.07,0,0,1,5.3,15.46a6.53,6.53,0,0,1-2-4.92,7.33,7.33,0,0,1,1-3.88A6.39,6.39,0,0,1,7.1,4.16a9.6,9.6,0,0,1,4.16-.86A10.79,10.79,0,0,1,15.17,4a7.75,7.75,0,0,1,2.75,1.72,8.56,8.56,0,0,1,1.7,2.5,11.66,11.66,0,0,1,.9,2.9,18.38,18.38,0,0,1,.24,3,17.1,17.1,0,0,1-.38,3.7,10.53,10.53,0,0,1-1.19,3.13,8.81,8.81,0,0,1-2.08,2.42A8.78,8.78,0,0,1,14,24.9a14.17,14.17,0,0,1-4.12.55,8.14,8.14,0,0,1-4.4-1.1,3.25,3.25,0,0,1-1.78-2.84,3,3,0,0,1,.72-2,2.25,2.25,0,0,1,1.84-.88,4.55,4.55,0,0,1,1.75.62,4.7,4.7,0,0,0,2.13.61,3.24,3.24,0,0,0,1.52-.39A3.63,3.63,0,0,0,13,18.42,3.68,3.68,0,0,0,13.64,16.88Zm-3.9-6.14a6.34,6.34,0,0,0,.41,2.44q.42,1.05,1.2,1.05a1.17,1.17,0,0,0,.92-.53,3.62,3.62,0,0,0,.6-1.33,6.8,6.8,0,0,0,.2-1.63,6,6,0,0,0-.45-2.4c-.31-.68-.73-1-1.26-1s-.95.33-1.22,1A6.51,6.51,0,0,0,9.74,10.74Z"/></g></g></svg>