<svg xmlns="http://www.w3.org/2000/svg" viewBox="0 0 31.83 39.47"><defs><style>.cls-1{fill:none;stroke:#fff;stroke-width:7px;}.cls-2{fill:#c8aa2d;}</style></defs><title>9sin</title><g id="Layer_2" data-name="Layer 2"><g id="Layer_1-2" data-name="Layer 1"><path class="cls-1" d="M18.21,23.41a15.11,15.11,0,0,1-4.6.76,9.84,9.84,0,0,1-7.27-2.85,9.72,9.72,0,0,1-2.84-7.2A11,11,0,0,1,4.93,8.43a9.23,9.23,0,0,1,4-3.67A13.18,13.18,0,0,1,14.82,3.5a14.87,14.87,0,0,1,5.56,1A11,11,0,0,1,24.29,7a12.82,12.82,0,0,1,2.41,3.68A16.85,16.85,0,0,1,28,14.9a27.42,27.42,0,0,1,.35,4.43,26.3,26.3,0,0,1-.54,5.43,16,16,0,0,1-1.7,4.57,12.64,12.64,0,0,1-2.95,3.56,12.66,12.66,0,0,1-4.37,2.28,20,20,0,0,1-5.86.8,11.41,11.41,0,0,1-6.25-1.61,4.8,4.8,0,0,1-2.53-4.17,4.54,4.54,0,0,1,1-2.89A3.18,3.18,0,0,1,7.77,26a6.32,6.32,0,0,1,2.48.9,6.61,6.61,0,0,0,3,.9,4.47,4.47,0,0,0,2.16-.57,5.26,5.26,0,0,0,1.8-1.59A5.65,5.65,0,0,0,18.21,23.41Zm-5.56-9a9.8,9.8,0,0,0,.6,3.58c.39,1,1,1.54,1.69,1.54a1.65,1.65,0,0,0,1.32-.78,5.49,5.49,0,0,0,.85-1.94,10.58,10.58,0,0,0,.28-2.4,9.07,9.07,0,0,0-.64-3.5c-.43-1-1-1.52-1.8-1.52s-1.34.49-1.72,1.47A9.6,9.6,0,0,0,12.65,14.4Z"/><path class="cls-2" d="M18.21,23.41a15.11,15.11,0,0,1-4.6.76,9.84,9.84,0,0,1-7.27-2.85,9.72,9.72,0,0,1-2.84-7.2A11,11,0,0,1,4.93,8.43a9.23,9.23,0,0,1,4-3.67A13.18,13.18,0,0,1,14.82,3.5a14.87,14.87,0,0,1,5.56,1A11,11,0,0,1,24.29,7a12.82,12.82,0,0,1,2.41,3.68A16.85,16.85,0,0,1,28,14.9a27.42,27.42,0,0,1,.35,4.43,26.3,26.3,0,0,1-.54,5.43,16,16,0,0,1-1.7,4.57,12.64,12.64,0,0,1-2.95,3.56,12.66,12.66,0,0,1-4.37,2.28,20,20,0,0,1-5.86.8,11.41,11.41,0,0,1-6.25-1.61,4.8,4.8,0,0,1-2.53-4.17,4.54,4.54,0,0,1,1-2.89A3.18,3.18,0,0,1,7.77,26a6.32,6.32,0,0,1,2.48.9,6.61,6.61,0,0,0,3,.9,4.47,4.47,0,0,0,2.16-.57,5.26,5.26,0,0,0,1.8-1.59A5.65,5.65,0,0,0,18.21,23.41Zm-5.56-9a9.8,9.8,0,0,0,.6,3.58c.39,1,1,1.54,1.69,1.54a1.65,1.65,0,0,0,1.32-.78,5.49,5.49,0,0,0,.85-1.94,10.58,10.58,0,0,0,.28-2.4,9.07,9.07,0,0,0-.64-3.5c-.43-1-1-1.52-1.8-1.52s-1.34.49-1.72,1.47A9.6,9.6,0,0,0,12.65,14.4Z"/></g></g></svg>