<svg xmlns="http://www.w3.org/2000/svg" viewBox="0 0 33.95 38.95"><defs><style>.cls-1{fill:none;stroke:#fff;stroke-width:7px;}.cls-2{fill:#c8aa2d;}</style></defs><title>0sin</title><g id="Layer_2" data-name="Layer 2"><g id="Layer_1-2" data-name="Layer 1"><path class="cls-1" d="M17.05,35.45a16.08,16.08,0,0,1-5.31-.83A11.84,11.84,0,0,1,7.47,32a11.71,11.71,0,0,1-2.94-4.93,23.5,23.5,0,0,1-1-7.35,26,26,0,0,1,1-7.77,11.53,11.53,0,0,1,2.9-5,11.42,11.42,0,0,1,4.23-2.6,16.63,16.63,0,0,1,5.43-.81,15,15,0,0,1,5.38.92,11.62,11.62,0,0,1,4.2,2.82,12.58,12.58,0,0,1,2.8,5,24.87,24.87,0,0,1,1,7.42,24.33,24.33,0,0,1-1,7.37A11.83,11.83,0,0,1,26.55,32a11.44,11.44,0,0,1-4.23,2.63A16,16,0,0,1,17.05,35.45Zm2.49-9.53a20.78,20.78,0,0,0,.84-6.23,21.7,21.7,0,0,0-.87-6.43c-.58-1.86-1.4-2.79-2.44-2.79a2.29,2.29,0,0,0-1.91,1.42A11,11,0,0,0,14,15.37a24.27,24.27,0,0,0-.37,4.34,18.91,18.91,0,0,0,.89,6.16c.59,1.77,1.44,2.66,2.55,2.66S19,27.66,19.54,25.92Z"/><path class="cls-2" d="M17.05,35.45a16.08,16.08,0,0,1-5.31-.83A11.84,11.84,0,0,1,7.47,32a11.71,11.71,0,0,1-2.94-4.93,23.5,23.5,0,0,1-1-7.35,26,26,0,0,1,1-7.77,11.53,11.53,0,0,1,2.9-5,11.42,11.42,0,0,1,4.23-2.6,16.63,16.63,0,0,1,5.43-.81,15,15,0,0,1,5.38.92,11.62,11.62,0,0,1,4.2,2.82,12.58,12.58,0,0,1,2.8,5,24.87,24.87,0,0,1,1,7.42,24.33,24.33,0,0,1-1,7.37A11.83,11.83,0,0,1,26.55,32a11.44,11.44,0,0,1-4.23,2.63A16,16,0,0,1,17.05,35.45Zm2.49-9.53a20.78,20.78,0,0,0,.84-6.23,21.7,21.7,0,0,0-.87-6.43c-.58-1.86-1.4-2.79-2.44-2.79a2.29,2.29,0,0,0-1.91,1.42A11,11,0,0,0,14,15.37a24.27,24.27,0,0,0-.37,4.34,18.91,18.91,0,0,0,.89,6.16c.59,1.77,1.44,2.66,2.55,2.66S19,27.66,19.54,25.92Z"/></g></g></svg>