<svg xmlns="http://www.w3.org/2000/svg" viewBox="0 0 25.55 28.4"><defs><style>.cls-1{fill:#d63a39;}.cls-2{fill:#fff;}</style></defs><title>ceron</title><g id="Layer_2" data-name="Layer 2"><g id="Layer_1-2" data-name="Layer 1"><path class="cls-1" d="M12.83,28.4A15,15,0,0,1,8,27.66a11.79,11.79,0,0,1-4.17-2.49,11.2,11.2,0,0,1-3-4.73A19,19,0,0,1,0,14.36,20.61,20.61,0,0,1,.88,8,11.12,11.12,0,0,1,3.81,3.21,11.4,11.4,0,0,1,8,.72,15.32,15.32,0,0,1,12.85,0a14,14,0,0,1,4.94.84,11.38,11.38,0,0,1,4.15,2.7A11.84,11.84,0,0,1,24.7,8.28a19.85,19.85,0,0,1,.85,6.08,19.08,19.08,0,0,1-.89,6.08,11.23,11.23,0,0,1-2.89,4.7,11.51,11.51,0,0,1-4.18,2.52A14.8,14.8,0,0,1,12.83,28.4ZM8.28,8.06a4.92,4.92,0,0,0-1.13,2,14.48,14.48,0,0,0-.55,4.29,12.26,12.26,0,0,0,.55,3.95,5.45,5.45,0,0,0,.92,1.74l-.15-.4a16.46,16.46,0,0,1-.81-5.29,20.4,20.4,0,0,1,.32-3.56A11.57,11.57,0,0,1,8.28,8.06Zm9.44,11.57c0,.1-.07.2-.11.29a5.61,5.61,0,0,0,.8-1.59,12.57,12.57,0,0,0,.54-4,13.53,13.53,0,0,0-.53-4,6.08,6.08,0,0,0-.86-1.77L17.7,9a17.78,17.78,0,0,1,.77,5.4,17.25,17.25,0,0,1-.75,5.28Z"/><path class="cls-2" d="M12.83,25.1a11.46,11.46,0,0,1-3.73-.57,8.42,8.42,0,0,1-3-1.79A8,8,0,0,1,4,19.37a15.67,15.67,0,0,1-.72-5A17.11,17.11,0,0,1,4,9.06a7.76,7.76,0,0,1,2-3.43A8.1,8.1,0,0,1,9,3.85a12,12,0,0,1,3.82-.55,10.7,10.7,0,0,1,3.78.63,8.14,8.14,0,0,1,3,1.92,8.63,8.63,0,0,1,2,3.45,16.6,16.6,0,0,1,.69,5.06,16,16,0,0,1-.71,5,7.7,7.7,0,0,1-5,5.14A11.36,11.36,0,0,1,12.83,25.1Zm1.75-6.5a13.74,13.74,0,0,0,.59-4.26A14.26,14.26,0,0,0,14.56,10c-.41-1.27-1-1.91-1.71-1.91A1.63,1.63,0,0,0,11.5,9a7.24,7.24,0,0,0-.82,2.38,16.62,16.62,0,0,0-.27,3,12.71,12.71,0,0,0,.63,4.2c.42,1.21,1,1.82,1.79,1.82S14.19,19.78,14.58,18.6Z"/></g></g></svg>