<svg xmlns="http://www.w3.org/2000/svg" viewBox="0 0 848.75 555.14"><defs><style>.cls-1{fill:#148adb;}</style></defs><title>barraizquierda</title><g id="Layer_2" data-name="Layer 2"><g id="barra_de_interaccion_izquierda" data-name="barra de interaccion izquierda"><path class="cls-1" d="M848.72,79.69C850.87-3,728-32,697.48,46.15a22,22,0,0,1-2.26,4.43l-.12.17h0c-17.63,28.74-65.61,27.95-82.26-1.36h0c-26-63.45-115.84-65.23-145-4.61C462.52,55.73,453.47,64.52,442,68.59c-21.07,7.49-47.63,1-59.19-19.4h0C366.09,7.09,312.06-12.9,272.28,9.35h0c-15.59,7.79-26.89,21.05-34.59,36.25C232,56.93,222.15,65.8,210,69.5c-20.54,6.27-45.49-.27-56.79-19.63a47.71,47.71,0,0,1-5.18-10.47h0C110.94-30,2.35-1.53.05,76.85a79.56,79.56,0,0,0,67.21,81.5,59.86,59.86,0,0,0,8.88.59c18.34.11,34.27,15.43,34.12,34.49.16,18.42-13.67,31.2-30.2,34.53a63.79,63.79,0,0,0-22.48,8.78A65.91,65.91,0,0,0,27.74,292c-.18,32.34,23.7,59.71,54.87,65.06a33.06,33.06,0,0,1,11,3.83c26.28,15.07,20.32,58.75-11.64,64.05a58.3,58.3,0,0,0-9.94,2.4,64.82,64.82,0,0,0-43.07,61.07c-4.13,38.26,36.67,67.45,69.25,66l224.5.77V524.89L88.89,522.11a24.27,24.27,0,0,1-3.78-.64,34.14,34.14,0,0,1-5.84-63.94A30.54,30.54,0,0,1,89.19,455c13.69-1.37,27.12-9.68,37.85-22.25,33.56-38.51,6.69-104.38-43.49-107.81h0c-32.13-9-31.76-57.62.5-66.13,16.45-2.27,31.91-10.39,42.26-23.06h0c22-24.38,19.64-67.9-4.7-89.7A63.16,63.16,0,0,0,78.3,128a47.31,47.31,0,0,1-18.25-3.66A48.66,48.66,0,0,1,30.92,78.87c.15-50.53,71.94-65.41,92.42-20.17a79.6,79.6,0,0,0,71.1,43.87c30.78.26,58.11-17.91,71.46-44.71,6-12,16.46-21.41,29.44-24.93,20.34-5.54,44.5,1.27,55.46,20.41h0c7.73,17,19.87,31.83,36.88,40.27h0c40.94,22,93.44,1.82,110.48-41h0c17.11-29,65.05-29,82.22-.07h0a47.78,47.78,0,0,1,3.45,6.12,71.07,71.07,0,0,0,10.89,17.09,79.71,79.71,0,0,0,21.91,17.33h0c36.93,21,90.72,5.31,108-34.15a48.18,48.18,0,0,1,3.29-5.93v0c23.13-37.66,83.15-23.68,89.43,18.29a48.44,48.44,0,0,1,.44,8.34v20.5h31"/></g></g></svg>