<svg xmlns="http://www.w3.org/2000/svg" xmlns:xlink="http://www.w3.org/1999/xlink" viewBox="0 0 86.15 55.78"><defs><style>.cls-1{fill:none;}.cls-2{fill:#fcdf50;}.cls-3{fill:url(#New_Pattern_Swatch_4);}.cls-4{fill:#c91111;stroke:#fff;stroke-width:2px;}.cls-5{fill:#fff;}</style><pattern id="New_Pattern_Swatch_4" data-name="New Pattern Swatch 4" width="131.34" height="220.57" patternTransform="translate(129.4 -275.4) rotate(90) scale(0.1 0.25)" patternUnits="userSpaceOnUse" viewBox="0 0 131.34 220.57"><rect class="cls-1" width="131.34" height="220.57"/><rect class="cls-2" width="131.34" height="220.57"/></pattern></defs><title>botonreplayrojo</title><g id="Layer_2" data-name="Layer 2"><g id="Layer_12" data-name="Layer 12"><path class="cls-3" d="M86.15,45.35v-34C86.15,5.1,81.34,0,75.43,0H0V55.78H76.3C81.73,55.78,86.15,51.1,86.15,45.35Z"/><circle class="cls-4" cx="65.04" cy="27.89" r="13.87" transform="translate(27.15 87.66) rotate(-80.83)"/><path class="cls-5" d="M65.52,34.28a6.4,6.4,0,0,1-2.49-.5,6.26,6.26,0,0,1-2-1.37.84.84,0,0,1,1.19-1.18,4.72,4.72,0,0,0,6.67,0,4.56,4.56,0,0,0,1-1.5,4.64,4.64,0,0,0,0-3.68,4.56,4.56,0,0,0-1-1.5,4.72,4.72,0,0,0-6.67,0,4.56,4.56,0,0,0-1,1.5.84.84,0,0,1-1.55-.65,6.67,6.67,0,0,1,1.37-2A6.26,6.26,0,0,1,63,22a6.4,6.4,0,0,1,5,0,6.26,6.26,0,0,1,2,1.37,6.41,6.41,0,0,1,1.37,7,6.49,6.49,0,0,1-1.37,2,6.33,6.33,0,0,1-2,1.37A6.44,6.44,0,0,1,65.52,34.28Z"/><path class="cls-5" d="M62.14,26.9,60,28.54A.8.8,0,0,1,58.68,28l-.34-2.71a.81.81,0,0,1,1.11-.84L62,25.52A.8.8,0,0,1,62.14,26.9Z"/></g></g></svg>