<svg xmlns="http://www.w3.org/2000/svg" xmlns:xlink="http://www.w3.org/1999/xlink" viewBox="0 0 100.72 47.5"><defs><style>.cls-1{fill:none;}.cls-2{fill:#fcdf50;}.cls-3{fill:url(#New_Pattern_Swatch_5);}.cls-4{fill:#148adb;stroke:#fff;stroke-width:2.17px;}.cls-5{fill:#fff;}</style><pattern id="New_Pattern_Swatch_5" data-name="New Pattern Swatch 5" width="131.34" height="220.57" patternTransform="translate(138.61 341.9) rotate(90) scale(0.1 0.24)" patternUnits="userSpaceOnUse" viewBox="0 0 131.34 220.57"><rect class="cls-1" width="131.34" height="220.57"/><rect class="cls-2" width="131.34" height="220.57"/></pattern></defs><title>botonreplay</title><g id="Layer_2" data-name="Layer 2"><g id="botones"><path class="cls-3" d="M100.72,38.62V9.67C100.72,4.34,95.1,0,88.19,0H0V47.5H89.21C95.56,47.5,100.72,43.52,100.72,38.62Z"/><circle class="cls-4" cx="74.23" cy="24.17" r="15" transform="translate(38.55 93.6) rotate(-80.83)"/><path class="cls-5" d="M74.75,31.08a6.92,6.92,0,0,1-2.7-.54,7.1,7.1,0,0,1-2.2-1.48.91.91,0,0,1,1.29-1.28,5,5,0,0,0,1.62,1.09,5.13,5.13,0,0,0,5.6-1.09,5.3,5.3,0,0,0,1.09-1.63,5.13,5.13,0,0,0,0-4,5.25,5.25,0,0,0-1.09-1.62,5.1,5.1,0,0,0-5.6-1.1,5,5,0,0,0-1.62,1.1A5.11,5.11,0,0,0,70,22.18a.9.9,0,0,1-1.19.48.91.91,0,0,1-.48-1.19,6.9,6.9,0,0,1,3.68-3.68,7,7,0,0,1,5.39,0,6.9,6.9,0,0,1,3.68,3.68,7,7,0,0,1,0,5.39,6.9,6.9,0,0,1-3.68,3.68A6.91,6.91,0,0,1,74.75,31.08Z"/><path class="cls-5" d="M71.09,23.09l-2.35,1.78a.87.87,0,0,1-1.39-.59L67,21.36a.87.87,0,0,1,1.2-.91l2.72,1.15A.87.87,0,0,1,71.09,23.09Z"/></g></g></svg>