<svg xmlns="http://www.w3.org/2000/svg" viewBox="0 0 51.66 39.9"><defs><style>.cls-1{fill:none;stroke:#fff;stroke-width:7.9px;}.cls-2{fill:#c8a927;}</style></defs><title>eje11</title><g id="Layer_2" data-name="Layer 2"><g id="barra_lateral_derecha" data-name="barra lateral derecha"><path class="cls-1" d="M19.66,28.46q0,3.84-1.34,5.47a4.92,4.92,0,0,1-4.05,1.64A6.29,6.29,0,0,1,11.38,35,3.63,3.63,0,0,1,9.7,32.91a12.48,12.48,0,0,1-.62-4.07L9,11.16a7.18,7.18,0,0,1-3.64-.83A3,3,0,0,1,4,7.55,3.15,3.15,0,0,1,5.26,5,5.85,5.85,0,0,1,8.92,4l2.6,0,2.37,0c2.26,0,3.79.39,4.57,1.16s1.17,2.12,1.17,4.05Z"/><path class="cls-1" d="M23.89,32.34a3.09,3.09,0,0,1,1.31-2.6,6,6,0,0,1,3.7-1q5,0,5,3.6a3.5,3.5,0,0,1-.65,2.21,3.11,3.11,0,0,1-1.7,1.11,10.4,10.4,0,0,1-2.67.29,6.85,6.85,0,0,1-3.58-.86A2.92,2.92,0,0,1,23.89,32.34Z"/><path class="cls-1" d="M47.71,28.46q0,3.84-1.34,5.47a4.92,4.92,0,0,1-4,1.64,6.37,6.37,0,0,1-2.9-.57,3.68,3.68,0,0,1-1.67-2.09,12.48,12.48,0,0,1-.62-4.07l-.08-17.68a7.17,7.17,0,0,1-3.63-.83A3,3,0,0,1,32,7.55,3.15,3.15,0,0,1,33.31,5,5.85,5.85,0,0,1,37,4l2.6,0,2.37,0c2.26,0,3.79.38,4.57,1.16s1.17,2.12,1.17,4.05Z"/><path class="cls-2" d="M19.66,28.46q0,3.84-1.34,5.47a4.92,4.92,0,0,1-4.05,1.64A6.29,6.29,0,0,1,11.38,35,3.63,3.63,0,0,1,9.7,32.91a12.48,12.48,0,0,1-.62-4.07L9,11.16a7.18,7.18,0,0,1-3.64-.83A3,3,0,0,1,4,7.55,3.15,3.15,0,0,1,5.26,5,5.85,5.85,0,0,1,8.92,4l2.6,0,2.37,0c2.26,0,3.79.39,4.57,1.16s1.17,2.12,1.17,4.05Z"/><path class="cls-2" d="M23.89,32.34a3.09,3.09,0,0,1,1.31-2.6,6,6,0,0,1,3.7-1q5,0,5,3.6a3.5,3.5,0,0,1-.65,2.21,3.11,3.11,0,0,1-1.7,1.11,10.4,10.4,0,0,1-2.67.29,6.85,6.85,0,0,1-3.58-.86A2.92,2.92,0,0,1,23.89,32.34Z"/><path class="cls-2" d="M47.71,28.46q0,3.84-1.34,5.47a4.92,4.92,0,0,1-4,1.64,6.37,6.37,0,0,1-2.9-.57,3.68,3.68,0,0,1-1.67-2.09,12.48,12.48,0,0,1-.62-4.07l-.08-17.68a7.17,7.17,0,0,1-3.63-.83A3,3,0,0,1,32,7.55,3.15,3.15,0,0,1,33.31,5,5.85,5.85,0,0,1,37,4l2.6,0,2.37,0c2.26,0,3.79.38,4.57,1.16s1.17,2.12,1.17,4.05Z"/></g></g></svg>