<?xml version="1.0" encoding="utf-8"?>
<!-- Generator: Adobe Illustrator 24.0.2, SVG Export Plug-In . SVG Version: 6.00 Build 0)  -->
<svg version="1.1" id="Layer_1" xmlns="http://www.w3.org/2000/svg" xmlns:xlink="http://www.w3.org/1999/xlink" x="0px" y="0px"
	 viewBox="0 0 512 512" style="enable-background:new 0 0 512 512;" xml:space="preserve">
<style type="text/css">
	.st0{clip-path:url(#SVGID_2_);}
	.st1{fill:#D88500;stroke:#000000;stroke-width:11.3444;stroke-linecap:round;stroke-linejoin:round;}
	.st2{fill:#FBCCAC;}
	.st3{fill:#D88500;}
	.st4{fill:#F9B233;}
	.st5{stroke:#000000;stroke-width:0.1029;stroke-linecap:round;stroke-linejoin:round;}
	.st6{fill:none;}
	.st7{fill:none;stroke:#000000;stroke-width:11.9415;stroke-miterlimit:10;}
	.st8{fill:none;stroke:#BF720C;stroke-width:6.3619;stroke-miterlimit:10;}
	.st9{fill:none;stroke:#000000;stroke-width:15.9151;stroke-miterlimit:10;}
	.st10{fill:none;stroke:#000000;stroke-width:15.9151;stroke-linecap:round;stroke-miterlimit:10;}
	.st11{fill:#ABD6BD;stroke:#000000;stroke-width:3.0265;stroke-miterlimit:10;}
	.st12{fill:#FFD18F;stroke:#000000;stroke-width:5.9707;stroke-miterlimit:10;}
	.st13{stroke:#000000;stroke-width:0.3088;stroke-miterlimit:10;}
	.st14{fill:#FFFFFF;stroke:#000000;stroke-width:0.3088;stroke-miterlimit:10;}
	.st15{fill:#FFFFFF;stroke:#000000;stroke-width:7.9678;stroke-miterlimit:10;}
	.st16{stroke:#000000;stroke-width:1.0088;stroke-miterlimit:10;}
	.st17{fill:#FFFFFF;}
</style>
<title>favicon</title>
<g>
	<defs>
		<rect id="SVGID_1_" width="512" height="512"/>
	</defs>
	<clipPath id="SVGID_2_">
		<use xlink:href="#SVGID_1_"  style="overflow:visible;"/>
	</clipPath>
	<g class="st0">
		<path class="st1" d="M500.9,909.1c50.4-38,77.7-96.6,70.8-154.8c-3.7-30.2-16.3-58.6-36.1-81.7C525,660,513,649,499.6,639.7
			c-55.9-38.9-132.5-42.2-200-8.5c-17.6,8.8-24.8,30.2-16,47.8c8.8,17.6,30.2,24.8,47.8,16c44.1-22,92.9-20.8,127.4,3.3
			c14,9.7,38,31.1,42,64.4c4.4,37.3-17.5,75.9-56,98.1c-17.1,9.9-22.9,31.7-13,48.7c9.9,17.1,31.7,22.9,48.7,13l0,0
			C487.7,918.5,494.4,914,500.9,909.1z"/>
		<path class="st1" d="M-21.2,909.1c-50.4-38-77.7-96.6-70.8-154.8c3.7-30.2,16.3-58.6,36.1-81.7c10.5-12.5,22.6-23.5,35.9-32.8
			c55.9-38.9,132.5-42.2,200-8.5c17.6,8.8,24.8,30.2,16,47.8c-8.8,17.6-30.2,24.8-47.8,16l0,0c-44.1-22-92.9-20.8-127.4,3.3
			c-14,9.7-38.1,31.1-42,64.4c-4.5,37.3,17.5,75.9,55.9,98.1c17.1,9.9,22.9,31.7,13,48.7c-9.9,17.1-31.7,22.9-48.7,13
			C-8,918.5-14.7,914-21.2,909.1z"/>
		<polygon class="st2" points="53.3,32.4 114.2,93.7 173.7,32.4 233,93.7 292.8,32.4 352.3,93.7 412.8,32.4 233.3,-225.6 		"/>
		<path class="st3" d="M53.3,32.4v107.1c0,0,2.5,484.8,3.1,727.2h117.4V32.4l-59.6,61.2L53.3,32.4z"/>
		<polygon class="st3" points="293,32.2 293,866.5 412,866.5 413,139.3 413,32.2 352.5,93.4 		"/>
		<polygon class="st4" points="173.7,32.4 173.7,866.7 292.8,866.7 292.8,32.4 233,93.7 		"/>
		<path class="st5" d="M272.7-166.2c0,0-36.3,34.2-77,0l37.6-59.3L272.7-166.2z"/>
		<line class="st6" x1="173.7" y1="32.4" x2="173.7" y2="31.9"/>
		<line class="st7" x1="292.8" y1="32.4" x2="292.8" y2="32.3"/>
		<line class="st8" x1="173.7" y1="32" x2="173.7" y2="866.7"/>
		<line class="st8" x1="292.8" y1="32.8" x2="292.8" y2="866.7"/>
		<path class="st9" d="M53.3,32.4l180-257.9L412.8,32.4v107.2l-0.9,727.2H56.4c-0.6-242.4-3.1-727.2-3.1-727.2V32.4z"/>
		<polyline class="st9" points="412.8,32.4 352.3,93.7 292.8,32.4 233,93.7 173.7,32.4 114.2,93.7 53.3,32.4 		"/>
		<path class="st10" d="M453.4,230.4c0,0-39.1-40.9-77.1,0"/>
		<path class="st10" d="M240,230.4c0,0-39.1-40.9-77,0"/>
		<path class="st11" d="M308.8,562.5c0,0.7,0,1.3,0,2.1C308.8,563.9,308.8,563.2,308.8,562.5z"/>
		<path class="st12" d="M182,588.2c5.3,3.7,52.6,35.3,126.7,35.3s121.5-31.7,126.7-35.3c17-13.4,19.8-38,6.5-54.9
			c-12.2-15.4-33.9-19.4-50.8-9.3c-1.2,0.8-21.8,13.9-54.6,19.2c-6.4,1.1-13,1.7-19.5,2.1c-2.6,0.1-5.4,0.2-8.2,0.2
			c-2.7,0-5.3,0-7.9-0.2c-6.6-0.3-13.1-1-19.6-2.1c-33.1-5.3-53.8-18.5-54.8-19.2c-18.3-11.4-42.5-5.9-53.9,12.5
			C161.9,553.4,166,575.9,182,588.2L182,588.2z M186.5,543.6c6.9-9.9,20.5-12.3,30.4-5.5c0,0,0,0,0.1,0c0.3,0.2,20.6,13.8,54.3,20.6
			c12.4,2.5,24.9,3.7,37.6,3.7h0.2c12.6,0,25.2-1.3,37.6-3.8c33.3-6.8,53.5-20.2,54-20.6c9.9-6.9,23.6-4.5,30.5,5.5
			c6.9,9.9,4.5,23.6-5.5,30.5l0,0c-1.9,1.3-46.9,32.2-116.9,32.2s-115-30.9-116.9-32.2C182,567.1,179.6,553.5,186.5,543.6
			L186.5,543.6z"/>
		<path class="st13" d="M191.9,574.1c1.9,1.3,46.9,32.2,116.9,32.2s115-30.9,116.9-32.2c9.9-6.9,12.4-20.6,5.5-30.5
			c-6.9-9.9-20.6-12.4-30.5-5.5c-0.6,0.4-20.7,13.8-54,20.6c0.4,1.9,0.6,3.8,0.6,5.7c0,13.1-8.6,23.8-19.1,23.8
			c-10.6,0-19.1-10.6-19.1-23.8c0,13.1-8.6,23.8-19.1,23.8c-10.6,0-19.1-10.6-19.1-23.8c0-1.9,0.2-3.8,0.6-5.7
			c-33.7-6.8-54-20.4-54.3-20.6c-9.8-7.1-23.5-4.8-30.5,5s-4.8,23.5,5,30.5C191.5,573.8,191.7,574,191.9,574.1L191.9,574.1z"/>
		<path class="st13" d="M308.8,562.5c0,0.7,0,1.3,0,2.1C308.8,563.9,308.8,563.2,308.8,562.5z"/>
		<path class="st14" d="M308.9,564.4c0,13.1,8.6,23.8,19.1,23.8s19.1-10.6,19.1-23.8c0-1.9-0.2-3.9-0.6-5.7
			c-12.4,2.5-25,3.8-37.6,3.8C308.9,563.1,308.9,563.8,308.9,564.4z"/>
		<path class="st14" d="M270.6,564.4c0,13.1,8.6,23.8,19.1,23.8c10.6,0,19.1-10.6,19.1-23.8c0-0.7,0-1.3,0-2.1l0,0
			c-12.6,0-25.2-1.2-37.6-3.7C270.9,560.6,270.7,562.5,270.6,564.4z"/>
		<ellipse class="st15" cx="400.9" cy="376.3" rx="73.7" ry="109.2"/>
		<ellipse class="st16" cx="435.4" cy="370.6" rx="37.9" ry="56.2"/>
		<circle class="st17" cx="450.9" cy="350" r="14.6"/>
		<ellipse class="st15" cx="204" cy="370.6" rx="73.7" ry="109.2"/>
		<ellipse class="st16" cx="239.8" cy="370.6" rx="37.9" ry="56.2"/>
		<circle class="st17" cx="254.3" cy="350" r="14.6"/>
	</g>
</g>
</svg>
