<svg xmlns="http://www.w3.org/2000/svg" viewBox="0 0 399.98 92.3"><defs><style>.cls-1{fill:#0468ad;}.cls-2{fill:#fff;}.cls-3,.cls-4{fill:none;stroke-width:5px;}.cls-3{stroke:#c8a927;stroke-miterlimit:10;}.cls-4,.cls-6{font-size:37px;font-family:Coiny-Regular, Coiny;}.cls-4{stroke:#fff;}.cls-5{letter-spacing:-0.11em;}.cls-6{fill:#c8a927;}</style></defs><title>Pestanatitulo</title><g id="Layer_2" data-name="Layer 2"><g id="pestaña_identificativa" data-name="pestaña identificativa"><path class="cls-1" d="M374.07,0H35.78A35.78,35.78,0,0,0,0,35.78V92.3H400V25.91A25.91,25.91,0,0,0,374.07,0Z"/><path class="cls-2" d="M128,31.2a3,3,0,0,1,.32,1.06,1,1,0,0,1-.26.77,2.84,2.84,0,0,1-.94.66,2,2,0,0,1-1.55.3,2.15,2.15,0,0,1-1-1.2l-4.89-10.25-4.88,10.25a1.59,1.59,0,0,1-2.58.87,2.84,2.84,0,0,1-1-.64,1,1,0,0,1-.26-.8,3,3,0,0,1,.37-1.09l6.58-13.67a2,2,0,0,1,.74-.8,1.88,1.88,0,0,1,1-.3,2,2,0,0,1,.7.14,1.89,1.89,0,0,1,.59.39,2.18,2.18,0,0,1,.43.6Zm-12.55-1.44L117,26.54h5.32l1.55,3.23Z"/><path class="cls-2" d="M135.22,33.52a5,5,0,0,1-2.16-.48,6,6,0,0,1-1.79-1.34,6.55,6.55,0,0,1-1.22-1.95,6.12,6.12,0,0,1-.45-2.33,6,6,0,0,1,.45-2.31,6.2,6.2,0,0,1,1.24-1.93,6,6,0,0,1,1.8-1.32,4.87,4.87,0,0,1,2.11-.49,3.84,3.84,0,0,1,1.9.44,3.33,3.33,0,0,1,1.25,1.25,6.56,6.56,0,0,1,.71,1.93,11.82,11.82,0,0,1,.24,2.49,11,11,0,0,1-.42,3.21,4.2,4.2,0,0,1-1.3,2.1A3.58,3.58,0,0,1,135.22,33.52Zm.45,5.48a7,7,0,0,1-1.77-.23,7.61,7.61,0,0,1-1.58-.6,4.28,4.28,0,0,1-1.15-.8,1.21,1.21,0,0,1-.43-.85,1.81,1.81,0,0,1,.15-.74,2.58,2.58,0,0,1,.45-.66,7,7,0,0,1,.6-.57.91.91,0,0,1,.6-.2,1.07,1.07,0,0,1,.63.19l.59.41a3.33,3.33,0,0,0,.78.41,3.21,3.21,0,0,0,1.2.19,2.26,2.26,0,0,0,.94-.19,2,2,0,0,0,.75-.55,2.65,2.65,0,0,0,.5-.85,2.85,2.85,0,0,0,.19-1.08V22.53a1.21,1.21,0,0,1,.51-.94A2.49,2.49,0,0,1,140,21.3a2.21,2.21,0,0,1,1.25.27,1.07,1.07,0,0,1,.46.68,4.43,4.43,0,0,1,.09.9V33a5.92,5.92,0,0,1-.53,2.54,5.57,5.57,0,0,1-1.4,1.87A6.35,6.35,0,0,1,135.67,39Zm0-9.1a2.13,2.13,0,0,0,1.2-.34,2.42,2.42,0,0,0,.83-.88,2.5,2.5,0,0,0,.32-1.25,2.54,2.54,0,0,0-.31-1.25,2.47,2.47,0,0,0-.85-.88,2.3,2.3,0,0,0-1.22-.33,2.21,2.21,0,0,0-1.2.34,2.53,2.53,0,0,0-1.15,2.14,2.3,2.3,0,0,0,.33,1.22,2.45,2.45,0,0,0,.86.89A2.15,2.15,0,0,0,135.65,29.9Z"/><path class="cls-2" d="M154.54,33.84a2.4,2.4,0,0,1-1.37-.33.92.92,0,0,1-.43-.8l.25-.43a2.51,2.51,0,0,1-.57.62,4.28,4.28,0,0,1-1.11.65,4.39,4.39,0,0,1-1.67.28,5,5,0,0,1-2.18-.5,5.74,5.74,0,0,1-1.84-1.39,7,7,0,0,1-1.27-2,6,6,0,0,1-.48-2.38,5.82,5.82,0,0,1,.48-2.33,6.9,6.9,0,0,1,1.29-2,6.24,6.24,0,0,1,1.84-1.36,4.9,4.9,0,0,1,2.17-.5,4.14,4.14,0,0,1,1.58.27,4.24,4.24,0,0,1,1.08.61,3.51,3.51,0,0,1,.67.67l-.23-.35a1.05,1.05,0,0,1,.44-.91,2.4,2.4,0,0,1,1.39-.31,2.21,2.21,0,0,1,1.28.28,1.11,1.11,0,0,1,.48.72,4.86,4.86,0,0,1,.09.95v8.63a4.7,4.7,0,0,1-.09.92,1.09,1.09,0,0,1-.47.71A2.41,2.41,0,0,1,154.54,33.84Zm-4.37-3.73a2.13,2.13,0,0,0,1.2-.34,2.57,2.57,0,0,0,.85-.91,2.52,2.52,0,0,0,.33-1.28,2.46,2.46,0,0,0-.33-1.28,2.32,2.32,0,0,0-.87-.89,2.36,2.36,0,0,0-1.23-.33,2.48,2.48,0,0,0-1.26.34,2.61,2.61,0,0,0-.9.91,2.57,2.57,0,0,0-.34,1.3,2.34,2.34,0,0,0,.34,1.24,2.56,2.56,0,0,0,.92.9A2.51,2.51,0,0,0,150.17,30.11Z"/><path class="cls-2" d="M160.79,33.86a2.41,2.41,0,0,1-1.31-.26,1,1,0,0,1-.47-.71,4.73,4.73,0,0,1-.09-.93V23.24a4.59,4.59,0,0,1,.09-.93,1,1,0,0,1,.49-.68,2.47,2.47,0,0,1,1.33-.27,2.61,2.61,0,0,1,1.26.24,1,1,0,0,1,.48.55,1.73,1.73,0,0,1,.1.54l-.3.15a3.56,3.56,0,0,1,.86-.91,3.71,3.71,0,0,1,.91-.49,3.62,3.62,0,0,1,1.24-.2,4.66,4.66,0,0,1,.61,0,4.89,4.89,0,0,1,.7.15,2.83,2.83,0,0,1,.66.3,1.8,1.8,0,0,1,.49.46,1.23,1.23,0,0,1,.18.68,3.06,3.06,0,0,1-.47,1.74,1.42,1.42,0,0,1-1.2.71,1.66,1.66,0,0,1-.6-.07,1,1,0,0,1-.29-.15L165.2,25a1.68,1.68,0,0,0-.55-.06,2.34,2.34,0,0,0-.71.1,2.06,2.06,0,0,0-.63.31,1.63,1.63,0,0,0-.45.53,1.49,1.49,0,0,0-.16.71V32a5.4,5.4,0,0,1-.08.91,1.07,1.07,0,0,1-.49.69A2.62,2.62,0,0,1,160.79,33.86Z"/><path class="cls-2" d="M171.87,33.87a2.45,2.45,0,0,1-1.31-.26,1.11,1.11,0,0,1-.48-.72A4.63,4.63,0,0,1,170,32V23.25a4.45,4.45,0,0,1,.09-.93,1.08,1.08,0,0,1,.49-.69,3.45,3.45,0,0,1,2.58,0,1.06,1.06,0,0,1,.49.55,1.73,1.73,0,0,1,.1.54l-.3.15a2.39,2.39,0,0,1,.26-.37,3.57,3.57,0,0,1,.59-.54,3.14,3.14,0,0,1,.91-.49,3.62,3.62,0,0,1,1.24-.2,4.55,4.55,0,0,1,.61,0,3,3,0,0,1,.7.15,2.54,2.54,0,0,1,.67.3,1.51,1.51,0,0,1,.48.46,1.13,1.13,0,0,1,.19.67,3,3,0,0,1-.48,1.74,1.38,1.38,0,0,1-1.2.71,2.11,2.11,0,0,1-.6-.06.92.92,0,0,1-.28-.15,1.17,1.17,0,0,0-.27-.15,1.68,1.68,0,0,0-.55-.06,2.39,2.39,0,0,0-.71.1,1.9,1.9,0,0,0-.62.31,1.39,1.39,0,0,0-.45.52,1.53,1.53,0,0,0-.17.72V32a4.46,4.46,0,0,1-.09.91,1,1,0,0,1-.49.69A2.56,2.56,0,0,1,171.87,33.87Z"/><path class="cls-2" d="M191.27,33.86a2.34,2.34,0,0,1-1.38-.33.88.88,0,0,1-.42-.8l.25-.42a2.8,2.8,0,0,1-.58.61,4.12,4.12,0,0,1-2.77.93,4.88,4.88,0,0,1-2.19-.5A5.85,5.85,0,0,1,182.34,32a7.21,7.21,0,0,1-1.27-2,6.13,6.13,0,0,1,0-4.71,6.9,6.9,0,0,1,1.29-2,6.56,6.56,0,0,1,1.84-1.36,4.94,4.94,0,0,1,2.18-.5,4.2,4.2,0,0,1,2.66.88,3.2,3.2,0,0,1,.66.68l-.23-.35a1.07,1.07,0,0,1,.44-.92,2.51,2.51,0,0,1,1.39-.31,2.33,2.33,0,0,1,1.29.28,1.1,1.1,0,0,1,.47.72,4.86,4.86,0,0,1,.09.95V32a5.52,5.52,0,0,1-.08.92,1.11,1.11,0,0,1-.48.72A2.5,2.5,0,0,1,191.27,33.86Zm-4.37-3.73a2.16,2.16,0,0,0,1.2-.34,2.57,2.57,0,0,0,.85-.91,2.6,2.6,0,0,0,.32-1.27,2.57,2.57,0,0,0-.32-1.29,2.42,2.42,0,0,0-.88-.89,2.29,2.29,0,0,0-1.22-.32,2.33,2.33,0,0,0-1.26.33,2.53,2.53,0,0,0-.9.91,2.5,2.5,0,0,0-.34,1.3,2.4,2.4,0,0,0,.33,1.24,2.6,2.6,0,0,0,2.22,1.24Z"/><path class="cls-2" d="M197.52,33.89a2.35,2.35,0,0,1-1.31-.27,1.07,1.07,0,0,1-.48-.71,4.7,4.7,0,0,1-.09-.92V23.26a4.59,4.59,0,0,1,.09-.93,1,1,0,0,1,.49-.68,2.42,2.42,0,0,1,1.32-.26,2.63,2.63,0,0,1,1.26.23,1.1,1.1,0,0,1,.49.55,1.73,1.73,0,0,1,.1.54l-.3.15a2.48,2.48,0,0,1,.26-.36A3.58,3.58,0,0,1,200,22a3.71,3.71,0,0,1,.91-.49,3.62,3.62,0,0,1,1.24-.2c.18,0,.39,0,.61,0a4.62,4.62,0,0,1,.7.15,3.41,3.41,0,0,1,.67.3,1.66,1.66,0,0,1,.48.47,1.11,1.11,0,0,1,.19.67,3.06,3.06,0,0,1-.48,1.74,1.4,1.4,0,0,1-1.2.71,2.11,2.11,0,0,1-.6-.06.92.92,0,0,1-.28-.15,1.17,1.17,0,0,0-.27-.15,1.39,1.39,0,0,0-.55-.07,2.77,2.77,0,0,0-.71.1,1.93,1.93,0,0,0-.62.32,1.43,1.43,0,0,0-.46.52,1.65,1.65,0,0,0-.16.71V32a4.53,4.53,0,0,1-.09.91,1,1,0,0,1-.49.69A2.67,2.67,0,0,1,197.52,33.89Z"/><path class="cls-2" d="M219,33.12,213.1,24.2a2,2,0,0,1-.45-1.4,2,2,0,0,1,1-1.13,2.15,2.15,0,0,1,1.51-.46,2.08,2.08,0,0,1,1.09,1l4.32,6.63ZM216.79,39c-.68-.3-1.08-.64-1.19-1a2.18,2.18,0,0,1,.27-1.48l6.28-14a2,2,0,0,1,.94-1.19,2.32,2.32,0,0,1,1.53.21c.67.32,1.06.65,1.17,1a2.14,2.14,0,0,1-.24,1.4L219.24,38c-.28.67-.59,1.07-.93,1.19A2.16,2.16,0,0,1,216.79,39Z"/><path class="cls-2" d="M236,39.08a2.41,2.41,0,0,1-1.3-.26,1,1,0,0,1-.47-.67,5,5,0,0,1-.08-.89v-14a5.14,5.14,0,0,1,.08-.91,1.09,1.09,0,0,1,.46-.69,2.34,2.34,0,0,1,1.29-.27,2.72,2.72,0,0,1,1.24.23,1.37,1.37,0,0,1,.66.7v14.9a3,3,0,0,1-.08.9,1.1,1.1,0,0,1-.48.68A2.42,2.42,0,0,1,236,39.08Zm4.81-5.39a4.58,4.58,0,0,1-2.15-.49,4.49,4.49,0,0,1-1.54-1.33,5.8,5.8,0,0,1-.92-1.94,7.86,7.86,0,0,1-.29-2.37,8.17,8.17,0,0,1,.33-2.34,6.3,6.3,0,0,1,.94-2,4.19,4.19,0,0,1,1.52-1.35,4.35,4.35,0,0,1,2.11-.49,4.88,4.88,0,0,1,2.15.5A6.45,6.45,0,0,1,246,25.27a6.15,6.15,0,0,1,.47,2.37A6.06,6.06,0,0,1,246,30a6.25,6.25,0,0,1-1.26,1.94,6,6,0,0,1-1.83,1.29A5.35,5.35,0,0,1,240.77,33.69Zm-.5-3.53a2.38,2.38,0,0,0,1.25-.33,2.62,2.62,0,0,0,.89-.92,2.49,2.49,0,0,0,.34-1.27,2.54,2.54,0,0,0-.33-1.28,2.33,2.33,0,0,0-.89-.9,2.45,2.45,0,0,0-1.23-.32,2.4,2.4,0,0,0-1.24.33,2.45,2.45,0,0,0-.88.9,2.68,2.68,0,0,0-.31,1.27,2.6,2.6,0,0,0,.32,1.27,2.48,2.48,0,0,0,.88.91A2.2,2.2,0,0,0,240.27,30.16Z"/><path class="cls-2" d="M250.55,19.62a2.43,2.43,0,0,1-1.35-.28,1.09,1.09,0,0,1-.49-.72,4.87,4.87,0,0,1-.08-.95,5.64,5.64,0,0,1,.08-1,1.09,1.09,0,0,1,.5-.71,2.73,2.73,0,0,1,1.37-.26,2.42,2.42,0,0,1,1.32.28,1.09,1.09,0,0,1,.49.72,5,5,0,0,1,.09,1,4.63,4.63,0,0,1-.09.92,1.09,1.09,0,0,1-.49.72A2.65,2.65,0,0,1,250.55,19.62Zm0,14.3a2.52,2.52,0,0,1-1.32-.26,1,1,0,0,1-.48-.7,5.53,5.53,0,0,1-.07-.92V23.32a4.63,4.63,0,0,1,.09-.92,1,1,0,0,1,.49-.69,2.46,2.46,0,0,1,1.32-.27,2.33,2.33,0,0,1,1.29.28,1.12,1.12,0,0,1,.48.71,5.58,5.58,0,0,1,.08.94v8.7a4.46,4.46,0,0,1-.09.91,1.06,1.06,0,0,1-.48.69A2.47,2.47,0,0,1,250.54,33.92Z"/><path class="cls-2" d="M261.27,34a6.41,6.41,0,0,1-2.24-.41,6.92,6.92,0,0,1-2.1-1.21,6,6,0,0,1-1.54-2,6.35,6.35,0,0,1-.57-2.75,6.06,6.06,0,0,1,.58-2.73,6,6,0,0,1,1.52-2A6.67,6.67,0,0,1,259,21.74a6.39,6.39,0,0,1,2.21-.42,6.56,6.56,0,0,1,1.67.22,5.6,5.6,0,0,1,1.25.51,3.74,3.74,0,0,1,.73.53,5.48,5.48,0,0,1,.75.65,1,1,0,0,1,.3.85,1.38,1.38,0,0,1-.17.56,4.48,4.48,0,0,1-.38.59c-.52.7-1,1-1.5.95a2.58,2.58,0,0,1-.69-.25l-.6-.35a3.91,3.91,0,0,0-.61-.32,2,2,0,0,0-.75-.14,2.57,2.57,0,0,0-1.3.34,2.61,2.61,0,0,0-.91.9,2.6,2.6,0,0,0,.9,3.53,2.42,2.42,0,0,0,1.26.33,2.32,2.32,0,0,0,.72-.1,2.17,2.17,0,0,0,.55-.23l.35-.21c.2-.14.4-.26.58-.37a1.16,1.16,0,0,1,.55-.16,1.28,1.28,0,0,1,.74.26,4.7,4.7,0,0,1,.81.84,2.2,2.2,0,0,1,.49,1,1.19,1.19,0,0,1-.22.86,2.56,2.56,0,0,1-.85.76,3.69,3.69,0,0,1-.71.45,6.49,6.49,0,0,1-1.25.5A5.38,5.38,0,0,1,261.27,34Z"/><path class="cls-2" d="M278.42,33.91a2.34,2.34,0,0,1-1.38-.33.88.88,0,0,1-.42-.8l.25-.42a2.82,2.82,0,0,1-.58.61,4.11,4.11,0,0,1-1.11.65,4.33,4.33,0,0,1-1.66.29,5,5,0,0,1-2.19-.5A6,6,0,0,1,269.49,32a7,7,0,0,1-1.27-2,6,6,0,0,1,0-4.71,6.72,6.72,0,0,1,1.29-2A6.07,6.07,0,0,1,271.35,22a4.8,4.8,0,0,1,2.17-.5,4.15,4.15,0,0,1,1.58.26,4.86,4.86,0,0,1,1.09.61,3.45,3.45,0,0,1,.66.68l-.23-.35a1.05,1.05,0,0,1,.44-.91,3.15,3.15,0,0,1,2.68,0,1.16,1.16,0,0,1,.47.73,4.79,4.79,0,0,1,.09.95V32a4.73,4.73,0,0,1-.09.93,1,1,0,0,1-.47.71A2.5,2.5,0,0,1,278.42,33.91ZM274,30.18a2.21,2.21,0,0,0,1.2-.33,2.51,2.51,0,0,0,.85-.92,2.48,2.48,0,0,0,.33-1.27,2.62,2.62,0,0,0-.32-1.29,2.5,2.5,0,0,0-.88-.89,2.41,2.41,0,0,0-1.22-.32,2.48,2.48,0,0,0-1.27.33,2.64,2.64,0,0,0-.9.92,2.54,2.54,0,0,0-.34,1.3,2.37,2.37,0,0,0,.34,1.23,2.44,2.44,0,0,0,.93.9A2.48,2.48,0,0,0,274,30.18Z"/><path class="cls-2" d="M284.67,33.94a2.52,2.52,0,0,1-1.32-.26,1.1,1.1,0,0,1-.47-.72,4.7,4.7,0,0,1-.09-.92V23.31a5.25,5.25,0,0,1,.08-.92,1.07,1.07,0,0,1,.49-.69,2.59,2.59,0,0,1,1.33-.26,2.5,2.5,0,0,1,1.26.24,1.06,1.06,0,0,1,.49.55,2,2,0,0,1,.1.53l-.3.15a3.22,3.22,0,0,1,.26-.36,3.58,3.58,0,0,1,.59-.55,3.53,3.53,0,0,1,2.15-.68l.61,0a4.62,4.62,0,0,1,.7.15,3.32,3.32,0,0,1,.66.3,1.69,1.69,0,0,1,.49.47,1.2,1.2,0,0,1,.19.67,3,3,0,0,1-.48,1.74,1.4,1.4,0,0,1-1.2.71,2.11,2.11,0,0,1-.6-.06,1,1,0,0,1-.29-.15.93.93,0,0,0-.26-.15,1.68,1.68,0,0,0-.55-.06,2.34,2.34,0,0,0-.71.1,2,2,0,0,0-.63.31,1.45,1.45,0,0,0-.61,1.23v5.48a4.46,4.46,0,0,1-.09.91,1,1,0,0,1-.49.69A2.58,2.58,0,0,1,284.67,33.94Z"/><path class="cls-3" d="M128,31.2a3,3,0,0,1,.32,1.06,1,1,0,0,1-.26.77,2.84,2.84,0,0,1-.94.66,2,2,0,0,1-1.55.3,2.15,2.15,0,0,1-1-1.2l-4.89-10.25-4.88,10.25a1.59,1.59,0,0,1-2.58.87,2.84,2.84,0,0,1-1-.64,1,1,0,0,1-.26-.8,3,3,0,0,1,.37-1.09l6.58-13.67a2,2,0,0,1,.74-.8,1.88,1.88,0,0,1,1-.3,2,2,0,0,1,.7.14,1.89,1.89,0,0,1,.59.39,2.18,2.18,0,0,1,.43.6Zm-12.55-1.44L117,26.54h5.32l1.55,3.23Z"/><path class="cls-3" d="M135.22,33.52a5,5,0,0,1-2.16-.48,6,6,0,0,1-1.79-1.34,6.55,6.55,0,0,1-1.22-1.95,6.12,6.12,0,0,1-.45-2.33,6,6,0,0,1,.45-2.31,6.2,6.2,0,0,1,1.24-1.93,6,6,0,0,1,1.8-1.32,4.87,4.87,0,0,1,2.11-.49,3.84,3.84,0,0,1,1.9.44,3.33,3.33,0,0,1,1.25,1.25,6.56,6.56,0,0,1,.71,1.93,11.82,11.82,0,0,1,.24,2.49,11,11,0,0,1-.42,3.21,4.2,4.2,0,0,1-1.3,2.1A3.58,3.58,0,0,1,135.22,33.52Zm.45,5.48a7,7,0,0,1-1.77-.23,7.61,7.61,0,0,1-1.58-.6,4.28,4.28,0,0,1-1.15-.8,1.21,1.21,0,0,1-.43-.85,1.81,1.81,0,0,1,.15-.74,2.58,2.58,0,0,1,.45-.66,7,7,0,0,1,.6-.57.91.91,0,0,1,.6-.2,1.07,1.07,0,0,1,.63.19l.59.41a3.33,3.33,0,0,0,.78.41,3.21,3.21,0,0,0,1.2.19,2.26,2.26,0,0,0,.94-.19,2,2,0,0,0,.75-.55,2.65,2.65,0,0,0,.5-.85,2.85,2.85,0,0,0,.19-1.08V22.53a1.21,1.21,0,0,1,.51-.94A2.49,2.49,0,0,1,140,21.3a2.21,2.21,0,0,1,1.25.27,1.07,1.07,0,0,1,.46.68,4.43,4.43,0,0,1,.09.9V33a5.92,5.92,0,0,1-.53,2.54,5.57,5.57,0,0,1-1.4,1.87A6.35,6.35,0,0,1,135.67,39Zm0-9.1a2.13,2.13,0,0,0,1.2-.34,2.42,2.42,0,0,0,.83-.88,2.5,2.5,0,0,0,.32-1.25,2.54,2.54,0,0,0-.31-1.25,2.47,2.47,0,0,0-.85-.88,2.3,2.3,0,0,0-1.22-.33,2.21,2.21,0,0,0-1.2.34,2.53,2.53,0,0,0-1.15,2.14,2.3,2.3,0,0,0,.33,1.22,2.45,2.45,0,0,0,.86.89A2.15,2.15,0,0,0,135.65,29.9Z"/><path class="cls-3" d="M154.54,33.84a2.4,2.4,0,0,1-1.37-.33.92.92,0,0,1-.43-.8l.25-.43a2.51,2.51,0,0,1-.57.62,4.28,4.28,0,0,1-1.11.65,4.39,4.39,0,0,1-1.67.28,5,5,0,0,1-2.18-.5,5.74,5.74,0,0,1-1.84-1.39,7,7,0,0,1-1.27-2,6,6,0,0,1-.48-2.38,5.82,5.82,0,0,1,.48-2.33,6.9,6.9,0,0,1,1.29-2,6.24,6.24,0,0,1,1.84-1.36,4.9,4.9,0,0,1,2.17-.5,4.14,4.14,0,0,1,1.58.27,4.24,4.24,0,0,1,1.08.61,3.51,3.51,0,0,1,.67.67l-.23-.35a1.05,1.05,0,0,1,.44-.91,2.4,2.4,0,0,1,1.39-.31,2.21,2.21,0,0,1,1.28.28,1.11,1.11,0,0,1,.48.72,4.86,4.86,0,0,1,.09.95v8.63a4.7,4.7,0,0,1-.09.92,1.09,1.09,0,0,1-.47.71A2.41,2.41,0,0,1,154.54,33.84Zm-4.37-3.73a2.13,2.13,0,0,0,1.2-.34,2.57,2.57,0,0,0,.85-.91,2.52,2.52,0,0,0,.33-1.28,2.46,2.46,0,0,0-.33-1.28,2.32,2.32,0,0,0-.87-.89,2.36,2.36,0,0,0-1.23-.33,2.48,2.48,0,0,0-1.26.34,2.61,2.61,0,0,0-.9.91,2.57,2.57,0,0,0-.34,1.3,2.34,2.34,0,0,0,.34,1.24,2.56,2.56,0,0,0,.92.9A2.51,2.51,0,0,0,150.17,30.11Z"/><path class="cls-3" d="M160.79,33.86a2.41,2.41,0,0,1-1.31-.26,1,1,0,0,1-.47-.71,4.73,4.73,0,0,1-.09-.93V23.24a4.59,4.59,0,0,1,.09-.93,1,1,0,0,1,.49-.68,2.47,2.47,0,0,1,1.33-.27,2.61,2.61,0,0,1,1.26.24,1,1,0,0,1,.48.55,1.73,1.73,0,0,1,.1.54l-.3.15a3.56,3.56,0,0,1,.86-.91,3.71,3.71,0,0,1,.91-.49,3.62,3.62,0,0,1,1.24-.2,4.66,4.66,0,0,1,.61,0,4.89,4.89,0,0,1,.7.15,2.83,2.83,0,0,1,.66.3,1.8,1.8,0,0,1,.49.46,1.23,1.23,0,0,1,.18.68,3.06,3.06,0,0,1-.47,1.74,1.42,1.42,0,0,1-1.2.71,1.66,1.66,0,0,1-.6-.07,1,1,0,0,1-.29-.15L165.2,25a1.68,1.68,0,0,0-.55-.06,2.34,2.34,0,0,0-.71.1,2.06,2.06,0,0,0-.63.31,1.63,1.63,0,0,0-.45.53,1.49,1.49,0,0,0-.16.71V32a5.4,5.4,0,0,1-.08.91,1.07,1.07,0,0,1-.49.69A2.62,2.62,0,0,1,160.79,33.86Z"/><path class="cls-3" d="M171.87,33.87a2.45,2.45,0,0,1-1.31-.26,1.11,1.11,0,0,1-.48-.72A4.63,4.63,0,0,1,170,32V23.25a4.45,4.45,0,0,1,.09-.93,1.08,1.08,0,0,1,.49-.69,3.45,3.45,0,0,1,2.58,0,1.06,1.06,0,0,1,.49.55,1.73,1.73,0,0,1,.1.54l-.3.15a2.39,2.39,0,0,1,.26-.37,3.57,3.57,0,0,1,.59-.54,3.14,3.14,0,0,1,.91-.49,3.62,3.62,0,0,1,1.24-.2,4.55,4.55,0,0,1,.61,0,3,3,0,0,1,.7.15,2.54,2.54,0,0,1,.67.3,1.51,1.51,0,0,1,.48.46,1.13,1.13,0,0,1,.19.67,3,3,0,0,1-.48,1.74,1.38,1.38,0,0,1-1.2.71,2.11,2.11,0,0,1-.6-.06.92.92,0,0,1-.28-.15,1.17,1.17,0,0,0-.27-.15,1.68,1.68,0,0,0-.55-.06,2.39,2.39,0,0,0-.71.1,1.9,1.9,0,0,0-.62.31,1.39,1.39,0,0,0-.45.52,1.53,1.53,0,0,0-.17.72V32a4.46,4.46,0,0,1-.09.91,1,1,0,0,1-.49.69A2.56,2.56,0,0,1,171.87,33.87Z"/><path class="cls-3" d="M191.27,33.86a2.34,2.34,0,0,1-1.38-.33.88.88,0,0,1-.42-.8l.25-.42a2.8,2.8,0,0,1-.58.61,4.12,4.12,0,0,1-2.77.93,4.88,4.88,0,0,1-2.19-.5A5.85,5.85,0,0,1,182.34,32a7.21,7.21,0,0,1-1.27-2,6.13,6.13,0,0,1,0-4.71,6.9,6.9,0,0,1,1.29-2,6.56,6.56,0,0,1,1.84-1.36,4.94,4.94,0,0,1,2.18-.5,4.2,4.2,0,0,1,2.66.88,3.2,3.2,0,0,1,.66.68l-.23-.35a1.07,1.07,0,0,1,.44-.92,2.51,2.51,0,0,1,1.39-.31,2.33,2.33,0,0,1,1.29.28,1.1,1.1,0,0,1,.47.72,4.86,4.86,0,0,1,.09.95V32a5.52,5.52,0,0,1-.08.92,1.11,1.11,0,0,1-.48.72A2.5,2.5,0,0,1,191.27,33.86Zm-4.37-3.73a2.16,2.16,0,0,0,1.2-.34,2.57,2.57,0,0,0,.85-.91,2.6,2.6,0,0,0,.32-1.27,2.57,2.57,0,0,0-.32-1.29,2.42,2.42,0,0,0-.88-.89,2.29,2.29,0,0,0-1.22-.32,2.33,2.33,0,0,0-1.26.33,2.53,2.53,0,0,0-.9.91,2.5,2.5,0,0,0-.34,1.3,2.4,2.4,0,0,0,.33,1.24,2.6,2.6,0,0,0,2.22,1.24Z"/><path class="cls-3" d="M197.52,33.89a2.35,2.35,0,0,1-1.31-.27,1.07,1.07,0,0,1-.48-.71,4.7,4.7,0,0,1-.09-.92V23.26a4.59,4.59,0,0,1,.09-.93,1,1,0,0,1,.49-.68,2.42,2.42,0,0,1,1.32-.26,2.63,2.63,0,0,1,1.26.23,1.1,1.1,0,0,1,.49.55,1.73,1.73,0,0,1,.1.54l-.3.15a2.48,2.48,0,0,1,.26-.36A3.58,3.58,0,0,1,200,22a3.71,3.71,0,0,1,.91-.49,3.62,3.62,0,0,1,1.24-.2c.18,0,.39,0,.61,0a4.62,4.62,0,0,1,.7.15,3.41,3.41,0,0,1,.67.3,1.66,1.66,0,0,1,.48.47,1.11,1.11,0,0,1,.19.67,3.06,3.06,0,0,1-.48,1.74,1.4,1.4,0,0,1-1.2.71,2.11,2.11,0,0,1-.6-.06.92.92,0,0,1-.28-.15,1.17,1.17,0,0,0-.27-.15,1.39,1.39,0,0,0-.55-.07,2.77,2.77,0,0,0-.71.1,1.93,1.93,0,0,0-.62.32,1.43,1.43,0,0,0-.46.52,1.65,1.65,0,0,0-.16.71V32a4.53,4.53,0,0,1-.09.91,1,1,0,0,1-.49.69A2.67,2.67,0,0,1,197.52,33.89Z"/><path class="cls-3" d="M219,33.12,213.1,24.2a2,2,0,0,1-.45-1.4,2,2,0,0,1,1-1.13,2.15,2.15,0,0,1,1.51-.46,2.08,2.08,0,0,1,1.09,1l4.32,6.63ZM216.79,39c-.68-.3-1.08-.64-1.19-1a2.18,2.18,0,0,1,.27-1.48l6.28-14a2,2,0,0,1,.94-1.19,2.32,2.32,0,0,1,1.53.21c.67.32,1.06.65,1.17,1a2.14,2.14,0,0,1-.24,1.4L219.24,38c-.28.67-.59,1.07-.93,1.19A2.16,2.16,0,0,1,216.79,39Z"/><path class="cls-3" d="M236,39.08a2.41,2.41,0,0,1-1.3-.26,1,1,0,0,1-.47-.67,5,5,0,0,1-.08-.89v-14a5.14,5.14,0,0,1,.08-.91,1.09,1.09,0,0,1,.46-.69,2.34,2.34,0,0,1,1.29-.27,2.72,2.72,0,0,1,1.24.23,1.37,1.37,0,0,1,.66.7v14.9a3,3,0,0,1-.08.9,1.1,1.1,0,0,1-.48.68A2.42,2.42,0,0,1,236,39.08Zm4.81-5.39a4.58,4.58,0,0,1-2.15-.49,4.49,4.49,0,0,1-1.54-1.33,5.8,5.8,0,0,1-.92-1.94,7.86,7.86,0,0,1-.29-2.37,8.17,8.17,0,0,1,.33-2.34,6.3,6.3,0,0,1,.94-2,4.19,4.19,0,0,1,1.52-1.35,4.35,4.35,0,0,1,2.11-.49,4.88,4.88,0,0,1,2.15.5A6.45,6.45,0,0,1,246,25.27a6.15,6.15,0,0,1,.47,2.37A6.06,6.06,0,0,1,246,30a6.25,6.25,0,0,1-1.26,1.94,6,6,0,0,1-1.83,1.29A5.35,5.35,0,0,1,240.77,33.69Zm-.5-3.53a2.38,2.38,0,0,0,1.25-.33,2.62,2.62,0,0,0,.89-.92,2.49,2.49,0,0,0,.34-1.27,2.54,2.54,0,0,0-.33-1.28,2.33,2.33,0,0,0-.89-.9,2.45,2.45,0,0,0-1.23-.32,2.4,2.4,0,0,0-1.24.33,2.45,2.45,0,0,0-.88.9,2.68,2.68,0,0,0-.31,1.27,2.6,2.6,0,0,0,.32,1.27,2.48,2.48,0,0,0,.88.91A2.2,2.2,0,0,0,240.27,30.16Z"/><path class="cls-3" d="M250.55,19.62a2.43,2.43,0,0,1-1.35-.28,1.09,1.09,0,0,1-.49-.72,4.87,4.87,0,0,1-.08-.95,5.64,5.64,0,0,1,.08-1,1.09,1.09,0,0,1,.5-.71,2.73,2.73,0,0,1,1.37-.26,2.42,2.42,0,0,1,1.32.28,1.09,1.09,0,0,1,.49.72,5,5,0,0,1,.09,1,4.63,4.63,0,0,1-.09.92,1.09,1.09,0,0,1-.49.72A2.65,2.65,0,0,1,250.55,19.62Zm0,14.3a2.52,2.52,0,0,1-1.32-.26,1,1,0,0,1-.48-.7,5.53,5.53,0,0,1-.07-.92V23.32a4.63,4.63,0,0,1,.09-.92,1,1,0,0,1,.49-.69,2.46,2.46,0,0,1,1.32-.27,2.33,2.33,0,0,1,1.29.28,1.12,1.12,0,0,1,.48.71,5.58,5.58,0,0,1,.08.94v8.7a4.46,4.46,0,0,1-.09.91,1.06,1.06,0,0,1-.48.69A2.47,2.47,0,0,1,250.54,33.92Z"/><path class="cls-3" d="M261.27,34a6.41,6.41,0,0,1-2.24-.41,6.92,6.92,0,0,1-2.1-1.21,6,6,0,0,1-1.54-2,6.35,6.35,0,0,1-.57-2.75,6.06,6.06,0,0,1,.58-2.73,6,6,0,0,1,1.52-2A6.67,6.67,0,0,1,259,21.74a6.39,6.39,0,0,1,2.21-.42,6.56,6.56,0,0,1,1.67.22,5.6,5.6,0,0,1,1.25.51,3.74,3.74,0,0,1,.73.53,5.48,5.48,0,0,1,.75.65,1,1,0,0,1,.3.85,1.38,1.38,0,0,1-.17.56,4.48,4.48,0,0,1-.38.59c-.52.7-1,1-1.5.95a2.58,2.58,0,0,1-.69-.25l-.6-.35a3.91,3.91,0,0,0-.61-.32,2,2,0,0,0-.75-.14,2.57,2.57,0,0,0-1.3.34,2.61,2.61,0,0,0-.91.9,2.6,2.6,0,0,0,.9,3.53,2.42,2.42,0,0,0,1.26.33,2.32,2.32,0,0,0,.72-.1,2.17,2.17,0,0,0,.55-.23l.35-.21c.2-.14.4-.26.58-.37a1.16,1.16,0,0,1,.55-.16,1.28,1.28,0,0,1,.74.26,4.7,4.7,0,0,1,.81.84,2.2,2.2,0,0,1,.49,1,1.19,1.19,0,0,1-.22.86,2.56,2.56,0,0,1-.85.76,3.69,3.69,0,0,1-.71.45,6.49,6.49,0,0,1-1.25.5A5.38,5.38,0,0,1,261.27,34Z"/><path class="cls-3" d="M278.42,33.91a2.34,2.34,0,0,1-1.38-.33.88.88,0,0,1-.42-.8l.25-.42a2.82,2.82,0,0,1-.58.61,4.11,4.11,0,0,1-1.11.65,4.33,4.33,0,0,1-1.66.29,5,5,0,0,1-2.19-.5A6,6,0,0,1,269.49,32a7,7,0,0,1-1.27-2,6,6,0,0,1,0-4.71,6.72,6.72,0,0,1,1.29-2A6.07,6.07,0,0,1,271.35,22a4.8,4.8,0,0,1,2.17-.5,4.15,4.15,0,0,1,1.58.26,4.86,4.86,0,0,1,1.09.61,3.45,3.45,0,0,1,.66.68l-.23-.35a1.05,1.05,0,0,1,.44-.91,3.15,3.15,0,0,1,2.68,0,1.16,1.16,0,0,1,.47.73,4.79,4.79,0,0,1,.09.95V32a4.73,4.73,0,0,1-.09.93,1,1,0,0,1-.47.71A2.5,2.5,0,0,1,278.42,33.91ZM274,30.18a2.21,2.21,0,0,0,1.2-.33,2.51,2.51,0,0,0,.85-.92,2.48,2.48,0,0,0,.33-1.27,2.62,2.62,0,0,0-.32-1.29,2.5,2.5,0,0,0-.88-.89,2.41,2.41,0,0,0-1.22-.32,2.48,2.48,0,0,0-1.27.33,2.64,2.64,0,0,0-.9.92,2.54,2.54,0,0,0-.34,1.3,2.37,2.37,0,0,0,.34,1.23,2.44,2.44,0,0,0,.93.9A2.48,2.48,0,0,0,274,30.18Z"/><path class="cls-3" d="M284.67,33.94a2.52,2.52,0,0,1-1.32-.26,1.1,1.1,0,0,1-.47-.72,4.7,4.7,0,0,1-.09-.92V23.31a5.25,5.25,0,0,1,.08-.92,1.07,1.07,0,0,1,.49-.69,2.59,2.59,0,0,1,1.33-.26,2.5,2.5,0,0,1,1.26.24,1.06,1.06,0,0,1,.49.55,2,2,0,0,1,.1.53l-.3.15a3.22,3.22,0,0,1,.26-.36,3.58,3.58,0,0,1,.59-.55,3.53,3.53,0,0,1,2.15-.68l.61,0a4.62,4.62,0,0,1,.7.15,3.32,3.32,0,0,1,.66.3,1.69,1.69,0,0,1,.49.47,1.2,1.2,0,0,1,.19.67,3,3,0,0,1-.48,1.74,1.4,1.4,0,0,1-1.2.71,2.11,2.11,0,0,1-.6-.06,1,1,0,0,1-.29-.15.93.93,0,0,0-.26-.15,1.68,1.68,0,0,0-.55-.06,2.34,2.34,0,0,0-.71.1,2,2,0,0,0-.63.31,1.45,1.45,0,0,0-.61,1.23v5.48a4.46,4.46,0,0,1-.09.91,1,1,0,0,1-.49.69A2.58,2.58,0,0,1,284.67,33.94Z"/><path class="cls-2" d="M128,31.2a3,3,0,0,1,.32,1.06,1,1,0,0,1-.26.77,2.84,2.84,0,0,1-.94.66,2,2,0,0,1-1.55.3,2.15,2.15,0,0,1-1-1.2l-4.89-10.25-4.88,10.25a1.59,1.59,0,0,1-2.58.87,2.84,2.84,0,0,1-1-.64,1,1,0,0,1-.26-.8,3,3,0,0,1,.37-1.09l6.58-13.67a2,2,0,0,1,.74-.8,1.88,1.88,0,0,1,1-.3,2,2,0,0,1,.7.14,1.89,1.89,0,0,1,.59.39,2.18,2.18,0,0,1,.43.6Zm-12.55-1.44L117,26.54h5.32l1.55,3.23Z"/><path class="cls-2" d="M135.22,33.52a5,5,0,0,1-2.16-.48,6,6,0,0,1-1.79-1.34,6.55,6.55,0,0,1-1.22-1.95,6.12,6.12,0,0,1-.45-2.33,6,6,0,0,1,.45-2.31,6.2,6.2,0,0,1,1.24-1.93,6,6,0,0,1,1.8-1.32,4.87,4.87,0,0,1,2.11-.49,3.84,3.84,0,0,1,1.9.44,3.33,3.33,0,0,1,1.25,1.25,6.56,6.56,0,0,1,.71,1.93,11.82,11.82,0,0,1,.24,2.49,11,11,0,0,1-.42,3.21,4.2,4.2,0,0,1-1.3,2.1A3.58,3.58,0,0,1,135.22,33.52Zm.45,5.48a7,7,0,0,1-1.77-.23,7.61,7.61,0,0,1-1.58-.6,4.28,4.28,0,0,1-1.15-.8,1.21,1.21,0,0,1-.43-.85,1.81,1.81,0,0,1,.15-.74,2.58,2.58,0,0,1,.45-.66,7,7,0,0,1,.6-.57.91.91,0,0,1,.6-.2,1.07,1.07,0,0,1,.63.19l.59.41a3.33,3.33,0,0,0,.78.41,3.21,3.21,0,0,0,1.2.19,2.26,2.26,0,0,0,.94-.19,2,2,0,0,0,.75-.55,2.65,2.65,0,0,0,.5-.85,2.85,2.85,0,0,0,.19-1.08V22.53a1.21,1.21,0,0,1,.51-.94A2.49,2.49,0,0,1,140,21.3a2.21,2.21,0,0,1,1.25.27,1.07,1.07,0,0,1,.46.68,4.43,4.43,0,0,1,.09.9V33a5.92,5.92,0,0,1-.53,2.54,5.57,5.57,0,0,1-1.4,1.87A6.35,6.35,0,0,1,135.67,39Zm0-9.1a2.13,2.13,0,0,0,1.2-.34,2.42,2.42,0,0,0,.83-.88,2.5,2.5,0,0,0,.32-1.25,2.54,2.54,0,0,0-.31-1.25,2.47,2.47,0,0,0-.85-.88,2.3,2.3,0,0,0-1.22-.33,2.21,2.21,0,0,0-1.2.34,2.53,2.53,0,0,0-1.15,2.14,2.3,2.3,0,0,0,.33,1.22,2.45,2.45,0,0,0,.86.89A2.15,2.15,0,0,0,135.65,29.9Z"/><path class="cls-2" d="M154.54,33.84a2.4,2.4,0,0,1-1.37-.33.92.92,0,0,1-.43-.8l.25-.43a2.51,2.51,0,0,1-.57.62,4.28,4.28,0,0,1-1.11.65,4.39,4.39,0,0,1-1.67.28,5,5,0,0,1-2.18-.5,5.74,5.74,0,0,1-1.84-1.39,7,7,0,0,1-1.27-2,6,6,0,0,1-.48-2.38,5.82,5.82,0,0,1,.48-2.33,6.9,6.9,0,0,1,1.29-2,6.24,6.24,0,0,1,1.84-1.36,4.9,4.9,0,0,1,2.17-.5,4.14,4.14,0,0,1,1.58.27,4.24,4.24,0,0,1,1.08.61,3.51,3.51,0,0,1,.67.67l-.23-.35a1.05,1.05,0,0,1,.44-.91,2.4,2.4,0,0,1,1.39-.31,2.21,2.21,0,0,1,1.28.28,1.11,1.11,0,0,1,.48.72,4.86,4.86,0,0,1,.09.95v8.63a4.7,4.7,0,0,1-.09.92,1.09,1.09,0,0,1-.47.71A2.41,2.41,0,0,1,154.54,33.84Zm-4.37-3.73a2.13,2.13,0,0,0,1.2-.34,2.57,2.57,0,0,0,.85-.91,2.52,2.52,0,0,0,.33-1.28,2.46,2.46,0,0,0-.33-1.28,2.32,2.32,0,0,0-.87-.89,2.36,2.36,0,0,0-1.23-.33,2.48,2.48,0,0,0-1.26.34,2.61,2.61,0,0,0-.9.91,2.57,2.57,0,0,0-.34,1.3,2.34,2.34,0,0,0,.34,1.24,2.56,2.56,0,0,0,.92.9A2.51,2.51,0,0,0,150.17,30.11Z"/><path class="cls-2" d="M160.79,33.86a2.41,2.41,0,0,1-1.31-.26,1,1,0,0,1-.47-.71,4.73,4.73,0,0,1-.09-.93V23.24a4.59,4.59,0,0,1,.09-.93,1,1,0,0,1,.49-.68,2.47,2.47,0,0,1,1.33-.27,2.61,2.61,0,0,1,1.26.24,1,1,0,0,1,.48.55,1.73,1.73,0,0,1,.1.54l-.3.15a3.56,3.56,0,0,1,.86-.91,3.71,3.71,0,0,1,.91-.49,3.62,3.62,0,0,1,1.24-.2,4.66,4.66,0,0,1,.61,0,4.89,4.89,0,0,1,.7.15,2.83,2.83,0,0,1,.66.3,1.8,1.8,0,0,1,.49.46,1.23,1.23,0,0,1,.18.68,3.06,3.06,0,0,1-.47,1.74,1.42,1.42,0,0,1-1.2.71,1.66,1.66,0,0,1-.6-.07,1,1,0,0,1-.29-.15L165.2,25a1.68,1.68,0,0,0-.55-.06,2.34,2.34,0,0,0-.71.1,2.06,2.06,0,0,0-.63.31,1.63,1.63,0,0,0-.45.53,1.49,1.49,0,0,0-.16.71V32a5.4,5.4,0,0,1-.08.91,1.07,1.07,0,0,1-.49.69A2.62,2.62,0,0,1,160.79,33.86Z"/><path class="cls-2" d="M171.87,33.87a2.45,2.45,0,0,1-1.31-.26,1.11,1.11,0,0,1-.48-.72A4.63,4.63,0,0,1,170,32V23.25a4.45,4.45,0,0,1,.09-.93,1.08,1.08,0,0,1,.49-.69,3.45,3.45,0,0,1,2.58,0,1.06,1.06,0,0,1,.49.55,1.73,1.73,0,0,1,.1.54l-.3.15a2.39,2.39,0,0,1,.26-.37,3.57,3.57,0,0,1,.59-.54,3.14,3.14,0,0,1,.91-.49,3.62,3.62,0,0,1,1.24-.2,4.55,4.55,0,0,1,.61,0,3,3,0,0,1,.7.15,2.54,2.54,0,0,1,.67.3,1.51,1.51,0,0,1,.48.46,1.13,1.13,0,0,1,.19.67,3,3,0,0,1-.48,1.74,1.38,1.38,0,0,1-1.2.71,2.11,2.11,0,0,1-.6-.06.92.92,0,0,1-.28-.15,1.17,1.17,0,0,0-.27-.15,1.68,1.68,0,0,0-.55-.06,2.39,2.39,0,0,0-.71.1,1.9,1.9,0,0,0-.62.31,1.39,1.39,0,0,0-.45.52,1.53,1.53,0,0,0-.17.72V32a4.46,4.46,0,0,1-.09.91,1,1,0,0,1-.49.69A2.56,2.56,0,0,1,171.87,33.87Z"/><path class="cls-2" d="M191.27,33.86a2.34,2.34,0,0,1-1.38-.33.88.88,0,0,1-.42-.8l.25-.42a2.8,2.8,0,0,1-.58.61,4.12,4.12,0,0,1-2.77.93,4.88,4.88,0,0,1-2.19-.5A5.85,5.85,0,0,1,182.34,32a7.21,7.21,0,0,1-1.27-2,6.13,6.13,0,0,1,0-4.71,6.9,6.9,0,0,1,1.29-2,6.56,6.56,0,0,1,1.84-1.36,4.94,4.94,0,0,1,2.18-.5,4.2,4.2,0,0,1,2.66.88,3.2,3.2,0,0,1,.66.68l-.23-.35a1.07,1.07,0,0,1,.44-.92,2.51,2.51,0,0,1,1.39-.31,2.33,2.33,0,0,1,1.29.28,1.1,1.1,0,0,1,.47.72,4.86,4.86,0,0,1,.09.95V32a5.52,5.52,0,0,1-.08.92,1.11,1.11,0,0,1-.48.72A2.5,2.5,0,0,1,191.27,33.86Zm-4.37-3.73a2.16,2.16,0,0,0,1.2-.34,2.57,2.57,0,0,0,.85-.91,2.6,2.6,0,0,0,.32-1.27,2.57,2.57,0,0,0-.32-1.29,2.42,2.42,0,0,0-.88-.89,2.29,2.29,0,0,0-1.22-.32,2.33,2.33,0,0,0-1.26.33,2.53,2.53,0,0,0-.9.91,2.5,2.5,0,0,0-.34,1.3,2.4,2.4,0,0,0,.33,1.24,2.6,2.6,0,0,0,2.22,1.24Z"/><path class="cls-2" d="M197.52,33.89a2.35,2.35,0,0,1-1.31-.27,1.07,1.07,0,0,1-.48-.71,4.7,4.7,0,0,1-.09-.92V23.26a4.59,4.59,0,0,1,.09-.93,1,1,0,0,1,.49-.68,2.42,2.42,0,0,1,1.32-.26,2.63,2.63,0,0,1,1.26.23,1.1,1.1,0,0,1,.49.55,1.73,1.73,0,0,1,.1.54l-.3.15a2.48,2.48,0,0,1,.26-.36A3.58,3.58,0,0,1,200,22a3.71,3.71,0,0,1,.91-.49,3.62,3.62,0,0,1,1.24-.2c.18,0,.39,0,.61,0a4.62,4.62,0,0,1,.7.15,3.41,3.41,0,0,1,.67.3,1.66,1.66,0,0,1,.48.47,1.11,1.11,0,0,1,.19.67,3.06,3.06,0,0,1-.48,1.74,1.4,1.4,0,0,1-1.2.71,2.11,2.11,0,0,1-.6-.06.92.92,0,0,1-.28-.15,1.17,1.17,0,0,0-.27-.15,1.39,1.39,0,0,0-.55-.07,2.77,2.77,0,0,0-.71.1,1.93,1.93,0,0,0-.62.32,1.43,1.43,0,0,0-.46.52,1.65,1.65,0,0,0-.16.71V32a4.53,4.53,0,0,1-.09.91,1,1,0,0,1-.49.69A2.67,2.67,0,0,1,197.52,33.89Z"/><path class="cls-2" d="M219,33.12,213.1,24.2a2,2,0,0,1-.45-1.4,2,2,0,0,1,1-1.13,2.15,2.15,0,0,1,1.51-.46,2.08,2.08,0,0,1,1.09,1l4.32,6.63ZM216.79,39c-.68-.3-1.08-.64-1.19-1a2.18,2.18,0,0,1,.27-1.48l6.28-14a2,2,0,0,1,.94-1.19,2.32,2.32,0,0,1,1.53.21c.67.32,1.06.65,1.17,1a2.14,2.14,0,0,1-.24,1.4L219.24,38c-.28.67-.59,1.07-.93,1.19A2.16,2.16,0,0,1,216.79,39Z"/><path class="cls-2" d="M236,39.08a2.41,2.41,0,0,1-1.3-.26,1,1,0,0,1-.47-.67,5,5,0,0,1-.08-.89v-14a5.14,5.14,0,0,1,.08-.91,1.09,1.09,0,0,1,.46-.69,2.34,2.34,0,0,1,1.29-.27,2.72,2.72,0,0,1,1.24.23,1.37,1.37,0,0,1,.66.7v14.9a3,3,0,0,1-.08.9,1.1,1.1,0,0,1-.48.68A2.42,2.42,0,0,1,236,39.08Zm4.81-5.39a4.58,4.58,0,0,1-2.15-.49,4.49,4.49,0,0,1-1.54-1.33,5.8,5.8,0,0,1-.92-1.94,7.86,7.86,0,0,1-.29-2.37,8.17,8.17,0,0,1,.33-2.34,6.3,6.3,0,0,1,.94-2,4.19,4.19,0,0,1,1.52-1.35,4.35,4.35,0,0,1,2.11-.49,4.88,4.88,0,0,1,2.15.5A6.45,6.45,0,0,1,246,25.27a6.15,6.15,0,0,1,.47,2.37A6.06,6.06,0,0,1,246,30a6.25,6.25,0,0,1-1.26,1.94,6,6,0,0,1-1.83,1.29A5.35,5.35,0,0,1,240.77,33.69Zm-.5-3.53a2.38,2.38,0,0,0,1.25-.33,2.62,2.62,0,0,0,.89-.92,2.49,2.49,0,0,0,.34-1.27,2.54,2.54,0,0,0-.33-1.28,2.33,2.33,0,0,0-.89-.9,2.45,2.45,0,0,0-1.23-.32,2.4,2.4,0,0,0-1.24.33,2.45,2.45,0,0,0-.88.9,2.68,2.68,0,0,0-.31,1.27,2.6,2.6,0,0,0,.32,1.27,2.48,2.48,0,0,0,.88.91A2.2,2.2,0,0,0,240.27,30.16Z"/><path class="cls-2" d="M250.55,19.62a2.43,2.43,0,0,1-1.35-.28,1.09,1.09,0,0,1-.49-.72,4.87,4.87,0,0,1-.08-.95,5.64,5.64,0,0,1,.08-1,1.09,1.09,0,0,1,.5-.71,2.73,2.73,0,0,1,1.37-.26,2.42,2.42,0,0,1,1.32.28,1.09,1.09,0,0,1,.49.72,5,5,0,0,1,.09,1,4.63,4.63,0,0,1-.09.92,1.09,1.09,0,0,1-.49.72A2.65,2.65,0,0,1,250.55,19.62Zm0,14.3a2.52,2.52,0,0,1-1.32-.26,1,1,0,0,1-.48-.7,5.53,5.53,0,0,1-.07-.92V23.32a4.63,4.63,0,0,1,.09-.92,1,1,0,0,1,.49-.69,2.46,2.46,0,0,1,1.32-.27,2.33,2.33,0,0,1,1.29.28,1.12,1.12,0,0,1,.48.71,5.58,5.58,0,0,1,.08.94v8.7a4.46,4.46,0,0,1-.09.91,1.06,1.06,0,0,1-.48.69A2.47,2.47,0,0,1,250.54,33.92Z"/><path class="cls-2" d="M261.27,34a6.41,6.41,0,0,1-2.24-.41,6.92,6.92,0,0,1-2.1-1.21,6,6,0,0,1-1.54-2,6.35,6.35,0,0,1-.57-2.75,6.06,6.06,0,0,1,.58-2.73,6,6,0,0,1,1.52-2A6.67,6.67,0,0,1,259,21.74a6.39,6.39,0,0,1,2.21-.42,6.56,6.56,0,0,1,1.67.22,5.6,5.6,0,0,1,1.25.51,3.74,3.74,0,0,1,.73.53,5.48,5.48,0,0,1,.75.65,1,1,0,0,1,.3.85,1.38,1.38,0,0,1-.17.56,4.48,4.48,0,0,1-.38.59c-.52.7-1,1-1.5.95a2.58,2.58,0,0,1-.69-.25l-.6-.35a3.91,3.91,0,0,0-.61-.32,2,2,0,0,0-.75-.14,2.57,2.57,0,0,0-1.3.34,2.61,2.61,0,0,0-.91.9,2.6,2.6,0,0,0,.9,3.53,2.42,2.42,0,0,0,1.26.33,2.32,2.32,0,0,0,.72-.1,2.17,2.17,0,0,0,.55-.23l.35-.21c.2-.14.4-.26.58-.37a1.16,1.16,0,0,1,.55-.16,1.28,1.28,0,0,1,.74.26,4.7,4.7,0,0,1,.81.84,2.2,2.2,0,0,1,.49,1,1.19,1.19,0,0,1-.22.86,2.56,2.56,0,0,1-.85.76,3.69,3.69,0,0,1-.71.45,6.49,6.49,0,0,1-1.25.5A5.38,5.38,0,0,1,261.27,34Z"/><path class="cls-2" d="M278.42,33.91a2.34,2.34,0,0,1-1.38-.33.88.88,0,0,1-.42-.8l.25-.42a2.82,2.82,0,0,1-.58.61,4.11,4.11,0,0,1-1.11.65,4.33,4.33,0,0,1-1.66.29,5,5,0,0,1-2.19-.5A6,6,0,0,1,269.49,32a7,7,0,0,1-1.27-2,6,6,0,0,1,0-4.71,6.72,6.72,0,0,1,1.29-2A6.07,6.07,0,0,1,271.35,22a4.8,4.8,0,0,1,2.17-.5,4.15,4.15,0,0,1,1.58.26,4.86,4.86,0,0,1,1.09.61,3.45,3.45,0,0,1,.66.68l-.23-.35a1.05,1.05,0,0,1,.44-.91,3.15,3.15,0,0,1,2.68,0,1.16,1.16,0,0,1,.47.73,4.79,4.79,0,0,1,.09.95V32a4.73,4.73,0,0,1-.09.93,1,1,0,0,1-.47.71A2.5,2.5,0,0,1,278.42,33.91ZM274,30.18a2.21,2.21,0,0,0,1.2-.33,2.51,2.51,0,0,0,.85-.92,2.48,2.48,0,0,0,.33-1.27,2.62,2.62,0,0,0-.32-1.29,2.5,2.5,0,0,0-.88-.89,2.41,2.41,0,0,0-1.22-.32,2.48,2.48,0,0,0-1.27.33,2.64,2.64,0,0,0-.9.92,2.54,2.54,0,0,0-.34,1.3,2.37,2.37,0,0,0,.34,1.23,2.44,2.44,0,0,0,.93.9A2.48,2.48,0,0,0,274,30.18Z"/><path class="cls-2" d="M284.67,33.94a2.52,2.52,0,0,1-1.32-.26,1.1,1.1,0,0,1-.47-.72,4.7,4.7,0,0,1-.09-.92V23.31a5.25,5.25,0,0,1,.08-.92,1.07,1.07,0,0,1,.49-.69,2.59,2.59,0,0,1,1.33-.26,2.5,2.5,0,0,1,1.26.24,1.06,1.06,0,0,1,.49.55,2,2,0,0,1,.1.53l-.3.15a3.22,3.22,0,0,1,.26-.36,3.58,3.58,0,0,1,.59-.55,3.53,3.53,0,0,1,2.15-.68l.61,0a4.62,4.62,0,0,1,.7.15,3.32,3.32,0,0,1,.66.3,1.69,1.69,0,0,1,.49.47,1.2,1.2,0,0,1,.19.67,3,3,0,0,1-.48,1.74,1.4,1.4,0,0,1-1.2.71,2.11,2.11,0,0,1-.6-.06,1,1,0,0,1-.29-.15.93.93,0,0,0-.26-.15,1.68,1.68,0,0,0-.55-.06,2.34,2.34,0,0,0-.71.1,2,2,0,0,0-.63.31,1.45,1.45,0,0,0-.61,1.23v5.48a4.46,4.46,0,0,1-.09.91,1,1,0,0,1-.49.69A2.58,2.58,0,0,1,284.67,33.94Z"/><text class="cls-4" transform="matrix(0.97, 0, 0, 1, 51.72, 40.47)">1<tspan class="cls-5" x="16.06" y="0">.</tspan><tspan x="22.57" y="0">1</tspan></text><text class="cls-6" transform="matrix(0.97, 0, 0, 1, 51.72, 40.47)">1<tspan class="cls-5" x="16.06" y="0">.</tspan><tspan x="22.57" y="0">1</tspan></text></g></g></svg>