<svg xmlns="http://www.w3.org/2000/svg" viewBox="0 0 401.16 89.13"><defs><style>.cls-1{fill:#0468ad;}.cls-2{fill:#fff;}.cls-3,.cls-4{fill:none;stroke-width:5px;}.cls-3{stroke:#c8a927;stroke-linejoin:round;}.cls-4,.cls-6{font-size:42px;font-family:Coiny-Regular, Coiny;}.cls-4{stroke:#fff;}.cls-5{letter-spacing:-0.11em;}.cls-6{fill:#c8a927;}</style></defs><title>11t</title><g id="Layer_2" data-name="Layer 2"><g id="pestaña_identificativa" data-name="pestaña identificativa"><rect class="cls-1" width="401.16" height="89.13" rx="32.4"/><path class="cls-2" d="M134.48,31.2a2.77,2.77,0,0,1,.32,1.06,1,1,0,0,1-.26.77,3,3,0,0,1-.94.67,2.05,2.05,0,0,1-1.55.29,2.1,2.1,0,0,1-1-1.2l-4.9-10.25-4.88,10.25a2.2,2.2,0,0,1-1,1.16,2.16,2.16,0,0,1-1.53-.29,2.74,2.74,0,0,1-1-.64,1,1,0,0,1-.27-.8,3,3,0,0,1,.37-1.09l6.58-13.67a2,2,0,0,1,.74-.8,1.87,1.87,0,0,1,1-.29,1.82,1.82,0,0,1,.7.13,2.09,2.09,0,0,1,.59.39,2.45,2.45,0,0,1,.44.6Zm-12.55-1.44,1.55-3.22h5.32l1.55,3.23Z"/><path class="cls-2" d="M141.7,33.52a5,5,0,0,1-2.16-.48,6,6,0,0,1-1.79-1.34,6.76,6.76,0,0,1-1.22-1.95,6.12,6.12,0,0,1-.45-2.33,6,6,0,0,1,.45-2.31,6.2,6.2,0,0,1,1.24-1.93,6.43,6.43,0,0,1,1.8-1.32,4.9,4.9,0,0,1,2.11-.49,3.81,3.81,0,0,1,1.9.44,3.33,3.33,0,0,1,1.25,1.25,6.29,6.29,0,0,1,.71,1.93,11.82,11.82,0,0,1,.24,2.49,11.33,11.33,0,0,1-.41,3.21,4.22,4.22,0,0,1-1.31,2.1A3.53,3.53,0,0,1,141.7,33.52Zm.45,5.48a6.91,6.91,0,0,1-1.76-.23,7.49,7.49,0,0,1-1.59-.6,4.28,4.28,0,0,1-1.15-.8,1.25,1.25,0,0,1-.43-.85,1.67,1.67,0,0,1,.16-.74,2.35,2.35,0,0,1,.45-.66,4.94,4.94,0,0,1,.6-.57.87.87,0,0,1,.6-.2,1,1,0,0,1,.62.19l.59.41a3.41,3.41,0,0,0,.79.41,3.12,3.12,0,0,0,1.19.19,2.26,2.26,0,0,0,.94-.19,2,2,0,0,0,.75-.55,2.65,2.65,0,0,0,.5-.85,2.85,2.85,0,0,0,.19-1.08V22.53a1.21,1.21,0,0,1,.51-.94,2.49,2.49,0,0,1,1.34-.29,2.21,2.21,0,0,1,1.25.27,1.07,1.07,0,0,1,.46.68,4.43,4.43,0,0,1,.09.9V33a5.77,5.77,0,0,1-.53,2.54,5.44,5.44,0,0,1-1.4,1.87A6.35,6.35,0,0,1,142.15,39Zm0-9.1a2.13,2.13,0,0,0,1.2-.34,2.53,2.53,0,0,0,.84-.88,2.49,2.49,0,0,0,.31-1.25,2.44,2.44,0,0,0-.31-1.25,2.39,2.39,0,0,0-.85-.88,2.27,2.27,0,0,0-1.21-.33,2.21,2.21,0,0,0-1.2.34,2.56,2.56,0,0,0-.84.89,2.44,2.44,0,0,0-.31,1.25,2.21,2.21,0,0,0,.32,1.22,2.53,2.53,0,0,0,.86.89A2.17,2.17,0,0,0,142.13,29.9Z"/><path class="cls-2" d="M161,33.84a2.34,2.34,0,0,1-1.38-.33.89.89,0,0,1-.42-.8l.25-.42a3.07,3.07,0,0,1-.58.61,4.11,4.11,0,0,1-1.11.65,4.34,4.34,0,0,1-1.66.28,4.88,4.88,0,0,1-2.19-.5,5.74,5.74,0,0,1-1.84-1.39,7,7,0,0,1-1.27-2,6,6,0,0,1,0-4.71,6.9,6.9,0,0,1,1.29-2A6.24,6.24,0,0,1,154,21.88a4.93,4.93,0,0,1,2.17-.5,4.14,4.14,0,0,1,1.58.27,4.5,4.5,0,0,1,1.09.61,3.43,3.43,0,0,1,.66.67l-.23-.35a1.05,1.05,0,0,1,.44-.91,2.4,2.4,0,0,1,1.39-.31,2.24,2.24,0,0,1,1.29.28,1.14,1.14,0,0,1,.47.72,4.86,4.86,0,0,1,.09.95v8.63a4.7,4.7,0,0,1-.09.92,1,1,0,0,1-.47.71A2.39,2.39,0,0,1,161,33.84Zm-4.38-3.73a2.13,2.13,0,0,0,1.2-.34,2.48,2.48,0,0,0,.85-.91,2.52,2.52,0,0,0,.33-1.28,2.56,2.56,0,0,0-.32-1.28,2.42,2.42,0,0,0-.88-.89,2.33,2.33,0,0,0-1.22-.33,2.49,2.49,0,0,0-1.27.34,2.61,2.61,0,0,0-.9.91,2.57,2.57,0,0,0-.34,1.3,2.43,2.43,0,0,0,.34,1.24,2.59,2.59,0,0,0,.93.9A2.48,2.48,0,0,0,156.65,30.11Z"/><path class="cls-2" d="M167.28,33.87A2.5,2.5,0,0,1,166,33.6a1.06,1.06,0,0,1-.47-.71,4.73,4.73,0,0,1-.09-.93V23.24a5.46,5.46,0,0,1,.08-.93,1,1,0,0,1,.49-.68,2.39,2.39,0,0,1,1.33-.26,2.52,2.52,0,0,1,1.26.23,1.1,1.1,0,0,1,.49.55,2.08,2.08,0,0,1,.1.54l-.3.15a2,2,0,0,1,.26-.36,3.2,3.2,0,0,1,.59-.55,3.71,3.71,0,0,1,.91-.49,3.62,3.62,0,0,1,1.24-.2,4.56,4.56,0,0,1,1.31.19,3.32,3.32,0,0,1,.66.3,1.8,1.8,0,0,1,.49.46,1.24,1.24,0,0,1,.19.68,3.06,3.06,0,0,1-.48,1.74,1.42,1.42,0,0,1-1.2.71,1.73,1.73,0,0,1-.6-.07,1.31,1.31,0,0,1-.29-.14.93.93,0,0,0-.26-.15,1.39,1.39,0,0,0-.55-.07,2.71,2.71,0,0,0-.71.1,2.06,2.06,0,0,0-.63.31,1.63,1.63,0,0,0-.45.53,1.49,1.49,0,0,0-.16.71V32a4.53,4.53,0,0,1-.09.91,1,1,0,0,1-.49.69A2.69,2.69,0,0,1,167.28,33.87Z"/><path class="cls-2" d="M178.35,33.87a2.48,2.48,0,0,1-1.31-.26,1.09,1.09,0,0,1-.48-.72,4.57,4.57,0,0,1-.08-.92V23.25a4.45,4.45,0,0,1,.09-.93,1.08,1.08,0,0,1,.49-.69,2.54,2.54,0,0,1,1.32-.26,2.45,2.45,0,0,1,1.26.24,1,1,0,0,1,.49.55,1.73,1.73,0,0,1,.1.54l-.3.15a2.39,2.39,0,0,1,.26-.37,4,4,0,0,1,.59-.54,3.21,3.21,0,0,1,.92-.49,3.56,3.56,0,0,1,1.23-.2,4.7,4.7,0,0,1,.62,0,3.26,3.26,0,0,1,.7.15,2.47,2.47,0,0,1,.66.3,1.51,1.51,0,0,1,.48.46,1.13,1.13,0,0,1,.19.67,3.09,3.09,0,0,1-.47,1.74,1.4,1.4,0,0,1-1.2.71,2.14,2.14,0,0,1-.61-.06.92.92,0,0,1-.28-.15,1.1,1.1,0,0,0-.26-.15,1.72,1.72,0,0,0-.55-.06,2.46,2.46,0,0,0-.72.1,1.9,1.9,0,0,0-.62.31,1.6,1.6,0,0,0-.45.52,1.53,1.53,0,0,0-.17.72V32a4.63,4.63,0,0,1-.09.92,1,1,0,0,1-.48.68A2.6,2.6,0,0,1,178.35,33.87Z"/><path class="cls-2" d="M197.75,33.86a2.28,2.28,0,0,1-1.37-.33.88.88,0,0,1-.43-.8l.25-.42a3,3,0,0,1-.57.61,4.25,4.25,0,0,1-2.78.94,5,5,0,0,1-2.19-.51A5.7,5.7,0,0,1,188.83,32a7,7,0,0,1-1.28-2,6.15,6.15,0,0,1-.47-2.37,6,6,0,0,1,.47-2.34,6.9,6.9,0,0,1,1.29-2,6.7,6.7,0,0,1,1.84-1.36,5,5,0,0,1,2.18-.5,4.29,4.29,0,0,1,1.57.27,4.15,4.15,0,0,1,1.09.61,3.45,3.45,0,0,1,.66.68l-.22-.35a1,1,0,0,1,.43-.91,2.44,2.44,0,0,1,1.39-.32,2.33,2.33,0,0,1,1.29.28,1.11,1.11,0,0,1,.48.72,5.8,5.8,0,0,1,.08.95V32a4.63,4.63,0,0,1-.09.92,1.11,1.11,0,0,1-.48.72A2.48,2.48,0,0,1,197.75,33.86Zm-4.37-3.73a2.13,2.13,0,0,0,1.2-.34,2.57,2.57,0,0,0,.85-.91,2.6,2.6,0,0,0,.32-1.27,2.47,2.47,0,0,0-.32-1.29,2.42,2.42,0,0,0-.88-.89,2.29,2.29,0,0,0-1.22-.32,2.42,2.42,0,0,0-1.26.33,2.53,2.53,0,0,0-.9.91,2.5,2.5,0,0,0-.34,1.3,2.31,2.31,0,0,0,.34,1.24,2.41,2.41,0,0,0,.92.9A2.49,2.49,0,0,0,193.38,30.13Z"/><path class="cls-2" d="M204,33.89a2.37,2.37,0,0,1-1.31-.27,1.07,1.07,0,0,1-.48-.71,4.7,4.7,0,0,1-.08-.92V23.26a4.42,4.42,0,0,1,.09-.92,1,1,0,0,1,.49-.69,2.45,2.45,0,0,1,1.32-.26,2.65,2.65,0,0,1,1.27.23,1.1,1.1,0,0,1,.48.56,1.63,1.63,0,0,1,.1.53l-.3.15a3.22,3.22,0,0,1,.26-.36,4,4,0,0,1,.59-.55,3.9,3.9,0,0,1,.91-.49,3.66,3.66,0,0,1,1.24-.2c.19,0,.39,0,.61,0a4.62,4.62,0,0,1,.7.15,3.16,3.16,0,0,1,.67.3,1.54,1.54,0,0,1,.48.47,1.11,1.11,0,0,1,.19.67,3.14,3.14,0,0,1-.47,1.74,1.42,1.42,0,0,1-1.21.71,2,2,0,0,1-.59-.06.87.87,0,0,1-.29-.15,1,1,0,0,0-.27-.15,1.58,1.58,0,0,0-.54-.07,2.84,2.84,0,0,0-.72.1,1.93,1.93,0,0,0-.62.32,1.5,1.5,0,0,0-.45.52,1.52,1.52,0,0,0-.17.71V32a4.53,4.53,0,0,1-.09.91,1,1,0,0,1-.49.69A2.64,2.64,0,0,1,204,33.89Z"/><path class="cls-2" d="M225.45,33.12l-5.87-8.92a2,2,0,0,1-.45-1.4,2,2,0,0,1,1-1.13,2.16,2.16,0,0,1,1.51-.46,2,2,0,0,1,1.09,1l4.32,6.63ZM223.27,39c-.68-.3-1.08-.64-1.19-1a2.24,2.24,0,0,1,.27-1.48l6.28-14a2,2,0,0,1,.94-1.19,2.35,2.35,0,0,1,1.54.21c.66.32,1,.65,1.16,1a2,2,0,0,1-.24,1.4L225.72,38c-.28.66-.59,1.06-.92,1.18A2.18,2.18,0,0,1,223.27,39Z"/><path class="cls-2" d="M242.45,39.08a2.39,2.39,0,0,1-1.3-.26,1,1,0,0,1-.48-.67,5,5,0,0,1-.07-.89v-14a5.17,5.17,0,0,1,.07-.91,1.09,1.09,0,0,1,.46-.69,2.34,2.34,0,0,1,1.29-.27,2.72,2.72,0,0,1,1.24.23,1.29,1.29,0,0,1,.66.7v14.9a3.36,3.36,0,0,1-.07.9,1.11,1.11,0,0,1-.49.68A2.41,2.41,0,0,1,242.45,39.08Zm4.8-5.39a4.58,4.58,0,0,1-2.15-.49,4.49,4.49,0,0,1-1.54-1.33,6.05,6.05,0,0,1-.92-1.93,8.31,8.31,0,0,1-.29-2.38,8.17,8.17,0,0,1,.33-2.34,6.53,6.53,0,0,1,.94-2,4.26,4.26,0,0,1,3.64-1.84,4.91,4.91,0,0,1,2.15.5,6.36,6.36,0,0,1,1.83,1.37,6.47,6.47,0,0,1,1.28,2,6.33,6.33,0,0,1,.46,2.37,6.26,6.26,0,0,1-1.73,4.3,5.85,5.85,0,0,1-1.83,1.29A5.15,5.15,0,0,1,247.25,33.69Zm-.5-3.53a2.38,2.38,0,0,0,1.25-.33,2.62,2.62,0,0,0,.89-.92,2.49,2.49,0,0,0,.34-1.27,2.54,2.54,0,0,0-.33-1.28,2.38,2.38,0,0,0-.88-.9,2.52,2.52,0,0,0-1.24-.32,2.42,2.42,0,0,0-1.24.33,2.5,2.5,0,0,0-.87.9,2.58,2.58,0,0,0-.32,1.27,2.51,2.51,0,0,0,.33,1.27,2.38,2.38,0,0,0,.87.91A2.23,2.23,0,0,0,246.75,30.16Z"/><path class="cls-2" d="M257,19.62a2.43,2.43,0,0,1-1.35-.28,1.08,1.08,0,0,1-.48-.72,4.86,4.86,0,0,1-.09-.95,4.75,4.75,0,0,1,.09-1,1,1,0,0,1,.5-.7,2.57,2.57,0,0,1,1.36-.27,2.4,2.4,0,0,1,1.32.28,1.09,1.09,0,0,1,.49.72,5,5,0,0,1,.09,1,4.63,4.63,0,0,1-.09.92,1.09,1.09,0,0,1-.49.72A2.59,2.59,0,0,1,257,19.62Zm0,14.3a2.54,2.54,0,0,1-1.32-.26,1,1,0,0,1-.48-.7,5.53,5.53,0,0,1-.07-.92V23.32a4.63,4.63,0,0,1,.09-.92,1,1,0,0,1,.49-.69,2.47,2.47,0,0,1,1.33-.27,2.26,2.26,0,0,1,1.28.28,1.12,1.12,0,0,1,.48.71,4.7,4.7,0,0,1,.08.94v8.7a4.46,4.46,0,0,1-.09.91,1.08,1.08,0,0,1-.47.69A2.53,2.53,0,0,1,257,33.92Z"/><path class="cls-2" d="M267.75,34a6.66,6.66,0,0,1-2.24-.42,6.92,6.92,0,0,1-2.1-1.21,5.87,5.87,0,0,1-1.53-2,6.21,6.21,0,0,1-.58-2.75,6.06,6.06,0,0,1,.58-2.73,6,6,0,0,1,1.52-2,6.67,6.67,0,0,1,2.09-1.21,6.4,6.4,0,0,1,2.22-.42,6.48,6.48,0,0,1,1.66.22,5.41,5.41,0,0,1,1.25.51,3.87,3.87,0,0,1,.74.53,6,6,0,0,1,.74.65,1,1,0,0,1,.3.85,1.38,1.38,0,0,1-.17.56,4.48,4.48,0,0,1-.38.59c-.51.7-1,1-1.5.95a2.39,2.39,0,0,1-.68-.25l-.6-.35a6,6,0,0,0-.62-.32,1.89,1.89,0,0,0-.75-.14,2.6,2.6,0,0,0-1.3.34,2.7,2.7,0,0,0-.91.9,2.55,2.55,0,0,0-.34,1.31,2.45,2.45,0,0,0,.34,1.3,2.48,2.48,0,0,0,.9.92,2.42,2.42,0,0,0,1.26.33,2.39,2.39,0,0,0,.73-.1,2.33,2.33,0,0,0,.55-.23l.35-.21c.2-.14.39-.26.57-.37a1.19,1.19,0,0,1,.55-.16,1.28,1.28,0,0,1,.74.26,4.7,4.7,0,0,1,.81.84,2.1,2.1,0,0,1,.49,1,1.19,1.19,0,0,1-.22.86,2.46,2.46,0,0,1-.85.76,3.69,3.69,0,0,1-.71.45,6.49,6.49,0,0,1-1.25.5A5.64,5.64,0,0,1,267.75,34Z"/><path class="cls-2" d="M284.9,33.91a2.34,2.34,0,0,1-1.38-.33.88.88,0,0,1-.42-.8l.25-.42a2.59,2.59,0,0,1-.58.61,4.11,4.11,0,0,1-1.11.65,4.33,4.33,0,0,1-1.66.29,5,5,0,0,1-2.19-.5A6.17,6.17,0,0,1,276,32a7.27,7.27,0,0,1-1.27-2,6.13,6.13,0,0,1,0-4.71,6.72,6.72,0,0,1,1.29-2A6.19,6.19,0,0,1,277.83,22a4.81,4.81,0,0,1,2.18-.5,4.1,4.1,0,0,1,1.57.26,4.65,4.65,0,0,1,1.09.61,3.45,3.45,0,0,1,.66.68l-.23-.35a1.05,1.05,0,0,1,.44-.91,2.42,2.42,0,0,1,1.39-.31,2.34,2.34,0,0,1,1.29.27,1.12,1.12,0,0,1,.47.73,4.79,4.79,0,0,1,.09.95V32a5.64,5.64,0,0,1-.08.93,1.09,1.09,0,0,1-.48.71A2.5,2.5,0,0,1,284.9,33.91Zm-4.37-3.73a2.17,2.17,0,0,0,1.19-.33,2.54,2.54,0,0,0,.86-.92,2.58,2.58,0,0,0,.32-1.27,2.62,2.62,0,0,0-.32-1.29,2.5,2.5,0,0,0-.88-.89,2.39,2.39,0,0,0-1.22-.32,2.48,2.48,0,0,0-1.27.33,2.64,2.64,0,0,0-.9.92,2.54,2.54,0,0,0-.33,1.3,2.36,2.36,0,0,0,.33,1.23,2.6,2.6,0,0,0,2.22,1.24Z"/><path class="cls-2" d="M291.15,33.94a2.45,2.45,0,0,1-1.31-.26,1.11,1.11,0,0,1-.48-.72,4.7,4.7,0,0,1-.09-.92V23.31a4.42,4.42,0,0,1,.09-.92,1,1,0,0,1,.49-.69,3.45,3.45,0,0,1,2.58,0,1.06,1.06,0,0,1,.49.55,1.73,1.73,0,0,1,.1.53l-.3.16a2.39,2.39,0,0,1,.26-.37,4.06,4.06,0,0,1,.59-.55,3.53,3.53,0,0,1,2.15-.68,4.55,4.55,0,0,1,.61,0,3.62,3.62,0,0,1,.7.14,3.41,3.41,0,0,1,.67.3,1.66,1.66,0,0,1,.48.47,1.13,1.13,0,0,1,.19.67,3,3,0,0,1-.48,1.74,1.38,1.38,0,0,1-1.2.71,2.11,2.11,0,0,1-.6-.06.92.92,0,0,1-.28-.15,1.17,1.17,0,0,0-.27-.15A1.68,1.68,0,0,0,295,25a2.39,2.39,0,0,0-.71.1,1.9,1.9,0,0,0-.62.31,1.52,1.52,0,0,0-.46.52,1.66,1.66,0,0,0-.16.72v5.47A4.46,4.46,0,0,1,293,33a1,1,0,0,1-.49.69A2.56,2.56,0,0,1,291.15,33.94Z"/><path class="cls-3" d="M134.48,31.2a2.77,2.77,0,0,1,.32,1.06,1,1,0,0,1-.26.77,3,3,0,0,1-.94.67,2.05,2.05,0,0,1-1.55.29,2.1,2.1,0,0,1-1-1.2l-4.9-10.25-4.88,10.25a2.2,2.2,0,0,1-1,1.16,2.16,2.16,0,0,1-1.53-.29,2.74,2.74,0,0,1-1-.64,1,1,0,0,1-.27-.8,3,3,0,0,1,.37-1.09l6.58-13.67a2,2,0,0,1,.74-.8,1.87,1.87,0,0,1,1-.29,1.82,1.82,0,0,1,.7.13,2.09,2.09,0,0,1,.59.39,2.45,2.45,0,0,1,.44.6Zm-12.55-1.44,1.55-3.22h5.32l1.55,3.23Z"/><path class="cls-3" d="M141.7,33.52a5,5,0,0,1-2.16-.48,6,6,0,0,1-1.79-1.34,6.76,6.76,0,0,1-1.22-1.95,6.12,6.12,0,0,1-.45-2.33,6,6,0,0,1,.45-2.31,6.2,6.2,0,0,1,1.24-1.93,6.43,6.43,0,0,1,1.8-1.32,4.9,4.9,0,0,1,2.11-.49,3.81,3.81,0,0,1,1.9.44,3.33,3.33,0,0,1,1.25,1.25,6.29,6.29,0,0,1,.71,1.93,11.82,11.82,0,0,1,.24,2.49,11.33,11.33,0,0,1-.41,3.21,4.22,4.22,0,0,1-1.31,2.1A3.53,3.53,0,0,1,141.7,33.52Zm.45,5.48a6.91,6.91,0,0,1-1.76-.23,7.49,7.49,0,0,1-1.59-.6,4.28,4.28,0,0,1-1.15-.8,1.25,1.25,0,0,1-.43-.85,1.67,1.67,0,0,1,.16-.74,2.35,2.35,0,0,1,.45-.66,4.94,4.94,0,0,1,.6-.57.87.87,0,0,1,.6-.2,1,1,0,0,1,.62.19l.59.41a3.41,3.41,0,0,0,.79.41,3.12,3.12,0,0,0,1.19.19,2.26,2.26,0,0,0,.94-.19,2,2,0,0,0,.75-.55,2.65,2.65,0,0,0,.5-.85,2.85,2.85,0,0,0,.19-1.08V22.53a1.21,1.21,0,0,1,.51-.94,2.49,2.49,0,0,1,1.34-.29,2.21,2.21,0,0,1,1.25.27,1.07,1.07,0,0,1,.46.68,4.43,4.43,0,0,1,.09.9V33a5.77,5.77,0,0,1-.53,2.54,5.44,5.44,0,0,1-1.4,1.87A6.35,6.35,0,0,1,142.15,39Zm0-9.1a2.13,2.13,0,0,0,1.2-.34,2.53,2.53,0,0,0,.84-.88,2.49,2.49,0,0,0,.31-1.25,2.44,2.44,0,0,0-.31-1.25,2.39,2.39,0,0,0-.85-.88,2.27,2.27,0,0,0-1.21-.33,2.21,2.21,0,0,0-1.2.34,2.56,2.56,0,0,0-.84.89,2.44,2.44,0,0,0-.31,1.25,2.21,2.21,0,0,0,.32,1.22,2.53,2.53,0,0,0,.86.89A2.17,2.17,0,0,0,142.13,29.9Z"/><path class="cls-3" d="M161,33.84a2.34,2.34,0,0,1-1.38-.33.89.89,0,0,1-.42-.8l.25-.42a3.07,3.07,0,0,1-.58.61,4.11,4.11,0,0,1-1.11.65,4.34,4.34,0,0,1-1.66.28,4.88,4.88,0,0,1-2.19-.5,5.74,5.74,0,0,1-1.84-1.39,7,7,0,0,1-1.27-2,6,6,0,0,1,0-4.71,6.9,6.9,0,0,1,1.29-2A6.24,6.24,0,0,1,154,21.88a4.93,4.93,0,0,1,2.17-.5,4.14,4.14,0,0,1,1.58.27,4.5,4.5,0,0,1,1.09.61,3.43,3.43,0,0,1,.66.67l-.23-.35a1.05,1.05,0,0,1,.44-.91,2.4,2.4,0,0,1,1.39-.31,2.24,2.24,0,0,1,1.29.28,1.14,1.14,0,0,1,.47.72,4.86,4.86,0,0,1,.09.95v8.63a4.7,4.7,0,0,1-.09.92,1,1,0,0,1-.47.71A2.39,2.39,0,0,1,161,33.84Zm-4.38-3.73a2.13,2.13,0,0,0,1.2-.34,2.48,2.48,0,0,0,.85-.91,2.52,2.52,0,0,0,.33-1.28,2.56,2.56,0,0,0-.32-1.28,2.42,2.42,0,0,0-.88-.89,2.33,2.33,0,0,0-1.22-.33,2.49,2.49,0,0,0-1.27.34,2.61,2.61,0,0,0-.9.91,2.57,2.57,0,0,0-.34,1.3,2.43,2.43,0,0,0,.34,1.24,2.59,2.59,0,0,0,.93.9A2.48,2.48,0,0,0,156.65,30.11Z"/><path class="cls-3" d="M167.28,33.87A2.5,2.5,0,0,1,166,33.6a1.06,1.06,0,0,1-.47-.71,4.73,4.73,0,0,1-.09-.93V23.24a5.46,5.46,0,0,1,.08-.93,1,1,0,0,1,.49-.68,2.39,2.39,0,0,1,1.33-.26,2.52,2.52,0,0,1,1.26.23,1.1,1.1,0,0,1,.49.55,2.08,2.08,0,0,1,.1.54l-.3.15a2,2,0,0,1,.26-.36,3.2,3.2,0,0,1,.59-.55,3.71,3.71,0,0,1,.91-.49,3.62,3.62,0,0,1,1.24-.2,4.56,4.56,0,0,1,1.31.19,3.32,3.32,0,0,1,.66.3,1.8,1.8,0,0,1,.49.46,1.24,1.24,0,0,1,.19.68,3.06,3.06,0,0,1-.48,1.74,1.42,1.42,0,0,1-1.2.71,1.73,1.73,0,0,1-.6-.07,1.31,1.31,0,0,1-.29-.14.93.93,0,0,0-.26-.15,1.39,1.39,0,0,0-.55-.07,2.71,2.71,0,0,0-.71.1,2.06,2.06,0,0,0-.63.31,1.63,1.63,0,0,0-.45.53,1.49,1.49,0,0,0-.16.71V32a4.53,4.53,0,0,1-.09.91,1,1,0,0,1-.49.69A2.69,2.69,0,0,1,167.28,33.87Z"/><path class="cls-3" d="M178.35,33.87a2.48,2.48,0,0,1-1.31-.26,1.09,1.09,0,0,1-.48-.72,4.57,4.57,0,0,1-.08-.92V23.25a4.45,4.45,0,0,1,.09-.93,1.08,1.08,0,0,1,.49-.69,2.54,2.54,0,0,1,1.32-.26,2.45,2.45,0,0,1,1.26.24,1,1,0,0,1,.49.55,1.73,1.73,0,0,1,.1.54l-.3.15a2.39,2.39,0,0,1,.26-.37,4,4,0,0,1,.59-.54,3.21,3.21,0,0,1,.92-.49,3.56,3.56,0,0,1,1.23-.2,4.7,4.7,0,0,1,.62,0,3.26,3.26,0,0,1,.7.15,2.47,2.47,0,0,1,.66.3,1.51,1.51,0,0,1,.48.46,1.13,1.13,0,0,1,.19.67,3.09,3.09,0,0,1-.47,1.74,1.4,1.4,0,0,1-1.2.71,2.14,2.14,0,0,1-.61-.06.92.92,0,0,1-.28-.15,1.1,1.1,0,0,0-.26-.15,1.72,1.72,0,0,0-.55-.06,2.46,2.46,0,0,0-.72.1,1.9,1.9,0,0,0-.62.31,1.6,1.6,0,0,0-.45.52,1.53,1.53,0,0,0-.17.72V32a4.63,4.63,0,0,1-.09.92,1,1,0,0,1-.48.68A2.6,2.6,0,0,1,178.35,33.87Z"/><path class="cls-3" d="M197.75,33.86a2.28,2.28,0,0,1-1.37-.33.88.88,0,0,1-.43-.8l.25-.42a3,3,0,0,1-.57.61,4.25,4.25,0,0,1-2.78.94,5,5,0,0,1-2.19-.51A5.7,5.7,0,0,1,188.83,32a7,7,0,0,1-1.28-2,6.15,6.15,0,0,1-.47-2.37,6,6,0,0,1,.47-2.34,6.9,6.9,0,0,1,1.29-2,6.7,6.7,0,0,1,1.84-1.36,5,5,0,0,1,2.18-.5,4.29,4.29,0,0,1,1.57.27,4.15,4.15,0,0,1,1.09.61,3.45,3.45,0,0,1,.66.68l-.22-.35a1,1,0,0,1,.43-.91,2.44,2.44,0,0,1,1.39-.32,2.33,2.33,0,0,1,1.29.28,1.11,1.11,0,0,1,.48.72,5.8,5.8,0,0,1,.08.95V32a4.63,4.63,0,0,1-.09.92,1.11,1.11,0,0,1-.48.72A2.48,2.48,0,0,1,197.75,33.86Zm-4.37-3.73a2.13,2.13,0,0,0,1.2-.34,2.57,2.57,0,0,0,.85-.91,2.6,2.6,0,0,0,.32-1.27,2.47,2.47,0,0,0-.32-1.29,2.42,2.42,0,0,0-.88-.89,2.29,2.29,0,0,0-1.22-.32,2.42,2.42,0,0,0-1.26.33,2.53,2.53,0,0,0-.9.91,2.5,2.5,0,0,0-.34,1.3,2.31,2.31,0,0,0,.34,1.24,2.41,2.41,0,0,0,.92.9A2.49,2.49,0,0,0,193.38,30.13Z"/><path class="cls-3" d="M204,33.89a2.37,2.37,0,0,1-1.31-.27,1.07,1.07,0,0,1-.48-.71,4.7,4.7,0,0,1-.08-.92V23.26a4.42,4.42,0,0,1,.09-.92,1,1,0,0,1,.49-.69,2.45,2.45,0,0,1,1.32-.26,2.65,2.65,0,0,1,1.27.23,1.1,1.1,0,0,1,.48.56,1.63,1.63,0,0,1,.1.53l-.3.15a3.22,3.22,0,0,1,.26-.36,4,4,0,0,1,.59-.55,3.9,3.9,0,0,1,.91-.49,3.66,3.66,0,0,1,1.24-.2c.19,0,.39,0,.61,0a4.62,4.62,0,0,1,.7.15,3.16,3.16,0,0,1,.67.3,1.54,1.54,0,0,1,.48.47,1.11,1.11,0,0,1,.19.67,3.14,3.14,0,0,1-.47,1.74,1.42,1.42,0,0,1-1.21.71,2,2,0,0,1-.59-.06.87.87,0,0,1-.29-.15,1,1,0,0,0-.27-.15,1.58,1.58,0,0,0-.54-.07,2.84,2.84,0,0,0-.72.1,1.93,1.93,0,0,0-.62.32,1.5,1.5,0,0,0-.45.52,1.52,1.52,0,0,0-.17.71V32a4.53,4.53,0,0,1-.09.91,1,1,0,0,1-.49.69A2.64,2.64,0,0,1,204,33.89Z"/><path class="cls-3" d="M225.45,33.12l-5.87-8.92a2,2,0,0,1-.45-1.4,2,2,0,0,1,1-1.13,2.16,2.16,0,0,1,1.51-.46,2,2,0,0,1,1.09,1l4.32,6.63ZM223.27,39c-.68-.3-1.08-.64-1.19-1a2.24,2.24,0,0,1,.27-1.48l6.28-14a2,2,0,0,1,.94-1.19,2.35,2.35,0,0,1,1.54.21c.66.32,1,.65,1.16,1a2,2,0,0,1-.24,1.4L225.72,38c-.28.66-.59,1.06-.92,1.18A2.18,2.18,0,0,1,223.27,39Z"/><path class="cls-3" d="M242.45,39.08a2.39,2.39,0,0,1-1.3-.26,1,1,0,0,1-.48-.67,5,5,0,0,1-.07-.89v-14a5.17,5.17,0,0,1,.07-.91,1.09,1.09,0,0,1,.46-.69,2.34,2.34,0,0,1,1.29-.27,2.72,2.72,0,0,1,1.24.23,1.29,1.29,0,0,1,.66.7v14.9a3.36,3.36,0,0,1-.07.9,1.11,1.11,0,0,1-.49.68A2.41,2.41,0,0,1,242.45,39.08Zm4.8-5.39a4.58,4.58,0,0,1-2.15-.49,4.49,4.49,0,0,1-1.54-1.33,6.05,6.05,0,0,1-.92-1.93,8.31,8.31,0,0,1-.29-2.38,8.17,8.17,0,0,1,.33-2.34,6.53,6.53,0,0,1,.94-2,4.26,4.26,0,0,1,3.64-1.84,4.91,4.91,0,0,1,2.15.5,6.36,6.36,0,0,1,1.83,1.37,6.47,6.47,0,0,1,1.28,2,6.33,6.33,0,0,1,.46,2.37,6.26,6.26,0,0,1-1.73,4.3,5.85,5.85,0,0,1-1.83,1.29A5.15,5.15,0,0,1,247.25,33.69Zm-.5-3.53a2.38,2.38,0,0,0,1.25-.33,2.62,2.62,0,0,0,.89-.92,2.49,2.49,0,0,0,.34-1.27,2.54,2.54,0,0,0-.33-1.28,2.38,2.38,0,0,0-.88-.9,2.52,2.52,0,0,0-1.24-.32,2.42,2.42,0,0,0-1.24.33,2.5,2.5,0,0,0-.87.9,2.58,2.58,0,0,0-.32,1.27,2.51,2.51,0,0,0,.33,1.27,2.38,2.38,0,0,0,.87.91A2.23,2.23,0,0,0,246.75,30.16Z"/><path class="cls-3" d="M257,19.62a2.43,2.43,0,0,1-1.35-.28,1.08,1.08,0,0,1-.48-.72,4.86,4.86,0,0,1-.09-.95,4.75,4.75,0,0,1,.09-1,1,1,0,0,1,.5-.7,2.57,2.57,0,0,1,1.36-.27,2.4,2.4,0,0,1,1.32.28,1.09,1.09,0,0,1,.49.72,5,5,0,0,1,.09,1,4.63,4.63,0,0,1-.09.92,1.09,1.09,0,0,1-.49.72A2.59,2.59,0,0,1,257,19.62Zm0,14.3a2.54,2.54,0,0,1-1.32-.26,1,1,0,0,1-.48-.7,5.53,5.53,0,0,1-.07-.92V23.32a4.63,4.63,0,0,1,.09-.92,1,1,0,0,1,.49-.69,2.47,2.47,0,0,1,1.33-.27,2.26,2.26,0,0,1,1.28.28,1.12,1.12,0,0,1,.48.71,4.7,4.7,0,0,1,.08.94v8.7a4.46,4.46,0,0,1-.09.91,1.08,1.08,0,0,1-.47.69A2.53,2.53,0,0,1,257,33.92Z"/><path class="cls-3" d="M267.75,34a6.66,6.66,0,0,1-2.24-.42,6.92,6.92,0,0,1-2.1-1.21,5.87,5.87,0,0,1-1.53-2,6.21,6.21,0,0,1-.58-2.75,6.06,6.06,0,0,1,.58-2.73,6,6,0,0,1,1.52-2,6.67,6.67,0,0,1,2.09-1.21,6.4,6.4,0,0,1,2.22-.42,6.48,6.48,0,0,1,1.66.22,5.41,5.41,0,0,1,1.25.51,3.87,3.87,0,0,1,.74.53,6,6,0,0,1,.74.65,1,1,0,0,1,.3.85,1.38,1.38,0,0,1-.17.56,4.48,4.48,0,0,1-.38.59c-.51.7-1,1-1.5.95a2.39,2.39,0,0,1-.68-.25l-.6-.35a6,6,0,0,0-.62-.32,1.89,1.89,0,0,0-.75-.14,2.6,2.6,0,0,0-1.3.34,2.7,2.7,0,0,0-.91.9,2.55,2.55,0,0,0-.34,1.31,2.45,2.45,0,0,0,.34,1.3,2.48,2.48,0,0,0,.9.92,2.42,2.42,0,0,0,1.26.33,2.39,2.39,0,0,0,.73-.1,2.33,2.33,0,0,0,.55-.23l.35-.21c.2-.14.39-.26.57-.37a1.19,1.19,0,0,1,.55-.16,1.28,1.28,0,0,1,.74.26,4.7,4.7,0,0,1,.81.84,2.1,2.1,0,0,1,.49,1,1.19,1.19,0,0,1-.22.86,2.46,2.46,0,0,1-.85.76,3.69,3.69,0,0,1-.71.45,6.49,6.49,0,0,1-1.25.5A5.64,5.64,0,0,1,267.75,34Z"/><path class="cls-3" d="M284.9,33.91a2.34,2.34,0,0,1-1.38-.33.88.88,0,0,1-.42-.8l.25-.42a2.59,2.59,0,0,1-.58.61,4.11,4.11,0,0,1-1.11.65,4.33,4.33,0,0,1-1.66.29,5,5,0,0,1-2.19-.5A6.17,6.17,0,0,1,276,32a7.27,7.27,0,0,1-1.27-2,6.13,6.13,0,0,1,0-4.71,6.72,6.72,0,0,1,1.29-2A6.19,6.19,0,0,1,277.83,22a4.81,4.81,0,0,1,2.18-.5,4.1,4.1,0,0,1,1.57.26,4.65,4.65,0,0,1,1.09.61,3.45,3.45,0,0,1,.66.68l-.23-.35a1.05,1.05,0,0,1,.44-.91,2.42,2.42,0,0,1,1.39-.31,2.34,2.34,0,0,1,1.29.27,1.12,1.12,0,0,1,.47.73,4.79,4.79,0,0,1,.09.95V32a5.64,5.64,0,0,1-.08.93,1.09,1.09,0,0,1-.48.71A2.5,2.5,0,0,1,284.9,33.91Zm-4.37-3.73a2.17,2.17,0,0,0,1.19-.33,2.54,2.54,0,0,0,.86-.92,2.58,2.58,0,0,0,.32-1.27,2.62,2.62,0,0,0-.32-1.29,2.5,2.5,0,0,0-.88-.89,2.39,2.39,0,0,0-1.22-.32,2.48,2.48,0,0,0-1.27.33,2.64,2.64,0,0,0-.9.92,2.54,2.54,0,0,0-.33,1.3,2.36,2.36,0,0,0,.33,1.23,2.6,2.6,0,0,0,2.22,1.24Z"/><path class="cls-3" d="M291.15,33.94a2.45,2.45,0,0,1-1.31-.26,1.11,1.11,0,0,1-.48-.72,4.7,4.7,0,0,1-.09-.92V23.31a4.42,4.42,0,0,1,.09-.92,1,1,0,0,1,.49-.69,3.45,3.45,0,0,1,2.58,0,1.06,1.06,0,0,1,.49.55,1.73,1.73,0,0,1,.1.53l-.3.16a2.39,2.39,0,0,1,.26-.37,4.06,4.06,0,0,1,.59-.55,3.53,3.53,0,0,1,2.15-.68,4.55,4.55,0,0,1,.61,0,3.62,3.62,0,0,1,.7.14,3.41,3.41,0,0,1,.67.3,1.66,1.66,0,0,1,.48.47,1.13,1.13,0,0,1,.19.67,3,3,0,0,1-.48,1.74,1.38,1.38,0,0,1-1.2.71,2.11,2.11,0,0,1-.6-.06.92.92,0,0,1-.28-.15,1.17,1.17,0,0,0-.27-.15A1.68,1.68,0,0,0,295,25a2.39,2.39,0,0,0-.71.1,1.9,1.9,0,0,0-.62.31,1.52,1.52,0,0,0-.46.52,1.66,1.66,0,0,0-.16.72v5.47A4.46,4.46,0,0,1,293,33a1,1,0,0,1-.49.69A2.56,2.56,0,0,1,291.15,33.94Z"/><path class="cls-2" d="M134.48,31.2a2.77,2.77,0,0,1,.32,1.06,1,1,0,0,1-.26.77,3,3,0,0,1-.94.67,2.05,2.05,0,0,1-1.55.29,2.1,2.1,0,0,1-1-1.2l-4.9-10.25-4.88,10.25a2.2,2.2,0,0,1-1,1.16,2.16,2.16,0,0,1-1.53-.29,2.74,2.74,0,0,1-1-.64,1,1,0,0,1-.27-.8,3,3,0,0,1,.37-1.09l6.58-13.67a2,2,0,0,1,.74-.8,1.87,1.87,0,0,1,1-.29,1.82,1.82,0,0,1,.7.13,2.09,2.09,0,0,1,.59.39,2.45,2.45,0,0,1,.44.6Zm-12.55-1.44,1.55-3.22h5.32l1.55,3.23Z"/><path class="cls-2" d="M141.7,33.52a5,5,0,0,1-2.16-.48,6,6,0,0,1-1.79-1.34,6.76,6.76,0,0,1-1.22-1.95,6.12,6.12,0,0,1-.45-2.33,6,6,0,0,1,.45-2.31,6.2,6.2,0,0,1,1.24-1.93,6.43,6.43,0,0,1,1.8-1.32,4.9,4.9,0,0,1,2.11-.49,3.81,3.81,0,0,1,1.9.44,3.33,3.33,0,0,1,1.25,1.25,6.29,6.29,0,0,1,.71,1.93,11.82,11.82,0,0,1,.24,2.49,11.33,11.33,0,0,1-.41,3.21,4.22,4.22,0,0,1-1.31,2.1A3.53,3.53,0,0,1,141.7,33.52Zm.45,5.48a6.91,6.91,0,0,1-1.76-.23,7.49,7.49,0,0,1-1.59-.6,4.28,4.28,0,0,1-1.15-.8,1.25,1.25,0,0,1-.43-.85,1.67,1.67,0,0,1,.16-.74,2.35,2.35,0,0,1,.45-.66,4.94,4.94,0,0,1,.6-.57.87.87,0,0,1,.6-.2,1,1,0,0,1,.62.19l.59.41a3.41,3.41,0,0,0,.79.41,3.12,3.12,0,0,0,1.19.19,2.26,2.26,0,0,0,.94-.19,2,2,0,0,0,.75-.55,2.65,2.65,0,0,0,.5-.85,2.85,2.85,0,0,0,.19-1.08V22.53a1.21,1.21,0,0,1,.51-.94,2.49,2.49,0,0,1,1.34-.29,2.21,2.21,0,0,1,1.25.27,1.07,1.07,0,0,1,.46.68,4.43,4.43,0,0,1,.09.9V33a5.77,5.77,0,0,1-.53,2.54,5.44,5.44,0,0,1-1.4,1.87A6.35,6.35,0,0,1,142.15,39Zm0-9.1a2.13,2.13,0,0,0,1.2-.34,2.53,2.53,0,0,0,.84-.88,2.49,2.49,0,0,0,.31-1.25,2.44,2.44,0,0,0-.31-1.25,2.39,2.39,0,0,0-.85-.88,2.27,2.27,0,0,0-1.21-.33,2.21,2.21,0,0,0-1.2.34,2.56,2.56,0,0,0-.84.89,2.44,2.44,0,0,0-.31,1.25,2.21,2.21,0,0,0,.32,1.22,2.53,2.53,0,0,0,.86.89A2.17,2.17,0,0,0,142.13,29.9Z"/><path class="cls-2" d="M161,33.84a2.34,2.34,0,0,1-1.38-.33.89.89,0,0,1-.42-.8l.25-.42a3.07,3.07,0,0,1-.58.61,4.11,4.11,0,0,1-1.11.65,4.34,4.34,0,0,1-1.66.28,4.88,4.88,0,0,1-2.19-.5,5.74,5.74,0,0,1-1.84-1.39,7,7,0,0,1-1.27-2,6,6,0,0,1,0-4.71,6.9,6.9,0,0,1,1.29-2A6.24,6.24,0,0,1,154,21.88a4.93,4.93,0,0,1,2.17-.5,4.14,4.14,0,0,1,1.58.27,4.5,4.5,0,0,1,1.09.61,3.43,3.43,0,0,1,.66.67l-.23-.35a1.05,1.05,0,0,1,.44-.91,2.4,2.4,0,0,1,1.39-.31,2.24,2.24,0,0,1,1.29.28,1.14,1.14,0,0,1,.47.72,4.86,4.86,0,0,1,.09.95v8.63a4.7,4.7,0,0,1-.09.92,1,1,0,0,1-.47.71A2.39,2.39,0,0,1,161,33.84Zm-4.38-3.73a2.13,2.13,0,0,0,1.2-.34,2.48,2.48,0,0,0,.85-.91,2.52,2.52,0,0,0,.33-1.28,2.56,2.56,0,0,0-.32-1.28,2.42,2.42,0,0,0-.88-.89,2.33,2.33,0,0,0-1.22-.33,2.49,2.49,0,0,0-1.27.34,2.61,2.61,0,0,0-.9.91,2.57,2.57,0,0,0-.34,1.3,2.43,2.43,0,0,0,.34,1.24,2.59,2.59,0,0,0,.93.9A2.48,2.48,0,0,0,156.65,30.11Z"/><path class="cls-2" d="M167.28,33.87A2.5,2.5,0,0,1,166,33.6a1.06,1.06,0,0,1-.47-.71,4.73,4.73,0,0,1-.09-.93V23.24a5.46,5.46,0,0,1,.08-.93,1,1,0,0,1,.49-.68,2.39,2.39,0,0,1,1.33-.26,2.52,2.52,0,0,1,1.26.23,1.1,1.1,0,0,1,.49.55,2.08,2.08,0,0,1,.1.54l-.3.15a2,2,0,0,1,.26-.36,3.2,3.2,0,0,1,.59-.55,3.71,3.71,0,0,1,.91-.49,3.62,3.62,0,0,1,1.24-.2,4.56,4.56,0,0,1,1.31.19,3.32,3.32,0,0,1,.66.3,1.8,1.8,0,0,1,.49.46,1.24,1.24,0,0,1,.19.68,3.06,3.06,0,0,1-.48,1.74,1.42,1.42,0,0,1-1.2.71,1.73,1.73,0,0,1-.6-.07,1.31,1.31,0,0,1-.29-.14.93.93,0,0,0-.26-.15,1.39,1.39,0,0,0-.55-.07,2.71,2.71,0,0,0-.71.1,2.06,2.06,0,0,0-.63.31,1.63,1.63,0,0,0-.45.53,1.49,1.49,0,0,0-.16.71V32a4.53,4.53,0,0,1-.09.91,1,1,0,0,1-.49.69A2.69,2.69,0,0,1,167.28,33.87Z"/><path class="cls-2" d="M178.35,33.87a2.48,2.48,0,0,1-1.31-.26,1.09,1.09,0,0,1-.48-.72,4.57,4.57,0,0,1-.08-.92V23.25a4.45,4.45,0,0,1,.09-.93,1.08,1.08,0,0,1,.49-.69,2.54,2.54,0,0,1,1.32-.26,2.45,2.45,0,0,1,1.26.24,1,1,0,0,1,.49.55,1.73,1.73,0,0,1,.1.54l-.3.15a2.39,2.39,0,0,1,.26-.37,4,4,0,0,1,.59-.54,3.21,3.21,0,0,1,.92-.49,3.56,3.56,0,0,1,1.23-.2,4.7,4.7,0,0,1,.62,0,3.26,3.26,0,0,1,.7.15,2.47,2.47,0,0,1,.66.3,1.51,1.51,0,0,1,.48.46,1.13,1.13,0,0,1,.19.67,3.09,3.09,0,0,1-.47,1.74,1.4,1.4,0,0,1-1.2.71,2.14,2.14,0,0,1-.61-.06.92.92,0,0,1-.28-.15,1.1,1.1,0,0,0-.26-.15,1.72,1.72,0,0,0-.55-.06,2.46,2.46,0,0,0-.72.1,1.9,1.9,0,0,0-.62.31,1.6,1.6,0,0,0-.45.52,1.53,1.53,0,0,0-.17.72V32a4.63,4.63,0,0,1-.09.92,1,1,0,0,1-.48.68A2.6,2.6,0,0,1,178.35,33.87Z"/><path class="cls-2" d="M197.75,33.86a2.28,2.28,0,0,1-1.37-.33.88.88,0,0,1-.43-.8l.25-.42a3,3,0,0,1-.57.61,4.25,4.25,0,0,1-2.78.94,5,5,0,0,1-2.19-.51A5.7,5.7,0,0,1,188.83,32a7,7,0,0,1-1.28-2,6.15,6.15,0,0,1-.47-2.37,6,6,0,0,1,.47-2.34,6.9,6.9,0,0,1,1.29-2,6.7,6.7,0,0,1,1.84-1.36,5,5,0,0,1,2.18-.5,4.29,4.29,0,0,1,1.57.27,4.15,4.15,0,0,1,1.09.61,3.45,3.45,0,0,1,.66.68l-.22-.35a1,1,0,0,1,.43-.91,2.44,2.44,0,0,1,1.39-.32,2.33,2.33,0,0,1,1.29.28,1.11,1.11,0,0,1,.48.72,5.8,5.8,0,0,1,.08.95V32a4.63,4.63,0,0,1-.09.92,1.11,1.11,0,0,1-.48.72A2.48,2.48,0,0,1,197.75,33.86Zm-4.37-3.73a2.13,2.13,0,0,0,1.2-.34,2.57,2.57,0,0,0,.85-.91,2.6,2.6,0,0,0,.32-1.27,2.47,2.47,0,0,0-.32-1.29,2.42,2.42,0,0,0-.88-.89,2.29,2.29,0,0,0-1.22-.32,2.42,2.42,0,0,0-1.26.33,2.53,2.53,0,0,0-.9.91,2.5,2.5,0,0,0-.34,1.3,2.31,2.31,0,0,0,.34,1.24,2.41,2.41,0,0,0,.92.9A2.49,2.49,0,0,0,193.38,30.13Z"/><path class="cls-2" d="M204,33.89a2.37,2.37,0,0,1-1.31-.27,1.07,1.07,0,0,1-.48-.71,4.7,4.7,0,0,1-.08-.92V23.26a4.42,4.42,0,0,1,.09-.92,1,1,0,0,1,.49-.69,2.45,2.45,0,0,1,1.32-.26,2.65,2.65,0,0,1,1.27.23,1.1,1.1,0,0,1,.48.56,1.63,1.63,0,0,1,.1.53l-.3.15a3.22,3.22,0,0,1,.26-.36,4,4,0,0,1,.59-.55,3.9,3.9,0,0,1,.91-.49,3.66,3.66,0,0,1,1.24-.2c.19,0,.39,0,.61,0a4.62,4.62,0,0,1,.7.15,3.16,3.16,0,0,1,.67.3,1.54,1.54,0,0,1,.48.47,1.11,1.11,0,0,1,.19.67,3.14,3.14,0,0,1-.47,1.74,1.42,1.42,0,0,1-1.21.71,2,2,0,0,1-.59-.06.87.87,0,0,1-.29-.15,1,1,0,0,0-.27-.15,1.58,1.58,0,0,0-.54-.07,2.84,2.84,0,0,0-.72.1,1.93,1.93,0,0,0-.62.32,1.5,1.5,0,0,0-.45.52,1.52,1.52,0,0,0-.17.71V32a4.53,4.53,0,0,1-.09.91,1,1,0,0,1-.49.69A2.64,2.64,0,0,1,204,33.89Z"/><path class="cls-2" d="M225.45,33.12l-5.87-8.92a2,2,0,0,1-.45-1.4,2,2,0,0,1,1-1.13,2.16,2.16,0,0,1,1.51-.46,2,2,0,0,1,1.09,1l4.32,6.63ZM223.27,39c-.68-.3-1.08-.64-1.19-1a2.24,2.24,0,0,1,.27-1.48l6.28-14a2,2,0,0,1,.94-1.19,2.35,2.35,0,0,1,1.54.21c.66.32,1,.65,1.16,1a2,2,0,0,1-.24,1.4L225.72,38c-.28.66-.59,1.06-.92,1.18A2.18,2.18,0,0,1,223.27,39Z"/><path class="cls-2" d="M242.45,39.08a2.39,2.39,0,0,1-1.3-.26,1,1,0,0,1-.48-.67,5,5,0,0,1-.07-.89v-14a5.17,5.17,0,0,1,.07-.91,1.09,1.09,0,0,1,.46-.69,2.34,2.34,0,0,1,1.29-.27,2.72,2.72,0,0,1,1.24.23,1.29,1.29,0,0,1,.66.7v14.9a3.36,3.36,0,0,1-.07.9,1.11,1.11,0,0,1-.49.68A2.41,2.41,0,0,1,242.45,39.08Zm4.8-5.39a4.58,4.58,0,0,1-2.15-.49,4.49,4.49,0,0,1-1.54-1.33,6.05,6.05,0,0,1-.92-1.93,8.31,8.31,0,0,1-.29-2.38,8.17,8.17,0,0,1,.33-2.34,6.53,6.53,0,0,1,.94-2,4.26,4.26,0,0,1,3.64-1.84,4.91,4.91,0,0,1,2.15.5,6.36,6.36,0,0,1,1.83,1.37,6.47,6.47,0,0,1,1.28,2,6.33,6.33,0,0,1,.46,2.37,6.26,6.26,0,0,1-1.73,4.3,5.85,5.85,0,0,1-1.83,1.29A5.15,5.15,0,0,1,247.25,33.69Zm-.5-3.53a2.38,2.38,0,0,0,1.25-.33,2.62,2.62,0,0,0,.89-.92,2.49,2.49,0,0,0,.34-1.27,2.54,2.54,0,0,0-.33-1.28,2.38,2.38,0,0,0-.88-.9,2.52,2.52,0,0,0-1.24-.32,2.42,2.42,0,0,0-1.24.33,2.5,2.5,0,0,0-.87.9,2.58,2.58,0,0,0-.32,1.27,2.51,2.51,0,0,0,.33,1.27,2.38,2.38,0,0,0,.87.91A2.23,2.23,0,0,0,246.75,30.16Z"/><path class="cls-2" d="M257,19.62a2.43,2.43,0,0,1-1.35-.28,1.08,1.08,0,0,1-.48-.72,4.86,4.86,0,0,1-.09-.95,4.75,4.75,0,0,1,.09-1,1,1,0,0,1,.5-.7,2.57,2.57,0,0,1,1.36-.27,2.4,2.4,0,0,1,1.32.28,1.09,1.09,0,0,1,.49.72,5,5,0,0,1,.09,1,4.63,4.63,0,0,1-.09.92,1.09,1.09,0,0,1-.49.72A2.59,2.59,0,0,1,257,19.62Zm0,14.3a2.54,2.54,0,0,1-1.32-.26,1,1,0,0,1-.48-.7,5.53,5.53,0,0,1-.07-.92V23.32a4.63,4.63,0,0,1,.09-.92,1,1,0,0,1,.49-.69,2.47,2.47,0,0,1,1.33-.27,2.26,2.26,0,0,1,1.28.28,1.12,1.12,0,0,1,.48.71,4.7,4.7,0,0,1,.08.94v8.7a4.46,4.46,0,0,1-.09.91,1.08,1.08,0,0,1-.47.69A2.53,2.53,0,0,1,257,33.92Z"/><path class="cls-2" d="M267.75,34a6.66,6.66,0,0,1-2.24-.42,6.92,6.92,0,0,1-2.1-1.21,5.87,5.87,0,0,1-1.53-2,6.21,6.21,0,0,1-.58-2.75,6.06,6.06,0,0,1,.58-2.73,6,6,0,0,1,1.52-2,6.67,6.67,0,0,1,2.09-1.21,6.4,6.4,0,0,1,2.22-.42,6.48,6.48,0,0,1,1.66.22,5.41,5.41,0,0,1,1.25.51,3.87,3.87,0,0,1,.74.53,6,6,0,0,1,.74.65,1,1,0,0,1,.3.85,1.38,1.38,0,0,1-.17.56,4.48,4.48,0,0,1-.38.59c-.51.7-1,1-1.5.95a2.39,2.39,0,0,1-.68-.25l-.6-.35a6,6,0,0,0-.62-.32,1.89,1.89,0,0,0-.75-.14,2.6,2.6,0,0,0-1.3.34,2.7,2.7,0,0,0-.91.9,2.55,2.55,0,0,0-.34,1.31,2.45,2.45,0,0,0,.34,1.3,2.48,2.48,0,0,0,.9.92,2.42,2.42,0,0,0,1.26.33,2.39,2.39,0,0,0,.73-.1,2.33,2.33,0,0,0,.55-.23l.35-.21c.2-.14.39-.26.57-.37a1.19,1.19,0,0,1,.55-.16,1.28,1.28,0,0,1,.74.26,4.7,4.7,0,0,1,.81.84,2.1,2.1,0,0,1,.49,1,1.19,1.19,0,0,1-.22.86,2.46,2.46,0,0,1-.85.76,3.69,3.69,0,0,1-.71.45,6.49,6.49,0,0,1-1.25.5A5.64,5.64,0,0,1,267.75,34Z"/><path class="cls-2" d="M284.9,33.91a2.34,2.34,0,0,1-1.38-.33.88.88,0,0,1-.42-.8l.25-.42a2.59,2.59,0,0,1-.58.61,4.11,4.11,0,0,1-1.11.65,4.33,4.33,0,0,1-1.66.29,5,5,0,0,1-2.19-.5A6.17,6.17,0,0,1,276,32a7.27,7.27,0,0,1-1.27-2,6.13,6.13,0,0,1,0-4.71,6.72,6.72,0,0,1,1.29-2A6.19,6.19,0,0,1,277.83,22a4.81,4.81,0,0,1,2.18-.5,4.1,4.1,0,0,1,1.57.26,4.65,4.65,0,0,1,1.09.61,3.45,3.45,0,0,1,.66.68l-.23-.35a1.05,1.05,0,0,1,.44-.91,2.42,2.42,0,0,1,1.39-.31,2.34,2.34,0,0,1,1.29.27,1.12,1.12,0,0,1,.47.73,4.79,4.79,0,0,1,.09.95V32a5.64,5.64,0,0,1-.08.93,1.09,1.09,0,0,1-.48.71A2.5,2.5,0,0,1,284.9,33.91Zm-4.37-3.73a2.17,2.17,0,0,0,1.19-.33,2.54,2.54,0,0,0,.86-.92,2.58,2.58,0,0,0,.32-1.27,2.62,2.62,0,0,0-.32-1.29,2.5,2.5,0,0,0-.88-.89,2.39,2.39,0,0,0-1.22-.32,2.48,2.48,0,0,0-1.27.33,2.64,2.64,0,0,0-.9.92,2.54,2.54,0,0,0-.33,1.3,2.36,2.36,0,0,0,.33,1.23,2.6,2.6,0,0,0,2.22,1.24Z"/><path class="cls-2" d="M291.15,33.94a2.45,2.45,0,0,1-1.31-.26,1.11,1.11,0,0,1-.48-.72,4.7,4.7,0,0,1-.09-.92V23.31a4.42,4.42,0,0,1,.09-.92,1,1,0,0,1,.49-.69,3.45,3.45,0,0,1,2.58,0,1.06,1.06,0,0,1,.49.55,1.73,1.73,0,0,1,.1.53l-.3.16a2.39,2.39,0,0,1,.26-.37,4.06,4.06,0,0,1,.59-.55,3.53,3.53,0,0,1,2.15-.68,4.55,4.55,0,0,1,.61,0,3.62,3.62,0,0,1,.7.14,3.41,3.41,0,0,1,.67.3,1.66,1.66,0,0,1,.48.47,1.13,1.13,0,0,1,.19.67,3,3,0,0,1-.48,1.74,1.38,1.38,0,0,1-1.2.71,2.11,2.11,0,0,1-.6-.06.92.92,0,0,1-.28-.15,1.17,1.17,0,0,0-.27-.15A1.68,1.68,0,0,0,295,25a2.39,2.39,0,0,0-.71.1,1.9,1.9,0,0,0-.62.31,1.52,1.52,0,0,0-.46.52,1.66,1.66,0,0,0-.16.72v5.47A4.46,4.46,0,0,1,293,33a1,1,0,0,1-.49.69A2.56,2.56,0,0,1,291.15,33.94Z"/><text class="cls-4" transform="matrix(0.97, 0, 0, 1, 51.48, 38.89)">1<tspan class="cls-5" x="18.23" y="0">.</tspan><tspan x="25.62" y="0">1</tspan></text><text class="cls-6" transform="matrix(0.97, 0, 0, 1, 51.48, 38.89)">1<tspan class="cls-5" x="18.23" y="0">.</tspan><tspan x="25.62" y="0">1</tspan></text></g></g></svg>