<svg xmlns="http://www.w3.org/2000/svg" viewBox="0 0 399.69 89.13"><defs><style>.cls-1{fill:#0468ad;}.cls-2{fill:#fff;}.cls-3,.cls-4{fill:none;stroke-width:5px;}.cls-3{stroke:#c8a927;stroke-linejoin:round;}.cls-4,.cls-5{font-size:42px;font-family:Coiny-Regular, Coiny;}.cls-4{stroke:#fff;}.cls-5{fill:#c8a927;}</style></defs><title>12t</title><g id="Layer_2" data-name="Layer 2"><g id="pestaña_identificativa" data-name="pestaña identificativa"><rect class="cls-1" width="399.69" height="89.13" rx="31.4"/><path class="cls-2" d="M118.82,33.84a2.4,2.4,0,0,1-1.3-.27,1.09,1.09,0,0,1-.49-.71,5.62,5.62,0,0,1-.08-.92V18.26a2.07,2.07,0,0,1,.42-1.49,2.23,2.23,0,0,1,1.53-.41h9.45a4.42,4.42,0,0,1,.92.09,1,1,0,0,1,.69.48,2.65,2.65,0,0,1,.26,1.35,2.28,2.28,0,0,1-.28,1.3,1.1,1.1,0,0,1-.71.49,4.59,4.59,0,0,1-.93.09h-7.55v3.23h5.13a4.74,4.74,0,0,1,.89.08.93.93,0,0,1,.61.42,2.36,2.36,0,0,1,.22,1.2,2.05,2.05,0,0,1-.22,1.11.92.92,0,0,1-.63.42,5,5,0,0,1-.9.07h-5.1V32a4.45,4.45,0,0,1-.1.91,1.1,1.1,0,0,1-.49.7A2.47,2.47,0,0,1,118.82,33.84Z"/><path class="cls-2" d="M134.68,19.55a2.61,2.61,0,0,1-1.35-.28,1.11,1.11,0,0,1-.49-.73,4.74,4.74,0,0,1-.08-.95,5.64,5.64,0,0,1,.08-1,1.08,1.08,0,0,1,.51-.7,2.66,2.66,0,0,1,1.36-.26A2.33,2.33,0,0,1,136,16a1.09,1.09,0,0,1,.49.72,5,5,0,0,1,.09,1,4.7,4.7,0,0,1-.09.92,1.05,1.05,0,0,1-.49.71A2.53,2.53,0,0,1,134.68,19.55Zm0,14.3a2.41,2.41,0,0,1-1.32-.27,1,1,0,0,1-.48-.7,5.33,5.33,0,0,1-.07-.91V23.25a4.56,4.56,0,0,1,.09-.92,1.08,1.08,0,0,1,.49-.7,2.54,2.54,0,0,1,1.32-.26,2.24,2.24,0,0,1,1.29.28,1.12,1.12,0,0,1,.48.71,5.49,5.49,0,0,1,.08.94V32a4.53,4.53,0,0,1-.09.91,1.06,1.06,0,0,1-.48.69A2.57,2.57,0,0,1,134.67,33.85Z"/><path class="cls-2" d="M144.4,33.53a5,5,0,0,1-2.17-.49,5.8,5.8,0,0,1-1.78-1.34,6.58,6.58,0,0,1-1.23-1.95,6.12,6.12,0,0,1-.45-2.33,6.19,6.19,0,0,1,1.7-4.23,6,6,0,0,1,1.8-1.33,4.83,4.83,0,0,1,2.11-.48,3.74,3.74,0,0,1,1.9.44,3.33,3.33,0,0,1,1.25,1.25,6.67,6.67,0,0,1,.71,1.92,11.82,11.82,0,0,1,.24,2.49,11.31,11.31,0,0,1-.42,3.21,4.27,4.27,0,0,1-1.3,2.1A3.58,3.58,0,0,1,144.4,33.53Zm.44,5.47a7,7,0,0,1-1.76-.22,8.6,8.6,0,0,1-1.59-.61,4.63,4.63,0,0,1-1.15-.8,1.21,1.21,0,0,1-.42-.85,1.77,1.77,0,0,1,.15-.73,2.46,2.46,0,0,1,.45-.67,4.94,4.94,0,0,1,.6-.57,1,1,0,0,1,.6-.2,1.09,1.09,0,0,1,.63.19l.58.41a3.41,3.41,0,0,0,.79.41,3.21,3.21,0,0,0,1.2.19,2.46,2.46,0,0,0,.94-.18,2.15,2.15,0,0,0,.75-.55,3.12,3.12,0,0,0,.5-.85,3.15,3.15,0,0,0,.19-1.09V22.53a1.19,1.19,0,0,1,.52-.94,2.45,2.45,0,0,1,1.33-.29,2.18,2.18,0,0,1,1.25.27,1.08,1.08,0,0,1,.47.69,5.11,5.11,0,0,1,.08.9V33a5.88,5.88,0,0,1-.53,2.54,5.71,5.71,0,0,1-1.4,1.87A6.35,6.35,0,0,1,144.84,39Zm0-9.1a2.21,2.21,0,0,0,1.2-.33,2.65,2.65,0,0,0,.84-.89,2.5,2.5,0,0,0,.32-1.25,2.45,2.45,0,0,0-.32-1.25A2.3,2.3,0,0,0,144.8,25a2.21,2.21,0,0,0-1.2.33,2.56,2.56,0,0,0-.84.89,2.6,2.6,0,0,0,0,2.48,2.62,2.62,0,0,0,.87.88A2.11,2.11,0,0,0,144.82,29.9Z"/><path class="cls-2" d="M158.9,33.84a5.42,5.42,0,0,1-2.18-.46A5.33,5.33,0,0,1,155,32.12a5.75,5.75,0,0,1-1.16-1.93,7,7,0,0,1-.41-2.43V23.23a4.42,4.42,0,0,1,.09-.92,1.08,1.08,0,0,1,.49-.7,2.33,2.33,0,0,1,1.32-.28,2.4,2.4,0,0,1,1.32.28,1.14,1.14,0,0,1,.47.71,4.69,4.69,0,0,1,.09.94v4.5a2.78,2.78,0,0,0,.27,1.26,1.73,1.73,0,0,0,.77.81,2.46,2.46,0,0,0,1.21.28,2.4,2.4,0,0,0,1.24-.29,2,2,0,0,0,.8-.81,2.57,2.57,0,0,0,.29-1.25V23.21a4.42,4.42,0,0,1,.09-.92,1,1,0,0,1,.49-.69,2.47,2.47,0,0,1,1.32-.26,2.41,2.41,0,0,1,1.32.27,1.19,1.19,0,0,1,.47.72,4.46,4.46,0,0,1,.09.91V32a4.19,4.19,0,0,1-.09.89,1,1,0,0,1-.48.66,2.63,2.63,0,0,1-1.3.25,2.92,2.92,0,0,1-1.05-.15,1.25,1.25,0,0,1-.55-.38,1.06,1.06,0,0,1-.22-.47,3.91,3.91,0,0,1,0-.45l.32-.28a2.91,2.91,0,0,1-.32.39,5.29,5.29,0,0,1-.67.57,4,4,0,0,1-1,.54A3.34,3.34,0,0,1,158.9,33.84Z"/><path class="cls-2" d="M169.9,33.87a2.41,2.41,0,0,1-1.32-.27,1.09,1.09,0,0,1-.47-.71A4.7,4.7,0,0,1,168,32V23.24a5.25,5.25,0,0,1,.08-.92,1.07,1.07,0,0,1,.49-.69,3.48,3.48,0,0,1,2.59,0,1,1,0,0,1,.49.55,2,2,0,0,1,.1.53l-.3.15a3.22,3.22,0,0,1,.26-.36,3.58,3.58,0,0,1,.59-.55,3.71,3.71,0,0,1,.91-.49,3.4,3.4,0,0,1,1.24-.19l.61,0a4.62,4.62,0,0,1,.7.15,3.32,3.32,0,0,1,.66.3,1.58,1.58,0,0,1,.49.47,1.11,1.11,0,0,1,.19.67,3.06,3.06,0,0,1-.48,1.74,1.42,1.42,0,0,1-1.2.71,2.11,2.11,0,0,1-.6-.06,1,1,0,0,1-.29-.15.93.93,0,0,0-.26-.15,1.61,1.61,0,0,0-.55-.07,2.71,2.71,0,0,0-.71.1,1.88,1.88,0,0,0-.63.32,1.45,1.45,0,0,0-.61,1.23V32a4.53,4.53,0,0,1-.09.91,1,1,0,0,1-.49.69A2.69,2.69,0,0,1,169.9,33.87Z"/><path class="cls-2" d="M189.3,33.85a2.42,2.42,0,0,1-1.38-.32.9.9,0,0,1-.42-.8l.25-.43a3.06,3.06,0,0,1-.58.62,4.11,4.11,0,0,1-1.11.64,4.33,4.33,0,0,1-1.66.29,5,5,0,0,1-2.19-.5A5.89,5.89,0,0,1,180.37,32a7,7,0,0,1-1.27-2,6,6,0,0,1-.48-2.38,5.9,5.9,0,0,1,.48-2.34,6.72,6.72,0,0,1,1.29-2,6.24,6.24,0,0,1,1.84-1.36,4.93,4.93,0,0,1,2.17-.5,4.35,4.35,0,0,1,1.58.26,4.26,4.26,0,0,1,1.08.62,3.24,3.24,0,0,1,.67.67l-.23-.35a1.05,1.05,0,0,1,.44-.91,2.4,2.4,0,0,1,1.39-.31,2.34,2.34,0,0,1,1.29.27,1.19,1.19,0,0,1,.47.73,4.86,4.86,0,0,1,.09.95V32a4.73,4.73,0,0,1-.09.93,1.06,1.06,0,0,1-.47.71A2.41,2.41,0,0,1,189.3,33.85Zm-4.38-3.72a2.21,2.21,0,0,0,1.2-.34,2.6,2.6,0,0,0,1.18-2.19,2.62,2.62,0,0,0-.32-1.29,2.4,2.4,0,0,0-.88-.88,2.33,2.33,0,0,0-1.22-.33,2.39,2.39,0,0,0-1.27.34,2.61,2.61,0,0,0-.9.91,2.57,2.57,0,0,0-.34,1.3,2.43,2.43,0,0,0,.34,1.24,2.51,2.51,0,0,0,.93.9A2.58,2.58,0,0,0,184.92,30.13Z"/><path class="cls-2" d="M198.17,34.08a8.15,8.15,0,0,1-1.48-.15,7.9,7.9,0,0,1-1.53-.44,5.07,5.07,0,0,1-1.25-.67,1.28,1.28,0,0,1-.56-.89,1.24,1.24,0,0,1,0-.54,2.37,2.37,0,0,1,.23-.6,4.08,4.08,0,0,1,.43-.66.94.94,0,0,1,.44-.35,1,1,0,0,1,.59,0,3.72,3.72,0,0,1,.8.26l.82.4c.29.14.58.27.88.38a2.92,2.92,0,0,0,.92.16,2.32,2.32,0,0,0,1.09-.21.65.65,0,0,0,.39-.59.69.69,0,0,0-.16-.45,1.27,1.27,0,0,0-.45-.3c-.2-.08-.42-.16-.68-.24l-.81-.21c-.29-.07-.58-.15-.9-.25a9.05,9.05,0,0,1-1.19-.45,4,4,0,0,1-1-.72,3.13,3.13,0,0,1-.73-1.07A3.85,3.85,0,0,1,193.7,25a3.29,3.29,0,0,1,2.23-3.32,7.35,7.35,0,0,1,2.7-.43c.3,0,.6,0,.9.05a4.68,4.68,0,0,1,.89.18,7.33,7.33,0,0,1,.86.3,6.07,6.07,0,0,1,.85.42,1.1,1.1,0,0,1,.77.95,2,2,0,0,1-.42,1.25,2.17,2.17,0,0,1-.58.59.93.93,0,0,1-.62.14,4.2,4.2,0,0,1-.87-.34,9.53,9.53,0,0,0-1-.44,2.84,2.84,0,0,0-1-.2,2.2,2.2,0,0,0-.73.11,1.11,1.11,0,0,0-.45.3.69.69,0,0,0-.15.44.67.67,0,0,0,.19.51,1.27,1.27,0,0,0,.51.31,5.58,5.58,0,0,0,.75.23l.93.2a12.6,12.6,0,0,1,1.38.34,4.44,4.44,0,0,1,1.3.61,3,3,0,0,1,1,1.08,3.76,3.76,0,0,1,.36,1.77,3.6,3.6,0,0,1-1.37,3A6.38,6.38,0,0,1,198.17,34.08Z"/><path class="cls-2" d="M217.5,33.87a4.93,4.93,0,0,1-2.18-.49A5.83,5.83,0,0,1,213.5,32a6.71,6.71,0,0,1-1.27-2,6.46,6.46,0,0,1-.46-2.41,6.07,6.07,0,0,1,.47-2.34,6.59,6.59,0,0,1,1.27-2,6.51,6.51,0,0,1,1.84-1.36,4.91,4.91,0,0,1,2.15-.5,4.33,4.33,0,0,1,2.11.49,4.37,4.37,0,0,1,1.53,1.34,6.31,6.31,0,0,1,.94,2,9.14,9.14,0,0,1,.34,2.35,9.28,9.28,0,0,1-.3,2.4,6.22,6.22,0,0,1-.92,2,4.61,4.61,0,0,1-1.56,1.39A4.34,4.34,0,0,1,217.5,33.87Zm.5-3.7a2.19,2.19,0,0,0,1.21-.34,2.56,2.56,0,0,0,.88-.91,2.51,2.51,0,0,0,.33-1.27,2.47,2.47,0,0,0-.32-1.27,2.68,2.68,0,0,0-.87-.9,2.41,2.41,0,0,0-1.25-.33,2.36,2.36,0,0,0-1.24.32,2.31,2.31,0,0,0-.88.9,2.74,2.74,0,0,0,0,2.55,2.46,2.46,0,0,0,.9.91A2.35,2.35,0,0,0,218,30.17Zm4.35,3.73a2.28,2.28,0,0,1-1.27-.28,1.28,1.28,0,0,1-.53-.85V17.62a6.71,6.71,0,0,1,.07-.91,1,1,0,0,1,.44-.71,2.15,2.15,0,0,1,1.27-.28,2.4,2.4,0,0,1,1.33.27,1.12,1.12,0,0,1,.47.68,4,4,0,0,1,.1.93V32a4.46,4.46,0,0,1-.09.91,1.1,1.1,0,0,1-.47.71A2.29,2.29,0,0,1,222.35,33.9Z"/><path class="cls-2" d="M232.94,34.13a7.12,7.12,0,0,1-3-.58A5.84,5.84,0,0,1,227.87,32a6.61,6.61,0,0,1-1.2-2.09,7.14,7.14,0,0,1-.4-2.3,6.39,6.39,0,0,1,.86-3.32A6,6,0,0,1,229.49,22a6.9,6.9,0,0,1,3.46-.83,6.18,6.18,0,0,1,2.51.46,5.12,5.12,0,0,1,2.78,2.79,4.26,4.26,0,0,1,.33,1.62,2.82,2.82,0,0,1-.66,2.05,2.26,2.26,0,0,1-1.69.68h-5.95a1.78,1.78,0,0,0,.47,1.08,2.73,2.73,0,0,0,1,.7,3.5,3.5,0,0,0,1.33.25,7.94,7.94,0,0,0,1-.06,3.56,3.56,0,0,0,.79-.18c.22-.07.41-.15.59-.22a4.44,4.44,0,0,1,.49-.19,2.53,2.53,0,0,1,.42-.1,1.09,1.09,0,0,1,.68.21,2,2,0,0,1,.57.72,1.71,1.71,0,0,1,.24.52,2.2,2.2,0,0,1,.06.5,1.34,1.34,0,0,1-.61,1.09,4.91,4.91,0,0,1-1.73.74A11.5,11.5,0,0,1,232.94,34.13Zm-2.67-7.4h3.95a1,1,0,0,0,.58-.14.61.61,0,0,0,.2-.53,1.23,1.23,0,0,0-.27-.78,1.87,1.87,0,0,0-.74-.54,3.2,3.2,0,0,0-2.44.11,2.47,2.47,0,0,0-.94.8A1.94,1.94,0,0,0,230.27,26.73Z"/><path class="cls-2" d="M249,33.91a2.4,2.4,0,0,1-1.3-.27,1.1,1.1,0,0,1-.49-.71,4.63,4.63,0,0,1-.08-.92V17.64a4.62,4.62,0,0,1,.09-.94,1.08,1.08,0,0,1,.49-.7,2.59,2.59,0,0,1,1.33-.26,2.15,2.15,0,0,1,1.27.28,1.08,1.08,0,0,1,.45.71,3.88,3.88,0,0,1,.05.91V32.79a1.3,1.3,0,0,1-.53.85A2.22,2.22,0,0,1,249,33.91Zm4.85,0a4.38,4.38,0,0,1-2.15-.51A4.56,4.56,0,0,1,250.18,32a6.44,6.44,0,0,1-.92-2,8.49,8.49,0,0,1-.29-2.4,8.29,8.29,0,0,1,.33-2.35,6.31,6.31,0,0,1,.94-2,4.29,4.29,0,0,1,3.64-1.83,4.91,4.91,0,0,1,2.15.5,6.36,6.36,0,0,1,1.83,1.37,6.5,6.5,0,0,1,1.28,2,6.18,6.18,0,0,1,.46,2.34,6.31,6.31,0,0,1-.47,2.41,6.51,6.51,0,0,1-1.26,2A5.79,5.79,0,0,1,256,33.41,5,5,0,0,1,253.87,33.89Zm-.5-3.7a2.36,2.36,0,0,0,1.25-.33,2.62,2.62,0,0,0,.89-.92,2.49,2.49,0,0,0,.34-1.27,2.54,2.54,0,0,0-.33-1.28,2.38,2.38,0,0,0-.88-.9,2.52,2.52,0,0,0-1.24-.32,2.42,2.42,0,0,0-1.24.33,2.5,2.5,0,0,0-.87.9,2.58,2.58,0,0,0-.32,1.27,2.51,2.51,0,0,0,.33,1.27,2.45,2.45,0,0,0,.87.91A2.23,2.23,0,0,0,253.37,30.19Z"/><path class="cls-2" d="M267.77,34.12a6.29,6.29,0,0,1-2.34-.46,7,7,0,0,1-2.11-1.31,6.38,6.38,0,0,1-1.51-2,6,6,0,0,1-.56-2.64,6.16,6.16,0,0,1,.51-2.51,6.85,6.85,0,0,1,3.48-3.47,5.94,5.94,0,0,1,2.49-.51A6.26,6.26,0,0,1,271,22a6.72,6.72,0,0,1,2.34,2.34,6.3,6.3,0,0,1,.87,3.27,6.22,6.22,0,0,1-2.07,4.75,6.53,6.53,0,0,1-2.07,1.29A6.15,6.15,0,0,1,267.77,34.12Zm0-3.77a2.85,2.85,0,0,0,1.23-.3,2.81,2.81,0,0,0,1.05-.9,2.6,2.6,0,0,0,.42-1.52,2.65,2.65,0,0,0-.35-1.4,2.41,2.41,0,0,0-1-.94A2.83,2.83,0,0,0,267.7,25a2.6,2.6,0,0,0-1.34.35,2.65,2.65,0,0,0-.95,1,2.69,2.69,0,0,0-.36,1.39,2.6,2.6,0,0,0,.41,1.51,2.43,2.43,0,0,0,1,.9A2.9,2.9,0,0,0,267.72,30.35Z"/><path class="cls-2" d="M281,33.93a14.41,14.41,0,0,1-1.83-.1,3.7,3.7,0,0,1-1.35-.4,2.58,2.58,0,0,1-.9-.84,4,4,0,0,1-.52-1.37,10.11,10.11,0,0,1-.17-2.06V17.61a4.42,4.42,0,0,1,.1-.93,1.18,1.18,0,0,1,.49-.7,2.41,2.41,0,0,1,1.32-.27,2.3,2.3,0,0,1,1.28.27,1.21,1.21,0,0,1,.49.7,3.9,3.9,0,0,1,.1.93V29a4.22,4.22,0,0,0,0,.67.8.8,0,0,0,.15.41.56.56,0,0,0,.31.2,2.44,2.44,0,0,0,.53,0,2.6,2.6,0,0,1,.61.07.89.89,0,0,1,.54.45,2.58,2.58,0,0,1,.22,1.25,2.64,2.64,0,0,1-.23,1.3.89.89,0,0,1-.53.48A2.73,2.73,0,0,1,281,33.93Z"/><path class="cls-2" d="M286.25,19.64a2.52,2.52,0,0,1-1.35-.28,1.08,1.08,0,0,1-.48-.72,5.16,5.16,0,0,1,0-1.92,1.06,1.06,0,0,1,.5-.7,2.69,2.69,0,0,1,1.36-.26,2.31,2.31,0,0,1,1.32.28,1.09,1.09,0,0,1,.49.72,5,5,0,0,1,.09,1,4.7,4.7,0,0,1-.09.92,1.05,1.05,0,0,1-.49.71A2.48,2.48,0,0,1,286.25,19.64Zm0,14.3a2.43,2.43,0,0,1-1.32-.27,1,1,0,0,1-.48-.7,5.33,5.33,0,0,1-.07-.91V23.34a4.57,4.57,0,0,1,.08-.92,1.08,1.08,0,0,1,.49-.7,2.59,2.59,0,0,1,1.33-.26,2.18,2.18,0,0,1,1.28.28,1.12,1.12,0,0,1,.48.71,4.62,4.62,0,0,1,.09.94v8.7A4.53,4.53,0,0,1,288,33a1.08,1.08,0,0,1-.47.69A2.64,2.64,0,0,1,286.24,33.94Z"/><path class="cls-2" d="M291.58,21.64h2.75l3.45-.1a4.43,4.43,0,0,1,.9.09,1.13,1.13,0,0,1,.7.49,2.47,2.47,0,0,1,.27,1.33,2.34,2.34,0,0,1-.26,1.24,1.21,1.21,0,0,1-.69.52,3.83,3.83,0,0,1-.93.11l-3.27-.08-3,0a1.23,1.23,0,0,1-1-.46,2.54,2.54,0,0,1-.28-1.39,2.05,2.05,0,0,1,.35-1.33A1.26,1.26,0,0,1,291.58,21.64Zm5.64,12.3a7.92,7.92,0,0,1-2.2-.27,3.64,3.64,0,0,1-1.51-.85,3.55,3.55,0,0,1-.88-1.47,6.91,6.91,0,0,1-.28-2.11V19.12a4.31,4.31,0,0,1,.09-.93,1,1,0,0,1,.49-.66,3.32,3.32,0,0,1,2.6,0,1.12,1.12,0,0,1,.49.71,5.52,5.52,0,0,1,.08.92v9.92a3,3,0,0,0,.06.66.71.71,0,0,0,.19.39.62.62,0,0,0,.35.18,2.79,2.79,0,0,0,.55.05,4.07,4.07,0,0,1,1,.1,1.07,1.07,0,0,1,.66.45,2.13,2.13,0,0,1,.24,1.17,2.38,2.38,0,0,1-.27,1.3,1.09,1.09,0,0,1-.72.48A5.33,5.33,0,0,1,297.22,33.94Z"/><path class="cls-2" d="M311.77,33.93a2.34,2.34,0,0,1-1.38-.33.89.89,0,0,1-.42-.8l.25-.42a2.8,2.8,0,0,1-.58.61,4.11,4.11,0,0,1-1.11.65,4.34,4.34,0,0,1-1.66.28,4.88,4.88,0,0,1-2.19-.5A5.7,5.7,0,0,1,302.85,32a7,7,0,0,1-1.28-2,6.15,6.15,0,0,1-.47-2.37,6,6,0,0,1,.47-2.34,6.9,6.9,0,0,1,1.29-2A6.56,6.56,0,0,1,304.7,22a4.94,4.94,0,0,1,2.18-.5,4.09,4.09,0,0,1,1.57.27,4.32,4.32,0,0,1,1.09.61,3.2,3.2,0,0,1,.66.68l-.22-.35a1.06,1.06,0,0,1,.43-.92,2.51,2.51,0,0,1,1.39-.31,2.24,2.24,0,0,1,1.29.28,1.07,1.07,0,0,1,.47.72,4.86,4.86,0,0,1,.09.95V32a5.62,5.62,0,0,1-.08.92,1.11,1.11,0,0,1-.48.72A2.48,2.48,0,0,1,311.77,33.93ZM307.4,30.2a2.13,2.13,0,0,0,1.2-.34,2.57,2.57,0,0,0,.85-.91,2.6,2.6,0,0,0,.32-1.27,2.57,2.57,0,0,0-.32-1.29,2.42,2.42,0,0,0-.88-.89,2.3,2.3,0,0,0-1.22-.33,2.42,2.42,0,0,0-1.26.34,2.53,2.53,0,0,0-.9.91,2.5,2.5,0,0,0-.34,1.3,2.42,2.42,0,0,0,.33,1.24,2.6,2.6,0,0,0,2.22,1.24Z"/><path class="cls-2" d="M320.64,34.16a8,8,0,0,1-1.47-.15,8.79,8.79,0,0,1-1.54-.44,5.08,5.08,0,0,1-1.25-.68,1.26,1.26,0,0,1-.56-.89,1.36,1.36,0,0,1,0-.53,2.37,2.37,0,0,1,.23-.6,3.78,3.78,0,0,1,.44-.66.82.82,0,0,1,.43-.35,1,1,0,0,1,.59,0,3.55,3.55,0,0,1,.8.26l.83.4a6.74,6.74,0,0,0,.87.38,2.66,2.66,0,0,0,.92.16,2.32,2.32,0,0,0,1.09-.21.65.65,0,0,0,.39-.59.64.64,0,0,0-.16-.45,1.6,1.6,0,0,0-.45-.3c-.19-.08-.42-.16-.68-.24l-.81-.21c-.28-.06-.58-.15-.9-.25a9.62,9.62,0,0,1-1.19-.45,4,4,0,0,1-1.05-.71,3.22,3.22,0,0,1-.73-1.08,4,4,0,0,1-.28-1.56,3.3,3.3,0,0,1,2.23-3.31,7.34,7.34,0,0,1,2.7-.44c.3,0,.6,0,.9,0a6.69,6.69,0,0,1,1.75.48,8.36,8.36,0,0,1,.85.42,1.13,1.13,0,0,1,.77,1,2.06,2.06,0,0,1-.42,1.25,2,2,0,0,1-.58.58.87.87,0,0,1-.62.14,3.93,3.93,0,0,1-.86-.34c-.31-.16-.64-.3-1-.44a2.84,2.84,0,0,0-1-.2,2.24,2.24,0,0,0-.73.11,1.11,1.11,0,0,0-.45.3.71.71,0,0,0-.15.44.69.69,0,0,0,.19.51,1.59,1.59,0,0,0,.51.32,5.64,5.64,0,0,0,.75.22c.29.07.59.14.93.2s.91.2,1.39.34a5,5,0,0,1,1.3.61,3,3,0,0,1,.94,1.08,3.65,3.65,0,0,1,.37,1.78,3.6,3.6,0,0,1-1.38,3A6.38,6.38,0,0,1,320.64,34.16Z"/><path class="cls-3" d="M118.82,33.84a2.4,2.4,0,0,1-1.3-.27,1.09,1.09,0,0,1-.49-.71,5.62,5.62,0,0,1-.08-.92V18.26a2.07,2.07,0,0,1,.42-1.49,2.23,2.23,0,0,1,1.53-.41h9.45a4.42,4.42,0,0,1,.92.09,1,1,0,0,1,.69.48,2.65,2.65,0,0,1,.26,1.35,2.28,2.28,0,0,1-.28,1.3,1.1,1.1,0,0,1-.71.49,4.59,4.59,0,0,1-.93.09h-7.55v3.23h5.13a4.74,4.74,0,0,1,.89.08.93.93,0,0,1,.61.42,2.36,2.36,0,0,1,.22,1.2,2.05,2.05,0,0,1-.22,1.11.92.92,0,0,1-.63.42,5,5,0,0,1-.9.07h-5.1V32a4.45,4.45,0,0,1-.1.91,1.1,1.1,0,0,1-.49.7A2.47,2.47,0,0,1,118.82,33.84Z"/><path class="cls-3" d="M134.68,19.55a2.61,2.61,0,0,1-1.35-.28,1.11,1.11,0,0,1-.49-.73,4.74,4.74,0,0,1-.08-.95,5.64,5.64,0,0,1,.08-1,1.08,1.08,0,0,1,.51-.7,2.66,2.66,0,0,1,1.36-.26A2.33,2.33,0,0,1,136,16a1.09,1.09,0,0,1,.49.72,5,5,0,0,1,.09,1,4.7,4.7,0,0,1-.09.92,1.05,1.05,0,0,1-.49.71A2.53,2.53,0,0,1,134.68,19.55Zm0,14.3a2.41,2.41,0,0,1-1.32-.27,1,1,0,0,1-.48-.7,5.33,5.33,0,0,1-.07-.91V23.25a4.56,4.56,0,0,1,.09-.92,1.08,1.08,0,0,1,.49-.7,2.54,2.54,0,0,1,1.32-.26,2.24,2.24,0,0,1,1.29.28,1.12,1.12,0,0,1,.48.71,5.49,5.49,0,0,1,.08.94V32a4.53,4.53,0,0,1-.09.91,1.06,1.06,0,0,1-.48.69A2.57,2.57,0,0,1,134.67,33.85Z"/><path class="cls-3" d="M144.4,33.53a5,5,0,0,1-2.17-.49,5.8,5.8,0,0,1-1.78-1.34,6.58,6.58,0,0,1-1.23-1.95,6.12,6.12,0,0,1-.45-2.33,6.19,6.19,0,0,1,1.7-4.23,6,6,0,0,1,1.8-1.33,4.83,4.83,0,0,1,2.11-.48,3.74,3.74,0,0,1,1.9.44,3.33,3.33,0,0,1,1.25,1.25,6.67,6.67,0,0,1,.71,1.92,11.82,11.82,0,0,1,.24,2.49,11.31,11.31,0,0,1-.42,3.21,4.27,4.27,0,0,1-1.3,2.1A3.58,3.58,0,0,1,144.4,33.53Zm.44,5.47a7,7,0,0,1-1.76-.22,8.6,8.6,0,0,1-1.59-.61,4.63,4.63,0,0,1-1.15-.8,1.21,1.21,0,0,1-.42-.85,1.77,1.77,0,0,1,.15-.73,2.46,2.46,0,0,1,.45-.67,4.94,4.94,0,0,1,.6-.57,1,1,0,0,1,.6-.2,1.09,1.09,0,0,1,.63.19l.58.41a3.41,3.41,0,0,0,.79.41,3.21,3.21,0,0,0,1.2.19,2.46,2.46,0,0,0,.94-.18,2.15,2.15,0,0,0,.75-.55,3.12,3.12,0,0,0,.5-.85,3.15,3.15,0,0,0,.19-1.09V22.53a1.19,1.19,0,0,1,.52-.94,2.45,2.45,0,0,1,1.33-.29,2.18,2.18,0,0,1,1.25.27,1.08,1.08,0,0,1,.47.69,5.11,5.11,0,0,1,.08.9V33a5.88,5.88,0,0,1-.53,2.54,5.71,5.71,0,0,1-1.4,1.87A6.35,6.35,0,0,1,144.84,39Zm0-9.1a2.21,2.21,0,0,0,1.2-.33,2.65,2.65,0,0,0,.84-.89,2.5,2.5,0,0,0,.32-1.25,2.45,2.45,0,0,0-.32-1.25A2.3,2.3,0,0,0,144.8,25a2.21,2.21,0,0,0-1.2.33,2.56,2.56,0,0,0-.84.89,2.6,2.6,0,0,0,0,2.48,2.62,2.62,0,0,0,.87.88A2.11,2.11,0,0,0,144.82,29.9Z"/><path class="cls-3" d="M158.9,33.84a5.42,5.42,0,0,1-2.18-.46A5.33,5.33,0,0,1,155,32.12a5.75,5.75,0,0,1-1.16-1.93,7,7,0,0,1-.41-2.43V23.23a4.42,4.42,0,0,1,.09-.92,1.08,1.08,0,0,1,.49-.7,2.33,2.33,0,0,1,1.32-.28,2.4,2.4,0,0,1,1.32.28,1.14,1.14,0,0,1,.47.71,4.69,4.69,0,0,1,.09.94v4.5a2.78,2.78,0,0,0,.27,1.26,1.73,1.73,0,0,0,.77.81,2.46,2.46,0,0,0,1.21.28,2.4,2.4,0,0,0,1.24-.29,2,2,0,0,0,.8-.81,2.57,2.57,0,0,0,.29-1.25V23.21a4.42,4.42,0,0,1,.09-.92,1,1,0,0,1,.49-.69,2.47,2.47,0,0,1,1.32-.26,2.41,2.41,0,0,1,1.32.27,1.19,1.19,0,0,1,.47.72,4.46,4.46,0,0,1,.09.91V32a4.19,4.19,0,0,1-.09.89,1,1,0,0,1-.48.66,2.63,2.63,0,0,1-1.3.25,2.92,2.92,0,0,1-1.05-.15,1.25,1.25,0,0,1-.55-.38,1.06,1.06,0,0,1-.22-.47,3.91,3.91,0,0,1,0-.45l.32-.28a2.91,2.91,0,0,1-.32.39,5.29,5.29,0,0,1-.67.57,4,4,0,0,1-1,.54A3.34,3.34,0,0,1,158.9,33.84Z"/><path class="cls-3" d="M169.9,33.87a2.41,2.41,0,0,1-1.32-.27,1.09,1.09,0,0,1-.47-.71A4.7,4.7,0,0,1,168,32V23.24a5.25,5.25,0,0,1,.08-.92,1.07,1.07,0,0,1,.49-.69,3.48,3.48,0,0,1,2.59,0,1,1,0,0,1,.49.55,2,2,0,0,1,.1.53l-.3.15a3.22,3.22,0,0,1,.26-.36,3.58,3.58,0,0,1,.59-.55,3.71,3.71,0,0,1,.91-.49,3.4,3.4,0,0,1,1.24-.19l.61,0a4.62,4.62,0,0,1,.7.15,3.32,3.32,0,0,1,.66.3,1.58,1.58,0,0,1,.49.47,1.11,1.11,0,0,1,.19.67,3.06,3.06,0,0,1-.48,1.74,1.42,1.42,0,0,1-1.2.71,2.11,2.11,0,0,1-.6-.06,1,1,0,0,1-.29-.15.93.93,0,0,0-.26-.15,1.61,1.61,0,0,0-.55-.07,2.71,2.71,0,0,0-.71.1,1.88,1.88,0,0,0-.63.32,1.45,1.45,0,0,0-.61,1.23V32a4.53,4.53,0,0,1-.09.91,1,1,0,0,1-.49.69A2.69,2.69,0,0,1,169.9,33.87Z"/><path class="cls-3" d="M189.3,33.85a2.42,2.42,0,0,1-1.38-.32.9.9,0,0,1-.42-.8l.25-.43a3.06,3.06,0,0,1-.58.62,4.11,4.11,0,0,1-1.11.64,4.33,4.33,0,0,1-1.66.29,5,5,0,0,1-2.19-.5A5.89,5.89,0,0,1,180.37,32a7,7,0,0,1-1.27-2,6,6,0,0,1-.48-2.38,5.9,5.9,0,0,1,.48-2.34,6.72,6.72,0,0,1,1.29-2,6.24,6.24,0,0,1,1.84-1.36,4.93,4.93,0,0,1,2.17-.5,4.35,4.35,0,0,1,1.58.26,4.26,4.26,0,0,1,1.08.62,3.24,3.24,0,0,1,.67.67l-.23-.35a1.05,1.05,0,0,1,.44-.91,2.4,2.4,0,0,1,1.39-.31,2.34,2.34,0,0,1,1.29.27,1.19,1.19,0,0,1,.47.73,4.86,4.86,0,0,1,.09.95V32a4.73,4.73,0,0,1-.09.93,1.06,1.06,0,0,1-.47.71A2.41,2.41,0,0,1,189.3,33.85Zm-4.38-3.72a2.21,2.21,0,0,0,1.2-.34,2.6,2.6,0,0,0,1.18-2.19,2.62,2.62,0,0,0-.32-1.29,2.4,2.4,0,0,0-.88-.88,2.33,2.33,0,0,0-1.22-.33,2.39,2.39,0,0,0-1.27.34,2.61,2.61,0,0,0-.9.91,2.57,2.57,0,0,0-.34,1.3,2.43,2.43,0,0,0,.34,1.24,2.51,2.51,0,0,0,.93.9A2.58,2.58,0,0,0,184.92,30.13Z"/><path class="cls-3" d="M198.17,34.08a8.15,8.15,0,0,1-1.48-.15,7.9,7.9,0,0,1-1.53-.44,5.07,5.07,0,0,1-1.25-.67,1.28,1.28,0,0,1-.56-.89,1.24,1.24,0,0,1,0-.54,2.37,2.37,0,0,1,.23-.6,4.08,4.08,0,0,1,.43-.66.94.94,0,0,1,.44-.35,1,1,0,0,1,.59,0,3.72,3.72,0,0,1,.8.26l.82.4c.29.14.58.27.88.38a2.92,2.92,0,0,0,.92.16,2.32,2.32,0,0,0,1.09-.21.65.65,0,0,0,.39-.59.69.69,0,0,0-.16-.45,1.27,1.27,0,0,0-.45-.3c-.2-.08-.42-.16-.68-.24l-.81-.21c-.29-.07-.58-.15-.9-.25a9.05,9.05,0,0,1-1.19-.45,4,4,0,0,1-1-.72,3.13,3.13,0,0,1-.73-1.07A3.85,3.85,0,0,1,193.7,25a3.29,3.29,0,0,1,2.23-3.32,7.35,7.35,0,0,1,2.7-.43c.3,0,.6,0,.9.05a4.68,4.68,0,0,1,.89.18,7.33,7.33,0,0,1,.86.3,6.07,6.07,0,0,1,.85.42,1.1,1.1,0,0,1,.77.95,2,2,0,0,1-.42,1.25,2.17,2.17,0,0,1-.58.59.93.93,0,0,1-.62.14,4.2,4.2,0,0,1-.87-.34,9.53,9.53,0,0,0-1-.44,2.84,2.84,0,0,0-1-.2,2.2,2.2,0,0,0-.73.11,1.11,1.11,0,0,0-.45.3.69.69,0,0,0-.15.44.67.67,0,0,0,.19.51,1.27,1.27,0,0,0,.51.31,5.58,5.58,0,0,0,.75.23l.93.2a12.6,12.6,0,0,1,1.38.34,4.44,4.44,0,0,1,1.3.61,3,3,0,0,1,1,1.08,3.76,3.76,0,0,1,.36,1.77,3.6,3.6,0,0,1-1.37,3A6.38,6.38,0,0,1,198.17,34.08Z"/><path class="cls-3" d="M217.5,33.87a4.93,4.93,0,0,1-2.18-.49A5.83,5.83,0,0,1,213.5,32a6.71,6.71,0,0,1-1.27-2,6.46,6.46,0,0,1-.46-2.41,6.07,6.07,0,0,1,.47-2.34,6.59,6.59,0,0,1,1.27-2,6.51,6.51,0,0,1,1.84-1.36,4.91,4.91,0,0,1,2.15-.5,4.33,4.33,0,0,1,2.11.49,4.37,4.37,0,0,1,1.53,1.34,6.31,6.31,0,0,1,.94,2,9.14,9.14,0,0,1,.34,2.35,9.28,9.28,0,0,1-.3,2.4,6.22,6.22,0,0,1-.92,2,4.61,4.61,0,0,1-1.56,1.39A4.34,4.34,0,0,1,217.5,33.87Zm.5-3.7a2.19,2.19,0,0,0,1.21-.34,2.56,2.56,0,0,0,.88-.91,2.51,2.51,0,0,0,.33-1.27,2.47,2.47,0,0,0-.32-1.27,2.68,2.68,0,0,0-.87-.9,2.41,2.41,0,0,0-1.25-.33,2.36,2.36,0,0,0-1.24.32,2.31,2.31,0,0,0-.88.9,2.74,2.74,0,0,0,0,2.55,2.46,2.46,0,0,0,.9.91A2.35,2.35,0,0,0,218,30.17Zm4.35,3.73a2.28,2.28,0,0,1-1.27-.28,1.28,1.28,0,0,1-.53-.85V17.62a6.71,6.71,0,0,1,.07-.91,1,1,0,0,1,.44-.71,2.15,2.15,0,0,1,1.27-.28,2.4,2.4,0,0,1,1.33.27,1.12,1.12,0,0,1,.47.68,4,4,0,0,1,.1.93V32a4.46,4.46,0,0,1-.09.91,1.1,1.1,0,0,1-.47.71A2.29,2.29,0,0,1,222.35,33.9Z"/><path class="cls-3" d="M232.94,34.13a7.12,7.12,0,0,1-3-.58A5.84,5.84,0,0,1,227.87,32a6.61,6.61,0,0,1-1.2-2.09,7.14,7.14,0,0,1-.4-2.3,6.39,6.39,0,0,1,.86-3.32A6,6,0,0,1,229.49,22a6.9,6.9,0,0,1,3.46-.83,6.18,6.18,0,0,1,2.51.46,5.12,5.12,0,0,1,2.78,2.79,4.26,4.26,0,0,1,.33,1.62,2.82,2.82,0,0,1-.66,2.05,2.26,2.26,0,0,1-1.69.68h-5.95a1.78,1.78,0,0,0,.47,1.08,2.73,2.73,0,0,0,1,.7,3.5,3.5,0,0,0,1.33.25,7.94,7.94,0,0,0,1-.06,3.56,3.56,0,0,0,.79-.18c.22-.07.41-.15.59-.22a4.44,4.44,0,0,1,.49-.19,2.53,2.53,0,0,1,.42-.1,1.09,1.09,0,0,1,.68.21,2,2,0,0,1,.57.72,1.71,1.71,0,0,1,.24.52,2.2,2.2,0,0,1,.06.5,1.34,1.34,0,0,1-.61,1.09,4.91,4.91,0,0,1-1.73.74A11.5,11.5,0,0,1,232.94,34.13Zm-2.67-7.4h3.95a1,1,0,0,0,.58-.14.61.61,0,0,0,.2-.53,1.23,1.23,0,0,0-.27-.78,1.87,1.87,0,0,0-.74-.54,3.2,3.2,0,0,0-2.44.11,2.47,2.47,0,0,0-.94.8A1.94,1.94,0,0,0,230.27,26.73Z"/><path class="cls-3" d="M249,33.91a2.4,2.4,0,0,1-1.3-.27,1.1,1.1,0,0,1-.49-.71,4.63,4.63,0,0,1-.08-.92V17.64a4.62,4.62,0,0,1,.09-.94,1.08,1.08,0,0,1,.49-.7,2.59,2.59,0,0,1,1.33-.26,2.15,2.15,0,0,1,1.27.28,1.08,1.08,0,0,1,.45.71,3.88,3.88,0,0,1,.05.91V32.79a1.3,1.3,0,0,1-.53.85A2.22,2.22,0,0,1,249,33.91Zm4.85,0a4.38,4.38,0,0,1-2.15-.51A4.56,4.56,0,0,1,250.18,32a6.44,6.44,0,0,1-.92-2,8.49,8.49,0,0,1-.29-2.4,8.29,8.29,0,0,1,.33-2.35,6.31,6.31,0,0,1,.94-2,4.29,4.29,0,0,1,3.64-1.83,4.91,4.91,0,0,1,2.15.5,6.36,6.36,0,0,1,1.83,1.37,6.5,6.5,0,0,1,1.28,2,6.18,6.18,0,0,1,.46,2.34,6.31,6.31,0,0,1-.47,2.41,6.51,6.51,0,0,1-1.26,2A5.79,5.79,0,0,1,256,33.41,5,5,0,0,1,253.87,33.89Zm-.5-3.7a2.36,2.36,0,0,0,1.25-.33,2.62,2.62,0,0,0,.89-.92,2.49,2.49,0,0,0,.34-1.27,2.54,2.54,0,0,0-.33-1.28,2.38,2.38,0,0,0-.88-.9,2.52,2.52,0,0,0-1.24-.32,2.42,2.42,0,0,0-1.24.33,2.5,2.5,0,0,0-.87.9,2.58,2.58,0,0,0-.32,1.27,2.51,2.51,0,0,0,.33,1.27,2.45,2.45,0,0,0,.87.91A2.23,2.23,0,0,0,253.37,30.19Z"/><path class="cls-3" d="M267.77,34.12a6.29,6.29,0,0,1-2.34-.46,7,7,0,0,1-2.11-1.31,6.38,6.38,0,0,1-1.51-2,6,6,0,0,1-.56-2.64,6.16,6.16,0,0,1,.51-2.51,6.85,6.85,0,0,1,3.48-3.47,5.94,5.94,0,0,1,2.49-.51A6.26,6.26,0,0,1,271,22a6.72,6.72,0,0,1,2.34,2.34,6.3,6.3,0,0,1,.87,3.27,6.22,6.22,0,0,1-2.07,4.75,6.53,6.53,0,0,1-2.07,1.29A6.15,6.15,0,0,1,267.77,34.12Zm0-3.77a2.85,2.85,0,0,0,1.23-.3,2.81,2.81,0,0,0,1.05-.9,2.6,2.6,0,0,0,.42-1.52,2.65,2.65,0,0,0-.35-1.4,2.41,2.41,0,0,0-1-.94A2.83,2.83,0,0,0,267.7,25a2.6,2.6,0,0,0-1.34.35,2.65,2.65,0,0,0-.95,1,2.69,2.69,0,0,0-.36,1.39,2.6,2.6,0,0,0,.41,1.51,2.43,2.43,0,0,0,1,.9A2.9,2.9,0,0,0,267.72,30.35Z"/><path class="cls-3" d="M281,33.93a14.41,14.41,0,0,1-1.83-.1,3.7,3.7,0,0,1-1.35-.4,2.58,2.58,0,0,1-.9-.84,4,4,0,0,1-.52-1.37,10.11,10.11,0,0,1-.17-2.06V17.61a4.42,4.42,0,0,1,.1-.93,1.18,1.18,0,0,1,.49-.7,2.41,2.41,0,0,1,1.32-.27,2.3,2.3,0,0,1,1.28.27,1.21,1.21,0,0,1,.49.7,3.9,3.9,0,0,1,.1.93V29a4.22,4.22,0,0,0,0,.67.8.8,0,0,0,.15.41.56.56,0,0,0,.31.2,2.44,2.44,0,0,0,.53,0,2.6,2.6,0,0,1,.61.07.89.89,0,0,1,.54.45,2.58,2.58,0,0,1,.22,1.25,2.64,2.64,0,0,1-.23,1.3.89.89,0,0,1-.53.48A2.73,2.73,0,0,1,281,33.93Z"/><path class="cls-3" d="M286.25,19.64a2.52,2.52,0,0,1-1.35-.28,1.08,1.08,0,0,1-.48-.72,5.16,5.16,0,0,1,0-1.92,1.06,1.06,0,0,1,.5-.7,2.69,2.69,0,0,1,1.36-.26,2.31,2.31,0,0,1,1.32.28,1.09,1.09,0,0,1,.49.72,5,5,0,0,1,.09,1,4.7,4.7,0,0,1-.09.92,1.05,1.05,0,0,1-.49.71A2.48,2.48,0,0,1,286.25,19.64Zm0,14.3a2.43,2.43,0,0,1-1.32-.27,1,1,0,0,1-.48-.7,5.33,5.33,0,0,1-.07-.91V23.34a4.57,4.57,0,0,1,.08-.92,1.08,1.08,0,0,1,.49-.7,2.59,2.59,0,0,1,1.33-.26,2.18,2.18,0,0,1,1.28.28,1.12,1.12,0,0,1,.48.71,4.62,4.62,0,0,1,.09.94v8.7A4.53,4.53,0,0,1,288,33a1.08,1.08,0,0,1-.47.69A2.64,2.64,0,0,1,286.24,33.94Z"/><path class="cls-3" d="M291.58,21.64h2.75l3.45-.1a4.43,4.43,0,0,1,.9.09,1.13,1.13,0,0,1,.7.49,2.47,2.47,0,0,1,.27,1.33,2.34,2.34,0,0,1-.26,1.24,1.21,1.21,0,0,1-.69.52,3.83,3.83,0,0,1-.93.11l-3.27-.08-3,0a1.23,1.23,0,0,1-1-.46,2.54,2.54,0,0,1-.28-1.39,2.05,2.05,0,0,1,.35-1.33A1.26,1.26,0,0,1,291.58,21.64Zm5.64,12.3a7.92,7.92,0,0,1-2.2-.27,3.64,3.64,0,0,1-1.51-.85,3.55,3.55,0,0,1-.88-1.47,6.91,6.91,0,0,1-.28-2.11V19.12a4.31,4.31,0,0,1,.09-.93,1,1,0,0,1,.49-.66,3.32,3.32,0,0,1,2.6,0,1.12,1.12,0,0,1,.49.71,5.52,5.52,0,0,1,.08.92v9.92a3,3,0,0,0,.06.66.71.71,0,0,0,.19.39.62.62,0,0,0,.35.18,2.79,2.79,0,0,0,.55.05,4.07,4.07,0,0,1,1,.1,1.07,1.07,0,0,1,.66.45,2.13,2.13,0,0,1,.24,1.17,2.38,2.38,0,0,1-.27,1.3,1.09,1.09,0,0,1-.72.48A5.33,5.33,0,0,1,297.22,33.94Z"/><path class="cls-3" d="M311.77,33.93a2.34,2.34,0,0,1-1.38-.33.89.89,0,0,1-.42-.8l.25-.42a2.8,2.8,0,0,1-.58.61,4.11,4.11,0,0,1-1.11.65,4.34,4.34,0,0,1-1.66.28,4.88,4.88,0,0,1-2.19-.5A5.7,5.7,0,0,1,302.85,32a7,7,0,0,1-1.28-2,6.15,6.15,0,0,1-.47-2.37,6,6,0,0,1,.47-2.34,6.9,6.9,0,0,1,1.29-2A6.56,6.56,0,0,1,304.7,22a4.94,4.94,0,0,1,2.18-.5,4.09,4.09,0,0,1,1.57.27,4.32,4.32,0,0,1,1.09.61,3.2,3.2,0,0,1,.66.68l-.22-.35a1.06,1.06,0,0,1,.43-.92,2.51,2.51,0,0,1,1.39-.31,2.24,2.24,0,0,1,1.29.28,1.07,1.07,0,0,1,.47.72,4.86,4.86,0,0,1,.09.95V32a5.62,5.62,0,0,1-.08.92,1.11,1.11,0,0,1-.48.72A2.48,2.48,0,0,1,311.77,33.93ZM307.4,30.2a2.13,2.13,0,0,0,1.2-.34,2.57,2.57,0,0,0,.85-.91,2.6,2.6,0,0,0,.32-1.27,2.57,2.57,0,0,0-.32-1.29,2.42,2.42,0,0,0-.88-.89,2.3,2.3,0,0,0-1.22-.33,2.42,2.42,0,0,0-1.26.34,2.53,2.53,0,0,0-.9.91,2.5,2.5,0,0,0-.34,1.3,2.42,2.42,0,0,0,.33,1.24,2.6,2.6,0,0,0,2.22,1.24Z"/><path class="cls-3" d="M320.64,34.16a8,8,0,0,1-1.47-.15,8.79,8.79,0,0,1-1.54-.44,5.08,5.08,0,0,1-1.25-.68,1.26,1.26,0,0,1-.56-.89,1.36,1.36,0,0,1,0-.53,2.37,2.37,0,0,1,.23-.6,3.78,3.78,0,0,1,.44-.66.82.82,0,0,1,.43-.35,1,1,0,0,1,.59,0,3.55,3.55,0,0,1,.8.26l.83.4a6.74,6.74,0,0,0,.87.38,2.66,2.66,0,0,0,.92.16,2.32,2.32,0,0,0,1.09-.21.65.65,0,0,0,.39-.59.64.64,0,0,0-.16-.45,1.6,1.6,0,0,0-.45-.3c-.19-.08-.42-.16-.68-.24l-.81-.21c-.28-.06-.58-.15-.9-.25a9.62,9.62,0,0,1-1.19-.45,4,4,0,0,1-1.05-.71,3.22,3.22,0,0,1-.73-1.08,4,4,0,0,1-.28-1.56,3.3,3.3,0,0,1,2.23-3.31,7.34,7.34,0,0,1,2.7-.44c.3,0,.6,0,.9,0a6.69,6.69,0,0,1,1.75.48,8.36,8.36,0,0,1,.85.42,1.13,1.13,0,0,1,.77,1,2.06,2.06,0,0,1-.42,1.25,2,2,0,0,1-.58.58.87.87,0,0,1-.62.14,3.93,3.93,0,0,1-.86-.34c-.31-.16-.64-.3-1-.44a2.84,2.84,0,0,0-1-.2,2.24,2.24,0,0,0-.73.11,1.11,1.11,0,0,0-.45.3.71.71,0,0,0-.15.44.69.69,0,0,0,.19.51,1.59,1.59,0,0,0,.51.32,5.64,5.64,0,0,0,.75.22c.29.07.59.14.93.2s.91.2,1.39.34a5,5,0,0,1,1.3.61,3,3,0,0,1,.94,1.08,3.65,3.65,0,0,1,.37,1.78,3.6,3.6,0,0,1-1.38,3A6.38,6.38,0,0,1,320.64,34.16Z"/><path class="cls-2" d="M118.82,33.84a2.4,2.4,0,0,1-1.3-.27,1.09,1.09,0,0,1-.49-.71,5.62,5.62,0,0,1-.08-.92V18.26a2.07,2.07,0,0,1,.42-1.49,2.23,2.23,0,0,1,1.53-.41h9.45a4.42,4.42,0,0,1,.92.09,1,1,0,0,1,.69.48,2.65,2.65,0,0,1,.26,1.35,2.28,2.28,0,0,1-.28,1.3,1.1,1.1,0,0,1-.71.49,4.59,4.59,0,0,1-.93.09h-7.55v3.23h5.13a4.74,4.74,0,0,1,.89.08.93.93,0,0,1,.61.42,2.36,2.36,0,0,1,.22,1.2,2.05,2.05,0,0,1-.22,1.11.92.92,0,0,1-.63.42,5,5,0,0,1-.9.07h-5.1V32a4.45,4.45,0,0,1-.1.91,1.1,1.1,0,0,1-.49.7A2.47,2.47,0,0,1,118.82,33.84Z"/><path class="cls-2" d="M134.68,19.55a2.61,2.61,0,0,1-1.35-.28,1.11,1.11,0,0,1-.49-.73,4.74,4.74,0,0,1-.08-.95,5.64,5.64,0,0,1,.08-1,1.08,1.08,0,0,1,.51-.7,2.66,2.66,0,0,1,1.36-.26A2.33,2.33,0,0,1,136,16a1.09,1.09,0,0,1,.49.72,5,5,0,0,1,.09,1,4.7,4.7,0,0,1-.09.92,1.05,1.05,0,0,1-.49.71A2.53,2.53,0,0,1,134.68,19.55Zm0,14.3a2.41,2.41,0,0,1-1.32-.27,1,1,0,0,1-.48-.7,5.33,5.33,0,0,1-.07-.91V23.25a4.56,4.56,0,0,1,.09-.92,1.08,1.08,0,0,1,.49-.7,2.54,2.54,0,0,1,1.32-.26,2.24,2.24,0,0,1,1.29.28,1.12,1.12,0,0,1,.48.71,5.49,5.49,0,0,1,.08.94V32a4.53,4.53,0,0,1-.09.91,1.06,1.06,0,0,1-.48.69A2.57,2.57,0,0,1,134.67,33.85Z"/><path class="cls-2" d="M144.4,33.53a5,5,0,0,1-2.17-.49,5.8,5.8,0,0,1-1.78-1.34,6.58,6.58,0,0,1-1.23-1.95,6.12,6.12,0,0,1-.45-2.33,6.19,6.19,0,0,1,1.7-4.23,6,6,0,0,1,1.8-1.33,4.83,4.83,0,0,1,2.11-.48,3.74,3.74,0,0,1,1.9.44,3.33,3.33,0,0,1,1.25,1.25,6.67,6.67,0,0,1,.71,1.92,11.82,11.82,0,0,1,.24,2.49,11.31,11.31,0,0,1-.42,3.21,4.27,4.27,0,0,1-1.3,2.1A3.58,3.58,0,0,1,144.4,33.53Zm.44,5.47a7,7,0,0,1-1.76-.22,8.6,8.6,0,0,1-1.59-.61,4.63,4.63,0,0,1-1.15-.8,1.21,1.21,0,0,1-.42-.85,1.77,1.77,0,0,1,.15-.73,2.46,2.46,0,0,1,.45-.67,4.94,4.94,0,0,1,.6-.57,1,1,0,0,1,.6-.2,1.09,1.09,0,0,1,.63.19l.58.41a3.41,3.41,0,0,0,.79.41,3.21,3.21,0,0,0,1.2.19,2.46,2.46,0,0,0,.94-.18,2.15,2.15,0,0,0,.75-.55,3.12,3.12,0,0,0,.5-.85,3.15,3.15,0,0,0,.19-1.09V22.53a1.19,1.19,0,0,1,.52-.94,2.45,2.45,0,0,1,1.33-.29,2.18,2.18,0,0,1,1.25.27,1.08,1.08,0,0,1,.47.69,5.11,5.11,0,0,1,.08.9V33a5.88,5.88,0,0,1-.53,2.54,5.71,5.71,0,0,1-1.4,1.87A6.35,6.35,0,0,1,144.84,39Zm0-9.1a2.21,2.21,0,0,0,1.2-.33,2.65,2.65,0,0,0,.84-.89,2.5,2.5,0,0,0,.32-1.25,2.45,2.45,0,0,0-.32-1.25A2.3,2.3,0,0,0,144.8,25a2.21,2.21,0,0,0-1.2.33,2.56,2.56,0,0,0-.84.89,2.6,2.6,0,0,0,0,2.48,2.62,2.62,0,0,0,.87.88A2.11,2.11,0,0,0,144.82,29.9Z"/><path class="cls-2" d="M158.9,33.84a5.42,5.42,0,0,1-2.18-.46A5.33,5.33,0,0,1,155,32.12a5.75,5.75,0,0,1-1.16-1.93,7,7,0,0,1-.41-2.43V23.23a4.42,4.42,0,0,1,.09-.92,1.08,1.08,0,0,1,.49-.7,2.33,2.33,0,0,1,1.32-.28,2.4,2.4,0,0,1,1.32.28,1.14,1.14,0,0,1,.47.71,4.69,4.69,0,0,1,.09.94v4.5a2.78,2.78,0,0,0,.27,1.26,1.73,1.73,0,0,0,.77.81,2.46,2.46,0,0,0,1.21.28,2.4,2.4,0,0,0,1.24-.29,2,2,0,0,0,.8-.81,2.57,2.57,0,0,0,.29-1.25V23.21a4.42,4.42,0,0,1,.09-.92,1,1,0,0,1,.49-.69,2.47,2.47,0,0,1,1.32-.26,2.41,2.41,0,0,1,1.32.27,1.19,1.19,0,0,1,.47.72,4.46,4.46,0,0,1,.09.91V32a4.19,4.19,0,0,1-.09.89,1,1,0,0,1-.48.66,2.63,2.63,0,0,1-1.3.25,2.92,2.92,0,0,1-1.05-.15,1.25,1.25,0,0,1-.55-.38,1.06,1.06,0,0,1-.22-.47,3.91,3.91,0,0,1,0-.45l.32-.28a2.91,2.91,0,0,1-.32.39,5.29,5.29,0,0,1-.67.57,4,4,0,0,1-1,.54A3.34,3.34,0,0,1,158.9,33.84Z"/><path class="cls-2" d="M169.9,33.87a2.41,2.41,0,0,1-1.32-.27,1.09,1.09,0,0,1-.47-.71A4.7,4.7,0,0,1,168,32V23.24a5.25,5.25,0,0,1,.08-.92,1.07,1.07,0,0,1,.49-.69,3.48,3.48,0,0,1,2.59,0,1,1,0,0,1,.49.55,2,2,0,0,1,.1.53l-.3.15a3.22,3.22,0,0,1,.26-.36,3.58,3.58,0,0,1,.59-.55,3.71,3.71,0,0,1,.91-.49,3.4,3.4,0,0,1,1.24-.19l.61,0a4.62,4.62,0,0,1,.7.15,3.32,3.32,0,0,1,.66.3,1.58,1.58,0,0,1,.49.47,1.11,1.11,0,0,1,.19.67,3.06,3.06,0,0,1-.48,1.74,1.42,1.42,0,0,1-1.2.71,2.11,2.11,0,0,1-.6-.06,1,1,0,0,1-.29-.15.93.93,0,0,0-.26-.15,1.61,1.61,0,0,0-.55-.07,2.71,2.71,0,0,0-.71.1,1.88,1.88,0,0,0-.63.32,1.45,1.45,0,0,0-.61,1.23V32a4.53,4.53,0,0,1-.09.91,1,1,0,0,1-.49.69A2.69,2.69,0,0,1,169.9,33.87Z"/><path class="cls-2" d="M189.3,33.85a2.42,2.42,0,0,1-1.38-.32.9.9,0,0,1-.42-.8l.25-.43a3.06,3.06,0,0,1-.58.62,4.11,4.11,0,0,1-1.11.64,4.33,4.33,0,0,1-1.66.29,5,5,0,0,1-2.19-.5A5.89,5.89,0,0,1,180.37,32a7,7,0,0,1-1.27-2,6,6,0,0,1-.48-2.38,5.9,5.9,0,0,1,.48-2.34,6.72,6.72,0,0,1,1.29-2,6.24,6.24,0,0,1,1.84-1.36,4.93,4.93,0,0,1,2.17-.5,4.35,4.35,0,0,1,1.58.26,4.26,4.26,0,0,1,1.08.62,3.24,3.24,0,0,1,.67.67l-.23-.35a1.05,1.05,0,0,1,.44-.91,2.4,2.4,0,0,1,1.39-.31,2.34,2.34,0,0,1,1.29.27,1.19,1.19,0,0,1,.47.73,4.86,4.86,0,0,1,.09.95V32a4.73,4.73,0,0,1-.09.93,1.06,1.06,0,0,1-.47.71A2.41,2.41,0,0,1,189.3,33.85Zm-4.38-3.72a2.21,2.21,0,0,0,1.2-.34,2.6,2.6,0,0,0,1.18-2.19,2.62,2.62,0,0,0-.32-1.29,2.4,2.4,0,0,0-.88-.88,2.33,2.33,0,0,0-1.22-.33,2.39,2.39,0,0,0-1.27.34,2.61,2.61,0,0,0-.9.91,2.57,2.57,0,0,0-.34,1.3,2.43,2.43,0,0,0,.34,1.24,2.51,2.51,0,0,0,.93.9A2.58,2.58,0,0,0,184.92,30.13Z"/><path class="cls-2" d="M198.17,34.08a8.15,8.15,0,0,1-1.48-.15,7.9,7.9,0,0,1-1.53-.44,5.07,5.07,0,0,1-1.25-.67,1.28,1.28,0,0,1-.56-.89,1.24,1.24,0,0,1,0-.54,2.37,2.37,0,0,1,.23-.6,4.08,4.08,0,0,1,.43-.66.94.94,0,0,1,.44-.35,1,1,0,0,1,.59,0,3.72,3.72,0,0,1,.8.26l.82.4c.29.14.58.27.88.38a2.92,2.92,0,0,0,.92.16,2.32,2.32,0,0,0,1.09-.21.65.65,0,0,0,.39-.59.69.69,0,0,0-.16-.45,1.27,1.27,0,0,0-.45-.3c-.2-.08-.42-.16-.68-.24l-.81-.21c-.29-.07-.58-.15-.9-.25a9.05,9.05,0,0,1-1.19-.45,4,4,0,0,1-1-.72,3.13,3.13,0,0,1-.73-1.07A3.85,3.85,0,0,1,193.7,25a3.29,3.29,0,0,1,2.23-3.32,7.35,7.35,0,0,1,2.7-.43c.3,0,.6,0,.9.05a4.68,4.68,0,0,1,.89.18,7.33,7.33,0,0,1,.86.3,6.07,6.07,0,0,1,.85.42,1.1,1.1,0,0,1,.77.95,2,2,0,0,1-.42,1.25,2.17,2.17,0,0,1-.58.59.93.93,0,0,1-.62.14,4.2,4.2,0,0,1-.87-.34,9.53,9.53,0,0,0-1-.44,2.84,2.84,0,0,0-1-.2,2.2,2.2,0,0,0-.73.11,1.11,1.11,0,0,0-.45.3.69.69,0,0,0-.15.44.67.67,0,0,0,.19.51,1.27,1.27,0,0,0,.51.31,5.58,5.58,0,0,0,.75.23l.93.2a12.6,12.6,0,0,1,1.38.34,4.44,4.44,0,0,1,1.3.61,3,3,0,0,1,1,1.08,3.76,3.76,0,0,1,.36,1.77,3.6,3.6,0,0,1-1.37,3A6.38,6.38,0,0,1,198.17,34.08Z"/><path class="cls-2" d="M217.5,33.87a4.93,4.93,0,0,1-2.18-.49A5.83,5.83,0,0,1,213.5,32a6.71,6.71,0,0,1-1.27-2,6.46,6.46,0,0,1-.46-2.41,6.07,6.07,0,0,1,.47-2.34,6.59,6.59,0,0,1,1.27-2,6.51,6.51,0,0,1,1.84-1.36,4.91,4.91,0,0,1,2.15-.5,4.33,4.33,0,0,1,2.11.49,4.37,4.37,0,0,1,1.53,1.34,6.31,6.31,0,0,1,.94,2,9.14,9.14,0,0,1,.34,2.35,9.28,9.28,0,0,1-.3,2.4,6.22,6.22,0,0,1-.92,2,4.61,4.61,0,0,1-1.56,1.39A4.34,4.34,0,0,1,217.5,33.87Zm.5-3.7a2.19,2.19,0,0,0,1.21-.34,2.56,2.56,0,0,0,.88-.91,2.51,2.51,0,0,0,.33-1.27,2.47,2.47,0,0,0-.32-1.27,2.68,2.68,0,0,0-.87-.9,2.41,2.41,0,0,0-1.25-.33,2.36,2.36,0,0,0-1.24.32,2.31,2.31,0,0,0-.88.9,2.74,2.74,0,0,0,0,2.55,2.46,2.46,0,0,0,.9.91A2.35,2.35,0,0,0,218,30.17Zm4.35,3.73a2.28,2.28,0,0,1-1.27-.28,1.28,1.28,0,0,1-.53-.85V17.62a6.71,6.71,0,0,1,.07-.91,1,1,0,0,1,.44-.71,2.15,2.15,0,0,1,1.27-.28,2.4,2.4,0,0,1,1.33.27,1.12,1.12,0,0,1,.47.68,4,4,0,0,1,.1.93V32a4.46,4.46,0,0,1-.09.91,1.1,1.1,0,0,1-.47.71A2.29,2.29,0,0,1,222.35,33.9Z"/><path class="cls-2" d="M232.94,34.13a7.12,7.12,0,0,1-3-.58A5.84,5.84,0,0,1,227.87,32a6.61,6.61,0,0,1-1.2-2.09,7.14,7.14,0,0,1-.4-2.3,6.39,6.39,0,0,1,.86-3.32A6,6,0,0,1,229.49,22a6.9,6.9,0,0,1,3.46-.83,6.18,6.18,0,0,1,2.51.46,5.12,5.12,0,0,1,2.78,2.79,4.26,4.26,0,0,1,.33,1.62,2.82,2.82,0,0,1-.66,2.05,2.26,2.26,0,0,1-1.69.68h-5.95a1.78,1.78,0,0,0,.47,1.08,2.73,2.73,0,0,0,1,.7,3.5,3.5,0,0,0,1.33.25,7.94,7.94,0,0,0,1-.06,3.56,3.56,0,0,0,.79-.18c.22-.07.41-.15.59-.22a4.44,4.44,0,0,1,.49-.19,2.53,2.53,0,0,1,.42-.1,1.09,1.09,0,0,1,.68.21,2,2,0,0,1,.57.72,1.71,1.71,0,0,1,.24.52,2.2,2.2,0,0,1,.06.5,1.34,1.34,0,0,1-.61,1.09,4.91,4.91,0,0,1-1.73.74A11.5,11.5,0,0,1,232.94,34.13Zm-2.67-7.4h3.95a1,1,0,0,0,.58-.14.61.61,0,0,0,.2-.53,1.23,1.23,0,0,0-.27-.78,1.87,1.87,0,0,0-.74-.54,3.2,3.2,0,0,0-2.44.11,2.47,2.47,0,0,0-.94.8A1.94,1.94,0,0,0,230.27,26.73Z"/><path class="cls-2" d="M249,33.91a2.4,2.4,0,0,1-1.3-.27,1.1,1.1,0,0,1-.49-.71,4.63,4.63,0,0,1-.08-.92V17.64a4.62,4.62,0,0,1,.09-.94,1.08,1.08,0,0,1,.49-.7,2.59,2.59,0,0,1,1.33-.26,2.15,2.15,0,0,1,1.27.28,1.08,1.08,0,0,1,.45.71,3.88,3.88,0,0,1,.05.91V32.79a1.3,1.3,0,0,1-.53.85A2.22,2.22,0,0,1,249,33.91Zm4.85,0a4.38,4.38,0,0,1-2.15-.51A4.56,4.56,0,0,1,250.18,32a6.44,6.44,0,0,1-.92-2,8.49,8.49,0,0,1-.29-2.4,8.29,8.29,0,0,1,.33-2.35,6.31,6.31,0,0,1,.94-2,4.29,4.29,0,0,1,3.64-1.83,4.91,4.91,0,0,1,2.15.5,6.36,6.36,0,0,1,1.83,1.37,6.5,6.5,0,0,1,1.28,2,6.18,6.18,0,0,1,.46,2.34,6.31,6.31,0,0,1-.47,2.41,6.51,6.51,0,0,1-1.26,2A5.79,5.79,0,0,1,256,33.41,5,5,0,0,1,253.87,33.89Zm-.5-3.7a2.36,2.36,0,0,0,1.25-.33,2.62,2.62,0,0,0,.89-.92,2.49,2.49,0,0,0,.34-1.27,2.54,2.54,0,0,0-.33-1.28,2.38,2.38,0,0,0-.88-.9,2.52,2.52,0,0,0-1.24-.32,2.42,2.42,0,0,0-1.24.33,2.5,2.5,0,0,0-.87.9,2.58,2.58,0,0,0-.32,1.27,2.51,2.51,0,0,0,.33,1.27,2.45,2.45,0,0,0,.87.91A2.23,2.23,0,0,0,253.37,30.19Z"/><path class="cls-2" d="M267.77,34.12a6.29,6.29,0,0,1-2.34-.46,7,7,0,0,1-2.11-1.31,6.38,6.38,0,0,1-1.51-2,6,6,0,0,1-.56-2.64,6.16,6.16,0,0,1,.51-2.51,6.85,6.85,0,0,1,3.48-3.47,5.94,5.94,0,0,1,2.49-.51A6.26,6.26,0,0,1,271,22a6.72,6.72,0,0,1,2.34,2.34,6.3,6.3,0,0,1,.87,3.27,6.22,6.22,0,0,1-2.07,4.75,6.53,6.53,0,0,1-2.07,1.29A6.15,6.15,0,0,1,267.77,34.12Zm0-3.77a2.85,2.85,0,0,0,1.23-.3,2.81,2.81,0,0,0,1.05-.9,2.6,2.6,0,0,0,.42-1.52,2.65,2.65,0,0,0-.35-1.4,2.41,2.41,0,0,0-1-.94A2.83,2.83,0,0,0,267.7,25a2.6,2.6,0,0,0-1.34.35,2.65,2.65,0,0,0-.95,1,2.69,2.69,0,0,0-.36,1.39,2.6,2.6,0,0,0,.41,1.51,2.43,2.43,0,0,0,1,.9A2.9,2.9,0,0,0,267.72,30.35Z"/><path class="cls-2" d="M281,33.93a14.41,14.41,0,0,1-1.83-.1,3.7,3.7,0,0,1-1.35-.4,2.58,2.58,0,0,1-.9-.84,4,4,0,0,1-.52-1.37,10.11,10.11,0,0,1-.17-2.06V17.61a4.42,4.42,0,0,1,.1-.93,1.18,1.18,0,0,1,.49-.7,2.41,2.41,0,0,1,1.32-.27,2.3,2.3,0,0,1,1.28.27,1.21,1.21,0,0,1,.49.7,3.9,3.9,0,0,1,.1.93V29a4.22,4.22,0,0,0,0,.67.8.8,0,0,0,.15.41.56.56,0,0,0,.31.2,2.44,2.44,0,0,0,.53,0,2.6,2.6,0,0,1,.61.07.89.89,0,0,1,.54.45,2.58,2.58,0,0,1,.22,1.25,2.64,2.64,0,0,1-.23,1.3.89.89,0,0,1-.53.48A2.73,2.73,0,0,1,281,33.93Z"/><path class="cls-2" d="M286.25,19.64a2.52,2.52,0,0,1-1.35-.28,1.08,1.08,0,0,1-.48-.72,5.16,5.16,0,0,1,0-1.92,1.06,1.06,0,0,1,.5-.7,2.69,2.69,0,0,1,1.36-.26,2.31,2.31,0,0,1,1.32.28,1.09,1.09,0,0,1,.49.72,5,5,0,0,1,.09,1,4.7,4.7,0,0,1-.09.92,1.05,1.05,0,0,1-.49.71A2.48,2.48,0,0,1,286.25,19.64Zm0,14.3a2.43,2.43,0,0,1-1.32-.27,1,1,0,0,1-.48-.7,5.33,5.33,0,0,1-.07-.91V23.34a4.57,4.57,0,0,1,.08-.92,1.08,1.08,0,0,1,.49-.7,2.59,2.59,0,0,1,1.33-.26,2.18,2.18,0,0,1,1.28.28,1.12,1.12,0,0,1,.48.71,4.62,4.62,0,0,1,.09.94v8.7A4.53,4.53,0,0,1,288,33a1.08,1.08,0,0,1-.47.69A2.64,2.64,0,0,1,286.24,33.94Z"/><path class="cls-2" d="M291.58,21.64h2.75l3.45-.1a4.43,4.43,0,0,1,.9.09,1.13,1.13,0,0,1,.7.49,2.47,2.47,0,0,1,.27,1.33,2.34,2.34,0,0,1-.26,1.24,1.21,1.21,0,0,1-.69.52,3.83,3.83,0,0,1-.93.11l-3.27-.08-3,0a1.23,1.23,0,0,1-1-.46,2.54,2.54,0,0,1-.28-1.39,2.05,2.05,0,0,1,.35-1.33A1.26,1.26,0,0,1,291.58,21.64Zm5.64,12.3a7.92,7.92,0,0,1-2.2-.27,3.64,3.64,0,0,1-1.51-.85,3.55,3.55,0,0,1-.88-1.47,6.91,6.91,0,0,1-.28-2.11V19.12a4.31,4.31,0,0,1,.09-.93,1,1,0,0,1,.49-.66,3.32,3.32,0,0,1,2.6,0,1.12,1.12,0,0,1,.49.71,5.52,5.52,0,0,1,.08.92v9.92a3,3,0,0,0,.06.66.71.71,0,0,0,.19.39.62.62,0,0,0,.35.18,2.79,2.79,0,0,0,.55.05,4.07,4.07,0,0,1,1,.1,1.07,1.07,0,0,1,.66.45,2.13,2.13,0,0,1,.24,1.17,2.38,2.38,0,0,1-.27,1.3,1.09,1.09,0,0,1-.72.48A5.33,5.33,0,0,1,297.22,33.94Z"/><path class="cls-2" d="M311.77,33.93a2.34,2.34,0,0,1-1.38-.33.89.89,0,0,1-.42-.8l.25-.42a2.8,2.8,0,0,1-.58.61,4.11,4.11,0,0,1-1.11.65,4.34,4.34,0,0,1-1.66.28,4.88,4.88,0,0,1-2.19-.5A5.7,5.7,0,0,1,302.85,32a7,7,0,0,1-1.28-2,6.15,6.15,0,0,1-.47-2.37,6,6,0,0,1,.47-2.34,6.9,6.9,0,0,1,1.29-2A6.56,6.56,0,0,1,304.7,22a4.94,4.94,0,0,1,2.18-.5,4.09,4.09,0,0,1,1.57.27,4.32,4.32,0,0,1,1.09.61,3.2,3.2,0,0,1,.66.68l-.22-.35a1.06,1.06,0,0,1,.43-.92,2.51,2.51,0,0,1,1.39-.31,2.24,2.24,0,0,1,1.29.28,1.07,1.07,0,0,1,.47.72,4.86,4.86,0,0,1,.09.95V32a5.62,5.62,0,0,1-.08.92,1.11,1.11,0,0,1-.48.72A2.48,2.48,0,0,1,311.77,33.93ZM307.4,30.2a2.13,2.13,0,0,0,1.2-.34,2.57,2.57,0,0,0,.85-.91,2.6,2.6,0,0,0,.32-1.27,2.57,2.57,0,0,0-.32-1.29,2.42,2.42,0,0,0-.88-.89,2.3,2.3,0,0,0-1.22-.33,2.42,2.42,0,0,0-1.26.34,2.53,2.53,0,0,0-.9.91,2.5,2.5,0,0,0-.34,1.3,2.42,2.42,0,0,0,.33,1.24,2.6,2.6,0,0,0,2.22,1.24Z"/><path class="cls-2" d="M320.64,34.16a8,8,0,0,1-1.47-.15,8.79,8.79,0,0,1-1.54-.44,5.08,5.08,0,0,1-1.25-.68,1.26,1.26,0,0,1-.56-.89,1.36,1.36,0,0,1,0-.53,2.37,2.37,0,0,1,.23-.6,3.78,3.78,0,0,1,.44-.66.82.82,0,0,1,.43-.35,1,1,0,0,1,.59,0,3.55,3.55,0,0,1,.8.26l.83.4a6.74,6.74,0,0,0,.87.38,2.66,2.66,0,0,0,.92.16,2.32,2.32,0,0,0,1.09-.21.65.65,0,0,0,.39-.59.64.64,0,0,0-.16-.45,1.6,1.6,0,0,0-.45-.3c-.19-.08-.42-.16-.68-.24l-.81-.21c-.28-.06-.58-.15-.9-.25a9.62,9.62,0,0,1-1.19-.45,4,4,0,0,1-1.05-.71,3.22,3.22,0,0,1-.73-1.08,4,4,0,0,1-.28-1.56,3.3,3.3,0,0,1,2.23-3.31,7.34,7.34,0,0,1,2.7-.44c.3,0,.6,0,.9,0a6.69,6.69,0,0,1,1.75.48,8.36,8.36,0,0,1,.85.42,1.13,1.13,0,0,1,.77,1,2.06,2.06,0,0,1-.42,1.25,2,2,0,0,1-.58.58.87.87,0,0,1-.62.14,3.93,3.93,0,0,1-.86-.34c-.31-.16-.64-.3-1-.44a2.84,2.84,0,0,0-1-.2,2.24,2.24,0,0,0-.73.11,1.11,1.11,0,0,0-.45.3.71.71,0,0,0-.15.44.69.69,0,0,0,.19.51,1.59,1.59,0,0,0,.51.32,5.64,5.64,0,0,0,.75.22c.29.07.59.14.93.2s.91.2,1.39.34a5,5,0,0,1,1.3.61,3,3,0,0,1,.94,1.08,3.65,3.65,0,0,1,.37,1.78,3.6,3.6,0,0,1-1.38,3A6.38,6.38,0,0,1,320.64,34.16Z"/><text class="cls-4" transform="matrix(0.97, 0, 0, 1, 40.01, 38.89)">1.2</text><text class="cls-5" transform="matrix(0.97, 0, 0, 1, 40.01, 38.89)">1.2</text></g></g></svg>