<svg xmlns="http://www.w3.org/2000/svg" viewBox="0 0 399.98 110.27"><defs><style>.cls-1{fill:#a41010;}.cls-2{fill:#fff;}.cls-3,.cls-4{fill:none;stroke-width:5px;}.cls-3{stroke:#c8a927;stroke-linejoin:round;}.cls-4,.cls-5{font-size:42px;font-family:Coiny-Regular, Coiny;}.cls-4{stroke:#fff;}.cls-5{fill:#c8a927;}</style></defs><title>12tt</title><g id="Layer_2" data-name="Layer 2"><g id="pestaña_identificativa" data-name="pestaña identificativa"><rect class="cls-1" width="399.98" height="110.27" rx="32.4"/><path class="cls-2" d="M125.23,34.84a2.46,2.46,0,0,1-1.31-.27,1.07,1.07,0,0,1-.5-.71,4.7,4.7,0,0,1-.09-.92V19.26a4.46,4.46,0,0,1,.09-.91,1.1,1.1,0,0,1,.49-.71,3.3,3.3,0,0,1,2.66,0,1.12,1.12,0,0,1,.48.71,5.49,5.49,0,0,1,.08.94V31.54H134a4.09,4.09,0,0,1,.8.08,1,1,0,0,1,.61.42,2.13,2.13,0,0,1,.23,1.15,2,2,0,0,1-.25,1.14,1,1,0,0,1-.61.44,3.87,3.87,0,0,1-.79.07Z"/><path class="cls-2" d="M138.42,21.44a.82.82,0,0,1-.74-.25,2.63,2.63,0,0,1-.51-1,2,2,0,0,1-.1-1.3,1.38,1.38,0,0,1,.92-.67l4.4-1.35a.91.91,0,0,1,.73.29,2.4,2.4,0,0,1,.5,1,1.85,1.85,0,0,1,.08,1.27,1.3,1.3,0,0,1-.91.68Zm1,13.41a2.49,2.49,0,0,1-1.31-.27,1,1,0,0,1-.47-.7,4.46,4.46,0,0,1-.09-.91V24.24a4.53,4.53,0,0,1,.09-.91,1.08,1.08,0,0,1,.49-.7,2.59,2.59,0,0,1,1.33-.26,2.21,2.21,0,0,1,1.28.28,1.12,1.12,0,0,1,.48.71,4.64,4.64,0,0,1,.08.94V33a4.53,4.53,0,0,1-.09.91,1.08,1.08,0,0,1-.47.69A2.64,2.64,0,0,1,139.38,34.85Z"/><path class="cls-2" d="M145.61,34.82a2.45,2.45,0,0,1-1.31-.26,1.07,1.07,0,0,1-.48-.7,4.53,4.53,0,0,1-.09-.91v-8.8a4.19,4.19,0,0,1,.09-.89,1,1,0,0,1,.49-.66,3.52,3.52,0,0,1,2.5,0,1,1,0,0,1,.48.51,1.51,1.51,0,0,1,.11.57,1,1,0,0,0,.05.36l-.15.48a1.61,1.61,0,0,1,.39-.77,3.74,3.74,0,0,1,.85-.7,4.7,4.7,0,0,1,1.1-.48,4,4,0,0,1,1.17-.18,5,5,0,0,1,2.13.44,4.24,4.24,0,0,1,1.59,1.26,6,6,0,0,1,1,1.94,8.57,8.57,0,0,1,.33,2.44V33a4.46,4.46,0,0,1-.09.91,1.08,1.08,0,0,1-.47.69,2.59,2.59,0,0,1-1.34.25,2.47,2.47,0,0,1-1.33-.27,1,1,0,0,1-.48-.69,4.63,4.63,0,0,1-.09-.92V28.43a2.78,2.78,0,0,0-.26-1.28,1.81,1.81,0,0,0-.75-.8,2.46,2.46,0,0,0-1.21-.27,2.59,2.59,0,0,0-1.25.28,2,2,0,0,0-.81.81,2.48,2.48,0,0,0-.29,1.25V33a5.4,5.4,0,0,1-.08.91,1,1,0,0,1-.48.68A2.52,2.52,0,0,1,145.61,34.82Z"/><path class="cls-2" d="M164.51,35.09a7.49,7.49,0,0,1-3-.58A6,6,0,0,1,159.43,33a6.36,6.36,0,0,1-1.19-2.08,6.92,6.92,0,0,1-.4-2.3,6.45,6.45,0,0,1,.85-3.33A6,6,0,0,1,161.05,23a7,7,0,0,1,3.47-.84,6.25,6.25,0,0,1,2.51.46,5.23,5.23,0,0,1,1.75,1.2,5.11,5.11,0,0,1,1,1.59,4.33,4.33,0,0,1,.34,1.63,2.82,2.82,0,0,1-.67,2.05,2.25,2.25,0,0,1-1.68.67h-5.95a1.68,1.68,0,0,0,.46,1.07,2.69,2.69,0,0,0,1,.7,3.7,3.7,0,0,0,1.33.26,6.63,6.63,0,0,0,1-.07,4.49,4.49,0,0,0,.79-.17c.21-.08.41-.15.58-.23l.49-.18A1.78,1.78,0,0,1,168,31a1,1,0,0,1,.67.21,2,2,0,0,1,.57.71,1.75,1.75,0,0,1,.24.53,2.07,2.07,0,0,1,.06.5,1.32,1.32,0,0,1-.61,1.08,4.68,4.68,0,0,1-1.72.74A11.58,11.58,0,0,1,164.51,35.09Zm-2.67-7.41h3.95a1,1,0,0,0,.57-.14.62.62,0,0,0,.2-.54,1.23,1.23,0,0,0-.27-.77,1.7,1.7,0,0,0-.74-.54,2.8,2.8,0,0,0-1.09-.19,3,3,0,0,0-1.35.3,2.36,2.36,0,0,0-.93.8A1.84,1.84,0,0,0,161.84,27.68Z"/><path class="cls-2" d="M182.43,34.85a2.33,2.33,0,0,1-1.37-.33.92.92,0,0,1-.43-.8l.25-.42a3,3,0,0,1-.57.61,4.45,4.45,0,0,1-1.11.65,4.39,4.39,0,0,1-1.67.28,4.87,4.87,0,0,1-2.18-.5A5.63,5.63,0,0,1,173.51,33a7,7,0,0,1-1.27-2,6,6,0,0,1-.48-2.38,5.82,5.82,0,0,1,.48-2.33,6.51,6.51,0,0,1,1.29-2,6.42,6.42,0,0,1,1.84-1.36,4.9,4.9,0,0,1,2.17-.5,4.14,4.14,0,0,1,1.58.27,4.24,4.24,0,0,1,1.08.61,3.43,3.43,0,0,1,.66.67l-.22-.34a1.06,1.06,0,0,1,.44-.92,2.39,2.39,0,0,1,1.38-.31,2.22,2.22,0,0,1,1.29.28,1.11,1.11,0,0,1,.48.72,5.8,5.8,0,0,1,.08.95V33a4.7,4.7,0,0,1-.09.92,1.07,1.07,0,0,1-.48.71A2.35,2.35,0,0,1,182.43,34.85Zm-4.37-3.73a2.13,2.13,0,0,0,1.2-.34,2.57,2.57,0,0,0,.85-.91,2.52,2.52,0,0,0,.33-1.28,2.46,2.46,0,0,0-.33-1.28,2.4,2.4,0,0,0-.87-.89,2.36,2.36,0,0,0-1.23-.33,2.48,2.48,0,0,0-2.16,1.25,2.5,2.5,0,0,0-.34,1.3,2.34,2.34,0,0,0,.34,1.24,2.48,2.48,0,0,0,.92.9A2.59,2.59,0,0,0,178.06,31.12Z"/><path class="cls-2" d="M198.68,34.86a5.06,5.06,0,0,1-2.17-.49A5.9,5.9,0,0,1,194.68,33a6.7,6.7,0,0,1-1.26-2,6.3,6.3,0,0,1-.46-2.41,6.18,6.18,0,0,1,.46-2.34,6.5,6.5,0,0,1,1.28-2,6.4,6.4,0,0,1,1.84-1.37,4.74,4.74,0,0,1,2.15-.49,4.47,4.47,0,0,1,2.11.48,4.58,4.58,0,0,1,1.53,1.34,6.46,6.46,0,0,1,.93,2,9.08,9.08,0,0,1,.35,2.35,9.28,9.28,0,0,1-.3,2.4,6,6,0,0,1-.93,2,4.56,4.56,0,0,1-1.55,1.38A4.25,4.25,0,0,1,198.68,34.86Zm.5-3.7a2.31,2.31,0,0,0,1.22-.34,2.62,2.62,0,0,0,.87-.91,2.45,2.45,0,0,0,.34-1.28,2.54,2.54,0,0,0-.32-1.26,2.45,2.45,0,0,0-.88-.9,2.28,2.28,0,0,0-1.25-.34,2.42,2.42,0,0,0-1.24.33,2.26,2.26,0,0,0-.87.89,2.63,2.63,0,0,0-.31,1.28A2.49,2.49,0,0,0,198,30.82,2.41,2.41,0,0,0,199.18,31.16Zm4.35,3.72a2.34,2.34,0,0,1-1.26-.27,1.34,1.34,0,0,1-.54-.85V18.61a6.62,6.62,0,0,1,.06-.91,1.08,1.08,0,0,1,.44-.72,2.28,2.28,0,0,1,1.28-.27,2.47,2.47,0,0,1,1.32.26,1.19,1.19,0,0,1,.48.69,4.4,4.4,0,0,1,.1.92V33a4.56,4.56,0,0,1-.09.92,1.12,1.12,0,0,1-.48.71A2.35,2.35,0,0,1,203.53,34.88Z"/><path class="cls-2" d="M209.94,20.59a2.52,2.52,0,0,1-1.35-.28,1.09,1.09,0,0,1-.49-.72,4.87,4.87,0,0,1-.08-.95,5.86,5.86,0,0,1,.08-1,1.08,1.08,0,0,1,.51-.7,2.66,2.66,0,0,1,1.36-.26,2.42,2.42,0,0,1,1.32.28,1.09,1.09,0,0,1,.49.72,5,5,0,0,1,.09,1,4.63,4.63,0,0,1-.09.92,1.09,1.09,0,0,1-.49.72A2.65,2.65,0,0,1,209.94,20.59Zm0,14.3a2.43,2.43,0,0,1-1.32-.27,1,1,0,0,1-.48-.7,5.33,5.33,0,0,1-.07-.91V24.29a4.63,4.63,0,0,1,.09-.92,1.08,1.08,0,0,1,.49-.7,2.57,2.57,0,0,1,1.32-.26,2.24,2.24,0,0,1,1.29.28,1.12,1.12,0,0,1,.48.71,5.58,5.58,0,0,1,.08.94V33a4.46,4.46,0,0,1-.09.91,1.06,1.06,0,0,1-.48.69A2.47,2.47,0,0,1,209.93,34.89Z"/><path class="cls-2" d="M224.68,34.87a2.41,2.41,0,0,1-1.37-.32.93.93,0,0,1-.43-.8l.25-.43a2.72,2.72,0,0,1-.57.61,4.35,4.35,0,0,1-1.12.65,4.29,4.29,0,0,1-1.66.29,5,5,0,0,1-2.19-.5A6,6,0,0,1,215.76,33a7,7,0,0,1-1.28-2,6.2,6.2,0,0,1-.47-2.38,5.83,5.83,0,0,1,.48-2.34,6.34,6.34,0,0,1,1.29-2,6.15,6.15,0,0,1,1.83-1.36,4.84,4.84,0,0,1,2.18-.5,4.26,4.26,0,0,1,1.57.26,4.16,4.16,0,0,1,1.09.62,3.18,3.18,0,0,1,.66.67l-.22-.35a1,1,0,0,1,.44-.91,2.39,2.39,0,0,1,1.38-.31,2.34,2.34,0,0,1,1.29.27,1.16,1.16,0,0,1,.48.73,5.7,5.7,0,0,1,.08,1V33a4.73,4.73,0,0,1-.09.93,1.07,1.07,0,0,1-.48.71A2.45,2.45,0,0,1,224.68,34.87Zm-4.37-3.73a2.21,2.21,0,0,0,1.2-.33,2.6,2.6,0,0,0,.85-.92,2.48,2.48,0,0,0,.33-1.27,2.53,2.53,0,0,0-.33-1.29,2.56,2.56,0,0,0-.87-.89,2.45,2.45,0,0,0-1.23-.32,2.33,2.33,0,0,0-1.26.34,2.38,2.38,0,0,0-.9.91,2.45,2.45,0,0,0-.34,1.3,2.28,2.28,0,0,0,.34,1.23,2.51,2.51,0,0,0,.92.91A2.58,2.58,0,0,0,220.31,31.14Z"/><path class="cls-2" d="M234.23,34.58a5,5,0,0,1-2.16-.49,5.84,5.84,0,0,1-1.79-1.34,6.76,6.76,0,0,1-1.22-1.95,6.12,6.12,0,0,1-.45-2.33,6,6,0,0,1,.45-2.31,6.3,6.3,0,0,1,3-3.25,4.89,4.89,0,0,1,2.11-.48,3.71,3.71,0,0,1,1.9.44,3.2,3.2,0,0,1,1.25,1.25,6.13,6.13,0,0,1,.71,1.92,11.82,11.82,0,0,1,.24,2.49,11.33,11.33,0,0,1-.41,3.21,4.22,4.22,0,0,1-1.31,2.1A3.58,3.58,0,0,1,234.23,34.58Zm.45,5.47a6.9,6.9,0,0,1-1.76-.22,7.49,7.49,0,0,1-1.59-.6,4.46,4.46,0,0,1-1.15-.81,1.23,1.23,0,0,1-.43-.85,1.63,1.63,0,0,1,.16-.73,2.46,2.46,0,0,1,.45-.67,4.94,4.94,0,0,1,.6-.57.92.92,0,0,1,.6-.2,1,1,0,0,1,.62.19l.59.41a3.41,3.41,0,0,0,.79.41,3.14,3.14,0,0,0,1.2.19,2.24,2.24,0,0,0,.93-.19,2,2,0,0,0,.75-.54,2.89,2.89,0,0,0,.5-.85,2.94,2.94,0,0,0,.19-1.09V23.58a1.21,1.21,0,0,1,.51-.94,2.49,2.49,0,0,1,1.34-.29,2.21,2.21,0,0,1,1.25.27,1.06,1.06,0,0,1,.46.69,4.29,4.29,0,0,1,.09.9v9.87a5.88,5.88,0,0,1-.52,2.54,5.6,5.6,0,0,1-1.41,1.87,6,6,0,0,1-1.95,1.16A6.23,6.23,0,0,1,234.68,40.05Zm0-9.1a2.21,2.21,0,0,0,1.2-.33,2.56,2.56,0,0,0,.84-.89,2.68,2.68,0,0,0,0-2.5,2.39,2.39,0,0,0-.85-.88,2.35,2.35,0,0,0-1.21-.32,2.21,2.21,0,0,0-1.2.33,2.65,2.65,0,0,0-.84.89,2.47,2.47,0,0,0-.32,1.25,2.36,2.36,0,0,0,.33,1.23,2.59,2.59,0,0,0,.86.88A2.17,2.17,0,0,0,234.66,31Z"/><path class="cls-2" d="M249.36,35.11a6.21,6.21,0,0,1-2.34-.46,6.94,6.94,0,0,1-2.11-1.32,6.17,6.17,0,0,1-2.08-4.67,6.42,6.42,0,0,1,.52-2.52,6.75,6.75,0,0,1,1.41-2.06,6.67,6.67,0,0,1,2.07-1.41,6.08,6.08,0,0,1,2.48-.51,6.24,6.24,0,0,1,3.26.87,6.45,6.45,0,0,1,2.34,2.33,6.27,6.27,0,0,1,.87,3.28,6.17,6.17,0,0,1-.56,2.71,6.5,6.5,0,0,1-3.58,3.32A6.15,6.15,0,0,1,249.36,35.11Zm-.05-3.77a2.78,2.78,0,0,0,1.22-.3,2.67,2.67,0,0,0,1.05-.9,2.54,2.54,0,0,0,.43-1.53,2.77,2.77,0,0,0-.35-1.4,2.48,2.48,0,0,0-1-.94,2.94,2.94,0,0,0-1.41-.33,2.51,2.51,0,0,0-1.34.35,2.65,2.65,0,0,0-.95,1,2.7,2.7,0,0,0-.37,1.39,2.63,2.63,0,0,0,.42,1.51,2.47,2.47,0,0,0,1,.9A3,3,0,0,0,249.31,31.34Z"/><path class="cls-2" d="M259.68,34.89a2.48,2.48,0,0,1-1.31-.26,1.1,1.1,0,0,1-.48-.7,4.53,4.53,0,0,1-.08-.91v-8.8a4.13,4.13,0,0,1,.09-.89,1,1,0,0,1,.49-.66,2.56,2.56,0,0,1,1.32-.25,2.51,2.51,0,0,1,1.18.21,1,1,0,0,1,.48.51,1.54,1.54,0,0,1,.12.57.8.8,0,0,0,.05.36l-.15.47a1.43,1.43,0,0,1,.39-.76,3.47,3.47,0,0,1,.84-.7,4.81,4.81,0,0,1,1.11-.49,4.23,4.23,0,0,1,1.16-.17,5.05,5.05,0,0,1,2.14.44,4.29,4.29,0,0,1,1.58,1.26,6,6,0,0,1,1,1.94,8.23,8.23,0,0,1,.33,2.44v4.55a4.46,4.46,0,0,1-.09.91,1,1,0,0,1-.47.69,2.7,2.7,0,0,1-1.34.25,2.41,2.41,0,0,1-1.32-.27,1,1,0,0,1-.49-.7,4.46,4.46,0,0,1-.09-.91V28.5a2.78,2.78,0,0,0-.26-1.28,1.76,1.76,0,0,0-.75-.8,2.46,2.46,0,0,0-1.21-.28,2.59,2.59,0,0,0-1.25.29,2,2,0,0,0-.81.81,2.59,2.59,0,0,0-.29,1.25V33a4.63,4.63,0,0,1-.09.92,1,1,0,0,1-.48.68A2.47,2.47,0,0,1,259.68,34.89Z"/><path class="cls-2" d="M282.58,34.91a2.3,2.3,0,0,1-1.37-.33.89.89,0,0,1-.43-.8l.25-.43a2.73,2.73,0,0,1-.57.62,4.17,4.17,0,0,1-2.78.93,5,5,0,0,1-2.19-.5A5.7,5.7,0,0,1,273.66,33a7,7,0,0,1-1.28-2,6.16,6.16,0,0,1-.47-2.38,5.82,5.82,0,0,1,.48-2.33,6.67,6.67,0,0,1,1.28-2A6.51,6.51,0,0,1,275.51,23a5,5,0,0,1,2.18-.5,4.09,4.09,0,0,1,1.57.27,4.15,4.15,0,0,1,1.09.61A3.43,3.43,0,0,1,281,24l-.22-.35a1,1,0,0,1,.44-.91,2.39,2.39,0,0,1,1.38-.31,2.24,2.24,0,0,1,1.29.28,1.07,1.07,0,0,1,.47.72,4.86,4.86,0,0,1,.09.95V33a4.7,4.7,0,0,1-.09.92,1.07,1.07,0,0,1-.48.71A2.37,2.37,0,0,1,282.58,34.91Zm-4.37-3.73a2.13,2.13,0,0,0,1.2-.34,2.57,2.57,0,0,0,.85-.91,2.61,2.61,0,0,0,.32-1.28,2.45,2.45,0,0,0-1.19-2.17,2.36,2.36,0,0,0-1.23-.33,2.42,2.42,0,0,0-1.26.34,2.53,2.53,0,0,0-.9.91,2.5,2.5,0,0,0-.34,1.3,2.34,2.34,0,0,0,.34,1.24,2.56,2.56,0,0,0,.92.9A2.59,2.59,0,0,0,278.21,31.18Z"/><path class="cls-2" d="M291.76,34.94a16.26,16.26,0,0,1-1.83-.1,3.7,3.7,0,0,1-1.35-.41,2.39,2.39,0,0,1-.9-.83,4,4,0,0,1-.52-1.38,10,10,0,0,1-.18-2.06V18.61a4,4,0,0,1,.1-.93,1.21,1.21,0,0,1,.49-.7,2.37,2.37,0,0,1,1.31-.27,2.34,2.34,0,0,1,1.29.27,1.2,1.2,0,0,1,.49.71,4.4,4.4,0,0,1,.1.92V30a6.12,6.12,0,0,0,0,.66.9.9,0,0,0,.16.41.49.49,0,0,0,.31.2,1.9,1.9,0,0,0,.52,0,2.55,2.55,0,0,1,.61.08.89.89,0,0,1,.54.45,2.53,2.53,0,0,1,.23,1.25,2.79,2.79,0,0,1-.23,1.3.89.89,0,0,1-.54.47A2.72,2.72,0,0,1,291.76,34.94Z"/><path class="cls-3" d="M125.23,34.84a2.46,2.46,0,0,1-1.31-.27,1.07,1.07,0,0,1-.5-.71,4.7,4.7,0,0,1-.09-.92V19.26a4.46,4.46,0,0,1,.09-.91,1.1,1.1,0,0,1,.49-.71,3.3,3.3,0,0,1,2.66,0,1.12,1.12,0,0,1,.48.71,5.49,5.49,0,0,1,.08.94V31.54H134a4.09,4.09,0,0,1,.8.08,1,1,0,0,1,.61.42,2.13,2.13,0,0,1,.23,1.15,2,2,0,0,1-.25,1.14,1,1,0,0,1-.61.44,3.87,3.87,0,0,1-.79.07Z"/><path class="cls-3" d="M138.42,21.44a.82.82,0,0,1-.74-.25,2.63,2.63,0,0,1-.51-1,2,2,0,0,1-.1-1.3,1.38,1.38,0,0,1,.92-.67l4.4-1.35a.91.91,0,0,1,.73.29,2.4,2.4,0,0,1,.5,1,1.85,1.85,0,0,1,.08,1.27,1.3,1.3,0,0,1-.91.68Zm1,13.41a2.49,2.49,0,0,1-1.31-.27,1,1,0,0,1-.47-.7,4.46,4.46,0,0,1-.09-.91V24.24a4.53,4.53,0,0,1,.09-.91,1.08,1.08,0,0,1,.49-.7,2.59,2.59,0,0,1,1.33-.26,2.21,2.21,0,0,1,1.28.28,1.12,1.12,0,0,1,.48.71,4.64,4.64,0,0,1,.08.94V33a4.53,4.53,0,0,1-.09.91,1.08,1.08,0,0,1-.47.69A2.64,2.64,0,0,1,139.38,34.85Z"/><path class="cls-3" d="M145.61,34.82a2.45,2.45,0,0,1-1.31-.26,1.07,1.07,0,0,1-.48-.7,4.53,4.53,0,0,1-.09-.91v-8.8a4.19,4.19,0,0,1,.09-.89,1,1,0,0,1,.49-.66,3.52,3.52,0,0,1,2.5,0,1,1,0,0,1,.48.51,1.51,1.51,0,0,1,.11.57,1,1,0,0,0,.05.36l-.15.48a1.61,1.61,0,0,1,.39-.77,3.74,3.74,0,0,1,.85-.7,4.7,4.7,0,0,1,1.1-.48,4,4,0,0,1,1.17-.18,5,5,0,0,1,2.13.44,4.24,4.24,0,0,1,1.59,1.26,6,6,0,0,1,1,1.94,8.57,8.57,0,0,1,.33,2.44V33a4.46,4.46,0,0,1-.09.91,1.08,1.08,0,0,1-.47.69,2.59,2.59,0,0,1-1.34.25,2.47,2.47,0,0,1-1.33-.27,1,1,0,0,1-.48-.69,4.63,4.63,0,0,1-.09-.92V28.43a2.78,2.78,0,0,0-.26-1.28,1.81,1.81,0,0,0-.75-.8,2.46,2.46,0,0,0-1.21-.27,2.59,2.59,0,0,0-1.25.28,2,2,0,0,0-.81.81,2.48,2.48,0,0,0-.29,1.25V33a5.4,5.4,0,0,1-.08.91,1,1,0,0,1-.48.68A2.52,2.52,0,0,1,145.61,34.82Z"/><path class="cls-3" d="M164.51,35.09a7.49,7.49,0,0,1-3-.58A6,6,0,0,1,159.43,33a6.36,6.36,0,0,1-1.19-2.08,6.92,6.92,0,0,1-.4-2.3,6.45,6.45,0,0,1,.85-3.33A6,6,0,0,1,161.05,23a7,7,0,0,1,3.47-.84,6.25,6.25,0,0,1,2.51.46,5.23,5.23,0,0,1,1.75,1.2,5.11,5.11,0,0,1,1,1.59,4.33,4.33,0,0,1,.34,1.63,2.82,2.82,0,0,1-.67,2.05,2.25,2.25,0,0,1-1.68.67h-5.95a1.68,1.68,0,0,0,.46,1.07,2.69,2.69,0,0,0,1,.7,3.7,3.7,0,0,0,1.33.26,6.63,6.63,0,0,0,1-.07,4.49,4.49,0,0,0,.79-.17c.21-.08.41-.15.58-.23l.49-.18A1.78,1.78,0,0,1,168,31a1,1,0,0,1,.67.21,2,2,0,0,1,.57.71,1.75,1.75,0,0,1,.24.53,2.07,2.07,0,0,1,.06.5,1.32,1.32,0,0,1-.61,1.08,4.68,4.68,0,0,1-1.72.74A11.58,11.58,0,0,1,164.51,35.09Zm-2.67-7.41h3.95a1,1,0,0,0,.57-.14.62.62,0,0,0,.2-.54,1.23,1.23,0,0,0-.27-.77,1.7,1.7,0,0,0-.74-.54,2.8,2.8,0,0,0-1.09-.19,3,3,0,0,0-1.35.3,2.36,2.36,0,0,0-.93.8A1.84,1.84,0,0,0,161.84,27.68Z"/><path class="cls-3" d="M182.43,34.85a2.33,2.33,0,0,1-1.37-.33.92.92,0,0,1-.43-.8l.25-.42a3,3,0,0,1-.57.61,4.45,4.45,0,0,1-1.11.65,4.39,4.39,0,0,1-1.67.28,4.87,4.87,0,0,1-2.18-.5A5.63,5.63,0,0,1,173.51,33a7,7,0,0,1-1.27-2,6,6,0,0,1-.48-2.38,5.82,5.82,0,0,1,.48-2.33,6.51,6.51,0,0,1,1.29-2,6.42,6.42,0,0,1,1.84-1.36,4.9,4.9,0,0,1,2.17-.5,4.14,4.14,0,0,1,1.58.27,4.24,4.24,0,0,1,1.08.61,3.43,3.43,0,0,1,.66.67l-.22-.34a1.06,1.06,0,0,1,.44-.92,2.39,2.39,0,0,1,1.38-.31,2.22,2.22,0,0,1,1.29.28,1.11,1.11,0,0,1,.48.72,5.8,5.8,0,0,1,.08.95V33a4.7,4.7,0,0,1-.09.92,1.07,1.07,0,0,1-.48.71A2.35,2.35,0,0,1,182.43,34.85Zm-4.37-3.73a2.13,2.13,0,0,0,1.2-.34,2.57,2.57,0,0,0,.85-.91,2.52,2.52,0,0,0,.33-1.28,2.46,2.46,0,0,0-.33-1.28,2.4,2.4,0,0,0-.87-.89,2.36,2.36,0,0,0-1.23-.33,2.48,2.48,0,0,0-2.16,1.25,2.5,2.5,0,0,0-.34,1.3,2.34,2.34,0,0,0,.34,1.24,2.48,2.48,0,0,0,.92.9A2.59,2.59,0,0,0,178.06,31.12Z"/><path class="cls-3" d="M198.68,34.86a5.06,5.06,0,0,1-2.17-.49A5.9,5.9,0,0,1,194.68,33a6.7,6.7,0,0,1-1.26-2,6.3,6.3,0,0,1-.46-2.41,6.18,6.18,0,0,1,.46-2.34,6.5,6.5,0,0,1,1.28-2,6.4,6.4,0,0,1,1.84-1.37,4.74,4.74,0,0,1,2.15-.49,4.47,4.47,0,0,1,2.11.48,4.58,4.58,0,0,1,1.53,1.34,6.46,6.46,0,0,1,.93,2,9.08,9.08,0,0,1,.35,2.35,9.28,9.28,0,0,1-.3,2.4,6,6,0,0,1-.93,2,4.56,4.56,0,0,1-1.55,1.38A4.25,4.25,0,0,1,198.68,34.86Zm.5-3.7a2.31,2.31,0,0,0,1.22-.34,2.62,2.62,0,0,0,.87-.91,2.45,2.45,0,0,0,.34-1.28,2.54,2.54,0,0,0-.32-1.26,2.45,2.45,0,0,0-.88-.9,2.28,2.28,0,0,0-1.25-.34,2.42,2.42,0,0,0-1.24.33,2.26,2.26,0,0,0-.87.89,2.63,2.63,0,0,0-.31,1.28A2.49,2.49,0,0,0,198,30.82,2.41,2.41,0,0,0,199.18,31.16Zm4.35,3.72a2.34,2.34,0,0,1-1.26-.27,1.34,1.34,0,0,1-.54-.85V18.61a6.62,6.62,0,0,1,.06-.91,1.08,1.08,0,0,1,.44-.72,2.28,2.28,0,0,1,1.28-.27,2.47,2.47,0,0,1,1.32.26,1.19,1.19,0,0,1,.48.69,4.4,4.4,0,0,1,.1.92V33a4.56,4.56,0,0,1-.09.92,1.12,1.12,0,0,1-.48.71A2.35,2.35,0,0,1,203.53,34.88Z"/><path class="cls-3" d="M209.94,20.59a2.52,2.52,0,0,1-1.35-.28,1.09,1.09,0,0,1-.49-.72,4.87,4.87,0,0,1-.08-.95,5.86,5.86,0,0,1,.08-1,1.08,1.08,0,0,1,.51-.7,2.66,2.66,0,0,1,1.36-.26,2.42,2.42,0,0,1,1.32.28,1.09,1.09,0,0,1,.49.72,5,5,0,0,1,.09,1,4.63,4.63,0,0,1-.09.92,1.09,1.09,0,0,1-.49.72A2.65,2.65,0,0,1,209.94,20.59Zm0,14.3a2.43,2.43,0,0,1-1.32-.27,1,1,0,0,1-.48-.7,5.33,5.33,0,0,1-.07-.91V24.29a4.63,4.63,0,0,1,.09-.92,1.08,1.08,0,0,1,.49-.7,2.57,2.57,0,0,1,1.32-.26,2.24,2.24,0,0,1,1.29.28,1.12,1.12,0,0,1,.48.71,5.58,5.58,0,0,1,.08.94V33a4.46,4.46,0,0,1-.09.91,1.06,1.06,0,0,1-.48.69A2.47,2.47,0,0,1,209.93,34.89Z"/><path class="cls-3" d="M224.68,34.87a2.41,2.41,0,0,1-1.37-.32.93.93,0,0,1-.43-.8l.25-.43a2.72,2.72,0,0,1-.57.61,4.35,4.35,0,0,1-1.12.65,4.29,4.29,0,0,1-1.66.29,5,5,0,0,1-2.19-.5A6,6,0,0,1,215.76,33a7,7,0,0,1-1.28-2,6.2,6.2,0,0,1-.47-2.38,5.83,5.83,0,0,1,.48-2.34,6.34,6.34,0,0,1,1.29-2,6.15,6.15,0,0,1,1.83-1.36,4.84,4.84,0,0,1,2.18-.5,4.26,4.26,0,0,1,1.57.26,4.16,4.16,0,0,1,1.09.62,3.18,3.18,0,0,1,.66.67l-.22-.35a1,1,0,0,1,.44-.91,2.39,2.39,0,0,1,1.38-.31,2.34,2.34,0,0,1,1.29.27,1.16,1.16,0,0,1,.48.73,5.7,5.7,0,0,1,.08,1V33a4.73,4.73,0,0,1-.09.93,1.07,1.07,0,0,1-.48.71A2.45,2.45,0,0,1,224.68,34.87Zm-4.37-3.73a2.21,2.21,0,0,0,1.2-.33,2.6,2.6,0,0,0,.85-.92,2.48,2.48,0,0,0,.33-1.27,2.53,2.53,0,0,0-.33-1.29,2.56,2.56,0,0,0-.87-.89,2.45,2.45,0,0,0-1.23-.32,2.33,2.33,0,0,0-1.26.34,2.38,2.38,0,0,0-.9.91,2.45,2.45,0,0,0-.34,1.3,2.28,2.28,0,0,0,.34,1.23,2.51,2.51,0,0,0,.92.91A2.58,2.58,0,0,0,220.31,31.14Z"/><path class="cls-3" d="M234.23,34.58a5,5,0,0,1-2.16-.49,5.84,5.84,0,0,1-1.79-1.34,6.76,6.76,0,0,1-1.22-1.95,6.12,6.12,0,0,1-.45-2.33,6,6,0,0,1,.45-2.31,6.3,6.3,0,0,1,3-3.25,4.89,4.89,0,0,1,2.11-.48,3.71,3.71,0,0,1,1.9.44,3.2,3.2,0,0,1,1.25,1.25,6.13,6.13,0,0,1,.71,1.92,11.82,11.82,0,0,1,.24,2.49,11.33,11.33,0,0,1-.41,3.21,4.22,4.22,0,0,1-1.31,2.1A3.58,3.58,0,0,1,234.23,34.58Zm.45,5.47a6.9,6.9,0,0,1-1.76-.22,7.49,7.49,0,0,1-1.59-.6,4.46,4.46,0,0,1-1.15-.81,1.23,1.23,0,0,1-.43-.85,1.63,1.63,0,0,1,.16-.73,2.46,2.46,0,0,1,.45-.67,4.94,4.94,0,0,1,.6-.57.92.92,0,0,1,.6-.2,1,1,0,0,1,.62.19l.59.41a3.41,3.41,0,0,0,.79.41,3.14,3.14,0,0,0,1.2.19,2.24,2.24,0,0,0,.93-.19,2,2,0,0,0,.75-.54,2.89,2.89,0,0,0,.5-.85,2.94,2.94,0,0,0,.19-1.09V23.58a1.21,1.21,0,0,1,.51-.94,2.49,2.49,0,0,1,1.34-.29,2.21,2.21,0,0,1,1.25.27,1.06,1.06,0,0,1,.46.69,4.29,4.29,0,0,1,.09.9v9.87a5.88,5.88,0,0,1-.52,2.54,5.6,5.6,0,0,1-1.41,1.87,6,6,0,0,1-1.95,1.16A6.23,6.23,0,0,1,234.68,40.05Zm0-9.1a2.21,2.21,0,0,0,1.2-.33,2.56,2.56,0,0,0,.84-.89,2.68,2.68,0,0,0,0-2.5,2.39,2.39,0,0,0-.85-.88,2.35,2.35,0,0,0-1.21-.32,2.21,2.21,0,0,0-1.2.33,2.65,2.65,0,0,0-.84.89,2.47,2.47,0,0,0-.32,1.25,2.36,2.36,0,0,0,.33,1.23,2.59,2.59,0,0,0,.86.88A2.17,2.17,0,0,0,234.66,31Z"/><path class="cls-3" d="M249.36,35.11a6.21,6.21,0,0,1-2.34-.46,6.94,6.94,0,0,1-2.11-1.32,6.17,6.17,0,0,1-2.08-4.67,6.42,6.42,0,0,1,.52-2.52,6.75,6.75,0,0,1,1.41-2.06,6.67,6.67,0,0,1,2.07-1.41,6.08,6.08,0,0,1,2.48-.51,6.24,6.24,0,0,1,3.26.87,6.45,6.45,0,0,1,2.34,2.33,6.27,6.27,0,0,1,.87,3.28,6.17,6.17,0,0,1-.56,2.71,6.5,6.5,0,0,1-3.58,3.32A6.15,6.15,0,0,1,249.36,35.11Zm-.05-3.77a2.78,2.78,0,0,0,1.22-.3,2.67,2.67,0,0,0,1.05-.9,2.54,2.54,0,0,0,.43-1.53,2.77,2.77,0,0,0-.35-1.4,2.48,2.48,0,0,0-1-.94,2.94,2.94,0,0,0-1.41-.33,2.51,2.51,0,0,0-1.34.35,2.65,2.65,0,0,0-.95,1,2.7,2.7,0,0,0-.37,1.39,2.63,2.63,0,0,0,.42,1.51,2.47,2.47,0,0,0,1,.9A3,3,0,0,0,249.31,31.34Z"/><path class="cls-3" d="M259.68,34.89a2.48,2.48,0,0,1-1.31-.26,1.1,1.1,0,0,1-.48-.7,4.53,4.53,0,0,1-.08-.91v-8.8a4.13,4.13,0,0,1,.09-.89,1,1,0,0,1,.49-.66,2.56,2.56,0,0,1,1.32-.25,2.51,2.51,0,0,1,1.18.21,1,1,0,0,1,.48.51,1.54,1.54,0,0,1,.12.57.8.8,0,0,0,.05.36l-.15.47a1.43,1.43,0,0,1,.39-.76,3.47,3.47,0,0,1,.84-.7,4.81,4.81,0,0,1,1.11-.49,4.23,4.23,0,0,1,1.16-.17,5.05,5.05,0,0,1,2.14.44,4.29,4.29,0,0,1,1.58,1.26,6,6,0,0,1,1,1.94,8.23,8.23,0,0,1,.33,2.44v4.55a4.46,4.46,0,0,1-.09.91,1,1,0,0,1-.47.69,2.7,2.7,0,0,1-1.34.25,2.41,2.41,0,0,1-1.32-.27,1,1,0,0,1-.49-.7,4.46,4.46,0,0,1-.09-.91V28.5a2.78,2.78,0,0,0-.26-1.28,1.76,1.76,0,0,0-.75-.8,2.46,2.46,0,0,0-1.21-.28,2.59,2.59,0,0,0-1.25.29,2,2,0,0,0-.81.81,2.59,2.59,0,0,0-.29,1.25V33a4.63,4.63,0,0,1-.09.92,1,1,0,0,1-.48.68A2.47,2.47,0,0,1,259.68,34.89Z"/><path class="cls-3" d="M282.58,34.91a2.3,2.3,0,0,1-1.37-.33.89.89,0,0,1-.43-.8l.25-.43a2.73,2.73,0,0,1-.57.62,4.17,4.17,0,0,1-2.78.93,5,5,0,0,1-2.19-.5A5.7,5.7,0,0,1,273.66,33a7,7,0,0,1-1.28-2,6.16,6.16,0,0,1-.47-2.38,5.82,5.82,0,0,1,.48-2.33,6.67,6.67,0,0,1,1.28-2A6.51,6.51,0,0,1,275.51,23a5,5,0,0,1,2.18-.5,4.09,4.09,0,0,1,1.57.27,4.15,4.15,0,0,1,1.09.61A3.43,3.43,0,0,1,281,24l-.22-.35a1,1,0,0,1,.44-.91,2.39,2.39,0,0,1,1.38-.31,2.24,2.24,0,0,1,1.29.28,1.07,1.07,0,0,1,.47.72,4.86,4.86,0,0,1,.09.95V33a4.7,4.7,0,0,1-.09.92,1.07,1.07,0,0,1-.48.71A2.37,2.37,0,0,1,282.58,34.91Zm-4.37-3.73a2.13,2.13,0,0,0,1.2-.34,2.57,2.57,0,0,0,.85-.91,2.61,2.61,0,0,0,.32-1.28,2.45,2.45,0,0,0-1.19-2.17,2.36,2.36,0,0,0-1.23-.33,2.42,2.42,0,0,0-1.26.34,2.53,2.53,0,0,0-.9.91,2.5,2.5,0,0,0-.34,1.3,2.34,2.34,0,0,0,.34,1.24,2.56,2.56,0,0,0,.92.9A2.59,2.59,0,0,0,278.21,31.18Z"/><path class="cls-3" d="M291.76,34.94a16.26,16.26,0,0,1-1.83-.1,3.7,3.7,0,0,1-1.35-.41,2.39,2.39,0,0,1-.9-.83,4,4,0,0,1-.52-1.38,10,10,0,0,1-.18-2.06V18.61a4,4,0,0,1,.1-.93,1.21,1.21,0,0,1,.49-.7,2.37,2.37,0,0,1,1.31-.27,2.34,2.34,0,0,1,1.29.27,1.2,1.2,0,0,1,.49.71,4.4,4.4,0,0,1,.1.92V30a6.12,6.12,0,0,0,0,.66.9.9,0,0,0,.16.41.49.49,0,0,0,.31.2,1.9,1.9,0,0,0,.52,0,2.55,2.55,0,0,1,.61.08.89.89,0,0,1,.54.45,2.53,2.53,0,0,1,.23,1.25,2.79,2.79,0,0,1-.23,1.3.89.89,0,0,1-.54.47A2.72,2.72,0,0,1,291.76,34.94Z"/><path class="cls-2" d="M125.23,34.84a2.46,2.46,0,0,1-1.31-.27,1.07,1.07,0,0,1-.5-.71,4.7,4.7,0,0,1-.09-.92V19.26a4.46,4.46,0,0,1,.09-.91,1.1,1.1,0,0,1,.49-.71,3.3,3.3,0,0,1,2.66,0,1.12,1.12,0,0,1,.48.71,5.49,5.49,0,0,1,.08.94V31.54H134a4.09,4.09,0,0,1,.8.08,1,1,0,0,1,.61.42,2.13,2.13,0,0,1,.23,1.15,2,2,0,0,1-.25,1.14,1,1,0,0,1-.61.44,3.87,3.87,0,0,1-.79.07Z"/><path class="cls-2" d="M138.42,21.44a.82.82,0,0,1-.74-.25,2.63,2.63,0,0,1-.51-1,2,2,0,0,1-.1-1.3,1.38,1.38,0,0,1,.92-.67l4.4-1.35a.91.91,0,0,1,.73.29,2.4,2.4,0,0,1,.5,1,1.85,1.85,0,0,1,.08,1.27,1.3,1.3,0,0,1-.91.68Zm1,13.41a2.49,2.49,0,0,1-1.31-.27,1,1,0,0,1-.47-.7,4.46,4.46,0,0,1-.09-.91V24.24a4.53,4.53,0,0,1,.09-.91,1.08,1.08,0,0,1,.49-.7,2.59,2.59,0,0,1,1.33-.26,2.21,2.21,0,0,1,1.28.28,1.12,1.12,0,0,1,.48.71,4.64,4.64,0,0,1,.08.94V33a4.53,4.53,0,0,1-.09.91,1.08,1.08,0,0,1-.47.69A2.64,2.64,0,0,1,139.38,34.85Z"/><path class="cls-2" d="M145.61,34.82a2.45,2.45,0,0,1-1.31-.26,1.07,1.07,0,0,1-.48-.7,4.53,4.53,0,0,1-.09-.91v-8.8a4.19,4.19,0,0,1,.09-.89,1,1,0,0,1,.49-.66,3.52,3.52,0,0,1,2.5,0,1,1,0,0,1,.48.51,1.51,1.51,0,0,1,.11.57,1,1,0,0,0,.05.36l-.15.48a1.61,1.61,0,0,1,.39-.77,3.74,3.74,0,0,1,.85-.7,4.7,4.7,0,0,1,1.1-.48,4,4,0,0,1,1.17-.18,5,5,0,0,1,2.13.44,4.24,4.24,0,0,1,1.59,1.26,6,6,0,0,1,1,1.94,8.57,8.57,0,0,1,.33,2.44V33a4.46,4.46,0,0,1-.09.91,1.08,1.08,0,0,1-.47.69,2.59,2.59,0,0,1-1.34.25,2.47,2.47,0,0,1-1.33-.27,1,1,0,0,1-.48-.69,4.63,4.63,0,0,1-.09-.92V28.43a2.78,2.78,0,0,0-.26-1.28,1.81,1.81,0,0,0-.75-.8,2.46,2.46,0,0,0-1.21-.27,2.59,2.59,0,0,0-1.25.28,2,2,0,0,0-.81.81,2.48,2.48,0,0,0-.29,1.25V33a5.4,5.4,0,0,1-.08.91,1,1,0,0,1-.48.68A2.52,2.52,0,0,1,145.61,34.82Z"/><path class="cls-2" d="M164.51,35.09a7.49,7.49,0,0,1-3-.58A6,6,0,0,1,159.43,33a6.36,6.36,0,0,1-1.19-2.08,6.92,6.92,0,0,1-.4-2.3,6.45,6.45,0,0,1,.85-3.33A6,6,0,0,1,161.05,23a7,7,0,0,1,3.47-.84,6.25,6.25,0,0,1,2.51.46,5.23,5.23,0,0,1,1.75,1.2,5.11,5.11,0,0,1,1,1.59,4.33,4.33,0,0,1,.34,1.63,2.82,2.82,0,0,1-.67,2.05,2.25,2.25,0,0,1-1.68.67h-5.95a1.68,1.68,0,0,0,.46,1.07,2.69,2.69,0,0,0,1,.7,3.7,3.7,0,0,0,1.33.26,6.63,6.63,0,0,0,1-.07,4.49,4.49,0,0,0,.79-.17c.21-.08.41-.15.58-.23l.49-.18A1.78,1.78,0,0,1,168,31a1,1,0,0,1,.67.21,2,2,0,0,1,.57.71,1.75,1.75,0,0,1,.24.53,2.07,2.07,0,0,1,.06.5,1.32,1.32,0,0,1-.61,1.08,4.68,4.68,0,0,1-1.72.74A11.58,11.58,0,0,1,164.51,35.09Zm-2.67-7.41h3.95a1,1,0,0,0,.57-.14.62.62,0,0,0,.2-.54,1.23,1.23,0,0,0-.27-.77,1.7,1.7,0,0,0-.74-.54,2.8,2.8,0,0,0-1.09-.19,3,3,0,0,0-1.35.3,2.36,2.36,0,0,0-.93.8A1.84,1.84,0,0,0,161.84,27.68Z"/><path class="cls-2" d="M182.43,34.85a2.33,2.33,0,0,1-1.37-.33.92.92,0,0,1-.43-.8l.25-.42a3,3,0,0,1-.57.61,4.45,4.45,0,0,1-1.11.65,4.39,4.39,0,0,1-1.67.28,4.87,4.87,0,0,1-2.18-.5A5.63,5.63,0,0,1,173.51,33a7,7,0,0,1-1.27-2,6,6,0,0,1-.48-2.38,5.82,5.82,0,0,1,.48-2.33,6.51,6.51,0,0,1,1.29-2,6.42,6.42,0,0,1,1.84-1.36,4.9,4.9,0,0,1,2.17-.5,4.14,4.14,0,0,1,1.58.27,4.24,4.24,0,0,1,1.08.61,3.43,3.43,0,0,1,.66.67l-.22-.34a1.06,1.06,0,0,1,.44-.92,2.39,2.39,0,0,1,1.38-.31,2.22,2.22,0,0,1,1.29.28,1.11,1.11,0,0,1,.48.72,5.8,5.8,0,0,1,.08.95V33a4.7,4.7,0,0,1-.09.92,1.07,1.07,0,0,1-.48.71A2.35,2.35,0,0,1,182.43,34.85Zm-4.37-3.73a2.13,2.13,0,0,0,1.2-.34,2.57,2.57,0,0,0,.85-.91,2.52,2.52,0,0,0,.33-1.28,2.46,2.46,0,0,0-.33-1.28,2.4,2.4,0,0,0-.87-.89,2.36,2.36,0,0,0-1.23-.33,2.48,2.48,0,0,0-2.16,1.25,2.5,2.5,0,0,0-.34,1.3,2.34,2.34,0,0,0,.34,1.24,2.48,2.48,0,0,0,.92.9A2.59,2.59,0,0,0,178.06,31.12Z"/><path class="cls-2" d="M198.68,34.86a5.06,5.06,0,0,1-2.17-.49A5.9,5.9,0,0,1,194.68,33a6.7,6.7,0,0,1-1.26-2,6.3,6.3,0,0,1-.46-2.41,6.18,6.18,0,0,1,.46-2.34,6.5,6.5,0,0,1,1.28-2,6.4,6.4,0,0,1,1.84-1.37,4.74,4.74,0,0,1,2.15-.49,4.47,4.47,0,0,1,2.11.48,4.58,4.58,0,0,1,1.53,1.34,6.46,6.46,0,0,1,.93,2,9.08,9.08,0,0,1,.35,2.35,9.28,9.28,0,0,1-.3,2.4,6,6,0,0,1-.93,2,4.56,4.56,0,0,1-1.55,1.38A4.25,4.25,0,0,1,198.68,34.86Zm.5-3.7a2.31,2.31,0,0,0,1.22-.34,2.62,2.62,0,0,0,.87-.91,2.45,2.45,0,0,0,.34-1.28,2.54,2.54,0,0,0-.32-1.26,2.45,2.45,0,0,0-.88-.9,2.28,2.28,0,0,0-1.25-.34,2.42,2.42,0,0,0-1.24.33,2.26,2.26,0,0,0-.87.89,2.63,2.63,0,0,0-.31,1.28A2.49,2.49,0,0,0,198,30.82,2.41,2.41,0,0,0,199.18,31.16Zm4.35,3.72a2.34,2.34,0,0,1-1.26-.27,1.34,1.34,0,0,1-.54-.85V18.61a6.62,6.62,0,0,1,.06-.91,1.08,1.08,0,0,1,.44-.72,2.28,2.28,0,0,1,1.28-.27,2.47,2.47,0,0,1,1.32.26,1.19,1.19,0,0,1,.48.69,4.4,4.4,0,0,1,.1.92V33a4.56,4.56,0,0,1-.09.92,1.12,1.12,0,0,1-.48.71A2.35,2.35,0,0,1,203.53,34.88Z"/><path class="cls-2" d="M209.94,20.59a2.52,2.52,0,0,1-1.35-.28,1.09,1.09,0,0,1-.49-.72,4.87,4.87,0,0,1-.08-.95,5.86,5.86,0,0,1,.08-1,1.08,1.08,0,0,1,.51-.7,2.66,2.66,0,0,1,1.36-.26,2.42,2.42,0,0,1,1.32.28,1.09,1.09,0,0,1,.49.72,5,5,0,0,1,.09,1,4.63,4.63,0,0,1-.09.92,1.09,1.09,0,0,1-.49.72A2.65,2.65,0,0,1,209.94,20.59Zm0,14.3a2.43,2.43,0,0,1-1.32-.27,1,1,0,0,1-.48-.7,5.33,5.33,0,0,1-.07-.91V24.29a4.63,4.63,0,0,1,.09-.92,1.08,1.08,0,0,1,.49-.7,2.57,2.57,0,0,1,1.32-.26,2.24,2.24,0,0,1,1.29.28,1.12,1.12,0,0,1,.48.71,5.58,5.58,0,0,1,.08.94V33a4.46,4.46,0,0,1-.09.91,1.06,1.06,0,0,1-.48.69A2.47,2.47,0,0,1,209.93,34.89Z"/><path class="cls-2" d="M224.68,34.87a2.41,2.41,0,0,1-1.37-.32.93.93,0,0,1-.43-.8l.25-.43a2.72,2.72,0,0,1-.57.61,4.35,4.35,0,0,1-1.12.65,4.29,4.29,0,0,1-1.66.29,5,5,0,0,1-2.19-.5A6,6,0,0,1,215.76,33a7,7,0,0,1-1.28-2,6.2,6.2,0,0,1-.47-2.38,5.83,5.83,0,0,1,.48-2.34,6.34,6.34,0,0,1,1.29-2,6.15,6.15,0,0,1,1.83-1.36,4.84,4.84,0,0,1,2.18-.5,4.26,4.26,0,0,1,1.57.26,4.16,4.16,0,0,1,1.09.62,3.18,3.18,0,0,1,.66.67l-.22-.35a1,1,0,0,1,.44-.91,2.39,2.39,0,0,1,1.38-.31,2.34,2.34,0,0,1,1.29.27,1.16,1.16,0,0,1,.48.73,5.7,5.7,0,0,1,.08,1V33a4.73,4.73,0,0,1-.09.93,1.07,1.07,0,0,1-.48.71A2.45,2.45,0,0,1,224.68,34.87Zm-4.37-3.73a2.21,2.21,0,0,0,1.2-.33,2.6,2.6,0,0,0,.85-.92,2.48,2.48,0,0,0,.33-1.27,2.53,2.53,0,0,0-.33-1.29,2.56,2.56,0,0,0-.87-.89,2.45,2.45,0,0,0-1.23-.32,2.33,2.33,0,0,0-1.26.34,2.38,2.38,0,0,0-.9.91,2.45,2.45,0,0,0-.34,1.3,2.28,2.28,0,0,0,.34,1.23,2.51,2.51,0,0,0,.92.91A2.58,2.58,0,0,0,220.31,31.14Z"/><path class="cls-2" d="M234.23,34.58a5,5,0,0,1-2.16-.49,5.84,5.84,0,0,1-1.79-1.34,6.76,6.76,0,0,1-1.22-1.95,6.12,6.12,0,0,1-.45-2.33,6,6,0,0,1,.45-2.31,6.3,6.3,0,0,1,3-3.25,4.89,4.89,0,0,1,2.11-.48,3.71,3.71,0,0,1,1.9.44,3.2,3.2,0,0,1,1.25,1.25,6.13,6.13,0,0,1,.71,1.92,11.82,11.82,0,0,1,.24,2.49,11.33,11.33,0,0,1-.41,3.21,4.22,4.22,0,0,1-1.31,2.1A3.58,3.58,0,0,1,234.23,34.58Zm.45,5.47a6.9,6.9,0,0,1-1.76-.22,7.49,7.49,0,0,1-1.59-.6,4.46,4.46,0,0,1-1.15-.81,1.23,1.23,0,0,1-.43-.85,1.63,1.63,0,0,1,.16-.73,2.46,2.46,0,0,1,.45-.67,4.94,4.94,0,0,1,.6-.57.92.92,0,0,1,.6-.2,1,1,0,0,1,.62.19l.59.41a3.41,3.41,0,0,0,.79.41,3.14,3.14,0,0,0,1.2.19,2.24,2.24,0,0,0,.93-.19,2,2,0,0,0,.75-.54,2.89,2.89,0,0,0,.5-.85,2.94,2.94,0,0,0,.19-1.09V23.58a1.21,1.21,0,0,1,.51-.94,2.49,2.49,0,0,1,1.34-.29,2.21,2.21,0,0,1,1.25.27,1.06,1.06,0,0,1,.46.69,4.29,4.29,0,0,1,.09.9v9.87a5.88,5.88,0,0,1-.52,2.54,5.6,5.6,0,0,1-1.41,1.87,6,6,0,0,1-1.95,1.16A6.23,6.23,0,0,1,234.68,40.05Zm0-9.1a2.21,2.21,0,0,0,1.2-.33,2.56,2.56,0,0,0,.84-.89,2.68,2.68,0,0,0,0-2.5,2.39,2.39,0,0,0-.85-.88,2.35,2.35,0,0,0-1.21-.32,2.21,2.21,0,0,0-1.2.33,2.65,2.65,0,0,0-.84.89,2.47,2.47,0,0,0-.32,1.25,2.36,2.36,0,0,0,.33,1.23,2.59,2.59,0,0,0,.86.88A2.17,2.17,0,0,0,234.66,31Z"/><path class="cls-2" d="M249.36,35.11a6.21,6.21,0,0,1-2.34-.46,6.94,6.94,0,0,1-2.11-1.32,6.17,6.17,0,0,1-2.08-4.67,6.42,6.42,0,0,1,.52-2.52,6.75,6.75,0,0,1,1.41-2.06,6.67,6.67,0,0,1,2.07-1.41,6.08,6.08,0,0,1,2.48-.51,6.24,6.24,0,0,1,3.26.87,6.45,6.45,0,0,1,2.34,2.33,6.27,6.27,0,0,1,.87,3.28,6.17,6.17,0,0,1-.56,2.71,6.5,6.5,0,0,1-3.58,3.32A6.15,6.15,0,0,1,249.36,35.11Zm-.05-3.77a2.78,2.78,0,0,0,1.22-.3,2.67,2.67,0,0,0,1.05-.9,2.54,2.54,0,0,0,.43-1.53,2.77,2.77,0,0,0-.35-1.4,2.48,2.48,0,0,0-1-.94,2.94,2.94,0,0,0-1.41-.33,2.51,2.51,0,0,0-1.34.35,2.65,2.65,0,0,0-.95,1,2.7,2.7,0,0,0-.37,1.39,2.63,2.63,0,0,0,.42,1.51,2.47,2.47,0,0,0,1,.9A3,3,0,0,0,249.31,31.34Z"/><path class="cls-2" d="M259.68,34.89a2.48,2.48,0,0,1-1.31-.26,1.1,1.1,0,0,1-.48-.7,4.53,4.53,0,0,1-.08-.91v-8.8a4.13,4.13,0,0,1,.09-.89,1,1,0,0,1,.49-.66,2.56,2.56,0,0,1,1.32-.25,2.51,2.51,0,0,1,1.18.21,1,1,0,0,1,.48.51,1.54,1.54,0,0,1,.12.57.8.8,0,0,0,.05.36l-.15.47a1.43,1.43,0,0,1,.39-.76,3.47,3.47,0,0,1,.84-.7,4.81,4.81,0,0,1,1.11-.49,4.23,4.23,0,0,1,1.16-.17,5.05,5.05,0,0,1,2.14.44,4.29,4.29,0,0,1,1.58,1.26,6,6,0,0,1,1,1.94,8.23,8.23,0,0,1,.33,2.44v4.55a4.46,4.46,0,0,1-.09.91,1,1,0,0,1-.47.69,2.7,2.7,0,0,1-1.34.25,2.41,2.41,0,0,1-1.32-.27,1,1,0,0,1-.49-.7,4.46,4.46,0,0,1-.09-.91V28.5a2.78,2.78,0,0,0-.26-1.28,1.76,1.76,0,0,0-.75-.8,2.46,2.46,0,0,0-1.21-.28,2.59,2.59,0,0,0-1.25.29,2,2,0,0,0-.81.81,2.59,2.59,0,0,0-.29,1.25V33a4.63,4.63,0,0,1-.09.92,1,1,0,0,1-.48.68A2.47,2.47,0,0,1,259.68,34.89Z"/><path class="cls-2" d="M282.58,34.91a2.3,2.3,0,0,1-1.37-.33.89.89,0,0,1-.43-.8l.25-.43a2.73,2.73,0,0,1-.57.62,4.17,4.17,0,0,1-2.78.93,5,5,0,0,1-2.19-.5A5.7,5.7,0,0,1,273.66,33a7,7,0,0,1-1.28-2,6.16,6.16,0,0,1-.47-2.38,5.82,5.82,0,0,1,.48-2.33,6.67,6.67,0,0,1,1.28-2A6.51,6.51,0,0,1,275.51,23a5,5,0,0,1,2.18-.5,4.09,4.09,0,0,1,1.57.27,4.15,4.15,0,0,1,1.09.61A3.43,3.43,0,0,1,281,24l-.22-.35a1,1,0,0,1,.44-.91,2.39,2.39,0,0,1,1.38-.31,2.24,2.24,0,0,1,1.29.28,1.07,1.07,0,0,1,.47.72,4.86,4.86,0,0,1,.09.95V33a4.7,4.7,0,0,1-.09.92,1.07,1.07,0,0,1-.48.71A2.37,2.37,0,0,1,282.58,34.91Zm-4.37-3.73a2.13,2.13,0,0,0,1.2-.34,2.57,2.57,0,0,0,.85-.91,2.61,2.61,0,0,0,.32-1.28,2.45,2.45,0,0,0-1.19-2.17,2.36,2.36,0,0,0-1.23-.33,2.42,2.42,0,0,0-1.26.34,2.53,2.53,0,0,0-.9.91,2.5,2.5,0,0,0-.34,1.3,2.34,2.34,0,0,0,.34,1.24,2.56,2.56,0,0,0,.92.9A2.59,2.59,0,0,0,278.21,31.18Z"/><path class="cls-2" d="M291.76,34.94a16.26,16.26,0,0,1-1.83-.1,3.7,3.7,0,0,1-1.35-.41,2.39,2.39,0,0,1-.9-.83,4,4,0,0,1-.52-1.38,10,10,0,0,1-.18-2.06V18.61a4,4,0,0,1,.1-.93,1.21,1.21,0,0,1,.49-.7,2.37,2.37,0,0,1,1.31-.27,2.34,2.34,0,0,1,1.29.27,1.2,1.2,0,0,1,.49.71,4.4,4.4,0,0,1,.1.92V30a6.12,6.12,0,0,0,0,.66.9.9,0,0,0,.16.41.49.49,0,0,0,.31.2,1.9,1.9,0,0,0,.52,0,2.55,2.55,0,0,1,.61.08.89.89,0,0,1,.54.45,2.53,2.53,0,0,1,.23,1.25,2.79,2.79,0,0,1-.23,1.3.89.89,0,0,1-.54.47A2.72,2.72,0,0,1,291.76,34.94Z"/><text class="cls-4" transform="matrix(0.97, 0, 0, 1, 40.3, 41.89)">1.2</text><text class="cls-5" transform="matrix(0.97, 0, 0, 1, 40.3, 41.89)">1.2</text></g></g></svg>