<svg xmlns="http://www.w3.org/2000/svg" viewBox="0 0 399.98 89.13"><defs><style>.cls-1{fill:#0468ad;}.cls-2{fill:#fff;}.cls-3,.cls-4{fill:none;stroke-width:5px;}.cls-3{stroke:#c8a927;stroke-linejoin:round;}.cls-4,.cls-5{font-size:42px;font-family:Coiny-Regular, Coiny;}.cls-4{stroke:#fff;}.cls-5{fill:#c8a927;}</style></defs><title>13t</title><g id="Layer_2" data-name="Layer 2"><g id="pestaña_identificativa" data-name="pestaña identificativa"><rect class="cls-1" width="399.98" height="89.13" rx="31.4"/><path class="cls-2" d="M140.27,32.2a3,3,0,0,1,.33,1.06,1.08,1.08,0,0,1-.26.77,3,3,0,0,1-.94.66,2,2,0,0,1-1.55.3,2.15,2.15,0,0,1-1-1.2l-4.89-10.25-4.88,10.25A2.23,2.23,0,0,1,126,35a2.18,2.18,0,0,1-1.54-.29,2.84,2.84,0,0,1-1-.64,1,1,0,0,1-.26-.8,3.1,3.1,0,0,1,.36-1.08l6.59-13.68a1.9,1.9,0,0,1,.74-.8,2,2,0,0,1,1-.3,2,2,0,0,1,.7.14,2.24,2.24,0,0,1,.59.39,2.18,2.18,0,0,1,.43.6Zm-12.54-1.44,1.55-3.22h5.32l1.55,3.23Z"/><path class="cls-2" d="M144,40a2.51,2.51,0,0,1-1.3-.26,1,1,0,0,1-.47-.68,4.91,4.91,0,0,1-.07-.88v-14a5.05,5.05,0,0,1,.08-.91,1.06,1.06,0,0,1,.46-.69,2.34,2.34,0,0,1,1.29-.27,2.87,2.87,0,0,1,1.24.22,1.33,1.33,0,0,1,.66.7v14.9a3.29,3.29,0,0,1-.07.9,1.11,1.11,0,0,1-.49.69A2.42,2.42,0,0,1,144,40Zm4.81-5.39a4.7,4.7,0,0,1-2.15-.49,4.49,4.49,0,0,1-1.54-1.33,6,6,0,0,1-.92-1.94A7.86,7.86,0,0,1,144,28.5a8.17,8.17,0,0,1,.33-2.34,6.3,6.3,0,0,1,.94-2,4.27,4.27,0,0,1,1.52-1.35,4.39,4.39,0,0,1,2.12-.49,4.91,4.91,0,0,1,2.15.5,6.36,6.36,0,0,1,1.83,1.37,6.4,6.4,0,0,1,1.74,4.36,6.06,6.06,0,0,1-.47,2.36,6.25,6.25,0,0,1-1.26,1.94A5.66,5.66,0,0,1,151,34.16,5.2,5.2,0,0,1,148.85,34.63Zm-.5-3.53a2.3,2.3,0,0,0,1.25-.34,2.59,2.59,0,0,0,.89-.91,2.59,2.59,0,0,0,0-2.55,2.47,2.47,0,0,0-3.36-.89,2.53,2.53,0,0,0-.88.9,2.67,2.67,0,0,0-.31,1.26,2.52,2.52,0,0,0,.33,1.28,2.38,2.38,0,0,0,.87.91A2.23,2.23,0,0,0,148.35,31.1Z"/><path class="cls-2" d="M161.42,34.86a16.21,16.21,0,0,1-1.82-.1,3.77,3.77,0,0,1-1.35-.4,2.42,2.42,0,0,1-.9-.84,4,4,0,0,1-.53-1.38,10.81,10.81,0,0,1-.17-2.06V18.53a4,4,0,0,1,.1-.93,1.17,1.17,0,0,1,.49-.7,2.35,2.35,0,0,1,1.31-.27,2.24,2.24,0,0,1,1.29.28,1.14,1.14,0,0,1,.48.7,3.82,3.82,0,0,1,.1.92V29.91a6.12,6.12,0,0,0,0,.66,1,1,0,0,0,.15.41.54.54,0,0,0,.31.2,2,2,0,0,0,.53.05,2.62,2.62,0,0,1,.61.08.89.89,0,0,1,.54.45,2.58,2.58,0,0,1,.22,1.25,2.81,2.81,0,0,1-.22,1.3.86.86,0,0,1-.54.47A2.74,2.74,0,0,1,161.42,34.86Z"/><path class="cls-2" d="M174.85,34.84a2.42,2.42,0,0,1-1.38-.32.9.9,0,0,1-.42-.8l.25-.43a2.59,2.59,0,0,1-.58.61,4.11,4.11,0,0,1-1.11.65,4.33,4.33,0,0,1-1.66.29,5,5,0,0,1-2.19-.5A6.17,6.17,0,0,1,165.92,33a7.27,7.27,0,0,1-1.27-2,6,6,0,0,1-.47-2.37,5.82,5.82,0,0,1,.47-2.34,6.72,6.72,0,0,1,1.29-2,6.19,6.19,0,0,1,1.84-1.36,4.8,4.8,0,0,1,2.17-.5,4.32,4.32,0,0,1,1.58.26,4.86,4.86,0,0,1,1.09.61,3.45,3.45,0,0,1,.66.68l-.23-.35a1.05,1.05,0,0,1,.44-.91,2.42,2.42,0,0,1,1.39-.31,2.34,2.34,0,0,1,1.29.27,1.15,1.15,0,0,1,.47.73,4.79,4.79,0,0,1,.09.95v8.62a5.64,5.64,0,0,1-.08.93,1.09,1.09,0,0,1-.48.71A2.5,2.5,0,0,1,174.85,34.84Zm-4.38-3.73a2.21,2.21,0,0,0,1.2-.33,2.63,2.63,0,0,0,.86-.92,2.58,2.58,0,0,0,.32-1.27,2.62,2.62,0,0,0-.32-1.29,2.5,2.5,0,0,0-.88-.89,2.51,2.51,0,0,0-2.49,0,2.5,2.5,0,0,0-1.23,2.21,2.36,2.36,0,0,0,.33,1.23,2.51,2.51,0,0,0,.93.9A2.48,2.48,0,0,0,170.47,31.11Z"/><path class="cls-2" d="M183.72,35.07a8,8,0,0,1-1.47-.15,8.55,8.55,0,0,1-1.54-.44,5.43,5.43,0,0,1-1.25-.67,1.28,1.28,0,0,1-.56-.89,1.24,1.24,0,0,1,0-.54,2.37,2.37,0,0,1,.23-.6,3.68,3.68,0,0,1,.43-.66.94.94,0,0,1,.44-.35,1.09,1.09,0,0,1,.59,0,3.59,3.59,0,0,1,.8.27l.82.4c.29.14.58.26.88.37A2.67,2.67,0,0,0,184,32a2.19,2.19,0,0,0,1.09-.22.64.64,0,0,0,.39-.58.61.61,0,0,0-.16-.45,1.27,1.27,0,0,0-.45-.3,4.1,4.1,0,0,0-.68-.24q-.39-.12-.81-.21c-.28-.07-.58-.15-.9-.25a7.89,7.89,0,0,1-1.19-.46,4,4,0,0,1-1.05-.71,3.13,3.13,0,0,1-.73-1.07,3.87,3.87,0,0,1-.28-1.57,3.54,3.54,0,0,1,.57-2.05,3.48,3.48,0,0,1,1.66-1.26,7.35,7.35,0,0,1,2.7-.43,6.79,6.79,0,0,1,.9.05,5.58,5.58,0,0,1,.89.17c.29.09.58.19.86.3a6.79,6.79,0,0,1,.85.43,1.1,1.1,0,0,1,.77,1,2,2,0,0,1-.42,1.25,2.17,2.17,0,0,1-.58.59.87.87,0,0,1-.62.13,3.7,3.7,0,0,1-.87-.34c-.3-.15-.63-.3-1-.43a2.63,2.63,0,0,0-1-.2,2,2,0,0,0-.73.11.94.94,0,0,0-.45.3.67.67,0,0,0-.15.44.69.69,0,0,0,.19.51,1.39,1.39,0,0,0,.51.31,7.54,7.54,0,0,0,.75.23l.93.2a10.66,10.66,0,0,1,1.38.34,4.44,4.44,0,0,1,1.3.61,3,3,0,0,1,.95,1.07A3.8,3.8,0,0,1,189,31a3.58,3.58,0,0,1-1.37,3A6.38,6.38,0,0,1,183.72,35.07Z"/><path class="cls-2" d="M192,22.58h2.75l3.45-.1a4.29,4.29,0,0,1,.9.09,1.08,1.08,0,0,1,.7.49,2.31,2.31,0,0,1,.28,1.32,2.27,2.27,0,0,1-.27,1.25,1.11,1.11,0,0,1-.68.51,3.43,3.43,0,0,1-.93.12l-3.27-.08-3,0a1.26,1.26,0,0,1-1-.46,2.55,2.55,0,0,1-.29-1.39A2.17,2.17,0,0,1,190.9,23,1.28,1.28,0,0,1,192,22.58Zm5.65,12.3a7.5,7.5,0,0,1-2.2-.28A3.32,3.32,0,0,1,193,32.29a6.66,6.66,0,0,1-.28-2.11V20.05a4.15,4.15,0,0,1,.09-.92,1.07,1.07,0,0,1,.49-.67,2.48,2.48,0,0,1,1.3-.26,2.39,2.39,0,0,1,1.3.28,1.12,1.12,0,0,1,.48.71,4.53,4.53,0,0,1,.09.91V30a2.12,2.12,0,0,0,.06.66.79.79,0,0,0,.18.39.72.72,0,0,0,.35.17,2.24,2.24,0,0,0,.55.05,5.48,5.48,0,0,1,1,.1,1.08,1.08,0,0,1,.66.46A2.13,2.13,0,0,1,199.5,33a2.3,2.3,0,0,1-.28,1.3,1,1,0,0,1-.71.48A6.71,6.71,0,0,1,197.6,34.88Z"/><path class="cls-2" d="M212.15,34.86a2.42,2.42,0,0,1-1.38-.32.9.9,0,0,1-.42-.8l.25-.43a2.59,2.59,0,0,1-.58.61,3.87,3.87,0,0,1-1.11.65,4.15,4.15,0,0,1-1.66.29,5,5,0,0,1-2.19-.5A6.17,6.17,0,0,1,203.22,33,7.21,7.21,0,0,1,202,31a6,6,0,0,1-.47-2.38,5.89,5.89,0,0,1,.47-2.34,6.85,6.85,0,0,1,1.29-2,6.37,6.37,0,0,1,1.84-1.36,4.93,4.93,0,0,1,2.17-.5,4.32,4.32,0,0,1,1.58.26,4.51,4.51,0,0,1,1.09.62,3.43,3.43,0,0,1,.66.67l-.23-.35a1.05,1.05,0,0,1,.44-.91,2.42,2.42,0,0,1,1.39-.31,2.34,2.34,0,0,1,1.29.27,1.15,1.15,0,0,1,.47.73,4.86,4.86,0,0,1,.09.95V33a5.64,5.64,0,0,1-.08.93,1.07,1.07,0,0,1-.48.71A2.41,2.41,0,0,1,212.15,34.86Zm-4.38-3.72a2.21,2.21,0,0,0,1.2-.34,2.6,2.6,0,0,0,1.18-2.19,2.62,2.62,0,0,0-.32-1.29,2.4,2.4,0,0,0-.88-.88,2.33,2.33,0,0,0-1.22-.33,2.39,2.39,0,0,0-1.27.34,2.61,2.61,0,0,0-.9.91,2.56,2.56,0,0,0-.33,1.3,2.42,2.42,0,0,0,.33,1.24,2.67,2.67,0,0,0,.93.9A2.58,2.58,0,0,0,207.77,31.14Z"/><path class="cls-2" d="M218.4,34.89a2.52,2.52,0,0,1-1.32-.26,1.12,1.12,0,0,1-.47-.71,4.73,4.73,0,0,1-.09-.93V24.27a4.45,4.45,0,0,1,.09-.93,1.07,1.07,0,0,1,.48-.69,2.59,2.59,0,0,1,1.33-.26,2.5,2.5,0,0,1,1.26.24,1.06,1.06,0,0,1,.49.55,2.08,2.08,0,0,1,.1.54l-.3.15a2,2,0,0,1,.26-.36,3.2,3.2,0,0,1,.59-.55,3.4,3.4,0,0,1,.91-.49,3.62,3.62,0,0,1,1.24-.2,4.55,4.55,0,0,1,.61,0,3,3,0,0,1,.7.15,2.47,2.47,0,0,1,.66.3,1.55,1.55,0,0,1,.49.46,1.14,1.14,0,0,1,.19.68,3,3,0,0,1-.48,1.73,1.41,1.41,0,0,1-1.2.72,2,2,0,0,1-.6-.07,1.13,1.13,0,0,1-.29-.15.93.93,0,0,0-.26-.15,1.68,1.68,0,0,0-.55-.06,2.34,2.34,0,0,0-.71.1,2.17,2.17,0,0,0-.63.31,1.54,1.54,0,0,0-.45.53,1.58,1.58,0,0,0-.16.71V33a4.63,4.63,0,0,1-.09.92,1,1,0,0,1-.49.68A2.58,2.58,0,0,1,218.4,34.89Z"/><path class="cls-3" d="M140.27,32.2a3,3,0,0,1,.33,1.06,1.08,1.08,0,0,1-.26.77,3,3,0,0,1-.94.66,2,2,0,0,1-1.55.3,2.15,2.15,0,0,1-1-1.2l-4.89-10.25-4.88,10.25A2.23,2.23,0,0,1,126,35a2.18,2.18,0,0,1-1.54-.29,2.84,2.84,0,0,1-1-.64,1,1,0,0,1-.26-.8,3.1,3.1,0,0,1,.36-1.08l6.59-13.68a1.9,1.9,0,0,1,.74-.8,2,2,0,0,1,1-.3,2,2,0,0,1,.7.14,2.24,2.24,0,0,1,.59.39,2.18,2.18,0,0,1,.43.6Zm-12.54-1.44,1.55-3.22h5.32l1.55,3.23Z"/><path class="cls-3" d="M144,40a2.51,2.51,0,0,1-1.3-.26,1,1,0,0,1-.47-.68,4.91,4.91,0,0,1-.07-.88v-14a5.05,5.05,0,0,1,.08-.91,1.06,1.06,0,0,1,.46-.69,2.34,2.34,0,0,1,1.29-.27,2.87,2.87,0,0,1,1.24.22,1.33,1.33,0,0,1,.66.7v14.9a3.29,3.29,0,0,1-.07.9,1.11,1.11,0,0,1-.49.69A2.42,2.42,0,0,1,144,40Zm4.81-5.39a4.7,4.7,0,0,1-2.15-.49,4.49,4.49,0,0,1-1.54-1.33,6,6,0,0,1-.92-1.94A7.86,7.86,0,0,1,144,28.5a8.17,8.17,0,0,1,.33-2.34,6.3,6.3,0,0,1,.94-2,4.27,4.27,0,0,1,1.52-1.35,4.39,4.39,0,0,1,2.12-.49,4.91,4.91,0,0,1,2.15.5,6.36,6.36,0,0,1,1.83,1.37,6.4,6.4,0,0,1,1.74,4.36,6.06,6.06,0,0,1-.47,2.36,6.25,6.25,0,0,1-1.26,1.94A5.66,5.66,0,0,1,151,34.16,5.2,5.2,0,0,1,148.85,34.63Zm-.5-3.53a2.3,2.3,0,0,0,1.25-.34,2.59,2.59,0,0,0,.89-.91,2.59,2.59,0,0,0,0-2.55,2.47,2.47,0,0,0-3.36-.89,2.53,2.53,0,0,0-.88.9,2.67,2.67,0,0,0-.31,1.26,2.52,2.52,0,0,0,.33,1.28,2.38,2.38,0,0,0,.87.91A2.23,2.23,0,0,0,148.35,31.1Z"/><path class="cls-3" d="M161.42,34.86a16.21,16.21,0,0,1-1.82-.1,3.77,3.77,0,0,1-1.35-.4,2.42,2.42,0,0,1-.9-.84,4,4,0,0,1-.53-1.38,10.81,10.81,0,0,1-.17-2.06V18.53a4,4,0,0,1,.1-.93,1.17,1.17,0,0,1,.49-.7,2.35,2.35,0,0,1,1.31-.27,2.24,2.24,0,0,1,1.29.28,1.14,1.14,0,0,1,.48.7,3.82,3.82,0,0,1,.1.92V29.91a6.12,6.12,0,0,0,0,.66,1,1,0,0,0,.15.41.54.54,0,0,0,.31.2,2,2,0,0,0,.53.05,2.62,2.62,0,0,1,.61.08.89.89,0,0,1,.54.45,2.58,2.58,0,0,1,.22,1.25,2.81,2.81,0,0,1-.22,1.3.86.86,0,0,1-.54.47A2.74,2.74,0,0,1,161.42,34.86Z"/><path class="cls-3" d="M174.85,34.84a2.42,2.42,0,0,1-1.38-.32.9.9,0,0,1-.42-.8l.25-.43a2.59,2.59,0,0,1-.58.61,4.11,4.11,0,0,1-1.11.65,4.33,4.33,0,0,1-1.66.29,5,5,0,0,1-2.19-.5A6.17,6.17,0,0,1,165.92,33a7.27,7.27,0,0,1-1.27-2,6,6,0,0,1-.47-2.37,5.82,5.82,0,0,1,.47-2.34,6.72,6.72,0,0,1,1.29-2,6.19,6.19,0,0,1,1.84-1.36,4.8,4.8,0,0,1,2.17-.5,4.32,4.32,0,0,1,1.58.26,4.86,4.86,0,0,1,1.09.61,3.45,3.45,0,0,1,.66.68l-.23-.35a1.05,1.05,0,0,1,.44-.91,2.42,2.42,0,0,1,1.39-.31,2.34,2.34,0,0,1,1.29.27,1.15,1.15,0,0,1,.47.73,4.79,4.79,0,0,1,.09.95v8.62a5.64,5.64,0,0,1-.08.93,1.09,1.09,0,0,1-.48.71A2.5,2.5,0,0,1,174.85,34.84Zm-4.38-3.73a2.21,2.21,0,0,0,1.2-.33,2.63,2.63,0,0,0,.86-.92,2.58,2.58,0,0,0,.32-1.27,2.62,2.62,0,0,0-.32-1.29,2.5,2.5,0,0,0-.88-.89,2.51,2.51,0,0,0-2.49,0,2.5,2.5,0,0,0-1.23,2.21,2.36,2.36,0,0,0,.33,1.23,2.51,2.51,0,0,0,.93.9A2.48,2.48,0,0,0,170.47,31.11Z"/><path class="cls-3" d="M183.72,35.07a8,8,0,0,1-1.47-.15,8.55,8.55,0,0,1-1.54-.44,5.43,5.43,0,0,1-1.25-.67,1.28,1.28,0,0,1-.56-.89,1.24,1.24,0,0,1,0-.54,2.37,2.37,0,0,1,.23-.6,3.68,3.68,0,0,1,.43-.66.94.94,0,0,1,.44-.35,1.09,1.09,0,0,1,.59,0,3.59,3.59,0,0,1,.8.27l.82.4c.29.14.58.26.88.37A2.67,2.67,0,0,0,184,32a2.19,2.19,0,0,0,1.09-.22.64.64,0,0,0,.39-.58.61.61,0,0,0-.16-.45,1.27,1.27,0,0,0-.45-.3,4.1,4.1,0,0,0-.68-.24q-.39-.12-.81-.21c-.28-.07-.58-.15-.9-.25a7.89,7.89,0,0,1-1.19-.46,4,4,0,0,1-1.05-.71,3.13,3.13,0,0,1-.73-1.07,3.87,3.87,0,0,1-.28-1.57,3.54,3.54,0,0,1,.57-2.05,3.48,3.48,0,0,1,1.66-1.26,7.35,7.35,0,0,1,2.7-.43,6.79,6.79,0,0,1,.9.05,5.58,5.58,0,0,1,.89.17c.29.09.58.19.86.3a6.79,6.79,0,0,1,.85.43,1.1,1.1,0,0,1,.77,1,2,2,0,0,1-.42,1.25,2.17,2.17,0,0,1-.58.59.87.87,0,0,1-.62.13,3.7,3.7,0,0,1-.87-.34c-.3-.15-.63-.3-1-.43a2.63,2.63,0,0,0-1-.2,2,2,0,0,0-.73.11.94.94,0,0,0-.45.3.67.67,0,0,0-.15.44.69.69,0,0,0,.19.51,1.39,1.39,0,0,0,.51.31,7.54,7.54,0,0,0,.75.23l.93.2a10.66,10.66,0,0,1,1.38.34,4.44,4.44,0,0,1,1.3.61,3,3,0,0,1,.95,1.07A3.8,3.8,0,0,1,189,31a3.58,3.58,0,0,1-1.37,3A6.38,6.38,0,0,1,183.72,35.07Z"/><path class="cls-3" d="M192,22.58h2.75l3.45-.1a4.29,4.29,0,0,1,.9.09,1.08,1.08,0,0,1,.7.49,2.31,2.31,0,0,1,.28,1.32,2.27,2.27,0,0,1-.27,1.25,1.11,1.11,0,0,1-.68.51,3.43,3.43,0,0,1-.93.12l-3.27-.08-3,0a1.26,1.26,0,0,1-1-.46,2.55,2.55,0,0,1-.29-1.39A2.17,2.17,0,0,1,190.9,23,1.28,1.28,0,0,1,192,22.58Zm5.65,12.3a7.5,7.5,0,0,1-2.2-.28A3.32,3.32,0,0,1,193,32.29a6.66,6.66,0,0,1-.28-2.11V20.05a4.15,4.15,0,0,1,.09-.92,1.07,1.07,0,0,1,.49-.67,2.48,2.48,0,0,1,1.3-.26,2.39,2.39,0,0,1,1.3.28,1.12,1.12,0,0,1,.48.71,4.53,4.53,0,0,1,.09.91V30a2.12,2.12,0,0,0,.06.66.79.79,0,0,0,.18.39.72.72,0,0,0,.35.17,2.24,2.24,0,0,0,.55.05,5.48,5.48,0,0,1,1,.1,1.08,1.08,0,0,1,.66.46A2.13,2.13,0,0,1,199.5,33a2.3,2.3,0,0,1-.28,1.3,1,1,0,0,1-.71.48A6.71,6.71,0,0,1,197.6,34.88Z"/><path class="cls-3" d="M212.15,34.86a2.42,2.42,0,0,1-1.38-.32.9.9,0,0,1-.42-.8l.25-.43a2.59,2.59,0,0,1-.58.61,3.87,3.87,0,0,1-1.11.65,4.15,4.15,0,0,1-1.66.29,5,5,0,0,1-2.19-.5A6.17,6.17,0,0,1,203.22,33,7.21,7.21,0,0,1,202,31a6,6,0,0,1-.47-2.38,5.89,5.89,0,0,1,.47-2.34,6.85,6.85,0,0,1,1.29-2,6.37,6.37,0,0,1,1.84-1.36,4.93,4.93,0,0,1,2.17-.5,4.32,4.32,0,0,1,1.58.26,4.51,4.51,0,0,1,1.09.62,3.43,3.43,0,0,1,.66.67l-.23-.35a1.05,1.05,0,0,1,.44-.91,2.42,2.42,0,0,1,1.39-.31,2.34,2.34,0,0,1,1.29.27,1.15,1.15,0,0,1,.47.73,4.86,4.86,0,0,1,.09.95V33a5.64,5.64,0,0,1-.08.93,1.07,1.07,0,0,1-.48.71A2.41,2.41,0,0,1,212.15,34.86Zm-4.38-3.72a2.21,2.21,0,0,0,1.2-.34,2.6,2.6,0,0,0,1.18-2.19,2.62,2.62,0,0,0-.32-1.29,2.4,2.4,0,0,0-.88-.88,2.33,2.33,0,0,0-1.22-.33,2.39,2.39,0,0,0-1.27.34,2.61,2.61,0,0,0-.9.91,2.56,2.56,0,0,0-.33,1.3,2.42,2.42,0,0,0,.33,1.24,2.67,2.67,0,0,0,.93.9A2.58,2.58,0,0,0,207.77,31.14Z"/><path class="cls-3" d="M218.4,34.89a2.52,2.52,0,0,1-1.32-.26,1.12,1.12,0,0,1-.47-.71,4.73,4.73,0,0,1-.09-.93V24.27a4.45,4.45,0,0,1,.09-.93,1.07,1.07,0,0,1,.48-.69,2.59,2.59,0,0,1,1.33-.26,2.5,2.5,0,0,1,1.26.24,1.06,1.06,0,0,1,.49.55,2.08,2.08,0,0,1,.1.54l-.3.15a2,2,0,0,1,.26-.36,3.2,3.2,0,0,1,.59-.55,3.4,3.4,0,0,1,.91-.49,3.62,3.62,0,0,1,1.24-.2,4.55,4.55,0,0,1,.61,0,3,3,0,0,1,.7.15,2.47,2.47,0,0,1,.66.3,1.55,1.55,0,0,1,.49.46,1.14,1.14,0,0,1,.19.68,3,3,0,0,1-.48,1.73,1.41,1.41,0,0,1-1.2.72,2,2,0,0,1-.6-.07,1.13,1.13,0,0,1-.29-.15.93.93,0,0,0-.26-.15,1.68,1.68,0,0,0-.55-.06,2.34,2.34,0,0,0-.71.1,2.17,2.17,0,0,0-.63.31,1.54,1.54,0,0,0-.45.53,1.58,1.58,0,0,0-.16.71V33a4.63,4.63,0,0,1-.09.92,1,1,0,0,1-.49.68A2.58,2.58,0,0,1,218.4,34.89Z"/><path class="cls-2" d="M140.27,32.2a3,3,0,0,1,.33,1.06,1.08,1.08,0,0,1-.26.77,3,3,0,0,1-.94.66,2,2,0,0,1-1.55.3,2.15,2.15,0,0,1-1-1.2l-4.89-10.25-4.88,10.25A2.23,2.23,0,0,1,126,35a2.18,2.18,0,0,1-1.54-.29,2.84,2.84,0,0,1-1-.64,1,1,0,0,1-.26-.8,3.1,3.1,0,0,1,.36-1.08l6.59-13.68a1.9,1.9,0,0,1,.74-.8,2,2,0,0,1,1-.3,2,2,0,0,1,.7.14,2.24,2.24,0,0,1,.59.39,2.18,2.18,0,0,1,.43.6Zm-12.54-1.44,1.55-3.22h5.32l1.55,3.23Z"/><path class="cls-2" d="M144,40a2.51,2.51,0,0,1-1.3-.26,1,1,0,0,1-.47-.68,4.91,4.91,0,0,1-.07-.88v-14a5.05,5.05,0,0,1,.08-.91,1.06,1.06,0,0,1,.46-.69,2.34,2.34,0,0,1,1.29-.27,2.87,2.87,0,0,1,1.24.22,1.33,1.33,0,0,1,.66.7v14.9a3.29,3.29,0,0,1-.07.9,1.11,1.11,0,0,1-.49.69A2.42,2.42,0,0,1,144,40Zm4.81-5.39a4.7,4.7,0,0,1-2.15-.49,4.49,4.49,0,0,1-1.54-1.33,6,6,0,0,1-.92-1.94A7.86,7.86,0,0,1,144,28.5a8.17,8.17,0,0,1,.33-2.34,6.3,6.3,0,0,1,.94-2,4.27,4.27,0,0,1,1.52-1.35,4.39,4.39,0,0,1,2.12-.49,4.91,4.91,0,0,1,2.15.5,6.36,6.36,0,0,1,1.83,1.37,6.4,6.4,0,0,1,1.74,4.36,6.06,6.06,0,0,1-.47,2.36,6.25,6.25,0,0,1-1.26,1.94A5.66,5.66,0,0,1,151,34.16,5.2,5.2,0,0,1,148.85,34.63Zm-.5-3.53a2.3,2.3,0,0,0,1.25-.34,2.59,2.59,0,0,0,.89-.91,2.59,2.59,0,0,0,0-2.55,2.47,2.47,0,0,0-3.36-.89,2.53,2.53,0,0,0-.88.9,2.67,2.67,0,0,0-.31,1.26,2.52,2.52,0,0,0,.33,1.28,2.38,2.38,0,0,0,.87.91A2.23,2.23,0,0,0,148.35,31.1Z"/><path class="cls-2" d="M161.42,34.86a16.21,16.21,0,0,1-1.82-.1,3.77,3.77,0,0,1-1.35-.4,2.42,2.42,0,0,1-.9-.84,4,4,0,0,1-.53-1.38,10.81,10.81,0,0,1-.17-2.06V18.53a4,4,0,0,1,.1-.93,1.17,1.17,0,0,1,.49-.7,2.35,2.35,0,0,1,1.31-.27,2.24,2.24,0,0,1,1.29.28,1.14,1.14,0,0,1,.48.7,3.82,3.82,0,0,1,.1.92V29.91a6.12,6.12,0,0,0,0,.66,1,1,0,0,0,.15.41.54.54,0,0,0,.31.2,2,2,0,0,0,.53.05,2.62,2.62,0,0,1,.61.08.89.89,0,0,1,.54.45,2.58,2.58,0,0,1,.22,1.25,2.81,2.81,0,0,1-.22,1.3.86.86,0,0,1-.54.47A2.74,2.74,0,0,1,161.42,34.86Z"/><path class="cls-2" d="M174.85,34.84a2.42,2.42,0,0,1-1.38-.32.9.9,0,0,1-.42-.8l.25-.43a2.59,2.59,0,0,1-.58.61,4.11,4.11,0,0,1-1.11.65,4.33,4.33,0,0,1-1.66.29,5,5,0,0,1-2.19-.5A6.17,6.17,0,0,1,165.92,33a7.27,7.27,0,0,1-1.27-2,6,6,0,0,1-.47-2.37,5.82,5.82,0,0,1,.47-2.34,6.72,6.72,0,0,1,1.29-2,6.19,6.19,0,0,1,1.84-1.36,4.8,4.8,0,0,1,2.17-.5,4.32,4.32,0,0,1,1.58.26,4.86,4.86,0,0,1,1.09.61,3.45,3.45,0,0,1,.66.68l-.23-.35a1.05,1.05,0,0,1,.44-.91,2.42,2.42,0,0,1,1.39-.31,2.34,2.34,0,0,1,1.29.27,1.15,1.15,0,0,1,.47.73,4.79,4.79,0,0,1,.09.95v8.62a5.64,5.64,0,0,1-.08.93,1.09,1.09,0,0,1-.48.71A2.5,2.5,0,0,1,174.85,34.84Zm-4.38-3.73a2.21,2.21,0,0,0,1.2-.33,2.63,2.63,0,0,0,.86-.92,2.58,2.58,0,0,0,.32-1.27,2.62,2.62,0,0,0-.32-1.29,2.5,2.5,0,0,0-.88-.89,2.51,2.51,0,0,0-2.49,0,2.5,2.5,0,0,0-1.23,2.21,2.36,2.36,0,0,0,.33,1.23,2.51,2.51,0,0,0,.93.9A2.48,2.48,0,0,0,170.47,31.11Z"/><path class="cls-2" d="M183.72,35.07a8,8,0,0,1-1.47-.15,8.55,8.55,0,0,1-1.54-.44,5.43,5.43,0,0,1-1.25-.67,1.28,1.28,0,0,1-.56-.89,1.24,1.24,0,0,1,0-.54,2.37,2.37,0,0,1,.23-.6,3.68,3.68,0,0,1,.43-.66.94.94,0,0,1,.44-.35,1.09,1.09,0,0,1,.59,0,3.59,3.59,0,0,1,.8.27l.82.4c.29.14.58.26.88.37A2.67,2.67,0,0,0,184,32a2.19,2.19,0,0,0,1.09-.22.64.64,0,0,0,.39-.58.61.61,0,0,0-.16-.45,1.27,1.27,0,0,0-.45-.3,4.1,4.1,0,0,0-.68-.24q-.39-.12-.81-.21c-.28-.07-.58-.15-.9-.25a7.89,7.89,0,0,1-1.19-.46,4,4,0,0,1-1.05-.71,3.13,3.13,0,0,1-.73-1.07,3.87,3.87,0,0,1-.28-1.57,3.54,3.54,0,0,1,.57-2.05,3.48,3.48,0,0,1,1.66-1.26,7.35,7.35,0,0,1,2.7-.43,6.79,6.79,0,0,1,.9.05,5.58,5.58,0,0,1,.89.17c.29.09.58.19.86.3a6.79,6.79,0,0,1,.85.43,1.1,1.1,0,0,1,.77,1,2,2,0,0,1-.42,1.25,2.17,2.17,0,0,1-.58.59.87.87,0,0,1-.62.13,3.7,3.7,0,0,1-.87-.34c-.3-.15-.63-.3-1-.43a2.63,2.63,0,0,0-1-.2,2,2,0,0,0-.73.11.94.94,0,0,0-.45.3.67.67,0,0,0-.15.44.69.69,0,0,0,.19.51,1.39,1.39,0,0,0,.51.31,7.54,7.54,0,0,0,.75.23l.93.2a10.66,10.66,0,0,1,1.38.34,4.44,4.44,0,0,1,1.3.61,3,3,0,0,1,.95,1.07A3.8,3.8,0,0,1,189,31a3.58,3.58,0,0,1-1.37,3A6.38,6.38,0,0,1,183.72,35.07Z"/><path class="cls-2" d="M192,22.58h2.75l3.45-.1a4.29,4.29,0,0,1,.9.09,1.08,1.08,0,0,1,.7.49,2.31,2.31,0,0,1,.28,1.32,2.27,2.27,0,0,1-.27,1.25,1.11,1.11,0,0,1-.68.51,3.43,3.43,0,0,1-.93.12l-3.27-.08-3,0a1.26,1.26,0,0,1-1-.46,2.55,2.55,0,0,1-.29-1.39A2.17,2.17,0,0,1,190.9,23,1.28,1.28,0,0,1,192,22.58Zm5.65,12.3a7.5,7.5,0,0,1-2.2-.28A3.32,3.32,0,0,1,193,32.29a6.66,6.66,0,0,1-.28-2.11V20.05a4.15,4.15,0,0,1,.09-.92,1.07,1.07,0,0,1,.49-.67,2.48,2.48,0,0,1,1.3-.26,2.39,2.39,0,0,1,1.3.28,1.12,1.12,0,0,1,.48.71,4.53,4.53,0,0,1,.09.91V30a2.12,2.12,0,0,0,.06.66.79.79,0,0,0,.18.39.72.72,0,0,0,.35.17,2.24,2.24,0,0,0,.55.05,5.48,5.48,0,0,1,1,.1,1.08,1.08,0,0,1,.66.46A2.13,2.13,0,0,1,199.5,33a2.3,2.3,0,0,1-.28,1.3,1,1,0,0,1-.71.48A6.71,6.71,0,0,1,197.6,34.88Z"/><path class="cls-2" d="M212.15,34.86a2.42,2.42,0,0,1-1.38-.32.9.9,0,0,1-.42-.8l.25-.43a2.59,2.59,0,0,1-.58.61,3.87,3.87,0,0,1-1.11.65,4.15,4.15,0,0,1-1.66.29,5,5,0,0,1-2.19-.5A6.17,6.17,0,0,1,203.22,33,7.21,7.21,0,0,1,202,31a6,6,0,0,1-.47-2.38,5.89,5.89,0,0,1,.47-2.34,6.85,6.85,0,0,1,1.29-2,6.37,6.37,0,0,1,1.84-1.36,4.93,4.93,0,0,1,2.17-.5,4.32,4.32,0,0,1,1.58.26,4.51,4.51,0,0,1,1.09.62,3.43,3.43,0,0,1,.66.67l-.23-.35a1.05,1.05,0,0,1,.44-.91,2.42,2.42,0,0,1,1.39-.31,2.34,2.34,0,0,1,1.29.27,1.15,1.15,0,0,1,.47.73,4.86,4.86,0,0,1,.09.95V33a5.64,5.64,0,0,1-.08.93,1.07,1.07,0,0,1-.48.71A2.41,2.41,0,0,1,212.15,34.86Zm-4.38-3.72a2.21,2.21,0,0,0,1.2-.34,2.6,2.6,0,0,0,1.18-2.19,2.62,2.62,0,0,0-.32-1.29,2.4,2.4,0,0,0-.88-.88,2.33,2.33,0,0,0-1.22-.33,2.39,2.39,0,0,0-1.27.34,2.61,2.61,0,0,0-.9.91,2.56,2.56,0,0,0-.33,1.3,2.42,2.42,0,0,0,.33,1.24,2.67,2.67,0,0,0,.93.9A2.58,2.58,0,0,0,207.77,31.14Z"/><path class="cls-2" d="M218.4,34.89a2.52,2.52,0,0,1-1.32-.26,1.12,1.12,0,0,1-.47-.71,4.73,4.73,0,0,1-.09-.93V24.27a4.45,4.45,0,0,1,.09-.93,1.07,1.07,0,0,1,.48-.69,2.59,2.59,0,0,1,1.33-.26,2.5,2.5,0,0,1,1.26.24,1.06,1.06,0,0,1,.49.55,2.08,2.08,0,0,1,.1.54l-.3.15a2,2,0,0,1,.26-.36,3.2,3.2,0,0,1,.59-.55,3.4,3.4,0,0,1,.91-.49,3.62,3.62,0,0,1,1.24-.2,4.55,4.55,0,0,1,.61,0,3,3,0,0,1,.7.15,2.47,2.47,0,0,1,.66.3,1.55,1.55,0,0,1,.49.46,1.14,1.14,0,0,1,.19.68,3,3,0,0,1-.48,1.73,1.41,1.41,0,0,1-1.2.72,2,2,0,0,1-.6-.07,1.13,1.13,0,0,1-.29-.15.93.93,0,0,0-.26-.15,1.68,1.68,0,0,0-.55-.06,2.34,2.34,0,0,0-.71.1,2.17,2.17,0,0,0-.63.31,1.54,1.54,0,0,0-.45.53,1.58,1.58,0,0,0-.16.71V33a4.63,4.63,0,0,1-.09.92,1,1,0,0,1-.49.68A2.58,2.58,0,0,1,218.4,34.89Z"/><text class="cls-4" transform="matrix(0.97, 0, 0, 1, 40.3, 38.89)">1.3</text><text class="cls-5" transform="matrix(0.97, 0, 0, 1, 40.3, 38.89)">1.3</text></g></g></svg>