<svg xmlns="http://www.w3.org/2000/svg" viewBox="0 0 399.98 86.33"><defs><style>.cls-1{fill:#a41010;}.cls-2{fill:#fff;}.cls-3,.cls-4{fill:none;stroke-width:5px;}.cls-3{stroke:#c8a927;stroke-linejoin:round;}.cls-4,.cls-5{font-size:42px;font-family:Coiny-Regular, Coiny;}.cls-4{stroke:#fff;}.cls-5{fill:#c8a927;}</style></defs><title>13tt</title><g id="Layer_2" data-name="Layer 2"><g id="pestaña_identificativa" data-name="pestaña identificativa"><rect class="cls-1" width="399.98" height="86.33" rx="32.4"/><path class="cls-2" d="M125.23,34.84a2.46,2.46,0,0,1-1.31-.27,1.07,1.07,0,0,1-.5-.71,4.7,4.7,0,0,1-.09-.92V19.26a4.46,4.46,0,0,1,.09-.91,1.1,1.1,0,0,1,.49-.71,3.3,3.3,0,0,1,2.66,0,1.12,1.12,0,0,1,.48.71,5.49,5.49,0,0,1,.08.94V31.54H134a4.09,4.09,0,0,1,.8.08,1,1,0,0,1,.61.42,2.13,2.13,0,0,1,.23,1.15,2,2,0,0,1-.25,1.14,1,1,0,0,1-.61.44,3.87,3.87,0,0,1-.79.07Z"/><path class="cls-2" d="M138.42,21.44a.82.82,0,0,1-.74-.25,2.63,2.63,0,0,1-.51-1,2,2,0,0,1-.1-1.3,1.38,1.38,0,0,1,.92-.67l4.4-1.35a.91.91,0,0,1,.73.29,2.53,2.53,0,0,1,.5,1,1.85,1.85,0,0,1,.08,1.27,1.32,1.32,0,0,1-.91.68Zm1,13.41a2.39,2.39,0,0,1-1.31-.27,1,1,0,0,1-.47-.7,4.46,4.46,0,0,1-.09-.91V24.24a4.53,4.53,0,0,1,.09-.91,1.08,1.08,0,0,1,.49-.7,2.59,2.59,0,0,1,1.33-.26,2.21,2.21,0,0,1,1.28.28,1.12,1.12,0,0,1,.48.71,4.64,4.64,0,0,1,.08.94V33a4.53,4.53,0,0,1-.09.91,1.06,1.06,0,0,1-.48.69A2.57,2.57,0,0,1,139.38,34.85Z"/><path class="cls-2" d="M145.61,34.82a2.36,2.36,0,0,1-1.31-.26,1.07,1.07,0,0,1-.48-.7,4.53,4.53,0,0,1-.09-.91v-8.8a4.13,4.13,0,0,1,.09-.89,1,1,0,0,1,.49-.66,3.52,3.52,0,0,1,2.5,0,1,1,0,0,1,.48.52,1.45,1.45,0,0,1,.12.56.84.84,0,0,0,0,.36l-.15.48a1.61,1.61,0,0,1,.39-.77,3.74,3.74,0,0,1,.85-.7,4.7,4.7,0,0,1,1.1-.48,4,4,0,0,1,1.17-.18,5,5,0,0,1,2.13.44,4.24,4.24,0,0,1,1.59,1.26,6.13,6.13,0,0,1,1,1.94,8.57,8.57,0,0,1,.33,2.44V33a4.46,4.46,0,0,1-.09.91,1.08,1.08,0,0,1-.47.69,3.62,3.62,0,0,1-2.67,0,1.06,1.06,0,0,1-.48-.71,4.46,4.46,0,0,1-.09-.91V28.43a2.78,2.78,0,0,0-.26-1.28,1.81,1.81,0,0,0-.75-.8,2.46,2.46,0,0,0-1.21-.27,2.59,2.59,0,0,0-1.25.28,2.09,2.09,0,0,0-.82.82,2.54,2.54,0,0,0-.28,1.25V33a5.4,5.4,0,0,1-.08.91,1,1,0,0,1-.48.68A2.52,2.52,0,0,1,145.61,34.82Z"/><path class="cls-2" d="M164.51,35.09a7.41,7.41,0,0,1-3-.58A5.9,5.9,0,0,1,159.43,33a6.36,6.36,0,0,1-1.19-2.08,6.92,6.92,0,0,1-.4-2.3,6.45,6.45,0,0,1,.85-3.33A6.09,6.09,0,0,1,161.05,23a7,7,0,0,1,3.47-.84,6.43,6.43,0,0,1,2.51.46,5.14,5.14,0,0,1,2.77,2.79,4.54,4.54,0,0,1,.34,1.63,2.78,2.78,0,0,1-.67,2.05,2.25,2.25,0,0,1-1.68.67h-5.95a1.68,1.68,0,0,0,.46,1.07,2.69,2.69,0,0,0,1,.7,3.5,3.5,0,0,0,1.33.25,6.7,6.7,0,0,0,1-.06,4.18,4.18,0,0,0,.78-.17c.22-.08.42-.15.59-.23l.49-.18A1.78,1.78,0,0,1,168,31a1,1,0,0,1,.67.21,2,2,0,0,1,.57.71,1.75,1.75,0,0,1,.24.53,2.07,2.07,0,0,1,.06.5,1.35,1.35,0,0,1-.61,1.09,4.83,4.83,0,0,1-1.73.73A11.42,11.42,0,0,1,164.51,35.09Zm-2.67-7.41h3.95a1,1,0,0,0,.57-.14c.14-.09.2-.27.2-.54a1.23,1.23,0,0,0-.27-.77,1.64,1.64,0,0,0-.74-.54,2.8,2.8,0,0,0-1.09-.19,3,3,0,0,0-1.35.3,2.28,2.28,0,0,0-.93.8A1.84,1.84,0,0,0,161.84,27.68Z"/><path class="cls-2" d="M182.43,34.85a2.33,2.33,0,0,1-1.37-.33.92.92,0,0,1-.43-.8l.25-.43a2.73,2.73,0,0,1-.57.62,4.66,4.66,0,0,1-1.12.65,4.3,4.3,0,0,1-1.66.28,4.87,4.87,0,0,1-2.18-.5A5.78,5.78,0,0,1,173.51,33a7.24,7.24,0,0,1-1.28-2,6.16,6.16,0,0,1-.47-2.38,5.82,5.82,0,0,1,.48-2.33,6.51,6.51,0,0,1,1.29-2,6.33,6.33,0,0,1,1.83-1.36,5,5,0,0,1,2.18-.5,4.05,4.05,0,0,1,1.57.27,4.15,4.15,0,0,1,1.09.61,3.43,3.43,0,0,1,.66.67l-.22-.34a1.06,1.06,0,0,1,.44-.92,2.39,2.39,0,0,1,1.38-.31,2.24,2.24,0,0,1,1.29.28,1.11,1.11,0,0,1,.48.72,5.8,5.8,0,0,1,.08.95V33a4.7,4.7,0,0,1-.09.92,1.09,1.09,0,0,1-.47.71A2.41,2.41,0,0,1,182.43,34.85Zm-4.37-3.73a2.13,2.13,0,0,0,1.2-.34,2.57,2.57,0,0,0,.85-.91,2.51,2.51,0,0,0,.33-1.27,2.48,2.48,0,0,0-.33-1.29,2.4,2.4,0,0,0-.87-.89,2.48,2.48,0,0,0-2.49,0,2.46,2.46,0,0,0-.9.91,2.5,2.5,0,0,0-.34,1.3,2.34,2.34,0,0,0,.34,1.24,2.56,2.56,0,0,0,.92.9A2.49,2.49,0,0,0,178.06,31.12Z"/><path class="cls-2" d="M199.51,35a6.64,6.64,0,0,1-2.24-.41,7,7,0,0,1-2.1-1.22,5.92,5.92,0,0,1-1.54-2,6.32,6.32,0,0,1-.57-2.75,6,6,0,0,1,.58-2.72,6.09,6.09,0,0,1,1.52-2,7.08,7.08,0,0,1,2.09-1.21,6.61,6.61,0,0,1,2.21-.41,5.66,5.66,0,0,1,2.92.73,3.77,3.77,0,0,1,.73.52,7.31,7.31,0,0,1,.75.65,1.05,1.05,0,0,1,.3.85,1.43,1.43,0,0,1-.17.57,4.41,4.41,0,0,1-.38.58c-.51.7-1,1-1.5.95a2.27,2.27,0,0,1-.69-.25l-.6-.35a5,5,0,0,0-.61-.31,1.89,1.89,0,0,0-.75-.14,2.5,2.5,0,0,0-1.3.34,2.57,2.57,0,0,0,0,4.42,2.33,2.33,0,0,0,1.26.34,2.28,2.28,0,0,0,.72-.1,2.06,2.06,0,0,0,.56-.24l.34-.21.58-.36a1.05,1.05,0,0,1,.55-.16,1.28,1.28,0,0,1,.74.26,4.7,4.7,0,0,1,.81.84,2.17,2.17,0,0,1,.49,1,1.22,1.22,0,0,1-.22.87,2.57,2.57,0,0,1-.85.76,3.69,3.69,0,0,1-.71.45,7.21,7.21,0,0,1-1.25.5A5.7,5.7,0,0,1,199.51,35Z"/><path class="cls-2" d="M211.83,34.86a5.2,5.2,0,0,1-2.17-.45,5.33,5.33,0,0,1-1.75-1.26,5.69,5.69,0,0,1-1.16-1.93,6.62,6.62,0,0,1-.41-2.44V24.26a4.42,4.42,0,0,1,.09-.92,1.06,1.06,0,0,1,.48-.7,2.37,2.37,0,0,1,1.33-.28,2.27,2.27,0,0,1,1.31.28,1.12,1.12,0,0,1,.48.71,5.49,5.49,0,0,1,.08.94v4.5a2.92,2.92,0,0,0,.26,1.26,1.75,1.75,0,0,0,.78.81,2.43,2.43,0,0,0,1.21.28,2.53,2.53,0,0,0,1.24-.29,2.08,2.08,0,0,0,.8-.81,2.59,2.59,0,0,0,.29-1.25V24.24a4.42,4.42,0,0,1,.09-.92,1,1,0,0,1,.48-.69,2.49,2.49,0,0,1,1.33-.26,2.37,2.37,0,0,1,1.31.27,1.14,1.14,0,0,1,.48.72,5.31,5.31,0,0,1,.08.91v8.8a4.1,4.1,0,0,1-.09.88,1,1,0,0,1-.49.67,2.63,2.63,0,0,1-1.3.25,2.92,2.92,0,0,1-1.05-.15,1.31,1.31,0,0,1-.55-.38.94.94,0,0,1-.21-.47,2.57,2.57,0,0,1,0-.45l.33-.28a3.06,3.06,0,0,1-.33.39,5.22,5.22,0,0,1-.66.57,4.43,4.43,0,0,1-1,.54A3.4,3.4,0,0,1,211.83,34.86Z"/><path class="cls-2" d="M222.83,34.9a2.37,2.37,0,0,1-1.31-.27,1.07,1.07,0,0,1-.48-.71A5.64,5.64,0,0,1,221,33V24.27a4.59,4.59,0,0,1,.09-.93,1,1,0,0,1,.49-.68,2.47,2.47,0,0,1,1.32-.26,2.65,2.65,0,0,1,1.27.23,1.07,1.07,0,0,1,.48.55,1.73,1.73,0,0,1,.1.54l-.3.15a2.27,2.27,0,0,1,.27-.36,3.1,3.1,0,0,1,.58-.55,3.79,3.79,0,0,1,.92-.49,3.56,3.56,0,0,1,1.23-.2c.19,0,.39,0,.62,0a5.2,5.2,0,0,1,.7.15,3.32,3.32,0,0,1,.66.3,1.8,1.8,0,0,1,.49.46,1.23,1.23,0,0,1,.18.68,3.14,3.14,0,0,1-.47,1.74,1.42,1.42,0,0,1-1.2.71,2,2,0,0,1-.6-.06,1.54,1.54,0,0,1-.29-.15,1.1,1.1,0,0,0-.26-.15,1.42,1.42,0,0,0-.55-.07,2.84,2.84,0,0,0-.72.1,2.12,2.12,0,0,0-.62.31,1.63,1.63,0,0,0-.45.53,1.51,1.51,0,0,0-.16.71v5.48a4.53,4.53,0,0,1-.09.91,1,1,0,0,1-.48.69A2.71,2.71,0,0,1,222.83,34.9Z"/><path class="cls-2" d="M238,35a2.25,2.25,0,0,1-1-.22,1.45,1.45,0,0,1-.66-.7l-4.49-9a2,2,0,0,1-.26-1.49,2,2,0,0,1,1.13-1.06,2.43,2.43,0,0,1,1.52-.31c.37.09.71.49,1,1.19l2.79,6.5,2.81-6.42c.3-.72.64-1.14,1-1.25a2.21,2.21,0,0,1,1.56.32c.69.32,1.07.69,1.14,1.12a2.39,2.39,0,0,1-.31,1.46l-4.48,8.92a1.48,1.48,0,0,1-.65.7A2.22,2.22,0,0,1,238,35Z"/><path class="cls-2" d="M256.83,34.89a2.3,2.3,0,0,1-1.37-.33.9.9,0,0,1-.43-.79l.25-.43a2.72,2.72,0,0,1-.57.61,4.35,4.35,0,0,1-1.12.65,4.29,4.29,0,0,1-1.66.29,5,5,0,0,1-2.19-.5A6,6,0,0,1,247.91,33a7.07,7.07,0,0,1-1.28-2,6.15,6.15,0,0,1-.47-2.37,5.83,5.83,0,0,1,.48-2.34,6.34,6.34,0,0,1,1.29-2,6.15,6.15,0,0,1,1.83-1.36,4.84,4.84,0,0,1,2.18-.5,4.26,4.26,0,0,1,1.57.26,4.45,4.45,0,0,1,1.09.61,3.45,3.45,0,0,1,.66.68l-.22-.35a1.05,1.05,0,0,1,.44-.91,2.39,2.39,0,0,1,1.38-.31,2.34,2.34,0,0,1,1.29.27,1.14,1.14,0,0,1,.48.73,5.7,5.7,0,0,1,.08.95V33a4.73,4.73,0,0,1-.09.93,1.09,1.09,0,0,1-.48.71A2.45,2.45,0,0,1,256.83,34.89Zm-4.37-3.73a2.21,2.21,0,0,0,1.2-.33,2.6,2.6,0,0,0,.85-.92,2.48,2.48,0,0,0,.33-1.27,2.53,2.53,0,0,0-.33-1.29,2.56,2.56,0,0,0-.87-.89,2.45,2.45,0,0,0-1.23-.32,2.42,2.42,0,0,0-1.26.33,2.48,2.48,0,0,0-.9.92,2.45,2.45,0,0,0-.34,1.3,2.28,2.28,0,0,0,.34,1.23,2.41,2.41,0,0,0,.92.9A2.49,2.49,0,0,0,252.46,31.16Z"/><path class="cls-3" d="M125.23,34.84a2.46,2.46,0,0,1-1.31-.27,1.07,1.07,0,0,1-.5-.71,4.7,4.7,0,0,1-.09-.92V19.26a4.46,4.46,0,0,1,.09-.91,1.1,1.1,0,0,1,.49-.71,3.3,3.3,0,0,1,2.66,0,1.12,1.12,0,0,1,.48.71,5.49,5.49,0,0,1,.08.94V31.54H134a4.09,4.09,0,0,1,.8.08,1,1,0,0,1,.61.42,2.13,2.13,0,0,1,.23,1.15,2,2,0,0,1-.25,1.14,1,1,0,0,1-.61.44,3.87,3.87,0,0,1-.79.07Z"/><path class="cls-3" d="M138.42,21.44a.82.82,0,0,1-.74-.25,2.63,2.63,0,0,1-.51-1,2,2,0,0,1-.1-1.3,1.38,1.38,0,0,1,.92-.67l4.4-1.35a.91.91,0,0,1,.73.29,2.53,2.53,0,0,1,.5,1,1.85,1.85,0,0,1,.08,1.27,1.32,1.32,0,0,1-.91.68Zm1,13.41a2.39,2.39,0,0,1-1.31-.27,1,1,0,0,1-.47-.7,4.46,4.46,0,0,1-.09-.91V24.24a4.53,4.53,0,0,1,.09-.91,1.08,1.08,0,0,1,.49-.7,2.59,2.59,0,0,1,1.33-.26,2.21,2.21,0,0,1,1.28.28,1.12,1.12,0,0,1,.48.71,4.64,4.64,0,0,1,.08.94V33a4.53,4.53,0,0,1-.09.91,1.06,1.06,0,0,1-.48.69A2.57,2.57,0,0,1,139.38,34.85Z"/><path class="cls-3" d="M145.61,34.82a2.36,2.36,0,0,1-1.31-.26,1.07,1.07,0,0,1-.48-.7,4.53,4.53,0,0,1-.09-.91v-8.8a4.13,4.13,0,0,1,.09-.89,1,1,0,0,1,.49-.66,3.52,3.52,0,0,1,2.5,0,1,1,0,0,1,.48.52,1.45,1.45,0,0,1,.12.56.84.84,0,0,0,0,.36l-.15.48a1.61,1.61,0,0,1,.39-.77,3.74,3.74,0,0,1,.85-.7,4.7,4.7,0,0,1,1.1-.48,4,4,0,0,1,1.17-.18,5,5,0,0,1,2.13.44,4.24,4.24,0,0,1,1.59,1.26,6.13,6.13,0,0,1,1,1.94,8.57,8.57,0,0,1,.33,2.44V33a4.46,4.46,0,0,1-.09.91,1.08,1.08,0,0,1-.47.69,3.62,3.62,0,0,1-2.67,0,1.06,1.06,0,0,1-.48-.71,4.46,4.46,0,0,1-.09-.91V28.43a2.78,2.78,0,0,0-.26-1.28,1.81,1.81,0,0,0-.75-.8,2.46,2.46,0,0,0-1.21-.27,2.59,2.59,0,0,0-1.25.28,2.09,2.09,0,0,0-.82.82,2.54,2.54,0,0,0-.28,1.25V33a5.4,5.4,0,0,1-.08.91,1,1,0,0,1-.48.68A2.52,2.52,0,0,1,145.61,34.82Z"/><path class="cls-3" d="M164.51,35.09a7.41,7.41,0,0,1-3-.58A5.9,5.9,0,0,1,159.43,33a6.36,6.36,0,0,1-1.19-2.08,6.92,6.92,0,0,1-.4-2.3,6.45,6.45,0,0,1,.85-3.33A6.09,6.09,0,0,1,161.05,23a7,7,0,0,1,3.47-.84,6.43,6.43,0,0,1,2.51.46,5.14,5.14,0,0,1,2.77,2.79,4.54,4.54,0,0,1,.34,1.63,2.78,2.78,0,0,1-.67,2.05,2.25,2.25,0,0,1-1.68.67h-5.95a1.68,1.68,0,0,0,.46,1.07,2.69,2.69,0,0,0,1,.7,3.5,3.5,0,0,0,1.33.25,6.7,6.7,0,0,0,1-.06,4.18,4.18,0,0,0,.78-.17c.22-.08.42-.15.59-.23l.49-.18A1.78,1.78,0,0,1,168,31a1,1,0,0,1,.67.21,2,2,0,0,1,.57.71,1.75,1.75,0,0,1,.24.53,2.07,2.07,0,0,1,.06.5,1.35,1.35,0,0,1-.61,1.09,4.83,4.83,0,0,1-1.73.73A11.42,11.42,0,0,1,164.51,35.09Zm-2.67-7.41h3.95a1,1,0,0,0,.57-.14c.14-.09.2-.27.2-.54a1.23,1.23,0,0,0-.27-.77,1.64,1.64,0,0,0-.74-.54,2.8,2.8,0,0,0-1.09-.19,3,3,0,0,0-1.35.3,2.28,2.28,0,0,0-.93.8A1.84,1.84,0,0,0,161.84,27.68Z"/><path class="cls-3" d="M182.43,34.85a2.33,2.33,0,0,1-1.37-.33.92.92,0,0,1-.43-.8l.25-.43a2.73,2.73,0,0,1-.57.62,4.66,4.66,0,0,1-1.12.65,4.3,4.3,0,0,1-1.66.28,4.87,4.87,0,0,1-2.18-.5A5.78,5.78,0,0,1,173.51,33a7.24,7.24,0,0,1-1.28-2,6.16,6.16,0,0,1-.47-2.38,5.82,5.82,0,0,1,.48-2.33,6.51,6.51,0,0,1,1.29-2,6.33,6.33,0,0,1,1.83-1.36,5,5,0,0,1,2.18-.5,4.05,4.05,0,0,1,1.57.27,4.15,4.15,0,0,1,1.09.61,3.43,3.43,0,0,1,.66.67l-.22-.34a1.06,1.06,0,0,1,.44-.92,2.39,2.39,0,0,1,1.38-.31,2.24,2.24,0,0,1,1.29.28,1.11,1.11,0,0,1,.48.72,5.8,5.8,0,0,1,.08.95V33a4.7,4.7,0,0,1-.09.92,1.09,1.09,0,0,1-.47.71A2.41,2.41,0,0,1,182.43,34.85Zm-4.37-3.73a2.13,2.13,0,0,0,1.2-.34,2.57,2.57,0,0,0,.85-.91,2.51,2.51,0,0,0,.33-1.27,2.48,2.48,0,0,0-.33-1.29,2.4,2.4,0,0,0-.87-.89,2.48,2.48,0,0,0-2.49,0,2.46,2.46,0,0,0-.9.91,2.5,2.5,0,0,0-.34,1.3,2.34,2.34,0,0,0,.34,1.24,2.56,2.56,0,0,0,.92.9A2.49,2.49,0,0,0,178.06,31.12Z"/><path class="cls-3" d="M199.51,35a6.64,6.64,0,0,1-2.24-.41,7,7,0,0,1-2.1-1.22,5.92,5.92,0,0,1-1.54-2,6.32,6.32,0,0,1-.57-2.75,6,6,0,0,1,.58-2.72,6.09,6.09,0,0,1,1.52-2,7.08,7.08,0,0,1,2.09-1.21,6.61,6.61,0,0,1,2.21-.41,5.66,5.66,0,0,1,2.92.73,3.77,3.77,0,0,1,.73.52,7.31,7.31,0,0,1,.75.65,1.05,1.05,0,0,1,.3.85,1.43,1.43,0,0,1-.17.57,4.41,4.41,0,0,1-.38.58c-.51.7-1,1-1.5.95a2.27,2.27,0,0,1-.69-.25l-.6-.35a5,5,0,0,0-.61-.31,1.89,1.89,0,0,0-.75-.14,2.5,2.5,0,0,0-1.3.34,2.57,2.57,0,0,0,0,4.42,2.33,2.33,0,0,0,1.26.34,2.28,2.28,0,0,0,.72-.1,2.06,2.06,0,0,0,.56-.24l.34-.21.58-.36a1.05,1.05,0,0,1,.55-.16,1.28,1.28,0,0,1,.74.26,4.7,4.7,0,0,1,.81.84,2.17,2.17,0,0,1,.49,1,1.22,1.22,0,0,1-.22.87,2.57,2.57,0,0,1-.85.76,3.69,3.69,0,0,1-.71.45,7.21,7.21,0,0,1-1.25.5A5.7,5.7,0,0,1,199.51,35Z"/><path class="cls-3" d="M211.83,34.86a5.2,5.2,0,0,1-2.17-.45,5.33,5.33,0,0,1-1.75-1.26,5.69,5.69,0,0,1-1.16-1.93,6.62,6.62,0,0,1-.41-2.44V24.26a4.42,4.42,0,0,1,.09-.92,1.06,1.06,0,0,1,.48-.7,2.37,2.37,0,0,1,1.33-.28,2.27,2.27,0,0,1,1.31.28,1.12,1.12,0,0,1,.48.71,5.49,5.49,0,0,1,.08.94v4.5a2.92,2.92,0,0,0,.26,1.26,1.75,1.75,0,0,0,.78.81,2.43,2.43,0,0,0,1.21.28,2.53,2.53,0,0,0,1.24-.29,2.08,2.08,0,0,0,.8-.81,2.59,2.59,0,0,0,.29-1.25V24.24a4.42,4.42,0,0,1,.09-.92,1,1,0,0,1,.48-.69,2.49,2.49,0,0,1,1.33-.26,2.37,2.37,0,0,1,1.31.27,1.14,1.14,0,0,1,.48.72,5.31,5.31,0,0,1,.08.91v8.8a4.1,4.1,0,0,1-.09.88,1,1,0,0,1-.49.67,2.63,2.63,0,0,1-1.3.25,2.92,2.92,0,0,1-1.05-.15,1.31,1.31,0,0,1-.55-.38.94.94,0,0,1-.21-.47,2.57,2.57,0,0,1,0-.45l.33-.28a3.06,3.06,0,0,1-.33.39,5.22,5.22,0,0,1-.66.57,4.43,4.43,0,0,1-1,.54A3.4,3.4,0,0,1,211.83,34.86Z"/><path class="cls-3" d="M222.83,34.9a2.37,2.37,0,0,1-1.31-.27,1.07,1.07,0,0,1-.48-.71A5.64,5.64,0,0,1,221,33V24.27a4.59,4.59,0,0,1,.09-.93,1,1,0,0,1,.49-.68,2.47,2.47,0,0,1,1.32-.26,2.65,2.65,0,0,1,1.27.23,1.07,1.07,0,0,1,.48.55,1.73,1.73,0,0,1,.1.54l-.3.15a2.27,2.27,0,0,1,.27-.36,3.1,3.1,0,0,1,.58-.55,3.79,3.79,0,0,1,.92-.49,3.56,3.56,0,0,1,1.23-.2c.19,0,.39,0,.62,0a5.2,5.2,0,0,1,.7.15,3.32,3.32,0,0,1,.66.3,1.8,1.8,0,0,1,.49.46,1.23,1.23,0,0,1,.18.68,3.14,3.14,0,0,1-.47,1.74,1.42,1.42,0,0,1-1.2.71,2,2,0,0,1-.6-.06,1.54,1.54,0,0,1-.29-.15,1.1,1.1,0,0,0-.26-.15,1.42,1.42,0,0,0-.55-.07,2.84,2.84,0,0,0-.72.1,2.12,2.12,0,0,0-.62.31,1.63,1.63,0,0,0-.45.53,1.51,1.51,0,0,0-.16.71v5.48a4.53,4.53,0,0,1-.09.91,1,1,0,0,1-.48.69A2.71,2.71,0,0,1,222.83,34.9Z"/><path class="cls-3" d="M238,35a2.25,2.25,0,0,1-1-.22,1.45,1.45,0,0,1-.66-.7l-4.49-9a2,2,0,0,1-.26-1.49,2,2,0,0,1,1.13-1.06,2.43,2.43,0,0,1,1.52-.31c.37.09.71.49,1,1.19l2.79,6.5,2.81-6.42c.3-.72.64-1.14,1-1.25a2.21,2.21,0,0,1,1.56.32c.69.32,1.07.69,1.14,1.12a2.39,2.39,0,0,1-.31,1.46l-4.48,8.92a1.48,1.48,0,0,1-.65.7A2.22,2.22,0,0,1,238,35Z"/><path class="cls-3" d="M256.83,34.89a2.3,2.3,0,0,1-1.37-.33.9.9,0,0,1-.43-.79l.25-.43a2.72,2.72,0,0,1-.57.61,4.35,4.35,0,0,1-1.12.65,4.29,4.29,0,0,1-1.66.29,5,5,0,0,1-2.19-.5A6,6,0,0,1,247.91,33a7.07,7.07,0,0,1-1.28-2,6.15,6.15,0,0,1-.47-2.37,5.83,5.83,0,0,1,.48-2.34,6.34,6.34,0,0,1,1.29-2,6.15,6.15,0,0,1,1.83-1.36,4.84,4.84,0,0,1,2.18-.5,4.26,4.26,0,0,1,1.57.26,4.45,4.45,0,0,1,1.09.61,3.45,3.45,0,0,1,.66.68l-.22-.35a1.05,1.05,0,0,1,.44-.91,2.39,2.39,0,0,1,1.38-.31,2.34,2.34,0,0,1,1.29.27,1.14,1.14,0,0,1,.48.73,5.7,5.7,0,0,1,.08.95V33a4.73,4.73,0,0,1-.09.93,1.09,1.09,0,0,1-.48.71A2.45,2.45,0,0,1,256.83,34.89Zm-4.37-3.73a2.21,2.21,0,0,0,1.2-.33,2.6,2.6,0,0,0,.85-.92,2.48,2.48,0,0,0,.33-1.27,2.53,2.53,0,0,0-.33-1.29,2.56,2.56,0,0,0-.87-.89,2.45,2.45,0,0,0-1.23-.32,2.42,2.42,0,0,0-1.26.33,2.48,2.48,0,0,0-.9.92,2.45,2.45,0,0,0-.34,1.3,2.28,2.28,0,0,0,.34,1.23,2.41,2.41,0,0,0,.92.9A2.49,2.49,0,0,0,252.46,31.16Z"/><path class="cls-2" d="M125.23,34.84a2.46,2.46,0,0,1-1.31-.27,1.07,1.07,0,0,1-.5-.71,4.7,4.7,0,0,1-.09-.92V19.26a4.46,4.46,0,0,1,.09-.91,1.1,1.1,0,0,1,.49-.71,3.3,3.3,0,0,1,2.66,0,1.12,1.12,0,0,1,.48.71,5.49,5.49,0,0,1,.08.94V31.54H134a4.09,4.09,0,0,1,.8.08,1,1,0,0,1,.61.42,2.13,2.13,0,0,1,.23,1.15,2,2,0,0,1-.25,1.14,1,1,0,0,1-.61.44,3.87,3.87,0,0,1-.79.07Z"/><path class="cls-2" d="M138.42,21.44a.82.82,0,0,1-.74-.25,2.63,2.63,0,0,1-.51-1,2,2,0,0,1-.1-1.3,1.38,1.38,0,0,1,.92-.67l4.4-1.35a.91.91,0,0,1,.73.29,2.53,2.53,0,0,1,.5,1,1.85,1.85,0,0,1,.08,1.27,1.32,1.32,0,0,1-.91.68Zm1,13.41a2.39,2.39,0,0,1-1.31-.27,1,1,0,0,1-.47-.7,4.46,4.46,0,0,1-.09-.91V24.24a4.53,4.53,0,0,1,.09-.91,1.08,1.08,0,0,1,.49-.7,2.59,2.59,0,0,1,1.33-.26,2.21,2.21,0,0,1,1.28.28,1.12,1.12,0,0,1,.48.71,4.64,4.64,0,0,1,.08.94V33a4.53,4.53,0,0,1-.09.91,1.06,1.06,0,0,1-.48.69A2.57,2.57,0,0,1,139.38,34.85Z"/><path class="cls-2" d="M145.61,34.82a2.36,2.36,0,0,1-1.31-.26,1.07,1.07,0,0,1-.48-.7,4.53,4.53,0,0,1-.09-.91v-8.8a4.13,4.13,0,0,1,.09-.89,1,1,0,0,1,.49-.66,3.52,3.52,0,0,1,2.5,0,1,1,0,0,1,.48.52,1.45,1.45,0,0,1,.12.56.84.84,0,0,0,0,.36l-.15.48a1.61,1.61,0,0,1,.39-.77,3.74,3.74,0,0,1,.85-.7,4.7,4.7,0,0,1,1.1-.48,4,4,0,0,1,1.17-.18,5,5,0,0,1,2.13.44,4.24,4.24,0,0,1,1.59,1.26,6.13,6.13,0,0,1,1,1.94,8.57,8.57,0,0,1,.33,2.44V33a4.46,4.46,0,0,1-.09.91,1.08,1.08,0,0,1-.47.69,3.62,3.62,0,0,1-2.67,0,1.06,1.06,0,0,1-.48-.71,4.46,4.46,0,0,1-.09-.91V28.43a2.78,2.78,0,0,0-.26-1.28,1.81,1.81,0,0,0-.75-.8,2.46,2.46,0,0,0-1.21-.27,2.59,2.59,0,0,0-1.25.28,2.09,2.09,0,0,0-.82.82,2.54,2.54,0,0,0-.28,1.25V33a5.4,5.4,0,0,1-.08.91,1,1,0,0,1-.48.68A2.52,2.52,0,0,1,145.61,34.82Z"/><path class="cls-2" d="M164.51,35.09a7.41,7.41,0,0,1-3-.58A5.9,5.9,0,0,1,159.43,33a6.36,6.36,0,0,1-1.19-2.08,6.92,6.92,0,0,1-.4-2.3,6.45,6.45,0,0,1,.85-3.33A6.09,6.09,0,0,1,161.05,23a7,7,0,0,1,3.47-.84,6.43,6.43,0,0,1,2.51.46,5.14,5.14,0,0,1,2.77,2.79,4.54,4.54,0,0,1,.34,1.63,2.78,2.78,0,0,1-.67,2.05,2.25,2.25,0,0,1-1.68.67h-5.95a1.68,1.68,0,0,0,.46,1.07,2.69,2.69,0,0,0,1,.7,3.5,3.5,0,0,0,1.33.25,6.7,6.7,0,0,0,1-.06,4.18,4.18,0,0,0,.78-.17c.22-.08.42-.15.59-.23l.49-.18A1.78,1.78,0,0,1,168,31a1,1,0,0,1,.67.21,2,2,0,0,1,.57.71,1.75,1.75,0,0,1,.24.53,2.07,2.07,0,0,1,.06.5,1.35,1.35,0,0,1-.61,1.09,4.83,4.83,0,0,1-1.73.73A11.42,11.42,0,0,1,164.51,35.09Zm-2.67-7.41h3.95a1,1,0,0,0,.57-.14c.14-.09.2-.27.2-.54a1.23,1.23,0,0,0-.27-.77,1.64,1.64,0,0,0-.74-.54,2.8,2.8,0,0,0-1.09-.19,3,3,0,0,0-1.35.3,2.28,2.28,0,0,0-.93.8A1.84,1.84,0,0,0,161.84,27.68Z"/><path class="cls-2" d="M182.43,34.85a2.33,2.33,0,0,1-1.37-.33.92.92,0,0,1-.43-.8l.25-.43a2.73,2.73,0,0,1-.57.62,4.66,4.66,0,0,1-1.12.65,4.3,4.3,0,0,1-1.66.28,4.87,4.87,0,0,1-2.18-.5A5.78,5.78,0,0,1,173.51,33a7.24,7.24,0,0,1-1.28-2,6.16,6.16,0,0,1-.47-2.38,5.82,5.82,0,0,1,.48-2.33,6.51,6.51,0,0,1,1.29-2,6.33,6.33,0,0,1,1.83-1.36,5,5,0,0,1,2.18-.5,4.05,4.05,0,0,1,1.57.27,4.15,4.15,0,0,1,1.09.61,3.43,3.43,0,0,1,.66.67l-.22-.34a1.06,1.06,0,0,1,.44-.92,2.39,2.39,0,0,1,1.38-.31,2.24,2.24,0,0,1,1.29.28,1.11,1.11,0,0,1,.48.72,5.8,5.8,0,0,1,.08.95V33a4.7,4.7,0,0,1-.09.92,1.09,1.09,0,0,1-.47.71A2.41,2.41,0,0,1,182.43,34.85Zm-4.37-3.73a2.13,2.13,0,0,0,1.2-.34,2.57,2.57,0,0,0,.85-.91,2.51,2.51,0,0,0,.33-1.27,2.48,2.48,0,0,0-.33-1.29,2.4,2.4,0,0,0-.87-.89,2.48,2.48,0,0,0-2.49,0,2.46,2.46,0,0,0-.9.91,2.5,2.5,0,0,0-.34,1.3,2.34,2.34,0,0,0,.34,1.24,2.56,2.56,0,0,0,.92.9A2.49,2.49,0,0,0,178.06,31.12Z"/><path class="cls-2" d="M199.51,35a6.64,6.64,0,0,1-2.24-.41,7,7,0,0,1-2.1-1.22,5.92,5.92,0,0,1-1.54-2,6.32,6.32,0,0,1-.57-2.75,6,6,0,0,1,.58-2.72,6.09,6.09,0,0,1,1.52-2,7.08,7.08,0,0,1,2.09-1.21,6.61,6.61,0,0,1,2.21-.41,5.66,5.66,0,0,1,2.92.73,3.77,3.77,0,0,1,.73.52,7.31,7.31,0,0,1,.75.65,1.05,1.05,0,0,1,.3.85,1.43,1.43,0,0,1-.17.57,4.41,4.41,0,0,1-.38.58c-.51.7-1,1-1.5.95a2.27,2.27,0,0,1-.69-.25l-.6-.35a5,5,0,0,0-.61-.31,1.89,1.89,0,0,0-.75-.14,2.5,2.5,0,0,0-1.3.34,2.57,2.57,0,0,0,0,4.42,2.33,2.33,0,0,0,1.26.34,2.28,2.28,0,0,0,.72-.1,2.06,2.06,0,0,0,.56-.24l.34-.21.58-.36a1.05,1.05,0,0,1,.55-.16,1.28,1.28,0,0,1,.74.26,4.7,4.7,0,0,1,.81.84,2.17,2.17,0,0,1,.49,1,1.22,1.22,0,0,1-.22.87,2.57,2.57,0,0,1-.85.76,3.69,3.69,0,0,1-.71.45,7.21,7.21,0,0,1-1.25.5A5.7,5.7,0,0,1,199.51,35Z"/><path class="cls-2" d="M211.83,34.86a5.2,5.2,0,0,1-2.17-.45,5.33,5.33,0,0,1-1.75-1.26,5.69,5.69,0,0,1-1.16-1.93,6.62,6.62,0,0,1-.41-2.44V24.26a4.42,4.42,0,0,1,.09-.92,1.06,1.06,0,0,1,.48-.7,2.37,2.37,0,0,1,1.33-.28,2.27,2.27,0,0,1,1.31.28,1.12,1.12,0,0,1,.48.71,5.49,5.49,0,0,1,.08.94v4.5a2.92,2.92,0,0,0,.26,1.26,1.75,1.75,0,0,0,.78.81,2.43,2.43,0,0,0,1.21.28,2.53,2.53,0,0,0,1.24-.29,2.08,2.08,0,0,0,.8-.81,2.59,2.59,0,0,0,.29-1.25V24.24a4.42,4.42,0,0,1,.09-.92,1,1,0,0,1,.48-.69,2.49,2.49,0,0,1,1.33-.26,2.37,2.37,0,0,1,1.31.27,1.14,1.14,0,0,1,.48.72,5.31,5.31,0,0,1,.08.91v8.8a4.1,4.1,0,0,1-.09.88,1,1,0,0,1-.49.67,2.63,2.63,0,0,1-1.3.25,2.92,2.92,0,0,1-1.05-.15,1.31,1.31,0,0,1-.55-.38.94.94,0,0,1-.21-.47,2.57,2.57,0,0,1,0-.45l.33-.28a3.06,3.06,0,0,1-.33.39,5.22,5.22,0,0,1-.66.57,4.43,4.43,0,0,1-1,.54A3.4,3.4,0,0,1,211.83,34.86Z"/><path class="cls-2" d="M222.83,34.9a2.37,2.37,0,0,1-1.31-.27,1.07,1.07,0,0,1-.48-.71A5.64,5.64,0,0,1,221,33V24.27a4.59,4.59,0,0,1,.09-.93,1,1,0,0,1,.49-.68,2.47,2.47,0,0,1,1.32-.26,2.65,2.65,0,0,1,1.27.23,1.07,1.07,0,0,1,.48.55,1.73,1.73,0,0,1,.1.54l-.3.15a2.27,2.27,0,0,1,.27-.36,3.1,3.1,0,0,1,.58-.55,3.79,3.79,0,0,1,.92-.49,3.56,3.56,0,0,1,1.23-.2c.19,0,.39,0,.62,0a5.2,5.2,0,0,1,.7.15,3.32,3.32,0,0,1,.66.3,1.8,1.8,0,0,1,.49.46,1.23,1.23,0,0,1,.18.68,3.14,3.14,0,0,1-.47,1.74,1.42,1.42,0,0,1-1.2.71,2,2,0,0,1-.6-.06,1.54,1.54,0,0,1-.29-.15,1.1,1.1,0,0,0-.26-.15,1.42,1.42,0,0,0-.55-.07,2.84,2.84,0,0,0-.72.1,2.12,2.12,0,0,0-.62.31,1.63,1.63,0,0,0-.45.53,1.51,1.51,0,0,0-.16.71v5.48a4.53,4.53,0,0,1-.09.91,1,1,0,0,1-.48.69A2.71,2.71,0,0,1,222.83,34.9Z"/><path class="cls-2" d="M238,35a2.25,2.25,0,0,1-1-.22,1.45,1.45,0,0,1-.66-.7l-4.49-9a2,2,0,0,1-.26-1.49,2,2,0,0,1,1.13-1.06,2.43,2.43,0,0,1,1.52-.31c.37.09.71.49,1,1.19l2.79,6.5,2.81-6.42c.3-.72.64-1.14,1-1.25a2.21,2.21,0,0,1,1.56.32c.69.32,1.07.69,1.14,1.12a2.39,2.39,0,0,1-.31,1.46l-4.48,8.92a1.48,1.48,0,0,1-.65.7A2.22,2.22,0,0,1,238,35Z"/><path class="cls-2" d="M256.83,34.89a2.3,2.3,0,0,1-1.37-.33.9.9,0,0,1-.43-.79l.25-.43a2.72,2.72,0,0,1-.57.61,4.35,4.35,0,0,1-1.12.65,4.29,4.29,0,0,1-1.66.29,5,5,0,0,1-2.19-.5A6,6,0,0,1,247.91,33a7.07,7.07,0,0,1-1.28-2,6.15,6.15,0,0,1-.47-2.37,5.83,5.83,0,0,1,.48-2.34,6.34,6.34,0,0,1,1.29-2,6.15,6.15,0,0,1,1.83-1.36,4.84,4.84,0,0,1,2.18-.5,4.26,4.26,0,0,1,1.57.26,4.45,4.45,0,0,1,1.09.61,3.45,3.45,0,0,1,.66.68l-.22-.35a1.05,1.05,0,0,1,.44-.91,2.39,2.39,0,0,1,1.38-.31,2.34,2.34,0,0,1,1.29.27,1.14,1.14,0,0,1,.48.73,5.7,5.7,0,0,1,.08.95V33a4.73,4.73,0,0,1-.09.93,1.09,1.09,0,0,1-.48.71A2.45,2.45,0,0,1,256.83,34.89Zm-4.37-3.73a2.21,2.21,0,0,0,1.2-.33,2.6,2.6,0,0,0,.85-.92,2.48,2.48,0,0,0,.33-1.27,2.53,2.53,0,0,0-.33-1.29,2.56,2.56,0,0,0-.87-.89,2.45,2.45,0,0,0-1.23-.32,2.42,2.42,0,0,0-1.26.33,2.48,2.48,0,0,0-.9.92,2.45,2.45,0,0,0-.34,1.3,2.28,2.28,0,0,0,.34,1.23,2.41,2.41,0,0,0,.92.9A2.49,2.49,0,0,0,252.46,31.16Z"/><text class="cls-4" transform="matrix(0.97, 0, 0, 1, 40.3, 41.89)">1.3</text><text class="cls-5" transform="matrix(0.97, 0, 0, 1, 40.3, 41.89)">1.3</text></g></g></svg>