<svg xmlns="http://www.w3.org/2000/svg" viewBox="0 0 399.98 89.13"><defs><style>.cls-1{fill:#0468ad;}.cls-2{fill:#fff;}.cls-3,.cls-4{fill:none;stroke-width:5px;}.cls-3{stroke:#c8a927;stroke-linejoin:round;}.cls-4,.cls-6{font-size:42px;font-family:Coiny-Regular, Coiny;}.cls-4{stroke:#fff;}.cls-5{letter-spacing:-0.1em;}.cls-6{fill:#c8a927;}</style></defs><title>14t</title><g id="Layer_2" data-name="Layer 2"><g id="pestaña_identificativa" data-name="pestaña identificativa"><rect class="cls-1" width="399.98" height="89.13" rx="31.4"/><path class="cls-2" d="M132.67,36a8.52,8.52,0,0,1-2.32-.34,9.24,9.24,0,0,1-2.41-1.05,8.9,8.9,0,0,1-2.14-1.79,8.28,8.28,0,0,1-1.51-2.55,9.16,9.16,0,0,1-.56-3.33,8.78,8.78,0,0,1,.56-3.23,8.09,8.09,0,0,1,1.52-2.46,9,9,0,0,1,2.12-1.74,9.75,9.75,0,0,1,2.42-1,8.82,8.82,0,0,1,2.38-.34,7.48,7.48,0,0,1,2.23.3,8.68,8.68,0,0,1,1.54.63l.76.42a9.08,9.08,0,0,1,.85.65,1.24,1.24,0,0,1,.42.9,1.81,1.81,0,0,1-.11.6,2.61,2.61,0,0,1-.34.6,3.21,3.21,0,0,1-.77.84,1.25,1.25,0,0,1-.73.26,1.16,1.16,0,0,1-.57-.15,6.85,6.85,0,0,1-.65-.4c-.12-.08-.29-.19-.5-.31a3.69,3.69,0,0,0-.89-.34,5.78,5.78,0,0,0-3.15.15,5.23,5.23,0,0,0-1.64.92,4.58,4.58,0,0,0-1.2,1.59,5.3,5.3,0,0,0-.45,2.26,5,5,0,0,0,.46,2.25,4.69,4.69,0,0,0,1.21,1.58,5.29,5.29,0,0,0,1.64.94,5.15,5.15,0,0,0,1.73.31,4.73,4.73,0,0,0,1.28-.15,5,5,0,0,0,.93-.36c.26-.14.49-.27.67-.39L136,31a1.26,1.26,0,0,1,.59-.15,1.19,1.19,0,0,1,.71.27,3.44,3.44,0,0,1,.74.88,3.07,3.07,0,0,1,.34.64,1.87,1.87,0,0,1,.11.61,1.07,1.07,0,0,1-.41.86,7.19,7.19,0,0,1-.87.61l-.75.44a7.3,7.3,0,0,1-1.52.62A7.66,7.66,0,0,1,132.67,36Z"/><path class="cls-2" d="M146.05,35.82a5.25,5.25,0,0,1-2.18-.45,5.43,5.43,0,0,1-1.75-1.26A5.85,5.85,0,0,1,141,32.18a7.06,7.06,0,0,1-.41-2.44V25.22a4.42,4.42,0,0,1,.09-.92,1.08,1.08,0,0,1,.49-.7,2.35,2.35,0,0,1,1.32-.28,2.31,2.31,0,0,1,1.32.28,1.1,1.1,0,0,1,.47.71,4.62,4.62,0,0,1,.09.94v4.5a2.78,2.78,0,0,0,.26,1.26,1.73,1.73,0,0,0,.77.81,2.46,2.46,0,0,0,1.21.28,2.5,2.5,0,0,0,1.24-.29,2,2,0,0,0,.8-.81,2.59,2.59,0,0,0,.29-1.25V25.2a4.59,4.59,0,0,1,.09-.93,1,1,0,0,1,.49-.68,2.49,2.49,0,0,1,1.33-.26,2.39,2.39,0,0,1,1.31.27,1.13,1.13,0,0,1,.47.71,4.63,4.63,0,0,1,.09.92V34a4.88,4.88,0,0,1-.08.88,1.06,1.06,0,0,1-.49.67,2.63,2.63,0,0,1-1.3.25,2.92,2.92,0,0,1-1.05-.15,1.25,1.25,0,0,1-.55-.38.94.94,0,0,1-.21-.48,2.39,2.39,0,0,1,0-.44l.32-.28a3.74,3.74,0,0,1-.32.39,7.18,7.18,0,0,1-.66.57,4.28,4.28,0,0,1-1,.54A3.31,3.31,0,0,1,146.05,35.82Z"/><path class="cls-2" d="M160,35.86a16.21,16.21,0,0,1-1.82-.1,3.58,3.58,0,0,1-1.35-.41,2.39,2.39,0,0,1-.9-.83,4.19,4.19,0,0,1-.53-1.38,10.88,10.88,0,0,1-.17-2.06V19.53a4,4,0,0,1,.1-.93,1.17,1.17,0,0,1,.49-.7,2.35,2.35,0,0,1,1.31-.27,2.24,2.24,0,0,1,1.29.28,1.14,1.14,0,0,1,.48.7,3.82,3.82,0,0,1,.1.92V30.91a6.12,6.12,0,0,0,0,.66,1,1,0,0,0,.15.41.54.54,0,0,0,.31.2,2,2,0,0,0,.53,0,2.62,2.62,0,0,1,.61.08.89.89,0,0,1,.54.45,2.55,2.55,0,0,1,.22,1.25,2.81,2.81,0,0,1-.22,1.3.89.89,0,0,1-.54.47A2.74,2.74,0,0,1,160,35.86Z"/><path class="cls-2" d="M169.4,36.09a7.25,7.25,0,0,1-3-.58A5.88,5.88,0,0,1,164.32,34a6.4,6.4,0,0,1-1.19-2.09,6.88,6.88,0,0,1-.4-2.3,6.45,6.45,0,0,1,.85-3.33A6.09,6.09,0,0,1,165.94,24a7,7,0,0,1,3.46-.84,6.26,6.26,0,0,1,2.52.47,5.06,5.06,0,0,1,2.77,2.79A4.25,4.25,0,0,1,175,28a2.78,2.78,0,0,1-.67,2.05,2.25,2.25,0,0,1-1.68.67h-6a1.78,1.78,0,0,0,.47,1.08,2.81,2.81,0,0,0,1,.7,3.7,3.7,0,0,0,1.33.25,8.22,8.22,0,0,0,1-.06,4.3,4.3,0,0,0,.78-.18c.22-.07.42-.15.59-.22s.34-.14.49-.19a2.41,2.41,0,0,1,.43-.1,1,1,0,0,1,.67.21,1.94,1.94,0,0,1,.57.72,1.61,1.61,0,0,1,.24.52,2.14,2.14,0,0,1,.06.5,1.34,1.34,0,0,1-.61,1.09,4.68,4.68,0,0,1-1.72.73A11.06,11.06,0,0,1,169.4,36.09Zm-2.67-7.4h4a1,1,0,0,0,.57-.14c.14-.09.2-.27.2-.54a1.23,1.23,0,0,0-.27-.77,1.78,1.78,0,0,0-.74-.54,2.8,2.8,0,0,0-1.09-.19,3,3,0,0,0-1.35.3,2.47,2.47,0,0,0-.94.8A1.91,1.91,0,0,0,166.73,28.69Z"/><path class="cls-2" d="M179,35.87a2.28,2.28,0,0,1-1.3-.28,1.1,1.1,0,0,1-.49-.71,4.53,4.53,0,0,1-.09-.91V19.59a4.76,4.76,0,0,1,.09-.94,1,1,0,0,1,.49-.69,2.43,2.43,0,0,1,1.32-.27,2.26,2.26,0,0,1,1.28.28,1.08,1.08,0,0,1,.45.71,4.55,4.55,0,0,1,0,.91V34.74a1.31,1.31,0,0,1-.53.85A2.21,2.21,0,0,1,179,35.87Zm4.85,0a4.36,4.36,0,0,1-2.15-.52,4.46,4.46,0,0,1-1.54-1.39,6.22,6.22,0,0,1-.92-2,8.15,8.15,0,0,1-.29-2.4,8.34,8.34,0,0,1,.33-2.35,6.2,6.2,0,0,1,.94-2,4.25,4.25,0,0,1,3.64-1.82,4.7,4.7,0,0,1,2.14.5,6.24,6.24,0,0,1,1.84,1.36,6.33,6.33,0,0,1,1.27,2,6,6,0,0,1,.47,2.33,6.36,6.36,0,0,1-.47,2.42,6.83,6.83,0,0,1-1.26,2A5.87,5.87,0,0,1,186,35.36,5.06,5.06,0,0,1,183.8,35.85Zm-.5-3.71a2.29,2.29,0,0,0,1.25-.33,2.67,2.67,0,0,0,.89-.91,2.55,2.55,0,0,0,.34-1.28,2.51,2.51,0,0,0-.33-1.27,2.2,2.2,0,0,0-.89-.9,2.36,2.36,0,0,0-1.23-.33,2.43,2.43,0,0,0-2.12,1.24,2.61,2.61,0,0,0-.31,1.26,2.58,2.58,0,0,0,.32,1.27,2.51,2.51,0,0,0,.88.92A2.31,2.31,0,0,0,183.3,32.14Z"/><path class="cls-2" d="M193.57,35.88a2.39,2.39,0,0,1-1.31-.27,1.07,1.07,0,0,1-.48-.71,5.62,5.62,0,0,1-.08-.92V25.25a4.42,4.42,0,0,1,.09-.92,1,1,0,0,1,.49-.69,2.47,2.47,0,0,1,1.32-.26,2.52,2.52,0,0,1,1.27.24,1,1,0,0,1,.48.55,1.63,1.63,0,0,1,.1.53l-.3.15a3.91,3.91,0,0,1,.27-.36,3.47,3.47,0,0,1,.58-.55,3.79,3.79,0,0,1,.92-.49,3.56,3.56,0,0,1,1.23-.2c.19,0,.39,0,.62,0a5.2,5.2,0,0,1,.7.15,3.32,3.32,0,0,1,.66.3,1.69,1.69,0,0,1,.49.47,1.17,1.17,0,0,1,.18.67,3.14,3.14,0,0,1-.47,1.74,1.42,1.42,0,0,1-1.2.71,2,2,0,0,1-.6-.06.87.87,0,0,1-.29-.15A1.1,1.1,0,0,0,198,27a1.65,1.65,0,0,0-.55-.07,2.71,2.71,0,0,0-.71.1,1.88,1.88,0,0,0-.63.32,1.45,1.45,0,0,0-.61,1.23V34a5.4,5.4,0,0,1-.08.91,1.07,1.07,0,0,1-.49.69A2.71,2.71,0,0,1,193.57,35.88Z"/><path class="cls-2" d="M204.78,21.58a2.53,2.53,0,0,1-1.35-.27,1.14,1.14,0,0,1-.49-.73,5.7,5.7,0,0,1-.08-.95,5.64,5.64,0,0,1,.08-1,1.07,1.07,0,0,1,.5-.7,2.73,2.73,0,0,1,1.37-.26,2.43,2.43,0,0,1,1.32.27,1.14,1.14,0,0,1,.49.73,4.92,4.92,0,0,1,.09,1,4.73,4.73,0,0,1-.09.93,1.05,1.05,0,0,1-.49.71A2.54,2.54,0,0,1,204.78,21.58Zm0,14.3a2.42,2.42,0,0,1-1.32-.26,1,1,0,0,1-.48-.7,5.41,5.41,0,0,1-.07-.91V25.28a4.53,4.53,0,0,1,.09-.91,1.08,1.08,0,0,1,.49-.7,2.57,2.57,0,0,1,1.32-.26,2.34,2.34,0,0,1,1.29.27,1.17,1.17,0,0,1,.48.72,5.46,5.46,0,0,1,.08.93V34a4.56,4.56,0,0,1-.09.92,1,1,0,0,1-.48.68A2.47,2.47,0,0,1,204.77,35.88Z"/><path class="cls-2" d="M210.1,23.59h2.75l3.45-.1a4.29,4.29,0,0,1,.9.09,1.08,1.08,0,0,1,.7.49,2.31,2.31,0,0,1,.28,1.32,2.25,2.25,0,0,1-.27,1.25,1.11,1.11,0,0,1-.68.51,3.48,3.48,0,0,1-.93.12L213,27.19l-3,0a1.26,1.26,0,0,1-1-.46,2.55,2.55,0,0,1-.29-1.39,2.15,2.15,0,0,1,.35-1.34A1.28,1.28,0,0,1,210.1,23.59Zm5.65,12.3a7.5,7.5,0,0,1-2.2-.28,3.32,3.32,0,0,1-2.39-2.31,6.94,6.94,0,0,1-.29-2.11V21.06a4.15,4.15,0,0,1,.09-.92,1,1,0,0,1,.49-.66,3.21,3.21,0,0,1,2.6,0,1.12,1.12,0,0,1,.48.71,4.53,4.53,0,0,1,.09.91V31a2.42,2.42,0,0,0,.07.66.79.79,0,0,0,.18.39.83.83,0,0,0,.35.18,3,3,0,0,0,.55,0,4.07,4.07,0,0,1,1,.11,1,1,0,0,1,.66.45,2.13,2.13,0,0,1,.24,1.17,2.3,2.3,0,0,1-.28,1.3,1,1,0,0,1-.71.47A4.53,4.53,0,0,1,215.75,35.89Z"/><path class="cls-2" d="M230.3,35.87a2.42,2.42,0,0,1-1.38-.32.9.9,0,0,1-.42-.8l.25-.43a2.79,2.79,0,0,1-.58.62,4.26,4.26,0,0,1-2.77.93,5,5,0,0,1-2.19-.5A5.89,5.89,0,0,1,221.37,34a7,7,0,0,1-1.27-2,6.13,6.13,0,0,1,0-4.71,6.77,6.77,0,0,1,1.29-2,6.24,6.24,0,0,1,1.84-1.36,4.93,4.93,0,0,1,2.17-.5,4.32,4.32,0,0,1,1.58.26,4.51,4.51,0,0,1,1.09.62,3.43,3.43,0,0,1,.66.67l-.23-.35a1.05,1.05,0,0,1,.44-.91,2.4,2.4,0,0,1,1.39-.31,2.34,2.34,0,0,1,1.29.27,1.19,1.19,0,0,1,.47.73,4.86,4.86,0,0,1,.09,1V34a4.7,4.7,0,0,1-.09.92,1,1,0,0,1-.47.71A2.41,2.41,0,0,1,230.3,35.87Zm-4.38-3.72a2.21,2.21,0,0,0,1.2-.34,2.6,2.6,0,0,0,1.18-2.19,2.62,2.62,0,0,0-.32-1.29,2.4,2.4,0,0,0-.88-.88,2.33,2.33,0,0,0-1.22-.33,2.39,2.39,0,0,0-1.27.34,2.61,2.61,0,0,0-.9.91,2.68,2.68,0,0,0-.34,1.3,2.43,2.43,0,0,0,.34,1.24,2.6,2.6,0,0,0,2.21,1.24Z"/><path class="cls-2" d="M239.17,36.1A8,8,0,0,1,237.7,36a7.8,7.8,0,0,1-1.54-.44,5.07,5.07,0,0,1-1.25-.67,1.28,1.28,0,0,1-.56-.89,1.24,1.24,0,0,1,0-.54,2.37,2.37,0,0,1,.23-.6,4.56,4.56,0,0,1,.43-.66.94.94,0,0,1,.44-.35,1,1,0,0,1,.59,0,3.72,3.72,0,0,1,.8.26l.82.4c.29.14.58.27.88.38a2.66,2.66,0,0,0,.92.16,2.32,2.32,0,0,0,1.09-.21.65.65,0,0,0,.39-.59.69.69,0,0,0-.16-.45,1.27,1.27,0,0,0-.45-.3c-.2-.08-.42-.16-.68-.24l-.81-.21c-.29-.07-.58-.15-.9-.25a9.05,9.05,0,0,1-1.19-.45,4,4,0,0,1-1-.72,3.3,3.3,0,0,1-.74-1.07A4,4,0,0,1,234.7,27a3.29,3.29,0,0,1,2.23-3.32,7.35,7.35,0,0,1,2.7-.43c.3,0,.6,0,.9.05a4.68,4.68,0,0,1,.89.18,7.33,7.33,0,0,1,.86.3,7.42,7.42,0,0,1,.85.42c.5.24.76.55.77.95a2,2,0,0,1-.42,1.25,2.17,2.17,0,0,1-.58.59.93.93,0,0,1-.62.14,4.2,4.2,0,0,1-.87-.34,9.53,9.53,0,0,0-1-.44,2.84,2.84,0,0,0-1-.2,2.2,2.2,0,0,0-.73.11,1.11,1.11,0,0,0-.45.3.69.69,0,0,0-.15.44.66.66,0,0,0,.19.51,1.27,1.27,0,0,0,.51.31,5.58,5.58,0,0,0,.75.23l.92.2a12.22,12.22,0,0,1,1.39.34,4.44,4.44,0,0,1,1.3.61,3,3,0,0,1,1,1.08,3.76,3.76,0,0,1,.36,1.77,3.6,3.6,0,0,1-1.37,3A6.38,6.38,0,0,1,239.17,36.1Z"/><path class="cls-3" d="M132.67,36a8.52,8.52,0,0,1-2.32-.34,9.24,9.24,0,0,1-2.41-1.05,8.9,8.9,0,0,1-2.14-1.79,8.28,8.28,0,0,1-1.51-2.55,9.16,9.16,0,0,1-.56-3.33,8.78,8.78,0,0,1,.56-3.23,8.09,8.09,0,0,1,1.52-2.46,9,9,0,0,1,2.12-1.74,9.75,9.75,0,0,1,2.42-1,8.82,8.82,0,0,1,2.38-.34,7.48,7.48,0,0,1,2.23.3,8.68,8.68,0,0,1,1.54.63l.76.42a9.08,9.08,0,0,1,.85.65,1.24,1.24,0,0,1,.42.9,1.81,1.81,0,0,1-.11.6,2.61,2.61,0,0,1-.34.6,3.21,3.21,0,0,1-.77.84,1.25,1.25,0,0,1-.73.26,1.16,1.16,0,0,1-.57-.15,6.85,6.85,0,0,1-.65-.4c-.12-.08-.29-.19-.5-.31a3.69,3.69,0,0,0-.89-.34,5.78,5.78,0,0,0-3.15.15,5.23,5.23,0,0,0-1.64.92,4.58,4.58,0,0,0-1.2,1.59,5.3,5.3,0,0,0-.45,2.26,5,5,0,0,0,.46,2.25,4.69,4.69,0,0,0,1.21,1.58,5.29,5.29,0,0,0,1.64.94,5.15,5.15,0,0,0,1.73.31,4.73,4.73,0,0,0,1.28-.15,5,5,0,0,0,.93-.36c.26-.14.49-.27.67-.39L136,31a1.26,1.26,0,0,1,.59-.15,1.19,1.19,0,0,1,.71.27,3.44,3.44,0,0,1,.74.88,3.07,3.07,0,0,1,.34.64,1.87,1.87,0,0,1,.11.61,1.07,1.07,0,0,1-.41.86,7.19,7.19,0,0,1-.87.61l-.75.44a7.3,7.3,0,0,1-1.52.62A7.66,7.66,0,0,1,132.67,36Z"/><path class="cls-3" d="M146.05,35.82a5.25,5.25,0,0,1-2.18-.45,5.43,5.43,0,0,1-1.75-1.26A5.85,5.85,0,0,1,141,32.18a7.06,7.06,0,0,1-.41-2.44V25.22a4.42,4.42,0,0,1,.09-.92,1.08,1.08,0,0,1,.49-.7,2.35,2.35,0,0,1,1.32-.28,2.31,2.31,0,0,1,1.32.28,1.1,1.1,0,0,1,.47.71,4.62,4.62,0,0,1,.09.94v4.5a2.78,2.78,0,0,0,.26,1.26,1.73,1.73,0,0,0,.77.81,2.46,2.46,0,0,0,1.21.28,2.5,2.5,0,0,0,1.24-.29,2,2,0,0,0,.8-.81,2.59,2.59,0,0,0,.29-1.25V25.2a4.59,4.59,0,0,1,.09-.93,1,1,0,0,1,.49-.68,2.49,2.49,0,0,1,1.33-.26,2.39,2.39,0,0,1,1.31.27,1.13,1.13,0,0,1,.47.71,4.63,4.63,0,0,1,.09.92V34a4.88,4.88,0,0,1-.08.88,1.06,1.06,0,0,1-.49.67,2.63,2.63,0,0,1-1.3.25,2.92,2.92,0,0,1-1.05-.15,1.25,1.25,0,0,1-.55-.38.94.94,0,0,1-.21-.48,2.39,2.39,0,0,1,0-.44l.32-.28a3.74,3.74,0,0,1-.32.39,7.18,7.18,0,0,1-.66.57,4.28,4.28,0,0,1-1,.54A3.31,3.31,0,0,1,146.05,35.82Z"/><path class="cls-3" d="M160,35.86a16.21,16.21,0,0,1-1.82-.1,3.58,3.58,0,0,1-1.35-.41,2.39,2.39,0,0,1-.9-.83,4.19,4.19,0,0,1-.53-1.38,10.88,10.88,0,0,1-.17-2.06V19.53a4,4,0,0,1,.1-.93,1.17,1.17,0,0,1,.49-.7,2.35,2.35,0,0,1,1.31-.27,2.24,2.24,0,0,1,1.29.28,1.14,1.14,0,0,1,.48.7,3.82,3.82,0,0,1,.1.92V30.91a6.12,6.12,0,0,0,0,.66,1,1,0,0,0,.15.41.54.54,0,0,0,.31.2,2,2,0,0,0,.53,0,2.62,2.62,0,0,1,.61.08.89.89,0,0,1,.54.45,2.55,2.55,0,0,1,.22,1.25,2.81,2.81,0,0,1-.22,1.3.89.89,0,0,1-.54.47A2.74,2.74,0,0,1,160,35.86Z"/><path class="cls-3" d="M169.4,36.09a7.25,7.25,0,0,1-3-.58A5.88,5.88,0,0,1,164.32,34a6.4,6.4,0,0,1-1.19-2.09,6.88,6.88,0,0,1-.4-2.3,6.45,6.45,0,0,1,.85-3.33A6.09,6.09,0,0,1,165.94,24a7,7,0,0,1,3.46-.84,6.26,6.26,0,0,1,2.52.47,5.06,5.06,0,0,1,2.77,2.79A4.25,4.25,0,0,1,175,28a2.78,2.78,0,0,1-.67,2.05,2.25,2.25,0,0,1-1.68.67h-6a1.78,1.78,0,0,0,.47,1.08,2.81,2.81,0,0,0,1,.7,3.7,3.7,0,0,0,1.33.25,8.22,8.22,0,0,0,1-.06,4.3,4.3,0,0,0,.78-.18c.22-.07.42-.15.59-.22s.34-.14.49-.19a2.41,2.41,0,0,1,.43-.1,1,1,0,0,1,.67.21,1.94,1.94,0,0,1,.57.72,1.61,1.61,0,0,1,.24.52,2.14,2.14,0,0,1,.06.5,1.34,1.34,0,0,1-.61,1.09,4.68,4.68,0,0,1-1.72.73A11.06,11.06,0,0,1,169.4,36.09Zm-2.67-7.4h4a1,1,0,0,0,.57-.14c.14-.09.2-.27.2-.54a1.23,1.23,0,0,0-.27-.77,1.78,1.78,0,0,0-.74-.54,2.8,2.8,0,0,0-1.09-.19,3,3,0,0,0-1.35.3,2.47,2.47,0,0,0-.94.8A1.91,1.91,0,0,0,166.73,28.69Z"/><path class="cls-3" d="M179,35.87a2.28,2.28,0,0,1-1.3-.28,1.1,1.1,0,0,1-.49-.71,4.53,4.53,0,0,1-.09-.91V19.59a4.76,4.76,0,0,1,.09-.94,1,1,0,0,1,.49-.69,2.43,2.43,0,0,1,1.32-.27,2.26,2.26,0,0,1,1.28.28,1.08,1.08,0,0,1,.45.71,4.55,4.55,0,0,1,0,.91V34.74a1.31,1.31,0,0,1-.53.85A2.21,2.21,0,0,1,179,35.87Zm4.85,0a4.36,4.36,0,0,1-2.15-.52,4.46,4.46,0,0,1-1.54-1.39,6.22,6.22,0,0,1-.92-2,8.15,8.15,0,0,1-.29-2.4,8.34,8.34,0,0,1,.33-2.35,6.2,6.2,0,0,1,.94-2,4.25,4.25,0,0,1,3.64-1.82,4.7,4.7,0,0,1,2.14.5,6.24,6.24,0,0,1,1.84,1.36,6.33,6.33,0,0,1,1.27,2,6,6,0,0,1,.47,2.33,6.36,6.36,0,0,1-.47,2.42,6.83,6.83,0,0,1-1.26,2A5.87,5.87,0,0,1,186,35.36,5.06,5.06,0,0,1,183.8,35.85Zm-.5-3.71a2.29,2.29,0,0,0,1.25-.33,2.67,2.67,0,0,0,.89-.91,2.55,2.55,0,0,0,.34-1.28,2.51,2.51,0,0,0-.33-1.27,2.2,2.2,0,0,0-.89-.9,2.36,2.36,0,0,0-1.23-.33,2.43,2.43,0,0,0-2.12,1.24,2.61,2.61,0,0,0-.31,1.26,2.58,2.58,0,0,0,.32,1.27,2.51,2.51,0,0,0,.88.92A2.31,2.31,0,0,0,183.3,32.14Z"/><path class="cls-3" d="M193.57,35.88a2.39,2.39,0,0,1-1.31-.27,1.07,1.07,0,0,1-.48-.71,5.62,5.62,0,0,1-.08-.92V25.25a4.42,4.42,0,0,1,.09-.92,1,1,0,0,1,.49-.69,2.47,2.47,0,0,1,1.32-.26,2.52,2.52,0,0,1,1.27.24,1,1,0,0,1,.48.55,1.63,1.63,0,0,1,.1.53l-.3.15a3.91,3.91,0,0,1,.27-.36,3.47,3.47,0,0,1,.58-.55,3.79,3.79,0,0,1,.92-.49,3.56,3.56,0,0,1,1.23-.2c.19,0,.39,0,.62,0a5.2,5.2,0,0,1,.7.15,3.32,3.32,0,0,1,.66.3,1.69,1.69,0,0,1,.49.47,1.17,1.17,0,0,1,.18.67,3.14,3.14,0,0,1-.47,1.74,1.42,1.42,0,0,1-1.2.71,2,2,0,0,1-.6-.06.87.87,0,0,1-.29-.15A1.1,1.1,0,0,0,198,27a1.65,1.65,0,0,0-.55-.07,2.71,2.71,0,0,0-.71.1,1.88,1.88,0,0,0-.63.32,1.45,1.45,0,0,0-.61,1.23V34a5.4,5.4,0,0,1-.08.91,1.07,1.07,0,0,1-.49.69A2.71,2.71,0,0,1,193.57,35.88Z"/><path class="cls-3" d="M204.78,21.58a2.53,2.53,0,0,1-1.35-.27,1.14,1.14,0,0,1-.49-.73,5.7,5.7,0,0,1-.08-.95,5.64,5.64,0,0,1,.08-1,1.07,1.07,0,0,1,.5-.7,2.73,2.73,0,0,1,1.37-.26,2.43,2.43,0,0,1,1.32.27,1.14,1.14,0,0,1,.49.73,4.92,4.92,0,0,1,.09,1,4.73,4.73,0,0,1-.09.93,1.05,1.05,0,0,1-.49.71A2.54,2.54,0,0,1,204.78,21.58Zm0,14.3a2.42,2.42,0,0,1-1.32-.26,1,1,0,0,1-.48-.7,5.41,5.41,0,0,1-.07-.91V25.28a4.53,4.53,0,0,1,.09-.91,1.08,1.08,0,0,1,.49-.7,2.57,2.57,0,0,1,1.32-.26,2.34,2.34,0,0,1,1.29.27,1.17,1.17,0,0,1,.48.72,5.46,5.46,0,0,1,.08.93V34a4.56,4.56,0,0,1-.09.92,1,1,0,0,1-.48.68A2.47,2.47,0,0,1,204.77,35.88Z"/><path class="cls-3" d="M210.1,23.59h2.75l3.45-.1a4.29,4.29,0,0,1,.9.09,1.08,1.08,0,0,1,.7.49,2.31,2.31,0,0,1,.28,1.32,2.25,2.25,0,0,1-.27,1.25,1.11,1.11,0,0,1-.68.51,3.48,3.48,0,0,1-.93.12L213,27.19l-3,0a1.26,1.26,0,0,1-1-.46,2.55,2.55,0,0,1-.29-1.39,2.15,2.15,0,0,1,.35-1.34A1.28,1.28,0,0,1,210.1,23.59Zm5.65,12.3a7.5,7.5,0,0,1-2.2-.28,3.32,3.32,0,0,1-2.39-2.31,6.94,6.94,0,0,1-.29-2.11V21.06a4.15,4.15,0,0,1,.09-.92,1,1,0,0,1,.49-.66,3.21,3.21,0,0,1,2.6,0,1.12,1.12,0,0,1,.48.71,4.53,4.53,0,0,1,.09.91V31a2.42,2.42,0,0,0,.07.66.79.79,0,0,0,.18.39.83.83,0,0,0,.35.18,3,3,0,0,0,.55,0,4.07,4.07,0,0,1,1,.11,1,1,0,0,1,.66.45,2.13,2.13,0,0,1,.24,1.17,2.3,2.3,0,0,1-.28,1.3,1,1,0,0,1-.71.47A4.53,4.53,0,0,1,215.75,35.89Z"/><path class="cls-3" d="M230.3,35.87a2.42,2.42,0,0,1-1.38-.32.9.9,0,0,1-.42-.8l.25-.43a2.79,2.79,0,0,1-.58.62,4.26,4.26,0,0,1-2.77.93,5,5,0,0,1-2.19-.5A5.89,5.89,0,0,1,221.37,34a7,7,0,0,1-1.27-2,6.13,6.13,0,0,1,0-4.71,6.77,6.77,0,0,1,1.29-2,6.24,6.24,0,0,1,1.84-1.36,4.93,4.93,0,0,1,2.17-.5,4.32,4.32,0,0,1,1.58.26,4.51,4.51,0,0,1,1.09.62,3.43,3.43,0,0,1,.66.67l-.23-.35a1.05,1.05,0,0,1,.44-.91,2.4,2.4,0,0,1,1.39-.31,2.34,2.34,0,0,1,1.29.27,1.19,1.19,0,0,1,.47.73,4.86,4.86,0,0,1,.09,1V34a4.7,4.7,0,0,1-.09.92,1,1,0,0,1-.47.71A2.41,2.41,0,0,1,230.3,35.87Zm-4.38-3.72a2.21,2.21,0,0,0,1.2-.34,2.6,2.6,0,0,0,1.18-2.19,2.62,2.62,0,0,0-.32-1.29,2.4,2.4,0,0,0-.88-.88,2.33,2.33,0,0,0-1.22-.33,2.39,2.39,0,0,0-1.27.34,2.61,2.61,0,0,0-.9.91,2.68,2.68,0,0,0-.34,1.3,2.43,2.43,0,0,0,.34,1.24,2.6,2.6,0,0,0,2.21,1.24Z"/><path class="cls-3" d="M239.17,36.1A8,8,0,0,1,237.7,36a7.8,7.8,0,0,1-1.54-.44,5.07,5.07,0,0,1-1.25-.67,1.28,1.28,0,0,1-.56-.89,1.24,1.24,0,0,1,0-.54,2.37,2.37,0,0,1,.23-.6,4.56,4.56,0,0,1,.43-.66.94.94,0,0,1,.44-.35,1,1,0,0,1,.59,0,3.72,3.72,0,0,1,.8.26l.82.4c.29.14.58.27.88.38a2.66,2.66,0,0,0,.92.16,2.32,2.32,0,0,0,1.09-.21.65.65,0,0,0,.39-.59.69.69,0,0,0-.16-.45,1.27,1.27,0,0,0-.45-.3c-.2-.08-.42-.16-.68-.24l-.81-.21c-.29-.07-.58-.15-.9-.25a9.05,9.05,0,0,1-1.19-.45,4,4,0,0,1-1-.72,3.3,3.3,0,0,1-.74-1.07A4,4,0,0,1,234.7,27a3.29,3.29,0,0,1,2.23-3.32,7.35,7.35,0,0,1,2.7-.43c.3,0,.6,0,.9.05a4.68,4.68,0,0,1,.89.18,7.33,7.33,0,0,1,.86.3,7.42,7.42,0,0,1,.85.42c.5.24.76.55.77.95a2,2,0,0,1-.42,1.25,2.17,2.17,0,0,1-.58.59.93.93,0,0,1-.62.14,4.2,4.2,0,0,1-.87-.34,9.53,9.53,0,0,0-1-.44,2.84,2.84,0,0,0-1-.2,2.2,2.2,0,0,0-.73.11,1.11,1.11,0,0,0-.45.3.69.69,0,0,0-.15.44.66.66,0,0,0,.19.51,1.27,1.27,0,0,0,.51.31,5.58,5.58,0,0,0,.75.23l.92.2a12.22,12.22,0,0,1,1.39.34,4.44,4.44,0,0,1,1.3.61,3,3,0,0,1,1,1.08,3.76,3.76,0,0,1,.36,1.77,3.6,3.6,0,0,1-1.37,3A6.38,6.38,0,0,1,239.17,36.1Z"/><path class="cls-2" d="M132.67,36a8.52,8.52,0,0,1-2.32-.34,9.24,9.24,0,0,1-2.41-1.05,8.9,8.9,0,0,1-2.14-1.79,8.28,8.28,0,0,1-1.51-2.55,9.16,9.16,0,0,1-.56-3.33,8.78,8.78,0,0,1,.56-3.23,8.09,8.09,0,0,1,1.52-2.46,9,9,0,0,1,2.12-1.74,9.75,9.75,0,0,1,2.42-1,8.82,8.82,0,0,1,2.38-.34,7.48,7.48,0,0,1,2.23.3,8.68,8.68,0,0,1,1.54.63l.76.42a9.08,9.08,0,0,1,.85.65,1.24,1.24,0,0,1,.42.9,1.81,1.81,0,0,1-.11.6,2.61,2.61,0,0,1-.34.6,3.21,3.21,0,0,1-.77.84,1.25,1.25,0,0,1-.73.26,1.16,1.16,0,0,1-.57-.15,6.85,6.85,0,0,1-.65-.4c-.12-.08-.29-.19-.5-.31a3.69,3.69,0,0,0-.89-.34,5.78,5.78,0,0,0-3.15.15,5.23,5.23,0,0,0-1.64.92,4.58,4.58,0,0,0-1.2,1.59,5.3,5.3,0,0,0-.45,2.26,5,5,0,0,0,.46,2.25,4.69,4.69,0,0,0,1.21,1.58,5.29,5.29,0,0,0,1.64.94,5.15,5.15,0,0,0,1.73.31,4.73,4.73,0,0,0,1.28-.15,5,5,0,0,0,.93-.36c.26-.14.49-.27.67-.39L136,31a1.26,1.26,0,0,1,.59-.15,1.19,1.19,0,0,1,.71.27,3.44,3.44,0,0,1,.74.88,3.07,3.07,0,0,1,.34.64,1.87,1.87,0,0,1,.11.61,1.07,1.07,0,0,1-.41.86,7.19,7.19,0,0,1-.87.61l-.75.44a7.3,7.3,0,0,1-1.52.62A7.66,7.66,0,0,1,132.67,36Z"/><path class="cls-2" d="M146.05,35.82a5.25,5.25,0,0,1-2.18-.45,5.43,5.43,0,0,1-1.75-1.26A5.85,5.85,0,0,1,141,32.18a7.06,7.06,0,0,1-.41-2.44V25.22a4.42,4.42,0,0,1,.09-.92,1.08,1.08,0,0,1,.49-.7,2.35,2.35,0,0,1,1.32-.28,2.31,2.31,0,0,1,1.32.28,1.1,1.1,0,0,1,.47.71,4.62,4.62,0,0,1,.09.94v4.5a2.78,2.78,0,0,0,.26,1.26,1.73,1.73,0,0,0,.77.81,2.46,2.46,0,0,0,1.21.28,2.5,2.5,0,0,0,1.24-.29,2,2,0,0,0,.8-.81,2.59,2.59,0,0,0,.29-1.25V25.2a4.59,4.59,0,0,1,.09-.93,1,1,0,0,1,.49-.68,2.49,2.49,0,0,1,1.33-.26,2.39,2.39,0,0,1,1.31.27,1.13,1.13,0,0,1,.47.71,4.63,4.63,0,0,1,.09.92V34a4.88,4.88,0,0,1-.08.88,1.06,1.06,0,0,1-.49.67,2.63,2.63,0,0,1-1.3.25,2.92,2.92,0,0,1-1.05-.15,1.25,1.25,0,0,1-.55-.38.94.94,0,0,1-.21-.48,2.39,2.39,0,0,1,0-.44l.32-.28a3.74,3.74,0,0,1-.32.39,7.18,7.18,0,0,1-.66.57,4.28,4.28,0,0,1-1,.54A3.31,3.31,0,0,1,146.05,35.82Z"/><path class="cls-2" d="M160,35.86a16.21,16.21,0,0,1-1.82-.1,3.58,3.58,0,0,1-1.35-.41,2.39,2.39,0,0,1-.9-.83,4.19,4.19,0,0,1-.53-1.38,10.88,10.88,0,0,1-.17-2.06V19.53a4,4,0,0,1,.1-.93,1.17,1.17,0,0,1,.49-.7,2.35,2.35,0,0,1,1.31-.27,2.24,2.24,0,0,1,1.29.28,1.14,1.14,0,0,1,.48.7,3.82,3.82,0,0,1,.1.92V30.91a6.12,6.12,0,0,0,0,.66,1,1,0,0,0,.15.41.54.54,0,0,0,.31.2,2,2,0,0,0,.53,0,2.62,2.62,0,0,1,.61.08.89.89,0,0,1,.54.45,2.55,2.55,0,0,1,.22,1.25,2.81,2.81,0,0,1-.22,1.3.89.89,0,0,1-.54.47A2.74,2.74,0,0,1,160,35.86Z"/><path class="cls-2" d="M169.4,36.09a7.25,7.25,0,0,1-3-.58A5.88,5.88,0,0,1,164.32,34a6.4,6.4,0,0,1-1.19-2.09,6.88,6.88,0,0,1-.4-2.3,6.45,6.45,0,0,1,.85-3.33A6.09,6.09,0,0,1,165.94,24a7,7,0,0,1,3.46-.84,6.26,6.26,0,0,1,2.52.47,5.06,5.06,0,0,1,2.77,2.79A4.25,4.25,0,0,1,175,28a2.78,2.78,0,0,1-.67,2.05,2.25,2.25,0,0,1-1.68.67h-6a1.78,1.78,0,0,0,.47,1.08,2.81,2.81,0,0,0,1,.7,3.7,3.7,0,0,0,1.33.25,8.22,8.22,0,0,0,1-.06,4.3,4.3,0,0,0,.78-.18c.22-.07.42-.15.59-.22s.34-.14.49-.19a2.41,2.41,0,0,1,.43-.1,1,1,0,0,1,.67.21,1.94,1.94,0,0,1,.57.72,1.61,1.61,0,0,1,.24.52,2.14,2.14,0,0,1,.06.5,1.34,1.34,0,0,1-.61,1.09,4.68,4.68,0,0,1-1.72.73A11.06,11.06,0,0,1,169.4,36.09Zm-2.67-7.4h4a1,1,0,0,0,.57-.14c.14-.09.2-.27.2-.54a1.23,1.23,0,0,0-.27-.77,1.78,1.78,0,0,0-.74-.54,2.8,2.8,0,0,0-1.09-.19,3,3,0,0,0-1.35.3,2.47,2.47,0,0,0-.94.8A1.91,1.91,0,0,0,166.73,28.69Z"/><path class="cls-2" d="M179,35.87a2.28,2.28,0,0,1-1.3-.28,1.1,1.1,0,0,1-.49-.71,4.53,4.53,0,0,1-.09-.91V19.59a4.76,4.76,0,0,1,.09-.94,1,1,0,0,1,.49-.69,2.43,2.43,0,0,1,1.32-.27,2.26,2.26,0,0,1,1.28.28,1.08,1.08,0,0,1,.45.71,4.55,4.55,0,0,1,0,.91V34.74a1.31,1.31,0,0,1-.53.85A2.21,2.21,0,0,1,179,35.87Zm4.85,0a4.36,4.36,0,0,1-2.15-.52,4.46,4.46,0,0,1-1.54-1.39,6.22,6.22,0,0,1-.92-2,8.15,8.15,0,0,1-.29-2.4,8.34,8.34,0,0,1,.33-2.35,6.2,6.2,0,0,1,.94-2,4.25,4.25,0,0,1,3.64-1.82,4.7,4.7,0,0,1,2.14.5,6.24,6.24,0,0,1,1.84,1.36,6.33,6.33,0,0,1,1.27,2,6,6,0,0,1,.47,2.33,6.36,6.36,0,0,1-.47,2.42,6.83,6.83,0,0,1-1.26,2A5.87,5.87,0,0,1,186,35.36,5.06,5.06,0,0,1,183.8,35.85Zm-.5-3.71a2.29,2.29,0,0,0,1.25-.33,2.67,2.67,0,0,0,.89-.91,2.55,2.55,0,0,0,.34-1.28,2.51,2.51,0,0,0-.33-1.27,2.2,2.2,0,0,0-.89-.9,2.36,2.36,0,0,0-1.23-.33,2.43,2.43,0,0,0-2.12,1.24,2.61,2.61,0,0,0-.31,1.26,2.58,2.58,0,0,0,.32,1.27,2.51,2.51,0,0,0,.88.92A2.31,2.31,0,0,0,183.3,32.14Z"/><path class="cls-2" d="M193.57,35.88a2.39,2.39,0,0,1-1.31-.27,1.07,1.07,0,0,1-.48-.71,5.62,5.62,0,0,1-.08-.92V25.25a4.42,4.42,0,0,1,.09-.92,1,1,0,0,1,.49-.69,2.47,2.47,0,0,1,1.32-.26,2.52,2.52,0,0,1,1.27.24,1,1,0,0,1,.48.55,1.63,1.63,0,0,1,.1.53l-.3.15a3.91,3.91,0,0,1,.27-.36,3.47,3.47,0,0,1,.58-.55,3.79,3.79,0,0,1,.92-.49,3.56,3.56,0,0,1,1.23-.2c.19,0,.39,0,.62,0a5.2,5.2,0,0,1,.7.15,3.32,3.32,0,0,1,.66.3,1.69,1.69,0,0,1,.49.47,1.17,1.17,0,0,1,.18.67,3.14,3.14,0,0,1-.47,1.74,1.42,1.42,0,0,1-1.2.71,2,2,0,0,1-.6-.06.87.87,0,0,1-.29-.15A1.1,1.1,0,0,0,198,27a1.65,1.65,0,0,0-.55-.07,2.71,2.71,0,0,0-.71.1,1.88,1.88,0,0,0-.63.32,1.45,1.45,0,0,0-.61,1.23V34a5.4,5.4,0,0,1-.08.91,1.07,1.07,0,0,1-.49.69A2.71,2.71,0,0,1,193.57,35.88Z"/><path class="cls-2" d="M204.78,21.58a2.53,2.53,0,0,1-1.35-.27,1.14,1.14,0,0,1-.49-.73,5.7,5.7,0,0,1-.08-.95,5.64,5.64,0,0,1,.08-1,1.07,1.07,0,0,1,.5-.7,2.73,2.73,0,0,1,1.37-.26,2.43,2.43,0,0,1,1.32.27,1.14,1.14,0,0,1,.49.73,4.92,4.92,0,0,1,.09,1,4.73,4.73,0,0,1-.09.93,1.05,1.05,0,0,1-.49.71A2.54,2.54,0,0,1,204.78,21.58Zm0,14.3a2.42,2.42,0,0,1-1.32-.26,1,1,0,0,1-.48-.7,5.41,5.41,0,0,1-.07-.91V25.28a4.53,4.53,0,0,1,.09-.91,1.08,1.08,0,0,1,.49-.7,2.57,2.57,0,0,1,1.32-.26,2.34,2.34,0,0,1,1.29.27,1.17,1.17,0,0,1,.48.72,5.46,5.46,0,0,1,.08.93V34a4.56,4.56,0,0,1-.09.92,1,1,0,0,1-.48.68A2.47,2.47,0,0,1,204.77,35.88Z"/><path class="cls-2" d="M210.1,23.59h2.75l3.45-.1a4.29,4.29,0,0,1,.9.09,1.08,1.08,0,0,1,.7.49,2.31,2.31,0,0,1,.28,1.32,2.25,2.25,0,0,1-.27,1.25,1.11,1.11,0,0,1-.68.51,3.48,3.48,0,0,1-.93.12L213,27.19l-3,0a1.26,1.26,0,0,1-1-.46,2.55,2.55,0,0,1-.29-1.39,2.15,2.15,0,0,1,.35-1.34A1.28,1.28,0,0,1,210.1,23.59Zm5.65,12.3a7.5,7.5,0,0,1-2.2-.28,3.32,3.32,0,0,1-2.39-2.31,6.94,6.94,0,0,1-.29-2.11V21.06a4.15,4.15,0,0,1,.09-.92,1,1,0,0,1,.49-.66,3.21,3.21,0,0,1,2.6,0,1.12,1.12,0,0,1,.48.71,4.53,4.53,0,0,1,.09.91V31a2.42,2.42,0,0,0,.07.66.79.79,0,0,0,.18.39.83.83,0,0,0,.35.18,3,3,0,0,0,.55,0,4.07,4.07,0,0,1,1,.11,1,1,0,0,1,.66.45,2.13,2.13,0,0,1,.24,1.17,2.3,2.3,0,0,1-.28,1.3,1,1,0,0,1-.71.47A4.53,4.53,0,0,1,215.75,35.89Z"/><path class="cls-2" d="M230.3,35.87a2.42,2.42,0,0,1-1.38-.32.9.9,0,0,1-.42-.8l.25-.43a2.79,2.79,0,0,1-.58.62,4.26,4.26,0,0,1-2.77.93,5,5,0,0,1-2.19-.5A5.89,5.89,0,0,1,221.37,34a7,7,0,0,1-1.27-2,6.13,6.13,0,0,1,0-4.71,6.77,6.77,0,0,1,1.29-2,6.24,6.24,0,0,1,1.84-1.36,4.93,4.93,0,0,1,2.17-.5,4.32,4.32,0,0,1,1.58.26,4.51,4.51,0,0,1,1.09.62,3.43,3.43,0,0,1,.66.67l-.23-.35a1.05,1.05,0,0,1,.44-.91,2.4,2.4,0,0,1,1.39-.31,2.34,2.34,0,0,1,1.29.27,1.19,1.19,0,0,1,.47.73,4.86,4.86,0,0,1,.09,1V34a4.7,4.7,0,0,1-.09.92,1,1,0,0,1-.47.71A2.41,2.41,0,0,1,230.3,35.87Zm-4.38-3.72a2.21,2.21,0,0,0,1.2-.34,2.6,2.6,0,0,0,1.18-2.19,2.62,2.62,0,0,0-.32-1.29,2.4,2.4,0,0,0-.88-.88,2.33,2.33,0,0,0-1.22-.33,2.39,2.39,0,0,0-1.27.34,2.61,2.61,0,0,0-.9.91,2.68,2.68,0,0,0-.34,1.3,2.43,2.43,0,0,0,.34,1.24,2.6,2.6,0,0,0,2.21,1.24Z"/><path class="cls-2" d="M239.17,36.1A8,8,0,0,1,237.7,36a7.8,7.8,0,0,1-1.54-.44,5.07,5.07,0,0,1-1.25-.67,1.28,1.28,0,0,1-.56-.89,1.24,1.24,0,0,1,0-.54,2.37,2.37,0,0,1,.23-.6,4.56,4.56,0,0,1,.43-.66.94.94,0,0,1,.44-.35,1,1,0,0,1,.59,0,3.72,3.72,0,0,1,.8.26l.82.4c.29.14.58.27.88.38a2.66,2.66,0,0,0,.92.16,2.32,2.32,0,0,0,1.09-.21.65.65,0,0,0,.39-.59.69.69,0,0,0-.16-.45,1.27,1.27,0,0,0-.45-.3c-.2-.08-.42-.16-.68-.24l-.81-.21c-.29-.07-.58-.15-.9-.25a9.05,9.05,0,0,1-1.19-.45,4,4,0,0,1-1-.72,3.3,3.3,0,0,1-.74-1.07A4,4,0,0,1,234.7,27a3.29,3.29,0,0,1,2.23-3.32,7.35,7.35,0,0,1,2.7-.43c.3,0,.6,0,.9.05a4.68,4.68,0,0,1,.89.18,7.33,7.33,0,0,1,.86.3,7.42,7.42,0,0,1,.85.42c.5.24.76.55.77.95a2,2,0,0,1-.42,1.25,2.17,2.17,0,0,1-.58.59.93.93,0,0,1-.62.14,4.2,4.2,0,0,1-.87-.34,9.53,9.53,0,0,0-1-.44,2.84,2.84,0,0,0-1-.2,2.2,2.2,0,0,0-.73.11,1.11,1.11,0,0,0-.45.3.69.69,0,0,0-.15.44.66.66,0,0,0,.19.51,1.27,1.27,0,0,0,.51.31,5.58,5.58,0,0,0,.75.23l.92.2a12.22,12.22,0,0,1,1.39.34,4.44,4.44,0,0,1,1.3.61,3,3,0,0,1,1,1.08,3.76,3.76,0,0,1,.36,1.77,3.6,3.6,0,0,1-1.37,3A6.38,6.38,0,0,1,239.17,36.1Z"/><text class="cls-4" transform="matrix(0.97, 0, 0, 1, 40.3, 38.89)">1<tspan class="cls-5" x="18.23" y="0">.</tspan><tspan x="25.91" y="0">4</tspan></text><text class="cls-6" transform="matrix(0.97, 0, 0, 1, 40.3, 38.89)">1<tspan class="cls-5" x="18.23" y="0">.</tspan><tspan x="25.91" y="0">4</tspan></text></g></g></svg>