<svg xmlns="http://www.w3.org/2000/svg" viewBox="0 0 399.98 115.43"><defs><style>.cls-1{fill:#a41010;}.cls-2{fill:#fff;}.cls-3,.cls-4{fill:none;stroke-width:5px;}.cls-3{stroke:#c8a927;stroke-linejoin:round;}.cls-4,.cls-6{font-size:42px;font-family:Coiny-Regular, Coiny;}.cls-4{stroke:#fff;}.cls-5{letter-spacing:-0.1em;}.cls-6{fill:#c8a927;}</style></defs><title>14tt</title><g id="Layer_2" data-name="Layer 2"><g id="pestaña_identificativa" data-name="pestaña identificativa"><rect class="cls-1" width="399.98" height="115.43" rx="32.4"/><path class="cls-2" d="M125.45,34.89a1.86,1.86,0,0,1-1.9-1.93,2.38,2.38,0,0,1,.06-.55.81.81,0,0,1,.21-.4l7.71-10.92h-6a4.91,4.91,0,0,1-.94-.09,1.22,1.22,0,0,1-.76-.48,2.09,2.09,0,0,1-.3-1.26,2.47,2.47,0,0,1,.27-1.33,1.18,1.18,0,0,1,.73-.49,4.05,4.05,0,0,1,.92-.1h9.65a1.76,1.76,0,0,1,1.34.57,1.87,1.87,0,0,1,.54,1.36,2.35,2.35,0,0,1-.08.6,1.18,1.18,0,0,1-.22.45l-7.66,10.87h6.42a4.45,4.45,0,0,1,.93.09,1.1,1.1,0,0,1,.69.48,2.27,2.27,0,0,1,.26,1.23,2.37,2.37,0,0,1-.28,1.33,1.06,1.06,0,0,1-.7.48,4.58,4.58,0,0,1-1,.09Z"/><path class="cls-2" d="M141.36,20.55a2.47,2.47,0,0,1-1.35-.28,1.11,1.11,0,0,1-.49-.73,5.11,5.11,0,0,1,0-1.91,1.09,1.09,0,0,1,.5-.7,2.71,2.71,0,0,1,1.36-.26,2.37,2.37,0,0,1,1.33.28,1,1,0,0,1,.48.72,5,5,0,0,1,.09,1,4.7,4.7,0,0,1-.09.92,1,1,0,0,1-.48.71A2.53,2.53,0,0,1,141.36,20.55Zm0,14.3a2.57,2.57,0,0,1-1.33-.27,1,1,0,0,1-.47-.7,5.31,5.31,0,0,1-.08-.91V24.24a4.53,4.53,0,0,1,.09-.91,1.08,1.08,0,0,1,.49-.7,2.52,2.52,0,0,1,1.32-.26,2.24,2.24,0,0,1,1.29.28,1.1,1.1,0,0,1,.47.71,4.62,4.62,0,0,1,.09.94V33a5.4,5.4,0,0,1-.08.91,1.06,1.06,0,0,1-.48.69A2.62,2.62,0,0,1,141.35,34.85Z"/><path class="cls-2" d="M151.07,34.53a5,5,0,0,1-2.16-.49,6,6,0,0,1-1.79-1.34,6.76,6.76,0,0,1-1.22-2,6.12,6.12,0,0,1-.45-2.33,6,6,0,0,1,.45-2.31,6.3,6.3,0,0,1,3-3.25,4.89,4.89,0,0,1,2.11-.48,3.81,3.81,0,0,1,1.9.43,3.29,3.29,0,0,1,1.25,1.26,6.4,6.4,0,0,1,.72,1.92,12.56,12.56,0,0,1,.23,2.49,11.33,11.33,0,0,1-.41,3.21,4.27,4.27,0,0,1-1.3,2.1A3.61,3.61,0,0,1,151.07,34.53Zm.45,5.47a6.9,6.9,0,0,1-1.76-.22,7,7,0,0,1-1.59-.61,4.45,4.45,0,0,1-1.15-.8,1.21,1.21,0,0,1-.42-.85,1.77,1.77,0,0,1,.15-.73,2.46,2.46,0,0,1,.45-.67,4.94,4.94,0,0,1,.6-.57.92.92,0,0,1,.6-.2,1,1,0,0,1,.62.19l.59.41a3.41,3.41,0,0,0,.79.41,3.14,3.14,0,0,0,1.2.19,2.24,2.24,0,0,0,.93-.19,1.86,1.86,0,0,0,.75-.54,2.89,2.89,0,0,0,.5-.85,2.94,2.94,0,0,0,.19-1.09V23.53a1.21,1.21,0,0,1,.51-.94,2.49,2.49,0,0,1,1.34-.29,2.21,2.21,0,0,1,1.25.27,1.06,1.06,0,0,1,.46.69,4.29,4.29,0,0,1,.09.9V34a5.88,5.88,0,0,1-.52,2.54,5.6,5.6,0,0,1-1.41,1.87,6,6,0,0,1-1.95,1.16A6.19,6.19,0,0,1,151.52,40Zm0-9.1a2.13,2.13,0,0,0,1.2-.34,2.45,2.45,0,0,0,.84-.88,2.49,2.49,0,0,0,.31-1.25,2.47,2.47,0,0,0-.31-1.25,2.39,2.39,0,0,0-.85-.88,2.35,2.35,0,0,0-1.21-.32,2.21,2.21,0,0,0-1.2.33,2.56,2.56,0,0,0-.84.89,2.47,2.47,0,0,0-.31,1.25,2.35,2.35,0,0,0,.32,1.23,2.59,2.59,0,0,0,.86.88A2.17,2.17,0,0,0,151.5,30.9Z"/><path class="cls-2" d="M168.1,34.86a1.8,1.8,0,0,1-1.32-.54,1.95,1.95,0,0,1-.39-2.06,1.68,1.68,0,0,1,.41-.62l5.68-5.5h-3.8a4.45,4.45,0,0,1-.91-.1,1.22,1.22,0,0,1-.73-.49,2.28,2.28,0,0,1-.29-1.31,2.3,2.3,0,0,1,.29-1.32,1.19,1.19,0,0,1,.73-.47,4.46,4.46,0,0,1,.91-.09h7.82a1.78,1.78,0,0,1,1.85,1.85,2.17,2.17,0,0,1-.13.76,1.69,1.69,0,0,1-.39.59l-5.56,5.52h4.53a4.4,4.4,0,0,1,.92.1,1.12,1.12,0,0,1,.69.5,2.49,2.49,0,0,1,.26,1.33,2.4,2.4,0,0,1-.27,1.3,1.1,1.1,0,0,1-.7.47,5.37,5.37,0,0,1-.93.08Z"/><path class="cls-2" d="M190.92,34.85a2.33,2.33,0,0,1-1.37-.33.91.91,0,0,1-.43-.8l.25-.42a2.72,2.72,0,0,1-.57.61,4.35,4.35,0,0,1-1.12.65,4.29,4.29,0,0,1-1.66.29,5.08,5.08,0,0,1-2.19-.5A6,6,0,0,1,182,33a7.07,7.07,0,0,1-1.28-2,6.15,6.15,0,0,1-.47-2.37,5.83,5.83,0,0,1,.48-2.34,6.34,6.34,0,0,1,1.29-2,6.15,6.15,0,0,1,1.83-1.36,4.84,4.84,0,0,1,2.18-.5,4.26,4.26,0,0,1,1.57.26,4.45,4.45,0,0,1,1.09.61,3.45,3.45,0,0,1,.66.68l-.22-.35a1,1,0,0,1,.44-.91,2.39,2.39,0,0,1,1.38-.31,2.34,2.34,0,0,1,1.29.27,1.16,1.16,0,0,1,.48.73,5.7,5.7,0,0,1,.08.95V33a4.73,4.73,0,0,1-.09.93,1.09,1.09,0,0,1-.48.71A2.45,2.45,0,0,1,190.92,34.85Zm-4.37-3.73a2.21,2.21,0,0,0,1.2-.33,2.6,2.6,0,0,0,.85-.92,2.48,2.48,0,0,0,.33-1.27,2.53,2.53,0,0,0-.33-1.29,2.56,2.56,0,0,0-.87-.89,2.45,2.45,0,0,0-1.23-.32,2.42,2.42,0,0,0-1.26.33,2.48,2.48,0,0,0-.9.92,2.45,2.45,0,0,0-.34,1.3,2.28,2.28,0,0,0,.34,1.23,2.41,2.41,0,0,0,.92.9A2.49,2.49,0,0,0,186.55,31.12Z"/><path class="cls-2" d="M200.47,34.56a5,5,0,0,1-2.16-.49,5.84,5.84,0,0,1-1.79-1.34,6.76,6.76,0,0,1-1.22-1.95,6.12,6.12,0,0,1-.45-2.33,6,6,0,0,1,.45-2.31,6.3,6.3,0,0,1,3-3.25,4.89,4.89,0,0,1,2.11-.48,3.81,3.81,0,0,1,1.9.43,3.33,3.33,0,0,1,1.25,1.25,6.29,6.29,0,0,1,.71,1.93,11.82,11.82,0,0,1,.24,2.49,11.33,11.33,0,0,1-.41,3.21,4.22,4.22,0,0,1-1.31,2.1A3.58,3.58,0,0,1,200.47,34.56Zm.45,5.47a6.49,6.49,0,0,1-1.76-.23,7.49,7.49,0,0,1-1.59-.6,4.45,4.45,0,0,1-1.15-.8,1.17,1.17,0,0,1-.42-.85,1.62,1.62,0,0,1,.15-.73,2.46,2.46,0,0,1,.45-.67,4.94,4.94,0,0,1,.6-.57.92.92,0,0,1,.6-.2,1,1,0,0,1,.62.19L199,36a3.41,3.41,0,0,0,.79.41,3.14,3.14,0,0,0,1.2.19,2.24,2.24,0,0,0,.93-.19,1.92,1.92,0,0,0,.75-.55,2.71,2.71,0,0,0,.5-.84,2.94,2.94,0,0,0,.19-1.09V23.56a1.21,1.21,0,0,1,.51-.94,2.49,2.49,0,0,1,1.34-.29,2.21,2.21,0,0,1,1.25.27,1.06,1.06,0,0,1,.46.69,4.26,4.26,0,0,1,.09.89v9.88a5.88,5.88,0,0,1-.52,2.54,5.6,5.6,0,0,1-1.41,1.87,6,6,0,0,1-2,1.16A6.19,6.19,0,0,1,200.92,40Zm0-9.1a2.13,2.13,0,0,0,1.2-.34,2.53,2.53,0,0,0,.84-.88,2.49,2.49,0,0,0,.31-1.25,2.44,2.44,0,0,0-.31-1.25,2.39,2.39,0,0,0-.85-.88,2.35,2.35,0,0,0-1.21-.32,2.21,2.21,0,0,0-1.2.33,2.56,2.56,0,0,0-.84.89,2.47,2.47,0,0,0-.32,1.25,2.36,2.36,0,0,0,.33,1.23,2.59,2.59,0,0,0,.86.88A2.17,2.17,0,0,0,200.9,30.93Z"/><path class="cls-3" d="M125.45,34.89a1.86,1.86,0,0,1-1.9-1.93,2.38,2.38,0,0,1,.06-.55.81.81,0,0,1,.21-.4l7.71-10.92h-6a4.91,4.91,0,0,1-.94-.09,1.22,1.22,0,0,1-.76-.48,2.09,2.09,0,0,1-.3-1.26,2.47,2.47,0,0,1,.27-1.33,1.18,1.18,0,0,1,.73-.49,4.05,4.05,0,0,1,.92-.1h9.65a1.76,1.76,0,0,1,1.34.57,1.87,1.87,0,0,1,.54,1.36,2.35,2.35,0,0,1-.08.6,1.18,1.18,0,0,1-.22.45l-7.66,10.87h6.42a4.45,4.45,0,0,1,.93.09,1.1,1.1,0,0,1,.69.48,2.27,2.27,0,0,1,.26,1.23,2.37,2.37,0,0,1-.28,1.33,1.06,1.06,0,0,1-.7.48,4.58,4.58,0,0,1-1,.09Z"/><path class="cls-3" d="M141.36,20.55a2.47,2.47,0,0,1-1.35-.28,1.11,1.11,0,0,1-.49-.73,5.11,5.11,0,0,1,0-1.91,1.09,1.09,0,0,1,.5-.7,2.71,2.71,0,0,1,1.36-.26,2.37,2.37,0,0,1,1.33.28,1,1,0,0,1,.48.72,5,5,0,0,1,.09,1,4.7,4.7,0,0,1-.09.92,1,1,0,0,1-.48.71A2.53,2.53,0,0,1,141.36,20.55Zm0,14.3a2.57,2.57,0,0,1-1.33-.27,1,1,0,0,1-.47-.7,5.31,5.31,0,0,1-.08-.91V24.24a4.53,4.53,0,0,1,.09-.91,1.08,1.08,0,0,1,.49-.7,2.52,2.52,0,0,1,1.32-.26,2.24,2.24,0,0,1,1.29.28,1.1,1.1,0,0,1,.47.71,4.62,4.62,0,0,1,.09.94V33a5.4,5.4,0,0,1-.08.91,1.06,1.06,0,0,1-.48.69A2.62,2.62,0,0,1,141.35,34.85Z"/><path class="cls-3" d="M151.07,34.53a5,5,0,0,1-2.16-.49,6,6,0,0,1-1.79-1.34,6.76,6.76,0,0,1-1.22-2,6.12,6.12,0,0,1-.45-2.33,6,6,0,0,1,.45-2.31,6.3,6.3,0,0,1,3-3.25,4.89,4.89,0,0,1,2.11-.48,3.81,3.81,0,0,1,1.9.43,3.29,3.29,0,0,1,1.25,1.26,6.4,6.4,0,0,1,.72,1.92,12.56,12.56,0,0,1,.23,2.49,11.33,11.33,0,0,1-.41,3.21,4.27,4.27,0,0,1-1.3,2.1A3.61,3.61,0,0,1,151.07,34.53Zm.45,5.47a6.9,6.9,0,0,1-1.76-.22,7,7,0,0,1-1.59-.61,4.45,4.45,0,0,1-1.15-.8,1.21,1.21,0,0,1-.42-.85,1.77,1.77,0,0,1,.15-.73,2.46,2.46,0,0,1,.45-.67,4.94,4.94,0,0,1,.6-.57.92.92,0,0,1,.6-.2,1,1,0,0,1,.62.19l.59.41a3.41,3.41,0,0,0,.79.41,3.14,3.14,0,0,0,1.2.19,2.24,2.24,0,0,0,.93-.19,1.86,1.86,0,0,0,.75-.54,2.89,2.89,0,0,0,.5-.85,2.94,2.94,0,0,0,.19-1.09V23.53a1.21,1.21,0,0,1,.51-.94,2.49,2.49,0,0,1,1.34-.29,2.21,2.21,0,0,1,1.25.27,1.06,1.06,0,0,1,.46.69,4.29,4.29,0,0,1,.09.9V34a5.88,5.88,0,0,1-.52,2.54,5.6,5.6,0,0,1-1.41,1.87,6,6,0,0,1-1.95,1.16A6.19,6.19,0,0,1,151.52,40Zm0-9.1a2.13,2.13,0,0,0,1.2-.34,2.45,2.45,0,0,0,.84-.88,2.49,2.49,0,0,0,.31-1.25,2.47,2.47,0,0,0-.31-1.25,2.39,2.39,0,0,0-.85-.88,2.35,2.35,0,0,0-1.21-.32,2.21,2.21,0,0,0-1.2.33,2.56,2.56,0,0,0-.84.89,2.47,2.47,0,0,0-.31,1.25,2.35,2.35,0,0,0,.32,1.23,2.59,2.59,0,0,0,.86.88A2.17,2.17,0,0,0,151.5,30.9Z"/><path class="cls-3" d="M168.1,34.86a1.8,1.8,0,0,1-1.32-.54,1.95,1.95,0,0,1-.39-2.06,1.68,1.68,0,0,1,.41-.62l5.68-5.5h-3.8a4.45,4.45,0,0,1-.91-.1,1.22,1.22,0,0,1-.73-.49,2.28,2.28,0,0,1-.29-1.31,2.3,2.3,0,0,1,.29-1.32,1.19,1.19,0,0,1,.73-.47,4.46,4.46,0,0,1,.91-.09h7.82a1.78,1.78,0,0,1,1.85,1.85,2.17,2.17,0,0,1-.13.76,1.69,1.69,0,0,1-.39.59l-5.56,5.52h4.53a4.4,4.4,0,0,1,.92.1,1.12,1.12,0,0,1,.69.5,2.49,2.49,0,0,1,.26,1.33,2.4,2.4,0,0,1-.27,1.3,1.1,1.1,0,0,1-.7.47,5.37,5.37,0,0,1-.93.08Z"/><path class="cls-3" d="M190.92,34.85a2.33,2.33,0,0,1-1.37-.33.91.91,0,0,1-.43-.8l.25-.42a2.72,2.72,0,0,1-.57.61,4.35,4.35,0,0,1-1.12.65,4.29,4.29,0,0,1-1.66.29,5.08,5.08,0,0,1-2.19-.5A6,6,0,0,1,182,33a7.07,7.07,0,0,1-1.28-2,6.15,6.15,0,0,1-.47-2.37,5.83,5.83,0,0,1,.48-2.34,6.34,6.34,0,0,1,1.29-2,6.15,6.15,0,0,1,1.83-1.36,4.84,4.84,0,0,1,2.18-.5,4.26,4.26,0,0,1,1.57.26,4.45,4.45,0,0,1,1.09.61,3.45,3.45,0,0,1,.66.68l-.22-.35a1,1,0,0,1,.44-.91,2.39,2.39,0,0,1,1.38-.31,2.34,2.34,0,0,1,1.29.27,1.16,1.16,0,0,1,.48.73,5.7,5.7,0,0,1,.08.95V33a4.73,4.73,0,0,1-.09.93,1.09,1.09,0,0,1-.48.71A2.45,2.45,0,0,1,190.92,34.85Zm-4.37-3.73a2.21,2.21,0,0,0,1.2-.33,2.6,2.6,0,0,0,.85-.92,2.48,2.48,0,0,0,.33-1.27,2.53,2.53,0,0,0-.33-1.29,2.56,2.56,0,0,0-.87-.89,2.45,2.45,0,0,0-1.23-.32,2.42,2.42,0,0,0-1.26.33,2.48,2.48,0,0,0-.9.92,2.45,2.45,0,0,0-.34,1.3,2.28,2.28,0,0,0,.34,1.23,2.41,2.41,0,0,0,.92.9A2.49,2.49,0,0,0,186.55,31.12Z"/><path class="cls-3" d="M200.47,34.56a5,5,0,0,1-2.16-.49,5.84,5.84,0,0,1-1.79-1.34,6.76,6.76,0,0,1-1.22-1.95,6.12,6.12,0,0,1-.45-2.33,6,6,0,0,1,.45-2.31,6.3,6.3,0,0,1,3-3.25,4.89,4.89,0,0,1,2.11-.48,3.81,3.81,0,0,1,1.9.43,3.33,3.33,0,0,1,1.25,1.25,6.29,6.29,0,0,1,.71,1.93,11.82,11.82,0,0,1,.24,2.49,11.33,11.33,0,0,1-.41,3.21,4.22,4.22,0,0,1-1.31,2.1A3.58,3.58,0,0,1,200.47,34.56Zm.45,5.47a6.49,6.49,0,0,1-1.76-.23,7.49,7.49,0,0,1-1.59-.6,4.45,4.45,0,0,1-1.15-.8,1.17,1.17,0,0,1-.42-.85,1.62,1.62,0,0,1,.15-.73,2.46,2.46,0,0,1,.45-.67,4.94,4.94,0,0,1,.6-.57.92.92,0,0,1,.6-.2,1,1,0,0,1,.62.19L199,36a3.41,3.41,0,0,0,.79.41,3.14,3.14,0,0,0,1.2.19,2.24,2.24,0,0,0,.93-.19,1.92,1.92,0,0,0,.75-.55,2.71,2.71,0,0,0,.5-.84,2.94,2.94,0,0,0,.19-1.09V23.56a1.21,1.21,0,0,1,.51-.94,2.49,2.49,0,0,1,1.34-.29,2.21,2.21,0,0,1,1.25.27,1.06,1.06,0,0,1,.46.69,4.26,4.26,0,0,1,.09.89v9.88a5.88,5.88,0,0,1-.52,2.54,5.6,5.6,0,0,1-1.41,1.87,6,6,0,0,1-2,1.16A6.19,6.19,0,0,1,200.92,40Zm0-9.1a2.13,2.13,0,0,0,1.2-.34,2.53,2.53,0,0,0,.84-.88,2.49,2.49,0,0,0,.31-1.25,2.44,2.44,0,0,0-.31-1.25,2.39,2.39,0,0,0-.85-.88,2.35,2.35,0,0,0-1.21-.32,2.21,2.21,0,0,0-1.2.33,2.56,2.56,0,0,0-.84.89,2.47,2.47,0,0,0-.32,1.25,2.36,2.36,0,0,0,.33,1.23,2.59,2.59,0,0,0,.86.88A2.17,2.17,0,0,0,200.9,30.93Z"/><path class="cls-2" d="M125.45,34.89a1.86,1.86,0,0,1-1.9-1.93,2.38,2.38,0,0,1,.06-.55.81.81,0,0,1,.21-.4l7.71-10.92h-6a4.91,4.91,0,0,1-.94-.09,1.22,1.22,0,0,1-.76-.48,2.09,2.09,0,0,1-.3-1.26,2.47,2.47,0,0,1,.27-1.33,1.18,1.18,0,0,1,.73-.49,4.05,4.05,0,0,1,.92-.1h9.65a1.76,1.76,0,0,1,1.34.57,1.87,1.87,0,0,1,.54,1.36,2.35,2.35,0,0,1-.08.6,1.18,1.18,0,0,1-.22.45l-7.66,10.87h6.42a4.45,4.45,0,0,1,.93.09,1.1,1.1,0,0,1,.69.48,2.27,2.27,0,0,1,.26,1.23,2.37,2.37,0,0,1-.28,1.33,1.06,1.06,0,0,1-.7.48,4.58,4.58,0,0,1-1,.09Z"/><path class="cls-2" d="M141.36,20.55a2.47,2.47,0,0,1-1.35-.28,1.11,1.11,0,0,1-.49-.73,5.11,5.11,0,0,1,0-1.91,1.09,1.09,0,0,1,.5-.7,2.71,2.71,0,0,1,1.36-.26,2.37,2.37,0,0,1,1.33.28,1,1,0,0,1,.48.72,5,5,0,0,1,.09,1,4.7,4.7,0,0,1-.09.92,1,1,0,0,1-.48.71A2.53,2.53,0,0,1,141.36,20.55Zm0,14.3a2.57,2.57,0,0,1-1.33-.27,1,1,0,0,1-.47-.7,5.31,5.31,0,0,1-.08-.91V24.24a4.53,4.53,0,0,1,.09-.91,1.08,1.08,0,0,1,.49-.7,2.52,2.52,0,0,1,1.32-.26,2.24,2.24,0,0,1,1.29.28,1.1,1.1,0,0,1,.47.71,4.62,4.62,0,0,1,.09.94V33a5.4,5.4,0,0,1-.08.91,1.06,1.06,0,0,1-.48.69A2.62,2.62,0,0,1,141.35,34.85Z"/><path class="cls-2" d="M151.07,34.53a5,5,0,0,1-2.16-.49,6,6,0,0,1-1.79-1.34,6.76,6.76,0,0,1-1.22-2,6.12,6.12,0,0,1-.45-2.33,6,6,0,0,1,.45-2.31,6.3,6.3,0,0,1,3-3.25,4.89,4.89,0,0,1,2.11-.48,3.81,3.81,0,0,1,1.9.43,3.29,3.29,0,0,1,1.25,1.26,6.4,6.4,0,0,1,.72,1.92,12.56,12.56,0,0,1,.23,2.49,11.33,11.33,0,0,1-.41,3.21,4.27,4.27,0,0,1-1.3,2.1A3.61,3.61,0,0,1,151.07,34.53Zm.45,5.47a6.9,6.9,0,0,1-1.76-.22,7,7,0,0,1-1.59-.61,4.45,4.45,0,0,1-1.15-.8,1.21,1.21,0,0,1-.42-.85,1.77,1.77,0,0,1,.15-.73,2.46,2.46,0,0,1,.45-.67,4.94,4.94,0,0,1,.6-.57.92.92,0,0,1,.6-.2,1,1,0,0,1,.62.19l.59.41a3.41,3.41,0,0,0,.79.41,3.14,3.14,0,0,0,1.2.19,2.24,2.24,0,0,0,.93-.19,1.86,1.86,0,0,0,.75-.54,2.89,2.89,0,0,0,.5-.85,2.94,2.94,0,0,0,.19-1.09V23.53a1.21,1.21,0,0,1,.51-.94,2.49,2.49,0,0,1,1.34-.29,2.21,2.21,0,0,1,1.25.27,1.06,1.06,0,0,1,.46.69,4.29,4.29,0,0,1,.09.9V34a5.88,5.88,0,0,1-.52,2.54,5.6,5.6,0,0,1-1.41,1.87,6,6,0,0,1-1.95,1.16A6.19,6.19,0,0,1,151.52,40Zm0-9.1a2.13,2.13,0,0,0,1.2-.34,2.45,2.45,0,0,0,.84-.88,2.49,2.49,0,0,0,.31-1.25,2.47,2.47,0,0,0-.31-1.25,2.39,2.39,0,0,0-.85-.88,2.35,2.35,0,0,0-1.21-.32,2.21,2.21,0,0,0-1.2.33,2.56,2.56,0,0,0-.84.89,2.47,2.47,0,0,0-.31,1.25,2.35,2.35,0,0,0,.32,1.23,2.59,2.59,0,0,0,.86.88A2.17,2.17,0,0,0,151.5,30.9Z"/><path class="cls-2" d="M168.1,34.86a1.8,1.8,0,0,1-1.32-.54,1.95,1.95,0,0,1-.39-2.06,1.68,1.68,0,0,1,.41-.62l5.68-5.5h-3.8a4.45,4.45,0,0,1-.91-.1,1.22,1.22,0,0,1-.73-.49,2.28,2.28,0,0,1-.29-1.31,2.3,2.3,0,0,1,.29-1.32,1.19,1.19,0,0,1,.73-.47,4.46,4.46,0,0,1,.91-.09h7.82a1.78,1.78,0,0,1,1.85,1.85,2.17,2.17,0,0,1-.13.76,1.69,1.69,0,0,1-.39.59l-5.56,5.52h4.53a4.4,4.4,0,0,1,.92.1,1.12,1.12,0,0,1,.69.5,2.49,2.49,0,0,1,.26,1.33,2.4,2.4,0,0,1-.27,1.3,1.1,1.1,0,0,1-.7.47,5.37,5.37,0,0,1-.93.08Z"/><path class="cls-2" d="M190.92,34.85a2.33,2.33,0,0,1-1.37-.33.91.91,0,0,1-.43-.8l.25-.42a2.72,2.72,0,0,1-.57.61,4.35,4.35,0,0,1-1.12.65,4.29,4.29,0,0,1-1.66.29,5.08,5.08,0,0,1-2.19-.5A6,6,0,0,1,182,33a7.07,7.07,0,0,1-1.28-2,6.15,6.15,0,0,1-.47-2.37,5.83,5.83,0,0,1,.48-2.34,6.34,6.34,0,0,1,1.29-2,6.15,6.15,0,0,1,1.83-1.36,4.84,4.84,0,0,1,2.18-.5,4.26,4.26,0,0,1,1.57.26,4.45,4.45,0,0,1,1.09.61,3.45,3.45,0,0,1,.66.68l-.22-.35a1,1,0,0,1,.44-.91,2.39,2.39,0,0,1,1.38-.31,2.34,2.34,0,0,1,1.29.27,1.16,1.16,0,0,1,.48.73,5.7,5.7,0,0,1,.08.95V33a4.73,4.73,0,0,1-.09.93,1.09,1.09,0,0,1-.48.71A2.45,2.45,0,0,1,190.92,34.85Zm-4.37-3.73a2.21,2.21,0,0,0,1.2-.33,2.6,2.6,0,0,0,.85-.92,2.48,2.48,0,0,0,.33-1.27,2.53,2.53,0,0,0-.33-1.29,2.56,2.56,0,0,0-.87-.89,2.45,2.45,0,0,0-1.23-.32,2.42,2.42,0,0,0-1.26.33,2.48,2.48,0,0,0-.9.92,2.45,2.45,0,0,0-.34,1.3,2.28,2.28,0,0,0,.34,1.23,2.41,2.41,0,0,0,.92.9A2.49,2.49,0,0,0,186.55,31.12Z"/><path class="cls-2" d="M200.47,34.56a5,5,0,0,1-2.16-.49,5.84,5.84,0,0,1-1.79-1.34,6.76,6.76,0,0,1-1.22-1.95,6.12,6.12,0,0,1-.45-2.33,6,6,0,0,1,.45-2.31,6.3,6.3,0,0,1,3-3.25,4.89,4.89,0,0,1,2.11-.48,3.81,3.81,0,0,1,1.9.43,3.33,3.33,0,0,1,1.25,1.25,6.29,6.29,0,0,1,.71,1.93,11.82,11.82,0,0,1,.24,2.49,11.33,11.33,0,0,1-.41,3.21,4.22,4.22,0,0,1-1.31,2.1A3.58,3.58,0,0,1,200.47,34.56Zm.45,5.47a6.49,6.49,0,0,1-1.76-.23,7.49,7.49,0,0,1-1.59-.6,4.45,4.45,0,0,1-1.15-.8,1.17,1.17,0,0,1-.42-.85,1.62,1.62,0,0,1,.15-.73,2.46,2.46,0,0,1,.45-.67,4.94,4.94,0,0,1,.6-.57.92.92,0,0,1,.6-.2,1,1,0,0,1,.62.19L199,36a3.41,3.41,0,0,0,.79.41,3.14,3.14,0,0,0,1.2.19,2.24,2.24,0,0,0,.93-.19,1.92,1.92,0,0,0,.75-.55,2.71,2.71,0,0,0,.5-.84,2.94,2.94,0,0,0,.19-1.09V23.56a1.21,1.21,0,0,1,.51-.94,2.49,2.49,0,0,1,1.34-.29,2.21,2.21,0,0,1,1.25.27,1.06,1.06,0,0,1,.46.69,4.26,4.26,0,0,1,.09.89v9.88a5.88,5.88,0,0,1-.52,2.54,5.6,5.6,0,0,1-1.41,1.87,6,6,0,0,1-2,1.16A6.19,6.19,0,0,1,200.92,40Zm0-9.1a2.13,2.13,0,0,0,1.2-.34,2.53,2.53,0,0,0,.84-.88,2.49,2.49,0,0,0,.31-1.25,2.44,2.44,0,0,0-.31-1.25,2.39,2.39,0,0,0-.85-.88,2.35,2.35,0,0,0-1.21-.32,2.21,2.21,0,0,0-1.2.33,2.56,2.56,0,0,0-.84.89,2.47,2.47,0,0,0-.32,1.25,2.36,2.36,0,0,0,.33,1.23,2.59,2.59,0,0,0,.86.88A2.17,2.17,0,0,0,200.9,30.93Z"/><text class="cls-4" transform="matrix(0.97, 0, 0, 1, 40.3, 41.89)">1<tspan class="cls-5" x="18.23" y="0">.</tspan><tspan x="25.91" y="0">4</tspan></text><text class="cls-6" transform="matrix(0.97, 0, 0, 1, 40.3, 41.89)">1<tspan class="cls-5" x="18.23" y="0">.</tspan><tspan x="25.91" y="0">4</tspan></text></g></g></svg>