<svg xmlns="http://www.w3.org/2000/svg" viewBox="0 0 399.98 138.05"><defs><style>.cls-1{fill:#0468ad;}.cls-2{fill:#fff;}.cls-3,.cls-4{fill:none;stroke-width:5px;}.cls-3{stroke:#c8a927;stroke-miterlimit:10;}.cls-4,.cls-6{font-size:37px;font-family:Coiny-Regular, Coiny;}.cls-4{stroke:#fff;stroke-linejoin:round;}.cls-5{letter-spacing:-0.1em;}.cls-6{fill:#c8a927;}</style></defs><title>2.4recorteli</title><g id="Layer_2" data-name="Layer 2"><g id="pestaña_identificativa" data-name="pestaña identificativa"><path class="cls-1" d="M368.29,0H43.76A43.76,43.76,0,0,0,0,43.76v94.29H400V31.69A31.69,31.69,0,0,0,368.29,0Z"/><path class="cls-2" d="M113.89,33.84a2.38,2.38,0,0,1-1.31-.28,1.17,1.17,0,0,1-.49-.72,4.81,4.81,0,0,1-.09-.93V18.26a4.45,4.45,0,0,1,.1-.91,1.19,1.19,0,0,1,.5-.71,2.37,2.37,0,0,1,1.33-.28h5.17a6.47,6.47,0,0,1,2.13.38,6.14,6.14,0,0,1,2,1.15,5.74,5.74,0,0,1,1.45,1.93,6.17,6.17,0,0,1,.55,2.72,6.68,6.68,0,0,1-.31,2,5.73,5.73,0,0,1-.94,1.8,6.14,6.14,0,0,1-1.55,1.4,6.75,6.75,0,0,1-2.13.86h-4.45v3.3a3.91,3.91,0,0,1-.1.91,1.15,1.15,0,0,1-.5.71A2.37,2.37,0,0,1,113.89,33.84Zm1.93-9h3.48a2,2,0,0,0,.7-.13,2.21,2.21,0,0,0,.69-.41,2.08,2.08,0,0,0,.51-.73,2.69,2.69,0,0,0,.2-1.07,2.46,2.46,0,0,0-.3-1.25,2.09,2.09,0,0,0-.82-.82,2.54,2.54,0,0,0-1.23-.29h-3.22Zm8.62,8.48a1.94,1.94,0,0,1-1.47.54,2.24,2.24,0,0,1-1.15-1l-4.4-6.3L121.7,26l3.22,4.63a3.64,3.64,0,0,1,.54,1,1,1,0,0,1-.13.8A3.32,3.32,0,0,1,124.44,33.34Z"/><path class="cls-2" d="M133.79,34.07a7.28,7.28,0,0,1-3-.57A5.86,5.86,0,0,1,128.72,32a6.51,6.51,0,0,1-1.2-2.09,6.83,6.83,0,0,1-.4-2.3,6.51,6.51,0,0,1,.85-3.32A6.14,6.14,0,0,1,130.34,22a7.11,7.11,0,0,1,3.46-.83,6.22,6.22,0,0,1,2.51.46,5.12,5.12,0,0,1,2.78,2.79,4.51,4.51,0,0,1,.33,1.63,2.84,2.84,0,0,1-.66,2,2.27,2.27,0,0,1-1.69.67h-5.95a1.76,1.76,0,0,0,.46,1.07,2.73,2.73,0,0,0,1,.7,3.5,3.5,0,0,0,1.33.25,8.05,8.05,0,0,0,1-.06,4.49,4.49,0,0,0,.79-.17l.59-.23.49-.19a4.19,4.19,0,0,1,.42-.1,1.06,1.06,0,0,1,.68.22,2.11,2.11,0,0,1,.57.71,1.75,1.75,0,0,1,.24.53,2.07,2.07,0,0,1,.06.5,1.32,1.32,0,0,1-.61,1.08,4.73,4.73,0,0,1-1.73.74A11.56,11.56,0,0,1,133.79,34.07Zm-2.67-7.4h3.95a1.06,1.06,0,0,0,.58-.13.62.62,0,0,0,.2-.54,1.23,1.23,0,0,0-.28-.78,1.67,1.67,0,0,0-.73-.53,2.8,2.8,0,0,0-1.09-.19,3,3,0,0,0-1.35.3,2.38,2.38,0,0,0-.94.8A1.91,1.91,0,0,0,131.12,26.67Z"/><path class="cls-2" d="M147.69,34a6.37,6.37,0,0,1-2.23-.42,6.92,6.92,0,0,1-2.1-1.21,5.8,5.8,0,0,1-1.54-2,6.35,6.35,0,0,1-.57-2.75,6.2,6.2,0,0,1,.57-2.73,6.11,6.11,0,0,1,1.53-2,6.75,6.75,0,0,1,2.09-1.21,6.33,6.33,0,0,1,2.21-.41,6,6,0,0,1,1.66.21,5.41,5.41,0,0,1,1.25.51,3.87,3.87,0,0,1,.74.53,8.35,8.35,0,0,1,.75.65,1.05,1.05,0,0,1,.3.85,1.59,1.59,0,0,1-.18.56,4.36,4.36,0,0,1-.37.59c-.52.7-1,1-1.5.95a2.58,2.58,0,0,1-.69-.25l-.6-.35a5.86,5.86,0,0,0-.61-.32,2,2,0,0,0-.75-.13,2.56,2.56,0,0,0-1.3.33,2.53,2.53,0,0,0-.91.9,2.46,2.46,0,0,0-.34,1.31,2.54,2.54,0,0,0,.33,1.3,2.64,2.64,0,0,0,.9.92,2.49,2.49,0,0,0,1.27.34,2.72,2.72,0,0,0,.72-.1,2.59,2.59,0,0,0,.55-.24l.35-.21c.2-.14.39-.26.58-.37a1.12,1.12,0,0,1,.55-.16,1.2,1.2,0,0,1,.73.27,4,4,0,0,1,.82.83,2.07,2.07,0,0,1,.48,1,1.22,1.22,0,0,1-.21.86,2.56,2.56,0,0,1-.85.76,3.69,3.69,0,0,1-.71.45,6.77,6.77,0,0,1-1.25.5A5.76,5.76,0,0,1,147.69,34Z"/><path class="cls-2" d="M160.64,34.06a6.2,6.2,0,0,1-2.33-.46,7.29,7.29,0,0,1-2.12-1.31,6.53,6.53,0,0,1-1.51-2,6.15,6.15,0,0,1-.56-2.64,6,6,0,0,1,.52-2.51A6.63,6.63,0,0,1,156.05,23a6.75,6.75,0,0,1,2.06-1.41,6,6,0,0,1,2.49-.52,6.24,6.24,0,0,1,3.26.87,6.4,6.4,0,0,1,2.34,2.34,6.3,6.3,0,0,1,.87,3.27,6.39,6.39,0,0,1-.56,2.72,6.5,6.5,0,0,1-1.5,2,6.57,6.57,0,0,1-2.08,1.29A6.36,6.36,0,0,1,160.64,34.06Zm0-3.77a2.81,2.81,0,0,0,1.22-.3,2.67,2.67,0,0,0,1.05-.9,2.6,2.6,0,0,0,.43-1.52,2.74,2.74,0,0,0-.35-1.4,2.55,2.55,0,0,0-1-.94,2.84,2.84,0,0,0-1.42-.34,2.59,2.59,0,0,0-2.28,1.31,2.6,2.6,0,0,0-.37,1.39,2.68,2.68,0,0,0,.41,1.51,2.49,2.49,0,0,0,1,.9A3,3,0,0,0,160.6,30.29Z"/><path class="cls-2" d="M171,33.87a2.45,2.45,0,0,1-1.31-.26,1.11,1.11,0,0,1-.48-.72,4.63,4.63,0,0,1-.09-.92V23.24a4.42,4.42,0,0,1,.09-.92,1.08,1.08,0,0,1,.49-.69,3.45,3.45,0,0,1,2.58,0,1.06,1.06,0,0,1,.49.55,1.73,1.73,0,0,1,.1.54l-.3.15a2.39,2.39,0,0,1,.26-.37,4.06,4.06,0,0,1,.59-.55,3.53,3.53,0,0,1,2.15-.68,4.55,4.55,0,0,1,.61,0,3,3,0,0,1,.7.15,2.54,2.54,0,0,1,.67.3,1.51,1.51,0,0,1,.48.46,1.13,1.13,0,0,1,.19.67,3,3,0,0,1-.48,1.74,1.38,1.38,0,0,1-1.2.71,2.11,2.11,0,0,1-.6-.06.92.92,0,0,1-.28-.15,1.17,1.17,0,0,0-.27-.15,1.68,1.68,0,0,0-.55-.06,2.39,2.39,0,0,0-.71.1,1.9,1.9,0,0,0-.62.31,1.39,1.39,0,0,0-.45.52,1.53,1.53,0,0,0-.17.72V32a4.46,4.46,0,0,1-.09.91,1,1,0,0,1-.49.69A2.56,2.56,0,0,1,171,33.87Z"/><path class="cls-2" d="M181,21.58h2.75l3.45-.1a4.29,4.29,0,0,1,.9.09,1.1,1.1,0,0,1,.7.49,2.43,2.43,0,0,1,.27,1.32,2.28,2.28,0,0,1-.26,1.25,1.1,1.1,0,0,1-.69.51,3.36,3.36,0,0,1-.92.12l-3.28-.08-3,0a1.25,1.25,0,0,1-1-.46,2.46,2.46,0,0,1-.29-1.39A2.17,2.17,0,0,1,179.9,22,1.26,1.26,0,0,1,181,21.58Zm5.64,12.3a7.54,7.54,0,0,1-2.2-.28A3.33,3.33,0,0,1,182,31.29a6.94,6.94,0,0,1-.29-2.11V19.05a4.92,4.92,0,0,1,.08-.92,1.11,1.11,0,0,1,.49-.67,2.51,2.51,0,0,1,1.3-.26,2.36,2.36,0,0,1,1.3.28,1.1,1.1,0,0,1,.49.71,4.53,4.53,0,0,1,.09.91V29a3,3,0,0,0,.06.66.79.79,0,0,0,.19.39.68.68,0,0,0,.35.17,2.71,2.71,0,0,0,.55.06,4.16,4.16,0,0,1,1,.1,1,1,0,0,1,.66.45,2.14,2.14,0,0,1,.23,1.17,2.4,2.4,0,0,1-.27,1.3,1.07,1.07,0,0,1-.71.48A6.86,6.86,0,0,1,186.59,33.88Z"/><path class="cls-2" d="M197.14,34.11a7.12,7.12,0,0,1-3-.58A5.72,5.72,0,0,1,192.07,32a6.61,6.61,0,0,1-1.2-2.09,6.83,6.83,0,0,1-.4-2.3,6.48,6.48,0,0,1,.85-3.32A6.14,6.14,0,0,1,193.69,22a6.9,6.9,0,0,1,3.46-.83,6.22,6.22,0,0,1,2.51.46,5.23,5.23,0,0,1,1.75,1.2,5.1,5.1,0,0,1,1,1.59,4.5,4.5,0,0,1,.33,1.62,2.82,2.82,0,0,1-.66,2.05,2.28,2.28,0,0,1-1.69.68h-5.95a1.77,1.77,0,0,0,.46,1.08,2.85,2.85,0,0,0,1,.7,3.48,3.48,0,0,0,1.32.25,8.1,8.1,0,0,0,1-.06,3.7,3.7,0,0,0,.79-.18,5.66,5.66,0,0,0,.59-.22,4.32,4.32,0,0,1,.48-.19,2.63,2.63,0,0,1,.43-.1,1,1,0,0,1,.67.22,1.93,1.93,0,0,1,.58.71,2,2,0,0,1,.24.52,2.2,2.2,0,0,1,.06.5,1.36,1.36,0,0,1-.61,1.09,4.91,4.91,0,0,1-1.73.74A11.56,11.56,0,0,1,197.14,34.11Zm-2.67-7.4h3.95a1,1,0,0,0,.58-.14.61.61,0,0,0,.2-.53,1.21,1.21,0,0,0-.28-.78,1.84,1.84,0,0,0-.73-.54,3,3,0,0,0-1.09-.18,3,3,0,0,0-1.35.3,2.3,2.3,0,0,0-.94.8A1.91,1.91,0,0,0,194.47,26.71Z"/><path class="cls-2" d="M213.64,33.9a2.44,2.44,0,0,1-1.31-.27,1,1,0,0,1-.5-.71,4.7,4.7,0,0,1-.09-.92V18.32a4.46,4.46,0,0,1,.09-.91,1.14,1.14,0,0,1,.49-.72,2.43,2.43,0,0,1,1.32-.27,2.34,2.34,0,0,1,1.34.28,1.07,1.07,0,0,1,.47.71,4.62,4.62,0,0,1,.09.94V30.6h6.85a4,4,0,0,1,.8.08,1,1,0,0,1,.62.42,2.23,2.23,0,0,1,.23,1.15,2,2,0,0,1-.25,1.14,1,1,0,0,1-.61.44,3.87,3.87,0,0,1-.79.07Z"/><path class="cls-2" d="M228,19.6a2.48,2.48,0,0,1-1.35-.27,1.11,1.11,0,0,1-.49-.73,5.11,5.11,0,0,1,0-1.91,1.09,1.09,0,0,1,.5-.7,2.71,2.71,0,0,1,1.36-.26,2.37,2.37,0,0,1,1.33.28,1.08,1.08,0,0,1,.48.72,5,5,0,0,1,.09,1,4.7,4.7,0,0,1-.09.92,1.07,1.07,0,0,1-.48.71A2.54,2.54,0,0,1,228,19.6Zm0,14.3a2.49,2.49,0,0,1-1.33-.26,1,1,0,0,1-.47-.7,5.31,5.31,0,0,1-.08-.91V23.3a4.53,4.53,0,0,1,.09-.91,1.06,1.06,0,0,1,.48-.7,2.59,2.59,0,0,1,1.33-.26,2.24,2.24,0,0,1,1.29.28,1.1,1.1,0,0,1,.47.71,4.62,4.62,0,0,1,.09.94v8.7a5.4,5.4,0,0,1-.08.91,1.06,1.06,0,0,1-.48.69A2.64,2.64,0,0,1,228,33.9Z"/><path class="cls-2" d="M234.39,33.91a2.3,2.3,0,0,1-1.3-.28,1.13,1.13,0,0,1-.49-.71,5.4,5.4,0,0,1-.08-.91V17.63a5.67,5.67,0,0,1,.08-.94,1.07,1.07,0,0,1,.49-.69,2.47,2.47,0,0,1,1.33-.27,2.23,2.23,0,0,1,1.27.28,1.08,1.08,0,0,1,.45.71,4,4,0,0,1,0,.92V32.78a1.3,1.3,0,0,1-.52.85A2.25,2.25,0,0,1,234.39,33.91Zm4.85,0A4.32,4.32,0,0,1,235.56,32a6.45,6.45,0,0,1-.93-2,8.15,8.15,0,0,1-.28-2.4,8.71,8.71,0,0,1,.32-2.35,6.42,6.42,0,0,1,.94-2,4.28,4.28,0,0,1,3.64-1.82,4.75,4.75,0,0,1,2.15.5,6.51,6.51,0,0,1,1.84,1.36,6.64,6.64,0,0,1,1.27,2,6,6,0,0,1,.46,2.33,6.35,6.35,0,0,1-.46,2.42,6.54,6.54,0,0,1-1.27,2,5.83,5.83,0,0,1-1.82,1.36A5,5,0,0,1,239.24,33.89Zm-.5-3.7a2.36,2.36,0,0,0,1.25-.34,2.59,2.59,0,0,0,.89-.91,2.45,2.45,0,0,0,.34-1.28,2.6,2.6,0,0,0-.32-1.27,2.33,2.33,0,0,0-.89-.9,2.42,2.42,0,0,0-1.24-.33,2.4,2.4,0,0,0-2.11,1.24,2.5,2.5,0,0,0-.31,1.26,2.47,2.47,0,0,0,.32,1.27,2.56,2.56,0,0,0,.87.92A2.32,2.32,0,0,0,238.74,30.19Z"/><path class="cls-2" d="M249,33.92a2.41,2.41,0,0,1-1.32-.27,1.09,1.09,0,0,1-.47-.71,4.7,4.7,0,0,1-.09-.92V23.29a4.42,4.42,0,0,1,.09-.92,1,1,0,0,1,.48-.69,3.48,3.48,0,0,1,2.59,0,1,1,0,0,1,.49.55,2,2,0,0,1,.1.53l-.3.15a3.22,3.22,0,0,1,.26-.36,3.58,3.58,0,0,1,.59-.55,3.71,3.71,0,0,1,.91-.49,3.4,3.4,0,0,1,1.24-.19l.61,0a4.62,4.62,0,0,1,.7.15,3.32,3.32,0,0,1,.66.3,1.58,1.58,0,0,1,.49.47,1.11,1.11,0,0,1,.19.67,3.06,3.06,0,0,1-.48,1.74,1.41,1.41,0,0,1-1.2.71,2.11,2.11,0,0,1-.6-.06,1,1,0,0,1-.29-.15.93.93,0,0,0-.26-.15,1.61,1.61,0,0,0-.55-.07,2.71,2.71,0,0,0-.71.1,2.2,2.2,0,0,0-.63.32,1.5,1.5,0,0,0-.45.52,1.65,1.65,0,0,0-.16.71v5.48a4.46,4.46,0,0,1-.09.91,1,1,0,0,1-.49.69A2.69,2.69,0,0,1,249,33.92Z"/><path class="cls-2" d="M264.42,34.15a7.17,7.17,0,0,1-3-.58,5.8,5.8,0,0,1-2.06-1.51,6.61,6.61,0,0,1-1.2-2.09,6.82,6.82,0,0,1-.39-2.3,6.38,6.38,0,0,1,.85-3.32A6,6,0,0,1,261,22.06a7,7,0,0,1,3.46-.83,6.27,6.27,0,0,1,2.52.46,5.33,5.33,0,0,1,1.75,1.2,5.25,5.25,0,0,1,1,1.59,4.53,4.53,0,0,1,.34,1.62,2.82,2.82,0,0,1-.67,2,2.26,2.26,0,0,1-1.69.68h-5.95a1.78,1.78,0,0,0,.47,1.08,2.81,2.81,0,0,0,1,.7,3.5,3.5,0,0,0,1.33.25,8.22,8.22,0,0,0,1-.06,4.37,4.37,0,0,0,.78-.17c.22-.08.42-.15.59-.23l.49-.19a2.53,2.53,0,0,1,.42-.1,1,1,0,0,1,.68.22,2,2,0,0,1,.57.71,1.71,1.71,0,0,1,.24.52,2.2,2.2,0,0,1,.06.5,1.34,1.34,0,0,1-.61,1.09,4.83,4.83,0,0,1-1.73.74A11.47,11.47,0,0,1,264.42,34.15Zm-2.67-7.4h3.95a1,1,0,0,0,.57-.13.65.65,0,0,0,.2-.54,1.25,1.25,0,0,0-.27-.78,1.76,1.76,0,0,0-.74-.53,2.8,2.8,0,0,0-1.09-.19,3,3,0,0,0-1.35.3,2.38,2.38,0,0,0-.94.8A1.9,1.9,0,0,0,261.75,26.75Z"/><path class="cls-3" d="M113.89,33.84a2.38,2.38,0,0,1-1.31-.28,1.17,1.17,0,0,1-.49-.72,4.81,4.81,0,0,1-.09-.93V18.26a4.45,4.45,0,0,1,.1-.91,1.19,1.19,0,0,1,.5-.71,2.37,2.37,0,0,1,1.33-.28h5.17a6.47,6.47,0,0,1,2.13.38,6.14,6.14,0,0,1,2,1.15,5.74,5.74,0,0,1,1.45,1.93,6.17,6.17,0,0,1,.55,2.72,6.68,6.68,0,0,1-.31,2,5.73,5.73,0,0,1-.94,1.8,6.14,6.14,0,0,1-1.55,1.4,6.75,6.75,0,0,1-2.13.86h-4.45v3.3a3.91,3.91,0,0,1-.1.91,1.15,1.15,0,0,1-.5.71A2.37,2.37,0,0,1,113.89,33.84Zm1.93-9h3.48a2,2,0,0,0,.7-.13,2.21,2.21,0,0,0,.69-.41,2.08,2.08,0,0,0,.51-.73,2.69,2.69,0,0,0,.2-1.07,2.46,2.46,0,0,0-.3-1.25,2.09,2.09,0,0,0-.82-.82,2.54,2.54,0,0,0-1.23-.29h-3.22Zm8.62,8.48a1.94,1.94,0,0,1-1.47.54,2.24,2.24,0,0,1-1.15-1l-4.4-6.3L121.7,26l3.22,4.63a3.64,3.64,0,0,1,.54,1,1,1,0,0,1-.13.8A3.32,3.32,0,0,1,124.44,33.34Z"/><path class="cls-3" d="M133.79,34.07a7.28,7.28,0,0,1-3-.57A5.86,5.86,0,0,1,128.72,32a6.51,6.51,0,0,1-1.2-2.09,6.83,6.83,0,0,1-.4-2.3,6.51,6.51,0,0,1,.85-3.32A6.14,6.14,0,0,1,130.34,22a7.11,7.11,0,0,1,3.46-.83,6.22,6.22,0,0,1,2.51.46,5.12,5.12,0,0,1,2.78,2.79,4.51,4.51,0,0,1,.33,1.63,2.84,2.84,0,0,1-.66,2,2.27,2.27,0,0,1-1.69.67h-5.95a1.76,1.76,0,0,0,.46,1.07,2.73,2.73,0,0,0,1,.7,3.5,3.5,0,0,0,1.33.25,8.05,8.05,0,0,0,1-.06,4.49,4.49,0,0,0,.79-.17l.59-.23.49-.19a4.19,4.19,0,0,1,.42-.1,1.06,1.06,0,0,1,.68.22,2.11,2.11,0,0,1,.57.71,1.75,1.75,0,0,1,.24.53,2.07,2.07,0,0,1,.06.5,1.32,1.32,0,0,1-.61,1.08,4.73,4.73,0,0,1-1.73.74A11.56,11.56,0,0,1,133.79,34.07Zm-2.67-7.4h3.95a1.06,1.06,0,0,0,.58-.13.62.62,0,0,0,.2-.54,1.23,1.23,0,0,0-.28-.78,1.67,1.67,0,0,0-.73-.53,2.8,2.8,0,0,0-1.09-.19,3,3,0,0,0-1.35.3,2.38,2.38,0,0,0-.94.8A1.91,1.91,0,0,0,131.12,26.67Z"/><path class="cls-3" d="M147.69,34a6.37,6.37,0,0,1-2.23-.42,6.92,6.92,0,0,1-2.1-1.21,5.8,5.8,0,0,1-1.54-2,6.35,6.35,0,0,1-.57-2.75,6.2,6.2,0,0,1,.57-2.73,6.11,6.11,0,0,1,1.53-2,6.75,6.75,0,0,1,2.09-1.21,6.33,6.33,0,0,1,2.21-.41,6,6,0,0,1,1.66.21,5.41,5.41,0,0,1,1.25.51,3.87,3.87,0,0,1,.74.53,8.35,8.35,0,0,1,.75.65,1.05,1.05,0,0,1,.3.85,1.59,1.59,0,0,1-.18.56,4.36,4.36,0,0,1-.37.59c-.52.7-1,1-1.5.95a2.58,2.58,0,0,1-.69-.25l-.6-.35a5.86,5.86,0,0,0-.61-.32,2,2,0,0,0-.75-.13,2.56,2.56,0,0,0-1.3.33,2.53,2.53,0,0,0-.91.9,2.46,2.46,0,0,0-.34,1.31,2.54,2.54,0,0,0,.33,1.3,2.64,2.64,0,0,0,.9.92,2.49,2.49,0,0,0,1.27.34,2.72,2.72,0,0,0,.72-.1,2.59,2.59,0,0,0,.55-.24l.35-.21c.2-.14.39-.26.58-.37a1.12,1.12,0,0,1,.55-.16,1.2,1.2,0,0,1,.73.27,4,4,0,0,1,.82.83,2.07,2.07,0,0,1,.48,1,1.22,1.22,0,0,1-.21.86,2.56,2.56,0,0,1-.85.76,3.69,3.69,0,0,1-.71.45,6.77,6.77,0,0,1-1.25.5A5.76,5.76,0,0,1,147.69,34Z"/><path class="cls-3" d="M160.64,34.06a6.2,6.2,0,0,1-2.33-.46,7.29,7.29,0,0,1-2.12-1.31,6.53,6.53,0,0,1-1.51-2,6.15,6.15,0,0,1-.56-2.64,6,6,0,0,1,.52-2.51A6.63,6.63,0,0,1,156.05,23a6.75,6.75,0,0,1,2.06-1.41,6,6,0,0,1,2.49-.52,6.24,6.24,0,0,1,3.26.87,6.4,6.4,0,0,1,2.34,2.34,6.3,6.3,0,0,1,.87,3.27,6.39,6.39,0,0,1-.56,2.72,6.5,6.5,0,0,1-1.5,2,6.57,6.57,0,0,1-2.08,1.29A6.36,6.36,0,0,1,160.64,34.06Zm0-3.77a2.81,2.81,0,0,0,1.22-.3,2.67,2.67,0,0,0,1.05-.9,2.6,2.6,0,0,0,.43-1.52,2.74,2.74,0,0,0-.35-1.4,2.55,2.55,0,0,0-1-.94,2.84,2.84,0,0,0-1.42-.34,2.59,2.59,0,0,0-2.28,1.31,2.6,2.6,0,0,0-.37,1.39,2.68,2.68,0,0,0,.41,1.51,2.49,2.49,0,0,0,1,.9A3,3,0,0,0,160.6,30.29Z"/><path class="cls-3" d="M171,33.87a2.45,2.45,0,0,1-1.31-.26,1.11,1.11,0,0,1-.48-.72,4.63,4.63,0,0,1-.09-.92V23.24a4.42,4.42,0,0,1,.09-.92,1.08,1.08,0,0,1,.49-.69,3.45,3.45,0,0,1,2.58,0,1.06,1.06,0,0,1,.49.55,1.73,1.73,0,0,1,.1.54l-.3.15a2.39,2.39,0,0,1,.26-.37,4.06,4.06,0,0,1,.59-.55,3.53,3.53,0,0,1,2.15-.68,4.55,4.55,0,0,1,.61,0,3,3,0,0,1,.7.15,2.54,2.54,0,0,1,.67.3,1.51,1.51,0,0,1,.48.46,1.13,1.13,0,0,1,.19.67,3,3,0,0,1-.48,1.74,1.38,1.38,0,0,1-1.2.71,2.11,2.11,0,0,1-.6-.06.92.92,0,0,1-.28-.15,1.17,1.17,0,0,0-.27-.15,1.68,1.68,0,0,0-.55-.06,2.39,2.39,0,0,0-.71.1,1.9,1.9,0,0,0-.62.31,1.39,1.39,0,0,0-.45.52,1.53,1.53,0,0,0-.17.72V32a4.46,4.46,0,0,1-.09.91,1,1,0,0,1-.49.69A2.56,2.56,0,0,1,171,33.87Z"/><path class="cls-3" d="M181,21.58h2.75l3.45-.1a4.29,4.29,0,0,1,.9.09,1.1,1.1,0,0,1,.7.49,2.43,2.43,0,0,1,.27,1.32,2.28,2.28,0,0,1-.26,1.25,1.1,1.1,0,0,1-.69.51,3.36,3.36,0,0,1-.92.12l-3.28-.08-3,0a1.25,1.25,0,0,1-1-.46,2.46,2.46,0,0,1-.29-1.39A2.17,2.17,0,0,1,179.9,22,1.26,1.26,0,0,1,181,21.58Zm5.64,12.3a7.54,7.54,0,0,1-2.2-.28A3.33,3.33,0,0,1,182,31.29a6.94,6.94,0,0,1-.29-2.11V19.05a4.92,4.92,0,0,1,.08-.92,1.11,1.11,0,0,1,.49-.67,2.51,2.51,0,0,1,1.3-.26,2.36,2.36,0,0,1,1.3.28,1.1,1.1,0,0,1,.49.71,4.53,4.53,0,0,1,.09.91V29a3,3,0,0,0,.06.66.79.79,0,0,0,.19.39.68.68,0,0,0,.35.17,2.71,2.71,0,0,0,.55.06,4.16,4.16,0,0,1,1,.1,1,1,0,0,1,.66.45,2.14,2.14,0,0,1,.23,1.17,2.4,2.4,0,0,1-.27,1.3,1.07,1.07,0,0,1-.71.48A6.86,6.86,0,0,1,186.59,33.88Z"/><path class="cls-3" d="M197.14,34.11a7.12,7.12,0,0,1-3-.58A5.72,5.72,0,0,1,192.07,32a6.61,6.61,0,0,1-1.2-2.09,6.83,6.83,0,0,1-.4-2.3,6.48,6.48,0,0,1,.85-3.32A6.14,6.14,0,0,1,193.69,22a6.9,6.9,0,0,1,3.46-.83,6.22,6.22,0,0,1,2.51.46,5.23,5.23,0,0,1,1.75,1.2,5.1,5.1,0,0,1,1,1.59,4.5,4.5,0,0,1,.33,1.62,2.82,2.82,0,0,1-.66,2.05,2.28,2.28,0,0,1-1.69.68h-5.95a1.77,1.77,0,0,0,.46,1.08,2.85,2.85,0,0,0,1,.7,3.48,3.48,0,0,0,1.32.25,8.1,8.1,0,0,0,1-.06,3.7,3.7,0,0,0,.79-.18,5.66,5.66,0,0,0,.59-.22,4.32,4.32,0,0,1,.48-.19,2.63,2.63,0,0,1,.43-.1,1,1,0,0,1,.67.22,1.93,1.93,0,0,1,.58.71,2,2,0,0,1,.24.52,2.2,2.2,0,0,1,.06.5,1.36,1.36,0,0,1-.61,1.09,4.91,4.91,0,0,1-1.73.74A11.56,11.56,0,0,1,197.14,34.11Zm-2.67-7.4h3.95a1,1,0,0,0,.58-.14.61.61,0,0,0,.2-.53,1.21,1.21,0,0,0-.28-.78,1.84,1.84,0,0,0-.73-.54,3,3,0,0,0-1.09-.18,3,3,0,0,0-1.35.3,2.3,2.3,0,0,0-.94.8A1.91,1.91,0,0,0,194.47,26.71Z"/><path class="cls-3" d="M213.64,33.9a2.44,2.44,0,0,1-1.31-.27,1,1,0,0,1-.5-.71,4.7,4.7,0,0,1-.09-.92V18.32a4.46,4.46,0,0,1,.09-.91,1.14,1.14,0,0,1,.49-.72,2.43,2.43,0,0,1,1.32-.27,2.34,2.34,0,0,1,1.34.28,1.07,1.07,0,0,1,.47.71,4.62,4.62,0,0,1,.09.94V30.6h6.85a4,4,0,0,1,.8.08,1,1,0,0,1,.62.42,2.23,2.23,0,0,1,.23,1.15,2,2,0,0,1-.25,1.14,1,1,0,0,1-.61.44,3.87,3.87,0,0,1-.79.07Z"/><path class="cls-3" d="M228,19.6a2.48,2.48,0,0,1-1.35-.27,1.11,1.11,0,0,1-.49-.73,5.11,5.11,0,0,1,0-1.91,1.09,1.09,0,0,1,.5-.7,2.71,2.71,0,0,1,1.36-.26,2.37,2.37,0,0,1,1.33.28,1.08,1.08,0,0,1,.48.72,5,5,0,0,1,.09,1,4.7,4.7,0,0,1-.09.92,1.07,1.07,0,0,1-.48.71A2.54,2.54,0,0,1,228,19.6Zm0,14.3a2.49,2.49,0,0,1-1.33-.26,1,1,0,0,1-.47-.7,5.31,5.31,0,0,1-.08-.91V23.3a4.53,4.53,0,0,1,.09-.91,1.06,1.06,0,0,1,.48-.7,2.59,2.59,0,0,1,1.33-.26,2.24,2.24,0,0,1,1.29.28,1.1,1.1,0,0,1,.47.71,4.62,4.62,0,0,1,.09.94v8.7a5.4,5.4,0,0,1-.08.91,1.06,1.06,0,0,1-.48.69A2.64,2.64,0,0,1,228,33.9Z"/><path class="cls-3" d="M234.39,33.91a2.3,2.3,0,0,1-1.3-.28,1.13,1.13,0,0,1-.49-.71,5.4,5.4,0,0,1-.08-.91V17.63a5.67,5.67,0,0,1,.08-.94,1.07,1.07,0,0,1,.49-.69,2.47,2.47,0,0,1,1.33-.27,2.23,2.23,0,0,1,1.27.28,1.08,1.08,0,0,1,.45.71,4,4,0,0,1,0,.92V32.78a1.3,1.3,0,0,1-.52.85A2.25,2.25,0,0,1,234.39,33.91Zm4.85,0A4.32,4.32,0,0,1,235.56,32a6.45,6.45,0,0,1-.93-2,8.15,8.15,0,0,1-.28-2.4,8.71,8.71,0,0,1,.32-2.35,6.42,6.42,0,0,1,.94-2,4.28,4.28,0,0,1,3.64-1.82,4.75,4.75,0,0,1,2.15.5,6.51,6.51,0,0,1,1.84,1.36,6.64,6.64,0,0,1,1.27,2,6,6,0,0,1,.46,2.33,6.35,6.35,0,0,1-.46,2.42,6.54,6.54,0,0,1-1.27,2,5.83,5.83,0,0,1-1.82,1.36A5,5,0,0,1,239.24,33.89Zm-.5-3.7a2.36,2.36,0,0,0,1.25-.34,2.59,2.59,0,0,0,.89-.91,2.45,2.45,0,0,0,.34-1.28,2.6,2.6,0,0,0-.32-1.27,2.33,2.33,0,0,0-.89-.9,2.42,2.42,0,0,0-1.24-.33,2.4,2.4,0,0,0-2.11,1.24,2.5,2.5,0,0,0-.31,1.26,2.47,2.47,0,0,0,.32,1.27,2.56,2.56,0,0,0,.87.92A2.32,2.32,0,0,0,238.74,30.19Z"/><path class="cls-3" d="M249,33.92a2.41,2.41,0,0,1-1.32-.27,1.09,1.09,0,0,1-.47-.71,4.7,4.7,0,0,1-.09-.92V23.29a4.42,4.42,0,0,1,.09-.92,1,1,0,0,1,.48-.69,3.48,3.48,0,0,1,2.59,0,1,1,0,0,1,.49.55,2,2,0,0,1,.1.53l-.3.15a3.22,3.22,0,0,1,.26-.36,3.58,3.58,0,0,1,.59-.55,3.71,3.71,0,0,1,.91-.49,3.4,3.4,0,0,1,1.24-.19l.61,0a4.62,4.62,0,0,1,.7.15,3.32,3.32,0,0,1,.66.3,1.58,1.58,0,0,1,.49.47,1.11,1.11,0,0,1,.19.67,3.06,3.06,0,0,1-.48,1.74,1.41,1.41,0,0,1-1.2.71,2.11,2.11,0,0,1-.6-.06,1,1,0,0,1-.29-.15.93.93,0,0,0-.26-.15,1.61,1.61,0,0,0-.55-.07,2.71,2.71,0,0,0-.71.1,2.2,2.2,0,0,0-.63.32,1.5,1.5,0,0,0-.45.52,1.65,1.65,0,0,0-.16.71v5.48a4.46,4.46,0,0,1-.09.91,1,1,0,0,1-.49.69A2.69,2.69,0,0,1,249,33.92Z"/><path class="cls-3" d="M264.42,34.15a7.17,7.17,0,0,1-3-.58,5.8,5.8,0,0,1-2.06-1.51,6.61,6.61,0,0,1-1.2-2.09,6.82,6.82,0,0,1-.39-2.3,6.38,6.38,0,0,1,.85-3.32A6,6,0,0,1,261,22.06a7,7,0,0,1,3.46-.83,6.27,6.27,0,0,1,2.52.46,5.33,5.33,0,0,1,1.75,1.2,5.25,5.25,0,0,1,1,1.59,4.53,4.53,0,0,1,.34,1.62,2.82,2.82,0,0,1-.67,2,2.26,2.26,0,0,1-1.69.68h-5.95a1.78,1.78,0,0,0,.47,1.08,2.81,2.81,0,0,0,1,.7,3.5,3.5,0,0,0,1.33.25,8.22,8.22,0,0,0,1-.06,4.37,4.37,0,0,0,.78-.17c.22-.08.42-.15.59-.23l.49-.19a2.53,2.53,0,0,1,.42-.1,1,1,0,0,1,.68.22,2,2,0,0,1,.57.71,1.71,1.71,0,0,1,.24.52,2.2,2.2,0,0,1,.06.5,1.34,1.34,0,0,1-.61,1.09,4.83,4.83,0,0,1-1.73.74A11.47,11.47,0,0,1,264.42,34.15Zm-2.67-7.4h3.95a1,1,0,0,0,.57-.13.65.65,0,0,0,.2-.54,1.25,1.25,0,0,0-.27-.78,1.76,1.76,0,0,0-.74-.53,2.8,2.8,0,0,0-1.09-.19,3,3,0,0,0-1.35.3,2.38,2.38,0,0,0-.94.8A1.9,1.9,0,0,0,261.75,26.75Z"/><path class="cls-2" d="M113.89,33.84a2.38,2.38,0,0,1-1.31-.28,1.17,1.17,0,0,1-.49-.72,4.81,4.81,0,0,1-.09-.93V18.26a4.45,4.45,0,0,1,.1-.91,1.19,1.19,0,0,1,.5-.71,2.37,2.37,0,0,1,1.33-.28h5.17a6.47,6.47,0,0,1,2.13.38,6.14,6.14,0,0,1,2,1.15,5.74,5.74,0,0,1,1.45,1.93,6.17,6.17,0,0,1,.55,2.72,6.68,6.68,0,0,1-.31,2,5.73,5.73,0,0,1-.94,1.8,6.14,6.14,0,0,1-1.55,1.4,6.75,6.75,0,0,1-2.13.86h-4.45v3.3a3.91,3.91,0,0,1-.1.91,1.15,1.15,0,0,1-.5.71A2.37,2.37,0,0,1,113.89,33.84Zm1.93-9h3.48a2,2,0,0,0,.7-.13,2.21,2.21,0,0,0,.69-.41,2.08,2.08,0,0,0,.51-.73,2.69,2.69,0,0,0,.2-1.07,2.46,2.46,0,0,0-.3-1.25,2.09,2.09,0,0,0-.82-.82,2.54,2.54,0,0,0-1.23-.29h-3.22Zm8.62,8.48a1.94,1.94,0,0,1-1.47.54,2.24,2.24,0,0,1-1.15-1l-4.4-6.3L121.7,26l3.22,4.63a3.64,3.64,0,0,1,.54,1,1,1,0,0,1-.13.8A3.32,3.32,0,0,1,124.44,33.34Z"/><path class="cls-2" d="M133.79,34.07a7.28,7.28,0,0,1-3-.57A5.86,5.86,0,0,1,128.72,32a6.51,6.51,0,0,1-1.2-2.09,6.83,6.83,0,0,1-.4-2.3,6.51,6.51,0,0,1,.85-3.32A6.14,6.14,0,0,1,130.34,22a7.11,7.11,0,0,1,3.46-.83,6.22,6.22,0,0,1,2.51.46,5.12,5.12,0,0,1,2.78,2.79,4.51,4.51,0,0,1,.33,1.63,2.84,2.84,0,0,1-.66,2,2.27,2.27,0,0,1-1.69.67h-5.95a1.76,1.76,0,0,0,.46,1.07,2.73,2.73,0,0,0,1,.7,3.5,3.5,0,0,0,1.33.25,8.05,8.05,0,0,0,1-.06,4.49,4.49,0,0,0,.79-.17l.59-.23.49-.19a4.19,4.19,0,0,1,.42-.1,1.06,1.06,0,0,1,.68.22,2.11,2.11,0,0,1,.57.71,1.75,1.75,0,0,1,.24.53,2.07,2.07,0,0,1,.06.5,1.32,1.32,0,0,1-.61,1.08,4.73,4.73,0,0,1-1.73.74A11.56,11.56,0,0,1,133.79,34.07Zm-2.67-7.4h3.95a1.06,1.06,0,0,0,.58-.13.62.62,0,0,0,.2-.54,1.23,1.23,0,0,0-.28-.78,1.67,1.67,0,0,0-.73-.53,2.8,2.8,0,0,0-1.09-.19,3,3,0,0,0-1.35.3,2.38,2.38,0,0,0-.94.8A1.91,1.91,0,0,0,131.12,26.67Z"/><path class="cls-2" d="M147.69,34a6.37,6.37,0,0,1-2.23-.42,6.92,6.92,0,0,1-2.1-1.21,5.8,5.8,0,0,1-1.54-2,6.35,6.35,0,0,1-.57-2.75,6.2,6.2,0,0,1,.57-2.73,6.11,6.11,0,0,1,1.53-2,6.75,6.75,0,0,1,2.09-1.21,6.33,6.33,0,0,1,2.21-.41,6,6,0,0,1,1.66.21,5.41,5.41,0,0,1,1.25.51,3.87,3.87,0,0,1,.74.53,8.35,8.35,0,0,1,.75.65,1.05,1.05,0,0,1,.3.85,1.59,1.59,0,0,1-.18.56,4.36,4.36,0,0,1-.37.59c-.52.7-1,1-1.5.95a2.58,2.58,0,0,1-.69-.25l-.6-.35a5.86,5.86,0,0,0-.61-.32,2,2,0,0,0-.75-.13,2.56,2.56,0,0,0-1.3.33,2.53,2.53,0,0,0-.91.9,2.46,2.46,0,0,0-.34,1.31,2.54,2.54,0,0,0,.33,1.3,2.64,2.64,0,0,0,.9.92,2.49,2.49,0,0,0,1.27.34,2.72,2.72,0,0,0,.72-.1,2.59,2.59,0,0,0,.55-.24l.35-.21c.2-.14.39-.26.58-.37a1.12,1.12,0,0,1,.55-.16,1.2,1.2,0,0,1,.73.27,4,4,0,0,1,.82.83,2.07,2.07,0,0,1,.48,1,1.22,1.22,0,0,1-.21.86,2.56,2.56,0,0,1-.85.76,3.69,3.69,0,0,1-.71.45,6.77,6.77,0,0,1-1.25.5A5.76,5.76,0,0,1,147.69,34Z"/><path class="cls-2" d="M160.64,34.06a6.2,6.2,0,0,1-2.33-.46,7.29,7.29,0,0,1-2.12-1.31,6.53,6.53,0,0,1-1.51-2,6.15,6.15,0,0,1-.56-2.64,6,6,0,0,1,.52-2.51A6.63,6.63,0,0,1,156.05,23a6.75,6.75,0,0,1,2.06-1.41,6,6,0,0,1,2.49-.52,6.24,6.24,0,0,1,3.26.87,6.4,6.4,0,0,1,2.34,2.34,6.3,6.3,0,0,1,.87,3.27,6.39,6.39,0,0,1-.56,2.72,6.5,6.5,0,0,1-1.5,2,6.57,6.57,0,0,1-2.08,1.29A6.36,6.36,0,0,1,160.64,34.06Zm0-3.77a2.81,2.81,0,0,0,1.22-.3,2.67,2.67,0,0,0,1.05-.9,2.6,2.6,0,0,0,.43-1.52,2.74,2.74,0,0,0-.35-1.4,2.55,2.55,0,0,0-1-.94,2.84,2.84,0,0,0-1.42-.34,2.59,2.59,0,0,0-2.28,1.31,2.6,2.6,0,0,0-.37,1.39,2.68,2.68,0,0,0,.41,1.51,2.49,2.49,0,0,0,1,.9A3,3,0,0,0,160.6,30.29Z"/><path class="cls-2" d="M171,33.87a2.45,2.45,0,0,1-1.31-.26,1.11,1.11,0,0,1-.48-.72,4.63,4.63,0,0,1-.09-.92V23.24a4.42,4.42,0,0,1,.09-.92,1.08,1.08,0,0,1,.49-.69,3.45,3.45,0,0,1,2.58,0,1.06,1.06,0,0,1,.49.55,1.73,1.73,0,0,1,.1.54l-.3.15a2.39,2.39,0,0,1,.26-.37,4.06,4.06,0,0,1,.59-.55,3.53,3.53,0,0,1,2.15-.68,4.55,4.55,0,0,1,.61,0,3,3,0,0,1,.7.15,2.54,2.54,0,0,1,.67.3,1.51,1.51,0,0,1,.48.46,1.13,1.13,0,0,1,.19.67,3,3,0,0,1-.48,1.74,1.38,1.38,0,0,1-1.2.71,2.11,2.11,0,0,1-.6-.06.92.92,0,0,1-.28-.15,1.17,1.17,0,0,0-.27-.15,1.68,1.68,0,0,0-.55-.06,2.39,2.39,0,0,0-.71.1,1.9,1.9,0,0,0-.62.31,1.39,1.39,0,0,0-.45.52,1.53,1.53,0,0,0-.17.72V32a4.46,4.46,0,0,1-.09.91,1,1,0,0,1-.49.69A2.56,2.56,0,0,1,171,33.87Z"/><path class="cls-2" d="M181,21.58h2.75l3.45-.1a4.29,4.29,0,0,1,.9.09,1.1,1.1,0,0,1,.7.49,2.43,2.43,0,0,1,.27,1.32,2.28,2.28,0,0,1-.26,1.25,1.1,1.1,0,0,1-.69.51,3.36,3.36,0,0,1-.92.12l-3.28-.08-3,0a1.25,1.25,0,0,1-1-.46,2.46,2.46,0,0,1-.29-1.39A2.17,2.17,0,0,1,179.9,22,1.26,1.26,0,0,1,181,21.58Zm5.64,12.3a7.54,7.54,0,0,1-2.2-.28A3.33,3.33,0,0,1,182,31.29a6.94,6.94,0,0,1-.29-2.11V19.05a4.92,4.92,0,0,1,.08-.92,1.11,1.11,0,0,1,.49-.67,2.51,2.51,0,0,1,1.3-.26,2.36,2.36,0,0,1,1.3.28,1.1,1.1,0,0,1,.49.71,4.53,4.53,0,0,1,.09.91V29a3,3,0,0,0,.06.66.79.79,0,0,0,.19.39.68.68,0,0,0,.35.17,2.71,2.71,0,0,0,.55.06,4.16,4.16,0,0,1,1,.1,1,1,0,0,1,.66.45,2.14,2.14,0,0,1,.23,1.17,2.4,2.4,0,0,1-.27,1.3,1.07,1.07,0,0,1-.71.48A6.86,6.86,0,0,1,186.59,33.88Z"/><path class="cls-2" d="M197.14,34.11a7.12,7.12,0,0,1-3-.58A5.72,5.72,0,0,1,192.07,32a6.61,6.61,0,0,1-1.2-2.09,6.83,6.83,0,0,1-.4-2.3,6.48,6.48,0,0,1,.85-3.32A6.14,6.14,0,0,1,193.69,22a6.9,6.9,0,0,1,3.46-.83,6.22,6.22,0,0,1,2.51.46,5.23,5.23,0,0,1,1.75,1.2,5.1,5.1,0,0,1,1,1.59,4.5,4.5,0,0,1,.33,1.62,2.82,2.82,0,0,1-.66,2.05,2.28,2.28,0,0,1-1.69.68h-5.95a1.77,1.77,0,0,0,.46,1.08,2.85,2.85,0,0,0,1,.7,3.48,3.48,0,0,0,1.32.25,8.1,8.1,0,0,0,1-.06,3.7,3.7,0,0,0,.79-.18,5.66,5.66,0,0,0,.59-.22,4.32,4.32,0,0,1,.48-.19,2.63,2.63,0,0,1,.43-.1,1,1,0,0,1,.67.22,1.93,1.93,0,0,1,.58.71,2,2,0,0,1,.24.52,2.2,2.2,0,0,1,.06.5,1.36,1.36,0,0,1-.61,1.09,4.91,4.91,0,0,1-1.73.74A11.56,11.56,0,0,1,197.14,34.11Zm-2.67-7.4h3.95a1,1,0,0,0,.58-.14.61.61,0,0,0,.2-.53,1.21,1.21,0,0,0-.28-.78,1.84,1.84,0,0,0-.73-.54,3,3,0,0,0-1.09-.18,3,3,0,0,0-1.35.3,2.3,2.3,0,0,0-.94.8A1.91,1.91,0,0,0,194.47,26.71Z"/><path class="cls-2" d="M213.64,33.9a2.44,2.44,0,0,1-1.31-.27,1,1,0,0,1-.5-.71,4.7,4.7,0,0,1-.09-.92V18.32a4.46,4.46,0,0,1,.09-.91,1.14,1.14,0,0,1,.49-.72,2.43,2.43,0,0,1,1.32-.27,2.34,2.34,0,0,1,1.34.28,1.07,1.07,0,0,1,.47.71,4.62,4.62,0,0,1,.09.94V30.6h6.85a4,4,0,0,1,.8.08,1,1,0,0,1,.62.42,2.23,2.23,0,0,1,.23,1.15,2,2,0,0,1-.25,1.14,1,1,0,0,1-.61.44,3.87,3.87,0,0,1-.79.07Z"/><path class="cls-2" d="M228,19.6a2.48,2.48,0,0,1-1.35-.27,1.11,1.11,0,0,1-.49-.73,5.11,5.11,0,0,1,0-1.91,1.09,1.09,0,0,1,.5-.7,2.71,2.71,0,0,1,1.36-.26,2.37,2.37,0,0,1,1.33.28,1.08,1.08,0,0,1,.48.72,5,5,0,0,1,.09,1,4.7,4.7,0,0,1-.09.92,1.07,1.07,0,0,1-.48.71A2.54,2.54,0,0,1,228,19.6Zm0,14.3a2.49,2.49,0,0,1-1.33-.26,1,1,0,0,1-.47-.7,5.31,5.31,0,0,1-.08-.91V23.3a4.53,4.53,0,0,1,.09-.91,1.06,1.06,0,0,1,.48-.7,2.59,2.59,0,0,1,1.33-.26,2.24,2.24,0,0,1,1.29.28,1.1,1.1,0,0,1,.47.71,4.62,4.62,0,0,1,.09.94v8.7a5.4,5.4,0,0,1-.08.91,1.06,1.06,0,0,1-.48.69A2.64,2.64,0,0,1,228,33.9Z"/><path class="cls-2" d="M234.39,33.91a2.3,2.3,0,0,1-1.3-.28,1.13,1.13,0,0,1-.49-.71,5.4,5.4,0,0,1-.08-.91V17.63a5.67,5.67,0,0,1,.08-.94,1.07,1.07,0,0,1,.49-.69,2.47,2.47,0,0,1,1.33-.27,2.23,2.23,0,0,1,1.27.28,1.08,1.08,0,0,1,.45.71,4,4,0,0,1,0,.92V32.78a1.3,1.3,0,0,1-.52.85A2.25,2.25,0,0,1,234.39,33.91Zm4.85,0A4.32,4.32,0,0,1,235.56,32a6.45,6.45,0,0,1-.93-2,8.15,8.15,0,0,1-.28-2.4,8.71,8.71,0,0,1,.32-2.35,6.42,6.42,0,0,1,.94-2,4.28,4.28,0,0,1,3.64-1.82,4.75,4.75,0,0,1,2.15.5,6.51,6.51,0,0,1,1.84,1.36,6.64,6.64,0,0,1,1.27,2,6,6,0,0,1,.46,2.33,6.35,6.35,0,0,1-.46,2.42,6.54,6.54,0,0,1-1.27,2,5.83,5.83,0,0,1-1.82,1.36A5,5,0,0,1,239.24,33.89Zm-.5-3.7a2.36,2.36,0,0,0,1.25-.34,2.59,2.59,0,0,0,.89-.91,2.45,2.45,0,0,0,.34-1.28,2.6,2.6,0,0,0-.32-1.27,2.33,2.33,0,0,0-.89-.9,2.42,2.42,0,0,0-1.24-.33,2.4,2.4,0,0,0-2.11,1.24,2.5,2.5,0,0,0-.31,1.26,2.47,2.47,0,0,0,.32,1.27,2.56,2.56,0,0,0,.87.92A2.32,2.32,0,0,0,238.74,30.19Z"/><path class="cls-2" d="M249,33.92a2.41,2.41,0,0,1-1.32-.27,1.09,1.09,0,0,1-.47-.71,4.7,4.7,0,0,1-.09-.92V23.29a4.42,4.42,0,0,1,.09-.92,1,1,0,0,1,.48-.69,3.48,3.48,0,0,1,2.59,0,1,1,0,0,1,.49.55,2,2,0,0,1,.1.53l-.3.15a3.22,3.22,0,0,1,.26-.36,3.58,3.58,0,0,1,.59-.55,3.71,3.71,0,0,1,.91-.49,3.4,3.4,0,0,1,1.24-.19l.61,0a4.62,4.62,0,0,1,.7.15,3.32,3.32,0,0,1,.66.3,1.58,1.58,0,0,1,.49.47,1.11,1.11,0,0,1,.19.67,3.06,3.06,0,0,1-.48,1.74,1.41,1.41,0,0,1-1.2.71,2.11,2.11,0,0,1-.6-.06,1,1,0,0,1-.29-.15.93.93,0,0,0-.26-.15,1.61,1.61,0,0,0-.55-.07,2.71,2.71,0,0,0-.71.1,2.2,2.2,0,0,0-.63.32,1.5,1.5,0,0,0-.45.52,1.65,1.65,0,0,0-.16.71v5.48a4.46,4.46,0,0,1-.09.91,1,1,0,0,1-.49.69A2.69,2.69,0,0,1,249,33.92Z"/><path class="cls-2" d="M264.42,34.15a7.17,7.17,0,0,1-3-.58,5.8,5.8,0,0,1-2.06-1.51,6.61,6.61,0,0,1-1.2-2.09,6.82,6.82,0,0,1-.39-2.3,6.38,6.38,0,0,1,.85-3.32A6,6,0,0,1,261,22.06a7,7,0,0,1,3.46-.83,6.27,6.27,0,0,1,2.52.46,5.33,5.33,0,0,1,1.75,1.2,5.25,5.25,0,0,1,1,1.59,4.53,4.53,0,0,1,.34,1.62,2.82,2.82,0,0,1-.67,2,2.26,2.26,0,0,1-1.69.68h-5.95a1.78,1.78,0,0,0,.47,1.08,2.81,2.81,0,0,0,1,.7,3.5,3.5,0,0,0,1.33.25,8.22,8.22,0,0,0,1-.06,4.37,4.37,0,0,0,.78-.17c.22-.08.42-.15.59-.23l.49-.19a2.53,2.53,0,0,1,.42-.1,1,1,0,0,1,.68.22,2,2,0,0,1,.57.71,1.71,1.71,0,0,1,.24.52,2.2,2.2,0,0,1,.06.5,1.34,1.34,0,0,1-.61,1.09,4.83,4.83,0,0,1-1.73.74A11.47,11.47,0,0,1,264.42,34.15Zm-2.67-7.4h3.95a1,1,0,0,0,.57-.13.65.65,0,0,0,.2-.54,1.25,1.25,0,0,0-.27-.78,1.76,1.76,0,0,0-.74-.53,2.8,2.8,0,0,0-1.09-.19,3,3,0,0,0-1.35.3,2.38,2.38,0,0,0-.94.8A1.9,1.9,0,0,0,261.75,26.75Z"/><text class="cls-4" transform="matrix(0.97, 0, 0, 1, 51.72, 40.47)">2<tspan class="cls-5" x="21.53" y="0">.</tspan><tspan x="28.3" y="0">4</tspan></text><text class="cls-6" transform="matrix(0.97, 0, 0, 1, 51.72, 40.47)">2<tspan class="cls-5" x="21.53" y="0">.</tspan><tspan x="28.3" y="0">4</tspan></text></g></g></svg>