<svg xmlns="http://www.w3.org/2000/svg" viewBox="0 0 401.16 89.13"><defs><style>.cls-1{fill:#0468ad;}.cls-2{fill:#fff;}.cls-3,.cls-4{fill:none;stroke-width:5px;}.cls-3{stroke:#c8a927;stroke-linejoin:round;}.cls-4,.cls-7{font-size:42px;font-family:Coiny-Regular, Coiny;}.cls-4{stroke:#fff;}.cls-5{letter-spacing:-0.11em;}.cls-6{letter-spacing:0em;}.cls-7{fill:#c8a927;}</style></defs><title>21t</title><g id="Layer_2" data-name="Layer 2"><g id="mesa"><rect class="cls-1" width="401.16" height="89.13" rx="32.4"/><path class="cls-2" d="M120.38,33.84a2.4,2.4,0,0,1-1.32-.28,1.14,1.14,0,0,1-.48-.72,4.08,4.08,0,0,1-.1-.93V18.26a3.85,3.85,0,0,1,.1-.91,1.11,1.11,0,0,1,.5-.71,2.33,2.33,0,0,1,1.32-.28h5.18a6.69,6.69,0,0,1,2.12.38,6.18,6.18,0,0,1,2,1.15,5.72,5.72,0,0,1,1.44,1.93,6.2,6.2,0,0,1,.55,2.72,6.68,6.68,0,0,1-.31,2,5.73,5.73,0,0,1-.94,1.8,6,6,0,0,1-1.55,1.4,6.75,6.75,0,0,1-2.13.86H122.3v3.3a3.91,3.91,0,0,1-.1.91,1.15,1.15,0,0,1-.5.71A2.35,2.35,0,0,1,120.38,33.84Zm1.93-9h3.47a2,2,0,0,0,.7-.13,2.21,2.21,0,0,0,.69-.41,2.08,2.08,0,0,0,.51-.73,2.52,2.52,0,0,0,.2-1.07,2.46,2.46,0,0,0-.3-1.25,2.09,2.09,0,0,0-.82-.82,2.54,2.54,0,0,0-1.23-.29h-3.22Zm8.62,8.48a2,2,0,0,1-1.48.54,2.24,2.24,0,0,1-1.15-1l-4.39-6.3,4.27-.55,3.22,4.63a3.18,3.18,0,0,1,.54,1,1,1,0,0,1-.13.8A3.25,3.25,0,0,1,130.93,33.34Z"/><path class="cls-2" d="M140.28,34.07a7.3,7.3,0,0,1-3-.57A5.86,5.86,0,0,1,135.2,32a6.51,6.51,0,0,1-1.2-2.09,7.09,7.09,0,0,1-.4-2.3,6.51,6.51,0,0,1,.86-3.32A6,6,0,0,1,136.82,22a7.11,7.11,0,0,1,3.46-.83,6.27,6.27,0,0,1,2.52.46,5.33,5.33,0,0,1,1.75,1.2,5.5,5.5,0,0,1,1,1.59,4.54,4.54,0,0,1,.34,1.63,2.89,2.89,0,0,1-.67,2,2.25,2.25,0,0,1-1.69.67h-6a1.77,1.77,0,0,0,.47,1.07,2.69,2.69,0,0,0,1,.7,3.5,3.5,0,0,0,1.33.25,7.94,7.94,0,0,0,1-.06,4.3,4.3,0,0,0,.79-.17c.22-.08.42-.15.59-.23a5.09,5.09,0,0,1,.49-.18,1.81,1.81,0,0,1,.42-.1,1,1,0,0,1,.68.21A2,2,0,0,1,145,31a1.65,1.65,0,0,1,.24.53,2.07,2.07,0,0,1,.06.5,1.32,1.32,0,0,1-.61,1.08,4.66,4.66,0,0,1-1.73.74A11.47,11.47,0,0,1,140.28,34.07Zm-2.67-7.4h3.94a1,1,0,0,0,.58-.13.62.62,0,0,0,.2-.54,1.27,1.27,0,0,0-.27-.78,1.76,1.76,0,0,0-.74-.53,2.8,2.8,0,0,0-1.09-.19,3,3,0,0,0-1.35.3,2.38,2.38,0,0,0-.94.8A1.9,1.9,0,0,0,137.61,26.67Z"/><path class="cls-2" d="M154.18,34a6.42,6.42,0,0,1-2.24-.42,6.92,6.92,0,0,1-2.1-1.21,5.92,5.92,0,0,1-1.54-2,6.35,6.35,0,0,1-.57-2.75,6.09,6.09,0,0,1,.58-2.73,6,6,0,0,1,1.52-2,6.87,6.87,0,0,1,2.09-1.21,6.37,6.37,0,0,1,2.21-.41,6.15,6.15,0,0,1,1.67.21,5.6,5.6,0,0,1,1.25.51,3.74,3.74,0,0,1,.73.53,7.16,7.16,0,0,1,.75.65,1.05,1.05,0,0,1,.3.85,1.56,1.56,0,0,1-.17.56,4.48,4.48,0,0,1-.38.59c-.52.7-1,1-1.5.95a2.58,2.58,0,0,1-.69-.25l-.6-.35a5,5,0,0,0-.61-.32,2,2,0,0,0-.75-.13,2.56,2.56,0,0,0-1.3.33,2.61,2.61,0,0,0-.91.9,2.69,2.69,0,0,0,0,2.62,2.53,2.53,0,0,0,.9.91,2.42,2.42,0,0,0,1.26.34,2.66,2.66,0,0,0,.72-.1,2.59,2.59,0,0,0,.55-.24l.35-.21a5.41,5.41,0,0,1,.58-.36,1,1,0,0,1,.55-.17,1.25,1.25,0,0,1,.74.27,4.28,4.28,0,0,1,.81.83,2.2,2.2,0,0,1,.49,1,1.18,1.18,0,0,1-.22.86,2.56,2.56,0,0,1-.85.76,3.69,3.69,0,0,1-.71.45,6.49,6.49,0,0,1-1.25.5A5.69,5.69,0,0,1,154.18,34Z"/><path class="cls-2" d="M167.13,34.06a6.21,6.21,0,0,1-2.34-.46,7.11,7.11,0,0,1-2.11-1.31,6.41,6.41,0,0,1-1.52-2,6.41,6.41,0,0,1,0-5.15A6.63,6.63,0,0,1,162.53,23a6.75,6.75,0,0,1,2.06-1.41,6,6,0,0,1,2.49-.52,6.33,6.33,0,0,1,3.26.87,6.4,6.4,0,0,1,2.34,2.34,6.71,6.71,0,0,1,.31,6,6.5,6.5,0,0,1-1.5,2,6.57,6.57,0,0,1-2.08,1.29A6.35,6.35,0,0,1,167.13,34.06Zm0-3.77a2.81,2.81,0,0,0,1.22-.3,2.67,2.67,0,0,0,1-.9,2.53,2.53,0,0,0,.43-1.52,2.74,2.74,0,0,0-.35-1.4,2.41,2.41,0,0,0-1-.94,2.83,2.83,0,0,0-1.41-.34,2.6,2.6,0,0,0-1.34.35,2.65,2.65,0,0,0-.95,1,2.7,2.7,0,0,0-.37,1.39,2.61,2.61,0,0,0,.42,1.51,2.47,2.47,0,0,0,1,.9A3,3,0,0,0,167.08,30.29Z"/><path class="cls-2" d="M177.45,33.87a2.48,2.48,0,0,1-1.31-.26,1.11,1.11,0,0,1-.48-.72,4.63,4.63,0,0,1-.08-.92V23.24a4.42,4.42,0,0,1,.09-.92,1.08,1.08,0,0,1,.49-.69,2.54,2.54,0,0,1,1.32-.26,2.52,2.52,0,0,1,1.27.24,1,1,0,0,1,.48.55,1.73,1.73,0,0,1,.1.54l-.3.15a2,2,0,0,1,.27-.37,3.92,3.92,0,0,1,.58-.55,3.46,3.46,0,0,1,.92-.48,3.34,3.34,0,0,1,1.23-.2,4.45,4.45,0,0,1,.61,0,3.22,3.22,0,0,1,.71.15,2.47,2.47,0,0,1,.66.3,1.51,1.51,0,0,1,.48.46,1.14,1.14,0,0,1,.19.68,3.08,3.08,0,0,1-.47,1.73,1.4,1.4,0,0,1-1.2.71,2,2,0,0,1-.6-.06.87.87,0,0,1-.29-.15,1.1,1.1,0,0,0-.26-.15,1.72,1.72,0,0,0-.55-.06,2.46,2.46,0,0,0-.72.1,1.9,1.9,0,0,0-.62.31,1.6,1.6,0,0,0-.45.52,1.53,1.53,0,0,0-.17.72V32a4.46,4.46,0,0,1-.09.91,1,1,0,0,1-.48.69A2.6,2.6,0,0,1,177.45,33.87Z"/><path class="cls-2" d="M187.43,21.58h2.75l3.45-.1a4.29,4.29,0,0,1,.9.09,1.08,1.08,0,0,1,.7.49,2.31,2.31,0,0,1,.28,1.32,2.25,2.25,0,0,1-.27,1.25,1.1,1.1,0,0,1-.69.51,3.36,3.36,0,0,1-.92.12l-3.27-.08-3,0a1.26,1.26,0,0,1-1-.46,2.55,2.55,0,0,1-.29-1.39,2.15,2.15,0,0,1,.35-1.34A1.27,1.27,0,0,1,187.43,21.58Zm5.65,12.3a7.45,7.45,0,0,1-2.2-.28,3.32,3.32,0,0,1-2.39-2.31,6.94,6.94,0,0,1-.29-2.11V19.05a4.15,4.15,0,0,1,.09-.92,1,1,0,0,1,.49-.66,3.19,3.19,0,0,1,2.59,0,1.1,1.1,0,0,1,.49.71,4.53,4.53,0,0,1,.09.91V29a2.42,2.42,0,0,0,.07.66.79.79,0,0,0,.18.39.83.83,0,0,0,.35.18,2.88,2.88,0,0,0,.55,0,4.13,4.13,0,0,1,1,.11,1,1,0,0,1,.66.45A2.13,2.13,0,0,1,195,32a2.39,2.39,0,0,1-.28,1.3,1,1,0,0,1-.71.48A5.41,5.41,0,0,1,193.08,33.88Z"/><path class="cls-2" d="M203.63,34.11a7.14,7.14,0,0,1-3-.58A5.72,5.72,0,0,1,198.55,32a6.51,6.51,0,0,1-1.2-2.09,7.09,7.09,0,0,1-.4-2.3,6.39,6.39,0,0,1,.86-3.32A6,6,0,0,1,200.17,22a7,7,0,0,1,3.46-.83,6.18,6.18,0,0,1,2.51.46,5.12,5.12,0,0,1,2.78,2.79,4.5,4.5,0,0,1,.33,1.62,2.82,2.82,0,0,1-.66,2.05,2.26,2.26,0,0,1-1.69.68h-6a1.78,1.78,0,0,0,.47,1.08,2.81,2.81,0,0,0,1,.7,3.5,3.5,0,0,0,1.33.25,7.94,7.94,0,0,0,1-.06,4.49,4.49,0,0,0,.79-.17l.59-.23.49-.19a2.53,2.53,0,0,1,.42-.1,1,1,0,0,1,.68.22,1.91,1.91,0,0,1,.57.71,1.71,1.71,0,0,1,.24.52,2.2,2.2,0,0,1,.06.5A1.34,1.34,0,0,1,208,33.1a4.73,4.73,0,0,1-1.73.74A11.53,11.53,0,0,1,203.63,34.11ZM201,26.71h4a1,1,0,0,0,.58-.13.65.65,0,0,0,.2-.54,1.21,1.21,0,0,0-.28-.78,1.77,1.77,0,0,0-.73-.54,3.27,3.27,0,0,0-2.44.12,2.44,2.44,0,0,0-.94.79A2,2,0,0,0,201,26.71Z"/><path class="cls-2" d="M226,33.9a2.51,2.51,0,0,1-1.18-.26,1.58,1.58,0,0,1-.72-.79L218,19a1.86,1.86,0,0,1-.18-1.44,2.3,2.3,0,0,1,1.15-1,2.65,2.65,0,0,1,1.14-.39,1.15,1.15,0,0,1,.8.3,2.52,2.52,0,0,1,.59,1l4.42,11.05,4.43-11a3.3,3.3,0,0,1,.6-1,1.11,1.11,0,0,1,.81-.34,2.35,2.35,0,0,1,1.14.38c.72.35,1.12.7,1.21,1.05a2.24,2.24,0,0,1-.26,1.42L227.8,32.85a1.73,1.73,0,0,1-.71.76A2.2,2.2,0,0,1,226,33.9Z"/><path class="cls-2" d="M242.75,34.13a7.25,7.25,0,0,1-3-.57A5.9,5.9,0,0,1,237.67,32,6.36,6.36,0,0,1,236.48,30a6.92,6.92,0,0,1-.4-2.3,6.45,6.45,0,0,1,.85-3.33,6.16,6.16,0,0,1,2.36-2.28,7,7,0,0,1,3.47-.84,6.43,6.43,0,0,1,2.51.46A5.11,5.11,0,0,1,247,22.88a5,5,0,0,1,1,1.58,4.33,4.33,0,0,1,.34,1.63,2.78,2.78,0,0,1-.67,2.05,2.25,2.25,0,0,1-1.68.67h-5.95a1.71,1.71,0,0,0,.46,1.07,2.66,2.66,0,0,0,1,.7,3.61,3.61,0,0,0,1.32.26,8.11,8.11,0,0,0,1-.07,4.49,4.49,0,0,0,.79-.17c.21-.08.41-.15.58-.23l.49-.18a1.78,1.78,0,0,1,.43-.1,1,1,0,0,1,.67.21,2.11,2.11,0,0,1,.58.71,2,2,0,0,1,.23.53,2.08,2.08,0,0,1,.07.5,1.36,1.36,0,0,1-.62,1.09,4.86,4.86,0,0,1-1.72.73A11,11,0,0,1,242.75,34.13Zm-2.67-7.4H244a1,1,0,0,0,.57-.14c.14-.09.2-.27.2-.54a1.23,1.23,0,0,0-.27-.77,1.64,1.64,0,0,0-.74-.54,2.8,2.8,0,0,0-1.09-.19,3,3,0,0,0-1.35.3,2.36,2.36,0,0,0-.93.8A1.84,1.84,0,0,0,240.08,26.73Z"/><path class="cls-2" d="M252.35,33.92a2.37,2.37,0,0,1-1.31-.27,1.07,1.07,0,0,1-.48-.71,4.73,4.73,0,0,1-.09-.93V23.29a4.59,4.59,0,0,1,.09-.93,1,1,0,0,1,.49-.68,2.42,2.42,0,0,1,1.32-.26,2.63,2.63,0,0,1,1.26.23,1.1,1.1,0,0,1,.49.55,1.73,1.73,0,0,1,.1.54l-.3.15a2.48,2.48,0,0,1,.26-.36,3.2,3.2,0,0,1,.59-.55,3.9,3.9,0,0,1,.91-.49,3.62,3.62,0,0,1,1.24-.2c.18,0,.39,0,.61,0a4.62,4.62,0,0,1,.7.15,3.41,3.41,0,0,1,.67.3,1.63,1.63,0,0,1,.48.46,1.16,1.16,0,0,1,.19.68,3.06,3.06,0,0,1-.48,1.74,1.4,1.4,0,0,1-1.2.71,2.11,2.11,0,0,1-.6-.06,1.77,1.77,0,0,1-.28-.15,1.17,1.17,0,0,0-.27-.15,1.39,1.39,0,0,0-.55-.07,2.77,2.77,0,0,0-.71.1,2.12,2.12,0,0,0-.62.31,1.42,1.42,0,0,0-.45.53,1.52,1.52,0,0,0-.17.71v5.48a4.53,4.53,0,0,1-.09.91,1,1,0,0,1-.49.69A2.67,2.67,0,0,1,252.35,33.92Z"/><path class="cls-2" d="M262.33,21.62h2.75l3.45-.09a4.31,4.31,0,0,1,.9.08,1.14,1.14,0,0,1,.7.49,2.47,2.47,0,0,1,.27,1.33,2.31,2.31,0,0,1-.26,1.25,1.18,1.18,0,0,1-.69.51,3.8,3.8,0,0,1-.92.11l-3.28-.08-3,0a1.27,1.27,0,0,1-1-.47,2.4,2.4,0,0,1-.29-1.38,2.15,2.15,0,0,1,.35-1.34A1.26,1.26,0,0,1,262.33,21.62ZM268,33.92a7.92,7.92,0,0,1-2.2-.27,3.33,3.33,0,0,1-2.38-2.31,7,7,0,0,1-.29-2.12V19.1a4.31,4.31,0,0,1,.09-.93,1,1,0,0,1,.48-.66,2.51,2.51,0,0,1,1.3-.26,2.38,2.38,0,0,1,1.3.27,1.14,1.14,0,0,1,.49.72,4.46,4.46,0,0,1,.09.91v9.92a3.13,3.13,0,0,0,.06.67.9.9,0,0,0,.19.38.62.62,0,0,0,.35.18,2.79,2.79,0,0,0,.55.05,4.16,4.16,0,0,1,1,.1,1.1,1.1,0,0,1,.66.45,2.17,2.17,0,0,1,.24,1.18,2.48,2.48,0,0,1-.28,1.3,1.07,1.07,0,0,1-.71.47A5.53,5.53,0,0,1,268,33.92Z"/><path class="cls-2" d="M274.33,19.63a2.43,2.43,0,0,1-1.35-.28,1,1,0,0,1-.48-.72,4.86,4.86,0,0,1-.09-.95,4.75,4.75,0,0,1,.09-1,1,1,0,0,1,.5-.7,2.57,2.57,0,0,1,1.36-.27,2.4,2.4,0,0,1,1.32.28,1.11,1.11,0,0,1,.49.73,5.06,5.06,0,0,1,0,1.9,1.07,1.07,0,0,1-.49.71A2.62,2.62,0,0,1,274.33,19.63Zm0,14.3a2.54,2.54,0,0,1-1.32-.26,1,1,0,0,1-.48-.7,5.53,5.53,0,0,1-.07-.92V23.33a4.47,4.47,0,0,1,.08-.91,1,1,0,0,1,.49-.7,2.47,2.47,0,0,1,1.33-.27,2.29,2.29,0,0,1,1.28.28,1.12,1.12,0,0,1,.48.71,4.69,4.69,0,0,1,.09.94v8.7a4.46,4.46,0,0,1-.09.91,1.08,1.08,0,0,1-.47.69A2.53,2.53,0,0,1,274.32,33.93Z"/><path class="cls-2" d="M285.05,34a6.42,6.42,0,0,1-2.24-.42,6.92,6.92,0,0,1-2.1-1.21,5.87,5.87,0,0,1-1.53-2,6.76,6.76,0,0,1,0-5.48,5.85,5.85,0,0,1,1.53-2,6.52,6.52,0,0,1,2.08-1.21,6.38,6.38,0,0,1,2.22-.41,6.08,6.08,0,0,1,1.66.21,5.41,5.41,0,0,1,1.25.51,3.74,3.74,0,0,1,.73.53,5.48,5.48,0,0,1,.75.65,1,1,0,0,1,.3.85,1.38,1.38,0,0,1-.17.56,4.48,4.48,0,0,1-.38.59c-.51.7-1,1-1.5,1a2.58,2.58,0,0,1-.69-.25l-.59-.35a6,6,0,0,0-.62-.32,1.89,1.89,0,0,0-.75-.14,2.6,2.6,0,0,0-1.3.34,2.7,2.7,0,0,0-.91.9,2.6,2.6,0,0,0,.9,3.53,2.52,2.52,0,0,0,1.26.34,2.38,2.38,0,0,0,.73-.11,2.33,2.33,0,0,0,.55-.23l.35-.21c.2-.14.39-.26.57-.37a1.16,1.16,0,0,1,.55-.16,1.28,1.28,0,0,1,.74.26,4.7,4.7,0,0,1,.81.84,2.1,2.1,0,0,1,.49,1,1.18,1.18,0,0,1-.22.86,2.46,2.46,0,0,1-.85.76,3.69,3.69,0,0,1-.71.45,6.49,6.49,0,0,1-1.25.5A5.69,5.69,0,0,1,285.05,34Z"/><path class="cls-2" d="M302.2,33.92a2.34,2.34,0,0,1-1.38-.33.87.87,0,0,1-.42-.79l.25-.43a2.59,2.59,0,0,1-.58.61,4.11,4.11,0,0,1-1.11.65,4.33,4.33,0,0,1-1.66.29,5,5,0,0,1-2.19-.5A6.17,6.17,0,0,1,293.27,32,7.27,7.27,0,0,1,292,30a6.13,6.13,0,0,1,0-4.71,6.72,6.72,0,0,1,1.29-2A6.19,6.19,0,0,1,295.13,22a4.8,4.8,0,0,1,2.17-.5,4.32,4.32,0,0,1,1.58.26,4.65,4.65,0,0,1,1.09.61,3.45,3.45,0,0,1,.66.68l-.23-.35a1.05,1.05,0,0,1,.44-.91,2.42,2.42,0,0,1,1.39-.31,2.34,2.34,0,0,1,1.29.27,1.15,1.15,0,0,1,.47.73,4.79,4.79,0,0,1,.09.95V32A5.64,5.64,0,0,1,304,33a1.09,1.09,0,0,1-.48.71A2.5,2.5,0,0,1,302.2,33.92Zm-4.38-3.73a2.24,2.24,0,0,0,1.21-.33,2.67,2.67,0,0,0,.85-3.48,2.5,2.5,0,0,0-.88-.89,2.39,2.39,0,0,0-1.22-.32,2.33,2.33,0,0,0-1.26.34,2.38,2.38,0,0,0-.9.91,2.45,2.45,0,0,0-.34,1.3,2.36,2.36,0,0,0,.33,1.23,2.51,2.51,0,0,0,.93.9A2.48,2.48,0,0,0,297.82,30.19Z"/><path class="cls-2" d="M311.37,34a14.14,14.14,0,0,1-1.82-.1,3.77,3.77,0,0,1-1.35-.4,2.42,2.42,0,0,1-.9-.84,4,4,0,0,1-.53-1.37,10.92,10.92,0,0,1-.17-2.07V17.62a3.82,3.82,0,0,1,.1-.92,1.14,1.14,0,0,1,.49-.7,3.16,3.16,0,0,1,2.6,0,1.17,1.17,0,0,1,.48.7,3.84,3.84,0,0,1,.1.93V29a5.86,5.86,0,0,0,0,.66,1,1,0,0,0,.15.42.59.59,0,0,0,.32.2,2.34,2.34,0,0,0,.52,0,2.6,2.6,0,0,1,.61.07.89.89,0,0,1,.54.45,2.58,2.58,0,0,1,.22,1.25,2.78,2.78,0,0,1-.22,1.3.88.88,0,0,1-.54.48A2.73,2.73,0,0,1,311.37,34Z"/><path class="cls-3" d="M120.38,33.84a2.4,2.4,0,0,1-1.32-.28,1.14,1.14,0,0,1-.48-.72,4.08,4.08,0,0,1-.1-.93V18.26a3.85,3.85,0,0,1,.1-.91,1.11,1.11,0,0,1,.5-.71,2.33,2.33,0,0,1,1.32-.28h5.18a6.69,6.69,0,0,1,2.12.38,6.18,6.18,0,0,1,2,1.15,5.72,5.72,0,0,1,1.44,1.93,6.2,6.2,0,0,1,.55,2.72,6.68,6.68,0,0,1-.31,2,5.73,5.73,0,0,1-.94,1.8,6,6,0,0,1-1.55,1.4,6.75,6.75,0,0,1-2.13.86H122.3v3.3a3.91,3.91,0,0,1-.1.91,1.15,1.15,0,0,1-.5.71A2.35,2.35,0,0,1,120.38,33.84Zm1.93-9h3.47a2,2,0,0,0,.7-.13,2.21,2.21,0,0,0,.69-.41,2.08,2.08,0,0,0,.51-.73,2.52,2.52,0,0,0,.2-1.07,2.46,2.46,0,0,0-.3-1.25,2.09,2.09,0,0,0-.82-.82,2.54,2.54,0,0,0-1.23-.29h-3.22Zm8.62,8.48a2,2,0,0,1-1.48.54,2.24,2.24,0,0,1-1.15-1l-4.39-6.3,4.27-.55,3.22,4.63a3.18,3.18,0,0,1,.54,1,1,1,0,0,1-.13.8A3.25,3.25,0,0,1,130.93,33.34Z"/><path class="cls-3" d="M140.28,34.07a7.3,7.3,0,0,1-3-.57A5.86,5.86,0,0,1,135.2,32a6.51,6.51,0,0,1-1.2-2.09,7.09,7.09,0,0,1-.4-2.3,6.51,6.51,0,0,1,.86-3.32A6,6,0,0,1,136.82,22a7.11,7.11,0,0,1,3.46-.83,6.27,6.27,0,0,1,2.52.46,5.33,5.33,0,0,1,1.75,1.2,5.5,5.5,0,0,1,1,1.59,4.54,4.54,0,0,1,.34,1.63,2.89,2.89,0,0,1-.67,2,2.25,2.25,0,0,1-1.69.67h-6a1.77,1.77,0,0,0,.47,1.07,2.69,2.69,0,0,0,1,.7,3.5,3.5,0,0,0,1.33.25,7.94,7.94,0,0,0,1-.06,4.3,4.3,0,0,0,.79-.17c.22-.08.42-.15.59-.23a5.09,5.09,0,0,1,.49-.18,1.81,1.81,0,0,1,.42-.1,1,1,0,0,1,.68.21A2,2,0,0,1,145,31a1.65,1.65,0,0,1,.24.53,2.07,2.07,0,0,1,.06.5,1.32,1.32,0,0,1-.61,1.08,4.66,4.66,0,0,1-1.73.74A11.47,11.47,0,0,1,140.28,34.07Zm-2.67-7.4h3.94a1,1,0,0,0,.58-.13.62.62,0,0,0,.2-.54,1.27,1.27,0,0,0-.27-.78,1.76,1.76,0,0,0-.74-.53,2.8,2.8,0,0,0-1.09-.19,3,3,0,0,0-1.35.3,2.38,2.38,0,0,0-.94.8A1.9,1.9,0,0,0,137.61,26.67Z"/><path class="cls-3" d="M154.18,34a6.42,6.42,0,0,1-2.24-.42,6.92,6.92,0,0,1-2.1-1.21,5.92,5.92,0,0,1-1.54-2,6.35,6.35,0,0,1-.57-2.75,6.09,6.09,0,0,1,.58-2.73,6,6,0,0,1,1.52-2,6.87,6.87,0,0,1,2.09-1.21,6.37,6.37,0,0,1,2.21-.41,6.15,6.15,0,0,1,1.67.21,5.6,5.6,0,0,1,1.25.51,3.74,3.74,0,0,1,.73.53,7.16,7.16,0,0,1,.75.65,1.05,1.05,0,0,1,.3.85,1.56,1.56,0,0,1-.17.56,4.48,4.48,0,0,1-.38.59c-.52.7-1,1-1.5.95a2.58,2.58,0,0,1-.69-.25l-.6-.35a5,5,0,0,0-.61-.32,2,2,0,0,0-.75-.13,2.56,2.56,0,0,0-1.3.33,2.61,2.61,0,0,0-.91.9,2.69,2.69,0,0,0,0,2.62,2.53,2.53,0,0,0,.9.91,2.42,2.42,0,0,0,1.26.34,2.66,2.66,0,0,0,.72-.1,2.59,2.59,0,0,0,.55-.24l.35-.21a5.41,5.41,0,0,1,.58-.36,1,1,0,0,1,.55-.17,1.25,1.25,0,0,1,.74.27,4.28,4.28,0,0,1,.81.83,2.2,2.2,0,0,1,.49,1,1.18,1.18,0,0,1-.22.86,2.56,2.56,0,0,1-.85.76,3.69,3.69,0,0,1-.71.45,6.49,6.49,0,0,1-1.25.5A5.69,5.69,0,0,1,154.18,34Z"/><path class="cls-3" d="M167.13,34.06a6.21,6.21,0,0,1-2.34-.46,7.11,7.11,0,0,1-2.11-1.31,6.41,6.41,0,0,1-1.52-2,6.41,6.41,0,0,1,0-5.15A6.63,6.63,0,0,1,162.53,23a6.75,6.75,0,0,1,2.06-1.41,6,6,0,0,1,2.49-.52,6.33,6.33,0,0,1,3.26.87,6.4,6.4,0,0,1,2.34,2.34,6.71,6.71,0,0,1,.31,6,6.5,6.5,0,0,1-1.5,2,6.57,6.57,0,0,1-2.08,1.29A6.35,6.35,0,0,1,167.13,34.06Zm0-3.77a2.81,2.81,0,0,0,1.22-.3,2.67,2.67,0,0,0,1-.9,2.53,2.53,0,0,0,.43-1.52,2.74,2.74,0,0,0-.35-1.4,2.41,2.41,0,0,0-1-.94,2.83,2.83,0,0,0-1.41-.34,2.6,2.6,0,0,0-1.34.35,2.65,2.65,0,0,0-.95,1,2.7,2.7,0,0,0-.37,1.39,2.61,2.61,0,0,0,.42,1.51,2.47,2.47,0,0,0,1,.9A3,3,0,0,0,167.08,30.29Z"/><path class="cls-3" d="M177.45,33.87a2.48,2.48,0,0,1-1.31-.26,1.11,1.11,0,0,1-.48-.72,4.63,4.63,0,0,1-.08-.92V23.24a4.42,4.42,0,0,1,.09-.92,1.08,1.08,0,0,1,.49-.69,2.54,2.54,0,0,1,1.32-.26,2.52,2.52,0,0,1,1.27.24,1,1,0,0,1,.48.55,1.73,1.73,0,0,1,.1.54l-.3.15a2,2,0,0,1,.27-.37,3.92,3.92,0,0,1,.58-.55,3.46,3.46,0,0,1,.92-.48,3.34,3.34,0,0,1,1.23-.2,4.45,4.45,0,0,1,.61,0,3.22,3.22,0,0,1,.71.15,2.47,2.47,0,0,1,.66.3,1.51,1.51,0,0,1,.48.46,1.14,1.14,0,0,1,.19.68,3.08,3.08,0,0,1-.47,1.73,1.4,1.4,0,0,1-1.2.71,2,2,0,0,1-.6-.06.87.87,0,0,1-.29-.15,1.1,1.1,0,0,0-.26-.15,1.72,1.72,0,0,0-.55-.06,2.46,2.46,0,0,0-.72.1,1.9,1.9,0,0,0-.62.31,1.6,1.6,0,0,0-.45.52,1.53,1.53,0,0,0-.17.72V32a4.46,4.46,0,0,1-.09.91,1,1,0,0,1-.48.69A2.6,2.6,0,0,1,177.45,33.87Z"/><path class="cls-3" d="M187.43,21.58h2.75l3.45-.1a4.29,4.29,0,0,1,.9.09,1.08,1.08,0,0,1,.7.49,2.31,2.31,0,0,1,.28,1.32,2.25,2.25,0,0,1-.27,1.25,1.1,1.1,0,0,1-.69.51,3.36,3.36,0,0,1-.92.12l-3.27-.08-3,0a1.26,1.26,0,0,1-1-.46,2.55,2.55,0,0,1-.29-1.39,2.15,2.15,0,0,1,.35-1.34A1.27,1.27,0,0,1,187.43,21.58Zm5.65,12.3a7.45,7.45,0,0,1-2.2-.28,3.32,3.32,0,0,1-2.39-2.31,6.94,6.94,0,0,1-.29-2.11V19.05a4.15,4.15,0,0,1,.09-.92,1,1,0,0,1,.49-.66,3.19,3.19,0,0,1,2.59,0,1.1,1.1,0,0,1,.49.71,4.53,4.53,0,0,1,.09.91V29a2.42,2.42,0,0,0,.07.66.79.79,0,0,0,.18.39.83.83,0,0,0,.35.18,2.88,2.88,0,0,0,.55,0,4.13,4.13,0,0,1,1,.11,1,1,0,0,1,.66.45A2.13,2.13,0,0,1,195,32a2.39,2.39,0,0,1-.28,1.3,1,1,0,0,1-.71.48A5.41,5.41,0,0,1,193.08,33.88Z"/><path class="cls-3" d="M203.63,34.11a7.14,7.14,0,0,1-3-.58A5.72,5.72,0,0,1,198.55,32a6.51,6.51,0,0,1-1.2-2.09,7.09,7.09,0,0,1-.4-2.3,6.39,6.39,0,0,1,.86-3.32A6,6,0,0,1,200.17,22a7,7,0,0,1,3.46-.83,6.18,6.18,0,0,1,2.51.46,5.12,5.12,0,0,1,2.78,2.79,4.5,4.5,0,0,1,.33,1.62,2.82,2.82,0,0,1-.66,2.05,2.26,2.26,0,0,1-1.69.68h-6a1.78,1.78,0,0,0,.47,1.08,2.81,2.81,0,0,0,1,.7,3.5,3.5,0,0,0,1.33.25,7.94,7.94,0,0,0,1-.06,4.49,4.49,0,0,0,.79-.17l.59-.23.49-.19a2.53,2.53,0,0,1,.42-.1,1,1,0,0,1,.68.22,1.91,1.91,0,0,1,.57.71,1.71,1.71,0,0,1,.24.52,2.2,2.2,0,0,1,.06.5A1.34,1.34,0,0,1,208,33.1a4.73,4.73,0,0,1-1.73.74A11.53,11.53,0,0,1,203.63,34.11ZM201,26.71h4a1,1,0,0,0,.58-.13.65.65,0,0,0,.2-.54,1.21,1.21,0,0,0-.28-.78,1.77,1.77,0,0,0-.73-.54,3.27,3.27,0,0,0-2.44.12,2.44,2.44,0,0,0-.94.79A2,2,0,0,0,201,26.71Z"/><path class="cls-3" d="M226,33.9a2.51,2.51,0,0,1-1.18-.26,1.58,1.58,0,0,1-.72-.79L218,19a1.86,1.86,0,0,1-.18-1.44,2.3,2.3,0,0,1,1.15-1,2.65,2.65,0,0,1,1.14-.39,1.15,1.15,0,0,1,.8.3,2.52,2.52,0,0,1,.59,1l4.42,11.05,4.43-11a3.3,3.3,0,0,1,.6-1,1.11,1.11,0,0,1,.81-.34,2.35,2.35,0,0,1,1.14.38c.72.35,1.12.7,1.21,1.05a2.24,2.24,0,0,1-.26,1.42L227.8,32.85a1.73,1.73,0,0,1-.71.76A2.2,2.2,0,0,1,226,33.9Z"/><path class="cls-3" d="M242.75,34.13a7.25,7.25,0,0,1-3-.57A5.9,5.9,0,0,1,237.67,32,6.36,6.36,0,0,1,236.48,30a6.92,6.92,0,0,1-.4-2.3,6.45,6.45,0,0,1,.85-3.33,6.16,6.16,0,0,1,2.36-2.28,7,7,0,0,1,3.47-.84,6.43,6.43,0,0,1,2.51.46A5.11,5.11,0,0,1,247,22.88a5,5,0,0,1,1,1.58,4.33,4.33,0,0,1,.34,1.63,2.78,2.78,0,0,1-.67,2.05,2.25,2.25,0,0,1-1.68.67h-5.95a1.71,1.71,0,0,0,.46,1.07,2.66,2.66,0,0,0,1,.7,3.61,3.61,0,0,0,1.32.26,8.11,8.11,0,0,0,1-.07,4.49,4.49,0,0,0,.79-.17c.21-.08.41-.15.58-.23l.49-.18a1.78,1.78,0,0,1,.43-.1,1,1,0,0,1,.67.21,2.11,2.11,0,0,1,.58.71,2,2,0,0,1,.23.53,2.08,2.08,0,0,1,.07.5,1.36,1.36,0,0,1-.62,1.09,4.86,4.86,0,0,1-1.72.73A11,11,0,0,1,242.75,34.13Zm-2.67-7.4H244a1,1,0,0,0,.57-.14c.14-.09.2-.27.2-.54a1.23,1.23,0,0,0-.27-.77,1.64,1.64,0,0,0-.74-.54,2.8,2.8,0,0,0-1.09-.19,3,3,0,0,0-1.35.3,2.36,2.36,0,0,0-.93.8A1.84,1.84,0,0,0,240.08,26.73Z"/><path class="cls-3" d="M252.35,33.92a2.37,2.37,0,0,1-1.31-.27,1.07,1.07,0,0,1-.48-.71,4.73,4.73,0,0,1-.09-.93V23.29a4.59,4.59,0,0,1,.09-.93,1,1,0,0,1,.49-.68,2.42,2.42,0,0,1,1.32-.26,2.63,2.63,0,0,1,1.26.23,1.1,1.1,0,0,1,.49.55,1.73,1.73,0,0,1,.1.54l-.3.15a2.48,2.48,0,0,1,.26-.36,3.2,3.2,0,0,1,.59-.55,3.9,3.9,0,0,1,.91-.49,3.62,3.62,0,0,1,1.24-.2c.18,0,.39,0,.61,0a4.62,4.62,0,0,1,.7.15,3.41,3.41,0,0,1,.67.3,1.63,1.63,0,0,1,.48.46,1.16,1.16,0,0,1,.19.68,3.06,3.06,0,0,1-.48,1.74,1.4,1.4,0,0,1-1.2.71,2.11,2.11,0,0,1-.6-.06,1.77,1.77,0,0,1-.28-.15,1.17,1.17,0,0,0-.27-.15,1.39,1.39,0,0,0-.55-.07,2.77,2.77,0,0,0-.71.1,2.12,2.12,0,0,0-.62.31,1.42,1.42,0,0,0-.45.53,1.52,1.52,0,0,0-.17.71v5.48a4.53,4.53,0,0,1-.09.91,1,1,0,0,1-.49.69A2.67,2.67,0,0,1,252.35,33.92Z"/><path class="cls-3" d="M262.33,21.62h2.75l3.45-.09a4.31,4.31,0,0,1,.9.08,1.14,1.14,0,0,1,.7.49,2.47,2.47,0,0,1,.27,1.33,2.31,2.31,0,0,1-.26,1.25,1.18,1.18,0,0,1-.69.51,3.8,3.8,0,0,1-.92.11l-3.28-.08-3,0a1.27,1.27,0,0,1-1-.47,2.4,2.4,0,0,1-.29-1.38,2.15,2.15,0,0,1,.35-1.34A1.26,1.26,0,0,1,262.33,21.62ZM268,33.92a7.92,7.92,0,0,1-2.2-.27,3.33,3.33,0,0,1-2.38-2.31,7,7,0,0,1-.29-2.12V19.1a4.31,4.31,0,0,1,.09-.93,1,1,0,0,1,.48-.66,2.51,2.51,0,0,1,1.3-.26,2.38,2.38,0,0,1,1.3.27,1.14,1.14,0,0,1,.49.72,4.46,4.46,0,0,1,.09.91v9.92a3.13,3.13,0,0,0,.06.67.9.9,0,0,0,.19.38.62.62,0,0,0,.35.18,2.79,2.79,0,0,0,.55.05,4.16,4.16,0,0,1,1,.1,1.1,1.1,0,0,1,.66.45,2.17,2.17,0,0,1,.24,1.18,2.48,2.48,0,0,1-.28,1.3,1.07,1.07,0,0,1-.71.47A5.53,5.53,0,0,1,268,33.92Z"/><path class="cls-3" d="M274.33,19.63a2.43,2.43,0,0,1-1.35-.28,1,1,0,0,1-.48-.72,4.86,4.86,0,0,1-.09-.95,4.75,4.75,0,0,1,.09-1,1,1,0,0,1,.5-.7,2.57,2.57,0,0,1,1.36-.27,2.4,2.4,0,0,1,1.32.28,1.11,1.11,0,0,1,.49.73,5.06,5.06,0,0,1,0,1.9,1.07,1.07,0,0,1-.49.71A2.62,2.62,0,0,1,274.33,19.63Zm0,14.3a2.54,2.54,0,0,1-1.32-.26,1,1,0,0,1-.48-.7,5.53,5.53,0,0,1-.07-.92V23.33a4.47,4.47,0,0,1,.08-.91,1,1,0,0,1,.49-.7,2.47,2.47,0,0,1,1.33-.27,2.29,2.29,0,0,1,1.28.28,1.12,1.12,0,0,1,.48.71,4.69,4.69,0,0,1,.09.94v8.7a4.46,4.46,0,0,1-.09.91,1.08,1.08,0,0,1-.47.69A2.53,2.53,0,0,1,274.32,33.93Z"/><path class="cls-3" d="M285.05,34a6.42,6.42,0,0,1-2.24-.42,6.92,6.92,0,0,1-2.1-1.21,5.87,5.87,0,0,1-1.53-2,6.76,6.76,0,0,1,0-5.48,5.85,5.85,0,0,1,1.53-2,6.52,6.52,0,0,1,2.08-1.21,6.38,6.38,0,0,1,2.22-.41,6.08,6.08,0,0,1,1.66.21,5.41,5.41,0,0,1,1.25.51,3.74,3.74,0,0,1,.73.53,5.48,5.48,0,0,1,.75.65,1,1,0,0,1,.3.85,1.38,1.38,0,0,1-.17.56,4.48,4.48,0,0,1-.38.59c-.51.7-1,1-1.5,1a2.58,2.58,0,0,1-.69-.25l-.59-.35a6,6,0,0,0-.62-.32,1.89,1.89,0,0,0-.75-.14,2.6,2.6,0,0,0-1.3.34,2.7,2.7,0,0,0-.91.9,2.6,2.6,0,0,0,.9,3.53,2.52,2.52,0,0,0,1.26.34,2.38,2.38,0,0,0,.73-.11,2.33,2.33,0,0,0,.55-.23l.35-.21c.2-.14.39-.26.57-.37a1.16,1.16,0,0,1,.55-.16,1.28,1.28,0,0,1,.74.26,4.7,4.7,0,0,1,.81.84,2.1,2.1,0,0,1,.49,1,1.18,1.18,0,0,1-.22.86,2.46,2.46,0,0,1-.85.76,3.69,3.69,0,0,1-.71.45,6.49,6.49,0,0,1-1.25.5A5.69,5.69,0,0,1,285.05,34Z"/><path class="cls-3" d="M302.2,33.92a2.34,2.34,0,0,1-1.38-.33.87.87,0,0,1-.42-.79l.25-.43a2.59,2.59,0,0,1-.58.61,4.11,4.11,0,0,1-1.11.65,4.33,4.33,0,0,1-1.66.29,5,5,0,0,1-2.19-.5A6.17,6.17,0,0,1,293.27,32,7.27,7.27,0,0,1,292,30a6.13,6.13,0,0,1,0-4.71,6.72,6.72,0,0,1,1.29-2A6.19,6.19,0,0,1,295.13,22a4.8,4.8,0,0,1,2.17-.5,4.32,4.32,0,0,1,1.58.26,4.65,4.65,0,0,1,1.09.61,3.45,3.45,0,0,1,.66.68l-.23-.35a1.05,1.05,0,0,1,.44-.91,2.42,2.42,0,0,1,1.39-.31,2.34,2.34,0,0,1,1.29.27,1.15,1.15,0,0,1,.47.73,4.79,4.79,0,0,1,.09.95V32A5.64,5.64,0,0,1,304,33a1.09,1.09,0,0,1-.48.71A2.5,2.5,0,0,1,302.2,33.92Zm-4.38-3.73a2.24,2.24,0,0,0,1.21-.33,2.67,2.67,0,0,0,.85-3.48,2.5,2.5,0,0,0-.88-.89,2.39,2.39,0,0,0-1.22-.32,2.33,2.33,0,0,0-1.26.34,2.38,2.38,0,0,0-.9.91,2.45,2.45,0,0,0-.34,1.3,2.36,2.36,0,0,0,.33,1.23,2.51,2.51,0,0,0,.93.9A2.48,2.48,0,0,0,297.82,30.19Z"/><path class="cls-3" d="M311.37,34a14.14,14.14,0,0,1-1.82-.1,3.77,3.77,0,0,1-1.35-.4,2.42,2.42,0,0,1-.9-.84,4,4,0,0,1-.53-1.37,10.92,10.92,0,0,1-.17-2.07V17.62a3.82,3.82,0,0,1,.1-.92,1.14,1.14,0,0,1,.49-.7,3.16,3.16,0,0,1,2.6,0,1.17,1.17,0,0,1,.48.7,3.84,3.84,0,0,1,.1.93V29a5.86,5.86,0,0,0,0,.66,1,1,0,0,0,.15.42.59.59,0,0,0,.32.2,2.34,2.34,0,0,0,.52,0,2.6,2.6,0,0,1,.61.07.89.89,0,0,1,.54.45,2.58,2.58,0,0,1,.22,1.25,2.78,2.78,0,0,1-.22,1.3.88.88,0,0,1-.54.48A2.73,2.73,0,0,1,311.37,34Z"/><path class="cls-2" d="M120.38,33.84a2.4,2.4,0,0,1-1.32-.28,1.14,1.14,0,0,1-.48-.72,4.08,4.08,0,0,1-.1-.93V18.26a3.85,3.85,0,0,1,.1-.91,1.11,1.11,0,0,1,.5-.71,2.33,2.33,0,0,1,1.32-.28h5.18a6.69,6.69,0,0,1,2.12.38,6.18,6.18,0,0,1,2,1.15,5.72,5.72,0,0,1,1.44,1.93,6.2,6.2,0,0,1,.55,2.72,6.68,6.68,0,0,1-.31,2,5.73,5.73,0,0,1-.94,1.8,6,6,0,0,1-1.55,1.4,6.75,6.75,0,0,1-2.13.86H122.3v3.3a3.91,3.91,0,0,1-.1.91,1.15,1.15,0,0,1-.5.71A2.35,2.35,0,0,1,120.38,33.84Zm1.93-9h3.47a2,2,0,0,0,.7-.13,2.21,2.21,0,0,0,.69-.41,2.08,2.08,0,0,0,.51-.73,2.52,2.52,0,0,0,.2-1.07,2.46,2.46,0,0,0-.3-1.25,2.09,2.09,0,0,0-.82-.82,2.54,2.54,0,0,0-1.23-.29h-3.22Zm8.62,8.48a2,2,0,0,1-1.48.54,2.24,2.24,0,0,1-1.15-1l-4.39-6.3,4.27-.55,3.22,4.63a3.18,3.18,0,0,1,.54,1,1,1,0,0,1-.13.8A3.25,3.25,0,0,1,130.93,33.34Z"/><path class="cls-2" d="M140.28,34.07a7.3,7.3,0,0,1-3-.57A5.86,5.86,0,0,1,135.2,32a6.51,6.51,0,0,1-1.2-2.09,7.09,7.09,0,0,1-.4-2.3,6.51,6.51,0,0,1,.86-3.32A6,6,0,0,1,136.82,22a7.11,7.11,0,0,1,3.46-.83,6.27,6.27,0,0,1,2.52.46,5.33,5.33,0,0,1,1.75,1.2,5.5,5.5,0,0,1,1,1.59,4.54,4.54,0,0,1,.34,1.63,2.89,2.89,0,0,1-.67,2,2.25,2.25,0,0,1-1.69.67h-6a1.77,1.77,0,0,0,.47,1.07,2.69,2.69,0,0,0,1,.7,3.5,3.5,0,0,0,1.33.25,7.94,7.94,0,0,0,1-.06,4.3,4.3,0,0,0,.79-.17c.22-.08.42-.15.59-.23a5.09,5.09,0,0,1,.49-.18,1.81,1.81,0,0,1,.42-.1,1,1,0,0,1,.68.21A2,2,0,0,1,145,31a1.65,1.65,0,0,1,.24.53,2.07,2.07,0,0,1,.06.5,1.32,1.32,0,0,1-.61,1.08,4.66,4.66,0,0,1-1.73.74A11.47,11.47,0,0,1,140.28,34.07Zm-2.67-7.4h3.94a1,1,0,0,0,.58-.13.62.62,0,0,0,.2-.54,1.27,1.27,0,0,0-.27-.78,1.76,1.76,0,0,0-.74-.53,2.8,2.8,0,0,0-1.09-.19,3,3,0,0,0-1.35.3,2.38,2.38,0,0,0-.94.8A1.9,1.9,0,0,0,137.61,26.67Z"/><path class="cls-2" d="M154.18,34a6.42,6.42,0,0,1-2.24-.42,6.92,6.92,0,0,1-2.1-1.21,5.92,5.92,0,0,1-1.54-2,6.35,6.35,0,0,1-.57-2.75,6.09,6.09,0,0,1,.58-2.73,6,6,0,0,1,1.52-2,6.87,6.87,0,0,1,2.09-1.21,6.37,6.37,0,0,1,2.21-.41,6.15,6.15,0,0,1,1.67.21,5.6,5.6,0,0,1,1.25.51,3.74,3.74,0,0,1,.73.53,7.16,7.16,0,0,1,.75.65,1.05,1.05,0,0,1,.3.85,1.56,1.56,0,0,1-.17.56,4.48,4.48,0,0,1-.38.59c-.52.7-1,1-1.5.95a2.58,2.58,0,0,1-.69-.25l-.6-.35a5,5,0,0,0-.61-.32,2,2,0,0,0-.75-.13,2.56,2.56,0,0,0-1.3.33,2.61,2.61,0,0,0-.91.9,2.69,2.69,0,0,0,0,2.62,2.53,2.53,0,0,0,.9.91,2.42,2.42,0,0,0,1.26.34,2.66,2.66,0,0,0,.72-.1,2.59,2.59,0,0,0,.55-.24l.35-.21a5.41,5.41,0,0,1,.58-.36,1,1,0,0,1,.55-.17,1.25,1.25,0,0,1,.74.27,4.28,4.28,0,0,1,.81.83,2.2,2.2,0,0,1,.49,1,1.18,1.18,0,0,1-.22.86,2.56,2.56,0,0,1-.85.76,3.69,3.69,0,0,1-.71.45,6.49,6.49,0,0,1-1.25.5A5.69,5.69,0,0,1,154.18,34Z"/><path class="cls-2" d="M167.13,34.06a6.21,6.21,0,0,1-2.34-.46,7.11,7.11,0,0,1-2.11-1.31,6.41,6.41,0,0,1-1.52-2,6.41,6.41,0,0,1,0-5.15A6.63,6.63,0,0,1,162.53,23a6.75,6.75,0,0,1,2.06-1.41,6,6,0,0,1,2.49-.52,6.33,6.33,0,0,1,3.26.87,6.4,6.4,0,0,1,2.34,2.34,6.71,6.71,0,0,1,.31,6,6.5,6.5,0,0,1-1.5,2,6.57,6.57,0,0,1-2.08,1.29A6.35,6.35,0,0,1,167.13,34.06Zm0-3.77a2.81,2.81,0,0,0,1.22-.3,2.67,2.67,0,0,0,1-.9,2.53,2.53,0,0,0,.43-1.52,2.74,2.74,0,0,0-.35-1.4,2.41,2.41,0,0,0-1-.94,2.83,2.83,0,0,0-1.41-.34,2.6,2.6,0,0,0-1.34.35,2.65,2.65,0,0,0-.95,1,2.7,2.7,0,0,0-.37,1.39,2.61,2.61,0,0,0,.42,1.51,2.47,2.47,0,0,0,1,.9A3,3,0,0,0,167.08,30.29Z"/><path class="cls-2" d="M177.45,33.87a2.48,2.48,0,0,1-1.31-.26,1.11,1.11,0,0,1-.48-.72,4.63,4.63,0,0,1-.08-.92V23.24a4.42,4.42,0,0,1,.09-.92,1.08,1.08,0,0,1,.49-.69,2.54,2.54,0,0,1,1.32-.26,2.52,2.52,0,0,1,1.27.24,1,1,0,0,1,.48.55,1.73,1.73,0,0,1,.1.54l-.3.15a2,2,0,0,1,.27-.37,3.92,3.92,0,0,1,.58-.55,3.46,3.46,0,0,1,.92-.48,3.34,3.34,0,0,1,1.23-.2,4.45,4.45,0,0,1,.61,0,3.22,3.22,0,0,1,.71.15,2.47,2.47,0,0,1,.66.3,1.51,1.51,0,0,1,.48.46,1.14,1.14,0,0,1,.19.68,3.08,3.08,0,0,1-.47,1.73,1.4,1.4,0,0,1-1.2.71,2,2,0,0,1-.6-.06.87.87,0,0,1-.29-.15,1.1,1.1,0,0,0-.26-.15,1.72,1.72,0,0,0-.55-.06,2.46,2.46,0,0,0-.72.1,1.9,1.9,0,0,0-.62.31,1.6,1.6,0,0,0-.45.52,1.53,1.53,0,0,0-.17.72V32a4.46,4.46,0,0,1-.09.91,1,1,0,0,1-.48.69A2.6,2.6,0,0,1,177.45,33.87Z"/><path class="cls-2" d="M187.43,21.58h2.75l3.45-.1a4.29,4.29,0,0,1,.9.09,1.08,1.08,0,0,1,.7.49,2.31,2.31,0,0,1,.28,1.32,2.25,2.25,0,0,1-.27,1.25,1.1,1.1,0,0,1-.69.51,3.36,3.36,0,0,1-.92.12l-3.27-.08-3,0a1.26,1.26,0,0,1-1-.46,2.55,2.55,0,0,1-.29-1.39,2.15,2.15,0,0,1,.35-1.34A1.27,1.27,0,0,1,187.43,21.58Zm5.65,12.3a7.45,7.45,0,0,1-2.2-.28,3.32,3.32,0,0,1-2.39-2.31,6.94,6.94,0,0,1-.29-2.11V19.05a4.15,4.15,0,0,1,.09-.92,1,1,0,0,1,.49-.66,3.19,3.19,0,0,1,2.59,0,1.1,1.1,0,0,1,.49.71,4.53,4.53,0,0,1,.09.91V29a2.42,2.42,0,0,0,.07.66.79.79,0,0,0,.18.39.83.83,0,0,0,.35.18,2.88,2.88,0,0,0,.55,0,4.13,4.13,0,0,1,1,.11,1,1,0,0,1,.66.45A2.13,2.13,0,0,1,195,32a2.39,2.39,0,0,1-.28,1.3,1,1,0,0,1-.71.48A5.41,5.41,0,0,1,193.08,33.88Z"/><path class="cls-2" d="M203.63,34.11a7.14,7.14,0,0,1-3-.58A5.72,5.72,0,0,1,198.55,32a6.51,6.51,0,0,1-1.2-2.09,7.09,7.09,0,0,1-.4-2.3,6.39,6.39,0,0,1,.86-3.32A6,6,0,0,1,200.17,22a7,7,0,0,1,3.46-.83,6.18,6.18,0,0,1,2.51.46,5.12,5.12,0,0,1,2.78,2.79,4.5,4.5,0,0,1,.33,1.62,2.82,2.82,0,0,1-.66,2.05,2.26,2.26,0,0,1-1.69.68h-6a1.78,1.78,0,0,0,.47,1.08,2.81,2.81,0,0,0,1,.7,3.5,3.5,0,0,0,1.33.25,7.94,7.94,0,0,0,1-.06,4.49,4.49,0,0,0,.79-.17l.59-.23.49-.19a2.53,2.53,0,0,1,.42-.1,1,1,0,0,1,.68.22,1.91,1.91,0,0,1,.57.71,1.71,1.71,0,0,1,.24.52,2.2,2.2,0,0,1,.06.5A1.34,1.34,0,0,1,208,33.1a4.73,4.73,0,0,1-1.73.74A11.53,11.53,0,0,1,203.63,34.11ZM201,26.71h4a1,1,0,0,0,.58-.13.65.65,0,0,0,.2-.54,1.21,1.21,0,0,0-.28-.78,1.77,1.77,0,0,0-.73-.54,3.27,3.27,0,0,0-2.44.12,2.44,2.44,0,0,0-.94.79A2,2,0,0,0,201,26.71Z"/><path class="cls-2" d="M226,33.9a2.51,2.51,0,0,1-1.18-.26,1.58,1.58,0,0,1-.72-.79L218,19a1.86,1.86,0,0,1-.18-1.44,2.3,2.3,0,0,1,1.15-1,2.65,2.65,0,0,1,1.14-.39,1.15,1.15,0,0,1,.8.3,2.52,2.52,0,0,1,.59,1l4.42,11.05,4.43-11a3.3,3.3,0,0,1,.6-1,1.11,1.11,0,0,1,.81-.34,2.35,2.35,0,0,1,1.14.38c.72.35,1.12.7,1.21,1.05a2.24,2.24,0,0,1-.26,1.42L227.8,32.85a1.73,1.73,0,0,1-.71.76A2.2,2.2,0,0,1,226,33.9Z"/><path class="cls-2" d="M242.75,34.13a7.25,7.25,0,0,1-3-.57A5.9,5.9,0,0,1,237.67,32,6.36,6.36,0,0,1,236.48,30a6.92,6.92,0,0,1-.4-2.3,6.45,6.45,0,0,1,.85-3.33,6.16,6.16,0,0,1,2.36-2.28,7,7,0,0,1,3.47-.84,6.43,6.43,0,0,1,2.51.46A5.11,5.11,0,0,1,247,22.88a5,5,0,0,1,1,1.58,4.33,4.33,0,0,1,.34,1.63,2.78,2.78,0,0,1-.67,2.05,2.25,2.25,0,0,1-1.68.67h-5.95a1.71,1.71,0,0,0,.46,1.07,2.66,2.66,0,0,0,1,.7,3.61,3.61,0,0,0,1.32.26,8.11,8.11,0,0,0,1-.07,4.49,4.49,0,0,0,.79-.17c.21-.08.41-.15.58-.23l.49-.18a1.78,1.78,0,0,1,.43-.1,1,1,0,0,1,.67.21,2.11,2.11,0,0,1,.58.71,2,2,0,0,1,.23.53,2.08,2.08,0,0,1,.07.5,1.36,1.36,0,0,1-.62,1.09,4.86,4.86,0,0,1-1.72.73A11,11,0,0,1,242.75,34.13Zm-2.67-7.4H244a1,1,0,0,0,.57-.14c.14-.09.2-.27.2-.54a1.23,1.23,0,0,0-.27-.77,1.64,1.64,0,0,0-.74-.54,2.8,2.8,0,0,0-1.09-.19,3,3,0,0,0-1.35.3,2.36,2.36,0,0,0-.93.8A1.84,1.84,0,0,0,240.08,26.73Z"/><path class="cls-2" d="M252.35,33.92a2.37,2.37,0,0,1-1.31-.27,1.07,1.07,0,0,1-.48-.71,4.73,4.73,0,0,1-.09-.93V23.29a4.59,4.59,0,0,1,.09-.93,1,1,0,0,1,.49-.68,2.42,2.42,0,0,1,1.32-.26,2.63,2.63,0,0,1,1.26.23,1.1,1.1,0,0,1,.49.55,1.73,1.73,0,0,1,.1.54l-.3.15a2.48,2.48,0,0,1,.26-.36,3.2,3.2,0,0,1,.59-.55,3.9,3.9,0,0,1,.91-.49,3.62,3.62,0,0,1,1.24-.2c.18,0,.39,0,.61,0a4.62,4.62,0,0,1,.7.15,3.41,3.41,0,0,1,.67.3,1.63,1.63,0,0,1,.48.46,1.16,1.16,0,0,1,.19.68,3.06,3.06,0,0,1-.48,1.74,1.4,1.4,0,0,1-1.2.71,2.11,2.11,0,0,1-.6-.06,1.77,1.77,0,0,1-.28-.15,1.17,1.17,0,0,0-.27-.15,1.39,1.39,0,0,0-.55-.07,2.77,2.77,0,0,0-.71.1,2.12,2.12,0,0,0-.62.31,1.42,1.42,0,0,0-.45.53,1.52,1.52,0,0,0-.17.71v5.48a4.53,4.53,0,0,1-.09.91,1,1,0,0,1-.49.69A2.67,2.67,0,0,1,252.35,33.92Z"/><path class="cls-2" d="M262.33,21.62h2.75l3.45-.09a4.31,4.31,0,0,1,.9.08,1.14,1.14,0,0,1,.7.49,2.47,2.47,0,0,1,.27,1.33,2.31,2.31,0,0,1-.26,1.25,1.18,1.18,0,0,1-.69.51,3.8,3.8,0,0,1-.92.11l-3.28-.08-3,0a1.27,1.27,0,0,1-1-.47,2.4,2.4,0,0,1-.29-1.38,2.15,2.15,0,0,1,.35-1.34A1.26,1.26,0,0,1,262.33,21.62ZM268,33.92a7.92,7.92,0,0,1-2.2-.27,3.33,3.33,0,0,1-2.38-2.31,7,7,0,0,1-.29-2.12V19.1a4.31,4.31,0,0,1,.09-.93,1,1,0,0,1,.48-.66,2.51,2.51,0,0,1,1.3-.26,2.38,2.38,0,0,1,1.3.27,1.14,1.14,0,0,1,.49.72,4.46,4.46,0,0,1,.09.91v9.92a3.13,3.13,0,0,0,.06.67.9.9,0,0,0,.19.38.62.62,0,0,0,.35.18,2.79,2.79,0,0,0,.55.05,4.16,4.16,0,0,1,1,.1,1.1,1.1,0,0,1,.66.45,2.17,2.17,0,0,1,.24,1.18,2.48,2.48,0,0,1-.28,1.3,1.07,1.07,0,0,1-.71.47A5.53,5.53,0,0,1,268,33.92Z"/><path class="cls-2" d="M274.33,19.63a2.43,2.43,0,0,1-1.35-.28,1,1,0,0,1-.48-.72,4.86,4.86,0,0,1-.09-.95,4.75,4.75,0,0,1,.09-1,1,1,0,0,1,.5-.7,2.57,2.57,0,0,1,1.36-.27,2.4,2.4,0,0,1,1.32.28,1.11,1.11,0,0,1,.49.73,5.06,5.06,0,0,1,0,1.9,1.07,1.07,0,0,1-.49.71A2.62,2.62,0,0,1,274.33,19.63Zm0,14.3a2.54,2.54,0,0,1-1.32-.26,1,1,0,0,1-.48-.7,5.53,5.53,0,0,1-.07-.92V23.33a4.47,4.47,0,0,1,.08-.91,1,1,0,0,1,.49-.7,2.47,2.47,0,0,1,1.33-.27,2.29,2.29,0,0,1,1.28.28,1.12,1.12,0,0,1,.48.71,4.69,4.69,0,0,1,.09.94v8.7a4.46,4.46,0,0,1-.09.91,1.08,1.08,0,0,1-.47.69A2.53,2.53,0,0,1,274.32,33.93Z"/><path class="cls-2" d="M285.05,34a6.42,6.42,0,0,1-2.24-.42,6.92,6.92,0,0,1-2.1-1.21,5.87,5.87,0,0,1-1.53-2,6.76,6.76,0,0,1,0-5.48,5.85,5.85,0,0,1,1.53-2,6.52,6.52,0,0,1,2.08-1.21,6.38,6.38,0,0,1,2.22-.41,6.08,6.08,0,0,1,1.66.21,5.41,5.41,0,0,1,1.25.51,3.74,3.74,0,0,1,.73.53,5.48,5.48,0,0,1,.75.65,1,1,0,0,1,.3.85,1.38,1.38,0,0,1-.17.56,4.48,4.48,0,0,1-.38.59c-.51.7-1,1-1.5,1a2.58,2.58,0,0,1-.69-.25l-.59-.35a6,6,0,0,0-.62-.32,1.89,1.89,0,0,0-.75-.14,2.6,2.6,0,0,0-1.3.34,2.7,2.7,0,0,0-.91.9,2.6,2.6,0,0,0,.9,3.53,2.52,2.52,0,0,0,1.26.34,2.38,2.38,0,0,0,.73-.11,2.33,2.33,0,0,0,.55-.23l.35-.21c.2-.14.39-.26.57-.37a1.16,1.16,0,0,1,.55-.16,1.28,1.28,0,0,1,.74.26,4.7,4.7,0,0,1,.81.84,2.1,2.1,0,0,1,.49,1,1.18,1.18,0,0,1-.22.86,2.46,2.46,0,0,1-.85.76,3.69,3.69,0,0,1-.71.45,6.49,6.49,0,0,1-1.25.5A5.69,5.69,0,0,1,285.05,34Z"/><path class="cls-2" d="M302.2,33.92a2.34,2.34,0,0,1-1.38-.33.87.87,0,0,1-.42-.79l.25-.43a2.59,2.59,0,0,1-.58.61,4.11,4.11,0,0,1-1.11.65,4.33,4.33,0,0,1-1.66.29,5,5,0,0,1-2.19-.5A6.17,6.17,0,0,1,293.27,32,7.27,7.27,0,0,1,292,30a6.13,6.13,0,0,1,0-4.71,6.72,6.72,0,0,1,1.29-2A6.19,6.19,0,0,1,295.13,22a4.8,4.8,0,0,1,2.17-.5,4.32,4.32,0,0,1,1.58.26,4.65,4.65,0,0,1,1.09.61,3.45,3.45,0,0,1,.66.68l-.23-.35a1.05,1.05,0,0,1,.44-.91,2.42,2.42,0,0,1,1.39-.31,2.34,2.34,0,0,1,1.29.27,1.15,1.15,0,0,1,.47.73,4.79,4.79,0,0,1,.09.95V32A5.64,5.64,0,0,1,304,33a1.09,1.09,0,0,1-.48.71A2.5,2.5,0,0,1,302.2,33.92Zm-4.38-3.73a2.24,2.24,0,0,0,1.21-.33,2.67,2.67,0,0,0,.85-3.48,2.5,2.5,0,0,0-.88-.89,2.39,2.39,0,0,0-1.22-.32,2.33,2.33,0,0,0-1.26.34,2.38,2.38,0,0,0-.9.91,2.45,2.45,0,0,0-.34,1.3,2.36,2.36,0,0,0,.33,1.23,2.51,2.51,0,0,0,.93.9A2.48,2.48,0,0,0,297.82,30.19Z"/><path class="cls-2" d="M311.37,34a14.14,14.14,0,0,1-1.82-.1,3.77,3.77,0,0,1-1.35-.4,2.42,2.42,0,0,1-.9-.84,4,4,0,0,1-.53-1.37,10.92,10.92,0,0,1-.17-2.07V17.62a3.82,3.82,0,0,1,.1-.92,1.14,1.14,0,0,1,.49-.7,3.16,3.16,0,0,1,2.6,0,1.17,1.17,0,0,1,.48.7,3.84,3.84,0,0,1,.1.93V29a5.86,5.86,0,0,0,0,.66,1,1,0,0,0,.15.42.59.59,0,0,0,.32.2,2.34,2.34,0,0,0,.52,0,2.6,2.6,0,0,1,.61.07.89.89,0,0,1,.54.45,2.58,2.58,0,0,1,.22,1.25,2.78,2.78,0,0,1-.22,1.3.88.88,0,0,1-.54.48A2.73,2.73,0,0,1,311.37,34Z"/><text class="cls-4" transform="matrix(0.97, 0, 0, 1, 46.48, 38.89)">2<tspan class="cls-5" x="24.44" y="0">.</tspan><tspan class="cls-6" x="31.84" y="0">1</tspan></text><text class="cls-7" transform="matrix(0.97, 0, 0, 1, 46.48, 38.89)">2<tspan class="cls-5" x="24.44" y="0">.</tspan><tspan class="cls-6" x="31.84" y="0">1</tspan></text></g></g></svg>