<svg xmlns="http://www.w3.org/2000/svg" viewBox="0 0 401.16 89.13"><defs><style>.cls-1{fill:#0468ad;}.cls-2{fill:#fff;}.cls-3,.cls-4{fill:none;stroke-width:5px;}.cls-3{stroke:#c8a927;stroke-linejoin:round;}.cls-4,.cls-5{font-size:42px;font-family:Coiny-Regular, Coiny;}.cls-4{stroke:#fff;}.cls-5{fill:#c8a927;}</style></defs><title>22t</title><g id="Layer_2" data-name="Layer 2"><g id="mesa"><rect class="cls-1" width="401.16" height="89.13" rx="32.4"/><path class="cls-2" d="M120.08,33.84a2.41,2.41,0,0,1-1.32-.27,1.06,1.06,0,0,1-.47-.7,4.59,4.59,0,0,1-.09-.93V17.54a3.84,3.84,0,0,1,.1-.93,1.16,1.16,0,0,1,.49-.69,2.48,2.48,0,0,1,1.31-.26,2.25,2.25,0,0,1,1.31.28,1.1,1.1,0,0,1,.48.7,4.42,4.42,0,0,1,.09.92v5.1a5.78,5.78,0,0,1,1.17-.9,3.22,3.22,0,0,1,1.68-.42,5,5,0,0,1,2.79.79,5.57,5.57,0,0,1,2,2.16,6.6,6.6,0,0,1,.74,3.15V32a4.4,4.4,0,0,1-.1.92,1.16,1.16,0,0,1-.48.69,3.43,3.43,0,0,1-2.62,0,1.08,1.08,0,0,1-.49-.7,4.69,4.69,0,0,1-.09-.94V27.41a2.73,2.73,0,0,0-.25-1.23,1.85,1.85,0,0,0-.73-.81,2.15,2.15,0,0,0-1.19-.31,2.48,2.48,0,0,0-1.61.56A2.07,2.07,0,0,0,122,27v5a4.49,4.49,0,0,1-.1.93,1.11,1.11,0,0,1-.49.68A2.39,2.39,0,0,1,120.08,33.84Z"/><path class="cls-2" d="M138.65,34.05a6.3,6.3,0,0,1-2.34-.47,6.84,6.84,0,0,1-2.11-1.31,6.38,6.38,0,0,1-1.51-2,6.47,6.47,0,0,1-.05-5.15A7,7,0,0,1,134.06,23a6.63,6.63,0,0,1,2.06-1.41,6.13,6.13,0,0,1,2.49-.51,6.33,6.33,0,0,1,3.26.86,6.72,6.72,0,0,1,2.34,2.34,6.71,6.71,0,0,1,.31,6,6.59,6.59,0,0,1-3.58,3.32A6.38,6.38,0,0,1,138.65,34.05Zm-.05-3.78a2.85,2.85,0,0,0,1.23-.3,2.81,2.81,0,0,0,1-.9,2.57,2.57,0,0,0,.42-1.52,2.77,2.77,0,0,0-.34-1.4,2.58,2.58,0,0,0-1-.94,2.91,2.91,0,0,0-1.41-.34,2.6,2.6,0,0,0-1.34.35,2.73,2.73,0,0,0-1,1,2.69,2.69,0,0,0-.36,1.39,2.66,2.66,0,0,0,.41,1.51,2.49,2.49,0,0,0,1,.9A2.76,2.76,0,0,0,138.6,30.27Z"/><path class="cls-2" d="M149,33.85a2.42,2.42,0,0,1-1.32-.26,1.06,1.06,0,0,1-.47-.71,4.73,4.73,0,0,1-.09-.93V23.23a4.52,4.52,0,0,1,.09-.93,1,1,0,0,1,.48-.68,2.47,2.47,0,0,1,1.33-.27,2.5,2.5,0,0,1,1.26.24,1.06,1.06,0,0,1,.49.55,2.08,2.08,0,0,1,.1.54l-.3.15a2,2,0,0,1,.26-.36,3.2,3.2,0,0,1,.59-.55,3.4,3.4,0,0,1,.91-.49,3.62,3.62,0,0,1,1.24-.2,4.55,4.55,0,0,1,.61,0,3,3,0,0,1,.7.15,2.47,2.47,0,0,1,.66.3,1.8,1.8,0,0,1,.49.46,1.24,1.24,0,0,1,.19.68,3.06,3.06,0,0,1-.48,1.74,1.42,1.42,0,0,1-1.2.71,1.73,1.73,0,0,1-.6-.07,1,1,0,0,1-.29-.15l-.26-.15a1.68,1.68,0,0,0-.55-.06,2.34,2.34,0,0,0-.71.1,2.17,2.17,0,0,0-.63.31,1.54,1.54,0,0,0-.45.53,1.49,1.49,0,0,0-.16.71V32a4.56,4.56,0,0,1-.09.92,1,1,0,0,1-.49.68A2.58,2.58,0,0,1,149,33.85Z"/><path class="cls-2" d="M160.18,19.56a2.53,2.53,0,0,1-1.35-.27,1.12,1.12,0,0,1-.48-.73,4.86,4.86,0,0,1-.09-.95,4.75,4.75,0,0,1,.09-1,1,1,0,0,1,.5-.7,3.54,3.54,0,0,1,2.69,0,1.14,1.14,0,0,1,.48.73,4.92,4.92,0,0,1,.09,1,4.73,4.73,0,0,1-.09.93,1.07,1.07,0,0,1-.49.71A2.59,2.59,0,0,1,160.18,19.56Zm0,14.3a2.59,2.59,0,0,1-1.33-.26,1,1,0,0,1-.47-.7,5.43,5.43,0,0,1-.08-.92V23.26a5.31,5.31,0,0,1,.08-.91,1.07,1.07,0,0,1,.49-.7,2.47,2.47,0,0,1,1.33-.27,2.42,2.42,0,0,1,1.29.28,1.14,1.14,0,0,1,.47.71,4.76,4.76,0,0,1,.09.94V32a4.46,4.46,0,0,1-.09.91,1,1,0,0,1-.47.69A2.52,2.52,0,0,1,160.18,33.86Z"/><path class="cls-2" d="M166.1,33.86a1.8,1.8,0,0,1-1.31-.53,1.82,1.82,0,0,1-.54-1.34,2.06,2.06,0,0,1,.14-.73,1.81,1.81,0,0,1,.41-.62l5.68-5.5h-3.8a3.85,3.85,0,0,1-.91-.1,1.25,1.25,0,0,1-.73-.49,2.27,2.27,0,0,1-.28-1.31,2.25,2.25,0,0,1,.28-1.31,1.21,1.21,0,0,1,.73-.48,4.53,4.53,0,0,1,.91-.09h7.83a1.79,1.79,0,0,1,1.32.52,1.82,1.82,0,0,1,.53,1.33,2.14,2.14,0,0,1-.14.76,1.45,1.45,0,0,1-.39.59l-5.55,5.52h4.52a4.57,4.57,0,0,1,.93.1,1.11,1.11,0,0,1,.68.51,2.41,2.41,0,0,1,.27,1.32,2.39,2.39,0,0,1-.28,1.3,1,1,0,0,1-.7.47,5.25,5.25,0,0,1-.92.08Z"/><path class="cls-2" d="M184.72,34.07a6.2,6.2,0,0,1-2.33-.46,6.91,6.91,0,0,1-2.11-1.31,6.41,6.41,0,0,1-1.52-2,6.41,6.41,0,0,1,0-5.15,6.63,6.63,0,0,1,1.41-2.06,6.75,6.75,0,0,1,2.06-1.41,6,6,0,0,1,2.49-.52,6.33,6.33,0,0,1,3.26.87,6.48,6.48,0,0,1,2.34,2.34,6.71,6.71,0,0,1,.31,6,6.5,6.5,0,0,1-1.5,2A6.57,6.57,0,0,1,187,33.64,6.15,6.15,0,0,1,184.72,34.07Zm0-3.77a2.81,2.81,0,0,0,1.22-.3,2.67,2.67,0,0,0,1-.9,2.53,2.53,0,0,0,.43-1.52,2.74,2.74,0,0,0-.35-1.4,2.48,2.48,0,0,0-1-.94,2.83,2.83,0,0,0-1.41-.34,2.6,2.6,0,0,0-1.34.35,2.65,2.65,0,0,0-.95,1A2.7,2.7,0,0,0,182,27.6a2.61,2.61,0,0,0,.42,1.51,2.47,2.47,0,0,0,1,.9A3,3,0,0,0,184.68,30.3Z"/><path class="cls-2" d="M195.05,33.86a2.37,2.37,0,0,1-1.31-.27,1.07,1.07,0,0,1-.48-.7,4.47,4.47,0,0,1-.08-.91v-8.8a4.19,4.19,0,0,1,.09-.89,1,1,0,0,1,.49-.66,2.53,2.53,0,0,1,1.32-.25,2.51,2.51,0,0,1,1.18.21,1,1,0,0,1,.48.52,1.49,1.49,0,0,1,.12.56.78.78,0,0,0,0,.36l-.15.48a1.5,1.5,0,0,1,.38-.77,3.71,3.71,0,0,1,.85-.69,4.93,4.93,0,0,1,1.1-.49,4,4,0,0,1,1.17-.18,5,5,0,0,1,2.13.44A4.37,4.37,0,0,1,204,23.09,6,6,0,0,1,205,25a8.62,8.62,0,0,1,.33,2.44V32a4.63,4.63,0,0,1-.09.92,1,1,0,0,1-.47.68,3.62,3.62,0,0,1-2.67,0,1.1,1.1,0,0,1-.48-.7,4.53,4.53,0,0,1-.09-.91V27.46a2.74,2.74,0,0,0-.26-1.27,1.79,1.79,0,0,0-.75-.81,2.84,2.84,0,0,0-2.46,0,2,2,0,0,0-.81.81,2.57,2.57,0,0,0-.29,1.25V32a4.53,4.53,0,0,1-.09.91,1.06,1.06,0,0,1-.48.69A2.6,2.6,0,0,1,195.05,33.86Z"/><path class="cls-2" d="M208.53,21.59h2.75l3.45-.1a4.29,4.29,0,0,1,.9.09,1.08,1.08,0,0,1,.7.49,2.44,2.44,0,0,1,.28,1.32,2.25,2.25,0,0,1-.27,1.25,1.15,1.15,0,0,1-.69.52,3.8,3.8,0,0,1-.92.11l-3.27-.08-3,0a1.23,1.23,0,0,1-1-.46,2.52,2.52,0,0,1-.29-1.39,2.11,2.11,0,0,1,.35-1.33A1.26,1.26,0,0,1,208.53,21.59Zm5.64,12.3a7.92,7.92,0,0,1-2.2-.27,3.7,3.7,0,0,1-1.51-.85,3.6,3.6,0,0,1-.87-1.47,6.89,6.89,0,0,1-.29-2.11V19.06a4.22,4.22,0,0,1,.09-.92,1,1,0,0,1,.48-.66,2.32,2.32,0,0,1,1.3-.26,2.38,2.38,0,0,1,1.3.27,1.12,1.12,0,0,1,.49.71,4.63,4.63,0,0,1,.09.92V29a2.42,2.42,0,0,0,.07.66.79.79,0,0,0,.18.39.69.69,0,0,0,.35.18,2.79,2.79,0,0,0,.55.05,4.16,4.16,0,0,1,1,.1,1.06,1.06,0,0,1,.66.45,2.13,2.13,0,0,1,.24,1.17,2.36,2.36,0,0,1-.28,1.3,1,1,0,0,1-.71.48A5.45,5.45,0,0,1,214.17,33.89Z"/><path class="cls-2" d="M228.72,33.88a2.33,2.33,0,0,1-1.37-.33.92.92,0,0,1-.43-.8l.26-.42a3.07,3.07,0,0,1-.58.61,4.11,4.11,0,0,1-1.11.65,4.39,4.39,0,0,1-1.67.28,4.87,4.87,0,0,1-2.18-.5A5.74,5.74,0,0,1,219.8,32a7,7,0,0,1-1.27-2,6,6,0,0,1-.48-2.38,5.82,5.82,0,0,1,.48-2.33,6.9,6.9,0,0,1,1.29-2,6.42,6.42,0,0,1,1.84-1.36,4.9,4.9,0,0,1,2.17-.5,4.14,4.14,0,0,1,1.58.27,4.24,4.24,0,0,1,1.08.61,3,3,0,0,1,.67.68l-.23-.36a1.05,1.05,0,0,1,.44-.91,2.4,2.4,0,0,1,1.39-.31,2.24,2.24,0,0,1,1.29.28,1.14,1.14,0,0,1,.47.72,4.86,4.86,0,0,1,.09,1V32a4.7,4.7,0,0,1-.09.92,1.1,1.1,0,0,1-.47.72A2.52,2.52,0,0,1,228.72,33.88Zm-4.37-3.73a2.13,2.13,0,0,0,1.2-.34,2.48,2.48,0,0,0,.85-.91,2.52,2.52,0,0,0,.33-1.28,2.46,2.46,0,0,0-.33-1.28,2.32,2.32,0,0,0-.87-.89,2.36,2.36,0,0,0-1.23-.33,2.48,2.48,0,0,0-1.26.34,2.7,2.7,0,0,0-.9.91,2.6,2.6,0,0,0-.34,1.3,2.46,2.46,0,0,0,1.26,2.14A2.51,2.51,0,0,0,224.35,30.15Z"/><path class="cls-2" d="M237.9,33.91a16.54,16.54,0,0,1-1.83-.1,3.9,3.9,0,0,1-1.35-.4,2.67,2.67,0,0,1-.9-.84,4.19,4.19,0,0,1-.52-1.38,10,10,0,0,1-.17-2.06V17.58a4.57,4.57,0,0,1,.1-.93,1.21,1.21,0,0,1,.49-.7,2.41,2.41,0,0,1,1.32-.27,2.23,2.23,0,0,1,1.28.28,1.15,1.15,0,0,1,.49.7,3.82,3.82,0,0,1,.1.92V29a4.16,4.16,0,0,0,0,.66.8.8,0,0,0,.15.41.51.51,0,0,0,.31.2,1.94,1.94,0,0,0,.53.05,2.62,2.62,0,0,1,.61.08.89.89,0,0,1,.54.45,2.55,2.55,0,0,1,.22,1.25,2.79,2.79,0,0,1-.23,1.3.88.88,0,0,1-.53.47A2.74,2.74,0,0,1,237.9,33.91Z"/><path class="cls-3" d="M120.08,33.84a2.41,2.41,0,0,1-1.32-.27,1.06,1.06,0,0,1-.47-.7,4.59,4.59,0,0,1-.09-.93V17.54a3.84,3.84,0,0,1,.1-.93,1.16,1.16,0,0,1,.49-.69,2.48,2.48,0,0,1,1.31-.26,2.25,2.25,0,0,1,1.31.28,1.1,1.1,0,0,1,.48.7,4.42,4.42,0,0,1,.09.92v5.1a5.78,5.78,0,0,1,1.17-.9,3.22,3.22,0,0,1,1.68-.42,5,5,0,0,1,2.79.79,5.57,5.57,0,0,1,2,2.16,6.6,6.6,0,0,1,.74,3.15V32a4.4,4.4,0,0,1-.1.92,1.16,1.16,0,0,1-.48.69,3.43,3.43,0,0,1-2.62,0,1.08,1.08,0,0,1-.49-.7,4.69,4.69,0,0,1-.09-.94V27.41a2.73,2.73,0,0,0-.25-1.23,1.85,1.85,0,0,0-.73-.81,2.15,2.15,0,0,0-1.19-.31,2.48,2.48,0,0,0-1.61.56A2.07,2.07,0,0,0,122,27v5a4.49,4.49,0,0,1-.1.93,1.11,1.11,0,0,1-.49.68A2.39,2.39,0,0,1,120.08,33.84Z"/><path class="cls-3" d="M138.65,34.05a6.3,6.3,0,0,1-2.34-.47,6.84,6.84,0,0,1-2.11-1.31,6.38,6.38,0,0,1-1.51-2,6.47,6.47,0,0,1-.05-5.15A7,7,0,0,1,134.06,23a6.63,6.63,0,0,1,2.06-1.41,6.13,6.13,0,0,1,2.49-.51,6.33,6.33,0,0,1,3.26.86,6.72,6.72,0,0,1,2.34,2.34,6.71,6.71,0,0,1,.31,6,6.59,6.59,0,0,1-3.58,3.32A6.38,6.38,0,0,1,138.65,34.05Zm-.05-3.78a2.85,2.85,0,0,0,1.23-.3,2.81,2.81,0,0,0,1-.9,2.57,2.57,0,0,0,.42-1.52,2.77,2.77,0,0,0-.34-1.4,2.58,2.58,0,0,0-1-.94,2.91,2.91,0,0,0-1.41-.34,2.6,2.6,0,0,0-1.34.35,2.73,2.73,0,0,0-1,1,2.69,2.69,0,0,0-.36,1.39,2.66,2.66,0,0,0,.41,1.51,2.49,2.49,0,0,0,1,.9A2.76,2.76,0,0,0,138.6,30.27Z"/><path class="cls-3" d="M149,33.85a2.42,2.42,0,0,1-1.32-.26,1.06,1.06,0,0,1-.47-.71,4.73,4.73,0,0,1-.09-.93V23.23a4.52,4.52,0,0,1,.09-.93,1,1,0,0,1,.48-.68,2.47,2.47,0,0,1,1.33-.27,2.5,2.5,0,0,1,1.26.24,1.06,1.06,0,0,1,.49.55,2.08,2.08,0,0,1,.1.54l-.3.15a2,2,0,0,1,.26-.36,3.2,3.2,0,0,1,.59-.55,3.4,3.4,0,0,1,.91-.49,3.62,3.62,0,0,1,1.24-.2,4.55,4.55,0,0,1,.61,0,3,3,0,0,1,.7.15,2.47,2.47,0,0,1,.66.3,1.8,1.8,0,0,1,.49.46,1.24,1.24,0,0,1,.19.68,3.06,3.06,0,0,1-.48,1.74,1.42,1.42,0,0,1-1.2.71,1.73,1.73,0,0,1-.6-.07,1,1,0,0,1-.29-.15l-.26-.15a1.68,1.68,0,0,0-.55-.06,2.34,2.34,0,0,0-.71.1,2.17,2.17,0,0,0-.63.31,1.54,1.54,0,0,0-.45.53,1.49,1.49,0,0,0-.16.71V32a4.56,4.56,0,0,1-.09.92,1,1,0,0,1-.49.68A2.58,2.58,0,0,1,149,33.85Z"/><path class="cls-3" d="M160.18,19.56a2.53,2.53,0,0,1-1.35-.27,1.12,1.12,0,0,1-.48-.73,4.86,4.86,0,0,1-.09-.95,4.75,4.75,0,0,1,.09-1,1,1,0,0,1,.5-.7,3.54,3.54,0,0,1,2.69,0,1.14,1.14,0,0,1,.48.73,4.92,4.92,0,0,1,.09,1,4.73,4.73,0,0,1-.09.93,1.07,1.07,0,0,1-.49.71A2.59,2.59,0,0,1,160.18,19.56Zm0,14.3a2.59,2.59,0,0,1-1.33-.26,1,1,0,0,1-.47-.7,5.43,5.43,0,0,1-.08-.92V23.26a5.31,5.31,0,0,1,.08-.91,1.07,1.07,0,0,1,.49-.7,2.47,2.47,0,0,1,1.33-.27,2.42,2.42,0,0,1,1.29.28,1.14,1.14,0,0,1,.47.71,4.76,4.76,0,0,1,.09.94V32a4.46,4.46,0,0,1-.09.91,1,1,0,0,1-.47.69A2.52,2.52,0,0,1,160.18,33.86Z"/><path class="cls-3" d="M166.1,33.86a1.8,1.8,0,0,1-1.31-.53,1.82,1.82,0,0,1-.54-1.34,2.06,2.06,0,0,1,.14-.73,1.81,1.81,0,0,1,.41-.62l5.68-5.5h-3.8a3.85,3.85,0,0,1-.91-.1,1.25,1.25,0,0,1-.73-.49,2.27,2.27,0,0,1-.28-1.31,2.25,2.25,0,0,1,.28-1.31,1.21,1.21,0,0,1,.73-.48,4.53,4.53,0,0,1,.91-.09h7.83a1.79,1.79,0,0,1,1.32.52,1.82,1.82,0,0,1,.53,1.33,2.14,2.14,0,0,1-.14.76,1.45,1.45,0,0,1-.39.59l-5.55,5.52h4.52a4.57,4.57,0,0,1,.93.1,1.11,1.11,0,0,1,.68.51,2.41,2.41,0,0,1,.27,1.32,2.39,2.39,0,0,1-.28,1.3,1,1,0,0,1-.7.47,5.25,5.25,0,0,1-.92.08Z"/><path class="cls-3" d="M184.72,34.07a6.2,6.2,0,0,1-2.33-.46,6.91,6.91,0,0,1-2.11-1.31,6.41,6.41,0,0,1-1.52-2,6.41,6.41,0,0,1,0-5.15,6.63,6.63,0,0,1,1.41-2.06,6.75,6.75,0,0,1,2.06-1.41,6,6,0,0,1,2.49-.52,6.33,6.33,0,0,1,3.26.87,6.48,6.48,0,0,1,2.34,2.34,6.71,6.71,0,0,1,.31,6,6.5,6.5,0,0,1-1.5,2A6.57,6.57,0,0,1,187,33.64,6.15,6.15,0,0,1,184.72,34.07Zm0-3.77a2.81,2.81,0,0,0,1.22-.3,2.67,2.67,0,0,0,1-.9,2.53,2.53,0,0,0,.43-1.52,2.74,2.74,0,0,0-.35-1.4,2.48,2.48,0,0,0-1-.94,2.83,2.83,0,0,0-1.41-.34,2.6,2.6,0,0,0-1.34.35,2.65,2.65,0,0,0-.95,1A2.7,2.7,0,0,0,182,27.6a2.61,2.61,0,0,0,.42,1.51,2.47,2.47,0,0,0,1,.9A3,3,0,0,0,184.68,30.3Z"/><path class="cls-3" d="M195.05,33.86a2.37,2.37,0,0,1-1.31-.27,1.07,1.07,0,0,1-.48-.7,4.47,4.47,0,0,1-.08-.91v-8.8a4.19,4.19,0,0,1,.09-.89,1,1,0,0,1,.49-.66,2.53,2.53,0,0,1,1.32-.25,2.51,2.51,0,0,1,1.18.21,1,1,0,0,1,.48.52,1.49,1.49,0,0,1,.12.56.78.78,0,0,0,0,.36l-.15.48a1.5,1.5,0,0,1,.38-.77,3.71,3.71,0,0,1,.85-.69,4.93,4.93,0,0,1,1.1-.49,4,4,0,0,1,1.17-.18,5,5,0,0,1,2.13.44A4.37,4.37,0,0,1,204,23.09,6,6,0,0,1,205,25a8.62,8.62,0,0,1,.33,2.44V32a4.63,4.63,0,0,1-.09.92,1,1,0,0,1-.47.68,3.62,3.62,0,0,1-2.67,0,1.1,1.1,0,0,1-.48-.7,4.53,4.53,0,0,1-.09-.91V27.46a2.74,2.74,0,0,0-.26-1.27,1.79,1.79,0,0,0-.75-.81,2.84,2.84,0,0,0-2.46,0,2,2,0,0,0-.81.81,2.57,2.57,0,0,0-.29,1.25V32a4.53,4.53,0,0,1-.09.91,1.06,1.06,0,0,1-.48.69A2.6,2.6,0,0,1,195.05,33.86Z"/><path class="cls-3" d="M208.53,21.59h2.75l3.45-.1a4.29,4.29,0,0,1,.9.09,1.08,1.08,0,0,1,.7.49,2.44,2.44,0,0,1,.28,1.32,2.25,2.25,0,0,1-.27,1.25,1.15,1.15,0,0,1-.69.52,3.8,3.8,0,0,1-.92.11l-3.27-.08-3,0a1.23,1.23,0,0,1-1-.46,2.52,2.52,0,0,1-.29-1.39,2.11,2.11,0,0,1,.35-1.33A1.26,1.26,0,0,1,208.53,21.59Zm5.64,12.3a7.92,7.92,0,0,1-2.2-.27,3.7,3.7,0,0,1-1.51-.85,3.6,3.6,0,0,1-.87-1.47,6.89,6.89,0,0,1-.29-2.11V19.06a4.22,4.22,0,0,1,.09-.92,1,1,0,0,1,.48-.66,2.32,2.32,0,0,1,1.3-.26,2.38,2.38,0,0,1,1.3.27,1.12,1.12,0,0,1,.49.71,4.63,4.63,0,0,1,.09.92V29a2.42,2.42,0,0,0,.07.66.79.79,0,0,0,.18.39.69.69,0,0,0,.35.18,2.79,2.79,0,0,0,.55.05,4.16,4.16,0,0,1,1,.1,1.06,1.06,0,0,1,.66.45,2.13,2.13,0,0,1,.24,1.17,2.36,2.36,0,0,1-.28,1.3,1,1,0,0,1-.71.48A5.45,5.45,0,0,1,214.17,33.89Z"/><path class="cls-3" d="M228.72,33.88a2.33,2.33,0,0,1-1.37-.33.92.92,0,0,1-.43-.8l.26-.42a3.07,3.07,0,0,1-.58.61,4.11,4.11,0,0,1-1.11.65,4.39,4.39,0,0,1-1.67.28,4.87,4.87,0,0,1-2.18-.5A5.74,5.74,0,0,1,219.8,32a7,7,0,0,1-1.27-2,6,6,0,0,1-.48-2.38,5.82,5.82,0,0,1,.48-2.33,6.9,6.9,0,0,1,1.29-2,6.42,6.42,0,0,1,1.84-1.36,4.9,4.9,0,0,1,2.17-.5,4.14,4.14,0,0,1,1.58.27,4.24,4.24,0,0,1,1.08.61,3,3,0,0,1,.67.68l-.23-.36a1.05,1.05,0,0,1,.44-.91,2.4,2.4,0,0,1,1.39-.31,2.24,2.24,0,0,1,1.29.28,1.14,1.14,0,0,1,.47.72,4.86,4.86,0,0,1,.09,1V32a4.7,4.7,0,0,1-.09.92,1.1,1.1,0,0,1-.47.72A2.52,2.52,0,0,1,228.72,33.88Zm-4.37-3.73a2.13,2.13,0,0,0,1.2-.34,2.48,2.48,0,0,0,.85-.91,2.52,2.52,0,0,0,.33-1.28,2.46,2.46,0,0,0-.33-1.28,2.32,2.32,0,0,0-.87-.89,2.36,2.36,0,0,0-1.23-.33,2.48,2.48,0,0,0-1.26.34,2.7,2.7,0,0,0-.9.91,2.6,2.6,0,0,0-.34,1.3,2.46,2.46,0,0,0,1.26,2.14A2.51,2.51,0,0,0,224.35,30.15Z"/><path class="cls-3" d="M237.9,33.91a16.54,16.54,0,0,1-1.83-.1,3.9,3.9,0,0,1-1.35-.4,2.67,2.67,0,0,1-.9-.84,4.19,4.19,0,0,1-.52-1.38,10,10,0,0,1-.17-2.06V17.58a4.57,4.57,0,0,1,.1-.93,1.21,1.21,0,0,1,.49-.7,2.41,2.41,0,0,1,1.32-.27,2.23,2.23,0,0,1,1.28.28,1.15,1.15,0,0,1,.49.7,3.82,3.82,0,0,1,.1.92V29a4.16,4.16,0,0,0,0,.66.8.8,0,0,0,.15.41.51.51,0,0,0,.31.2,1.94,1.94,0,0,0,.53.05,2.62,2.62,0,0,1,.61.08.89.89,0,0,1,.54.45,2.55,2.55,0,0,1,.22,1.25,2.79,2.79,0,0,1-.23,1.3.88.88,0,0,1-.53.47A2.74,2.74,0,0,1,237.9,33.91Z"/><path class="cls-2" d="M120.08,33.84a2.41,2.41,0,0,1-1.32-.27,1.06,1.06,0,0,1-.47-.7,4.59,4.59,0,0,1-.09-.93V17.54a3.84,3.84,0,0,1,.1-.93,1.16,1.16,0,0,1,.49-.69,2.48,2.48,0,0,1,1.31-.26,2.25,2.25,0,0,1,1.31.28,1.1,1.1,0,0,1,.48.7,4.42,4.42,0,0,1,.09.92v5.1a5.78,5.78,0,0,1,1.17-.9,3.22,3.22,0,0,1,1.68-.42,5,5,0,0,1,2.79.79,5.57,5.57,0,0,1,2,2.16,6.6,6.6,0,0,1,.74,3.15V32a4.4,4.4,0,0,1-.1.92,1.16,1.16,0,0,1-.48.69,3.43,3.43,0,0,1-2.62,0,1.08,1.08,0,0,1-.49-.7,4.69,4.69,0,0,1-.09-.94V27.41a2.73,2.73,0,0,0-.25-1.23,1.85,1.85,0,0,0-.73-.81,2.15,2.15,0,0,0-1.19-.31,2.48,2.48,0,0,0-1.61.56A2.07,2.07,0,0,0,122,27v5a4.49,4.49,0,0,1-.1.93,1.11,1.11,0,0,1-.49.68A2.39,2.39,0,0,1,120.08,33.84Z"/><path class="cls-2" d="M138.65,34.05a6.3,6.3,0,0,1-2.34-.47,6.84,6.84,0,0,1-2.11-1.31,6.38,6.38,0,0,1-1.51-2,6.47,6.47,0,0,1-.05-5.15A7,7,0,0,1,134.06,23a6.63,6.63,0,0,1,2.06-1.41,6.13,6.13,0,0,1,2.49-.51,6.33,6.33,0,0,1,3.26.86,6.72,6.72,0,0,1,2.34,2.34,6.71,6.71,0,0,1,.31,6,6.59,6.59,0,0,1-3.58,3.32A6.38,6.38,0,0,1,138.65,34.05Zm-.05-3.78a2.85,2.85,0,0,0,1.23-.3,2.81,2.81,0,0,0,1-.9,2.57,2.57,0,0,0,.42-1.52,2.77,2.77,0,0,0-.34-1.4,2.58,2.58,0,0,0-1-.94,2.91,2.91,0,0,0-1.41-.34,2.6,2.6,0,0,0-1.34.35,2.73,2.73,0,0,0-1,1,2.69,2.69,0,0,0-.36,1.39,2.66,2.66,0,0,0,.41,1.51,2.49,2.49,0,0,0,1,.9A2.76,2.76,0,0,0,138.6,30.27Z"/><path class="cls-2" d="M149,33.85a2.42,2.42,0,0,1-1.32-.26,1.06,1.06,0,0,1-.47-.71,4.73,4.73,0,0,1-.09-.93V23.23a4.52,4.52,0,0,1,.09-.93,1,1,0,0,1,.48-.68,2.47,2.47,0,0,1,1.33-.27,2.5,2.5,0,0,1,1.26.24,1.06,1.06,0,0,1,.49.55,2.08,2.08,0,0,1,.1.54l-.3.15a2,2,0,0,1,.26-.36,3.2,3.2,0,0,1,.59-.55,3.4,3.4,0,0,1,.91-.49,3.62,3.62,0,0,1,1.24-.2,4.55,4.55,0,0,1,.61,0,3,3,0,0,1,.7.15,2.47,2.47,0,0,1,.66.3,1.8,1.8,0,0,1,.49.46,1.24,1.24,0,0,1,.19.68,3.06,3.06,0,0,1-.48,1.74,1.42,1.42,0,0,1-1.2.71,1.73,1.73,0,0,1-.6-.07,1,1,0,0,1-.29-.15l-.26-.15a1.68,1.68,0,0,0-.55-.06,2.34,2.34,0,0,0-.71.1,2.17,2.17,0,0,0-.63.31,1.54,1.54,0,0,0-.45.53,1.49,1.49,0,0,0-.16.71V32a4.56,4.56,0,0,1-.09.92,1,1,0,0,1-.49.68A2.58,2.58,0,0,1,149,33.85Z"/><path class="cls-2" d="M160.18,19.56a2.53,2.53,0,0,1-1.35-.27,1.12,1.12,0,0,1-.48-.73,4.86,4.86,0,0,1-.09-.95,4.75,4.75,0,0,1,.09-1,1,1,0,0,1,.5-.7,3.54,3.54,0,0,1,2.69,0,1.14,1.14,0,0,1,.48.73,4.92,4.92,0,0,1,.09,1,4.73,4.73,0,0,1-.09.93,1.07,1.07,0,0,1-.49.71A2.59,2.59,0,0,1,160.18,19.56Zm0,14.3a2.59,2.59,0,0,1-1.33-.26,1,1,0,0,1-.47-.7,5.43,5.43,0,0,1-.08-.92V23.26a5.31,5.31,0,0,1,.08-.91,1.07,1.07,0,0,1,.49-.7,2.47,2.47,0,0,1,1.33-.27,2.42,2.42,0,0,1,1.29.28,1.14,1.14,0,0,1,.47.71,4.76,4.76,0,0,1,.09.94V32a4.46,4.46,0,0,1-.09.91,1,1,0,0,1-.47.69A2.52,2.52,0,0,1,160.18,33.86Z"/><path class="cls-2" d="M166.1,33.86a1.8,1.8,0,0,1-1.31-.53,1.82,1.82,0,0,1-.54-1.34,2.06,2.06,0,0,1,.14-.73,1.81,1.81,0,0,1,.41-.62l5.68-5.5h-3.8a3.85,3.85,0,0,1-.91-.1,1.25,1.25,0,0,1-.73-.49,2.27,2.27,0,0,1-.28-1.31,2.25,2.25,0,0,1,.28-1.31,1.21,1.21,0,0,1,.73-.48,4.53,4.53,0,0,1,.91-.09h7.83a1.79,1.79,0,0,1,1.32.52,1.82,1.82,0,0,1,.53,1.33,2.14,2.14,0,0,1-.14.76,1.45,1.45,0,0,1-.39.59l-5.55,5.52h4.52a4.57,4.57,0,0,1,.93.1,1.11,1.11,0,0,1,.68.51,2.41,2.41,0,0,1,.27,1.32,2.39,2.39,0,0,1-.28,1.3,1,1,0,0,1-.7.47,5.25,5.25,0,0,1-.92.08Z"/><path class="cls-2" d="M184.72,34.07a6.2,6.2,0,0,1-2.33-.46,6.91,6.91,0,0,1-2.11-1.31,6.41,6.41,0,0,1-1.52-2,6.41,6.41,0,0,1,0-5.15,6.63,6.63,0,0,1,1.41-2.06,6.75,6.75,0,0,1,2.06-1.41,6,6,0,0,1,2.49-.52,6.33,6.33,0,0,1,3.26.87,6.48,6.48,0,0,1,2.34,2.34,6.71,6.71,0,0,1,.31,6,6.5,6.5,0,0,1-1.5,2A6.57,6.57,0,0,1,187,33.64,6.15,6.15,0,0,1,184.72,34.07Zm0-3.77a2.81,2.81,0,0,0,1.22-.3,2.67,2.67,0,0,0,1-.9,2.53,2.53,0,0,0,.43-1.52,2.74,2.74,0,0,0-.35-1.4,2.48,2.48,0,0,0-1-.94,2.83,2.83,0,0,0-1.41-.34,2.6,2.6,0,0,0-1.34.35,2.65,2.65,0,0,0-.95,1A2.7,2.7,0,0,0,182,27.6a2.61,2.61,0,0,0,.42,1.51,2.47,2.47,0,0,0,1,.9A3,3,0,0,0,184.68,30.3Z"/><path class="cls-2" d="M195.05,33.86a2.37,2.37,0,0,1-1.31-.27,1.07,1.07,0,0,1-.48-.7,4.47,4.47,0,0,1-.08-.91v-8.8a4.19,4.19,0,0,1,.09-.89,1,1,0,0,1,.49-.66,2.53,2.53,0,0,1,1.32-.25,2.51,2.51,0,0,1,1.18.21,1,1,0,0,1,.48.52,1.49,1.49,0,0,1,.12.56.78.78,0,0,0,0,.36l-.15.48a1.5,1.5,0,0,1,.38-.77,3.71,3.71,0,0,1,.85-.69,4.93,4.93,0,0,1,1.1-.49,4,4,0,0,1,1.17-.18,5,5,0,0,1,2.13.44A4.37,4.37,0,0,1,204,23.09,6,6,0,0,1,205,25a8.62,8.62,0,0,1,.33,2.44V32a4.63,4.63,0,0,1-.09.92,1,1,0,0,1-.47.68,3.62,3.62,0,0,1-2.67,0,1.1,1.1,0,0,1-.48-.7,4.53,4.53,0,0,1-.09-.91V27.46a2.74,2.74,0,0,0-.26-1.27,1.79,1.79,0,0,0-.75-.81,2.84,2.84,0,0,0-2.46,0,2,2,0,0,0-.81.81,2.57,2.57,0,0,0-.29,1.25V32a4.53,4.53,0,0,1-.09.91,1.06,1.06,0,0,1-.48.69A2.6,2.6,0,0,1,195.05,33.86Z"/><path class="cls-2" d="M208.53,21.59h2.75l3.45-.1a4.29,4.29,0,0,1,.9.09,1.08,1.08,0,0,1,.7.49,2.44,2.44,0,0,1,.28,1.32,2.25,2.25,0,0,1-.27,1.25,1.15,1.15,0,0,1-.69.52,3.8,3.8,0,0,1-.92.11l-3.27-.08-3,0a1.23,1.23,0,0,1-1-.46,2.52,2.52,0,0,1-.29-1.39,2.11,2.11,0,0,1,.35-1.33A1.26,1.26,0,0,1,208.53,21.59Zm5.64,12.3a7.92,7.92,0,0,1-2.2-.27,3.7,3.7,0,0,1-1.51-.85,3.6,3.6,0,0,1-.87-1.47,6.89,6.89,0,0,1-.29-2.11V19.06a4.22,4.22,0,0,1,.09-.92,1,1,0,0,1,.48-.66,2.32,2.32,0,0,1,1.3-.26,2.38,2.38,0,0,1,1.3.27,1.12,1.12,0,0,1,.49.71,4.63,4.63,0,0,1,.09.92V29a2.42,2.42,0,0,0,.07.66.79.79,0,0,0,.18.39.69.69,0,0,0,.35.18,2.79,2.79,0,0,0,.55.05,4.16,4.16,0,0,1,1,.1,1.06,1.06,0,0,1,.66.45,2.13,2.13,0,0,1,.24,1.17,2.36,2.36,0,0,1-.28,1.3,1,1,0,0,1-.71.48A5.45,5.45,0,0,1,214.17,33.89Z"/><path class="cls-2" d="M228.72,33.88a2.33,2.33,0,0,1-1.37-.33.92.92,0,0,1-.43-.8l.26-.42a3.07,3.07,0,0,1-.58.61,4.11,4.11,0,0,1-1.11.65,4.39,4.39,0,0,1-1.67.28,4.87,4.87,0,0,1-2.18-.5A5.74,5.74,0,0,1,219.8,32a7,7,0,0,1-1.27-2,6,6,0,0,1-.48-2.38,5.82,5.82,0,0,1,.48-2.33,6.9,6.9,0,0,1,1.29-2,6.42,6.42,0,0,1,1.84-1.36,4.9,4.9,0,0,1,2.17-.5,4.14,4.14,0,0,1,1.58.27,4.24,4.24,0,0,1,1.08.61,3,3,0,0,1,.67.68l-.23-.36a1.05,1.05,0,0,1,.44-.91,2.4,2.4,0,0,1,1.39-.31,2.24,2.24,0,0,1,1.29.28,1.14,1.14,0,0,1,.47.72,4.86,4.86,0,0,1,.09,1V32a4.7,4.7,0,0,1-.09.92,1.1,1.1,0,0,1-.47.72A2.52,2.52,0,0,1,228.72,33.88Zm-4.37-3.73a2.13,2.13,0,0,0,1.2-.34,2.48,2.48,0,0,0,.85-.91,2.52,2.52,0,0,0,.33-1.28,2.46,2.46,0,0,0-.33-1.28,2.32,2.32,0,0,0-.87-.89,2.36,2.36,0,0,0-1.23-.33,2.48,2.48,0,0,0-1.26.34,2.7,2.7,0,0,0-.9.91,2.6,2.6,0,0,0-.34,1.3,2.46,2.46,0,0,0,1.26,2.14A2.51,2.51,0,0,0,224.35,30.15Z"/><path class="cls-2" d="M237.9,33.91a16.54,16.54,0,0,1-1.83-.1,3.9,3.9,0,0,1-1.35-.4,2.67,2.67,0,0,1-.9-.84,4.19,4.19,0,0,1-.52-1.38,10,10,0,0,1-.17-2.06V17.58a4.57,4.57,0,0,1,.1-.93,1.21,1.21,0,0,1,.49-.7,2.41,2.41,0,0,1,1.32-.27,2.23,2.23,0,0,1,1.28.28,1.15,1.15,0,0,1,.49.7,3.82,3.82,0,0,1,.1.92V29a4.16,4.16,0,0,0,0,.66.8.8,0,0,0,.15.41.51.51,0,0,0,.31.2,1.94,1.94,0,0,0,.53.05,2.62,2.62,0,0,1,.61.08.89.89,0,0,1,.54.45,2.55,2.55,0,0,1,.22,1.25,2.79,2.79,0,0,1-.23,1.3.88.88,0,0,1-.53.47A2.74,2.74,0,0,1,237.9,33.91Z"/><text class="cls-4" transform="matrix(0.97, 0, 0, 1, 35.48, 38.89)">2.2</text><text class="cls-5" transform="matrix(0.97, 0, 0, 1, 35.48, 38.89)">2.2</text></g></g></svg>