<svg xmlns="http://www.w3.org/2000/svg" viewBox="0 0 399.98 107.77"><defs><style>.cls-1{fill:#a41010;}.cls-2{fill:#fff;}.cls-3,.cls-4{fill:none;stroke-width:5px;}.cls-3{stroke:#c8a927;stroke-linejoin:round;}.cls-4,.cls-5{font-size:42px;font-family:Coiny-Regular, Coiny;}.cls-4{stroke:#fff;}.cls-5{fill:#c8a927;}</style></defs><title>23tv</title><g id="Layer_2" data-name="Layer 2"><g id="pestaña_identificativa" data-name="pestaña identificativa"><rect class="cls-1" width="399.98" height="107.77" rx="32.4"/><path class="cls-2" d="M136,17.34a3.84,3.84,0,0,1,.79.08.92.92,0,0,1,.59.42,2.24,2.24,0,0,1,.22,1.15,2.16,2.16,0,0,1-.22,1.13.91.91,0,0,1-.6.42,4.09,4.09,0,0,1-.8.08h-4V33a5.11,5.11,0,0,1-.08.9,1.1,1.1,0,0,1-.48.69,2.55,2.55,0,0,1-1.34.26,2.41,2.41,0,0,1-1.27-.26,1.08,1.08,0,0,1-.49-.7,4.63,4.63,0,0,1-.09-.92V20.61h-4a3.31,3.31,0,0,1-.77-.09,1,1,0,0,1-.61-.42,2.06,2.06,0,0,1-.24-1.14,2.06,2.06,0,0,1,.24-1.13.93.93,0,0,1,.61-.42,3.94,3.94,0,0,1,.77-.07Z"/><path class="cls-2" d="M141.56,34.85a2.35,2.35,0,0,1-1.31-.27,1.07,1.07,0,0,1-.48-.71,4.7,4.7,0,0,1-.09-.92V24.22a4.59,4.59,0,0,1,.09-.93,1,1,0,0,1,.49-.68,2.42,2.42,0,0,1,1.32-.26,2.63,2.63,0,0,1,1.26.23,1.07,1.07,0,0,1,.49.56,1.63,1.63,0,0,1,.1.53l-.3.15a3.22,3.22,0,0,1,.26-.36,3.58,3.58,0,0,1,.59-.55,3.71,3.71,0,0,1,.91-.49,3.62,3.62,0,0,1,1.24-.2c.18,0,.39,0,.61,0a4.62,4.62,0,0,1,.7.15,3.41,3.41,0,0,1,.67.3,1.54,1.54,0,0,1,.48.47,1.11,1.11,0,0,1,.19.67,3.06,3.06,0,0,1-.48,1.74,1.4,1.4,0,0,1-1.2.71,2.11,2.11,0,0,1-.6-.06,1.21,1.21,0,0,1-.28-.15,1.17,1.17,0,0,0-.27-.15,1.39,1.39,0,0,0-.55-.07,2.77,2.77,0,0,0-.71.1,1.93,1.93,0,0,0-.62.32,1.32,1.32,0,0,0-.45.52,1.52,1.52,0,0,0-.17.71V33a4.53,4.53,0,0,1-.09.91,1,1,0,0,1-.49.69A2.64,2.64,0,0,1,141.56,34.85Z"/><path class="cls-2" d="M161,34.83a2.42,2.42,0,0,1-1.38-.32.9.9,0,0,1-.42-.8l.25-.43a2.59,2.59,0,0,1-.58.61,3.87,3.87,0,0,1-1.11.65,4.33,4.33,0,0,1-1.66.29,5,5,0,0,1-2.19-.5A6,6,0,0,1,152,32.94a7.21,7.21,0,0,1-1.27-2,6.16,6.16,0,0,1,0-4.72,6.72,6.72,0,0,1,1.29-2,6.37,6.37,0,0,1,1.84-1.36,4.94,4.94,0,0,1,2.18-.5,4.05,4.05,0,0,1,2.66.88,3.43,3.43,0,0,1,.66.67l-.23-.35a1.05,1.05,0,0,1,.44-.91,2.42,2.42,0,0,1,1.39-.31,2.34,2.34,0,0,1,1.29.27,1.15,1.15,0,0,1,.47.73,4.86,4.86,0,0,1,.09.95v8.62a5.64,5.64,0,0,1-.08.93,1.07,1.07,0,0,1-.48.71A2.41,2.41,0,0,1,161,34.83Zm-4.37-3.72a2.24,2.24,0,0,0,1.2-.34,2.75,2.75,0,0,0,.85-.91,2.74,2.74,0,0,0,0-2.57,2.4,2.4,0,0,0-.88-.88,2.3,2.3,0,0,0-1.22-.33,2.33,2.33,0,0,0-1.26.34A2.53,2.53,0,0,0,154,28.63a2.42,2.42,0,0,0,.33,1.24,2.6,2.6,0,0,0,2.22,1.24Z"/><path class="cls-2" d="M166.71,34.86a1.8,1.8,0,0,1-1.32-.54,1.95,1.95,0,0,1-.39-2.06,1.81,1.81,0,0,1,.41-.62l5.68-5.5h-3.8a4.45,4.45,0,0,1-.91-.1,1.22,1.22,0,0,1-.73-.49,2.28,2.28,0,0,1-.29-1.31,2.3,2.3,0,0,1,.29-1.32,1.17,1.17,0,0,1,.73-.47,4.46,4.46,0,0,1,.91-.09h7.82A1.78,1.78,0,0,1,177,24.22a2.17,2.17,0,0,1-.13.76,1.69,1.69,0,0,1-.39.59l-5.56,5.52h4.53a4.4,4.4,0,0,1,.92.1,1.12,1.12,0,0,1,.69.5,2.49,2.49,0,0,1,.26,1.33,2.4,2.4,0,0,1-.27,1.3,1.1,1.1,0,0,1-.7.47,5.37,5.37,0,0,1-.93.08Z"/><path class="cls-2" d="M189.53,34.85a2.33,2.33,0,0,1-1.37-.33.91.91,0,0,1-.43-.8l.25-.42a2.72,2.72,0,0,1-.57.61,4.45,4.45,0,0,1-1.11.65,4.38,4.38,0,0,1-1.67.29,5,5,0,0,1-2.18-.5A5.93,5.93,0,0,1,180.61,33a7,7,0,0,1-1.27-2,6,6,0,0,1-.48-2.37,5.83,5.83,0,0,1,.48-2.34,6.34,6.34,0,0,1,1.29-2,6.07,6.07,0,0,1,1.84-1.36,4.77,4.77,0,0,1,2.17-.5,4.35,4.35,0,0,1,1.58.26,4.57,4.57,0,0,1,1.08.61A3.45,3.45,0,0,1,188,24l-.22-.35a1,1,0,0,1,.44-.91,3.22,3.22,0,0,1,2.67,0,1.14,1.14,0,0,1,.48.73,5.7,5.7,0,0,1,.08.95V33a4.73,4.73,0,0,1-.09.93,1.09,1.09,0,0,1-.48.71A2.45,2.45,0,0,1,189.53,34.85Zm-4.37-3.73a2.21,2.21,0,0,0,1.2-.33,2.6,2.6,0,0,0,.85-.92,2.48,2.48,0,0,0,.33-1.27,2.53,2.53,0,0,0-.33-1.29,2.35,2.35,0,0,0-2.1-1.21,2.44,2.44,0,0,0-1.26.33,2.56,2.56,0,0,0-.9.92,2.45,2.45,0,0,0-.34,1.3,2.28,2.28,0,0,0,.34,1.23,2.41,2.41,0,0,0,.92.9A2.49,2.49,0,0,0,185.16,31.12Z"/><path class="cls-2" d="M205.23,34.88a14.14,14.14,0,0,1-1.82-.1,3.58,3.58,0,0,1-1.35-.4,2.42,2.42,0,0,1-.9-.84,4,4,0,0,1-.53-1.37,10.88,10.88,0,0,1-.17-2.06V18.56a3.9,3.9,0,0,1,.1-.93,1.17,1.17,0,0,1,.49-.7,3.26,3.26,0,0,1,2.6,0,1.19,1.19,0,0,1,.48.7,4,4,0,0,1,.1.93V29.93a6.19,6.19,0,0,0,0,.67,1,1,0,0,0,.15.41.54.54,0,0,0,.31.2,2.5,2.5,0,0,0,.53.05,2.6,2.6,0,0,1,.61.07.94.94,0,0,1,.54.46,2.55,2.55,0,0,1,.22,1.25,2.74,2.74,0,0,1-.22,1.29.88.88,0,0,1-.54.48A2.73,2.73,0,0,1,205.23,34.88Z"/><path class="cls-2" d="M218.66,34.87a2.34,2.34,0,0,1-1.38-.33.88.88,0,0,1-.42-.8l.25-.42a2.8,2.8,0,0,1-.58.61,4.12,4.12,0,0,1-2.77.93,4.88,4.88,0,0,1-2.19-.5A5.85,5.85,0,0,1,209.73,33a7.21,7.21,0,0,1-1.27-2,6,6,0,0,1-.47-2.37,5.82,5.82,0,0,1,.47-2.34,6.9,6.9,0,0,1,1.29-2,6.56,6.56,0,0,1,1.84-1.36,4.93,4.93,0,0,1,2.17-.5,4.11,4.11,0,0,1,1.58.27,4.5,4.5,0,0,1,1.09.61,3.2,3.2,0,0,1,.66.68l-.23-.35a1.07,1.07,0,0,1,.44-.92,2.51,2.51,0,0,1,1.39-.31,2.33,2.33,0,0,1,1.29.28,1.1,1.1,0,0,1,.47.72,4.86,4.86,0,0,1,.09.95V33a5.52,5.52,0,0,1-.08.92,1.11,1.11,0,0,1-.48.72A2.5,2.5,0,0,1,218.66,34.87Zm-4.38-3.73a2.13,2.13,0,0,0,1.2-.34,2.65,2.65,0,0,0,.86-3.47,2.42,2.42,0,0,0-.88-.89,2.32,2.32,0,0,0-1.22-.32,2.39,2.39,0,0,0-1.27.33,2.7,2.7,0,0,0-.9.91,2.59,2.59,0,0,0-.33,1.3,2.4,2.4,0,0,0,.33,1.24,2.51,2.51,0,0,0,.93.9A2.48,2.48,0,0,0,214.28,31.14Z"/><path class="cls-2" d="M235.56,35a2.25,2.25,0,0,1-1-.22,1.5,1.5,0,0,1-.66-.7l-4.5-9a2.05,2.05,0,0,1-.26-1.49,2.09,2.09,0,0,1,1.14-1.06,2.4,2.4,0,0,1,1.51-.31c.38.09.71.49,1,1.19l2.8,6.5,2.8-6.43c.3-.71.64-1.13,1-1.24a2.22,2.22,0,0,1,1.56.32q1,.48,1.14,1.11a2.35,2.35,0,0,1-.32,1.47l-4.48,8.92a1.43,1.43,0,0,1-.65.7A2.26,2.26,0,0,1,235.56,35Z"/><path class="cls-2" d="M250.16,35.11a6.21,6.21,0,0,1-2.34-.46,7.06,7.06,0,0,1-2.11-1.32,6.09,6.09,0,0,1-1.51-2,5.93,5.93,0,0,1-.56-2.64,6.16,6.16,0,0,1,.51-2.51,6.72,6.72,0,0,1,3.48-3.48,6.08,6.08,0,0,1,2.48-.51,6.3,6.3,0,0,1,3.27.87,6.5,6.5,0,0,1,2.33,2.33,6.27,6.27,0,0,1,.88,3.28,6.17,6.17,0,0,1-.57,2.71,6.35,6.35,0,0,1-1.5,2,6.76,6.76,0,0,1-2.08,1.29A6.31,6.31,0,0,1,250.16,35.11Zm0-3.77a2.78,2.78,0,0,0,1.22-.3,2.67,2.67,0,0,0,1-.9,2.54,2.54,0,0,0,.43-1.53,2.77,2.77,0,0,0-.35-1.4,2.48,2.48,0,0,0-1-.94,2.94,2.94,0,0,0-1.41-.33,2.51,2.51,0,0,0-1.34.35,2.65,2.65,0,0,0-.95,1,2.69,2.69,0,0,0-.36,1.39,2.55,2.55,0,0,0,.41,1.51,2.47,2.47,0,0,0,1,.9A3,3,0,0,0,250.11,31.34Z"/><path class="cls-2" d="M264.78,35a6.69,6.69,0,0,1-2.24-.41,7.2,7.2,0,0,1-2.1-1.22,5.77,5.77,0,0,1-1.53-2,6.85,6.85,0,0,1,0-5.47,6,6,0,0,1,1.53-2,7,7,0,0,1,2.09-1.21,6.52,6.52,0,0,1,2.21-.41,6,6,0,0,1,1.66.21,5.88,5.88,0,0,1,1.25.52,3.91,3.91,0,0,1,.74.52c.28.22.53.44.75.65a1.13,1.13,0,0,1,.3.85,1.64,1.64,0,0,1-.18.57,4.29,4.29,0,0,1-.37.58c-.52.7-1,1-1.5,1a2.27,2.27,0,0,1-.69-.25l-.6-.35a4.37,4.37,0,0,0-.61-.31,2,2,0,0,0-.75-.14,2.45,2.45,0,0,0-1.3.34,2.48,2.48,0,0,0-.92.9,2.52,2.52,0,0,0-.33,1.31,2.47,2.47,0,0,0,.33,1.3,2.61,2.61,0,0,0,.9.91,2.58,2.58,0,0,0,2,.24,2.16,2.16,0,0,0,.55-.24l.35-.21.57-.36a1.08,1.08,0,0,1,.55-.16,1.21,1.21,0,0,1,.74.26,4.1,4.1,0,0,1,.81.84,2,2,0,0,1,.49,1,1.26,1.26,0,0,1-.21.87,2.92,2.92,0,0,1-.85.76,5.33,5.33,0,0,1-.72.45,6.9,6.9,0,0,1-1.25.5A5.66,5.66,0,0,1,264.78,35Z"/><path class="cls-2" d="M281.93,34.91a2.3,2.3,0,0,1-1.37-.33.92.92,0,0,1-.43-.8l.25-.43a2.73,2.73,0,0,1-.57.62,4.35,4.35,0,0,1-1.12.65,4.3,4.3,0,0,1-1.66.28,5,5,0,0,1-2.19-.5A5.85,5.85,0,0,1,273,33a7,7,0,0,1-1.28-2,6.16,6.16,0,0,1-.47-2.38,5.82,5.82,0,0,1,.48-2.33,6.51,6.51,0,0,1,1.29-2A6.33,6.33,0,0,1,274.86,23a5,5,0,0,1,2.18-.5,4.05,4.05,0,0,1,1.57.27,4.15,4.15,0,0,1,1.09.61,3.43,3.43,0,0,1,.66.67l-.22-.35a1,1,0,0,1,.44-.91,2.39,2.39,0,0,1,1.38-.31,2.24,2.24,0,0,1,1.29.28,1.11,1.11,0,0,1,.48.72,5.8,5.8,0,0,1,.08.95V33a4.7,4.7,0,0,1-.09.92,1.07,1.07,0,0,1-.48.71A2.35,2.35,0,0,1,281.93,34.91Zm-4.37-3.73a2.13,2.13,0,0,0,1.2-.34,2.57,2.57,0,0,0,.85-.91,2.62,2.62,0,0,0,.33-1.28,2.49,2.49,0,0,0-1.2-2.17,2.36,2.36,0,0,0-1.23-.33,2.48,2.48,0,0,0-2.16,1.25,2.5,2.5,0,0,0-.34,1.3,2.34,2.34,0,0,0,.34,1.24,2.56,2.56,0,0,0,.92.9A2.59,2.59,0,0,0,277.56,31.18Z"/><path class="cls-2" d="M291.11,34.94a14.05,14.05,0,0,1-1.83-.11,3.7,3.7,0,0,1-1.35-.4,2.39,2.39,0,0,1-.9-.83,4,4,0,0,1-.52-1.38,10,10,0,0,1-.18-2.06V18.61a3.9,3.9,0,0,1,.1-.93,1.21,1.21,0,0,1,.49-.7,2.39,2.39,0,0,1,1.31-.27,2.34,2.34,0,0,1,1.29.27,1.2,1.2,0,0,1,.49.71,4.4,4.4,0,0,1,.1.92V30a4.16,4.16,0,0,0,0,.66.8.8,0,0,0,.15.41.49.49,0,0,0,.31.2,2.4,2.4,0,0,0,.52,0,2.7,2.7,0,0,1,.62.08.9.9,0,0,1,.53.45,2.53,2.53,0,0,1,.23,1.25,2.79,2.79,0,0,1-.23,1.3.89.89,0,0,1-.54.47A2.65,2.65,0,0,1,291.11,34.94Z"/><path class="cls-2" d="M302.71,34.94a2.48,2.48,0,0,1-1.3-.26,1.07,1.07,0,0,1-.49-.71,4.73,4.73,0,0,1-.09-.93V19.37a4.63,4.63,0,0,1,.09-.92,1.12,1.12,0,0,1,.49-.71,2.41,2.41,0,0,1,1.32-.27,2.47,2.47,0,0,1,1.34.27,1.15,1.15,0,0,1,.47.72,4.59,4.59,0,0,1,.09.93V33.07a3.85,3.85,0,0,1-.1.91,1.09,1.09,0,0,1-.49.7A2.42,2.42,0,0,1,302.71,34.94Z"/><path class="cls-2" d="M309.16,20.65a2.52,2.52,0,0,1-1.35-.28,1.08,1.08,0,0,1-.48-.72,5.16,5.16,0,0,1,0-1.92,1.06,1.06,0,0,1,.5-.7,2.69,2.69,0,0,1,1.36-.26,2.37,2.37,0,0,1,1.33.28,1.11,1.11,0,0,1,.48.72,5,5,0,0,1,.09,1,4.7,4.7,0,0,1-.09.92,1.09,1.09,0,0,1-.49.72A2.59,2.59,0,0,1,309.16,20.65Zm0,14.3a2.47,2.47,0,0,1-1.33-.27,1,1,0,0,1-.47-.7,5.31,5.31,0,0,1-.08-.91V24.35a4.63,4.63,0,0,1,.09-.92,1.06,1.06,0,0,1,.48-.7,2.59,2.59,0,0,1,1.33-.26,2.24,2.24,0,0,1,1.29.28,1.14,1.14,0,0,1,.47.71,4.62,4.62,0,0,1,.09.94v8.7a4.53,4.53,0,0,1-.09.91,1,1,0,0,1-.47.69A2.62,2.62,0,0,1,309.16,35Z"/><path class="cls-3" d="M136,17.34a3.84,3.84,0,0,1,.79.08.92.92,0,0,1,.59.42,2.24,2.24,0,0,1,.22,1.15,2.16,2.16,0,0,1-.22,1.13.91.91,0,0,1-.6.42,4.09,4.09,0,0,1-.8.08h-4V33a5.11,5.11,0,0,1-.08.9,1.1,1.1,0,0,1-.48.69,2.55,2.55,0,0,1-1.34.26,2.41,2.41,0,0,1-1.27-.26,1.08,1.08,0,0,1-.49-.7,4.63,4.63,0,0,1-.09-.92V20.61h-4a3.31,3.31,0,0,1-.77-.09,1,1,0,0,1-.61-.42,2.06,2.06,0,0,1-.24-1.14,2.06,2.06,0,0,1,.24-1.13.93.93,0,0,1,.61-.42,3.94,3.94,0,0,1,.77-.07Z"/><path class="cls-3" d="M141.56,34.85a2.35,2.35,0,0,1-1.31-.27,1.07,1.07,0,0,1-.48-.71,4.7,4.7,0,0,1-.09-.92V24.22a4.59,4.59,0,0,1,.09-.93,1,1,0,0,1,.49-.68,2.42,2.42,0,0,1,1.32-.26,2.63,2.63,0,0,1,1.26.23,1.07,1.07,0,0,1,.49.56,1.63,1.63,0,0,1,.1.53l-.3.15a3.22,3.22,0,0,1,.26-.36,3.58,3.58,0,0,1,.59-.55,3.71,3.71,0,0,1,.91-.49,3.62,3.62,0,0,1,1.24-.2c.18,0,.39,0,.61,0a4.62,4.62,0,0,1,.7.15,3.41,3.41,0,0,1,.67.3,1.54,1.54,0,0,1,.48.47,1.11,1.11,0,0,1,.19.67,3.06,3.06,0,0,1-.48,1.74,1.4,1.4,0,0,1-1.2.71,2.11,2.11,0,0,1-.6-.06,1.21,1.21,0,0,1-.28-.15,1.17,1.17,0,0,0-.27-.15,1.39,1.39,0,0,0-.55-.07,2.77,2.77,0,0,0-.71.1,1.93,1.93,0,0,0-.62.32,1.32,1.32,0,0,0-.45.52,1.52,1.52,0,0,0-.17.71V33a4.53,4.53,0,0,1-.09.91,1,1,0,0,1-.49.69A2.64,2.64,0,0,1,141.56,34.85Z"/><path class="cls-3" d="M161,34.83a2.42,2.42,0,0,1-1.38-.32.9.9,0,0,1-.42-.8l.25-.43a2.59,2.59,0,0,1-.58.61,3.87,3.87,0,0,1-1.11.65,4.33,4.33,0,0,1-1.66.29,5,5,0,0,1-2.19-.5A6,6,0,0,1,152,32.94a7.21,7.21,0,0,1-1.27-2,6.16,6.16,0,0,1,0-4.72,6.72,6.72,0,0,1,1.29-2,6.37,6.37,0,0,1,1.84-1.36,4.94,4.94,0,0,1,2.18-.5,4.05,4.05,0,0,1,2.66.88,3.43,3.43,0,0,1,.66.67l-.23-.35a1.05,1.05,0,0,1,.44-.91,2.42,2.42,0,0,1,1.39-.31,2.34,2.34,0,0,1,1.29.27,1.15,1.15,0,0,1,.47.73,4.86,4.86,0,0,1,.09.95v8.62a5.64,5.64,0,0,1-.08.93,1.07,1.07,0,0,1-.48.71A2.41,2.41,0,0,1,161,34.83Zm-4.37-3.72a2.24,2.24,0,0,0,1.2-.34,2.75,2.75,0,0,0,.85-.91,2.74,2.74,0,0,0,0-2.57,2.4,2.4,0,0,0-.88-.88,2.3,2.3,0,0,0-1.22-.33,2.33,2.33,0,0,0-1.26.34A2.53,2.53,0,0,0,154,28.63a2.42,2.42,0,0,0,.33,1.24,2.6,2.6,0,0,0,2.22,1.24Z"/><path class="cls-3" d="M166.71,34.86a1.8,1.8,0,0,1-1.32-.54,1.95,1.95,0,0,1-.39-2.06,1.81,1.81,0,0,1,.41-.62l5.68-5.5h-3.8a4.45,4.45,0,0,1-.91-.1,1.22,1.22,0,0,1-.73-.49,2.28,2.28,0,0,1-.29-1.31,2.3,2.3,0,0,1,.29-1.32,1.17,1.17,0,0,1,.73-.47,4.46,4.46,0,0,1,.91-.09h7.82A1.78,1.78,0,0,1,177,24.22a2.17,2.17,0,0,1-.13.76,1.69,1.69,0,0,1-.39.59l-5.56,5.52h4.53a4.4,4.4,0,0,1,.92.1,1.12,1.12,0,0,1,.69.5,2.49,2.49,0,0,1,.26,1.33,2.4,2.4,0,0,1-.27,1.3,1.1,1.1,0,0,1-.7.47,5.37,5.37,0,0,1-.93.08Z"/><path class="cls-3" d="M189.53,34.85a2.33,2.33,0,0,1-1.37-.33.91.91,0,0,1-.43-.8l.25-.42a2.72,2.72,0,0,1-.57.61,4.45,4.45,0,0,1-1.11.65,4.38,4.38,0,0,1-1.67.29,5,5,0,0,1-2.18-.5A5.93,5.93,0,0,1,180.61,33a7,7,0,0,1-1.27-2,6,6,0,0,1-.48-2.37,5.83,5.83,0,0,1,.48-2.34,6.34,6.34,0,0,1,1.29-2,6.07,6.07,0,0,1,1.84-1.36,4.77,4.77,0,0,1,2.17-.5,4.35,4.35,0,0,1,1.58.26,4.57,4.57,0,0,1,1.08.61A3.45,3.45,0,0,1,188,24l-.22-.35a1,1,0,0,1,.44-.91,3.22,3.22,0,0,1,2.67,0,1.14,1.14,0,0,1,.48.73,5.7,5.7,0,0,1,.08.95V33a4.73,4.73,0,0,1-.09.93,1.09,1.09,0,0,1-.48.71A2.45,2.45,0,0,1,189.53,34.85Zm-4.37-3.73a2.21,2.21,0,0,0,1.2-.33,2.6,2.6,0,0,0,.85-.92,2.48,2.48,0,0,0,.33-1.27,2.53,2.53,0,0,0-.33-1.29,2.35,2.35,0,0,0-2.1-1.21,2.44,2.44,0,0,0-1.26.33,2.56,2.56,0,0,0-.9.92,2.45,2.45,0,0,0-.34,1.3,2.28,2.28,0,0,0,.34,1.23,2.41,2.41,0,0,0,.92.9A2.49,2.49,0,0,0,185.16,31.12Z"/><path class="cls-3" d="M205.23,34.88a14.14,14.14,0,0,1-1.82-.1,3.58,3.58,0,0,1-1.35-.4,2.42,2.42,0,0,1-.9-.84,4,4,0,0,1-.53-1.37,10.88,10.88,0,0,1-.17-2.06V18.56a3.9,3.9,0,0,1,.1-.93,1.17,1.17,0,0,1,.49-.7,3.26,3.26,0,0,1,2.6,0,1.19,1.19,0,0,1,.48.7,4,4,0,0,1,.1.93V29.93a6.19,6.19,0,0,0,0,.67,1,1,0,0,0,.15.41.54.54,0,0,0,.31.2,2.5,2.5,0,0,0,.53.05,2.6,2.6,0,0,1,.61.07.94.94,0,0,1,.54.46,2.55,2.55,0,0,1,.22,1.25,2.74,2.74,0,0,1-.22,1.29.88.88,0,0,1-.54.48A2.73,2.73,0,0,1,205.23,34.88Z"/><path class="cls-3" d="M218.66,34.87a2.34,2.34,0,0,1-1.38-.33.88.88,0,0,1-.42-.8l.25-.42a2.8,2.8,0,0,1-.58.61,4.12,4.12,0,0,1-2.77.93,4.88,4.88,0,0,1-2.19-.5A5.85,5.85,0,0,1,209.73,33a7.21,7.21,0,0,1-1.27-2,6,6,0,0,1-.47-2.37,5.82,5.82,0,0,1,.47-2.34,6.9,6.9,0,0,1,1.29-2,6.56,6.56,0,0,1,1.84-1.36,4.93,4.93,0,0,1,2.17-.5,4.11,4.11,0,0,1,1.58.27,4.5,4.5,0,0,1,1.09.61,3.2,3.2,0,0,1,.66.68l-.23-.35a1.07,1.07,0,0,1,.44-.92,2.51,2.51,0,0,1,1.39-.31,2.33,2.33,0,0,1,1.29.28,1.1,1.1,0,0,1,.47.72,4.86,4.86,0,0,1,.09.95V33a5.52,5.52,0,0,1-.08.92,1.11,1.11,0,0,1-.48.72A2.5,2.5,0,0,1,218.66,34.87Zm-4.38-3.73a2.13,2.13,0,0,0,1.2-.34,2.65,2.65,0,0,0,.86-3.47,2.42,2.42,0,0,0-.88-.89,2.32,2.32,0,0,0-1.22-.32,2.39,2.39,0,0,0-1.27.33,2.7,2.7,0,0,0-.9.91,2.59,2.59,0,0,0-.33,1.3,2.4,2.4,0,0,0,.33,1.24,2.51,2.51,0,0,0,.93.9A2.48,2.48,0,0,0,214.28,31.14Z"/><path class="cls-3" d="M235.56,35a2.25,2.25,0,0,1-1-.22,1.5,1.5,0,0,1-.66-.7l-4.5-9a2.05,2.05,0,0,1-.26-1.49,2.09,2.09,0,0,1,1.14-1.06,2.4,2.4,0,0,1,1.51-.31c.38.09.71.49,1,1.19l2.8,6.5,2.8-6.43c.3-.71.64-1.13,1-1.24a2.22,2.22,0,0,1,1.56.32q1,.48,1.14,1.11a2.35,2.35,0,0,1-.32,1.47l-4.48,8.92a1.43,1.43,0,0,1-.65.7A2.26,2.26,0,0,1,235.56,35Z"/><path class="cls-3" d="M250.16,35.11a6.21,6.21,0,0,1-2.34-.46,7.06,7.06,0,0,1-2.11-1.32,6.09,6.09,0,0,1-1.51-2,5.93,5.93,0,0,1-.56-2.64,6.16,6.16,0,0,1,.51-2.51,6.72,6.72,0,0,1,3.48-3.48,6.08,6.08,0,0,1,2.48-.51,6.3,6.3,0,0,1,3.27.87,6.5,6.5,0,0,1,2.33,2.33,6.27,6.27,0,0,1,.88,3.28,6.17,6.17,0,0,1-.57,2.71,6.35,6.35,0,0,1-1.5,2,6.76,6.76,0,0,1-2.08,1.29A6.31,6.31,0,0,1,250.16,35.11Zm0-3.77a2.78,2.78,0,0,0,1.22-.3,2.67,2.67,0,0,0,1-.9,2.54,2.54,0,0,0,.43-1.53,2.77,2.77,0,0,0-.35-1.4,2.48,2.48,0,0,0-1-.94,2.94,2.94,0,0,0-1.41-.33,2.51,2.51,0,0,0-1.34.35,2.65,2.65,0,0,0-.95,1,2.69,2.69,0,0,0-.36,1.39,2.55,2.55,0,0,0,.41,1.51,2.47,2.47,0,0,0,1,.9A3,3,0,0,0,250.11,31.34Z"/><path class="cls-3" d="M264.78,35a6.69,6.69,0,0,1-2.24-.41,7.2,7.2,0,0,1-2.1-1.22,5.77,5.77,0,0,1-1.53-2,6.85,6.85,0,0,1,0-5.47,6,6,0,0,1,1.53-2,7,7,0,0,1,2.09-1.21,6.52,6.52,0,0,1,2.21-.41,6,6,0,0,1,1.66.21,5.88,5.88,0,0,1,1.25.52,3.91,3.91,0,0,1,.74.52c.28.22.53.44.75.65a1.13,1.13,0,0,1,.3.85,1.64,1.64,0,0,1-.18.57,4.29,4.29,0,0,1-.37.58c-.52.7-1,1-1.5,1a2.27,2.27,0,0,1-.69-.25l-.6-.35a4.37,4.37,0,0,0-.61-.31,2,2,0,0,0-.75-.14,2.45,2.45,0,0,0-1.3.34,2.48,2.48,0,0,0-.92.9,2.52,2.52,0,0,0-.33,1.31,2.47,2.47,0,0,0,.33,1.3,2.61,2.61,0,0,0,.9.91,2.58,2.58,0,0,0,2,.24,2.16,2.16,0,0,0,.55-.24l.35-.21.57-.36a1.08,1.08,0,0,1,.55-.16,1.21,1.21,0,0,1,.74.26,4.1,4.1,0,0,1,.81.84,2,2,0,0,1,.49,1,1.26,1.26,0,0,1-.21.87,2.92,2.92,0,0,1-.85.76,5.33,5.33,0,0,1-.72.45,6.9,6.9,0,0,1-1.25.5A5.66,5.66,0,0,1,264.78,35Z"/><path class="cls-3" d="M281.93,34.91a2.3,2.3,0,0,1-1.37-.33.92.92,0,0,1-.43-.8l.25-.43a2.73,2.73,0,0,1-.57.62,4.35,4.35,0,0,1-1.12.65,4.3,4.3,0,0,1-1.66.28,5,5,0,0,1-2.19-.5A5.85,5.85,0,0,1,273,33a7,7,0,0,1-1.28-2,6.16,6.16,0,0,1-.47-2.38,5.82,5.82,0,0,1,.48-2.33,6.51,6.51,0,0,1,1.29-2A6.33,6.33,0,0,1,274.86,23a5,5,0,0,1,2.18-.5,4.05,4.05,0,0,1,1.57.27,4.15,4.15,0,0,1,1.09.61,3.43,3.43,0,0,1,.66.67l-.22-.35a1,1,0,0,1,.44-.91,2.39,2.39,0,0,1,1.38-.31,2.24,2.24,0,0,1,1.29.28,1.11,1.11,0,0,1,.48.72,5.8,5.8,0,0,1,.08.95V33a4.7,4.7,0,0,1-.09.92,1.07,1.07,0,0,1-.48.71A2.35,2.35,0,0,1,281.93,34.91Zm-4.37-3.73a2.13,2.13,0,0,0,1.2-.34,2.57,2.57,0,0,0,.85-.91,2.62,2.62,0,0,0,.33-1.28,2.49,2.49,0,0,0-1.2-2.17,2.36,2.36,0,0,0-1.23-.33,2.48,2.48,0,0,0-2.16,1.25,2.5,2.5,0,0,0-.34,1.3,2.34,2.34,0,0,0,.34,1.24,2.56,2.56,0,0,0,.92.9A2.59,2.59,0,0,0,277.56,31.18Z"/><path class="cls-3" d="M291.11,34.94a14.05,14.05,0,0,1-1.83-.11,3.7,3.7,0,0,1-1.35-.4,2.39,2.39,0,0,1-.9-.83,4,4,0,0,1-.52-1.38,10,10,0,0,1-.18-2.06V18.61a3.9,3.9,0,0,1,.1-.93,1.21,1.21,0,0,1,.49-.7,2.39,2.39,0,0,1,1.31-.27,2.34,2.34,0,0,1,1.29.27,1.2,1.2,0,0,1,.49.71,4.4,4.4,0,0,1,.1.92V30a4.16,4.16,0,0,0,0,.66.8.8,0,0,0,.15.41.49.49,0,0,0,.31.2,2.4,2.4,0,0,0,.52,0,2.7,2.7,0,0,1,.62.08.9.9,0,0,1,.53.45,2.53,2.53,0,0,1,.23,1.25,2.79,2.79,0,0,1-.23,1.3.89.89,0,0,1-.54.47A2.65,2.65,0,0,1,291.11,34.94Z"/><path class="cls-3" d="M302.71,34.94a2.48,2.48,0,0,1-1.3-.26,1.07,1.07,0,0,1-.49-.71,4.73,4.73,0,0,1-.09-.93V19.37a4.63,4.63,0,0,1,.09-.92,1.12,1.12,0,0,1,.49-.71,2.41,2.41,0,0,1,1.32-.27,2.47,2.47,0,0,1,1.34.27,1.15,1.15,0,0,1,.47.72,4.59,4.59,0,0,1,.09.93V33.07a3.85,3.85,0,0,1-.1.91,1.09,1.09,0,0,1-.49.7A2.42,2.42,0,0,1,302.71,34.94Z"/><path class="cls-3" d="M309.16,20.65a2.52,2.52,0,0,1-1.35-.28,1.08,1.08,0,0,1-.48-.72,5.16,5.16,0,0,1,0-1.92,1.06,1.06,0,0,1,.5-.7,2.69,2.69,0,0,1,1.36-.26,2.37,2.37,0,0,1,1.33.28,1.11,1.11,0,0,1,.48.72,5,5,0,0,1,.09,1,4.7,4.7,0,0,1-.09.92,1.09,1.09,0,0,1-.49.72A2.59,2.59,0,0,1,309.16,20.65Zm0,14.3a2.47,2.47,0,0,1-1.33-.27,1,1,0,0,1-.47-.7,5.31,5.31,0,0,1-.08-.91V24.35a4.63,4.63,0,0,1,.09-.92,1.06,1.06,0,0,1,.48-.7,2.59,2.59,0,0,1,1.33-.26,2.24,2.24,0,0,1,1.29.28,1.14,1.14,0,0,1,.47.71,4.62,4.62,0,0,1,.09.94v8.7a4.53,4.53,0,0,1-.09.91,1,1,0,0,1-.47.69A2.62,2.62,0,0,1,309.16,35Z"/><path class="cls-2" d="M136,17.34a3.84,3.84,0,0,1,.79.08.92.92,0,0,1,.59.42,2.24,2.24,0,0,1,.22,1.15,2.16,2.16,0,0,1-.22,1.13.91.91,0,0,1-.6.42,4.09,4.09,0,0,1-.8.08h-4V33a5.11,5.11,0,0,1-.08.9,1.1,1.1,0,0,1-.48.69,2.55,2.55,0,0,1-1.34.26,2.41,2.41,0,0,1-1.27-.26,1.08,1.08,0,0,1-.49-.7,4.63,4.63,0,0,1-.09-.92V20.61h-4a3.31,3.31,0,0,1-.77-.09,1,1,0,0,1-.61-.42,2.06,2.06,0,0,1-.24-1.14,2.06,2.06,0,0,1,.24-1.13.93.93,0,0,1,.61-.42,3.94,3.94,0,0,1,.77-.07Z"/><path class="cls-2" d="M141.56,34.85a2.35,2.35,0,0,1-1.31-.27,1.07,1.07,0,0,1-.48-.71,4.7,4.7,0,0,1-.09-.92V24.22a4.59,4.59,0,0,1,.09-.93,1,1,0,0,1,.49-.68,2.42,2.42,0,0,1,1.32-.26,2.63,2.63,0,0,1,1.26.23,1.07,1.07,0,0,1,.49.56,1.63,1.63,0,0,1,.1.53l-.3.15a3.22,3.22,0,0,1,.26-.36,3.58,3.58,0,0,1,.59-.55,3.71,3.71,0,0,1,.91-.49,3.62,3.62,0,0,1,1.24-.2c.18,0,.39,0,.61,0a4.62,4.62,0,0,1,.7.15,3.41,3.41,0,0,1,.67.3,1.54,1.54,0,0,1,.48.47,1.11,1.11,0,0,1,.19.67,3.06,3.06,0,0,1-.48,1.74,1.4,1.4,0,0,1-1.2.71,2.11,2.11,0,0,1-.6-.06,1.21,1.21,0,0,1-.28-.15,1.17,1.17,0,0,0-.27-.15,1.39,1.39,0,0,0-.55-.07,2.77,2.77,0,0,0-.71.1,1.93,1.93,0,0,0-.62.32,1.32,1.32,0,0,0-.45.52,1.52,1.52,0,0,0-.17.71V33a4.53,4.53,0,0,1-.09.91,1,1,0,0,1-.49.69A2.64,2.64,0,0,1,141.56,34.85Z"/><path class="cls-2" d="M161,34.83a2.42,2.42,0,0,1-1.38-.32.9.9,0,0,1-.42-.8l.25-.43a2.59,2.59,0,0,1-.58.61,3.87,3.87,0,0,1-1.11.65,4.33,4.33,0,0,1-1.66.29,5,5,0,0,1-2.19-.5A6,6,0,0,1,152,32.94a7.21,7.21,0,0,1-1.27-2,6.16,6.16,0,0,1,0-4.72,6.72,6.72,0,0,1,1.29-2,6.37,6.37,0,0,1,1.84-1.36,4.94,4.94,0,0,1,2.18-.5,4.05,4.05,0,0,1,2.66.88,3.43,3.43,0,0,1,.66.67l-.23-.35a1.05,1.05,0,0,1,.44-.91,2.42,2.42,0,0,1,1.39-.31,2.34,2.34,0,0,1,1.29.27,1.15,1.15,0,0,1,.47.73,4.86,4.86,0,0,1,.09.95v8.62a5.64,5.64,0,0,1-.08.93,1.07,1.07,0,0,1-.48.71A2.41,2.41,0,0,1,161,34.83Zm-4.37-3.72a2.24,2.24,0,0,0,1.2-.34,2.75,2.75,0,0,0,.85-.91,2.74,2.74,0,0,0,0-2.57,2.4,2.4,0,0,0-.88-.88,2.3,2.3,0,0,0-1.22-.33,2.33,2.33,0,0,0-1.26.34A2.53,2.53,0,0,0,154,28.63a2.42,2.42,0,0,0,.33,1.24,2.6,2.6,0,0,0,2.22,1.24Z"/><path class="cls-2" d="M166.71,34.86a1.8,1.8,0,0,1-1.32-.54,1.95,1.95,0,0,1-.39-2.06,1.81,1.81,0,0,1,.41-.62l5.68-5.5h-3.8a4.45,4.45,0,0,1-.91-.1,1.22,1.22,0,0,1-.73-.49,2.28,2.28,0,0,1-.29-1.31,2.3,2.3,0,0,1,.29-1.32,1.17,1.17,0,0,1,.73-.47,4.46,4.46,0,0,1,.91-.09h7.82A1.78,1.78,0,0,1,177,24.22a2.17,2.17,0,0,1-.13.76,1.69,1.69,0,0,1-.39.59l-5.56,5.52h4.53a4.4,4.4,0,0,1,.92.1,1.12,1.12,0,0,1,.69.5,2.49,2.49,0,0,1,.26,1.33,2.4,2.4,0,0,1-.27,1.3,1.1,1.1,0,0,1-.7.47,5.37,5.37,0,0,1-.93.08Z"/><path class="cls-2" d="M189.53,34.85a2.33,2.33,0,0,1-1.37-.33.91.91,0,0,1-.43-.8l.25-.42a2.72,2.72,0,0,1-.57.61,4.45,4.45,0,0,1-1.11.65,4.38,4.38,0,0,1-1.67.29,5,5,0,0,1-2.18-.5A5.93,5.93,0,0,1,180.61,33a7,7,0,0,1-1.27-2,6,6,0,0,1-.48-2.37,5.83,5.83,0,0,1,.48-2.34,6.34,6.34,0,0,1,1.29-2,6.07,6.07,0,0,1,1.84-1.36,4.77,4.77,0,0,1,2.17-.5,4.35,4.35,0,0,1,1.58.26,4.57,4.57,0,0,1,1.08.61A3.45,3.45,0,0,1,188,24l-.22-.35a1,1,0,0,1,.44-.91,3.22,3.22,0,0,1,2.67,0,1.14,1.14,0,0,1,.48.73,5.7,5.7,0,0,1,.08.95V33a4.73,4.73,0,0,1-.09.93,1.09,1.09,0,0,1-.48.71A2.45,2.45,0,0,1,189.53,34.85Zm-4.37-3.73a2.21,2.21,0,0,0,1.2-.33,2.6,2.6,0,0,0,.85-.92,2.48,2.48,0,0,0,.33-1.27,2.53,2.53,0,0,0-.33-1.29,2.35,2.35,0,0,0-2.1-1.21,2.44,2.44,0,0,0-1.26.33,2.56,2.56,0,0,0-.9.92,2.45,2.45,0,0,0-.34,1.3,2.28,2.28,0,0,0,.34,1.23,2.41,2.41,0,0,0,.92.9A2.49,2.49,0,0,0,185.16,31.12Z"/><path class="cls-2" d="M205.23,34.88a14.14,14.14,0,0,1-1.82-.1,3.58,3.58,0,0,1-1.35-.4,2.42,2.42,0,0,1-.9-.84,4,4,0,0,1-.53-1.37,10.88,10.88,0,0,1-.17-2.06V18.56a3.9,3.9,0,0,1,.1-.93,1.17,1.17,0,0,1,.49-.7,3.26,3.26,0,0,1,2.6,0,1.19,1.19,0,0,1,.48.7,4,4,0,0,1,.1.93V29.93a6.19,6.19,0,0,0,0,.67,1,1,0,0,0,.15.41.54.54,0,0,0,.31.2,2.5,2.5,0,0,0,.53.05,2.6,2.6,0,0,1,.61.07.94.94,0,0,1,.54.46,2.55,2.55,0,0,1,.22,1.25,2.74,2.74,0,0,1-.22,1.29.88.88,0,0,1-.54.48A2.73,2.73,0,0,1,205.23,34.88Z"/><path class="cls-2" d="M218.66,34.87a2.34,2.34,0,0,1-1.38-.33.88.88,0,0,1-.42-.8l.25-.42a2.8,2.8,0,0,1-.58.61,4.12,4.12,0,0,1-2.77.93,4.88,4.88,0,0,1-2.19-.5A5.85,5.85,0,0,1,209.73,33a7.21,7.21,0,0,1-1.27-2,6,6,0,0,1-.47-2.37,5.82,5.82,0,0,1,.47-2.34,6.9,6.9,0,0,1,1.29-2,6.56,6.56,0,0,1,1.84-1.36,4.93,4.93,0,0,1,2.17-.5,4.11,4.11,0,0,1,1.58.27,4.5,4.5,0,0,1,1.09.61,3.2,3.2,0,0,1,.66.68l-.23-.35a1.07,1.07,0,0,1,.44-.92,2.51,2.51,0,0,1,1.39-.31,2.33,2.33,0,0,1,1.29.28,1.1,1.1,0,0,1,.47.72,4.86,4.86,0,0,1,.09.95V33a5.52,5.52,0,0,1-.08.92,1.11,1.11,0,0,1-.48.72A2.5,2.5,0,0,1,218.66,34.87Zm-4.38-3.73a2.13,2.13,0,0,0,1.2-.34,2.65,2.65,0,0,0,.86-3.47,2.42,2.42,0,0,0-.88-.89,2.32,2.32,0,0,0-1.22-.32,2.39,2.39,0,0,0-1.27.33,2.7,2.7,0,0,0-.9.91,2.59,2.59,0,0,0-.33,1.3,2.4,2.4,0,0,0,.33,1.24,2.51,2.51,0,0,0,.93.9A2.48,2.48,0,0,0,214.28,31.14Z"/><path class="cls-2" d="M235.56,35a2.25,2.25,0,0,1-1-.22,1.5,1.5,0,0,1-.66-.7l-4.5-9a2.05,2.05,0,0,1-.26-1.49,2.09,2.09,0,0,1,1.14-1.06,2.4,2.4,0,0,1,1.51-.31c.38.09.71.49,1,1.19l2.8,6.5,2.8-6.43c.3-.71.64-1.13,1-1.24a2.22,2.22,0,0,1,1.56.32q1,.48,1.14,1.11a2.35,2.35,0,0,1-.32,1.47l-4.48,8.92a1.43,1.43,0,0,1-.65.7A2.26,2.26,0,0,1,235.56,35Z"/><path class="cls-2" d="M250.16,35.11a6.21,6.21,0,0,1-2.34-.46,7.06,7.06,0,0,1-2.11-1.32,6.09,6.09,0,0,1-1.51-2,5.93,5.93,0,0,1-.56-2.64,6.16,6.16,0,0,1,.51-2.51,6.72,6.72,0,0,1,3.48-3.48,6.08,6.08,0,0,1,2.48-.51,6.3,6.3,0,0,1,3.27.87,6.5,6.5,0,0,1,2.33,2.33,6.27,6.27,0,0,1,.88,3.28,6.17,6.17,0,0,1-.57,2.71,6.35,6.35,0,0,1-1.5,2,6.76,6.76,0,0,1-2.08,1.29A6.31,6.31,0,0,1,250.16,35.11Zm0-3.77a2.78,2.78,0,0,0,1.22-.3,2.67,2.67,0,0,0,1-.9,2.54,2.54,0,0,0,.43-1.53,2.77,2.77,0,0,0-.35-1.4,2.48,2.48,0,0,0-1-.94,2.94,2.94,0,0,0-1.41-.33,2.51,2.51,0,0,0-1.34.35,2.65,2.65,0,0,0-.95,1,2.69,2.69,0,0,0-.36,1.39,2.55,2.55,0,0,0,.41,1.51,2.47,2.47,0,0,0,1,.9A3,3,0,0,0,250.11,31.34Z"/><path class="cls-2" d="M264.78,35a6.69,6.69,0,0,1-2.24-.41,7.2,7.2,0,0,1-2.1-1.22,5.77,5.77,0,0,1-1.53-2,6.85,6.85,0,0,1,0-5.47,6,6,0,0,1,1.53-2,7,7,0,0,1,2.09-1.21,6.52,6.52,0,0,1,2.21-.41,6,6,0,0,1,1.66.21,5.88,5.88,0,0,1,1.25.52,3.91,3.91,0,0,1,.74.52c.28.22.53.44.75.65a1.13,1.13,0,0,1,.3.85,1.64,1.64,0,0,1-.18.57,4.29,4.29,0,0,1-.37.58c-.52.7-1,1-1.5,1a2.27,2.27,0,0,1-.69-.25l-.6-.35a4.37,4.37,0,0,0-.61-.31,2,2,0,0,0-.75-.14,2.45,2.45,0,0,0-1.3.34,2.48,2.48,0,0,0-.92.9,2.52,2.52,0,0,0-.33,1.31,2.47,2.47,0,0,0,.33,1.3,2.61,2.61,0,0,0,.9.91,2.58,2.58,0,0,0,2,.24,2.16,2.16,0,0,0,.55-.24l.35-.21.57-.36a1.08,1.08,0,0,1,.55-.16,1.21,1.21,0,0,1,.74.26,4.1,4.1,0,0,1,.81.84,2,2,0,0,1,.49,1,1.26,1.26,0,0,1-.21.87,2.92,2.92,0,0,1-.85.76,5.33,5.33,0,0,1-.72.45,6.9,6.9,0,0,1-1.25.5A5.66,5.66,0,0,1,264.78,35Z"/><path class="cls-2" d="M281.93,34.91a2.3,2.3,0,0,1-1.37-.33.92.92,0,0,1-.43-.8l.25-.43a2.73,2.73,0,0,1-.57.62,4.35,4.35,0,0,1-1.12.65,4.3,4.3,0,0,1-1.66.28,5,5,0,0,1-2.19-.5A5.85,5.85,0,0,1,273,33a7,7,0,0,1-1.28-2,6.16,6.16,0,0,1-.47-2.38,5.82,5.82,0,0,1,.48-2.33,6.51,6.51,0,0,1,1.29-2A6.33,6.33,0,0,1,274.86,23a5,5,0,0,1,2.18-.5,4.05,4.05,0,0,1,1.57.27,4.15,4.15,0,0,1,1.09.61,3.43,3.43,0,0,1,.66.67l-.22-.35a1,1,0,0,1,.44-.91,2.39,2.39,0,0,1,1.38-.31,2.24,2.24,0,0,1,1.29.28,1.11,1.11,0,0,1,.48.72,5.8,5.8,0,0,1,.08.95V33a4.7,4.7,0,0,1-.09.92,1.07,1.07,0,0,1-.48.71A2.35,2.35,0,0,1,281.93,34.91Zm-4.37-3.73a2.13,2.13,0,0,0,1.2-.34,2.57,2.57,0,0,0,.85-.91,2.62,2.62,0,0,0,.33-1.28,2.49,2.49,0,0,0-1.2-2.17,2.36,2.36,0,0,0-1.23-.33,2.48,2.48,0,0,0-2.16,1.25,2.5,2.5,0,0,0-.34,1.3,2.34,2.34,0,0,0,.34,1.24,2.56,2.56,0,0,0,.92.9A2.59,2.59,0,0,0,277.56,31.18Z"/><path class="cls-2" d="M291.11,34.94a14.05,14.05,0,0,1-1.83-.11,3.7,3.7,0,0,1-1.35-.4,2.39,2.39,0,0,1-.9-.83,4,4,0,0,1-.52-1.38,10,10,0,0,1-.18-2.06V18.61a3.9,3.9,0,0,1,.1-.93,1.21,1.21,0,0,1,.49-.7,2.39,2.39,0,0,1,1.31-.27,2.34,2.34,0,0,1,1.29.27,1.2,1.2,0,0,1,.49.71,4.4,4.4,0,0,1,.1.92V30a4.16,4.16,0,0,0,0,.66.8.8,0,0,0,.15.41.49.49,0,0,0,.31.2,2.4,2.4,0,0,0,.52,0,2.7,2.7,0,0,1,.62.08.9.9,0,0,1,.53.45,2.53,2.53,0,0,1,.23,1.25,2.79,2.79,0,0,1-.23,1.3.89.89,0,0,1-.54.47A2.65,2.65,0,0,1,291.11,34.94Z"/><path class="cls-2" d="M302.71,34.94a2.48,2.48,0,0,1-1.3-.26,1.07,1.07,0,0,1-.49-.71,4.73,4.73,0,0,1-.09-.93V19.37a4.63,4.63,0,0,1,.09-.92,1.12,1.12,0,0,1,.49-.71,2.41,2.41,0,0,1,1.32-.27,2.47,2.47,0,0,1,1.34.27,1.15,1.15,0,0,1,.47.72,4.59,4.59,0,0,1,.09.93V33.07a3.85,3.85,0,0,1-.1.91,1.09,1.09,0,0,1-.49.7A2.42,2.42,0,0,1,302.71,34.94Z"/><path class="cls-2" d="M309.16,20.65a2.52,2.52,0,0,1-1.35-.28,1.08,1.08,0,0,1-.48-.72,5.16,5.16,0,0,1,0-1.92,1.06,1.06,0,0,1,.5-.7,2.69,2.69,0,0,1,1.36-.26,2.37,2.37,0,0,1,1.33.28,1.11,1.11,0,0,1,.48.72,5,5,0,0,1,.09,1,4.7,4.7,0,0,1-.09.92,1.09,1.09,0,0,1-.49.72A2.59,2.59,0,0,1,309.16,20.65Zm0,14.3a2.47,2.47,0,0,1-1.33-.27,1,1,0,0,1-.47-.7,5.31,5.31,0,0,1-.08-.91V24.35a4.63,4.63,0,0,1,.09-.92,1.06,1.06,0,0,1,.48-.7,2.59,2.59,0,0,1,1.33-.26,2.24,2.24,0,0,1,1.29.28,1.14,1.14,0,0,1,.47.71,4.62,4.62,0,0,1,.09.94v8.7a4.53,4.53,0,0,1-.09.91,1,1,0,0,1-.47.69A2.62,2.62,0,0,1,309.16,35Z"/><text class="cls-4" transform="matrix(0.97, 0, 0, 1, 40.3, 41.89)">2.3</text><text class="cls-5" transform="matrix(0.97, 0, 0, 1, 40.3, 41.89)">2.3</text></g></g></svg>