<svg xmlns="http://www.w3.org/2000/svg" viewBox="0 0 401.16 89.13"><defs><style>.cls-1{fill:#0468ad;}.cls-2{fill:#fff;}.cls-3,.cls-4{fill:none;stroke-width:5px;}.cls-3{stroke:#c8a927;stroke-linejoin:round;}.cls-4,.cls-6{font-size:42px;font-family:Coiny-Regular, Coiny;}.cls-4{stroke:#fff;}.cls-5{letter-spacing:-0.1em;}.cls-6{fill:#c8a927;}</style></defs><title>24t</title><g id="Layer_2" data-name="Layer 2"><g id="mesa"><rect class="cls-1" width="401.16" height="89.13" rx="32.4"/><path class="cls-2" d="M120.38,33.84a2.4,2.4,0,0,1-1.32-.28,1.14,1.14,0,0,1-.48-.72,4.08,4.08,0,0,1-.1-.93V18.26a3.85,3.85,0,0,1,.1-.91,1.11,1.11,0,0,1,.5-.71,2.33,2.33,0,0,1,1.32-.28h5.18a6.69,6.69,0,0,1,2.12.38,6.18,6.18,0,0,1,2,1.15,5.72,5.72,0,0,1,1.44,1.93,6.2,6.2,0,0,1,.55,2.72,6.68,6.68,0,0,1-.31,2,5.73,5.73,0,0,1-.94,1.8,6,6,0,0,1-1.55,1.4,6.75,6.75,0,0,1-2.13.86H122.3v3.3a3.91,3.91,0,0,1-.1.91,1.15,1.15,0,0,1-.5.71A2.35,2.35,0,0,1,120.38,33.84Zm1.93-9h3.47a2,2,0,0,0,.7-.13,2.21,2.21,0,0,0,.69-.41,2.08,2.08,0,0,0,.51-.73,2.52,2.52,0,0,0,.2-1.07,2.46,2.46,0,0,0-.3-1.25,2.09,2.09,0,0,0-.82-.82,2.54,2.54,0,0,0-1.23-.29h-3.22Zm8.62,8.48a2,2,0,0,1-1.48.54,2.24,2.24,0,0,1-1.15-1l-4.39-6.3,4.27-.55,3.22,4.63a3.18,3.18,0,0,1,.54,1,1,1,0,0,1-.13.8A3.25,3.25,0,0,1,130.93,33.34Z"/><path class="cls-2" d="M140.28,34.07a7.3,7.3,0,0,1-3-.57A5.86,5.86,0,0,1,135.2,32a6.51,6.51,0,0,1-1.2-2.09,7.09,7.09,0,0,1-.4-2.3,6.51,6.51,0,0,1,.86-3.32A6,6,0,0,1,136.82,22a7.11,7.11,0,0,1,3.46-.83,6.27,6.27,0,0,1,2.52.46,5.33,5.33,0,0,1,1.75,1.2,5.5,5.5,0,0,1,1,1.59,4.54,4.54,0,0,1,.34,1.63,2.89,2.89,0,0,1-.67,2,2.25,2.25,0,0,1-1.69.67h-6a1.77,1.77,0,0,0,.47,1.07,2.69,2.69,0,0,0,1,.7,3.5,3.5,0,0,0,1.33.25,7.94,7.94,0,0,0,1-.06,4.3,4.3,0,0,0,.79-.17c.22-.08.42-.15.59-.23l.49-.18a1.81,1.81,0,0,1,.42-.1,1,1,0,0,1,.68.21A2,2,0,0,1,145,31a1.65,1.65,0,0,1,.24.53,2.07,2.07,0,0,1,.06.5,1.32,1.32,0,0,1-.61,1.08,4.66,4.66,0,0,1-1.73.74A11.47,11.47,0,0,1,140.28,34.07Zm-2.67-7.4h3.94a1,1,0,0,0,.58-.13.62.62,0,0,0,.2-.54,1.27,1.27,0,0,0-.27-.78,1.76,1.76,0,0,0-.74-.53,2.8,2.8,0,0,0-1.09-.19,3,3,0,0,0-1.35.3,2.38,2.38,0,0,0-.94.8A1.9,1.9,0,0,0,137.61,26.67Z"/><path class="cls-2" d="M154.18,34a6.42,6.42,0,0,1-2.24-.42,6.92,6.92,0,0,1-2.1-1.21,5.92,5.92,0,0,1-1.54-2,6.35,6.35,0,0,1-.57-2.75,6.09,6.09,0,0,1,.58-2.73,6,6,0,0,1,1.52-2,6.87,6.87,0,0,1,2.09-1.21,6.37,6.37,0,0,1,2.21-.41,6.15,6.15,0,0,1,1.67.21,5.6,5.6,0,0,1,1.25.51,3.74,3.74,0,0,1,.73.53,7.16,7.16,0,0,1,.75.65,1.05,1.05,0,0,1,.3.85,1.56,1.56,0,0,1-.17.56,4.48,4.48,0,0,1-.38.59c-.52.7-1,1-1.5.95a2.58,2.58,0,0,1-.69-.25l-.6-.35a5,5,0,0,0-.61-.32,2,2,0,0,0-.75-.13,2.56,2.56,0,0,0-1.3.33,2.61,2.61,0,0,0-.91.9,2.69,2.69,0,0,0,0,2.62,2.53,2.53,0,0,0,.9.91,2.42,2.42,0,0,0,1.26.34,2.66,2.66,0,0,0,.72-.1,2.59,2.59,0,0,0,.55-.24l.35-.21a5.41,5.41,0,0,1,.58-.36,1,1,0,0,1,.55-.17,1.25,1.25,0,0,1,.74.27,4.28,4.28,0,0,1,.81.83,2.2,2.2,0,0,1,.49,1,1.18,1.18,0,0,1-.22.86,2.56,2.56,0,0,1-.85.76,3.69,3.69,0,0,1-.71.45,6.49,6.49,0,0,1-1.25.5A5.69,5.69,0,0,1,154.18,34Z"/><path class="cls-2" d="M167.13,34.06a6.21,6.21,0,0,1-2.34-.46,7.11,7.11,0,0,1-2.11-1.31,6.41,6.41,0,0,1-1.52-2,6.41,6.41,0,0,1,0-5.15A6.63,6.63,0,0,1,162.53,23a6.75,6.75,0,0,1,2.06-1.41,6,6,0,0,1,2.49-.52,6.33,6.33,0,0,1,3.26.87,6.4,6.4,0,0,1,2.34,2.34,6.71,6.71,0,0,1,.31,6,6.5,6.5,0,0,1-1.5,2,6.57,6.57,0,0,1-2.08,1.29A6.35,6.35,0,0,1,167.13,34.06Zm0-3.77a2.81,2.81,0,0,0,1.22-.3,2.67,2.67,0,0,0,1-.9,2.53,2.53,0,0,0,.43-1.52,2.74,2.74,0,0,0-.35-1.4,2.41,2.41,0,0,0-1-.94,2.83,2.83,0,0,0-1.41-.34,2.6,2.6,0,0,0-1.34.35,2.65,2.65,0,0,0-.95,1,2.7,2.7,0,0,0-.37,1.39,2.61,2.61,0,0,0,.42,1.51,2.47,2.47,0,0,0,1,.9A3,3,0,0,0,167.08,30.29Z"/><path class="cls-2" d="M177.45,33.87a2.48,2.48,0,0,1-1.31-.26,1.11,1.11,0,0,1-.48-.72,4.63,4.63,0,0,1-.08-.92V23.24a4.42,4.42,0,0,1,.09-.92,1.08,1.08,0,0,1,.49-.69,2.54,2.54,0,0,1,1.32-.26,2.52,2.52,0,0,1,1.27.24,1,1,0,0,1,.48.55,1.73,1.73,0,0,1,.1.54l-.3.15a2,2,0,0,1,.27-.37,3.92,3.92,0,0,1,.58-.55,3.46,3.46,0,0,1,.92-.48,3.34,3.34,0,0,1,1.23-.2,4.45,4.45,0,0,1,.61,0,3.22,3.22,0,0,1,.71.15,2.47,2.47,0,0,1,.66.3,1.51,1.51,0,0,1,.48.46,1.14,1.14,0,0,1,.19.68,3.08,3.08,0,0,1-.47,1.73,1.4,1.4,0,0,1-1.2.71,2,2,0,0,1-.6-.06.87.87,0,0,1-.29-.15,1.1,1.1,0,0,0-.26-.15,1.72,1.72,0,0,0-.55-.06,2.46,2.46,0,0,0-.72.1,1.9,1.9,0,0,0-.62.31,1.6,1.6,0,0,0-.45.52,1.53,1.53,0,0,0-.17.72V32a4.46,4.46,0,0,1-.09.91,1,1,0,0,1-.48.69A2.6,2.6,0,0,1,177.45,33.87Z"/><path class="cls-2" d="M187.43,21.58h2.75l3.45-.1a4.29,4.29,0,0,1,.9.09,1.08,1.08,0,0,1,.7.49,2.31,2.31,0,0,1,.28,1.32,2.25,2.25,0,0,1-.27,1.25,1.1,1.1,0,0,1-.69.51,3.36,3.36,0,0,1-.92.12l-3.27-.08-3,0a1.26,1.26,0,0,1-1-.46,2.55,2.55,0,0,1-.29-1.39,2.15,2.15,0,0,1,.35-1.34A1.27,1.27,0,0,1,187.43,21.58Zm5.65,12.3a7.45,7.45,0,0,1-2.2-.28,3.32,3.32,0,0,1-2.39-2.31,6.94,6.94,0,0,1-.29-2.11V19.05a4.15,4.15,0,0,1,.09-.92,1,1,0,0,1,.49-.66,3.19,3.19,0,0,1,2.59,0,1.1,1.1,0,0,1,.49.71,4.53,4.53,0,0,1,.09.91V29a2.42,2.42,0,0,0,.07.66.79.79,0,0,0,.18.39.83.83,0,0,0,.35.18,2.88,2.88,0,0,0,.55,0,4.13,4.13,0,0,1,1,.11,1,1,0,0,1,.66.45A2.13,2.13,0,0,1,195,32a2.39,2.39,0,0,1-.28,1.3,1,1,0,0,1-.71.48A5.41,5.41,0,0,1,193.08,33.88Z"/><path class="cls-2" d="M203.63,34.11a7.14,7.14,0,0,1-3-.58A5.72,5.72,0,0,1,198.55,32a6.51,6.51,0,0,1-1.2-2.09,7.09,7.09,0,0,1-.4-2.3,6.39,6.39,0,0,1,.86-3.32A6,6,0,0,1,200.17,22a7,7,0,0,1,3.46-.83,6.18,6.18,0,0,1,2.51.46,5.12,5.12,0,0,1,2.78,2.79,4.5,4.5,0,0,1,.33,1.62,2.82,2.82,0,0,1-.66,2.05,2.26,2.26,0,0,1-1.69.68h-6a1.78,1.78,0,0,0,.47,1.08,2.81,2.81,0,0,0,1,.7,3.5,3.5,0,0,0,1.33.25,7.94,7.94,0,0,0,1-.06,4.49,4.49,0,0,0,.79-.17l.59-.23.49-.19a2.53,2.53,0,0,1,.42-.1,1,1,0,0,1,.68.22,1.91,1.91,0,0,1,.57.71,1.71,1.71,0,0,1,.24.52,2.2,2.2,0,0,1,.06.5A1.34,1.34,0,0,1,208,33.1a4.73,4.73,0,0,1-1.73.74A11.53,11.53,0,0,1,203.63,34.11ZM201,26.71h4a1,1,0,0,0,.58-.13.65.65,0,0,0,.2-.54,1.21,1.21,0,0,0-.28-.78,1.77,1.77,0,0,0-.73-.54,3.27,3.27,0,0,0-2.44.12,2.44,2.44,0,0,0-.94.79A2,2,0,0,0,201,26.71Z"/><path class="cls-2" d="M220.12,33.9a2.46,2.46,0,0,1-1.31-.27,1.07,1.07,0,0,1-.5-.71,4.7,4.7,0,0,1-.09-.92V18.32a4.46,4.46,0,0,1,.09-.91,1.1,1.1,0,0,1,.49-.71,3.3,3.3,0,0,1,2.66,0,1.12,1.12,0,0,1,.48.71,5.49,5.49,0,0,1,.08.94V30.6h6.85a4.09,4.09,0,0,1,.8.08,1,1,0,0,1,.61.42,2.12,2.12,0,0,1,.24,1.15,2.08,2.08,0,0,1-.26,1.14,1,1,0,0,1-.61.44,3.87,3.87,0,0,1-.79.07Z"/><path class="cls-2" d="M234.51,19.6a2.48,2.48,0,0,1-1.35-.27,1.11,1.11,0,0,1-.49-.73,5.11,5.11,0,0,1,0-1.91,1.09,1.09,0,0,1,.5-.7,2.73,2.73,0,0,1,1.37-.26,2.35,2.35,0,0,1,1.32.28,1.09,1.09,0,0,1,.49.72,5.05,5.05,0,0,1,.08,1,5.62,5.62,0,0,1-.08.92,1.05,1.05,0,0,1-.49.71A2.54,2.54,0,0,1,234.51,19.6Zm0,14.31a2.57,2.57,0,0,1-1.33-.27,1,1,0,0,1-.47-.7,5.33,5.33,0,0,1-.07-.91V23.3a4.53,4.53,0,0,1,.09-.91,1.08,1.08,0,0,1,.49-.7,2.52,2.52,0,0,1,1.32-.26,2.24,2.24,0,0,1,1.29.28,1.1,1.1,0,0,1,.47.71,4.62,4.62,0,0,1,.09.94v8.7a4.53,4.53,0,0,1-.09.91,1.06,1.06,0,0,1-.48.69A2.6,2.6,0,0,1,234.5,33.91Z"/><path class="cls-2" d="M240.87,33.91a2.3,2.3,0,0,1-1.3-.28,1.08,1.08,0,0,1-.48-.71A4.53,4.53,0,0,1,239,32V17.63a4.59,4.59,0,0,1,.09-.93,1,1,0,0,1,.48-.7,2.47,2.47,0,0,1,1.33-.27,2.23,2.23,0,0,1,1.27.28,1.08,1.08,0,0,1,.45.71,3.91,3.91,0,0,1,.05.91V32.79a1.27,1.27,0,0,1-.52.84A2.25,2.25,0,0,1,240.87,33.91Zm4.85,0a4.41,4.41,0,0,1-2.15-.52A4.52,4.52,0,0,1,242,32a6.45,6.45,0,0,1-.93-2,8.5,8.5,0,0,1-.28-2.4,8.71,8.71,0,0,1,.32-2.35,6.42,6.42,0,0,1,.94-2,4.28,4.28,0,0,1,3.64-1.82,4.75,4.75,0,0,1,2.15.5,6.37,6.37,0,0,1,1.84,1.36,6.64,6.64,0,0,1,1.27,2,6,6,0,0,1,.46,2.33A6.32,6.32,0,0,1,251,30a6.54,6.54,0,0,1-1.27,2,5.83,5.83,0,0,1-1.82,1.36A5.11,5.11,0,0,1,245.72,33.89Zm-.49-3.7a2.41,2.41,0,0,0,1.25-.34,2.56,2.56,0,0,0,.88-.91,2.45,2.45,0,0,0,.34-1.28,2.6,2.6,0,0,0-.32-1.27,2.27,2.27,0,0,0-.89-.9,2.4,2.4,0,0,0-1.24-.33,2.28,2.28,0,0,0-1.23.34,2.31,2.31,0,0,0-.88.9,2.5,2.5,0,0,0-.31,1.26,2.58,2.58,0,0,0,.32,1.27,2.51,2.51,0,0,0,.88.92A2.26,2.26,0,0,0,245.23,30.19Z"/><path class="cls-2" d="M255.5,33.92a2.35,2.35,0,0,1-1.31-.27,1.07,1.07,0,0,1-.48-.71,4.7,4.7,0,0,1-.08-.92V23.29a4.42,4.42,0,0,1,.09-.92,1,1,0,0,1,.49-.69,2.42,2.42,0,0,1,1.32-.26,2.47,2.47,0,0,1,1.26.24,1,1,0,0,1,.49.55,1.68,1.68,0,0,1,.1.53l-.3.15a3.22,3.22,0,0,1,.26-.36,3.58,3.58,0,0,1,.59-.55,3.71,3.71,0,0,1,.91-.49,3.63,3.63,0,0,1,1.24-.19l.61,0a4.62,4.62,0,0,1,.7.15,3.41,3.41,0,0,1,.67.3,1.54,1.54,0,0,1,.48.47,1.13,1.13,0,0,1,.19.67,3,3,0,0,1-.48,1.74,1.4,1.4,0,0,1-1.2.71,2.11,2.11,0,0,1-.6-.06.92.92,0,0,1-.28-.15,1.17,1.17,0,0,0-.27-.15,1.61,1.61,0,0,0-.55-.07,2.77,2.77,0,0,0-.71.1,2.15,2.15,0,0,0-.62.32,1.32,1.32,0,0,0-.45.52,1.52,1.52,0,0,0-.17.71v5.48a4.46,4.46,0,0,1-.09.91,1,1,0,0,1-.49.69A2.53,2.53,0,0,1,255.5,33.92Z"/><path class="cls-2" d="M270.9,34.15a7.25,7.25,0,0,1-3-.57,6,6,0,0,1-2.07-1.52A6.3,6.3,0,0,1,264.63,30a6.83,6.83,0,0,1-.4-2.3,6.38,6.38,0,0,1,.85-3.32,6.11,6.11,0,0,1,2.36-2.29,7,7,0,0,1,3.47-.83,6.25,6.25,0,0,1,2.51.46,5.23,5.23,0,0,1,1.75,1.2,4.89,4.89,0,0,1,1,1.59,4.32,4.32,0,0,1,.34,1.62,2.77,2.77,0,0,1-.67,2,2.25,2.25,0,0,1-1.68.68h-5.95a1.71,1.71,0,0,0,.46,1.07,2.81,2.81,0,0,0,1,.7,3.5,3.5,0,0,0,1.33.25,8.22,8.22,0,0,0,1-.06,4.49,4.49,0,0,0,.79-.17c.21-.08.41-.15.58-.23l.49-.19a2.41,2.41,0,0,1,.43-.1,1,1,0,0,1,.67.22,2,2,0,0,1,.58.71,1.93,1.93,0,0,1,.23.52,2.2,2.2,0,0,1,.06.5,1.34,1.34,0,0,1-.61,1.09,4.68,4.68,0,0,1-1.72.74A11.62,11.62,0,0,1,270.9,34.15Zm-2.67-7.4h3.95a1,1,0,0,0,.57-.13.62.62,0,0,0,.2-.54,1.27,1.27,0,0,0-.27-.78,1.8,1.8,0,0,0-.74-.54,3.27,3.27,0,0,0-2.44.12,2.28,2.28,0,0,0-.93.8A1.84,1.84,0,0,0,268.23,26.75Z"/><path class="cls-3" d="M120.38,33.84a2.4,2.4,0,0,1-1.32-.28,1.14,1.14,0,0,1-.48-.72,4.08,4.08,0,0,1-.1-.93V18.26a3.85,3.85,0,0,1,.1-.91,1.11,1.11,0,0,1,.5-.71,2.33,2.33,0,0,1,1.32-.28h5.18a6.69,6.69,0,0,1,2.12.38,6.18,6.18,0,0,1,2,1.15,5.72,5.72,0,0,1,1.44,1.93,6.2,6.2,0,0,1,.55,2.72,6.68,6.68,0,0,1-.31,2,5.73,5.73,0,0,1-.94,1.8,6,6,0,0,1-1.55,1.4,6.75,6.75,0,0,1-2.13.86H122.3v3.3a3.91,3.91,0,0,1-.1.91,1.15,1.15,0,0,1-.5.71A2.35,2.35,0,0,1,120.38,33.84Zm1.93-9h3.47a2,2,0,0,0,.7-.13,2.21,2.21,0,0,0,.69-.41,2.08,2.08,0,0,0,.51-.73,2.52,2.52,0,0,0,.2-1.07,2.46,2.46,0,0,0-.3-1.25,2.09,2.09,0,0,0-.82-.82,2.54,2.54,0,0,0-1.23-.29h-3.22Zm8.62,8.48a2,2,0,0,1-1.48.54,2.24,2.24,0,0,1-1.15-1l-4.39-6.3,4.27-.55,3.22,4.63a3.18,3.18,0,0,1,.54,1,1,1,0,0,1-.13.8A3.25,3.25,0,0,1,130.93,33.34Z"/><path class="cls-3" d="M140.28,34.07a7.3,7.3,0,0,1-3-.57A5.86,5.86,0,0,1,135.2,32a6.51,6.51,0,0,1-1.2-2.09,7.09,7.09,0,0,1-.4-2.3,6.51,6.51,0,0,1,.86-3.32A6,6,0,0,1,136.82,22a7.11,7.11,0,0,1,3.46-.83,6.27,6.27,0,0,1,2.52.46,5.33,5.33,0,0,1,1.75,1.2,5.5,5.5,0,0,1,1,1.59,4.54,4.54,0,0,1,.34,1.63,2.89,2.89,0,0,1-.67,2,2.25,2.25,0,0,1-1.69.67h-6a1.77,1.77,0,0,0,.47,1.07,2.69,2.69,0,0,0,1,.7,3.5,3.5,0,0,0,1.33.25,7.94,7.94,0,0,0,1-.06,4.3,4.3,0,0,0,.79-.17c.22-.08.42-.15.59-.23l.49-.18a1.81,1.81,0,0,1,.42-.1,1,1,0,0,1,.68.21A2,2,0,0,1,145,31a1.65,1.65,0,0,1,.24.53,2.07,2.07,0,0,1,.06.5,1.32,1.32,0,0,1-.61,1.08,4.66,4.66,0,0,1-1.73.74A11.47,11.47,0,0,1,140.28,34.07Zm-2.67-7.4h3.94a1,1,0,0,0,.58-.13.62.62,0,0,0,.2-.54,1.27,1.27,0,0,0-.27-.78,1.76,1.76,0,0,0-.74-.53,2.8,2.8,0,0,0-1.09-.19,3,3,0,0,0-1.35.3,2.38,2.38,0,0,0-.94.8A1.9,1.9,0,0,0,137.61,26.67Z"/><path class="cls-3" d="M154.18,34a6.42,6.42,0,0,1-2.24-.42,6.92,6.92,0,0,1-2.1-1.21,5.92,5.92,0,0,1-1.54-2,6.35,6.35,0,0,1-.57-2.75,6.09,6.09,0,0,1,.58-2.73,6,6,0,0,1,1.52-2,6.87,6.87,0,0,1,2.09-1.21,6.37,6.37,0,0,1,2.21-.41,6.15,6.15,0,0,1,1.67.21,5.6,5.6,0,0,1,1.25.51,3.74,3.74,0,0,1,.73.53,7.16,7.16,0,0,1,.75.65,1.05,1.05,0,0,1,.3.85,1.56,1.56,0,0,1-.17.56,4.48,4.48,0,0,1-.38.59c-.52.7-1,1-1.5.95a2.58,2.58,0,0,1-.69-.25l-.6-.35a5,5,0,0,0-.61-.32,2,2,0,0,0-.75-.13,2.56,2.56,0,0,0-1.3.33,2.61,2.61,0,0,0-.91.9,2.69,2.69,0,0,0,0,2.62,2.53,2.53,0,0,0,.9.91,2.42,2.42,0,0,0,1.26.34,2.66,2.66,0,0,0,.72-.1,2.59,2.59,0,0,0,.55-.24l.35-.21a5.41,5.41,0,0,1,.58-.36,1,1,0,0,1,.55-.17,1.25,1.25,0,0,1,.74.27,4.28,4.28,0,0,1,.81.83,2.2,2.2,0,0,1,.49,1,1.18,1.18,0,0,1-.22.86,2.56,2.56,0,0,1-.85.76,3.69,3.69,0,0,1-.71.45,6.49,6.49,0,0,1-1.25.5A5.69,5.69,0,0,1,154.18,34Z"/><path class="cls-3" d="M167.13,34.06a6.21,6.21,0,0,1-2.34-.46,7.11,7.11,0,0,1-2.11-1.31,6.41,6.41,0,0,1-1.52-2,6.41,6.41,0,0,1,0-5.15A6.63,6.63,0,0,1,162.53,23a6.75,6.75,0,0,1,2.06-1.41,6,6,0,0,1,2.49-.52,6.33,6.33,0,0,1,3.26.87,6.4,6.4,0,0,1,2.34,2.34,6.71,6.71,0,0,1,.31,6,6.5,6.5,0,0,1-1.5,2,6.57,6.57,0,0,1-2.08,1.29A6.35,6.35,0,0,1,167.13,34.06Zm0-3.77a2.81,2.81,0,0,0,1.22-.3,2.67,2.67,0,0,0,1-.9,2.53,2.53,0,0,0,.43-1.52,2.74,2.74,0,0,0-.35-1.4,2.41,2.41,0,0,0-1-.94,2.83,2.83,0,0,0-1.41-.34,2.6,2.6,0,0,0-1.34.35,2.65,2.65,0,0,0-.95,1,2.7,2.7,0,0,0-.37,1.39,2.61,2.61,0,0,0,.42,1.51,2.47,2.47,0,0,0,1,.9A3,3,0,0,0,167.08,30.29Z"/><path class="cls-3" d="M177.45,33.87a2.48,2.48,0,0,1-1.31-.26,1.11,1.11,0,0,1-.48-.72,4.63,4.63,0,0,1-.08-.92V23.24a4.42,4.42,0,0,1,.09-.92,1.08,1.08,0,0,1,.49-.69,2.54,2.54,0,0,1,1.32-.26,2.52,2.52,0,0,1,1.27.24,1,1,0,0,1,.48.55,1.73,1.73,0,0,1,.1.54l-.3.15a2,2,0,0,1,.27-.37,3.92,3.92,0,0,1,.58-.55,3.46,3.46,0,0,1,.92-.48,3.34,3.34,0,0,1,1.23-.2,4.45,4.45,0,0,1,.61,0,3.22,3.22,0,0,1,.71.15,2.47,2.47,0,0,1,.66.3,1.51,1.51,0,0,1,.48.46,1.14,1.14,0,0,1,.19.68,3.08,3.08,0,0,1-.47,1.73,1.4,1.4,0,0,1-1.2.71,2,2,0,0,1-.6-.06.87.87,0,0,1-.29-.15,1.1,1.1,0,0,0-.26-.15,1.72,1.72,0,0,0-.55-.06,2.46,2.46,0,0,0-.72.1,1.9,1.9,0,0,0-.62.31,1.6,1.6,0,0,0-.45.52,1.53,1.53,0,0,0-.17.72V32a4.46,4.46,0,0,1-.09.91,1,1,0,0,1-.48.69A2.6,2.6,0,0,1,177.45,33.87Z"/><path class="cls-3" d="M187.43,21.58h2.75l3.45-.1a4.29,4.29,0,0,1,.9.09,1.08,1.08,0,0,1,.7.49,2.31,2.31,0,0,1,.28,1.32,2.25,2.25,0,0,1-.27,1.25,1.1,1.1,0,0,1-.69.51,3.36,3.36,0,0,1-.92.12l-3.27-.08-3,0a1.26,1.26,0,0,1-1-.46,2.55,2.55,0,0,1-.29-1.39,2.15,2.15,0,0,1,.35-1.34A1.27,1.27,0,0,1,187.43,21.58Zm5.65,12.3a7.45,7.45,0,0,1-2.2-.28,3.32,3.32,0,0,1-2.39-2.31,6.94,6.94,0,0,1-.29-2.11V19.05a4.15,4.15,0,0,1,.09-.92,1,1,0,0,1,.49-.66,3.19,3.19,0,0,1,2.59,0,1.1,1.1,0,0,1,.49.71,4.53,4.53,0,0,1,.09.91V29a2.42,2.42,0,0,0,.07.66.79.79,0,0,0,.18.39.83.83,0,0,0,.35.18,2.88,2.88,0,0,0,.55,0,4.13,4.13,0,0,1,1,.11,1,1,0,0,1,.66.45A2.13,2.13,0,0,1,195,32a2.39,2.39,0,0,1-.28,1.3,1,1,0,0,1-.71.48A5.41,5.41,0,0,1,193.08,33.88Z"/><path class="cls-3" d="M203.63,34.11a7.14,7.14,0,0,1-3-.58A5.72,5.72,0,0,1,198.55,32a6.51,6.51,0,0,1-1.2-2.09,7.09,7.09,0,0,1-.4-2.3,6.39,6.39,0,0,1,.86-3.32A6,6,0,0,1,200.17,22a7,7,0,0,1,3.46-.83,6.18,6.18,0,0,1,2.51.46,5.12,5.12,0,0,1,2.78,2.79,4.5,4.5,0,0,1,.33,1.62,2.82,2.82,0,0,1-.66,2.05,2.26,2.26,0,0,1-1.69.68h-6a1.78,1.78,0,0,0,.47,1.08,2.81,2.81,0,0,0,1,.7,3.5,3.5,0,0,0,1.33.25,7.94,7.94,0,0,0,1-.06,4.49,4.49,0,0,0,.79-.17l.59-.23.49-.19a2.53,2.53,0,0,1,.42-.1,1,1,0,0,1,.68.22,1.91,1.91,0,0,1,.57.71,1.71,1.71,0,0,1,.24.52,2.2,2.2,0,0,1,.06.5A1.34,1.34,0,0,1,208,33.1a4.73,4.73,0,0,1-1.73.74A11.53,11.53,0,0,1,203.63,34.11ZM201,26.71h4a1,1,0,0,0,.58-.13.65.65,0,0,0,.2-.54,1.21,1.21,0,0,0-.28-.78,1.77,1.77,0,0,0-.73-.54,3.27,3.27,0,0,0-2.44.12,2.44,2.44,0,0,0-.94.79A2,2,0,0,0,201,26.71Z"/><path class="cls-3" d="M220.12,33.9a2.46,2.46,0,0,1-1.31-.27,1.07,1.07,0,0,1-.5-.71,4.7,4.7,0,0,1-.09-.92V18.32a4.46,4.46,0,0,1,.09-.91,1.1,1.1,0,0,1,.49-.71,3.3,3.3,0,0,1,2.66,0,1.12,1.12,0,0,1,.48.71,5.49,5.49,0,0,1,.08.94V30.6h6.85a4.09,4.09,0,0,1,.8.08,1,1,0,0,1,.61.42,2.12,2.12,0,0,1,.24,1.15,2.08,2.08,0,0,1-.26,1.14,1,1,0,0,1-.61.44,3.87,3.87,0,0,1-.79.07Z"/><path class="cls-3" d="M234.51,19.6a2.48,2.48,0,0,1-1.35-.27,1.11,1.11,0,0,1-.49-.73,5.11,5.11,0,0,1,0-1.91,1.09,1.09,0,0,1,.5-.7,2.73,2.73,0,0,1,1.37-.26,2.35,2.35,0,0,1,1.32.28,1.09,1.09,0,0,1,.49.72,5.05,5.05,0,0,1,.08,1,5.62,5.62,0,0,1-.08.92,1.05,1.05,0,0,1-.49.71A2.54,2.54,0,0,1,234.51,19.6Zm0,14.31a2.57,2.57,0,0,1-1.33-.27,1,1,0,0,1-.47-.7,5.33,5.33,0,0,1-.07-.91V23.3a4.53,4.53,0,0,1,.09-.91,1.08,1.08,0,0,1,.49-.7,2.52,2.52,0,0,1,1.32-.26,2.24,2.24,0,0,1,1.29.28,1.1,1.1,0,0,1,.47.71,4.62,4.62,0,0,1,.09.94v8.7a4.53,4.53,0,0,1-.09.91,1.06,1.06,0,0,1-.48.69A2.6,2.6,0,0,1,234.5,33.91Z"/><path class="cls-3" d="M240.87,33.91a2.3,2.3,0,0,1-1.3-.28,1.08,1.08,0,0,1-.48-.71A4.53,4.53,0,0,1,239,32V17.63a4.59,4.59,0,0,1,.09-.93,1,1,0,0,1,.48-.7,2.47,2.47,0,0,1,1.33-.27,2.23,2.23,0,0,1,1.27.28,1.08,1.08,0,0,1,.45.71,3.91,3.91,0,0,1,.05.91V32.79a1.27,1.27,0,0,1-.52.84A2.25,2.25,0,0,1,240.87,33.91Zm4.85,0a4.41,4.41,0,0,1-2.15-.52A4.52,4.52,0,0,1,242,32a6.45,6.45,0,0,1-.93-2,8.5,8.5,0,0,1-.28-2.4,8.71,8.71,0,0,1,.32-2.35,6.42,6.42,0,0,1,.94-2,4.28,4.28,0,0,1,3.64-1.82,4.75,4.75,0,0,1,2.15.5,6.37,6.37,0,0,1,1.84,1.36,6.64,6.64,0,0,1,1.27,2,6,6,0,0,1,.46,2.33A6.32,6.32,0,0,1,251,30a6.54,6.54,0,0,1-1.27,2,5.83,5.83,0,0,1-1.82,1.36A5.11,5.11,0,0,1,245.72,33.89Zm-.49-3.7a2.41,2.41,0,0,0,1.25-.34,2.56,2.56,0,0,0,.88-.91,2.45,2.45,0,0,0,.34-1.28,2.6,2.6,0,0,0-.32-1.27,2.27,2.27,0,0,0-.89-.9,2.4,2.4,0,0,0-1.24-.33,2.28,2.28,0,0,0-1.23.34,2.31,2.31,0,0,0-.88.9,2.5,2.5,0,0,0-.31,1.26,2.58,2.58,0,0,0,.32,1.27,2.51,2.51,0,0,0,.88.92A2.26,2.26,0,0,0,245.23,30.19Z"/><path class="cls-3" d="M255.5,33.92a2.35,2.35,0,0,1-1.31-.27,1.07,1.07,0,0,1-.48-.71,4.7,4.7,0,0,1-.08-.92V23.29a4.42,4.42,0,0,1,.09-.92,1,1,0,0,1,.49-.69,2.42,2.42,0,0,1,1.32-.26,2.47,2.47,0,0,1,1.26.24,1,1,0,0,1,.49.55,1.68,1.68,0,0,1,.1.53l-.3.15a3.22,3.22,0,0,1,.26-.36,3.58,3.58,0,0,1,.59-.55,3.71,3.71,0,0,1,.91-.49,3.63,3.63,0,0,1,1.24-.19l.61,0a4.62,4.62,0,0,1,.7.15,3.41,3.41,0,0,1,.67.3,1.54,1.54,0,0,1,.48.47,1.13,1.13,0,0,1,.19.67,3,3,0,0,1-.48,1.74,1.4,1.4,0,0,1-1.2.71,2.11,2.11,0,0,1-.6-.06.92.92,0,0,1-.28-.15,1.17,1.17,0,0,0-.27-.15,1.61,1.61,0,0,0-.55-.07,2.77,2.77,0,0,0-.71.1,2.15,2.15,0,0,0-.62.32,1.32,1.32,0,0,0-.45.52,1.52,1.52,0,0,0-.17.71v5.48a4.46,4.46,0,0,1-.09.91,1,1,0,0,1-.49.69A2.53,2.53,0,0,1,255.5,33.92Z"/><path class="cls-3" d="M270.9,34.15a7.25,7.25,0,0,1-3-.57,6,6,0,0,1-2.07-1.52A6.3,6.3,0,0,1,264.63,30a6.83,6.83,0,0,1-.4-2.3,6.38,6.38,0,0,1,.85-3.32,6.11,6.11,0,0,1,2.36-2.29,7,7,0,0,1,3.47-.83,6.25,6.25,0,0,1,2.51.46,5.23,5.23,0,0,1,1.75,1.2,4.89,4.89,0,0,1,1,1.59,4.32,4.32,0,0,1,.34,1.62,2.77,2.77,0,0,1-.67,2,2.25,2.25,0,0,1-1.68.68h-5.95a1.71,1.71,0,0,0,.46,1.07,2.81,2.81,0,0,0,1,.7,3.5,3.5,0,0,0,1.33.25,8.22,8.22,0,0,0,1-.06,4.49,4.49,0,0,0,.79-.17c.21-.08.41-.15.58-.23l.49-.19a2.41,2.41,0,0,1,.43-.1,1,1,0,0,1,.67.22,2,2,0,0,1,.58.71,1.93,1.93,0,0,1,.23.52,2.2,2.2,0,0,1,.06.5,1.34,1.34,0,0,1-.61,1.09,4.68,4.68,0,0,1-1.72.74A11.62,11.62,0,0,1,270.9,34.15Zm-2.67-7.4h3.95a1,1,0,0,0,.57-.13.62.62,0,0,0,.2-.54,1.27,1.27,0,0,0-.27-.78,1.8,1.8,0,0,0-.74-.54,3.27,3.27,0,0,0-2.44.12,2.28,2.28,0,0,0-.93.8A1.84,1.84,0,0,0,268.23,26.75Z"/><path class="cls-2" d="M120.38,33.84a2.4,2.4,0,0,1-1.32-.28,1.14,1.14,0,0,1-.48-.72,4.08,4.08,0,0,1-.1-.93V18.26a3.85,3.85,0,0,1,.1-.91,1.11,1.11,0,0,1,.5-.71,2.33,2.33,0,0,1,1.32-.28h5.18a6.69,6.69,0,0,1,2.12.38,6.18,6.18,0,0,1,2,1.15,5.72,5.72,0,0,1,1.44,1.93,6.2,6.2,0,0,1,.55,2.72,6.68,6.68,0,0,1-.31,2,5.73,5.73,0,0,1-.94,1.8,6,6,0,0,1-1.55,1.4,6.75,6.75,0,0,1-2.13.86H122.3v3.3a3.91,3.91,0,0,1-.1.91,1.15,1.15,0,0,1-.5.71A2.35,2.35,0,0,1,120.38,33.84Zm1.93-9h3.47a2,2,0,0,0,.7-.13,2.21,2.21,0,0,0,.69-.41,2.08,2.08,0,0,0,.51-.73,2.52,2.52,0,0,0,.2-1.07,2.46,2.46,0,0,0-.3-1.25,2.09,2.09,0,0,0-.82-.82,2.54,2.54,0,0,0-1.23-.29h-3.22Zm8.62,8.48a2,2,0,0,1-1.48.54,2.24,2.24,0,0,1-1.15-1l-4.39-6.3,4.27-.55,3.22,4.63a3.18,3.18,0,0,1,.54,1,1,1,0,0,1-.13.8A3.25,3.25,0,0,1,130.93,33.34Z"/><path class="cls-2" d="M140.28,34.07a7.3,7.3,0,0,1-3-.57A5.86,5.86,0,0,1,135.2,32a6.51,6.51,0,0,1-1.2-2.09,7.09,7.09,0,0,1-.4-2.3,6.51,6.51,0,0,1,.86-3.32A6,6,0,0,1,136.82,22a7.11,7.11,0,0,1,3.46-.83,6.27,6.27,0,0,1,2.52.46,5.33,5.33,0,0,1,1.75,1.2,5.5,5.5,0,0,1,1,1.59,4.54,4.54,0,0,1,.34,1.63,2.89,2.89,0,0,1-.67,2,2.25,2.25,0,0,1-1.69.67h-6a1.77,1.77,0,0,0,.47,1.07,2.69,2.69,0,0,0,1,.7,3.5,3.5,0,0,0,1.33.25,7.94,7.94,0,0,0,1-.06,4.3,4.3,0,0,0,.79-.17c.22-.08.42-.15.59-.23l.49-.18a1.81,1.81,0,0,1,.42-.1,1,1,0,0,1,.68.21A2,2,0,0,1,145,31a1.65,1.65,0,0,1,.24.53,2.07,2.07,0,0,1,.06.5,1.32,1.32,0,0,1-.61,1.08,4.66,4.66,0,0,1-1.73.74A11.47,11.47,0,0,1,140.28,34.07Zm-2.67-7.4h3.94a1,1,0,0,0,.58-.13.62.62,0,0,0,.2-.54,1.27,1.27,0,0,0-.27-.78,1.76,1.76,0,0,0-.74-.53,2.8,2.8,0,0,0-1.09-.19,3,3,0,0,0-1.35.3,2.38,2.38,0,0,0-.94.8A1.9,1.9,0,0,0,137.61,26.67Z"/><path class="cls-2" d="M154.18,34a6.42,6.42,0,0,1-2.24-.42,6.92,6.92,0,0,1-2.1-1.21,5.92,5.92,0,0,1-1.54-2,6.35,6.35,0,0,1-.57-2.75,6.09,6.09,0,0,1,.58-2.73,6,6,0,0,1,1.52-2,6.87,6.87,0,0,1,2.09-1.21,6.37,6.37,0,0,1,2.21-.41,6.15,6.15,0,0,1,1.67.21,5.6,5.6,0,0,1,1.25.51,3.74,3.74,0,0,1,.73.53,7.16,7.16,0,0,1,.75.65,1.05,1.05,0,0,1,.3.85,1.56,1.56,0,0,1-.17.56,4.48,4.48,0,0,1-.38.59c-.52.7-1,1-1.5.95a2.58,2.58,0,0,1-.69-.25l-.6-.35a5,5,0,0,0-.61-.32,2,2,0,0,0-.75-.13,2.56,2.56,0,0,0-1.3.33,2.61,2.61,0,0,0-.91.9,2.69,2.69,0,0,0,0,2.62,2.53,2.53,0,0,0,.9.91,2.42,2.42,0,0,0,1.26.34,2.66,2.66,0,0,0,.72-.1,2.59,2.59,0,0,0,.55-.24l.35-.21a5.41,5.41,0,0,1,.58-.36,1,1,0,0,1,.55-.17,1.25,1.25,0,0,1,.74.27,4.28,4.28,0,0,1,.81.83,2.2,2.2,0,0,1,.49,1,1.18,1.18,0,0,1-.22.86,2.56,2.56,0,0,1-.85.76,3.69,3.69,0,0,1-.71.45,6.49,6.49,0,0,1-1.25.5A5.69,5.69,0,0,1,154.18,34Z"/><path class="cls-2" d="M167.13,34.06a6.21,6.21,0,0,1-2.34-.46,7.11,7.11,0,0,1-2.11-1.31,6.41,6.41,0,0,1-1.52-2,6.41,6.41,0,0,1,0-5.15A6.63,6.63,0,0,1,162.53,23a6.75,6.75,0,0,1,2.06-1.41,6,6,0,0,1,2.49-.52,6.33,6.33,0,0,1,3.26.87,6.4,6.4,0,0,1,2.34,2.34,6.71,6.71,0,0,1,.31,6,6.5,6.5,0,0,1-1.5,2,6.57,6.57,0,0,1-2.08,1.29A6.35,6.35,0,0,1,167.13,34.06Zm0-3.77a2.81,2.81,0,0,0,1.22-.3,2.67,2.67,0,0,0,1-.9,2.53,2.53,0,0,0,.43-1.52,2.74,2.74,0,0,0-.35-1.4,2.41,2.41,0,0,0-1-.94,2.83,2.83,0,0,0-1.41-.34,2.6,2.6,0,0,0-1.34.35,2.65,2.65,0,0,0-.95,1,2.7,2.7,0,0,0-.37,1.39,2.61,2.61,0,0,0,.42,1.51,2.47,2.47,0,0,0,1,.9A3,3,0,0,0,167.08,30.29Z"/><path class="cls-2" d="M177.45,33.87a2.48,2.48,0,0,1-1.31-.26,1.11,1.11,0,0,1-.48-.72,4.63,4.63,0,0,1-.08-.92V23.24a4.42,4.42,0,0,1,.09-.92,1.08,1.08,0,0,1,.49-.69,2.54,2.54,0,0,1,1.32-.26,2.52,2.52,0,0,1,1.27.24,1,1,0,0,1,.48.55,1.73,1.73,0,0,1,.1.54l-.3.15a2,2,0,0,1,.27-.37,3.92,3.92,0,0,1,.58-.55,3.46,3.46,0,0,1,.92-.48,3.34,3.34,0,0,1,1.23-.2,4.45,4.45,0,0,1,.61,0,3.22,3.22,0,0,1,.71.15,2.47,2.47,0,0,1,.66.3,1.51,1.51,0,0,1,.48.46,1.14,1.14,0,0,1,.19.68,3.08,3.08,0,0,1-.47,1.73,1.4,1.4,0,0,1-1.2.71,2,2,0,0,1-.6-.06.87.87,0,0,1-.29-.15,1.1,1.1,0,0,0-.26-.15,1.72,1.72,0,0,0-.55-.06,2.46,2.46,0,0,0-.72.1,1.9,1.9,0,0,0-.62.31,1.6,1.6,0,0,0-.45.52,1.53,1.53,0,0,0-.17.72V32a4.46,4.46,0,0,1-.09.91,1,1,0,0,1-.48.69A2.6,2.6,0,0,1,177.45,33.87Z"/><path class="cls-2" d="M187.43,21.58h2.75l3.45-.1a4.29,4.29,0,0,1,.9.09,1.08,1.08,0,0,1,.7.49,2.31,2.31,0,0,1,.28,1.32,2.25,2.25,0,0,1-.27,1.25,1.1,1.1,0,0,1-.69.51,3.36,3.36,0,0,1-.92.12l-3.27-.08-3,0a1.26,1.26,0,0,1-1-.46,2.55,2.55,0,0,1-.29-1.39,2.15,2.15,0,0,1,.35-1.34A1.27,1.27,0,0,1,187.43,21.58Zm5.65,12.3a7.45,7.45,0,0,1-2.2-.28,3.32,3.32,0,0,1-2.39-2.31,6.94,6.94,0,0,1-.29-2.11V19.05a4.15,4.15,0,0,1,.09-.92,1,1,0,0,1,.49-.66,3.19,3.19,0,0,1,2.59,0,1.1,1.1,0,0,1,.49.71,4.53,4.53,0,0,1,.09.91V29a2.42,2.42,0,0,0,.07.66.79.79,0,0,0,.18.39.83.83,0,0,0,.35.18,2.88,2.88,0,0,0,.55,0,4.13,4.13,0,0,1,1,.11,1,1,0,0,1,.66.45A2.13,2.13,0,0,1,195,32a2.39,2.39,0,0,1-.28,1.3,1,1,0,0,1-.71.48A5.41,5.41,0,0,1,193.08,33.88Z"/><path class="cls-2" d="M203.63,34.11a7.14,7.14,0,0,1-3-.58A5.72,5.72,0,0,1,198.55,32a6.51,6.51,0,0,1-1.2-2.09,7.09,7.09,0,0,1-.4-2.3,6.39,6.39,0,0,1,.86-3.32A6,6,0,0,1,200.17,22a7,7,0,0,1,3.46-.83,6.18,6.18,0,0,1,2.51.46,5.12,5.12,0,0,1,2.78,2.79,4.5,4.5,0,0,1,.33,1.62,2.82,2.82,0,0,1-.66,2.05,2.26,2.26,0,0,1-1.69.68h-6a1.78,1.78,0,0,0,.47,1.08,2.81,2.81,0,0,0,1,.7,3.5,3.5,0,0,0,1.33.25,7.94,7.94,0,0,0,1-.06,4.49,4.49,0,0,0,.79-.17l.59-.23.49-.19a2.53,2.53,0,0,1,.42-.1,1,1,0,0,1,.68.22,1.91,1.91,0,0,1,.57.71,1.71,1.71,0,0,1,.24.52,2.2,2.2,0,0,1,.06.5A1.34,1.34,0,0,1,208,33.1a4.73,4.73,0,0,1-1.73.74A11.53,11.53,0,0,1,203.63,34.11ZM201,26.71h4a1,1,0,0,0,.58-.13.65.65,0,0,0,.2-.54,1.21,1.21,0,0,0-.28-.78,1.77,1.77,0,0,0-.73-.54,3.27,3.27,0,0,0-2.44.12,2.44,2.44,0,0,0-.94.79A2,2,0,0,0,201,26.71Z"/><path class="cls-2" d="M220.12,33.9a2.46,2.46,0,0,1-1.31-.27,1.07,1.07,0,0,1-.5-.71,4.7,4.7,0,0,1-.09-.92V18.32a4.46,4.46,0,0,1,.09-.91,1.1,1.1,0,0,1,.49-.71,3.3,3.3,0,0,1,2.66,0,1.12,1.12,0,0,1,.48.71,5.49,5.49,0,0,1,.08.94V30.6h6.85a4.09,4.09,0,0,1,.8.08,1,1,0,0,1,.61.42,2.12,2.12,0,0,1,.24,1.15,2.08,2.08,0,0,1-.26,1.14,1,1,0,0,1-.61.44,3.87,3.87,0,0,1-.79.07Z"/><path class="cls-2" d="M234.51,19.6a2.48,2.48,0,0,1-1.35-.27,1.11,1.11,0,0,1-.49-.73,5.11,5.11,0,0,1,0-1.91,1.09,1.09,0,0,1,.5-.7,2.73,2.73,0,0,1,1.37-.26,2.35,2.35,0,0,1,1.32.28,1.09,1.09,0,0,1,.49.72,5.05,5.05,0,0,1,.08,1,5.62,5.62,0,0,1-.08.92,1.05,1.05,0,0,1-.49.71A2.54,2.54,0,0,1,234.51,19.6Zm0,14.31a2.57,2.57,0,0,1-1.33-.27,1,1,0,0,1-.47-.7,5.33,5.33,0,0,1-.07-.91V23.3a4.53,4.53,0,0,1,.09-.91,1.08,1.08,0,0,1,.49-.7,2.52,2.52,0,0,1,1.32-.26,2.24,2.24,0,0,1,1.29.28,1.1,1.1,0,0,1,.47.71,4.62,4.62,0,0,1,.09.94v8.7a4.53,4.53,0,0,1-.09.91,1.06,1.06,0,0,1-.48.69A2.6,2.6,0,0,1,234.5,33.91Z"/><path class="cls-2" d="M240.87,33.91a2.3,2.3,0,0,1-1.3-.28,1.08,1.08,0,0,1-.48-.71A4.53,4.53,0,0,1,239,32V17.63a4.59,4.59,0,0,1,.09-.93,1,1,0,0,1,.48-.7,2.47,2.47,0,0,1,1.33-.27,2.23,2.23,0,0,1,1.27.28,1.08,1.08,0,0,1,.45.71,3.91,3.91,0,0,1,.05.91V32.79a1.27,1.27,0,0,1-.52.84A2.25,2.25,0,0,1,240.87,33.91Zm4.85,0a4.41,4.41,0,0,1-2.15-.52A4.52,4.52,0,0,1,242,32a6.45,6.45,0,0,1-.93-2,8.5,8.5,0,0,1-.28-2.4,8.71,8.71,0,0,1,.32-2.35,6.42,6.42,0,0,1,.94-2,4.28,4.28,0,0,1,3.64-1.82,4.75,4.75,0,0,1,2.15.5,6.37,6.37,0,0,1,1.84,1.36,6.64,6.64,0,0,1,1.27,2,6,6,0,0,1,.46,2.33A6.32,6.32,0,0,1,251,30a6.54,6.54,0,0,1-1.27,2,5.83,5.83,0,0,1-1.82,1.36A5.11,5.11,0,0,1,245.72,33.89Zm-.49-3.7a2.41,2.41,0,0,0,1.25-.34,2.56,2.56,0,0,0,.88-.91,2.45,2.45,0,0,0,.34-1.28,2.6,2.6,0,0,0-.32-1.27,2.27,2.27,0,0,0-.89-.9,2.4,2.4,0,0,0-1.24-.33,2.28,2.28,0,0,0-1.23.34,2.31,2.31,0,0,0-.88.9,2.5,2.5,0,0,0-.31,1.26,2.58,2.58,0,0,0,.32,1.27,2.51,2.51,0,0,0,.88.92A2.26,2.26,0,0,0,245.23,30.19Z"/><path class="cls-2" d="M255.5,33.92a2.35,2.35,0,0,1-1.31-.27,1.07,1.07,0,0,1-.48-.71,4.7,4.7,0,0,1-.08-.92V23.29a4.42,4.42,0,0,1,.09-.92,1,1,0,0,1,.49-.69,2.42,2.42,0,0,1,1.32-.26,2.47,2.47,0,0,1,1.26.24,1,1,0,0,1,.49.55,1.68,1.68,0,0,1,.1.53l-.3.15a3.22,3.22,0,0,1,.26-.36,3.58,3.58,0,0,1,.59-.55,3.71,3.71,0,0,1,.91-.49,3.63,3.63,0,0,1,1.24-.19l.61,0a4.62,4.62,0,0,1,.7.15,3.41,3.41,0,0,1,.67.3,1.54,1.54,0,0,1,.48.47,1.13,1.13,0,0,1,.19.67,3,3,0,0,1-.48,1.74,1.4,1.4,0,0,1-1.2.71,2.11,2.11,0,0,1-.6-.06.92.92,0,0,1-.28-.15,1.17,1.17,0,0,0-.27-.15,1.61,1.61,0,0,0-.55-.07,2.77,2.77,0,0,0-.71.1,2.15,2.15,0,0,0-.62.32,1.32,1.32,0,0,0-.45.52,1.52,1.52,0,0,0-.17.71v5.48a4.46,4.46,0,0,1-.09.91,1,1,0,0,1-.49.69A2.53,2.53,0,0,1,255.5,33.92Z"/><path class="cls-2" d="M270.9,34.15a7.25,7.25,0,0,1-3-.57,6,6,0,0,1-2.07-1.52A6.3,6.3,0,0,1,264.63,30a6.83,6.83,0,0,1-.4-2.3,6.38,6.38,0,0,1,.85-3.32,6.11,6.11,0,0,1,2.36-2.29,7,7,0,0,1,3.47-.83,6.25,6.25,0,0,1,2.51.46,5.23,5.23,0,0,1,1.75,1.2,4.89,4.89,0,0,1,1,1.59,4.32,4.32,0,0,1,.34,1.62,2.77,2.77,0,0,1-.67,2,2.25,2.25,0,0,1-1.68.68h-5.95a1.71,1.71,0,0,0,.46,1.07,2.81,2.81,0,0,0,1,.7,3.5,3.5,0,0,0,1.33.25,8.22,8.22,0,0,0,1-.06,4.49,4.49,0,0,0,.79-.17c.21-.08.41-.15.58-.23l.49-.19a2.41,2.41,0,0,1,.43-.1,1,1,0,0,1,.67.22,2,2,0,0,1,.58.71,1.93,1.93,0,0,1,.23.52,2.2,2.2,0,0,1,.06.5,1.34,1.34,0,0,1-.61,1.09,4.68,4.68,0,0,1-1.72.74A11.62,11.62,0,0,1,270.9,34.15Zm-2.67-7.4h3.95a1,1,0,0,0,.57-.13.62.62,0,0,0,.2-.54,1.27,1.27,0,0,0-.27-.78,1.8,1.8,0,0,0-.74-.54,3.27,3.27,0,0,0-2.44.12,2.28,2.28,0,0,0-.93.8A1.84,1.84,0,0,0,268.23,26.75Z"/><text class="cls-4" transform="matrix(0.97, 0, 0, 1, 35.48, 38.89)">2<tspan class="cls-5" x="24.44" y="0">.</tspan><tspan x="32.13" y="0">4</tspan></text><text class="cls-6" transform="matrix(0.97, 0, 0, 1, 35.48, 38.89)">2<tspan class="cls-5" x="24.44" y="0">.</tspan><tspan x="32.13" y="0">4</tspan></text></g></g></svg>