<svg xmlns="http://www.w3.org/2000/svg" viewBox="0 0 399.98 138.05"><defs><style>.cls-1{fill:#0468ad;}.cls-2{fill:#fff;}.cls-3,.cls-4{fill:none;stroke-width:5px;}.cls-3{stroke:#c8a927;stroke-miterlimit:10;}.cls-4,.cls-7{font-size:37px;font-family:Coiny-Regular, Coiny;}.cls-4{stroke:#fff;}.cls-5{letter-spacing:-0.11em;}.cls-6{letter-spacing:0em;}.cls-7{fill:#c8a927;}</style></defs><title>3.1plegado</title><g id="Layer_2" data-name="Layer 2"><g id="pestaña_identificativa" data-name="pestaña identificativa"><path class="cls-1" d="M368.29,0H43.76A43.76,43.76,0,0,0,0,43.76v94.29H400V31.69A31.69,31.69,0,0,0,368.29,0Z"/><path class="cls-2" d="M120.37,33.84a2.37,2.37,0,0,1-1.33-.28,1.11,1.11,0,0,1-.48-.72,4.73,4.73,0,0,1-.09-.93V18.26a3.91,3.91,0,0,1,.1-.91,1.15,1.15,0,0,1,.5-.71,2.46,2.46,0,0,1,1.32-.27h5.13a6.37,6.37,0,0,1,2.1.37,6.21,6.21,0,0,1,2,1.17,6,6,0,0,1,1.47,1.94,6.11,6.11,0,0,1,.56,2.7,5.78,5.78,0,0,1-2,4.6,6.31,6.31,0,0,1-2,1.14,6.42,6.42,0,0,1-2.12.38h-3.2v3.27a3.85,3.85,0,0,1-.1.91,1.13,1.13,0,0,1-.5.72A2.41,2.41,0,0,1,120.37,33.84Zm1.93-9h3.22a2.65,2.65,0,0,0,1.09-.24,2.12,2.12,0,0,0,.9-.76,2.59,2.59,0,0,0,0-2.58,2.18,2.18,0,0,0-.83-.82,2.44,2.44,0,0,0-1.23-.3h-3.2Z"/><path class="cls-2" d="M138.57,33.85a14.41,14.41,0,0,1-1.83-.1,3.9,3.9,0,0,1-1.35-.4,2.58,2.58,0,0,1-.9-.84,4.21,4.21,0,0,1-.52-1.37,10.15,10.15,0,0,1-.17-2.07V17.52a4.4,4.4,0,0,1,.1-.92,1.18,1.18,0,0,1,.49-.7,2.38,2.38,0,0,1,1.31-.28,2.33,2.33,0,0,1,1.29.28,1.18,1.18,0,0,1,.49.7,3.84,3.84,0,0,1,.1.93V28.9a4,4,0,0,0,0,.66.8.8,0,0,0,.15.42.56.56,0,0,0,.31.2,2.44,2.44,0,0,0,.53.05,2.6,2.6,0,0,1,.61.07.89.89,0,0,1,.54.45A2.58,2.58,0,0,1,140,32a2.76,2.76,0,0,1-.23,1.3.89.89,0,0,1-.53.48A2.73,2.73,0,0,1,138.57,33.85Z"/><path class="cls-2" d="M148,34.08a7.12,7.12,0,0,1-3-.58A5.72,5.72,0,0,1,142.92,32a6.51,6.51,0,0,1-1.2-2.09,6.83,6.83,0,0,1-.4-2.3,6.48,6.48,0,0,1,.85-3.32A6.14,6.14,0,0,1,144.54,22a7,7,0,0,1,3.46-.83,6.22,6.22,0,0,1,2.51.46,5.23,5.23,0,0,1,1.75,1.2,5.1,5.1,0,0,1,1,1.59,4.51,4.51,0,0,1,.33,1.63,2.81,2.81,0,0,1-.66,2,2.28,2.28,0,0,1-1.69.68h-6a1.77,1.77,0,0,0,.46,1.08,2.85,2.85,0,0,0,1,.7,3.5,3.5,0,0,0,1.33.25,8.05,8.05,0,0,0,1-.06,4.49,4.49,0,0,0,.79-.17l.59-.23.49-.19a2.53,2.53,0,0,1,.42-.1,1.06,1.06,0,0,1,.68.22,2.11,2.11,0,0,1,.57.71,1.71,1.71,0,0,1,.24.52,2.2,2.2,0,0,1,.06.5,1.36,1.36,0,0,1-.61,1.09,4.91,4.91,0,0,1-1.73.74A11.56,11.56,0,0,1,148,34.08Zm-2.67-7.4h4a1,1,0,0,0,.58-.14.61.61,0,0,0,.2-.53,1.21,1.21,0,0,0-.28-.78,1.84,1.84,0,0,0-.73-.54,3.27,3.27,0,0,0-2.44.12,2.38,2.38,0,0,0-.94.8A1.91,1.91,0,0,0,145.32,26.68Z"/><path class="cls-2" d="M160.89,33.54a4.88,4.88,0,0,1-2.16-.49,5.8,5.8,0,0,1-1.79-1.34,6.5,6.5,0,0,1-1.22-1.95,6.21,6.21,0,0,1,0-4.64A6.46,6.46,0,0,1,157,23.2a6.28,6.28,0,0,1,1.8-1.33,4.9,4.9,0,0,1,2.12-.48,3.84,3.84,0,0,1,1.9.44A3.31,3.31,0,0,1,164,23.08a6.4,6.4,0,0,1,.72,1.92,12.71,12.71,0,0,1,.23,2.49,11.23,11.23,0,0,1-.41,3.21,4.27,4.27,0,0,1-1.3,2.1A3.61,3.61,0,0,1,160.89,33.54Zm.45,5.47a6.9,6.9,0,0,1-1.76-.22,7.49,7.49,0,0,1-1.59-.6,4.71,4.71,0,0,1-1.15-.8,1.25,1.25,0,0,1-.42-.85,1.78,1.78,0,0,1,.15-.74,2.28,2.28,0,0,1,.45-.66,6.14,6.14,0,0,1,.6-.58.92.92,0,0,1,.6-.2,1.11,1.11,0,0,1,.62.19l.59.41a3.84,3.84,0,0,0,.79.42,3.37,3.37,0,0,0,1.2.18,2.41,2.41,0,0,0,.93-.18,2,2,0,0,0,.75-.55,3,3,0,0,0,.51-.85,3.16,3.16,0,0,0,.18-1.09V22.54a1.25,1.25,0,0,1,.51-.94,2.5,2.5,0,0,1,1.34-.28,2.31,2.31,0,0,1,1.25.26,1.11,1.11,0,0,1,.46.69,4.29,4.29,0,0,1,.09.9V33a5.88,5.88,0,0,1-.52,2.54,5.75,5.75,0,0,1-1.4,1.88,6.6,6.6,0,0,1-2,1.16A6.18,6.18,0,0,1,161.34,39Zm0-9.1a2.21,2.21,0,0,0,1.2-.33,2.56,2.56,0,0,0,.84-.89,2.68,2.68,0,0,0,0-2.5,2.29,2.29,0,0,0-.85-.87A2.27,2.27,0,0,0,161.3,25a2.13,2.13,0,0,0-1.2.34,2.53,2.53,0,0,0-.84.88,2.49,2.49,0,0,0-.31,1.25,2.35,2.35,0,0,0,.32,1.23,2.62,2.62,0,0,0,.86.89A2.25,2.25,0,0,0,161.32,29.91Z"/><path class="cls-2" d="M180.22,33.85a2.42,2.42,0,0,1-1.38-.32.9.9,0,0,1-.42-.8l.25-.43a2.59,2.59,0,0,1-.58.61,4.11,4.11,0,0,1-1.11.65,4.33,4.33,0,0,1-1.66.29,5,5,0,0,1-2.19-.5A6.17,6.17,0,0,1,171.29,32a7.12,7.12,0,0,1-1.27-2,6.13,6.13,0,0,1,0-4.71,6.72,6.72,0,0,1,1.29-2,6.19,6.19,0,0,1,1.84-1.36,4.81,4.81,0,0,1,2.18-.5,4.3,4.3,0,0,1,1.57.26,4.65,4.65,0,0,1,1.09.61,3.45,3.45,0,0,1,.66.68l-.23-.35a1.05,1.05,0,0,1,.44-.91,2.42,2.42,0,0,1,1.39-.31,2.34,2.34,0,0,1,1.29.27,1.15,1.15,0,0,1,.47.73,4.79,4.79,0,0,1,.09.95V32a5.64,5.64,0,0,1-.08.93,1.09,1.09,0,0,1-.48.71A2.5,2.5,0,0,1,180.22,33.85Zm-4.38-3.73a2.18,2.18,0,0,0,1.2-.33,2.54,2.54,0,0,0,.86-.92,2.58,2.58,0,0,0,.32-1.27,2.62,2.62,0,0,0-.32-1.29,2.5,2.5,0,0,0-.88-.89,2.39,2.39,0,0,0-1.22-.32,2.33,2.33,0,0,0-1.26.34,2.48,2.48,0,0,0-.91.91,2.54,2.54,0,0,0-.33,1.3,2.36,2.36,0,0,0,.33,1.23,2.62,2.62,0,0,0,.93.91A2.57,2.57,0,0,0,175.84,30.12Z"/><path class="cls-2" d="M189.94,33.86a5.06,5.06,0,0,1-2.17-.49A5.9,5.9,0,0,1,185.94,32a6.7,6.7,0,0,1-1.26-2,6.3,6.3,0,0,1-.46-2.41,6.18,6.18,0,0,1,.46-2.34,6.5,6.5,0,0,1,1.28-2,6.19,6.19,0,0,1,1.84-1.36,4.75,4.75,0,0,1,2.15-.5,4.35,4.35,0,0,1,2.11.49,4.44,4.44,0,0,1,1.53,1.33,6.46,6.46,0,0,1,.93,2,9.08,9.08,0,0,1,.35,2.35,9.28,9.28,0,0,1-.3,2.4,6,6,0,0,1-.93,2,4.7,4.7,0,0,1-1.55,1.39A4.35,4.35,0,0,1,189.94,33.86Zm.5-3.7a2.31,2.31,0,0,0,1.22-.34,2.53,2.53,0,0,0,.87-.91,2.43,2.43,0,0,0,.34-1.28,2.56,2.56,0,0,0-.32-1.26,2.61,2.61,0,0,0-.88-.9,2.36,2.36,0,0,0-1.25-.34,2.42,2.42,0,0,0-1.24.33,2.22,2.22,0,0,0-.87.9,2.57,2.57,0,0,0-.31,1.27,2.46,2.46,0,0,0,1.22,2.19A2.41,2.41,0,0,0,190.44,30.16Zm4.35,3.72a2.34,2.34,0,0,1-1.26-.27,1.31,1.31,0,0,1-.54-.85V17.61a6.62,6.62,0,0,1,.06-.91,1.11,1.11,0,0,1,.44-.72,2.28,2.28,0,0,1,1.28-.27,2.47,2.47,0,0,1,1.32.26,1.19,1.19,0,0,1,.48.69,4.42,4.42,0,0,1,.1.93V32a4.53,4.53,0,0,1-.09.91,1.12,1.12,0,0,1-.48.71A2.35,2.35,0,0,1,194.79,33.88Z"/><path class="cls-2" d="M205.19,34.09a6.29,6.29,0,0,1-2.34-.46,7.19,7.19,0,0,1-2.11-1.32,6.31,6.31,0,0,1-1.51-2,6.41,6.41,0,0,1,0-5.15,6.78,6.78,0,0,1,3.47-3.47,6.16,6.16,0,0,1,2.49-.51,6.33,6.33,0,0,1,3.26.86,6.56,6.56,0,0,1,2.34,2.34,6.71,6.71,0,0,1,.31,6,6.5,6.5,0,0,1-3.58,3.32A6.17,6.17,0,0,1,205.19,34.09Zm-.05-3.77a2.85,2.85,0,0,0,1.23-.3,2.67,2.67,0,0,0,1-.9,2.61,2.61,0,0,0,.43-1.53,2.77,2.77,0,0,0-.35-1.4,2.58,2.58,0,0,0-1-.94,2.88,2.88,0,0,0-1.41-.33,2.53,2.53,0,0,0-1.34.35,2.73,2.73,0,0,0-.95,1,2.68,2.68,0,0,0-.36,1.38,2.71,2.71,0,0,0,.41,1.52,2.49,2.49,0,0,0,1,.9A2.94,2.94,0,0,0,205.14,30.32Z"/><path class="cls-2" d="M226.17,34a2.25,2.25,0,0,1-1-.22,1.5,1.5,0,0,1-.66-.7l-4.5-9a2.05,2.05,0,0,1-.26-1.49,2.09,2.09,0,0,1,1.14-1.06,2.4,2.4,0,0,1,1.51-.31c.38.09.71.49,1,1.19l2.8,6.5,2.8-6.42c.3-.72.64-1.14,1-1.25a2.22,2.22,0,0,1,1.56.32c.68.32,1.06.69,1.14,1.12a2.34,2.34,0,0,1-.32,1.46l-4.48,8.92a1.43,1.43,0,0,1-.65.7A2.26,2.26,0,0,1,226.17,34Z"/><path class="cls-2" d="M241,34.14a7.33,7.33,0,0,1-3-.58,5.93,5.93,0,0,1-2.06-1.51,6.61,6.61,0,0,1-1.2-2.09,7.17,7.17,0,0,1-.39-2.3,6.45,6.45,0,0,1,.85-3.33,6.09,6.09,0,0,1,2.36-2.28,7,7,0,0,1,3.46-.84,6.26,6.26,0,0,1,2.52.47,5.33,5.33,0,0,1,1.75,1.2,5.07,5.07,0,0,1,1,1.59,4.44,4.44,0,0,1,.34,1.62,2.82,2.82,0,0,1-.67,2.05,2.25,2.25,0,0,1-1.68.67h-6a1.78,1.78,0,0,0,.47,1.08,2.81,2.81,0,0,0,1,.7,3.7,3.7,0,0,0,1.33.25,8.22,8.22,0,0,0,1-.06,4.3,4.3,0,0,0,.78-.18c.22-.07.42-.15.59-.22s.34-.14.49-.19a2.53,2.53,0,0,1,.42-.1,1,1,0,0,1,.68.21,1.94,1.94,0,0,1,.57.72,1.61,1.61,0,0,1,.24.52,2.14,2.14,0,0,1,.06.5,1.34,1.34,0,0,1-.61,1.09,4.66,4.66,0,0,1-1.73.73A10.91,10.91,0,0,1,241,34.14Zm-2.67-7.4h3.95a1,1,0,0,0,.57-.14.62.62,0,0,0,.2-.54,1.23,1.23,0,0,0-.27-.77,1.78,1.78,0,0,0-.74-.54,2.8,2.8,0,0,0-1.09-.19,3,3,0,0,0-1.35.3,2.47,2.47,0,0,0-.94.8A1.91,1.91,0,0,0,238.3,26.74Z"/><path class="cls-2" d="M250.57,33.92a2.52,2.52,0,0,1-1.32-.26,1.14,1.14,0,0,1-.47-.72,4.7,4.7,0,0,1-.09-.92V23.29a4.42,4.42,0,0,1,.09-.92,1,1,0,0,1,.48-.69,3.48,3.48,0,0,1,2.59,0,1.06,1.06,0,0,1,.49.55,1.68,1.68,0,0,1,.1.53l-.3.15a3.22,3.22,0,0,1,.26-.36A3.58,3.58,0,0,1,253,22a3.53,3.53,0,0,1,2.15-.68l.61,0a4.62,4.62,0,0,1,.7.15,3.32,3.32,0,0,1,.66.3,1.58,1.58,0,0,1,.49.47,1.13,1.13,0,0,1,.19.67,3,3,0,0,1-.48,1.74,1.41,1.41,0,0,1-1.2.71,2.11,2.11,0,0,1-.6-.06,1.13,1.13,0,0,1-.29-.15A.93.93,0,0,0,255,25a1.68,1.68,0,0,0-.55-.06,2.76,2.76,0,0,0-.71.09,2.2,2.2,0,0,0-.63.32,1.5,1.5,0,0,0-.45.52,1.65,1.65,0,0,0-.16.71v5.48a4.46,4.46,0,0,1-.09.91,1,1,0,0,1-.49.69A2.56,2.56,0,0,1,250.57,33.92Z"/><path class="cls-2" d="M260.55,21.62h2.75l3.45-.1a4.29,4.29,0,0,1,.9.09,1.09,1.09,0,0,1,.7.48,2.47,2.47,0,0,1,.27,1.33,2.28,2.28,0,0,1-.26,1.25,1.13,1.13,0,0,1-.69.51,3.36,3.36,0,0,1-.92.11l-3.28-.07-3,0a1.28,1.28,0,0,1-1-.46,2.56,2.56,0,0,1-.28-1.39,2.15,2.15,0,0,1,.35-1.34A1.26,1.26,0,0,1,260.55,21.62Zm5.64,12.31a7.9,7.9,0,0,1-2.2-.28,3.59,3.59,0,0,1-1.51-.85,3.5,3.5,0,0,1-.87-1.46,6.67,6.67,0,0,1-.29-2.12V19.1a4.36,4.36,0,0,1,.08-.93,1.08,1.08,0,0,1,.49-.66,2.51,2.51,0,0,1,1.3-.26,2.3,2.3,0,0,1,1.3.28,1.1,1.1,0,0,1,.49.71,4.53,4.53,0,0,1,.09.91v9.93a3.1,3.1,0,0,0,.06.66.89.89,0,0,0,.19.39.68.68,0,0,0,.35.17,2.19,2.19,0,0,0,.55.05,4.67,4.67,0,0,1,1,.1,1.1,1.1,0,0,1,.67.45,2.3,2.3,0,0,1,.23,1.18,2.4,2.4,0,0,1-.27,1.3,1.05,1.05,0,0,1-.72.47A5.31,5.31,0,0,1,266.19,33.93Z"/><path class="cls-2" d="M272.55,19.63a2.53,2.53,0,0,1-1.35-.27,1.14,1.14,0,0,1-.49-.73,4.87,4.87,0,0,1-.08-.95,5.64,5.64,0,0,1,.08-1,1.07,1.07,0,0,1,.5-.7,2.63,2.63,0,0,1,1.37-.26,2.43,2.43,0,0,1,1.32.27,1.14,1.14,0,0,1,.49.73,4.92,4.92,0,0,1,.09,1,4.73,4.73,0,0,1-.09.93,1.07,1.07,0,0,1-.49.71A2.65,2.65,0,0,1,272.55,19.63Zm0,14.3a2.52,2.52,0,0,1-1.32-.26,1,1,0,0,1-.48-.7,5.41,5.41,0,0,1-.07-.91V23.33a4.46,4.46,0,0,1,.09-.91,1.06,1.06,0,0,1,.49-.7,2.47,2.47,0,0,1,1.32-.26,2.34,2.34,0,0,1,1.29.27,1.15,1.15,0,0,1,.48.71,5.67,5.67,0,0,1,.08.94v8.7a4.63,4.63,0,0,1-.09.92,1,1,0,0,1-.48.68A2.47,2.47,0,0,1,272.54,33.93Z"/><path class="cls-2" d="M283.27,34a6.42,6.42,0,0,1-2.24-.42,6.92,6.92,0,0,1-2.1-1.21,5.92,5.92,0,0,1-1.54-2,6.35,6.35,0,0,1-.57-2.75,6.09,6.09,0,0,1,.58-2.73,6,6,0,0,1,1.52-2A6.87,6.87,0,0,1,281,21.75a6.37,6.37,0,0,1,2.21-.41,6.15,6.15,0,0,1,1.67.21,5.6,5.6,0,0,1,1.25.51,3.74,3.74,0,0,1,.73.53,6.26,6.26,0,0,1,.75.65,1.05,1.05,0,0,1,.3.85,1.56,1.56,0,0,1-.17.56,4.48,4.48,0,0,1-.38.59c-.52.7-1,1-1.5,1a2.27,2.27,0,0,1-.69-.25l-.6-.35a3.88,3.88,0,0,0-.61-.31,1.79,1.79,0,0,0-.75-.14,2.56,2.56,0,0,0-1.3.33,2.61,2.61,0,0,0-.91.9A2.69,2.69,0,0,0,281,29a2.53,2.53,0,0,0,.9.91,2.42,2.42,0,0,0,1.26.34,2.32,2.32,0,0,0,.72-.1,2.59,2.59,0,0,0,.55-.24l.35-.21.58-.36a1.07,1.07,0,0,1,.55-.17,1.25,1.25,0,0,1,.74.27,4.1,4.1,0,0,1,.81.84,2.17,2.17,0,0,1,.49,1,1.18,1.18,0,0,1-.22.86,2.69,2.69,0,0,1-.85.77,4.39,4.39,0,0,1-.71.44,6.49,6.49,0,0,1-1.25.5A5.69,5.69,0,0,1,283.27,34Z"/><path class="cls-2" d="M300.42,33.92A2.42,2.42,0,0,1,299,33.6a.9.9,0,0,1-.42-.8l.25-.43a2.82,2.82,0,0,1-.58.61,3.87,3.87,0,0,1-1.11.65,4.15,4.15,0,0,1-1.66.29,5,5,0,0,1-2.19-.5A6,6,0,0,1,291.49,32a7,7,0,0,1-1.27-2,6,6,0,0,1-.48-2.38,6.08,6.08,0,0,1,.48-2.34,6.85,6.85,0,0,1,1.29-2A6.24,6.24,0,0,1,293.35,22a4.93,4.93,0,0,1,2.17-.5,4.35,4.35,0,0,1,1.58.26,4.51,4.51,0,0,1,1.09.62,3.43,3.43,0,0,1,.66.67l-.23-.35a1.05,1.05,0,0,1,.44-.91,2.4,2.4,0,0,1,1.39-.31,2.34,2.34,0,0,1,1.29.27,1.19,1.19,0,0,1,.47.73,4.86,4.86,0,0,1,.09.95V32a4.73,4.73,0,0,1-.09.93,1,1,0,0,1-.47.71A2.41,2.41,0,0,1,300.42,33.92ZM296,30.2a2.21,2.21,0,0,0,1.2-.34,2.6,2.6,0,0,0,1.18-2.19,2.62,2.62,0,0,0-.32-1.29,2.4,2.4,0,0,0-.88-.88,2.33,2.33,0,0,0-1.22-.33,2.39,2.39,0,0,0-1.27.34,2.61,2.61,0,0,0-.9.91,2.57,2.57,0,0,0-.34,1.3,2.43,2.43,0,0,0,.34,1.24A2.6,2.6,0,0,0,296,30.2Z"/><path class="cls-2" d="M309.59,34a14.14,14.14,0,0,1-1.82-.1,3.58,3.58,0,0,1-1.35-.4,2.42,2.42,0,0,1-.9-.84,3.92,3.92,0,0,1-.53-1.37,10.88,10.88,0,0,1-.17-2.06V17.63a3.84,3.84,0,0,1,.1-.93,1.17,1.17,0,0,1,.48-.7,2.41,2.41,0,0,1,1.32-.27A2.28,2.28,0,0,1,308,16a1.21,1.21,0,0,1,.49.7,3.9,3.9,0,0,1,.1.93V29a5.88,5.88,0,0,0,0,.67,1,1,0,0,0,.15.41.51.51,0,0,0,.31.2,2.5,2.5,0,0,0,.53,0,2.6,2.6,0,0,1,.61.07.89.89,0,0,1,.54.45A2.58,2.58,0,0,1,311,32.1a2.78,2.78,0,0,1-.22,1.3.88.88,0,0,1-.54.48A2.73,2.73,0,0,1,309.59,34Z"/><path class="cls-3" d="M120.37,33.84a2.37,2.37,0,0,1-1.33-.28,1.11,1.11,0,0,1-.48-.72,4.73,4.73,0,0,1-.09-.93V18.26a3.91,3.91,0,0,1,.1-.91,1.15,1.15,0,0,1,.5-.71,2.46,2.46,0,0,1,1.32-.27h5.13a6.37,6.37,0,0,1,2.1.37,6.21,6.21,0,0,1,2,1.17,6,6,0,0,1,1.47,1.94,6.11,6.11,0,0,1,.56,2.7,5.78,5.78,0,0,1-2,4.6,6.31,6.31,0,0,1-2,1.14,6.42,6.42,0,0,1-2.12.38h-3.2v3.27a3.85,3.85,0,0,1-.1.91,1.13,1.13,0,0,1-.5.72A2.41,2.41,0,0,1,120.37,33.84Zm1.93-9h3.22a2.65,2.65,0,0,0,1.09-.24,2.12,2.12,0,0,0,.9-.76,2.59,2.59,0,0,0,0-2.58,2.18,2.18,0,0,0-.83-.82,2.44,2.44,0,0,0-1.23-.3h-3.2Z"/><path class="cls-3" d="M138.57,33.85a14.41,14.41,0,0,1-1.83-.1,3.9,3.9,0,0,1-1.35-.4,2.58,2.58,0,0,1-.9-.84,4.21,4.21,0,0,1-.52-1.37,10.15,10.15,0,0,1-.17-2.07V17.52a4.4,4.4,0,0,1,.1-.92,1.18,1.18,0,0,1,.49-.7,2.38,2.38,0,0,1,1.31-.28,2.33,2.33,0,0,1,1.29.28,1.18,1.18,0,0,1,.49.7,3.84,3.84,0,0,1,.1.93V28.9a4,4,0,0,0,0,.66.8.8,0,0,0,.15.42.56.56,0,0,0,.31.2,2.44,2.44,0,0,0,.53.05,2.6,2.6,0,0,1,.61.07.89.89,0,0,1,.54.45A2.58,2.58,0,0,1,140,32a2.76,2.76,0,0,1-.23,1.3.89.89,0,0,1-.53.48A2.73,2.73,0,0,1,138.57,33.85Z"/><path class="cls-3" d="M148,34.08a7.12,7.12,0,0,1-3-.58A5.72,5.72,0,0,1,142.92,32a6.51,6.51,0,0,1-1.2-2.09,6.83,6.83,0,0,1-.4-2.3,6.48,6.48,0,0,1,.85-3.32A6.14,6.14,0,0,1,144.54,22a7,7,0,0,1,3.46-.83,6.22,6.22,0,0,1,2.51.46,5.23,5.23,0,0,1,1.75,1.2,5.1,5.1,0,0,1,1,1.59,4.51,4.51,0,0,1,.33,1.63,2.81,2.81,0,0,1-.66,2,2.28,2.28,0,0,1-1.69.68h-6a1.77,1.77,0,0,0,.46,1.08,2.85,2.85,0,0,0,1,.7,3.5,3.5,0,0,0,1.33.25,8.05,8.05,0,0,0,1-.06,4.49,4.49,0,0,0,.79-.17l.59-.23.49-.19a2.53,2.53,0,0,1,.42-.1,1.06,1.06,0,0,1,.68.22,2.11,2.11,0,0,1,.57.71,1.71,1.71,0,0,1,.24.52,2.2,2.2,0,0,1,.06.5,1.36,1.36,0,0,1-.61,1.09,4.91,4.91,0,0,1-1.73.74A11.56,11.56,0,0,1,148,34.08Zm-2.67-7.4h4a1,1,0,0,0,.58-.14.61.61,0,0,0,.2-.53,1.21,1.21,0,0,0-.28-.78,1.84,1.84,0,0,0-.73-.54,3.27,3.27,0,0,0-2.44.12,2.38,2.38,0,0,0-.94.8A1.91,1.91,0,0,0,145.32,26.68Z"/><path class="cls-3" d="M160.89,33.54a4.88,4.88,0,0,1-2.16-.49,5.8,5.8,0,0,1-1.79-1.34,6.5,6.5,0,0,1-1.22-1.95,6.21,6.21,0,0,1,0-4.64A6.46,6.46,0,0,1,157,23.2a6.28,6.28,0,0,1,1.8-1.33,4.9,4.9,0,0,1,2.12-.48,3.84,3.84,0,0,1,1.9.44A3.31,3.31,0,0,1,164,23.08a6.4,6.4,0,0,1,.72,1.92,12.71,12.71,0,0,1,.23,2.49,11.23,11.23,0,0,1-.41,3.21,4.27,4.27,0,0,1-1.3,2.1A3.61,3.61,0,0,1,160.89,33.54Zm.45,5.47a6.9,6.9,0,0,1-1.76-.22,7.49,7.49,0,0,1-1.59-.6,4.71,4.71,0,0,1-1.15-.8,1.25,1.25,0,0,1-.42-.85,1.78,1.78,0,0,1,.15-.74,2.28,2.28,0,0,1,.45-.66,6.14,6.14,0,0,1,.6-.58.92.92,0,0,1,.6-.2,1.11,1.11,0,0,1,.62.19l.59.41a3.84,3.84,0,0,0,.79.42,3.37,3.37,0,0,0,1.2.18,2.41,2.41,0,0,0,.93-.18,2,2,0,0,0,.75-.55,3,3,0,0,0,.51-.85,3.16,3.16,0,0,0,.18-1.09V22.54a1.25,1.25,0,0,1,.51-.94,2.5,2.5,0,0,1,1.34-.28,2.31,2.31,0,0,1,1.25.26,1.11,1.11,0,0,1,.46.69,4.29,4.29,0,0,1,.09.9V33a5.88,5.88,0,0,1-.52,2.54,5.75,5.75,0,0,1-1.4,1.88,6.6,6.6,0,0,1-2,1.16A6.18,6.18,0,0,1,161.34,39Zm0-9.1a2.21,2.21,0,0,0,1.2-.33,2.56,2.56,0,0,0,.84-.89,2.68,2.68,0,0,0,0-2.5,2.29,2.29,0,0,0-.85-.87A2.27,2.27,0,0,0,161.3,25a2.13,2.13,0,0,0-1.2.34,2.53,2.53,0,0,0-.84.88,2.49,2.49,0,0,0-.31,1.25,2.35,2.35,0,0,0,.32,1.23,2.62,2.62,0,0,0,.86.89A2.25,2.25,0,0,0,161.32,29.91Z"/><path class="cls-3" d="M180.22,33.85a2.42,2.42,0,0,1-1.38-.32.9.9,0,0,1-.42-.8l.25-.43a2.59,2.59,0,0,1-.58.61,4.11,4.11,0,0,1-1.11.65,4.33,4.33,0,0,1-1.66.29,5,5,0,0,1-2.19-.5A6.17,6.17,0,0,1,171.29,32a7.12,7.12,0,0,1-1.27-2,6.13,6.13,0,0,1,0-4.71,6.72,6.72,0,0,1,1.29-2,6.19,6.19,0,0,1,1.84-1.36,4.81,4.81,0,0,1,2.18-.5,4.3,4.3,0,0,1,1.57.26,4.65,4.65,0,0,1,1.09.61,3.45,3.45,0,0,1,.66.68l-.23-.35a1.05,1.05,0,0,1,.44-.91,2.42,2.42,0,0,1,1.39-.31,2.34,2.34,0,0,1,1.29.27,1.15,1.15,0,0,1,.47.73,4.79,4.79,0,0,1,.09.95V32a5.64,5.64,0,0,1-.08.93,1.09,1.09,0,0,1-.48.71A2.5,2.5,0,0,1,180.22,33.85Zm-4.38-3.73a2.18,2.18,0,0,0,1.2-.33,2.54,2.54,0,0,0,.86-.92,2.58,2.58,0,0,0,.32-1.27,2.62,2.62,0,0,0-.32-1.29,2.5,2.5,0,0,0-.88-.89,2.39,2.39,0,0,0-1.22-.32,2.33,2.33,0,0,0-1.26.34,2.48,2.48,0,0,0-.91.91,2.54,2.54,0,0,0-.33,1.3,2.36,2.36,0,0,0,.33,1.23,2.62,2.62,0,0,0,.93.91A2.57,2.57,0,0,0,175.84,30.12Z"/><path class="cls-3" d="M189.94,33.86a5.06,5.06,0,0,1-2.17-.49A5.9,5.9,0,0,1,185.94,32a6.7,6.7,0,0,1-1.26-2,6.3,6.3,0,0,1-.46-2.41,6.18,6.18,0,0,1,.46-2.34,6.5,6.5,0,0,1,1.28-2,6.19,6.19,0,0,1,1.84-1.36,4.75,4.75,0,0,1,2.15-.5,4.35,4.35,0,0,1,2.11.49,4.44,4.44,0,0,1,1.53,1.33,6.46,6.46,0,0,1,.93,2,9.08,9.08,0,0,1,.35,2.35,9.28,9.28,0,0,1-.3,2.4,6,6,0,0,1-.93,2,4.7,4.7,0,0,1-1.55,1.39A4.35,4.35,0,0,1,189.94,33.86Zm.5-3.7a2.31,2.31,0,0,0,1.22-.34,2.53,2.53,0,0,0,.87-.91,2.43,2.43,0,0,0,.34-1.28,2.56,2.56,0,0,0-.32-1.26,2.61,2.61,0,0,0-.88-.9,2.36,2.36,0,0,0-1.25-.34,2.42,2.42,0,0,0-1.24.33,2.22,2.22,0,0,0-.87.9,2.57,2.57,0,0,0-.31,1.27,2.46,2.46,0,0,0,1.22,2.19A2.41,2.41,0,0,0,190.44,30.16Zm4.35,3.72a2.34,2.34,0,0,1-1.26-.27,1.31,1.31,0,0,1-.54-.85V17.61a6.62,6.62,0,0,1,.06-.91,1.11,1.11,0,0,1,.44-.72,2.28,2.28,0,0,1,1.28-.27,2.47,2.47,0,0,1,1.32.26,1.19,1.19,0,0,1,.48.69,4.42,4.42,0,0,1,.1.93V32a4.53,4.53,0,0,1-.09.91,1.12,1.12,0,0,1-.48.71A2.35,2.35,0,0,1,194.79,33.88Z"/><path class="cls-3" d="M205.19,34.09a6.29,6.29,0,0,1-2.34-.46,7.19,7.19,0,0,1-2.11-1.32,6.31,6.31,0,0,1-1.51-2,6.41,6.41,0,0,1,0-5.15,6.78,6.78,0,0,1,3.47-3.47,6.16,6.16,0,0,1,2.49-.51,6.33,6.33,0,0,1,3.26.86,6.56,6.56,0,0,1,2.34,2.34,6.71,6.71,0,0,1,.31,6,6.5,6.5,0,0,1-3.58,3.32A6.17,6.17,0,0,1,205.19,34.09Zm-.05-3.77a2.85,2.85,0,0,0,1.23-.3,2.67,2.67,0,0,0,1-.9,2.61,2.61,0,0,0,.43-1.53,2.77,2.77,0,0,0-.35-1.4,2.58,2.58,0,0,0-1-.94,2.88,2.88,0,0,0-1.41-.33,2.53,2.53,0,0,0-1.34.35,2.73,2.73,0,0,0-.95,1,2.68,2.68,0,0,0-.36,1.38,2.71,2.71,0,0,0,.41,1.52,2.49,2.49,0,0,0,1,.9A2.94,2.94,0,0,0,205.14,30.32Z"/><path class="cls-3" d="M226.17,34a2.25,2.25,0,0,1-1-.22,1.5,1.5,0,0,1-.66-.7l-4.5-9a2.05,2.05,0,0,1-.26-1.49,2.09,2.09,0,0,1,1.14-1.06,2.4,2.4,0,0,1,1.51-.31c.38.09.71.49,1,1.19l2.8,6.5,2.8-6.42c.3-.72.64-1.14,1-1.25a2.22,2.22,0,0,1,1.56.32c.68.32,1.06.69,1.14,1.12a2.34,2.34,0,0,1-.32,1.46l-4.48,8.92a1.43,1.43,0,0,1-.65.7A2.26,2.26,0,0,1,226.17,34Z"/><path class="cls-3" d="M241,34.14a7.33,7.33,0,0,1-3-.58,5.93,5.93,0,0,1-2.06-1.51,6.61,6.61,0,0,1-1.2-2.09,7.17,7.17,0,0,1-.39-2.3,6.45,6.45,0,0,1,.85-3.33,6.09,6.09,0,0,1,2.36-2.28,7,7,0,0,1,3.46-.84,6.26,6.26,0,0,1,2.52.47,5.33,5.33,0,0,1,1.75,1.2,5.07,5.07,0,0,1,1,1.59,4.44,4.44,0,0,1,.34,1.62,2.82,2.82,0,0,1-.67,2.05,2.25,2.25,0,0,1-1.68.67h-6a1.78,1.78,0,0,0,.47,1.08,2.81,2.81,0,0,0,1,.7,3.7,3.7,0,0,0,1.33.25,8.22,8.22,0,0,0,1-.06,4.3,4.3,0,0,0,.78-.18c.22-.07.42-.15.59-.22s.34-.14.49-.19a2.53,2.53,0,0,1,.42-.1,1,1,0,0,1,.68.21,1.94,1.94,0,0,1,.57.72,1.61,1.61,0,0,1,.24.52,2.14,2.14,0,0,1,.06.5,1.34,1.34,0,0,1-.61,1.09,4.66,4.66,0,0,1-1.73.73A10.91,10.91,0,0,1,241,34.14Zm-2.67-7.4h3.95a1,1,0,0,0,.57-.14.62.62,0,0,0,.2-.54,1.23,1.23,0,0,0-.27-.77,1.78,1.78,0,0,0-.74-.54,2.8,2.8,0,0,0-1.09-.19,3,3,0,0,0-1.35.3,2.47,2.47,0,0,0-.94.8A1.91,1.91,0,0,0,238.3,26.74Z"/><path class="cls-3" d="M250.57,33.92a2.52,2.52,0,0,1-1.32-.26,1.14,1.14,0,0,1-.47-.72,4.7,4.7,0,0,1-.09-.92V23.29a4.42,4.42,0,0,1,.09-.92,1,1,0,0,1,.48-.69,3.48,3.48,0,0,1,2.59,0,1.06,1.06,0,0,1,.49.55,1.68,1.68,0,0,1,.1.53l-.3.15a3.22,3.22,0,0,1,.26-.36A3.58,3.58,0,0,1,253,22a3.53,3.53,0,0,1,2.15-.68l.61,0a4.62,4.62,0,0,1,.7.15,3.32,3.32,0,0,1,.66.3,1.58,1.58,0,0,1,.49.47,1.13,1.13,0,0,1,.19.67,3,3,0,0,1-.48,1.74,1.41,1.41,0,0,1-1.2.71,2.11,2.11,0,0,1-.6-.06,1.13,1.13,0,0,1-.29-.15A.93.93,0,0,0,255,25a1.68,1.68,0,0,0-.55-.06,2.76,2.76,0,0,0-.71.09,2.2,2.2,0,0,0-.63.32,1.5,1.5,0,0,0-.45.52,1.65,1.65,0,0,0-.16.71v5.48a4.46,4.46,0,0,1-.09.91,1,1,0,0,1-.49.69A2.56,2.56,0,0,1,250.57,33.92Z"/><path class="cls-3" d="M260.55,21.62h2.75l3.45-.1a4.29,4.29,0,0,1,.9.09,1.09,1.09,0,0,1,.7.48,2.47,2.47,0,0,1,.27,1.33,2.28,2.28,0,0,1-.26,1.25,1.13,1.13,0,0,1-.69.51,3.36,3.36,0,0,1-.92.11l-3.28-.07-3,0a1.28,1.28,0,0,1-1-.46,2.56,2.56,0,0,1-.28-1.39,2.15,2.15,0,0,1,.35-1.34A1.26,1.26,0,0,1,260.55,21.62Zm5.64,12.31a7.9,7.9,0,0,1-2.2-.28,3.59,3.59,0,0,1-1.51-.85,3.5,3.5,0,0,1-.87-1.46,6.67,6.67,0,0,1-.29-2.12V19.1a4.36,4.36,0,0,1,.08-.93,1.08,1.08,0,0,1,.49-.66,2.51,2.51,0,0,1,1.3-.26,2.3,2.3,0,0,1,1.3.28,1.1,1.1,0,0,1,.49.71,4.53,4.53,0,0,1,.09.91v9.93a3.1,3.1,0,0,0,.06.66.89.89,0,0,0,.19.39.68.68,0,0,0,.35.17,2.19,2.19,0,0,0,.55.05,4.67,4.67,0,0,1,1,.1,1.1,1.1,0,0,1,.67.45,2.3,2.3,0,0,1,.23,1.18,2.4,2.4,0,0,1-.27,1.3,1.05,1.05,0,0,1-.72.47A5.31,5.31,0,0,1,266.19,33.93Z"/><path class="cls-3" d="M272.55,19.63a2.53,2.53,0,0,1-1.35-.27,1.14,1.14,0,0,1-.49-.73,4.87,4.87,0,0,1-.08-.95,5.64,5.64,0,0,1,.08-1,1.07,1.07,0,0,1,.5-.7,2.63,2.63,0,0,1,1.37-.26,2.43,2.43,0,0,1,1.32.27,1.14,1.14,0,0,1,.49.73,4.92,4.92,0,0,1,.09,1,4.73,4.73,0,0,1-.09.93,1.07,1.07,0,0,1-.49.71A2.65,2.65,0,0,1,272.55,19.63Zm0,14.3a2.52,2.52,0,0,1-1.32-.26,1,1,0,0,1-.48-.7,5.41,5.41,0,0,1-.07-.91V23.33a4.46,4.46,0,0,1,.09-.91,1.06,1.06,0,0,1,.49-.7,2.47,2.47,0,0,1,1.32-.26,2.34,2.34,0,0,1,1.29.27,1.15,1.15,0,0,1,.48.71,5.67,5.67,0,0,1,.08.94v8.7a4.63,4.63,0,0,1-.09.92,1,1,0,0,1-.48.68A2.47,2.47,0,0,1,272.54,33.93Z"/><path class="cls-3" d="M283.27,34a6.42,6.42,0,0,1-2.24-.42,6.92,6.92,0,0,1-2.1-1.21,5.92,5.92,0,0,1-1.54-2,6.35,6.35,0,0,1-.57-2.75,6.09,6.09,0,0,1,.58-2.73,6,6,0,0,1,1.52-2A6.87,6.87,0,0,1,281,21.75a6.37,6.37,0,0,1,2.21-.41,6.15,6.15,0,0,1,1.67.21,5.6,5.6,0,0,1,1.25.51,3.74,3.74,0,0,1,.73.53,6.26,6.26,0,0,1,.75.65,1.05,1.05,0,0,1,.3.85,1.56,1.56,0,0,1-.17.56,4.48,4.48,0,0,1-.38.59c-.52.7-1,1-1.5,1a2.27,2.27,0,0,1-.69-.25l-.6-.35a3.88,3.88,0,0,0-.61-.31,1.79,1.79,0,0,0-.75-.14,2.56,2.56,0,0,0-1.3.33,2.61,2.61,0,0,0-.91.9A2.69,2.69,0,0,0,281,29a2.53,2.53,0,0,0,.9.91,2.42,2.42,0,0,0,1.26.34,2.32,2.32,0,0,0,.72-.1,2.59,2.59,0,0,0,.55-.24l.35-.21.58-.36a1.07,1.07,0,0,1,.55-.17,1.25,1.25,0,0,1,.74.27,4.1,4.1,0,0,1,.81.84,2.17,2.17,0,0,1,.49,1,1.18,1.18,0,0,1-.22.86,2.69,2.69,0,0,1-.85.77,4.39,4.39,0,0,1-.71.44,6.49,6.49,0,0,1-1.25.5A5.69,5.69,0,0,1,283.27,34Z"/><path class="cls-3" d="M300.42,33.92A2.42,2.42,0,0,1,299,33.6a.9.9,0,0,1-.42-.8l.25-.43a2.82,2.82,0,0,1-.58.61,3.87,3.87,0,0,1-1.11.65,4.15,4.15,0,0,1-1.66.29,5,5,0,0,1-2.19-.5A6,6,0,0,1,291.49,32a7,7,0,0,1-1.27-2,6,6,0,0,1-.48-2.38,6.08,6.08,0,0,1,.48-2.34,6.85,6.85,0,0,1,1.29-2A6.24,6.24,0,0,1,293.35,22a4.93,4.93,0,0,1,2.17-.5,4.35,4.35,0,0,1,1.58.26,4.51,4.51,0,0,1,1.09.62,3.43,3.43,0,0,1,.66.67l-.23-.35a1.05,1.05,0,0,1,.44-.91,2.4,2.4,0,0,1,1.39-.31,2.34,2.34,0,0,1,1.29.27,1.19,1.19,0,0,1,.47.73,4.86,4.86,0,0,1,.09.95V32a4.73,4.73,0,0,1-.09.93,1,1,0,0,1-.47.71A2.41,2.41,0,0,1,300.42,33.92ZM296,30.2a2.21,2.21,0,0,0,1.2-.34,2.6,2.6,0,0,0,1.18-2.19,2.62,2.62,0,0,0-.32-1.29,2.4,2.4,0,0,0-.88-.88,2.33,2.33,0,0,0-1.22-.33,2.39,2.39,0,0,0-1.27.34,2.61,2.61,0,0,0-.9.91,2.57,2.57,0,0,0-.34,1.3,2.43,2.43,0,0,0,.34,1.24A2.6,2.6,0,0,0,296,30.2Z"/><path class="cls-3" d="M309.59,34a14.14,14.14,0,0,1-1.82-.1,3.58,3.58,0,0,1-1.35-.4,2.42,2.42,0,0,1-.9-.84,3.92,3.92,0,0,1-.53-1.37,10.88,10.88,0,0,1-.17-2.06V17.63a3.84,3.84,0,0,1,.1-.93,1.17,1.17,0,0,1,.48-.7,2.41,2.41,0,0,1,1.32-.27A2.28,2.28,0,0,1,308,16a1.21,1.21,0,0,1,.49.7,3.9,3.9,0,0,1,.1.93V29a5.88,5.88,0,0,0,0,.67,1,1,0,0,0,.15.41.51.51,0,0,0,.31.2,2.5,2.5,0,0,0,.53,0,2.6,2.6,0,0,1,.61.07.89.89,0,0,1,.54.45A2.58,2.58,0,0,1,311,32.1a2.78,2.78,0,0,1-.22,1.3.88.88,0,0,1-.54.48A2.73,2.73,0,0,1,309.59,34Z"/><path class="cls-2" d="M120.37,33.84a2.37,2.37,0,0,1-1.33-.28,1.11,1.11,0,0,1-.48-.72,4.73,4.73,0,0,1-.09-.93V18.26a3.91,3.91,0,0,1,.1-.91,1.15,1.15,0,0,1,.5-.71,2.46,2.46,0,0,1,1.32-.27h5.13a6.37,6.37,0,0,1,2.1.37,6.21,6.21,0,0,1,2,1.17,6,6,0,0,1,1.47,1.94,6.11,6.11,0,0,1,.56,2.7,5.78,5.78,0,0,1-2,4.6,6.31,6.31,0,0,1-2,1.14,6.42,6.42,0,0,1-2.12.38h-3.2v3.27a3.85,3.85,0,0,1-.1.91,1.13,1.13,0,0,1-.5.72A2.41,2.41,0,0,1,120.37,33.84Zm1.93-9h3.22a2.65,2.65,0,0,0,1.09-.24,2.12,2.12,0,0,0,.9-.76,2.59,2.59,0,0,0,0-2.58,2.18,2.18,0,0,0-.83-.82,2.44,2.44,0,0,0-1.23-.3h-3.2Z"/><path class="cls-2" d="M138.57,33.85a14.41,14.41,0,0,1-1.83-.1,3.9,3.9,0,0,1-1.35-.4,2.58,2.58,0,0,1-.9-.84,4.21,4.21,0,0,1-.52-1.37,10.15,10.15,0,0,1-.17-2.07V17.52a4.4,4.4,0,0,1,.1-.92,1.18,1.18,0,0,1,.49-.7,2.38,2.38,0,0,1,1.31-.28,2.33,2.33,0,0,1,1.29.28,1.18,1.18,0,0,1,.49.7,3.84,3.84,0,0,1,.1.93V28.9a4,4,0,0,0,0,.66.8.8,0,0,0,.15.42.56.56,0,0,0,.31.2,2.44,2.44,0,0,0,.53.05,2.6,2.6,0,0,1,.61.07.89.89,0,0,1,.54.45A2.58,2.58,0,0,1,140,32a2.76,2.76,0,0,1-.23,1.3.89.89,0,0,1-.53.48A2.73,2.73,0,0,1,138.57,33.85Z"/><path class="cls-2" d="M148,34.08a7.12,7.12,0,0,1-3-.58A5.72,5.72,0,0,1,142.92,32a6.51,6.51,0,0,1-1.2-2.09,6.83,6.83,0,0,1-.4-2.3,6.48,6.48,0,0,1,.85-3.32A6.14,6.14,0,0,1,144.54,22a7,7,0,0,1,3.46-.83,6.22,6.22,0,0,1,2.51.46,5.23,5.23,0,0,1,1.75,1.2,5.1,5.1,0,0,1,1,1.59,4.51,4.51,0,0,1,.33,1.63,2.81,2.81,0,0,1-.66,2,2.28,2.28,0,0,1-1.69.68h-6a1.77,1.77,0,0,0,.46,1.08,2.85,2.85,0,0,0,1,.7,3.5,3.5,0,0,0,1.33.25,8.05,8.05,0,0,0,1-.06,4.49,4.49,0,0,0,.79-.17l.59-.23.49-.19a2.53,2.53,0,0,1,.42-.1,1.06,1.06,0,0,1,.68.22,2.11,2.11,0,0,1,.57.71,1.71,1.71,0,0,1,.24.52,2.2,2.2,0,0,1,.06.5,1.36,1.36,0,0,1-.61,1.09,4.91,4.91,0,0,1-1.73.74A11.56,11.56,0,0,1,148,34.08Zm-2.67-7.4h4a1,1,0,0,0,.58-.14.61.61,0,0,0,.2-.53,1.21,1.21,0,0,0-.28-.78,1.84,1.84,0,0,0-.73-.54,3.27,3.27,0,0,0-2.44.12,2.38,2.38,0,0,0-.94.8A1.91,1.91,0,0,0,145.32,26.68Z"/><path class="cls-2" d="M160.89,33.54a4.88,4.88,0,0,1-2.16-.49,5.8,5.8,0,0,1-1.79-1.34,6.5,6.5,0,0,1-1.22-1.95,6.21,6.21,0,0,1,0-4.64A6.46,6.46,0,0,1,157,23.2a6.28,6.28,0,0,1,1.8-1.33,4.9,4.9,0,0,1,2.12-.48,3.84,3.84,0,0,1,1.9.44A3.31,3.31,0,0,1,164,23.08a6.4,6.4,0,0,1,.72,1.92,12.71,12.71,0,0,1,.23,2.49,11.23,11.23,0,0,1-.41,3.21,4.27,4.27,0,0,1-1.3,2.1A3.61,3.61,0,0,1,160.89,33.54Zm.45,5.47a6.9,6.9,0,0,1-1.76-.22,7.49,7.49,0,0,1-1.59-.6,4.71,4.71,0,0,1-1.15-.8,1.25,1.25,0,0,1-.42-.85,1.78,1.78,0,0,1,.15-.74,2.28,2.28,0,0,1,.45-.66,6.14,6.14,0,0,1,.6-.58.92.92,0,0,1,.6-.2,1.11,1.11,0,0,1,.62.19l.59.41a3.84,3.84,0,0,0,.79.42,3.37,3.37,0,0,0,1.2.18,2.41,2.41,0,0,0,.93-.18,2,2,0,0,0,.75-.55,3,3,0,0,0,.51-.85,3.16,3.16,0,0,0,.18-1.09V22.54a1.25,1.25,0,0,1,.51-.94,2.5,2.5,0,0,1,1.34-.28,2.31,2.31,0,0,1,1.25.26,1.11,1.11,0,0,1,.46.69,4.29,4.29,0,0,1,.09.9V33a5.88,5.88,0,0,1-.52,2.54,5.75,5.75,0,0,1-1.4,1.88,6.6,6.6,0,0,1-2,1.16A6.18,6.18,0,0,1,161.34,39Zm0-9.1a2.21,2.21,0,0,0,1.2-.33,2.56,2.56,0,0,0,.84-.89,2.68,2.68,0,0,0,0-2.5,2.29,2.29,0,0,0-.85-.87A2.27,2.27,0,0,0,161.3,25a2.13,2.13,0,0,0-1.2.34,2.53,2.53,0,0,0-.84.88,2.49,2.49,0,0,0-.31,1.25,2.35,2.35,0,0,0,.32,1.23,2.62,2.62,0,0,0,.86.89A2.25,2.25,0,0,0,161.32,29.91Z"/><path class="cls-2" d="M180.22,33.85a2.42,2.42,0,0,1-1.38-.32.9.9,0,0,1-.42-.8l.25-.43a2.59,2.59,0,0,1-.58.61,4.11,4.11,0,0,1-1.11.65,4.33,4.33,0,0,1-1.66.29,5,5,0,0,1-2.19-.5A6.17,6.17,0,0,1,171.29,32a7.12,7.12,0,0,1-1.27-2,6.13,6.13,0,0,1,0-4.71,6.72,6.72,0,0,1,1.29-2,6.19,6.19,0,0,1,1.84-1.36,4.81,4.81,0,0,1,2.18-.5,4.3,4.3,0,0,1,1.57.26,4.65,4.65,0,0,1,1.09.61,3.45,3.45,0,0,1,.66.68l-.23-.35a1.05,1.05,0,0,1,.44-.91,2.42,2.42,0,0,1,1.39-.31,2.34,2.34,0,0,1,1.29.27,1.15,1.15,0,0,1,.47.73,4.79,4.79,0,0,1,.09.95V32a5.64,5.64,0,0,1-.08.93,1.09,1.09,0,0,1-.48.71A2.5,2.5,0,0,1,180.22,33.85Zm-4.38-3.73a2.18,2.18,0,0,0,1.2-.33,2.54,2.54,0,0,0,.86-.92,2.58,2.58,0,0,0,.32-1.27,2.62,2.62,0,0,0-.32-1.29,2.5,2.5,0,0,0-.88-.89,2.39,2.39,0,0,0-1.22-.32,2.33,2.33,0,0,0-1.26.34,2.48,2.48,0,0,0-.91.91,2.54,2.54,0,0,0-.33,1.3,2.36,2.36,0,0,0,.33,1.23,2.62,2.62,0,0,0,.93.91A2.57,2.57,0,0,0,175.84,30.12Z"/><path class="cls-2" d="M189.94,33.86a5.06,5.06,0,0,1-2.17-.49A5.9,5.9,0,0,1,185.94,32a6.7,6.7,0,0,1-1.26-2,6.3,6.3,0,0,1-.46-2.41,6.18,6.18,0,0,1,.46-2.34,6.5,6.5,0,0,1,1.28-2,6.19,6.19,0,0,1,1.84-1.36,4.75,4.75,0,0,1,2.15-.5,4.35,4.35,0,0,1,2.11.49,4.44,4.44,0,0,1,1.53,1.33,6.46,6.46,0,0,1,.93,2,9.08,9.08,0,0,1,.35,2.35,9.28,9.28,0,0,1-.3,2.4,6,6,0,0,1-.93,2,4.7,4.7,0,0,1-1.55,1.39A4.35,4.35,0,0,1,189.94,33.86Zm.5-3.7a2.31,2.31,0,0,0,1.22-.34,2.53,2.53,0,0,0,.87-.91,2.43,2.43,0,0,0,.34-1.28,2.56,2.56,0,0,0-.32-1.26,2.61,2.61,0,0,0-.88-.9,2.36,2.36,0,0,0-1.25-.34,2.42,2.42,0,0,0-1.24.33,2.22,2.22,0,0,0-.87.9,2.57,2.57,0,0,0-.31,1.27,2.46,2.46,0,0,0,1.22,2.19A2.41,2.41,0,0,0,190.44,30.16Zm4.35,3.72a2.34,2.34,0,0,1-1.26-.27,1.31,1.31,0,0,1-.54-.85V17.61a6.62,6.62,0,0,1,.06-.91,1.11,1.11,0,0,1,.44-.72,2.28,2.28,0,0,1,1.28-.27,2.47,2.47,0,0,1,1.32.26,1.19,1.19,0,0,1,.48.69,4.42,4.42,0,0,1,.1.93V32a4.53,4.53,0,0,1-.09.91,1.12,1.12,0,0,1-.48.71A2.35,2.35,0,0,1,194.79,33.88Z"/><path class="cls-2" d="M205.19,34.09a6.29,6.29,0,0,1-2.34-.46,7.19,7.19,0,0,1-2.11-1.32,6.31,6.31,0,0,1-1.51-2,6.41,6.41,0,0,1,0-5.15,6.78,6.78,0,0,1,3.47-3.47,6.16,6.16,0,0,1,2.49-.51,6.33,6.33,0,0,1,3.26.86,6.56,6.56,0,0,1,2.34,2.34,6.71,6.71,0,0,1,.31,6,6.5,6.5,0,0,1-3.58,3.32A6.17,6.17,0,0,1,205.19,34.09Zm-.05-3.77a2.85,2.85,0,0,0,1.23-.3,2.67,2.67,0,0,0,1-.9,2.61,2.61,0,0,0,.43-1.53,2.77,2.77,0,0,0-.35-1.4,2.58,2.58,0,0,0-1-.94,2.88,2.88,0,0,0-1.41-.33,2.53,2.53,0,0,0-1.34.35,2.73,2.73,0,0,0-.95,1,2.68,2.68,0,0,0-.36,1.38,2.71,2.71,0,0,0,.41,1.52,2.49,2.49,0,0,0,1,.9A2.94,2.94,0,0,0,205.14,30.32Z"/><path class="cls-2" d="M226.17,34a2.25,2.25,0,0,1-1-.22,1.5,1.5,0,0,1-.66-.7l-4.5-9a2.05,2.05,0,0,1-.26-1.49,2.09,2.09,0,0,1,1.14-1.06,2.4,2.4,0,0,1,1.51-.31c.38.09.71.49,1,1.19l2.8,6.5,2.8-6.42c.3-.72.64-1.14,1-1.25a2.22,2.22,0,0,1,1.56.32c.68.32,1.06.69,1.14,1.12a2.34,2.34,0,0,1-.32,1.46l-4.48,8.92a1.43,1.43,0,0,1-.65.7A2.26,2.26,0,0,1,226.17,34Z"/><path class="cls-2" d="M241,34.14a7.33,7.33,0,0,1-3-.58,5.93,5.93,0,0,1-2.06-1.51,6.61,6.61,0,0,1-1.2-2.09,7.17,7.17,0,0,1-.39-2.3,6.45,6.45,0,0,1,.85-3.33,6.09,6.09,0,0,1,2.36-2.28,7,7,0,0,1,3.46-.84,6.26,6.26,0,0,1,2.52.47,5.33,5.33,0,0,1,1.75,1.2,5.07,5.07,0,0,1,1,1.59,4.44,4.44,0,0,1,.34,1.62,2.82,2.82,0,0,1-.67,2.05,2.25,2.25,0,0,1-1.68.67h-6a1.78,1.78,0,0,0,.47,1.08,2.81,2.81,0,0,0,1,.7,3.7,3.7,0,0,0,1.33.25,8.22,8.22,0,0,0,1-.06,4.3,4.3,0,0,0,.78-.18c.22-.07.42-.15.59-.22s.34-.14.49-.19a2.53,2.53,0,0,1,.42-.1,1,1,0,0,1,.68.21,1.94,1.94,0,0,1,.57.72,1.61,1.61,0,0,1,.24.52,2.14,2.14,0,0,1,.06.5,1.34,1.34,0,0,1-.61,1.09,4.66,4.66,0,0,1-1.73.73A10.91,10.91,0,0,1,241,34.14Zm-2.67-7.4h3.95a1,1,0,0,0,.57-.14.62.62,0,0,0,.2-.54,1.23,1.23,0,0,0-.27-.77,1.78,1.78,0,0,0-.74-.54,2.8,2.8,0,0,0-1.09-.19,3,3,0,0,0-1.35.3,2.47,2.47,0,0,0-.94.8A1.91,1.91,0,0,0,238.3,26.74Z"/><path class="cls-2" d="M250.57,33.92a2.52,2.52,0,0,1-1.32-.26,1.14,1.14,0,0,1-.47-.72,4.7,4.7,0,0,1-.09-.92V23.29a4.42,4.42,0,0,1,.09-.92,1,1,0,0,1,.48-.69,3.48,3.48,0,0,1,2.59,0,1.06,1.06,0,0,1,.49.55,1.68,1.68,0,0,1,.1.53l-.3.15a3.22,3.22,0,0,1,.26-.36A3.58,3.58,0,0,1,253,22a3.53,3.53,0,0,1,2.15-.68l.61,0a4.62,4.62,0,0,1,.7.15,3.32,3.32,0,0,1,.66.3,1.58,1.58,0,0,1,.49.47,1.13,1.13,0,0,1,.19.67,3,3,0,0,1-.48,1.74,1.41,1.41,0,0,1-1.2.71,2.11,2.11,0,0,1-.6-.06,1.13,1.13,0,0,1-.29-.15A.93.93,0,0,0,255,25a1.68,1.68,0,0,0-.55-.06,2.76,2.76,0,0,0-.71.09,2.2,2.2,0,0,0-.63.32,1.5,1.5,0,0,0-.45.52,1.65,1.65,0,0,0-.16.71v5.48a4.46,4.46,0,0,1-.09.91,1,1,0,0,1-.49.69A2.56,2.56,0,0,1,250.57,33.92Z"/><path class="cls-2" d="M260.55,21.62h2.75l3.45-.1a4.29,4.29,0,0,1,.9.09,1.09,1.09,0,0,1,.7.48,2.47,2.47,0,0,1,.27,1.33,2.28,2.28,0,0,1-.26,1.25,1.13,1.13,0,0,1-.69.51,3.36,3.36,0,0,1-.92.11l-3.28-.07-3,0a1.28,1.28,0,0,1-1-.46,2.56,2.56,0,0,1-.28-1.39,2.15,2.15,0,0,1,.35-1.34A1.26,1.26,0,0,1,260.55,21.62Zm5.64,12.31a7.9,7.9,0,0,1-2.2-.28,3.59,3.59,0,0,1-1.51-.85,3.5,3.5,0,0,1-.87-1.46,6.67,6.67,0,0,1-.29-2.12V19.1a4.36,4.36,0,0,1,.08-.93,1.08,1.08,0,0,1,.49-.66,2.51,2.51,0,0,1,1.3-.26,2.3,2.3,0,0,1,1.3.28,1.1,1.1,0,0,1,.49.71,4.53,4.53,0,0,1,.09.91v9.93a3.1,3.1,0,0,0,.06.66.89.89,0,0,0,.19.39.68.68,0,0,0,.35.17,2.19,2.19,0,0,0,.55.05,4.67,4.67,0,0,1,1,.1,1.1,1.1,0,0,1,.67.45,2.3,2.3,0,0,1,.23,1.18,2.4,2.4,0,0,1-.27,1.3,1.05,1.05,0,0,1-.72.47A5.31,5.31,0,0,1,266.19,33.93Z"/><path class="cls-2" d="M272.55,19.63a2.53,2.53,0,0,1-1.35-.27,1.14,1.14,0,0,1-.49-.73,4.87,4.87,0,0,1-.08-.95,5.64,5.64,0,0,1,.08-1,1.07,1.07,0,0,1,.5-.7,2.63,2.63,0,0,1,1.37-.26,2.43,2.43,0,0,1,1.32.27,1.14,1.14,0,0,1,.49.73,4.92,4.92,0,0,1,.09,1,4.73,4.73,0,0,1-.09.93,1.07,1.07,0,0,1-.49.71A2.65,2.65,0,0,1,272.55,19.63Zm0,14.3a2.52,2.52,0,0,1-1.32-.26,1,1,0,0,1-.48-.7,5.41,5.41,0,0,1-.07-.91V23.33a4.46,4.46,0,0,1,.09-.91,1.06,1.06,0,0,1,.49-.7,2.47,2.47,0,0,1,1.32-.26,2.34,2.34,0,0,1,1.29.27,1.15,1.15,0,0,1,.48.71,5.67,5.67,0,0,1,.08.94v8.7a4.63,4.63,0,0,1-.09.92,1,1,0,0,1-.48.68A2.47,2.47,0,0,1,272.54,33.93Z"/><path class="cls-2" d="M283.27,34a6.42,6.42,0,0,1-2.24-.42,6.92,6.92,0,0,1-2.1-1.21,5.92,5.92,0,0,1-1.54-2,6.35,6.35,0,0,1-.57-2.75,6.09,6.09,0,0,1,.58-2.73,6,6,0,0,1,1.52-2A6.87,6.87,0,0,1,281,21.75a6.37,6.37,0,0,1,2.21-.41,6.15,6.15,0,0,1,1.67.21,5.6,5.6,0,0,1,1.25.51,3.74,3.74,0,0,1,.73.53,6.26,6.26,0,0,1,.75.65,1.05,1.05,0,0,1,.3.85,1.56,1.56,0,0,1-.17.56,4.48,4.48,0,0,1-.38.59c-.52.7-1,1-1.5,1a2.27,2.27,0,0,1-.69-.25l-.6-.35a3.88,3.88,0,0,0-.61-.31,1.79,1.79,0,0,0-.75-.14,2.56,2.56,0,0,0-1.3.33,2.61,2.61,0,0,0-.91.9A2.69,2.69,0,0,0,281,29a2.53,2.53,0,0,0,.9.91,2.42,2.42,0,0,0,1.26.34,2.32,2.32,0,0,0,.72-.1,2.59,2.59,0,0,0,.55-.24l.35-.21.58-.36a1.07,1.07,0,0,1,.55-.17,1.25,1.25,0,0,1,.74.27,4.1,4.1,0,0,1,.81.84,2.17,2.17,0,0,1,.49,1,1.18,1.18,0,0,1-.22.86,2.69,2.69,0,0,1-.85.77,4.39,4.39,0,0,1-.71.44,6.49,6.49,0,0,1-1.25.5A5.69,5.69,0,0,1,283.27,34Z"/><path class="cls-2" d="M300.42,33.92A2.42,2.42,0,0,1,299,33.6a.9.9,0,0,1-.42-.8l.25-.43a2.82,2.82,0,0,1-.58.61,3.87,3.87,0,0,1-1.11.65,4.15,4.15,0,0,1-1.66.29,5,5,0,0,1-2.19-.5A6,6,0,0,1,291.49,32a7,7,0,0,1-1.27-2,6,6,0,0,1-.48-2.38,6.08,6.08,0,0,1,.48-2.34,6.85,6.85,0,0,1,1.29-2A6.24,6.24,0,0,1,293.35,22a4.93,4.93,0,0,1,2.17-.5,4.35,4.35,0,0,1,1.58.26,4.51,4.51,0,0,1,1.09.62,3.43,3.43,0,0,1,.66.67l-.23-.35a1.05,1.05,0,0,1,.44-.91,2.4,2.4,0,0,1,1.39-.31,2.34,2.34,0,0,1,1.29.27,1.19,1.19,0,0,1,.47.73,4.86,4.86,0,0,1,.09.95V32a4.73,4.73,0,0,1-.09.93,1,1,0,0,1-.47.71A2.41,2.41,0,0,1,300.42,33.92ZM296,30.2a2.21,2.21,0,0,0,1.2-.34,2.6,2.6,0,0,0,1.18-2.19,2.62,2.62,0,0,0-.32-1.29,2.4,2.4,0,0,0-.88-.88,2.33,2.33,0,0,0-1.22-.33,2.39,2.39,0,0,0-1.27.34,2.61,2.61,0,0,0-.9.91,2.57,2.57,0,0,0-.34,1.3,2.43,2.43,0,0,0,.34,1.24A2.6,2.6,0,0,0,296,30.2Z"/><path class="cls-2" d="M309.59,34a14.14,14.14,0,0,1-1.82-.1,3.58,3.58,0,0,1-1.35-.4,2.42,2.42,0,0,1-.9-.84,3.92,3.92,0,0,1-.53-1.37,10.88,10.88,0,0,1-.17-2.06V17.63a3.84,3.84,0,0,1,.1-.93,1.17,1.17,0,0,1,.48-.7,2.41,2.41,0,0,1,1.32-.27A2.28,2.28,0,0,1,308,16a1.21,1.21,0,0,1,.49.7,3.9,3.9,0,0,1,.1.93V29a5.88,5.88,0,0,0,0,.67,1,1,0,0,0,.15.41.51.51,0,0,0,.31.2,2.5,2.5,0,0,0,.53,0,2.6,2.6,0,0,1,.61.07.89.89,0,0,1,.54.45A2.58,2.58,0,0,1,311,32.1a2.78,2.78,0,0,1-.22,1.3.88.88,0,0,1-.54.48A2.73,2.73,0,0,1,309.59,34Z"/><text class="cls-4" transform="matrix(0.97, 0, 0, 1, 51.72, 40.47)">3<tspan class="cls-5" x="21.68" y="0">.</tspan><tspan class="cls-6" x="28.19" y="0">1</tspan></text><text class="cls-7" transform="matrix(0.97, 0, 0, 1, 51.72, 40.47)">3<tspan class="cls-5" x="21.68" y="0">.</tspan><tspan class="cls-6" x="28.19" y="0">1</tspan></text></g></g></svg>