<svg xmlns="http://www.w3.org/2000/svg" viewBox="0 0 399.98 138.05"><defs><style>.cls-1{fill:#0468ad;}.cls-2{fill:#fff;}.cls-3,.cls-4{fill:none;stroke-width:5px;}.cls-3{stroke:#c8a927;stroke-linejoin:round;}.cls-4,.cls-5{font-size:37px;font-family:Coiny-Regular, Coiny;}.cls-4{stroke:#fff;}.cls-5{fill:#c8a927;}</style></defs><title>3.2plegado</title><g id="Layer_2" data-name="Layer 2"><g id="pestaña_identificativa" data-name="pestaña identificativa"><path class="cls-1" d="M368.29,0H43.76A43.76,43.76,0,0,0,0,43.76v94.29H400V31.69A31.69,31.69,0,0,0,368.29,0Z"/><path class="cls-2" d="M126.89,33.84a2.43,2.43,0,0,1-1.32-.27,1.14,1.14,0,0,1-.49-.73,4.7,4.7,0,0,1-.09-.92V18.27a4.45,4.45,0,0,1,.1-.91,1.21,1.21,0,0,1,.5-.72,2.47,2.47,0,0,1,1.33-.27h5.12a6.3,6.3,0,0,1,2.1.38,6.18,6.18,0,0,1,2,1.16,5.94,5.94,0,0,1,1.47,1.94,6,6,0,0,1,.57,2.7,6.09,6.09,0,0,1-.57,2.69,6,6,0,0,1-1.47,1.91,6.26,6.26,0,0,1-2,1.15,6.46,6.46,0,0,1-2.13.37h-3.2V32a3.91,3.91,0,0,1-.1.91,1.15,1.15,0,0,1-.5.71A2.47,2.47,0,0,1,126.89,33.84Zm1.93-9h3.23a2.65,2.65,0,0,0,1.09-.24,2.11,2.11,0,0,0,.9-.76,2.64,2.64,0,0,0,.05-2.57,2.3,2.3,0,0,0-.84-.83,2.42,2.42,0,0,0-1.22-.3h-3.2Z"/><path class="cls-2" d="M145.09,33.86a16,16,0,0,1-1.82-.11,3.64,3.64,0,0,1-1.35-.4,2.47,2.47,0,0,1-.9-.83,4,4,0,0,1-.52-1.38,10,10,0,0,1-.18-2.06V17.53a3.9,3.9,0,0,1,.1-.93,1.21,1.21,0,0,1,.49-.7,3.26,3.26,0,0,1,2.6,0,1.19,1.19,0,0,1,.48.7,4,4,0,0,1,.1.93V28.9a6.19,6.19,0,0,0,0,.67,1,1,0,0,0,.15.41.54.54,0,0,0,.32.2,2.34,2.34,0,0,0,.52.05,2.6,2.6,0,0,1,.61.07.94.94,0,0,1,.54.46,2.44,2.44,0,0,1,.22,1.25,2.74,2.74,0,0,1-.22,1.29.88.88,0,0,1-.54.48A2.74,2.74,0,0,1,145.09,33.86Z"/><path class="cls-2" d="M154.52,34.09a7.41,7.41,0,0,1-3-.58A5.9,5.9,0,0,1,149.44,32a6.36,6.36,0,0,1-1.19-2.08,6.92,6.92,0,0,1-.4-2.3,6.45,6.45,0,0,1,.85-3.33A6.09,6.09,0,0,1,151.06,22a7,7,0,0,1,3.47-.84,6.43,6.43,0,0,1,2.51.46,5.11,5.11,0,0,1,1.75,1.21,5,5,0,0,1,1,1.58,4.33,4.33,0,0,1,.34,1.63,2.78,2.78,0,0,1-.67,2.05,2.25,2.25,0,0,1-1.68.67h-6a1.68,1.68,0,0,0,.46,1.07,2.79,2.79,0,0,0,1,.71,3.6,3.6,0,0,0,1.32.25,6.63,6.63,0,0,0,1-.07,4.49,4.49,0,0,0,.79-.17c.21-.08.41-.15.58-.23l.49-.18A1.78,1.78,0,0,1,158,30a1,1,0,0,1,.67.21,2.11,2.11,0,0,1,.58.71,2,2,0,0,1,.23.53,2.07,2.07,0,0,1,.06.5,1.35,1.35,0,0,1-.61,1.09,4.86,4.86,0,0,1-1.72.73A11.06,11.06,0,0,1,154.52,34.09Zm-2.67-7.41h4a1,1,0,0,0,.57-.14c.14-.09.2-.27.2-.54a1.23,1.23,0,0,0-.27-.77,1.64,1.64,0,0,0-.74-.54,2.8,2.8,0,0,0-1.09-.19,3,3,0,0,0-1.35.3,2.36,2.36,0,0,0-.93.8A1.84,1.84,0,0,0,151.85,26.68Z"/><path class="cls-2" d="M167.42,33.54a4.82,4.82,0,0,1-2.16-.49,5.81,5.81,0,0,1-1.79-1.33,6.35,6.35,0,0,1-1.22-1.95,6.12,6.12,0,0,1-.45-2.33,6,6,0,0,1,.45-2.31,6.2,6.2,0,0,1,1.24-1.93,6,6,0,0,1,1.8-1.32,4.73,4.73,0,0,1,2.11-.49,3.84,3.84,0,0,1,1.9.44,3.33,3.33,0,0,1,1.25,1.25,6.46,6.46,0,0,1,.71,1.93,11.82,11.82,0,0,1,.24,2.49,11,11,0,0,1-.42,3.21,4.2,4.2,0,0,1-1.3,2.1A3.58,3.58,0,0,1,167.42,33.54Zm.44,5.48a7,7,0,0,1-1.76-.23,7.61,7.61,0,0,1-1.58-.6,4.52,4.52,0,0,1-1.15-.8,1.21,1.21,0,0,1-.43-.85,1.81,1.81,0,0,1,.15-.74,2.58,2.58,0,0,1,.45-.66,7,7,0,0,1,.6-.57.91.91,0,0,1,.6-.2,1.13,1.13,0,0,1,.63.18L166,35a3.85,3.85,0,0,0,.79.41,3.21,3.21,0,0,0,1.2.19,2.29,2.29,0,0,0,.94-.19,2,2,0,0,0,.75-.55,2.85,2.85,0,0,0,.5-.85,2.9,2.9,0,0,0,.19-1.09V22.54a1.22,1.22,0,0,1,.52-.93,2.49,2.49,0,0,1,1.34-.29,2.31,2.31,0,0,1,1.25.26,1.11,1.11,0,0,1,.46.69,4.43,4.43,0,0,1,.08.9v9.88a5.84,5.84,0,0,1-.53,2.53,5.65,5.65,0,0,1-1.4,1.88,6.23,6.23,0,0,1-1.95,1.16A6.51,6.51,0,0,1,167.86,39Zm0-9.1a2.13,2.13,0,0,0,1.2-.34,2.53,2.53,0,0,0,1.15-2.14,2.5,2.5,0,0,0-.32-1.25,2.41,2.41,0,0,0-.84-.87,2.3,2.3,0,0,0-1.22-.33,2.21,2.21,0,0,0-1.2.34,2.48,2.48,0,0,0-.84.89,2.54,2.54,0,0,0-.31,1.25,2.3,2.3,0,0,0,.33,1.22,2.45,2.45,0,0,0,.86.89A2.15,2.15,0,0,0,167.85,29.92Z"/><path class="cls-2" d="M186.74,33.86a2.4,2.4,0,0,1-1.37-.33.93.93,0,0,1-.43-.8l.25-.43a3,3,0,0,1-.57.62,4.66,4.66,0,0,1-1.12.65,4.3,4.3,0,0,1-1.66.28,5,5,0,0,1-2.18-.5A5.78,5.78,0,0,1,177.82,32a7.24,7.24,0,0,1-1.28-2,6.16,6.16,0,0,1-.47-2.38,5.82,5.82,0,0,1,.48-2.33,6.51,6.51,0,0,1,1.29-2,6.33,6.33,0,0,1,1.83-1.36,5,5,0,0,1,2.18-.5,4.05,4.05,0,0,1,1.57.27,3.88,3.88,0,0,1,1.09.61,3.43,3.43,0,0,1,.66.67L185,22.6a1.05,1.05,0,0,1,.44-.91,2.39,2.39,0,0,1,1.38-.31,2.22,2.22,0,0,1,1.29.28,1.11,1.11,0,0,1,.48.72,4.87,4.87,0,0,1,.08.95V32a4.7,4.7,0,0,1-.09.92,1.09,1.09,0,0,1-.47.71A2.41,2.41,0,0,1,186.74,33.86Zm-4.37-3.73a2.21,2.21,0,0,0,1.2-.34,2.57,2.57,0,0,0,.85-.91,2.52,2.52,0,0,0,.33-1.28,2.46,2.46,0,0,0-.33-1.28,2.33,2.33,0,0,0-.87-.89,2.48,2.48,0,0,0-2.49,0,2.53,2.53,0,0,0-.9.91,2.47,2.47,0,0,0-.34,1.3,2.34,2.34,0,0,0,.34,1.24,2.56,2.56,0,0,0,.92.9A2.59,2.59,0,0,0,182.37,30.13Z"/><path class="cls-2" d="M196.47,33.86a5,5,0,0,1-2.18-.49A5.83,5.83,0,0,1,192.47,32a6.88,6.88,0,0,1-1.26-2,6.27,6.27,0,0,1-.46-2.41,6.06,6.06,0,0,1,.46-2.34,6.43,6.43,0,0,1,1.28-2,6.33,6.33,0,0,1,1.83-1.36,4.91,4.91,0,0,1,2.15-.5,4.29,4.29,0,0,1,3.64,1.83,6.31,6.31,0,0,1,.94,2,9.6,9.6,0,0,1,.35,2.35,8.87,8.87,0,0,1-.31,2.4,6.22,6.22,0,0,1-.92,2,4.67,4.67,0,0,1-1.55,1.39A4.41,4.41,0,0,1,196.47,33.86Zm.5-3.7a2.19,2.19,0,0,0,1.21-.34,2.56,2.56,0,0,0,.88-.91,2.51,2.51,0,0,0,.34-1.27,2.48,2.48,0,0,0-.33-1.27,2.58,2.58,0,0,0-.87-.9,2.55,2.55,0,0,0-2.49,0,2.31,2.31,0,0,0-.88.9,2.71,2.71,0,0,0-.31,1.27,2.52,2.52,0,0,0,.33,1.28A2.45,2.45,0,0,0,197,30.16Zm4.35,3.73a2.28,2.28,0,0,1-1.27-.28,1.28,1.28,0,0,1-.53-.85V17.61a6.73,6.73,0,0,1,.06-.91A1,1,0,0,1,200,16a2.15,2.15,0,0,1,1.27-.28,2.38,2.38,0,0,1,1.33.27,1.08,1.08,0,0,1,.47.68,4,4,0,0,1,.1.93V32a5.31,5.31,0,0,1-.08.91,1.12,1.12,0,0,1-.48.71A2.29,2.29,0,0,1,201.32,33.89Z"/><path class="cls-2" d="M211.72,34.09a6.21,6.21,0,0,1-2.34-.46,7.24,7.24,0,0,1-2.11-1.31,6.24,6.24,0,0,1-1.51-2,6,6,0,0,1-.56-2.64,6.16,6.16,0,0,1,.51-2.51,6.75,6.75,0,0,1,3.48-3.47,5.93,5.93,0,0,1,2.48-.52,6.4,6.4,0,0,1,3.27.87,6.53,6.53,0,0,1,2.33,2.34,6.38,6.38,0,0,1-1.19,8A6.46,6.46,0,0,1,214,33.66,6.31,6.31,0,0,1,211.72,34.09Zm-.05-3.77a2.85,2.85,0,0,0,1.23-.3,2.81,2.81,0,0,0,1-.9,2.6,2.6,0,0,0,.42-1.52,2.74,2.74,0,0,0-.35-1.4,2.41,2.41,0,0,0-1-.94,2.83,2.83,0,0,0-1.41-.34,2.6,2.6,0,0,0-1.34.35,2.65,2.65,0,0,0-.95,1,2.69,2.69,0,0,0-.36,1.39,2.6,2.6,0,0,0,.41,1.51,2.47,2.47,0,0,0,1,.9A3,3,0,0,0,211.67,30.32Z"/><path class="cls-2" d="M228.47,33.9a2.42,2.42,0,0,1-1.32-.26,1.1,1.1,0,0,1-.47-.7,4.62,4.62,0,0,1-.09-.94V17.6a4.4,4.4,0,0,1,.1-.92,1.16,1.16,0,0,1,.49-.69,2.5,2.5,0,0,1,1.31-.26,2.31,2.31,0,0,1,1.32.28,1.12,1.12,0,0,1,.47.7,4.42,4.42,0,0,1,.09.92v5.1a5.44,5.44,0,0,1,1.17-.9,3.22,3.22,0,0,1,1.68-.42,5,5,0,0,1,2.79.79,5.67,5.67,0,0,1,2,2.16,6.6,6.6,0,0,1,.73,3.15V32a4.4,4.4,0,0,1-.1.92,1.19,1.19,0,0,1-.48.69,3.43,3.43,0,0,1-2.62,0A1.08,1.08,0,0,1,235,33a4.76,4.76,0,0,1-.09-.94V27.48a2.87,2.87,0,0,0-.25-1.23,2,2,0,0,0-.74-.82,2.24,2.24,0,0,0-1.19-.3,2.5,2.5,0,0,0-1.61.56,2.07,2.07,0,0,0-.79,1.37v5a4.57,4.57,0,0,1-.1.93,1.11,1.11,0,0,1-.49.68A2.32,2.32,0,0,1,228.47,33.9Z"/><path class="cls-2" d="M247,34.12a6.3,6.3,0,0,1-2.34-.47,7.16,7.16,0,0,1-2.11-1.31,6.53,6.53,0,0,1-1.51-2,6.47,6.47,0,0,1-.05-5.15,6.83,6.83,0,0,1,1.42-2.06,6.75,6.75,0,0,1,2.06-1.41,6.16,6.16,0,0,1,2.49-.51,6.33,6.33,0,0,1,3.26.86,6.64,6.64,0,0,1,2.34,2.34,6.71,6.71,0,0,1,.31,6,6.5,6.5,0,0,1-1.5,2,6.57,6.57,0,0,1-2.08,1.29A6.38,6.38,0,0,1,247,34.12Zm0-3.78a2.85,2.85,0,0,0,1.23-.3,2.56,2.56,0,0,0,1.48-2.42,2.74,2.74,0,0,0-.35-1.4,2.5,2.5,0,0,0-1-.94,2.78,2.78,0,0,0-1.41-.34,2.63,2.63,0,0,0-1.34.35,2.73,2.73,0,0,0-.95,1,2.93,2.93,0,0,0,0,2.9,2.49,2.49,0,0,0,1,.9A2.94,2.94,0,0,0,247,30.34Z"/><path class="cls-2" d="M257.37,33.92a2.52,2.52,0,0,1-1.32-.26,1.12,1.12,0,0,1-.47-.71,4.73,4.73,0,0,1-.09-.93V23.3a4.45,4.45,0,0,1,.09-.93,1.07,1.07,0,0,1,.48-.69,2.59,2.59,0,0,1,1.33-.26,2.5,2.5,0,0,1,1.26.24,1.06,1.06,0,0,1,.49.55,2.08,2.08,0,0,1,.1.54l-.3.15a2,2,0,0,1,.26-.36,3.2,3.2,0,0,1,.59-.55,3.14,3.14,0,0,1,.91-.49,3.62,3.62,0,0,1,1.24-.2,4.55,4.55,0,0,1,.61,0,3,3,0,0,1,.7.15,2.47,2.47,0,0,1,.66.3,1.55,1.55,0,0,1,.49.46,1.14,1.14,0,0,1,.19.68,3,3,0,0,1-.48,1.73,1.39,1.39,0,0,1-1.2.71,2.11,2.11,0,0,1-.6-.06,1.13,1.13,0,0,1-.29-.15.93.93,0,0,0-.26-.15,1.68,1.68,0,0,0-.55-.06,2.34,2.34,0,0,0-.71.1,2.17,2.17,0,0,0-.63.31,1.54,1.54,0,0,0-.45.53,1.58,1.58,0,0,0-.16.71v5.47a4.63,4.63,0,0,1-.09.92,1,1,0,0,1-.49.68A2.58,2.58,0,0,1,257.37,33.92Z"/><path class="cls-2" d="M268.57,19.63a2.36,2.36,0,0,1-1.34-.28,1.09,1.09,0,0,1-.49-.72,4.86,4.86,0,0,1-.09-.95,4.92,4.92,0,0,1,.09-1,1,1,0,0,1,.5-.69,2.57,2.57,0,0,1,1.36-.27,2.46,2.46,0,0,1,1.33.28,1.1,1.1,0,0,1,.48.72,5,5,0,0,1,.09,1,4.73,4.73,0,0,1-.09.93,1.09,1.09,0,0,1-.48.71A2.66,2.66,0,0,1,268.57,19.63Zm0,14.3a2.59,2.59,0,0,1-1.33-.26,1,1,0,0,1-.47-.71,5.31,5.31,0,0,1-.08-.91V23.33a4.46,4.46,0,0,1,.09-.91,1,1,0,0,1,.48-.7,2.47,2.47,0,0,1,1.33-.27,2.33,2.33,0,0,1,1.29.28,1.14,1.14,0,0,1,.47.71,4.69,4.69,0,0,1,.09.94v8.7a4.46,4.46,0,0,1-.09.91,1,1,0,0,1-.47.69A2.52,2.52,0,0,1,268.57,33.93Z"/><path class="cls-2" d="M274.49,33.93a1.84,1.84,0,0,1-1.85-1.87,2,2,0,0,1,.14-.73,1.81,1.81,0,0,1,.41-.62l5.68-5.5h-3.8a4.45,4.45,0,0,1-.91-.1,1.28,1.28,0,0,1-.73-.49,2.29,2.29,0,0,1-.28-1.31,2.22,2.22,0,0,1,.29-1.32,1.19,1.19,0,0,1,.72-.47,4.53,4.53,0,0,1,.91-.09h7.83a1.79,1.79,0,0,1,1.32.52,1.82,1.82,0,0,1,.53,1.33,2.18,2.18,0,0,1-.14.76,1.45,1.45,0,0,1-.39.59l-5.55,5.52h4.52a4.49,4.49,0,0,1,.93.1,1.18,1.18,0,0,1,.69.5,2.59,2.59,0,0,1,.26,1.33,2.3,2.3,0,0,1-.28,1.3,1,1,0,0,1-.7.47,5.25,5.25,0,0,1-.92.08Z"/><path class="cls-2" d="M293.12,34.14a6.21,6.21,0,0,1-2.34-.46,7.11,7.11,0,0,1-2.11-1.31,6.24,6.24,0,0,1-1.51-2,6,6,0,0,1-.57-2.64,6.33,6.33,0,0,1,.52-2.51,6.51,6.51,0,0,1,1.41-2.06,6.7,6.7,0,0,1,2.07-1.42,6.08,6.08,0,0,1,2.48-.51,6.24,6.24,0,0,1,3.26.87,6.4,6.4,0,0,1,2.34,2.34,6.69,6.69,0,0,1,.31,6,6.43,6.43,0,0,1-1.5,2,6.57,6.57,0,0,1-2.08,1.29A6.35,6.35,0,0,1,293.12,34.14Zm-.05-3.77a2.78,2.78,0,0,0,1.22-.3,2.67,2.67,0,0,0,1-.9,2.54,2.54,0,0,0,.43-1.53,2.77,2.77,0,0,0-.35-1.4,2.39,2.39,0,0,0-1-.93,2.83,2.83,0,0,0-1.41-.34,2.51,2.51,0,0,0-1.34.35,2.65,2.65,0,0,0-.95,1,2.7,2.7,0,0,0-.37,1.39,2.61,2.61,0,0,0,.42,1.51,2.47,2.47,0,0,0,1,.9A3,3,0,0,0,293.07,30.37Z"/><path class="cls-2" d="M303.44,33.92a2.38,2.38,0,0,1-1.31-.26,1.07,1.07,0,0,1-.48-.7,5.31,5.31,0,0,1-.08-.91v-8.8a4.19,4.19,0,0,1,.09-.89,1,1,0,0,1,.49-.66,2.56,2.56,0,0,1,1.32-.25,2.51,2.51,0,0,1,1.18.21,1.06,1.06,0,0,1,.49.52,1.64,1.64,0,0,1,.11.56.8.8,0,0,0,.05.36l-.15.48a1.45,1.45,0,0,1,.39-.77,3.35,3.35,0,0,1,.85-.7,4.53,4.53,0,0,1,1.1-.48,3.9,3.9,0,0,1,1.16-.18,5.05,5.05,0,0,1,2.14.44,4.4,4.4,0,0,1,1.58,1.26,5.93,5.93,0,0,1,1,1.94,8.28,8.28,0,0,1,.33,2.44v4.55a4.46,4.46,0,0,1-.09.91,1,1,0,0,1-.47.69,2.59,2.59,0,0,1-1.34.25,2.52,2.52,0,0,1-1.32-.26A1.08,1.08,0,0,1,310,33a4.63,4.63,0,0,1-.09-.92V27.53a2.78,2.78,0,0,0-.27-1.28,1.81,1.81,0,0,0-.75-.8,2.46,2.46,0,0,0-1.21-.27,2.59,2.59,0,0,0-1.25.28,2.06,2.06,0,0,0-.81.82,2.57,2.57,0,0,0-.29,1.25v4.55a4.53,4.53,0,0,1-.09.91,1.06,1.06,0,0,1-.48.69A2.49,2.49,0,0,1,303.44,33.92Z"/><path class="cls-2" d="M316.92,21.66h2.75l3.45-.1a4.29,4.29,0,0,1,.9.09,1.08,1.08,0,0,1,.7.49,2.33,2.33,0,0,1,.28,1.32,2.25,2.25,0,0,1-.27,1.25,1.11,1.11,0,0,1-.68.51,3.48,3.48,0,0,1-.93.12l-3.27-.08-3,0a1.26,1.26,0,0,1-1-.46,2.55,2.55,0,0,1-.29-1.39,2.17,2.17,0,0,1,.35-1.34A1.28,1.28,0,0,1,316.92,21.66ZM322.57,34a7.87,7.87,0,0,1-2.2-.27,3.65,3.65,0,0,1-1.52-.86,3.5,3.5,0,0,1-.87-1.46,6.89,6.89,0,0,1-.29-2.11V19.13a4.15,4.15,0,0,1,.09-.92,1,1,0,0,1,.49-.66,2.38,2.38,0,0,1,1.3-.27,2.48,2.48,0,0,1,1.3.28,1.12,1.12,0,0,1,.48.71,4.56,4.56,0,0,1,.09.92v9.92a2.42,2.42,0,0,0,.07.66.79.79,0,0,0,.18.39.83.83,0,0,0,.35.18,2.87,2.87,0,0,0,.55.05,4.16,4.16,0,0,1,1,.1,1,1,0,0,1,.66.45,2.13,2.13,0,0,1,.24,1.17,2.36,2.36,0,0,1-.28,1.3,1,1,0,0,1-.71.48A5.41,5.41,0,0,1,322.57,34Z"/><path class="cls-2" d="M337.12,34a2.34,2.34,0,0,1-1.38-.33.9.9,0,0,1-.42-.8l.25-.43A3.06,3.06,0,0,1,335,33a4.39,4.39,0,0,1-1.11.65,4.34,4.34,0,0,1-1.66.28,5,5,0,0,1-2.19-.5,5.89,5.89,0,0,1-1.84-1.39,7,7,0,0,1-1.27-2,6,6,0,0,1-.48-2.38,5.82,5.82,0,0,1,.48-2.33,6.77,6.77,0,0,1,1.29-2A6.24,6.24,0,0,1,330.05,22a4.93,4.93,0,0,1,2.17-.5,4.14,4.14,0,0,1,1.58.27,4,4,0,0,1,1.08.61,3.24,3.24,0,0,1,.67.67l-.23-.35a1.05,1.05,0,0,1,.44-.91,2.4,2.4,0,0,1,1.39-.31,2.24,2.24,0,0,1,1.29.28,1.14,1.14,0,0,1,.47.72,4.86,4.86,0,0,1,.09,1v8.63a4.7,4.7,0,0,1-.09.92,1,1,0,0,1-.47.71A2.39,2.39,0,0,1,337.12,34Zm-4.38-3.73a2.13,2.13,0,0,0,1.2-.34,2.48,2.48,0,0,0,.85-.91,2.52,2.52,0,0,0,.33-1.28,2.46,2.46,0,0,0-.33-1.28,2.26,2.26,0,0,0-.87-.89,2.33,2.33,0,0,0-1.22-.33,2.39,2.39,0,0,0-1.27.34,2.61,2.61,0,0,0-.9.91,2.57,2.57,0,0,0-.34,1.3,2.43,2.43,0,0,0,.34,1.24,2.6,2.6,0,0,0,2.21,1.24Z"/><path class="cls-2" d="M346.29,34a16,16,0,0,1-1.82-.11,3.58,3.58,0,0,1-1.35-.4,2.47,2.47,0,0,1-.9-.83,4,4,0,0,1-.53-1.38,10.88,10.88,0,0,1-.17-2.06V17.65a3.89,3.89,0,0,1,.11-.93,1.15,1.15,0,0,1,.48-.7,2.41,2.41,0,0,1,1.32-.27,2.28,2.28,0,0,1,1.28.27,1.21,1.21,0,0,1,.49.7,4,4,0,0,1,.1.93V29a5.83,5.83,0,0,0,0,.66,1,1,0,0,0,.15.41.51.51,0,0,0,.31.2,2.5,2.5,0,0,0,.53.05,2.18,2.18,0,0,1,.61.08.89.89,0,0,1,.54.45,2.55,2.55,0,0,1,.22,1.25,2.81,2.81,0,0,1-.22,1.3.89.89,0,0,1-.54.47A2.74,2.74,0,0,1,346.29,34Z"/><path class="cls-3" d="M126.89,33.84a2.43,2.43,0,0,1-1.32-.27,1.14,1.14,0,0,1-.49-.73,4.7,4.7,0,0,1-.09-.92V18.27a4.45,4.45,0,0,1,.1-.91,1.21,1.21,0,0,1,.5-.72,2.47,2.47,0,0,1,1.33-.27h5.12a6.3,6.3,0,0,1,2.1.38,6.18,6.18,0,0,1,2,1.16,5.94,5.94,0,0,1,1.47,1.94,6,6,0,0,1,.57,2.7,6.09,6.09,0,0,1-.57,2.69,6,6,0,0,1-1.47,1.91,6.26,6.26,0,0,1-2,1.15,6.46,6.46,0,0,1-2.13.37h-3.2V32a3.91,3.91,0,0,1-.1.91,1.15,1.15,0,0,1-.5.71A2.47,2.47,0,0,1,126.89,33.84Zm1.93-9h3.23a2.65,2.65,0,0,0,1.09-.24,2.11,2.11,0,0,0,.9-.76,2.64,2.64,0,0,0,.05-2.57,2.3,2.3,0,0,0-.84-.83,2.42,2.42,0,0,0-1.22-.3h-3.2Z"/><path class="cls-3" d="M145.09,33.86a16,16,0,0,1-1.82-.11,3.64,3.64,0,0,1-1.35-.4,2.47,2.47,0,0,1-.9-.83,4,4,0,0,1-.52-1.38,10,10,0,0,1-.18-2.06V17.53a3.9,3.9,0,0,1,.1-.93,1.21,1.21,0,0,1,.49-.7,3.26,3.26,0,0,1,2.6,0,1.19,1.19,0,0,1,.48.7,4,4,0,0,1,.1.93V28.9a6.19,6.19,0,0,0,0,.67,1,1,0,0,0,.15.41.54.54,0,0,0,.32.2,2.34,2.34,0,0,0,.52.05,2.6,2.6,0,0,1,.61.07.94.94,0,0,1,.54.46,2.44,2.44,0,0,1,.22,1.25,2.74,2.74,0,0,1-.22,1.29.88.88,0,0,1-.54.48A2.74,2.74,0,0,1,145.09,33.86Z"/><path class="cls-3" d="M154.52,34.09a7.41,7.41,0,0,1-3-.58A5.9,5.9,0,0,1,149.44,32a6.36,6.36,0,0,1-1.19-2.08,6.92,6.92,0,0,1-.4-2.3,6.45,6.45,0,0,1,.85-3.33A6.09,6.09,0,0,1,151.06,22a7,7,0,0,1,3.47-.84,6.43,6.43,0,0,1,2.51.46,5.11,5.11,0,0,1,1.75,1.21,5,5,0,0,1,1,1.58,4.33,4.33,0,0,1,.34,1.63,2.78,2.78,0,0,1-.67,2.05,2.25,2.25,0,0,1-1.68.67h-6a1.68,1.68,0,0,0,.46,1.07,2.79,2.79,0,0,0,1,.71,3.6,3.6,0,0,0,1.32.25,6.63,6.63,0,0,0,1-.07,4.49,4.49,0,0,0,.79-.17c.21-.08.41-.15.58-.23l.49-.18A1.78,1.78,0,0,1,158,30a1,1,0,0,1,.67.21,2.11,2.11,0,0,1,.58.71,2,2,0,0,1,.23.53,2.07,2.07,0,0,1,.06.5,1.35,1.35,0,0,1-.61,1.09,4.86,4.86,0,0,1-1.72.73A11.06,11.06,0,0,1,154.52,34.09Zm-2.67-7.41h4a1,1,0,0,0,.57-.14c.14-.09.2-.27.2-.54a1.23,1.23,0,0,0-.27-.77,1.64,1.64,0,0,0-.74-.54,2.8,2.8,0,0,0-1.09-.19,3,3,0,0,0-1.35.3,2.36,2.36,0,0,0-.93.8A1.84,1.84,0,0,0,151.85,26.68Z"/><path class="cls-3" d="M167.42,33.54a4.82,4.82,0,0,1-2.16-.49,5.81,5.81,0,0,1-1.79-1.33,6.35,6.35,0,0,1-1.22-1.95,6.12,6.12,0,0,1-.45-2.33,6,6,0,0,1,.45-2.31,6.2,6.2,0,0,1,1.24-1.93,6,6,0,0,1,1.8-1.32,4.73,4.73,0,0,1,2.11-.49,3.84,3.84,0,0,1,1.9.44,3.33,3.33,0,0,1,1.25,1.25,6.46,6.46,0,0,1,.71,1.93,11.82,11.82,0,0,1,.24,2.49,11,11,0,0,1-.42,3.21,4.2,4.2,0,0,1-1.3,2.1A3.58,3.58,0,0,1,167.42,33.54Zm.44,5.48a7,7,0,0,1-1.76-.23,7.61,7.61,0,0,1-1.58-.6,4.52,4.52,0,0,1-1.15-.8,1.21,1.21,0,0,1-.43-.85,1.81,1.81,0,0,1,.15-.74,2.58,2.58,0,0,1,.45-.66,7,7,0,0,1,.6-.57.91.91,0,0,1,.6-.2,1.13,1.13,0,0,1,.63.18L166,35a3.85,3.85,0,0,0,.79.41,3.21,3.21,0,0,0,1.2.19,2.29,2.29,0,0,0,.94-.19,2,2,0,0,0,.75-.55,2.85,2.85,0,0,0,.5-.85,2.9,2.9,0,0,0,.19-1.09V22.54a1.22,1.22,0,0,1,.52-.93,2.49,2.49,0,0,1,1.34-.29,2.31,2.31,0,0,1,1.25.26,1.11,1.11,0,0,1,.46.69,4.43,4.43,0,0,1,.08.9v9.88a5.84,5.84,0,0,1-.53,2.53,5.65,5.65,0,0,1-1.4,1.88,6.23,6.23,0,0,1-1.95,1.16A6.51,6.51,0,0,1,167.86,39Zm0-9.1a2.13,2.13,0,0,0,1.2-.34,2.53,2.53,0,0,0,1.15-2.14,2.5,2.5,0,0,0-.32-1.25,2.41,2.41,0,0,0-.84-.87,2.3,2.3,0,0,0-1.22-.33,2.21,2.21,0,0,0-1.2.34,2.48,2.48,0,0,0-.84.89,2.54,2.54,0,0,0-.31,1.25,2.3,2.3,0,0,0,.33,1.22,2.45,2.45,0,0,0,.86.89A2.15,2.15,0,0,0,167.85,29.92Z"/><path class="cls-3" d="M186.74,33.86a2.4,2.4,0,0,1-1.37-.33.93.93,0,0,1-.43-.8l.25-.43a3,3,0,0,1-.57.62,4.66,4.66,0,0,1-1.12.65,4.3,4.3,0,0,1-1.66.28,5,5,0,0,1-2.18-.5A5.78,5.78,0,0,1,177.82,32a7.24,7.24,0,0,1-1.28-2,6.16,6.16,0,0,1-.47-2.38,5.82,5.82,0,0,1,.48-2.33,6.51,6.51,0,0,1,1.29-2,6.33,6.33,0,0,1,1.83-1.36,5,5,0,0,1,2.18-.5,4.05,4.05,0,0,1,1.57.27,3.88,3.88,0,0,1,1.09.61,3.43,3.43,0,0,1,.66.67L185,22.6a1.05,1.05,0,0,1,.44-.91,2.39,2.39,0,0,1,1.38-.31,2.22,2.22,0,0,1,1.29.28,1.11,1.11,0,0,1,.48.72,4.87,4.87,0,0,1,.08.95V32a4.7,4.7,0,0,1-.09.92,1.09,1.09,0,0,1-.47.71A2.41,2.41,0,0,1,186.74,33.86Zm-4.37-3.73a2.21,2.21,0,0,0,1.2-.34,2.57,2.57,0,0,0,.85-.91,2.52,2.52,0,0,0,.33-1.28,2.46,2.46,0,0,0-.33-1.28,2.33,2.33,0,0,0-.87-.89,2.48,2.48,0,0,0-2.49,0,2.53,2.53,0,0,0-.9.91,2.47,2.47,0,0,0-.34,1.3,2.34,2.34,0,0,0,.34,1.24,2.56,2.56,0,0,0,.92.9A2.59,2.59,0,0,0,182.37,30.13Z"/><path class="cls-3" d="M196.47,33.86a5,5,0,0,1-2.18-.49A5.83,5.83,0,0,1,192.47,32a6.88,6.88,0,0,1-1.26-2,6.27,6.27,0,0,1-.46-2.41,6.06,6.06,0,0,1,.46-2.34,6.43,6.43,0,0,1,1.28-2,6.33,6.33,0,0,1,1.83-1.36,4.91,4.91,0,0,1,2.15-.5,4.29,4.29,0,0,1,3.64,1.83,6.31,6.31,0,0,1,.94,2,9.6,9.6,0,0,1,.35,2.35,8.87,8.87,0,0,1-.31,2.4,6.22,6.22,0,0,1-.92,2,4.67,4.67,0,0,1-1.55,1.39A4.41,4.41,0,0,1,196.47,33.86Zm.5-3.7a2.19,2.19,0,0,0,1.21-.34,2.56,2.56,0,0,0,.88-.91,2.51,2.51,0,0,0,.34-1.27,2.48,2.48,0,0,0-.33-1.27,2.58,2.58,0,0,0-.87-.9,2.55,2.55,0,0,0-2.49,0,2.31,2.31,0,0,0-.88.9,2.71,2.71,0,0,0-.31,1.27,2.52,2.52,0,0,0,.33,1.28A2.45,2.45,0,0,0,197,30.16Zm4.35,3.73a2.28,2.28,0,0,1-1.27-.28,1.28,1.28,0,0,1-.53-.85V17.61a6.73,6.73,0,0,1,.06-.91A1,1,0,0,1,200,16a2.15,2.15,0,0,1,1.27-.28,2.38,2.38,0,0,1,1.33.27,1.08,1.08,0,0,1,.47.68,4,4,0,0,1,.1.93V32a5.31,5.31,0,0,1-.08.91,1.12,1.12,0,0,1-.48.71A2.29,2.29,0,0,1,201.32,33.89Z"/><path class="cls-3" d="M211.72,34.09a6.21,6.21,0,0,1-2.34-.46,7.24,7.24,0,0,1-2.11-1.31,6.24,6.24,0,0,1-1.51-2,6,6,0,0,1-.56-2.64,6.16,6.16,0,0,1,.51-2.51,6.75,6.75,0,0,1,3.48-3.47,5.93,5.93,0,0,1,2.48-.52,6.4,6.4,0,0,1,3.27.87,6.53,6.53,0,0,1,2.33,2.34,6.38,6.38,0,0,1-1.19,8A6.46,6.46,0,0,1,214,33.66,6.31,6.31,0,0,1,211.72,34.09Zm-.05-3.77a2.85,2.85,0,0,0,1.23-.3,2.81,2.81,0,0,0,1-.9,2.6,2.6,0,0,0,.42-1.52,2.74,2.74,0,0,0-.35-1.4,2.41,2.41,0,0,0-1-.94,2.83,2.83,0,0,0-1.41-.34,2.6,2.6,0,0,0-1.34.35,2.65,2.65,0,0,0-.95,1,2.69,2.69,0,0,0-.36,1.39,2.6,2.6,0,0,0,.41,1.51,2.47,2.47,0,0,0,1,.9A3,3,0,0,0,211.67,30.32Z"/><path class="cls-3" d="M228.47,33.9a2.42,2.42,0,0,1-1.32-.26,1.1,1.1,0,0,1-.47-.7,4.62,4.62,0,0,1-.09-.94V17.6a4.4,4.4,0,0,1,.1-.92,1.16,1.16,0,0,1,.49-.69,2.5,2.5,0,0,1,1.31-.26,2.31,2.31,0,0,1,1.32.28,1.12,1.12,0,0,1,.47.7,4.42,4.42,0,0,1,.09.92v5.1a5.44,5.44,0,0,1,1.17-.9,3.22,3.22,0,0,1,1.68-.42,5,5,0,0,1,2.79.79,5.67,5.67,0,0,1,2,2.16,6.6,6.6,0,0,1,.73,3.15V32a4.4,4.4,0,0,1-.1.92,1.19,1.19,0,0,1-.48.69,3.43,3.43,0,0,1-2.62,0A1.08,1.08,0,0,1,235,33a4.76,4.76,0,0,1-.09-.94V27.48a2.87,2.87,0,0,0-.25-1.23,2,2,0,0,0-.74-.82,2.24,2.24,0,0,0-1.19-.3,2.5,2.5,0,0,0-1.61.56,2.07,2.07,0,0,0-.79,1.37v5a4.57,4.57,0,0,1-.1.93,1.11,1.11,0,0,1-.49.68A2.32,2.32,0,0,1,228.47,33.9Z"/><path class="cls-3" d="M247,34.12a6.3,6.3,0,0,1-2.34-.47,7.16,7.16,0,0,1-2.11-1.31,6.53,6.53,0,0,1-1.51-2,6.47,6.47,0,0,1-.05-5.15,6.83,6.83,0,0,1,1.42-2.06,6.75,6.75,0,0,1,2.06-1.41,6.16,6.16,0,0,1,2.49-.51,6.33,6.33,0,0,1,3.26.86,6.64,6.64,0,0,1,2.34,2.34,6.71,6.71,0,0,1,.31,6,6.5,6.5,0,0,1-1.5,2,6.57,6.57,0,0,1-2.08,1.29A6.38,6.38,0,0,1,247,34.12Zm0-3.78a2.85,2.85,0,0,0,1.23-.3,2.56,2.56,0,0,0,1.48-2.42,2.74,2.74,0,0,0-.35-1.4,2.5,2.5,0,0,0-1-.94,2.78,2.78,0,0,0-1.41-.34,2.63,2.63,0,0,0-1.34.35,2.73,2.73,0,0,0-.95,1,2.93,2.93,0,0,0,0,2.9,2.49,2.49,0,0,0,1,.9A2.94,2.94,0,0,0,247,30.34Z"/><path class="cls-3" d="M257.37,33.92a2.52,2.52,0,0,1-1.32-.26,1.12,1.12,0,0,1-.47-.71,4.73,4.73,0,0,1-.09-.93V23.3a4.45,4.45,0,0,1,.09-.93,1.07,1.07,0,0,1,.48-.69,2.59,2.59,0,0,1,1.33-.26,2.5,2.5,0,0,1,1.26.24,1.06,1.06,0,0,1,.49.55,2.08,2.08,0,0,1,.1.54l-.3.15a2,2,0,0,1,.26-.36,3.2,3.2,0,0,1,.59-.55,3.14,3.14,0,0,1,.91-.49,3.62,3.62,0,0,1,1.24-.2,4.55,4.55,0,0,1,.61,0,3,3,0,0,1,.7.15,2.47,2.47,0,0,1,.66.3,1.55,1.55,0,0,1,.49.46,1.14,1.14,0,0,1,.19.68,3,3,0,0,1-.48,1.73,1.39,1.39,0,0,1-1.2.71,2.11,2.11,0,0,1-.6-.06,1.13,1.13,0,0,1-.29-.15.93.93,0,0,0-.26-.15,1.68,1.68,0,0,0-.55-.06,2.34,2.34,0,0,0-.71.1,2.17,2.17,0,0,0-.63.31,1.54,1.54,0,0,0-.45.53,1.58,1.58,0,0,0-.16.71v5.47a4.63,4.63,0,0,1-.09.92,1,1,0,0,1-.49.68A2.58,2.58,0,0,1,257.37,33.92Z"/><path class="cls-3" d="M268.57,19.63a2.36,2.36,0,0,1-1.34-.28,1.09,1.09,0,0,1-.49-.72,4.86,4.86,0,0,1-.09-.95,4.92,4.92,0,0,1,.09-1,1,1,0,0,1,.5-.69,2.57,2.57,0,0,1,1.36-.27,2.46,2.46,0,0,1,1.33.28,1.1,1.1,0,0,1,.48.72,5,5,0,0,1,.09,1,4.73,4.73,0,0,1-.09.93,1.09,1.09,0,0,1-.48.71A2.66,2.66,0,0,1,268.57,19.63Zm0,14.3a2.59,2.59,0,0,1-1.33-.26,1,1,0,0,1-.47-.71,5.31,5.31,0,0,1-.08-.91V23.33a4.46,4.46,0,0,1,.09-.91,1,1,0,0,1,.48-.7,2.47,2.47,0,0,1,1.33-.27,2.33,2.33,0,0,1,1.29.28,1.14,1.14,0,0,1,.47.71,4.69,4.69,0,0,1,.09.94v8.7a4.46,4.46,0,0,1-.09.91,1,1,0,0,1-.47.69A2.52,2.52,0,0,1,268.57,33.93Z"/><path class="cls-3" d="M274.49,33.93a1.84,1.84,0,0,1-1.85-1.87,2,2,0,0,1,.14-.73,1.81,1.81,0,0,1,.41-.62l5.68-5.5h-3.8a4.45,4.45,0,0,1-.91-.1,1.28,1.28,0,0,1-.73-.49,2.29,2.29,0,0,1-.28-1.31,2.22,2.22,0,0,1,.29-1.32,1.19,1.19,0,0,1,.72-.47,4.53,4.53,0,0,1,.91-.09h7.83a1.79,1.79,0,0,1,1.32.52,1.82,1.82,0,0,1,.53,1.33,2.18,2.18,0,0,1-.14.76,1.45,1.45,0,0,1-.39.59l-5.55,5.52h4.52a4.49,4.49,0,0,1,.93.1,1.18,1.18,0,0,1,.69.5,2.59,2.59,0,0,1,.26,1.33,2.3,2.3,0,0,1-.28,1.3,1,1,0,0,1-.7.47,5.25,5.25,0,0,1-.92.08Z"/><path class="cls-3" d="M293.12,34.14a6.21,6.21,0,0,1-2.34-.46,7.11,7.11,0,0,1-2.11-1.31,6.24,6.24,0,0,1-1.51-2,6,6,0,0,1-.57-2.64,6.33,6.33,0,0,1,.52-2.51,6.51,6.51,0,0,1,1.41-2.06,6.7,6.7,0,0,1,2.07-1.42,6.08,6.08,0,0,1,2.48-.51,6.24,6.24,0,0,1,3.26.87,6.4,6.4,0,0,1,2.34,2.34,6.69,6.69,0,0,1,.31,6,6.43,6.43,0,0,1-1.5,2,6.57,6.57,0,0,1-2.08,1.29A6.35,6.35,0,0,1,293.12,34.14Zm-.05-3.77a2.78,2.78,0,0,0,1.22-.3,2.67,2.67,0,0,0,1-.9,2.54,2.54,0,0,0,.43-1.53,2.77,2.77,0,0,0-.35-1.4,2.39,2.39,0,0,0-1-.93,2.83,2.83,0,0,0-1.41-.34,2.51,2.51,0,0,0-1.34.35,2.65,2.65,0,0,0-.95,1,2.7,2.7,0,0,0-.37,1.39,2.61,2.61,0,0,0,.42,1.51,2.47,2.47,0,0,0,1,.9A3,3,0,0,0,293.07,30.37Z"/><path class="cls-3" d="M303.44,33.92a2.38,2.38,0,0,1-1.31-.26,1.07,1.07,0,0,1-.48-.7,5.31,5.31,0,0,1-.08-.91v-8.8a4.19,4.19,0,0,1,.09-.89,1,1,0,0,1,.49-.66,2.56,2.56,0,0,1,1.32-.25,2.51,2.51,0,0,1,1.18.21,1.06,1.06,0,0,1,.49.52,1.64,1.64,0,0,1,.11.56.8.8,0,0,0,.05.36l-.15.48a1.45,1.45,0,0,1,.39-.77,3.35,3.35,0,0,1,.85-.7,4.53,4.53,0,0,1,1.1-.48,3.9,3.9,0,0,1,1.16-.18,5.05,5.05,0,0,1,2.14.44,4.4,4.4,0,0,1,1.58,1.26,5.93,5.93,0,0,1,1,1.94,8.28,8.28,0,0,1,.33,2.44v4.55a4.46,4.46,0,0,1-.09.91,1,1,0,0,1-.47.69,2.59,2.59,0,0,1-1.34.25,2.52,2.52,0,0,1-1.32-.26A1.08,1.08,0,0,1,310,33a4.63,4.63,0,0,1-.09-.92V27.53a2.78,2.78,0,0,0-.27-1.28,1.81,1.81,0,0,0-.75-.8,2.46,2.46,0,0,0-1.21-.27,2.59,2.59,0,0,0-1.25.28,2.06,2.06,0,0,0-.81.82,2.57,2.57,0,0,0-.29,1.25v4.55a4.53,4.53,0,0,1-.09.91,1.06,1.06,0,0,1-.48.69A2.49,2.49,0,0,1,303.44,33.92Z"/><path class="cls-3" d="M316.92,21.66h2.75l3.45-.1a4.29,4.29,0,0,1,.9.09,1.08,1.08,0,0,1,.7.49,2.33,2.33,0,0,1,.28,1.32,2.25,2.25,0,0,1-.27,1.25,1.11,1.11,0,0,1-.68.51,3.48,3.48,0,0,1-.93.12l-3.27-.08-3,0a1.26,1.26,0,0,1-1-.46,2.55,2.55,0,0,1-.29-1.39,2.17,2.17,0,0,1,.35-1.34A1.28,1.28,0,0,1,316.92,21.66ZM322.57,34a7.87,7.87,0,0,1-2.2-.27,3.65,3.65,0,0,1-1.52-.86,3.5,3.5,0,0,1-.87-1.46,6.89,6.89,0,0,1-.29-2.11V19.13a4.15,4.15,0,0,1,.09-.92,1,1,0,0,1,.49-.66,2.38,2.38,0,0,1,1.3-.27,2.48,2.48,0,0,1,1.3.28,1.12,1.12,0,0,1,.48.71,4.56,4.56,0,0,1,.09.92v9.92a2.42,2.42,0,0,0,.07.66.79.79,0,0,0,.18.39.83.83,0,0,0,.35.18,2.87,2.87,0,0,0,.55.05,4.16,4.16,0,0,1,1,.1,1,1,0,0,1,.66.45,2.13,2.13,0,0,1,.24,1.17,2.36,2.36,0,0,1-.28,1.3,1,1,0,0,1-.71.48A5.41,5.41,0,0,1,322.57,34Z"/><path class="cls-3" d="M337.12,34a2.34,2.34,0,0,1-1.38-.33.9.9,0,0,1-.42-.8l.25-.43A3.06,3.06,0,0,1,335,33a4.39,4.39,0,0,1-1.11.65,4.34,4.34,0,0,1-1.66.28,5,5,0,0,1-2.19-.5,5.89,5.89,0,0,1-1.84-1.39,7,7,0,0,1-1.27-2,6,6,0,0,1-.48-2.38,5.82,5.82,0,0,1,.48-2.33,6.77,6.77,0,0,1,1.29-2A6.24,6.24,0,0,1,330.05,22a4.93,4.93,0,0,1,2.17-.5,4.14,4.14,0,0,1,1.58.27,4,4,0,0,1,1.08.61,3.24,3.24,0,0,1,.67.67l-.23-.35a1.05,1.05,0,0,1,.44-.91,2.4,2.4,0,0,1,1.39-.31,2.24,2.24,0,0,1,1.29.28,1.14,1.14,0,0,1,.47.72,4.86,4.86,0,0,1,.09,1v8.63a4.7,4.7,0,0,1-.09.92,1,1,0,0,1-.47.71A2.39,2.39,0,0,1,337.12,34Zm-4.38-3.73a2.13,2.13,0,0,0,1.2-.34,2.48,2.48,0,0,0,.85-.91,2.52,2.52,0,0,0,.33-1.28,2.46,2.46,0,0,0-.33-1.28,2.26,2.26,0,0,0-.87-.89,2.33,2.33,0,0,0-1.22-.33,2.39,2.39,0,0,0-1.27.34,2.61,2.61,0,0,0-.9.91,2.57,2.57,0,0,0-.34,1.3,2.43,2.43,0,0,0,.34,1.24,2.6,2.6,0,0,0,2.21,1.24Z"/><path class="cls-3" d="M346.29,34a16,16,0,0,1-1.82-.11,3.58,3.58,0,0,1-1.35-.4,2.47,2.47,0,0,1-.9-.83,4,4,0,0,1-.53-1.38,10.88,10.88,0,0,1-.17-2.06V17.65a3.89,3.89,0,0,1,.11-.93,1.15,1.15,0,0,1,.48-.7,2.41,2.41,0,0,1,1.32-.27,2.28,2.28,0,0,1,1.28.27,1.21,1.21,0,0,1,.49.7,4,4,0,0,1,.1.93V29a5.83,5.83,0,0,0,0,.66,1,1,0,0,0,.15.41.51.51,0,0,0,.31.2,2.5,2.5,0,0,0,.53.05,2.18,2.18,0,0,1,.61.08.89.89,0,0,1,.54.45,2.55,2.55,0,0,1,.22,1.25,2.81,2.81,0,0,1-.22,1.3.89.89,0,0,1-.54.47A2.74,2.74,0,0,1,346.29,34Z"/><path class="cls-2" d="M126.89,33.84a2.43,2.43,0,0,1-1.32-.27,1.14,1.14,0,0,1-.49-.73,4.7,4.7,0,0,1-.09-.92V18.27a4.45,4.45,0,0,1,.1-.91,1.21,1.21,0,0,1,.5-.72,2.47,2.47,0,0,1,1.33-.27h5.12a6.3,6.3,0,0,1,2.1.38,6.18,6.18,0,0,1,2,1.16,5.94,5.94,0,0,1,1.47,1.94,6,6,0,0,1,.57,2.7,6.09,6.09,0,0,1-.57,2.69,6,6,0,0,1-1.47,1.91,6.26,6.26,0,0,1-2,1.15,6.46,6.46,0,0,1-2.13.37h-3.2V32a3.91,3.91,0,0,1-.1.91,1.15,1.15,0,0,1-.5.71A2.47,2.47,0,0,1,126.89,33.84Zm1.93-9h3.23a2.65,2.65,0,0,0,1.09-.24,2.11,2.11,0,0,0,.9-.76,2.64,2.64,0,0,0,.05-2.57,2.3,2.3,0,0,0-.84-.83,2.42,2.42,0,0,0-1.22-.3h-3.2Z"/><path class="cls-2" d="M145.09,33.86a16,16,0,0,1-1.82-.11,3.64,3.64,0,0,1-1.35-.4,2.47,2.47,0,0,1-.9-.83,4,4,0,0,1-.52-1.38,10,10,0,0,1-.18-2.06V17.53a3.9,3.9,0,0,1,.1-.93,1.21,1.21,0,0,1,.49-.7,3.26,3.26,0,0,1,2.6,0,1.19,1.19,0,0,1,.48.7,4,4,0,0,1,.1.93V28.9a6.19,6.19,0,0,0,0,.67,1,1,0,0,0,.15.41.54.54,0,0,0,.32.2,2.34,2.34,0,0,0,.52.05,2.6,2.6,0,0,1,.61.07.94.94,0,0,1,.54.46,2.44,2.44,0,0,1,.22,1.25,2.74,2.74,0,0,1-.22,1.29.88.88,0,0,1-.54.48A2.74,2.74,0,0,1,145.09,33.86Z"/><path class="cls-2" d="M154.52,34.09a7.41,7.41,0,0,1-3-.58A5.9,5.9,0,0,1,149.44,32a6.36,6.36,0,0,1-1.19-2.08,6.92,6.92,0,0,1-.4-2.3,6.45,6.45,0,0,1,.85-3.33A6.09,6.09,0,0,1,151.06,22a7,7,0,0,1,3.47-.84,6.43,6.43,0,0,1,2.51.46,5.11,5.11,0,0,1,1.75,1.21,5,5,0,0,1,1,1.58,4.33,4.33,0,0,1,.34,1.63,2.78,2.78,0,0,1-.67,2.05,2.25,2.25,0,0,1-1.68.67h-6a1.68,1.68,0,0,0,.46,1.07,2.79,2.79,0,0,0,1,.71,3.6,3.6,0,0,0,1.32.25,6.63,6.63,0,0,0,1-.07,4.49,4.49,0,0,0,.79-.17c.21-.08.41-.15.58-.23l.49-.18A1.78,1.78,0,0,1,158,30a1,1,0,0,1,.67.21,2.11,2.11,0,0,1,.58.71,2,2,0,0,1,.23.53,2.07,2.07,0,0,1,.06.5,1.35,1.35,0,0,1-.61,1.09,4.86,4.86,0,0,1-1.72.73A11.06,11.06,0,0,1,154.52,34.09Zm-2.67-7.41h4a1,1,0,0,0,.57-.14c.14-.09.2-.27.2-.54a1.23,1.23,0,0,0-.27-.77,1.64,1.64,0,0,0-.74-.54,2.8,2.8,0,0,0-1.09-.19,3,3,0,0,0-1.35.3,2.36,2.36,0,0,0-.93.8A1.84,1.84,0,0,0,151.85,26.68Z"/><path class="cls-2" d="M167.42,33.54a4.82,4.82,0,0,1-2.16-.49,5.81,5.81,0,0,1-1.79-1.33,6.35,6.35,0,0,1-1.22-1.95,6.12,6.12,0,0,1-.45-2.33,6,6,0,0,1,.45-2.31,6.2,6.2,0,0,1,1.24-1.93,6,6,0,0,1,1.8-1.32,4.73,4.73,0,0,1,2.11-.49,3.84,3.84,0,0,1,1.9.44,3.33,3.33,0,0,1,1.25,1.25,6.46,6.46,0,0,1,.71,1.93,11.82,11.82,0,0,1,.24,2.49,11,11,0,0,1-.42,3.21,4.2,4.2,0,0,1-1.3,2.1A3.58,3.58,0,0,1,167.42,33.54Zm.44,5.48a7,7,0,0,1-1.76-.23,7.61,7.61,0,0,1-1.58-.6,4.52,4.52,0,0,1-1.15-.8,1.21,1.21,0,0,1-.43-.85,1.81,1.81,0,0,1,.15-.74,2.58,2.58,0,0,1,.45-.66,7,7,0,0,1,.6-.57.91.91,0,0,1,.6-.2,1.13,1.13,0,0,1,.63.18L166,35a3.85,3.85,0,0,0,.79.41,3.21,3.21,0,0,0,1.2.19,2.29,2.29,0,0,0,.94-.19,2,2,0,0,0,.75-.55,2.85,2.85,0,0,0,.5-.85,2.9,2.9,0,0,0,.19-1.09V22.54a1.22,1.22,0,0,1,.52-.93,2.49,2.49,0,0,1,1.34-.29,2.31,2.31,0,0,1,1.25.26,1.11,1.11,0,0,1,.46.69,4.43,4.43,0,0,1,.08.9v9.88a5.84,5.84,0,0,1-.53,2.53,5.65,5.65,0,0,1-1.4,1.88,6.23,6.23,0,0,1-1.95,1.16A6.51,6.51,0,0,1,167.86,39Zm0-9.1a2.13,2.13,0,0,0,1.2-.34,2.53,2.53,0,0,0,1.15-2.14,2.5,2.5,0,0,0-.32-1.25,2.41,2.41,0,0,0-.84-.87,2.3,2.3,0,0,0-1.22-.33,2.21,2.21,0,0,0-1.2.34,2.48,2.48,0,0,0-.84.89,2.54,2.54,0,0,0-.31,1.25,2.3,2.3,0,0,0,.33,1.22,2.45,2.45,0,0,0,.86.89A2.15,2.15,0,0,0,167.85,29.92Z"/><path class="cls-2" d="M186.74,33.86a2.4,2.4,0,0,1-1.37-.33.93.93,0,0,1-.43-.8l.25-.43a3,3,0,0,1-.57.62,4.66,4.66,0,0,1-1.12.65,4.3,4.3,0,0,1-1.66.28,5,5,0,0,1-2.18-.5A5.78,5.78,0,0,1,177.82,32a7.24,7.24,0,0,1-1.28-2,6.16,6.16,0,0,1-.47-2.38,5.82,5.82,0,0,1,.48-2.33,6.51,6.51,0,0,1,1.29-2,6.33,6.33,0,0,1,1.83-1.36,5,5,0,0,1,2.18-.5,4.05,4.05,0,0,1,1.57.27,3.88,3.88,0,0,1,1.09.61,3.43,3.43,0,0,1,.66.67L185,22.6a1.05,1.05,0,0,1,.44-.91,2.39,2.39,0,0,1,1.38-.31,2.22,2.22,0,0,1,1.29.28,1.11,1.11,0,0,1,.48.72,4.87,4.87,0,0,1,.08.95V32a4.7,4.7,0,0,1-.09.92,1.09,1.09,0,0,1-.47.71A2.41,2.41,0,0,1,186.74,33.86Zm-4.37-3.73a2.21,2.21,0,0,0,1.2-.34,2.57,2.57,0,0,0,.85-.91,2.52,2.52,0,0,0,.33-1.28,2.46,2.46,0,0,0-.33-1.28,2.33,2.33,0,0,0-.87-.89,2.48,2.48,0,0,0-2.49,0,2.53,2.53,0,0,0-.9.91,2.47,2.47,0,0,0-.34,1.3,2.34,2.34,0,0,0,.34,1.24,2.56,2.56,0,0,0,.92.9A2.59,2.59,0,0,0,182.37,30.13Z"/><path class="cls-2" d="M196.47,33.86a5,5,0,0,1-2.18-.49A5.83,5.83,0,0,1,192.47,32a6.88,6.88,0,0,1-1.26-2,6.27,6.27,0,0,1-.46-2.41,6.06,6.06,0,0,1,.46-2.34,6.43,6.43,0,0,1,1.28-2,6.33,6.33,0,0,1,1.83-1.36,4.91,4.91,0,0,1,2.15-.5,4.29,4.29,0,0,1,3.64,1.83,6.31,6.31,0,0,1,.94,2,9.6,9.6,0,0,1,.35,2.35,8.87,8.87,0,0,1-.31,2.4,6.22,6.22,0,0,1-.92,2,4.67,4.67,0,0,1-1.55,1.39A4.41,4.41,0,0,1,196.47,33.86Zm.5-3.7a2.19,2.19,0,0,0,1.21-.34,2.56,2.56,0,0,0,.88-.91,2.51,2.51,0,0,0,.34-1.27,2.48,2.48,0,0,0-.33-1.27,2.58,2.58,0,0,0-.87-.9,2.55,2.55,0,0,0-2.49,0,2.31,2.31,0,0,0-.88.9,2.71,2.71,0,0,0-.31,1.27,2.52,2.52,0,0,0,.33,1.28A2.45,2.45,0,0,0,197,30.16Zm4.35,3.73a2.28,2.28,0,0,1-1.27-.28,1.28,1.28,0,0,1-.53-.85V17.61a6.73,6.73,0,0,1,.06-.91A1,1,0,0,1,200,16a2.15,2.15,0,0,1,1.27-.28,2.38,2.38,0,0,1,1.33.27,1.08,1.08,0,0,1,.47.68,4,4,0,0,1,.1.93V32a5.31,5.31,0,0,1-.08.91,1.12,1.12,0,0,1-.48.71A2.29,2.29,0,0,1,201.32,33.89Z"/><path class="cls-2" d="M211.72,34.09a6.21,6.21,0,0,1-2.34-.46,7.24,7.24,0,0,1-2.11-1.31,6.24,6.24,0,0,1-1.51-2,6,6,0,0,1-.56-2.64,6.16,6.16,0,0,1,.51-2.51,6.75,6.75,0,0,1,3.48-3.47,5.93,5.93,0,0,1,2.48-.52,6.4,6.4,0,0,1,3.27.87,6.53,6.53,0,0,1,2.33,2.34,6.38,6.38,0,0,1-1.19,8A6.46,6.46,0,0,1,214,33.66,6.31,6.31,0,0,1,211.72,34.09Zm-.05-3.77a2.85,2.85,0,0,0,1.23-.3,2.81,2.81,0,0,0,1-.9,2.6,2.6,0,0,0,.42-1.52,2.74,2.74,0,0,0-.35-1.4,2.41,2.41,0,0,0-1-.94,2.83,2.83,0,0,0-1.41-.34,2.6,2.6,0,0,0-1.34.35,2.65,2.65,0,0,0-.95,1,2.69,2.69,0,0,0-.36,1.39,2.6,2.6,0,0,0,.41,1.51,2.47,2.47,0,0,0,1,.9A3,3,0,0,0,211.67,30.32Z"/><path class="cls-2" d="M228.47,33.9a2.42,2.42,0,0,1-1.32-.26,1.1,1.1,0,0,1-.47-.7,4.62,4.62,0,0,1-.09-.94V17.6a4.4,4.4,0,0,1,.1-.92,1.16,1.16,0,0,1,.49-.69,2.5,2.5,0,0,1,1.31-.26,2.31,2.31,0,0,1,1.32.28,1.12,1.12,0,0,1,.47.7,4.42,4.42,0,0,1,.09.92v5.1a5.44,5.44,0,0,1,1.17-.9,3.22,3.22,0,0,1,1.68-.42,5,5,0,0,1,2.79.79,5.67,5.67,0,0,1,2,2.16,6.6,6.6,0,0,1,.73,3.15V32a4.4,4.4,0,0,1-.1.92,1.19,1.19,0,0,1-.48.69,3.43,3.43,0,0,1-2.62,0A1.08,1.08,0,0,1,235,33a4.76,4.76,0,0,1-.09-.94V27.48a2.87,2.87,0,0,0-.25-1.23,2,2,0,0,0-.74-.82,2.24,2.24,0,0,0-1.19-.3,2.5,2.5,0,0,0-1.61.56,2.07,2.07,0,0,0-.79,1.37v5a4.57,4.57,0,0,1-.1.93,1.11,1.11,0,0,1-.49.68A2.32,2.32,0,0,1,228.47,33.9Z"/><path class="cls-2" d="M247,34.12a6.3,6.3,0,0,1-2.34-.47,7.16,7.16,0,0,1-2.11-1.31,6.53,6.53,0,0,1-1.51-2,6.47,6.47,0,0,1-.05-5.15,6.83,6.83,0,0,1,1.42-2.06,6.75,6.75,0,0,1,2.06-1.41,6.16,6.16,0,0,1,2.49-.51,6.33,6.33,0,0,1,3.26.86,6.64,6.64,0,0,1,2.34,2.34,6.71,6.71,0,0,1,.31,6,6.5,6.5,0,0,1-1.5,2,6.57,6.57,0,0,1-2.08,1.29A6.38,6.38,0,0,1,247,34.12Zm0-3.78a2.85,2.85,0,0,0,1.23-.3,2.56,2.56,0,0,0,1.48-2.42,2.74,2.74,0,0,0-.35-1.4,2.5,2.5,0,0,0-1-.94,2.78,2.78,0,0,0-1.41-.34,2.63,2.63,0,0,0-1.34.35,2.73,2.73,0,0,0-.95,1,2.93,2.93,0,0,0,0,2.9,2.49,2.49,0,0,0,1,.9A2.94,2.94,0,0,0,247,30.34Z"/><path class="cls-2" d="M257.37,33.92a2.52,2.52,0,0,1-1.32-.26,1.12,1.12,0,0,1-.47-.71,4.73,4.73,0,0,1-.09-.93V23.3a4.45,4.45,0,0,1,.09-.93,1.07,1.07,0,0,1,.48-.69,2.59,2.59,0,0,1,1.33-.26,2.5,2.5,0,0,1,1.26.24,1.06,1.06,0,0,1,.49.55,2.08,2.08,0,0,1,.1.54l-.3.15a2,2,0,0,1,.26-.36,3.2,3.2,0,0,1,.59-.55,3.14,3.14,0,0,1,.91-.49,3.62,3.62,0,0,1,1.24-.2,4.55,4.55,0,0,1,.61,0,3,3,0,0,1,.7.15,2.47,2.47,0,0,1,.66.3,1.55,1.55,0,0,1,.49.46,1.14,1.14,0,0,1,.19.68,3,3,0,0,1-.48,1.73,1.39,1.39,0,0,1-1.2.71,2.11,2.11,0,0,1-.6-.06,1.13,1.13,0,0,1-.29-.15.93.93,0,0,0-.26-.15,1.68,1.68,0,0,0-.55-.06,2.34,2.34,0,0,0-.71.1,2.17,2.17,0,0,0-.63.31,1.54,1.54,0,0,0-.45.53,1.58,1.58,0,0,0-.16.71v5.47a4.63,4.63,0,0,1-.09.92,1,1,0,0,1-.49.68A2.58,2.58,0,0,1,257.37,33.92Z"/><path class="cls-2" d="M268.57,19.63a2.36,2.36,0,0,1-1.34-.28,1.09,1.09,0,0,1-.49-.72,4.86,4.86,0,0,1-.09-.95,4.92,4.92,0,0,1,.09-1,1,1,0,0,1,.5-.69,2.57,2.57,0,0,1,1.36-.27,2.46,2.46,0,0,1,1.33.28,1.1,1.1,0,0,1,.48.72,5,5,0,0,1,.09,1,4.73,4.73,0,0,1-.09.93,1.09,1.09,0,0,1-.48.71A2.66,2.66,0,0,1,268.57,19.63Zm0,14.3a2.59,2.59,0,0,1-1.33-.26,1,1,0,0,1-.47-.71,5.31,5.31,0,0,1-.08-.91V23.33a4.46,4.46,0,0,1,.09-.91,1,1,0,0,1,.48-.7,2.47,2.47,0,0,1,1.33-.27,2.33,2.33,0,0,1,1.29.28,1.14,1.14,0,0,1,.47.71,4.69,4.69,0,0,1,.09.94v8.7a4.46,4.46,0,0,1-.09.91,1,1,0,0,1-.47.69A2.52,2.52,0,0,1,268.57,33.93Z"/><path class="cls-2" d="M274.49,33.93a1.84,1.84,0,0,1-1.85-1.87,2,2,0,0,1,.14-.73,1.81,1.81,0,0,1,.41-.62l5.68-5.5h-3.8a4.45,4.45,0,0,1-.91-.1,1.28,1.28,0,0,1-.73-.49,2.29,2.29,0,0,1-.28-1.31,2.22,2.22,0,0,1,.29-1.32,1.19,1.19,0,0,1,.72-.47,4.53,4.53,0,0,1,.91-.09h7.83a1.79,1.79,0,0,1,1.32.52,1.82,1.82,0,0,1,.53,1.33,2.18,2.18,0,0,1-.14.76,1.45,1.45,0,0,1-.39.59l-5.55,5.52h4.52a4.49,4.49,0,0,1,.93.1,1.18,1.18,0,0,1,.69.5,2.59,2.59,0,0,1,.26,1.33,2.3,2.3,0,0,1-.28,1.3,1,1,0,0,1-.7.47,5.25,5.25,0,0,1-.92.08Z"/><path class="cls-2" d="M293.12,34.14a6.21,6.21,0,0,1-2.34-.46,7.11,7.11,0,0,1-2.11-1.31,6.24,6.24,0,0,1-1.51-2,6,6,0,0,1-.57-2.64,6.33,6.33,0,0,1,.52-2.51,6.51,6.51,0,0,1,1.41-2.06,6.7,6.7,0,0,1,2.07-1.42,6.08,6.08,0,0,1,2.48-.51,6.24,6.24,0,0,1,3.26.87,6.4,6.4,0,0,1,2.34,2.34,6.69,6.69,0,0,1,.31,6,6.43,6.43,0,0,1-1.5,2,6.57,6.57,0,0,1-2.08,1.29A6.35,6.35,0,0,1,293.12,34.14Zm-.05-3.77a2.78,2.78,0,0,0,1.22-.3,2.67,2.67,0,0,0,1-.9,2.54,2.54,0,0,0,.43-1.53,2.77,2.77,0,0,0-.35-1.4,2.39,2.39,0,0,0-1-.93,2.83,2.83,0,0,0-1.41-.34,2.51,2.51,0,0,0-1.34.35,2.65,2.65,0,0,0-.95,1,2.7,2.7,0,0,0-.37,1.39,2.61,2.61,0,0,0,.42,1.51,2.47,2.47,0,0,0,1,.9A3,3,0,0,0,293.07,30.37Z"/><path class="cls-2" d="M303.44,33.92a2.38,2.38,0,0,1-1.31-.26,1.07,1.07,0,0,1-.48-.7,5.31,5.31,0,0,1-.08-.91v-8.8a4.19,4.19,0,0,1,.09-.89,1,1,0,0,1,.49-.66,2.56,2.56,0,0,1,1.32-.25,2.51,2.51,0,0,1,1.18.21,1.06,1.06,0,0,1,.49.52,1.64,1.64,0,0,1,.11.56.8.8,0,0,0,.05.36l-.15.48a1.45,1.45,0,0,1,.39-.77,3.35,3.35,0,0,1,.85-.7,4.53,4.53,0,0,1,1.1-.48,3.9,3.9,0,0,1,1.16-.18,5.05,5.05,0,0,1,2.14.44,4.4,4.4,0,0,1,1.58,1.26,5.93,5.93,0,0,1,1,1.94,8.28,8.28,0,0,1,.33,2.44v4.55a4.46,4.46,0,0,1-.09.91,1,1,0,0,1-.47.69,2.59,2.59,0,0,1-1.34.25,2.52,2.52,0,0,1-1.32-.26A1.08,1.08,0,0,1,310,33a4.63,4.63,0,0,1-.09-.92V27.53a2.78,2.78,0,0,0-.27-1.28,1.81,1.81,0,0,0-.75-.8,2.46,2.46,0,0,0-1.21-.27,2.59,2.59,0,0,0-1.25.28,2.06,2.06,0,0,0-.81.82,2.57,2.57,0,0,0-.29,1.25v4.55a4.53,4.53,0,0,1-.09.91,1.06,1.06,0,0,1-.48.69A2.49,2.49,0,0,1,303.44,33.92Z"/><path class="cls-2" d="M316.92,21.66h2.75l3.45-.1a4.29,4.29,0,0,1,.9.09,1.08,1.08,0,0,1,.7.49,2.33,2.33,0,0,1,.28,1.32,2.25,2.25,0,0,1-.27,1.25,1.11,1.11,0,0,1-.68.51,3.48,3.48,0,0,1-.93.12l-3.27-.08-3,0a1.26,1.26,0,0,1-1-.46,2.55,2.55,0,0,1-.29-1.39,2.17,2.17,0,0,1,.35-1.34A1.28,1.28,0,0,1,316.92,21.66ZM322.57,34a7.87,7.87,0,0,1-2.2-.27,3.65,3.65,0,0,1-1.52-.86,3.5,3.5,0,0,1-.87-1.46,6.89,6.89,0,0,1-.29-2.11V19.13a4.15,4.15,0,0,1,.09-.92,1,1,0,0,1,.49-.66,2.38,2.38,0,0,1,1.3-.27,2.48,2.48,0,0,1,1.3.28,1.12,1.12,0,0,1,.48.71,4.56,4.56,0,0,1,.09.92v9.92a2.42,2.42,0,0,0,.07.66.79.79,0,0,0,.18.39.83.83,0,0,0,.35.18,2.87,2.87,0,0,0,.55.05,4.16,4.16,0,0,1,1,.1,1,1,0,0,1,.66.45,2.13,2.13,0,0,1,.24,1.17,2.36,2.36,0,0,1-.28,1.3,1,1,0,0,1-.71.48A5.41,5.41,0,0,1,322.57,34Z"/><path class="cls-2" d="M337.12,34a2.34,2.34,0,0,1-1.38-.33.9.9,0,0,1-.42-.8l.25-.43A3.06,3.06,0,0,1,335,33a4.39,4.39,0,0,1-1.11.65,4.34,4.34,0,0,1-1.66.28,5,5,0,0,1-2.19-.5,5.89,5.89,0,0,1-1.84-1.39,7,7,0,0,1-1.27-2,6,6,0,0,1-.48-2.38,5.82,5.82,0,0,1,.48-2.33,6.77,6.77,0,0,1,1.29-2A6.24,6.24,0,0,1,330.05,22a4.93,4.93,0,0,1,2.17-.5,4.14,4.14,0,0,1,1.58.27,4,4,0,0,1,1.08.61,3.24,3.24,0,0,1,.67.67l-.23-.35a1.05,1.05,0,0,1,.44-.91,2.4,2.4,0,0,1,1.39-.31,2.24,2.24,0,0,1,1.29.28,1.14,1.14,0,0,1,.47.72,4.86,4.86,0,0,1,.09,1v8.63a4.7,4.7,0,0,1-.09.92,1,1,0,0,1-.47.71A2.39,2.39,0,0,1,337.12,34Zm-4.38-3.73a2.13,2.13,0,0,0,1.2-.34,2.48,2.48,0,0,0,.85-.91,2.52,2.52,0,0,0,.33-1.28,2.46,2.46,0,0,0-.33-1.28,2.26,2.26,0,0,0-.87-.89,2.33,2.33,0,0,0-1.22-.33,2.39,2.39,0,0,0-1.27.34,2.61,2.61,0,0,0-.9.91,2.57,2.57,0,0,0-.34,1.3,2.43,2.43,0,0,0,.34,1.24,2.6,2.6,0,0,0,2.21,1.24Z"/><path class="cls-2" d="M346.29,34a16,16,0,0,1-1.82-.11,3.58,3.58,0,0,1-1.35-.4,2.47,2.47,0,0,1-.9-.83,4,4,0,0,1-.53-1.38,10.88,10.88,0,0,1-.17-2.06V17.65a3.89,3.89,0,0,1,.11-.93,1.15,1.15,0,0,1,.48-.7,2.41,2.41,0,0,1,1.32-.27,2.28,2.28,0,0,1,1.28.27,1.21,1.21,0,0,1,.49.7,4,4,0,0,1,.1.93V29a5.83,5.83,0,0,0,0,.66,1,1,0,0,0,.15.41.51.51,0,0,0,.31.2,2.5,2.5,0,0,0,.53.05,2.18,2.18,0,0,1,.61.08.89.89,0,0,1,.54.45,2.55,2.55,0,0,1,.22,1.25,2.81,2.81,0,0,1-.22,1.3.89.89,0,0,1-.54.47A2.74,2.74,0,0,1,346.29,34Z"/><text class="cls-4" transform="matrix(0.97, 0, 0, 1, 51.72, 40.47)">3.2</text><text class="cls-5" transform="matrix(0.97, 0, 0, 1, 51.72, 40.47)">3.2</text></g></g></svg>