<svg xmlns="http://www.w3.org/2000/svg" viewBox="0 0 399.98 138.05"><defs><style>.cls-1{fill:#0468ad;}.cls-2{fill:#fff;}.cls-3,.cls-4{fill:none;stroke-width:5px;}.cls-3{stroke:#c8a927;stroke-miterlimit:10;}.cls-4,.cls-5{font-size:37px;font-family:Coiny-Regular, Coiny;}.cls-4{stroke:#fff;}.cls-5{fill:#c8a927;}</style></defs><title>3.3plegado</title><g id="Layer_2" data-name="Layer 2"><g id="pestaña_identificativa" data-name="pestaña identificativa"><path class="cls-1" d="M368.29,0H43.76A43.76,43.76,0,0,0,0,43.76v94.29H400V31.69A31.69,31.69,0,0,0,368.29,0Z"/><path class="cls-2" d="M113.84,33.84a2.44,2.44,0,0,1-1.32-.28,1.11,1.11,0,0,1-.49-.73,4.63,4.63,0,0,1-.09-.92V18.26a4.45,4.45,0,0,1,.1-.91,1.19,1.19,0,0,1,.5-.71,2.37,2.37,0,0,1,1.33-.28H119a6.3,6.3,0,0,1,2.1.38,6.18,6.18,0,0,1,2,1.16,5.95,5.95,0,0,1,2,4.64,5.93,5.93,0,0,1-.57,2.69,5.85,5.85,0,0,1-1.47,1.91,6.26,6.26,0,0,1-2,1.15,6.46,6.46,0,0,1-2.13.37h-3.2v3.28a3.91,3.91,0,0,1-.1.91,1.15,1.15,0,0,1-.5.71A2.46,2.46,0,0,1,113.84,33.84Zm1.93-9H119a2.81,2.81,0,0,0,1.09-.23,2.18,2.18,0,0,0,.9-.76,2.65,2.65,0,0,0,.05-2.58,2.3,2.3,0,0,0-.84-.83,2.42,2.42,0,0,0-1.22-.3h-3.2Z"/><path class="cls-2" d="M132,33.85a16.21,16.21,0,0,1-1.82-.1,4.13,4.13,0,0,1-1.35-.4,2.5,2.5,0,0,1-.9-.84,4,4,0,0,1-.52-1.38,10,10,0,0,1-.18-2.06V17.52a4,4,0,0,1,.1-.93,1.21,1.21,0,0,1,.49-.7,2.37,2.37,0,0,1,1.31-.27,2.24,2.24,0,0,1,1.29.28,1.1,1.1,0,0,1,.48.7,3.82,3.82,0,0,1,.1.92V28.9a6.12,6.12,0,0,0,0,.66,1,1,0,0,0,.15.41.54.54,0,0,0,.32.2,2.34,2.34,0,0,0,.52,0,2.62,2.62,0,0,1,.61.08.89.89,0,0,1,.54.45,2.44,2.44,0,0,1,.22,1.25,2.81,2.81,0,0,1-.22,1.3.89.89,0,0,1-.54.47A2.74,2.74,0,0,1,132,33.85Z"/><path class="cls-2" d="M141.47,34.08a7.25,7.25,0,0,1-3-.58A5.88,5.88,0,0,1,136.39,32a6.4,6.4,0,0,1-1.19-2.09,6.88,6.88,0,0,1-.4-2.3,6.45,6.45,0,0,1,.85-3.33A6.16,6.16,0,0,1,138,22a7,7,0,0,1,3.47-.84,6.24,6.24,0,0,1,2.51.47,5.23,5.23,0,0,1,1.75,1.2,4.89,4.89,0,0,1,1,1.59A4.25,4.25,0,0,1,147.1,26a2.78,2.78,0,0,1-.67,2,2.25,2.25,0,0,1-1.68.67H138.8a1.71,1.71,0,0,0,.46,1.08,2.77,2.77,0,0,0,1,.7,3.6,3.6,0,0,0,1.32.25,8.22,8.22,0,0,0,1-.06,4.43,4.43,0,0,0,.79-.18l.58-.22c.18-.08.34-.14.49-.19A2.41,2.41,0,0,1,145,30a1,1,0,0,1,.67.21,2.06,2.06,0,0,1,.58.72,1.8,1.8,0,0,1,.23.52,2.14,2.14,0,0,1,.06.5,1.34,1.34,0,0,1-.61,1.09,4.68,4.68,0,0,1-1.72.73A11.06,11.06,0,0,1,141.47,34.08Zm-2.67-7.4h3.95a1,1,0,0,0,.57-.14c.14-.09.2-.27.2-.54a1.23,1.23,0,0,0-.27-.77,1.72,1.72,0,0,0-.74-.54,3.2,3.2,0,0,0-2.44.11,2.36,2.36,0,0,0-.93.8A1.84,1.84,0,0,0,138.8,26.68Z"/><path class="cls-2" d="M154.37,33.53a5,5,0,0,1-2.16-.48,5.84,5.84,0,0,1-1.79-1.34,6.55,6.55,0,0,1-1.22-1.95,6.12,6.12,0,0,1-.45-2.33,6,6,0,0,1,.45-2.31,6.15,6.15,0,0,1,1.24-1.92,6,6,0,0,1,1.8-1.33,4.72,4.72,0,0,1,2.11-.48,3.84,3.84,0,0,1,1.9.43,3.36,3.36,0,0,1,1.25,1.26,6.39,6.39,0,0,1,.71,1.92,11.82,11.82,0,0,1,.24,2.49A11,11,0,0,1,158,30.7a4.2,4.2,0,0,1-1.3,2.1A3.53,3.53,0,0,1,154.37,33.53Zm.44,5.48a7,7,0,0,1-1.76-.23,7.61,7.61,0,0,1-1.58-.6,4.28,4.28,0,0,1-1.15-.8,1.19,1.19,0,0,1-.43-.85,1.77,1.77,0,0,1,.15-.73,2.46,2.46,0,0,1,.45-.67,7,7,0,0,1,.6-.57.91.91,0,0,1,.6-.2,1.07,1.07,0,0,1,.63.19l.58.41a3.63,3.63,0,0,0,.79.41,3.21,3.21,0,0,0,1.2.19,2.26,2.26,0,0,0,.94-.19,1.92,1.92,0,0,0,.75-.55,2.65,2.65,0,0,0,.5-.85,2.85,2.85,0,0,0,.19-1.08V22.54a1.22,1.22,0,0,1,.52-.94,2.49,2.49,0,0,1,1.34-.29,2.21,2.21,0,0,1,1.25.27,1.07,1.07,0,0,1,.46.68,4.43,4.43,0,0,1,.08.9V33a5.92,5.92,0,0,1-.53,2.54,5.71,5.71,0,0,1-1.4,1.87,6,6,0,0,1-2,1.16A6.28,6.28,0,0,1,154.81,39Zm0-9.1a2.13,2.13,0,0,0,1.2-.34,2.42,2.42,0,0,0,.83-.88,2.5,2.5,0,0,0,.32-1.25,2.45,2.45,0,0,0-.32-1.25,2.37,2.37,0,0,0-.84-.88,2.29,2.29,0,0,0-1.22-.32,2.21,2.21,0,0,0-1.2.33,2.47,2.47,0,0,0-1.15,2.14,2.3,2.3,0,0,0,.33,1.22,2.45,2.45,0,0,0,.86.89A2.15,2.15,0,0,0,154.8,29.91Z"/><path class="cls-2" d="M173.69,33.85a2.33,2.33,0,0,1-1.37-.33.92.92,0,0,1-.43-.8l.25-.42a3,3,0,0,1-.57.61,4.45,4.45,0,0,1-1.11.65,4.39,4.39,0,0,1-1.67.28,4.87,4.87,0,0,1-2.18-.5A5.63,5.63,0,0,1,164.77,32a7,7,0,0,1-1.27-2,6,6,0,0,1-.48-2.37,5.83,5.83,0,0,1,.48-2.34,6.51,6.51,0,0,1,1.29-2,6.42,6.42,0,0,1,1.84-1.36,4.9,4.9,0,0,1,2.17-.5,4.14,4.14,0,0,1,1.58.27,4.24,4.24,0,0,1,1.08.61,3.2,3.2,0,0,1,.66.68l-.22-.35a1.07,1.07,0,0,1,.44-.92,2.48,2.48,0,0,1,1.39-.31,2.21,2.21,0,0,1,1.28.28,1.11,1.11,0,0,1,.48.72,4.87,4.87,0,0,1,.08.95V32a4.7,4.7,0,0,1-.09.92,1.09,1.09,0,0,1-.47.71A2.41,2.41,0,0,1,173.69,33.85Zm-4.37-3.73a2.13,2.13,0,0,0,1.2-.34,2.57,2.57,0,0,0,.85-.91,2.51,2.51,0,0,0,.33-1.27,2.48,2.48,0,0,0-.33-1.29,2.4,2.4,0,0,0-.87-.89,2.36,2.36,0,0,0-1.23-.33,2.48,2.48,0,0,0-1.26.34,2.61,2.61,0,0,0-.9.91,2.5,2.5,0,0,0-.34,1.3,2.34,2.34,0,0,0,.34,1.24,2.41,2.41,0,0,0,.92.9A2.49,2.49,0,0,0,169.32,30.12Z"/><path class="cls-2" d="M183.42,33.85a5,5,0,0,1-2.18-.49A5.83,5.83,0,0,1,179.42,32a6.7,6.7,0,0,1-1.26-2,6.35,6.35,0,0,1-.46-2.42,6,6,0,0,1,.46-2.33,6.48,6.48,0,0,1,1.28-2,6.33,6.33,0,0,1,1.83-1.36,4.91,4.91,0,0,1,2.15-.5,4.51,4.51,0,0,1,2.12.49,4.44,4.44,0,0,1,1.52,1.34,6.42,6.42,0,0,1,.94,2,9.68,9.68,0,0,1,.35,2.36A8.74,8.74,0,0,1,188,30a6,6,0,0,1-.92,2,4.67,4.67,0,0,1-1.55,1.39A4.41,4.41,0,0,1,183.42,33.85Zm.5-3.7a2.27,2.27,0,0,0,1.21-.33,2.68,2.68,0,0,0,.88-.92,2.49,2.49,0,0,0,.34-1.27,2.52,2.52,0,0,0-1.2-2.16,2.32,2.32,0,0,0-1.25-.34,2.49,2.49,0,0,0-1.24.32,2.31,2.31,0,0,0-.88.9,2.75,2.75,0,0,0-.31,1.28,2.51,2.51,0,0,0,.33,1.27,2.38,2.38,0,0,0,.89.92A2.47,2.47,0,0,0,183.92,30.15Zm4.35,3.73a2.38,2.38,0,0,1-1.27-.27,1.32,1.32,0,0,1-.53-.86V17.6a6.73,6.73,0,0,1,.06-.91A1,1,0,0,1,187,16a2.16,2.16,0,0,1,1.27-.27,2.39,2.39,0,0,1,1.33.26,1.08,1.08,0,0,1,.47.69,3.82,3.82,0,0,1,.1.92V32a5.31,5.31,0,0,1-.08.91,1.14,1.14,0,0,1-.48.72A2.39,2.39,0,0,1,188.27,33.88Z"/><path class="cls-2" d="M198.67,34.09a6.22,6.22,0,0,1-2.34-.47,7,7,0,0,1-2.11-1.31,6.24,6.24,0,0,1-1.51-2,6,6,0,0,1-.56-2.64,6.19,6.19,0,0,1,.51-2.51,6.75,6.75,0,0,1,1.41-2.06,6.67,6.67,0,0,1,2.07-1.41,6.09,6.09,0,0,1,2.49-.51,6.38,6.38,0,0,1,3.26.86,6.61,6.61,0,0,1,2.33,2.34,6.63,6.63,0,0,1,.31,6,6.35,6.35,0,0,1-1.5,2A6.68,6.68,0,0,1,201,33.65,6.42,6.42,0,0,1,198.67,34.09Zm0-3.78a2.85,2.85,0,0,0,1.23-.3,2.81,2.81,0,0,0,1.05-.9,2.57,2.57,0,0,0,.42-1.52,2.67,2.67,0,0,0-.35-1.4,2.48,2.48,0,0,0-1-.94,2.94,2.94,0,0,0-1.41-.34,2.6,2.6,0,0,0-1.34.35,2.73,2.73,0,0,0-.95,1,2.69,2.69,0,0,0-.36,1.39,2.6,2.6,0,0,0,.41,1.51,2.43,2.43,0,0,0,1,.9A2.76,2.76,0,0,0,198.62,30.31Z"/><path class="cls-2" d="M219.84,34.12a7.28,7.28,0,0,1-3-.57A5.86,5.86,0,0,1,214.77,32a6.38,6.38,0,0,1-1.2-2.08,6.92,6.92,0,0,1-.4-2.3,6.54,6.54,0,0,1,.85-3.33A6.21,6.21,0,0,1,216.39,22a7.11,7.11,0,0,1,3.46-.83,6.39,6.39,0,0,1,2.51.46,5.11,5.11,0,0,1,1.75,1.21,5.18,5.18,0,0,1,1,1.58,4.51,4.51,0,0,1,.33,1.63,2.84,2.84,0,0,1-.66,2.05,2.27,2.27,0,0,1-1.69.67h-6a1.76,1.76,0,0,0,.46,1.07,2.73,2.73,0,0,0,1,.7,3.69,3.69,0,0,0,1.32.26,8,8,0,0,0,1-.07,4.49,4.49,0,0,0,.79-.17l.59-.23.48-.18a1.89,1.89,0,0,1,.43-.1,1,1,0,0,1,.67.21,2.11,2.11,0,0,1,.58.71,2,2,0,0,1,.24.53,2.07,2.07,0,0,1,.06.5,1.38,1.38,0,0,1-.61,1.09,4.91,4.91,0,0,1-1.73.73A11,11,0,0,1,219.84,34.12Zm-2.67-7.4h4a1.06,1.06,0,0,0,.58-.14.62.62,0,0,0,.2-.54,1.18,1.18,0,0,0-.28-.77,1.67,1.67,0,0,0-.73-.54,2.83,2.83,0,0,0-1.09-.19,3,3,0,0,0-1.35.3,2.39,2.39,0,0,0-.94.8A1.84,1.84,0,0,0,217.17,26.72Z"/><path class="cls-2" d="M229.44,33.88a2.5,2.5,0,0,1-1.31-.26,1.1,1.1,0,0,1-.48-.7,5.43,5.43,0,0,1-.08-.92V23.2a4.1,4.1,0,0,1,.09-.88,1,1,0,0,1,.49-.66,2.58,2.58,0,0,1,1.32-.25,2.51,2.51,0,0,1,1.18.21,1,1,0,0,1,.49.51,1.73,1.73,0,0,1,.11.56.83.83,0,0,0,.05.37l-.15.47a1.43,1.43,0,0,1,.39-.76,3.35,3.35,0,0,1,.85-.7,4.73,4.73,0,0,1,1.1-.49,4.29,4.29,0,0,1,1.16-.17,5.05,5.05,0,0,1,2.14.44,4.29,4.29,0,0,1,1.58,1.26,5.65,5.65,0,0,1,1,1.94,8.51,8.51,0,0,1,.34,2.44V32a4.53,4.53,0,0,1-.09.91,1,1,0,0,1-.47.69,2.68,2.68,0,0,1-1.34.25,2.43,2.43,0,0,1-1.32-.27,1.06,1.06,0,0,1-.49-.7,4.46,4.46,0,0,1-.09-.91V27.48a2.74,2.74,0,0,0-.27-1.27,1.76,1.76,0,0,0-.75-.8,2.43,2.43,0,0,0-1.21-.28,2.59,2.59,0,0,0-1.25.29,2,2,0,0,0-.81.81,2.59,2.59,0,0,0-.29,1.25V32a4.46,4.46,0,0,1-.09.91,1,1,0,0,1-.48.69A2.47,2.47,0,0,1,229.44,33.88Z"/><path class="cls-2" d="M258.54,33.92a2.4,2.4,0,0,1-1.3-.27,1.14,1.14,0,0,1-.49-.73,5.62,5.62,0,0,1-.08-.92V28.8H250a2.4,2.4,0,0,1-1.3-.27,1.17,1.17,0,0,1-.5-.72,3.85,3.85,0,0,1-.1-.91,2.37,2.37,0,0,1,0-.41,2.87,2.87,0,0,1,.05-.31l2.2-8.33c.19-.76.45-1.23.79-1.38a2.47,2.47,0,0,1,1.56,0,2.73,2.73,0,0,1,1.23.6,1,1,0,0,1,.27,1l-1.88,7.17h4.35v-7a4.68,4.68,0,0,1,.08-.87,1.09,1.09,0,0,1,.5-.67,2.65,2.65,0,0,1,1.34-.26,2.46,2.46,0,0,1,1.33.28,1.08,1.08,0,0,1,.48.71,4.69,4.69,0,0,1,.09.94V32a4,4,0,0,1-.1.94,1.07,1.07,0,0,1-.5.7A2.52,2.52,0,0,1,258.54,33.92Z"/><path class="cls-3" d="M113.84,33.84a2.44,2.44,0,0,1-1.32-.28,1.11,1.11,0,0,1-.49-.73,4.63,4.63,0,0,1-.09-.92V18.26a4.45,4.45,0,0,1,.1-.91,1.19,1.19,0,0,1,.5-.71,2.37,2.37,0,0,1,1.33-.28H119a6.3,6.3,0,0,1,2.1.38,6.18,6.18,0,0,1,2,1.16,5.95,5.95,0,0,1,2,4.64,5.93,5.93,0,0,1-.57,2.69,5.85,5.85,0,0,1-1.47,1.91,6.26,6.26,0,0,1-2,1.15,6.46,6.46,0,0,1-2.13.37h-3.2v3.28a3.91,3.91,0,0,1-.1.91,1.15,1.15,0,0,1-.5.71A2.46,2.46,0,0,1,113.84,33.84Zm1.93-9H119a2.81,2.81,0,0,0,1.09-.23,2.18,2.18,0,0,0,.9-.76,2.65,2.65,0,0,0,.05-2.58,2.3,2.3,0,0,0-.84-.83,2.42,2.42,0,0,0-1.22-.3h-3.2Z"/><path class="cls-3" d="M132,33.85a16.21,16.21,0,0,1-1.82-.1,4.13,4.13,0,0,1-1.35-.4,2.5,2.5,0,0,1-.9-.84,4,4,0,0,1-.52-1.38,10,10,0,0,1-.18-2.06V17.52a4,4,0,0,1,.1-.93,1.21,1.21,0,0,1,.49-.7,2.37,2.37,0,0,1,1.31-.27,2.24,2.24,0,0,1,1.29.28,1.1,1.1,0,0,1,.48.7,3.82,3.82,0,0,1,.1.92V28.9a6.12,6.12,0,0,0,0,.66,1,1,0,0,0,.15.41.54.54,0,0,0,.32.2,2.34,2.34,0,0,0,.52,0,2.62,2.62,0,0,1,.61.08.89.89,0,0,1,.54.45,2.44,2.44,0,0,1,.22,1.25,2.81,2.81,0,0,1-.22,1.3.89.89,0,0,1-.54.47A2.74,2.74,0,0,1,132,33.85Z"/><path class="cls-3" d="M141.47,34.08a7.25,7.25,0,0,1-3-.58A5.88,5.88,0,0,1,136.39,32a6.4,6.4,0,0,1-1.19-2.09,6.88,6.88,0,0,1-.4-2.3,6.45,6.45,0,0,1,.85-3.33A6.16,6.16,0,0,1,138,22a7,7,0,0,1,3.47-.84,6.24,6.24,0,0,1,2.51.47,5.23,5.23,0,0,1,1.75,1.2,4.89,4.89,0,0,1,1,1.59A4.25,4.25,0,0,1,147.1,26a2.78,2.78,0,0,1-.67,2,2.25,2.25,0,0,1-1.68.67H138.8a1.71,1.71,0,0,0,.46,1.08,2.77,2.77,0,0,0,1,.7,3.6,3.6,0,0,0,1.32.25,8.22,8.22,0,0,0,1-.06,4.43,4.43,0,0,0,.79-.18l.58-.22c.18-.08.34-.14.49-.19A2.41,2.41,0,0,1,145,30a1,1,0,0,1,.67.21,2.06,2.06,0,0,1,.58.72,1.8,1.8,0,0,1,.23.52,2.14,2.14,0,0,1,.06.5,1.34,1.34,0,0,1-.61,1.09,4.68,4.68,0,0,1-1.72.73A11.06,11.06,0,0,1,141.47,34.08Zm-2.67-7.4h3.95a1,1,0,0,0,.57-.14c.14-.09.2-.27.2-.54a1.23,1.23,0,0,0-.27-.77,1.72,1.72,0,0,0-.74-.54,3.2,3.2,0,0,0-2.44.11,2.36,2.36,0,0,0-.93.8A1.84,1.84,0,0,0,138.8,26.68Z"/><path class="cls-3" d="M154.37,33.53a5,5,0,0,1-2.16-.48,5.84,5.84,0,0,1-1.79-1.34,6.55,6.55,0,0,1-1.22-1.95,6.12,6.12,0,0,1-.45-2.33,6,6,0,0,1,.45-2.31,6.15,6.15,0,0,1,1.24-1.92,6,6,0,0,1,1.8-1.33,4.72,4.72,0,0,1,2.11-.48,3.84,3.84,0,0,1,1.9.43,3.36,3.36,0,0,1,1.25,1.26,6.39,6.39,0,0,1,.71,1.92,11.82,11.82,0,0,1,.24,2.49A11,11,0,0,1,158,30.7a4.2,4.2,0,0,1-1.3,2.1A3.53,3.53,0,0,1,154.37,33.53Zm.44,5.48a7,7,0,0,1-1.76-.23,7.61,7.61,0,0,1-1.58-.6,4.28,4.28,0,0,1-1.15-.8,1.19,1.19,0,0,1-.43-.85,1.77,1.77,0,0,1,.15-.73,2.46,2.46,0,0,1,.45-.67,7,7,0,0,1,.6-.57.91.91,0,0,1,.6-.2,1.07,1.07,0,0,1,.63.19l.58.41a3.63,3.63,0,0,0,.79.41,3.21,3.21,0,0,0,1.2.19,2.26,2.26,0,0,0,.94-.19,1.92,1.92,0,0,0,.75-.55,2.65,2.65,0,0,0,.5-.85,2.85,2.85,0,0,0,.19-1.08V22.54a1.22,1.22,0,0,1,.52-.94,2.49,2.49,0,0,1,1.34-.29,2.21,2.21,0,0,1,1.25.27,1.07,1.07,0,0,1,.46.68,4.43,4.43,0,0,1,.08.9V33a5.92,5.92,0,0,1-.53,2.54,5.71,5.71,0,0,1-1.4,1.87,6,6,0,0,1-2,1.16A6.28,6.28,0,0,1,154.81,39Zm0-9.1a2.13,2.13,0,0,0,1.2-.34,2.42,2.42,0,0,0,.83-.88,2.5,2.5,0,0,0,.32-1.25,2.45,2.45,0,0,0-.32-1.25,2.37,2.37,0,0,0-.84-.88,2.29,2.29,0,0,0-1.22-.32,2.21,2.21,0,0,0-1.2.33,2.47,2.47,0,0,0-1.15,2.14,2.3,2.3,0,0,0,.33,1.22,2.45,2.45,0,0,0,.86.89A2.15,2.15,0,0,0,154.8,29.91Z"/><path class="cls-3" d="M173.69,33.85a2.33,2.33,0,0,1-1.37-.33.92.92,0,0,1-.43-.8l.25-.42a3,3,0,0,1-.57.61,4.45,4.45,0,0,1-1.11.65,4.39,4.39,0,0,1-1.67.28,4.87,4.87,0,0,1-2.18-.5A5.63,5.63,0,0,1,164.77,32a7,7,0,0,1-1.27-2,6,6,0,0,1-.48-2.37,5.83,5.83,0,0,1,.48-2.34,6.51,6.51,0,0,1,1.29-2,6.42,6.42,0,0,1,1.84-1.36,4.9,4.9,0,0,1,2.17-.5,4.14,4.14,0,0,1,1.58.27,4.24,4.24,0,0,1,1.08.61,3.2,3.2,0,0,1,.66.68l-.22-.35a1.07,1.07,0,0,1,.44-.92,2.48,2.48,0,0,1,1.39-.31,2.21,2.21,0,0,1,1.28.28,1.11,1.11,0,0,1,.48.72,4.87,4.87,0,0,1,.08.95V32a4.7,4.7,0,0,1-.09.92,1.09,1.09,0,0,1-.47.71A2.41,2.41,0,0,1,173.69,33.85Zm-4.37-3.73a2.13,2.13,0,0,0,1.2-.34,2.57,2.57,0,0,0,.85-.91,2.51,2.51,0,0,0,.33-1.27,2.48,2.48,0,0,0-.33-1.29,2.4,2.4,0,0,0-.87-.89,2.36,2.36,0,0,0-1.23-.33,2.48,2.48,0,0,0-1.26.34,2.61,2.61,0,0,0-.9.91,2.5,2.5,0,0,0-.34,1.3,2.34,2.34,0,0,0,.34,1.24,2.41,2.41,0,0,0,.92.9A2.49,2.49,0,0,0,169.32,30.12Z"/><path class="cls-3" d="M183.42,33.85a5,5,0,0,1-2.18-.49A5.83,5.83,0,0,1,179.42,32a6.7,6.7,0,0,1-1.26-2,6.35,6.35,0,0,1-.46-2.42,6,6,0,0,1,.46-2.33,6.48,6.48,0,0,1,1.28-2,6.33,6.33,0,0,1,1.83-1.36,4.91,4.91,0,0,1,2.15-.5,4.51,4.51,0,0,1,2.12.49,4.44,4.44,0,0,1,1.52,1.34,6.42,6.42,0,0,1,.94,2,9.68,9.68,0,0,1,.35,2.36A8.74,8.74,0,0,1,188,30a6,6,0,0,1-.92,2,4.67,4.67,0,0,1-1.55,1.39A4.41,4.41,0,0,1,183.42,33.85Zm.5-3.7a2.27,2.27,0,0,0,1.21-.33,2.68,2.68,0,0,0,.88-.92,2.49,2.49,0,0,0,.34-1.27,2.52,2.52,0,0,0-1.2-2.16,2.32,2.32,0,0,0-1.25-.34,2.49,2.49,0,0,0-1.24.32,2.31,2.31,0,0,0-.88.9,2.75,2.75,0,0,0-.31,1.28,2.51,2.51,0,0,0,.33,1.27,2.38,2.38,0,0,0,.89.92A2.47,2.47,0,0,0,183.92,30.15Zm4.35,3.73a2.38,2.38,0,0,1-1.27-.27,1.32,1.32,0,0,1-.53-.86V17.6a6.73,6.73,0,0,1,.06-.91A1,1,0,0,1,187,16a2.16,2.16,0,0,1,1.27-.27,2.39,2.39,0,0,1,1.33.26,1.08,1.08,0,0,1,.47.69,3.82,3.82,0,0,1,.1.92V32a5.31,5.31,0,0,1-.08.91,1.14,1.14,0,0,1-.48.72A2.39,2.39,0,0,1,188.27,33.88Z"/><path class="cls-3" d="M198.67,34.09a6.22,6.22,0,0,1-2.34-.47,7,7,0,0,1-2.11-1.31,6.24,6.24,0,0,1-1.51-2,6,6,0,0,1-.56-2.64,6.19,6.19,0,0,1,.51-2.51,6.75,6.75,0,0,1,1.41-2.06,6.67,6.67,0,0,1,2.07-1.41,6.09,6.09,0,0,1,2.49-.51,6.38,6.38,0,0,1,3.26.86,6.61,6.61,0,0,1,2.33,2.34,6.63,6.63,0,0,1,.31,6,6.35,6.35,0,0,1-1.5,2A6.68,6.68,0,0,1,201,33.65,6.42,6.42,0,0,1,198.67,34.09Zm0-3.78a2.85,2.85,0,0,0,1.23-.3,2.81,2.81,0,0,0,1.05-.9,2.57,2.57,0,0,0,.42-1.52,2.67,2.67,0,0,0-.35-1.4,2.48,2.48,0,0,0-1-.94,2.94,2.94,0,0,0-1.41-.34,2.6,2.6,0,0,0-1.34.35,2.73,2.73,0,0,0-.95,1,2.69,2.69,0,0,0-.36,1.39,2.6,2.6,0,0,0,.41,1.51,2.43,2.43,0,0,0,1,.9A2.76,2.76,0,0,0,198.62,30.31Z"/><path class="cls-3" d="M219.84,34.12a7.28,7.28,0,0,1-3-.57A5.86,5.86,0,0,1,214.77,32a6.38,6.38,0,0,1-1.2-2.08,6.92,6.92,0,0,1-.4-2.3,6.54,6.54,0,0,1,.85-3.33A6.21,6.21,0,0,1,216.39,22a7.11,7.11,0,0,1,3.46-.83,6.39,6.39,0,0,1,2.51.46,5.11,5.11,0,0,1,1.75,1.21,5.18,5.18,0,0,1,1,1.58,4.51,4.51,0,0,1,.33,1.63,2.84,2.84,0,0,1-.66,2.05,2.27,2.27,0,0,1-1.69.67h-6a1.76,1.76,0,0,0,.46,1.07,2.73,2.73,0,0,0,1,.7,3.69,3.69,0,0,0,1.32.26,8,8,0,0,0,1-.07,4.49,4.49,0,0,0,.79-.17l.59-.23.48-.18a1.89,1.89,0,0,1,.43-.1,1,1,0,0,1,.67.21,2.11,2.11,0,0,1,.58.71,2,2,0,0,1,.24.53,2.07,2.07,0,0,1,.06.5,1.38,1.38,0,0,1-.61,1.09,4.91,4.91,0,0,1-1.73.73A11,11,0,0,1,219.84,34.12Zm-2.67-7.4h4a1.06,1.06,0,0,0,.58-.14.62.62,0,0,0,.2-.54,1.18,1.18,0,0,0-.28-.77,1.67,1.67,0,0,0-.73-.54,2.83,2.83,0,0,0-1.09-.19,3,3,0,0,0-1.35.3,2.39,2.39,0,0,0-.94.8A1.84,1.84,0,0,0,217.17,26.72Z"/><path class="cls-3" d="M229.44,33.88a2.5,2.5,0,0,1-1.31-.26,1.1,1.1,0,0,1-.48-.7,5.43,5.43,0,0,1-.08-.92V23.2a4.1,4.1,0,0,1,.09-.88,1,1,0,0,1,.49-.66,2.58,2.58,0,0,1,1.32-.25,2.51,2.51,0,0,1,1.18.21,1,1,0,0,1,.49.51,1.73,1.73,0,0,1,.11.56.83.83,0,0,0,.05.37l-.15.47a1.43,1.43,0,0,1,.39-.76,3.35,3.35,0,0,1,.85-.7,4.73,4.73,0,0,1,1.1-.49,4.29,4.29,0,0,1,1.16-.17,5.05,5.05,0,0,1,2.14.44,4.29,4.29,0,0,1,1.58,1.26,5.65,5.65,0,0,1,1,1.94,8.51,8.51,0,0,1,.34,2.44V32a4.53,4.53,0,0,1-.09.91,1,1,0,0,1-.47.69,2.68,2.68,0,0,1-1.34.25,2.43,2.43,0,0,1-1.32-.27,1.06,1.06,0,0,1-.49-.7,4.46,4.46,0,0,1-.09-.91V27.48a2.74,2.74,0,0,0-.27-1.27,1.76,1.76,0,0,0-.75-.8,2.43,2.43,0,0,0-1.21-.28,2.59,2.59,0,0,0-1.25.29,2,2,0,0,0-.81.81,2.59,2.59,0,0,0-.29,1.25V32a4.46,4.46,0,0,1-.09.91,1,1,0,0,1-.48.69A2.47,2.47,0,0,1,229.44,33.88Z"/><path class="cls-3" d="M258.54,33.92a2.4,2.4,0,0,1-1.3-.27,1.14,1.14,0,0,1-.49-.73,5.62,5.62,0,0,1-.08-.92V28.8H250a2.4,2.4,0,0,1-1.3-.27,1.17,1.17,0,0,1-.5-.72,3.85,3.85,0,0,1-.1-.91,2.37,2.37,0,0,1,0-.41,2.87,2.87,0,0,1,.05-.31l2.2-8.33c.19-.76.45-1.23.79-1.38a2.47,2.47,0,0,1,1.56,0,2.73,2.73,0,0,1,1.23.6,1,1,0,0,1,.27,1l-1.88,7.17h4.35v-7a4.68,4.68,0,0,1,.08-.87,1.09,1.09,0,0,1,.5-.67,2.65,2.65,0,0,1,1.34-.26,2.46,2.46,0,0,1,1.33.28,1.08,1.08,0,0,1,.48.71,4.69,4.69,0,0,1,.09.94V32a4,4,0,0,1-.1.94,1.07,1.07,0,0,1-.5.7A2.52,2.52,0,0,1,258.54,33.92Z"/><path class="cls-2" d="M113.84,33.84a2.44,2.44,0,0,1-1.32-.28,1.11,1.11,0,0,1-.49-.73,4.63,4.63,0,0,1-.09-.92V18.26a4.45,4.45,0,0,1,.1-.91,1.19,1.19,0,0,1,.5-.71,2.37,2.37,0,0,1,1.33-.28H119a6.3,6.3,0,0,1,2.1.38,6.18,6.18,0,0,1,2,1.16,5.95,5.95,0,0,1,2,4.64,5.93,5.93,0,0,1-.57,2.69,5.85,5.85,0,0,1-1.47,1.91,6.26,6.26,0,0,1-2,1.15,6.46,6.46,0,0,1-2.13.37h-3.2v3.28a3.91,3.91,0,0,1-.1.91,1.15,1.15,0,0,1-.5.71A2.46,2.46,0,0,1,113.84,33.84Zm1.93-9H119a2.81,2.81,0,0,0,1.09-.23,2.18,2.18,0,0,0,.9-.76,2.65,2.65,0,0,0,.05-2.58,2.3,2.3,0,0,0-.84-.83,2.42,2.42,0,0,0-1.22-.3h-3.2Z"/><path class="cls-2" d="M132,33.85a16.21,16.21,0,0,1-1.82-.1,4.13,4.13,0,0,1-1.35-.4,2.5,2.5,0,0,1-.9-.84,4,4,0,0,1-.52-1.38,10,10,0,0,1-.18-2.06V17.52a4,4,0,0,1,.1-.93,1.21,1.21,0,0,1,.49-.7,2.37,2.37,0,0,1,1.31-.27,2.24,2.24,0,0,1,1.29.28,1.1,1.1,0,0,1,.48.7,3.82,3.82,0,0,1,.1.92V28.9a6.12,6.12,0,0,0,0,.66,1,1,0,0,0,.15.41.54.54,0,0,0,.32.2,2.34,2.34,0,0,0,.52,0,2.62,2.62,0,0,1,.61.08.89.89,0,0,1,.54.45,2.44,2.44,0,0,1,.22,1.25,2.81,2.81,0,0,1-.22,1.3.89.89,0,0,1-.54.47A2.74,2.74,0,0,1,132,33.85Z"/><path class="cls-2" d="M141.47,34.08a7.25,7.25,0,0,1-3-.58A5.88,5.88,0,0,1,136.39,32a6.4,6.4,0,0,1-1.19-2.09,6.88,6.88,0,0,1-.4-2.3,6.45,6.45,0,0,1,.85-3.33A6.16,6.16,0,0,1,138,22a7,7,0,0,1,3.47-.84,6.24,6.24,0,0,1,2.51.47,5.23,5.23,0,0,1,1.75,1.2,4.89,4.89,0,0,1,1,1.59A4.25,4.25,0,0,1,147.1,26a2.78,2.78,0,0,1-.67,2,2.25,2.25,0,0,1-1.68.67H138.8a1.71,1.71,0,0,0,.46,1.08,2.77,2.77,0,0,0,1,.7,3.6,3.6,0,0,0,1.32.25,8.22,8.22,0,0,0,1-.06,4.43,4.43,0,0,0,.79-.18l.58-.22c.18-.08.34-.14.49-.19A2.41,2.41,0,0,1,145,30a1,1,0,0,1,.67.21,2.06,2.06,0,0,1,.58.72,1.8,1.8,0,0,1,.23.52,2.14,2.14,0,0,1,.06.5,1.34,1.34,0,0,1-.61,1.09,4.68,4.68,0,0,1-1.72.73A11.06,11.06,0,0,1,141.47,34.08Zm-2.67-7.4h3.95a1,1,0,0,0,.57-.14c.14-.09.2-.27.2-.54a1.23,1.23,0,0,0-.27-.77,1.72,1.72,0,0,0-.74-.54,3.2,3.2,0,0,0-2.44.11,2.36,2.36,0,0,0-.93.8A1.84,1.84,0,0,0,138.8,26.68Z"/><path class="cls-2" d="M154.37,33.53a5,5,0,0,1-2.16-.48,5.84,5.84,0,0,1-1.79-1.34,6.55,6.55,0,0,1-1.22-1.95,6.12,6.12,0,0,1-.45-2.33,6,6,0,0,1,.45-2.31,6.15,6.15,0,0,1,1.24-1.92,6,6,0,0,1,1.8-1.33,4.72,4.72,0,0,1,2.11-.48,3.84,3.84,0,0,1,1.9.43,3.36,3.36,0,0,1,1.25,1.26,6.39,6.39,0,0,1,.71,1.92,11.82,11.82,0,0,1,.24,2.49A11,11,0,0,1,158,30.7a4.2,4.2,0,0,1-1.3,2.1A3.53,3.53,0,0,1,154.37,33.53Zm.44,5.48a7,7,0,0,1-1.76-.23,7.61,7.61,0,0,1-1.58-.6,4.28,4.28,0,0,1-1.15-.8,1.19,1.19,0,0,1-.43-.85,1.77,1.77,0,0,1,.15-.73,2.46,2.46,0,0,1,.45-.67,7,7,0,0,1,.6-.57.91.91,0,0,1,.6-.2,1.07,1.07,0,0,1,.63.19l.58.41a3.63,3.63,0,0,0,.79.41,3.21,3.21,0,0,0,1.2.19,2.26,2.26,0,0,0,.94-.19,1.92,1.92,0,0,0,.75-.55,2.65,2.65,0,0,0,.5-.85,2.85,2.85,0,0,0,.19-1.08V22.54a1.22,1.22,0,0,1,.52-.94,2.49,2.49,0,0,1,1.34-.29,2.21,2.21,0,0,1,1.25.27,1.07,1.07,0,0,1,.46.68,4.43,4.43,0,0,1,.08.9V33a5.92,5.92,0,0,1-.53,2.54,5.71,5.71,0,0,1-1.4,1.87,6,6,0,0,1-2,1.16A6.28,6.28,0,0,1,154.81,39Zm0-9.1a2.13,2.13,0,0,0,1.2-.34,2.42,2.42,0,0,0,.83-.88,2.5,2.5,0,0,0,.32-1.25,2.45,2.45,0,0,0-.32-1.25,2.37,2.37,0,0,0-.84-.88,2.29,2.29,0,0,0-1.22-.32,2.21,2.21,0,0,0-1.2.33,2.47,2.47,0,0,0-1.15,2.14,2.3,2.3,0,0,0,.33,1.22,2.45,2.45,0,0,0,.86.89A2.15,2.15,0,0,0,154.8,29.91Z"/><path class="cls-2" d="M173.69,33.85a2.33,2.33,0,0,1-1.37-.33.92.92,0,0,1-.43-.8l.25-.42a3,3,0,0,1-.57.61,4.45,4.45,0,0,1-1.11.65,4.39,4.39,0,0,1-1.67.28,4.87,4.87,0,0,1-2.18-.5A5.63,5.63,0,0,1,164.77,32a7,7,0,0,1-1.27-2,6,6,0,0,1-.48-2.37,5.83,5.83,0,0,1,.48-2.34,6.51,6.51,0,0,1,1.29-2,6.42,6.42,0,0,1,1.84-1.36,4.9,4.9,0,0,1,2.17-.5,4.14,4.14,0,0,1,1.58.27,4.24,4.24,0,0,1,1.08.61,3.2,3.2,0,0,1,.66.68l-.22-.35a1.07,1.07,0,0,1,.44-.92,2.48,2.48,0,0,1,1.39-.31,2.21,2.21,0,0,1,1.28.28,1.11,1.11,0,0,1,.48.72,4.87,4.87,0,0,1,.08.95V32a4.7,4.7,0,0,1-.09.92,1.09,1.09,0,0,1-.47.71A2.41,2.41,0,0,1,173.69,33.85Zm-4.37-3.73a2.13,2.13,0,0,0,1.2-.34,2.57,2.57,0,0,0,.85-.91,2.51,2.51,0,0,0,.33-1.27,2.48,2.48,0,0,0-.33-1.29,2.4,2.4,0,0,0-.87-.89,2.36,2.36,0,0,0-1.23-.33,2.48,2.48,0,0,0-1.26.34,2.61,2.61,0,0,0-.9.91,2.5,2.5,0,0,0-.34,1.3,2.34,2.34,0,0,0,.34,1.24,2.41,2.41,0,0,0,.92.9A2.49,2.49,0,0,0,169.32,30.12Z"/><path class="cls-2" d="M183.42,33.85a5,5,0,0,1-2.18-.49A5.83,5.83,0,0,1,179.42,32a6.7,6.7,0,0,1-1.26-2,6.35,6.35,0,0,1-.46-2.42,6,6,0,0,1,.46-2.33,6.48,6.48,0,0,1,1.28-2,6.33,6.33,0,0,1,1.83-1.36,4.91,4.91,0,0,1,2.15-.5,4.51,4.51,0,0,1,2.12.49,4.44,4.44,0,0,1,1.52,1.34,6.42,6.42,0,0,1,.94,2,9.68,9.68,0,0,1,.35,2.36A8.74,8.74,0,0,1,188,30a6,6,0,0,1-.92,2,4.67,4.67,0,0,1-1.55,1.39A4.41,4.41,0,0,1,183.42,33.85Zm.5-3.7a2.27,2.27,0,0,0,1.21-.33,2.68,2.68,0,0,0,.88-.92,2.49,2.49,0,0,0,.34-1.27,2.52,2.52,0,0,0-1.2-2.16,2.32,2.32,0,0,0-1.25-.34,2.49,2.49,0,0,0-1.24.32,2.31,2.31,0,0,0-.88.9,2.75,2.75,0,0,0-.31,1.28,2.51,2.51,0,0,0,.33,1.27,2.38,2.38,0,0,0,.89.92A2.47,2.47,0,0,0,183.92,30.15Zm4.35,3.73a2.38,2.38,0,0,1-1.27-.27,1.32,1.32,0,0,1-.53-.86V17.6a6.73,6.73,0,0,1,.06-.91A1,1,0,0,1,187,16a2.16,2.16,0,0,1,1.27-.27,2.39,2.39,0,0,1,1.33.26,1.08,1.08,0,0,1,.47.69,3.82,3.82,0,0,1,.1.92V32a5.31,5.31,0,0,1-.08.91,1.14,1.14,0,0,1-.48.72A2.39,2.39,0,0,1,188.27,33.88Z"/><path class="cls-2" d="M198.67,34.09a6.22,6.22,0,0,1-2.34-.47,7,7,0,0,1-2.11-1.31,6.24,6.24,0,0,1-1.51-2,6,6,0,0,1-.56-2.64,6.19,6.19,0,0,1,.51-2.51,6.75,6.75,0,0,1,1.41-2.06,6.67,6.67,0,0,1,2.07-1.41,6.09,6.09,0,0,1,2.49-.51,6.38,6.38,0,0,1,3.26.86,6.61,6.61,0,0,1,2.33,2.34,6.63,6.63,0,0,1,.31,6,6.35,6.35,0,0,1-1.5,2A6.68,6.68,0,0,1,201,33.65,6.42,6.42,0,0,1,198.67,34.09Zm0-3.78a2.85,2.85,0,0,0,1.23-.3,2.81,2.81,0,0,0,1.05-.9,2.57,2.57,0,0,0,.42-1.52,2.67,2.67,0,0,0-.35-1.4,2.48,2.48,0,0,0-1-.94,2.94,2.94,0,0,0-1.41-.34,2.6,2.6,0,0,0-1.34.35,2.73,2.73,0,0,0-.95,1,2.69,2.69,0,0,0-.36,1.39,2.6,2.6,0,0,0,.41,1.51,2.43,2.43,0,0,0,1,.9A2.76,2.76,0,0,0,198.62,30.31Z"/><path class="cls-2" d="M219.84,34.12a7.28,7.28,0,0,1-3-.57A5.86,5.86,0,0,1,214.77,32a6.38,6.38,0,0,1-1.2-2.08,6.92,6.92,0,0,1-.4-2.3,6.54,6.54,0,0,1,.85-3.33A6.21,6.21,0,0,1,216.39,22a7.11,7.11,0,0,1,3.46-.83,6.39,6.39,0,0,1,2.51.46,5.11,5.11,0,0,1,1.75,1.21,5.18,5.18,0,0,1,1,1.58,4.51,4.51,0,0,1,.33,1.63,2.84,2.84,0,0,1-.66,2.05,2.27,2.27,0,0,1-1.69.67h-6a1.76,1.76,0,0,0,.46,1.07,2.73,2.73,0,0,0,1,.7,3.69,3.69,0,0,0,1.32.26,8,8,0,0,0,1-.07,4.49,4.49,0,0,0,.79-.17l.59-.23.48-.18a1.89,1.89,0,0,1,.43-.1,1,1,0,0,1,.67.21,2.11,2.11,0,0,1,.58.71,2,2,0,0,1,.24.53,2.07,2.07,0,0,1,.06.5,1.38,1.38,0,0,1-.61,1.09,4.91,4.91,0,0,1-1.73.73A11,11,0,0,1,219.84,34.12Zm-2.67-7.4h4a1.06,1.06,0,0,0,.58-.14.62.62,0,0,0,.2-.54,1.18,1.18,0,0,0-.28-.77,1.67,1.67,0,0,0-.73-.54,2.83,2.83,0,0,0-1.09-.19,3,3,0,0,0-1.35.3,2.39,2.39,0,0,0-.94.8A1.84,1.84,0,0,0,217.17,26.72Z"/><path class="cls-2" d="M229.44,33.88a2.5,2.5,0,0,1-1.31-.26,1.1,1.1,0,0,1-.48-.7,5.43,5.43,0,0,1-.08-.92V23.2a4.1,4.1,0,0,1,.09-.88,1,1,0,0,1,.49-.66,2.58,2.58,0,0,1,1.32-.25,2.51,2.51,0,0,1,1.18.21,1,1,0,0,1,.49.51,1.73,1.73,0,0,1,.11.56.83.83,0,0,0,.05.37l-.15.47a1.43,1.43,0,0,1,.39-.76,3.35,3.35,0,0,1,.85-.7,4.73,4.73,0,0,1,1.1-.49,4.29,4.29,0,0,1,1.16-.17,5.05,5.05,0,0,1,2.14.44,4.29,4.29,0,0,1,1.58,1.26,5.65,5.65,0,0,1,1,1.94,8.51,8.51,0,0,1,.34,2.44V32a4.53,4.53,0,0,1-.09.91,1,1,0,0,1-.47.69,2.68,2.68,0,0,1-1.34.25,2.43,2.43,0,0,1-1.32-.27,1.06,1.06,0,0,1-.49-.7,4.46,4.46,0,0,1-.09-.91V27.48a2.74,2.74,0,0,0-.27-1.27,1.76,1.76,0,0,0-.75-.8,2.43,2.43,0,0,0-1.21-.28,2.59,2.59,0,0,0-1.25.29,2,2,0,0,0-.81.81,2.59,2.59,0,0,0-.29,1.25V32a4.46,4.46,0,0,1-.09.91,1,1,0,0,1-.48.69A2.47,2.47,0,0,1,229.44,33.88Z"/><path class="cls-2" d="M258.54,33.92a2.4,2.4,0,0,1-1.3-.27,1.14,1.14,0,0,1-.49-.73,5.62,5.62,0,0,1-.08-.92V28.8H250a2.4,2.4,0,0,1-1.3-.27,1.17,1.17,0,0,1-.5-.72,3.85,3.85,0,0,1-.1-.91,2.37,2.37,0,0,1,0-.41,2.87,2.87,0,0,1,.05-.31l2.2-8.33c.19-.76.45-1.23.79-1.38a2.47,2.47,0,0,1,1.56,0,2.73,2.73,0,0,1,1.23.6,1,1,0,0,1,.27,1l-1.88,7.17h4.35v-7a4.68,4.68,0,0,1,.08-.87,1.09,1.09,0,0,1,.5-.67,2.65,2.65,0,0,1,1.34-.26,2.46,2.46,0,0,1,1.33.28,1.08,1.08,0,0,1,.48.71,4.69,4.69,0,0,1,.09.94V32a4,4,0,0,1-.1.94,1.07,1.07,0,0,1-.5.7A2.52,2.52,0,0,1,258.54,33.92Z"/><text class="cls-4" transform="matrix(0.97, 0, 0, 1, 51.72, 40.47)">3.3</text><text class="cls-5" transform="matrix(0.97, 0, 0, 1, 51.72, 40.47)">3.3</text></g></g></svg>