<svg xmlns="http://www.w3.org/2000/svg" viewBox="0 0 399.98 138.05"><defs><style>.cls-1{fill:#0468ad;}.cls-2{fill:#fff;}.cls-3,.cls-4{fill:none;stroke-width:5px;}.cls-3{stroke:#c8a927;stroke-miterlimit:10;}.cls-4,.cls-6{font-size:37px;font-family:Coiny-Regular, Coiny;}.cls-4{stroke:#fff;stroke-linejoin:round;}.cls-5{letter-spacing:-0.1em;}.cls-6{fill:#c8a927;}</style></defs><title>3.4plegado</title><g id="Layer_2" data-name="Layer 2"><g id="pestaña_identificativa" data-name="pestaña identificativa"><path class="cls-1" d="M368.29,0H43.76A43.76,43.76,0,0,0,0,43.76v94.29H400V31.69A31.69,31.69,0,0,0,368.29,0Z"/><path class="cls-2" d="M120.37,33.84a2.37,2.37,0,0,1-1.33-.28,1.11,1.11,0,0,1-.48-.72,4.73,4.73,0,0,1-.09-.93V18.26a3.91,3.91,0,0,1,.1-.91,1.15,1.15,0,0,1,.5-.71,2.44,2.44,0,0,1,1.32-.28h5.13a6.37,6.37,0,0,1,2.1.37,6,6,0,0,1,2,1.17,6,6,0,0,1,1.47,1.94,6.11,6.11,0,0,1,.56,2.7,5.78,5.78,0,0,1-2,4.6,6.31,6.31,0,0,1-2,1.14,6.42,6.42,0,0,1-2.12.38h-3.2v3.27a3.85,3.85,0,0,1-.1.91,1.16,1.16,0,0,1-.5.72A2.41,2.41,0,0,1,120.37,33.84Zm1.93-9h3.22a2.65,2.65,0,0,0,1.09-.24,2.12,2.12,0,0,0,.9-.76,2.59,2.59,0,0,0,0-2.58,2.18,2.18,0,0,0-.83-.82,2.44,2.44,0,0,0-1.23-.3h-3.2Z"/><path class="cls-2" d="M138.57,33.85a14.41,14.41,0,0,1-1.83-.1,3.9,3.9,0,0,1-1.35-.4,2.58,2.58,0,0,1-.9-.84,4.21,4.21,0,0,1-.52-1.37,10.15,10.15,0,0,1-.17-2.07V17.52a4.4,4.4,0,0,1,.1-.92,1.15,1.15,0,0,1,.49-.7,2.38,2.38,0,0,1,1.31-.28,2.33,2.33,0,0,1,1.29.28,1.18,1.18,0,0,1,.49.7,3.82,3.82,0,0,1,.1.92V28.9a4,4,0,0,0,0,.66.8.8,0,0,0,.15.42.56.56,0,0,0,.31.2,2.44,2.44,0,0,0,.53.05,2.6,2.6,0,0,1,.61.07.89.89,0,0,1,.54.45A2.58,2.58,0,0,1,140,32a2.76,2.76,0,0,1-.23,1.3.89.89,0,0,1-.53.48A2.73,2.73,0,0,1,138.57,33.85Z"/><path class="cls-2" d="M148,34.08a7.12,7.12,0,0,1-3-.58A5.72,5.72,0,0,1,142.92,32a6.51,6.51,0,0,1-1.2-2.09,6.83,6.83,0,0,1-.4-2.3,6.48,6.48,0,0,1,.85-3.32A6.14,6.14,0,0,1,144.54,22a7,7,0,0,1,3.46-.83,6.22,6.22,0,0,1,2.51.46,5.23,5.23,0,0,1,1.75,1.2,5.1,5.1,0,0,1,1,1.59,4.5,4.5,0,0,1,.33,1.62,2.81,2.81,0,0,1-.66,2,2.28,2.28,0,0,1-1.69.68h-6a1.76,1.76,0,0,0,.46,1.07,2.85,2.85,0,0,0,1,.7,3.5,3.5,0,0,0,1.33.25,8.05,8.05,0,0,0,1-.06,4.49,4.49,0,0,0,.79-.17l.59-.23.49-.19a2.53,2.53,0,0,1,.42-.1,1.06,1.06,0,0,1,.68.22,2.11,2.11,0,0,1,.57.71,1.71,1.71,0,0,1,.24.52,2.2,2.2,0,0,1,.06.5,1.36,1.36,0,0,1-.61,1.09,4.73,4.73,0,0,1-1.73.74A11.56,11.56,0,0,1,148,34.08Zm-2.67-7.4h4a1.06,1.06,0,0,0,.58-.13.65.65,0,0,0,.2-.54,1.23,1.23,0,0,0-.28-.78,1.84,1.84,0,0,0-.73-.54,3.27,3.27,0,0,0-2.44.12,2.44,2.44,0,0,0-.94.79A2,2,0,0,0,145.32,26.68Z"/><path class="cls-2" d="M160.89,33.54a4.88,4.88,0,0,1-2.16-.49,5.8,5.8,0,0,1-1.79-1.34,6.63,6.63,0,0,1-1.22-1.95,6.21,6.21,0,0,1,0-4.64A6.46,6.46,0,0,1,157,23.2a6.06,6.06,0,0,1,1.8-1.32,4.77,4.77,0,0,1,2.12-.49,3.84,3.84,0,0,1,1.9.44A3.31,3.31,0,0,1,164,23.08a6.4,6.4,0,0,1,.72,1.92,12.71,12.71,0,0,1,.23,2.49,11.23,11.23,0,0,1-.41,3.21,4.27,4.27,0,0,1-1.3,2.1A3.61,3.61,0,0,1,160.89,33.54Zm.45,5.48a7.39,7.39,0,0,1-1.76-.23,7.49,7.49,0,0,1-1.59-.6,4.71,4.71,0,0,1-1.15-.8,1.25,1.25,0,0,1-.42-.85,1.78,1.78,0,0,1,.15-.74,2.28,2.28,0,0,1,.45-.66,6.14,6.14,0,0,1,.6-.58.92.92,0,0,1,.6-.2,1.11,1.11,0,0,1,.62.19l.59.41a3.84,3.84,0,0,0,.79.42,3.37,3.37,0,0,0,1.2.18,2.41,2.41,0,0,0,.93-.18,2,2,0,0,0,.75-.55,3,3,0,0,0,.51-.85,3.16,3.16,0,0,0,.18-1.09V22.54a1.25,1.25,0,0,1,.51-.94,2.5,2.5,0,0,1,1.34-.28,2.31,2.31,0,0,1,1.25.26,1.09,1.09,0,0,1,.46.69,4.29,4.29,0,0,1,.09.9V33a5.88,5.88,0,0,1-.52,2.54,5.61,5.61,0,0,1-1.4,1.87A6.34,6.34,0,0,1,161.34,39Zm0-9.11a2.21,2.21,0,0,0,1.2-.33,2.56,2.56,0,0,0,.84-.89,2.68,2.68,0,0,0,0-2.5,2.39,2.39,0,0,0-.85-.88A2.35,2.35,0,0,0,161.3,25a2.13,2.13,0,0,0-1.2.34,2.53,2.53,0,0,0-.84.88,2.49,2.49,0,0,0-.31,1.25,2.35,2.35,0,0,0,.32,1.23,2.62,2.62,0,0,0,.86.89A2.25,2.25,0,0,0,161.32,29.91Z"/><path class="cls-2" d="M180.22,33.85a2.34,2.34,0,0,1-1.38-.33.87.87,0,0,1-.42-.79l.25-.43a2.59,2.59,0,0,1-.58.61,4.11,4.11,0,0,1-1.11.65,4.33,4.33,0,0,1-1.66.29,5,5,0,0,1-2.19-.5A6.17,6.17,0,0,1,171.29,32a7.27,7.27,0,0,1-1.27-2,6.13,6.13,0,0,1,0-4.71,6.72,6.72,0,0,1,1.29-2,6.19,6.19,0,0,1,1.84-1.36,4.81,4.81,0,0,1,2.18-.5,4.3,4.3,0,0,1,1.57.26,4.65,4.65,0,0,1,1.09.61,3.45,3.45,0,0,1,.66.68l-.23-.35a1.05,1.05,0,0,1,.44-.91,2.42,2.42,0,0,1,1.39-.31,2.34,2.34,0,0,1,1.29.27,1.15,1.15,0,0,1,.47.73,4.79,4.79,0,0,1,.09.95V32a5.64,5.64,0,0,1-.08.93,1.09,1.09,0,0,1-.48.71A2.5,2.5,0,0,1,180.22,33.85Zm-4.38-3.73a2.18,2.18,0,0,0,1.2-.33,2.54,2.54,0,0,0,.86-.92,2.58,2.58,0,0,0,.32-1.27,2.62,2.62,0,0,0-.32-1.29,2.5,2.5,0,0,0-.88-.89,2.39,2.39,0,0,0-1.22-.32,2.42,2.42,0,0,0-1.26.33,2.59,2.59,0,0,0-.91.92,2.54,2.54,0,0,0-.33,1.3,2.36,2.36,0,0,0,.33,1.23,2.62,2.62,0,0,0,.93.91A2.57,2.57,0,0,0,175.84,30.12Z"/><path class="cls-2" d="M189.94,33.86a5.06,5.06,0,0,1-2.17-.49A5.9,5.9,0,0,1,185.94,32a6.7,6.7,0,0,1-1.26-2,6.3,6.3,0,0,1-.46-2.41,6.18,6.18,0,0,1,.46-2.34,6.5,6.5,0,0,1,1.28-2,6.19,6.19,0,0,1,1.84-1.36,4.75,4.75,0,0,1,2.15-.5,4.47,4.47,0,0,1,2.11.48,4.58,4.58,0,0,1,1.53,1.34,6.46,6.46,0,0,1,.93,2,9.08,9.08,0,0,1,.35,2.35,9.28,9.28,0,0,1-.3,2.4,6,6,0,0,1-.93,2,4.7,4.7,0,0,1-1.55,1.39A4.35,4.35,0,0,1,189.94,33.86Zm.5-3.7a2.22,2.22,0,0,0,1.22-.34,2.53,2.53,0,0,0,.87-.91,2.45,2.45,0,0,0,.34-1.28,2.56,2.56,0,0,0-.32-1.26,2.61,2.61,0,0,0-.88-.9,2.28,2.28,0,0,0-1.25-.34,2.42,2.42,0,0,0-1.24.33,2.22,2.22,0,0,0-.87.9,2.57,2.57,0,0,0-.31,1.27,2.46,2.46,0,0,0,1.22,2.19A2.41,2.41,0,0,0,190.44,30.16Zm4.35,3.73a2.42,2.42,0,0,1-1.26-.28,1.31,1.31,0,0,1-.54-.85V17.61a6.62,6.62,0,0,1,.06-.91,1.08,1.08,0,0,1,.44-.72,2.28,2.28,0,0,1,1.28-.27,2.47,2.47,0,0,1,1.32.26,1.19,1.19,0,0,1,.48.69,4.42,4.42,0,0,1,.1.93V32a4.53,4.53,0,0,1-.09.91,1.12,1.12,0,0,1-.48.71A2.33,2.33,0,0,1,194.79,33.89Z"/><path class="cls-2" d="M205.19,34.09a6.29,6.29,0,0,1-2.34-.46,7.19,7.19,0,0,1-2.11-1.32,6.31,6.31,0,0,1-1.51-2,6.41,6.41,0,0,1,0-5.15,6.78,6.78,0,0,1,3.47-3.47,6.16,6.16,0,0,1,2.49-.51,6.24,6.24,0,0,1,3.26.87,6.45,6.45,0,0,1,2.34,2.33,6.71,6.71,0,0,1,.31,6,6.5,6.5,0,0,1-3.58,3.32A6.17,6.17,0,0,1,205.19,34.09Zm-.05-3.77a2.85,2.85,0,0,0,1.23-.3,2.67,2.67,0,0,0,1-.9,2.61,2.61,0,0,0,.43-1.53,2.77,2.77,0,0,0-.35-1.4,2.58,2.58,0,0,0-1-.94,2.88,2.88,0,0,0-1.41-.33,2.53,2.53,0,0,0-1.34.35,2.73,2.73,0,0,0-.95,1,2.68,2.68,0,0,0-.36,1.38,2.71,2.71,0,0,0,.41,1.52,2.49,2.49,0,0,0,1,.9A2.94,2.94,0,0,0,205.14,30.32Z"/><path class="cls-2" d="M225,33.9a14.3,14.3,0,0,1-1.83-.1,3.9,3.9,0,0,1-1.35-.4,2.58,2.58,0,0,1-.9-.84,3.92,3.92,0,0,1-.52-1.37,10,10,0,0,1-.18-2.06V17.57a4.4,4.4,0,0,1,.1-.92,1.18,1.18,0,0,1,.49-.7,2.39,2.39,0,0,1,1.31-.27,2.34,2.34,0,0,1,1.29.27,1.21,1.21,0,0,1,.49.7,4.49,4.49,0,0,1,.1.93V29a4,4,0,0,0,0,.66.8.8,0,0,0,.15.42.56.56,0,0,0,.31.2,2.4,2.4,0,0,0,.52.05,2.68,2.68,0,0,1,.62.07.9.9,0,0,1,.53.45,2.56,2.56,0,0,1,.23,1.25,2.76,2.76,0,0,1-.23,1.3.88.88,0,0,1-.54.48A2.65,2.65,0,0,1,225,33.9Z"/><path class="cls-2" d="M230.2,19.61a2.61,2.61,0,0,1-1.35-.28,1.11,1.11,0,0,1-.49-.73,5.61,5.61,0,0,1-.08-1,5.73,5.73,0,0,1,.08-1,1.08,1.08,0,0,1,.51-.7,2.66,2.66,0,0,1,1.36-.26,2.33,2.33,0,0,1,1.32.28,1.09,1.09,0,0,1,.49.72,5,5,0,0,1,.09,1,4.7,4.7,0,0,1-.09.92,1.05,1.05,0,0,1-.49.71A2.53,2.53,0,0,1,230.2,19.61Zm0,14.3a2.43,2.43,0,0,1-1.32-.27,1,1,0,0,1-.48-.7,5.33,5.33,0,0,1-.07-.91V23.31a4.56,4.56,0,0,1,.09-.92,1.08,1.08,0,0,1,.49-.7,2.57,2.57,0,0,1,1.32-.26,2.24,2.24,0,0,1,1.29.28,1.12,1.12,0,0,1,.48.71,5.49,5.49,0,0,1,.08.94v8.7A4.53,4.53,0,0,1,232,33a1.06,1.06,0,0,1-.48.69A2.57,2.57,0,0,1,230.19,33.91Z"/><path class="cls-2" d="M236.57,33.91a2.28,2.28,0,0,1-1.3-.28,1.1,1.1,0,0,1-.49-.71,4.46,4.46,0,0,1-.09-.91V17.63a4.59,4.59,0,0,1,.09-.93,1,1,0,0,1,.49-.7,2.43,2.43,0,0,1,1.32-.27,2.26,2.26,0,0,1,1.28.28,1.08,1.08,0,0,1,.45.71,4.65,4.65,0,0,1,0,.92V32.79a1.37,1.37,0,0,1-.53.85A2.31,2.31,0,0,1,236.57,33.91Zm4.85,0a4.25,4.25,0,0,1-2.15-.52A4.46,4.46,0,0,1,237.73,32a6.22,6.22,0,0,1-.92-2,8.15,8.15,0,0,1-.29-2.4,8.34,8.34,0,0,1,.33-2.35,6.2,6.2,0,0,1,.94-2,4.35,4.35,0,0,1,1.52-1.34,4.47,4.47,0,0,1,2.11-.48,4.88,4.88,0,0,1,2.15.5,6.24,6.24,0,0,1,1.84,1.36,6.45,6.45,0,0,1,1.27,2,6,6,0,0,1,.47,2.34,6.31,6.31,0,0,1-.47,2.41,6.7,6.7,0,0,1-1.26,2,5.87,5.87,0,0,1-1.83,1.36A4.92,4.92,0,0,1,241.42,33.89Zm-.5-3.7a2.3,2.3,0,0,0,1.25-.34,2.59,2.59,0,0,0,.89-.91,2.59,2.59,0,0,0,0-2.55,2.33,2.33,0,0,0-.89-.9,2.36,2.36,0,0,0-1.23-.33,2.43,2.43,0,0,0-2.12,1.24,2.61,2.61,0,0,0-.31,1.26,2.64,2.64,0,0,0,.32,1.28,2.56,2.56,0,0,0,.88.91A2.32,2.32,0,0,0,240.92,30.19Z"/><path class="cls-2" d="M251.19,33.92a2.37,2.37,0,0,1-1.31-.27,1.07,1.07,0,0,1-.48-.71,5.62,5.62,0,0,1-.08-.92V23.29a4.42,4.42,0,0,1,.09-.92,1,1,0,0,1,.49-.69,2.57,2.57,0,0,1,1.32-.26,2.52,2.52,0,0,1,1.27.24,1,1,0,0,1,.48.55,1.68,1.68,0,0,1,.1.53l-.3.15a3.91,3.91,0,0,1,.27-.36,3.32,3.32,0,0,1,1.5-1,3.34,3.34,0,0,1,1.23-.2l.62,0a5.2,5.2,0,0,1,.7.15,3.32,3.32,0,0,1,.66.3,1.69,1.69,0,0,1,.49.47,1.2,1.2,0,0,1,.18.67,3.12,3.12,0,0,1-.47,1.74,1.4,1.4,0,0,1-1.2.71,2,2,0,0,1-.6-.06.87.87,0,0,1-.29-.15,1.1,1.1,0,0,0-.26-.15,1.72,1.72,0,0,0-.55-.06,2.46,2.46,0,0,0-.72.1,1.9,1.9,0,0,0-.62.31,1.45,1.45,0,0,0-.61,1.23v5.48A4.46,4.46,0,0,1,253,33a1,1,0,0,1-.48.69A2.6,2.6,0,0,1,251.19,33.92Z"/><path class="cls-2" d="M266.59,34.15a7.25,7.25,0,0,1-3-.57,5.86,5.86,0,0,1-2.06-1.52,6.16,6.16,0,0,1-1.2-2.09,6.83,6.83,0,0,1-.4-2.3,6.41,6.41,0,0,1,.85-3.32,6.14,6.14,0,0,1,2.37-2.29,7.08,7.08,0,0,1,3.46-.83,6.25,6.25,0,0,1,2.51.46,5.23,5.23,0,0,1,1.75,1.2,5,5,0,0,1,1,1.59,4.33,4.33,0,0,1,.34,1.63,2.84,2.84,0,0,1-.66,2.05,2.32,2.32,0,0,1-1.69.67h-5.95a1.76,1.76,0,0,0,.46,1.07,2.85,2.85,0,0,0,1,.7,3.44,3.44,0,0,0,1.32.25,8.1,8.1,0,0,0,1-.06,4.49,4.49,0,0,0,.79-.17l.59-.23.48-.19a2.63,2.63,0,0,1,.43-.1,1,1,0,0,1,.67.22,2,2,0,0,1,.58.71,2.24,2.24,0,0,1,.24.53,2.07,2.07,0,0,1,.06.5,1.33,1.33,0,0,1-.62,1.08,4.6,4.6,0,0,1-1.72.74A11.56,11.56,0,0,1,266.59,34.15Zm-2.67-7.4h3.95a1.06,1.06,0,0,0,.58-.13.63.63,0,0,0,.2-.54,1.29,1.29,0,0,0-.28-.78,1.7,1.7,0,0,0-.74-.53,2.74,2.74,0,0,0-1.08-.19,3,3,0,0,0-1.35.3,2.31,2.31,0,0,0-.94.8A1.84,1.84,0,0,0,263.92,26.75Z"/><path class="cls-3" d="M120.37,33.84a2.37,2.37,0,0,1-1.33-.28,1.11,1.11,0,0,1-.48-.72,4.73,4.73,0,0,1-.09-.93V18.26a3.91,3.91,0,0,1,.1-.91,1.15,1.15,0,0,1,.5-.71,2.44,2.44,0,0,1,1.32-.28h5.13a6.37,6.37,0,0,1,2.1.37,6,6,0,0,1,2,1.17,6,6,0,0,1,1.47,1.94,6.11,6.11,0,0,1,.56,2.7,5.78,5.78,0,0,1-2,4.6,6.31,6.31,0,0,1-2,1.14,6.42,6.42,0,0,1-2.12.38h-3.2v3.27a3.85,3.85,0,0,1-.1.91,1.16,1.16,0,0,1-.5.72A2.41,2.41,0,0,1,120.37,33.84Zm1.93-9h3.22a2.65,2.65,0,0,0,1.09-.24,2.12,2.12,0,0,0,.9-.76,2.59,2.59,0,0,0,0-2.58,2.18,2.18,0,0,0-.83-.82,2.44,2.44,0,0,0-1.23-.3h-3.2Z"/><path class="cls-3" d="M138.57,33.85a14.41,14.41,0,0,1-1.83-.1,3.9,3.9,0,0,1-1.35-.4,2.58,2.58,0,0,1-.9-.84,4.21,4.21,0,0,1-.52-1.37,10.15,10.15,0,0,1-.17-2.07V17.52a4.4,4.4,0,0,1,.1-.92,1.15,1.15,0,0,1,.49-.7,2.38,2.38,0,0,1,1.31-.28,2.33,2.33,0,0,1,1.29.28,1.18,1.18,0,0,1,.49.7,3.82,3.82,0,0,1,.1.92V28.9a4,4,0,0,0,0,.66.8.8,0,0,0,.15.42.56.56,0,0,0,.31.2,2.44,2.44,0,0,0,.53.05,2.6,2.6,0,0,1,.61.07.89.89,0,0,1,.54.45A2.58,2.58,0,0,1,140,32a2.76,2.76,0,0,1-.23,1.3.89.89,0,0,1-.53.48A2.73,2.73,0,0,1,138.57,33.85Z"/><path class="cls-3" d="M148,34.08a7.12,7.12,0,0,1-3-.58A5.72,5.72,0,0,1,142.92,32a6.51,6.51,0,0,1-1.2-2.09,6.83,6.83,0,0,1-.4-2.3,6.48,6.48,0,0,1,.85-3.32A6.14,6.14,0,0,1,144.54,22a7,7,0,0,1,3.46-.83,6.22,6.22,0,0,1,2.51.46,5.23,5.23,0,0,1,1.75,1.2,5.1,5.1,0,0,1,1,1.59,4.5,4.5,0,0,1,.33,1.62,2.81,2.81,0,0,1-.66,2,2.28,2.28,0,0,1-1.69.68h-6a1.76,1.76,0,0,0,.46,1.07,2.85,2.85,0,0,0,1,.7,3.5,3.5,0,0,0,1.33.25,8.05,8.05,0,0,0,1-.06,4.49,4.49,0,0,0,.79-.17l.59-.23.49-.19a2.53,2.53,0,0,1,.42-.1,1.06,1.06,0,0,1,.68.22,2.11,2.11,0,0,1,.57.71,1.71,1.71,0,0,1,.24.52,2.2,2.2,0,0,1,.06.5,1.36,1.36,0,0,1-.61,1.09,4.73,4.73,0,0,1-1.73.74A11.56,11.56,0,0,1,148,34.08Zm-2.67-7.4h4a1.06,1.06,0,0,0,.58-.13.65.65,0,0,0,.2-.54,1.23,1.23,0,0,0-.28-.78,1.84,1.84,0,0,0-.73-.54,3.27,3.27,0,0,0-2.44.12,2.44,2.44,0,0,0-.94.79A2,2,0,0,0,145.32,26.68Z"/><path class="cls-3" d="M160.89,33.54a4.88,4.88,0,0,1-2.16-.49,5.8,5.8,0,0,1-1.79-1.34,6.63,6.63,0,0,1-1.22-1.95,6.21,6.21,0,0,1,0-4.64A6.46,6.46,0,0,1,157,23.2a6.06,6.06,0,0,1,1.8-1.32,4.77,4.77,0,0,1,2.12-.49,3.84,3.84,0,0,1,1.9.44A3.31,3.31,0,0,1,164,23.08a6.4,6.4,0,0,1,.72,1.92,12.71,12.71,0,0,1,.23,2.49,11.23,11.23,0,0,1-.41,3.21,4.27,4.27,0,0,1-1.3,2.1A3.61,3.61,0,0,1,160.89,33.54Zm.45,5.48a7.39,7.39,0,0,1-1.76-.23,7.49,7.49,0,0,1-1.59-.6,4.71,4.71,0,0,1-1.15-.8,1.25,1.25,0,0,1-.42-.85,1.78,1.78,0,0,1,.15-.74,2.28,2.28,0,0,1,.45-.66,6.14,6.14,0,0,1,.6-.58.92.92,0,0,1,.6-.2,1.11,1.11,0,0,1,.62.19l.59.41a3.84,3.84,0,0,0,.79.42,3.37,3.37,0,0,0,1.2.18,2.41,2.41,0,0,0,.93-.18,2,2,0,0,0,.75-.55,3,3,0,0,0,.51-.85,3.16,3.16,0,0,0,.18-1.09V22.54a1.25,1.25,0,0,1,.51-.94,2.5,2.5,0,0,1,1.34-.28,2.31,2.31,0,0,1,1.25.26,1.09,1.09,0,0,1,.46.69,4.29,4.29,0,0,1,.09.9V33a5.88,5.88,0,0,1-.52,2.54,5.61,5.61,0,0,1-1.4,1.87A6.34,6.34,0,0,1,161.34,39Zm0-9.11a2.21,2.21,0,0,0,1.2-.33,2.56,2.56,0,0,0,.84-.89,2.68,2.68,0,0,0,0-2.5,2.39,2.39,0,0,0-.85-.88A2.35,2.35,0,0,0,161.3,25a2.13,2.13,0,0,0-1.2.34,2.53,2.53,0,0,0-.84.88,2.49,2.49,0,0,0-.31,1.25,2.35,2.35,0,0,0,.32,1.23,2.62,2.62,0,0,0,.86.89A2.25,2.25,0,0,0,161.32,29.91Z"/><path class="cls-3" d="M180.22,33.85a2.34,2.34,0,0,1-1.38-.33.87.87,0,0,1-.42-.79l.25-.43a2.59,2.59,0,0,1-.58.61,4.11,4.11,0,0,1-1.11.65,4.33,4.33,0,0,1-1.66.29,5,5,0,0,1-2.19-.5A6.17,6.17,0,0,1,171.29,32a7.27,7.27,0,0,1-1.27-2,6.13,6.13,0,0,1,0-4.71,6.72,6.72,0,0,1,1.29-2,6.19,6.19,0,0,1,1.84-1.36,4.81,4.81,0,0,1,2.18-.5,4.3,4.3,0,0,1,1.57.26,4.65,4.65,0,0,1,1.09.61,3.45,3.45,0,0,1,.66.68l-.23-.35a1.05,1.05,0,0,1,.44-.91,2.42,2.42,0,0,1,1.39-.31,2.34,2.34,0,0,1,1.29.27,1.15,1.15,0,0,1,.47.73,4.79,4.79,0,0,1,.09.95V32a5.64,5.64,0,0,1-.08.93,1.09,1.09,0,0,1-.48.71A2.5,2.5,0,0,1,180.22,33.85Zm-4.38-3.73a2.18,2.18,0,0,0,1.2-.33,2.54,2.54,0,0,0,.86-.92,2.58,2.58,0,0,0,.32-1.27,2.62,2.62,0,0,0-.32-1.29,2.5,2.5,0,0,0-.88-.89,2.39,2.39,0,0,0-1.22-.32,2.42,2.42,0,0,0-1.26.33,2.59,2.59,0,0,0-.91.92,2.54,2.54,0,0,0-.33,1.3,2.36,2.36,0,0,0,.33,1.23,2.62,2.62,0,0,0,.93.91A2.57,2.57,0,0,0,175.84,30.12Z"/><path class="cls-3" d="M189.94,33.86a5.06,5.06,0,0,1-2.17-.49A5.9,5.9,0,0,1,185.94,32a6.7,6.7,0,0,1-1.26-2,6.3,6.3,0,0,1-.46-2.41,6.18,6.18,0,0,1,.46-2.34,6.5,6.5,0,0,1,1.28-2,6.19,6.19,0,0,1,1.84-1.36,4.75,4.75,0,0,1,2.15-.5,4.47,4.47,0,0,1,2.11.48,4.58,4.58,0,0,1,1.53,1.34,6.46,6.46,0,0,1,.93,2,9.08,9.08,0,0,1,.35,2.35,9.28,9.28,0,0,1-.3,2.4,6,6,0,0,1-.93,2,4.7,4.7,0,0,1-1.55,1.39A4.35,4.35,0,0,1,189.94,33.86Zm.5-3.7a2.22,2.22,0,0,0,1.22-.34,2.53,2.53,0,0,0,.87-.91,2.45,2.45,0,0,0,.34-1.28,2.56,2.56,0,0,0-.32-1.26,2.61,2.61,0,0,0-.88-.9,2.28,2.28,0,0,0-1.25-.34,2.42,2.42,0,0,0-1.24.33,2.22,2.22,0,0,0-.87.9,2.57,2.57,0,0,0-.31,1.27,2.46,2.46,0,0,0,1.22,2.19A2.41,2.41,0,0,0,190.44,30.16Zm4.35,3.73a2.42,2.42,0,0,1-1.26-.28,1.31,1.31,0,0,1-.54-.85V17.61a6.62,6.62,0,0,1,.06-.91,1.08,1.08,0,0,1,.44-.72,2.28,2.28,0,0,1,1.28-.27,2.47,2.47,0,0,1,1.32.26,1.19,1.19,0,0,1,.48.69,4.42,4.42,0,0,1,.1.93V32a4.53,4.53,0,0,1-.09.91,1.12,1.12,0,0,1-.48.71A2.33,2.33,0,0,1,194.79,33.89Z"/><path class="cls-3" d="M205.19,34.09a6.29,6.29,0,0,1-2.34-.46,7.19,7.19,0,0,1-2.11-1.32,6.31,6.31,0,0,1-1.51-2,6.41,6.41,0,0,1,0-5.15,6.78,6.78,0,0,1,3.47-3.47,6.16,6.16,0,0,1,2.49-.51,6.24,6.24,0,0,1,3.26.87,6.45,6.45,0,0,1,2.34,2.33,6.71,6.71,0,0,1,.31,6,6.5,6.5,0,0,1-3.58,3.32A6.17,6.17,0,0,1,205.19,34.09Zm-.05-3.77a2.85,2.85,0,0,0,1.23-.3,2.67,2.67,0,0,0,1-.9,2.61,2.61,0,0,0,.43-1.53,2.77,2.77,0,0,0-.35-1.4,2.58,2.58,0,0,0-1-.94,2.88,2.88,0,0,0-1.41-.33,2.53,2.53,0,0,0-1.34.35,2.73,2.73,0,0,0-.95,1,2.68,2.68,0,0,0-.36,1.38,2.71,2.71,0,0,0,.41,1.52,2.49,2.49,0,0,0,1,.9A2.94,2.94,0,0,0,205.14,30.32Z"/><path class="cls-3" d="M225,33.9a14.3,14.3,0,0,1-1.83-.1,3.9,3.9,0,0,1-1.35-.4,2.58,2.58,0,0,1-.9-.84,3.92,3.92,0,0,1-.52-1.37,10,10,0,0,1-.18-2.06V17.57a4.4,4.4,0,0,1,.1-.92,1.18,1.18,0,0,1,.49-.7,2.39,2.39,0,0,1,1.31-.27,2.34,2.34,0,0,1,1.29.27,1.21,1.21,0,0,1,.49.7,4.49,4.49,0,0,1,.1.93V29a4,4,0,0,0,0,.66.8.8,0,0,0,.15.42.56.56,0,0,0,.31.2,2.4,2.4,0,0,0,.52.05,2.68,2.68,0,0,1,.62.07.9.9,0,0,1,.53.45,2.56,2.56,0,0,1,.23,1.25,2.76,2.76,0,0,1-.23,1.3.88.88,0,0,1-.54.48A2.65,2.65,0,0,1,225,33.9Z"/><path class="cls-3" d="M230.2,19.61a2.61,2.61,0,0,1-1.35-.28,1.11,1.11,0,0,1-.49-.73,5.61,5.61,0,0,1-.08-1,5.73,5.73,0,0,1,.08-1,1.08,1.08,0,0,1,.51-.7,2.66,2.66,0,0,1,1.36-.26,2.33,2.33,0,0,1,1.32.28,1.09,1.09,0,0,1,.49.72,5,5,0,0,1,.09,1,4.7,4.7,0,0,1-.09.92,1.05,1.05,0,0,1-.49.71A2.53,2.53,0,0,1,230.2,19.61Zm0,14.3a2.43,2.43,0,0,1-1.32-.27,1,1,0,0,1-.48-.7,5.33,5.33,0,0,1-.07-.91V23.31a4.56,4.56,0,0,1,.09-.92,1.08,1.08,0,0,1,.49-.7,2.57,2.57,0,0,1,1.32-.26,2.24,2.24,0,0,1,1.29.28,1.12,1.12,0,0,1,.48.71,5.49,5.49,0,0,1,.08.94v8.7A4.53,4.53,0,0,1,232,33a1.06,1.06,0,0,1-.48.69A2.57,2.57,0,0,1,230.19,33.91Z"/><path class="cls-3" d="M236.57,33.91a2.28,2.28,0,0,1-1.3-.28,1.1,1.1,0,0,1-.49-.71,4.46,4.46,0,0,1-.09-.91V17.63a4.59,4.59,0,0,1,.09-.93,1,1,0,0,1,.49-.7,2.43,2.43,0,0,1,1.32-.27,2.26,2.26,0,0,1,1.28.28,1.08,1.08,0,0,1,.45.71,4.65,4.65,0,0,1,0,.92V32.79a1.37,1.37,0,0,1-.53.85A2.31,2.31,0,0,1,236.57,33.91Zm4.85,0a4.25,4.25,0,0,1-2.15-.52A4.46,4.46,0,0,1,237.73,32a6.22,6.22,0,0,1-.92-2,8.15,8.15,0,0,1-.29-2.4,8.34,8.34,0,0,1,.33-2.35,6.2,6.2,0,0,1,.94-2,4.35,4.35,0,0,1,1.52-1.34,4.47,4.47,0,0,1,2.11-.48,4.88,4.88,0,0,1,2.15.5,6.24,6.24,0,0,1,1.84,1.36,6.45,6.45,0,0,1,1.27,2,6,6,0,0,1,.47,2.34,6.31,6.31,0,0,1-.47,2.41,6.7,6.7,0,0,1-1.26,2,5.87,5.87,0,0,1-1.83,1.36A4.92,4.92,0,0,1,241.42,33.89Zm-.5-3.7a2.3,2.3,0,0,0,1.25-.34,2.59,2.59,0,0,0,.89-.91,2.59,2.59,0,0,0,0-2.55,2.33,2.33,0,0,0-.89-.9,2.36,2.36,0,0,0-1.23-.33,2.43,2.43,0,0,0-2.12,1.24,2.61,2.61,0,0,0-.31,1.26,2.64,2.64,0,0,0,.32,1.28,2.56,2.56,0,0,0,.88.91A2.32,2.32,0,0,0,240.92,30.19Z"/><path class="cls-3" d="M251.19,33.92a2.37,2.37,0,0,1-1.31-.27,1.07,1.07,0,0,1-.48-.71,5.62,5.62,0,0,1-.08-.92V23.29a4.42,4.42,0,0,1,.09-.92,1,1,0,0,1,.49-.69,2.57,2.57,0,0,1,1.32-.26,2.52,2.52,0,0,1,1.27.24,1,1,0,0,1,.48.55,1.68,1.68,0,0,1,.1.53l-.3.15a3.91,3.91,0,0,1,.27-.36,3.32,3.32,0,0,1,1.5-1,3.34,3.34,0,0,1,1.23-.2l.62,0a5.2,5.2,0,0,1,.7.15,3.32,3.32,0,0,1,.66.3,1.69,1.69,0,0,1,.49.47,1.2,1.2,0,0,1,.18.67,3.12,3.12,0,0,1-.47,1.74,1.4,1.4,0,0,1-1.2.71,2,2,0,0,1-.6-.06.87.87,0,0,1-.29-.15,1.1,1.1,0,0,0-.26-.15,1.72,1.72,0,0,0-.55-.06,2.46,2.46,0,0,0-.72.1,1.9,1.9,0,0,0-.62.31,1.45,1.45,0,0,0-.61,1.23v5.48A4.46,4.46,0,0,1,253,33a1,1,0,0,1-.48.69A2.6,2.6,0,0,1,251.19,33.92Z"/><path class="cls-3" d="M266.59,34.15a7.25,7.25,0,0,1-3-.57,5.86,5.86,0,0,1-2.06-1.52,6.16,6.16,0,0,1-1.2-2.09,6.83,6.83,0,0,1-.4-2.3,6.41,6.41,0,0,1,.85-3.32,6.14,6.14,0,0,1,2.37-2.29,7.08,7.08,0,0,1,3.46-.83,6.25,6.25,0,0,1,2.51.46,5.23,5.23,0,0,1,1.75,1.2,5,5,0,0,1,1,1.59,4.33,4.33,0,0,1,.34,1.63,2.84,2.84,0,0,1-.66,2.05,2.32,2.32,0,0,1-1.69.67h-5.95a1.76,1.76,0,0,0,.46,1.07,2.85,2.85,0,0,0,1,.7,3.44,3.44,0,0,0,1.32.25,8.1,8.1,0,0,0,1-.06,4.49,4.49,0,0,0,.79-.17l.59-.23.48-.19a2.63,2.63,0,0,1,.43-.1,1,1,0,0,1,.67.22,2,2,0,0,1,.58.71,2.24,2.24,0,0,1,.24.53,2.07,2.07,0,0,1,.06.5,1.33,1.33,0,0,1-.62,1.08,4.6,4.6,0,0,1-1.72.74A11.56,11.56,0,0,1,266.59,34.15Zm-2.67-7.4h3.95a1.06,1.06,0,0,0,.58-.13.63.63,0,0,0,.2-.54,1.29,1.29,0,0,0-.28-.78,1.7,1.7,0,0,0-.74-.53,2.74,2.74,0,0,0-1.08-.19,3,3,0,0,0-1.35.3,2.31,2.31,0,0,0-.94.8A1.84,1.84,0,0,0,263.92,26.75Z"/><path class="cls-2" d="M120.37,33.84a2.37,2.37,0,0,1-1.33-.28,1.11,1.11,0,0,1-.48-.72,4.73,4.73,0,0,1-.09-.93V18.26a3.91,3.91,0,0,1,.1-.91,1.15,1.15,0,0,1,.5-.71,2.44,2.44,0,0,1,1.32-.28h5.13a6.37,6.37,0,0,1,2.1.37,6,6,0,0,1,2,1.17,6,6,0,0,1,1.47,1.94,6.11,6.11,0,0,1,.56,2.7,5.78,5.78,0,0,1-2,4.6,6.31,6.31,0,0,1-2,1.14,6.42,6.42,0,0,1-2.12.38h-3.2v3.27a3.85,3.85,0,0,1-.1.91,1.16,1.16,0,0,1-.5.72A2.41,2.41,0,0,1,120.37,33.84Zm1.93-9h3.22a2.65,2.65,0,0,0,1.09-.24,2.12,2.12,0,0,0,.9-.76,2.59,2.59,0,0,0,0-2.58,2.18,2.18,0,0,0-.83-.82,2.44,2.44,0,0,0-1.23-.3h-3.2Z"/><path class="cls-2" d="M138.57,33.85a14.41,14.41,0,0,1-1.83-.1,3.9,3.9,0,0,1-1.35-.4,2.58,2.58,0,0,1-.9-.84,4.21,4.21,0,0,1-.52-1.37,10.15,10.15,0,0,1-.17-2.07V17.52a4.4,4.4,0,0,1,.1-.92,1.15,1.15,0,0,1,.49-.7,2.38,2.38,0,0,1,1.31-.28,2.33,2.33,0,0,1,1.29.28,1.18,1.18,0,0,1,.49.7,3.82,3.82,0,0,1,.1.92V28.9a4,4,0,0,0,0,.66.8.8,0,0,0,.15.42.56.56,0,0,0,.31.2,2.44,2.44,0,0,0,.53.05,2.6,2.6,0,0,1,.61.07.89.89,0,0,1,.54.45A2.58,2.58,0,0,1,140,32a2.76,2.76,0,0,1-.23,1.3.89.89,0,0,1-.53.48A2.73,2.73,0,0,1,138.57,33.85Z"/><path class="cls-2" d="M148,34.08a7.12,7.12,0,0,1-3-.58A5.72,5.72,0,0,1,142.92,32a6.51,6.51,0,0,1-1.2-2.09,6.83,6.83,0,0,1-.4-2.3,6.48,6.48,0,0,1,.85-3.32A6.14,6.14,0,0,1,144.54,22a7,7,0,0,1,3.46-.83,6.22,6.22,0,0,1,2.51.46,5.23,5.23,0,0,1,1.75,1.2,5.1,5.1,0,0,1,1,1.59,4.5,4.5,0,0,1,.33,1.62,2.81,2.81,0,0,1-.66,2,2.28,2.28,0,0,1-1.69.68h-6a1.76,1.76,0,0,0,.46,1.07,2.85,2.85,0,0,0,1,.7,3.5,3.5,0,0,0,1.33.25,8.05,8.05,0,0,0,1-.06,4.49,4.49,0,0,0,.79-.17l.59-.23.49-.19a2.53,2.53,0,0,1,.42-.1,1.06,1.06,0,0,1,.68.22,2.11,2.11,0,0,1,.57.71,1.71,1.71,0,0,1,.24.52,2.2,2.2,0,0,1,.06.5,1.36,1.36,0,0,1-.61,1.09,4.73,4.73,0,0,1-1.73.74A11.56,11.56,0,0,1,148,34.08Zm-2.67-7.4h4a1.06,1.06,0,0,0,.58-.13.65.65,0,0,0,.2-.54,1.23,1.23,0,0,0-.28-.78,1.84,1.84,0,0,0-.73-.54,3.27,3.27,0,0,0-2.44.12,2.44,2.44,0,0,0-.94.79A2,2,0,0,0,145.32,26.68Z"/><path class="cls-2" d="M160.89,33.54a4.88,4.88,0,0,1-2.16-.49,5.8,5.8,0,0,1-1.79-1.34,6.63,6.63,0,0,1-1.22-1.95,6.21,6.21,0,0,1,0-4.64A6.46,6.46,0,0,1,157,23.2a6.06,6.06,0,0,1,1.8-1.32,4.77,4.77,0,0,1,2.12-.49,3.84,3.84,0,0,1,1.9.44A3.31,3.31,0,0,1,164,23.08a6.4,6.4,0,0,1,.72,1.92,12.71,12.71,0,0,1,.23,2.49,11.23,11.23,0,0,1-.41,3.21,4.27,4.27,0,0,1-1.3,2.1A3.61,3.61,0,0,1,160.89,33.54Zm.45,5.48a7.39,7.39,0,0,1-1.76-.23,7.49,7.49,0,0,1-1.59-.6,4.71,4.71,0,0,1-1.15-.8,1.25,1.25,0,0,1-.42-.85,1.78,1.78,0,0,1,.15-.74,2.28,2.28,0,0,1,.45-.66,6.14,6.14,0,0,1,.6-.58.92.92,0,0,1,.6-.2,1.11,1.11,0,0,1,.62.19l.59.41a3.84,3.84,0,0,0,.79.42,3.37,3.37,0,0,0,1.2.18,2.41,2.41,0,0,0,.93-.18,2,2,0,0,0,.75-.55,3,3,0,0,0,.51-.85,3.16,3.16,0,0,0,.18-1.09V22.54a1.25,1.25,0,0,1,.51-.94,2.5,2.5,0,0,1,1.34-.28,2.31,2.31,0,0,1,1.25.26,1.09,1.09,0,0,1,.46.69,4.29,4.29,0,0,1,.09.9V33a5.88,5.88,0,0,1-.52,2.54,5.61,5.61,0,0,1-1.4,1.87A6.34,6.34,0,0,1,161.34,39Zm0-9.11a2.21,2.21,0,0,0,1.2-.33,2.56,2.56,0,0,0,.84-.89,2.68,2.68,0,0,0,0-2.5,2.39,2.39,0,0,0-.85-.88A2.35,2.35,0,0,0,161.3,25a2.13,2.13,0,0,0-1.2.34,2.53,2.53,0,0,0-.84.88,2.49,2.49,0,0,0-.31,1.25,2.35,2.35,0,0,0,.32,1.23,2.62,2.62,0,0,0,.86.89A2.25,2.25,0,0,0,161.32,29.91Z"/><path class="cls-2" d="M180.22,33.85a2.34,2.34,0,0,1-1.38-.33.87.87,0,0,1-.42-.79l.25-.43a2.59,2.59,0,0,1-.58.61,4.11,4.11,0,0,1-1.11.65,4.33,4.33,0,0,1-1.66.29,5,5,0,0,1-2.19-.5A6.17,6.17,0,0,1,171.29,32a7.27,7.27,0,0,1-1.27-2,6.13,6.13,0,0,1,0-4.71,6.72,6.72,0,0,1,1.29-2,6.19,6.19,0,0,1,1.84-1.36,4.81,4.81,0,0,1,2.18-.5,4.3,4.3,0,0,1,1.57.26,4.65,4.65,0,0,1,1.09.61,3.45,3.45,0,0,1,.66.68l-.23-.35a1.05,1.05,0,0,1,.44-.91,2.42,2.42,0,0,1,1.39-.31,2.34,2.34,0,0,1,1.29.27,1.15,1.15,0,0,1,.47.73,4.79,4.79,0,0,1,.09.95V32a5.64,5.64,0,0,1-.08.93,1.09,1.09,0,0,1-.48.71A2.5,2.5,0,0,1,180.22,33.85Zm-4.38-3.73a2.18,2.18,0,0,0,1.2-.33,2.54,2.54,0,0,0,.86-.92,2.58,2.58,0,0,0,.32-1.27,2.62,2.62,0,0,0-.32-1.29,2.5,2.5,0,0,0-.88-.89,2.39,2.39,0,0,0-1.22-.32,2.42,2.42,0,0,0-1.26.33,2.59,2.59,0,0,0-.91.92,2.54,2.54,0,0,0-.33,1.3,2.36,2.36,0,0,0,.33,1.23,2.62,2.62,0,0,0,.93.91A2.57,2.57,0,0,0,175.84,30.12Z"/><path class="cls-2" d="M189.94,33.86a5.06,5.06,0,0,1-2.17-.49A5.9,5.9,0,0,1,185.94,32a6.7,6.7,0,0,1-1.26-2,6.3,6.3,0,0,1-.46-2.41,6.18,6.18,0,0,1,.46-2.34,6.5,6.5,0,0,1,1.28-2,6.19,6.19,0,0,1,1.84-1.36,4.75,4.75,0,0,1,2.15-.5,4.47,4.47,0,0,1,2.11.48,4.58,4.58,0,0,1,1.53,1.34,6.46,6.46,0,0,1,.93,2,9.08,9.08,0,0,1,.35,2.35,9.28,9.28,0,0,1-.3,2.4,6,6,0,0,1-.93,2,4.7,4.7,0,0,1-1.55,1.39A4.35,4.35,0,0,1,189.94,33.86Zm.5-3.7a2.22,2.22,0,0,0,1.22-.34,2.53,2.53,0,0,0,.87-.91,2.45,2.45,0,0,0,.34-1.28,2.56,2.56,0,0,0-.32-1.26,2.61,2.61,0,0,0-.88-.9,2.28,2.28,0,0,0-1.25-.34,2.42,2.42,0,0,0-1.24.33,2.22,2.22,0,0,0-.87.9,2.57,2.57,0,0,0-.31,1.27,2.46,2.46,0,0,0,1.22,2.19A2.41,2.41,0,0,0,190.44,30.16Zm4.35,3.73a2.42,2.42,0,0,1-1.26-.28,1.31,1.31,0,0,1-.54-.85V17.61a6.62,6.62,0,0,1,.06-.91,1.08,1.08,0,0,1,.44-.72,2.28,2.28,0,0,1,1.28-.27,2.47,2.47,0,0,1,1.32.26,1.19,1.19,0,0,1,.48.69,4.42,4.42,0,0,1,.1.93V32a4.53,4.53,0,0,1-.09.91,1.12,1.12,0,0,1-.48.71A2.33,2.33,0,0,1,194.79,33.89Z"/><path class="cls-2" d="M205.19,34.09a6.29,6.29,0,0,1-2.34-.46,7.19,7.19,0,0,1-2.11-1.32,6.31,6.31,0,0,1-1.51-2,6.41,6.41,0,0,1,0-5.15,6.78,6.78,0,0,1,3.47-3.47,6.16,6.16,0,0,1,2.49-.51,6.24,6.24,0,0,1,3.26.87,6.45,6.45,0,0,1,2.34,2.33,6.71,6.71,0,0,1,.31,6,6.5,6.5,0,0,1-3.58,3.32A6.17,6.17,0,0,1,205.19,34.09Zm-.05-3.77a2.85,2.85,0,0,0,1.23-.3,2.67,2.67,0,0,0,1-.9,2.61,2.61,0,0,0,.43-1.53,2.77,2.77,0,0,0-.35-1.4,2.58,2.58,0,0,0-1-.94,2.88,2.88,0,0,0-1.41-.33,2.53,2.53,0,0,0-1.34.35,2.73,2.73,0,0,0-.95,1,2.68,2.68,0,0,0-.36,1.38,2.71,2.71,0,0,0,.41,1.52,2.49,2.49,0,0,0,1,.9A2.94,2.94,0,0,0,205.14,30.32Z"/><path class="cls-2" d="M225,33.9a14.3,14.3,0,0,1-1.83-.1,3.9,3.9,0,0,1-1.35-.4,2.58,2.58,0,0,1-.9-.84,3.92,3.92,0,0,1-.52-1.37,10,10,0,0,1-.18-2.06V17.57a4.4,4.4,0,0,1,.1-.92,1.18,1.18,0,0,1,.49-.7,2.39,2.39,0,0,1,1.31-.27,2.34,2.34,0,0,1,1.29.27,1.21,1.21,0,0,1,.49.7,4.49,4.49,0,0,1,.1.93V29a4,4,0,0,0,0,.66.8.8,0,0,0,.15.42.56.56,0,0,0,.31.2,2.4,2.4,0,0,0,.52.05,2.68,2.68,0,0,1,.62.07.9.9,0,0,1,.53.45,2.56,2.56,0,0,1,.23,1.25,2.76,2.76,0,0,1-.23,1.3.88.88,0,0,1-.54.48A2.65,2.65,0,0,1,225,33.9Z"/><path class="cls-2" d="M230.2,19.61a2.61,2.61,0,0,1-1.35-.28,1.11,1.11,0,0,1-.49-.73,5.61,5.61,0,0,1-.08-1,5.73,5.73,0,0,1,.08-1,1.08,1.08,0,0,1,.51-.7,2.66,2.66,0,0,1,1.36-.26,2.33,2.33,0,0,1,1.32.28,1.09,1.09,0,0,1,.49.72,5,5,0,0,1,.09,1,4.7,4.7,0,0,1-.09.92,1.05,1.05,0,0,1-.49.71A2.53,2.53,0,0,1,230.2,19.61Zm0,14.3a2.43,2.43,0,0,1-1.32-.27,1,1,0,0,1-.48-.7,5.33,5.33,0,0,1-.07-.91V23.31a4.56,4.56,0,0,1,.09-.92,1.08,1.08,0,0,1,.49-.7,2.57,2.57,0,0,1,1.32-.26,2.24,2.24,0,0,1,1.29.28,1.12,1.12,0,0,1,.48.71,5.49,5.49,0,0,1,.08.94v8.7A4.53,4.53,0,0,1,232,33a1.06,1.06,0,0,1-.48.69A2.57,2.57,0,0,1,230.19,33.91Z"/><path class="cls-2" d="M236.57,33.91a2.28,2.28,0,0,1-1.3-.28,1.1,1.1,0,0,1-.49-.71,4.46,4.46,0,0,1-.09-.91V17.63a4.59,4.59,0,0,1,.09-.93,1,1,0,0,1,.49-.7,2.43,2.43,0,0,1,1.32-.27,2.26,2.26,0,0,1,1.28.28,1.08,1.08,0,0,1,.45.71,4.65,4.65,0,0,1,0,.92V32.79a1.37,1.37,0,0,1-.53.85A2.31,2.31,0,0,1,236.57,33.91Zm4.85,0a4.25,4.25,0,0,1-2.15-.52A4.46,4.46,0,0,1,237.73,32a6.22,6.22,0,0,1-.92-2,8.15,8.15,0,0,1-.29-2.4,8.34,8.34,0,0,1,.33-2.35,6.2,6.2,0,0,1,.94-2,4.35,4.35,0,0,1,1.52-1.34,4.47,4.47,0,0,1,2.11-.48,4.88,4.88,0,0,1,2.15.5,6.24,6.24,0,0,1,1.84,1.36,6.45,6.45,0,0,1,1.27,2,6,6,0,0,1,.47,2.34,6.31,6.31,0,0,1-.47,2.41,6.7,6.7,0,0,1-1.26,2,5.87,5.87,0,0,1-1.83,1.36A4.92,4.92,0,0,1,241.42,33.89Zm-.5-3.7a2.3,2.3,0,0,0,1.25-.34,2.59,2.59,0,0,0,.89-.91,2.59,2.59,0,0,0,0-2.55,2.33,2.33,0,0,0-.89-.9,2.36,2.36,0,0,0-1.23-.33,2.43,2.43,0,0,0-2.12,1.24,2.61,2.61,0,0,0-.31,1.26,2.64,2.64,0,0,0,.32,1.28,2.56,2.56,0,0,0,.88.91A2.32,2.32,0,0,0,240.92,30.19Z"/><path class="cls-2" d="M251.19,33.92a2.37,2.37,0,0,1-1.31-.27,1.07,1.07,0,0,1-.48-.71,5.62,5.62,0,0,1-.08-.92V23.29a4.42,4.42,0,0,1,.09-.92,1,1,0,0,1,.49-.69,2.57,2.57,0,0,1,1.32-.26,2.52,2.52,0,0,1,1.27.24,1,1,0,0,1,.48.55,1.68,1.68,0,0,1,.1.53l-.3.15a3.91,3.91,0,0,1,.27-.36,3.32,3.32,0,0,1,1.5-1,3.34,3.34,0,0,1,1.23-.2l.62,0a5.2,5.2,0,0,1,.7.15,3.32,3.32,0,0,1,.66.3,1.69,1.69,0,0,1,.49.47,1.2,1.2,0,0,1,.18.67,3.12,3.12,0,0,1-.47,1.74,1.4,1.4,0,0,1-1.2.71,2,2,0,0,1-.6-.06.87.87,0,0,1-.29-.15,1.1,1.1,0,0,0-.26-.15,1.72,1.72,0,0,0-.55-.06,2.46,2.46,0,0,0-.72.1,1.9,1.9,0,0,0-.62.31,1.45,1.45,0,0,0-.61,1.23v5.48A4.46,4.46,0,0,1,253,33a1,1,0,0,1-.48.69A2.6,2.6,0,0,1,251.19,33.92Z"/><path class="cls-2" d="M266.59,34.15a7.25,7.25,0,0,1-3-.57,5.86,5.86,0,0,1-2.06-1.52,6.16,6.16,0,0,1-1.2-2.09,6.83,6.83,0,0,1-.4-2.3,6.41,6.41,0,0,1,.85-3.32,6.14,6.14,0,0,1,2.37-2.29,7.08,7.08,0,0,1,3.46-.83,6.25,6.25,0,0,1,2.51.46,5.23,5.23,0,0,1,1.75,1.2,5,5,0,0,1,1,1.59,4.33,4.33,0,0,1,.34,1.63,2.84,2.84,0,0,1-.66,2.05,2.32,2.32,0,0,1-1.69.67h-5.95a1.76,1.76,0,0,0,.46,1.07,2.85,2.85,0,0,0,1,.7,3.44,3.44,0,0,0,1.32.25,8.1,8.1,0,0,0,1-.06,4.49,4.49,0,0,0,.79-.17l.59-.23.48-.19a2.63,2.63,0,0,1,.43-.1,1,1,0,0,1,.67.22,2,2,0,0,1,.58.71,2.24,2.24,0,0,1,.24.53,2.07,2.07,0,0,1,.06.5,1.33,1.33,0,0,1-.62,1.08,4.6,4.6,0,0,1-1.72.74A11.56,11.56,0,0,1,266.59,34.15Zm-2.67-7.4h3.95a1.06,1.06,0,0,0,.58-.13.63.63,0,0,0,.2-.54,1.29,1.29,0,0,0-.28-.78,1.7,1.7,0,0,0-.74-.53,2.74,2.74,0,0,0-1.08-.19,3,3,0,0,0-1.35.3,2.31,2.31,0,0,0-.94.8A1.84,1.84,0,0,0,263.92,26.75Z"/><text class="cls-4" transform="matrix(0.97, 0, 0, 1, 51.72, 40.47)">3<tspan class="cls-5" x="21.68" y="0">.</tspan><tspan x="28.45" y="0">4</tspan></text><text class="cls-6" transform="matrix(0.97, 0, 0, 1, 51.72, 40.47)">3<tspan class="cls-5" x="21.68" y="0">.</tspan><tspan x="28.45" y="0">4</tspan></text></g></g></svg>