<svg xmlns="http://www.w3.org/2000/svg" viewBox="0 0 401.16 89.13"><defs><style>.cls-1{fill:#0468ad;}.cls-2{fill:#fff;}.cls-3,.cls-4{fill:none;stroke-width:5px;}.cls-3{stroke:#c8a927;stroke-linejoin:round;}.cls-4,.cls-5{font-size:42px;font-family:Coiny-Regular, Coiny;}.cls-4{stroke:#fff;}.cls-5{fill:#c8a927;}</style></defs><title>33t</title><g id="Layer_2" data-name="Layer 2"><g id="mesa"><rect class="cls-1" width="401.16" height="89.13" rx="32.4"/><path class="cls-2" d="M120.33,33.84a2.46,2.46,0,0,1-1.33-.28,1.09,1.09,0,0,1-.49-.72,5.64,5.64,0,0,1-.08-.93V18.26a3.84,3.84,0,0,1,.11-.91,1.11,1.11,0,0,1,.5-.71,2.31,2.31,0,0,1,1.32-.28h5.13a6.39,6.39,0,0,1,2.1.38,6.12,6.12,0,0,1,3.46,3.1,6.17,6.17,0,0,1,.56,2.7,5.93,5.93,0,0,1-.57,2.69,5.71,5.71,0,0,1-1.47,1.91,6.15,6.15,0,0,1-2,1.15,6.46,6.46,0,0,1-2.13.37h-3.2v3.28a3.91,3.91,0,0,1-.1.91,1.15,1.15,0,0,1-.5.71A2.35,2.35,0,0,1,120.33,33.84Zm1.93-9h3.22a2.64,2.64,0,0,0,1.09-.23,2.12,2.12,0,0,0,.9-.76,2.65,2.65,0,0,0,0-2.58,2.28,2.28,0,0,0-.84-.82,2.31,2.31,0,0,0-1.22-.31h-3.2Z"/><path class="cls-2" d="M138.53,33.85a16.26,16.26,0,0,1-1.83-.1,3.9,3.9,0,0,1-1.35-.4,2.5,2.5,0,0,1-.9-.84,4,4,0,0,1-.52-1.38,10,10,0,0,1-.18-2.06V17.52a3.82,3.82,0,0,1,.1-.92,1.2,1.2,0,0,1,.49-.71,2.37,2.37,0,0,1,1.31-.27,2.24,2.24,0,0,1,1.29.28,1.15,1.15,0,0,1,.49.7,4.4,4.4,0,0,1,.1.92V28.9a4.16,4.16,0,0,0,0,.66.8.8,0,0,0,.15.41.49.49,0,0,0,.31.2,1.9,1.9,0,0,0,.52,0,2.7,2.7,0,0,1,.62.08.9.9,0,0,1,.53.45,2.56,2.56,0,0,1,.23,1.25,2.79,2.79,0,0,1-.23,1.3.89.89,0,0,1-.54.47A2.72,2.72,0,0,1,138.53,33.85Z"/><path class="cls-2" d="M148,34.08a7.09,7.09,0,0,1-3-.58A5.84,5.84,0,0,1,142.88,32a6.25,6.25,0,0,1-1.2-2.09,6.88,6.88,0,0,1-.4-2.3,6.45,6.45,0,0,1,.85-3.33A6.19,6.19,0,0,1,144.5,22a7,7,0,0,1,3.46-.84,6.24,6.24,0,0,1,2.51.47,5.23,5.23,0,0,1,1.75,1.2,4.89,4.89,0,0,1,1,1.59,4.25,4.25,0,0,1,.34,1.62,2.82,2.82,0,0,1-.66,2,2.29,2.29,0,0,1-1.69.68h-5.95a1.77,1.77,0,0,0,.46,1.08,2.77,2.77,0,0,0,1,.7,3.64,3.64,0,0,0,1.32.25,8.1,8.1,0,0,0,1-.06,3.7,3.7,0,0,0,.79-.18l.58-.22c.18-.08.34-.14.49-.19a2.41,2.41,0,0,1,.43-.1,1,1,0,0,1,.67.21,2.06,2.06,0,0,1,.58.72,2.18,2.18,0,0,1,.24.52,2.14,2.14,0,0,1,.06.5,1.35,1.35,0,0,1-.62,1.09,4.68,4.68,0,0,1-1.72.73A11,11,0,0,1,148,34.08Zm-2.67-7.4h3.95a1.06,1.06,0,0,0,.58-.14A.62.62,0,0,0,150,26a1.23,1.23,0,0,0-.27-.77,1.8,1.8,0,0,0-.74-.54,3.18,3.18,0,0,0-2.43.11,2.39,2.39,0,0,0-.94.8A1.84,1.84,0,0,0,145.28,26.68Z"/><path class="cls-2" d="M160.85,33.54a5,5,0,0,1-2.16-.49,5.84,5.84,0,0,1-1.79-1.34,6.55,6.55,0,0,1-1.22-1.95,6.12,6.12,0,0,1-.45-2.33,6,6,0,0,1,.45-2.31,6.15,6.15,0,0,1,1.24-1.92,6,6,0,0,1,1.8-1.33,4.86,4.86,0,0,1,2.11-.48,3.81,3.81,0,0,1,1.9.43A3.29,3.29,0,0,1,164,23.08a6.39,6.39,0,0,1,.71,1.92,11.82,11.82,0,0,1,.24,2.49,11,11,0,0,1-.42,3.21,4.2,4.2,0,0,1-1.3,2.1A3.58,3.58,0,0,1,160.85,33.54ZM161.3,39a7.45,7.45,0,0,1-3.35-.83,4.28,4.28,0,0,1-1.15-.8,1.19,1.19,0,0,1-.43-.85,1.77,1.77,0,0,1,.15-.73,2.46,2.46,0,0,1,.45-.67,7,7,0,0,1,.6-.57,1,1,0,0,1,.6-.2,1,1,0,0,1,.63.19l.59.41a3.33,3.33,0,0,0,.78.41,3.21,3.21,0,0,0,1.2.19,2.26,2.26,0,0,0,.94-.19,1.92,1.92,0,0,0,.75-.55,2.65,2.65,0,0,0,.5-.85,2.85,2.85,0,0,0,.19-1.08V22.54a1.21,1.21,0,0,1,.51-.94,2.49,2.49,0,0,1,1.34-.29,2.21,2.21,0,0,1,1.25.27,1.07,1.07,0,0,1,.46.68,4.43,4.43,0,0,1,.09.9V33a5.88,5.88,0,0,1-.53,2.54,5.57,5.57,0,0,1-1.4,1.87,6,6,0,0,1-1.95,1.16A6.23,6.23,0,0,1,161.3,39Zm0-9.1a2.13,2.13,0,0,0,1.2-.34,2.53,2.53,0,0,0,.84-.88,2.6,2.6,0,0,0,.31-1.25,2.54,2.54,0,0,0-.31-1.25,2.39,2.39,0,0,0-.85-.88,2.36,2.36,0,0,0-1.22-.32,2.26,2.26,0,0,0-1.2.33,2.44,2.44,0,0,0-.83.89,2.47,2.47,0,0,0-.32,1.25,2.3,2.3,0,0,0,.33,1.22,2.45,2.45,0,0,0,.86.89A2.15,2.15,0,0,0,161.28,29.91Z"/><path class="cls-2" d="M180.17,33.85a2.33,2.33,0,0,1-1.37-.33.92.92,0,0,1-.43-.8l.26-.42a3.07,3.07,0,0,1-.58.61,4.11,4.11,0,0,1-1.11.65,4.38,4.38,0,0,1-1.67.29,5,5,0,0,1-2.18-.51A5.74,5.74,0,0,1,171.25,32a7,7,0,0,1-1.27-2,6,6,0,0,1-.48-2.37,5.83,5.83,0,0,1,.48-2.34,6.9,6.9,0,0,1,1.29-2,6.42,6.42,0,0,1,1.84-1.36,4.9,4.9,0,0,1,2.17-.5,4.14,4.14,0,0,1,1.58.27,4.24,4.24,0,0,1,1.08.61,3,3,0,0,1,.67.68l-.23-.35a1.07,1.07,0,0,1,.44-.92,2.48,2.48,0,0,1,1.39-.31,2.33,2.33,0,0,1,1.29.28,1.14,1.14,0,0,1,.47.72,4.86,4.86,0,0,1,.09.95V32a4.7,4.7,0,0,1-.09.92,1.1,1.1,0,0,1-.47.72A2.52,2.52,0,0,1,180.17,33.85Zm-4.37-3.73a2.13,2.13,0,0,0,1.2-.34,2.63,2.63,0,0,0,.85-3.47,2.35,2.35,0,0,0-2.1-1.21,2.47,2.47,0,0,0-1.26.33,2.7,2.7,0,0,0-.9.91,2.6,2.6,0,0,0-.34,1.3,2.46,2.46,0,0,0,1.26,2.14A2.51,2.51,0,0,0,175.8,30.12Z"/><path class="cls-2" d="M189.9,33.85a5,5,0,0,1-2.18-.49A5.83,5.83,0,0,1,185.9,32a6.7,6.7,0,0,1-1.26-2,6.32,6.32,0,0,1-.46-2.42,6,6,0,0,1,.46-2.33,6.67,6.67,0,0,1,1.28-2,6.24,6.24,0,0,1,1.84-1.36,4.88,4.88,0,0,1,2.15-.5,4.47,4.47,0,0,1,2.11.49,4.35,4.35,0,0,1,1.52,1.34,6.48,6.48,0,0,1,.94,2,9.08,9.08,0,0,1,.35,2.35,9.28,9.28,0,0,1-.3,2.4,6.12,6.12,0,0,1-.93,2,4.66,4.66,0,0,1-1.55,1.38A4.38,4.38,0,0,1,189.9,33.85Zm.5-3.7a2.24,2.24,0,0,0,1.21-.33,2.68,2.68,0,0,0,.88-.92,2.49,2.49,0,0,0,.34-1.27,2.42,2.42,0,0,0-.33-1.26,2.35,2.35,0,0,0-.87-.9,2.3,2.3,0,0,0-1.25-.34,2.52,2.52,0,0,0-1.24.32,2.35,2.35,0,0,0-.87.9,2.64,2.64,0,0,0-.32,1.28,2.51,2.51,0,0,0,.33,1.27,2.34,2.34,0,0,0,.9.92A2.4,2.4,0,0,0,190.4,30.15Zm4.35,3.73a2.31,2.31,0,0,1-1.26-.27,1.3,1.3,0,0,1-.54-.85V17.6a6.73,6.73,0,0,1,.06-.91,1,1,0,0,1,.44-.71,2.28,2.28,0,0,1,1.28-.27,2.38,2.38,0,0,1,1.32.26,1.08,1.08,0,0,1,.47.69,3.82,3.82,0,0,1,.1.92V32a4.46,4.46,0,0,1-.09.91,1.14,1.14,0,0,1-.48.72A2.37,2.37,0,0,1,194.75,33.88Z"/><path class="cls-2" d="M205.15,34.09a6.3,6.3,0,0,1-2.34-.47,7,7,0,0,1-2.11-1.31,6.38,6.38,0,0,1-1.51-2,6,6,0,0,1-.56-2.64,6.19,6.19,0,0,1,.51-2.51,6.78,6.78,0,0,1,1.42-2.06,6.63,6.63,0,0,1,2.06-1.41,6.09,6.09,0,0,1,2.49-.51,6.35,6.35,0,0,1,3.26.86,6.72,6.72,0,0,1,2.34,2.34,6.34,6.34,0,0,1,.87,3.28,6.2,6.2,0,0,1-.57,2.71,6.35,6.35,0,0,1-1.5,2,6.57,6.57,0,0,1-2.07,1.28A6.38,6.38,0,0,1,205.15,34.09Zm-.05-3.78a2.85,2.85,0,0,0,1.23-.3,2.81,2.81,0,0,0,1-.9,2.57,2.57,0,0,0,.42-1.52,2.67,2.67,0,0,0-.35-1.4,2.48,2.48,0,0,0-1-.94,2.94,2.94,0,0,0-1.41-.34,2.6,2.6,0,0,0-1.34.35,2.73,2.73,0,0,0-1,1,2.69,2.69,0,0,0-.36,1.39,2.66,2.66,0,0,0,.41,1.51,2.43,2.43,0,0,0,1,.9A2.76,2.76,0,0,0,205.1,30.31Z"/><path class="cls-2" d="M226.32,34.13a7.44,7.44,0,0,1-3-.58A5.86,5.86,0,0,1,221.25,32a6.57,6.57,0,0,1-1.2-2.08,7.19,7.19,0,0,1-.4-2.3,6.54,6.54,0,0,1,.85-3.33A6.12,6.12,0,0,1,222.87,22a7,7,0,0,1,3.46-.84,6.35,6.35,0,0,1,2.51.46,5.11,5.11,0,0,1,1.75,1.21,5.18,5.18,0,0,1,1,1.58,4.51,4.51,0,0,1,.33,1.63,2.82,2.82,0,0,1-.66,2.05,2.25,2.25,0,0,1-1.69.67h-5.95a1.74,1.74,0,0,0,.46,1.07,2.73,2.73,0,0,0,1,.7,3.7,3.7,0,0,0,1.33.26,7.82,7.82,0,0,0,1-.07,4.49,4.49,0,0,0,.79-.17l.59-.23.49-.18a1.81,1.81,0,0,1,.42-.1,1,1,0,0,1,.68.21,2.22,2.22,0,0,1,.57.71,1.75,1.75,0,0,1,.24.53,2.07,2.07,0,0,1,.06.5,1.35,1.35,0,0,1-.61,1.09,4.91,4.91,0,0,1-1.73.73A11.51,11.51,0,0,1,226.32,34.13Zm-2.67-7.41h3.95a1.06,1.06,0,0,0,.58-.14.62.62,0,0,0,.2-.54,1.18,1.18,0,0,0-.28-.77,1.67,1.67,0,0,0-.73-.54,2.8,2.8,0,0,0-1.09-.19,3,3,0,0,0-1.35.3,2.47,2.47,0,0,0-.94.8A1.91,1.91,0,0,0,223.65,26.72Z"/><path class="cls-2" d="M235.92,33.88a2.5,2.5,0,0,1-1.31-.26,1.08,1.08,0,0,1-.47-.7,4.53,4.53,0,0,1-.09-.91V23.2a4.12,4.12,0,0,1,.08-.88,1,1,0,0,1,.49-.66,2.6,2.6,0,0,1,1.33-.25,2.49,2.49,0,0,1,1.17.21,1,1,0,0,1,.49.51,1.73,1.73,0,0,1,.11.56,1,1,0,0,0,.05.37l-.15.47a1.43,1.43,0,0,1,.39-.76,3.53,3.53,0,0,1,.85-.7,4.73,4.73,0,0,1,1.1-.49,4.29,4.29,0,0,1,1.16-.17,5.05,5.05,0,0,1,2.14.44,4.41,4.41,0,0,1,1.59,1.26,5.81,5.81,0,0,1,1,1.94,8.18,8.18,0,0,1,.34,2.44V32a4.53,4.53,0,0,1-.08.91,1.06,1.06,0,0,1-.48.69,2.68,2.68,0,0,1-1.34.25,2.46,2.46,0,0,1-1.32-.27,1.06,1.06,0,0,1-.49-.7,4.46,4.46,0,0,1-.09-.91V27.48a2.87,2.87,0,0,0-.26-1.27,1.88,1.88,0,0,0-.75-.8,2.5,2.5,0,0,0-1.22-.28,2.59,2.59,0,0,0-1.25.29,2,2,0,0,0-.81.81,2.59,2.59,0,0,0-.29,1.25V32a4.46,4.46,0,0,1-.09.91,1,1,0,0,1-.47.69A2.53,2.53,0,0,1,235.92,33.88Z"/><path class="cls-2" d="M265,33.92a2.4,2.4,0,0,1-1.3-.27,1.12,1.12,0,0,1-.48-.73,4.7,4.7,0,0,1-.09-.92V28.8h-6.7a2.4,2.4,0,0,1-1.3-.27,1.21,1.21,0,0,1-.5-.72,3.85,3.85,0,0,1-.1-.91,2.37,2.37,0,0,1,0-.41,2.87,2.87,0,0,1,0-.31l2.2-8.33c.19-.76.45-1.23.79-1.38a2.47,2.47,0,0,1,1.56,0,2.68,2.68,0,0,1,1.23.6,1,1,0,0,1,.27,1l-1.88,7.17h4.35v-7a3.94,3.94,0,0,1,.09-.87,1,1,0,0,1,.5-.67,2.61,2.61,0,0,1,1.33-.26,2.46,2.46,0,0,1,1.33.28,1.13,1.13,0,0,1,.49.71,5.58,5.58,0,0,1,.08.94V32a4,4,0,0,1-.1.94,1.07,1.07,0,0,1-.5.7A2.5,2.5,0,0,1,265,33.92Z"/><path class="cls-3" d="M120.33,33.84a2.46,2.46,0,0,1-1.33-.28,1.09,1.09,0,0,1-.49-.72,5.64,5.64,0,0,1-.08-.93V18.26a3.84,3.84,0,0,1,.11-.91,1.11,1.11,0,0,1,.5-.71,2.31,2.31,0,0,1,1.32-.28h5.13a6.39,6.39,0,0,1,2.1.38,6.12,6.12,0,0,1,3.46,3.1,6.17,6.17,0,0,1,.56,2.7,5.93,5.93,0,0,1-.57,2.69,5.71,5.71,0,0,1-1.47,1.91,6.15,6.15,0,0,1-2,1.15,6.46,6.46,0,0,1-2.13.37h-3.2v3.28a3.91,3.91,0,0,1-.1.91,1.15,1.15,0,0,1-.5.71A2.35,2.35,0,0,1,120.33,33.84Zm1.93-9h3.22a2.64,2.64,0,0,0,1.09-.23,2.12,2.12,0,0,0,.9-.76,2.65,2.65,0,0,0,0-2.58,2.28,2.28,0,0,0-.84-.82,2.31,2.31,0,0,0-1.22-.31h-3.2Z"/><path class="cls-3" d="M138.53,33.85a16.26,16.26,0,0,1-1.83-.1,3.9,3.9,0,0,1-1.35-.4,2.5,2.5,0,0,1-.9-.84,4,4,0,0,1-.52-1.38,10,10,0,0,1-.18-2.06V17.52a3.82,3.82,0,0,1,.1-.92,1.2,1.2,0,0,1,.49-.71,2.37,2.37,0,0,1,1.31-.27,2.24,2.24,0,0,1,1.29.28,1.15,1.15,0,0,1,.49.7,4.4,4.4,0,0,1,.1.92V28.9a4.16,4.16,0,0,0,0,.66.8.8,0,0,0,.15.41.49.49,0,0,0,.31.2,1.9,1.9,0,0,0,.52,0,2.7,2.7,0,0,1,.62.08.9.9,0,0,1,.53.45,2.56,2.56,0,0,1,.23,1.25,2.79,2.79,0,0,1-.23,1.3.89.89,0,0,1-.54.47A2.72,2.72,0,0,1,138.53,33.85Z"/><path class="cls-3" d="M148,34.08a7.09,7.09,0,0,1-3-.58A5.84,5.84,0,0,1,142.88,32a6.25,6.25,0,0,1-1.2-2.09,6.88,6.88,0,0,1-.4-2.3,6.45,6.45,0,0,1,.85-3.33A6.19,6.19,0,0,1,144.5,22a7,7,0,0,1,3.46-.84,6.24,6.24,0,0,1,2.51.47,5.23,5.23,0,0,1,1.75,1.2,4.89,4.89,0,0,1,1,1.59,4.25,4.25,0,0,1,.34,1.62,2.82,2.82,0,0,1-.66,2,2.29,2.29,0,0,1-1.69.68h-5.95a1.77,1.77,0,0,0,.46,1.08,2.77,2.77,0,0,0,1,.7,3.64,3.64,0,0,0,1.32.25,8.1,8.1,0,0,0,1-.06,3.7,3.7,0,0,0,.79-.18l.58-.22c.18-.08.34-.14.49-.19a2.41,2.41,0,0,1,.43-.1,1,1,0,0,1,.67.21,2.06,2.06,0,0,1,.58.72,2.18,2.18,0,0,1,.24.52,2.14,2.14,0,0,1,.06.5,1.35,1.35,0,0,1-.62,1.09,4.68,4.68,0,0,1-1.72.73A11,11,0,0,1,148,34.08Zm-2.67-7.4h3.95a1.06,1.06,0,0,0,.58-.14A.62.62,0,0,0,150,26a1.23,1.23,0,0,0-.27-.77,1.8,1.8,0,0,0-.74-.54,3.18,3.18,0,0,0-2.43.11,2.39,2.39,0,0,0-.94.8A1.84,1.84,0,0,0,145.28,26.68Z"/><path class="cls-3" d="M160.85,33.54a5,5,0,0,1-2.16-.49,5.84,5.84,0,0,1-1.79-1.34,6.55,6.55,0,0,1-1.22-1.95,6.12,6.12,0,0,1-.45-2.33,6,6,0,0,1,.45-2.31,6.15,6.15,0,0,1,1.24-1.92,6,6,0,0,1,1.8-1.33,4.86,4.86,0,0,1,2.11-.48,3.81,3.81,0,0,1,1.9.43A3.29,3.29,0,0,1,164,23.08a6.39,6.39,0,0,1,.71,1.92,11.82,11.82,0,0,1,.24,2.49,11,11,0,0,1-.42,3.21,4.2,4.2,0,0,1-1.3,2.1A3.58,3.58,0,0,1,160.85,33.54ZM161.3,39a7.45,7.45,0,0,1-3.35-.83,4.28,4.28,0,0,1-1.15-.8,1.19,1.19,0,0,1-.43-.85,1.77,1.77,0,0,1,.15-.73,2.46,2.46,0,0,1,.45-.67,7,7,0,0,1,.6-.57,1,1,0,0,1,.6-.2,1,1,0,0,1,.63.19l.59.41a3.33,3.33,0,0,0,.78.41,3.21,3.21,0,0,0,1.2.19,2.26,2.26,0,0,0,.94-.19,1.92,1.92,0,0,0,.75-.55,2.65,2.65,0,0,0,.5-.85,2.85,2.85,0,0,0,.19-1.08V22.54a1.21,1.21,0,0,1,.51-.94,2.49,2.49,0,0,1,1.34-.29,2.21,2.21,0,0,1,1.25.27,1.07,1.07,0,0,1,.46.68,4.43,4.43,0,0,1,.09.9V33a5.88,5.88,0,0,1-.53,2.54,5.57,5.57,0,0,1-1.4,1.87,6,6,0,0,1-1.95,1.16A6.23,6.23,0,0,1,161.3,39Zm0-9.1a2.13,2.13,0,0,0,1.2-.34,2.53,2.53,0,0,0,.84-.88,2.6,2.6,0,0,0,.31-1.25,2.54,2.54,0,0,0-.31-1.25,2.39,2.39,0,0,0-.85-.88,2.36,2.36,0,0,0-1.22-.32,2.26,2.26,0,0,0-1.2.33,2.44,2.44,0,0,0-.83.89,2.47,2.47,0,0,0-.32,1.25,2.3,2.3,0,0,0,.33,1.22,2.45,2.45,0,0,0,.86.89A2.15,2.15,0,0,0,161.28,29.91Z"/><path class="cls-3" d="M180.17,33.85a2.33,2.33,0,0,1-1.37-.33.92.92,0,0,1-.43-.8l.26-.42a3.07,3.07,0,0,1-.58.61,4.11,4.11,0,0,1-1.11.65,4.38,4.38,0,0,1-1.67.29,5,5,0,0,1-2.18-.51A5.74,5.74,0,0,1,171.25,32a7,7,0,0,1-1.27-2,6,6,0,0,1-.48-2.37,5.83,5.83,0,0,1,.48-2.34,6.9,6.9,0,0,1,1.29-2,6.42,6.42,0,0,1,1.84-1.36,4.9,4.9,0,0,1,2.17-.5,4.14,4.14,0,0,1,1.58.27,4.24,4.24,0,0,1,1.08.61,3,3,0,0,1,.67.68l-.23-.35a1.07,1.07,0,0,1,.44-.92,2.48,2.48,0,0,1,1.39-.31,2.33,2.33,0,0,1,1.29.28,1.14,1.14,0,0,1,.47.72,4.86,4.86,0,0,1,.09.95V32a4.7,4.7,0,0,1-.09.92,1.1,1.1,0,0,1-.47.72A2.52,2.52,0,0,1,180.17,33.85Zm-4.37-3.73a2.13,2.13,0,0,0,1.2-.34,2.63,2.63,0,0,0,.85-3.47,2.35,2.35,0,0,0-2.1-1.21,2.47,2.47,0,0,0-1.26.33,2.7,2.7,0,0,0-.9.91,2.6,2.6,0,0,0-.34,1.3,2.46,2.46,0,0,0,1.26,2.14A2.51,2.51,0,0,0,175.8,30.12Z"/><path class="cls-3" d="M189.9,33.85a5,5,0,0,1-2.18-.49A5.83,5.83,0,0,1,185.9,32a6.7,6.7,0,0,1-1.26-2,6.32,6.32,0,0,1-.46-2.42,6,6,0,0,1,.46-2.33,6.67,6.67,0,0,1,1.28-2,6.24,6.24,0,0,1,1.84-1.36,4.88,4.88,0,0,1,2.15-.5,4.47,4.47,0,0,1,2.11.49,4.35,4.35,0,0,1,1.52,1.34,6.48,6.48,0,0,1,.94,2,9.08,9.08,0,0,1,.35,2.35,9.28,9.28,0,0,1-.3,2.4,6.12,6.12,0,0,1-.93,2,4.66,4.66,0,0,1-1.55,1.38A4.38,4.38,0,0,1,189.9,33.85Zm.5-3.7a2.24,2.24,0,0,0,1.21-.33,2.68,2.68,0,0,0,.88-.92,2.49,2.49,0,0,0,.34-1.27,2.42,2.42,0,0,0-.33-1.26,2.35,2.35,0,0,0-.87-.9,2.3,2.3,0,0,0-1.25-.34,2.52,2.52,0,0,0-1.24.32,2.35,2.35,0,0,0-.87.9,2.64,2.64,0,0,0-.32,1.28,2.51,2.51,0,0,0,.33,1.27,2.34,2.34,0,0,0,.9.92A2.4,2.4,0,0,0,190.4,30.15Zm4.35,3.73a2.31,2.31,0,0,1-1.26-.27,1.3,1.3,0,0,1-.54-.85V17.6a6.73,6.73,0,0,1,.06-.91,1,1,0,0,1,.44-.71,2.28,2.28,0,0,1,1.28-.27,2.38,2.38,0,0,1,1.32.26,1.08,1.08,0,0,1,.47.69,3.82,3.82,0,0,1,.1.92V32a4.46,4.46,0,0,1-.09.91,1.14,1.14,0,0,1-.48.72A2.37,2.37,0,0,1,194.75,33.88Z"/><path class="cls-3" d="M205.15,34.09a6.3,6.3,0,0,1-2.34-.47,7,7,0,0,1-2.11-1.31,6.38,6.38,0,0,1-1.51-2,6,6,0,0,1-.56-2.64,6.19,6.19,0,0,1,.51-2.51,6.78,6.78,0,0,1,1.42-2.06,6.63,6.63,0,0,1,2.06-1.41,6.09,6.09,0,0,1,2.49-.51,6.35,6.35,0,0,1,3.26.86,6.72,6.72,0,0,1,2.34,2.34,6.34,6.34,0,0,1,.87,3.28,6.2,6.2,0,0,1-.57,2.71,6.35,6.35,0,0,1-1.5,2,6.57,6.57,0,0,1-2.07,1.28A6.38,6.38,0,0,1,205.15,34.09Zm-.05-3.78a2.85,2.85,0,0,0,1.23-.3,2.81,2.81,0,0,0,1-.9,2.57,2.57,0,0,0,.42-1.52,2.67,2.67,0,0,0-.35-1.4,2.48,2.48,0,0,0-1-.94,2.94,2.94,0,0,0-1.41-.34,2.6,2.6,0,0,0-1.34.35,2.73,2.73,0,0,0-1,1,2.69,2.69,0,0,0-.36,1.39,2.66,2.66,0,0,0,.41,1.51,2.43,2.43,0,0,0,1,.9A2.76,2.76,0,0,0,205.1,30.31Z"/><path class="cls-3" d="M226.32,34.13a7.44,7.44,0,0,1-3-.58A5.86,5.86,0,0,1,221.25,32a6.57,6.57,0,0,1-1.2-2.08,7.19,7.19,0,0,1-.4-2.3,6.54,6.54,0,0,1,.85-3.33A6.12,6.12,0,0,1,222.87,22a7,7,0,0,1,3.46-.84,6.35,6.35,0,0,1,2.51.46,5.11,5.11,0,0,1,1.75,1.21,5.18,5.18,0,0,1,1,1.58,4.51,4.51,0,0,1,.33,1.63,2.82,2.82,0,0,1-.66,2.05,2.25,2.25,0,0,1-1.69.67h-5.95a1.74,1.74,0,0,0,.46,1.07,2.73,2.73,0,0,0,1,.7,3.7,3.7,0,0,0,1.33.26,7.82,7.82,0,0,0,1-.07,4.49,4.49,0,0,0,.79-.17l.59-.23.49-.18a1.81,1.81,0,0,1,.42-.1,1,1,0,0,1,.68.21,2.22,2.22,0,0,1,.57.71,1.75,1.75,0,0,1,.24.53,2.07,2.07,0,0,1,.06.5,1.35,1.35,0,0,1-.61,1.09,4.91,4.91,0,0,1-1.73.73A11.51,11.51,0,0,1,226.32,34.13Zm-2.67-7.41h3.95a1.06,1.06,0,0,0,.58-.14.62.62,0,0,0,.2-.54,1.18,1.18,0,0,0-.28-.77,1.67,1.67,0,0,0-.73-.54,2.8,2.8,0,0,0-1.09-.19,3,3,0,0,0-1.35.3,2.47,2.47,0,0,0-.94.8A1.91,1.91,0,0,0,223.65,26.72Z"/><path class="cls-3" d="M235.92,33.88a2.5,2.5,0,0,1-1.31-.26,1.08,1.08,0,0,1-.47-.7,4.53,4.53,0,0,1-.09-.91V23.2a4.12,4.12,0,0,1,.08-.88,1,1,0,0,1,.49-.66,2.6,2.6,0,0,1,1.33-.25,2.49,2.49,0,0,1,1.17.21,1,1,0,0,1,.49.51,1.73,1.73,0,0,1,.11.56,1,1,0,0,0,.05.37l-.15.47a1.43,1.43,0,0,1,.39-.76,3.53,3.53,0,0,1,.85-.7,4.73,4.73,0,0,1,1.1-.49,4.29,4.29,0,0,1,1.16-.17,5.05,5.05,0,0,1,2.14.44,4.41,4.41,0,0,1,1.59,1.26,5.81,5.81,0,0,1,1,1.94,8.18,8.18,0,0,1,.34,2.44V32a4.53,4.53,0,0,1-.08.91,1.06,1.06,0,0,1-.48.69,2.68,2.68,0,0,1-1.34.25,2.46,2.46,0,0,1-1.32-.27,1.06,1.06,0,0,1-.49-.7,4.46,4.46,0,0,1-.09-.91V27.48a2.87,2.87,0,0,0-.26-1.27,1.88,1.88,0,0,0-.75-.8,2.5,2.5,0,0,0-1.22-.28,2.59,2.59,0,0,0-1.25.29,2,2,0,0,0-.81.81,2.59,2.59,0,0,0-.29,1.25V32a4.46,4.46,0,0,1-.09.91,1,1,0,0,1-.47.69A2.53,2.53,0,0,1,235.92,33.88Z"/><path class="cls-3" d="M265,33.92a2.4,2.4,0,0,1-1.3-.27,1.12,1.12,0,0,1-.48-.73,4.7,4.7,0,0,1-.09-.92V28.8h-6.7a2.4,2.4,0,0,1-1.3-.27,1.21,1.21,0,0,1-.5-.72,3.85,3.85,0,0,1-.1-.91,2.37,2.37,0,0,1,0-.41,2.87,2.87,0,0,1,0-.31l2.2-8.33c.19-.76.45-1.23.79-1.38a2.47,2.47,0,0,1,1.56,0,2.68,2.68,0,0,1,1.23.6,1,1,0,0,1,.27,1l-1.88,7.17h4.35v-7a3.94,3.94,0,0,1,.09-.87,1,1,0,0,1,.5-.67,2.61,2.61,0,0,1,1.33-.26,2.46,2.46,0,0,1,1.33.28,1.13,1.13,0,0,1,.49.71,5.58,5.58,0,0,1,.08.94V32a4,4,0,0,1-.1.94,1.07,1.07,0,0,1-.5.7A2.5,2.5,0,0,1,265,33.92Z"/><path class="cls-2" d="M120.33,33.84a2.46,2.46,0,0,1-1.33-.28,1.09,1.09,0,0,1-.49-.72,5.64,5.64,0,0,1-.08-.93V18.26a3.84,3.84,0,0,1,.11-.91,1.11,1.11,0,0,1,.5-.71,2.31,2.31,0,0,1,1.32-.28h5.13a6.39,6.39,0,0,1,2.1.38,6.12,6.12,0,0,1,3.46,3.1,6.17,6.17,0,0,1,.56,2.7,5.93,5.93,0,0,1-.57,2.69,5.71,5.71,0,0,1-1.47,1.91,6.15,6.15,0,0,1-2,1.15,6.46,6.46,0,0,1-2.13.37h-3.2v3.28a3.91,3.91,0,0,1-.1.91,1.15,1.15,0,0,1-.5.71A2.35,2.35,0,0,1,120.33,33.84Zm1.93-9h3.22a2.64,2.64,0,0,0,1.09-.23,2.12,2.12,0,0,0,.9-.76,2.65,2.65,0,0,0,0-2.58,2.28,2.28,0,0,0-.84-.82,2.31,2.31,0,0,0-1.22-.31h-3.2Z"/><path class="cls-2" d="M138.53,33.85a16.26,16.26,0,0,1-1.83-.1,3.9,3.9,0,0,1-1.35-.4,2.5,2.5,0,0,1-.9-.84,4,4,0,0,1-.52-1.38,10,10,0,0,1-.18-2.06V17.52a3.82,3.82,0,0,1,.1-.92,1.2,1.2,0,0,1,.49-.71,2.37,2.37,0,0,1,1.31-.27,2.24,2.24,0,0,1,1.29.28,1.15,1.15,0,0,1,.49.7,4.4,4.4,0,0,1,.1.92V28.9a4.16,4.16,0,0,0,0,.66.8.8,0,0,0,.15.41.49.49,0,0,0,.31.2,1.9,1.9,0,0,0,.52,0,2.7,2.7,0,0,1,.62.08.9.9,0,0,1,.53.45,2.56,2.56,0,0,1,.23,1.25,2.79,2.79,0,0,1-.23,1.3.89.89,0,0,1-.54.47A2.72,2.72,0,0,1,138.53,33.85Z"/><path class="cls-2" d="M148,34.08a7.09,7.09,0,0,1-3-.58A5.84,5.84,0,0,1,142.88,32a6.25,6.25,0,0,1-1.2-2.09,6.88,6.88,0,0,1-.4-2.3,6.45,6.45,0,0,1,.85-3.33A6.19,6.19,0,0,1,144.5,22a7,7,0,0,1,3.46-.84,6.24,6.24,0,0,1,2.51.47,5.23,5.23,0,0,1,1.75,1.2,4.89,4.89,0,0,1,1,1.59,4.25,4.25,0,0,1,.34,1.62,2.82,2.82,0,0,1-.66,2,2.29,2.29,0,0,1-1.69.68h-5.95a1.77,1.77,0,0,0,.46,1.08,2.77,2.77,0,0,0,1,.7,3.64,3.64,0,0,0,1.32.25,8.1,8.1,0,0,0,1-.06,3.7,3.7,0,0,0,.79-.18l.58-.22c.18-.08.34-.14.49-.19a2.41,2.41,0,0,1,.43-.1,1,1,0,0,1,.67.21,2.06,2.06,0,0,1,.58.72,2.18,2.18,0,0,1,.24.52,2.14,2.14,0,0,1,.06.5,1.35,1.35,0,0,1-.62,1.09,4.68,4.68,0,0,1-1.72.73A11,11,0,0,1,148,34.08Zm-2.67-7.4h3.95a1.06,1.06,0,0,0,.58-.14A.62.62,0,0,0,150,26a1.23,1.23,0,0,0-.27-.77,1.8,1.8,0,0,0-.74-.54,3.18,3.18,0,0,0-2.43.11,2.39,2.39,0,0,0-.94.8A1.84,1.84,0,0,0,145.28,26.68Z"/><path class="cls-2" d="M160.85,33.54a5,5,0,0,1-2.16-.49,5.84,5.84,0,0,1-1.79-1.34,6.55,6.55,0,0,1-1.22-1.95,6.12,6.12,0,0,1-.45-2.33,6,6,0,0,1,.45-2.31,6.15,6.15,0,0,1,1.24-1.92,6,6,0,0,1,1.8-1.33,4.86,4.86,0,0,1,2.11-.48,3.81,3.81,0,0,1,1.9.43A3.29,3.29,0,0,1,164,23.08a6.39,6.39,0,0,1,.71,1.92,11.82,11.82,0,0,1,.24,2.49,11,11,0,0,1-.42,3.21,4.2,4.2,0,0,1-1.3,2.1A3.58,3.58,0,0,1,160.85,33.54ZM161.3,39a7.45,7.45,0,0,1-3.35-.83,4.28,4.28,0,0,1-1.15-.8,1.19,1.19,0,0,1-.43-.85,1.77,1.77,0,0,1,.15-.73,2.46,2.46,0,0,1,.45-.67,7,7,0,0,1,.6-.57,1,1,0,0,1,.6-.2,1,1,0,0,1,.63.19l.59.41a3.33,3.33,0,0,0,.78.41,3.21,3.21,0,0,0,1.2.19,2.26,2.26,0,0,0,.94-.19,1.92,1.92,0,0,0,.75-.55,2.65,2.65,0,0,0,.5-.85,2.85,2.85,0,0,0,.19-1.08V22.54a1.21,1.21,0,0,1,.51-.94,2.49,2.49,0,0,1,1.34-.29,2.21,2.21,0,0,1,1.25.27,1.07,1.07,0,0,1,.46.68,4.43,4.43,0,0,1,.09.9V33a5.88,5.88,0,0,1-.53,2.54,5.57,5.57,0,0,1-1.4,1.87,6,6,0,0,1-1.95,1.16A6.23,6.23,0,0,1,161.3,39Zm0-9.1a2.13,2.13,0,0,0,1.2-.34,2.53,2.53,0,0,0,.84-.88,2.6,2.6,0,0,0,.31-1.25,2.54,2.54,0,0,0-.31-1.25,2.39,2.39,0,0,0-.85-.88,2.36,2.36,0,0,0-1.22-.32,2.26,2.26,0,0,0-1.2.33,2.44,2.44,0,0,0-.83.89,2.47,2.47,0,0,0-.32,1.25,2.3,2.3,0,0,0,.33,1.22,2.45,2.45,0,0,0,.86.89A2.15,2.15,0,0,0,161.28,29.91Z"/><path class="cls-2" d="M180.17,33.85a2.33,2.33,0,0,1-1.37-.33.92.92,0,0,1-.43-.8l.26-.42a3.07,3.07,0,0,1-.58.61,4.11,4.11,0,0,1-1.11.65,4.38,4.38,0,0,1-1.67.29,5,5,0,0,1-2.18-.51A5.74,5.74,0,0,1,171.25,32a7,7,0,0,1-1.27-2,6,6,0,0,1-.48-2.37,5.83,5.83,0,0,1,.48-2.34,6.9,6.9,0,0,1,1.29-2,6.42,6.42,0,0,1,1.84-1.36,4.9,4.9,0,0,1,2.17-.5,4.14,4.14,0,0,1,1.58.27,4.24,4.24,0,0,1,1.08.61,3,3,0,0,1,.67.68l-.23-.35a1.07,1.07,0,0,1,.44-.92,2.48,2.48,0,0,1,1.39-.31,2.33,2.33,0,0,1,1.29.28,1.14,1.14,0,0,1,.47.72,4.86,4.86,0,0,1,.09.95V32a4.7,4.7,0,0,1-.09.92,1.1,1.1,0,0,1-.47.72A2.52,2.52,0,0,1,180.17,33.85Zm-4.37-3.73a2.13,2.13,0,0,0,1.2-.34,2.63,2.63,0,0,0,.85-3.47,2.35,2.35,0,0,0-2.1-1.21,2.47,2.47,0,0,0-1.26.33,2.7,2.7,0,0,0-.9.91,2.6,2.6,0,0,0-.34,1.3,2.46,2.46,0,0,0,1.26,2.14A2.51,2.51,0,0,0,175.8,30.12Z"/><path class="cls-2" d="M189.9,33.85a5,5,0,0,1-2.18-.49A5.83,5.83,0,0,1,185.9,32a6.7,6.7,0,0,1-1.26-2,6.32,6.32,0,0,1-.46-2.42,6,6,0,0,1,.46-2.33,6.67,6.67,0,0,1,1.28-2,6.24,6.24,0,0,1,1.84-1.36,4.88,4.88,0,0,1,2.15-.5,4.47,4.47,0,0,1,2.11.49,4.35,4.35,0,0,1,1.52,1.34,6.48,6.48,0,0,1,.94,2,9.08,9.08,0,0,1,.35,2.35,9.28,9.28,0,0,1-.3,2.4,6.12,6.12,0,0,1-.93,2,4.66,4.66,0,0,1-1.55,1.38A4.38,4.38,0,0,1,189.9,33.85Zm.5-3.7a2.24,2.24,0,0,0,1.21-.33,2.68,2.68,0,0,0,.88-.92,2.49,2.49,0,0,0,.34-1.27,2.42,2.42,0,0,0-.33-1.26,2.35,2.35,0,0,0-.87-.9,2.3,2.3,0,0,0-1.25-.34,2.52,2.52,0,0,0-1.24.32,2.35,2.35,0,0,0-.87.9,2.64,2.64,0,0,0-.32,1.28,2.51,2.51,0,0,0,.33,1.27,2.34,2.34,0,0,0,.9.92A2.4,2.4,0,0,0,190.4,30.15Zm4.35,3.73a2.31,2.31,0,0,1-1.26-.27,1.3,1.3,0,0,1-.54-.85V17.6a6.73,6.73,0,0,1,.06-.91,1,1,0,0,1,.44-.71,2.28,2.28,0,0,1,1.28-.27,2.38,2.38,0,0,1,1.32.26,1.08,1.08,0,0,1,.47.69,3.82,3.82,0,0,1,.1.92V32a4.46,4.46,0,0,1-.09.91,1.14,1.14,0,0,1-.48.72A2.37,2.37,0,0,1,194.75,33.88Z"/><path class="cls-2" d="M205.15,34.09a6.3,6.3,0,0,1-2.34-.47,7,7,0,0,1-2.11-1.31,6.38,6.38,0,0,1-1.51-2,6,6,0,0,1-.56-2.64,6.19,6.19,0,0,1,.51-2.51,6.78,6.78,0,0,1,1.42-2.06,6.63,6.63,0,0,1,2.06-1.41,6.09,6.09,0,0,1,2.49-.51,6.35,6.35,0,0,1,3.26.86,6.72,6.72,0,0,1,2.34,2.34,6.34,6.34,0,0,1,.87,3.28,6.2,6.2,0,0,1-.57,2.71,6.35,6.35,0,0,1-1.5,2,6.57,6.57,0,0,1-2.07,1.28A6.38,6.38,0,0,1,205.15,34.09Zm-.05-3.78a2.85,2.85,0,0,0,1.23-.3,2.81,2.81,0,0,0,1-.9,2.57,2.57,0,0,0,.42-1.52,2.67,2.67,0,0,0-.35-1.4,2.48,2.48,0,0,0-1-.94,2.94,2.94,0,0,0-1.41-.34,2.6,2.6,0,0,0-1.34.35,2.73,2.73,0,0,0-1,1,2.69,2.69,0,0,0-.36,1.39,2.66,2.66,0,0,0,.41,1.51,2.43,2.43,0,0,0,1,.9A2.76,2.76,0,0,0,205.1,30.31Z"/><path class="cls-2" d="M226.32,34.13a7.44,7.44,0,0,1-3-.58A5.86,5.86,0,0,1,221.25,32a6.57,6.57,0,0,1-1.2-2.08,7.19,7.19,0,0,1-.4-2.3,6.54,6.54,0,0,1,.85-3.33A6.12,6.12,0,0,1,222.87,22a7,7,0,0,1,3.46-.84,6.35,6.35,0,0,1,2.51.46,5.11,5.11,0,0,1,1.75,1.21,5.18,5.18,0,0,1,1,1.58,4.51,4.51,0,0,1,.33,1.63,2.82,2.82,0,0,1-.66,2.05,2.25,2.25,0,0,1-1.69.67h-5.95a1.74,1.74,0,0,0,.46,1.07,2.73,2.73,0,0,0,1,.7,3.7,3.7,0,0,0,1.33.26,7.82,7.82,0,0,0,1-.07,4.49,4.49,0,0,0,.79-.17l.59-.23.49-.18a1.81,1.81,0,0,1,.42-.1,1,1,0,0,1,.68.21,2.22,2.22,0,0,1,.57.71,1.75,1.75,0,0,1,.24.53,2.07,2.07,0,0,1,.06.5,1.35,1.35,0,0,1-.61,1.09,4.91,4.91,0,0,1-1.73.73A11.51,11.51,0,0,1,226.32,34.13Zm-2.67-7.41h3.95a1.06,1.06,0,0,0,.58-.14.62.62,0,0,0,.2-.54,1.18,1.18,0,0,0-.28-.77,1.67,1.67,0,0,0-.73-.54,2.8,2.8,0,0,0-1.09-.19,3,3,0,0,0-1.35.3,2.47,2.47,0,0,0-.94.8A1.91,1.91,0,0,0,223.65,26.72Z"/><path class="cls-2" d="M235.92,33.88a2.5,2.5,0,0,1-1.31-.26,1.08,1.08,0,0,1-.47-.7,4.53,4.53,0,0,1-.09-.91V23.2a4.12,4.12,0,0,1,.08-.88,1,1,0,0,1,.49-.66,2.6,2.6,0,0,1,1.33-.25,2.49,2.49,0,0,1,1.17.21,1,1,0,0,1,.49.51,1.73,1.73,0,0,1,.11.56,1,1,0,0,0,.05.37l-.15.47a1.43,1.43,0,0,1,.39-.76,3.53,3.53,0,0,1,.85-.7,4.73,4.73,0,0,1,1.1-.49,4.29,4.29,0,0,1,1.16-.17,5.05,5.05,0,0,1,2.14.44,4.41,4.41,0,0,1,1.59,1.26,5.81,5.81,0,0,1,1,1.94,8.18,8.18,0,0,1,.34,2.44V32a4.53,4.53,0,0,1-.08.91,1.06,1.06,0,0,1-.48.69,2.68,2.68,0,0,1-1.34.25,2.46,2.46,0,0,1-1.32-.27,1.06,1.06,0,0,1-.49-.7,4.46,4.46,0,0,1-.09-.91V27.48a2.87,2.87,0,0,0-.26-1.27,1.88,1.88,0,0,0-.75-.8,2.5,2.5,0,0,0-1.22-.28,2.59,2.59,0,0,0-1.25.29,2,2,0,0,0-.81.81,2.59,2.59,0,0,0-.29,1.25V32a4.46,4.46,0,0,1-.09.91,1,1,0,0,1-.47.69A2.53,2.53,0,0,1,235.92,33.88Z"/><path class="cls-2" d="M265,33.92a2.4,2.4,0,0,1-1.3-.27,1.12,1.12,0,0,1-.48-.73,4.7,4.7,0,0,1-.09-.92V28.8h-6.7a2.4,2.4,0,0,1-1.3-.27,1.21,1.21,0,0,1-.5-.72,3.85,3.85,0,0,1-.1-.91,2.37,2.37,0,0,1,0-.41,2.87,2.87,0,0,1,0-.31l2.2-8.33c.19-.76.45-1.23.79-1.38a2.47,2.47,0,0,1,1.56,0,2.68,2.68,0,0,1,1.23.6,1,1,0,0,1,.27,1l-1.88,7.17h4.35v-7a3.94,3.94,0,0,1,.09-.87,1,1,0,0,1,.5-.67,2.61,2.61,0,0,1,1.33-.26,2.46,2.46,0,0,1,1.33.28,1.13,1.13,0,0,1,.49.71,5.58,5.58,0,0,1,.08.94V32a4,4,0,0,1-.1.94,1.07,1.07,0,0,1-.5.7A2.5,2.5,0,0,1,265,33.92Z"/><text class="cls-4" transform="matrix(0.97, 0, 0, 1, 34.48, 38.89)">3.3</text><text class="cls-5" transform="matrix(0.97, 0, 0, 1, 34.48, 38.89)">3.3</text></g></g></svg>