<svg xmlns="http://www.w3.org/2000/svg" viewBox="0 0 401.16 89.89"><defs><style>.cls-1{fill:#0468ad;}.cls-2{fill:#fff;}.cls-3,.cls-4{fill:none;stroke-width:5px;}.cls-3{stroke:#c8a927;stroke-linejoin:round;}.cls-4,.cls-6{font-size:42px;font-family:Coiny-Regular, Coiny;}.cls-4{stroke:#fff;}.cls-5{letter-spacing:-0.11em;}.cls-6{fill:#c8a927;}</style></defs><title>41t</title><g id="Layer_2" data-name="Layer 2"><g id="pestaña_identificativa" data-name="pestaña identificativa"><rect class="cls-1" y="1.56" width="401.16" height="88.33" rx="32.4"/><path class="cls-2" d="M127.15,33a8.57,8.57,0,0,1-2.32-.34,9.24,9.24,0,0,1-2.41-1,8.87,8.87,0,0,1-2.14-1.79,8.05,8.05,0,0,1-1.51-2.55,9.36,9.36,0,0,1-.56-3.32,8.8,8.8,0,0,1,.56-3.24,8.09,8.09,0,0,1,1.52-2.46,9,9,0,0,1,2.12-1.74,9.75,9.75,0,0,1,2.42-1,8.82,8.82,0,0,1,2.38-.34,7.38,7.38,0,0,1,2.23.3,8.68,8.68,0,0,1,1.54.63l.76.43a7.64,7.64,0,0,1,.85.65,1.17,1.17,0,0,1,.42.9,1.59,1.59,0,0,1-.11.6,2.29,2.29,0,0,1-.34.6,3.14,3.14,0,0,1-.77.83,1.14,1.14,0,0,1-1.3.12c-.19-.11-.4-.24-.65-.41l-.5-.31a4,4,0,0,0-.89-.34,5.78,5.78,0,0,0-3.15.15,5.07,5.07,0,0,0-1.64.93,4.45,4.45,0,0,0-1.2,1.58A5.3,5.3,0,0,0,122,24.1a5.12,5.12,0,0,0,.46,2.26,4.75,4.75,0,0,0,1.21,1.57,5.29,5.29,0,0,0,1.64.94,5.16,5.16,0,0,0,1.74.31,4.66,4.66,0,0,0,1.27-.15,5,5,0,0,0,.93-.36c.26-.14.49-.27.67-.39s.37-.22.57-.32a1.22,1.22,0,0,1,.58-.15,1.13,1.13,0,0,1,.71.28,4.32,4.32,0,0,1,1.08,1.51,1.92,1.92,0,0,1,.11.61,1.07,1.07,0,0,1-.41.86,9.79,9.79,0,0,1-.86.62l-.75.43a7.07,7.07,0,0,1-1.53.63A8,8,0,0,1,127.15,33Z"/><path class="cls-2" d="M141.15,33a6.2,6.2,0,0,1-2.33-.46,6.94,6.94,0,0,1-2.11-1.32,6.08,6.08,0,0,1-2.08-4.67,6,6,0,0,1,.52-2.51A6.67,6.67,0,0,1,136.56,22a6.75,6.75,0,0,1,2.06-1.41,6.16,6.16,0,0,1,2.49-.51,6.24,6.24,0,0,1,3.26.87,6.45,6.45,0,0,1,2.34,2.33,6.71,6.71,0,0,1,.31,6,6.66,6.66,0,0,1-1.5,2,6.54,6.54,0,0,1-2.08,1.28A6.17,6.17,0,0,1,141.15,33Zm0-3.77a2.81,2.81,0,0,0,1.22-.3,2.67,2.67,0,0,0,1-.9,2.54,2.54,0,0,0,.43-1.53,2.77,2.77,0,0,0-.35-1.4,2.55,2.55,0,0,0-1-.94,3,3,0,0,0-1.42-.33,2.47,2.47,0,0,0-1.33.35,2.57,2.57,0,0,0-.95,1,2.6,2.6,0,0,0-.37,1.39,2.68,2.68,0,0,0,.41,1.51,2.49,2.49,0,0,0,1,.9A3,3,0,0,0,141.11,29.27Z"/><path class="cls-2" d="M154.4,32.85a14.14,14.14,0,0,1-1.82-.1,3.9,3.9,0,0,1-1.35-.4,2.42,2.42,0,0,1-.9-.84,4,4,0,0,1-.52-1.38,9.9,9.9,0,0,1-.18-2.06V16.52a3.82,3.82,0,0,1,.1-.92,1.15,1.15,0,0,1,.49-.7,2.27,2.27,0,0,1,1.31-.28,2.33,2.33,0,0,1,1.29.28,1.12,1.12,0,0,1,.48.7,3.82,3.82,0,0,1,.1.92V27.9a5.86,5.86,0,0,0,0,.66,1,1,0,0,0,.15.41.54.54,0,0,0,.32.2,1.86,1.86,0,0,0,.52,0,2.62,2.62,0,0,1,.61.08.89.89,0,0,1,.54.45,2.56,2.56,0,0,1,.23,1.25,2.93,2.93,0,0,1-.23,1.3.83.83,0,0,1-.54.47A2.29,2.29,0,0,1,154.4,32.85Z"/><path class="cls-2" d="M163.63,33.05a6.29,6.29,0,0,1-2.34-.46,7.24,7.24,0,0,1-2.11-1.31,6.38,6.38,0,0,1-1.51-2,6,6,0,0,1-.56-2.64,6.16,6.16,0,0,1,.51-2.51,6.85,6.85,0,0,1,3.48-3.47,5.94,5.94,0,0,1,2.49-.52,6.36,6.36,0,0,1,3.26.87,6.64,6.64,0,0,1,2.34,2.34,6.67,6.67,0,0,1,.3,6,6.21,6.21,0,0,1-1.5,2,6.53,6.53,0,0,1-2.07,1.29A6.15,6.15,0,0,1,163.63,33.05Zm0-3.77a2.85,2.85,0,0,0,1.23-.3,2.81,2.81,0,0,0,1.05-.9,2.6,2.6,0,0,0,.42-1.52,2.65,2.65,0,0,0-.35-1.4,2.41,2.41,0,0,0-1-.94,2.83,2.83,0,0,0-1.41-.34,2.6,2.6,0,0,0-1.34.35,2.65,2.65,0,0,0-.95,1,2.69,2.69,0,0,0-.36,1.39,2.6,2.6,0,0,0,.41,1.51,2.43,2.43,0,0,0,1,.9A2.9,2.9,0,0,0,163.58,29.28Z"/><path class="cls-2" d="M174,32.86a2.5,2.5,0,0,1-1.31-.26,1.1,1.1,0,0,1-.47-.71,4.81,4.81,0,0,1-.09-.93V22.24a4.45,4.45,0,0,1,.09-.93,1.08,1.08,0,0,1,.49-.69,2.59,2.59,0,0,1,1.33-.26,2.5,2.5,0,0,1,1.26.24,1.06,1.06,0,0,1,.49.55,2.08,2.08,0,0,1,.1.54l-.3.15a2.39,2.39,0,0,1,.26-.37,4.06,4.06,0,0,1,.59-.55,3.39,3.39,0,0,1,.91-.48,3.62,3.62,0,0,1,1.24-.2,4.66,4.66,0,0,1,.61,0,3.14,3.14,0,0,1,.7.15,2.47,2.47,0,0,1,.66.3,1.66,1.66,0,0,1,.49.46,1.21,1.21,0,0,1,.19.68,3,3,0,0,1-.48,1.73,1.4,1.4,0,0,1-1.2.71,2.11,2.11,0,0,1-.6-.06,1,1,0,0,1-.29-.15.93.93,0,0,0-.26-.15,1.68,1.68,0,0,0-.55-.06,2.34,2.34,0,0,0-.71.1,1.85,1.85,0,0,0-.63.31,1.54,1.54,0,0,0-.45.53,1.46,1.46,0,0,0-.16.71V31a4.47,4.47,0,0,1-.08.91,1,1,0,0,1-.49.69A2.6,2.6,0,0,1,174,32.86Z"/><path class="cls-2" d="M189.35,33.1a7.44,7.44,0,0,1-3-.58A5.86,5.86,0,0,1,184.28,31a6.57,6.57,0,0,1-1.2-2.08,6.92,6.92,0,0,1-.4-2.3,6.54,6.54,0,0,1,.85-3.33A6.21,6.21,0,0,1,185.9,21a7.11,7.11,0,0,1,3.46-.83,6.35,6.35,0,0,1,2.51.46,5.23,5.23,0,0,1,1.75,1.2,5.34,5.34,0,0,1,1,1.59,4.51,4.51,0,0,1,.33,1.63,2.82,2.82,0,0,1-.66,2.05,2.27,2.27,0,0,1-1.69.67h-5.95a1.74,1.74,0,0,0,.46,1.07,2.73,2.73,0,0,0,1,.7,3.7,3.7,0,0,0,1.33.26,6.5,6.5,0,0,0,1-.07,4.49,4.49,0,0,0,.79-.17l.59-.23.49-.18a1.81,1.81,0,0,1,.42-.1,1,1,0,0,1,.68.21,2.22,2.22,0,0,1,.57.71,1.75,1.75,0,0,1,.24.53,2.14,2.14,0,0,1,.06.5,1.33,1.33,0,0,1-.61,1.08,4.73,4.73,0,0,1-1.73.74A11.51,11.51,0,0,1,189.35,33.1Zm-2.67-7.41h3.95a1.06,1.06,0,0,0,.58-.14.62.62,0,0,0,.2-.54,1.18,1.18,0,0,0-.28-.77,1.61,1.61,0,0,0-.73-.54,2.8,2.8,0,0,0-1.09-.19,3,3,0,0,0-1.35.3,2.47,2.47,0,0,0-.94.8A1.91,1.91,0,0,0,186.68,25.69Z"/><path class="cls-2" d="M207.28,32.86a2.34,2.34,0,0,1-1.38-.33.89.89,0,0,1-.42-.8l.25-.42a2.8,2.8,0,0,1-.58.61,4.11,4.11,0,0,1-1.11.65,4.34,4.34,0,0,1-1.66.28,4.88,4.88,0,0,1-2.19-.5A5.85,5.85,0,0,1,198.35,31a7.21,7.21,0,0,1-1.27-2,6.13,6.13,0,0,1,0-4.71,6.9,6.9,0,0,1,1.29-2,6.56,6.56,0,0,1,1.84-1.36,4.94,4.94,0,0,1,2.18-.5,4.09,4.09,0,0,1,1.57.27,4.32,4.32,0,0,1,1.09.61,3.2,3.2,0,0,1,.66.68l-.22-.35a1.06,1.06,0,0,1,.43-.92,2.42,2.42,0,0,1,1.39-.31,2.24,2.24,0,0,1,1.29.28,1.1,1.1,0,0,1,.47.72,4.86,4.86,0,0,1,.09.95V31a4.7,4.7,0,0,1-.08.92,1.07,1.07,0,0,1-.48.71A2.39,2.39,0,0,1,207.28,32.86Zm-4.37-3.73a2.13,2.13,0,0,0,1.2-.34,2.57,2.57,0,0,0,.85-.91,2.61,2.61,0,0,0,.32-1.28,2.56,2.56,0,0,0-.32-1.28,2.42,2.42,0,0,0-.88-.89,2.3,2.3,0,0,0-1.22-.33,2.42,2.42,0,0,0-1.26.34,2.53,2.53,0,0,0-.9.91,2.5,2.5,0,0,0-.34,1.3,2.42,2.42,0,0,0,.33,1.24,2.6,2.6,0,0,0,2.22,1.24Z"/><path class="cls-2" d="M223.55,32.87a5.37,5.37,0,0,1-2.17-.45,5.5,5.5,0,0,1-1.75-1.27,5.64,5.64,0,0,1-1.16-1.92,6.91,6.91,0,0,1-.41-2.44V22.26a4.42,4.42,0,0,1,.09-.92,1.08,1.08,0,0,1,.49-.7,2.4,2.4,0,0,1,1.32-.28,2.36,2.36,0,0,1,1.31.28,1.12,1.12,0,0,1,.48.71,4.7,4.7,0,0,1,.08.94v4.5a2.92,2.92,0,0,0,.26,1.26,1.88,1.88,0,0,0,.78.82,2.54,2.54,0,0,0,1.21.27,2.42,2.42,0,0,0,1.24-.29,2,2,0,0,0,.8-.81,2.57,2.57,0,0,0,.29-1.25V22.24a4.42,4.42,0,0,1,.09-.92,1.06,1.06,0,0,1,.49-.69,2.52,2.52,0,0,1,1.32-.26,2.37,2.37,0,0,1,1.31.27,1.17,1.17,0,0,1,.48.72,4.47,4.47,0,0,1,.08.91v8.8a4.19,4.19,0,0,1-.09.89,1,1,0,0,1-.49.66,2.5,2.5,0,0,1-1.3.25,2.92,2.92,0,0,1-1.05-.15,1.31,1.31,0,0,1-.55-.38,1.16,1.16,0,0,1-.21-.47,4.14,4.14,0,0,1,0-.45l.33-.28a2.1,2.1,0,0,1-.33.39,4,4,0,0,1-.66.57,4.21,4.21,0,0,1-1,.54A3.36,3.36,0,0,1,223.55,32.87Z"/><path class="cls-2" d="M234.55,32.87a2.5,2.5,0,0,1-1.31-.26,1,1,0,0,1-.47-.7,4.53,4.53,0,0,1-.09-.91V22.2a4.13,4.13,0,0,1,.09-.89,1,1,0,0,1,.49-.66,2.58,2.58,0,0,1,1.32-.25,2.51,2.51,0,0,1,1.18.21,1,1,0,0,1,.49.51,1.74,1.74,0,0,1,.11.57,1,1,0,0,0,0,.36l-.15.47a1.43,1.43,0,0,1,.39-.76,3.53,3.53,0,0,1,.85-.7,4.32,4.32,0,0,1,1.1-.48,4,4,0,0,1,1.16-.18,5.05,5.05,0,0,1,2.14.44,4.29,4.29,0,0,1,1.58,1.26,5.65,5.65,0,0,1,1,1.94,8.22,8.22,0,0,1,.34,2.44V31a5.31,5.31,0,0,1-.08.91,1.06,1.06,0,0,1-.48.69,2.68,2.68,0,0,1-1.34.25,2.43,2.43,0,0,1-1.32-.27,1,1,0,0,1-.49-.7A4.46,4.46,0,0,1,241,31V26.48a2.92,2.92,0,0,0-.26-1.28,1.88,1.88,0,0,0-.75-.8,2.5,2.5,0,0,0-1.22-.27,2.59,2.59,0,0,0-1.25.28,2,2,0,0,0-.81.81,2.59,2.59,0,0,0-.29,1.25V31a4.56,4.56,0,0,1-.09.92,1,1,0,0,1-.47.68A2.53,2.53,0,0,1,234.55,32.87Z"/><path class="cls-2" d="M260,33a6.69,6.69,0,0,1-2.24-.41,7.21,7.21,0,0,1-2.09-1.21,5.81,5.81,0,0,1-1.54-2,6.32,6.32,0,0,1-.57-2.75,6.15,6.15,0,0,1,.57-2.72,6.26,6.26,0,0,1,1.53-2,7,7,0,0,1,2.09-1.21,6.57,6.57,0,0,1,2.21-.41,5.66,5.66,0,0,1,1.66.22,5.41,5.41,0,0,1,1.25.51,3.87,3.87,0,0,1,.74.53,7,7,0,0,1,.75.65,1,1,0,0,1,.3.85,1.59,1.59,0,0,1-.18.56,4.36,4.36,0,0,1-.37.59c-.52.7-1,1-1.5,1a2.59,2.59,0,0,1-.69-.26c-.21-.11-.41-.23-.6-.35a5.81,5.81,0,0,0-.61-.31,2,2,0,0,0-.75-.14,2.45,2.45,0,0,0-1.3.34,2.48,2.48,0,0,0-.92.9,2.52,2.52,0,0,0-.33,1.31,2.56,2.56,0,0,0,.33,1.3,2.61,2.61,0,0,0,.9.91,2.58,2.58,0,0,0,2,.24,2.17,2.17,0,0,0,.55-.23l.35-.22.57-.36a1.09,1.09,0,0,1,.56-.16,1.25,1.25,0,0,1,.73.26,4.38,4.38,0,0,1,.81.84,2,2,0,0,1,.49,1,1.24,1.24,0,0,1-.21.86,2.67,2.67,0,0,1-.85.76,4.05,4.05,0,0,1-.71.45,7.55,7.55,0,0,1-1.25.5A5.77,5.77,0,0,1,260,33Z"/><path class="cls-2" d="M267.71,19.52a.85.85,0,0,1-.74-.25,2.71,2.71,0,0,1-.51-1,2.11,2.11,0,0,1-.1-1.3,1.41,1.41,0,0,1,.93-.68l4.4-1.35a.9.9,0,0,1,.72.29,2.4,2.4,0,0,1,.5,1A2,2,0,0,1,273,17.5a1.34,1.34,0,0,1-.91.67Zm1,13.4a2.52,2.52,0,0,1-1.32-.26,1.12,1.12,0,0,1-.47-.71,4.46,4.46,0,0,1-.09-.91V22.32a4.63,4.63,0,0,1,.09-.92,1.06,1.06,0,0,1,.48-.69,2.47,2.47,0,0,1,1.33-.27,2.33,2.33,0,0,1,1.29.28,1.14,1.14,0,0,1,.47.71,4.69,4.69,0,0,1,.09.94v8.7a4.46,4.46,0,0,1-.09.91,1,1,0,0,1-.47.69A2.62,2.62,0,0,1,268.68,32.92Z"/><path class="cls-2" d="M274.9,32.92a2.5,2.5,0,0,1-1.31-.26,1,1,0,0,1-.47-.71A4.73,4.73,0,0,1,273,31V22.3a4.45,4.45,0,0,1,.09-.93,1.08,1.08,0,0,1,.49-.69,2.57,2.57,0,0,1,1.32-.26,2.52,2.52,0,0,1,1.27.24,1,1,0,0,1,.48.55,1.73,1.73,0,0,1,.1.54l-.3.15a2.27,2.27,0,0,1,.27-.36,3.1,3.1,0,0,1,.58-.55,3.21,3.21,0,0,1,.92-.49,3.6,3.6,0,0,1,1.23-.2,4.7,4.7,0,0,1,.62,0,3.14,3.14,0,0,1,.7.15,2.47,2.47,0,0,1,.66.3,1.66,1.66,0,0,1,.49.46,1.21,1.21,0,0,1,.18.68,3.08,3.08,0,0,1-.47,1.73,1.41,1.41,0,0,1-1.2.72,2.3,2.3,0,0,1-.6-.07,1,1,0,0,1-.29-.15.93.93,0,0,0-.26-.15,1.72,1.72,0,0,0-.55-.06,2.46,2.46,0,0,0-.72.1,2.12,2.12,0,0,0-.62.31,1.54,1.54,0,0,0-.45.53,1.46,1.46,0,0,0-.16.71v5.47a4.63,4.63,0,0,1-.09.92,1,1,0,0,1-.48.68A2.6,2.6,0,0,1,274.9,32.92Z"/><path class="cls-2" d="M290.28,33a6.64,6.64,0,0,1-2.24-.41,7,7,0,0,1-2.1-1.22,5.92,5.92,0,0,1-1.54-2,6.32,6.32,0,0,1-.57-2.75,6,6,0,0,1,2.1-4.7A7.08,7.08,0,0,1,288,20.74a6.61,6.61,0,0,1,2.21-.41,5.66,5.66,0,0,1,2.92.73,3.77,3.77,0,0,1,.73.52,7.31,7.31,0,0,1,.75.65,1.05,1.05,0,0,1,.3.85,1.43,1.43,0,0,1-.17.57,4.41,4.41,0,0,1-.38.58c-.51.7-1,1-1.5.95a2.27,2.27,0,0,1-.69-.25l-.6-.35a5,5,0,0,0-.61-.31,1.89,1.89,0,0,0-.75-.14,2.5,2.5,0,0,0-1.3.34,2.57,2.57,0,0,0,0,4.42,2.33,2.33,0,0,0,1.26.34,2.28,2.28,0,0,0,.72-.1,1.86,1.86,0,0,0,.55-.24l.35-.21.58-.36a1.05,1.05,0,0,1,.55-.16,1.28,1.28,0,0,1,.74.26,4.7,4.7,0,0,1,.81.84,2.17,2.17,0,0,1,.49,1,1.22,1.22,0,0,1-.22.87,2.57,2.57,0,0,1-.85.76,4.27,4.27,0,0,1-.71.45,7.21,7.21,0,0,1-1.25.5A5.7,5.7,0,0,1,290.28,33Z"/><path class="cls-2" d="M302.6,32.91a5.2,5.2,0,0,1-2.17-.45,5.33,5.33,0,0,1-1.75-1.26,5.69,5.69,0,0,1-1.16-1.93,6.83,6.83,0,0,1-.42-2.44V22.31a4.59,4.59,0,0,1,.09-.93,1.07,1.07,0,0,1,.48-.69,2.37,2.37,0,0,1,1.33-.28,2.27,2.27,0,0,1,1.31.28,1.12,1.12,0,0,1,.48.71,5.49,5.49,0,0,1,.08.94v4.5a2.92,2.92,0,0,0,.26,1.26,1.75,1.75,0,0,0,.78.81,2.43,2.43,0,0,0,1.21.28,2.55,2.55,0,0,0,1.24-.29,2.08,2.08,0,0,0,.8-.81,2.59,2.59,0,0,0,.29-1.25V22.29a4.59,4.59,0,0,1,.09-.93,1,1,0,0,1,.48-.68,2.49,2.49,0,0,1,1.33-.26,2.37,2.37,0,0,1,1.31.27,1.14,1.14,0,0,1,.48.72,5.31,5.31,0,0,1,.08.91v8.8a4.1,4.1,0,0,1-.09.88,1,1,0,0,1-.49.67,2.63,2.63,0,0,1-1.3.25,2.69,2.69,0,0,1-1.05-.16,1.21,1.21,0,0,1-.55-.37.94.94,0,0,1-.21-.47,2.6,2.6,0,0,1,0-.46l.33-.27a3.06,3.06,0,0,1-.33.39,7.18,7.18,0,0,1-.66.57,4.43,4.43,0,0,1-1,.54A3.4,3.4,0,0,1,302.6,32.91Z"/><path class="cls-2" d="M316.53,33a16.26,16.26,0,0,1-1.83-.1,3.7,3.7,0,0,1-1.35-.41,2.46,2.46,0,0,1-.9-.83,4,4,0,0,1-.52-1.38,10,10,0,0,1-.18-2.06V16.62a4,4,0,0,1,.1-.93,1.21,1.21,0,0,1,.49-.7,2.37,2.37,0,0,1,1.31-.27A2.24,2.24,0,0,1,315,15a1.15,1.15,0,0,1,.49.7,4.4,4.4,0,0,1,.1.92V28a4.16,4.16,0,0,0,0,.66.8.8,0,0,0,.15.41.49.49,0,0,0,.31.2,1.9,1.9,0,0,0,.52.05,2.7,2.7,0,0,1,.62.08.9.9,0,0,1,.53.45,2.53,2.53,0,0,1,.23,1.25,2.79,2.79,0,0,1-.23,1.3.89.89,0,0,1-.54.47A2.65,2.65,0,0,1,316.53,33Z"/><path class="cls-2" d="M325.75,33.15a6.29,6.29,0,0,1-2.34-.46,7.06,7.06,0,0,1-2.11-1.32,6.38,6.38,0,0,1-1.51-2,6.47,6.47,0,0,1-.05-5.15,6.88,6.88,0,0,1,1.42-2.07,6.75,6.75,0,0,1,2.06-1.41,6.16,6.16,0,0,1,2.49-.51,6.24,6.24,0,0,1,3.26.87,6.48,6.48,0,0,1,2.34,2.34,6.69,6.69,0,0,1,.31,6,6.66,6.66,0,0,1-1.5,2A6.76,6.76,0,0,1,328,32.72,6.36,6.36,0,0,1,325.75,33.15Zm-.05-3.77a2.85,2.85,0,0,0,1.23-.3,2.74,2.74,0,0,0,1.05-.9,2.68,2.68,0,0,0,.43-1.53,2.77,2.77,0,0,0-.35-1.4,2.48,2.48,0,0,0-1-.93,2.8,2.8,0,0,0-1.41-.34,2.53,2.53,0,0,0-1.34.35,2.65,2.65,0,0,0-.95,1,2.93,2.93,0,0,0,.05,2.9,2.49,2.49,0,0,0,1,.9A2.9,2.9,0,0,0,325.7,29.38Z"/><path class="cls-3" d="M127.15,33a8.57,8.57,0,0,1-2.32-.34,9.24,9.24,0,0,1-2.41-1,8.87,8.87,0,0,1-2.14-1.79,8.05,8.05,0,0,1-1.51-2.55,9.36,9.36,0,0,1-.56-3.32,8.8,8.8,0,0,1,.56-3.24,8.09,8.09,0,0,1,1.52-2.46,9,9,0,0,1,2.12-1.74,9.75,9.75,0,0,1,2.42-1,8.82,8.82,0,0,1,2.38-.34,7.38,7.38,0,0,1,2.23.3,8.68,8.68,0,0,1,1.54.63l.76.43a7.64,7.64,0,0,1,.85.65,1.17,1.17,0,0,1,.42.9,1.59,1.59,0,0,1-.11.6,2.29,2.29,0,0,1-.34.6,3.14,3.14,0,0,1-.77.83,1.14,1.14,0,0,1-1.3.12c-.19-.11-.4-.24-.65-.41l-.5-.31a4,4,0,0,0-.89-.34,5.78,5.78,0,0,0-3.15.15,5.07,5.07,0,0,0-1.64.93,4.45,4.45,0,0,0-1.2,1.58A5.3,5.3,0,0,0,122,24.1a5.12,5.12,0,0,0,.46,2.26,4.75,4.75,0,0,0,1.21,1.57,5.29,5.29,0,0,0,1.64.94,5.16,5.16,0,0,0,1.74.31,4.66,4.66,0,0,0,1.27-.15,5,5,0,0,0,.93-.36c.26-.14.49-.27.67-.39s.37-.22.57-.32a1.22,1.22,0,0,1,.58-.15,1.13,1.13,0,0,1,.71.28,4.32,4.32,0,0,1,1.08,1.51,1.92,1.92,0,0,1,.11.61,1.07,1.07,0,0,1-.41.86,9.79,9.79,0,0,1-.86.62l-.75.43a7.07,7.07,0,0,1-1.53.63A8,8,0,0,1,127.15,33Z"/><path class="cls-3" d="M141.15,33a6.2,6.2,0,0,1-2.33-.46,6.94,6.94,0,0,1-2.11-1.32,6.08,6.08,0,0,1-2.08-4.67,6,6,0,0,1,.52-2.51A6.67,6.67,0,0,1,136.56,22a6.75,6.75,0,0,1,2.06-1.41,6.16,6.16,0,0,1,2.49-.51,6.24,6.24,0,0,1,3.26.87,6.45,6.45,0,0,1,2.34,2.33,6.71,6.71,0,0,1,.31,6,6.66,6.66,0,0,1-1.5,2,6.54,6.54,0,0,1-2.08,1.28A6.17,6.17,0,0,1,141.15,33Zm0-3.77a2.81,2.81,0,0,0,1.22-.3,2.67,2.67,0,0,0,1-.9,2.54,2.54,0,0,0,.43-1.53,2.77,2.77,0,0,0-.35-1.4,2.55,2.55,0,0,0-1-.94,3,3,0,0,0-1.42-.33,2.47,2.47,0,0,0-1.33.35,2.57,2.57,0,0,0-.95,1,2.6,2.6,0,0,0-.37,1.39,2.68,2.68,0,0,0,.41,1.51,2.49,2.49,0,0,0,1,.9A3,3,0,0,0,141.11,29.27Z"/><path class="cls-3" d="M154.4,32.85a14.14,14.14,0,0,1-1.82-.1,3.9,3.9,0,0,1-1.35-.4,2.42,2.42,0,0,1-.9-.84,4,4,0,0,1-.52-1.38,9.9,9.9,0,0,1-.18-2.06V16.52a3.82,3.82,0,0,1,.1-.92,1.15,1.15,0,0,1,.49-.7,2.27,2.27,0,0,1,1.31-.28,2.33,2.33,0,0,1,1.29.28,1.12,1.12,0,0,1,.48.7,3.82,3.82,0,0,1,.1.92V27.9a5.86,5.86,0,0,0,0,.66,1,1,0,0,0,.15.41.54.54,0,0,0,.32.2,1.86,1.86,0,0,0,.52,0,2.62,2.62,0,0,1,.61.08.89.89,0,0,1,.54.45,2.56,2.56,0,0,1,.23,1.25,2.93,2.93,0,0,1-.23,1.3.83.83,0,0,1-.54.47A2.29,2.29,0,0,1,154.4,32.85Z"/><path class="cls-3" d="M163.63,33.05a6.29,6.29,0,0,1-2.34-.46,7.24,7.24,0,0,1-2.11-1.31,6.38,6.38,0,0,1-1.51-2,6,6,0,0,1-.56-2.64,6.16,6.16,0,0,1,.51-2.51,6.85,6.85,0,0,1,3.48-3.47,5.94,5.94,0,0,1,2.49-.52,6.36,6.36,0,0,1,3.26.87,6.64,6.64,0,0,1,2.34,2.34,6.67,6.67,0,0,1,.3,6,6.21,6.21,0,0,1-1.5,2,6.53,6.53,0,0,1-2.07,1.29A6.15,6.15,0,0,1,163.63,33.05Zm0-3.77a2.85,2.85,0,0,0,1.23-.3,2.81,2.81,0,0,0,1.05-.9,2.6,2.6,0,0,0,.42-1.52,2.65,2.65,0,0,0-.35-1.4,2.41,2.41,0,0,0-1-.94,2.83,2.83,0,0,0-1.41-.34,2.6,2.6,0,0,0-1.34.35,2.65,2.65,0,0,0-.95,1,2.69,2.69,0,0,0-.36,1.39,2.6,2.6,0,0,0,.41,1.51,2.43,2.43,0,0,0,1,.9A2.9,2.9,0,0,0,163.58,29.28Z"/><path class="cls-3" d="M174,32.86a2.5,2.5,0,0,1-1.31-.26,1.1,1.1,0,0,1-.47-.71,4.81,4.81,0,0,1-.09-.93V22.24a4.45,4.45,0,0,1,.09-.93,1.08,1.08,0,0,1,.49-.69,2.59,2.59,0,0,1,1.33-.26,2.5,2.5,0,0,1,1.26.24,1.06,1.06,0,0,1,.49.55,2.08,2.08,0,0,1,.1.54l-.3.15a2.39,2.39,0,0,1,.26-.37,4.06,4.06,0,0,1,.59-.55,3.39,3.39,0,0,1,.91-.48,3.62,3.62,0,0,1,1.24-.2,4.66,4.66,0,0,1,.61,0,3.14,3.14,0,0,1,.7.15,2.47,2.47,0,0,1,.66.3,1.66,1.66,0,0,1,.49.46,1.21,1.21,0,0,1,.19.68,3,3,0,0,1-.48,1.73,1.4,1.4,0,0,1-1.2.71,2.11,2.11,0,0,1-.6-.06,1,1,0,0,1-.29-.15.93.93,0,0,0-.26-.15,1.68,1.68,0,0,0-.55-.06,2.34,2.34,0,0,0-.71.1,1.85,1.85,0,0,0-.63.31,1.54,1.54,0,0,0-.45.53,1.46,1.46,0,0,0-.16.71V31a4.47,4.47,0,0,1-.08.91,1,1,0,0,1-.49.69A2.6,2.6,0,0,1,174,32.86Z"/><path class="cls-3" d="M189.35,33.1a7.44,7.44,0,0,1-3-.58A5.86,5.86,0,0,1,184.28,31a6.57,6.57,0,0,1-1.2-2.08,6.92,6.92,0,0,1-.4-2.3,6.54,6.54,0,0,1,.85-3.33A6.21,6.21,0,0,1,185.9,21a7.11,7.11,0,0,1,3.46-.83,6.35,6.35,0,0,1,2.51.46,5.23,5.23,0,0,1,1.75,1.2,5.34,5.34,0,0,1,1,1.59,4.51,4.51,0,0,1,.33,1.63,2.82,2.82,0,0,1-.66,2.05,2.27,2.27,0,0,1-1.69.67h-5.95a1.74,1.74,0,0,0,.46,1.07,2.73,2.73,0,0,0,1,.7,3.7,3.7,0,0,0,1.33.26,6.5,6.5,0,0,0,1-.07,4.49,4.49,0,0,0,.79-.17l.59-.23.49-.18a1.81,1.81,0,0,1,.42-.1,1,1,0,0,1,.68.21,2.22,2.22,0,0,1,.57.71,1.75,1.75,0,0,1,.24.53,2.14,2.14,0,0,1,.06.5,1.33,1.33,0,0,1-.61,1.08,4.73,4.73,0,0,1-1.73.74A11.51,11.51,0,0,1,189.35,33.1Zm-2.67-7.41h3.95a1.06,1.06,0,0,0,.58-.14.62.62,0,0,0,.2-.54,1.18,1.18,0,0,0-.28-.77,1.61,1.61,0,0,0-.73-.54,2.8,2.8,0,0,0-1.09-.19,3,3,0,0,0-1.35.3,2.47,2.47,0,0,0-.94.8A1.91,1.91,0,0,0,186.68,25.69Z"/><path class="cls-3" d="M207.28,32.86a2.34,2.34,0,0,1-1.38-.33.89.89,0,0,1-.42-.8l.25-.42a2.8,2.8,0,0,1-.58.61,4.11,4.11,0,0,1-1.11.65,4.34,4.34,0,0,1-1.66.28,4.88,4.88,0,0,1-2.19-.5A5.85,5.85,0,0,1,198.35,31a7.21,7.21,0,0,1-1.27-2,6.13,6.13,0,0,1,0-4.71,6.9,6.9,0,0,1,1.29-2,6.56,6.56,0,0,1,1.84-1.36,4.94,4.94,0,0,1,2.18-.5,4.09,4.09,0,0,1,1.57.27,4.32,4.32,0,0,1,1.09.61,3.2,3.2,0,0,1,.66.68l-.22-.35a1.06,1.06,0,0,1,.43-.92,2.42,2.42,0,0,1,1.39-.31,2.24,2.24,0,0,1,1.29.28,1.1,1.1,0,0,1,.47.72,4.86,4.86,0,0,1,.09.95V31a4.7,4.7,0,0,1-.08.92,1.07,1.07,0,0,1-.48.71A2.39,2.39,0,0,1,207.28,32.86Zm-4.37-3.73a2.13,2.13,0,0,0,1.2-.34,2.57,2.57,0,0,0,.85-.91,2.61,2.61,0,0,0,.32-1.28,2.56,2.56,0,0,0-.32-1.28,2.42,2.42,0,0,0-.88-.89,2.3,2.3,0,0,0-1.22-.33,2.42,2.42,0,0,0-1.26.34,2.53,2.53,0,0,0-.9.91,2.5,2.5,0,0,0-.34,1.3,2.42,2.42,0,0,0,.33,1.24,2.6,2.6,0,0,0,2.22,1.24Z"/><path class="cls-3" d="M223.55,32.87a5.37,5.37,0,0,1-2.17-.45,5.5,5.5,0,0,1-1.75-1.27,5.64,5.64,0,0,1-1.16-1.92,6.91,6.91,0,0,1-.41-2.44V22.26a4.42,4.42,0,0,1,.09-.92,1.08,1.08,0,0,1,.49-.7,2.4,2.4,0,0,1,1.32-.28,2.36,2.36,0,0,1,1.31.28,1.12,1.12,0,0,1,.48.71,4.7,4.7,0,0,1,.08.94v4.5a2.92,2.92,0,0,0,.26,1.26,1.88,1.88,0,0,0,.78.82,2.54,2.54,0,0,0,1.21.27,2.42,2.42,0,0,0,1.24-.29,2,2,0,0,0,.8-.81,2.57,2.57,0,0,0,.29-1.25V22.24a4.42,4.42,0,0,1,.09-.92,1.06,1.06,0,0,1,.49-.69,2.52,2.52,0,0,1,1.32-.26,2.37,2.37,0,0,1,1.31.27,1.17,1.17,0,0,1,.48.72,4.47,4.47,0,0,1,.08.91v8.8a4.19,4.19,0,0,1-.09.89,1,1,0,0,1-.49.66,2.5,2.5,0,0,1-1.3.25,2.92,2.92,0,0,1-1.05-.15,1.31,1.31,0,0,1-.55-.38,1.16,1.16,0,0,1-.21-.47,4.14,4.14,0,0,1,0-.45l.33-.28a2.1,2.1,0,0,1-.33.39,4,4,0,0,1-.66.57,4.21,4.21,0,0,1-1,.54A3.36,3.36,0,0,1,223.55,32.87Z"/><path class="cls-3" d="M234.55,32.87a2.5,2.5,0,0,1-1.31-.26,1,1,0,0,1-.47-.7,4.53,4.53,0,0,1-.09-.91V22.2a4.13,4.13,0,0,1,.09-.89,1,1,0,0,1,.49-.66,2.58,2.58,0,0,1,1.32-.25,2.51,2.51,0,0,1,1.18.21,1,1,0,0,1,.49.51,1.74,1.74,0,0,1,.11.57,1,1,0,0,0,0,.36l-.15.47a1.43,1.43,0,0,1,.39-.76,3.53,3.53,0,0,1,.85-.7,4.32,4.32,0,0,1,1.1-.48,4,4,0,0,1,1.16-.18,5.05,5.05,0,0,1,2.14.44,4.29,4.29,0,0,1,1.58,1.26,5.65,5.65,0,0,1,1,1.94,8.22,8.22,0,0,1,.34,2.44V31a5.31,5.31,0,0,1-.08.91,1.06,1.06,0,0,1-.48.69,2.68,2.68,0,0,1-1.34.25,2.43,2.43,0,0,1-1.32-.27,1,1,0,0,1-.49-.7A4.46,4.46,0,0,1,241,31V26.48a2.92,2.92,0,0,0-.26-1.28,1.88,1.88,0,0,0-.75-.8,2.5,2.5,0,0,0-1.22-.27,2.59,2.59,0,0,0-1.25.28,2,2,0,0,0-.81.81,2.59,2.59,0,0,0-.29,1.25V31a4.56,4.56,0,0,1-.09.92,1,1,0,0,1-.47.68A2.53,2.53,0,0,1,234.55,32.87Z"/><path class="cls-3" d="M260,33a6.69,6.69,0,0,1-2.24-.41,7.21,7.21,0,0,1-2.09-1.21,5.81,5.81,0,0,1-1.54-2,6.32,6.32,0,0,1-.57-2.75,6.15,6.15,0,0,1,.57-2.72,6.26,6.26,0,0,1,1.53-2,7,7,0,0,1,2.09-1.21,6.57,6.57,0,0,1,2.21-.41,5.66,5.66,0,0,1,1.66.22,5.41,5.41,0,0,1,1.25.51,3.87,3.87,0,0,1,.74.53,7,7,0,0,1,.75.65,1,1,0,0,1,.3.85,1.59,1.59,0,0,1-.18.56,4.36,4.36,0,0,1-.37.59c-.52.7-1,1-1.5,1a2.59,2.59,0,0,1-.69-.26c-.21-.11-.41-.23-.6-.35a5.81,5.81,0,0,0-.61-.31,2,2,0,0,0-.75-.14,2.45,2.45,0,0,0-1.3.34,2.48,2.48,0,0,0-.92.9,2.52,2.52,0,0,0-.33,1.31,2.56,2.56,0,0,0,.33,1.3,2.61,2.61,0,0,0,.9.91,2.58,2.58,0,0,0,2,.24,2.17,2.17,0,0,0,.55-.23l.35-.22.57-.36a1.09,1.09,0,0,1,.56-.16,1.25,1.25,0,0,1,.73.26,4.38,4.38,0,0,1,.81.84,2,2,0,0,1,.49,1,1.24,1.24,0,0,1-.21.86,2.67,2.67,0,0,1-.85.76,4.05,4.05,0,0,1-.71.45,7.55,7.55,0,0,1-1.25.5A5.77,5.77,0,0,1,260,33Z"/><path class="cls-3" d="M267.71,19.52a.85.85,0,0,1-.74-.25,2.71,2.71,0,0,1-.51-1,2.11,2.11,0,0,1-.1-1.3,1.41,1.41,0,0,1,.93-.68l4.4-1.35a.9.9,0,0,1,.72.29,2.4,2.4,0,0,1,.5,1A2,2,0,0,1,273,17.5a1.34,1.34,0,0,1-.91.67Zm1,13.4a2.52,2.52,0,0,1-1.32-.26,1.12,1.12,0,0,1-.47-.71,4.46,4.46,0,0,1-.09-.91V22.32a4.63,4.63,0,0,1,.09-.92,1.06,1.06,0,0,1,.48-.69,2.47,2.47,0,0,1,1.33-.27,2.33,2.33,0,0,1,1.29.28,1.14,1.14,0,0,1,.47.71,4.69,4.69,0,0,1,.09.94v8.7a4.46,4.46,0,0,1-.09.91,1,1,0,0,1-.47.69A2.62,2.62,0,0,1,268.68,32.92Z"/><path class="cls-3" d="M274.9,32.92a2.5,2.5,0,0,1-1.31-.26,1,1,0,0,1-.47-.71A4.73,4.73,0,0,1,273,31V22.3a4.45,4.45,0,0,1,.09-.93,1.08,1.08,0,0,1,.49-.69,2.57,2.57,0,0,1,1.32-.26,2.52,2.52,0,0,1,1.27.24,1,1,0,0,1,.48.55,1.73,1.73,0,0,1,.1.54l-.3.15a2.27,2.27,0,0,1,.27-.36,3.1,3.1,0,0,1,.58-.55,3.21,3.21,0,0,1,.92-.49,3.6,3.6,0,0,1,1.23-.2,4.7,4.7,0,0,1,.62,0,3.14,3.14,0,0,1,.7.15,2.47,2.47,0,0,1,.66.3,1.66,1.66,0,0,1,.49.46,1.21,1.21,0,0,1,.18.68,3.08,3.08,0,0,1-.47,1.73,1.41,1.41,0,0,1-1.2.72,2.3,2.3,0,0,1-.6-.07,1,1,0,0,1-.29-.15.93.93,0,0,0-.26-.15,1.72,1.72,0,0,0-.55-.06,2.46,2.46,0,0,0-.72.1,2.12,2.12,0,0,0-.62.31,1.54,1.54,0,0,0-.45.53,1.46,1.46,0,0,0-.16.71v5.47a4.63,4.63,0,0,1-.09.92,1,1,0,0,1-.48.68A2.6,2.6,0,0,1,274.9,32.92Z"/><path class="cls-3" d="M290.28,33a6.64,6.64,0,0,1-2.24-.41,7,7,0,0,1-2.1-1.22,5.92,5.92,0,0,1-1.54-2,6.32,6.32,0,0,1-.57-2.75,6,6,0,0,1,2.1-4.7A7.08,7.08,0,0,1,288,20.74a6.61,6.61,0,0,1,2.21-.41,5.66,5.66,0,0,1,2.92.73,3.77,3.77,0,0,1,.73.52,7.31,7.31,0,0,1,.75.65,1.05,1.05,0,0,1,.3.85,1.43,1.43,0,0,1-.17.57,4.41,4.41,0,0,1-.38.58c-.51.7-1,1-1.5.95a2.27,2.27,0,0,1-.69-.25l-.6-.35a5,5,0,0,0-.61-.31,1.89,1.89,0,0,0-.75-.14,2.5,2.5,0,0,0-1.3.34,2.57,2.57,0,0,0,0,4.42,2.33,2.33,0,0,0,1.26.34,2.28,2.28,0,0,0,.72-.1,1.86,1.86,0,0,0,.55-.24l.35-.21.58-.36a1.05,1.05,0,0,1,.55-.16,1.28,1.28,0,0,1,.74.26,4.7,4.7,0,0,1,.81.84,2.17,2.17,0,0,1,.49,1,1.22,1.22,0,0,1-.22.87,2.57,2.57,0,0,1-.85.76,4.27,4.27,0,0,1-.71.45,7.21,7.21,0,0,1-1.25.5A5.7,5.7,0,0,1,290.28,33Z"/><path class="cls-3" d="M302.6,32.91a5.2,5.2,0,0,1-2.17-.45,5.33,5.33,0,0,1-1.75-1.26,5.69,5.69,0,0,1-1.16-1.93,6.83,6.83,0,0,1-.42-2.44V22.31a4.59,4.59,0,0,1,.09-.93,1.07,1.07,0,0,1,.48-.69,2.37,2.37,0,0,1,1.33-.28,2.27,2.27,0,0,1,1.31.28,1.12,1.12,0,0,1,.48.71,5.49,5.49,0,0,1,.08.94v4.5a2.92,2.92,0,0,0,.26,1.26,1.75,1.75,0,0,0,.78.81,2.43,2.43,0,0,0,1.21.28,2.55,2.55,0,0,0,1.24-.29,2.08,2.08,0,0,0,.8-.81,2.59,2.59,0,0,0,.29-1.25V22.29a4.59,4.59,0,0,1,.09-.93,1,1,0,0,1,.48-.68,2.49,2.49,0,0,1,1.33-.26,2.37,2.37,0,0,1,1.31.27,1.14,1.14,0,0,1,.48.72,5.31,5.31,0,0,1,.08.91v8.8a4.1,4.1,0,0,1-.09.88,1,1,0,0,1-.49.67,2.63,2.63,0,0,1-1.3.25,2.69,2.69,0,0,1-1.05-.16,1.21,1.21,0,0,1-.55-.37.94.94,0,0,1-.21-.47,2.6,2.6,0,0,1,0-.46l.33-.27a3.06,3.06,0,0,1-.33.39,7.18,7.18,0,0,1-.66.57,4.43,4.43,0,0,1-1,.54A3.4,3.4,0,0,1,302.6,32.91Z"/><path class="cls-3" d="M316.53,33a16.26,16.26,0,0,1-1.83-.1,3.7,3.7,0,0,1-1.35-.41,2.46,2.46,0,0,1-.9-.83,4,4,0,0,1-.52-1.38,10,10,0,0,1-.18-2.06V16.62a4,4,0,0,1,.1-.93,1.21,1.21,0,0,1,.49-.7,2.37,2.37,0,0,1,1.31-.27A2.24,2.24,0,0,1,315,15a1.15,1.15,0,0,1,.49.7,4.4,4.4,0,0,1,.1.92V28a4.16,4.16,0,0,0,0,.66.8.8,0,0,0,.15.41.49.49,0,0,0,.31.2,1.9,1.9,0,0,0,.52.05,2.7,2.7,0,0,1,.62.08.9.9,0,0,1,.53.45,2.53,2.53,0,0,1,.23,1.25,2.79,2.79,0,0,1-.23,1.3.89.89,0,0,1-.54.47A2.65,2.65,0,0,1,316.53,33Z"/><path class="cls-3" d="M325.75,33.15a6.29,6.29,0,0,1-2.34-.46,7.06,7.06,0,0,1-2.11-1.32,6.38,6.38,0,0,1-1.51-2,6.47,6.47,0,0,1-.05-5.15,6.88,6.88,0,0,1,1.42-2.07,6.75,6.75,0,0,1,2.06-1.41,6.16,6.16,0,0,1,2.49-.51,6.24,6.24,0,0,1,3.26.87,6.48,6.48,0,0,1,2.34,2.34,6.69,6.69,0,0,1,.31,6,6.66,6.66,0,0,1-1.5,2A6.76,6.76,0,0,1,328,32.72,6.36,6.36,0,0,1,325.75,33.15Zm-.05-3.77a2.85,2.85,0,0,0,1.23-.3,2.74,2.74,0,0,0,1.05-.9,2.68,2.68,0,0,0,.43-1.53,2.77,2.77,0,0,0-.35-1.4,2.48,2.48,0,0,0-1-.93,2.8,2.8,0,0,0-1.41-.34,2.53,2.53,0,0,0-1.34.35,2.65,2.65,0,0,0-.95,1,2.93,2.93,0,0,0,.05,2.9,2.49,2.49,0,0,0,1,.9A2.9,2.9,0,0,0,325.7,29.38Z"/><path class="cls-2" d="M127.15,33a8.57,8.57,0,0,1-2.32-.34,9.24,9.24,0,0,1-2.41-1,8.87,8.87,0,0,1-2.14-1.79,8.05,8.05,0,0,1-1.51-2.55,9.36,9.36,0,0,1-.56-3.32,8.8,8.8,0,0,1,.56-3.24,8.09,8.09,0,0,1,1.52-2.46,9,9,0,0,1,2.12-1.74,9.75,9.75,0,0,1,2.42-1,8.82,8.82,0,0,1,2.38-.34,7.38,7.38,0,0,1,2.23.3,8.68,8.68,0,0,1,1.54.63l.76.43a7.64,7.64,0,0,1,.85.65,1.17,1.17,0,0,1,.42.9,1.59,1.59,0,0,1-.11.6,2.29,2.29,0,0,1-.34.6,3.14,3.14,0,0,1-.77.83,1.14,1.14,0,0,1-1.3.12c-.19-.11-.4-.24-.65-.41l-.5-.31a4,4,0,0,0-.89-.34,5.78,5.78,0,0,0-3.15.15,5.07,5.07,0,0,0-1.64.93,4.45,4.45,0,0,0-1.2,1.58A5.3,5.3,0,0,0,122,24.1a5.12,5.12,0,0,0,.46,2.26,4.75,4.75,0,0,0,1.21,1.57,5.29,5.29,0,0,0,1.64.94,5.16,5.16,0,0,0,1.74.31,4.66,4.66,0,0,0,1.27-.15,5,5,0,0,0,.93-.36c.26-.14.49-.27.67-.39s.37-.22.57-.32a1.22,1.22,0,0,1,.58-.15,1.13,1.13,0,0,1,.71.28,4.32,4.32,0,0,1,1.08,1.51,1.92,1.92,0,0,1,.11.61,1.07,1.07,0,0,1-.41.86,9.79,9.79,0,0,1-.86.62l-.75.43a7.07,7.07,0,0,1-1.53.63A8,8,0,0,1,127.15,33Z"/><path class="cls-2" d="M141.15,33a6.2,6.2,0,0,1-2.33-.46,6.94,6.94,0,0,1-2.11-1.32,6.08,6.08,0,0,1-2.08-4.67,6,6,0,0,1,.52-2.51A6.67,6.67,0,0,1,136.56,22a6.75,6.75,0,0,1,2.06-1.41,6.16,6.16,0,0,1,2.49-.51,6.24,6.24,0,0,1,3.26.87,6.45,6.45,0,0,1,2.34,2.33,6.71,6.71,0,0,1,.31,6,6.66,6.66,0,0,1-1.5,2,6.54,6.54,0,0,1-2.08,1.28A6.17,6.17,0,0,1,141.15,33Zm0-3.77a2.81,2.81,0,0,0,1.22-.3,2.67,2.67,0,0,0,1-.9,2.54,2.54,0,0,0,.43-1.53,2.77,2.77,0,0,0-.35-1.4,2.55,2.55,0,0,0-1-.94,3,3,0,0,0-1.42-.33,2.47,2.47,0,0,0-1.33.35,2.57,2.57,0,0,0-.95,1,2.6,2.6,0,0,0-.37,1.39,2.68,2.68,0,0,0,.41,1.51,2.49,2.49,0,0,0,1,.9A3,3,0,0,0,141.11,29.27Z"/><path class="cls-2" d="M154.4,32.85a14.14,14.14,0,0,1-1.82-.1,3.9,3.9,0,0,1-1.35-.4,2.42,2.42,0,0,1-.9-.84,4,4,0,0,1-.52-1.38,9.9,9.9,0,0,1-.18-2.06V16.52a3.82,3.82,0,0,1,.1-.92,1.15,1.15,0,0,1,.49-.7,2.27,2.27,0,0,1,1.31-.28,2.33,2.33,0,0,1,1.29.28,1.12,1.12,0,0,1,.48.7,3.82,3.82,0,0,1,.1.92V27.9a5.86,5.86,0,0,0,0,.66,1,1,0,0,0,.15.41.54.54,0,0,0,.32.2,1.86,1.86,0,0,0,.52,0,2.62,2.62,0,0,1,.61.08.89.89,0,0,1,.54.45,2.56,2.56,0,0,1,.23,1.25,2.93,2.93,0,0,1-.23,1.3.83.83,0,0,1-.54.47A2.29,2.29,0,0,1,154.4,32.85Z"/><path class="cls-2" d="M163.63,33.05a6.29,6.29,0,0,1-2.34-.46,7.24,7.24,0,0,1-2.11-1.31,6.38,6.38,0,0,1-1.51-2,6,6,0,0,1-.56-2.64,6.16,6.16,0,0,1,.51-2.51,6.85,6.85,0,0,1,3.48-3.47,5.94,5.94,0,0,1,2.49-.52,6.36,6.36,0,0,1,3.26.87,6.64,6.64,0,0,1,2.34,2.34,6.67,6.67,0,0,1,.3,6,6.21,6.21,0,0,1-1.5,2,6.53,6.53,0,0,1-2.07,1.29A6.15,6.15,0,0,1,163.63,33.05Zm0-3.77a2.85,2.85,0,0,0,1.23-.3,2.81,2.81,0,0,0,1.05-.9,2.6,2.6,0,0,0,.42-1.52,2.65,2.65,0,0,0-.35-1.4,2.41,2.41,0,0,0-1-.94,2.83,2.83,0,0,0-1.41-.34,2.6,2.6,0,0,0-1.34.35,2.65,2.65,0,0,0-.95,1,2.69,2.69,0,0,0-.36,1.39,2.6,2.6,0,0,0,.41,1.51,2.43,2.43,0,0,0,1,.9A2.9,2.9,0,0,0,163.58,29.28Z"/><path class="cls-2" d="M174,32.86a2.5,2.5,0,0,1-1.31-.26,1.1,1.1,0,0,1-.47-.71,4.81,4.81,0,0,1-.09-.93V22.24a4.45,4.45,0,0,1,.09-.93,1.08,1.08,0,0,1,.49-.69,2.59,2.59,0,0,1,1.33-.26,2.5,2.5,0,0,1,1.26.24,1.06,1.06,0,0,1,.49.55,2.08,2.08,0,0,1,.1.54l-.3.15a2.39,2.39,0,0,1,.26-.37,4.06,4.06,0,0,1,.59-.55,3.39,3.39,0,0,1,.91-.48,3.62,3.62,0,0,1,1.24-.2,4.66,4.66,0,0,1,.61,0,3.14,3.14,0,0,1,.7.15,2.47,2.47,0,0,1,.66.3,1.66,1.66,0,0,1,.49.46,1.21,1.21,0,0,1,.19.68,3,3,0,0,1-.48,1.73,1.4,1.4,0,0,1-1.2.71,2.11,2.11,0,0,1-.6-.06,1,1,0,0,1-.29-.15.93.93,0,0,0-.26-.15,1.68,1.68,0,0,0-.55-.06,2.34,2.34,0,0,0-.71.1,1.85,1.85,0,0,0-.63.31,1.54,1.54,0,0,0-.45.53,1.46,1.46,0,0,0-.16.71V31a4.47,4.47,0,0,1-.08.91,1,1,0,0,1-.49.69A2.6,2.6,0,0,1,174,32.86Z"/><path class="cls-2" d="M189.35,33.1a7.44,7.44,0,0,1-3-.58A5.86,5.86,0,0,1,184.28,31a6.57,6.57,0,0,1-1.2-2.08,6.92,6.92,0,0,1-.4-2.3,6.54,6.54,0,0,1,.85-3.33A6.21,6.21,0,0,1,185.9,21a7.11,7.11,0,0,1,3.46-.83,6.35,6.35,0,0,1,2.51.46,5.23,5.23,0,0,1,1.75,1.2,5.34,5.34,0,0,1,1,1.59,4.51,4.51,0,0,1,.33,1.63,2.82,2.82,0,0,1-.66,2.05,2.27,2.27,0,0,1-1.69.67h-5.95a1.74,1.74,0,0,0,.46,1.07,2.73,2.73,0,0,0,1,.7,3.7,3.7,0,0,0,1.33.26,6.5,6.5,0,0,0,1-.07,4.49,4.49,0,0,0,.79-.17l.59-.23.49-.18a1.81,1.81,0,0,1,.42-.1,1,1,0,0,1,.68.21,2.22,2.22,0,0,1,.57.71,1.75,1.75,0,0,1,.24.53,2.14,2.14,0,0,1,.06.5,1.33,1.33,0,0,1-.61,1.08,4.73,4.73,0,0,1-1.73.74A11.51,11.51,0,0,1,189.35,33.1Zm-2.67-7.41h3.95a1.06,1.06,0,0,0,.58-.14.62.62,0,0,0,.2-.54,1.18,1.18,0,0,0-.28-.77,1.61,1.61,0,0,0-.73-.54,2.8,2.8,0,0,0-1.09-.19,3,3,0,0,0-1.35.3,2.47,2.47,0,0,0-.94.8A1.91,1.91,0,0,0,186.68,25.69Z"/><path class="cls-2" d="M207.28,32.86a2.34,2.34,0,0,1-1.38-.33.89.89,0,0,1-.42-.8l.25-.42a2.8,2.8,0,0,1-.58.61,4.11,4.11,0,0,1-1.11.65,4.34,4.34,0,0,1-1.66.28,4.88,4.88,0,0,1-2.19-.5A5.85,5.85,0,0,1,198.35,31a7.21,7.21,0,0,1-1.27-2,6.13,6.13,0,0,1,0-4.71,6.9,6.9,0,0,1,1.29-2,6.56,6.56,0,0,1,1.84-1.36,4.94,4.94,0,0,1,2.18-.5,4.09,4.09,0,0,1,1.57.27,4.32,4.32,0,0,1,1.09.61,3.2,3.2,0,0,1,.66.68l-.22-.35a1.06,1.06,0,0,1,.43-.92,2.42,2.42,0,0,1,1.39-.31,2.24,2.24,0,0,1,1.29.28,1.1,1.1,0,0,1,.47.72,4.86,4.86,0,0,1,.09.95V31a4.7,4.7,0,0,1-.08.92,1.07,1.07,0,0,1-.48.71A2.39,2.39,0,0,1,207.28,32.86Zm-4.37-3.73a2.13,2.13,0,0,0,1.2-.34,2.57,2.57,0,0,0,.85-.91,2.61,2.61,0,0,0,.32-1.28,2.56,2.56,0,0,0-.32-1.28,2.42,2.42,0,0,0-.88-.89,2.3,2.3,0,0,0-1.22-.33,2.42,2.42,0,0,0-1.26.34,2.53,2.53,0,0,0-.9.91,2.5,2.5,0,0,0-.34,1.3,2.42,2.42,0,0,0,.33,1.24,2.6,2.6,0,0,0,2.22,1.24Z"/><path class="cls-2" d="M223.55,32.87a5.37,5.37,0,0,1-2.17-.45,5.5,5.5,0,0,1-1.75-1.27,5.64,5.64,0,0,1-1.16-1.92,6.91,6.91,0,0,1-.41-2.44V22.26a4.42,4.42,0,0,1,.09-.92,1.08,1.08,0,0,1,.49-.7,2.4,2.4,0,0,1,1.32-.28,2.36,2.36,0,0,1,1.31.28,1.12,1.12,0,0,1,.48.71,4.7,4.7,0,0,1,.08.94v4.5a2.92,2.92,0,0,0,.26,1.26,1.88,1.88,0,0,0,.78.82,2.54,2.54,0,0,0,1.21.27,2.42,2.42,0,0,0,1.24-.29,2,2,0,0,0,.8-.81,2.57,2.57,0,0,0,.29-1.25V22.24a4.42,4.42,0,0,1,.09-.92,1.06,1.06,0,0,1,.49-.69,2.52,2.52,0,0,1,1.32-.26,2.37,2.37,0,0,1,1.31.27,1.17,1.17,0,0,1,.48.72,4.47,4.47,0,0,1,.08.91v8.8a4.19,4.19,0,0,1-.09.89,1,1,0,0,1-.49.66,2.5,2.5,0,0,1-1.3.25,2.92,2.92,0,0,1-1.05-.15,1.31,1.31,0,0,1-.55-.38,1.16,1.16,0,0,1-.21-.47,4.14,4.14,0,0,1,0-.45l.33-.28a2.1,2.1,0,0,1-.33.39,4,4,0,0,1-.66.57,4.21,4.21,0,0,1-1,.54A3.36,3.36,0,0,1,223.55,32.87Z"/><path class="cls-2" d="M234.55,32.87a2.5,2.5,0,0,1-1.31-.26,1,1,0,0,1-.47-.7,4.53,4.53,0,0,1-.09-.91V22.2a4.13,4.13,0,0,1,.09-.89,1,1,0,0,1,.49-.66,2.58,2.58,0,0,1,1.32-.25,2.51,2.51,0,0,1,1.18.21,1,1,0,0,1,.49.51,1.74,1.74,0,0,1,.11.57,1,1,0,0,0,0,.36l-.15.47a1.43,1.43,0,0,1,.39-.76,3.53,3.53,0,0,1,.85-.7,4.32,4.32,0,0,1,1.1-.48,4,4,0,0,1,1.16-.18,5.05,5.05,0,0,1,2.14.44,4.29,4.29,0,0,1,1.58,1.26,5.65,5.65,0,0,1,1,1.94,8.22,8.22,0,0,1,.34,2.44V31a5.31,5.31,0,0,1-.08.91,1.06,1.06,0,0,1-.48.69,2.68,2.68,0,0,1-1.34.25,2.43,2.43,0,0,1-1.32-.27,1,1,0,0,1-.49-.7A4.46,4.46,0,0,1,241,31V26.48a2.92,2.92,0,0,0-.26-1.28,1.88,1.88,0,0,0-.75-.8,2.5,2.5,0,0,0-1.22-.27,2.59,2.59,0,0,0-1.25.28,2,2,0,0,0-.81.81,2.59,2.59,0,0,0-.29,1.25V31a4.56,4.56,0,0,1-.09.92,1,1,0,0,1-.47.68A2.53,2.53,0,0,1,234.55,32.87Z"/><path class="cls-2" d="M260,33a6.69,6.69,0,0,1-2.24-.41,7.21,7.21,0,0,1-2.09-1.21,5.81,5.81,0,0,1-1.54-2,6.32,6.32,0,0,1-.57-2.75,6.15,6.15,0,0,1,.57-2.72,6.26,6.26,0,0,1,1.53-2,7,7,0,0,1,2.09-1.21,6.57,6.57,0,0,1,2.21-.41,5.66,5.66,0,0,1,1.66.22,5.41,5.41,0,0,1,1.25.51,3.87,3.87,0,0,1,.74.53,7,7,0,0,1,.75.65,1,1,0,0,1,.3.85,1.59,1.59,0,0,1-.18.56,4.36,4.36,0,0,1-.37.59c-.52.7-1,1-1.5,1a2.59,2.59,0,0,1-.69-.26c-.21-.11-.41-.23-.6-.35a5.81,5.81,0,0,0-.61-.31,2,2,0,0,0-.75-.14,2.45,2.45,0,0,0-1.3.34,2.48,2.48,0,0,0-.92.9,2.52,2.52,0,0,0-.33,1.31,2.56,2.56,0,0,0,.33,1.3,2.61,2.61,0,0,0,.9.91,2.58,2.58,0,0,0,2,.24,2.17,2.17,0,0,0,.55-.23l.35-.22.57-.36a1.09,1.09,0,0,1,.56-.16,1.25,1.25,0,0,1,.73.26,4.38,4.38,0,0,1,.81.84,2,2,0,0,1,.49,1,1.24,1.24,0,0,1-.21.86,2.67,2.67,0,0,1-.85.76,4.05,4.05,0,0,1-.71.45,7.55,7.55,0,0,1-1.25.5A5.77,5.77,0,0,1,260,33Z"/><path class="cls-2" d="M267.71,19.52a.85.85,0,0,1-.74-.25,2.71,2.71,0,0,1-.51-1,2.11,2.11,0,0,1-.1-1.3,1.41,1.41,0,0,1,.93-.68l4.4-1.35a.9.9,0,0,1,.72.29,2.4,2.4,0,0,1,.5,1A2,2,0,0,1,273,17.5a1.34,1.34,0,0,1-.91.67Zm1,13.4a2.52,2.52,0,0,1-1.32-.26,1.12,1.12,0,0,1-.47-.71,4.46,4.46,0,0,1-.09-.91V22.32a4.63,4.63,0,0,1,.09-.92,1.06,1.06,0,0,1,.48-.69,2.47,2.47,0,0,1,1.33-.27,2.33,2.33,0,0,1,1.29.28,1.14,1.14,0,0,1,.47.71,4.69,4.69,0,0,1,.09.94v8.7a4.46,4.46,0,0,1-.09.91,1,1,0,0,1-.47.69A2.62,2.62,0,0,1,268.68,32.92Z"/><path class="cls-2" d="M274.9,32.92a2.5,2.5,0,0,1-1.31-.26,1,1,0,0,1-.47-.71A4.73,4.73,0,0,1,273,31V22.3a4.45,4.45,0,0,1,.09-.93,1.08,1.08,0,0,1,.49-.69,2.57,2.57,0,0,1,1.32-.26,2.52,2.52,0,0,1,1.27.24,1,1,0,0,1,.48.55,1.73,1.73,0,0,1,.1.54l-.3.15a2.27,2.27,0,0,1,.27-.36,3.1,3.1,0,0,1,.58-.55,3.21,3.21,0,0,1,.92-.49,3.6,3.6,0,0,1,1.23-.2,4.7,4.7,0,0,1,.62,0,3.14,3.14,0,0,1,.7.15,2.47,2.47,0,0,1,.66.3,1.66,1.66,0,0,1,.49.46,1.21,1.21,0,0,1,.18.68,3.08,3.08,0,0,1-.47,1.73,1.41,1.41,0,0,1-1.2.72,2.3,2.3,0,0,1-.6-.07,1,1,0,0,1-.29-.15.93.93,0,0,0-.26-.15,1.72,1.72,0,0,0-.55-.06,2.46,2.46,0,0,0-.72.1,2.12,2.12,0,0,0-.62.31,1.54,1.54,0,0,0-.45.53,1.46,1.46,0,0,0-.16.71v5.47a4.63,4.63,0,0,1-.09.92,1,1,0,0,1-.48.68A2.6,2.6,0,0,1,274.9,32.92Z"/><path class="cls-2" d="M290.28,33a6.64,6.64,0,0,1-2.24-.41,7,7,0,0,1-2.1-1.22,5.92,5.92,0,0,1-1.54-2,6.32,6.32,0,0,1-.57-2.75,6,6,0,0,1,2.1-4.7A7.08,7.08,0,0,1,288,20.74a6.61,6.61,0,0,1,2.21-.41,5.66,5.66,0,0,1,2.92.73,3.77,3.77,0,0,1,.73.52,7.31,7.31,0,0,1,.75.65,1.05,1.05,0,0,1,.3.85,1.43,1.43,0,0,1-.17.57,4.41,4.41,0,0,1-.38.58c-.51.7-1,1-1.5.95a2.27,2.27,0,0,1-.69-.25l-.6-.35a5,5,0,0,0-.61-.31,1.89,1.89,0,0,0-.75-.14,2.5,2.5,0,0,0-1.3.34,2.57,2.57,0,0,0,0,4.42,2.33,2.33,0,0,0,1.26.34,2.28,2.28,0,0,0,.72-.1,1.86,1.86,0,0,0,.55-.24l.35-.21.58-.36a1.05,1.05,0,0,1,.55-.16,1.28,1.28,0,0,1,.74.26,4.7,4.7,0,0,1,.81.84,2.17,2.17,0,0,1,.49,1,1.22,1.22,0,0,1-.22.87,2.57,2.57,0,0,1-.85.76,4.27,4.27,0,0,1-.71.45,7.21,7.21,0,0,1-1.25.5A5.7,5.7,0,0,1,290.28,33Z"/><path class="cls-2" d="M302.6,32.91a5.2,5.2,0,0,1-2.17-.45,5.33,5.33,0,0,1-1.75-1.26,5.69,5.69,0,0,1-1.16-1.93,6.83,6.83,0,0,1-.42-2.44V22.31a4.59,4.59,0,0,1,.09-.93,1.07,1.07,0,0,1,.48-.69,2.37,2.37,0,0,1,1.33-.28,2.27,2.27,0,0,1,1.31.28,1.12,1.12,0,0,1,.48.71,5.49,5.49,0,0,1,.08.94v4.5a2.92,2.92,0,0,0,.26,1.26,1.75,1.75,0,0,0,.78.81,2.43,2.43,0,0,0,1.21.28,2.55,2.55,0,0,0,1.24-.29,2.08,2.08,0,0,0,.8-.81,2.59,2.59,0,0,0,.29-1.25V22.29a4.59,4.59,0,0,1,.09-.93,1,1,0,0,1,.48-.68,2.49,2.49,0,0,1,1.33-.26,2.37,2.37,0,0,1,1.31.27,1.14,1.14,0,0,1,.48.72,5.31,5.31,0,0,1,.08.91v8.8a4.1,4.1,0,0,1-.09.88,1,1,0,0,1-.49.67,2.63,2.63,0,0,1-1.3.25,2.69,2.69,0,0,1-1.05-.16,1.21,1.21,0,0,1-.55-.37.94.94,0,0,1-.21-.47,2.6,2.6,0,0,1,0-.46l.33-.27a3.06,3.06,0,0,1-.33.39,7.18,7.18,0,0,1-.66.57,4.43,4.43,0,0,1-1,.54A3.4,3.4,0,0,1,302.6,32.91Z"/><path class="cls-2" d="M316.53,33a16.26,16.26,0,0,1-1.83-.1,3.7,3.7,0,0,1-1.35-.41,2.46,2.46,0,0,1-.9-.83,4,4,0,0,1-.52-1.38,10,10,0,0,1-.18-2.06V16.62a4,4,0,0,1,.1-.93,1.21,1.21,0,0,1,.49-.7,2.37,2.37,0,0,1,1.31-.27A2.24,2.24,0,0,1,315,15a1.15,1.15,0,0,1,.49.7,4.4,4.4,0,0,1,.1.92V28a4.16,4.16,0,0,0,0,.66.8.8,0,0,0,.15.41.49.49,0,0,0,.31.2,1.9,1.9,0,0,0,.52.05,2.7,2.7,0,0,1,.62.08.9.9,0,0,1,.53.45,2.53,2.53,0,0,1,.23,1.25,2.79,2.79,0,0,1-.23,1.3.89.89,0,0,1-.54.47A2.65,2.65,0,0,1,316.53,33Z"/><path class="cls-2" d="M325.75,33.15a6.29,6.29,0,0,1-2.34-.46,7.06,7.06,0,0,1-2.11-1.32,6.38,6.38,0,0,1-1.51-2,6.47,6.47,0,0,1-.05-5.15,6.88,6.88,0,0,1,1.42-2.07,6.75,6.75,0,0,1,2.06-1.41,6.16,6.16,0,0,1,2.49-.51,6.24,6.24,0,0,1,3.26.87,6.48,6.48,0,0,1,2.34,2.34,6.69,6.69,0,0,1,.31,6,6.66,6.66,0,0,1-1.5,2A6.76,6.76,0,0,1,328,32.72,6.36,6.36,0,0,1,325.75,33.15Zm-.05-3.77a2.85,2.85,0,0,0,1.23-.3,2.74,2.74,0,0,0,1.05-.9,2.68,2.68,0,0,0,.43-1.53,2.77,2.77,0,0,0-.35-1.4,2.48,2.48,0,0,0-1-.93,2.8,2.8,0,0,0-1.41-.34,2.53,2.53,0,0,0-1.34.35,2.65,2.65,0,0,0-.95,1,2.93,2.93,0,0,0,.05,2.9,2.49,2.49,0,0,0,1,.9A2.9,2.9,0,0,0,325.7,29.38Z"/><text class="cls-4" transform="matrix(0.97, 0, 0, 1, 42.78, 37.89)">4<tspan class="cls-5" x="28.56" y="0">.</tspan><tspan x="35.95" y="0">1</tspan></text><text class="cls-6" transform="matrix(0.97, 0, 0, 1, 42.78, 37.89)">4<tspan class="cls-5" x="28.56" y="0">.</tspan><tspan x="35.95" y="0">1</tspan></text></g></g></svg>