<svg xmlns="http://www.w3.org/2000/svg" viewBox="0 0 401.16 89.77"><defs><style>.cls-1{fill:#0468ad;}.cls-2{fill:#fff;}.cls-3,.cls-4{fill:none;stroke-width:5px;}.cls-3{stroke:#c8a927;stroke-linejoin:round;}.cls-4,.cls-5{font-size:42px;font-family:Coiny-Regular, Coiny;}.cls-4{stroke:#fff;}.cls-5{fill:#c8a927;}</style></defs><title>42t</title><g id="Layer_2" data-name="Layer 2"><g id="pestaña_identificativa" data-name="pestaña identificativa"><rect class="cls-1" y="1.44" width="401.16" height="88.33" rx="32.4"/><path class="cls-2" d="M127.88,31a8.58,8.58,0,0,1-2.33-.34,9.24,9.24,0,0,1-2.41-1.05A9.06,9.06,0,0,1,121,27.85a8.24,8.24,0,0,1-1.51-2.55,9.36,9.36,0,0,1-.56-3.32,8.59,8.59,0,0,1,.57-3.24A8.06,8.06,0,0,1,121,16.28a8.84,8.84,0,0,1,2.13-1.74,9.54,9.54,0,0,1,2.41-1,8.84,8.84,0,0,1,2.39-.34,7.36,7.36,0,0,1,2.22.3,9.15,9.15,0,0,1,1.54.63l.76.43a7.64,7.64,0,0,1,.85.65,1.17,1.17,0,0,1,.42.9,1.59,1.59,0,0,1-.11.6,2.29,2.29,0,0,1-.34.6,3.14,3.14,0,0,1-.77.83,1.25,1.25,0,0,1-.73.27,1.16,1.16,0,0,1-.57-.15c-.19-.11-.4-.24-.65-.41l-.5-.31a4,4,0,0,0-.89-.34,5.78,5.78,0,0,0-3.15.15,5.07,5.07,0,0,0-1.64.93,4.45,4.45,0,0,0-1.2,1.58,5.31,5.31,0,0,0-.45,2.27,5.11,5.11,0,0,0,.46,2.25,4.75,4.75,0,0,0,1.21,1.57,5.29,5.29,0,0,0,1.64.94,5.16,5.16,0,0,0,1.74.31,4.66,4.66,0,0,0,1.27-.15,5,5,0,0,0,.93-.36l.67-.38a6.48,6.48,0,0,1,.57-.33,1.22,1.22,0,0,1,.58-.15,1.17,1.17,0,0,1,.72.28,3.2,3.2,0,0,1,.73.87,3.07,3.07,0,0,1,.34.64,1.68,1.68,0,0,1,.11.61,1.07,1.07,0,0,1-.41.86,8.5,8.5,0,0,1-.86.62l-.75.43a7.07,7.07,0,0,1-1.53.63A8,8,0,0,1,127.88,31Z"/><path class="cls-2" d="M141.88,31a6.21,6.21,0,0,1-2.34-.46,6.94,6.94,0,0,1-2.11-1.32,6.17,6.17,0,0,1-2.08-4.67,6.16,6.16,0,0,1,.52-2.51A6.67,6.67,0,0,1,137.28,20a6.75,6.75,0,0,1,2.06-1.41,6.16,6.16,0,0,1,2.49-.51,6.24,6.24,0,0,1,3.26.87,6.45,6.45,0,0,1,2.34,2.33,6.36,6.36,0,0,1,.87,3.28,6.17,6.17,0,0,1-.56,2.71,6.66,6.66,0,0,1-1.5,2,6.76,6.76,0,0,1-2.08,1.29A6.35,6.35,0,0,1,141.88,31Zm0-3.77a2.78,2.78,0,0,0,1.22-.3,2.67,2.67,0,0,0,1-.9,2.54,2.54,0,0,0,.43-1.53,2.77,2.77,0,0,0-.35-1.4,2.39,2.39,0,0,0-1-.93,2.83,2.83,0,0,0-1.41-.34,2.51,2.51,0,0,0-1.34.35,2.65,2.65,0,0,0-.95,1,2.7,2.7,0,0,0-.37,1.39,2.61,2.61,0,0,0,.42,1.51,2.47,2.47,0,0,0,1,.9A3,3,0,0,0,141.83,27.27Z"/><path class="cls-2" d="M155.13,30.85a14.2,14.2,0,0,1-1.83-.1,3.9,3.9,0,0,1-1.35-.4,2.42,2.42,0,0,1-.9-.84,4,4,0,0,1-.52-1.38,9.9,9.9,0,0,1-.18-2.06V14.52a3.82,3.82,0,0,1,.1-.92,1.15,1.15,0,0,1,.49-.7,2.27,2.27,0,0,1,1.31-.28,2.33,2.33,0,0,1,1.29.28,1.18,1.18,0,0,1,.49.7,4.4,4.4,0,0,1,.1.92V25.9a4,4,0,0,0,0,.66.77.77,0,0,0,.15.41.49.49,0,0,0,.31.2,1.9,1.9,0,0,0,.52,0,2.55,2.55,0,0,1,.61.08.89.89,0,0,1,.54.45,2.56,2.56,0,0,1,.23,1.25,2.79,2.79,0,0,1-.23,1.3.88.88,0,0,1-.54.48A2.7,2.7,0,0,1,155.13,30.85Z"/><path class="cls-2" d="M164.35,31.05a6.29,6.29,0,0,1-2.34-.46,7.24,7.24,0,0,1-2.11-1.31,6.38,6.38,0,0,1-1.51-2,6.47,6.47,0,0,1,0-5.15A6.83,6.83,0,0,1,159.76,20a6.75,6.75,0,0,1,2.06-1.41,6,6,0,0,1,2.49-.51,6.23,6.23,0,0,1,3.26.86,6.56,6.56,0,0,1,2.34,2.34,6.3,6.3,0,0,1,.87,3.27,6.46,6.46,0,0,1-4.14,6A6.15,6.15,0,0,1,164.35,31.05Zm0-3.77a2.85,2.85,0,0,0,1.23-.3,2.81,2.81,0,0,0,1.05-.9,2.6,2.6,0,0,0,.42-1.52,2.74,2.74,0,0,0-.34-1.4,2.5,2.5,0,0,0-1-.94,2.8,2.8,0,0,0-1.41-.34A2.59,2.59,0,0,0,162,23.19a2.93,2.93,0,0,0,0,2.9,2.49,2.49,0,0,0,1,.9A2.9,2.9,0,0,0,164.3,27.28Z"/><path class="cls-2" d="M174.68,30.86a2.52,2.52,0,0,1-1.32-.26,1.08,1.08,0,0,1-.47-.71,4.73,4.73,0,0,1-.09-.93V20.24a5.28,5.28,0,0,1,.08-.93,1.12,1.12,0,0,1,.49-.69,2.59,2.59,0,0,1,1.33-.26,2.5,2.5,0,0,1,1.26.24,1.06,1.06,0,0,1,.49.55,2.08,2.08,0,0,1,.1.54l-.3.15a2.39,2.39,0,0,1,.26-.37,3.57,3.57,0,0,1,.59-.54,3.14,3.14,0,0,1,.91-.49,3.62,3.62,0,0,1,1.24-.2,4.66,4.66,0,0,1,.61,0,3.14,3.14,0,0,1,.7.15,2.47,2.47,0,0,1,.66.3,1.66,1.66,0,0,1,.49.46,1.21,1.21,0,0,1,.19.68,3,3,0,0,1-.48,1.73,1.4,1.4,0,0,1-1.2.71,2.11,2.11,0,0,1-.6-.06,1,1,0,0,1-.29-.15.93.93,0,0,0-.26-.15,1.68,1.68,0,0,0-.55-.06,2.34,2.34,0,0,0-.71.1,2,2,0,0,0-.63.31,1.54,1.54,0,0,0-.45.53,1.46,1.46,0,0,0-.16.71V29a4.46,4.46,0,0,1-.09.91,1,1,0,0,1-.49.69A2.58,2.58,0,0,1,174.68,30.86Z"/><path class="cls-2" d="M190.08,31.1a7.46,7.46,0,0,1-3-.58A5.86,5.86,0,0,1,185,29a6.57,6.57,0,0,1-1.2-2.08,7.19,7.19,0,0,1-.4-2.3,6.45,6.45,0,0,1,.86-3.33A6,6,0,0,1,186.62,19a7,7,0,0,1,3.46-.84,6.35,6.35,0,0,1,2.51.46,5,5,0,0,1,1.75,1.21,5.18,5.18,0,0,1,1,1.58,4.31,4.31,0,0,1,.33,1.63A2.82,2.82,0,0,1,195,25.1a2.25,2.25,0,0,1-1.69.67H187.4a1.75,1.75,0,0,0,.47,1.07,2.69,2.69,0,0,0,1,.7,3.7,3.7,0,0,0,1.33.26,6.41,6.41,0,0,0,1-.07,4.3,4.3,0,0,0,.79-.17l.59-.23.49-.18a1.81,1.81,0,0,1,.42-.1,1,1,0,0,1,.68.21,2.09,2.09,0,0,1,.57.71,1.75,1.75,0,0,1,.24.53,2.14,2.14,0,0,1,.06.5,1.34,1.34,0,0,1-.61,1.09,4.91,4.91,0,0,1-1.73.73A11.42,11.42,0,0,1,190.08,31.1Zm-2.68-7.41h3.95a1,1,0,0,0,.58-.14.62.62,0,0,0,.2-.54,1.18,1.18,0,0,0-.28-.77,1.61,1.61,0,0,0-.73-.54,2.8,2.8,0,0,0-1.09-.19,3,3,0,0,0-1.35.3,2.47,2.47,0,0,0-.94.8A1.91,1.91,0,0,0,187.4,23.69Z"/><path class="cls-2" d="M208,30.86a2.3,2.3,0,0,1-1.37-.33.89.89,0,0,1-.43-.8l.25-.42a3,3,0,0,1-.57.61,4.17,4.17,0,0,1-2.78.93,4.88,4.88,0,0,1-2.19-.5A5.7,5.7,0,0,1,199.08,29a7,7,0,0,1-1.28-2,6.15,6.15,0,0,1-.47-2.37,6,6,0,0,1,.47-2.34,6.9,6.9,0,0,1,1.29-2,6.7,6.7,0,0,1,1.84-1.36,5,5,0,0,1,2.18-.5,4.09,4.09,0,0,1,1.57.27,4.15,4.15,0,0,1,1.09.61,3.2,3.2,0,0,1,.66.68l-.22-.35a1.06,1.06,0,0,1,.43-.92,2.44,2.44,0,0,1,1.39-.31,2.24,2.24,0,0,1,1.29.28,1.07,1.07,0,0,1,.47.72,4.86,4.86,0,0,1,.09.95V29a4.7,4.7,0,0,1-.09.92,1.07,1.07,0,0,1-.48.71A2.37,2.37,0,0,1,208,30.86Zm-4.37-3.73a2.13,2.13,0,0,0,1.2-.34,2.57,2.57,0,0,0,.85-.91,2.6,2.6,0,0,0,.32-1.27,2.47,2.47,0,0,0-.32-1.29,2.42,2.42,0,0,0-.88-.89,2.3,2.3,0,0,0-1.22-.33,2.42,2.42,0,0,0-1.26.34,2.53,2.53,0,0,0-.9.91,2.5,2.5,0,0,0-.34,1.3,2.34,2.34,0,0,0,.34,1.24,2.56,2.56,0,0,0,2.21,1.24Z"/><path class="cls-2" d="M224.27,30.87a5.4,5.4,0,0,1-2.17-.45,5.5,5.5,0,0,1-1.75-1.27,5.64,5.64,0,0,1-1.16-1.92,6.91,6.91,0,0,1-.41-2.44V20.26a4.42,4.42,0,0,1,.09-.92,1.08,1.08,0,0,1,.49-.7,2.4,2.4,0,0,1,1.32-.28,2.33,2.33,0,0,1,1.31.28,1.12,1.12,0,0,1,.48.71,4.69,4.69,0,0,1,.09.94v4.5a2.92,2.92,0,0,0,.26,1.26,1.88,1.88,0,0,0,.78.82,2.54,2.54,0,0,0,1.21.27,2.42,2.42,0,0,0,1.24-.29,2,2,0,0,0,.8-.81,2.57,2.57,0,0,0,.29-1.25V20.24a4.42,4.42,0,0,1,.09-.92,1.06,1.06,0,0,1,.49-.69,2.54,2.54,0,0,1,1.32-.26,2.35,2.35,0,0,1,1.31.27,1.17,1.17,0,0,1,.48.72,4.46,4.46,0,0,1,.09.91v8.8a4.19,4.19,0,0,1-.09.89,1,1,0,0,1-.49.66,2.5,2.5,0,0,1-1.3.25,2.92,2.92,0,0,1-1.05-.15,1.21,1.21,0,0,1-.54-.38,1.06,1.06,0,0,1-.22-.47,3.91,3.91,0,0,1,0-.45l.32-.28a2.39,2.39,0,0,1-.32.39,4.58,4.58,0,0,1-.67.57,4,4,0,0,1-1,.54A3.36,3.36,0,0,1,224.27,30.87Z"/><path class="cls-2" d="M235.27,30.87a2.5,2.5,0,0,1-1.31-.26,1.08,1.08,0,0,1-.47-.7,4.53,4.53,0,0,1-.09-.91V20.2a4.15,4.15,0,0,1,.08-.89,1,1,0,0,1,.49-.66,2.6,2.6,0,0,1,1.33-.25,2.49,2.49,0,0,1,1.17.21,1,1,0,0,1,.49.51,1.74,1.74,0,0,1,.11.57,1,1,0,0,0,0,.36l-.15.47a1.43,1.43,0,0,1,.39-.76,3.53,3.53,0,0,1,.85-.7,4.32,4.32,0,0,1,1.1-.48,4,4,0,0,1,1.16-.18,5.05,5.05,0,0,1,2.14.44,4.41,4.41,0,0,1,1.59,1.26,5.81,5.81,0,0,1,1,1.94,8.22,8.22,0,0,1,.34,2.44V29a4.46,4.46,0,0,1-.09.91,1.06,1.06,0,0,1-.48.69,2.68,2.68,0,0,1-1.34.25,2.46,2.46,0,0,1-1.32-.27,1,1,0,0,1-.49-.7,4.47,4.47,0,0,1-.08-.91V24.48a2.92,2.92,0,0,0-.26-1.28,1.88,1.88,0,0,0-.75-.8,2.49,2.49,0,0,0-1.21-.27,2.61,2.61,0,0,0-1.26.28,2,2,0,0,0-.81.81,2.59,2.59,0,0,0-.29,1.25V29a4.56,4.56,0,0,1-.09.92,1,1,0,0,1-.47.68A2.53,2.53,0,0,1,235.27,30.87Z"/><path class="cls-2" d="M260.67,31a6.35,6.35,0,0,1-2.23-.41,7.13,7.13,0,0,1-2.1-1.21,5.93,5.93,0,0,1-1.54-2,6.32,6.32,0,0,1-.57-2.75,5.86,5.86,0,0,1,2.1-4.69,6.78,6.78,0,0,1,2.09-1.22,6.57,6.57,0,0,1,2.21-.41,5.66,5.66,0,0,1,1.66.22,5.23,5.23,0,0,1,1.25.51,3.57,3.57,0,0,1,.74.53,7,7,0,0,1,.75.65,1,1,0,0,1,.3.85,1.59,1.59,0,0,1-.18.56,4.36,4.36,0,0,1-.37.59c-.52.7-1,1-1.5,1a2.59,2.59,0,0,1-.69-.26c-.21-.11-.41-.23-.6-.35a5.81,5.81,0,0,0-.61-.31,2,2,0,0,0-.75-.14,2.53,2.53,0,0,0-2.21,1.24,2.44,2.44,0,0,0-.34,1.31,2.56,2.56,0,0,0,.33,1.3,2.64,2.64,0,0,0,.9.92,2.48,2.48,0,0,0,1.27.33,2.37,2.37,0,0,0,.72-.1,2.17,2.17,0,0,0,.55-.23l.35-.22.58-.36a1,1,0,0,1,.55-.16,1.25,1.25,0,0,1,.73.26,4.38,4.38,0,0,1,.82.84,2.07,2.07,0,0,1,.48,1,1.24,1.24,0,0,1-.21.86,2.67,2.67,0,0,1-.85.76,3.69,3.69,0,0,1-.71.45,7.55,7.55,0,0,1-1.25.5A5.77,5.77,0,0,1,260.67,31Z"/><path class="cls-2" d="M273,30.9a5.29,5.29,0,0,1-2.18-.46,5.43,5.43,0,0,1-1.75-1.26,5.92,5.92,0,0,1-1.16-1.93,7,7,0,0,1-.41-2.43V20.29a4.44,4.44,0,0,1,.08-.92,1.08,1.08,0,0,1,.49-.7,3.25,3.25,0,0,1,2.64,0,1.1,1.1,0,0,1,.47.71,4.69,4.69,0,0,1,.09.94v4.5a2.78,2.78,0,0,0,.26,1.26,1.8,1.8,0,0,0,.77.82,2.58,2.58,0,0,0,1.22.27,2.38,2.38,0,0,0,1.23-.29,2,2,0,0,0,.8-.81,2.46,2.46,0,0,0,.29-1.25V20.27a4.42,4.42,0,0,1,.09-.92,1,1,0,0,1,.49-.69,2.59,2.59,0,0,1,1.33-.26,2.39,2.39,0,0,1,1.31.27,1.15,1.15,0,0,1,.47.72,4.46,4.46,0,0,1,.09.91v8.8a5,5,0,0,1-.08.89,1.06,1.06,0,0,1-.49.66,2.52,2.52,0,0,1-1.3.25,2.92,2.92,0,0,1-1.05-.15,1.25,1.25,0,0,1-.55-.38.94.94,0,0,1-.21-.47,2.57,2.57,0,0,1,0-.45l.32-.28a1.86,1.86,0,0,1-.32.39,5.91,5.91,0,0,1-.66.57,4.28,4.28,0,0,1-1,.54A3.31,3.31,0,0,1,273,30.9Z"/><path class="cls-2" d="M292.32,30.91a2.33,2.33,0,0,1-1.37-.33.92.92,0,0,1-.43-.8l.25-.42a2.7,2.7,0,0,1-.57.61,4.28,4.28,0,0,1-1.11.65,4.39,4.39,0,0,1-1.67.28,4.87,4.87,0,0,1-2.18-.5A5.74,5.74,0,0,1,283.4,29a7,7,0,0,1-1.27-2,6,6,0,0,1-.48-2.37,5.83,5.83,0,0,1,.48-2.34,6.9,6.9,0,0,1,1.29-2A6.42,6.42,0,0,1,285.26,19a4.9,4.9,0,0,1,2.17-.5,4.14,4.14,0,0,1,1.58.27,4.24,4.24,0,0,1,1.08.61,3.27,3.27,0,0,1,.67.68l-.23-.35a1.07,1.07,0,0,1,.44-.92,2.48,2.48,0,0,1,1.39-.31,2.18,2.18,0,0,1,1.28.28,1.11,1.11,0,0,1,.48.72,4.86,4.86,0,0,1,.09.95V29a4.63,4.63,0,0,1-.09.92,1.14,1.14,0,0,1-.47.72A2.52,2.52,0,0,1,292.32,30.91ZM288,27.18a2.13,2.13,0,0,0,1.2-.34,2.57,2.57,0,0,0,.85-.91,2.51,2.51,0,0,0,.33-1.27,2.48,2.48,0,0,0-.33-1.29,2.32,2.32,0,0,0-.87-.89,2.36,2.36,0,0,0-1.23-.33,2.48,2.48,0,0,0-1.26.34,2.7,2.7,0,0,0-.9.91,2.6,2.6,0,0,0-.34,1.3,2.31,2.31,0,0,0,.34,1.24,2.41,2.41,0,0,0,.92.9A2.49,2.49,0,0,0,288,27.18Z"/><path class="cls-2" d="M302.05,30.91a5,5,0,0,1-2.18-.49,5.83,5.83,0,0,1-1.82-1.36,6.7,6.7,0,0,1-1.26-2,6.35,6.35,0,0,1-.46-2.42,6,6,0,0,1,.46-2.33,6.48,6.48,0,0,1,1.28-2A6.24,6.24,0,0,1,299.91,19a4.88,4.88,0,0,1,2.15-.5,4.28,4.28,0,0,1,3.63,1.83,6.48,6.48,0,0,1,.94,2,9.53,9.53,0,0,1,.35,2.35,9.28,9.28,0,0,1-.3,2.4,6.18,6.18,0,0,1-.93,2,4.58,4.58,0,0,1-1.55,1.39A4.41,4.41,0,0,1,302.05,30.91Zm.5-3.7a2.27,2.27,0,0,0,1.21-.33,2.68,2.68,0,0,0,.88-.92,2.49,2.49,0,0,0,.34-1.27,2.52,2.52,0,0,0-1.2-2.16,2.3,2.3,0,0,0-1.25-.34,2.52,2.52,0,0,0-1.24.32,2.28,2.28,0,0,0-.87.9,2.61,2.61,0,0,0-.32,1.28,2.51,2.51,0,0,0,.33,1.27,2.34,2.34,0,0,0,.9.92A2.4,2.4,0,0,0,302.55,27.21Zm4.35,3.73a2.31,2.31,0,0,1-1.26-.27,1.3,1.3,0,0,1-.54-.86V14.67a6.77,6.77,0,0,1,.06-.92,1,1,0,0,1,.44-.71,2.16,2.16,0,0,1,1.27-.27,2.39,2.39,0,0,1,1.33.26,1.08,1.08,0,0,1,.47.69,3.82,3.82,0,0,1,.1.92V29a5.31,5.31,0,0,1-.08.91,1.14,1.14,0,0,1-.48.72A2.39,2.39,0,0,1,306.9,30.94Z"/><path class="cls-2" d="M313.17,30.94a2.41,2.41,0,0,1-1.31-.26,1,1,0,0,1-.47-.71,4.73,4.73,0,0,1-.09-.93V20.32a4.59,4.59,0,0,1,.09-.93,1,1,0,0,1,.49-.68,2.47,2.47,0,0,1,1.33-.27,2.61,2.61,0,0,1,1.26.24,1.06,1.06,0,0,1,.49.55,2,2,0,0,1,.09.54l-.29.15a2,2,0,0,1,.26-.36,3.2,3.2,0,0,1,.59-.55,3.71,3.71,0,0,1,.91-.49,3.62,3.62,0,0,1,1.24-.2,4.66,4.66,0,0,1,.61,0,4.89,4.89,0,0,1,.7.15,3.32,3.32,0,0,1,.66.3,1.8,1.8,0,0,1,.49.46,1.15,1.15,0,0,1,.18.68,3.06,3.06,0,0,1-.47,1.74,1.42,1.42,0,0,1-1.2.71,1.66,1.66,0,0,1-.6-.07,1,1,0,0,1-.29-.15l-.26-.15A1.68,1.68,0,0,0,317,22a2.34,2.34,0,0,0-.71.1,2.06,2.06,0,0,0-.63.31,1.63,1.63,0,0,0-.45.53,1.49,1.49,0,0,0-.16.71V29.1A5.4,5.4,0,0,1,315,30a1.07,1.07,0,0,1-.49.69A2.62,2.62,0,0,1,313.17,30.94Z"/><path class="cls-2" d="M332.57,30.93a2.41,2.41,0,0,1-1.37-.32.93.93,0,0,1-.43-.8l.25-.43a2.72,2.72,0,0,1-.57.61,4.28,4.28,0,0,1-1.11.65,4.38,4.38,0,0,1-1.67.29,5,5,0,0,1-2.18-.5A5.93,5.93,0,0,1,323.65,29a6.91,6.91,0,0,1-1.27-2,6,6,0,0,1-.48-2.37,5.83,5.83,0,0,1,.48-2.34,6.34,6.34,0,0,1,1.29-2A6.07,6.07,0,0,1,325.51,19a4.77,4.77,0,0,1,2.17-.5,4.35,4.35,0,0,1,1.58.26,4.57,4.57,0,0,1,1.08.61A3.45,3.45,0,0,1,331,20l-.22-.35a1.05,1.05,0,0,1,.44-.91,2.4,2.4,0,0,1,1.39-.31,2.3,2.3,0,0,1,1.28.27,1.16,1.16,0,0,1,.48.73,4.81,4.81,0,0,1,.08.95V29a4.73,4.73,0,0,1-.09.93,1.09,1.09,0,0,1-.47.71A2.52,2.52,0,0,1,332.57,30.93ZM328.2,27.2a2.21,2.21,0,0,0,1.2-.33,2.66,2.66,0,0,0,.85-.91,2.67,2.67,0,0,0,0-2.57,2.35,2.35,0,0,0-2.1-1.21,2.38,2.38,0,0,0-1.26.34,2.53,2.53,0,0,0-.9.91,2.45,2.45,0,0,0-.34,1.3A2.28,2.28,0,0,0,326,26a2.51,2.51,0,0,0,.92.91A2.58,2.58,0,0,0,328.2,27.2Z"/><path class="cls-2" d="M342.3,30.94a5.11,5.11,0,0,1-2.18-.49,5.86,5.86,0,0,1-1.82-1.37,6.7,6.7,0,0,1-1.26-2,6.3,6.3,0,0,1-.46-2.41,6,6,0,0,1,.46-2.34,6.32,6.32,0,0,1,1.28-2A6.07,6.07,0,0,1,340.16,19a4.7,4.7,0,0,1,2.14-.5,4.31,4.31,0,0,1,3.64,1.82,6.48,6.48,0,0,1,.94,2,9.53,9.53,0,0,1,.35,2.35,9.28,9.28,0,0,1-.3,2.4,6.23,6.23,0,0,1-.93,2,4.9,4.9,0,0,1-1.55,1.39A4.41,4.41,0,0,1,342.3,30.94Zm.5-3.7A2.19,2.19,0,0,0,344,26.9a2.65,2.65,0,0,0,.88-.91,2.52,2.52,0,0,0,.34-1.28,2.47,2.47,0,0,0-.33-1.26,2.58,2.58,0,0,0-.87-.9,2.48,2.48,0,0,0-2.49,0,2.24,2.24,0,0,0-.88.9,2.68,2.68,0,0,0-.31,1.27,2.54,2.54,0,0,0,.33,1.28,2.38,2.38,0,0,0,.9.91A2.41,2.41,0,0,0,342.8,27.24ZM347.15,31a2.31,2.31,0,0,1-1.26-.27,1.27,1.27,0,0,1-.54-.85V14.69a6.62,6.62,0,0,1,.06-.91,1.07,1.07,0,0,1,.44-.72,2.24,2.24,0,0,1,1.27-.27,2.49,2.49,0,0,1,1.33.26,1.13,1.13,0,0,1,.47.69,3.84,3.84,0,0,1,.1.93v14.4a5.4,5.4,0,0,1-.08.91,1.12,1.12,0,0,1-.48.71A2.39,2.39,0,0,1,347.15,31Z"/><path class="cls-2" d="M357.55,31.17a6.21,6.21,0,0,1-2.34-.46,7.06,7.06,0,0,1-2.11-1.32,6.17,6.17,0,0,1-1.51-2,6,6,0,0,1-.56-2.63,6.16,6.16,0,0,1,.51-2.51A6.72,6.72,0,0,1,355,18.73a6.09,6.09,0,0,1,2.49-.51,6.38,6.38,0,0,1,3.26.86,6.61,6.61,0,0,1,2.33,2.34A6.27,6.27,0,0,1,364,24.7a6.17,6.17,0,0,1-.57,2.71,6.35,6.35,0,0,1-1.5,2,6.68,6.68,0,0,1-2.07,1.28A6.21,6.21,0,0,1,357.55,31.17Zm-.05-3.77a2.89,2.89,0,0,0,2.28-1.2,2.61,2.61,0,0,0,.42-1.53,2.67,2.67,0,0,0-.35-1.4,2.48,2.48,0,0,0-1-.94,2.94,2.94,0,0,0-1.41-.33,2.51,2.51,0,0,0-1.34.35,2.65,2.65,0,0,0-.95,1,2.68,2.68,0,0,0-.36,1.38,2.64,2.64,0,0,0,.41,1.52,2.47,2.47,0,0,0,1,.9A3,3,0,0,0,357.5,27.4Z"/><path class="cls-3" d="M127.88,31a8.58,8.58,0,0,1-2.33-.34,9.24,9.24,0,0,1-2.41-1.05A9.06,9.06,0,0,1,121,27.85a8.24,8.24,0,0,1-1.51-2.55,9.36,9.36,0,0,1-.56-3.32,8.59,8.59,0,0,1,.57-3.24A8.06,8.06,0,0,1,121,16.28a8.84,8.84,0,0,1,2.13-1.74,9.54,9.54,0,0,1,2.41-1,8.84,8.84,0,0,1,2.39-.34,7.36,7.36,0,0,1,2.22.3,9.15,9.15,0,0,1,1.54.63l.76.43a7.64,7.64,0,0,1,.85.65,1.17,1.17,0,0,1,.42.9,1.59,1.59,0,0,1-.11.6,2.29,2.29,0,0,1-.34.6,3.14,3.14,0,0,1-.77.83,1.25,1.25,0,0,1-.73.27,1.16,1.16,0,0,1-.57-.15c-.19-.11-.4-.24-.65-.41l-.5-.31a4,4,0,0,0-.89-.34,5.78,5.78,0,0,0-3.15.15,5.07,5.07,0,0,0-1.64.93,4.45,4.45,0,0,0-1.2,1.58,5.31,5.31,0,0,0-.45,2.27,5.11,5.11,0,0,0,.46,2.25,4.75,4.75,0,0,0,1.21,1.57,5.29,5.29,0,0,0,1.64.94,5.16,5.16,0,0,0,1.74.31,4.66,4.66,0,0,0,1.27-.15,5,5,0,0,0,.93-.36l.67-.38a6.48,6.48,0,0,1,.57-.33,1.22,1.22,0,0,1,.58-.15,1.17,1.17,0,0,1,.72.28,3.2,3.2,0,0,1,.73.87,3.07,3.07,0,0,1,.34.64,1.68,1.68,0,0,1,.11.61,1.07,1.07,0,0,1-.41.86,8.5,8.5,0,0,1-.86.62l-.75.43a7.07,7.07,0,0,1-1.53.63A8,8,0,0,1,127.88,31Z"/><path class="cls-3" d="M141.88,31a6.21,6.21,0,0,1-2.34-.46,6.94,6.94,0,0,1-2.11-1.32,6.17,6.17,0,0,1-2.08-4.67,6.16,6.16,0,0,1,.52-2.51A6.67,6.67,0,0,1,137.28,20a6.75,6.75,0,0,1,2.06-1.41,6.16,6.16,0,0,1,2.49-.51,6.24,6.24,0,0,1,3.26.87,6.45,6.45,0,0,1,2.34,2.33,6.36,6.36,0,0,1,.87,3.28,6.17,6.17,0,0,1-.56,2.71,6.66,6.66,0,0,1-1.5,2,6.76,6.76,0,0,1-2.08,1.29A6.35,6.35,0,0,1,141.88,31Zm0-3.77a2.78,2.78,0,0,0,1.22-.3,2.67,2.67,0,0,0,1-.9,2.54,2.54,0,0,0,.43-1.53,2.77,2.77,0,0,0-.35-1.4,2.39,2.39,0,0,0-1-.93,2.83,2.83,0,0,0-1.41-.34,2.51,2.51,0,0,0-1.34.35,2.65,2.65,0,0,0-.95,1,2.7,2.7,0,0,0-.37,1.39,2.61,2.61,0,0,0,.42,1.51,2.47,2.47,0,0,0,1,.9A3,3,0,0,0,141.83,27.27Z"/><path class="cls-3" d="M155.13,30.85a14.2,14.2,0,0,1-1.83-.1,3.9,3.9,0,0,1-1.35-.4,2.42,2.42,0,0,1-.9-.84,4,4,0,0,1-.52-1.38,9.9,9.9,0,0,1-.18-2.06V14.52a3.82,3.82,0,0,1,.1-.92,1.15,1.15,0,0,1,.49-.7,2.27,2.27,0,0,1,1.31-.28,2.33,2.33,0,0,1,1.29.28,1.18,1.18,0,0,1,.49.7,4.4,4.4,0,0,1,.1.92V25.9a4,4,0,0,0,0,.66.77.77,0,0,0,.15.41.49.49,0,0,0,.31.2,1.9,1.9,0,0,0,.52,0,2.55,2.55,0,0,1,.61.08.89.89,0,0,1,.54.45,2.56,2.56,0,0,1,.23,1.25,2.79,2.79,0,0,1-.23,1.3.88.88,0,0,1-.54.48A2.7,2.7,0,0,1,155.13,30.85Z"/><path class="cls-3" d="M164.35,31.05a6.29,6.29,0,0,1-2.34-.46,7.24,7.24,0,0,1-2.11-1.31,6.38,6.38,0,0,1-1.51-2,6.47,6.47,0,0,1,0-5.15A6.83,6.83,0,0,1,159.76,20a6.75,6.75,0,0,1,2.06-1.41,6,6,0,0,1,2.49-.51,6.23,6.23,0,0,1,3.26.86,6.56,6.56,0,0,1,2.34,2.34,6.3,6.3,0,0,1,.87,3.27,6.46,6.46,0,0,1-4.14,6A6.15,6.15,0,0,1,164.35,31.05Zm0-3.77a2.85,2.85,0,0,0,1.23-.3,2.81,2.81,0,0,0,1.05-.9,2.6,2.6,0,0,0,.42-1.52,2.74,2.74,0,0,0-.34-1.4,2.5,2.5,0,0,0-1-.94,2.8,2.8,0,0,0-1.41-.34A2.59,2.59,0,0,0,162,23.19a2.93,2.93,0,0,0,0,2.9,2.49,2.49,0,0,0,1,.9A2.9,2.9,0,0,0,164.3,27.28Z"/><path class="cls-3" d="M174.68,30.86a2.52,2.52,0,0,1-1.32-.26,1.08,1.08,0,0,1-.47-.71,4.73,4.73,0,0,1-.09-.93V20.24a5.28,5.28,0,0,1,.08-.93,1.12,1.12,0,0,1,.49-.69,2.59,2.59,0,0,1,1.33-.26,2.5,2.5,0,0,1,1.26.24,1.06,1.06,0,0,1,.49.55,2.08,2.08,0,0,1,.1.54l-.3.15a2.39,2.39,0,0,1,.26-.37,3.57,3.57,0,0,1,.59-.54,3.14,3.14,0,0,1,.91-.49,3.62,3.62,0,0,1,1.24-.2,4.66,4.66,0,0,1,.61,0,3.14,3.14,0,0,1,.7.15,2.47,2.47,0,0,1,.66.3,1.66,1.66,0,0,1,.49.46,1.21,1.21,0,0,1,.19.68,3,3,0,0,1-.48,1.73,1.4,1.4,0,0,1-1.2.71,2.11,2.11,0,0,1-.6-.06,1,1,0,0,1-.29-.15.93.93,0,0,0-.26-.15,1.68,1.68,0,0,0-.55-.06,2.34,2.34,0,0,0-.71.1,2,2,0,0,0-.63.31,1.54,1.54,0,0,0-.45.53,1.46,1.46,0,0,0-.16.71V29a4.46,4.46,0,0,1-.09.91,1,1,0,0,1-.49.69A2.58,2.58,0,0,1,174.68,30.86Z"/><path class="cls-3" d="M190.08,31.1a7.46,7.46,0,0,1-3-.58A5.86,5.86,0,0,1,185,29a6.57,6.57,0,0,1-1.2-2.08,7.19,7.19,0,0,1-.4-2.3,6.45,6.45,0,0,1,.86-3.33A6,6,0,0,1,186.62,19a7,7,0,0,1,3.46-.84,6.35,6.35,0,0,1,2.51.46,5,5,0,0,1,1.75,1.21,5.18,5.18,0,0,1,1,1.58,4.31,4.31,0,0,1,.33,1.63A2.82,2.82,0,0,1,195,25.1a2.25,2.25,0,0,1-1.69.67H187.4a1.75,1.75,0,0,0,.47,1.07,2.69,2.69,0,0,0,1,.7,3.7,3.7,0,0,0,1.33.26,6.41,6.41,0,0,0,1-.07,4.3,4.3,0,0,0,.79-.17l.59-.23.49-.18a1.81,1.81,0,0,1,.42-.1,1,1,0,0,1,.68.21,2.09,2.09,0,0,1,.57.71,1.75,1.75,0,0,1,.24.53,2.14,2.14,0,0,1,.06.5,1.34,1.34,0,0,1-.61,1.09,4.91,4.91,0,0,1-1.73.73A11.42,11.42,0,0,1,190.08,31.1Zm-2.68-7.41h3.95a1,1,0,0,0,.58-.14.62.62,0,0,0,.2-.54,1.18,1.18,0,0,0-.28-.77,1.61,1.61,0,0,0-.73-.54,2.8,2.8,0,0,0-1.09-.19,3,3,0,0,0-1.35.3,2.47,2.47,0,0,0-.94.8A1.91,1.91,0,0,0,187.4,23.69Z"/><path class="cls-3" d="M208,30.86a2.3,2.3,0,0,1-1.37-.33.89.89,0,0,1-.43-.8l.25-.42a3,3,0,0,1-.57.61,4.17,4.17,0,0,1-2.78.93,4.88,4.88,0,0,1-2.19-.5A5.7,5.7,0,0,1,199.08,29a7,7,0,0,1-1.28-2,6.15,6.15,0,0,1-.47-2.37,6,6,0,0,1,.47-2.34,6.9,6.9,0,0,1,1.29-2,6.7,6.7,0,0,1,1.84-1.36,5,5,0,0,1,2.18-.5,4.09,4.09,0,0,1,1.57.27,4.15,4.15,0,0,1,1.09.61,3.2,3.2,0,0,1,.66.68l-.22-.35a1.06,1.06,0,0,1,.43-.92,2.44,2.44,0,0,1,1.39-.31,2.24,2.24,0,0,1,1.29.28,1.07,1.07,0,0,1,.47.72,4.86,4.86,0,0,1,.09.95V29a4.7,4.7,0,0,1-.09.92,1.07,1.07,0,0,1-.48.71A2.37,2.37,0,0,1,208,30.86Zm-4.37-3.73a2.13,2.13,0,0,0,1.2-.34,2.57,2.57,0,0,0,.85-.91,2.6,2.6,0,0,0,.32-1.27,2.47,2.47,0,0,0-.32-1.29,2.42,2.42,0,0,0-.88-.89,2.3,2.3,0,0,0-1.22-.33,2.42,2.42,0,0,0-1.26.34,2.53,2.53,0,0,0-.9.91,2.5,2.5,0,0,0-.34,1.3,2.34,2.34,0,0,0,.34,1.24,2.56,2.56,0,0,0,2.21,1.24Z"/><path class="cls-3" d="M224.27,30.87a5.4,5.4,0,0,1-2.17-.45,5.5,5.5,0,0,1-1.75-1.27,5.64,5.64,0,0,1-1.16-1.92,6.91,6.91,0,0,1-.41-2.44V20.26a4.42,4.42,0,0,1,.09-.92,1.08,1.08,0,0,1,.49-.7,2.4,2.4,0,0,1,1.32-.28,2.33,2.33,0,0,1,1.31.28,1.12,1.12,0,0,1,.48.71,4.69,4.69,0,0,1,.09.94v4.5a2.92,2.92,0,0,0,.26,1.26,1.88,1.88,0,0,0,.78.82,2.54,2.54,0,0,0,1.21.27,2.42,2.42,0,0,0,1.24-.29,2,2,0,0,0,.8-.81,2.57,2.57,0,0,0,.29-1.25V20.24a4.42,4.42,0,0,1,.09-.92,1.06,1.06,0,0,1,.49-.69,2.54,2.54,0,0,1,1.32-.26,2.35,2.35,0,0,1,1.31.27,1.17,1.17,0,0,1,.48.72,4.46,4.46,0,0,1,.09.91v8.8a4.19,4.19,0,0,1-.09.89,1,1,0,0,1-.49.66,2.5,2.5,0,0,1-1.3.25,2.92,2.92,0,0,1-1.05-.15,1.21,1.21,0,0,1-.54-.38,1.06,1.06,0,0,1-.22-.47,3.91,3.91,0,0,1,0-.45l.32-.28a2.39,2.39,0,0,1-.32.39,4.58,4.58,0,0,1-.67.57,4,4,0,0,1-1,.54A3.36,3.36,0,0,1,224.27,30.87Z"/><path class="cls-3" d="M235.27,30.87a2.5,2.5,0,0,1-1.31-.26,1.08,1.08,0,0,1-.47-.7,4.53,4.53,0,0,1-.09-.91V20.2a4.15,4.15,0,0,1,.08-.89,1,1,0,0,1,.49-.66,2.6,2.6,0,0,1,1.33-.25,2.49,2.49,0,0,1,1.17.21,1,1,0,0,1,.49.51,1.74,1.74,0,0,1,.11.57,1,1,0,0,0,0,.36l-.15.47a1.43,1.43,0,0,1,.39-.76,3.53,3.53,0,0,1,.85-.7,4.32,4.32,0,0,1,1.1-.48,4,4,0,0,1,1.16-.18,5.05,5.05,0,0,1,2.14.44,4.41,4.41,0,0,1,1.59,1.26,5.81,5.81,0,0,1,1,1.94,8.22,8.22,0,0,1,.34,2.44V29a4.46,4.46,0,0,1-.09.91,1.06,1.06,0,0,1-.48.69,2.68,2.68,0,0,1-1.34.25,2.46,2.46,0,0,1-1.32-.27,1,1,0,0,1-.49-.7,4.47,4.47,0,0,1-.08-.91V24.48a2.92,2.92,0,0,0-.26-1.28,1.88,1.88,0,0,0-.75-.8,2.49,2.49,0,0,0-1.21-.27,2.61,2.61,0,0,0-1.26.28,2,2,0,0,0-.81.81,2.59,2.59,0,0,0-.29,1.25V29a4.56,4.56,0,0,1-.09.92,1,1,0,0,1-.47.68A2.53,2.53,0,0,1,235.27,30.87Z"/><path class="cls-3" d="M260.67,31a6.35,6.35,0,0,1-2.23-.41,7.13,7.13,0,0,1-2.1-1.21,5.93,5.93,0,0,1-1.54-2,6.32,6.32,0,0,1-.57-2.75,5.86,5.86,0,0,1,2.1-4.69,6.78,6.78,0,0,1,2.09-1.22,6.57,6.57,0,0,1,2.21-.41,5.66,5.66,0,0,1,1.66.22,5.23,5.23,0,0,1,1.25.51,3.57,3.57,0,0,1,.74.53,7,7,0,0,1,.75.65,1,1,0,0,1,.3.85,1.59,1.59,0,0,1-.18.56,4.36,4.36,0,0,1-.37.59c-.52.7-1,1-1.5,1a2.59,2.59,0,0,1-.69-.26c-.21-.11-.41-.23-.6-.35a5.81,5.81,0,0,0-.61-.31,2,2,0,0,0-.75-.14,2.53,2.53,0,0,0-2.21,1.24,2.44,2.44,0,0,0-.34,1.31,2.56,2.56,0,0,0,.33,1.3,2.64,2.64,0,0,0,.9.92,2.48,2.48,0,0,0,1.27.33,2.37,2.37,0,0,0,.72-.1,2.17,2.17,0,0,0,.55-.23l.35-.22.58-.36a1,1,0,0,1,.55-.16,1.25,1.25,0,0,1,.73.26,4.38,4.38,0,0,1,.82.84,2.07,2.07,0,0,1,.48,1,1.24,1.24,0,0,1-.21.86,2.67,2.67,0,0,1-.85.76,3.69,3.69,0,0,1-.71.45,7.55,7.55,0,0,1-1.25.5A5.77,5.77,0,0,1,260.67,31Z"/><path class="cls-3" d="M273,30.9a5.29,5.29,0,0,1-2.18-.46,5.43,5.43,0,0,1-1.75-1.26,5.92,5.92,0,0,1-1.16-1.93,7,7,0,0,1-.41-2.43V20.29a4.44,4.44,0,0,1,.08-.92,1.08,1.08,0,0,1,.49-.7,3.25,3.25,0,0,1,2.64,0,1.1,1.1,0,0,1,.47.71,4.69,4.69,0,0,1,.09.94v4.5a2.78,2.78,0,0,0,.26,1.26,1.8,1.8,0,0,0,.77.82,2.58,2.58,0,0,0,1.22.27,2.38,2.38,0,0,0,1.23-.29,2,2,0,0,0,.8-.81,2.46,2.46,0,0,0,.29-1.25V20.27a4.42,4.42,0,0,1,.09-.92,1,1,0,0,1,.49-.69,2.59,2.59,0,0,1,1.33-.26,2.39,2.39,0,0,1,1.31.27,1.15,1.15,0,0,1,.47.72,4.46,4.46,0,0,1,.09.91v8.8a5,5,0,0,1-.08.89,1.06,1.06,0,0,1-.49.66,2.52,2.52,0,0,1-1.3.25,2.92,2.92,0,0,1-1.05-.15,1.25,1.25,0,0,1-.55-.38.94.94,0,0,1-.21-.47,2.57,2.57,0,0,1,0-.45l.32-.28a1.86,1.86,0,0,1-.32.39,5.91,5.91,0,0,1-.66.57,4.28,4.28,0,0,1-1,.54A3.31,3.31,0,0,1,273,30.9Z"/><path class="cls-3" d="M292.32,30.91a2.33,2.33,0,0,1-1.37-.33.92.92,0,0,1-.43-.8l.25-.42a2.7,2.7,0,0,1-.57.61,4.28,4.28,0,0,1-1.11.65,4.39,4.39,0,0,1-1.67.28,4.87,4.87,0,0,1-2.18-.5A5.74,5.74,0,0,1,283.4,29a7,7,0,0,1-1.27-2,6,6,0,0,1-.48-2.37,5.83,5.83,0,0,1,.48-2.34,6.9,6.9,0,0,1,1.29-2A6.42,6.42,0,0,1,285.26,19a4.9,4.9,0,0,1,2.17-.5,4.14,4.14,0,0,1,1.58.27,4.24,4.24,0,0,1,1.08.61,3.27,3.27,0,0,1,.67.68l-.23-.35a1.07,1.07,0,0,1,.44-.92,2.48,2.48,0,0,1,1.39-.31,2.18,2.18,0,0,1,1.28.28,1.11,1.11,0,0,1,.48.72,4.86,4.86,0,0,1,.09.95V29a4.63,4.63,0,0,1-.09.92,1.14,1.14,0,0,1-.47.72A2.52,2.52,0,0,1,292.32,30.91ZM288,27.18a2.13,2.13,0,0,0,1.2-.34,2.57,2.57,0,0,0,.85-.91,2.51,2.51,0,0,0,.33-1.27,2.48,2.48,0,0,0-.33-1.29,2.32,2.32,0,0,0-.87-.89,2.36,2.36,0,0,0-1.23-.33,2.48,2.48,0,0,0-1.26.34,2.7,2.7,0,0,0-.9.91,2.6,2.6,0,0,0-.34,1.3,2.31,2.31,0,0,0,.34,1.24,2.41,2.41,0,0,0,.92.9A2.49,2.49,0,0,0,288,27.18Z"/><path class="cls-3" d="M302.05,30.91a5,5,0,0,1-2.18-.49,5.83,5.83,0,0,1-1.82-1.36,6.7,6.7,0,0,1-1.26-2,6.35,6.35,0,0,1-.46-2.42,6,6,0,0,1,.46-2.33,6.48,6.48,0,0,1,1.28-2A6.24,6.24,0,0,1,299.91,19a4.88,4.88,0,0,1,2.15-.5,4.28,4.28,0,0,1,3.63,1.83,6.48,6.48,0,0,1,.94,2,9.53,9.53,0,0,1,.35,2.35,9.28,9.28,0,0,1-.3,2.4,6.18,6.18,0,0,1-.93,2,4.58,4.58,0,0,1-1.55,1.39A4.41,4.41,0,0,1,302.05,30.91Zm.5-3.7a2.27,2.27,0,0,0,1.21-.33,2.68,2.68,0,0,0,.88-.92,2.49,2.49,0,0,0,.34-1.27,2.52,2.52,0,0,0-1.2-2.16,2.3,2.3,0,0,0-1.25-.34,2.52,2.52,0,0,0-1.24.32,2.28,2.28,0,0,0-.87.9,2.61,2.61,0,0,0-.32,1.28,2.51,2.51,0,0,0,.33,1.27,2.34,2.34,0,0,0,.9.92A2.4,2.4,0,0,0,302.55,27.21Zm4.35,3.73a2.31,2.31,0,0,1-1.26-.27,1.3,1.3,0,0,1-.54-.86V14.67a6.77,6.77,0,0,1,.06-.92,1,1,0,0,1,.44-.71,2.16,2.16,0,0,1,1.27-.27,2.39,2.39,0,0,1,1.33.26,1.08,1.08,0,0,1,.47.69,3.82,3.82,0,0,1,.1.92V29a5.31,5.31,0,0,1-.08.91,1.14,1.14,0,0,1-.48.72A2.39,2.39,0,0,1,306.9,30.94Z"/><path class="cls-3" d="M313.17,30.94a2.41,2.41,0,0,1-1.31-.26,1,1,0,0,1-.47-.71,4.73,4.73,0,0,1-.09-.93V20.32a4.59,4.59,0,0,1,.09-.93,1,1,0,0,1,.49-.68,2.47,2.47,0,0,1,1.33-.27,2.61,2.61,0,0,1,1.26.24,1.06,1.06,0,0,1,.49.55,2,2,0,0,1,.09.54l-.29.15a2,2,0,0,1,.26-.36,3.2,3.2,0,0,1,.59-.55,3.71,3.71,0,0,1,.91-.49,3.62,3.62,0,0,1,1.24-.2,4.66,4.66,0,0,1,.61,0,4.89,4.89,0,0,1,.7.15,3.32,3.32,0,0,1,.66.3,1.8,1.8,0,0,1,.49.46,1.15,1.15,0,0,1,.18.68,3.06,3.06,0,0,1-.47,1.74,1.42,1.42,0,0,1-1.2.71,1.66,1.66,0,0,1-.6-.07,1,1,0,0,1-.29-.15l-.26-.15A1.68,1.68,0,0,0,317,22a2.34,2.34,0,0,0-.71.1,2.06,2.06,0,0,0-.63.31,1.63,1.63,0,0,0-.45.53,1.49,1.49,0,0,0-.16.71V29.1A5.4,5.4,0,0,1,315,30a1.07,1.07,0,0,1-.49.69A2.62,2.62,0,0,1,313.17,30.94Z"/><path class="cls-3" d="M332.57,30.93a2.41,2.41,0,0,1-1.37-.32.93.93,0,0,1-.43-.8l.25-.43a2.72,2.72,0,0,1-.57.61,4.28,4.28,0,0,1-1.11.65,4.38,4.38,0,0,1-1.67.29,5,5,0,0,1-2.18-.5A5.93,5.93,0,0,1,323.65,29a6.91,6.91,0,0,1-1.27-2,6,6,0,0,1-.48-2.37,5.83,5.83,0,0,1,.48-2.34,6.34,6.34,0,0,1,1.29-2A6.07,6.07,0,0,1,325.51,19a4.77,4.77,0,0,1,2.17-.5,4.35,4.35,0,0,1,1.58.26,4.57,4.57,0,0,1,1.08.61A3.45,3.45,0,0,1,331,20l-.22-.35a1.05,1.05,0,0,1,.44-.91,2.4,2.4,0,0,1,1.39-.31,2.3,2.3,0,0,1,1.28.27,1.16,1.16,0,0,1,.48.73,4.81,4.81,0,0,1,.08.95V29a4.73,4.73,0,0,1-.09.93,1.09,1.09,0,0,1-.47.71A2.52,2.52,0,0,1,332.57,30.93ZM328.2,27.2a2.21,2.21,0,0,0,1.2-.33,2.66,2.66,0,0,0,.85-.91,2.67,2.67,0,0,0,0-2.57,2.35,2.35,0,0,0-2.1-1.21,2.38,2.38,0,0,0-1.26.34,2.53,2.53,0,0,0-.9.91,2.45,2.45,0,0,0-.34,1.3A2.28,2.28,0,0,0,326,26a2.51,2.51,0,0,0,.92.91A2.58,2.58,0,0,0,328.2,27.2Z"/><path class="cls-3" d="M342.3,30.94a5.11,5.11,0,0,1-2.18-.49,5.86,5.86,0,0,1-1.82-1.37,6.7,6.7,0,0,1-1.26-2,6.3,6.3,0,0,1-.46-2.41,6,6,0,0,1,.46-2.34,6.32,6.32,0,0,1,1.28-2A6.07,6.07,0,0,1,340.16,19a4.7,4.7,0,0,1,2.14-.5,4.31,4.31,0,0,1,3.64,1.82,6.48,6.48,0,0,1,.94,2,9.53,9.53,0,0,1,.35,2.35,9.28,9.28,0,0,1-.3,2.4,6.23,6.23,0,0,1-.93,2,4.9,4.9,0,0,1-1.55,1.39A4.41,4.41,0,0,1,342.3,30.94Zm.5-3.7A2.19,2.19,0,0,0,344,26.9a2.65,2.65,0,0,0,.88-.91,2.52,2.52,0,0,0,.34-1.28,2.47,2.47,0,0,0-.33-1.26,2.58,2.58,0,0,0-.87-.9,2.48,2.48,0,0,0-2.49,0,2.24,2.24,0,0,0-.88.9,2.68,2.68,0,0,0-.31,1.27,2.54,2.54,0,0,0,.33,1.28,2.38,2.38,0,0,0,.9.91A2.41,2.41,0,0,0,342.8,27.24ZM347.15,31a2.31,2.31,0,0,1-1.26-.27,1.27,1.27,0,0,1-.54-.85V14.69a6.62,6.62,0,0,1,.06-.91,1.07,1.07,0,0,1,.44-.72,2.24,2.24,0,0,1,1.27-.27,2.49,2.49,0,0,1,1.33.26,1.13,1.13,0,0,1,.47.69,3.84,3.84,0,0,1,.1.93v14.4a5.4,5.4,0,0,1-.08.91,1.12,1.12,0,0,1-.48.71A2.39,2.39,0,0,1,347.15,31Z"/><path class="cls-3" d="M357.55,31.17a6.21,6.21,0,0,1-2.34-.46,7.06,7.06,0,0,1-2.11-1.32,6.17,6.17,0,0,1-1.51-2,6,6,0,0,1-.56-2.63,6.16,6.16,0,0,1,.51-2.51A6.72,6.72,0,0,1,355,18.73a6.09,6.09,0,0,1,2.49-.51,6.38,6.38,0,0,1,3.26.86,6.61,6.61,0,0,1,2.33,2.34A6.27,6.27,0,0,1,364,24.7a6.17,6.17,0,0,1-.57,2.71,6.35,6.35,0,0,1-1.5,2,6.68,6.68,0,0,1-2.07,1.28A6.21,6.21,0,0,1,357.55,31.17Zm-.05-3.77a2.89,2.89,0,0,0,2.28-1.2,2.61,2.61,0,0,0,.42-1.53,2.67,2.67,0,0,0-.35-1.4,2.48,2.48,0,0,0-1-.94,2.94,2.94,0,0,0-1.41-.33,2.51,2.51,0,0,0-1.34.35,2.65,2.65,0,0,0-.95,1,2.68,2.68,0,0,0-.36,1.38,2.64,2.64,0,0,0,.41,1.52,2.47,2.47,0,0,0,1,.9A3,3,0,0,0,357.5,27.4Z"/><path class="cls-2" d="M127.88,31a8.58,8.58,0,0,1-2.33-.34,9.24,9.24,0,0,1-2.41-1.05A9.06,9.06,0,0,1,121,27.85a8.24,8.24,0,0,1-1.51-2.55,9.36,9.36,0,0,1-.56-3.32,8.59,8.59,0,0,1,.57-3.24A8.06,8.06,0,0,1,121,16.28a8.84,8.84,0,0,1,2.13-1.74,9.54,9.54,0,0,1,2.41-1,8.84,8.84,0,0,1,2.39-.34,7.36,7.36,0,0,1,2.22.3,9.15,9.15,0,0,1,1.54.63l.76.43a7.64,7.64,0,0,1,.85.65,1.17,1.17,0,0,1,.42.9,1.59,1.59,0,0,1-.11.6,2.29,2.29,0,0,1-.34.6,3.14,3.14,0,0,1-.77.83,1.25,1.25,0,0,1-.73.27,1.16,1.16,0,0,1-.57-.15c-.19-.11-.4-.24-.65-.41l-.5-.31a4,4,0,0,0-.89-.34,5.78,5.78,0,0,0-3.15.15,5.07,5.07,0,0,0-1.64.93,4.45,4.45,0,0,0-1.2,1.58,5.31,5.31,0,0,0-.45,2.27,5.11,5.11,0,0,0,.46,2.25,4.75,4.75,0,0,0,1.21,1.57,5.29,5.29,0,0,0,1.64.94,5.16,5.16,0,0,0,1.74.31,4.66,4.66,0,0,0,1.27-.15,5,5,0,0,0,.93-.36l.67-.38a6.48,6.48,0,0,1,.57-.33,1.22,1.22,0,0,1,.58-.15,1.17,1.17,0,0,1,.72.28,3.2,3.2,0,0,1,.73.87,3.07,3.07,0,0,1,.34.64,1.68,1.68,0,0,1,.11.61,1.07,1.07,0,0,1-.41.86,8.5,8.5,0,0,1-.86.62l-.75.43a7.07,7.07,0,0,1-1.53.63A8,8,0,0,1,127.88,31Z"/><path class="cls-2" d="M141.88,31a6.21,6.21,0,0,1-2.34-.46,6.94,6.94,0,0,1-2.11-1.32,6.17,6.17,0,0,1-2.08-4.67,6.16,6.16,0,0,1,.52-2.51A6.67,6.67,0,0,1,137.28,20a6.75,6.75,0,0,1,2.06-1.41,6.16,6.16,0,0,1,2.49-.51,6.24,6.24,0,0,1,3.26.87,6.45,6.45,0,0,1,2.34,2.33,6.36,6.36,0,0,1,.87,3.28,6.17,6.17,0,0,1-.56,2.71,6.66,6.66,0,0,1-1.5,2,6.76,6.76,0,0,1-2.08,1.29A6.35,6.35,0,0,1,141.88,31Zm0-3.77a2.78,2.78,0,0,0,1.22-.3,2.67,2.67,0,0,0,1-.9,2.54,2.54,0,0,0,.43-1.53,2.77,2.77,0,0,0-.35-1.4,2.39,2.39,0,0,0-1-.93,2.83,2.83,0,0,0-1.41-.34,2.51,2.51,0,0,0-1.34.35,2.65,2.65,0,0,0-.95,1,2.7,2.7,0,0,0-.37,1.39,2.61,2.61,0,0,0,.42,1.51,2.47,2.47,0,0,0,1,.9A3,3,0,0,0,141.83,27.27Z"/><path class="cls-2" d="M155.13,30.85a14.2,14.2,0,0,1-1.83-.1,3.9,3.9,0,0,1-1.35-.4,2.42,2.42,0,0,1-.9-.84,4,4,0,0,1-.52-1.38,9.9,9.9,0,0,1-.18-2.06V14.52a3.82,3.82,0,0,1,.1-.92,1.15,1.15,0,0,1,.49-.7,2.27,2.27,0,0,1,1.31-.28,2.33,2.33,0,0,1,1.29.28,1.18,1.18,0,0,1,.49.7,4.4,4.4,0,0,1,.1.92V25.9a4,4,0,0,0,0,.66.77.77,0,0,0,.15.41.49.49,0,0,0,.31.2,1.9,1.9,0,0,0,.52,0,2.55,2.55,0,0,1,.61.08.89.89,0,0,1,.54.45,2.56,2.56,0,0,1,.23,1.25,2.79,2.79,0,0,1-.23,1.3.88.88,0,0,1-.54.48A2.7,2.7,0,0,1,155.13,30.85Z"/><path class="cls-2" d="M164.35,31.05a6.29,6.29,0,0,1-2.34-.46,7.24,7.24,0,0,1-2.11-1.31,6.38,6.38,0,0,1-1.51-2,6.47,6.47,0,0,1,0-5.15A6.83,6.83,0,0,1,159.76,20a6.75,6.75,0,0,1,2.06-1.41,6,6,0,0,1,2.49-.51,6.23,6.23,0,0,1,3.26.86,6.56,6.56,0,0,1,2.34,2.34,6.3,6.3,0,0,1,.87,3.27,6.46,6.46,0,0,1-4.14,6A6.15,6.15,0,0,1,164.35,31.05Zm0-3.77a2.85,2.85,0,0,0,1.23-.3,2.81,2.81,0,0,0,1.05-.9,2.6,2.6,0,0,0,.42-1.52,2.74,2.74,0,0,0-.34-1.4,2.5,2.5,0,0,0-1-.94,2.8,2.8,0,0,0-1.41-.34A2.59,2.59,0,0,0,162,23.19a2.93,2.93,0,0,0,0,2.9,2.49,2.49,0,0,0,1,.9A2.9,2.9,0,0,0,164.3,27.28Z"/><path class="cls-2" d="M174.68,30.86a2.52,2.52,0,0,1-1.32-.26,1.08,1.08,0,0,1-.47-.71,4.73,4.73,0,0,1-.09-.93V20.24a5.28,5.28,0,0,1,.08-.93,1.12,1.12,0,0,1,.49-.69,2.59,2.59,0,0,1,1.33-.26,2.5,2.5,0,0,1,1.26.24,1.06,1.06,0,0,1,.49.55,2.08,2.08,0,0,1,.1.54l-.3.15a2.39,2.39,0,0,1,.26-.37,3.57,3.57,0,0,1,.59-.54,3.14,3.14,0,0,1,.91-.49,3.62,3.62,0,0,1,1.24-.2,4.66,4.66,0,0,1,.61,0,3.14,3.14,0,0,1,.7.15,2.47,2.47,0,0,1,.66.3,1.66,1.66,0,0,1,.49.46,1.21,1.21,0,0,1,.19.68,3,3,0,0,1-.48,1.73,1.4,1.4,0,0,1-1.2.71,2.11,2.11,0,0,1-.6-.06,1,1,0,0,1-.29-.15.93.93,0,0,0-.26-.15,1.68,1.68,0,0,0-.55-.06,2.34,2.34,0,0,0-.71.1,2,2,0,0,0-.63.31,1.54,1.54,0,0,0-.45.53,1.46,1.46,0,0,0-.16.71V29a4.46,4.46,0,0,1-.09.91,1,1,0,0,1-.49.69A2.58,2.58,0,0,1,174.68,30.86Z"/><path class="cls-2" d="M190.08,31.1a7.46,7.46,0,0,1-3-.58A5.86,5.86,0,0,1,185,29a6.57,6.57,0,0,1-1.2-2.08,7.19,7.19,0,0,1-.4-2.3,6.45,6.45,0,0,1,.86-3.33A6,6,0,0,1,186.62,19a7,7,0,0,1,3.46-.84,6.35,6.35,0,0,1,2.51.46,5,5,0,0,1,1.75,1.21,5.18,5.18,0,0,1,1,1.58,4.31,4.31,0,0,1,.33,1.63A2.82,2.82,0,0,1,195,25.1a2.25,2.25,0,0,1-1.69.67H187.4a1.75,1.75,0,0,0,.47,1.07,2.69,2.69,0,0,0,1,.7,3.7,3.7,0,0,0,1.33.26,6.41,6.41,0,0,0,1-.07,4.3,4.3,0,0,0,.79-.17l.59-.23.49-.18a1.81,1.81,0,0,1,.42-.1,1,1,0,0,1,.68.21,2.09,2.09,0,0,1,.57.71,1.75,1.75,0,0,1,.24.53,2.14,2.14,0,0,1,.06.5,1.34,1.34,0,0,1-.61,1.09,4.91,4.91,0,0,1-1.73.73A11.42,11.42,0,0,1,190.08,31.1Zm-2.68-7.41h3.95a1,1,0,0,0,.58-.14.62.62,0,0,0,.2-.54,1.18,1.18,0,0,0-.28-.77,1.61,1.61,0,0,0-.73-.54,2.8,2.8,0,0,0-1.09-.19,3,3,0,0,0-1.35.3,2.47,2.47,0,0,0-.94.8A1.91,1.91,0,0,0,187.4,23.69Z"/><path class="cls-2" d="M208,30.86a2.3,2.3,0,0,1-1.37-.33.89.89,0,0,1-.43-.8l.25-.42a3,3,0,0,1-.57.61,4.17,4.17,0,0,1-2.78.93,4.88,4.88,0,0,1-2.19-.5A5.7,5.7,0,0,1,199.08,29a7,7,0,0,1-1.28-2,6.15,6.15,0,0,1-.47-2.37,6,6,0,0,1,.47-2.34,6.9,6.9,0,0,1,1.29-2,6.7,6.7,0,0,1,1.84-1.36,5,5,0,0,1,2.18-.5,4.09,4.09,0,0,1,1.57.27,4.15,4.15,0,0,1,1.09.61,3.2,3.2,0,0,1,.66.68l-.22-.35a1.06,1.06,0,0,1,.43-.92,2.44,2.44,0,0,1,1.39-.31,2.24,2.24,0,0,1,1.29.28,1.07,1.07,0,0,1,.47.72,4.86,4.86,0,0,1,.09.95V29a4.7,4.7,0,0,1-.09.92,1.07,1.07,0,0,1-.48.71A2.37,2.37,0,0,1,208,30.86Zm-4.37-3.73a2.13,2.13,0,0,0,1.2-.34,2.57,2.57,0,0,0,.85-.91,2.6,2.6,0,0,0,.32-1.27,2.47,2.47,0,0,0-.32-1.29,2.42,2.42,0,0,0-.88-.89,2.3,2.3,0,0,0-1.22-.33,2.42,2.42,0,0,0-1.26.34,2.53,2.53,0,0,0-.9.91,2.5,2.5,0,0,0-.34,1.3,2.34,2.34,0,0,0,.34,1.24,2.56,2.56,0,0,0,2.21,1.24Z"/><path class="cls-2" d="M224.27,30.87a5.4,5.4,0,0,1-2.17-.45,5.5,5.5,0,0,1-1.75-1.27,5.64,5.64,0,0,1-1.16-1.92,6.91,6.91,0,0,1-.41-2.44V20.26a4.42,4.42,0,0,1,.09-.92,1.08,1.08,0,0,1,.49-.7,2.4,2.4,0,0,1,1.32-.28,2.33,2.33,0,0,1,1.31.28,1.12,1.12,0,0,1,.48.71,4.69,4.69,0,0,1,.09.94v4.5a2.92,2.92,0,0,0,.26,1.26,1.88,1.88,0,0,0,.78.82,2.54,2.54,0,0,0,1.21.27,2.42,2.42,0,0,0,1.24-.29,2,2,0,0,0,.8-.81,2.57,2.57,0,0,0,.29-1.25V20.24a4.42,4.42,0,0,1,.09-.92,1.06,1.06,0,0,1,.49-.69,2.54,2.54,0,0,1,1.32-.26,2.35,2.35,0,0,1,1.31.27,1.17,1.17,0,0,1,.48.72,4.46,4.46,0,0,1,.09.91v8.8a4.19,4.19,0,0,1-.09.89,1,1,0,0,1-.49.66,2.5,2.5,0,0,1-1.3.25,2.92,2.92,0,0,1-1.05-.15,1.21,1.21,0,0,1-.54-.38,1.06,1.06,0,0,1-.22-.47,3.91,3.91,0,0,1,0-.45l.32-.28a2.39,2.39,0,0,1-.32.39,4.58,4.58,0,0,1-.67.57,4,4,0,0,1-1,.54A3.36,3.36,0,0,1,224.27,30.87Z"/><path class="cls-2" d="M235.27,30.87a2.5,2.5,0,0,1-1.31-.26,1.08,1.08,0,0,1-.47-.7,4.53,4.53,0,0,1-.09-.91V20.2a4.15,4.15,0,0,1,.08-.89,1,1,0,0,1,.49-.66,2.6,2.6,0,0,1,1.33-.25,2.49,2.49,0,0,1,1.17.21,1,1,0,0,1,.49.51,1.74,1.74,0,0,1,.11.57,1,1,0,0,0,0,.36l-.15.47a1.43,1.43,0,0,1,.39-.76,3.53,3.53,0,0,1,.85-.7,4.32,4.32,0,0,1,1.1-.48,4,4,0,0,1,1.16-.18,5.05,5.05,0,0,1,2.14.44,4.41,4.41,0,0,1,1.59,1.26,5.81,5.81,0,0,1,1,1.94,8.22,8.22,0,0,1,.34,2.44V29a4.46,4.46,0,0,1-.09.91,1.06,1.06,0,0,1-.48.69,2.68,2.68,0,0,1-1.34.25,2.46,2.46,0,0,1-1.32-.27,1,1,0,0,1-.49-.7,4.47,4.47,0,0,1-.08-.91V24.48a2.92,2.92,0,0,0-.26-1.28,1.88,1.88,0,0,0-.75-.8,2.49,2.49,0,0,0-1.21-.27,2.61,2.61,0,0,0-1.26.28,2,2,0,0,0-.81.81,2.59,2.59,0,0,0-.29,1.25V29a4.56,4.56,0,0,1-.09.92,1,1,0,0,1-.47.68A2.53,2.53,0,0,1,235.27,30.87Z"/><path class="cls-2" d="M260.67,31a6.35,6.35,0,0,1-2.23-.41,7.13,7.13,0,0,1-2.1-1.21,5.93,5.93,0,0,1-1.54-2,6.32,6.32,0,0,1-.57-2.75,5.86,5.86,0,0,1,2.1-4.69,6.78,6.78,0,0,1,2.09-1.22,6.57,6.57,0,0,1,2.21-.41,5.66,5.66,0,0,1,1.66.22,5.23,5.23,0,0,1,1.25.51,3.57,3.57,0,0,1,.74.53,7,7,0,0,1,.75.65,1,1,0,0,1,.3.85,1.59,1.59,0,0,1-.18.56,4.36,4.36,0,0,1-.37.59c-.52.7-1,1-1.5,1a2.59,2.59,0,0,1-.69-.26c-.21-.11-.41-.23-.6-.35a5.81,5.81,0,0,0-.61-.31,2,2,0,0,0-.75-.14,2.53,2.53,0,0,0-2.21,1.24,2.44,2.44,0,0,0-.34,1.31,2.56,2.56,0,0,0,.33,1.3,2.64,2.64,0,0,0,.9.92,2.48,2.48,0,0,0,1.27.33,2.37,2.37,0,0,0,.72-.1,2.17,2.17,0,0,0,.55-.23l.35-.22.58-.36a1,1,0,0,1,.55-.16,1.25,1.25,0,0,1,.73.26,4.38,4.38,0,0,1,.82.84,2.07,2.07,0,0,1,.48,1,1.24,1.24,0,0,1-.21.86,2.67,2.67,0,0,1-.85.76,3.69,3.69,0,0,1-.71.45,7.55,7.55,0,0,1-1.25.5A5.77,5.77,0,0,1,260.67,31Z"/><path class="cls-2" d="M273,30.9a5.29,5.29,0,0,1-2.18-.46,5.43,5.43,0,0,1-1.75-1.26,5.92,5.92,0,0,1-1.16-1.93,7,7,0,0,1-.41-2.43V20.29a4.44,4.44,0,0,1,.08-.92,1.08,1.08,0,0,1,.49-.7,3.25,3.25,0,0,1,2.64,0,1.1,1.1,0,0,1,.47.71,4.69,4.69,0,0,1,.09.94v4.5a2.78,2.78,0,0,0,.26,1.26,1.8,1.8,0,0,0,.77.82,2.58,2.58,0,0,0,1.22.27,2.38,2.38,0,0,0,1.23-.29,2,2,0,0,0,.8-.81,2.46,2.46,0,0,0,.29-1.25V20.27a4.42,4.42,0,0,1,.09-.92,1,1,0,0,1,.49-.69,2.59,2.59,0,0,1,1.33-.26,2.39,2.39,0,0,1,1.31.27,1.15,1.15,0,0,1,.47.72,4.46,4.46,0,0,1,.09.91v8.8a5,5,0,0,1-.08.89,1.06,1.06,0,0,1-.49.66,2.52,2.52,0,0,1-1.3.25,2.92,2.92,0,0,1-1.05-.15,1.25,1.25,0,0,1-.55-.38.94.94,0,0,1-.21-.47,2.57,2.57,0,0,1,0-.45l.32-.28a1.86,1.86,0,0,1-.32.39,5.91,5.91,0,0,1-.66.57,4.28,4.28,0,0,1-1,.54A3.31,3.31,0,0,1,273,30.9Z"/><path class="cls-2" d="M292.32,30.91a2.33,2.33,0,0,1-1.37-.33.92.92,0,0,1-.43-.8l.25-.42a2.7,2.7,0,0,1-.57.61,4.28,4.28,0,0,1-1.11.65,4.39,4.39,0,0,1-1.67.28,4.87,4.87,0,0,1-2.18-.5A5.74,5.74,0,0,1,283.4,29a7,7,0,0,1-1.27-2,6,6,0,0,1-.48-2.37,5.83,5.83,0,0,1,.48-2.34,6.9,6.9,0,0,1,1.29-2A6.42,6.42,0,0,1,285.26,19a4.9,4.9,0,0,1,2.17-.5,4.14,4.14,0,0,1,1.58.27,4.24,4.24,0,0,1,1.08.61,3.27,3.27,0,0,1,.67.68l-.23-.35a1.07,1.07,0,0,1,.44-.92,2.48,2.48,0,0,1,1.39-.31,2.18,2.18,0,0,1,1.28.28,1.11,1.11,0,0,1,.48.72,4.86,4.86,0,0,1,.09.95V29a4.63,4.63,0,0,1-.09.92,1.14,1.14,0,0,1-.47.72A2.52,2.52,0,0,1,292.32,30.91ZM288,27.18a2.13,2.13,0,0,0,1.2-.34,2.57,2.57,0,0,0,.85-.91,2.51,2.51,0,0,0,.33-1.27,2.48,2.48,0,0,0-.33-1.29,2.32,2.32,0,0,0-.87-.89,2.36,2.36,0,0,0-1.23-.33,2.48,2.48,0,0,0-1.26.34,2.7,2.7,0,0,0-.9.91,2.6,2.6,0,0,0-.34,1.3,2.31,2.31,0,0,0,.34,1.24,2.41,2.41,0,0,0,.92.9A2.49,2.49,0,0,0,288,27.18Z"/><path class="cls-2" d="M302.05,30.91a5,5,0,0,1-2.18-.49,5.83,5.83,0,0,1-1.82-1.36,6.7,6.7,0,0,1-1.26-2,6.35,6.35,0,0,1-.46-2.42,6,6,0,0,1,.46-2.33,6.48,6.48,0,0,1,1.28-2A6.24,6.24,0,0,1,299.91,19a4.88,4.88,0,0,1,2.15-.5,4.28,4.28,0,0,1,3.63,1.83,6.48,6.48,0,0,1,.94,2,9.53,9.53,0,0,1,.35,2.35,9.28,9.28,0,0,1-.3,2.4,6.18,6.18,0,0,1-.93,2,4.58,4.58,0,0,1-1.55,1.39A4.41,4.41,0,0,1,302.05,30.91Zm.5-3.7a2.27,2.27,0,0,0,1.21-.33,2.68,2.68,0,0,0,.88-.92,2.49,2.49,0,0,0,.34-1.27,2.52,2.52,0,0,0-1.2-2.16,2.3,2.3,0,0,0-1.25-.34,2.52,2.52,0,0,0-1.24.32,2.28,2.28,0,0,0-.87.9,2.61,2.61,0,0,0-.32,1.28,2.51,2.51,0,0,0,.33,1.27,2.34,2.34,0,0,0,.9.92A2.4,2.4,0,0,0,302.55,27.21Zm4.35,3.73a2.31,2.31,0,0,1-1.26-.27,1.3,1.3,0,0,1-.54-.86V14.67a6.77,6.77,0,0,1,.06-.92,1,1,0,0,1,.44-.71,2.16,2.16,0,0,1,1.27-.27,2.39,2.39,0,0,1,1.33.26,1.08,1.08,0,0,1,.47.69,3.82,3.82,0,0,1,.1.92V29a5.31,5.31,0,0,1-.08.91,1.14,1.14,0,0,1-.48.72A2.39,2.39,0,0,1,306.9,30.94Z"/><path class="cls-2" d="M313.17,30.94a2.41,2.41,0,0,1-1.31-.26,1,1,0,0,1-.47-.71,4.73,4.73,0,0,1-.09-.93V20.32a4.59,4.59,0,0,1,.09-.93,1,1,0,0,1,.49-.68,2.47,2.47,0,0,1,1.33-.27,2.61,2.61,0,0,1,1.26.24,1.06,1.06,0,0,1,.49.55,2,2,0,0,1,.09.54l-.29.15a2,2,0,0,1,.26-.36,3.2,3.2,0,0,1,.59-.55,3.71,3.71,0,0,1,.91-.49,3.62,3.62,0,0,1,1.24-.2,4.66,4.66,0,0,1,.61,0,4.89,4.89,0,0,1,.7.15,3.32,3.32,0,0,1,.66.3,1.8,1.8,0,0,1,.49.46,1.15,1.15,0,0,1,.18.68,3.06,3.06,0,0,1-.47,1.74,1.42,1.42,0,0,1-1.2.71,1.66,1.66,0,0,1-.6-.07,1,1,0,0,1-.29-.15l-.26-.15A1.68,1.68,0,0,0,317,22a2.34,2.34,0,0,0-.71.1,2.06,2.06,0,0,0-.63.31,1.63,1.63,0,0,0-.45.53,1.49,1.49,0,0,0-.16.71V29.1A5.4,5.4,0,0,1,315,30a1.07,1.07,0,0,1-.49.69A2.62,2.62,0,0,1,313.17,30.94Z"/><path class="cls-2" d="M332.57,30.93a2.41,2.41,0,0,1-1.37-.32.93.93,0,0,1-.43-.8l.25-.43a2.72,2.72,0,0,1-.57.61,4.28,4.28,0,0,1-1.11.65,4.38,4.38,0,0,1-1.67.29,5,5,0,0,1-2.18-.5A5.93,5.93,0,0,1,323.65,29a6.91,6.91,0,0,1-1.27-2,6,6,0,0,1-.48-2.37,5.83,5.83,0,0,1,.48-2.34,6.34,6.34,0,0,1,1.29-2A6.07,6.07,0,0,1,325.51,19a4.77,4.77,0,0,1,2.17-.5,4.35,4.35,0,0,1,1.58.26,4.57,4.57,0,0,1,1.08.61A3.45,3.45,0,0,1,331,20l-.22-.35a1.05,1.05,0,0,1,.44-.91,2.4,2.4,0,0,1,1.39-.31,2.3,2.3,0,0,1,1.28.27,1.16,1.16,0,0,1,.48.73,4.81,4.81,0,0,1,.08.95V29a4.73,4.73,0,0,1-.09.93,1.09,1.09,0,0,1-.47.71A2.52,2.52,0,0,1,332.57,30.93ZM328.2,27.2a2.21,2.21,0,0,0,1.2-.33,2.66,2.66,0,0,0,.85-.91,2.67,2.67,0,0,0,0-2.57,2.35,2.35,0,0,0-2.1-1.21,2.38,2.38,0,0,0-1.26.34,2.53,2.53,0,0,0-.9.91,2.45,2.45,0,0,0-.34,1.3A2.28,2.28,0,0,0,326,26a2.51,2.51,0,0,0,.92.91A2.58,2.58,0,0,0,328.2,27.2Z"/><path class="cls-2" d="M342.3,30.94a5.11,5.11,0,0,1-2.18-.49,5.86,5.86,0,0,1-1.82-1.37,6.7,6.7,0,0,1-1.26-2,6.3,6.3,0,0,1-.46-2.41,6,6,0,0,1,.46-2.34,6.32,6.32,0,0,1,1.28-2A6.07,6.07,0,0,1,340.16,19a4.7,4.7,0,0,1,2.14-.5,4.31,4.31,0,0,1,3.64,1.82,6.48,6.48,0,0,1,.94,2,9.53,9.53,0,0,1,.35,2.35,9.28,9.28,0,0,1-.3,2.4,6.23,6.23,0,0,1-.93,2,4.9,4.9,0,0,1-1.55,1.39A4.41,4.41,0,0,1,342.3,30.94Zm.5-3.7A2.19,2.19,0,0,0,344,26.9a2.65,2.65,0,0,0,.88-.91,2.52,2.52,0,0,0,.34-1.28,2.47,2.47,0,0,0-.33-1.26,2.58,2.58,0,0,0-.87-.9,2.48,2.48,0,0,0-2.49,0,2.24,2.24,0,0,0-.88.9,2.68,2.68,0,0,0-.31,1.27,2.54,2.54,0,0,0,.33,1.28,2.38,2.38,0,0,0,.9.91A2.41,2.41,0,0,0,342.8,27.24ZM347.15,31a2.31,2.31,0,0,1-1.26-.27,1.27,1.27,0,0,1-.54-.85V14.69a6.62,6.62,0,0,1,.06-.91,1.07,1.07,0,0,1,.44-.72,2.24,2.24,0,0,1,1.27-.27,2.49,2.49,0,0,1,1.33.26,1.13,1.13,0,0,1,.47.69,3.84,3.84,0,0,1,.1.93v14.4a5.4,5.4,0,0,1-.08.91,1.12,1.12,0,0,1-.48.71A2.39,2.39,0,0,1,347.15,31Z"/><path class="cls-2" d="M357.55,31.17a6.21,6.21,0,0,1-2.34-.46,7.06,7.06,0,0,1-2.11-1.32,6.17,6.17,0,0,1-1.51-2,6,6,0,0,1-.56-2.63,6.16,6.16,0,0,1,.51-2.51A6.72,6.72,0,0,1,355,18.73a6.09,6.09,0,0,1,2.49-.51,6.38,6.38,0,0,1,3.26.86,6.61,6.61,0,0,1,2.33,2.34A6.27,6.27,0,0,1,364,24.7a6.17,6.17,0,0,1-.57,2.71,6.35,6.35,0,0,1-1.5,2,6.68,6.68,0,0,1-2.07,1.28A6.21,6.21,0,0,1,357.55,31.17Zm-.05-3.77a2.89,2.89,0,0,0,2.28-1.2,2.61,2.61,0,0,0,.42-1.53,2.67,2.67,0,0,0-.35-1.4,2.48,2.48,0,0,0-1-.94,2.94,2.94,0,0,0-1.41-.33,2.51,2.51,0,0,0-1.34.35,2.65,2.65,0,0,0-.95,1,2.68,2.68,0,0,0-.36,1.38,2.64,2.64,0,0,0,.41,1.52,2.47,2.47,0,0,0,1,.9A3,3,0,0,0,357.5,27.4Z"/><text class="cls-4" transform="matrix(0.97, 0, 0, 1, 42.78, 37.89)">4.2</text><text class="cls-5" transform="matrix(0.97, 0, 0, 1, 42.78, 37.89)">4.2</text></g></g></svg>