<svg xmlns="http://www.w3.org/2000/svg" viewBox="0 0 401.16 89.53"><defs><style>.cls-1{fill:#0468ad;}.cls-2{fill:#fff;}.cls-3,.cls-4{fill:none;stroke-width:5px;}.cls-3{stroke:#c8a927;stroke-linejoin:round;}.cls-4,.cls-5{font-size:42px;font-family:Coiny-Regular, Coiny;}.cls-4{stroke:#fff;}.cls-5{fill:#c8a927;}</style></defs><title>43t</title><g id="Layer_2" data-name="Layer 2"><g id="pestaña_identificativa" data-name="pestaña identificativa"><rect class="cls-1" y="1.2" width="401.16" height="88.33" rx="32.4"/><path class="cls-2" d="M127.16,31a8.58,8.58,0,0,1-2.33-.34,9.24,9.24,0,0,1-2.41-1.05,9.06,9.06,0,0,1-2.14-1.79,8.05,8.05,0,0,1-1.51-2.55,9.36,9.36,0,0,1-.56-3.32,8.8,8.8,0,0,1,.56-3.24,8.09,8.09,0,0,1,1.52-2.46,8.84,8.84,0,0,1,2.13-1.74,9.91,9.91,0,0,1,2.41-1,8.84,8.84,0,0,1,2.39-.34,7,7,0,0,1,2.22.31,8.43,8.43,0,0,1,1.54.62l.76.43a7.64,7.64,0,0,1,.85.65,1.17,1.17,0,0,1,.42.9,1.59,1.59,0,0,1-.11.6,2.29,2.29,0,0,1-.34.6,3.14,3.14,0,0,1-.77.83,1.25,1.25,0,0,1-.73.27,1.16,1.16,0,0,1-.57-.15c-.19-.1-.4-.24-.65-.4s-.29-.19-.5-.32a4,4,0,0,0-.89-.34,5.78,5.78,0,0,0-3.15.15,5.07,5.07,0,0,0-1.64.93,4.45,4.45,0,0,0-1.2,1.58,5.35,5.35,0,0,0-.45,2.27,5.11,5.11,0,0,0,.46,2.25,4.75,4.75,0,0,0,1.21,1.57,5.29,5.29,0,0,0,1.64.94,5.16,5.16,0,0,0,1.74.31,4.66,4.66,0,0,0,1.27-.15,5,5,0,0,0,.93-.36l.67-.38a6.48,6.48,0,0,1,.57-.33,1.22,1.22,0,0,1,.58-.15,1.17,1.17,0,0,1,.72.28,3.2,3.2,0,0,1,.73.87,3.07,3.07,0,0,1,.34.64,1.92,1.92,0,0,1,.11.61,1.07,1.07,0,0,1-.41.86,8.5,8.5,0,0,1-.86.62l-.75.43a7.07,7.07,0,0,1-1.53.63A8,8,0,0,1,127.16,31Z"/><path class="cls-2" d="M141.15,31a6.2,6.2,0,0,1-2.33-.46,6.94,6.94,0,0,1-2.11-1.32,6.08,6.08,0,0,1-2.08-4.67,6.16,6.16,0,0,1,.52-2.51A6.67,6.67,0,0,1,136.56,20a6.93,6.93,0,0,1,2.06-1.41,6.16,6.16,0,0,1,2.49-.51,6.24,6.24,0,0,1,3.26.87,6.45,6.45,0,0,1,2.34,2.33,6.71,6.71,0,0,1,.31,6,6.66,6.66,0,0,1-1.5,2,6.57,6.57,0,0,1-2.08,1.29A6.36,6.36,0,0,1,141.15,31Zm0-3.77a2.78,2.78,0,0,0,1.22-.3,2.67,2.67,0,0,0,1-.9,2.54,2.54,0,0,0,.43-1.53,2.77,2.77,0,0,0-.35-1.4,2.39,2.39,0,0,0-1-.93,2.83,2.83,0,0,0-1.41-.34,2.51,2.51,0,0,0-1.34.35,2.65,2.65,0,0,0-.95,1,2.7,2.7,0,0,0-.37,1.39,2.61,2.61,0,0,0,.42,1.51,2.47,2.47,0,0,0,1,.9A3,3,0,0,0,141.11,27.27Z"/><path class="cls-2" d="M154.41,30.85a14.2,14.2,0,0,1-1.83-.1,3.9,3.9,0,0,1-1.35-.4,2.42,2.42,0,0,1-.9-.84,4,4,0,0,1-.52-1.38,9.9,9.9,0,0,1-.18-2.06V14.52a3.82,3.82,0,0,1,.1-.92,1.15,1.15,0,0,1,.49-.7,2.27,2.27,0,0,1,1.31-.28,2.33,2.33,0,0,1,1.29.28,1.18,1.18,0,0,1,.49.7,4.4,4.4,0,0,1,.1.92V25.9a5.86,5.86,0,0,0,0,.66.82.82,0,0,0,.16.41.45.45,0,0,0,.31.2,1.86,1.86,0,0,0,.52.06,2.54,2.54,0,0,1,.61.07.89.89,0,0,1,.54.45,2.56,2.56,0,0,1,.23,1.25,2.79,2.79,0,0,1-.23,1.3.88.88,0,0,1-.54.48A2.7,2.7,0,0,1,154.41,30.85Z"/><path class="cls-2" d="M163.63,31.06a6.51,6.51,0,0,1-2.34-.47,7.24,7.24,0,0,1-2.11-1.31,6.38,6.38,0,0,1-1.51-2,6.47,6.47,0,0,1,0-5.15A6.83,6.83,0,0,1,159,20a6.63,6.63,0,0,1,2.06-1.41,6.13,6.13,0,0,1,2.49-.51,6.23,6.23,0,0,1,3.26.86,6.72,6.72,0,0,1,2.34,2.34,6.3,6.3,0,0,1,.87,3.27A6.22,6.22,0,0,1,168,29.33a6.53,6.53,0,0,1-4.36,1.73Zm0-3.78a2.85,2.85,0,0,0,1.23-.3,2.81,2.81,0,0,0,1.05-.9,2.6,2.6,0,0,0,.42-1.52,2.65,2.65,0,0,0-.35-1.4,2.41,2.41,0,0,0-1-.94,2.83,2.83,0,0,0-1.41-.34,2.6,2.6,0,0,0-1.34.35,2.65,2.65,0,0,0-.95,1,2.93,2.93,0,0,0,0,2.9,2.49,2.49,0,0,0,1,.9A2.9,2.9,0,0,0,163.58,27.28Z"/><path class="cls-2" d="M174,30.86a2.5,2.5,0,0,1-1.31-.26,1.08,1.08,0,0,1-.47-.71,4.73,4.73,0,0,1-.09-.93V20.24a5.28,5.28,0,0,1,.08-.93,1.08,1.08,0,0,1,.49-.69,2.59,2.59,0,0,1,1.33-.26,2.5,2.5,0,0,1,1.26.24,1.06,1.06,0,0,1,.49.55,2.08,2.08,0,0,1,.1.54l-.3.15a2,2,0,0,1,.26-.36,3.2,3.2,0,0,1,.59-.55,3.14,3.14,0,0,1,.91-.49,3.62,3.62,0,0,1,1.24-.2,4.66,4.66,0,0,1,.61,0,3.14,3.14,0,0,1,.7.15,2.47,2.47,0,0,1,.66.3,1.66,1.66,0,0,1,.49.46,1.24,1.24,0,0,1,.19.68,3,3,0,0,1-.48,1.73,1.41,1.41,0,0,1-1.2.72,2.43,2.43,0,0,1-.6-.07,1,1,0,0,1-.29-.15.93.93,0,0,0-.26-.15,1.68,1.68,0,0,0-.55-.06,2.34,2.34,0,0,0-.71.1,2.06,2.06,0,0,0-.63.31,1.54,1.54,0,0,0-.45.53,1.46,1.46,0,0,0-.16.71V29a4.63,4.63,0,0,1-.09.92,1,1,0,0,1-.49.68A2.6,2.6,0,0,1,174,30.86Z"/><path class="cls-2" d="M189.35,31.1a7.28,7.28,0,0,1-3-.58A5.74,5.74,0,0,1,184.28,29a6.57,6.57,0,0,1-1.2-2.08,7.19,7.19,0,0,1-.4-2.3,6.45,6.45,0,0,1,.86-3.33A6,6,0,0,1,185.9,19a7,7,0,0,1,3.46-.84,6.35,6.35,0,0,1,2.51.46,5,5,0,0,1,1.75,1.21,5.18,5.18,0,0,1,1,1.58,4.51,4.51,0,0,1,.33,1.63,2.82,2.82,0,0,1-.66,2.05,2.25,2.25,0,0,1-1.69.67h-5.95a1.8,1.8,0,0,0,.46,1.07,2.81,2.81,0,0,0,1,.7,3.5,3.5,0,0,0,1.33.26,6.41,6.41,0,0,0,1-.07,4.49,4.49,0,0,0,.79-.17l.59-.23.49-.18a2.53,2.53,0,0,1,.42-.1,1,1,0,0,1,.68.21,2.22,2.22,0,0,1,.57.71,1.75,1.75,0,0,1,.24.53,2.14,2.14,0,0,1,.06.5,1.34,1.34,0,0,1-.61,1.09,4.91,4.91,0,0,1-1.73.73A11,11,0,0,1,189.35,31.1Zm-2.67-7.41h3.95a1,1,0,0,0,.58-.14.62.62,0,0,0,.2-.54,1.18,1.18,0,0,0-.28-.77,1.61,1.61,0,0,0-.73-.54,2.8,2.8,0,0,0-1.09-.19,3,3,0,0,0-1.35.3,2.47,2.47,0,0,0-.94.8A1.91,1.91,0,0,0,186.68,23.69Z"/><path class="cls-2" d="M207.28,30.86a2.34,2.34,0,0,1-1.38-.33.89.89,0,0,1-.42-.8l.25-.42a2.8,2.8,0,0,1-.58.61,4.11,4.11,0,0,1-1.11.65,4.34,4.34,0,0,1-1.66.28,4.88,4.88,0,0,1-2.19-.5A5.85,5.85,0,0,1,198.35,29a7.21,7.21,0,0,1-1.27-2,6.15,6.15,0,0,1-.47-2.37,6,6,0,0,1,.47-2.34,6.9,6.9,0,0,1,1.29-2,6.7,6.7,0,0,1,1.84-1.36,4.94,4.94,0,0,1,2.18-.5,4.09,4.09,0,0,1,1.57.27,4.32,4.32,0,0,1,1.09.61,3.2,3.2,0,0,1,.66.68l-.22-.35a1.06,1.06,0,0,1,.43-.92,2.53,2.53,0,0,1,1.39-.31,2.24,2.24,0,0,1,1.29.28,1.07,1.07,0,0,1,.47.72,4.86,4.86,0,0,1,.09.95V29a4.7,4.7,0,0,1-.09.92,1.07,1.07,0,0,1-.48.71A2.37,2.37,0,0,1,207.28,30.86Zm-4.37-3.73a2.13,2.13,0,0,0,1.2-.34,2.57,2.57,0,0,0,.85-.91,2.6,2.6,0,0,0,.32-1.27,2.47,2.47,0,0,0-.32-1.29,2.42,2.42,0,0,0-.88-.89,2.3,2.3,0,0,0-1.22-.33,2.42,2.42,0,0,0-1.26.34,2.53,2.53,0,0,0-.9.91,2.5,2.5,0,0,0-.34,1.3,2.42,2.42,0,0,0,.33,1.24,2.6,2.6,0,0,0,2.22,1.24Z"/><path class="cls-2" d="M224.38,31.12a7.25,7.25,0,0,1-3-.58A5.75,5.75,0,0,1,219.31,29a6.25,6.25,0,0,1-1.2-2.09,6.88,6.88,0,0,1-.4-2.3,6.45,6.45,0,0,1,.85-3.33A6.09,6.09,0,0,1,220.92,19a7,7,0,0,1,3.47-.84,6.24,6.24,0,0,1,2.51.47,5.08,5.08,0,0,1,1.75,1.2,4.89,4.89,0,0,1,1,1.59,4.25,4.25,0,0,1,.34,1.62,2.82,2.82,0,0,1-.66,2.05,2.28,2.28,0,0,1-1.69.67h-5.95a1.71,1.71,0,0,0,.46,1.08,2.77,2.77,0,0,0,1,.7,3.6,3.6,0,0,0,1.32.25,6.63,6.63,0,0,0,1-.07,3.74,3.74,0,0,0,.79-.17l.58-.22c.18-.08.34-.14.49-.19a2.41,2.41,0,0,1,.43-.1,1,1,0,0,1,.67.21,2.06,2.06,0,0,1,.58.72,1.8,1.8,0,0,1,.23.52,2.14,2.14,0,0,1,.06.5,1.34,1.34,0,0,1-.61,1.09,4.68,4.68,0,0,1-1.72.73A11.06,11.06,0,0,1,224.38,31.12Zm-2.67-7.41h3.95a1,1,0,0,0,.57-.14c.14-.09.2-.27.2-.54a1.23,1.23,0,0,0-.27-.77,1.8,1.8,0,0,0-.74-.54,3.2,3.2,0,0,0-2.44.11,2.36,2.36,0,0,0-.93.8A1.84,1.84,0,0,0,221.71,23.71Z"/><path class="cls-2" d="M236.9,30.9a14.14,14.14,0,0,1-1.82-.1,3.9,3.9,0,0,1-1.35-.4,2.42,2.42,0,0,1-.9-.84,4,4,0,0,1-.52-1.38,9.9,9.9,0,0,1-.18-2.06V14.57a3.82,3.82,0,0,1,.1-.92,1.15,1.15,0,0,1,.49-.7,2.25,2.25,0,0,1,1.31-.28,2.33,2.33,0,0,1,1.29.28,1.12,1.12,0,0,1,.48.7,3.82,3.82,0,0,1,.1.92V26a5.86,5.86,0,0,0,0,.66,1,1,0,0,0,.15.41.54.54,0,0,0,.32.2,1.86,1.86,0,0,0,.52.05,2.62,2.62,0,0,1,.61.08.89.89,0,0,1,.54.45,2.56,2.56,0,0,1,.23,1.25,2.93,2.93,0,0,1-.23,1.3.88.88,0,0,1-.54.48A2.73,2.73,0,0,1,236.9,30.9Z"/><path class="cls-2" d="M247.44,18.61h2.75l3.45-.1a4.43,4.43,0,0,1,.9.09,1.13,1.13,0,0,1,.7.49,2.41,2.41,0,0,1,.27,1.32,2.38,2.38,0,0,1-.26,1.25,1.15,1.15,0,0,1-.69.51,3.43,3.43,0,0,1-.93.12l-3.27-.08-3,0a1.26,1.26,0,0,1-1-.46,2.55,2.55,0,0,1-.29-1.39,2.08,2.08,0,0,1,.36-1.34A1.26,1.26,0,0,1,247.44,18.61Zm5.64,12.3a7.5,7.5,0,0,1-2.2-.28,3.37,3.37,0,0,1-2.39-2.31,7,7,0,0,1-.28-2.11V16.08a4.15,4.15,0,0,1,.09-.92,1.07,1.07,0,0,1,.49-.67,2.51,2.51,0,0,1,1.3-.26,2.39,2.39,0,0,1,1.3.28,1.13,1.13,0,0,1,.49.71,5.4,5.4,0,0,1,.08.91v9.93a3,3,0,0,0,.06.66.71.71,0,0,0,.19.39.68.68,0,0,0,.35.17,2.19,2.19,0,0,0,.55,0,4.67,4.67,0,0,1,1,.1,1.08,1.08,0,0,1,.66.46,2.13,2.13,0,0,1,.24,1.17,2.3,2.3,0,0,1-.28,1.3,1,1,0,0,1-.71.47A5.4,5.4,0,0,1,253.08,30.91Z"/><path class="cls-2" d="M259.3,30.91a2.41,2.41,0,0,1-1.31-.26,1,1,0,0,1-.47-.71,4.73,4.73,0,0,1-.09-.93V20.29a4.52,4.52,0,0,1,.09-.93,1.08,1.08,0,0,1,.49-.69,2.59,2.59,0,0,1,1.33-.26,2.5,2.5,0,0,1,1.26.24,1.06,1.06,0,0,1,.49.55,2,2,0,0,1,.09.54l-.29.15a2,2,0,0,1,.26-.36,3.2,3.2,0,0,1,.59-.55,3.4,3.4,0,0,1,.91-.49,3.62,3.62,0,0,1,1.24-.2,4.66,4.66,0,0,1,.61,0,3.14,3.14,0,0,1,.7.15,2.47,2.47,0,0,1,.66.3,1.66,1.66,0,0,1,.49.46,1.15,1.15,0,0,1,.18.68,3,3,0,0,1-.47,1.73,1.41,1.41,0,0,1-1.2.72,1.66,1.66,0,0,1-.6-.07,1,1,0,0,1-.29-.15.93.93,0,0,0-.26-.15,1.68,1.68,0,0,0-.55-.06,2.34,2.34,0,0,0-.71.1,2.06,2.06,0,0,0-.63.31,1.54,1.54,0,0,0-.45.53,1.46,1.46,0,0,0-.16.71v5.47a5.43,5.43,0,0,1-.08.92,1,1,0,0,1-.49.68A2.6,2.6,0,0,1,259.3,30.91Z"/><path class="cls-2" d="M270.51,16.62a2.43,2.43,0,0,1-1.35-.28,1,1,0,0,1-.48-.72,4.86,4.86,0,0,1-.09-.95,4.75,4.75,0,0,1,.09-1,1,1,0,0,1,.5-.7,2.57,2.57,0,0,1,1.36-.27,2.49,2.49,0,0,1,1.32.28,1.11,1.11,0,0,1,.49.73,4.92,4.92,0,0,1,.09,1,4.73,4.73,0,0,1-.09.93,1.07,1.07,0,0,1-.49.71A2.62,2.62,0,0,1,270.51,16.62Zm0,14.3a2.54,2.54,0,0,1-1.32-.26,1,1,0,0,1-.48-.7,5.45,5.45,0,0,1-.07-.92V20.32a4.46,4.46,0,0,1,.09-.91,1,1,0,0,1,.49-.7,2.47,2.47,0,0,1,1.33-.27,2.38,2.38,0,0,1,1.28.28,1.12,1.12,0,0,1,.48.71,4.77,4.77,0,0,1,.08.94v8.7a4.46,4.46,0,0,1-.09.91,1.05,1.05,0,0,1-.47.69A2.53,2.53,0,0,1,270.5,30.92Z"/><path class="cls-2" d="M285.25,30.9a2.41,2.41,0,0,1-1.37-.32.93.93,0,0,1-.43-.8l.25-.43a2.72,2.72,0,0,1-.57.61,4,4,0,0,1-1.11.65,4.2,4.2,0,0,1-1.67.29,5,5,0,0,1-2.18-.5A5.78,5.78,0,0,1,276.33,29a7,7,0,0,1-1.27-2,6,6,0,0,1-.48-2.38,5.82,5.82,0,0,1,.48-2.33A6.59,6.59,0,0,1,278.18,19a5,5,0,0,1,2.18-.5,4.26,4.26,0,0,1,1.57.26,4.16,4.16,0,0,1,1.09.62,3.43,3.43,0,0,1,.66.67l-.22-.35a1.05,1.05,0,0,1,.44-.91,2.4,2.4,0,0,1,1.39-.31,2.3,2.3,0,0,1,1.28.27,1.16,1.16,0,0,1,.48.73,4.87,4.87,0,0,1,.08.95V29a4.73,4.73,0,0,1-.09.93,1.09,1.09,0,0,1-.47.71A2.42,2.42,0,0,1,285.25,30.9Zm-4.37-3.72a2.21,2.21,0,0,0,1.2-.34,2.66,2.66,0,0,0,.85-.91,2.54,2.54,0,0,0,.33-1.28,2.46,2.46,0,0,0-.33-1.28,2.33,2.33,0,0,0-.87-.89,2.48,2.48,0,0,0-2.49,0,2.53,2.53,0,0,0-.9.91,2.47,2.47,0,0,0-.34,1.3,2.34,2.34,0,0,0,.34,1.24,2.56,2.56,0,0,0,.92.9A2.59,2.59,0,0,0,280.88,27.18ZM280,17.53a.88.88,0,0,1-.74-.25,2.71,2.71,0,0,1-.51-1,2,2,0,0,1-.1-1.31,1.38,1.38,0,0,1,.92-.67L284,13a.91.91,0,0,1,.73.29,2.53,2.53,0,0,1,.5,1,1.85,1.85,0,0,1,.08,1.27,1.32,1.32,0,0,1-.91.68Z"/><path class="cls-2" d="M291.5,30.91a2.39,2.39,0,0,1-1.31-.27,1,1,0,0,1-.47-.7,4.46,4.46,0,0,1-.09-.91v-8.8a4.26,4.26,0,0,1,.09-.89,1,1,0,0,1,.49-.66,2.69,2.69,0,0,1,1.32-.25,2.37,2.37,0,0,1,1.18.22,1,1,0,0,1,.49.51,1.73,1.73,0,0,1,.11.56.91.91,0,0,0,.05.36l-.15.48a1.39,1.39,0,0,1,.39-.76,3.15,3.15,0,0,1,.85-.7,4.73,4.73,0,0,1,1.1-.49,3.93,3.93,0,0,1,1.16-.17,5,5,0,0,1,2.14.43,4.42,4.42,0,0,1,1.58,1.27,5.56,5.56,0,0,1,1,1.94,8.49,8.49,0,0,1,.34,2.43v4.55a5.52,5.52,0,0,1-.08.92,1,1,0,0,1-.48.68,2.57,2.57,0,0,1-1.34.25,2.54,2.54,0,0,1-1.32-.26A1.08,1.08,0,0,1,298,30,4.53,4.53,0,0,1,298,29V24.51a2.74,2.74,0,0,0-.27-1.27,1.76,1.76,0,0,0-.75-.8,2.33,2.33,0,0,0-1.21-.28,2.48,2.48,0,0,0-1.25.29,2,2,0,0,0-.81.81,2.59,2.59,0,0,0-.29,1.25v4.55a4.46,4.46,0,0,1-.09.91,1.06,1.06,0,0,1-.48.69A2.57,2.57,0,0,1,291.5,30.91Z"/><path class="cls-2" d="M309.38,30.62a5,5,0,0,1-2.16-.49,5.72,5.72,0,0,1-1.79-1.34,6.58,6.58,0,0,1-1.23-1.95,6.27,6.27,0,0,1-.44-2.33,6,6,0,0,1,.45-2.31,6.27,6.27,0,0,1,1.24-1.92,6,6,0,0,1,1.8-1.33,4.86,4.86,0,0,1,2.11-.48,3.84,3.84,0,0,1,1.9.44,3.33,3.33,0,0,1,1.25,1.25,6.67,6.67,0,0,1,.71,1.92,11.89,11.89,0,0,1,.24,2.49,10.91,10.91,0,0,1-.42,3.21,4.2,4.2,0,0,1-1.3,2.1A3.58,3.58,0,0,1,309.38,30.62Zm.44,5.47a7,7,0,0,1-1.76-.22,7.92,7.92,0,0,1-1.59-.6,4.91,4.91,0,0,1-1.15-.8,1.25,1.25,0,0,1-.42-.85,1.78,1.78,0,0,1,.15-.74,2.28,2.28,0,0,1,.45-.66,5.15,5.15,0,0,1,.6-.58,1,1,0,0,1,.6-.2,1.09,1.09,0,0,1,.63.19l.58.41a3.84,3.84,0,0,0,.79.42,3.45,3.45,0,0,0,1.2.18,2.46,2.46,0,0,0,.94-.18,2.15,2.15,0,0,0,.75-.55,3,3,0,0,0,.5-.85,2.94,2.94,0,0,0,.19-1.09V19.62a1.24,1.24,0,0,1,.52-.94,2.48,2.48,0,0,1,1.34-.28,2.22,2.22,0,0,1,1.25.26,1.06,1.06,0,0,1,.46.69,5.11,5.11,0,0,1,.08.9v9.87a5.88,5.88,0,0,1-.53,2.54,5.61,5.61,0,0,1-1.4,1.87,6,6,0,0,1-1.95,1.16A6.28,6.28,0,0,1,309.82,36.09Zm0-9.1a2.23,2.23,0,0,0,1.2-.33,2.63,2.63,0,0,0,.83-.89,2.6,2.6,0,0,0,0-2.5,2.3,2.3,0,0,0-2.06-1.2,2.13,2.13,0,0,0-1.2.34,2.53,2.53,0,0,0-.84.88,2.6,2.6,0,0,0-.31,1.25,2.36,2.36,0,0,0,.33,1.23,2.61,2.61,0,0,0,.86.89A2.22,2.22,0,0,0,309.81,27Z"/><path class="cls-2" d="M323.88,30.93a5.25,5.25,0,0,1-2.18-.45A5.46,5.46,0,0,1,320,29.21a5.8,5.8,0,0,1-1.16-1.92,7.14,7.14,0,0,1-.41-2.44V20.32a4.42,4.42,0,0,1,.09-.92,1.1,1.1,0,0,1,.49-.7,3.25,3.25,0,0,1,2.64,0,1.14,1.14,0,0,1,.47.71,4.76,4.76,0,0,1,.09.94v4.5a2.78,2.78,0,0,0,.27,1.26,1.8,1.8,0,0,0,.77.82,2.57,2.57,0,0,0,1.21.27,2.5,2.5,0,0,0,1.24-.28,2.1,2.1,0,0,0,.8-.82,2.57,2.57,0,0,0,.29-1.25V20.3a4.42,4.42,0,0,1,.09-.92,1.08,1.08,0,0,1,.49-.69,2.57,2.57,0,0,1,1.32-.26,2.31,2.31,0,0,1,1.32.28,1.14,1.14,0,0,1,.47.71,4.46,4.46,0,0,1,.09.91v8.8a4.19,4.19,0,0,1-.09.89,1,1,0,0,1-.48.66,2.52,2.52,0,0,1-1.3.25,2.92,2.92,0,0,1-1.05-.15,1.25,1.25,0,0,1-.55-.38,1,1,0,0,1-.22-.47,3.91,3.91,0,0,1,0-.45l.32-.28a2.39,2.39,0,0,1-.32.39,5.28,5.28,0,0,1-.67.58,4.36,4.36,0,0,1-1,.53A3.34,3.34,0,0,1,323.88,30.93Z"/><path class="cls-2" d="M337.8,31a14.14,14.14,0,0,1-1.82-.1,3.77,3.77,0,0,1-1.35-.4,2.42,2.42,0,0,1-.9-.84,4,4,0,0,1-.53-1.37,10.92,10.92,0,0,1-.17-2.07V14.63a3.82,3.82,0,0,1,.1-.92,1.11,1.11,0,0,1,.49-.7,3.13,3.13,0,0,1,2.59,0,1.18,1.18,0,0,1,.49.7,3.82,3.82,0,0,1,.1.92V26a5.86,5.86,0,0,0,0,.66,1,1,0,0,0,.15.41.62.62,0,0,0,.31.21,2.6,2.6,0,0,0,.53,0,2.62,2.62,0,0,1,.61.08.89.89,0,0,1,.54.45,2.58,2.58,0,0,1,.22,1.25,2.81,2.81,0,0,1-.22,1.3.88.88,0,0,1-.54.48A2.73,2.73,0,0,1,337.8,31Z"/><path class="cls-2" d="M347,31.17a6.22,6.22,0,0,1-2.34-.47,6.91,6.91,0,0,1-2.11-1.31,6.24,6.24,0,0,1-1.51-2,5.87,5.87,0,0,1-.56-2.64A6.16,6.16,0,0,1,341,22.2a6.75,6.75,0,0,1,3.48-3.47,5.92,5.92,0,0,1,2.48-.51,6.29,6.29,0,0,1,3.27.86,6.61,6.61,0,0,1,2.33,2.34,6.63,6.63,0,0,1,.31,6,6.21,6.21,0,0,1-1.5,2,6.46,6.46,0,0,1-2.08,1.29A6.32,6.32,0,0,1,347,31.17Zm0-3.78a2.78,2.78,0,0,0,1.22-.3,2.67,2.67,0,0,0,1.05-.9,2.53,2.53,0,0,0,.43-1.52,2.74,2.74,0,0,0-.35-1.4,2.41,2.41,0,0,0-1-.94A2.83,2.83,0,0,0,347,22a2.6,2.6,0,0,0-1.34.35,2.65,2.65,0,0,0-.95,1,2.69,2.69,0,0,0-.36,1.39,2.6,2.6,0,0,0,.41,1.51,2.47,2.47,0,0,0,1,.9A3,3,0,0,0,347,27.39Z"/><path class="cls-3" d="M127.16,31a8.58,8.58,0,0,1-2.33-.34,9.24,9.24,0,0,1-2.41-1.05,9.06,9.06,0,0,1-2.14-1.79,8.05,8.05,0,0,1-1.51-2.55,9.36,9.36,0,0,1-.56-3.32,8.8,8.8,0,0,1,.56-3.24,8.09,8.09,0,0,1,1.52-2.46,8.84,8.84,0,0,1,2.13-1.74,9.91,9.91,0,0,1,2.41-1,8.84,8.84,0,0,1,2.39-.34,7,7,0,0,1,2.22.31,8.43,8.43,0,0,1,1.54.62l.76.43a7.64,7.64,0,0,1,.85.65,1.17,1.17,0,0,1,.42.9,1.59,1.59,0,0,1-.11.6,2.29,2.29,0,0,1-.34.6,3.14,3.14,0,0,1-.77.83,1.25,1.25,0,0,1-.73.27,1.16,1.16,0,0,1-.57-.15c-.19-.1-.4-.24-.65-.4s-.29-.19-.5-.32a4,4,0,0,0-.89-.34,5.78,5.78,0,0,0-3.15.15,5.07,5.07,0,0,0-1.64.93,4.45,4.45,0,0,0-1.2,1.58,5.35,5.35,0,0,0-.45,2.27,5.11,5.11,0,0,0,.46,2.25,4.75,4.75,0,0,0,1.21,1.57,5.29,5.29,0,0,0,1.64.94,5.16,5.16,0,0,0,1.74.31,4.66,4.66,0,0,0,1.27-.15,5,5,0,0,0,.93-.36l.67-.38a6.48,6.48,0,0,1,.57-.33,1.22,1.22,0,0,1,.58-.15,1.17,1.17,0,0,1,.72.28,3.2,3.2,0,0,1,.73.87,3.07,3.07,0,0,1,.34.64,1.92,1.92,0,0,1,.11.61,1.07,1.07,0,0,1-.41.86,8.5,8.5,0,0,1-.86.62l-.75.43a7.07,7.07,0,0,1-1.53.63A8,8,0,0,1,127.16,31Z"/><path class="cls-3" d="M141.15,31a6.2,6.2,0,0,1-2.33-.46,6.94,6.94,0,0,1-2.11-1.32,6.08,6.08,0,0,1-2.08-4.67,6.16,6.16,0,0,1,.52-2.51A6.67,6.67,0,0,1,136.56,20a6.93,6.93,0,0,1,2.06-1.41,6.16,6.16,0,0,1,2.49-.51,6.24,6.24,0,0,1,3.26.87,6.45,6.45,0,0,1,2.34,2.33,6.71,6.71,0,0,1,.31,6,6.66,6.66,0,0,1-1.5,2,6.57,6.57,0,0,1-2.08,1.29A6.36,6.36,0,0,1,141.15,31Zm0-3.77a2.78,2.78,0,0,0,1.22-.3,2.67,2.67,0,0,0,1-.9,2.54,2.54,0,0,0,.43-1.53,2.77,2.77,0,0,0-.35-1.4,2.39,2.39,0,0,0-1-.93,2.83,2.83,0,0,0-1.41-.34,2.51,2.51,0,0,0-1.34.35,2.65,2.65,0,0,0-.95,1,2.7,2.7,0,0,0-.37,1.39,2.61,2.61,0,0,0,.42,1.51,2.47,2.47,0,0,0,1,.9A3,3,0,0,0,141.11,27.27Z"/><path class="cls-3" d="M154.41,30.85a14.2,14.2,0,0,1-1.83-.1,3.9,3.9,0,0,1-1.35-.4,2.42,2.42,0,0,1-.9-.84,4,4,0,0,1-.52-1.38,9.9,9.9,0,0,1-.18-2.06V14.52a3.82,3.82,0,0,1,.1-.92,1.15,1.15,0,0,1,.49-.7,2.27,2.27,0,0,1,1.31-.28,2.33,2.33,0,0,1,1.29.28,1.18,1.18,0,0,1,.49.7,4.4,4.4,0,0,1,.1.92V25.9a5.86,5.86,0,0,0,0,.66.82.82,0,0,0,.16.41.45.45,0,0,0,.31.2,1.86,1.86,0,0,0,.52.06,2.54,2.54,0,0,1,.61.07.89.89,0,0,1,.54.45,2.56,2.56,0,0,1,.23,1.25,2.79,2.79,0,0,1-.23,1.3.88.88,0,0,1-.54.48A2.7,2.7,0,0,1,154.41,30.85Z"/><path class="cls-3" d="M163.63,31.06a6.51,6.51,0,0,1-2.34-.47,7.24,7.24,0,0,1-2.11-1.31,6.38,6.38,0,0,1-1.51-2,6.47,6.47,0,0,1,0-5.15A6.83,6.83,0,0,1,159,20a6.63,6.63,0,0,1,2.06-1.41,6.13,6.13,0,0,1,2.49-.51,6.23,6.23,0,0,1,3.26.86,6.72,6.72,0,0,1,2.34,2.34,6.3,6.3,0,0,1,.87,3.27A6.22,6.22,0,0,1,168,29.33a6.53,6.53,0,0,1-4.36,1.73Zm0-3.78a2.85,2.85,0,0,0,1.23-.3,2.81,2.81,0,0,0,1.05-.9,2.6,2.6,0,0,0,.42-1.52,2.65,2.65,0,0,0-.35-1.4,2.41,2.41,0,0,0-1-.94,2.83,2.83,0,0,0-1.41-.34,2.6,2.6,0,0,0-1.34.35,2.65,2.65,0,0,0-.95,1,2.93,2.93,0,0,0,0,2.9,2.49,2.49,0,0,0,1,.9A2.9,2.9,0,0,0,163.58,27.28Z"/><path class="cls-3" d="M174,30.86a2.5,2.5,0,0,1-1.31-.26,1.08,1.08,0,0,1-.47-.71,4.73,4.73,0,0,1-.09-.93V20.24a5.28,5.28,0,0,1,.08-.93,1.08,1.08,0,0,1,.49-.69,2.59,2.59,0,0,1,1.33-.26,2.5,2.5,0,0,1,1.26.24,1.06,1.06,0,0,1,.49.55,2.08,2.08,0,0,1,.1.54l-.3.15a2,2,0,0,1,.26-.36,3.2,3.2,0,0,1,.59-.55,3.14,3.14,0,0,1,.91-.49,3.62,3.62,0,0,1,1.24-.2,4.66,4.66,0,0,1,.61,0,3.14,3.14,0,0,1,.7.15,2.47,2.47,0,0,1,.66.3,1.66,1.66,0,0,1,.49.46,1.24,1.24,0,0,1,.19.68,3,3,0,0,1-.48,1.73,1.41,1.41,0,0,1-1.2.72,2.43,2.43,0,0,1-.6-.07,1,1,0,0,1-.29-.15.93.93,0,0,0-.26-.15,1.68,1.68,0,0,0-.55-.06,2.34,2.34,0,0,0-.71.1,2.06,2.06,0,0,0-.63.31,1.54,1.54,0,0,0-.45.53,1.46,1.46,0,0,0-.16.71V29a4.63,4.63,0,0,1-.09.92,1,1,0,0,1-.49.68A2.6,2.6,0,0,1,174,30.86Z"/><path class="cls-3" d="M189.35,31.1a7.28,7.28,0,0,1-3-.58A5.74,5.74,0,0,1,184.28,29a6.57,6.57,0,0,1-1.2-2.08,7.19,7.19,0,0,1-.4-2.3,6.45,6.45,0,0,1,.86-3.33A6,6,0,0,1,185.9,19a7,7,0,0,1,3.46-.84,6.35,6.35,0,0,1,2.51.46,5,5,0,0,1,1.75,1.21,5.18,5.18,0,0,1,1,1.58,4.51,4.51,0,0,1,.33,1.63,2.82,2.82,0,0,1-.66,2.05,2.25,2.25,0,0,1-1.69.67h-5.95a1.8,1.8,0,0,0,.46,1.07,2.81,2.81,0,0,0,1,.7,3.5,3.5,0,0,0,1.33.26,6.41,6.41,0,0,0,1-.07,4.49,4.49,0,0,0,.79-.17l.59-.23.49-.18a2.53,2.53,0,0,1,.42-.1,1,1,0,0,1,.68.21,2.22,2.22,0,0,1,.57.71,1.75,1.75,0,0,1,.24.53,2.14,2.14,0,0,1,.06.5,1.34,1.34,0,0,1-.61,1.09,4.91,4.91,0,0,1-1.73.73A11,11,0,0,1,189.35,31.1Zm-2.67-7.41h3.95a1,1,0,0,0,.58-.14.62.62,0,0,0,.2-.54,1.18,1.18,0,0,0-.28-.77,1.61,1.61,0,0,0-.73-.54,2.8,2.8,0,0,0-1.09-.19,3,3,0,0,0-1.35.3,2.47,2.47,0,0,0-.94.8A1.91,1.91,0,0,0,186.68,23.69Z"/><path class="cls-3" d="M207.28,30.86a2.34,2.34,0,0,1-1.38-.33.89.89,0,0,1-.42-.8l.25-.42a2.8,2.8,0,0,1-.58.61,4.11,4.11,0,0,1-1.11.65,4.34,4.34,0,0,1-1.66.28,4.88,4.88,0,0,1-2.19-.5A5.85,5.85,0,0,1,198.35,29a7.21,7.21,0,0,1-1.27-2,6.15,6.15,0,0,1-.47-2.37,6,6,0,0,1,.47-2.34,6.9,6.9,0,0,1,1.29-2,6.7,6.7,0,0,1,1.84-1.36,4.94,4.94,0,0,1,2.18-.5,4.09,4.09,0,0,1,1.57.27,4.32,4.32,0,0,1,1.09.61,3.2,3.2,0,0,1,.66.68l-.22-.35a1.06,1.06,0,0,1,.43-.92,2.53,2.53,0,0,1,1.39-.31,2.24,2.24,0,0,1,1.29.28,1.07,1.07,0,0,1,.47.72,4.86,4.86,0,0,1,.09.95V29a4.7,4.7,0,0,1-.09.92,1.07,1.07,0,0,1-.48.71A2.37,2.37,0,0,1,207.28,30.86Zm-4.37-3.73a2.13,2.13,0,0,0,1.2-.34,2.57,2.57,0,0,0,.85-.91,2.6,2.6,0,0,0,.32-1.27,2.47,2.47,0,0,0-.32-1.29,2.42,2.42,0,0,0-.88-.89,2.3,2.3,0,0,0-1.22-.33,2.42,2.42,0,0,0-1.26.34,2.53,2.53,0,0,0-.9.91,2.5,2.5,0,0,0-.34,1.3,2.42,2.42,0,0,0,.33,1.24,2.6,2.6,0,0,0,2.22,1.24Z"/><path class="cls-3" d="M224.38,31.12a7.25,7.25,0,0,1-3-.58A5.75,5.75,0,0,1,219.31,29a6.25,6.25,0,0,1-1.2-2.09,6.88,6.88,0,0,1-.4-2.3,6.45,6.45,0,0,1,.85-3.33A6.09,6.09,0,0,1,220.92,19a7,7,0,0,1,3.47-.84,6.24,6.24,0,0,1,2.51.47,5.08,5.08,0,0,1,1.75,1.2,4.89,4.89,0,0,1,1,1.59,4.25,4.25,0,0,1,.34,1.62,2.82,2.82,0,0,1-.66,2.05,2.28,2.28,0,0,1-1.69.67h-5.95a1.71,1.71,0,0,0,.46,1.08,2.77,2.77,0,0,0,1,.7,3.6,3.6,0,0,0,1.32.25,6.63,6.63,0,0,0,1-.07,3.74,3.74,0,0,0,.79-.17l.58-.22c.18-.08.34-.14.49-.19a2.41,2.41,0,0,1,.43-.1,1,1,0,0,1,.67.21,2.06,2.06,0,0,1,.58.72,1.8,1.8,0,0,1,.23.52,2.14,2.14,0,0,1,.06.5,1.34,1.34,0,0,1-.61,1.09,4.68,4.68,0,0,1-1.72.73A11.06,11.06,0,0,1,224.38,31.12Zm-2.67-7.41h3.95a1,1,0,0,0,.57-.14c.14-.09.2-.27.2-.54a1.23,1.23,0,0,0-.27-.77,1.8,1.8,0,0,0-.74-.54,3.2,3.2,0,0,0-2.44.11,2.36,2.36,0,0,0-.93.8A1.84,1.84,0,0,0,221.71,23.71Z"/><path class="cls-3" d="M236.9,30.9a14.14,14.14,0,0,1-1.82-.1,3.9,3.9,0,0,1-1.35-.4,2.42,2.42,0,0,1-.9-.84,4,4,0,0,1-.52-1.38,9.9,9.9,0,0,1-.18-2.06V14.57a3.82,3.82,0,0,1,.1-.92,1.15,1.15,0,0,1,.49-.7,2.25,2.25,0,0,1,1.31-.28,2.33,2.33,0,0,1,1.29.28,1.12,1.12,0,0,1,.48.7,3.82,3.82,0,0,1,.1.92V26a5.86,5.86,0,0,0,0,.66,1,1,0,0,0,.15.41.54.54,0,0,0,.32.2,1.86,1.86,0,0,0,.52.05,2.62,2.62,0,0,1,.61.08.89.89,0,0,1,.54.45,2.56,2.56,0,0,1,.23,1.25,2.93,2.93,0,0,1-.23,1.3.88.88,0,0,1-.54.48A2.73,2.73,0,0,1,236.9,30.9Z"/><path class="cls-3" d="M247.44,18.61h2.75l3.45-.1a4.43,4.43,0,0,1,.9.09,1.13,1.13,0,0,1,.7.49,2.41,2.41,0,0,1,.27,1.32,2.38,2.38,0,0,1-.26,1.25,1.15,1.15,0,0,1-.69.51,3.43,3.43,0,0,1-.93.12l-3.27-.08-3,0a1.26,1.26,0,0,1-1-.46,2.55,2.55,0,0,1-.29-1.39,2.08,2.08,0,0,1,.36-1.34A1.26,1.26,0,0,1,247.44,18.61Zm5.64,12.3a7.5,7.5,0,0,1-2.2-.28,3.37,3.37,0,0,1-2.39-2.31,7,7,0,0,1-.28-2.11V16.08a4.15,4.15,0,0,1,.09-.92,1.07,1.07,0,0,1,.49-.67,2.51,2.51,0,0,1,1.3-.26,2.39,2.39,0,0,1,1.3.28,1.13,1.13,0,0,1,.49.71,5.4,5.4,0,0,1,.08.91v9.93a3,3,0,0,0,.06.66.71.71,0,0,0,.19.39.68.68,0,0,0,.35.17,2.19,2.19,0,0,0,.55,0,4.67,4.67,0,0,1,1,.1,1.08,1.08,0,0,1,.66.46,2.13,2.13,0,0,1,.24,1.17,2.3,2.3,0,0,1-.28,1.3,1,1,0,0,1-.71.47A5.4,5.4,0,0,1,253.08,30.91Z"/><path class="cls-3" d="M259.3,30.91a2.41,2.41,0,0,1-1.31-.26,1,1,0,0,1-.47-.71,4.73,4.73,0,0,1-.09-.93V20.29a4.52,4.52,0,0,1,.09-.93,1.08,1.08,0,0,1,.49-.69,2.59,2.59,0,0,1,1.33-.26,2.5,2.5,0,0,1,1.26.24,1.06,1.06,0,0,1,.49.55,2,2,0,0,1,.09.54l-.29.15a2,2,0,0,1,.26-.36,3.2,3.2,0,0,1,.59-.55,3.4,3.4,0,0,1,.91-.49,3.62,3.62,0,0,1,1.24-.2,4.66,4.66,0,0,1,.61,0,3.14,3.14,0,0,1,.7.15,2.47,2.47,0,0,1,.66.3,1.66,1.66,0,0,1,.49.46,1.15,1.15,0,0,1,.18.68,3,3,0,0,1-.47,1.73,1.41,1.41,0,0,1-1.2.72,1.66,1.66,0,0,1-.6-.07,1,1,0,0,1-.29-.15.93.93,0,0,0-.26-.15,1.68,1.68,0,0,0-.55-.06,2.34,2.34,0,0,0-.71.1,2.06,2.06,0,0,0-.63.31,1.54,1.54,0,0,0-.45.53,1.46,1.46,0,0,0-.16.71v5.47a5.43,5.43,0,0,1-.08.92,1,1,0,0,1-.49.68A2.6,2.6,0,0,1,259.3,30.91Z"/><path class="cls-3" d="M270.51,16.62a2.43,2.43,0,0,1-1.35-.28,1,1,0,0,1-.48-.72,4.86,4.86,0,0,1-.09-.95,4.75,4.75,0,0,1,.09-1,1,1,0,0,1,.5-.7,2.57,2.57,0,0,1,1.36-.27,2.49,2.49,0,0,1,1.32.28,1.11,1.11,0,0,1,.49.73,4.92,4.92,0,0,1,.09,1,4.73,4.73,0,0,1-.09.93,1.07,1.07,0,0,1-.49.71A2.62,2.62,0,0,1,270.51,16.62Zm0,14.3a2.54,2.54,0,0,1-1.32-.26,1,1,0,0,1-.48-.7,5.45,5.45,0,0,1-.07-.92V20.32a4.46,4.46,0,0,1,.09-.91,1,1,0,0,1,.49-.7,2.47,2.47,0,0,1,1.33-.27,2.38,2.38,0,0,1,1.28.28,1.12,1.12,0,0,1,.48.71,4.77,4.77,0,0,1,.08.94v8.7a4.46,4.46,0,0,1-.09.91,1.05,1.05,0,0,1-.47.69A2.53,2.53,0,0,1,270.5,30.92Z"/><path class="cls-3" d="M285.25,30.9a2.41,2.41,0,0,1-1.37-.32.93.93,0,0,1-.43-.8l.25-.43a2.72,2.72,0,0,1-.57.61,4,4,0,0,1-1.11.65,4.2,4.2,0,0,1-1.67.29,5,5,0,0,1-2.18-.5A5.78,5.78,0,0,1,276.33,29a7,7,0,0,1-1.27-2,6,6,0,0,1-.48-2.38,5.82,5.82,0,0,1,.48-2.33A6.59,6.59,0,0,1,278.18,19a5,5,0,0,1,2.18-.5,4.26,4.26,0,0,1,1.57.26,4.16,4.16,0,0,1,1.09.62,3.43,3.43,0,0,1,.66.67l-.22-.35a1.05,1.05,0,0,1,.44-.91,2.4,2.4,0,0,1,1.39-.31,2.3,2.3,0,0,1,1.28.27,1.16,1.16,0,0,1,.48.73,4.87,4.87,0,0,1,.08.95V29a4.73,4.73,0,0,1-.09.93,1.09,1.09,0,0,1-.47.71A2.42,2.42,0,0,1,285.25,30.9Zm-4.37-3.72a2.21,2.21,0,0,0,1.2-.34,2.66,2.66,0,0,0,.85-.91,2.54,2.54,0,0,0,.33-1.28,2.46,2.46,0,0,0-.33-1.28,2.33,2.33,0,0,0-.87-.89,2.48,2.48,0,0,0-2.49,0,2.53,2.53,0,0,0-.9.91,2.47,2.47,0,0,0-.34,1.3,2.34,2.34,0,0,0,.34,1.24,2.56,2.56,0,0,0,.92.9A2.59,2.59,0,0,0,280.88,27.18ZM280,17.53a.88.88,0,0,1-.74-.25,2.71,2.71,0,0,1-.51-1,2,2,0,0,1-.1-1.31,1.38,1.38,0,0,1,.92-.67L284,13a.91.91,0,0,1,.73.29,2.53,2.53,0,0,1,.5,1,1.85,1.85,0,0,1,.08,1.27,1.32,1.32,0,0,1-.91.68Z"/><path class="cls-3" d="M291.5,30.91a2.39,2.39,0,0,1-1.31-.27,1,1,0,0,1-.47-.7,4.46,4.46,0,0,1-.09-.91v-8.8a4.26,4.26,0,0,1,.09-.89,1,1,0,0,1,.49-.66,2.69,2.69,0,0,1,1.32-.25,2.37,2.37,0,0,1,1.18.22,1,1,0,0,1,.49.51,1.73,1.73,0,0,1,.11.56.91.91,0,0,0,.05.36l-.15.48a1.39,1.39,0,0,1,.39-.76,3.15,3.15,0,0,1,.85-.7,4.73,4.73,0,0,1,1.1-.49,3.93,3.93,0,0,1,1.16-.17,5,5,0,0,1,2.14.43,4.42,4.42,0,0,1,1.58,1.27,5.56,5.56,0,0,1,1,1.94,8.49,8.49,0,0,1,.34,2.43v4.55a5.52,5.52,0,0,1-.08.92,1,1,0,0,1-.48.68,2.57,2.57,0,0,1-1.34.25,2.54,2.54,0,0,1-1.32-.26A1.08,1.08,0,0,1,298,30,4.53,4.53,0,0,1,298,29V24.51a2.74,2.74,0,0,0-.27-1.27,1.76,1.76,0,0,0-.75-.8,2.33,2.33,0,0,0-1.21-.28,2.48,2.48,0,0,0-1.25.29,2,2,0,0,0-.81.81,2.59,2.59,0,0,0-.29,1.25v4.55a4.46,4.46,0,0,1-.09.91,1.06,1.06,0,0,1-.48.69A2.57,2.57,0,0,1,291.5,30.91Z"/><path class="cls-3" d="M309.38,30.62a5,5,0,0,1-2.16-.49,5.72,5.72,0,0,1-1.79-1.34,6.58,6.58,0,0,1-1.23-1.95,6.27,6.27,0,0,1-.44-2.33,6,6,0,0,1,.45-2.31,6.27,6.27,0,0,1,1.24-1.92,6,6,0,0,1,1.8-1.33,4.86,4.86,0,0,1,2.11-.48,3.84,3.84,0,0,1,1.9.44,3.33,3.33,0,0,1,1.25,1.25,6.67,6.67,0,0,1,.71,1.92,11.89,11.89,0,0,1,.24,2.49,10.91,10.91,0,0,1-.42,3.21,4.2,4.2,0,0,1-1.3,2.1A3.58,3.58,0,0,1,309.38,30.62Zm.44,5.47a7,7,0,0,1-1.76-.22,7.92,7.92,0,0,1-1.59-.6,4.91,4.91,0,0,1-1.15-.8,1.25,1.25,0,0,1-.42-.85,1.78,1.78,0,0,1,.15-.74,2.28,2.28,0,0,1,.45-.66,5.15,5.15,0,0,1,.6-.58,1,1,0,0,1,.6-.2,1.09,1.09,0,0,1,.63.19l.58.41a3.84,3.84,0,0,0,.79.42,3.45,3.45,0,0,0,1.2.18,2.46,2.46,0,0,0,.94-.18,2.15,2.15,0,0,0,.75-.55,3,3,0,0,0,.5-.85,2.94,2.94,0,0,0,.19-1.09V19.62a1.24,1.24,0,0,1,.52-.94,2.48,2.48,0,0,1,1.34-.28,2.22,2.22,0,0,1,1.25.26,1.06,1.06,0,0,1,.46.69,5.11,5.11,0,0,1,.08.9v9.87a5.88,5.88,0,0,1-.53,2.54,5.61,5.61,0,0,1-1.4,1.87,6,6,0,0,1-1.95,1.16A6.28,6.28,0,0,1,309.82,36.09Zm0-9.1a2.23,2.23,0,0,0,1.2-.33,2.63,2.63,0,0,0,.83-.89,2.6,2.6,0,0,0,0-2.5,2.3,2.3,0,0,0-2.06-1.2,2.13,2.13,0,0,0-1.2.34,2.53,2.53,0,0,0-.84.88,2.6,2.6,0,0,0-.31,1.25,2.36,2.36,0,0,0,.33,1.23,2.61,2.61,0,0,0,.86.89A2.22,2.22,0,0,0,309.81,27Z"/><path class="cls-3" d="M323.88,30.93a5.25,5.25,0,0,1-2.18-.45A5.46,5.46,0,0,1,320,29.21a5.8,5.8,0,0,1-1.16-1.92,7.14,7.14,0,0,1-.41-2.44V20.32a4.42,4.42,0,0,1,.09-.92,1.1,1.1,0,0,1,.49-.7,3.25,3.25,0,0,1,2.64,0,1.14,1.14,0,0,1,.47.71,4.76,4.76,0,0,1,.09.94v4.5a2.78,2.78,0,0,0,.27,1.26,1.8,1.8,0,0,0,.77.82,2.57,2.57,0,0,0,1.21.27,2.5,2.5,0,0,0,1.24-.28,2.1,2.1,0,0,0,.8-.82,2.57,2.57,0,0,0,.29-1.25V20.3a4.42,4.42,0,0,1,.09-.92,1.08,1.08,0,0,1,.49-.69,2.57,2.57,0,0,1,1.32-.26,2.31,2.31,0,0,1,1.32.28,1.14,1.14,0,0,1,.47.71,4.46,4.46,0,0,1,.09.91v8.8a4.19,4.19,0,0,1-.09.89,1,1,0,0,1-.48.66,2.52,2.52,0,0,1-1.3.25,2.92,2.92,0,0,1-1.05-.15,1.25,1.25,0,0,1-.55-.38,1,1,0,0,1-.22-.47,3.91,3.91,0,0,1,0-.45l.32-.28a2.39,2.39,0,0,1-.32.39,5.28,5.28,0,0,1-.67.58,4.36,4.36,0,0,1-1,.53A3.34,3.34,0,0,1,323.88,30.93Z"/><path class="cls-3" d="M337.8,31a14.14,14.14,0,0,1-1.82-.1,3.77,3.77,0,0,1-1.35-.4,2.42,2.42,0,0,1-.9-.84,4,4,0,0,1-.53-1.37,10.92,10.92,0,0,1-.17-2.07V14.63a3.82,3.82,0,0,1,.1-.92,1.11,1.11,0,0,1,.49-.7,3.13,3.13,0,0,1,2.59,0,1.18,1.18,0,0,1,.49.7,3.82,3.82,0,0,1,.1.92V26a5.86,5.86,0,0,0,0,.66,1,1,0,0,0,.15.41.62.62,0,0,0,.31.21,2.6,2.6,0,0,0,.53,0,2.62,2.62,0,0,1,.61.08.89.89,0,0,1,.54.45,2.58,2.58,0,0,1,.22,1.25,2.81,2.81,0,0,1-.22,1.3.88.88,0,0,1-.54.48A2.73,2.73,0,0,1,337.8,31Z"/><path class="cls-3" d="M347,31.17a6.22,6.22,0,0,1-2.34-.47,6.91,6.91,0,0,1-2.11-1.31,6.24,6.24,0,0,1-1.51-2,5.87,5.87,0,0,1-.56-2.64A6.16,6.16,0,0,1,341,22.2a6.75,6.75,0,0,1,3.48-3.47,5.92,5.92,0,0,1,2.48-.51,6.29,6.29,0,0,1,3.27.86,6.61,6.61,0,0,1,2.33,2.34,6.63,6.63,0,0,1,.31,6,6.21,6.21,0,0,1-1.5,2,6.46,6.46,0,0,1-2.08,1.29A6.32,6.32,0,0,1,347,31.17Zm0-3.78a2.78,2.78,0,0,0,1.22-.3,2.67,2.67,0,0,0,1.05-.9,2.53,2.53,0,0,0,.43-1.52,2.74,2.74,0,0,0-.35-1.4,2.41,2.41,0,0,0-1-.94A2.83,2.83,0,0,0,347,22a2.6,2.6,0,0,0-1.34.35,2.65,2.65,0,0,0-.95,1,2.69,2.69,0,0,0-.36,1.39,2.6,2.6,0,0,0,.41,1.51,2.47,2.47,0,0,0,1,.9A3,3,0,0,0,347,27.39Z"/><path class="cls-2" d="M127.16,31a8.58,8.58,0,0,1-2.33-.34,9.24,9.24,0,0,1-2.41-1.05,9.06,9.06,0,0,1-2.14-1.79,8.05,8.05,0,0,1-1.51-2.55,9.36,9.36,0,0,1-.56-3.32,8.8,8.8,0,0,1,.56-3.24,8.09,8.09,0,0,1,1.52-2.46,8.84,8.84,0,0,1,2.13-1.74,9.91,9.91,0,0,1,2.41-1,8.84,8.84,0,0,1,2.39-.34,7,7,0,0,1,2.22.31,8.43,8.43,0,0,1,1.54.62l.76.43a7.64,7.64,0,0,1,.85.65,1.17,1.17,0,0,1,.42.9,1.59,1.59,0,0,1-.11.6,2.29,2.29,0,0,1-.34.6,3.14,3.14,0,0,1-.77.83,1.25,1.25,0,0,1-.73.27,1.16,1.16,0,0,1-.57-.15c-.19-.1-.4-.24-.65-.4s-.29-.19-.5-.32a4,4,0,0,0-.89-.34,5.78,5.78,0,0,0-3.15.15,5.07,5.07,0,0,0-1.64.93,4.45,4.45,0,0,0-1.2,1.58,5.35,5.35,0,0,0-.45,2.27,5.11,5.11,0,0,0,.46,2.25,4.75,4.75,0,0,0,1.21,1.57,5.29,5.29,0,0,0,1.64.94,5.16,5.16,0,0,0,1.74.31,4.66,4.66,0,0,0,1.27-.15,5,5,0,0,0,.93-.36l.67-.38a6.48,6.48,0,0,1,.57-.33,1.22,1.22,0,0,1,.58-.15,1.17,1.17,0,0,1,.72.28,3.2,3.2,0,0,1,.73.87,3.07,3.07,0,0,1,.34.64,1.92,1.92,0,0,1,.11.61,1.07,1.07,0,0,1-.41.86,8.5,8.5,0,0,1-.86.62l-.75.43a7.07,7.07,0,0,1-1.53.63A8,8,0,0,1,127.16,31Z"/><path class="cls-2" d="M141.15,31a6.2,6.2,0,0,1-2.33-.46,6.94,6.94,0,0,1-2.11-1.32,6.08,6.08,0,0,1-2.08-4.67,6.16,6.16,0,0,1,.52-2.51A6.67,6.67,0,0,1,136.56,20a6.93,6.93,0,0,1,2.06-1.41,6.16,6.16,0,0,1,2.49-.51,6.24,6.24,0,0,1,3.26.87,6.45,6.45,0,0,1,2.34,2.33,6.71,6.71,0,0,1,.31,6,6.66,6.66,0,0,1-1.5,2,6.57,6.57,0,0,1-2.08,1.29A6.36,6.36,0,0,1,141.15,31Zm0-3.77a2.78,2.78,0,0,0,1.22-.3,2.67,2.67,0,0,0,1-.9,2.54,2.54,0,0,0,.43-1.53,2.77,2.77,0,0,0-.35-1.4,2.39,2.39,0,0,0-1-.93,2.83,2.83,0,0,0-1.41-.34,2.51,2.51,0,0,0-1.34.35,2.65,2.65,0,0,0-.95,1,2.7,2.7,0,0,0-.37,1.39,2.61,2.61,0,0,0,.42,1.51,2.47,2.47,0,0,0,1,.9A3,3,0,0,0,141.11,27.27Z"/><path class="cls-2" d="M154.41,30.85a14.2,14.2,0,0,1-1.83-.1,3.9,3.9,0,0,1-1.35-.4,2.42,2.42,0,0,1-.9-.84,4,4,0,0,1-.52-1.38,9.9,9.9,0,0,1-.18-2.06V14.52a3.82,3.82,0,0,1,.1-.92,1.15,1.15,0,0,1,.49-.7,2.27,2.27,0,0,1,1.31-.28,2.33,2.33,0,0,1,1.29.28,1.18,1.18,0,0,1,.49.7,4.4,4.4,0,0,1,.1.92V25.9a5.86,5.86,0,0,0,0,.66.82.82,0,0,0,.16.41.45.45,0,0,0,.31.2,1.86,1.86,0,0,0,.52.06,2.54,2.54,0,0,1,.61.07.89.89,0,0,1,.54.45,2.56,2.56,0,0,1,.23,1.25,2.79,2.79,0,0,1-.23,1.3.88.88,0,0,1-.54.48A2.7,2.7,0,0,1,154.41,30.85Z"/><path class="cls-2" d="M163.63,31.06a6.51,6.51,0,0,1-2.34-.47,7.24,7.24,0,0,1-2.11-1.31,6.38,6.38,0,0,1-1.51-2,6.47,6.47,0,0,1,0-5.15A6.83,6.83,0,0,1,159,20a6.63,6.63,0,0,1,2.06-1.41,6.13,6.13,0,0,1,2.49-.51,6.23,6.23,0,0,1,3.26.86,6.72,6.72,0,0,1,2.34,2.34,6.3,6.3,0,0,1,.87,3.27A6.22,6.22,0,0,1,168,29.33a6.53,6.53,0,0,1-4.36,1.73Zm0-3.78a2.85,2.85,0,0,0,1.23-.3,2.81,2.81,0,0,0,1.05-.9,2.6,2.6,0,0,0,.42-1.52,2.65,2.65,0,0,0-.35-1.4,2.41,2.41,0,0,0-1-.94,2.83,2.83,0,0,0-1.41-.34,2.6,2.6,0,0,0-1.34.35,2.65,2.65,0,0,0-.95,1,2.93,2.93,0,0,0,0,2.9,2.49,2.49,0,0,0,1,.9A2.9,2.9,0,0,0,163.58,27.28Z"/><path class="cls-2" d="M174,30.86a2.5,2.5,0,0,1-1.31-.26,1.08,1.08,0,0,1-.47-.71,4.73,4.73,0,0,1-.09-.93V20.24a5.28,5.28,0,0,1,.08-.93,1.08,1.08,0,0,1,.49-.69,2.59,2.59,0,0,1,1.33-.26,2.5,2.5,0,0,1,1.26.24,1.06,1.06,0,0,1,.49.55,2.08,2.08,0,0,1,.1.54l-.3.15a2,2,0,0,1,.26-.36,3.2,3.2,0,0,1,.59-.55,3.14,3.14,0,0,1,.91-.49,3.62,3.62,0,0,1,1.24-.2,4.66,4.66,0,0,1,.61,0,3.14,3.14,0,0,1,.7.15,2.47,2.47,0,0,1,.66.3,1.66,1.66,0,0,1,.49.46,1.24,1.24,0,0,1,.19.68,3,3,0,0,1-.48,1.73,1.41,1.41,0,0,1-1.2.72,2.43,2.43,0,0,1-.6-.07,1,1,0,0,1-.29-.15.93.93,0,0,0-.26-.15,1.68,1.68,0,0,0-.55-.06,2.34,2.34,0,0,0-.71.1,2.06,2.06,0,0,0-.63.31,1.54,1.54,0,0,0-.45.53,1.46,1.46,0,0,0-.16.71V29a4.63,4.63,0,0,1-.09.92,1,1,0,0,1-.49.68A2.6,2.6,0,0,1,174,30.86Z"/><path class="cls-2" d="M189.35,31.1a7.28,7.28,0,0,1-3-.58A5.74,5.74,0,0,1,184.28,29a6.57,6.57,0,0,1-1.2-2.08,7.19,7.19,0,0,1-.4-2.3,6.45,6.45,0,0,1,.86-3.33A6,6,0,0,1,185.9,19a7,7,0,0,1,3.46-.84,6.35,6.35,0,0,1,2.51.46,5,5,0,0,1,1.75,1.21,5.18,5.18,0,0,1,1,1.58,4.51,4.51,0,0,1,.33,1.63,2.82,2.82,0,0,1-.66,2.05,2.25,2.25,0,0,1-1.69.67h-5.95a1.8,1.8,0,0,0,.46,1.07,2.81,2.81,0,0,0,1,.7,3.5,3.5,0,0,0,1.33.26,6.41,6.41,0,0,0,1-.07,4.49,4.49,0,0,0,.79-.17l.59-.23.49-.18a2.53,2.53,0,0,1,.42-.1,1,1,0,0,1,.68.21,2.22,2.22,0,0,1,.57.71,1.75,1.75,0,0,1,.24.53,2.14,2.14,0,0,1,.06.5,1.34,1.34,0,0,1-.61,1.09,4.91,4.91,0,0,1-1.73.73A11,11,0,0,1,189.35,31.1Zm-2.67-7.41h3.95a1,1,0,0,0,.58-.14.62.62,0,0,0,.2-.54,1.18,1.18,0,0,0-.28-.77,1.61,1.61,0,0,0-.73-.54,2.8,2.8,0,0,0-1.09-.19,3,3,0,0,0-1.35.3,2.47,2.47,0,0,0-.94.8A1.91,1.91,0,0,0,186.68,23.69Z"/><path class="cls-2" d="M207.28,30.86a2.34,2.34,0,0,1-1.38-.33.89.89,0,0,1-.42-.8l.25-.42a2.8,2.8,0,0,1-.58.61,4.11,4.11,0,0,1-1.11.65,4.34,4.34,0,0,1-1.66.28,4.88,4.88,0,0,1-2.19-.5A5.85,5.85,0,0,1,198.35,29a7.21,7.21,0,0,1-1.27-2,6.15,6.15,0,0,1-.47-2.37,6,6,0,0,1,.47-2.34,6.9,6.9,0,0,1,1.29-2,6.7,6.7,0,0,1,1.84-1.36,4.94,4.94,0,0,1,2.18-.5,4.09,4.09,0,0,1,1.57.27,4.32,4.32,0,0,1,1.09.61,3.2,3.2,0,0,1,.66.68l-.22-.35a1.06,1.06,0,0,1,.43-.92,2.53,2.53,0,0,1,1.39-.31,2.24,2.24,0,0,1,1.29.28,1.07,1.07,0,0,1,.47.72,4.86,4.86,0,0,1,.09.95V29a4.7,4.7,0,0,1-.09.92,1.07,1.07,0,0,1-.48.71A2.37,2.37,0,0,1,207.28,30.86Zm-4.37-3.73a2.13,2.13,0,0,0,1.2-.34,2.57,2.57,0,0,0,.85-.91,2.6,2.6,0,0,0,.32-1.27,2.47,2.47,0,0,0-.32-1.29,2.42,2.42,0,0,0-.88-.89,2.3,2.3,0,0,0-1.22-.33,2.42,2.42,0,0,0-1.26.34,2.53,2.53,0,0,0-.9.91,2.5,2.5,0,0,0-.34,1.3,2.42,2.42,0,0,0,.33,1.24,2.6,2.6,0,0,0,2.22,1.24Z"/><path class="cls-2" d="M224.38,31.12a7.25,7.25,0,0,1-3-.58A5.75,5.75,0,0,1,219.31,29a6.25,6.25,0,0,1-1.2-2.09,6.88,6.88,0,0,1-.4-2.3,6.45,6.45,0,0,1,.85-3.33A6.09,6.09,0,0,1,220.92,19a7,7,0,0,1,3.47-.84,6.24,6.24,0,0,1,2.51.47,5.08,5.08,0,0,1,1.75,1.2,4.89,4.89,0,0,1,1,1.59,4.25,4.25,0,0,1,.34,1.62,2.82,2.82,0,0,1-.66,2.05,2.28,2.28,0,0,1-1.69.67h-5.95a1.71,1.71,0,0,0,.46,1.08,2.77,2.77,0,0,0,1,.7,3.6,3.6,0,0,0,1.32.25,6.63,6.63,0,0,0,1-.07,3.74,3.74,0,0,0,.79-.17l.58-.22c.18-.08.34-.14.49-.19a2.41,2.41,0,0,1,.43-.1,1,1,0,0,1,.67.21,2.06,2.06,0,0,1,.58.72,1.8,1.8,0,0,1,.23.52,2.14,2.14,0,0,1,.06.5,1.34,1.34,0,0,1-.61,1.09,4.68,4.68,0,0,1-1.72.73A11.06,11.06,0,0,1,224.38,31.12Zm-2.67-7.41h3.95a1,1,0,0,0,.57-.14c.14-.09.2-.27.2-.54a1.23,1.23,0,0,0-.27-.77,1.8,1.8,0,0,0-.74-.54,3.2,3.2,0,0,0-2.44.11,2.36,2.36,0,0,0-.93.8A1.84,1.84,0,0,0,221.71,23.71Z"/><path class="cls-2" d="M236.9,30.9a14.14,14.14,0,0,1-1.82-.1,3.9,3.9,0,0,1-1.35-.4,2.42,2.42,0,0,1-.9-.84,4,4,0,0,1-.52-1.38,9.9,9.9,0,0,1-.18-2.06V14.57a3.82,3.82,0,0,1,.1-.92,1.15,1.15,0,0,1,.49-.7,2.25,2.25,0,0,1,1.31-.28,2.33,2.33,0,0,1,1.29.28,1.12,1.12,0,0,1,.48.7,3.82,3.82,0,0,1,.1.92V26a5.86,5.86,0,0,0,0,.66,1,1,0,0,0,.15.41.54.54,0,0,0,.32.2,1.86,1.86,0,0,0,.52.05,2.62,2.62,0,0,1,.61.08.89.89,0,0,1,.54.45,2.56,2.56,0,0,1,.23,1.25,2.93,2.93,0,0,1-.23,1.3.88.88,0,0,1-.54.48A2.73,2.73,0,0,1,236.9,30.9Z"/><path class="cls-2" d="M247.44,18.61h2.75l3.45-.1a4.43,4.43,0,0,1,.9.09,1.13,1.13,0,0,1,.7.49,2.41,2.41,0,0,1,.27,1.32,2.38,2.38,0,0,1-.26,1.25,1.15,1.15,0,0,1-.69.51,3.43,3.43,0,0,1-.93.12l-3.27-.08-3,0a1.26,1.26,0,0,1-1-.46,2.55,2.55,0,0,1-.29-1.39,2.08,2.08,0,0,1,.36-1.34A1.26,1.26,0,0,1,247.44,18.61Zm5.64,12.3a7.5,7.5,0,0,1-2.2-.28,3.37,3.37,0,0,1-2.39-2.31,7,7,0,0,1-.28-2.11V16.08a4.15,4.15,0,0,1,.09-.92,1.07,1.07,0,0,1,.49-.67,2.51,2.51,0,0,1,1.3-.26,2.39,2.39,0,0,1,1.3.28,1.13,1.13,0,0,1,.49.71,5.4,5.4,0,0,1,.08.91v9.93a3,3,0,0,0,.06.66.71.71,0,0,0,.19.39.68.68,0,0,0,.35.17,2.19,2.19,0,0,0,.55,0,4.67,4.67,0,0,1,1,.1,1.08,1.08,0,0,1,.66.46,2.13,2.13,0,0,1,.24,1.17,2.3,2.3,0,0,1-.28,1.3,1,1,0,0,1-.71.47A5.4,5.4,0,0,1,253.08,30.91Z"/><path class="cls-2" d="M259.3,30.91a2.41,2.41,0,0,1-1.31-.26,1,1,0,0,1-.47-.71,4.73,4.73,0,0,1-.09-.93V20.29a4.52,4.52,0,0,1,.09-.93,1.08,1.08,0,0,1,.49-.69,2.59,2.59,0,0,1,1.33-.26,2.5,2.5,0,0,1,1.26.24,1.06,1.06,0,0,1,.49.55,2,2,0,0,1,.09.54l-.29.15a2,2,0,0,1,.26-.36,3.2,3.2,0,0,1,.59-.55,3.4,3.4,0,0,1,.91-.49,3.62,3.62,0,0,1,1.24-.2,4.66,4.66,0,0,1,.61,0,3.14,3.14,0,0,1,.7.15,2.47,2.47,0,0,1,.66.3,1.66,1.66,0,0,1,.49.46,1.15,1.15,0,0,1,.18.68,3,3,0,0,1-.47,1.73,1.41,1.41,0,0,1-1.2.72,1.66,1.66,0,0,1-.6-.07,1,1,0,0,1-.29-.15.93.93,0,0,0-.26-.15,1.68,1.68,0,0,0-.55-.06,2.34,2.34,0,0,0-.71.1,2.06,2.06,0,0,0-.63.31,1.54,1.54,0,0,0-.45.53,1.46,1.46,0,0,0-.16.71v5.47a5.43,5.43,0,0,1-.08.92,1,1,0,0,1-.49.68A2.6,2.6,0,0,1,259.3,30.91Z"/><path class="cls-2" d="M270.51,16.62a2.43,2.43,0,0,1-1.35-.28,1,1,0,0,1-.48-.72,4.86,4.86,0,0,1-.09-.95,4.75,4.75,0,0,1,.09-1,1,1,0,0,1,.5-.7,2.57,2.57,0,0,1,1.36-.27,2.49,2.49,0,0,1,1.32.28,1.11,1.11,0,0,1,.49.73,4.92,4.92,0,0,1,.09,1,4.73,4.73,0,0,1-.09.93,1.07,1.07,0,0,1-.49.71A2.62,2.62,0,0,1,270.51,16.62Zm0,14.3a2.54,2.54,0,0,1-1.32-.26,1,1,0,0,1-.48-.7,5.45,5.45,0,0,1-.07-.92V20.32a4.46,4.46,0,0,1,.09-.91,1,1,0,0,1,.49-.7,2.47,2.47,0,0,1,1.33-.27,2.38,2.38,0,0,1,1.28.28,1.12,1.12,0,0,1,.48.71,4.77,4.77,0,0,1,.08.94v8.7a4.46,4.46,0,0,1-.09.91,1.05,1.05,0,0,1-.47.69A2.53,2.53,0,0,1,270.5,30.92Z"/><path class="cls-2" d="M285.25,30.9a2.41,2.41,0,0,1-1.37-.32.93.93,0,0,1-.43-.8l.25-.43a2.72,2.72,0,0,1-.57.61,4,4,0,0,1-1.11.65,4.2,4.2,0,0,1-1.67.29,5,5,0,0,1-2.18-.5A5.78,5.78,0,0,1,276.33,29a7,7,0,0,1-1.27-2,6,6,0,0,1-.48-2.38,5.82,5.82,0,0,1,.48-2.33A6.59,6.59,0,0,1,278.18,19a5,5,0,0,1,2.18-.5,4.26,4.26,0,0,1,1.57.26,4.16,4.16,0,0,1,1.09.62,3.43,3.43,0,0,1,.66.67l-.22-.35a1.05,1.05,0,0,1,.44-.91,2.4,2.4,0,0,1,1.39-.31,2.3,2.3,0,0,1,1.28.27,1.16,1.16,0,0,1,.48.73,4.87,4.87,0,0,1,.08.95V29a4.73,4.73,0,0,1-.09.93,1.09,1.09,0,0,1-.47.71A2.42,2.42,0,0,1,285.25,30.9Zm-4.37-3.72a2.21,2.21,0,0,0,1.2-.34,2.66,2.66,0,0,0,.85-.91,2.54,2.54,0,0,0,.33-1.28,2.46,2.46,0,0,0-.33-1.28,2.33,2.33,0,0,0-.87-.89,2.48,2.48,0,0,0-2.49,0,2.53,2.53,0,0,0-.9.91,2.47,2.47,0,0,0-.34,1.3,2.34,2.34,0,0,0,.34,1.24,2.56,2.56,0,0,0,.92.9A2.59,2.59,0,0,0,280.88,27.18ZM280,17.53a.88.88,0,0,1-.74-.25,2.71,2.71,0,0,1-.51-1,2,2,0,0,1-.1-1.31,1.38,1.38,0,0,1,.92-.67L284,13a.91.91,0,0,1,.73.29,2.53,2.53,0,0,1,.5,1,1.85,1.85,0,0,1,.08,1.27,1.32,1.32,0,0,1-.91.68Z"/><path class="cls-2" d="M291.5,30.91a2.39,2.39,0,0,1-1.31-.27,1,1,0,0,1-.47-.7,4.46,4.46,0,0,1-.09-.91v-8.8a4.26,4.26,0,0,1,.09-.89,1,1,0,0,1,.49-.66,2.69,2.69,0,0,1,1.32-.25,2.37,2.37,0,0,1,1.18.22,1,1,0,0,1,.49.51,1.73,1.73,0,0,1,.11.56.91.91,0,0,0,.05.36l-.15.48a1.39,1.39,0,0,1,.39-.76,3.15,3.15,0,0,1,.85-.7,4.73,4.73,0,0,1,1.1-.49,3.93,3.93,0,0,1,1.16-.17,5,5,0,0,1,2.14.43,4.42,4.42,0,0,1,1.58,1.27,5.56,5.56,0,0,1,1,1.94,8.49,8.49,0,0,1,.34,2.43v4.55a5.52,5.52,0,0,1-.08.92,1,1,0,0,1-.48.68,2.57,2.57,0,0,1-1.34.25,2.54,2.54,0,0,1-1.32-.26A1.08,1.08,0,0,1,298,30,4.53,4.53,0,0,1,298,29V24.51a2.74,2.74,0,0,0-.27-1.27,1.76,1.76,0,0,0-.75-.8,2.33,2.33,0,0,0-1.21-.28,2.48,2.48,0,0,0-1.25.29,2,2,0,0,0-.81.81,2.59,2.59,0,0,0-.29,1.25v4.55a4.46,4.46,0,0,1-.09.91,1.06,1.06,0,0,1-.48.69A2.57,2.57,0,0,1,291.5,30.91Z"/><path class="cls-2" d="M309.38,30.62a5,5,0,0,1-2.16-.49,5.72,5.72,0,0,1-1.79-1.34,6.58,6.58,0,0,1-1.23-1.95,6.27,6.27,0,0,1-.44-2.33,6,6,0,0,1,.45-2.31,6.27,6.27,0,0,1,1.24-1.92,6,6,0,0,1,1.8-1.33,4.86,4.86,0,0,1,2.11-.48,3.84,3.84,0,0,1,1.9.44,3.33,3.33,0,0,1,1.25,1.25,6.67,6.67,0,0,1,.71,1.92,11.89,11.89,0,0,1,.24,2.49,10.91,10.91,0,0,1-.42,3.21,4.2,4.2,0,0,1-1.3,2.1A3.58,3.58,0,0,1,309.38,30.62Zm.44,5.47a7,7,0,0,1-1.76-.22,7.92,7.92,0,0,1-1.59-.6,4.91,4.91,0,0,1-1.15-.8,1.25,1.25,0,0,1-.42-.85,1.78,1.78,0,0,1,.15-.74,2.28,2.28,0,0,1,.45-.66,5.15,5.15,0,0,1,.6-.58,1,1,0,0,1,.6-.2,1.09,1.09,0,0,1,.63.19l.58.41a3.84,3.84,0,0,0,.79.42,3.45,3.45,0,0,0,1.2.18,2.46,2.46,0,0,0,.94-.18,2.15,2.15,0,0,0,.75-.55,3,3,0,0,0,.5-.85,2.94,2.94,0,0,0,.19-1.09V19.62a1.24,1.24,0,0,1,.52-.94,2.48,2.48,0,0,1,1.34-.28,2.22,2.22,0,0,1,1.25.26,1.06,1.06,0,0,1,.46.69,5.11,5.11,0,0,1,.08.9v9.87a5.88,5.88,0,0,1-.53,2.54,5.61,5.61,0,0,1-1.4,1.87,6,6,0,0,1-1.95,1.16A6.28,6.28,0,0,1,309.82,36.09Zm0-9.1a2.23,2.23,0,0,0,1.2-.33,2.63,2.63,0,0,0,.83-.89,2.6,2.6,0,0,0,0-2.5,2.3,2.3,0,0,0-2.06-1.2,2.13,2.13,0,0,0-1.2.34,2.53,2.53,0,0,0-.84.88,2.6,2.6,0,0,0-.31,1.25,2.36,2.36,0,0,0,.33,1.23,2.61,2.61,0,0,0,.86.89A2.22,2.22,0,0,0,309.81,27Z"/><path class="cls-2" d="M323.88,30.93a5.25,5.25,0,0,1-2.18-.45A5.46,5.46,0,0,1,320,29.21a5.8,5.8,0,0,1-1.16-1.92,7.14,7.14,0,0,1-.41-2.44V20.32a4.42,4.42,0,0,1,.09-.92,1.1,1.1,0,0,1,.49-.7,3.25,3.25,0,0,1,2.64,0,1.14,1.14,0,0,1,.47.71,4.76,4.76,0,0,1,.09.94v4.5a2.78,2.78,0,0,0,.27,1.26,1.8,1.8,0,0,0,.77.82,2.57,2.57,0,0,0,1.21.27,2.5,2.5,0,0,0,1.24-.28,2.1,2.1,0,0,0,.8-.82,2.57,2.57,0,0,0,.29-1.25V20.3a4.42,4.42,0,0,1,.09-.92,1.08,1.08,0,0,1,.49-.69,2.57,2.57,0,0,1,1.32-.26,2.31,2.31,0,0,1,1.32.28,1.14,1.14,0,0,1,.47.71,4.46,4.46,0,0,1,.09.91v8.8a4.19,4.19,0,0,1-.09.89,1,1,0,0,1-.48.66,2.52,2.52,0,0,1-1.3.25,2.92,2.92,0,0,1-1.05-.15,1.25,1.25,0,0,1-.55-.38,1,1,0,0,1-.22-.47,3.91,3.91,0,0,1,0-.45l.32-.28a2.39,2.39,0,0,1-.32.39,5.28,5.28,0,0,1-.67.58,4.36,4.36,0,0,1-1,.53A3.34,3.34,0,0,1,323.88,30.93Z"/><path class="cls-2" d="M337.8,31a14.14,14.14,0,0,1-1.82-.1,3.77,3.77,0,0,1-1.35-.4,2.42,2.42,0,0,1-.9-.84,4,4,0,0,1-.53-1.37,10.92,10.92,0,0,1-.17-2.07V14.63a3.82,3.82,0,0,1,.1-.92,1.11,1.11,0,0,1,.49-.7,3.13,3.13,0,0,1,2.59,0,1.18,1.18,0,0,1,.49.7,3.82,3.82,0,0,1,.1.92V26a5.86,5.86,0,0,0,0,.66,1,1,0,0,0,.15.41.62.62,0,0,0,.31.21,2.6,2.6,0,0,0,.53,0,2.62,2.62,0,0,1,.61.08.89.89,0,0,1,.54.45,2.58,2.58,0,0,1,.22,1.25,2.81,2.81,0,0,1-.22,1.3.88.88,0,0,1-.54.48A2.73,2.73,0,0,1,337.8,31Z"/><path class="cls-2" d="M347,31.17a6.22,6.22,0,0,1-2.34-.47,6.91,6.91,0,0,1-2.11-1.31,6.24,6.24,0,0,1-1.51-2,5.87,5.87,0,0,1-.56-2.64A6.16,6.16,0,0,1,341,22.2a6.75,6.75,0,0,1,3.48-3.47,5.92,5.92,0,0,1,2.48-.51,6.29,6.29,0,0,1,3.27.86,6.61,6.61,0,0,1,2.33,2.34,6.63,6.63,0,0,1,.31,6,6.21,6.21,0,0,1-1.5,2,6.46,6.46,0,0,1-2.08,1.29A6.32,6.32,0,0,1,347,31.17Zm0-3.78a2.78,2.78,0,0,0,1.22-.3,2.67,2.67,0,0,0,1.05-.9,2.53,2.53,0,0,0,.43-1.52,2.74,2.74,0,0,0-.35-1.4,2.41,2.41,0,0,0-1-.94A2.83,2.83,0,0,0,347,22a2.6,2.6,0,0,0-1.34.35,2.65,2.65,0,0,0-.95,1,2.69,2.69,0,0,0-.36,1.39,2.6,2.6,0,0,0,.41,1.51,2.47,2.47,0,0,0,1,.9A3,3,0,0,0,347,27.39Z"/><text class="cls-4" transform="matrix(0.97, 0, 0, 1, 42.78, 37.89)">4.3</text><text class="cls-5" transform="matrix(0.97, 0, 0, 1, 42.78, 37.89)">4.3</text></g></g></svg>