<svg xmlns="http://www.w3.org/2000/svg" viewBox="0 0 401.16 88.63"><defs><style>.cls-1{fill:#0468ad;}.cls-2{fill:#fff;}.cls-3,.cls-4{fill:none;stroke-width:5px;}.cls-3{stroke:#c8a927;stroke-linejoin:round;}.cls-4,.cls-7{font-size:42px;font-family:Coiny-Regular, Coiny;}.cls-4{stroke:#fff;}.cls-5{letter-spacing:-0.1em;}.cls-6{letter-spacing:0em;}.cls-7{fill:#c8a927;}</style></defs><title>44t</title><g id="Layer_2" data-name="Layer 2"><g id="pestaña_identificativa" data-name="pestaña identificativa"><rect class="cls-1" y="0.3" width="401.16" height="88.33" rx="32.4"/><path class="cls-2" d="M135.61,31a8.57,8.57,0,0,1-2.32-.34,9.24,9.24,0,0,1-2.41-1.05,8.87,8.87,0,0,1-2.14-1.79,8.05,8.05,0,0,1-1.51-2.55,9.36,9.36,0,0,1-.56-3.32,8.8,8.8,0,0,1,.56-3.24,8.09,8.09,0,0,1,1.52-2.46,9,9,0,0,1,2.12-1.74,10.15,10.15,0,0,1,2.42-1,8.82,8.82,0,0,1,2.38-.34,7.06,7.06,0,0,1,2.23.31,8.74,8.74,0,0,1,1.54.62l.76.43a7.64,7.64,0,0,1,.85.65,1.2,1.2,0,0,1,.42.9,1.59,1.59,0,0,1-.11.6,2.29,2.29,0,0,1-.34.6,3.14,3.14,0,0,1-.77.83,1.27,1.27,0,0,1-.73.27,1.16,1.16,0,0,1-.57-.15c-.19-.1-.4-.24-.65-.4s-.29-.19-.5-.32a4,4,0,0,0-.89-.34,5.78,5.78,0,0,0-3.15.15,5.07,5.07,0,0,0-1.64.93,4.45,4.45,0,0,0-1.2,1.58,5.35,5.35,0,0,0-.45,2.27,5.11,5.11,0,0,0,.46,2.25,4.75,4.75,0,0,0,1.21,1.57,5.29,5.29,0,0,0,1.64.94,5.16,5.16,0,0,0,1.74.31,4.66,4.66,0,0,0,1.27-.15,5,5,0,0,0,.93-.36l.67-.38c.19-.12.37-.23.56-.33a1.29,1.29,0,0,1,.59-.15,1.13,1.13,0,0,1,.71.28,4.32,4.32,0,0,1,1.08,1.51,1.92,1.92,0,0,1,.11.61,1.07,1.07,0,0,1-.41.86,8.62,8.62,0,0,1-.87.62l-.75.43a6.76,6.76,0,0,1-1.52.63A8,8,0,0,1,135.61,31Z"/><path class="cls-2" d="M149.61,31a6.2,6.2,0,0,1-2.33-.46,7.11,7.11,0,0,1-2.12-1.32,6.38,6.38,0,0,1-1.51-2,6.22,6.22,0,0,1-.56-2.64,6,6,0,0,1,.52-2.51A6.67,6.67,0,0,1,145,20a6.93,6.93,0,0,1,2.06-1.41,6.16,6.16,0,0,1,2.49-.51,6.24,6.24,0,0,1,3.26.87,6.45,6.45,0,0,1,2.34,2.33,6.71,6.71,0,0,1,.31,6,6.66,6.66,0,0,1-1.5,2,6.57,6.57,0,0,1-2.08,1.29A6.36,6.36,0,0,1,149.61,31Zm0-3.77a2.81,2.81,0,0,0,1.22-.3,2.67,2.67,0,0,0,1.05-.9,2.61,2.61,0,0,0,.43-1.53,2.77,2.77,0,0,0-.35-1.4,2.45,2.45,0,0,0-1-.93,2.84,2.84,0,0,0-1.42-.34,2.47,2.47,0,0,0-1.33.35,2.57,2.57,0,0,0-1,1,2.6,2.6,0,0,0-.37,1.39,2.68,2.68,0,0,0,.41,1.51,2.49,2.49,0,0,0,1,.9A3,3,0,0,0,149.57,27.27Z"/><path class="cls-2" d="M162.86,30.85a14.14,14.14,0,0,1-1.82-.1,3.9,3.9,0,0,1-1.35-.4,2.42,2.42,0,0,1-.9-.84,4,4,0,0,1-.52-1.38,9.9,9.9,0,0,1-.18-2.06V14.52a3.82,3.82,0,0,1,.1-.92,1.15,1.15,0,0,1,.49-.7,2.27,2.27,0,0,1,1.31-.28,2.33,2.33,0,0,1,1.29.28,1.17,1.17,0,0,1,.48.7,3.82,3.82,0,0,1,.1.92V25.9a5.86,5.86,0,0,0,0,.66.93.93,0,0,0,.15.41.49.49,0,0,0,.32.2,1.81,1.81,0,0,0,.52.06,2.6,2.6,0,0,1,.61.07.89.89,0,0,1,.54.45,2.56,2.56,0,0,1,.23,1.25,2.93,2.93,0,0,1-.23,1.3.88.88,0,0,1-.54.48A2.73,2.73,0,0,1,162.86,30.85Z"/><path class="cls-2" d="M172.09,31.06a6.47,6.47,0,0,1-2.34-.47,7.24,7.24,0,0,1-2.11-1.31,6.38,6.38,0,0,1-1.51-2,6,6,0,0,1-.56-2.64,6.16,6.16,0,0,1,.51-2.51A6.49,6.49,0,0,1,167.5,20a6.63,6.63,0,0,1,2.06-1.41,6.09,6.09,0,0,1,2.49-.51,6.26,6.26,0,0,1,3.26.86,6.61,6.61,0,0,1,2.33,2.34,6.38,6.38,0,0,1-1.19,8,6.53,6.53,0,0,1-2.07,1.29A6.38,6.38,0,0,1,172.09,31.06ZM172,27.28a2.85,2.85,0,0,0,1.23-.3,2.81,2.81,0,0,0,1-.9,2.6,2.6,0,0,0,.42-1.52,2.65,2.65,0,0,0-.35-1.4,2.41,2.41,0,0,0-1-.94,2.83,2.83,0,0,0-1.41-.34,2.6,2.6,0,0,0-1.34.35,2.65,2.65,0,0,0-1,1,2.69,2.69,0,0,0-.36,1.39,2.6,2.6,0,0,0,.41,1.51,2.43,2.43,0,0,0,1,.9A2.9,2.9,0,0,0,172,27.28Z"/><path class="cls-2" d="M182.41,30.86a2.5,2.5,0,0,1-1.31-.26,1.08,1.08,0,0,1-.47-.71,4.73,4.73,0,0,1-.09-.93V20.24a4.45,4.45,0,0,1,.09-.93,1.08,1.08,0,0,1,.49-.69,2.59,2.59,0,0,1,1.33-.26,2.5,2.5,0,0,1,1.26.24,1.06,1.06,0,0,1,.49.55,2,2,0,0,1,.09.54l-.29.15a2,2,0,0,1,.26-.36,3.2,3.2,0,0,1,.59-.55,3.14,3.14,0,0,1,.91-.49,3.62,3.62,0,0,1,1.24-.2,4.66,4.66,0,0,1,.61,0,3.14,3.14,0,0,1,.7.15,2.47,2.47,0,0,1,.66.3,1.66,1.66,0,0,1,.49.46,1.15,1.15,0,0,1,.18.68,3,3,0,0,1-.47,1.73,1.41,1.41,0,0,1-1.2.72,2.36,2.36,0,0,1-.6-.07,1,1,0,0,1-.29-.15.93.93,0,0,0-.26-.15,1.68,1.68,0,0,0-.55-.06,2.34,2.34,0,0,0-.71.1,2.06,2.06,0,0,0-.63.31,1.54,1.54,0,0,0-.45.53,1.46,1.46,0,0,0-.16.71V29a4.63,4.63,0,0,1-.08.92,1,1,0,0,1-.49.68A2.6,2.6,0,0,1,182.41,30.86Z"/><path class="cls-2" d="M197.81,31.1a7.28,7.28,0,0,1-3-.58A5.74,5.74,0,0,1,192.74,29a6.57,6.57,0,0,1-1.2-2.08,6.92,6.92,0,0,1-.4-2.3,6.54,6.54,0,0,1,.85-3.33A6.12,6.12,0,0,1,194.36,19a7,7,0,0,1,3.46-.84,6.39,6.39,0,0,1,2.51.46,5.11,5.11,0,0,1,1.75,1.21,5.18,5.18,0,0,1,1,1.58,4.51,4.51,0,0,1,.33,1.63,2.82,2.82,0,0,1-.66,2.05,2.27,2.27,0,0,1-1.69.67h-6a1.74,1.74,0,0,0,.46,1.07,2.73,2.73,0,0,0,1,.7,3.49,3.49,0,0,0,1.32.26,6.54,6.54,0,0,0,1-.07,4.49,4.49,0,0,0,.79-.17l.59-.23.49-.18a2.53,2.53,0,0,1,.42-.1,1,1,0,0,1,.67.21,2.11,2.11,0,0,1,.58.71,1.75,1.75,0,0,1,.24.53,2.14,2.14,0,0,1,.06.5,1.36,1.36,0,0,1-.61,1.09,4.91,4.91,0,0,1-1.73.73A11,11,0,0,1,197.81,31.1Zm-2.67-7.41h4a1.06,1.06,0,0,0,.58-.14.62.62,0,0,0,.2-.54,1.18,1.18,0,0,0-.28-.77,1.67,1.67,0,0,0-.73-.54,2.8,2.8,0,0,0-1.09-.19,3,3,0,0,0-1.35.3,2.39,2.39,0,0,0-.94.8A1.91,1.91,0,0,0,195.14,23.69Z"/><path class="cls-2" d="M215.74,30.86a2.34,2.34,0,0,1-1.38-.33.89.89,0,0,1-.42-.8l.25-.42a2.8,2.8,0,0,1-.58.61,4.11,4.11,0,0,1-1.11.65,4.34,4.34,0,0,1-1.66.28,4.88,4.88,0,0,1-2.19-.5A5.85,5.85,0,0,1,206.81,29a7.21,7.21,0,0,1-1.27-2,6.13,6.13,0,0,1,0-4.71,6.9,6.9,0,0,1,1.29-2,6.56,6.56,0,0,1,1.84-1.36,4.94,4.94,0,0,1,2.18-.5,4.09,4.09,0,0,1,1.57.27,4.32,4.32,0,0,1,1.09.61,3.2,3.2,0,0,1,.66.68l-.22-.35a1.06,1.06,0,0,1,.43-.92,2.51,2.51,0,0,1,1.39-.31,2.24,2.24,0,0,1,1.29.28,1.1,1.1,0,0,1,.47.72,4.86,4.86,0,0,1,.09.95V29a5.62,5.62,0,0,1-.08.92,1.07,1.07,0,0,1-.48.71A2.39,2.39,0,0,1,215.74,30.86Zm-4.37-3.73a2.16,2.16,0,0,0,1.2-.34,2.57,2.57,0,0,0,.85-.91,2.6,2.6,0,0,0,.32-1.27,2.57,2.57,0,0,0-.32-1.29,2.42,2.42,0,0,0-.88-.89,2.3,2.3,0,0,0-1.22-.33,2.42,2.42,0,0,0-1.26.34,2.53,2.53,0,0,0-.9.91,2.5,2.5,0,0,0-.34,1.3,2.42,2.42,0,0,0,.33,1.24,2.6,2.6,0,0,0,2.22,1.24Z"/><path class="cls-2" d="M231.44,30.89a14.3,14.3,0,0,1-1.83-.1,3.9,3.9,0,0,1-1.35-.4,2.58,2.58,0,0,1-.9-.84,3.92,3.92,0,0,1-.52-1.37,9.48,9.48,0,0,1-.17-2.07V14.56a4.4,4.4,0,0,1,.1-.92,1.18,1.18,0,0,1,.49-.7,2.31,2.31,0,0,1,1.31-.27,2.34,2.34,0,0,1,1.29.27,1.18,1.18,0,0,1,.49.7,4.42,4.42,0,0,1,.1.93V25.94a4,4,0,0,0,0,.66.8.8,0,0,0,.15.42.56.56,0,0,0,.31.2,2.4,2.4,0,0,0,.52.05,2.68,2.68,0,0,1,.62.07.91.91,0,0,1,.54.45,2.7,2.7,0,0,1,.22,1.25,2.76,2.76,0,0,1-.23,1.3.89.89,0,0,1-.53.48A2.79,2.79,0,0,1,231.44,30.89Z"/><path class="cls-2" d="M236.67,16.59a2.53,2.53,0,0,1-1.35-.27,1.14,1.14,0,0,1-.49-.73,5.7,5.7,0,0,1-.08-.95,4.75,4.75,0,0,1,.09-1,1,1,0,0,1,.5-.7,2.66,2.66,0,0,1,1.36-.26A2.33,2.33,0,0,1,238,13a1.09,1.09,0,0,1,.49.72,5,5,0,0,1,.09,1,4.7,4.7,0,0,1-.09.92,1.05,1.05,0,0,1-.49.71A2.54,2.54,0,0,1,236.67,16.59Zm0,14.3a2.45,2.45,0,0,1-1.32-.26,1,1,0,0,1-.48-.7,5.41,5.41,0,0,1-.07-.91V20.29a4.53,4.53,0,0,1,.09-.91,1.08,1.08,0,0,1,.49-.7,2.59,2.59,0,0,1,1.33-.26,2.23,2.23,0,0,1,1.28.28,1.12,1.12,0,0,1,.48.71,4.64,4.64,0,0,1,.08.94v8.7a4.53,4.53,0,0,1-.09.91,1.06,1.06,0,0,1-.48.69A2.59,2.59,0,0,1,236.66,30.89Z"/><path class="cls-2" d="M243,30.9a2.28,2.28,0,0,1-1.3-.28,1.1,1.1,0,0,1-.49-.71,4.53,4.53,0,0,1-.09-.91V14.62a4.76,4.76,0,0,1,.09-.94,1,1,0,0,1,.49-.69,2.43,2.43,0,0,1,1.32-.27,2.26,2.26,0,0,1,1.28.28,1.08,1.08,0,0,1,.45.71,4.55,4.55,0,0,1,0,.91V29.77a1.31,1.31,0,0,1-.53.85A2.21,2.21,0,0,1,243,30.9Zm4.85,0a4.36,4.36,0,0,1-2.15-.52A4.46,4.46,0,0,1,244.2,29a6.44,6.44,0,0,1-.92-2,8.15,8.15,0,0,1-.29-2.4,8.34,8.34,0,0,1,.33-2.35,6.2,6.2,0,0,1,.94-2,4.35,4.35,0,0,1,1.52-1.34,4.47,4.47,0,0,1,2.11-.48,4.75,4.75,0,0,1,2.15.5,6.24,6.24,0,0,1,1.84,1.36,6.45,6.45,0,0,1,1.27,2,6,6,0,0,1,.47,2.33,6.36,6.36,0,0,1-.47,2.42,6.7,6.7,0,0,1-1.26,2,5.87,5.87,0,0,1-1.83,1.36A5.06,5.06,0,0,1,247.89,30.88Zm-.5-3.7a2.39,2.39,0,0,0,1.25-.34,2.67,2.67,0,0,0,.89-.91,2.55,2.55,0,0,0,.34-1.28,2.51,2.51,0,0,0-.33-1.27,2.2,2.2,0,0,0-.89-.9,2.36,2.36,0,0,0-1.23-.33,2.43,2.43,0,0,0-2.12,1.24,2.61,2.61,0,0,0-.31,1.26,2.48,2.48,0,0,0,.33,1.27,2.41,2.41,0,0,0,.87.92A2.32,2.32,0,0,0,247.39,27.18Z"/><path class="cls-2" d="M257.66,30.91a2.37,2.37,0,0,1-1.31-.27,1.07,1.07,0,0,1-.48-.71,5.62,5.62,0,0,1-.08-.92V20.28a4.42,4.42,0,0,1,.09-.92,1,1,0,0,1,.49-.69,2.47,2.47,0,0,1,1.32-.26,2.52,2.52,0,0,1,1.27.24,1,1,0,0,1,.48.55,1.63,1.63,0,0,1,.1.53l-.3.15.27-.36a3.47,3.47,0,0,1,.58-.55,3.79,3.79,0,0,1,.92-.49,3.38,3.38,0,0,1,1.23-.19l.62,0a4.89,4.89,0,0,1,.7.15,3.32,3.32,0,0,1,.66.3,1.69,1.69,0,0,1,.49.47,1.17,1.17,0,0,1,.18.67,3.14,3.14,0,0,1-.47,1.74,1.42,1.42,0,0,1-1.2.71,2,2,0,0,1-.6-.06,1,1,0,0,1-.29-.15,1.1,1.1,0,0,0-.26-.15,1.65,1.65,0,0,0-.55-.07,2.84,2.84,0,0,0-.72.1,2.15,2.15,0,0,0-.62.32,1.45,1.45,0,0,0-.61,1.23v5.48a4.46,4.46,0,0,1-.09.91,1,1,0,0,1-.48.69A2.71,2.71,0,0,1,257.66,30.91Z"/><path class="cls-2" d="M273.06,31.14a7.09,7.09,0,0,1-3-.58A5.72,5.72,0,0,1,268,29.05a6.25,6.25,0,0,1-1.2-2.09,6.83,6.83,0,0,1-.4-2.3,6.38,6.38,0,0,1,.85-3.32,6.14,6.14,0,0,1,2.37-2.29,7,7,0,0,1,3.46-.83,6.22,6.22,0,0,1,2.51.46,5.23,5.23,0,0,1,1.75,1.2,5.1,5.1,0,0,1,1,1.59,4.5,4.5,0,0,1,.33,1.62,2.82,2.82,0,0,1-.66,2.05,2.28,2.28,0,0,1-1.69.68h-5.95a1.77,1.77,0,0,0,.46,1.08,2.85,2.85,0,0,0,1,.7,3.44,3.44,0,0,0,1.32.25,8.1,8.1,0,0,0,1-.06,4.49,4.49,0,0,0,.79-.17l.59-.23.48-.19a2.63,2.63,0,0,1,.43-.1,1,1,0,0,1,.67.22,1.93,1.93,0,0,1,.58.71,2.37,2.37,0,0,1,.24.52,2.2,2.2,0,0,1,.06.5,1.35,1.35,0,0,1-.62,1.09,4.77,4.77,0,0,1-1.72.74A11.56,11.56,0,0,1,273.06,31.14Zm-2.67-7.4h3.95a1,1,0,0,0,.58-.14.61.61,0,0,0,.2-.53,1.21,1.21,0,0,0-.28-.78,1.84,1.84,0,0,0-.73-.54,3,3,0,0,0-1.09-.18,3,3,0,0,0-1.35.3,2.31,2.31,0,0,0-.94.8A1.84,1.84,0,0,0,270.39,23.74Z"/><path class="cls-2" d="M282.61,30.92a2.4,2.4,0,0,1-1.3-.27,1.06,1.06,0,0,1-.47-.7,5.46,5.46,0,0,1-.08-.93V20.27a4.36,4.36,0,0,1,.09-.9,1.07,1.07,0,0,1,.48-.69,2.59,2.59,0,0,1,1.33-.26,2,2,0,0,1,1.35.37,1.47,1.47,0,0,1,.42,1.18l-.32.28a1.87,1.87,0,0,1,.3-.43,4.36,4.36,0,0,1,.65-.62,3.6,3.6,0,0,1,.94-.56,2.8,2.8,0,0,1,1.16-.24,4.39,4.39,0,0,1,1.49.24,3.82,3.82,0,0,1,1.2.7,4.52,4.52,0,0,1,.93,1.16,6.87,6.87,0,0,1,.85-1,4.46,4.46,0,0,1,1.18-.8,3.43,3.43,0,0,1,1.52-.33,4.17,4.17,0,0,1,2.49.74,4.49,4.49,0,0,1,1.54,2.12,9.29,9.29,0,0,1,.52,3.32v4.48a4.53,4.53,0,0,1-.1.91,1.15,1.15,0,0,1-.49.7,2.5,2.5,0,0,1-1.31.26,2.47,2.47,0,0,1-1.33-.27,1.08,1.08,0,0,1-.47-.72,5.31,5.31,0,0,1-.08-.91V24.55a4,4,0,0,0-.19-1.28,1.88,1.88,0,0,0-.54-.83,1.37,1.37,0,0,0-.9-.29,1.68,1.68,0,0,0-1,.28,1.6,1.6,0,0,0-.6.8,3.7,3.7,0,0,0-.2,1.35v4.47a3.51,3.51,0,0,1-.12.94,1.28,1.28,0,0,1-.54.7,2.58,2.58,0,0,1-1.34.24,2.11,2.11,0,0,1-1.25-.29,1.12,1.12,0,0,1-.45-.73,5.14,5.14,0,0,1-.07-.88V24.55a4.55,4.55,0,0,0-.17-1.3,1.73,1.73,0,0,0-.53-.83,1.46,1.46,0,0,0-.92-.27,1.62,1.62,0,0,0-1,.32,2,2,0,0,0-.59.87,3.76,3.76,0,0,0-.18,1.21v4.5a4.42,4.42,0,0,1-.09.92,1,1,0,0,1-.48.69A2.59,2.59,0,0,1,282.61,30.92Z"/><path class="cls-2" d="M307.54,31.16a7.17,7.17,0,0,1-3-.58,5.72,5.72,0,0,1-2.06-1.51,6.51,6.51,0,0,1-1.2-2.09,6.82,6.82,0,0,1-.39-2.3,6.41,6.41,0,0,1,.85-3.32,6,6,0,0,1,2.36-2.29,7,7,0,0,1,3.46-.83,6.27,6.27,0,0,1,2.52.46,5.18,5.18,0,0,1,1.74,1.2,5.1,5.1,0,0,1,1,1.59,4.54,4.54,0,0,1,.34,1.63,2.9,2.9,0,0,1-.67,2.05,2.29,2.29,0,0,1-1.69.67h-5.95a1.78,1.78,0,0,0,.47,1.08,2.81,2.81,0,0,0,1,.7,3.5,3.5,0,0,0,1.33.25,8.22,8.22,0,0,0,1-.06,4.37,4.37,0,0,0,.78-.17c.22-.08.42-.15.59-.23l.49-.19a2.53,2.53,0,0,1,.42-.1,1,1,0,0,1,.68.22,2,2,0,0,1,.57.71,1.65,1.65,0,0,1,.24.53,2.07,2.07,0,0,1,.06.5,1.33,1.33,0,0,1-.61,1.08,4.73,4.73,0,0,1-1.73.74A11.47,11.47,0,0,1,307.54,31.16Zm-2.67-7.4h3.95a1,1,0,0,0,.57-.13.65.65,0,0,0,.2-.54,1.25,1.25,0,0,0-.27-.78,1.76,1.76,0,0,0-.74-.53,2.8,2.8,0,0,0-1.09-.19,3,3,0,0,0-1.35.3,2.38,2.38,0,0,0-.94.8A1.9,1.9,0,0,0,304.87,23.76Z"/><path class="cls-2" d="M317.14,30.92a2.41,2.41,0,0,1-1.32-.27,1,1,0,0,1-.47-.7,4.46,4.46,0,0,1-.09-.91v-8.8a4.19,4.19,0,0,1,.09-.89,1,1,0,0,1,.48-.66,2.71,2.71,0,0,1,1.33-.25,2.35,2.35,0,0,1,1.17.22,1,1,0,0,1,.49.51,1.5,1.5,0,0,1,.11.56.91.91,0,0,0,.05.36l-.15.48a1.43,1.43,0,0,1,.39-.76,3.53,3.53,0,0,1,.85-.7,4.73,4.73,0,0,1,1.1-.49,3.93,3.93,0,0,1,1.16-.17,5,5,0,0,1,2.14.43,4.46,4.46,0,0,1,1.59,1.27,5.72,5.72,0,0,1,1,1.94,8.16,8.16,0,0,1,.34,2.43v4.55a4.56,4.56,0,0,1-.09.92,1,1,0,0,1-.48.68,2.55,2.55,0,0,1-1.33.25,2.59,2.59,0,0,1-1.33-.26,1.08,1.08,0,0,1-.49-.7,5.4,5.4,0,0,1-.08-.91V24.52a2.87,2.87,0,0,0-.26-1.27,1.88,1.88,0,0,0-.75-.8,2.38,2.38,0,0,0-1.21-.28,2.57,2.57,0,0,0-1.25.29,2,2,0,0,0-.82.81,2.59,2.59,0,0,0-.29,1.25v4.55a4.46,4.46,0,0,1-.09.91,1,1,0,0,1-.47.69A2.62,2.62,0,0,1,317.14,30.92Z"/><path class="cls-2" d="M330.62,18.65h2.75l3.45-.1a4.43,4.43,0,0,1,.9.09,1.13,1.13,0,0,1,.7.49,2.47,2.47,0,0,1,.27,1.33,2.4,2.4,0,0,1-.26,1.25,1.24,1.24,0,0,1-.69.51,3.8,3.8,0,0,1-.92.11l-3.28-.08-3,0a1.29,1.29,0,0,1-1-.47,2.51,2.51,0,0,1-.28-1.39,2.07,2.07,0,0,1,.35-1.33A1.26,1.26,0,0,1,330.62,18.65ZM336.26,31a7.92,7.92,0,0,1-2.2-.27,3.36,3.36,0,0,1-2.39-2.32,6.91,6.91,0,0,1-.28-2.11V16.13a4.31,4.31,0,0,1,.09-.93,1,1,0,0,1,.49-.66,3.32,3.32,0,0,1,2.6,0,1.12,1.12,0,0,1,.49.72,4.47,4.47,0,0,1,.08.91V26.1a3.13,3.13,0,0,0,.06.67.72.72,0,0,0,.19.38.62.62,0,0,0,.35.18,2.79,2.79,0,0,0,.55.05,4.07,4.07,0,0,1,1,.1,1,1,0,0,1,.66.45,2.17,2.17,0,0,1,.24,1.18,2.4,2.4,0,0,1-.27,1.3,1.11,1.11,0,0,1-.72.47A5.33,5.33,0,0,1,336.26,31Z"/><path class="cls-2" d="M346.81,31.19a7.41,7.41,0,0,1-3-.58,5.86,5.86,0,0,1-2.06-1.52,6.21,6.21,0,0,1-1.2-2.08,6.92,6.92,0,0,1-.4-2.3,6.45,6.45,0,0,1,.85-3.33,6.12,6.12,0,0,1,2.37-2.28,7,7,0,0,1,3.46-.84,6.43,6.43,0,0,1,2.51.46,5.11,5.11,0,0,1,1.75,1.21,5,5,0,0,1,1,1.58,4.33,4.33,0,0,1,.34,1.63,2.82,2.82,0,0,1-.66,2.05,2.28,2.28,0,0,1-1.69.67h-5.95a1.74,1.74,0,0,0,.46,1.07,2.66,2.66,0,0,0,1,.7,3.65,3.65,0,0,0,1.32.26,6.54,6.54,0,0,0,1-.07,4.49,4.49,0,0,0,.79-.17c.21-.08.41-.15.58-.23l.49-.18a1.78,1.78,0,0,1,.43-.1,1,1,0,0,1,.67.21,2.11,2.11,0,0,1,.58.71,2,2,0,0,1,.23.53,1.68,1.68,0,0,1,.07.5,1.36,1.36,0,0,1-.62,1.09,4.86,4.86,0,0,1-1.72.73A11.51,11.51,0,0,1,346.81,31.19Zm-2.67-7.41h3.95a1,1,0,0,0,.57-.14.6.6,0,0,0,.21-.54,1.24,1.24,0,0,0-.28-.77,1.64,1.64,0,0,0-.74-.54,2.78,2.78,0,0,0-1.08-.19,3,3,0,0,0-1.35.3,2.39,2.39,0,0,0-.94.8A1.84,1.84,0,0,0,344.14,23.78Z"/><path class="cls-3" d="M135.61,31a8.57,8.57,0,0,1-2.32-.34,9.24,9.24,0,0,1-2.41-1.05,8.87,8.87,0,0,1-2.14-1.79,8.05,8.05,0,0,1-1.51-2.55,9.36,9.36,0,0,1-.56-3.32,8.8,8.8,0,0,1,.56-3.24,8.09,8.09,0,0,1,1.52-2.46,9,9,0,0,1,2.12-1.74,10.15,10.15,0,0,1,2.42-1,8.82,8.82,0,0,1,2.38-.34,7.06,7.06,0,0,1,2.23.31,8.74,8.74,0,0,1,1.54.62l.76.43a7.64,7.64,0,0,1,.85.65,1.2,1.2,0,0,1,.42.9,1.59,1.59,0,0,1-.11.6,2.29,2.29,0,0,1-.34.6,3.14,3.14,0,0,1-.77.83,1.27,1.27,0,0,1-.73.27,1.16,1.16,0,0,1-.57-.15c-.19-.1-.4-.24-.65-.4s-.29-.19-.5-.32a4,4,0,0,0-.89-.34,5.78,5.78,0,0,0-3.15.15,5.07,5.07,0,0,0-1.64.93,4.45,4.45,0,0,0-1.2,1.58,5.35,5.35,0,0,0-.45,2.27,5.11,5.11,0,0,0,.46,2.25,4.75,4.75,0,0,0,1.21,1.57,5.29,5.29,0,0,0,1.64.94,5.16,5.16,0,0,0,1.74.31,4.66,4.66,0,0,0,1.27-.15,5,5,0,0,0,.93-.36l.67-.38c.19-.12.37-.23.56-.33a1.29,1.29,0,0,1,.59-.15,1.13,1.13,0,0,1,.71.28,4.32,4.32,0,0,1,1.08,1.51,1.92,1.92,0,0,1,.11.61,1.07,1.07,0,0,1-.41.86,8.62,8.62,0,0,1-.87.62l-.75.43a6.76,6.76,0,0,1-1.52.63A8,8,0,0,1,135.61,31Z"/><path class="cls-3" d="M149.61,31a6.2,6.2,0,0,1-2.33-.46,7.11,7.11,0,0,1-2.12-1.32,6.38,6.38,0,0,1-1.51-2,6.22,6.22,0,0,1-.56-2.64,6,6,0,0,1,.52-2.51A6.67,6.67,0,0,1,145,20a6.93,6.93,0,0,1,2.06-1.41,6.16,6.16,0,0,1,2.49-.51,6.24,6.24,0,0,1,3.26.87,6.45,6.45,0,0,1,2.34,2.33,6.71,6.71,0,0,1,.31,6,6.66,6.66,0,0,1-1.5,2,6.57,6.57,0,0,1-2.08,1.29A6.36,6.36,0,0,1,149.61,31Zm0-3.77a2.81,2.81,0,0,0,1.22-.3,2.67,2.67,0,0,0,1.05-.9,2.61,2.61,0,0,0,.43-1.53,2.77,2.77,0,0,0-.35-1.4,2.45,2.45,0,0,0-1-.93,2.84,2.84,0,0,0-1.42-.34,2.47,2.47,0,0,0-1.33.35,2.57,2.57,0,0,0-1,1,2.6,2.6,0,0,0-.37,1.39,2.68,2.68,0,0,0,.41,1.51,2.49,2.49,0,0,0,1,.9A3,3,0,0,0,149.57,27.27Z"/><path class="cls-3" d="M162.86,30.85a14.14,14.14,0,0,1-1.82-.1,3.9,3.9,0,0,1-1.35-.4,2.42,2.42,0,0,1-.9-.84,4,4,0,0,1-.52-1.38,9.9,9.9,0,0,1-.18-2.06V14.52a3.82,3.82,0,0,1,.1-.92,1.15,1.15,0,0,1,.49-.7,2.27,2.27,0,0,1,1.31-.28,2.33,2.33,0,0,1,1.29.28,1.17,1.17,0,0,1,.48.7,3.82,3.82,0,0,1,.1.92V25.9a5.86,5.86,0,0,0,0,.66.93.93,0,0,0,.15.41.49.49,0,0,0,.32.2,1.81,1.81,0,0,0,.52.06,2.6,2.6,0,0,1,.61.07.89.89,0,0,1,.54.45,2.56,2.56,0,0,1,.23,1.25,2.93,2.93,0,0,1-.23,1.3.88.88,0,0,1-.54.48A2.73,2.73,0,0,1,162.86,30.85Z"/><path class="cls-3" d="M172.09,31.06a6.47,6.47,0,0,1-2.34-.47,7.24,7.24,0,0,1-2.11-1.31,6.38,6.38,0,0,1-1.51-2,6,6,0,0,1-.56-2.64,6.16,6.16,0,0,1,.51-2.51A6.49,6.49,0,0,1,167.5,20a6.63,6.63,0,0,1,2.06-1.41,6.09,6.09,0,0,1,2.49-.51,6.26,6.26,0,0,1,3.26.86,6.61,6.61,0,0,1,2.33,2.34,6.38,6.38,0,0,1-1.19,8,6.53,6.53,0,0,1-2.07,1.29A6.38,6.38,0,0,1,172.09,31.06ZM172,27.28a2.85,2.85,0,0,0,1.23-.3,2.81,2.81,0,0,0,1-.9,2.6,2.6,0,0,0,.42-1.52,2.65,2.65,0,0,0-.35-1.4,2.41,2.41,0,0,0-1-.94,2.83,2.83,0,0,0-1.41-.34,2.6,2.6,0,0,0-1.34.35,2.65,2.65,0,0,0-1,1,2.69,2.69,0,0,0-.36,1.39,2.6,2.6,0,0,0,.41,1.51,2.43,2.43,0,0,0,1,.9A2.9,2.9,0,0,0,172,27.28Z"/><path class="cls-3" d="M182.41,30.86a2.5,2.5,0,0,1-1.31-.26,1.08,1.08,0,0,1-.47-.71,4.73,4.73,0,0,1-.09-.93V20.24a4.45,4.45,0,0,1,.09-.93,1.08,1.08,0,0,1,.49-.69,2.59,2.59,0,0,1,1.33-.26,2.5,2.5,0,0,1,1.26.24,1.06,1.06,0,0,1,.49.55,2,2,0,0,1,.09.54l-.29.15a2,2,0,0,1,.26-.36,3.2,3.2,0,0,1,.59-.55,3.14,3.14,0,0,1,.91-.49,3.62,3.62,0,0,1,1.24-.2,4.66,4.66,0,0,1,.61,0,3.14,3.14,0,0,1,.7.15,2.47,2.47,0,0,1,.66.3,1.66,1.66,0,0,1,.49.46,1.15,1.15,0,0,1,.18.68,3,3,0,0,1-.47,1.73,1.41,1.41,0,0,1-1.2.72,2.36,2.36,0,0,1-.6-.07,1,1,0,0,1-.29-.15.93.93,0,0,0-.26-.15,1.68,1.68,0,0,0-.55-.06,2.34,2.34,0,0,0-.71.1,2.06,2.06,0,0,0-.63.31,1.54,1.54,0,0,0-.45.53,1.46,1.46,0,0,0-.16.71V29a4.63,4.63,0,0,1-.08.92,1,1,0,0,1-.49.68A2.6,2.6,0,0,1,182.41,30.86Z"/><path class="cls-3" d="M197.81,31.1a7.28,7.28,0,0,1-3-.58A5.74,5.74,0,0,1,192.74,29a6.57,6.57,0,0,1-1.2-2.08,6.92,6.92,0,0,1-.4-2.3,6.54,6.54,0,0,1,.85-3.33A6.12,6.12,0,0,1,194.36,19a7,7,0,0,1,3.46-.84,6.39,6.39,0,0,1,2.51.46,5.11,5.11,0,0,1,1.75,1.21,5.18,5.18,0,0,1,1,1.58,4.51,4.51,0,0,1,.33,1.63,2.82,2.82,0,0,1-.66,2.05,2.27,2.27,0,0,1-1.69.67h-6a1.74,1.74,0,0,0,.46,1.07,2.73,2.73,0,0,0,1,.7,3.49,3.49,0,0,0,1.32.26,6.54,6.54,0,0,0,1-.07,4.49,4.49,0,0,0,.79-.17l.59-.23.49-.18a2.53,2.53,0,0,1,.42-.1,1,1,0,0,1,.67.21,2.11,2.11,0,0,1,.58.71,1.75,1.75,0,0,1,.24.53,2.14,2.14,0,0,1,.06.5,1.36,1.36,0,0,1-.61,1.09,4.91,4.91,0,0,1-1.73.73A11,11,0,0,1,197.81,31.1Zm-2.67-7.41h4a1.06,1.06,0,0,0,.58-.14.62.62,0,0,0,.2-.54,1.18,1.18,0,0,0-.28-.77,1.67,1.67,0,0,0-.73-.54,2.8,2.8,0,0,0-1.09-.19,3,3,0,0,0-1.35.3,2.39,2.39,0,0,0-.94.8A1.91,1.91,0,0,0,195.14,23.69Z"/><path class="cls-3" d="M215.74,30.86a2.34,2.34,0,0,1-1.38-.33.89.89,0,0,1-.42-.8l.25-.42a2.8,2.8,0,0,1-.58.61,4.11,4.11,0,0,1-1.11.65,4.34,4.34,0,0,1-1.66.28,4.88,4.88,0,0,1-2.19-.5A5.85,5.85,0,0,1,206.81,29a7.21,7.21,0,0,1-1.27-2,6.13,6.13,0,0,1,0-4.71,6.9,6.9,0,0,1,1.29-2,6.56,6.56,0,0,1,1.84-1.36,4.94,4.94,0,0,1,2.18-.5,4.09,4.09,0,0,1,1.57.27,4.32,4.32,0,0,1,1.09.61,3.2,3.2,0,0,1,.66.68l-.22-.35a1.06,1.06,0,0,1,.43-.92,2.51,2.51,0,0,1,1.39-.31,2.24,2.24,0,0,1,1.29.28,1.1,1.1,0,0,1,.47.72,4.86,4.86,0,0,1,.09.95V29a5.62,5.62,0,0,1-.08.92,1.07,1.07,0,0,1-.48.71A2.39,2.39,0,0,1,215.74,30.86Zm-4.37-3.73a2.16,2.16,0,0,0,1.2-.34,2.57,2.57,0,0,0,.85-.91,2.6,2.6,0,0,0,.32-1.27,2.57,2.57,0,0,0-.32-1.29,2.42,2.42,0,0,0-.88-.89,2.3,2.3,0,0,0-1.22-.33,2.42,2.42,0,0,0-1.26.34,2.53,2.53,0,0,0-.9.91,2.5,2.5,0,0,0-.34,1.3,2.42,2.42,0,0,0,.33,1.24,2.6,2.6,0,0,0,2.22,1.24Z"/><path class="cls-3" d="M231.44,30.89a14.3,14.3,0,0,1-1.83-.1,3.9,3.9,0,0,1-1.35-.4,2.58,2.58,0,0,1-.9-.84,3.92,3.92,0,0,1-.52-1.37,9.48,9.48,0,0,1-.17-2.07V14.56a4.4,4.4,0,0,1,.1-.92,1.18,1.18,0,0,1,.49-.7,2.31,2.31,0,0,1,1.31-.27,2.34,2.34,0,0,1,1.29.27,1.18,1.18,0,0,1,.49.7,4.42,4.42,0,0,1,.1.93V25.94a4,4,0,0,0,0,.66.8.8,0,0,0,.15.42.56.56,0,0,0,.31.2,2.4,2.4,0,0,0,.52.05,2.68,2.68,0,0,1,.62.07.91.91,0,0,1,.54.45,2.7,2.7,0,0,1,.22,1.25,2.76,2.76,0,0,1-.23,1.3.89.89,0,0,1-.53.48A2.79,2.79,0,0,1,231.44,30.89Z"/><path class="cls-3" d="M236.67,16.59a2.53,2.53,0,0,1-1.35-.27,1.14,1.14,0,0,1-.49-.73,5.7,5.7,0,0,1-.08-.95,4.75,4.75,0,0,1,.09-1,1,1,0,0,1,.5-.7,2.66,2.66,0,0,1,1.36-.26A2.33,2.33,0,0,1,238,13a1.09,1.09,0,0,1,.49.72,5,5,0,0,1,.09,1,4.7,4.7,0,0,1-.09.92,1.05,1.05,0,0,1-.49.71A2.54,2.54,0,0,1,236.67,16.59Zm0,14.3a2.45,2.45,0,0,1-1.32-.26,1,1,0,0,1-.48-.7,5.41,5.41,0,0,1-.07-.91V20.29a4.53,4.53,0,0,1,.09-.91,1.08,1.08,0,0,1,.49-.7,2.59,2.59,0,0,1,1.33-.26,2.23,2.23,0,0,1,1.28.28,1.12,1.12,0,0,1,.48.71,4.64,4.64,0,0,1,.08.94v8.7a4.53,4.53,0,0,1-.09.91,1.06,1.06,0,0,1-.48.69A2.59,2.59,0,0,1,236.66,30.89Z"/><path class="cls-3" d="M243,30.9a2.28,2.28,0,0,1-1.3-.28,1.1,1.1,0,0,1-.49-.71,4.53,4.53,0,0,1-.09-.91V14.62a4.76,4.76,0,0,1,.09-.94,1,1,0,0,1,.49-.69,2.43,2.43,0,0,1,1.32-.27,2.26,2.26,0,0,1,1.28.28,1.08,1.08,0,0,1,.45.71,4.55,4.55,0,0,1,0,.91V29.77a1.31,1.31,0,0,1-.53.85A2.21,2.21,0,0,1,243,30.9Zm4.85,0a4.36,4.36,0,0,1-2.15-.52A4.46,4.46,0,0,1,244.2,29a6.44,6.44,0,0,1-.92-2,8.15,8.15,0,0,1-.29-2.4,8.34,8.34,0,0,1,.33-2.35,6.2,6.2,0,0,1,.94-2,4.35,4.35,0,0,1,1.52-1.34,4.47,4.47,0,0,1,2.11-.48,4.75,4.75,0,0,1,2.15.5,6.24,6.24,0,0,1,1.84,1.36,6.45,6.45,0,0,1,1.27,2,6,6,0,0,1,.47,2.33,6.36,6.36,0,0,1-.47,2.42,6.7,6.7,0,0,1-1.26,2,5.87,5.87,0,0,1-1.83,1.36A5.06,5.06,0,0,1,247.89,30.88Zm-.5-3.7a2.39,2.39,0,0,0,1.25-.34,2.67,2.67,0,0,0,.89-.91,2.55,2.55,0,0,0,.34-1.28,2.51,2.51,0,0,0-.33-1.27,2.2,2.2,0,0,0-.89-.9,2.36,2.36,0,0,0-1.23-.33,2.43,2.43,0,0,0-2.12,1.24,2.61,2.61,0,0,0-.31,1.26,2.48,2.48,0,0,0,.33,1.27,2.41,2.41,0,0,0,.87.92A2.32,2.32,0,0,0,247.39,27.18Z"/><path class="cls-3" d="M257.66,30.91a2.37,2.37,0,0,1-1.31-.27,1.07,1.07,0,0,1-.48-.71,5.62,5.62,0,0,1-.08-.92V20.28a4.42,4.42,0,0,1,.09-.92,1,1,0,0,1,.49-.69,2.47,2.47,0,0,1,1.32-.26,2.52,2.52,0,0,1,1.27.24,1,1,0,0,1,.48.55,1.63,1.63,0,0,1,.1.53l-.3.15.27-.36a3.47,3.47,0,0,1,.58-.55,3.79,3.79,0,0,1,.92-.49,3.38,3.38,0,0,1,1.23-.19l.62,0a4.89,4.89,0,0,1,.7.15,3.32,3.32,0,0,1,.66.3,1.69,1.69,0,0,1,.49.47,1.17,1.17,0,0,1,.18.67,3.14,3.14,0,0,1-.47,1.74,1.42,1.42,0,0,1-1.2.71,2,2,0,0,1-.6-.06,1,1,0,0,1-.29-.15,1.1,1.1,0,0,0-.26-.15,1.65,1.65,0,0,0-.55-.07,2.84,2.84,0,0,0-.72.1,2.15,2.15,0,0,0-.62.32,1.45,1.45,0,0,0-.61,1.23v5.48a4.46,4.46,0,0,1-.09.91,1,1,0,0,1-.48.69A2.71,2.71,0,0,1,257.66,30.91Z"/><path class="cls-3" d="M273.06,31.14a7.09,7.09,0,0,1-3-.58A5.72,5.72,0,0,1,268,29.05a6.25,6.25,0,0,1-1.2-2.09,6.83,6.83,0,0,1-.4-2.3,6.38,6.38,0,0,1,.85-3.32,6.14,6.14,0,0,1,2.37-2.29,7,7,0,0,1,3.46-.83,6.22,6.22,0,0,1,2.51.46,5.23,5.23,0,0,1,1.75,1.2,5.1,5.1,0,0,1,1,1.59,4.5,4.5,0,0,1,.33,1.62,2.82,2.82,0,0,1-.66,2.05,2.28,2.28,0,0,1-1.69.68h-5.95a1.77,1.77,0,0,0,.46,1.08,2.85,2.85,0,0,0,1,.7,3.44,3.44,0,0,0,1.32.25,8.1,8.1,0,0,0,1-.06,4.49,4.49,0,0,0,.79-.17l.59-.23.48-.19a2.63,2.63,0,0,1,.43-.1,1,1,0,0,1,.67.22,1.93,1.93,0,0,1,.58.71,2.37,2.37,0,0,1,.24.52,2.2,2.2,0,0,1,.06.5,1.35,1.35,0,0,1-.62,1.09,4.77,4.77,0,0,1-1.72.74A11.56,11.56,0,0,1,273.06,31.14Zm-2.67-7.4h3.95a1,1,0,0,0,.58-.14.61.61,0,0,0,.2-.53,1.21,1.21,0,0,0-.28-.78,1.84,1.84,0,0,0-.73-.54,3,3,0,0,0-1.09-.18,3,3,0,0,0-1.35.3,2.31,2.31,0,0,0-.94.8A1.84,1.84,0,0,0,270.39,23.74Z"/><path class="cls-3" d="M282.61,30.92a2.4,2.4,0,0,1-1.3-.27,1.06,1.06,0,0,1-.47-.7,5.46,5.46,0,0,1-.08-.93V20.27a4.36,4.36,0,0,1,.09-.9,1.07,1.07,0,0,1,.48-.69,2.59,2.59,0,0,1,1.33-.26,2,2,0,0,1,1.35.37,1.47,1.47,0,0,1,.42,1.18l-.32.28a1.87,1.87,0,0,1,.3-.43,4.36,4.36,0,0,1,.65-.62,3.6,3.6,0,0,1,.94-.56,2.8,2.8,0,0,1,1.16-.24,4.39,4.39,0,0,1,1.49.24,3.82,3.82,0,0,1,1.2.7,4.52,4.52,0,0,1,.93,1.16,6.87,6.87,0,0,1,.85-1,4.46,4.46,0,0,1,1.18-.8,3.43,3.43,0,0,1,1.52-.33,4.17,4.17,0,0,1,2.49.74,4.49,4.49,0,0,1,1.54,2.12,9.29,9.29,0,0,1,.52,3.32v4.48a4.53,4.53,0,0,1-.1.91,1.15,1.15,0,0,1-.49.7,2.5,2.5,0,0,1-1.31.26,2.47,2.47,0,0,1-1.33-.27,1.08,1.08,0,0,1-.47-.72,5.31,5.31,0,0,1-.08-.91V24.55a4,4,0,0,0-.19-1.28,1.88,1.88,0,0,0-.54-.83,1.37,1.37,0,0,0-.9-.29,1.68,1.68,0,0,0-1,.28,1.6,1.6,0,0,0-.6.8,3.7,3.7,0,0,0-.2,1.35v4.47a3.51,3.51,0,0,1-.12.94,1.28,1.28,0,0,1-.54.7,2.58,2.58,0,0,1-1.34.24,2.11,2.11,0,0,1-1.25-.29,1.12,1.12,0,0,1-.45-.73,5.14,5.14,0,0,1-.07-.88V24.55a4.55,4.55,0,0,0-.17-1.3,1.73,1.73,0,0,0-.53-.83,1.46,1.46,0,0,0-.92-.27,1.62,1.62,0,0,0-1,.32,2,2,0,0,0-.59.87,3.76,3.76,0,0,0-.18,1.21v4.5a4.42,4.42,0,0,1-.09.92,1,1,0,0,1-.48.69A2.59,2.59,0,0,1,282.61,30.92Z"/><path class="cls-3" d="M307.54,31.16a7.17,7.17,0,0,1-3-.58,5.72,5.72,0,0,1-2.06-1.51,6.51,6.51,0,0,1-1.2-2.09,6.82,6.82,0,0,1-.39-2.3,6.41,6.41,0,0,1,.85-3.32,6,6,0,0,1,2.36-2.29,7,7,0,0,1,3.46-.83,6.27,6.27,0,0,1,2.52.46,5.18,5.18,0,0,1,1.74,1.2,5.1,5.1,0,0,1,1,1.59,4.54,4.54,0,0,1,.34,1.63,2.9,2.9,0,0,1-.67,2.05,2.29,2.29,0,0,1-1.69.67h-5.95a1.78,1.78,0,0,0,.47,1.08,2.81,2.81,0,0,0,1,.7,3.5,3.5,0,0,0,1.33.25,8.22,8.22,0,0,0,1-.06,4.37,4.37,0,0,0,.78-.17c.22-.08.42-.15.59-.23l.49-.19a2.53,2.53,0,0,1,.42-.1,1,1,0,0,1,.68.22,2,2,0,0,1,.57.71,1.65,1.65,0,0,1,.24.53,2.07,2.07,0,0,1,.06.5,1.33,1.33,0,0,1-.61,1.08,4.73,4.73,0,0,1-1.73.74A11.47,11.47,0,0,1,307.54,31.16Zm-2.67-7.4h3.95a1,1,0,0,0,.57-.13.65.65,0,0,0,.2-.54,1.25,1.25,0,0,0-.27-.78,1.76,1.76,0,0,0-.74-.53,2.8,2.8,0,0,0-1.09-.19,3,3,0,0,0-1.35.3,2.38,2.38,0,0,0-.94.8A1.9,1.9,0,0,0,304.87,23.76Z"/><path class="cls-3" d="M317.14,30.92a2.41,2.41,0,0,1-1.32-.27,1,1,0,0,1-.47-.7,4.46,4.46,0,0,1-.09-.91v-8.8a4.19,4.19,0,0,1,.09-.89,1,1,0,0,1,.48-.66,2.71,2.71,0,0,1,1.33-.25,2.35,2.35,0,0,1,1.17.22,1,1,0,0,1,.49.51,1.5,1.5,0,0,1,.11.56.91.91,0,0,0,.05.36l-.15.48a1.43,1.43,0,0,1,.39-.76,3.53,3.53,0,0,1,.85-.7,4.73,4.73,0,0,1,1.1-.49,3.93,3.93,0,0,1,1.16-.17,5,5,0,0,1,2.14.43,4.46,4.46,0,0,1,1.59,1.27,5.72,5.72,0,0,1,1,1.94,8.16,8.16,0,0,1,.34,2.43v4.55a4.56,4.56,0,0,1-.09.92,1,1,0,0,1-.48.68,2.55,2.55,0,0,1-1.33.25,2.59,2.59,0,0,1-1.33-.26,1.08,1.08,0,0,1-.49-.7,5.4,5.4,0,0,1-.08-.91V24.52a2.87,2.87,0,0,0-.26-1.27,1.88,1.88,0,0,0-.75-.8,2.38,2.38,0,0,0-1.21-.28,2.57,2.57,0,0,0-1.25.29,2,2,0,0,0-.82.81,2.59,2.59,0,0,0-.29,1.25v4.55a4.46,4.46,0,0,1-.09.91,1,1,0,0,1-.47.69A2.62,2.62,0,0,1,317.14,30.92Z"/><path class="cls-3" d="M330.62,18.65h2.75l3.45-.1a4.43,4.43,0,0,1,.9.09,1.13,1.13,0,0,1,.7.49,2.47,2.47,0,0,1,.27,1.33,2.4,2.4,0,0,1-.26,1.25,1.24,1.24,0,0,1-.69.51,3.8,3.8,0,0,1-.92.11l-3.28-.08-3,0a1.29,1.29,0,0,1-1-.47,2.51,2.51,0,0,1-.28-1.39,2.07,2.07,0,0,1,.35-1.33A1.26,1.26,0,0,1,330.62,18.65ZM336.26,31a7.92,7.92,0,0,1-2.2-.27,3.36,3.36,0,0,1-2.39-2.32,6.91,6.91,0,0,1-.28-2.11V16.13a4.31,4.31,0,0,1,.09-.93,1,1,0,0,1,.49-.66,3.32,3.32,0,0,1,2.6,0,1.12,1.12,0,0,1,.49.72,4.47,4.47,0,0,1,.08.91V26.1a3.13,3.13,0,0,0,.06.67.72.72,0,0,0,.19.38.62.62,0,0,0,.35.18,2.79,2.79,0,0,0,.55.05,4.07,4.07,0,0,1,1,.1,1,1,0,0,1,.66.45,2.17,2.17,0,0,1,.24,1.18,2.4,2.4,0,0,1-.27,1.3,1.11,1.11,0,0,1-.72.47A5.33,5.33,0,0,1,336.26,31Z"/><path class="cls-3" d="M346.81,31.19a7.41,7.41,0,0,1-3-.58,5.86,5.86,0,0,1-2.06-1.52,6.21,6.21,0,0,1-1.2-2.08,6.92,6.92,0,0,1-.4-2.3,6.45,6.45,0,0,1,.85-3.33,6.12,6.12,0,0,1,2.37-2.28,7,7,0,0,1,3.46-.84,6.43,6.43,0,0,1,2.51.46,5.11,5.11,0,0,1,1.75,1.21,5,5,0,0,1,1,1.58,4.33,4.33,0,0,1,.34,1.63,2.82,2.82,0,0,1-.66,2.05,2.28,2.28,0,0,1-1.69.67h-5.95a1.74,1.74,0,0,0,.46,1.07,2.66,2.66,0,0,0,1,.7,3.65,3.65,0,0,0,1.32.26,6.54,6.54,0,0,0,1-.07,4.49,4.49,0,0,0,.79-.17c.21-.08.41-.15.58-.23l.49-.18a1.78,1.78,0,0,1,.43-.1,1,1,0,0,1,.67.21,2.11,2.11,0,0,1,.58.71,2,2,0,0,1,.23.53,1.68,1.68,0,0,1,.07.5,1.36,1.36,0,0,1-.62,1.09,4.86,4.86,0,0,1-1.72.73A11.51,11.51,0,0,1,346.81,31.19Zm-2.67-7.41h3.95a1,1,0,0,0,.57-.14.6.6,0,0,0,.21-.54,1.24,1.24,0,0,0-.28-.77,1.64,1.64,0,0,0-.74-.54,2.78,2.78,0,0,0-1.08-.19,3,3,0,0,0-1.35.3,2.39,2.39,0,0,0-.94.8A1.84,1.84,0,0,0,344.14,23.78Z"/><path class="cls-2" d="M135.61,31a8.57,8.57,0,0,1-2.32-.34,9.24,9.24,0,0,1-2.41-1.05,8.87,8.87,0,0,1-2.14-1.79,8.05,8.05,0,0,1-1.51-2.55,9.36,9.36,0,0,1-.56-3.32,8.8,8.8,0,0,1,.56-3.24,8.09,8.09,0,0,1,1.52-2.46,9,9,0,0,1,2.12-1.74,10.15,10.15,0,0,1,2.42-1,8.82,8.82,0,0,1,2.38-.34,7.06,7.06,0,0,1,2.23.31,8.74,8.74,0,0,1,1.54.62l.76.43a7.64,7.64,0,0,1,.85.65,1.2,1.2,0,0,1,.42.9,1.59,1.59,0,0,1-.11.6,2.29,2.29,0,0,1-.34.6,3.14,3.14,0,0,1-.77.83,1.27,1.27,0,0,1-.73.27,1.16,1.16,0,0,1-.57-.15c-.19-.1-.4-.24-.65-.4s-.29-.19-.5-.32a4,4,0,0,0-.89-.34,5.78,5.78,0,0,0-3.15.15,5.07,5.07,0,0,0-1.64.93,4.45,4.45,0,0,0-1.2,1.58,5.35,5.35,0,0,0-.45,2.27,5.11,5.11,0,0,0,.46,2.25,4.75,4.75,0,0,0,1.21,1.57,5.29,5.29,0,0,0,1.64.94,5.16,5.16,0,0,0,1.74.31,4.66,4.66,0,0,0,1.27-.15,5,5,0,0,0,.93-.36l.67-.38c.19-.12.37-.23.56-.33a1.29,1.29,0,0,1,.59-.15,1.13,1.13,0,0,1,.71.28,4.32,4.32,0,0,1,1.08,1.51,1.92,1.92,0,0,1,.11.61,1.07,1.07,0,0,1-.41.86,8.62,8.62,0,0,1-.87.62l-.75.43a6.76,6.76,0,0,1-1.52.63A8,8,0,0,1,135.61,31Z"/><path class="cls-2" d="M149.61,31a6.2,6.2,0,0,1-2.33-.46,7.11,7.11,0,0,1-2.12-1.32,6.38,6.38,0,0,1-1.51-2,6.22,6.22,0,0,1-.56-2.64,6,6,0,0,1,.52-2.51A6.67,6.67,0,0,1,145,20a6.93,6.93,0,0,1,2.06-1.41,6.16,6.16,0,0,1,2.49-.51,6.24,6.24,0,0,1,3.26.87,6.45,6.45,0,0,1,2.34,2.33,6.71,6.71,0,0,1,.31,6,6.66,6.66,0,0,1-1.5,2,6.57,6.57,0,0,1-2.08,1.29A6.36,6.36,0,0,1,149.61,31Zm0-3.77a2.81,2.81,0,0,0,1.22-.3,2.67,2.67,0,0,0,1.05-.9,2.61,2.61,0,0,0,.43-1.53,2.77,2.77,0,0,0-.35-1.4,2.45,2.45,0,0,0-1-.93,2.84,2.84,0,0,0-1.42-.34,2.47,2.47,0,0,0-1.33.35,2.57,2.57,0,0,0-1,1,2.6,2.6,0,0,0-.37,1.39,2.68,2.68,0,0,0,.41,1.51,2.49,2.49,0,0,0,1,.9A3,3,0,0,0,149.57,27.27Z"/><path class="cls-2" d="M162.86,30.85a14.14,14.14,0,0,1-1.82-.1,3.9,3.9,0,0,1-1.35-.4,2.42,2.42,0,0,1-.9-.84,4,4,0,0,1-.52-1.38,9.9,9.9,0,0,1-.18-2.06V14.52a3.82,3.82,0,0,1,.1-.92,1.15,1.15,0,0,1,.49-.7,2.27,2.27,0,0,1,1.31-.28,2.33,2.33,0,0,1,1.29.28,1.17,1.17,0,0,1,.48.7,3.82,3.82,0,0,1,.1.92V25.9a5.86,5.86,0,0,0,0,.66.93.93,0,0,0,.15.41.49.49,0,0,0,.32.2,1.81,1.81,0,0,0,.52.06,2.6,2.6,0,0,1,.61.07.89.89,0,0,1,.54.45,2.56,2.56,0,0,1,.23,1.25,2.93,2.93,0,0,1-.23,1.3.88.88,0,0,1-.54.48A2.73,2.73,0,0,1,162.86,30.85Z"/><path class="cls-2" d="M172.09,31.06a6.47,6.47,0,0,1-2.34-.47,7.24,7.24,0,0,1-2.11-1.31,6.38,6.38,0,0,1-1.51-2,6,6,0,0,1-.56-2.64,6.16,6.16,0,0,1,.51-2.51A6.49,6.49,0,0,1,167.5,20a6.63,6.63,0,0,1,2.06-1.41,6.09,6.09,0,0,1,2.49-.51,6.26,6.26,0,0,1,3.26.86,6.61,6.61,0,0,1,2.33,2.34,6.38,6.38,0,0,1-1.19,8,6.53,6.53,0,0,1-2.07,1.29A6.38,6.38,0,0,1,172.09,31.06ZM172,27.28a2.85,2.85,0,0,0,1.23-.3,2.81,2.81,0,0,0,1-.9,2.6,2.6,0,0,0,.42-1.52,2.65,2.65,0,0,0-.35-1.4,2.41,2.41,0,0,0-1-.94,2.83,2.83,0,0,0-1.41-.34,2.6,2.6,0,0,0-1.34.35,2.65,2.65,0,0,0-1,1,2.69,2.69,0,0,0-.36,1.39,2.6,2.6,0,0,0,.41,1.51,2.43,2.43,0,0,0,1,.9A2.9,2.9,0,0,0,172,27.28Z"/><path class="cls-2" d="M182.41,30.86a2.5,2.5,0,0,1-1.31-.26,1.08,1.08,0,0,1-.47-.71,4.73,4.73,0,0,1-.09-.93V20.24a4.45,4.45,0,0,1,.09-.93,1.08,1.08,0,0,1,.49-.69,2.59,2.59,0,0,1,1.33-.26,2.5,2.5,0,0,1,1.26.24,1.06,1.06,0,0,1,.49.55,2,2,0,0,1,.09.54l-.29.15a2,2,0,0,1,.26-.36,3.2,3.2,0,0,1,.59-.55,3.14,3.14,0,0,1,.91-.49,3.62,3.62,0,0,1,1.24-.2,4.66,4.66,0,0,1,.61,0,3.14,3.14,0,0,1,.7.15,2.47,2.47,0,0,1,.66.3,1.66,1.66,0,0,1,.49.46,1.15,1.15,0,0,1,.18.68,3,3,0,0,1-.47,1.73,1.41,1.41,0,0,1-1.2.72,2.36,2.36,0,0,1-.6-.07,1,1,0,0,1-.29-.15.93.93,0,0,0-.26-.15,1.68,1.68,0,0,0-.55-.06,2.34,2.34,0,0,0-.71.1,2.06,2.06,0,0,0-.63.31,1.54,1.54,0,0,0-.45.53,1.46,1.46,0,0,0-.16.71V29a4.63,4.63,0,0,1-.08.92,1,1,0,0,1-.49.68A2.6,2.6,0,0,1,182.41,30.86Z"/><path class="cls-2" d="M197.81,31.1a7.28,7.28,0,0,1-3-.58A5.74,5.74,0,0,1,192.74,29a6.57,6.57,0,0,1-1.2-2.08,6.92,6.92,0,0,1-.4-2.3,6.54,6.54,0,0,1,.85-3.33A6.12,6.12,0,0,1,194.36,19a7,7,0,0,1,3.46-.84,6.39,6.39,0,0,1,2.51.46,5.11,5.11,0,0,1,1.75,1.21,5.18,5.18,0,0,1,1,1.58,4.51,4.51,0,0,1,.33,1.63,2.82,2.82,0,0,1-.66,2.05,2.27,2.27,0,0,1-1.69.67h-6a1.74,1.74,0,0,0,.46,1.07,2.73,2.73,0,0,0,1,.7,3.49,3.49,0,0,0,1.32.26,6.54,6.54,0,0,0,1-.07,4.49,4.49,0,0,0,.79-.17l.59-.23.49-.18a2.53,2.53,0,0,1,.42-.1,1,1,0,0,1,.67.21,2.11,2.11,0,0,1,.58.71,1.75,1.75,0,0,1,.24.53,2.14,2.14,0,0,1,.06.5,1.36,1.36,0,0,1-.61,1.09,4.91,4.91,0,0,1-1.73.73A11,11,0,0,1,197.81,31.1Zm-2.67-7.41h4a1.06,1.06,0,0,0,.58-.14.62.62,0,0,0,.2-.54,1.18,1.18,0,0,0-.28-.77,1.67,1.67,0,0,0-.73-.54,2.8,2.8,0,0,0-1.09-.19,3,3,0,0,0-1.35.3,2.39,2.39,0,0,0-.94.8A1.91,1.91,0,0,0,195.14,23.69Z"/><path class="cls-2" d="M215.74,30.86a2.34,2.34,0,0,1-1.38-.33.89.89,0,0,1-.42-.8l.25-.42a2.8,2.8,0,0,1-.58.61,4.11,4.11,0,0,1-1.11.65,4.34,4.34,0,0,1-1.66.28,4.88,4.88,0,0,1-2.19-.5A5.85,5.85,0,0,1,206.81,29a7.21,7.21,0,0,1-1.27-2,6.13,6.13,0,0,1,0-4.71,6.9,6.9,0,0,1,1.29-2,6.56,6.56,0,0,1,1.84-1.36,4.94,4.94,0,0,1,2.18-.5,4.09,4.09,0,0,1,1.57.27,4.32,4.32,0,0,1,1.09.61,3.2,3.2,0,0,1,.66.68l-.22-.35a1.06,1.06,0,0,1,.43-.92,2.51,2.51,0,0,1,1.39-.31,2.24,2.24,0,0,1,1.29.28,1.1,1.1,0,0,1,.47.72,4.86,4.86,0,0,1,.09.95V29a5.62,5.62,0,0,1-.08.92,1.07,1.07,0,0,1-.48.71A2.39,2.39,0,0,1,215.74,30.86Zm-4.37-3.73a2.16,2.16,0,0,0,1.2-.34,2.57,2.57,0,0,0,.85-.91,2.6,2.6,0,0,0,.32-1.27,2.57,2.57,0,0,0-.32-1.29,2.42,2.42,0,0,0-.88-.89,2.3,2.3,0,0,0-1.22-.33,2.42,2.42,0,0,0-1.26.34,2.53,2.53,0,0,0-.9.91,2.5,2.5,0,0,0-.34,1.3,2.42,2.42,0,0,0,.33,1.24,2.6,2.6,0,0,0,2.22,1.24Z"/><path class="cls-2" d="M231.44,30.89a14.3,14.3,0,0,1-1.83-.1,3.9,3.9,0,0,1-1.35-.4,2.58,2.58,0,0,1-.9-.84,3.92,3.92,0,0,1-.52-1.37,9.48,9.48,0,0,1-.17-2.07V14.56a4.4,4.4,0,0,1,.1-.92,1.18,1.18,0,0,1,.49-.7,2.31,2.31,0,0,1,1.31-.27,2.34,2.34,0,0,1,1.29.27,1.18,1.18,0,0,1,.49.7,4.42,4.42,0,0,1,.1.93V25.94a4,4,0,0,0,0,.66.8.8,0,0,0,.15.42.56.56,0,0,0,.31.2,2.4,2.4,0,0,0,.52.05,2.68,2.68,0,0,1,.62.07.91.91,0,0,1,.54.45,2.7,2.7,0,0,1,.22,1.25,2.76,2.76,0,0,1-.23,1.3.89.89,0,0,1-.53.48A2.79,2.79,0,0,1,231.44,30.89Z"/><path class="cls-2" d="M236.67,16.59a2.53,2.53,0,0,1-1.35-.27,1.14,1.14,0,0,1-.49-.73,5.7,5.7,0,0,1-.08-.95,4.75,4.75,0,0,1,.09-1,1,1,0,0,1,.5-.7,2.66,2.66,0,0,1,1.36-.26A2.33,2.33,0,0,1,238,13a1.09,1.09,0,0,1,.49.72,5,5,0,0,1,.09,1,4.7,4.7,0,0,1-.09.92,1.05,1.05,0,0,1-.49.71A2.54,2.54,0,0,1,236.67,16.59Zm0,14.3a2.45,2.45,0,0,1-1.32-.26,1,1,0,0,1-.48-.7,5.41,5.41,0,0,1-.07-.91V20.29a4.53,4.53,0,0,1,.09-.91,1.08,1.08,0,0,1,.49-.7,2.59,2.59,0,0,1,1.33-.26,2.23,2.23,0,0,1,1.28.28,1.12,1.12,0,0,1,.48.71,4.64,4.64,0,0,1,.08.94v8.7a4.53,4.53,0,0,1-.09.91,1.06,1.06,0,0,1-.48.69A2.59,2.59,0,0,1,236.66,30.89Z"/><path class="cls-2" d="M243,30.9a2.28,2.28,0,0,1-1.3-.28,1.1,1.1,0,0,1-.49-.71,4.53,4.53,0,0,1-.09-.91V14.62a4.76,4.76,0,0,1,.09-.94,1,1,0,0,1,.49-.69,2.43,2.43,0,0,1,1.32-.27,2.26,2.26,0,0,1,1.28.28,1.08,1.08,0,0,1,.45.71,4.55,4.55,0,0,1,0,.91V29.77a1.31,1.31,0,0,1-.53.85A2.21,2.21,0,0,1,243,30.9Zm4.85,0a4.36,4.36,0,0,1-2.15-.52A4.46,4.46,0,0,1,244.2,29a6.44,6.44,0,0,1-.92-2,8.15,8.15,0,0,1-.29-2.4,8.34,8.34,0,0,1,.33-2.35,6.2,6.2,0,0,1,.94-2,4.35,4.35,0,0,1,1.52-1.34,4.47,4.47,0,0,1,2.11-.48,4.75,4.75,0,0,1,2.15.5,6.24,6.24,0,0,1,1.84,1.36,6.45,6.45,0,0,1,1.27,2,6,6,0,0,1,.47,2.33,6.36,6.36,0,0,1-.47,2.42,6.7,6.7,0,0,1-1.26,2,5.87,5.87,0,0,1-1.83,1.36A5.06,5.06,0,0,1,247.89,30.88Zm-.5-3.7a2.39,2.39,0,0,0,1.25-.34,2.67,2.67,0,0,0,.89-.91,2.55,2.55,0,0,0,.34-1.28,2.51,2.51,0,0,0-.33-1.27,2.2,2.2,0,0,0-.89-.9,2.36,2.36,0,0,0-1.23-.33,2.43,2.43,0,0,0-2.12,1.24,2.61,2.61,0,0,0-.31,1.26,2.48,2.48,0,0,0,.33,1.27,2.41,2.41,0,0,0,.87.92A2.32,2.32,0,0,0,247.39,27.18Z"/><path class="cls-2" d="M257.66,30.91a2.37,2.37,0,0,1-1.31-.27,1.07,1.07,0,0,1-.48-.71,5.62,5.62,0,0,1-.08-.92V20.28a4.42,4.42,0,0,1,.09-.92,1,1,0,0,1,.49-.69,2.47,2.47,0,0,1,1.32-.26,2.52,2.52,0,0,1,1.27.24,1,1,0,0,1,.48.55,1.63,1.63,0,0,1,.1.53l-.3.15.27-.36a3.47,3.47,0,0,1,.58-.55,3.79,3.79,0,0,1,.92-.49,3.38,3.38,0,0,1,1.23-.19l.62,0a4.89,4.89,0,0,1,.7.15,3.32,3.32,0,0,1,.66.3,1.69,1.69,0,0,1,.49.47,1.17,1.17,0,0,1,.18.67,3.14,3.14,0,0,1-.47,1.74,1.42,1.42,0,0,1-1.2.71,2,2,0,0,1-.6-.06,1,1,0,0,1-.29-.15,1.1,1.1,0,0,0-.26-.15,1.65,1.65,0,0,0-.55-.07,2.84,2.84,0,0,0-.72.1,2.15,2.15,0,0,0-.62.32,1.45,1.45,0,0,0-.61,1.23v5.48a4.46,4.46,0,0,1-.09.91,1,1,0,0,1-.48.69A2.71,2.71,0,0,1,257.66,30.91Z"/><path class="cls-2" d="M273.06,31.14a7.09,7.09,0,0,1-3-.58A5.72,5.72,0,0,1,268,29.05a6.25,6.25,0,0,1-1.2-2.09,6.83,6.83,0,0,1-.4-2.3,6.38,6.38,0,0,1,.85-3.32,6.14,6.14,0,0,1,2.37-2.29,7,7,0,0,1,3.46-.83,6.22,6.22,0,0,1,2.51.46,5.23,5.23,0,0,1,1.75,1.2,5.1,5.1,0,0,1,1,1.59,4.5,4.5,0,0,1,.33,1.62,2.82,2.82,0,0,1-.66,2.05,2.28,2.28,0,0,1-1.69.68h-5.95a1.77,1.77,0,0,0,.46,1.08,2.85,2.85,0,0,0,1,.7,3.44,3.44,0,0,0,1.32.25,8.1,8.1,0,0,0,1-.06,4.49,4.49,0,0,0,.79-.17l.59-.23.48-.19a2.63,2.63,0,0,1,.43-.1,1,1,0,0,1,.67.22,1.93,1.93,0,0,1,.58.71,2.37,2.37,0,0,1,.24.52,2.2,2.2,0,0,1,.06.5,1.35,1.35,0,0,1-.62,1.09,4.77,4.77,0,0,1-1.72.74A11.56,11.56,0,0,1,273.06,31.14Zm-2.67-7.4h3.95a1,1,0,0,0,.58-.14.61.61,0,0,0,.2-.53,1.21,1.21,0,0,0-.28-.78,1.84,1.84,0,0,0-.73-.54,3,3,0,0,0-1.09-.18,3,3,0,0,0-1.35.3,2.31,2.31,0,0,0-.94.8A1.84,1.84,0,0,0,270.39,23.74Z"/><path class="cls-2" d="M282.61,30.92a2.4,2.4,0,0,1-1.3-.27,1.06,1.06,0,0,1-.47-.7,5.46,5.46,0,0,1-.08-.93V20.27a4.36,4.36,0,0,1,.09-.9,1.07,1.07,0,0,1,.48-.69,2.59,2.59,0,0,1,1.33-.26,2,2,0,0,1,1.35.37,1.47,1.47,0,0,1,.42,1.18l-.32.28a1.87,1.87,0,0,1,.3-.43,4.36,4.36,0,0,1,.65-.62,3.6,3.6,0,0,1,.94-.56,2.8,2.8,0,0,1,1.16-.24,4.39,4.39,0,0,1,1.49.24,3.82,3.82,0,0,1,1.2.7,4.52,4.52,0,0,1,.93,1.16,6.87,6.87,0,0,1,.85-1,4.46,4.46,0,0,1,1.18-.8,3.43,3.43,0,0,1,1.52-.33,4.17,4.17,0,0,1,2.49.74,4.49,4.49,0,0,1,1.54,2.12,9.29,9.29,0,0,1,.52,3.32v4.48a4.53,4.53,0,0,1-.1.91,1.15,1.15,0,0,1-.49.7,2.5,2.5,0,0,1-1.31.26,2.47,2.47,0,0,1-1.33-.27,1.08,1.08,0,0,1-.47-.72,5.31,5.31,0,0,1-.08-.91V24.55a4,4,0,0,0-.19-1.28,1.88,1.88,0,0,0-.54-.83,1.37,1.37,0,0,0-.9-.29,1.68,1.68,0,0,0-1,.28,1.6,1.6,0,0,0-.6.8,3.7,3.7,0,0,0-.2,1.35v4.47a3.51,3.51,0,0,1-.12.94,1.28,1.28,0,0,1-.54.7,2.58,2.58,0,0,1-1.34.24,2.11,2.11,0,0,1-1.25-.29,1.12,1.12,0,0,1-.45-.73,5.14,5.14,0,0,1-.07-.88V24.55a4.55,4.55,0,0,0-.17-1.3,1.73,1.73,0,0,0-.53-.83,1.46,1.46,0,0,0-.92-.27,1.62,1.62,0,0,0-1,.32,2,2,0,0,0-.59.87,3.76,3.76,0,0,0-.18,1.21v4.5a4.42,4.42,0,0,1-.09.92,1,1,0,0,1-.48.69A2.59,2.59,0,0,1,282.61,30.92Z"/><path class="cls-2" d="M307.54,31.16a7.17,7.17,0,0,1-3-.58,5.72,5.72,0,0,1-2.06-1.51,6.51,6.51,0,0,1-1.2-2.09,6.82,6.82,0,0,1-.39-2.3,6.41,6.41,0,0,1,.85-3.32,6,6,0,0,1,2.36-2.29,7,7,0,0,1,3.46-.83,6.27,6.27,0,0,1,2.52.46,5.18,5.18,0,0,1,1.74,1.2,5.1,5.1,0,0,1,1,1.59,4.54,4.54,0,0,1,.34,1.63,2.9,2.9,0,0,1-.67,2.05,2.29,2.29,0,0,1-1.69.67h-5.95a1.78,1.78,0,0,0,.47,1.08,2.81,2.81,0,0,0,1,.7,3.5,3.5,0,0,0,1.33.25,8.22,8.22,0,0,0,1-.06,4.37,4.37,0,0,0,.78-.17c.22-.08.42-.15.59-.23l.49-.19a2.53,2.53,0,0,1,.42-.1,1,1,0,0,1,.68.22,2,2,0,0,1,.57.71,1.65,1.65,0,0,1,.24.53,2.07,2.07,0,0,1,.06.5,1.33,1.33,0,0,1-.61,1.08,4.73,4.73,0,0,1-1.73.74A11.47,11.47,0,0,1,307.54,31.16Zm-2.67-7.4h3.95a1,1,0,0,0,.57-.13.65.65,0,0,0,.2-.54,1.25,1.25,0,0,0-.27-.78,1.76,1.76,0,0,0-.74-.53,2.8,2.8,0,0,0-1.09-.19,3,3,0,0,0-1.35.3,2.38,2.38,0,0,0-.94.8A1.9,1.9,0,0,0,304.87,23.76Z"/><path class="cls-2" d="M317.14,30.92a2.41,2.41,0,0,1-1.32-.27,1,1,0,0,1-.47-.7,4.46,4.46,0,0,1-.09-.91v-8.8a4.19,4.19,0,0,1,.09-.89,1,1,0,0,1,.48-.66,2.71,2.71,0,0,1,1.33-.25,2.35,2.35,0,0,1,1.17.22,1,1,0,0,1,.49.51,1.5,1.5,0,0,1,.11.56.91.91,0,0,0,.05.36l-.15.48a1.43,1.43,0,0,1,.39-.76,3.53,3.53,0,0,1,.85-.7,4.73,4.73,0,0,1,1.1-.49,3.93,3.93,0,0,1,1.16-.17,5,5,0,0,1,2.14.43,4.46,4.46,0,0,1,1.59,1.27,5.72,5.72,0,0,1,1,1.94,8.16,8.16,0,0,1,.34,2.43v4.55a4.56,4.56,0,0,1-.09.92,1,1,0,0,1-.48.68,2.55,2.55,0,0,1-1.33.25,2.59,2.59,0,0,1-1.33-.26,1.08,1.08,0,0,1-.49-.7,5.4,5.4,0,0,1-.08-.91V24.52a2.87,2.87,0,0,0-.26-1.27,1.88,1.88,0,0,0-.75-.8,2.38,2.38,0,0,0-1.21-.28,2.57,2.57,0,0,0-1.25.29,2,2,0,0,0-.82.81,2.59,2.59,0,0,0-.29,1.25v4.55a4.46,4.46,0,0,1-.09.91,1,1,0,0,1-.47.69A2.62,2.62,0,0,1,317.14,30.92Z"/><path class="cls-2" d="M330.62,18.65h2.75l3.45-.1a4.43,4.43,0,0,1,.9.09,1.13,1.13,0,0,1,.7.49,2.47,2.47,0,0,1,.27,1.33,2.4,2.4,0,0,1-.26,1.25,1.24,1.24,0,0,1-.69.51,3.8,3.8,0,0,1-.92.11l-3.28-.08-3,0a1.29,1.29,0,0,1-1-.47,2.51,2.51,0,0,1-.28-1.39,2.07,2.07,0,0,1,.35-1.33A1.26,1.26,0,0,1,330.62,18.65ZM336.26,31a7.92,7.92,0,0,1-2.2-.27,3.36,3.36,0,0,1-2.39-2.32,6.91,6.91,0,0,1-.28-2.11V16.13a4.31,4.31,0,0,1,.09-.93,1,1,0,0,1,.49-.66,3.32,3.32,0,0,1,2.6,0,1.12,1.12,0,0,1,.49.72,4.47,4.47,0,0,1,.08.91V26.1a3.13,3.13,0,0,0,.06.67.72.72,0,0,0,.19.38.62.62,0,0,0,.35.18,2.79,2.79,0,0,0,.55.05,4.07,4.07,0,0,1,1,.1,1,1,0,0,1,.66.45,2.17,2.17,0,0,1,.24,1.18,2.4,2.4,0,0,1-.27,1.3,1.11,1.11,0,0,1-.72.47A5.33,5.33,0,0,1,336.26,31Z"/><path class="cls-2" d="M346.81,31.19a7.41,7.41,0,0,1-3-.58,5.86,5.86,0,0,1-2.06-1.52,6.21,6.21,0,0,1-1.2-2.08,6.92,6.92,0,0,1-.4-2.3,6.45,6.45,0,0,1,.85-3.33,6.12,6.12,0,0,1,2.37-2.28,7,7,0,0,1,3.46-.84,6.43,6.43,0,0,1,2.51.46,5.11,5.11,0,0,1,1.75,1.21,5,5,0,0,1,1,1.58,4.33,4.33,0,0,1,.34,1.63,2.82,2.82,0,0,1-.66,2.05,2.28,2.28,0,0,1-1.69.67h-5.95a1.74,1.74,0,0,0,.46,1.07,2.66,2.66,0,0,0,1,.7,3.65,3.65,0,0,0,1.32.26,6.54,6.54,0,0,0,1-.07,4.49,4.49,0,0,0,.79-.17c.21-.08.41-.15.58-.23l.49-.18a1.78,1.78,0,0,1,.43-.1,1,1,0,0,1,.67.21,2.11,2.11,0,0,1,.58.71,2,2,0,0,1,.23.53,1.68,1.68,0,0,1,.07.5,1.36,1.36,0,0,1-.62,1.09,4.86,4.86,0,0,1-1.72.73A11.51,11.51,0,0,1,346.81,31.19Zm-2.67-7.41h3.95a1,1,0,0,0,.57-.14.6.6,0,0,0,.21-.54,1.24,1.24,0,0,0-.28-.77,1.64,1.64,0,0,0-.74-.54,2.78,2.78,0,0,0-1.08-.19,3,3,0,0,0-1.35.3,2.39,2.39,0,0,0-.94.8A1.84,1.84,0,0,0,344.14,23.78Z"/><text class="cls-4" transform="matrix(0.97, 0, 0, 1, 43.24, 37.89)">4<tspan class="cls-5" x="28.56" y="0">.</tspan><tspan class="cls-6" x="36.25" y="0">4</tspan></text><text class="cls-7" transform="matrix(0.97, 0, 0, 1, 43.24, 37.89)">4<tspan class="cls-5" x="28.56" y="0">.</tspan><tspan class="cls-6" x="36.25" y="0">4</tspan></text></g></g></svg>