<svg xmlns="http://www.w3.org/2000/svg" viewBox="0 0 399.98 138.05"><defs><style>.cls-1{fill:#0468ad;}.cls-2{fill:#fff;}.cls-3,.cls-4{fill:none;stroke-width:5px;}.cls-3{stroke:#c8a927;stroke-miterlimit:10;}.cls-4,.cls-5{font-size:37px;font-family:Coiny-Regular, Coiny;}.cls-4{stroke:#fff;}.cls-5{fill:#c8a927;}</style></defs><title>aplastar</title><g id="Layer_2" data-name="Layer 2"><g id="pestaña_identificativa" data-name="pestaña identificativa"><path class="cls-1" d="M368.29,0H43.76A43.76,43.76,0,0,0,0,43.76v94.29H400V31.69A31.69,31.69,0,0,0,368.29,0Z"/><path class="cls-2" d="M128,31.2a3,3,0,0,1,.32,1.06,1,1,0,0,1-.26.77,2.84,2.84,0,0,1-.94.66,2,2,0,0,1-1.55.3,2.15,2.15,0,0,1-1-1.2l-4.89-10.25-4.88,10.25a1.59,1.59,0,0,1-2.58.87,2.84,2.84,0,0,1-1-.64,1,1,0,0,1-.26-.8,3,3,0,0,1,.37-1.09l6.58-13.67a2,2,0,0,1,.74-.8,1.88,1.88,0,0,1,1-.3,2,2,0,0,1,.7.14,1.89,1.89,0,0,1,.59.39,2.18,2.18,0,0,1,.43.6Zm-12.55-1.44L117,26.54h5.32l1.55,3.23Z"/><path class="cls-2" d="M131.77,39a2.48,2.48,0,0,1-1.3-.26,1,1,0,0,1-.48-.68,4.91,4.91,0,0,1-.07-.88v-14a5.1,5.1,0,0,1,.07-.91,1.07,1.07,0,0,1,.46-.69,2.34,2.34,0,0,1,1.29-.27,2.87,2.87,0,0,1,1.24.22,1.33,1.33,0,0,1,.66.7v14.9a3.29,3.29,0,0,1-.07.9,1.13,1.13,0,0,1-.49.69A2.41,2.41,0,0,1,131.77,39Zm4.8-5.4a4.6,4.6,0,0,1-2.15-.48,4.49,4.49,0,0,1-1.54-1.33,6,6,0,0,1-.92-1.94,9.1,9.1,0,0,1,0-4.71,6.53,6.53,0,0,1,.94-2,4.27,4.27,0,0,1,1.52-1.35,4.39,4.39,0,0,1,2.12-.49,4.91,4.91,0,0,1,2.15.5,6.51,6.51,0,0,1,1.83,1.36,6.59,6.59,0,0,1,1.28,2,6.34,6.34,0,0,1,.46,2.38,6.06,6.06,0,0,1-.47,2.36,6.25,6.25,0,0,1-1.26,1.94,5.66,5.66,0,0,1-1.83,1.28A5.15,5.15,0,0,1,136.57,33.62Zm-.5-3.52a2.3,2.3,0,0,0,1.25-.34,2.59,2.59,0,0,0,.89-.91,2.59,2.59,0,0,0,0-2.55,2.38,2.38,0,0,0-.88-.9,2.41,2.41,0,0,0-1.24-.32,2.33,2.33,0,0,0-1.24.33,2.42,2.42,0,0,0-.87.9,2.64,2.64,0,0,0,0,2.54,2.38,2.38,0,0,0,.87.91A2.23,2.23,0,0,0,136.07,30.1Z"/><path class="cls-2" d="M149.14,33.86a16.21,16.21,0,0,1-1.82-.1,3.9,3.9,0,0,1-1.35-.4,2.42,2.42,0,0,1-.9-.84,4,4,0,0,1-.52-1.38,10,10,0,0,1-.18-2.06V17.53a4,4,0,0,1,.1-.93,1.21,1.21,0,0,1,.49-.7,2.37,2.37,0,0,1,1.31-.27,2.24,2.24,0,0,1,1.29.28,1.1,1.1,0,0,1,.48.7,3.82,3.82,0,0,1,.1.92V28.91a6.12,6.12,0,0,0,0,.66,1,1,0,0,0,.15.41.54.54,0,0,0,.32.2,1.86,1.86,0,0,0,.52.05,2.62,2.62,0,0,1,.61.08.89.89,0,0,1,.54.45,2.44,2.44,0,0,1,.22,1.25,2.81,2.81,0,0,1-.22,1.3.86.86,0,0,1-.54.47A2.74,2.74,0,0,1,149.14,33.86Z"/><path class="cls-2" d="M162.57,33.84a2.34,2.34,0,0,1-1.38-.33.88.88,0,0,1-.42-.8l.25-.42a2.59,2.59,0,0,1-.58.61,4.11,4.11,0,0,1-1.11.65,4.33,4.33,0,0,1-1.66.29,5,5,0,0,1-2.19-.5A6.17,6.17,0,0,1,153.64,32a7.27,7.27,0,0,1-1.27-2,6.13,6.13,0,0,1,0-4.71,6.72,6.72,0,0,1,1.29-2,6.19,6.19,0,0,1,1.84-1.36,4.81,4.81,0,0,1,2.18-.5,4.3,4.3,0,0,1,1.57.26,4.65,4.65,0,0,1,1.09.61,3.45,3.45,0,0,1,.66.68l-.23-.35a1.05,1.05,0,0,1,.44-.91,2.42,2.42,0,0,1,1.39-.31,2.34,2.34,0,0,1,1.29.27,1.15,1.15,0,0,1,.47.73,4.79,4.79,0,0,1,.09.95v8.62a5.64,5.64,0,0,1-.08.93,1.09,1.09,0,0,1-.48.71A2.5,2.5,0,0,1,162.57,33.84Zm-4.37-3.73a2.21,2.21,0,0,0,1.2-.33,2.67,2.67,0,0,0,.85-3.48,2.5,2.5,0,0,0-.88-.89,2.39,2.39,0,0,0-1.22-.32,2.42,2.42,0,0,0-1.26.33,2.48,2.48,0,0,0-.9.92,2.45,2.45,0,0,0-.34,1.3,2.36,2.36,0,0,0,.33,1.23,2.6,2.6,0,0,0,2.22,1.24Z"/><path class="cls-2" d="M171.44,34.07a8,8,0,0,1-1.47-.15,8.55,8.55,0,0,1-1.54-.44,5.43,5.43,0,0,1-1.25-.67,1.28,1.28,0,0,1-.56-.89,1.41,1.41,0,0,1,0-.54,2.37,2.37,0,0,1,.23-.6,4.33,4.33,0,0,1,.43-.66.94.94,0,0,1,.44-.35,1.09,1.09,0,0,1,.59,0,3.15,3.15,0,0,1,.8.27c.27.12.54.26.82.4s.58.26.88.37a2.67,2.67,0,0,0,.92.17,2.19,2.19,0,0,0,1.09-.22.64.64,0,0,0,.39-.58.61.61,0,0,0-.16-.45,1.27,1.27,0,0,0-.45-.3,4.1,4.1,0,0,0-.68-.24q-.39-.12-.81-.21c-.28-.07-.58-.15-.9-.26a6.9,6.9,0,0,1-1.19-.45,4,4,0,0,1-1.05-.71,3.27,3.27,0,0,1-.73-1.07,3.87,3.87,0,0,1-.28-1.57,3.54,3.54,0,0,1,.57-2.05,3.48,3.48,0,0,1,1.66-1.26,7.35,7.35,0,0,1,2.7-.43,6.79,6.79,0,0,1,.9.05,5.38,5.38,0,0,1,.89.17c.29.09.58.19.86.3a6.79,6.79,0,0,1,.85.43,1.1,1.1,0,0,1,.77,1,2,2,0,0,1-.42,1.25,2.17,2.17,0,0,1-.58.59.87.87,0,0,1-.62.13,3.48,3.48,0,0,1-.86-.34c-.31-.15-.64-.3-1-.43a2.63,2.63,0,0,0-1-.2,2,2,0,0,0-.73.11.94.94,0,0,0-.45.3.67.67,0,0,0-.15.44.73.73,0,0,0,.19.51,1.58,1.58,0,0,0,.51.31,7.54,7.54,0,0,0,.75.23l.93.2a12.5,12.5,0,0,1,1.38.33,4.73,4.73,0,0,1,1.3.62,2.82,2.82,0,0,1,.95,1.07,3.68,3.68,0,0,1,.37,1.78,3.58,3.58,0,0,1-1.38,3A6.38,6.38,0,0,1,171.44,34.07Z"/><path class="cls-2" d="M179.68,21.58h2.75l3.45-.1a4.43,4.43,0,0,1,.9.09,1.13,1.13,0,0,1,.7.49,2.41,2.41,0,0,1,.27,1.32,2.38,2.38,0,0,1-.26,1.25,1.15,1.15,0,0,1-.69.51,3.44,3.44,0,0,1-.93.11l-3.27-.07-3,0a1.26,1.26,0,0,1-1-.46,2.55,2.55,0,0,1-.29-1.39,2.08,2.08,0,0,1,.36-1.34A1.26,1.26,0,0,1,179.68,21.58Zm5.64,12.3a7.5,7.5,0,0,1-2.2-.28,3.37,3.37,0,0,1-2.39-2.31,7,7,0,0,1-.28-2.11V19.05a4.15,4.15,0,0,1,.09-.92,1.07,1.07,0,0,1,.49-.67,2.48,2.48,0,0,1,1.3-.26,2.3,2.3,0,0,1,1.3.28,1.08,1.08,0,0,1,.48.71,4.53,4.53,0,0,1,.09.91V29a3,3,0,0,0,.06.66.75.75,0,0,0,.19.39.68.68,0,0,0,.34.17,2.33,2.33,0,0,0,.56.05,4.67,4.67,0,0,1,1,.1,1.08,1.08,0,0,1,.66.46,2.13,2.13,0,0,1,.24,1.17,2.3,2.3,0,0,1-.28,1.3,1,1,0,0,1-.71.47A5.4,5.4,0,0,1,185.32,33.88Z"/><path class="cls-2" d="M199.87,33.86a2.42,2.42,0,0,1-1.38-.32.9.9,0,0,1-.42-.8l.25-.43a2.59,2.59,0,0,1-.58.61,3.87,3.87,0,0,1-1.11.65,4.33,4.33,0,0,1-1.66.29,5,5,0,0,1-2.19-.5A6.17,6.17,0,0,1,190.94,32a7.21,7.21,0,0,1-1.27-2,6.16,6.16,0,0,1,0-4.72,6.72,6.72,0,0,1,1.29-2,6.37,6.37,0,0,1,1.84-1.36,4.94,4.94,0,0,1,2.18-.5,4.05,4.05,0,0,1,2.66.88,3.18,3.18,0,0,1,.66.67l-.23-.35a1.05,1.05,0,0,1,.44-.91,2.42,2.42,0,0,1,1.39-.31,2.34,2.34,0,0,1,1.29.27,1.15,1.15,0,0,1,.47.73,4.86,4.86,0,0,1,.09.95V32a5.64,5.64,0,0,1-.08.93,1.07,1.07,0,0,1-.48.71A2.41,2.41,0,0,1,199.87,33.86Zm-4.37-3.72a2.24,2.24,0,0,0,1.2-.34,2.56,2.56,0,0,0,1.17-2.19,2.62,2.62,0,0,0-.32-1.29,2.4,2.4,0,0,0-.88-.88,2.3,2.3,0,0,0-1.22-.33,2.33,2.33,0,0,0-1.26.34A2.53,2.53,0,0,0,193,27.66a2.42,2.42,0,0,0,.33,1.24,2.6,2.6,0,0,0,2.22,1.24Z"/><path class="cls-3" d="M128,31.2a3,3,0,0,1,.32,1.06,1,1,0,0,1-.26.77,2.84,2.84,0,0,1-.94.66,2,2,0,0,1-1.55.3,2.15,2.15,0,0,1-1-1.2l-4.89-10.25-4.88,10.25a1.59,1.59,0,0,1-2.58.87,2.84,2.84,0,0,1-1-.64,1,1,0,0,1-.26-.8,3,3,0,0,1,.37-1.09l6.58-13.67a2,2,0,0,1,.74-.8,1.88,1.88,0,0,1,1-.3,2,2,0,0,1,.7.14,1.89,1.89,0,0,1,.59.39,2.18,2.18,0,0,1,.43.6Zm-12.55-1.44L117,26.54h5.32l1.55,3.23Z"/><path class="cls-3" d="M131.77,39a2.48,2.48,0,0,1-1.3-.26,1,1,0,0,1-.48-.68,4.91,4.91,0,0,1-.07-.88v-14a5.1,5.1,0,0,1,.07-.91,1.07,1.07,0,0,1,.46-.69,2.34,2.34,0,0,1,1.29-.27,2.87,2.87,0,0,1,1.24.22,1.33,1.33,0,0,1,.66.7v14.9a3.29,3.29,0,0,1-.07.9,1.13,1.13,0,0,1-.49.69A2.41,2.41,0,0,1,131.77,39Zm4.8-5.4a4.6,4.6,0,0,1-2.15-.48,4.49,4.49,0,0,1-1.54-1.33,6,6,0,0,1-.92-1.94,9.1,9.1,0,0,1,0-4.71,6.53,6.53,0,0,1,.94-2,4.27,4.27,0,0,1,1.52-1.35,4.39,4.39,0,0,1,2.12-.49,4.91,4.91,0,0,1,2.15.5,6.51,6.51,0,0,1,1.83,1.36,6.59,6.59,0,0,1,1.28,2,6.34,6.34,0,0,1,.46,2.38,6.06,6.06,0,0,1-.47,2.36,6.25,6.25,0,0,1-1.26,1.94,5.66,5.66,0,0,1-1.83,1.28A5.15,5.15,0,0,1,136.57,33.62Zm-.5-3.52a2.3,2.3,0,0,0,1.25-.34,2.59,2.59,0,0,0,.89-.91,2.59,2.59,0,0,0,0-2.55,2.38,2.38,0,0,0-.88-.9,2.41,2.41,0,0,0-1.24-.32,2.33,2.33,0,0,0-1.24.33,2.42,2.42,0,0,0-.87.9,2.64,2.64,0,0,0,0,2.54,2.38,2.38,0,0,0,.87.91A2.23,2.23,0,0,0,136.07,30.1Z"/><path class="cls-3" d="M149.14,33.86a16.21,16.21,0,0,1-1.82-.1,3.9,3.9,0,0,1-1.35-.4,2.42,2.42,0,0,1-.9-.84,4,4,0,0,1-.52-1.38,10,10,0,0,1-.18-2.06V17.53a4,4,0,0,1,.1-.93,1.21,1.21,0,0,1,.49-.7,2.37,2.37,0,0,1,1.31-.27,2.24,2.24,0,0,1,1.29.28,1.1,1.1,0,0,1,.48.7,3.82,3.82,0,0,1,.1.92V28.91a6.12,6.12,0,0,0,0,.66,1,1,0,0,0,.15.41.54.54,0,0,0,.32.2,1.86,1.86,0,0,0,.52.05,2.62,2.62,0,0,1,.61.08.89.89,0,0,1,.54.45,2.44,2.44,0,0,1,.22,1.25,2.81,2.81,0,0,1-.22,1.3.86.86,0,0,1-.54.47A2.74,2.74,0,0,1,149.14,33.86Z"/><path class="cls-3" d="M162.57,33.84a2.34,2.34,0,0,1-1.38-.33.88.88,0,0,1-.42-.8l.25-.42a2.59,2.59,0,0,1-.58.61,4.11,4.11,0,0,1-1.11.65,4.33,4.33,0,0,1-1.66.29,5,5,0,0,1-2.19-.5A6.17,6.17,0,0,1,153.64,32a7.27,7.27,0,0,1-1.27-2,6.13,6.13,0,0,1,0-4.71,6.72,6.72,0,0,1,1.29-2,6.19,6.19,0,0,1,1.84-1.36,4.81,4.81,0,0,1,2.18-.5,4.3,4.3,0,0,1,1.57.26,4.65,4.65,0,0,1,1.09.61,3.45,3.45,0,0,1,.66.68l-.23-.35a1.05,1.05,0,0,1,.44-.91,2.42,2.42,0,0,1,1.39-.31,2.34,2.34,0,0,1,1.29.27,1.15,1.15,0,0,1,.47.73,4.79,4.79,0,0,1,.09.95v8.62a5.64,5.64,0,0,1-.08.93,1.09,1.09,0,0,1-.48.71A2.5,2.5,0,0,1,162.57,33.84Zm-4.37-3.73a2.21,2.21,0,0,0,1.2-.33,2.67,2.67,0,0,0,.85-3.48,2.5,2.5,0,0,0-.88-.89,2.39,2.39,0,0,0-1.22-.32,2.42,2.42,0,0,0-1.26.33,2.48,2.48,0,0,0-.9.92,2.45,2.45,0,0,0-.34,1.3,2.36,2.36,0,0,0,.33,1.23,2.6,2.6,0,0,0,2.22,1.24Z"/><path class="cls-3" d="M171.44,34.07a8,8,0,0,1-1.47-.15,8.55,8.55,0,0,1-1.54-.44,5.43,5.43,0,0,1-1.25-.67,1.28,1.28,0,0,1-.56-.89,1.41,1.41,0,0,1,0-.54,2.37,2.37,0,0,1,.23-.6,4.33,4.33,0,0,1,.43-.66.94.94,0,0,1,.44-.35,1.09,1.09,0,0,1,.59,0,3.15,3.15,0,0,1,.8.27c.27.12.54.26.82.4s.58.26.88.37a2.67,2.67,0,0,0,.92.17,2.19,2.19,0,0,0,1.09-.22.64.64,0,0,0,.39-.58.61.61,0,0,0-.16-.45,1.27,1.27,0,0,0-.45-.3,4.1,4.1,0,0,0-.68-.24q-.39-.12-.81-.21c-.28-.07-.58-.15-.9-.26a6.9,6.9,0,0,1-1.19-.45,4,4,0,0,1-1.05-.71,3.27,3.27,0,0,1-.73-1.07,3.87,3.87,0,0,1-.28-1.57,3.54,3.54,0,0,1,.57-2.05,3.48,3.48,0,0,1,1.66-1.26,7.35,7.35,0,0,1,2.7-.43,6.79,6.79,0,0,1,.9.05,5.38,5.38,0,0,1,.89.17c.29.09.58.19.86.3a6.79,6.79,0,0,1,.85.43,1.1,1.1,0,0,1,.77,1,2,2,0,0,1-.42,1.25,2.17,2.17,0,0,1-.58.59.87.87,0,0,1-.62.13,3.48,3.48,0,0,1-.86-.34c-.31-.15-.64-.3-1-.43a2.63,2.63,0,0,0-1-.2,2,2,0,0,0-.73.11.94.94,0,0,0-.45.3.67.67,0,0,0-.15.44.73.73,0,0,0,.19.51,1.58,1.58,0,0,0,.51.31,7.54,7.54,0,0,0,.75.23l.93.2a12.5,12.5,0,0,1,1.38.33,4.73,4.73,0,0,1,1.3.62,2.82,2.82,0,0,1,.95,1.07,3.68,3.68,0,0,1,.37,1.78,3.58,3.58,0,0,1-1.38,3A6.38,6.38,0,0,1,171.44,34.07Z"/><path class="cls-3" d="M179.68,21.58h2.75l3.45-.1a4.43,4.43,0,0,1,.9.09,1.13,1.13,0,0,1,.7.49,2.41,2.41,0,0,1,.27,1.32,2.38,2.38,0,0,1-.26,1.25,1.15,1.15,0,0,1-.69.51,3.44,3.44,0,0,1-.93.11l-3.27-.07-3,0a1.26,1.26,0,0,1-1-.46,2.55,2.55,0,0,1-.29-1.39,2.08,2.08,0,0,1,.36-1.34A1.26,1.26,0,0,1,179.68,21.58Zm5.64,12.3a7.5,7.5,0,0,1-2.2-.28,3.37,3.37,0,0,1-2.39-2.31,7,7,0,0,1-.28-2.11V19.05a4.15,4.15,0,0,1,.09-.92,1.07,1.07,0,0,1,.49-.67,2.48,2.48,0,0,1,1.3-.26,2.3,2.3,0,0,1,1.3.28,1.08,1.08,0,0,1,.48.71,4.53,4.53,0,0,1,.09.91V29a3,3,0,0,0,.06.66.75.75,0,0,0,.19.39.68.68,0,0,0,.34.17,2.33,2.33,0,0,0,.56.05,4.67,4.67,0,0,1,1,.1,1.08,1.08,0,0,1,.66.46,2.13,2.13,0,0,1,.24,1.17,2.3,2.3,0,0,1-.28,1.3,1,1,0,0,1-.71.47A5.4,5.4,0,0,1,185.32,33.88Z"/><path class="cls-3" d="M199.87,33.86a2.42,2.42,0,0,1-1.38-.32.9.9,0,0,1-.42-.8l.25-.43a2.59,2.59,0,0,1-.58.61,3.87,3.87,0,0,1-1.11.65,4.33,4.33,0,0,1-1.66.29,5,5,0,0,1-2.19-.5A6.17,6.17,0,0,1,190.94,32a7.21,7.21,0,0,1-1.27-2,6.16,6.16,0,0,1,0-4.72,6.72,6.72,0,0,1,1.29-2,6.37,6.37,0,0,1,1.84-1.36,4.94,4.94,0,0,1,2.18-.5,4.05,4.05,0,0,1,2.66.88,3.18,3.18,0,0,1,.66.67l-.23-.35a1.05,1.05,0,0,1,.44-.91,2.42,2.42,0,0,1,1.39-.31,2.34,2.34,0,0,1,1.29.27,1.15,1.15,0,0,1,.47.73,4.86,4.86,0,0,1,.09.95V32a5.64,5.64,0,0,1-.08.93,1.07,1.07,0,0,1-.48.71A2.41,2.41,0,0,1,199.87,33.86Zm-4.37-3.72a2.24,2.24,0,0,0,1.2-.34,2.56,2.56,0,0,0,1.17-2.19,2.62,2.62,0,0,0-.32-1.29,2.4,2.4,0,0,0-.88-.88,2.3,2.3,0,0,0-1.22-.33,2.33,2.33,0,0,0-1.26.34A2.53,2.53,0,0,0,193,27.66a2.42,2.42,0,0,0,.33,1.24,2.6,2.6,0,0,0,2.22,1.24Z"/><path class="cls-2" d="M128,31.2a3,3,0,0,1,.32,1.06,1,1,0,0,1-.26.77,2.84,2.84,0,0,1-.94.66,2,2,0,0,1-1.55.3,2.15,2.15,0,0,1-1-1.2l-4.89-10.25-4.88,10.25a1.59,1.59,0,0,1-2.58.87,2.84,2.84,0,0,1-1-.64,1,1,0,0,1-.26-.8,3,3,0,0,1,.37-1.09l6.58-13.67a2,2,0,0,1,.74-.8,1.88,1.88,0,0,1,1-.3,2,2,0,0,1,.7.14,1.89,1.89,0,0,1,.59.39,2.18,2.18,0,0,1,.43.6Zm-12.55-1.44L117,26.54h5.32l1.55,3.23Z"/><path class="cls-2" d="M131.77,39a2.48,2.48,0,0,1-1.3-.26,1,1,0,0,1-.48-.68,4.91,4.91,0,0,1-.07-.88v-14a5.1,5.1,0,0,1,.07-.91,1.07,1.07,0,0,1,.46-.69,2.34,2.34,0,0,1,1.29-.27,2.87,2.87,0,0,1,1.24.22,1.33,1.33,0,0,1,.66.7v14.9a3.29,3.29,0,0,1-.07.9,1.13,1.13,0,0,1-.49.69A2.41,2.41,0,0,1,131.77,39Zm4.8-5.4a4.6,4.6,0,0,1-2.15-.48,4.49,4.49,0,0,1-1.54-1.33,6,6,0,0,1-.92-1.94,9.1,9.1,0,0,1,0-4.71,6.53,6.53,0,0,1,.94-2,4.27,4.27,0,0,1,1.52-1.35,4.39,4.39,0,0,1,2.12-.49,4.91,4.91,0,0,1,2.15.5,6.51,6.51,0,0,1,1.83,1.36,6.59,6.59,0,0,1,1.28,2,6.34,6.34,0,0,1,.46,2.38,6.06,6.06,0,0,1-.47,2.36,6.25,6.25,0,0,1-1.26,1.94,5.66,5.66,0,0,1-1.83,1.28A5.15,5.15,0,0,1,136.57,33.62Zm-.5-3.52a2.3,2.3,0,0,0,1.25-.34,2.59,2.59,0,0,0,.89-.91,2.59,2.59,0,0,0,0-2.55,2.38,2.38,0,0,0-.88-.9,2.41,2.41,0,0,0-1.24-.32,2.33,2.33,0,0,0-1.24.33,2.42,2.42,0,0,0-.87.9,2.64,2.64,0,0,0,0,2.54,2.38,2.38,0,0,0,.87.91A2.23,2.23,0,0,0,136.07,30.1Z"/><path class="cls-2" d="M149.14,33.86a16.21,16.21,0,0,1-1.82-.1,3.9,3.9,0,0,1-1.35-.4,2.42,2.42,0,0,1-.9-.84,4,4,0,0,1-.52-1.38,10,10,0,0,1-.18-2.06V17.53a4,4,0,0,1,.1-.93,1.21,1.21,0,0,1,.49-.7,2.37,2.37,0,0,1,1.31-.27,2.24,2.24,0,0,1,1.29.28,1.1,1.1,0,0,1,.48.7,3.82,3.82,0,0,1,.1.92V28.91a6.12,6.12,0,0,0,0,.66,1,1,0,0,0,.15.41.54.54,0,0,0,.32.2,1.86,1.86,0,0,0,.52.05,2.62,2.62,0,0,1,.61.08.89.89,0,0,1,.54.45,2.44,2.44,0,0,1,.22,1.25,2.81,2.81,0,0,1-.22,1.3.86.86,0,0,1-.54.47A2.74,2.74,0,0,1,149.14,33.86Z"/><path class="cls-2" d="M162.57,33.84a2.34,2.34,0,0,1-1.38-.33.88.88,0,0,1-.42-.8l.25-.42a2.59,2.59,0,0,1-.58.61,4.11,4.11,0,0,1-1.11.65,4.33,4.33,0,0,1-1.66.29,5,5,0,0,1-2.19-.5A6.17,6.17,0,0,1,153.64,32a7.27,7.27,0,0,1-1.27-2,6.13,6.13,0,0,1,0-4.71,6.72,6.72,0,0,1,1.29-2,6.19,6.19,0,0,1,1.84-1.36,4.81,4.81,0,0,1,2.18-.5,4.3,4.3,0,0,1,1.57.26,4.65,4.65,0,0,1,1.09.61,3.45,3.45,0,0,1,.66.68l-.23-.35a1.05,1.05,0,0,1,.44-.91,2.42,2.42,0,0,1,1.39-.31,2.34,2.34,0,0,1,1.29.27,1.15,1.15,0,0,1,.47.73,4.79,4.79,0,0,1,.09.95v8.62a5.64,5.64,0,0,1-.08.93,1.09,1.09,0,0,1-.48.71A2.5,2.5,0,0,1,162.57,33.84Zm-4.37-3.73a2.21,2.21,0,0,0,1.2-.33,2.67,2.67,0,0,0,.85-3.48,2.5,2.5,0,0,0-.88-.89,2.39,2.39,0,0,0-1.22-.32,2.42,2.42,0,0,0-1.26.33,2.48,2.48,0,0,0-.9.92,2.45,2.45,0,0,0-.34,1.3,2.36,2.36,0,0,0,.33,1.23,2.6,2.6,0,0,0,2.22,1.24Z"/><path class="cls-2" d="M171.44,34.07a8,8,0,0,1-1.47-.15,8.55,8.55,0,0,1-1.54-.44,5.43,5.43,0,0,1-1.25-.67,1.28,1.28,0,0,1-.56-.89,1.41,1.41,0,0,1,0-.54,2.37,2.37,0,0,1,.23-.6,4.33,4.33,0,0,1,.43-.66.94.94,0,0,1,.44-.35,1.09,1.09,0,0,1,.59,0,3.15,3.15,0,0,1,.8.27c.27.12.54.26.82.4s.58.26.88.37a2.67,2.67,0,0,0,.92.17,2.19,2.19,0,0,0,1.09-.22.64.64,0,0,0,.39-.58.61.61,0,0,0-.16-.45,1.27,1.27,0,0,0-.45-.3,4.1,4.1,0,0,0-.68-.24q-.39-.12-.81-.21c-.28-.07-.58-.15-.9-.26a6.9,6.9,0,0,1-1.19-.45,4,4,0,0,1-1.05-.71,3.27,3.27,0,0,1-.73-1.07,3.87,3.87,0,0,1-.28-1.57,3.54,3.54,0,0,1,.57-2.05,3.48,3.48,0,0,1,1.66-1.26,7.35,7.35,0,0,1,2.7-.43,6.79,6.79,0,0,1,.9.05,5.38,5.38,0,0,1,.89.17c.29.09.58.19.86.3a6.79,6.79,0,0,1,.85.43,1.1,1.1,0,0,1,.77,1,2,2,0,0,1-.42,1.25,2.17,2.17,0,0,1-.58.59.87.87,0,0,1-.62.13,3.48,3.48,0,0,1-.86-.34c-.31-.15-.64-.3-1-.43a2.63,2.63,0,0,0-1-.2,2,2,0,0,0-.73.11.94.94,0,0,0-.45.3.67.67,0,0,0-.15.44.73.73,0,0,0,.19.51,1.58,1.58,0,0,0,.51.31,7.54,7.54,0,0,0,.75.23l.93.2a12.5,12.5,0,0,1,1.38.33,4.73,4.73,0,0,1,1.3.62,2.82,2.82,0,0,1,.95,1.07,3.68,3.68,0,0,1,.37,1.78,3.58,3.58,0,0,1-1.38,3A6.38,6.38,0,0,1,171.44,34.07Z"/><path class="cls-2" d="M179.68,21.58h2.75l3.45-.1a4.43,4.43,0,0,1,.9.09,1.13,1.13,0,0,1,.7.49,2.41,2.41,0,0,1,.27,1.32,2.38,2.38,0,0,1-.26,1.25,1.15,1.15,0,0,1-.69.51,3.44,3.44,0,0,1-.93.11l-3.27-.07-3,0a1.26,1.26,0,0,1-1-.46,2.55,2.55,0,0,1-.29-1.39,2.08,2.08,0,0,1,.36-1.34A1.26,1.26,0,0,1,179.68,21.58Zm5.64,12.3a7.5,7.5,0,0,1-2.2-.28,3.37,3.37,0,0,1-2.39-2.31,7,7,0,0,1-.28-2.11V19.05a4.15,4.15,0,0,1,.09-.92,1.07,1.07,0,0,1,.49-.67,2.48,2.48,0,0,1,1.3-.26,2.3,2.3,0,0,1,1.3.28,1.08,1.08,0,0,1,.48.71,4.53,4.53,0,0,1,.09.91V29a3,3,0,0,0,.06.66.75.75,0,0,0,.19.39.68.68,0,0,0,.34.17,2.33,2.33,0,0,0,.56.05,4.67,4.67,0,0,1,1,.1,1.08,1.08,0,0,1,.66.46,2.13,2.13,0,0,1,.24,1.17,2.3,2.3,0,0,1-.28,1.3,1,1,0,0,1-.71.47A5.4,5.4,0,0,1,185.32,33.88Z"/><path class="cls-2" d="M199.87,33.86a2.42,2.42,0,0,1-1.38-.32.9.9,0,0,1-.42-.8l.25-.43a2.59,2.59,0,0,1-.58.61,3.87,3.87,0,0,1-1.11.65,4.33,4.33,0,0,1-1.66.29,5,5,0,0,1-2.19-.5A6.17,6.17,0,0,1,190.94,32a7.21,7.21,0,0,1-1.27-2,6.16,6.16,0,0,1,0-4.72,6.72,6.72,0,0,1,1.29-2,6.37,6.37,0,0,1,1.84-1.36,4.94,4.94,0,0,1,2.18-.5,4.05,4.05,0,0,1,2.66.88,3.18,3.18,0,0,1,.66.67l-.23-.35a1.05,1.05,0,0,1,.44-.91,2.42,2.42,0,0,1,1.39-.31,2.34,2.34,0,0,1,1.29.27,1.15,1.15,0,0,1,.47.73,4.86,4.86,0,0,1,.09.95V32a5.64,5.64,0,0,1-.08.93,1.07,1.07,0,0,1-.48.71A2.41,2.41,0,0,1,199.87,33.86Zm-4.37-3.72a2.24,2.24,0,0,0,1.2-.34,2.56,2.56,0,0,0,1.17-2.19,2.62,2.62,0,0,0-.32-1.29,2.4,2.4,0,0,0-.88-.88,2.3,2.3,0,0,0-1.22-.33,2.33,2.33,0,0,0-1.26.34A2.53,2.53,0,0,0,193,27.66a2.42,2.42,0,0,0,.33,1.24,2.6,2.6,0,0,0,2.22,1.24Z"/><text class="cls-4" transform="matrix(0.97, 0, 0, 1, 51.72, 40.47)">1.3</text><text class="cls-5" transform="matrix(0.97, 0, 0, 1, 51.72, 40.47)">1.3</text></g></g></svg>