<svg xmlns="http://www.w3.org/2000/svg" viewBox="0 0 399.98 138.05"><defs><style>.cls-1{fill:#0468ad;}.cls-2{fill:#fff;}.cls-3,.cls-4{fill:none;stroke-width:5px;}.cls-3{stroke:#c8a927;stroke-linejoin:round;}.cls-4,.cls-5{font-size:37px;font-family:Coiny-Regular, Coiny;}.cls-4{stroke:#fff;}.cls-5{fill:#c8a927;}</style></defs><title>bolitas</title><g id="Layer_2" data-name="Layer 2"><g id="pestaña_identificativa" data-name="pestaña identificativa"><path class="cls-1" d="M368.29,0H43.76A43.76,43.76,0,0,0,0,43.76v94.29H400V31.69A31.69,31.69,0,0,0,368.29,0Z"/><path class="cls-2" d="M113.94,33.84a2.4,2.4,0,0,1-1.3-.27,1.07,1.07,0,0,1-.48-.71,4.7,4.7,0,0,1-.09-.92V18.26a2.07,2.07,0,0,1,.42-1.49,2.24,2.24,0,0,1,1.53-.41h9.45a4.42,4.42,0,0,1,.92.09,1,1,0,0,1,.69.48,2.54,2.54,0,0,1,.26,1.35,2.38,2.38,0,0,1-.27,1.3,1.12,1.12,0,0,1-.72.49,4.59,4.59,0,0,1-.93.09h-7.55v3.23H121a4.74,4.74,0,0,1,.89.08.91.91,0,0,1,.61.42,2.36,2.36,0,0,1,.22,1.2,2.05,2.05,0,0,1-.22,1.11.92.92,0,0,1-.63.42,4.84,4.84,0,0,1-.9.07h-5.1V32a3.85,3.85,0,0,1-.1.91,1.1,1.1,0,0,1-.49.7A2.44,2.44,0,0,1,113.94,33.84Z"/><path class="cls-2" d="M129.8,19.54a2.53,2.53,0,0,1-1.35-.27,1.1,1.1,0,0,1-.48-.73,5.11,5.11,0,0,1,0-1.91,1,1,0,0,1,.5-.7,2.69,2.69,0,0,1,1.36-.26,2.31,2.31,0,0,1,1.32.28,1.09,1.09,0,0,1,.49.72,5,5,0,0,1,.09,1,4.7,4.7,0,0,1-.09.92,1.05,1.05,0,0,1-.49.71A2.41,2.41,0,0,1,129.8,19.54Zm0,14.31a2.43,2.43,0,0,1-1.32-.27,1,1,0,0,1-.48-.7,5.33,5.33,0,0,1-.07-.91V23.24a4.53,4.53,0,0,1,.09-.91,1.08,1.08,0,0,1,.49-.7,2.59,2.59,0,0,1,1.33-.26,2.21,2.21,0,0,1,1.28.28,1.12,1.12,0,0,1,.48.71,4.64,4.64,0,0,1,.08.94V32a4.53,4.53,0,0,1-.09.91,1.08,1.08,0,0,1-.47.69A2.64,2.64,0,0,1,129.79,33.85Z"/><path class="cls-2" d="M139.52,33.53a5,5,0,0,1-2.16-.49,5.84,5.84,0,0,1-1.79-1.34,6.55,6.55,0,0,1-1.22-1.95,6.12,6.12,0,0,1-.45-2.33,6,6,0,0,1,.45-2.31,6.15,6.15,0,0,1,1.24-1.92,6,6,0,0,1,1.8-1.33,4.86,4.86,0,0,1,2.11-.48,3.84,3.84,0,0,1,1.9.43,3.36,3.36,0,0,1,1.25,1.26,6.39,6.39,0,0,1,.71,1.92,11.82,11.82,0,0,1,.24,2.49,11,11,0,0,1-.42,3.21,4.2,4.2,0,0,1-1.3,2.1A3.58,3.58,0,0,1,139.52,33.53ZM140,39a7,7,0,0,1-1.76-.22,8.23,8.23,0,0,1-1.58-.61,4.28,4.28,0,0,1-1.15-.8,1.19,1.19,0,0,1-.43-.85,1.77,1.77,0,0,1,.15-.73,2.46,2.46,0,0,1,.45-.67,7,7,0,0,1,.6-.57,1,1,0,0,1,.6-.2,1.07,1.07,0,0,1,.63.19l.58.41a3.63,3.63,0,0,0,.79.41,3.21,3.21,0,0,0,1.2.19,2.42,2.42,0,0,0,.94-.18,2.15,2.15,0,0,0,.75-.55,2.82,2.82,0,0,0,.5-.86,2.85,2.85,0,0,0,.19-1.08V22.53a1.21,1.21,0,0,1,.51-.94,2.49,2.49,0,0,1,1.34-.29,2.21,2.21,0,0,1,1.25.27,1.06,1.06,0,0,1,.46.69,4.31,4.31,0,0,1,.08.9V33a5.88,5.88,0,0,1-.53,2.54,5.71,5.71,0,0,1-1.4,1.87,6,6,0,0,1-1.95,1.16A6.28,6.28,0,0,1,140,39Zm0-9.1a2.13,2.13,0,0,0,1.2-.34,2.42,2.42,0,0,0,.83-.88,2.5,2.5,0,0,0,.32-1.25,2.54,2.54,0,0,0-.31-1.25,2.47,2.47,0,0,0-.85-.88,2.39,2.39,0,0,0-1.22-.32,2.21,2.21,0,0,0-1.2.33,2.44,2.44,0,0,0-.83.89,2.47,2.47,0,0,0-.32,1.25,2.36,2.36,0,0,0,.33,1.23,2.5,2.5,0,0,0,.86.88A2.15,2.15,0,0,0,140,29.9Z"/><path class="cls-2" d="M154,33.84a5.31,5.31,0,0,1-3.93-1.72,5.75,5.75,0,0,1-1.16-1.93,7,7,0,0,1-.41-2.43V23.23a4.42,4.42,0,0,1,.09-.92,1.08,1.08,0,0,1,.49-.7,3.25,3.25,0,0,1,2.64,0,1.1,1.1,0,0,1,.47.71,4.69,4.69,0,0,1,.09.94v4.5a2.78,2.78,0,0,0,.26,1.26,1.73,1.73,0,0,0,.77.81,2.46,2.46,0,0,0,1.21.28,2.4,2.4,0,0,0,1.24-.29,2,2,0,0,0,.8-.81,2.57,2.57,0,0,0,.29-1.25V23.21a4.42,4.42,0,0,1,.09-.92,1,1,0,0,1,.49-.69,2.49,2.49,0,0,1,1.33-.26,2.39,2.39,0,0,1,1.31.27,1.15,1.15,0,0,1,.47.72,4.46,4.46,0,0,1,.09.91V32a5,5,0,0,1-.08.89,1.06,1.06,0,0,1-.49.66,2.63,2.63,0,0,1-1.3.25,2.92,2.92,0,0,1-1.05-.15,1.25,1.25,0,0,1-.55-.38.94.94,0,0,1-.21-.47,2.57,2.57,0,0,1,0-.45l.32-.28a2.27,2.27,0,0,1-.32.39,5.91,5.91,0,0,1-.66.57,4.28,4.28,0,0,1-1,.54A3.31,3.31,0,0,1,154,33.84Z"/><path class="cls-2" d="M165,33.87a2.35,2.35,0,0,1-1.31-.27,1.07,1.07,0,0,1-.48-.71,4.7,4.7,0,0,1-.09-.92V23.24a4.42,4.42,0,0,1,.09-.92,1,1,0,0,1,.49-.69,2.42,2.42,0,0,1,1.32-.26,2.5,2.5,0,0,1,1.26.24,1,1,0,0,1,.49.55,1.63,1.63,0,0,1,.1.53l-.3.15a3.22,3.22,0,0,1,.26-.36,3.58,3.58,0,0,1,.59-.55,3.71,3.71,0,0,1,.91-.49,3.62,3.62,0,0,1,1.24-.2c.18,0,.39,0,.61,0a4.62,4.62,0,0,1,.7.15,3.41,3.41,0,0,1,.67.3,1.54,1.54,0,0,1,.48.47,1.11,1.11,0,0,1,.19.67,3.06,3.06,0,0,1-.48,1.74,1.4,1.4,0,0,1-1.2.71,2.11,2.11,0,0,1-.6-.06.92.92,0,0,1-.28-.15,1.17,1.17,0,0,0-.27-.15,1.61,1.61,0,0,0-.55-.07,2.77,2.77,0,0,0-.71.1,1.93,1.93,0,0,0-.62.32,1.32,1.32,0,0,0-.45.52,1.52,1.52,0,0,0-.17.71V32a4.53,4.53,0,0,1-.09.91,1,1,0,0,1-.49.69A2.67,2.67,0,0,1,165,33.87Z"/><path class="cls-2" d="M184.42,33.85a2.42,2.42,0,0,1-1.38-.32.9.9,0,0,1-.42-.8l.25-.43a2.59,2.59,0,0,1-.58.61,3.87,3.87,0,0,1-1.11.65,4.33,4.33,0,0,1-1.66.29,5,5,0,0,1-2.19-.5A6,6,0,0,1,175.49,32a7.21,7.21,0,0,1-1.27-2,6,6,0,0,1-.47-2.38,6.07,6.07,0,0,1,.47-2.34,6.72,6.72,0,0,1,1.29-2,6.37,6.37,0,0,1,1.84-1.36,4.94,4.94,0,0,1,2.18-.5,4.05,4.05,0,0,1,2.66.88,3.43,3.43,0,0,1,.66.67l-.23-.35a1.05,1.05,0,0,1,.44-.91,2.42,2.42,0,0,1,1.39-.31,2.34,2.34,0,0,1,1.29.27,1.15,1.15,0,0,1,.47.73,4.86,4.86,0,0,1,.09.95V32a5.64,5.64,0,0,1-.08.93,1.07,1.07,0,0,1-.48.71A2.41,2.41,0,0,1,184.42,33.85ZM180,30.13a2.25,2.25,0,0,0,1.21-.34,2.56,2.56,0,0,0,1.17-2.19,2.62,2.62,0,0,0-.32-1.29,2.4,2.4,0,0,0-.88-.88A2.3,2.3,0,0,0,180,25.1a2.33,2.33,0,0,0-1.26.34,2.48,2.48,0,0,0-1.24,2.21,2.42,2.42,0,0,0,.33,1.24A2.6,2.6,0,0,0,180,30.13Z"/><path class="cls-2" d="M193.29,34.08a8,8,0,0,1-1.47-.15,7.8,7.8,0,0,1-1.54-.44,5.07,5.07,0,0,1-1.25-.67,1.28,1.28,0,0,1-.56-.89,1.41,1.41,0,0,1,0-.54,2.37,2.37,0,0,1,.23-.6,4.88,4.88,0,0,1,.43-.66.94.94,0,0,1,.44-.35,1,1,0,0,1,.59,0,3.55,3.55,0,0,1,.8.26l.82.4c.29.14.58.27.88.38a2.92,2.92,0,0,0,.92.16,2.32,2.32,0,0,0,1.09-.21.65.65,0,0,0,.39-.59.64.64,0,0,0-.16-.45,1.27,1.27,0,0,0-.45-.3c-.19-.08-.42-.16-.68-.24L193,29c-.28-.07-.58-.15-.9-.25a9.05,9.05,0,0,1-1.19-.45,4,4,0,0,1-1-.72,3.27,3.27,0,0,1-.73-1.07,3.85,3.85,0,0,1-.28-1.56,3.51,3.51,0,0,1,.57-2.05,3.56,3.56,0,0,1,1.66-1.27,7.35,7.35,0,0,1,2.7-.43c.3,0,.6,0,.9.05a4.53,4.53,0,0,1,.89.18,6.74,6.74,0,0,1,.86.3,5.58,5.58,0,0,1,.85.42,1.1,1.1,0,0,1,.77.95,2,2,0,0,1-.42,1.25A2.17,2.17,0,0,1,197,25a.93.93,0,0,1-.62.14,3.93,3.93,0,0,1-.86-.34,9.71,9.71,0,0,0-1-.44,2.84,2.84,0,0,0-1-.2,2.2,2.2,0,0,0-.73.11,1.11,1.11,0,0,0-.45.3.69.69,0,0,0-.15.44.71.71,0,0,0,.19.51,1.42,1.42,0,0,0,.51.31,5.58,5.58,0,0,0,.75.23l.93.2a12.6,12.6,0,0,1,1.38.34,4.44,4.44,0,0,1,1.3.61,2.93,2.93,0,0,1,.95,1.08A3.75,3.75,0,0,1,198.6,30a3.63,3.63,0,0,1-1.38,3A6.38,6.38,0,0,1,193.29,34.08Z"/><path class="cls-2" d="M212.62,33.87a5,5,0,0,1-2.18-.49A5.83,5.83,0,0,1,208.62,32a6.68,6.68,0,0,1-1.26-2,6.27,6.27,0,0,1-.46-2.41,6.06,6.06,0,0,1,.46-2.34,6.43,6.43,0,0,1,1.28-2,6.33,6.33,0,0,1,1.83-1.36,4.91,4.91,0,0,1,2.15-.5,4.29,4.29,0,0,1,3.64,1.83,6.31,6.31,0,0,1,.94,2,9.6,9.6,0,0,1,.35,2.35,8.87,8.87,0,0,1-.31,2.4,6.22,6.22,0,0,1-.92,2,4.67,4.67,0,0,1-1.55,1.39A4.41,4.41,0,0,1,212.62,33.87Zm.5-3.7a2.19,2.19,0,0,0,1.21-.34,2.56,2.56,0,0,0,.88-.91,2.51,2.51,0,0,0,.34-1.27,2.48,2.48,0,0,0-.33-1.27,2.58,2.58,0,0,0-.87-.9,2.55,2.55,0,0,0-2.49,0,2.31,2.31,0,0,0-.88.9,2.71,2.71,0,0,0-.31,1.27,2.52,2.52,0,0,0,.33,1.28,2.45,2.45,0,0,0,2.12,1.25Zm4.35,3.73a2.28,2.28,0,0,1-1.27-.28,1.28,1.28,0,0,1-.53-.85V17.62a6.73,6.73,0,0,1,.06-.91,1,1,0,0,1,.44-.71,2.15,2.15,0,0,1,1.27-.28,2.38,2.38,0,0,1,1.33.27,1.08,1.08,0,0,1,.47.68,4,4,0,0,1,.1.93V32a5.31,5.31,0,0,1-.08.91,1.12,1.12,0,0,1-.48.71A2.29,2.29,0,0,1,217.47,33.9Z"/><path class="cls-2" d="M228.07,34.13a7.17,7.17,0,0,1-3-.58A5.93,5.93,0,0,1,223,32a6.61,6.61,0,0,1-1.2-2.09,7.12,7.12,0,0,1-.39-2.3,6.38,6.38,0,0,1,.85-3.32A6,6,0,0,1,224.61,22a6.9,6.9,0,0,1,3.46-.83,6.27,6.27,0,0,1,2.52.46,5.33,5.33,0,0,1,1.75,1.2,5.07,5.07,0,0,1,1,1.59,4.48,4.48,0,0,1,.34,1.62,2.82,2.82,0,0,1-.67,2.05,2.25,2.25,0,0,1-1.68.68H225.4a1.71,1.71,0,0,0,.46,1.08,2.81,2.81,0,0,0,1,.7,3.5,3.5,0,0,0,1.33.25,8.22,8.22,0,0,0,1-.06,3.6,3.6,0,0,0,.78-.18c.22-.07.42-.15.59-.22s.34-.14.49-.19a2.53,2.53,0,0,1,.42-.1,1.09,1.09,0,0,1,.68.21,1.94,1.94,0,0,1,.57.72,1.71,1.71,0,0,1,.24.52,2.2,2.2,0,0,1,.06.5,1.34,1.34,0,0,1-.61,1.09,4.83,4.83,0,0,1-1.73.74A11.47,11.47,0,0,1,228.07,34.13Zm-2.67-7.4h3.95a.92.92,0,0,0,.57-.14.61.61,0,0,0,.2-.53,1.23,1.23,0,0,0-.27-.78,1.87,1.87,0,0,0-.74-.54,3.2,3.2,0,0,0-2.44.11,2.47,2.47,0,0,0-.94.8A1.93,1.93,0,0,0,225.4,26.73Z"/><path class="cls-2" d="M244.14,33.91a2.4,2.4,0,0,1-1.3-.27,1.1,1.1,0,0,1-.49-.71,5.52,5.52,0,0,1-.08-.92V17.64a5.49,5.49,0,0,1,.08-.94,1.11,1.11,0,0,1,.49-.7,2.59,2.59,0,0,1,1.33-.26,2.15,2.15,0,0,1,1.27.28,1.08,1.08,0,0,1,.45.71,3.88,3.88,0,0,1,0,.91V32.79a1.33,1.33,0,0,1-.52.85A2.37,2.37,0,0,1,244.14,33.91Zm4.85,0a4.38,4.38,0,0,1-2.15-.51A4.53,4.53,0,0,1,245.31,32a6.45,6.45,0,0,1-.93-2,8.15,8.15,0,0,1-.28-2.4,8.29,8.29,0,0,1,.32-2.35,6.31,6.31,0,0,1,.94-2,4.37,4.37,0,0,1,1.53-1.34,4.33,4.33,0,0,1,2.11-.49,4.88,4.88,0,0,1,2.15.5A6.54,6.54,0,0,1,253,23.31a6.47,6.47,0,0,1,1.27,2,6,6,0,0,1,.46,2.34A6.48,6.48,0,0,1,253,32a5.86,5.86,0,0,1-1.82,1.37A5.1,5.1,0,0,1,249,33.89Zm-.5-3.7a2.36,2.36,0,0,0,1.25-.33,2.53,2.53,0,0,0,.89-.92,2.42,2.42,0,0,0,.34-1.27,2.64,2.64,0,0,0-.32-1.28,2.48,2.48,0,0,0-.89-.9,2.52,2.52,0,0,0-1.24-.32,2.42,2.42,0,0,0-1.24.33,2.5,2.5,0,0,0-.87.9,2.57,2.57,0,0,0-.31,1.27,2.4,2.4,0,0,0,.32,1.27,2.53,2.53,0,0,0,.87.91A2.23,2.23,0,0,0,248.49,30.19Z"/><path class="cls-2" d="M262.89,34.12a6.29,6.29,0,0,1-2.34-.46,7,7,0,0,1-2.11-1.31,6.53,6.53,0,0,1-1.51-2,6.47,6.47,0,0,1-.05-5.15,6.83,6.83,0,0,1,1.42-2.06,6.75,6.75,0,0,1,2.06-1.41,6,6,0,0,1,2.49-.51,6.23,6.23,0,0,1,3.26.86,6.56,6.56,0,0,1,2.34,2.34,6.71,6.71,0,0,1,.31,6,6.53,6.53,0,0,1-5.87,3.75Zm-.05-3.77a2.85,2.85,0,0,0,1.23-.3,2.81,2.81,0,0,0,1.05-.9,2.6,2.6,0,0,0,.42-1.52,2.74,2.74,0,0,0-.34-1.4,2.5,2.5,0,0,0-1-.94,2.8,2.8,0,0,0-1.41-.34,2.59,2.59,0,0,0-2.29,1.31,2.93,2.93,0,0,0,.05,2.9,2.49,2.49,0,0,0,1,.9A2.9,2.9,0,0,0,262.84,30.35Z"/><path class="cls-2" d="M276.14,33.93a14.14,14.14,0,0,1-1.82-.1,3.58,3.58,0,0,1-1.35-.4,2.42,2.42,0,0,1-.9-.84,3.92,3.92,0,0,1-.53-1.37,10.88,10.88,0,0,1-.17-2.06V17.61a3.84,3.84,0,0,1,.1-.93A1.17,1.17,0,0,1,272,16a2.41,2.41,0,0,1,1.32-.27,2.28,2.28,0,0,1,1.28.27,1.21,1.21,0,0,1,.49.7,3.9,3.9,0,0,1,.1.93V29a5.54,5.54,0,0,0,0,.66,1,1,0,0,0,.15.42.6.6,0,0,0,.31.2,2.5,2.5,0,0,0,.53,0,2.6,2.6,0,0,1,.61.07.89.89,0,0,1,.54.45,2.58,2.58,0,0,1,.22,1.25,2.78,2.78,0,0,1-.22,1.3.88.88,0,0,1-.54.48A2.73,2.73,0,0,1,276.14,33.93Z"/><path class="cls-2" d="M281.37,19.64a2.52,2.52,0,0,1-1.35-.28,1.11,1.11,0,0,1-.48-.73,4.69,4.69,0,0,1-.09-.94,4.85,4.85,0,0,1,.09-1,1.06,1.06,0,0,1,.5-.7,2.69,2.69,0,0,1,1.36-.26,2.37,2.37,0,0,1,1.33.28,1.08,1.08,0,0,1,.48.72,5,5,0,0,1,.09,1,4.7,4.7,0,0,1-.09.92,1.07,1.07,0,0,1-.48.71A2.55,2.55,0,0,1,281.37,19.64Zm0,14.3a2.47,2.47,0,0,1-1.33-.27,1,1,0,0,1-.47-.7,5.31,5.31,0,0,1-.08-.91V23.34a4.56,4.56,0,0,1,.09-.92,1.06,1.06,0,0,1,.48-.7,2.59,2.59,0,0,1,1.33-.26,2.24,2.24,0,0,1,1.29.28,1.14,1.14,0,0,1,.47.71,4.62,4.62,0,0,1,.09.94v8.7a4.53,4.53,0,0,1-.09.91,1,1,0,0,1-.47.69A2.62,2.62,0,0,1,281.37,33.94Z"/><path class="cls-2" d="M286.7,21.64h2.75l3.45-.1a4.43,4.43,0,0,1,.9.09,1.13,1.13,0,0,1,.7.49,2.47,2.47,0,0,1,.27,1.33,2.34,2.34,0,0,1-.26,1.24,1.21,1.21,0,0,1-.69.52,3.8,3.8,0,0,1-.92.11l-3.28-.08-3,0a1.25,1.25,0,0,1-1-.46,2.54,2.54,0,0,1-.28-1.39,2.05,2.05,0,0,1,.35-1.33A1.26,1.26,0,0,1,286.7,21.64Zm5.64,12.3a7.92,7.92,0,0,1-2.2-.27,3.36,3.36,0,0,1-2.39-2.32,6.91,6.91,0,0,1-.28-2.11V19.12a4.36,4.36,0,0,1,.08-.93,1,1,0,0,1,.49-.66,3.32,3.32,0,0,1,2.6,0,1.12,1.12,0,0,1,.49.71,4.63,4.63,0,0,1,.09.92v9.92a3,3,0,0,0,.06.66.71.71,0,0,0,.19.39.62.62,0,0,0,.35.18,2.79,2.79,0,0,0,.55.05,4.07,4.07,0,0,1,1,.1,1.1,1.1,0,0,1,.67.45,2.24,2.24,0,0,1,.23,1.17,2.38,2.38,0,0,1-.27,1.3,1.09,1.09,0,0,1-.72.48A5.33,5.33,0,0,1,292.34,33.94Z"/><path class="cls-2" d="M306.89,33.93a2.3,2.3,0,0,1-1.37-.33.89.89,0,0,1-.43-.8l.25-.42a3,3,0,0,1-.57.61,4.17,4.17,0,0,1-2.78.93,4.91,4.91,0,0,1-2.19-.5A5.7,5.7,0,0,1,298,32a7,7,0,0,1-1.28-2,6.16,6.16,0,0,1-.47-2.38,5.82,5.82,0,0,1,.48-2.33A6.48,6.48,0,0,1,299.82,22a5,5,0,0,1,2.18-.5,4.09,4.09,0,0,1,1.57.27,4.15,4.15,0,0,1,1.09.61,3.2,3.2,0,0,1,.66.68l-.22-.35a1,1,0,0,1,.44-.92,2.39,2.39,0,0,1,1.38-.31,2.24,2.24,0,0,1,1.29.28,1.11,1.11,0,0,1,.48.72,5.8,5.8,0,0,1,.08.95V32a4.7,4.7,0,0,1-.09.92,1.11,1.11,0,0,1-.48.72A2.48,2.48,0,0,1,306.89,33.93Zm-4.37-3.73a2.13,2.13,0,0,0,1.2-.34,2.57,2.57,0,0,0,.85-.91,2.61,2.61,0,0,0,.33-1.27,2.49,2.49,0,0,0-1.2-2.18,2.36,2.36,0,0,0-1.23-.33,2.42,2.42,0,0,0-1.26.34,2.53,2.53,0,0,0-.9.91,2.5,2.5,0,0,0-.34,1.3,2.34,2.34,0,0,0,.34,1.24,2.41,2.41,0,0,0,.92.9A2.49,2.49,0,0,0,302.52,30.2Z"/><path class="cls-2" d="M315.77,34.16a8.07,8.07,0,0,1-1.48-.15,8.79,8.79,0,0,1-1.54-.44,5.27,5.27,0,0,1-1.25-.68,1.29,1.29,0,0,1-.56-.89,1.36,1.36,0,0,1,0-.53,2.82,2.82,0,0,1,.23-.6,3.78,3.78,0,0,1,.44-.66.79.79,0,0,1,.44-.35.9.9,0,0,1,.58,0,3.4,3.4,0,0,1,.8.26l.83.4a6.74,6.74,0,0,0,.87.38,2.68,2.68,0,0,0,.93.16,2.35,2.35,0,0,0,1.09-.21.66.66,0,0,0,.38-.59.64.64,0,0,0-.16-.45,1.6,1.6,0,0,0-.45-.3c-.19-.08-.42-.16-.67-.24l-.82-.21c-.28-.06-.58-.15-.9-.25a8.93,8.93,0,0,1-1.18-.45,3.67,3.67,0,0,1-1.05-.71,3.1,3.1,0,0,1-.74-1.08A4,4,0,0,1,311.3,25a3.27,3.27,0,0,1,2.22-3.31,7.41,7.41,0,0,1,2.7-.44c.3,0,.6,0,.9,0a6.69,6.69,0,0,1,1.75.48,7.44,7.44,0,0,1,.85.42,1.16,1.16,0,0,1,.78,1,2.14,2.14,0,0,1-.43,1.25,2,2,0,0,1-.57.58.89.89,0,0,1-.63.14,4.13,4.13,0,0,1-.86-.34c-.31-.16-.63-.3-1-.44a2.84,2.84,0,0,0-1-.2,2.18,2.18,0,0,0-.72.11,1.11,1.11,0,0,0-.45.3.71.71,0,0,0-.15.44.69.69,0,0,0,.18.51,1.54,1.54,0,0,0,.52.32,4.87,4.87,0,0,0,.75.22c.28.07.59.14.92.2s.91.2,1.39.34a4.85,4.85,0,0,1,1.3.61,3.12,3.12,0,0,1,.95,1.08,3.78,3.78,0,0,1,.36,1.78,3.57,3.57,0,0,1-1.38,3A6.35,6.35,0,0,1,315.77,34.16Z"/><path class="cls-3" d="M113.94,33.84a2.4,2.4,0,0,1-1.3-.27,1.07,1.07,0,0,1-.48-.71,4.7,4.7,0,0,1-.09-.92V18.26a2.07,2.07,0,0,1,.42-1.49,2.24,2.24,0,0,1,1.53-.41h9.45a4.42,4.42,0,0,1,.92.09,1,1,0,0,1,.69.48,2.54,2.54,0,0,1,.26,1.35,2.38,2.38,0,0,1-.27,1.3,1.12,1.12,0,0,1-.72.49,4.59,4.59,0,0,1-.93.09h-7.55v3.23H121a4.74,4.74,0,0,1,.89.08.91.91,0,0,1,.61.42,2.36,2.36,0,0,1,.22,1.2,2.05,2.05,0,0,1-.22,1.11.92.92,0,0,1-.63.42,4.84,4.84,0,0,1-.9.07h-5.1V32a3.85,3.85,0,0,1-.1.91,1.1,1.1,0,0,1-.49.7A2.44,2.44,0,0,1,113.94,33.84Z"/><path class="cls-3" d="M129.8,19.54a2.53,2.53,0,0,1-1.35-.27,1.1,1.1,0,0,1-.48-.73,5.11,5.11,0,0,1,0-1.91,1,1,0,0,1,.5-.7,2.69,2.69,0,0,1,1.36-.26,2.31,2.31,0,0,1,1.32.28,1.09,1.09,0,0,1,.49.72,5,5,0,0,1,.09,1,4.7,4.7,0,0,1-.09.92,1.05,1.05,0,0,1-.49.71A2.41,2.41,0,0,1,129.8,19.54Zm0,14.31a2.43,2.43,0,0,1-1.32-.27,1,1,0,0,1-.48-.7,5.33,5.33,0,0,1-.07-.91V23.24a4.53,4.53,0,0,1,.09-.91,1.08,1.08,0,0,1,.49-.7,2.59,2.59,0,0,1,1.33-.26,2.21,2.21,0,0,1,1.28.28,1.12,1.12,0,0,1,.48.71,4.64,4.64,0,0,1,.08.94V32a4.53,4.53,0,0,1-.09.91,1.08,1.08,0,0,1-.47.69A2.64,2.64,0,0,1,129.79,33.85Z"/><path class="cls-3" d="M139.52,33.53a5,5,0,0,1-2.16-.49,5.84,5.84,0,0,1-1.79-1.34,6.55,6.55,0,0,1-1.22-1.95,6.12,6.12,0,0,1-.45-2.33,6,6,0,0,1,.45-2.31,6.15,6.15,0,0,1,1.24-1.92,6,6,0,0,1,1.8-1.33,4.86,4.86,0,0,1,2.11-.48,3.84,3.84,0,0,1,1.9.43,3.36,3.36,0,0,1,1.25,1.26,6.39,6.39,0,0,1,.71,1.92,11.82,11.82,0,0,1,.24,2.49,11,11,0,0,1-.42,3.21,4.2,4.2,0,0,1-1.3,2.1A3.58,3.58,0,0,1,139.52,33.53ZM140,39a7,7,0,0,1-1.76-.22,8.23,8.23,0,0,1-1.58-.61,4.28,4.28,0,0,1-1.15-.8,1.19,1.19,0,0,1-.43-.85,1.77,1.77,0,0,1,.15-.73,2.46,2.46,0,0,1,.45-.67,7,7,0,0,1,.6-.57,1,1,0,0,1,.6-.2,1.07,1.07,0,0,1,.63.19l.58.41a3.63,3.63,0,0,0,.79.41,3.21,3.21,0,0,0,1.2.19,2.42,2.42,0,0,0,.94-.18,2.15,2.15,0,0,0,.75-.55,2.82,2.82,0,0,0,.5-.86,2.85,2.85,0,0,0,.19-1.08V22.53a1.21,1.21,0,0,1,.51-.94,2.49,2.49,0,0,1,1.34-.29,2.21,2.21,0,0,1,1.25.27,1.06,1.06,0,0,1,.46.69,4.31,4.31,0,0,1,.08.9V33a5.88,5.88,0,0,1-.53,2.54,5.71,5.71,0,0,1-1.4,1.87,6,6,0,0,1-1.95,1.16A6.28,6.28,0,0,1,140,39Zm0-9.1a2.13,2.13,0,0,0,1.2-.34,2.42,2.42,0,0,0,.83-.88,2.5,2.5,0,0,0,.32-1.25,2.54,2.54,0,0,0-.31-1.25,2.47,2.47,0,0,0-.85-.88,2.39,2.39,0,0,0-1.22-.32,2.21,2.21,0,0,0-1.2.33,2.44,2.44,0,0,0-.83.89,2.47,2.47,0,0,0-.32,1.25,2.36,2.36,0,0,0,.33,1.23,2.5,2.5,0,0,0,.86.88A2.15,2.15,0,0,0,140,29.9Z"/><path class="cls-3" d="M154,33.84a5.31,5.31,0,0,1-3.93-1.72,5.75,5.75,0,0,1-1.16-1.93,7,7,0,0,1-.41-2.43V23.23a4.42,4.42,0,0,1,.09-.92,1.08,1.08,0,0,1,.49-.7,3.25,3.25,0,0,1,2.64,0,1.1,1.1,0,0,1,.47.71,4.69,4.69,0,0,1,.09.94v4.5a2.78,2.78,0,0,0,.26,1.26,1.73,1.73,0,0,0,.77.81,2.46,2.46,0,0,0,1.21.28,2.4,2.4,0,0,0,1.24-.29,2,2,0,0,0,.8-.81,2.57,2.57,0,0,0,.29-1.25V23.21a4.42,4.42,0,0,1,.09-.92,1,1,0,0,1,.49-.69,2.49,2.49,0,0,1,1.33-.26,2.39,2.39,0,0,1,1.31.27,1.15,1.15,0,0,1,.47.72,4.46,4.46,0,0,1,.09.91V32a5,5,0,0,1-.08.89,1.06,1.06,0,0,1-.49.66,2.63,2.63,0,0,1-1.3.25,2.92,2.92,0,0,1-1.05-.15,1.25,1.25,0,0,1-.55-.38.94.94,0,0,1-.21-.47,2.57,2.57,0,0,1,0-.45l.32-.28a2.27,2.27,0,0,1-.32.39,5.91,5.91,0,0,1-.66.57,4.28,4.28,0,0,1-1,.54A3.31,3.31,0,0,1,154,33.84Z"/><path class="cls-3" d="M165,33.87a2.35,2.35,0,0,1-1.31-.27,1.07,1.07,0,0,1-.48-.71,4.7,4.7,0,0,1-.09-.92V23.24a4.42,4.42,0,0,1,.09-.92,1,1,0,0,1,.49-.69,2.42,2.42,0,0,1,1.32-.26,2.5,2.5,0,0,1,1.26.24,1,1,0,0,1,.49.55,1.63,1.63,0,0,1,.1.53l-.3.15a3.22,3.22,0,0,1,.26-.36,3.58,3.58,0,0,1,.59-.55,3.71,3.71,0,0,1,.91-.49,3.62,3.62,0,0,1,1.24-.2c.18,0,.39,0,.61,0a4.62,4.62,0,0,1,.7.15,3.41,3.41,0,0,1,.67.3,1.54,1.54,0,0,1,.48.47,1.11,1.11,0,0,1,.19.67,3.06,3.06,0,0,1-.48,1.74,1.4,1.4,0,0,1-1.2.71,2.11,2.11,0,0,1-.6-.06.92.92,0,0,1-.28-.15,1.17,1.17,0,0,0-.27-.15,1.61,1.61,0,0,0-.55-.07,2.77,2.77,0,0,0-.71.1,1.93,1.93,0,0,0-.62.32,1.32,1.32,0,0,0-.45.52,1.52,1.52,0,0,0-.17.71V32a4.53,4.53,0,0,1-.09.91,1,1,0,0,1-.49.69A2.67,2.67,0,0,1,165,33.87Z"/><path class="cls-3" d="M184.42,33.85a2.42,2.42,0,0,1-1.38-.32.9.9,0,0,1-.42-.8l.25-.43a2.59,2.59,0,0,1-.58.61,3.87,3.87,0,0,1-1.11.65,4.33,4.33,0,0,1-1.66.29,5,5,0,0,1-2.19-.5A6,6,0,0,1,175.49,32a7.21,7.21,0,0,1-1.27-2,6,6,0,0,1-.47-2.38,6.07,6.07,0,0,1,.47-2.34,6.72,6.72,0,0,1,1.29-2,6.37,6.37,0,0,1,1.84-1.36,4.94,4.94,0,0,1,2.18-.5,4.05,4.05,0,0,1,2.66.88,3.43,3.43,0,0,1,.66.67l-.23-.35a1.05,1.05,0,0,1,.44-.91,2.42,2.42,0,0,1,1.39-.31,2.34,2.34,0,0,1,1.29.27,1.15,1.15,0,0,1,.47.73,4.86,4.86,0,0,1,.09.95V32a5.64,5.64,0,0,1-.08.93,1.07,1.07,0,0,1-.48.71A2.41,2.41,0,0,1,184.42,33.85ZM180,30.13a2.25,2.25,0,0,0,1.21-.34,2.56,2.56,0,0,0,1.17-2.19,2.62,2.62,0,0,0-.32-1.29,2.4,2.4,0,0,0-.88-.88A2.3,2.3,0,0,0,180,25.1a2.33,2.33,0,0,0-1.26.34,2.48,2.48,0,0,0-1.24,2.21,2.42,2.42,0,0,0,.33,1.24A2.6,2.6,0,0,0,180,30.13Z"/><path class="cls-3" d="M193.29,34.08a8,8,0,0,1-1.47-.15,7.8,7.8,0,0,1-1.54-.44,5.07,5.07,0,0,1-1.25-.67,1.28,1.28,0,0,1-.56-.89,1.41,1.41,0,0,1,0-.54,2.37,2.37,0,0,1,.23-.6,4.88,4.88,0,0,1,.43-.66.94.94,0,0,1,.44-.35,1,1,0,0,1,.59,0,3.55,3.55,0,0,1,.8.26l.82.4c.29.14.58.27.88.38a2.92,2.92,0,0,0,.92.16,2.32,2.32,0,0,0,1.09-.21.65.65,0,0,0,.39-.59.64.64,0,0,0-.16-.45,1.27,1.27,0,0,0-.45-.3c-.19-.08-.42-.16-.68-.24L193,29c-.28-.07-.58-.15-.9-.25a9.05,9.05,0,0,1-1.19-.45,4,4,0,0,1-1-.72,3.27,3.27,0,0,1-.73-1.07,3.85,3.85,0,0,1-.28-1.56,3.51,3.51,0,0,1,.57-2.05,3.56,3.56,0,0,1,1.66-1.27,7.35,7.35,0,0,1,2.7-.43c.3,0,.6,0,.9.05a4.53,4.53,0,0,1,.89.18,6.74,6.74,0,0,1,.86.3,5.58,5.58,0,0,1,.85.42,1.1,1.1,0,0,1,.77.95,2,2,0,0,1-.42,1.25A2.17,2.17,0,0,1,197,25a.93.93,0,0,1-.62.14,3.93,3.93,0,0,1-.86-.34,9.71,9.71,0,0,0-1-.44,2.84,2.84,0,0,0-1-.2,2.2,2.2,0,0,0-.73.11,1.11,1.11,0,0,0-.45.3.69.69,0,0,0-.15.44.71.71,0,0,0,.19.51,1.42,1.42,0,0,0,.51.31,5.58,5.58,0,0,0,.75.23l.93.2a12.6,12.6,0,0,1,1.38.34,4.44,4.44,0,0,1,1.3.61,2.93,2.93,0,0,1,.95,1.08A3.75,3.75,0,0,1,198.6,30a3.63,3.63,0,0,1-1.38,3A6.38,6.38,0,0,1,193.29,34.08Z"/><path class="cls-3" d="M212.62,33.87a5,5,0,0,1-2.18-.49A5.83,5.83,0,0,1,208.62,32a6.68,6.68,0,0,1-1.26-2,6.27,6.27,0,0,1-.46-2.41,6.06,6.06,0,0,1,.46-2.34,6.43,6.43,0,0,1,1.28-2,6.33,6.33,0,0,1,1.83-1.36,4.91,4.91,0,0,1,2.15-.5,4.29,4.29,0,0,1,3.64,1.83,6.31,6.31,0,0,1,.94,2,9.6,9.6,0,0,1,.35,2.35,8.87,8.87,0,0,1-.31,2.4,6.22,6.22,0,0,1-.92,2,4.67,4.67,0,0,1-1.55,1.39A4.41,4.41,0,0,1,212.62,33.87Zm.5-3.7a2.19,2.19,0,0,0,1.21-.34,2.56,2.56,0,0,0,.88-.91,2.51,2.51,0,0,0,.34-1.27,2.48,2.48,0,0,0-.33-1.27,2.58,2.58,0,0,0-.87-.9,2.55,2.55,0,0,0-2.49,0,2.31,2.31,0,0,0-.88.9,2.71,2.71,0,0,0-.31,1.27,2.52,2.52,0,0,0,.33,1.28,2.45,2.45,0,0,0,2.12,1.25Zm4.35,3.73a2.28,2.28,0,0,1-1.27-.28,1.28,1.28,0,0,1-.53-.85V17.62a6.73,6.73,0,0,1,.06-.91,1,1,0,0,1,.44-.71,2.15,2.15,0,0,1,1.27-.28,2.38,2.38,0,0,1,1.33.27,1.08,1.08,0,0,1,.47.68,4,4,0,0,1,.1.93V32a5.31,5.31,0,0,1-.08.91,1.12,1.12,0,0,1-.48.71A2.29,2.29,0,0,1,217.47,33.9Z"/><path class="cls-3" d="M228.07,34.13a7.17,7.17,0,0,1-3-.58A5.93,5.93,0,0,1,223,32a6.61,6.61,0,0,1-1.2-2.09,7.12,7.12,0,0,1-.39-2.3,6.38,6.38,0,0,1,.85-3.32A6,6,0,0,1,224.61,22a6.9,6.9,0,0,1,3.46-.83,6.27,6.27,0,0,1,2.52.46,5.33,5.33,0,0,1,1.75,1.2,5.07,5.07,0,0,1,1,1.59,4.48,4.48,0,0,1,.34,1.62,2.82,2.82,0,0,1-.67,2.05,2.25,2.25,0,0,1-1.68.68H225.4a1.71,1.71,0,0,0,.46,1.08,2.81,2.81,0,0,0,1,.7,3.5,3.5,0,0,0,1.33.25,8.22,8.22,0,0,0,1-.06,3.6,3.6,0,0,0,.78-.18c.22-.07.42-.15.59-.22s.34-.14.49-.19a2.53,2.53,0,0,1,.42-.1,1.09,1.09,0,0,1,.68.21,1.94,1.94,0,0,1,.57.72,1.71,1.71,0,0,1,.24.52,2.2,2.2,0,0,1,.06.5,1.34,1.34,0,0,1-.61,1.09,4.83,4.83,0,0,1-1.73.74A11.47,11.47,0,0,1,228.07,34.13Zm-2.67-7.4h3.95a.92.92,0,0,0,.57-.14.61.61,0,0,0,.2-.53,1.23,1.23,0,0,0-.27-.78,1.87,1.87,0,0,0-.74-.54,3.2,3.2,0,0,0-2.44.11,2.47,2.47,0,0,0-.94.8A1.93,1.93,0,0,0,225.4,26.73Z"/><path class="cls-3" d="M244.14,33.91a2.4,2.4,0,0,1-1.3-.27,1.1,1.1,0,0,1-.49-.71,5.52,5.52,0,0,1-.08-.92V17.64a5.49,5.49,0,0,1,.08-.94,1.11,1.11,0,0,1,.49-.7,2.59,2.59,0,0,1,1.33-.26,2.15,2.15,0,0,1,1.27.28,1.08,1.08,0,0,1,.45.71,3.88,3.88,0,0,1,0,.91V32.79a1.33,1.33,0,0,1-.52.85A2.37,2.37,0,0,1,244.14,33.91Zm4.85,0a4.38,4.38,0,0,1-2.15-.51A4.53,4.53,0,0,1,245.31,32a6.45,6.45,0,0,1-.93-2,8.15,8.15,0,0,1-.28-2.4,8.29,8.29,0,0,1,.32-2.35,6.31,6.31,0,0,1,.94-2,4.37,4.37,0,0,1,1.53-1.34,4.33,4.33,0,0,1,2.11-.49,4.88,4.88,0,0,1,2.15.5A6.54,6.54,0,0,1,253,23.31a6.47,6.47,0,0,1,1.27,2,6,6,0,0,1,.46,2.34A6.48,6.48,0,0,1,253,32a5.86,5.86,0,0,1-1.82,1.37A5.1,5.1,0,0,1,249,33.89Zm-.5-3.7a2.36,2.36,0,0,0,1.25-.33,2.53,2.53,0,0,0,.89-.92,2.42,2.42,0,0,0,.34-1.27,2.64,2.64,0,0,0-.32-1.28,2.48,2.48,0,0,0-.89-.9,2.52,2.52,0,0,0-1.24-.32,2.42,2.42,0,0,0-1.24.33,2.5,2.5,0,0,0-.87.9,2.57,2.57,0,0,0-.31,1.27,2.4,2.4,0,0,0,.32,1.27,2.53,2.53,0,0,0,.87.91A2.23,2.23,0,0,0,248.49,30.19Z"/><path class="cls-3" d="M262.89,34.12a6.29,6.29,0,0,1-2.34-.46,7,7,0,0,1-2.11-1.31,6.53,6.53,0,0,1-1.51-2,6.47,6.47,0,0,1-.05-5.15,6.83,6.83,0,0,1,1.42-2.06,6.75,6.75,0,0,1,2.06-1.41,6,6,0,0,1,2.49-.51,6.23,6.23,0,0,1,3.26.86,6.56,6.56,0,0,1,2.34,2.34,6.71,6.71,0,0,1,.31,6,6.53,6.53,0,0,1-5.87,3.75Zm-.05-3.77a2.85,2.85,0,0,0,1.23-.3,2.81,2.81,0,0,0,1.05-.9,2.6,2.6,0,0,0,.42-1.52,2.74,2.74,0,0,0-.34-1.4,2.5,2.5,0,0,0-1-.94,2.8,2.8,0,0,0-1.41-.34,2.59,2.59,0,0,0-2.29,1.31,2.93,2.93,0,0,0,.05,2.9,2.49,2.49,0,0,0,1,.9A2.9,2.9,0,0,0,262.84,30.35Z"/><path class="cls-3" d="M276.14,33.93a14.14,14.14,0,0,1-1.82-.1,3.58,3.58,0,0,1-1.35-.4,2.42,2.42,0,0,1-.9-.84,3.92,3.92,0,0,1-.53-1.37,10.88,10.88,0,0,1-.17-2.06V17.61a3.84,3.84,0,0,1,.1-.93A1.17,1.17,0,0,1,272,16a2.41,2.41,0,0,1,1.32-.27,2.28,2.28,0,0,1,1.28.27,1.21,1.21,0,0,1,.49.7,3.9,3.9,0,0,1,.1.93V29a5.54,5.54,0,0,0,0,.66,1,1,0,0,0,.15.42.6.6,0,0,0,.31.2,2.5,2.5,0,0,0,.53,0,2.6,2.6,0,0,1,.61.07.89.89,0,0,1,.54.45,2.58,2.58,0,0,1,.22,1.25,2.78,2.78,0,0,1-.22,1.3.88.88,0,0,1-.54.48A2.73,2.73,0,0,1,276.14,33.93Z"/><path class="cls-3" d="M281.37,19.64a2.52,2.52,0,0,1-1.35-.28,1.11,1.11,0,0,1-.48-.73,4.69,4.69,0,0,1-.09-.94,4.85,4.85,0,0,1,.09-1,1.06,1.06,0,0,1,.5-.7,2.69,2.69,0,0,1,1.36-.26,2.37,2.37,0,0,1,1.33.28,1.08,1.08,0,0,1,.48.72,5,5,0,0,1,.09,1,4.7,4.7,0,0,1-.09.92,1.07,1.07,0,0,1-.48.71A2.55,2.55,0,0,1,281.37,19.64Zm0,14.3a2.47,2.47,0,0,1-1.33-.27,1,1,0,0,1-.47-.7,5.31,5.31,0,0,1-.08-.91V23.34a4.56,4.56,0,0,1,.09-.92,1.06,1.06,0,0,1,.48-.7,2.59,2.59,0,0,1,1.33-.26,2.24,2.24,0,0,1,1.29.28,1.14,1.14,0,0,1,.47.71,4.62,4.62,0,0,1,.09.94v8.7a4.53,4.53,0,0,1-.09.91,1,1,0,0,1-.47.69A2.62,2.62,0,0,1,281.37,33.94Z"/><path class="cls-3" d="M286.7,21.64h2.75l3.45-.1a4.43,4.43,0,0,1,.9.09,1.13,1.13,0,0,1,.7.49,2.47,2.47,0,0,1,.27,1.33,2.34,2.34,0,0,1-.26,1.24,1.21,1.21,0,0,1-.69.52,3.8,3.8,0,0,1-.92.11l-3.28-.08-3,0a1.25,1.25,0,0,1-1-.46,2.54,2.54,0,0,1-.28-1.39,2.05,2.05,0,0,1,.35-1.33A1.26,1.26,0,0,1,286.7,21.64Zm5.64,12.3a7.92,7.92,0,0,1-2.2-.27,3.36,3.36,0,0,1-2.39-2.32,6.91,6.91,0,0,1-.28-2.11V19.12a4.36,4.36,0,0,1,.08-.93,1,1,0,0,1,.49-.66,3.32,3.32,0,0,1,2.6,0,1.12,1.12,0,0,1,.49.71,4.63,4.63,0,0,1,.09.92v9.92a3,3,0,0,0,.06.66.71.71,0,0,0,.19.39.62.62,0,0,0,.35.18,2.79,2.79,0,0,0,.55.05,4.07,4.07,0,0,1,1,.1,1.1,1.1,0,0,1,.67.45,2.24,2.24,0,0,1,.23,1.17,2.38,2.38,0,0,1-.27,1.3,1.09,1.09,0,0,1-.72.48A5.33,5.33,0,0,1,292.34,33.94Z"/><path class="cls-3" d="M306.89,33.93a2.3,2.3,0,0,1-1.37-.33.89.89,0,0,1-.43-.8l.25-.42a3,3,0,0,1-.57.61,4.17,4.17,0,0,1-2.78.93,4.91,4.91,0,0,1-2.19-.5A5.7,5.7,0,0,1,298,32a7,7,0,0,1-1.28-2,6.16,6.16,0,0,1-.47-2.38,5.82,5.82,0,0,1,.48-2.33A6.48,6.48,0,0,1,299.82,22a5,5,0,0,1,2.18-.5,4.09,4.09,0,0,1,1.57.27,4.15,4.15,0,0,1,1.09.61,3.2,3.2,0,0,1,.66.68l-.22-.35a1,1,0,0,1,.44-.92,2.39,2.39,0,0,1,1.38-.31,2.24,2.24,0,0,1,1.29.28,1.11,1.11,0,0,1,.48.72,5.8,5.8,0,0,1,.08.95V32a4.7,4.7,0,0,1-.09.92,1.11,1.11,0,0,1-.48.72A2.48,2.48,0,0,1,306.89,33.93Zm-4.37-3.73a2.13,2.13,0,0,0,1.2-.34,2.57,2.57,0,0,0,.85-.91,2.61,2.61,0,0,0,.33-1.27,2.49,2.49,0,0,0-1.2-2.18,2.36,2.36,0,0,0-1.23-.33,2.42,2.42,0,0,0-1.26.34,2.53,2.53,0,0,0-.9.91,2.5,2.5,0,0,0-.34,1.3,2.34,2.34,0,0,0,.34,1.24,2.41,2.41,0,0,0,.92.9A2.49,2.49,0,0,0,302.52,30.2Z"/><path class="cls-3" d="M315.77,34.16a8.07,8.07,0,0,1-1.48-.15,8.79,8.79,0,0,1-1.54-.44,5.27,5.27,0,0,1-1.25-.68,1.29,1.29,0,0,1-.56-.89,1.36,1.36,0,0,1,0-.53,2.82,2.82,0,0,1,.23-.6,3.78,3.78,0,0,1,.44-.66.79.79,0,0,1,.44-.35.9.9,0,0,1,.58,0,3.4,3.4,0,0,1,.8.26l.83.4a6.74,6.74,0,0,0,.87.38,2.68,2.68,0,0,0,.93.16,2.35,2.35,0,0,0,1.09-.21.66.66,0,0,0,.38-.59.64.64,0,0,0-.16-.45,1.6,1.6,0,0,0-.45-.3c-.19-.08-.42-.16-.67-.24l-.82-.21c-.28-.06-.58-.15-.9-.25a8.93,8.93,0,0,1-1.18-.45,3.67,3.67,0,0,1-1.05-.71,3.1,3.1,0,0,1-.74-1.08A4,4,0,0,1,311.3,25a3.27,3.27,0,0,1,2.22-3.31,7.41,7.41,0,0,1,2.7-.44c.3,0,.6,0,.9,0a6.69,6.69,0,0,1,1.75.48,7.44,7.44,0,0,1,.85.42,1.16,1.16,0,0,1,.78,1,2.14,2.14,0,0,1-.43,1.25,2,2,0,0,1-.57.58.89.89,0,0,1-.63.14,4.13,4.13,0,0,1-.86-.34c-.31-.16-.63-.3-1-.44a2.84,2.84,0,0,0-1-.2,2.18,2.18,0,0,0-.72.11,1.11,1.11,0,0,0-.45.3.71.71,0,0,0-.15.44.69.69,0,0,0,.18.51,1.54,1.54,0,0,0,.52.32,4.87,4.87,0,0,0,.75.22c.28.07.59.14.92.2s.91.2,1.39.34a4.85,4.85,0,0,1,1.3.61,3.12,3.12,0,0,1,.95,1.08,3.78,3.78,0,0,1,.36,1.78,3.57,3.57,0,0,1-1.38,3A6.35,6.35,0,0,1,315.77,34.16Z"/><path class="cls-2" d="M113.94,33.84a2.4,2.4,0,0,1-1.3-.27,1.07,1.07,0,0,1-.48-.71,4.7,4.7,0,0,1-.09-.92V18.26a2.07,2.07,0,0,1,.42-1.49,2.24,2.24,0,0,1,1.53-.41h9.45a4.42,4.42,0,0,1,.92.09,1,1,0,0,1,.69.48,2.54,2.54,0,0,1,.26,1.35,2.38,2.38,0,0,1-.27,1.3,1.12,1.12,0,0,1-.72.49,4.59,4.59,0,0,1-.93.09h-7.55v3.23H121a4.74,4.74,0,0,1,.89.08.91.91,0,0,1,.61.42,2.36,2.36,0,0,1,.22,1.2,2.05,2.05,0,0,1-.22,1.11.92.92,0,0,1-.63.42,4.84,4.84,0,0,1-.9.07h-5.1V32a3.85,3.85,0,0,1-.1.91,1.1,1.1,0,0,1-.49.7A2.44,2.44,0,0,1,113.94,33.84Z"/><path class="cls-2" d="M129.8,19.54a2.53,2.53,0,0,1-1.35-.27,1.1,1.1,0,0,1-.48-.73,5.11,5.11,0,0,1,0-1.91,1,1,0,0,1,.5-.7,2.69,2.69,0,0,1,1.36-.26,2.31,2.31,0,0,1,1.32.28,1.09,1.09,0,0,1,.49.72,5,5,0,0,1,.09,1,4.7,4.7,0,0,1-.09.92,1.05,1.05,0,0,1-.49.71A2.41,2.41,0,0,1,129.8,19.54Zm0,14.31a2.43,2.43,0,0,1-1.32-.27,1,1,0,0,1-.48-.7,5.33,5.33,0,0,1-.07-.91V23.24a4.53,4.53,0,0,1,.09-.91,1.08,1.08,0,0,1,.49-.7,2.59,2.59,0,0,1,1.33-.26,2.21,2.21,0,0,1,1.28.28,1.12,1.12,0,0,1,.48.71,4.64,4.64,0,0,1,.08.94V32a4.53,4.53,0,0,1-.09.91,1.08,1.08,0,0,1-.47.69A2.64,2.64,0,0,1,129.79,33.85Z"/><path class="cls-2" d="M139.52,33.53a5,5,0,0,1-2.16-.49,5.84,5.84,0,0,1-1.79-1.34,6.55,6.55,0,0,1-1.22-1.95,6.12,6.12,0,0,1-.45-2.33,6,6,0,0,1,.45-2.31,6.15,6.15,0,0,1,1.24-1.92,6,6,0,0,1,1.8-1.33,4.86,4.86,0,0,1,2.11-.48,3.84,3.84,0,0,1,1.9.43,3.36,3.36,0,0,1,1.25,1.26,6.39,6.39,0,0,1,.71,1.92,11.82,11.82,0,0,1,.24,2.49,11,11,0,0,1-.42,3.21,4.2,4.2,0,0,1-1.3,2.1A3.58,3.58,0,0,1,139.52,33.53ZM140,39a7,7,0,0,1-1.76-.22,8.23,8.23,0,0,1-1.58-.61,4.28,4.28,0,0,1-1.15-.8,1.19,1.19,0,0,1-.43-.85,1.77,1.77,0,0,1,.15-.73,2.46,2.46,0,0,1,.45-.67,7,7,0,0,1,.6-.57,1,1,0,0,1,.6-.2,1.07,1.07,0,0,1,.63.19l.58.41a3.63,3.63,0,0,0,.79.41,3.21,3.21,0,0,0,1.2.19,2.42,2.42,0,0,0,.94-.18,2.15,2.15,0,0,0,.75-.55,2.82,2.82,0,0,0,.5-.86,2.85,2.85,0,0,0,.19-1.08V22.53a1.21,1.21,0,0,1,.51-.94,2.49,2.49,0,0,1,1.34-.29,2.21,2.21,0,0,1,1.25.27,1.06,1.06,0,0,1,.46.69,4.31,4.31,0,0,1,.08.9V33a5.88,5.88,0,0,1-.53,2.54,5.71,5.71,0,0,1-1.4,1.87,6,6,0,0,1-1.95,1.16A6.28,6.28,0,0,1,140,39Zm0-9.1a2.13,2.13,0,0,0,1.2-.34,2.42,2.42,0,0,0,.83-.88,2.5,2.5,0,0,0,.32-1.25,2.54,2.54,0,0,0-.31-1.25,2.47,2.47,0,0,0-.85-.88,2.39,2.39,0,0,0-1.22-.32,2.21,2.21,0,0,0-1.2.33,2.44,2.44,0,0,0-.83.89,2.47,2.47,0,0,0-.32,1.25,2.36,2.36,0,0,0,.33,1.23,2.5,2.5,0,0,0,.86.88A2.15,2.15,0,0,0,140,29.9Z"/><path class="cls-2" d="M154,33.84a5.31,5.31,0,0,1-3.93-1.72,5.75,5.75,0,0,1-1.16-1.93,7,7,0,0,1-.41-2.43V23.23a4.42,4.42,0,0,1,.09-.92,1.08,1.08,0,0,1,.49-.7,3.25,3.25,0,0,1,2.64,0,1.1,1.1,0,0,1,.47.71,4.69,4.69,0,0,1,.09.94v4.5a2.78,2.78,0,0,0,.26,1.26,1.73,1.73,0,0,0,.77.81,2.46,2.46,0,0,0,1.21.28,2.4,2.4,0,0,0,1.24-.29,2,2,0,0,0,.8-.81,2.57,2.57,0,0,0,.29-1.25V23.21a4.42,4.42,0,0,1,.09-.92,1,1,0,0,1,.49-.69,2.49,2.49,0,0,1,1.33-.26,2.39,2.39,0,0,1,1.31.27,1.15,1.15,0,0,1,.47.72,4.46,4.46,0,0,1,.09.91V32a5,5,0,0,1-.08.89,1.06,1.06,0,0,1-.49.66,2.63,2.63,0,0,1-1.3.25,2.92,2.92,0,0,1-1.05-.15,1.25,1.25,0,0,1-.55-.38.94.94,0,0,1-.21-.47,2.57,2.57,0,0,1,0-.45l.32-.28a2.27,2.27,0,0,1-.32.39,5.91,5.91,0,0,1-.66.57,4.28,4.28,0,0,1-1,.54A3.31,3.31,0,0,1,154,33.84Z"/><path class="cls-2" d="M165,33.87a2.35,2.35,0,0,1-1.31-.27,1.07,1.07,0,0,1-.48-.71,4.7,4.7,0,0,1-.09-.92V23.24a4.42,4.42,0,0,1,.09-.92,1,1,0,0,1,.49-.69,2.42,2.42,0,0,1,1.32-.26,2.5,2.5,0,0,1,1.26.24,1,1,0,0,1,.49.55,1.63,1.63,0,0,1,.1.53l-.3.15a3.22,3.22,0,0,1,.26-.36,3.58,3.58,0,0,1,.59-.55,3.71,3.71,0,0,1,.91-.49,3.62,3.62,0,0,1,1.24-.2c.18,0,.39,0,.61,0a4.62,4.62,0,0,1,.7.15,3.41,3.41,0,0,1,.67.3,1.54,1.54,0,0,1,.48.47,1.11,1.11,0,0,1,.19.67,3.06,3.06,0,0,1-.48,1.74,1.4,1.4,0,0,1-1.2.71,2.11,2.11,0,0,1-.6-.06.92.92,0,0,1-.28-.15,1.17,1.17,0,0,0-.27-.15,1.61,1.61,0,0,0-.55-.07,2.77,2.77,0,0,0-.71.1,1.93,1.93,0,0,0-.62.32,1.32,1.32,0,0,0-.45.52,1.52,1.52,0,0,0-.17.71V32a4.53,4.53,0,0,1-.09.91,1,1,0,0,1-.49.69A2.67,2.67,0,0,1,165,33.87Z"/><path class="cls-2" d="M184.42,33.85a2.42,2.42,0,0,1-1.38-.32.9.9,0,0,1-.42-.8l.25-.43a2.59,2.59,0,0,1-.58.61,3.87,3.87,0,0,1-1.11.65,4.33,4.33,0,0,1-1.66.29,5,5,0,0,1-2.19-.5A6,6,0,0,1,175.49,32a7.21,7.21,0,0,1-1.27-2,6,6,0,0,1-.47-2.38,6.07,6.07,0,0,1,.47-2.34,6.72,6.72,0,0,1,1.29-2,6.37,6.37,0,0,1,1.84-1.36,4.94,4.94,0,0,1,2.18-.5,4.05,4.05,0,0,1,2.66.88,3.43,3.43,0,0,1,.66.67l-.23-.35a1.05,1.05,0,0,1,.44-.91,2.42,2.42,0,0,1,1.39-.31,2.34,2.34,0,0,1,1.29.27,1.15,1.15,0,0,1,.47.73,4.86,4.86,0,0,1,.09.95V32a5.64,5.64,0,0,1-.08.93,1.07,1.07,0,0,1-.48.71A2.41,2.41,0,0,1,184.42,33.85ZM180,30.13a2.25,2.25,0,0,0,1.21-.34,2.56,2.56,0,0,0,1.17-2.19,2.62,2.62,0,0,0-.32-1.29,2.4,2.4,0,0,0-.88-.88A2.3,2.3,0,0,0,180,25.1a2.33,2.33,0,0,0-1.26.34,2.48,2.48,0,0,0-1.24,2.21,2.42,2.42,0,0,0,.33,1.24A2.6,2.6,0,0,0,180,30.13Z"/><path class="cls-2" d="M193.29,34.08a8,8,0,0,1-1.47-.15,7.8,7.8,0,0,1-1.54-.44,5.07,5.07,0,0,1-1.25-.67,1.28,1.28,0,0,1-.56-.89,1.41,1.41,0,0,1,0-.54,2.37,2.37,0,0,1,.23-.6,4.88,4.88,0,0,1,.43-.66.94.94,0,0,1,.44-.35,1,1,0,0,1,.59,0,3.55,3.55,0,0,1,.8.26l.82.4c.29.14.58.27.88.38a2.92,2.92,0,0,0,.92.16,2.32,2.32,0,0,0,1.09-.21.65.65,0,0,0,.39-.59.64.64,0,0,0-.16-.45,1.27,1.27,0,0,0-.45-.3c-.19-.08-.42-.16-.68-.24L193,29c-.28-.07-.58-.15-.9-.25a9.05,9.05,0,0,1-1.19-.45,4,4,0,0,1-1-.72,3.27,3.27,0,0,1-.73-1.07,3.85,3.85,0,0,1-.28-1.56,3.51,3.51,0,0,1,.57-2.05,3.56,3.56,0,0,1,1.66-1.27,7.35,7.35,0,0,1,2.7-.43c.3,0,.6,0,.9.05a4.53,4.53,0,0,1,.89.18,6.74,6.74,0,0,1,.86.3,5.58,5.58,0,0,1,.85.42,1.1,1.1,0,0,1,.77.95,2,2,0,0,1-.42,1.25A2.17,2.17,0,0,1,197,25a.93.93,0,0,1-.62.14,3.93,3.93,0,0,1-.86-.34,9.71,9.71,0,0,0-1-.44,2.84,2.84,0,0,0-1-.2,2.2,2.2,0,0,0-.73.11,1.11,1.11,0,0,0-.45.3.69.69,0,0,0-.15.44.71.71,0,0,0,.19.51,1.42,1.42,0,0,0,.51.31,5.58,5.58,0,0,0,.75.23l.93.2a12.6,12.6,0,0,1,1.38.34,4.44,4.44,0,0,1,1.3.61,2.93,2.93,0,0,1,.95,1.08A3.75,3.75,0,0,1,198.6,30a3.63,3.63,0,0,1-1.38,3A6.38,6.38,0,0,1,193.29,34.08Z"/><path class="cls-2" d="M212.62,33.87a5,5,0,0,1-2.18-.49A5.83,5.83,0,0,1,208.62,32a6.68,6.68,0,0,1-1.26-2,6.27,6.27,0,0,1-.46-2.41,6.06,6.06,0,0,1,.46-2.34,6.43,6.43,0,0,1,1.28-2,6.33,6.33,0,0,1,1.83-1.36,4.91,4.91,0,0,1,2.15-.5,4.29,4.29,0,0,1,3.64,1.83,6.31,6.31,0,0,1,.94,2,9.6,9.6,0,0,1,.35,2.35,8.87,8.87,0,0,1-.31,2.4,6.22,6.22,0,0,1-.92,2,4.67,4.67,0,0,1-1.55,1.39A4.41,4.41,0,0,1,212.62,33.87Zm.5-3.7a2.19,2.19,0,0,0,1.21-.34,2.56,2.56,0,0,0,.88-.91,2.51,2.51,0,0,0,.34-1.27,2.48,2.48,0,0,0-.33-1.27,2.58,2.58,0,0,0-.87-.9,2.55,2.55,0,0,0-2.49,0,2.31,2.31,0,0,0-.88.9,2.71,2.71,0,0,0-.31,1.27,2.52,2.52,0,0,0,.33,1.28,2.45,2.45,0,0,0,2.12,1.25Zm4.35,3.73a2.28,2.28,0,0,1-1.27-.28,1.28,1.28,0,0,1-.53-.85V17.62a6.73,6.73,0,0,1,.06-.91,1,1,0,0,1,.44-.71,2.15,2.15,0,0,1,1.27-.28,2.38,2.38,0,0,1,1.33.27,1.08,1.08,0,0,1,.47.68,4,4,0,0,1,.1.93V32a5.31,5.31,0,0,1-.08.91,1.12,1.12,0,0,1-.48.71A2.29,2.29,0,0,1,217.47,33.9Z"/><path class="cls-2" d="M228.07,34.13a7.17,7.17,0,0,1-3-.58A5.93,5.93,0,0,1,223,32a6.61,6.61,0,0,1-1.2-2.09,7.12,7.12,0,0,1-.39-2.3,6.38,6.38,0,0,1,.85-3.32A6,6,0,0,1,224.61,22a6.9,6.9,0,0,1,3.46-.83,6.27,6.27,0,0,1,2.52.46,5.33,5.33,0,0,1,1.75,1.2,5.07,5.07,0,0,1,1,1.59,4.48,4.48,0,0,1,.34,1.62,2.82,2.82,0,0,1-.67,2.05,2.25,2.25,0,0,1-1.68.68H225.4a1.71,1.71,0,0,0,.46,1.08,2.81,2.81,0,0,0,1,.7,3.5,3.5,0,0,0,1.33.25,8.22,8.22,0,0,0,1-.06,3.6,3.6,0,0,0,.78-.18c.22-.07.42-.15.59-.22s.34-.14.49-.19a2.53,2.53,0,0,1,.42-.1,1.09,1.09,0,0,1,.68.21,1.94,1.94,0,0,1,.57.72,1.71,1.71,0,0,1,.24.52,2.2,2.2,0,0,1,.06.5,1.34,1.34,0,0,1-.61,1.09,4.83,4.83,0,0,1-1.73.74A11.47,11.47,0,0,1,228.07,34.13Zm-2.67-7.4h3.95a.92.92,0,0,0,.57-.14.61.61,0,0,0,.2-.53,1.23,1.23,0,0,0-.27-.78,1.87,1.87,0,0,0-.74-.54,3.2,3.2,0,0,0-2.44.11,2.47,2.47,0,0,0-.94.8A1.93,1.93,0,0,0,225.4,26.73Z"/><path class="cls-2" d="M244.14,33.91a2.4,2.4,0,0,1-1.3-.27,1.1,1.1,0,0,1-.49-.71,5.52,5.52,0,0,1-.08-.92V17.64a5.49,5.49,0,0,1,.08-.94,1.11,1.11,0,0,1,.49-.7,2.59,2.59,0,0,1,1.33-.26,2.15,2.15,0,0,1,1.27.28,1.08,1.08,0,0,1,.45.71,3.88,3.88,0,0,1,0,.91V32.79a1.33,1.33,0,0,1-.52.85A2.37,2.37,0,0,1,244.14,33.91Zm4.85,0a4.38,4.38,0,0,1-2.15-.51A4.53,4.53,0,0,1,245.31,32a6.45,6.45,0,0,1-.93-2,8.15,8.15,0,0,1-.28-2.4,8.29,8.29,0,0,1,.32-2.35,6.31,6.31,0,0,1,.94-2,4.37,4.37,0,0,1,1.53-1.34,4.33,4.33,0,0,1,2.11-.49,4.88,4.88,0,0,1,2.15.5A6.54,6.54,0,0,1,253,23.31a6.47,6.47,0,0,1,1.27,2,6,6,0,0,1,.46,2.34A6.48,6.48,0,0,1,253,32a5.86,5.86,0,0,1-1.82,1.37A5.1,5.1,0,0,1,249,33.89Zm-.5-3.7a2.36,2.36,0,0,0,1.25-.33,2.53,2.53,0,0,0,.89-.92,2.42,2.42,0,0,0,.34-1.27,2.64,2.64,0,0,0-.32-1.28,2.48,2.48,0,0,0-.89-.9,2.52,2.52,0,0,0-1.24-.32,2.42,2.42,0,0,0-1.24.33,2.5,2.5,0,0,0-.87.9,2.57,2.57,0,0,0-.31,1.27,2.4,2.4,0,0,0,.32,1.27,2.53,2.53,0,0,0,.87.91A2.23,2.23,0,0,0,248.49,30.19Z"/><path class="cls-2" d="M262.89,34.12a6.29,6.29,0,0,1-2.34-.46,7,7,0,0,1-2.11-1.31,6.53,6.53,0,0,1-1.51-2,6.47,6.47,0,0,1-.05-5.15,6.83,6.83,0,0,1,1.42-2.06,6.75,6.75,0,0,1,2.06-1.41,6,6,0,0,1,2.49-.51,6.23,6.23,0,0,1,3.26.86,6.56,6.56,0,0,1,2.34,2.34,6.71,6.71,0,0,1,.31,6,6.53,6.53,0,0,1-5.87,3.75Zm-.05-3.77a2.85,2.85,0,0,0,1.23-.3,2.81,2.81,0,0,0,1.05-.9,2.6,2.6,0,0,0,.42-1.52,2.74,2.74,0,0,0-.34-1.4,2.5,2.5,0,0,0-1-.94,2.8,2.8,0,0,0-1.41-.34,2.59,2.59,0,0,0-2.29,1.31,2.93,2.93,0,0,0,.05,2.9,2.49,2.49,0,0,0,1,.9A2.9,2.9,0,0,0,262.84,30.35Z"/><path class="cls-2" d="M276.14,33.93a14.14,14.14,0,0,1-1.82-.1,3.58,3.58,0,0,1-1.35-.4,2.42,2.42,0,0,1-.9-.84,3.92,3.92,0,0,1-.53-1.37,10.88,10.88,0,0,1-.17-2.06V17.61a3.84,3.84,0,0,1,.1-.93A1.17,1.17,0,0,1,272,16a2.41,2.41,0,0,1,1.32-.27,2.28,2.28,0,0,1,1.28.27,1.21,1.21,0,0,1,.49.7,3.9,3.9,0,0,1,.1.93V29a5.54,5.54,0,0,0,0,.66,1,1,0,0,0,.15.42.6.6,0,0,0,.31.2,2.5,2.5,0,0,0,.53,0,2.6,2.6,0,0,1,.61.07.89.89,0,0,1,.54.45,2.58,2.58,0,0,1,.22,1.25,2.78,2.78,0,0,1-.22,1.3.88.88,0,0,1-.54.48A2.73,2.73,0,0,1,276.14,33.93Z"/><path class="cls-2" d="M281.37,19.64a2.52,2.52,0,0,1-1.35-.28,1.11,1.11,0,0,1-.48-.73,4.69,4.69,0,0,1-.09-.94,4.85,4.85,0,0,1,.09-1,1.06,1.06,0,0,1,.5-.7,2.69,2.69,0,0,1,1.36-.26,2.37,2.37,0,0,1,1.33.28,1.08,1.08,0,0,1,.48.72,5,5,0,0,1,.09,1,4.7,4.7,0,0,1-.09.92,1.07,1.07,0,0,1-.48.71A2.55,2.55,0,0,1,281.37,19.64Zm0,14.3a2.47,2.47,0,0,1-1.33-.27,1,1,0,0,1-.47-.7,5.31,5.31,0,0,1-.08-.91V23.34a4.56,4.56,0,0,1,.09-.92,1.06,1.06,0,0,1,.48-.7,2.59,2.59,0,0,1,1.33-.26,2.24,2.24,0,0,1,1.29.28,1.14,1.14,0,0,1,.47.71,4.62,4.62,0,0,1,.09.94v8.7a4.53,4.53,0,0,1-.09.91,1,1,0,0,1-.47.69A2.62,2.62,0,0,1,281.37,33.94Z"/><path class="cls-2" d="M286.7,21.64h2.75l3.45-.1a4.43,4.43,0,0,1,.9.09,1.13,1.13,0,0,1,.7.49,2.47,2.47,0,0,1,.27,1.33,2.34,2.34,0,0,1-.26,1.24,1.21,1.21,0,0,1-.69.52,3.8,3.8,0,0,1-.92.11l-3.28-.08-3,0a1.25,1.25,0,0,1-1-.46,2.54,2.54,0,0,1-.28-1.39,2.05,2.05,0,0,1,.35-1.33A1.26,1.26,0,0,1,286.7,21.64Zm5.64,12.3a7.92,7.92,0,0,1-2.2-.27,3.36,3.36,0,0,1-2.39-2.32,6.91,6.91,0,0,1-.28-2.11V19.12a4.36,4.36,0,0,1,.08-.93,1,1,0,0,1,.49-.66,3.32,3.32,0,0,1,2.6,0,1.12,1.12,0,0,1,.49.71,4.63,4.63,0,0,1,.09.92v9.92a3,3,0,0,0,.06.66.71.71,0,0,0,.19.39.62.62,0,0,0,.35.18,2.79,2.79,0,0,0,.55.05,4.07,4.07,0,0,1,1,.1,1.1,1.1,0,0,1,.67.45,2.24,2.24,0,0,1,.23,1.17,2.38,2.38,0,0,1-.27,1.3,1.09,1.09,0,0,1-.72.48A5.33,5.33,0,0,1,292.34,33.94Z"/><path class="cls-2" d="M306.89,33.93a2.3,2.3,0,0,1-1.37-.33.89.89,0,0,1-.43-.8l.25-.42a3,3,0,0,1-.57.61,4.17,4.17,0,0,1-2.78.93,4.91,4.91,0,0,1-2.19-.5A5.7,5.7,0,0,1,298,32a7,7,0,0,1-1.28-2,6.16,6.16,0,0,1-.47-2.38,5.82,5.82,0,0,1,.48-2.33A6.48,6.48,0,0,1,299.82,22a5,5,0,0,1,2.18-.5,4.09,4.09,0,0,1,1.57.27,4.15,4.15,0,0,1,1.09.61,3.2,3.2,0,0,1,.66.68l-.22-.35a1,1,0,0,1,.44-.92,2.39,2.39,0,0,1,1.38-.31,2.24,2.24,0,0,1,1.29.28,1.11,1.11,0,0,1,.48.72,5.8,5.8,0,0,1,.08.95V32a4.7,4.7,0,0,1-.09.92,1.11,1.11,0,0,1-.48.72A2.48,2.48,0,0,1,306.89,33.93Zm-4.37-3.73a2.13,2.13,0,0,0,1.2-.34,2.57,2.57,0,0,0,.85-.91,2.61,2.61,0,0,0,.33-1.27,2.49,2.49,0,0,0-1.2-2.18,2.36,2.36,0,0,0-1.23-.33,2.42,2.42,0,0,0-1.26.34,2.53,2.53,0,0,0-.9.91,2.5,2.5,0,0,0-.34,1.3,2.34,2.34,0,0,0,.34,1.24,2.41,2.41,0,0,0,.92.9A2.49,2.49,0,0,0,302.52,30.2Z"/><path class="cls-2" d="M315.77,34.16a8.07,8.07,0,0,1-1.48-.15,8.79,8.79,0,0,1-1.54-.44,5.27,5.27,0,0,1-1.25-.68,1.29,1.29,0,0,1-.56-.89,1.36,1.36,0,0,1,0-.53,2.82,2.82,0,0,1,.23-.6,3.78,3.78,0,0,1,.44-.66.79.79,0,0,1,.44-.35.9.9,0,0,1,.58,0,3.4,3.4,0,0,1,.8.26l.83.4a6.74,6.74,0,0,0,.87.38,2.68,2.68,0,0,0,.93.16,2.35,2.35,0,0,0,1.09-.21.66.66,0,0,0,.38-.59.64.64,0,0,0-.16-.45,1.6,1.6,0,0,0-.45-.3c-.19-.08-.42-.16-.67-.24l-.82-.21c-.28-.06-.58-.15-.9-.25a8.93,8.93,0,0,1-1.18-.45,3.67,3.67,0,0,1-1.05-.71,3.1,3.1,0,0,1-.74-1.08A4,4,0,0,1,311.3,25a3.27,3.27,0,0,1,2.22-3.31,7.41,7.41,0,0,1,2.7-.44c.3,0,.6,0,.9,0a6.69,6.69,0,0,1,1.75.48,7.44,7.44,0,0,1,.85.42,1.16,1.16,0,0,1,.78,1,2.14,2.14,0,0,1-.43,1.25,2,2,0,0,1-.57.58.89.89,0,0,1-.63.14,4.13,4.13,0,0,1-.86-.34c-.31-.16-.63-.3-1-.44a2.84,2.84,0,0,0-1-.2,2.18,2.18,0,0,0-.72.11,1.11,1.11,0,0,0-.45.3.71.71,0,0,0-.15.44.69.69,0,0,0,.18.51,1.54,1.54,0,0,0,.52.32,4.87,4.87,0,0,0,.75.22c.28.07.59.14.92.2s.91.2,1.39.34a4.85,4.85,0,0,1,1.3.61,3.12,3.12,0,0,1,.95,1.08,3.78,3.78,0,0,1,.36,1.78,3.57,3.57,0,0,1-1.38,3A6.35,6.35,0,0,1,315.77,34.16Z"/><text class="cls-4" transform="matrix(0.97, 0, 0, 1, 51.72, 40.47)">1.2</text><text class="cls-5" transform="matrix(0.97, 0, 0, 1, 51.72, 40.47)">1.2</text></g></g></svg>