<svg xmlns="http://www.w3.org/2000/svg" viewBox="0 0 455.66 220.11"><defs><style>.cls-1{fill:#fff;}.cls-2{fill:none;}</style></defs><title>pag33</title><g id="Layer_2" data-name="Layer 2"><g id="Paso_3" data-name="Paso 3"><path class="cls-1" d="M41.91,12.64a1.12,1.12,0,0,1,.16.48.49.49,0,0,1-.12.36,1.2,1.2,0,0,1-.42.3.9.9,0,0,1-.71.09,1.1,1.1,0,0,1-.47-.55L35.6,3.21,30.89,13.3a1.05,1.05,0,0,1-.46.55.91.91,0,0,1-.73-.09.88.88,0,0,1-.41-.29.54.54,0,0,1-.1-.42,2,2,0,0,1,.18-.57L34.83,1.1a.9.9,0,0,1,.33-.37.86.86,0,0,1,.46-.14A.88.88,0,0,1,36,.65a.65.65,0,0,1,.26.17.81.81,0,0,1,.19.3ZM32,10.07l.65-1.46h5.89l.63,1.46Z"/><path class="cls-1" d="M44.5,17.59a1.1,1.1,0,0,1-.54-.1.5.5,0,0,1-.25-.29,1.27,1.27,0,0,1-.07-.46V5.51a1.56,1.56,0,0,1,.06-.46.52.52,0,0,1,.24-.29,1.1,1.1,0,0,1,.54-.1,1.15,1.15,0,0,1,.62.13.61.61,0,0,1,.23.47V16.72a1.41,1.41,0,0,1,0,.47.51.51,0,0,1-.24.3A1.17,1.17,0,0,1,44.5,17.59Zm4-3.81a4,4,0,0,1-1.69-.35,3.42,3.42,0,0,1-1.29-1A4.4,4.4,0,0,1,44.64,11a5.19,5.19,0,0,1-.28-1.84,5.66,5.66,0,0,1,.29-1.83,4.16,4.16,0,0,1,.83-1.45,3.67,3.67,0,0,1,1.29-1,4.13,4.13,0,0,1,1.68-.33A4,4,0,0,1,50.09,5a4.16,4.16,0,0,1,1.35,1,4.4,4.4,0,0,1,.91,1.47,5.11,5.11,0,0,1,.34,1.85,5,5,0,0,1-.34,1.82,4.26,4.26,0,0,1-.91,1.44,4,4,0,0,1-1.35.94A4.11,4.11,0,0,1,48.45,13.78Zm-.25-1.56a2.79,2.79,0,0,0,1.45-.39,2.7,2.7,0,0,0,1-1.08A3.14,3.14,0,0,0,51,9.2a3.1,3.1,0,0,0-.37-1.56,2.7,2.7,0,0,0-1-1,2.93,2.93,0,0,0-1.46-.37,2.73,2.73,0,0,0-2.44,1.43,3.05,3.05,0,0,0-.37,1.54,3.14,3.14,0,0,0,.37,1.55,2.77,2.77,0,0,0,1,1.08A2.67,2.67,0,0,0,48.2,12.22Z"/><path class="cls-1" d="M59.15,14a4.46,4.46,0,0,1-1.78-.36,5.16,5.16,0,0,1-1.51-1,4.74,4.74,0,0,1-1-1.49,4.81,4.81,0,0,1,0-3.7,4.73,4.73,0,0,1,1-1.49,4.94,4.94,0,0,1,1.49-1,4.74,4.74,0,0,1,4.18.25,4.51,4.51,0,0,1,1.68,1.68,4.62,4.62,0,0,1,.63,2.4,4.71,4.71,0,0,1-.38,1.9,4.64,4.64,0,0,1-1,1.5,4.91,4.91,0,0,1-1.49,1A4.34,4.34,0,0,1,59.15,14Zm0-1.66a2.86,2.86,0,0,0,1.48-.4,3,3,0,0,0,1.1-1.1,3,3,0,0,0,.42-1.59,3.11,3.11,0,0,0-.39-1.58,2.82,2.82,0,0,0-1.07-1.07,3.21,3.21,0,0,0-1.56-.37,3,3,0,0,0-1.51.39,3.16,3.16,0,0,0-1.09,1.09,3,3,0,0,0-.4,1.56,3.12,3.12,0,0,0,.41,1.6,3.06,3.06,0,0,0,2.61,1.47Z"/><path class="cls-1" d="M69.82,12.64,65.47,5.93a.89.89,0,0,1-.19-.64.91.91,0,0,1,.44-.5.87.87,0,0,1,.67-.2,1,1,0,0,1,.53.45l3.68,5.79Zm-1.88,4.9c-.3-.13-.48-.27-.53-.44a1,1,0,0,1,.13-.68l5-11.31A1.06,1.06,0,0,1,73,4.57a.86.86,0,0,1,.67.09c.3.14.48.29.52.45a1,1,0,0,1-.12.67L69,17.14q-.19.43-.42.51A1.05,1.05,0,0,1,67.94,17.54Z"/><path class="cls-1" d="M84,13.83a.83.83,0,0,1-.6-.17.79.79,0,0,1-.22-.53l.08-1a4.55,4.55,0,0,1-.59.69,3.83,3.83,0,0,1-1,.69,3.91,3.91,0,0,1-1.58.29,4.08,4.08,0,0,1-1.7-.36,4.39,4.39,0,0,1-1.38-1A4.64,4.64,0,0,1,76.05,11a4.59,4.59,0,0,1-.34-1.78,4.52,4.52,0,0,1,.34-1.76A4.41,4.41,0,0,1,77,6a4.67,4.67,0,0,1,1.39-1,4,4,0,0,1,1.68-.36,4.27,4.27,0,0,1,1.43.21,3.86,3.86,0,0,1,1,.57,5.09,5.09,0,0,1,.75.79l0-.79a.75.75,0,0,1,.18-.6A.92.92,0,0,1,84,4.66a.89.89,0,0,1,.52.11.57.57,0,0,1,.22.32,2.47,2.47,0,0,1,0,.52v7.33a2.12,2.12,0,0,1,0,.47.55.55,0,0,1-.23.32A1.06,1.06,0,0,1,84,13.83Zm-3.67-1.57a2.65,2.65,0,0,0,1.4-.4,2.89,2.89,0,0,0,1-1.08,3.11,3.11,0,0,0,.37-1.54,3.07,3.07,0,0,0-.39-1.57,3,3,0,0,0-1-1.07,2.64,2.64,0,0,0-1.4-.39,2.91,2.91,0,0,0-1.55.41,3.07,3.07,0,0,0-1,1.09,3.11,3.11,0,0,0-.38,1.56,3,3,0,0,0,.38,1.53,2.77,2.77,0,0,0,1,1.07A3.07,3.07,0,0,0,80.35,12.26Z"/><path class="cls-1" d="M88.21,13.85a1.1,1.1,0,0,1-.54-.1.44.44,0,0,1-.22-.31,1.62,1.62,0,0,1,0-.46V5.49a2,2,0,0,1,0-.47.46.46,0,0,1,.23-.28,1.3,1.3,0,0,1,.55-.08,1.25,1.25,0,0,1,.53.08A.45.45,0,0,1,89,5a.87.87,0,0,1,.07.37L89,5.93a3.74,3.74,0,0,1,.32-.49A1.92,1.92,0,0,1,89.76,5a2.46,2.46,0,0,1,.67-.33,3,3,0,0,1,1-.14,3.1,3.1,0,0,1,.54.05,2.75,2.75,0,0,1,.49.14,2.22,2.22,0,0,1,.41.22,1,1,0,0,1,.28.27.52.52,0,0,1,.1.33,1,1,0,0,1-.26.71.77.77,0,0,1-.56.3A.7.7,0,0,1,92,6.47l-.21-.14a1.05,1.05,0,0,0-.3-.14,1.84,1.84,0,0,0-.61-.07,1.91,1.91,0,0,0-.6.11,2.37,2.37,0,0,0-.59.34,1.62,1.62,0,0,0-.47.56,1.65,1.65,0,0,0-.18.79V13a1.49,1.49,0,0,1-.06.45.48.48,0,0,1-.23.29A1.38,1.38,0,0,1,88.21,13.85Z"/><path class="cls-1" d="M103.38,13.85a5.29,5.29,0,0,1-1.1-.1,2.43,2.43,0,0,1-.84-.34,2,2,0,0,1-.6-.58,2.49,2.49,0,0,1-.34-.88,6,6,0,0,1-.11-1.2V1.25a2.12,2.12,0,0,1,0-.47.43.43,0,0,1,.24-.29,1.1,1.1,0,0,1,.53-.11,1.17,1.17,0,0,1,.56.1.45.45,0,0,1,.24.28,1.56,1.56,0,0,1,.06.46v9.52a2.49,2.49,0,0,0,.07.65,1.23,1.23,0,0,0,.24.47.88.88,0,0,0,.41.26,2,2,0,0,0,.59.08,1.14,1.14,0,0,1,.39.06.44.44,0,0,1,.25.22,1.1,1.1,0,0,1,.1.54,1.17,1.17,0,0,1-.1.56.41.41,0,0,1-.25.22A1.15,1.15,0,0,1,103.38,13.85Z"/><path class="cls-1" d="M110.27,14a4.45,4.45,0,0,1-1.77-.36,5.16,5.16,0,0,1-1.51-1,4.55,4.55,0,0,1-1.43-3.36,4.63,4.63,0,0,1,.36-1.83,4.73,4.73,0,0,1,1-1.49,4.94,4.94,0,0,1,1.49-1,4.74,4.74,0,0,1,4.18.25,4.65,4.65,0,0,1,2.31,4.08A4.66,4.66,0,0,1,112,13.61,4.39,4.39,0,0,1,110.27,14Zm0-1.66a2.86,2.86,0,0,0,1.48-.4,3.07,3.07,0,0,0,1.52-2.69,3.11,3.11,0,0,0-.39-1.58,2.78,2.78,0,0,0-1.08-1.07,3.14,3.14,0,0,0-1.55-.37,3,3,0,0,0-1.51.39,3.16,3.16,0,0,0-1.09,1.09,3,3,0,0,0-.41,1.56,3,3,0,0,0,3,3.07Z"/><path class="cls-1" d="M120.1,14a5.77,5.77,0,0,1-1.91-.37,3.94,3.94,0,0,1-.82-.43,1.79,1.79,0,0,1-.52-.55,1.21,1.21,0,0,1-.12-.35.59.59,0,0,1,.06-.32,1.2,1.2,0,0,1,.23-.3.48.48,0,0,1,.38-.22.86.86,0,0,1,.47.26l.5.29a5.39,5.39,0,0,0,.59.29c.2.08.41.15.61.21a2.7,2.7,0,0,0,.62.08,2.68,2.68,0,0,0,1.41-.33,1,1,0,0,0,.53-.89,1.09,1.09,0,0,0-.13-.55,1.33,1.33,0,0,0-.36-.39,3.63,3.63,0,0,0-.52-.27,6.55,6.55,0,0,0-.63-.22l-.7-.2c-.34-.09-.67-.19-1-.3a4.21,4.21,0,0,1-.9-.45,2.15,2.15,0,0,1-.64-.7A2.12,2.12,0,0,1,117,7.15a2.27,2.27,0,0,1,.4-1.35,2.63,2.63,0,0,1,1.12-.89,4.21,4.21,0,0,1,1.69-.31,4.75,4.75,0,0,1,.78.06,2.7,2.7,0,0,1,.69.18,4.59,4.59,0,0,1,.64.28,4.29,4.29,0,0,1,.59.39.68.68,0,0,1,.36.49.84.84,0,0,1-.21.56.79.79,0,0,1-.38.31.43.43,0,0,1-.42-.11,4.21,4.21,0,0,0-.64-.39,4.81,4.81,0,0,0-.71-.29,2.29,2.29,0,0,0-.74-.11,2.21,2.21,0,0,0-.84.14,1.13,1.13,0,0,0-.57.42,1,1,0,0,0-.2.62.72.72,0,0,0,.16.49,1.37,1.37,0,0,0,.42.32,3.23,3.23,0,0,0,.61.24c.23.07.47.14.73.2s.74.19,1.13.31a4.31,4.31,0,0,1,1,.48,2.19,2.19,0,0,1,.76.78,2.4,2.4,0,0,1,.3,1.28,2.34,2.34,0,0,1-1,2A4.35,4.35,0,0,1,120.1,14Z"/><path class="cls-1" d="M131.9,13.87a1.15,1.15,0,0,1-.55-.1.46.46,0,0,1-.23-.31,1.51,1.51,0,0,1-.06-.44V1.29a1.58,1.58,0,0,1,.06-.47.46.46,0,0,1,.23-.3,1.15,1.15,0,0,1,.55-.1,1,1,0,0,1,.53.11.59.59,0,0,1,.23.31,1.93,1.93,0,0,1,.05.45v11.9a.76.76,0,0,1-.22.52A.87.87,0,0,1,131.9,13.87Zm3.95,0a4,4,0,0,1-1.69-.34,3.55,3.55,0,0,1-1.29-1,4.37,4.37,0,0,1-.83-1.46,5.19,5.19,0,0,1-.28-1.84,5.77,5.77,0,0,1,.29-1.84,4.26,4.26,0,0,1,.82-1.46,4.08,4.08,0,0,1,4.62-1,4.27,4.27,0,0,1,1.35,1,4.41,4.41,0,0,1,.91,1.45,5,5,0,0,1,.34,1.83,5.07,5.07,0,0,1-.34,1.85,4.61,4.61,0,0,1-.91,1.47,4.15,4.15,0,0,1-1.35,1A4,4,0,0,1,135.85,13.85Zm-.25-1.61a2.88,2.88,0,0,0,1.45-.38,2.78,2.78,0,0,0,1-1.06,3.12,3.12,0,0,0,.37-1.55,3.16,3.16,0,0,0-.37-1.56,2.71,2.71,0,0,0-2.46-1.44,2.75,2.75,0,0,0-1.43.38,2.78,2.78,0,0,0-1,1.06,3.16,3.16,0,0,0-.37,1.56,3.12,3.12,0,0,0,.37,1.55,2.78,2.78,0,0,0,1,1.06A2.75,2.75,0,0,0,135.6,12.24Z"/><path class="cls-1" d="M143.33,13.85a1.1,1.1,0,0,1-.54-.1.49.49,0,0,1-.23-.31,2.13,2.13,0,0,1,0-.46V5.49a2,2,0,0,1,0-.47.46.46,0,0,1,.23-.28,1.3,1.3,0,0,1,.55-.08,1.25,1.25,0,0,1,.53.08.45.45,0,0,1,.24.25.87.87,0,0,1,.07.37l-.08.57a3.74,3.74,0,0,1,.32-.49,1.92,1.92,0,0,1,.45-.45,2.46,2.46,0,0,1,.67-.33,3,3,0,0,1,1-.14,3.1,3.1,0,0,1,.54.05,2.75,2.75,0,0,1,.49.14,2.22,2.22,0,0,1,.41.22,1,1,0,0,1,.28.27.52.52,0,0,1,.1.33,1,1,0,0,1-.26.71.77.77,0,0,1-.56.3.7.7,0,0,1-.36-.07l-.22-.14a1,1,0,0,0-.29-.14,1.84,1.84,0,0,0-.61-.07,1.91,1.91,0,0,0-.6.11,2.2,2.2,0,0,0-.59.34,1.62,1.62,0,0,0-.47.56,1.65,1.65,0,0,0-.18.79V13a1.49,1.49,0,0,1-.06.45.49.49,0,0,1-.24.29A1.29,1.29,0,0,1,143.33,13.85Z"/><path class="cls-1" d="M158.32,13.83a.82.82,0,0,1-.59-.17.79.79,0,0,1-.22-.53l.07-1A3.9,3.9,0,0,1,156,13.56a3.91,3.91,0,0,1-1.58.29,4.05,4.05,0,0,1-1.7-.36,4.28,4.28,0,0,1-1.38-1,4.85,4.85,0,0,1-.94-1.48A4.77,4.77,0,0,1,150,9.22a4.71,4.71,0,0,1,.33-1.76,4.6,4.6,0,0,1,1-1.46,4.67,4.67,0,0,1,1.39-1,4,4,0,0,1,1.68-.36,4.27,4.27,0,0,1,1.43.21,3.64,3.64,0,0,1,1,.57,4.72,4.72,0,0,1,.76.79l0-.79a.68.68,0,0,1,.18-.6.91.91,0,0,1,.63-.18.93.93,0,0,1,.53.11.62.62,0,0,1,.22.32,2.47,2.47,0,0,1,0,.52v7.33a2.12,2.12,0,0,1,0,.47.55.55,0,0,1-.23.32A1.08,1.08,0,0,1,158.32,13.83Zm-3.66-1.57a2.61,2.61,0,0,0,1.39-.4,2.91,2.91,0,0,0,1-1.08,3.11,3.11,0,0,0,.37-1.54A3.07,3.07,0,0,0,157,7.67a3,3,0,0,0-1-1.07,2.64,2.64,0,0,0-1.4-.39,2.89,2.89,0,0,0-1.55.41,3,3,0,0,0-1,1.09,3.11,3.11,0,0,0-.38,1.56A3,3,0,0,0,152,10.8a2.77,2.77,0,0,0,1.05,1.07A3.07,3.07,0,0,0,154.66,12.26Z"/><path class="cls-1" d="M162,13.85a.86.86,0,0,1-.62-.21.82.82,0,0,1-.22-.61,1.11,1.11,0,0,1,.07-.37.83.83,0,0,1,.22-.29l5.58-6h-4.57a2,2,0,0,1-.46,0,.41.41,0,0,1-.29-.24,1.13,1.13,0,0,1-.11-.55,1.15,1.15,0,0,1,.11-.56A.45.45,0,0,1,162,4.7a2.07,2.07,0,0,1,.46,0h6.3a.9.9,0,0,1,.63.2.8.8,0,0,1,.21.59,1,1,0,0,1-.06.35.58.58,0,0,1-.15.24l-5.58,6.12H169a1.27,1.27,0,0,1,.46.07.47.47,0,0,1,.28.24,1.3,1.3,0,0,1,.1.56,1.11,1.11,0,0,1-.11.55.45.45,0,0,1-.29.22,1.58,1.58,0,0,1-.46,0Z"/><path class="cls-1" d="M176.22,14a4.45,4.45,0,0,1-1.77-.36,5.16,5.16,0,0,1-1.51-1,4.55,4.55,0,0,1-1.43-3.36,4.63,4.63,0,0,1,.36-1.83,4.73,4.73,0,0,1,1-1.49,4.94,4.94,0,0,1,1.49-1,4.74,4.74,0,0,1,4.18.25,4.65,4.65,0,0,1,2.31,4.08,4.71,4.71,0,0,1-.38,1.9,4.83,4.83,0,0,1-1,1.5,4.75,4.75,0,0,1-1.48,1A4.39,4.39,0,0,1,176.22,14Zm0-1.66a2.87,2.87,0,0,0,1.49-.4,3.07,3.07,0,0,0,1.52-2.69,3.11,3.11,0,0,0-.39-1.58,2.78,2.78,0,0,0-1.08-1.07,3.14,3.14,0,0,0-1.55-.37,3,3,0,0,0-1.52.39,3.13,3.13,0,0,0-1.08,1.09,3,3,0,0,0-.41,1.56,3,3,0,0,0,1.53,2.68A3,3,0,0,0,176.18,12.31Z"/><path class="cls-1" d="M186.05,14a5.2,5.2,0,0,1-1-.1,5.26,5.26,0,0,1-1-.27,3.94,3.94,0,0,1-.82-.43,1.67,1.67,0,0,1-.52-.55,1.21,1.21,0,0,1-.12-.35.59.59,0,0,1,.06-.32,1.2,1.2,0,0,1,.23-.3.47.47,0,0,1,.38-.22.89.89,0,0,1,.47.26l.5.29a5.39,5.39,0,0,0,.59.29,6.26,6.26,0,0,0,.61.21,2.7,2.7,0,0,0,.62.08,2.68,2.68,0,0,0,1.41-.33,1,1,0,0,0,.53-.89,1.21,1.21,0,0,0-.13-.55,1.24,1.24,0,0,0-.37-.39,3.05,3.05,0,0,0-.51-.27,6.55,6.55,0,0,0-.63-.22l-.7-.2c-.34-.09-.68-.19-1-.3a4.13,4.13,0,0,1-.89-.45,2.15,2.15,0,0,1-.64-.7A2.12,2.12,0,0,1,183,7.15a2.27,2.27,0,0,1,.4-1.35,2.57,2.57,0,0,1,1.12-.89,4.18,4.18,0,0,1,1.69-.31,4.75,4.75,0,0,1,.78.06,2.7,2.7,0,0,1,.69.18,4.59,4.59,0,0,1,.64.28,4.29,4.29,0,0,1,.59.39.68.68,0,0,1,.36.49.84.84,0,0,1-.21.56.79.79,0,0,1-.38.31.43.43,0,0,1-.42-.11,4.21,4.21,0,0,0-.64-.39,4.81,4.81,0,0,0-.71-.29,2.29,2.29,0,0,0-.74-.11,2.18,2.18,0,0,0-.84.14,1.13,1.13,0,0,0-.57.42,1,1,0,0,0-.2.62.72.72,0,0,0,.16.49,1.37,1.37,0,0,0,.42.32,3.4,3.4,0,0,0,.6.24c.24.07.48.14.74.2s.74.19,1.13.31a4.31,4.31,0,0,1,1,.48,2.27,2.27,0,0,1,.76.78,2.4,2.4,0,0,1,.3,1.28,2.34,2.34,0,0,1-1,2A4.37,4.37,0,0,1,186.05,14Z"/><path class="cls-1" d="M200.16,14a5.39,5.39,0,0,1-.95-.1,5.26,5.26,0,0,1-1-.27,3.86,3.86,0,0,1-.81-.43,1.83,1.83,0,0,1-.53-.55,1.16,1.16,0,0,1-.11-.35.59.59,0,0,1,.06-.32,1,1,0,0,1,.23-.3.47.47,0,0,1,.37-.22.88.88,0,0,1,.48.26l.49.29a6.45,6.45,0,0,0,.59.29,6.45,6.45,0,0,0,.62.21,2.89,2.89,0,0,0,2-.25,1,1,0,0,0,.54-.89,1.1,1.1,0,0,0-.14-.55,1.33,1.33,0,0,0-.36-.39,3.05,3.05,0,0,0-.51-.27,5.93,5.93,0,0,0-.64-.22l-.69-.2c-.34-.09-.68-.19-1-.3a3.91,3.91,0,0,1-.89-.45,2.18,2.18,0,0,1-.65-.7,2.23,2.23,0,0,1-.24-1.09,2.33,2.33,0,0,1,.39-1.35,2.6,2.6,0,0,1,1.13-.89,4.18,4.18,0,0,1,1.69-.31,4.93,4.93,0,0,1,.78.06,2.7,2.7,0,0,1,.69.18,5.17,5.17,0,0,1,.64.28,3.68,3.68,0,0,1,.58.39.72.72,0,0,1,.37.49.84.84,0,0,1-.21.56.83.83,0,0,1-.38.31.43.43,0,0,1-.42-.11,3.86,3.86,0,0,0-.65-.39,4.3,4.3,0,0,0-.7-.29,2.33,2.33,0,0,0-.74-.11,2.26,2.26,0,0,0-.85.14,1.22,1.22,0,0,0-.57.42,1,1,0,0,0-.2.62.73.73,0,0,0,.17.49,1.22,1.22,0,0,0,.41.32,3.53,3.53,0,0,0,.61.24l.73.2c.37.09.75.19,1.13.31a4.21,4.21,0,0,1,1.05.48,2.27,2.27,0,0,1,.76.78,2.5,2.5,0,0,1,.29,1.28,2.36,2.36,0,0,1-1,2A4.38,4.38,0,0,1,200.16,14Z"/><path class="cls-1" d="M210.27,14a4.53,4.53,0,0,1-1.78-.36,5.44,5.44,0,0,1-1.51-1,4.71,4.71,0,0,1-1-1.49,4.81,4.81,0,0,1,0-3.7,4.73,4.73,0,0,1,1-1.49,4.94,4.94,0,0,1,1.49-1,4.74,4.74,0,0,1,4.18.25,4.65,4.65,0,0,1,2.31,4.08,4.71,4.71,0,0,1-.38,1.9,4.83,4.83,0,0,1-1,1.5,4.75,4.75,0,0,1-1.48,1A4.39,4.39,0,0,1,210.27,14Zm0-1.66a2.81,2.81,0,0,0,1.48-.4,3,3,0,0,0,1.11-1.1,3,3,0,0,0,.41-1.59,3.11,3.11,0,0,0-.38-1.58,2.78,2.78,0,0,0-1.08-1.07,3.16,3.16,0,0,0-1.56-.37,3,3,0,0,0-1.51.39,3,3,0,0,0-1.08,1.09,3,3,0,0,0-.41,1.56,3,3,0,0,0,1.53,2.68A3,3,0,0,0,210.23,12.31Z"/><path class="cls-1" d="M217.78,13.87a1.17,1.17,0,0,1-.55-.1.49.49,0,0,1-.23-.31,1.51,1.51,0,0,1-.06-.44V1.29A1.58,1.58,0,0,1,217,.82a.5.5,0,0,1,.23-.3,1.17,1.17,0,0,1,.55-.1,1,1,0,0,1,.53.11.59.59,0,0,1,.23.31,1.93,1.93,0,0,1,.05.45v11.9a.76.76,0,0,1-.21.52A.92.92,0,0,1,217.78,13.87Zm3.95,0a4,4,0,0,1-1.69-.34,3.55,3.55,0,0,1-1.29-1,4.55,4.55,0,0,1-.83-1.46,5.19,5.19,0,0,1-.28-1.84,5.77,5.77,0,0,1,.29-1.84,4.12,4.12,0,0,1,.83-1.46,3.82,3.82,0,0,1,1.29-1,4.22,4.22,0,0,1,3.32,0,4.27,4.27,0,0,1,1.35,1,4.41,4.41,0,0,1,.91,1.45A5,5,0,0,1,226,9.22a5.07,5.07,0,0,1-.33,1.85,4.61,4.61,0,0,1-.91,1.47,4.15,4.15,0,0,1-1.35,1A4,4,0,0,1,221.73,13.85Zm-.25-1.61a2.88,2.88,0,0,0,1.45-.38,2.71,2.71,0,0,0,1-1.06,3.12,3.12,0,0,0,.37-1.55,3.16,3.16,0,0,0-.37-1.56,2.76,2.76,0,0,0-1-1.06,2.84,2.84,0,0,0-1.46-.38,2.75,2.75,0,0,0-1.43.38,2.78,2.78,0,0,0-1,1.06,3.16,3.16,0,0,0-.37,1.56A3.12,3.12,0,0,0,219,10.8a2.78,2.78,0,0,0,1,1.06A2.75,2.75,0,0,0,221.48,12.24Z"/><path class="cls-1" d="M229.21,13.85a1.1,1.1,0,0,1-.54-.1.49.49,0,0,1-.23-.31,2.13,2.13,0,0,1,0-.46V5.49a2,2,0,0,1,0-.47.46.46,0,0,1,.23-.28,1.3,1.3,0,0,1,.55-.08,1.28,1.28,0,0,1,.53.08A.45.45,0,0,1,230,5a.87.87,0,0,1,.07.37l-.08.57a3.74,3.74,0,0,1,.32-.49,1.92,1.92,0,0,1,.45-.45,2.46,2.46,0,0,1,.67-.33,3,3,0,0,1,1-.14,3.1,3.1,0,0,1,.54.05,2.75,2.75,0,0,1,.49.14,2.22,2.22,0,0,1,.41.22,1,1,0,0,1,.28.27.52.52,0,0,1,.1.33,1,1,0,0,1-.26.71.77.77,0,0,1-.56.3.7.7,0,0,1-.36-.07l-.22-.14a1,1,0,0,0-.29-.14,1.84,1.84,0,0,0-.61-.07,1.91,1.91,0,0,0-.6.11,2.25,2.25,0,0,0-.6.34,1.71,1.71,0,0,0-.46.56,1.65,1.65,0,0,0-.18.79V13a1.49,1.49,0,0,1-.06.45.49.49,0,0,1-.24.29A1.29,1.29,0,0,1,229.21,13.85Z"/><path class="cls-1" d="M240.71,14a5.17,5.17,0,0,1-2-.38,4.42,4.42,0,0,1-1.51-1,4.49,4.49,0,0,1-.95-1.51,5.27,5.27,0,0,1-.32-1.84,4.39,4.39,0,0,1,2.29-4,5,5,0,0,1,2.46-.6,4.73,4.73,0,0,1,1.7.29,4,4,0,0,1,1.28.79,3.55,3.55,0,0,1,.82,1.1A2.87,2.87,0,0,1,244.74,8a1.74,1.74,0,0,1-.46,1.36,1.66,1.66,0,0,1-1.12.39h-5.49a2.15,2.15,0,0,0,.45,1.43,3,3,0,0,0,1.17.92,3.43,3.43,0,0,0,1.44.33,5.93,5.93,0,0,0,.91-.06,4.35,4.35,0,0,0,.66-.15l.5-.19.37-.19a1.19,1.19,0,0,1,.31-.14.65.65,0,0,1,.34,0,.53.53,0,0,1,.25.26.77.77,0,0,1,.15.28.92.92,0,0,1,0,.29c0,.18-.15.37-.45.59a4.34,4.34,0,0,1-1.27.55A6.83,6.83,0,0,1,240.71,14Zm-3-5.3h4.77a1.23,1.23,0,0,0,.54-.1q.18-.09.18-.51a1.56,1.56,0,0,0-.32-1,2.34,2.34,0,0,0-.89-.7,3,3,0,0,0-1.28-.26,3.5,3.5,0,0,0-1.53.33,2.7,2.7,0,0,0-1.09.9A2.1,2.1,0,0,0,237.67,8.65Z"/><path class="cls-1" d="M254.92,13.85a5.19,5.19,0,0,1-1.09-.1,2.48,2.48,0,0,1-.85-.34,2,2,0,0,1-.6-.58A2.69,2.69,0,0,1,252,12a6,6,0,0,1-.1-1.2V1.25a2.17,2.17,0,0,1,0-.47.49.49,0,0,1,.24-.29,1.46,1.46,0,0,1,1.09,0,.42.42,0,0,1,.24.28,1.56,1.56,0,0,1,.06.46v9.52a2.1,2.1,0,0,0,.08.65,1.22,1.22,0,0,0,.23.47.93.93,0,0,0,.41.26,2.05,2.05,0,0,0,.59.08,1.14,1.14,0,0,1,.39.06.46.46,0,0,1,.26.22,1.25,1.25,0,0,1,.09.54,1.33,1.33,0,0,1-.09.56.43.43,0,0,1-.26.22A1.15,1.15,0,0,1,254.92,13.85Z"/><path class="cls-1" d="M265.48,13.83a.82.82,0,0,1-.59-.17.79.79,0,0,1-.22-.53l.07-1a3.9,3.9,0,0,1-1.63,1.38,3.91,3.91,0,0,1-1.58.29,4.05,4.05,0,0,1-1.7-.36,4.28,4.28,0,0,1-1.38-1,4.85,4.85,0,0,1-.94-1.48,4.77,4.77,0,0,1-.33-1.78,4.71,4.71,0,0,1,.33-1.76A4.6,4.6,0,0,1,258.46,6a4.67,4.67,0,0,1,1.39-1,4,4,0,0,1,1.68-.36,4.31,4.31,0,0,1,1.43.21,3.64,3.64,0,0,1,1,.57,4.3,4.3,0,0,1,.75.79l0-.79a.68.68,0,0,1,.18-.6.91.91,0,0,1,.63-.18.93.93,0,0,1,.53.11.55.55,0,0,1,.21.32,1.9,1.9,0,0,1,.06.52v7.33a1.63,1.63,0,0,1-.06.47.5.5,0,0,1-.22.32A1.1,1.1,0,0,1,265.48,13.83Zm-3.66-1.57a2.61,2.61,0,0,0,1.39-.4,2.91,2.91,0,0,0,1-1.08,3.11,3.11,0,0,0,.37-1.54,3.07,3.07,0,0,0-.39-1.57,3,3,0,0,0-1-1.07,2.64,2.64,0,0,0-1.4-.39,2.89,2.89,0,0,0-1.55.41,3,3,0,0,0-1,1.09,3.11,3.11,0,0,0-.38,1.56,3,3,0,0,0,.38,1.53,2.77,2.77,0,0,0,1.05,1.07A3.07,3.07,0,0,0,261.82,12.26Z"/><path class="cls-1" d="M274.78,13.85a1.09,1.09,0,0,1-.54-.11.53.53,0,0,1-.22-.31A1.49,1.49,0,0,1,274,13V5.45A1.31,1.31,0,0,1,274,5a.41.41,0,0,1,.23-.27,1.27,1.27,0,0,1,.55-.09.87.87,0,0,1,.59.16.72.72,0,0,1,.18.56l-.07.82a2.24,2.24,0,0,1,.4-.58,3.26,3.26,0,0,1,.63-.51,3.76,3.76,0,0,1,.79-.36,3,3,0,0,1,2,.11,2.8,2.8,0,0,1,.94.67A3.68,3.68,0,0,1,281,6.61a6.63,6.63,0,0,1,.8-1.07,2.94,2.94,0,0,1,1-.68A3.08,3.08,0,0,1,284,4.62a3,3,0,0,1,1.81.54A3.3,3.3,0,0,1,287,6.68,6.78,6.78,0,0,1,287.32,9v4a1.93,1.93,0,0,1-.05.45.46.46,0,0,1-.23.3,1.17,1.17,0,0,1-.56.1,1.09,1.09,0,0,1-.54-.11.56.56,0,0,1-.24-.31,1.49,1.49,0,0,1-.06-.45V9a4.69,4.69,0,0,0-.2-1.48,2,2,0,0,0-.6-1,1.66,1.66,0,0,0-1.06-.34,2.11,2.11,0,0,0-2,1.3A3.52,3.52,0,0,0,281.48,9v4a1.07,1.07,0,0,1-.11.49.61.61,0,0,1-.34.29,1,1,0,0,1-.56,0,.85.85,0,0,1-.45-.15.44.44,0,0,1-.19-.29,1.73,1.73,0,0,1,0-.41V9a5,5,0,0,0-.2-1.48,2,2,0,0,0-.61-1,1.61,1.61,0,0,0-1.05-.34,2.15,2.15,0,0,0-1.21.35,2.35,2.35,0,0,0-.8,1A3.32,3.32,0,0,0,275.63,9v4a1.49,1.49,0,0,1-.06.45.46.46,0,0,1-.23.3A1.19,1.19,0,0,1,274.78,13.85Z"/><path class="cls-1" d="M294.27,14a5.17,5.17,0,0,1-2-.38,4.42,4.42,0,0,1-1.51-1,4.32,4.32,0,0,1-.94-1.51,5.05,5.05,0,0,1-.33-1.84,4.39,4.39,0,0,1,2.29-4,5,5,0,0,1,2.46-.6,4.73,4.73,0,0,1,1.7.29,4.18,4.18,0,0,1,1.29.79A3.68,3.68,0,0,1,298,6.8,2.87,2.87,0,0,1,298.3,8a1.74,1.74,0,0,1-.46,1.36,1.66,1.66,0,0,1-1.12.39h-5.49a2.2,2.2,0,0,0,.45,1.43,3,3,0,0,0,1.17.92,3.43,3.43,0,0,0,1.44.33,5.93,5.93,0,0,0,.91-.06,4.81,4.81,0,0,0,.67-.15l.49-.19.37-.19a1.19,1.19,0,0,1,.31-.14.65.65,0,0,1,.34,0,.53.53,0,0,1,.25.26.77.77,0,0,1,.15.28.92.92,0,0,1,0,.29c0,.18-.15.37-.45.59a4.34,4.34,0,0,1-1.27.55A6.83,6.83,0,0,1,294.27,14Zm-3-5.3H296a1.23,1.23,0,0,0,.54-.1q.18-.09.18-.51a1.56,1.56,0,0,0-.32-1,2.34,2.34,0,0,0-.89-.7,3,3,0,0,0-1.28-.26,3.5,3.5,0,0,0-1.53.33,2.77,2.77,0,0,0-1.09.9A2.1,2.1,0,0,0,291.23,8.65Z"/><path class="cls-1" d="M303.54,14a5.39,5.39,0,0,1-1-.1,5.26,5.26,0,0,1-1-.27,4.21,4.21,0,0,1-.82-.43,1.91,1.91,0,0,1-.52-.55,1.16,1.16,0,0,1-.11-.35.51.51,0,0,1,.06-.32,1.15,1.15,0,0,1,.22-.3.5.5,0,0,1,.38-.22.88.88,0,0,1,.48.26l.49.29a6.45,6.45,0,0,0,.59.29,6.45,6.45,0,0,0,.62.21,2.89,2.89,0,0,0,2-.25,1,1,0,0,0,.53-.89,1.09,1.09,0,0,0-.13-.55,1.33,1.33,0,0,0-.36-.39,3.05,3.05,0,0,0-.51-.27,5.93,5.93,0,0,0-.64-.22l-.69-.2c-.35-.09-.68-.19-1-.3a3.91,3.91,0,0,1-.89-.45,2.18,2.18,0,0,1-.65-.7,2.22,2.22,0,0,1-.25-1.09,2.34,2.34,0,0,1,.4-1.35A2.63,2.63,0,0,1,302,4.91a4.26,4.26,0,0,1,1.7-.31,4.72,4.72,0,0,1,.77.06,2.77,2.77,0,0,1,.7.18,4.46,4.46,0,0,1,.63.28,3.76,3.76,0,0,1,.59.39.68.68,0,0,1,.36.49.78.78,0,0,1-.2.56.89.89,0,0,1-.38.31.43.43,0,0,1-.42-.11,4.3,4.3,0,0,0-.65-.39,4.7,4.7,0,0,0-.7-.29,2.33,2.33,0,0,0-.74-.11,2.26,2.26,0,0,0-.85.14,1.13,1.13,0,0,0-.57.42,1,1,0,0,0-.2.62.78.78,0,0,0,.16.49,1.37,1.37,0,0,0,.42.32,3.53,3.53,0,0,0,.61.24l.73.2c.37.09.75.19,1.13.31a4.21,4.21,0,0,1,1.05.48,2.27,2.27,0,0,1,.76.78,2.5,2.5,0,0,1,.29,1.28,2.34,2.34,0,0,1-1,2A4.35,4.35,0,0,1,303.54,14Z"/><path class="cls-1" d="M317.32,13.83a.83.83,0,0,1-.6-.17.79.79,0,0,1-.22-.53l.08-1a4.55,4.55,0,0,1-.59.69,3.83,3.83,0,0,1-1.05.69,3.91,3.91,0,0,1-1.58.29,4.08,4.08,0,0,1-1.7-.36,4.39,4.39,0,0,1-1.38-1,4.64,4.64,0,0,1-.93-1.48A4.59,4.59,0,0,1,309,9.22a4.52,4.52,0,0,1,.34-1.76A4.41,4.41,0,0,1,310.29,6a4.67,4.67,0,0,1,1.39-1,4,4,0,0,1,1.68-.36,4.27,4.27,0,0,1,1.43.21,3.86,3.86,0,0,1,1,.57,5.09,5.09,0,0,1,.75.79l0-.79a.75.75,0,0,1,.18-.6.92.92,0,0,1,.64-.18.89.89,0,0,1,.52.11.62.62,0,0,1,.22.32,2.47,2.47,0,0,1,.05.52v7.33a2.12,2.12,0,0,1-.05.47.55.55,0,0,1-.23.32A1.06,1.06,0,0,1,317.32,13.83Zm-3.67-1.57a2.65,2.65,0,0,0,1.4-.4,2.89,2.89,0,0,0,1-1.08,3.11,3.11,0,0,0,.37-1.54A3.07,3.07,0,0,0,316,7.67a3,3,0,0,0-1-1.07,2.64,2.64,0,0,0-1.4-.39,2.91,2.91,0,0,0-1.55.41,3.07,3.07,0,0,0-1,1.09,3.11,3.11,0,0,0-.38,1.56A3,3,0,0,0,311,10.8a2.77,2.77,0,0,0,1.05,1.07A3.07,3.07,0,0,0,313.65,12.26Z"/><path class="cls-1" d="M320.83,15.37a.3.3,0,0,1-.17-.12.56.56,0,0,1-.06-.3c0-.2,0-.33.09-.38a.26.26,0,0,1,.12-.07.9.9,0,0,1,.21-.18.81.81,0,0,0,.25-.58.77.77,0,0,1-.27-.08l-.21-.15a.51.51,0,0,1-.17-.35c0-.15,0-.28,0-.41a3.57,3.57,0,0,1,0-.47.58.58,0,0,1,.25-.38,1.4,1.4,0,0,1,.72-.14,1.12,1.12,0,0,1,.8.23.57.57,0,0,1,.16.34,3.15,3.15,0,0,1,0,.44V13a.59.59,0,0,1,0,.21,3,3,0,0,1-.28,1.07,2.48,2.48,0,0,1-.63.81A1.32,1.32,0,0,1,320.83,15.37Z"/><path class="cls-1" d="M331.17,13.85a1.09,1.09,0,0,1-.54-.11.58.58,0,0,1-.22-.31,1.49,1.49,0,0,1-.06-.45V5.45a1.31,1.31,0,0,1,.06-.43.44.44,0,0,1,.23-.27,1.3,1.3,0,0,1,.55-.09.87.87,0,0,1,.59.16.72.72,0,0,1,.18.56l-.07.82a2.24,2.24,0,0,1,.4-.58,3.26,3.26,0,0,1,.63-.51,3.76,3.76,0,0,1,.79-.36,2.8,2.8,0,0,1,.86-.13,2.84,2.84,0,0,1,1.19.24,3,3,0,0,1,.94.67,3.87,3.87,0,0,1,.7,1.08,6.12,6.12,0,0,1,.81-1.07,2.75,2.75,0,0,1,1-.68,3,3,0,0,1,1.23-.24,3,3,0,0,1,1.81.54,3.3,3.3,0,0,1,1.11,1.52A6.78,6.78,0,0,1,343.71,9v4a1.93,1.93,0,0,1,0,.45.46.46,0,0,1-.23.3,1.17,1.17,0,0,1-.56.1,1.09,1.09,0,0,1-.54-.11.56.56,0,0,1-.24-.31,1.51,1.51,0,0,1,0-.45V9a5,5,0,0,0-.2-1.48,2.12,2.12,0,0,0-.61-1,1.64,1.64,0,0,0-1.06-.34,2.11,2.11,0,0,0-1.2.34,2.14,2.14,0,0,0-.81,1A3.52,3.52,0,0,0,337.87,9v4a1,1,0,0,1-.11.49.61.61,0,0,1-.34.29,1,1,0,0,1-.55,0,.86.86,0,0,1-.46-.15.48.48,0,0,1-.19-.29,2.48,2.48,0,0,1,0-.41V9a4.69,4.69,0,0,0-.2-1.48,2,2,0,0,0-.6-1,1.66,1.66,0,0,0-1.06-.34,2.17,2.17,0,0,0-1.21.35,2.43,2.43,0,0,0-.8,1A3.47,3.47,0,0,0,332,9v4a1.49,1.49,0,0,1-.06.45.46.46,0,0,1-.23.3A1.17,1.17,0,0,1,331.17,13.85Z"/><path class="cls-1" d="M354.16,13.83a.83.83,0,0,1-.6-.17.84.84,0,0,1-.22-.53l.08-1a4.55,4.55,0,0,1-.59.69,3.6,3.6,0,0,1-2.62,1,4.1,4.1,0,0,1-1.71-.36,4.39,4.39,0,0,1-1.38-1,4.64,4.64,0,0,1-.93-1.48,4.59,4.59,0,0,1-.34-1.78,4.52,4.52,0,0,1,.34-1.76A4.41,4.41,0,0,1,347.13,6a4.67,4.67,0,0,1,1.39-1,4,4,0,0,1,1.69-.36,4.25,4.25,0,0,1,1.42.21,3.86,3.86,0,0,1,1,.57,5.09,5.09,0,0,1,.75.79l0-.79a.75.75,0,0,1,.18-.6.92.92,0,0,1,.64-.18.89.89,0,0,1,.52.11.57.57,0,0,1,.22.32,2,2,0,0,1,.05.52v7.33a1.65,1.65,0,0,1-.05.47.55.55,0,0,1-.23.32A1.06,1.06,0,0,1,354.16,13.83Zm-3.67-1.57a2.65,2.65,0,0,0,1.4-.4,2.89,2.89,0,0,0,1-1.08,3.11,3.11,0,0,0,.37-1.54,3.17,3.17,0,0,0-.38-1.57,3,3,0,0,0-1-1.07,2.64,2.64,0,0,0-1.4-.39,2.91,2.91,0,0,0-1.55.41,3.07,3.07,0,0,0-1,1.09,3.11,3.11,0,0,0-.38,1.56,3,3,0,0,0,.38,1.53,2.77,2.77,0,0,0,1.05,1.07A3.07,3.07,0,0,0,350.49,12.26Z"/><path class="cls-1" d="M358.36,13.83a1.15,1.15,0,0,1-.55-.1.45.45,0,0,1-.22-.3,1.51,1.51,0,0,1,0-.45V5.44A1.25,1.25,0,0,1,357.6,5a.41.41,0,0,1,.23-.27,1.27,1.27,0,0,1,.55-.09,1.33,1.33,0,0,1,.44.06.49.49,0,0,1,.23.18.73.73,0,0,1,.08.25,1.1,1.1,0,0,1,0,.25l0,.87a3.27,3.27,0,0,1,.47-.62,3.64,3.64,0,0,1,.67-.53,3.38,3.38,0,0,1,.82-.37,3.32,3.32,0,0,1,1-.13,4.06,4.06,0,0,1,1.54.29,3.35,3.35,0,0,1,1.21.86,4.11,4.11,0,0,1,.78,1.34,5.37,5.37,0,0,1,.27,1.76V13a2,2,0,0,1,0,.45.48.48,0,0,1-.23.29,1.25,1.25,0,0,1-.54.09,1.19,1.19,0,0,1-.57-.1.46.46,0,0,1-.23-.3,1.49,1.49,0,0,1-.06-.45V8.86a3.28,3.28,0,0,0-.27-1.39,2,2,0,0,0-.79-.92,2.46,2.46,0,0,0-1.35-.34,2.62,2.62,0,0,0-1.36.34,2.14,2.14,0,0,0-.89.92,2.88,2.88,0,0,0-.32,1.39V13a1.49,1.49,0,0,1-.06.45.44.44,0,0,1-.23.29A1.25,1.25,0,0,1,358.36,13.83Z"/><path class="cls-1" d="M368.46,4.86l1.83,0,2.64,0a1.92,1.92,0,0,1,.45,0,.5.5,0,0,1,.3.23,1.1,1.1,0,0,1,.1.54,1.25,1.25,0,0,1-.09.54.46.46,0,0,1-.29.24,1.44,1.44,0,0,1-.45.06l-2.61,0-1.91,0a.65.65,0,0,1-.55-.19,1.13,1.13,0,0,1-.14-.63.93.93,0,0,1,.17-.61A.75.75,0,0,1,368.46,4.86Zm4.26,9a5.87,5.87,0,0,1-1.51-.17,2.48,2.48,0,0,1-1-.53,2.13,2.13,0,0,1-.57-.94,5.36,5.36,0,0,1-.17-1.44V2.38a1.56,1.56,0,0,1,.06-.46.48.48,0,0,1,.23-.29,1,1,0,0,1,.53-.11,1.16,1.16,0,0,1,.55.11.49.49,0,0,1,.25.28,1.87,1.87,0,0,1,.05.45v8.41a2.76,2.76,0,0,0,.09.79.9.9,0,0,0,.26.45,1,1,0,0,0,.49.19,7.32,7.32,0,0,0,.74,0,2.11,2.11,0,0,1,.49,0,.48.48,0,0,1,.29.23,1.16,1.16,0,0,1,.09.51,1.12,1.12,0,0,1-.1.55.45.45,0,0,1-.3.22A1.64,1.64,0,0,1,372.72,13.85Z"/><path class="cls-1" d="M380.15,14a5.17,5.17,0,0,1-2-.38,4.42,4.42,0,0,1-1.51-1,4.49,4.49,0,0,1-.95-1.51,5.27,5.27,0,0,1-.32-1.84,4.39,4.39,0,0,1,2.29-4,5,5,0,0,1,2.46-.6,4.77,4.77,0,0,1,1.7.29,4,4,0,0,1,1.28.79,3.55,3.55,0,0,1,.82,1.1A2.87,2.87,0,0,1,384.18,8a1.74,1.74,0,0,1-.46,1.36,1.66,1.66,0,0,1-1.12.39h-5.49a2.2,2.2,0,0,0,.44,1.43,3.13,3.13,0,0,0,1.18.92,3.43,3.43,0,0,0,1.44.33,5.93,5.93,0,0,0,.91-.06,4.64,4.64,0,0,0,.66-.15l.5-.19.37-.19a1.19,1.19,0,0,1,.31-.14.65.65,0,0,1,.34,0,.53.53,0,0,1,.25.26.77.77,0,0,1,.15.28.92.92,0,0,1,0,.29c0,.18-.15.37-.45.59a4.34,4.34,0,0,1-1.27.55A6.83,6.83,0,0,1,380.15,14Zm-3-5.3h4.77a1.23,1.23,0,0,0,.54-.1q.18-.09.18-.51a1.56,1.56,0,0,0-.32-1,2.34,2.34,0,0,0-.89-.7,3,3,0,0,0-1.28-.26,3.5,3.5,0,0,0-1.53.33,2.7,2.7,0,0,0-1.09.9A2.1,2.1,0,0,0,377.11,8.65Z"/><path class="cls-1" d="M387.2,13.83a1.1,1.1,0,0,1-.54-.1.46.46,0,0,1-.23-.3,1.93,1.93,0,0,1-.05-.45V5.44a1.25,1.25,0,0,1,.06-.42.43.43,0,0,1,.24-.27,1.25,1.25,0,0,1,.54-.09,1.29,1.29,0,0,1,.44.06.49.49,0,0,1,.23.18.75.75,0,0,1,.09.25,2.29,2.29,0,0,1,0,.25l0,.87a3.27,3.27,0,0,1,.47-.62,3.64,3.64,0,0,1,.67-.53,3.38,3.38,0,0,1,.82-.37,3.32,3.32,0,0,1,1-.13,4.06,4.06,0,0,1,1.54.29,3.35,3.35,0,0,1,1.21.86,4.11,4.11,0,0,1,.78,1.34,5.37,5.37,0,0,1,.27,1.76V13a2,2,0,0,1,0,.45.48.48,0,0,1-.23.29,1.25,1.25,0,0,1-.54.09,1.14,1.14,0,0,1-.56-.1.51.51,0,0,1-.24-.3A1.49,1.49,0,0,1,393,13V8.86a3.45,3.45,0,0,0-.26-1.39,2.06,2.06,0,0,0-.8-.92,2.46,2.46,0,0,0-1.35-.34,2.62,2.62,0,0,0-1.36.34,2.19,2.19,0,0,0-.89.92A2.88,2.88,0,0,0,388,8.86V13a1.93,1.93,0,0,1,0,.45.49.49,0,0,1-.24.29A1.25,1.25,0,0,1,387.2,13.83Z"/><path class="cls-1" d="M398.16,2.38a1.29,1.29,0,0,1-.63-.13.56.56,0,0,1-.27-.35,1.7,1.7,0,0,1-.07-.53,1.58,1.58,0,0,1,.08-.52.54.54,0,0,1,.28-.33,1.47,1.47,0,0,1,.63-.1,1.38,1.38,0,0,1,.61.11.54.54,0,0,1,.27.34,1.77,1.77,0,0,1,.07.54,1.64,1.64,0,0,1-.07.52.52.52,0,0,1-.27.33A1.3,1.3,0,0,1,398.16,2.38Zm0,11.47a1.1,1.1,0,0,1-.54-.1.51.51,0,0,1-.24-.3,1.49,1.49,0,0,1-.06-.45V5.49a1.44,1.44,0,0,1,.06-.45.46.46,0,0,1,.24-.29,1.33,1.33,0,0,1,.56-.09,1,1,0,0,1,.53.1.5.5,0,0,1,.23.29,1.65,1.65,0,0,1,.06.48V13a1.49,1.49,0,0,1-.06.45.49.49,0,0,1-.24.29A1.25,1.25,0,0,1,398.16,13.85Z"/><path class="cls-1" d="M406.1,14a5.17,5.17,0,0,1-2-.38A4.43,4.43,0,0,1,401.62,11a5,5,0,0,1-.32-1.84,4.55,4.55,0,0,1,.6-2.34,4.39,4.39,0,0,1,1.69-1.62,4.93,4.93,0,0,1,2.46-.6,4.77,4.77,0,0,1,1.7.29A4.13,4.13,0,0,1,409,5.7a3.72,3.72,0,0,1,.82,1.1A2.85,2.85,0,0,1,410.13,8a1.7,1.7,0,0,1-.46,1.36,1.64,1.64,0,0,1-1.12.39h-5.49a2.2,2.2,0,0,0,.45,1.43,3,3,0,0,0,1.18.92,3.35,3.35,0,0,0,1.43.33,5.84,5.84,0,0,0,.91-.06,4.5,4.5,0,0,0,.67-.15l.49-.19.37-.19a1.25,1.25,0,0,1,.32-.14.62.62,0,0,1,.33,0,.49.49,0,0,1,.25.26,1,1,0,0,1,.16.28,1.35,1.35,0,0,1,0,.29c0,.18-.16.37-.46.59a4.39,4.39,0,0,1-1.26.55A6.86,6.86,0,0,1,406.1,14Zm-3-5.3h4.77a1.23,1.23,0,0,0,.54-.1q.18-.09.18-.51a1.5,1.5,0,0,0-.32-1,2.38,2.38,0,0,0-.88-.7,3.09,3.09,0,0,0-1.29-.26,3.49,3.49,0,0,0-1.52.33,2.73,2.73,0,0,0-1.1.9A2.16,2.16,0,0,0,403.06,8.65Z"/><path class="cls-1" d="M413.15,13.83a1.1,1.1,0,0,1-.54-.1.46.46,0,0,1-.23-.3,1.93,1.93,0,0,1-.05-.45V5.44a1.25,1.25,0,0,1,.06-.42.46.46,0,0,1,.24-.27,1.25,1.25,0,0,1,.54-.09,1.36,1.36,0,0,1,.45.06.51.51,0,0,1,.22.18.58.58,0,0,1,.09.25,2.29,2.29,0,0,1,0,.25l0,.87a3.83,3.83,0,0,1,.48-.62,3.93,3.93,0,0,1,.66-.53,3.28,3.28,0,0,1,.83-.37,3.32,3.32,0,0,1,1-.13,4.1,4.1,0,0,1,1.54.29,3.31,3.31,0,0,1,1.2.86,3.79,3.79,0,0,1,.78,1.34,5.12,5.12,0,0,1,.28,1.76V13a1.93,1.93,0,0,1-.05.45.44.44,0,0,1-.23.29,1.25,1.25,0,0,1-.54.09,1.17,1.17,0,0,1-.56-.1.51.51,0,0,1-.24-.3A1.49,1.49,0,0,1,419,13V8.86a3.29,3.29,0,0,0-.26-1.39,2,2,0,0,0-.8-.92,2.41,2.41,0,0,0-1.35-.34,2.62,2.62,0,0,0-1.36.34,2.25,2.25,0,0,0-.89.92A2.88,2.88,0,0,0,414,8.86V13a1.49,1.49,0,0,1-.06.45.49.49,0,0,1-.24.29A1.25,1.25,0,0,1,413.15,13.83Z"/><path class="cls-1" d="M427.15,13.85a4,4,0,0,1-1.63-.34,4.08,4.08,0,0,1-1.36-1,4.79,4.79,0,0,1-.91-1.47,5.07,5.07,0,0,1-.33-1.85,5,5,0,0,1,.33-1.83,4.58,4.58,0,0,1,.91-1.45,4.2,4.2,0,0,1,1.36-1,4.22,4.22,0,0,1,3.32,0,3.82,3.82,0,0,1,1.29,1A4.26,4.26,0,0,1,431,7.4a5.77,5.77,0,0,1,.29,1.84,5.19,5.19,0,0,1-.28,1.84,4.53,4.53,0,0,1-.82,1.46,3.69,3.69,0,0,1-1.28,1A4.08,4.08,0,0,1,427.15,13.85Zm.25-1.61a2.82,2.82,0,0,0,1.44-.38,2.76,2.76,0,0,0,1-1.06,3.12,3.12,0,0,0,.37-1.55,3.16,3.16,0,0,0-.37-1.56,2.76,2.76,0,0,0-1-1.06,2.8,2.8,0,0,0-3.9,1.06,3.16,3.16,0,0,0-.37,1.56,3.12,3.12,0,0,0,.37,1.55,2.76,2.76,0,0,0,1,1.06A2.81,2.81,0,0,0,427.4,12.24Zm3.73,1.61a1,1,0,0,1-.61-.15.68.68,0,0,1-.23-.51V1.29a1.61,1.61,0,0,1,0-.47.45.45,0,0,1,.22-.3,1.17,1.17,0,0,1,.55-.1,1.1,1.1,0,0,1,.54.1.46.46,0,0,1,.23.3,1.53,1.53,0,0,1,.06.45V13a1.6,1.6,0,0,1-.06.46.48.48,0,0,1-.22.31A1.06,1.06,0,0,1,431.13,13.85Z"/><path class="cls-1" d="M438.76,14a4.45,4.45,0,0,1-1.77-.36,5.16,5.16,0,0,1-1.51-1,4.55,4.55,0,0,1-1.43-3.36,4.63,4.63,0,0,1,.36-1.83,4.73,4.73,0,0,1,1-1.49,4.94,4.94,0,0,1,1.49-1,4.74,4.74,0,0,1,4.18.25,4.65,4.65,0,0,1,2.31,4.08,4.66,4.66,0,0,1-2.89,4.37A4.39,4.39,0,0,1,438.76,14Zm0-1.66a2.87,2.87,0,0,0,1.49-.4,3.07,3.07,0,0,0,1.52-2.69,3.11,3.11,0,0,0-.39-1.58,2.78,2.78,0,0,0-1.08-1.07,3.14,3.14,0,0,0-1.55-.37,2.93,2.93,0,0,0-1.51.39,3.08,3.08,0,0,0-1.09,1.09,3,3,0,0,0-.41,1.56,3,3,0,0,0,3,3.07Z"/><path class="cls-1" d="M33,38.85a5.19,5.19,0,0,1-1.09-.1,2.48,2.48,0,0,1-.85-.34,2,2,0,0,1-.6-.58,2.69,2.69,0,0,1-.34-.88,6,6,0,0,1-.1-1.2v-9.5a1.65,1.65,0,0,1,.05-.47.44.44,0,0,1,.23-.29,1.13,1.13,0,0,1,.53-.11,1.21,1.21,0,0,1,.57.1.43.43,0,0,1,.23.28,1.56,1.56,0,0,1,.06.46v9.52a2.1,2.1,0,0,0,.08.65,1.38,1.38,0,0,0,.23.47.93.93,0,0,0,.41.26,2.05,2.05,0,0,0,.59.08,1.14,1.14,0,0,1,.39.06.46.46,0,0,1,.26.22,1.25,1.25,0,0,1,.09.54,1.33,1.33,0,0,1-.09.56.43.43,0,0,1-.26.22A1.15,1.15,0,0,1,33,38.85Z"/><path class="cls-1" d="M39.92,39a4.49,4.49,0,0,1-1.78-.36,5.3,5.3,0,0,1-1.51-1,4.71,4.71,0,0,1-1-1.49,4.44,4.44,0,0,1-.38-1.87,4.63,4.63,0,0,1,.36-1.83,4.71,4.71,0,0,1,1-1.49,4.86,4.86,0,0,1,1.5-1,4.54,4.54,0,0,1,1.81-.37,4.61,4.61,0,0,1,4,2.3,4.71,4.71,0,0,1,.62,2.4,4.54,4.54,0,0,1-.38,1.9,4.64,4.64,0,0,1-1,1.5,4.87,4.87,0,0,1-1.48,1A4.39,4.39,0,0,1,39.92,39Zm0-1.66a2.84,2.84,0,0,0,1.48-.4,3,3,0,0,0,1.1-1.1,3,3,0,0,0,.42-1.59,3.11,3.11,0,0,0-.39-1.58,2.82,2.82,0,0,0-1.07-1.07,3.21,3.21,0,0,0-1.56-.37,3,3,0,0,0-1.51.39,3,3,0,0,0-1.08,1.09,2.89,2.89,0,0,0-.41,1.56,3,3,0,0,0,1.53,2.68A3,3,0,0,0,39.88,37.31Z"/><path class="cls-1" d="M49.74,39a5.39,5.39,0,0,1-1-.1,5.26,5.26,0,0,1-1-.27,4.21,4.21,0,0,1-.82-.43,1.91,1.91,0,0,1-.52-.55,1.16,1.16,0,0,1-.11-.35.51.51,0,0,1,0-.32,1.2,1.2,0,0,1,.23-.3.5.5,0,0,1,.38-.22.88.88,0,0,1,.48.26L48,37a5,5,0,0,0,1.21.5,2.89,2.89,0,0,0,2-.25,1,1,0,0,0,.53-.89,1.09,1.09,0,0,0-.13-.55,1.33,1.33,0,0,0-.36-.39,3.05,3.05,0,0,0-.51-.27c-.19-.08-.41-.15-.64-.22l-.69-.2c-.35-.09-.68-.19-1-.3a3.91,3.91,0,0,1-.89-.45,2.07,2.07,0,0,1-.65-.7,2.22,2.22,0,0,1-.25-1.09A2.34,2.34,0,0,1,47,30.8a2.63,2.63,0,0,1,1.12-.89,4.21,4.21,0,0,1,1.69-.31,4.75,4.75,0,0,1,.78.06,2.77,2.77,0,0,1,.7.18,4.46,4.46,0,0,1,.63.28,3.76,3.76,0,0,1,.59.39.68.68,0,0,1,.36.49.75.75,0,0,1-.21.56.79.79,0,0,1-.38.31.42.42,0,0,1-.41-.11,4.3,4.3,0,0,0-.65-.39,4.7,4.7,0,0,0-.7-.29,2.33,2.33,0,0,0-.74-.11,2.26,2.26,0,0,0-.85.14,1.13,1.13,0,0,0-.57.42,1,1,0,0,0-.2.62.78.78,0,0,0,.16.49,1.37,1.37,0,0,0,.42.32,3.23,3.23,0,0,0,.61.24l.73.2c.37.09.74.19,1.13.31a4.21,4.21,0,0,1,1,.48,2.27,2.27,0,0,1,.76.78,2.5,2.5,0,0,1,.29,1.28,2.34,2.34,0,0,1-1,2A4.35,4.35,0,0,1,49.74,39Z"/><path class="cls-1" d="M61.5,38.85a1.17,1.17,0,0,1-.55-.1.47.47,0,0,1-.24-.31,2.13,2.13,0,0,1,0-.46V26.27a2,2,0,0,1,0-.45.49.49,0,0,1,.25-.3,1.59,1.59,0,0,1,1.11,0,.46.46,0,0,1,.23.3,2,2,0,0,1,0,.47V31A4.49,4.49,0,0,1,63.47,30a2.91,2.91,0,0,1,1.6-.42,3.86,3.86,0,0,1,2,.52,3.74,3.74,0,0,1,1.4,1.47A4.63,4.63,0,0,1,69,33.87V38a1.49,1.49,0,0,1-.06.45.5.5,0,0,1-.23.3,1.1,1.1,0,0,1-.55.1,1.17,1.17,0,0,1-.55-.1.49.49,0,0,1-.25-.31,2.09,2.09,0,0,1-.05-.46V33.86a3.28,3.28,0,0,0-.27-1.39,2,2,0,0,0-.79-.91,2.44,2.44,0,0,0-1.32-.33,2.61,2.61,0,0,0-1.78.62,2.45,2.45,0,0,0-.8,1.64V38a1.49,1.49,0,0,1-.06.45.51.51,0,0,1-.24.3A1.14,1.14,0,0,1,61.5,38.85Z"/><path class="cls-1" d="M75.41,39a4.53,4.53,0,0,1-1.78-.36,5.44,5.44,0,0,1-1.51-1,4.71,4.71,0,0,1-1-1.49,4.44,4.44,0,0,1-.38-1.87,4.63,4.63,0,0,1,.36-1.83,4.57,4.57,0,0,1,1-1.49,4.82,4.82,0,0,1,1.49-1,4.58,4.58,0,0,1,1.81-.37,4.63,4.63,0,0,1,4.68,4.7,4.71,4.71,0,0,1-.38,1.9,4.64,4.64,0,0,1-2.51,2.47A4.39,4.39,0,0,1,75.41,39Zm0-1.66a2.84,2.84,0,0,0,1.48-.4A3,3,0,0,0,78,35.81a3.34,3.34,0,0,0,0-3.17,2.75,2.75,0,0,0-1.07-1.07,3.21,3.21,0,0,0-1.56-.37,3,3,0,0,0-1.51.39,3,3,0,0,0-1.08,1.09,3,3,0,0,0-.41,1.56,3,3,0,0,0,1.53,2.68A3,3,0,0,0,75.37,37.31Z"/><path class="cls-1" d="M83,38.85a1,1,0,0,1-.53-.11.55.55,0,0,1-.23-.31,1.49,1.49,0,0,1-.06-.45V30.45a1.31,1.31,0,0,1,.06-.43.46.46,0,0,1,.24-.27,1.25,1.25,0,0,1,.54-.09.88.88,0,0,1,.6.16.72.72,0,0,1,.18.56l-.08.82a2.24,2.24,0,0,1,.4-.58,3.34,3.34,0,0,1,.64-.51,3.76,3.76,0,0,1,.79-.36,2.74,2.74,0,0,1,.85-.13,2.81,2.81,0,0,1,1.19.24,2.9,2.9,0,0,1,.94.67,3.66,3.66,0,0,1,.7,1.08A7.29,7.29,0,0,1,90,30.54a2.84,2.84,0,0,1,1-.68,3.07,3.07,0,0,1,1.23-.24,3,3,0,0,1,1.82.54,3.28,3.28,0,0,1,1.1,1.52A6.55,6.55,0,0,1,95.53,34v4a1.93,1.93,0,0,1,0,.45.45.45,0,0,1-.22.3,1.21,1.21,0,0,1-.57.1,1.09,1.09,0,0,1-.54-.11.51.51,0,0,1-.23-.31,1.49,1.49,0,0,1-.06-.45V34a5,5,0,0,0-.2-1.48,2,2,0,0,0-.61-1,1.61,1.61,0,0,0-1-.34,2.14,2.14,0,0,0-2,1.3A3.52,3.52,0,0,0,89.7,34v4a1,1,0,0,1-.12.49.58.58,0,0,1-.34.29,1,1,0,0,1-.55,0,.92.92,0,0,1-.46-.15.48.48,0,0,1-.19-.29A2.54,2.54,0,0,1,88,38V34a5,5,0,0,0-.2-1.48,2.12,2.12,0,0,0-.61-1,1.62,1.62,0,0,0-1.06-.34,2.14,2.14,0,0,0-1.2.35,2.37,2.37,0,0,0-.81,1A3.47,3.47,0,0,0,83.85,34v4a1.49,1.49,0,0,1-.06.45.51.51,0,0,1-.24.3A1.17,1.17,0,0,1,83,38.85Z"/><path class="cls-1" d="M98.89,38.87a1.1,1.1,0,0,1-.54-.1.5.5,0,0,1-.24-.31,2,2,0,0,1,0-.44V26.29a2,2,0,0,1,0-.47.51.51,0,0,1,.24-.3,1.1,1.1,0,0,1,.54-.1,1.09,1.09,0,0,1,.54.11.53.53,0,0,1,.22.31,1.49,1.49,0,0,1,.06.45v11.9a.76.76,0,0,1-.22.52A.88.88,0,0,1,98.89,38.87Zm4,0a4.07,4.07,0,0,1-1.7-.34,3.72,3.72,0,0,1-1.29-1A4.53,4.53,0,0,1,99,36.08a5.19,5.19,0,0,1-.28-1.84,5.77,5.77,0,0,1,.29-1.84,4.26,4.26,0,0,1,.82-1.46,3.82,3.82,0,0,1,1.29-1,4.25,4.25,0,0,1,3.33,0,4.27,4.27,0,0,1,1.35,1,4.58,4.58,0,0,1,.91,1.45,5,5,0,0,1,.33,1.83,5.07,5.07,0,0,1-.33,1.85,4.79,4.79,0,0,1-.91,1.47,4.15,4.15,0,0,1-1.35,1A4,4,0,0,1,102.85,38.85Zm-.25-1.61a2.74,2.74,0,0,0,2.46-1.44,3.12,3.12,0,0,0,.37-1.55,3.16,3.16,0,0,0-.37-1.56,2.71,2.71,0,0,0-2.46-1.44,2.82,2.82,0,0,0-1.44.38,2.76,2.76,0,0,0-1,1.06,3.16,3.16,0,0,0-.37,1.56,3.12,3.12,0,0,0,.37,1.55,2.76,2.76,0,0,0,1,1.06A2.82,2.82,0,0,0,102.6,37.24Z"/><path class="cls-1" d="M110.33,38.85a1.1,1.1,0,0,1-.54-.1.46.46,0,0,1-.23-.31,2.09,2.09,0,0,1,0-.46V30.49a1.53,1.53,0,0,1,.06-.47.46.46,0,0,1,.23-.28,1.27,1.27,0,0,1,.55-.08,1.2,1.2,0,0,1,.52.08.51.51,0,0,1,.25.25,1.06,1.06,0,0,1,.07.37l-.08.57a3.66,3.66,0,0,1,.31-.49,2,2,0,0,1,.46-.45,2.26,2.26,0,0,1,.66-.33,3,3,0,0,1,1-.14,3.31,3.31,0,0,1,.55.05,2.75,2.75,0,0,1,.49.14,2.6,2.6,0,0,1,.41.22,1.15,1.15,0,0,1,.27.27.52.52,0,0,1,.11.33,1,1,0,0,1-.27.71.75.75,0,0,1-.55.3.7.7,0,0,1-.36-.07,1.64,1.64,0,0,1-.22-.14,1.12,1.12,0,0,0-.29-.14,1.84,1.84,0,0,0-.61-.07,1.91,1.91,0,0,0-.6.11,2.25,2.25,0,0,0-.6.34,1.59,1.59,0,0,0-.46.56,1.65,1.65,0,0,0-.18.79V38a1.49,1.49,0,0,1-.06.45.49.49,0,0,1-.24.29A1.33,1.33,0,0,1,110.33,38.85Z"/><path class="cls-1" d="M121.65,39a4.45,4.45,0,0,1-1.77-.36,5.16,5.16,0,0,1-1.51-1,4.74,4.74,0,0,1-1.05-1.49,4.81,4.81,0,0,1,0-3.7,4.73,4.73,0,0,1,1-1.49,4.94,4.94,0,0,1,1.49-1,4.74,4.74,0,0,1,4.18.25,4.51,4.51,0,0,1,1.68,1.68,4.62,4.62,0,0,1,.63,2.4,4.71,4.71,0,0,1-.38,1.9,4.51,4.51,0,0,1-1,1.5,4.75,4.75,0,0,1-1.48,1A4.35,4.35,0,0,1,121.65,39Zm0-1.66a2.86,2.86,0,0,0,1.48-.4,3.07,3.07,0,0,0,1.52-2.69,3.11,3.11,0,0,0-.39-1.58,2.82,2.82,0,0,0-1.07-1.07,3.21,3.21,0,0,0-1.56-.37,3,3,0,0,0-1.51.39A3.16,3.16,0,0,0,119,32.68a3,3,0,0,0-.4,1.56,3.12,3.12,0,0,0,.41,1.6,3.06,3.06,0,0,0,2.61,1.47Z"/><path class="cls-1" d="M131.48,39a5.77,5.77,0,0,1-1.91-.37,4.21,4.21,0,0,1-.82-.43,1.79,1.79,0,0,1-.52-.55,1.16,1.16,0,0,1-.11-.35.51.51,0,0,1,0-.32,1.2,1.2,0,0,1,.23-.3.48.48,0,0,1,.38-.22.88.88,0,0,1,.48.26c.13.09.3.18.49.29a5,5,0,0,0,1.21.5,2.55,2.55,0,0,0,.61.08,2.65,2.65,0,0,0,1.41-.33,1,1,0,0,0,.53-.89,1.09,1.09,0,0,0-.13-.55,1.33,1.33,0,0,0-.36-.39,3.17,3.17,0,0,0-.52-.27,6.55,6.55,0,0,0-.63-.22l-.7-.2c-.34-.09-.67-.19-1-.3a4.21,4.21,0,0,1-.9-.45,2.15,2.15,0,0,1-.64-.7,2.12,2.12,0,0,1-.25-1.09,2.27,2.27,0,0,1,.4-1.35,2.63,2.63,0,0,1,1.12-.89,4.21,4.21,0,0,1,1.69-.31,4.75,4.75,0,0,1,.78.06,2.7,2.7,0,0,1,.69.18,4.12,4.12,0,0,1,.64.28,4.29,4.29,0,0,1,.59.39.68.68,0,0,1,.36.49.84.84,0,0,1-.21.56.79.79,0,0,1-.38.31.43.43,0,0,1-.42-.11,3.77,3.77,0,0,0-.64-.39,4.7,4.7,0,0,0-.7-.29,2.39,2.39,0,0,0-.75-.11,2.25,2.25,0,0,0-.84.14,1.13,1.13,0,0,0-.57.42,1,1,0,0,0-.2.62.72.72,0,0,0,.16.49,1.37,1.37,0,0,0,.42.32,3.23,3.23,0,0,0,.61.24c.23.07.47.14.73.2s.74.19,1.13.31a4.14,4.14,0,0,1,1,.48,2.19,2.19,0,0,1,.76.78,2.4,2.4,0,0,1,.3,1.28,2.34,2.34,0,0,1-1,2A4.35,4.35,0,0,1,131.48,39Z"/><path class="cls-1" d="M143.37,38.85a1.1,1.1,0,0,1-.54-.1.46.46,0,0,1-.23-.31,2.13,2.13,0,0,1,0-.46V30.49a1.57,1.57,0,0,1,.05-.47.46.46,0,0,1,.23-.28,1.27,1.27,0,0,1,.55-.08,1.2,1.2,0,0,1,.52.08.47.47,0,0,1,.25.25.87.87,0,0,1,.07.37l-.08.57a3.66,3.66,0,0,1,.31-.49,2.18,2.18,0,0,1,.46-.45,2.33,2.33,0,0,1,.67-.33,3,3,0,0,1,1-.14,3.1,3.1,0,0,1,.54.05,2.75,2.75,0,0,1,.49.14,2.22,2.22,0,0,1,.41.22,1,1,0,0,1,.27.27.52.52,0,0,1,.11.33,1,1,0,0,1-.27.71.74.74,0,0,1-.55.3.7.7,0,0,1-.36-.07l-.22-.14a1.12,1.12,0,0,0-.29-.14,1.84,1.84,0,0,0-.61-.07,1.91,1.91,0,0,0-.6.11,2.25,2.25,0,0,0-.6.34,1.59,1.59,0,0,0-.46.56,1.65,1.65,0,0,0-.18.79V38a1.49,1.49,0,0,1-.06.45.49.49,0,0,1-.24.29A1.29,1.29,0,0,1,143.37,38.85Z"/><path class="cls-1" d="M154.87,39a5.26,5.26,0,0,1-2-.38A4.43,4.43,0,0,1,150.38,36a5.27,5.27,0,0,1-.32-1.84,4.46,4.46,0,0,1,.61-2.34,4.29,4.29,0,0,1,1.68-1.62,5,5,0,0,1,2.46-.6,4.77,4.77,0,0,1,1.7.29,4,4,0,0,1,1.28.79,3.55,3.55,0,0,1,.82,1.1A2.87,2.87,0,0,1,158.9,33a1.74,1.74,0,0,1-.46,1.36,1.66,1.66,0,0,1-1.12.39h-5.49a2.14,2.14,0,0,0,.44,1.43,3.05,3.05,0,0,0,1.18.92,3.4,3.4,0,0,0,1.44.33,5.93,5.93,0,0,0,.91-.06,4.64,4.64,0,0,0,.66-.15l.5-.19.37-.19a1.19,1.19,0,0,1,.31-.14.61.61,0,0,1,.33,0,.51.51,0,0,1,.26.26.77.77,0,0,1,.15.28.92.92,0,0,1,0,.29c0,.18-.15.37-.46.59a4.15,4.15,0,0,1-1.26.55A6.83,6.83,0,0,1,154.87,39Zm-3-5.3h4.77a1.23,1.23,0,0,0,.54-.1q.18-.09.18-.51a1.56,1.56,0,0,0-.32-1,2.34,2.34,0,0,0-.89-.7,3,3,0,0,0-1.28-.26,3.5,3.5,0,0,0-1.53.33,2.7,2.7,0,0,0-1.09.9A2,2,0,0,0,151.83,33.65Z"/><path class="cls-1" d="M164,38.85a5.12,5.12,0,0,1-1.09-.1,2.41,2.41,0,0,1-.85-.34,2,2,0,0,1-.6-.58,2.49,2.49,0,0,1-.34-.88,6,6,0,0,1-.1-1.2v-9.5a2.17,2.17,0,0,1,0-.47.43.43,0,0,1,.24-.29,1.1,1.1,0,0,1,.53-.11,1.14,1.14,0,0,1,.56.1.45.45,0,0,1,.24.28,1.56,1.56,0,0,1,.06.46v9.52a2.49,2.49,0,0,0,.07.65,1.23,1.23,0,0,0,.24.47.88.88,0,0,0,.41.26,2,2,0,0,0,.59.08,1.14,1.14,0,0,1,.39.06.41.41,0,0,1,.25.22,1.1,1.1,0,0,1,.1.54,1.17,1.17,0,0,1-.1.56.39.39,0,0,1-.25.22A1.15,1.15,0,0,1,164,38.85Z"/><path class="cls-1" d="M174.53,38.83a.83.83,0,0,1-.6-.17.84.84,0,0,1-.22-.53l.08-1a4,4,0,0,1-.59.69,3.62,3.62,0,0,1-1,.69,3.91,3.91,0,0,1-1.58.29,4,4,0,0,1-1.7-.36,4.32,4.32,0,0,1-1.39-1,4.64,4.64,0,0,1-.93-1.48,4.77,4.77,0,0,1-.33-1.78,4.71,4.71,0,0,1,.33-1.76A4.57,4.57,0,0,1,167.5,31a4.72,4.72,0,0,1,1.4-1,4,4,0,0,1,1.68-.36,4.31,4.31,0,0,1,1.43.21,3.64,3.64,0,0,1,1,.57,4.3,4.3,0,0,1,.75.79l0-.79a.75.75,0,0,1,.18-.6,1,1,0,0,1,.64-.18.89.89,0,0,1,.52.11.57.57,0,0,1,.22.32,1.9,1.9,0,0,1,.06.52v7.33a1.63,1.63,0,0,1-.06.47.51.51,0,0,1-.23.32A1,1,0,0,1,174.53,38.83Zm-3.66-1.57a2.61,2.61,0,0,0,1.39-.4,2.91,2.91,0,0,0,1-1.08,3.11,3.11,0,0,0,.37-1.54,3.07,3.07,0,0,0-.39-1.57,2.94,2.94,0,0,0-1-1.07,2.61,2.61,0,0,0-1.39-.39,2.87,2.87,0,0,0-1.55.41,3.1,3.1,0,0,0-1,1.09,3.22,3.22,0,0,0-.38,1.56,3.1,3.1,0,0,0,.38,1.53,2.86,2.86,0,0,0,1.06,1.07A3.07,3.07,0,0,0,170.87,37.26Z"/><path class="cls-1" d="M175.92,42.56a1.45,1.45,0,0,1-.44-.07.52.52,0,0,1-.29-.24,1,1,0,0,1-.11-.53,1,1,0,0,1,.11-.51.51.51,0,0,1,.3-.24,1.52,1.52,0,0,1,.45-.07,4.61,4.61,0,0,0,.84-.07,1.65,1.65,0,0,0,.73-.31,1.52,1.52,0,0,0,.49-.67,3.12,3.12,0,0,0,.18-1.15V30.44a1.25,1.25,0,0,1,.06-.42.49.49,0,0,1,.23-.28,1.15,1.15,0,0,1,.55-.1,1.07,1.07,0,0,1,.52.1.5.5,0,0,1,.24.31,2,2,0,0,1,.05.46V38.7a4.52,4.52,0,0,1-.3,1.72,3.21,3.21,0,0,1-.84,1.21,3.4,3.4,0,0,1-1.23.7A5,5,0,0,1,175.92,42.56ZM179,27.36a1,1,0,0,1-.75-.22,1.11,1.11,0,0,1-.2-.77,1,1,0,0,1,.21-.75,1.12,1.12,0,0,1,.76-.2,1,1,0,0,1,.75.22,1.15,1.15,0,0,1,.2.77,1,1,0,0,1-.21.74A1.06,1.06,0,0,1,179,27.36Z"/><path class="cls-1" d="M190.57,38.83a.83.83,0,0,1-.6-.17.84.84,0,0,1-.22-.53l.08-1a4.55,4.55,0,0,1-.59.69,3.6,3.6,0,0,1-2.62,1,4,4,0,0,1-1.7-.36,4.32,4.32,0,0,1-1.39-1A4.64,4.64,0,0,1,182.6,36a4.78,4.78,0,0,1-.34-1.78,4.71,4.71,0,0,1,.34-1.76,4.41,4.41,0,0,1,.94-1.46,4.67,4.67,0,0,1,1.39-1,4,4,0,0,1,1.69-.36,4.25,4.25,0,0,1,1.42.21,3.86,3.86,0,0,1,1,.57,5.09,5.09,0,0,1,.75.79l0-.79a.75.75,0,0,1,.18-.6.94.94,0,0,1,.64-.18.89.89,0,0,1,.52.11.57.57,0,0,1,.22.32,2,2,0,0,1,0,.52v7.33a1.65,1.65,0,0,1,0,.47.55.55,0,0,1-.23.32A1,1,0,0,1,190.57,38.83Zm-3.67-1.57a2.65,2.65,0,0,0,1.4-.4,2.89,2.89,0,0,0,1-1.08,3.11,3.11,0,0,0,.37-1.54,3.07,3.07,0,0,0-.38-1.57,3,3,0,0,0-1-1.07,2.64,2.64,0,0,0-1.4-.39,2.91,2.91,0,0,0-1.55.41,3.07,3.07,0,0,0-1,1.09,3.22,3.22,0,0,0-.38,1.56,3.1,3.1,0,0,0,.38,1.53,2.77,2.77,0,0,0,1.05,1.07A3.07,3.07,0,0,0,186.9,37.26Z"/><path class="cls-1" d="M197.9,38.85a4,4,0,0,1-1.63-.34,4.08,4.08,0,0,1-1.36-1,4.61,4.61,0,0,1-.91-1.47,4.87,4.87,0,0,1-.34-1.85,4.77,4.77,0,0,1,.34-1.83,4.41,4.41,0,0,1,.91-1.45,4.2,4.2,0,0,1,1.36-1,4,4,0,0,1,4.61,1,4.26,4.26,0,0,1,.82,1.46,5.77,5.77,0,0,1,.29,1.84,5.19,5.19,0,0,1-.28,1.84,4.55,4.55,0,0,1-.83,1.46,3.6,3.6,0,0,1-1.28,1A4,4,0,0,1,197.9,38.85Zm.25-1.61a2.75,2.75,0,0,0,1.43-.38,2.78,2.78,0,0,0,1-1.06,3.12,3.12,0,0,0,.37-1.55,3.16,3.16,0,0,0-.37-1.56,2.78,2.78,0,0,0-1-1.06,2.75,2.75,0,0,0-1.43-.38,2.85,2.85,0,0,0-1.45.38,2.71,2.71,0,0,0-1,1.06,3.16,3.16,0,0,0-.37,1.56,3.12,3.12,0,0,0,.37,1.55,2.74,2.74,0,0,0,1,1.06A2.87,2.87,0,0,0,198.15,37.24Zm3.72,1.61a1,1,0,0,1-.61-.15.72.72,0,0,1-.22-.51V26.29a2.11,2.11,0,0,1,0-.47.5.5,0,0,1,.23-.3,1.51,1.51,0,0,1,1.08,0,.51.51,0,0,1,.24.3,1.53,1.53,0,0,1,.06.45V38a1.6,1.6,0,0,1-.06.46.49.49,0,0,1-.23.31A1,1,0,0,1,201.87,38.85Z"/><path class="cls-1" d="M209.51,39a4.53,4.53,0,0,1-1.78-.36,5.44,5.44,0,0,1-1.51-1,4.71,4.71,0,0,1-1-1.49,4.44,4.44,0,0,1-.38-1.87,4.63,4.63,0,0,1,.36-1.83,4.57,4.57,0,0,1,1-1.49,4.82,4.82,0,0,1,1.49-1,4.58,4.58,0,0,1,1.81-.37,4.63,4.63,0,0,1,4.68,4.7,4.71,4.71,0,0,1-.38,1.9,4.64,4.64,0,0,1-2.51,2.47A4.39,4.39,0,0,1,209.51,39Zm0-1.66a2.84,2.84,0,0,0,1.48-.4,3,3,0,0,0,1.11-1.1,3.34,3.34,0,0,0,0-3.17A2.75,2.75,0,0,0,211,31.57a3.18,3.18,0,0,0-1.56-.37,3,3,0,0,0-1.51.39,3,3,0,0,0-1.08,1.09,3,3,0,0,0-.41,1.56A3,3,0,0,0,208,36.92,3,3,0,0,0,209.47,37.31Z"/><path class="cls-1" d="M219.33,39a5.39,5.39,0,0,1-1-.1,5.26,5.26,0,0,1-1-.27,3.86,3.86,0,0,1-.81-.43,1.83,1.83,0,0,1-.53-.55,1.16,1.16,0,0,1-.11-.35.59.59,0,0,1,.06-.32,1,1,0,0,1,.23-.3.47.47,0,0,1,.37-.22.88.88,0,0,1,.48.26l.49.29a6.45,6.45,0,0,0,.59.29c.21.08.41.15.62.21a2.7,2.7,0,0,0,.62.08,2.61,2.61,0,0,0,1.4-.33,1,1,0,0,0,.54-.89,1.1,1.1,0,0,0-.14-.55,1.33,1.33,0,0,0-.36-.39,3.05,3.05,0,0,0-.51-.27,5.93,5.93,0,0,0-.64-.22l-.69-.2c-.34-.09-.68-.19-1-.3a3.91,3.91,0,0,1-.89-.45,2.18,2.18,0,0,1-.65-.7,2.23,2.23,0,0,1-.24-1.09,2.33,2.33,0,0,1,.39-1.35,2.6,2.6,0,0,1,1.13-.89,4.18,4.18,0,0,1,1.69-.31,4.75,4.75,0,0,1,.78.06,2.7,2.7,0,0,1,.69.18,5.17,5.17,0,0,1,.64.28,3.68,3.68,0,0,1,.58.39.72.72,0,0,1,.37.49,1,1,0,0,1-.59.87.43.43,0,0,1-.42-.11,3.86,3.86,0,0,0-.65-.39,4.3,4.3,0,0,0-.7-.29,2.33,2.33,0,0,0-.74-.11,2.26,2.26,0,0,0-.85.14,1.22,1.22,0,0,0-.57.42,1,1,0,0,0-.2.62.73.73,0,0,0,.17.49,1.22,1.22,0,0,0,.41.32,3.88,3.88,0,0,0,.61.24l.73.2c.37.09.75.19,1.13.31a4.21,4.21,0,0,1,1,.48,2.27,2.27,0,0,1,.76.78,2.5,2.5,0,0,1,.29,1.28,2.36,2.36,0,0,1-1,2A4.38,4.38,0,0,1,219.33,39Z"/><path class="cls-1" d="M226.1,38.87a1.12,1.12,0,0,1-.8-.23,1,1,0,0,1-.23-.76,1.43,1.43,0,0,1,.1-.61.61.61,0,0,1,.32-.33,1.46,1.46,0,0,1,.61-.1,1.05,1.05,0,0,1,.79.23,1.15,1.15,0,0,1,.21.79,1.58,1.58,0,0,1-.09.6.61.61,0,0,1-.31.32A1.65,1.65,0,0,1,226.1,38.87Z"/><path class="cls-1" d="M31,88.85a1.14,1.14,0,0,1-.56-.1.5.5,0,0,1-.24-.31,1.6,1.6,0,0,1-.06-.46V76.45A1.27,1.27,0,0,1,30.2,76a.53.53,0,0,1,.25-.3,1.14,1.14,0,0,1,.56-.1,1.17,1.17,0,0,1,.56.1.5.5,0,0,1,.23.3,2.11,2.11,0,0,1,0,.47V88a1.93,1.93,0,0,1-.05.45.51.51,0,0,1-.24.3A1.17,1.17,0,0,1,31,88.85Z"/><path class="cls-1" d="M35.38,88.83a1.1,1.1,0,0,1-.54-.1.43.43,0,0,1-.23-.3,1.93,1.93,0,0,1,0-.45V80.44a1.25,1.25,0,0,1,.06-.42.41.41,0,0,1,.23-.27,1.27,1.27,0,0,1,.55-.09,1.29,1.29,0,0,1,.44.06.49.49,0,0,1,.23.18,1.06,1.06,0,0,1,.09.25,2.18,2.18,0,0,1,0,.25l0,.87a3.27,3.27,0,0,1,.47-.62,3.64,3.64,0,0,1,.67-.53,3.38,3.38,0,0,1,.82-.37,3.32,3.32,0,0,1,1-.13,4.06,4.06,0,0,1,1.54.29,3.35,3.35,0,0,1,1.21.86,4.11,4.11,0,0,1,.78,1.34,5.37,5.37,0,0,1,.27,1.76V88a2,2,0,0,1,0,.45.48.48,0,0,1-.23.29,1.25,1.25,0,0,1-.54.09,1.14,1.14,0,0,1-.56-.1.48.48,0,0,1-.24-.3,1.49,1.49,0,0,1-.06-.45V83.86a3.28,3.28,0,0,0-.27-1.39,2,2,0,0,0-.79-.92,2.46,2.46,0,0,0-1.35-.34,2.62,2.62,0,0,0-1.36.34,2.19,2.19,0,0,0-.89.92,2.88,2.88,0,0,0-.32,1.39V88a1.93,1.93,0,0,1-.05.45.49.49,0,0,1-.24.29A1.25,1.25,0,0,1,35.38,88.83Z"/><path class="cls-1" d="M49.74,88.89a5.33,5.33,0,0,1-1.85-.32,4.61,4.61,0,0,1-1.52-.93,4.35,4.35,0,0,1-1-1.46A4.68,4.68,0,0,1,45,84.25a4.75,4.75,0,0,1,.37-1.93,4.4,4.4,0,0,1,2.53-2.38,5.34,5.34,0,0,1,1.83-.32,4,4,0,0,1,1.28.2,4.71,4.71,0,0,1,1.11.51,2.2,2.2,0,0,1,.69.66,3.4,3.4,0,0,1,.28.4.47.47,0,0,1,0,.37,1.21,1.21,0,0,1-.21.28,1.56,1.56,0,0,1-.27.2.58.58,0,0,1-.68.08,3.6,3.6,0,0,0-.47-.39c-.17-.12-.35-.23-.54-.34a2.6,2.6,0,0,0-.58-.23,2.11,2.11,0,0,0-.62-.09,3.2,3.2,0,0,0-1.57.37,2.61,2.61,0,0,0-1.06,1,3.16,3.16,0,0,0-.37,1.56,3.1,3.1,0,0,0,.37,1.56,2.72,2.72,0,0,0,1,1,3.11,3.11,0,0,0,1.54.38,2.76,2.76,0,0,0,.77-.11,3.3,3.3,0,0,0,.7-.28,2.51,2.51,0,0,0,.53-.39l.32-.23a.59.59,0,0,1,.33-.1.6.6,0,0,1,.32.13,1.82,1.82,0,0,1,.36.37.69.69,0,0,1,.18.36.5.5,0,0,1-.07.36,1.15,1.15,0,0,1-.3.34,3.13,3.13,0,0,1-.81.58,4.8,4.8,0,0,1-1.09.45A4.29,4.29,0,0,1,49.74,88.89Z"/><path class="cls-1" d="M58.23,88.85a5.19,5.19,0,0,1-1.09-.1,2.43,2.43,0,0,1-.84-.34,1.85,1.85,0,0,1-.6-.58,2.31,2.31,0,0,1-.34-.88,6,6,0,0,1-.11-1.2v-9.5a2.12,2.12,0,0,1,0-.47.43.43,0,0,1,.24-.29,1.07,1.07,0,0,1,.53-.11,1.17,1.17,0,0,1,.56.1.45.45,0,0,1,.24.28,2,2,0,0,1,.05.46v9.52a2.46,2.46,0,0,0,.08.65,1.23,1.23,0,0,0,.24.47.85.85,0,0,0,.4.26,2.1,2.1,0,0,0,.59.08,1.07,1.07,0,0,1,.39.06.43.43,0,0,1,.26.22A1.25,1.25,0,0,1,59,88a1.33,1.33,0,0,1-.09.56.4.4,0,0,1-.26.22A1.09,1.09,0,0,1,58.23,88.85Z"/><path class="cls-1" d="M61.9,77.38a1.29,1.29,0,0,1-.63-.13A.56.56,0,0,1,61,76.9a1.7,1.7,0,0,1-.07-.53,1.58,1.58,0,0,1,.08-.52.54.54,0,0,1,.28-.33,1.47,1.47,0,0,1,.63-.1,1.38,1.38,0,0,1,.61.11.54.54,0,0,1,.27.34,1.77,1.77,0,0,1,.07.54,1.64,1.64,0,0,1-.07.52.52.52,0,0,1-.27.33A1.3,1.3,0,0,1,61.9,77.38Zm0,11.47a1.1,1.1,0,0,1-.54-.1.51.51,0,0,1-.24-.3,1.49,1.49,0,0,1-.06-.45V80.49a1.44,1.44,0,0,1,.06-.45.46.46,0,0,1,.24-.29,1.33,1.33,0,0,1,.56-.09,1,1,0,0,1,.53.1.5.5,0,0,1,.23.29,1.65,1.65,0,0,1,.06.48V88a1.49,1.49,0,0,1-.06.45.49.49,0,0,1-.24.29A1.25,1.25,0,0,1,61.9,88.85Z"/><path class="cls-1" d="M66.35,88.83a1.15,1.15,0,0,1-.55-.1.45.45,0,0,1-.22-.3,1.93,1.93,0,0,1,0-.45V80.44a1.25,1.25,0,0,1,.06-.42.41.41,0,0,1,.23-.27,1.25,1.25,0,0,1,.54-.09,1.32,1.32,0,0,1,.45.06.49.49,0,0,1,.23.18,1.06,1.06,0,0,1,.09.25,2.18,2.18,0,0,1,0,.25l0,.87a3.27,3.27,0,0,1,.47-.62,3.64,3.64,0,0,1,.67-.53,3.38,3.38,0,0,1,.82-.37,3.32,3.32,0,0,1,1-.13,4.06,4.06,0,0,1,1.54.29,3.35,3.35,0,0,1,1.21.86,4.11,4.11,0,0,1,.78,1.34,5.37,5.37,0,0,1,.27,1.76V88a1.51,1.51,0,0,1,0,.45.43.43,0,0,1-.22.29,1.25,1.25,0,0,1-.54.09,1.19,1.19,0,0,1-.57-.1.5.5,0,0,1-.23-.3,1.49,1.49,0,0,1-.06-.45V83.86a3.28,3.28,0,0,0-.27-1.39,2,2,0,0,0-.79-.92,2.46,2.46,0,0,0-1.35-.34,2.62,2.62,0,0,0-1.36.34,2.14,2.14,0,0,0-.89.92,2.88,2.88,0,0,0-.32,1.39V88a1.93,1.93,0,0,1-.05.45.49.49,0,0,1-.24.29A1.25,1.25,0,0,1,66.35,88.83Z"/><path class="cls-1" d="M84.21,88.83a.83.83,0,0,1-.6-.17.79.79,0,0,1-.22-.53l.08-.95a4.55,4.55,0,0,1-.59.69,3.83,3.83,0,0,1-1,.69,3.91,3.91,0,0,1-1.58.29,4.08,4.08,0,0,1-1.7-.36,4.39,4.39,0,0,1-1.38-1A4.64,4.64,0,0,1,76.24,86a4.59,4.59,0,0,1-.34-1.78,4.52,4.52,0,0,1,.34-1.76A4.41,4.41,0,0,1,77.18,81a4.67,4.67,0,0,1,1.39-1,4,4,0,0,1,1.68-.36,4.27,4.27,0,0,1,1.43.21,3.86,3.86,0,0,1,1,.57,5.09,5.09,0,0,1,.75.79l0-.79a.75.75,0,0,1,.18-.6.92.92,0,0,1,.64-.18.89.89,0,0,1,.52.11.57.57,0,0,1,.22.32,2.47,2.47,0,0,1,0,.52v7.33a2.12,2.12,0,0,1,0,.47.55.55,0,0,1-.23.32A1.06,1.06,0,0,1,84.21,88.83Zm-3.67-1.57a2.65,2.65,0,0,0,1.4-.4,2.89,2.89,0,0,0,1-1.08,3.11,3.11,0,0,0,.37-1.54,3.07,3.07,0,0,0-.39-1.57,3,3,0,0,0-1-1.07,2.64,2.64,0,0,0-1.4-.39,2.91,2.91,0,0,0-1.55.41,3.07,3.07,0,0,0-1,1.09,3.11,3.11,0,0,0-.38,1.56,3,3,0,0,0,.38,1.53,2.77,2.77,0,0,0,1,1.07A3.07,3.07,0,0,0,80.54,87.26Z"/><path class="cls-1" d="M88.41,88.85a1.12,1.12,0,0,1-.55-.1.44.44,0,0,1-.22-.31,1.62,1.62,0,0,1,0-.46V80.49a1.53,1.53,0,0,1,.06-.47.42.42,0,0,1,.22-.28,1.3,1.3,0,0,1,.55-.08,1.25,1.25,0,0,1,.53.08.45.45,0,0,1,.24.25.87.87,0,0,1,.07.37l-.08.57a3.74,3.74,0,0,1,.32-.49A1.92,1.92,0,0,1,90,80a2.46,2.46,0,0,1,.67-.33,3,3,0,0,1,1-.14,3.1,3.1,0,0,1,.54,0,2.53,2.53,0,0,1,.49.14,2.22,2.22,0,0,1,.41.22,1,1,0,0,1,.28.27.52.52,0,0,1,.1.33,1,1,0,0,1-.26.71.75.75,0,0,1-.55.3.71.71,0,0,1-.37-.07L92,81.33a1.05,1.05,0,0,0-.3-.14,1.84,1.84,0,0,0-.61-.07,1.91,1.91,0,0,0-.6.11,2.37,2.37,0,0,0-.59.34,1.62,1.62,0,0,0-.47.56,1.65,1.65,0,0,0-.18.79V88a1.49,1.49,0,0,1-.06.45.44.44,0,0,1-.23.29A1.33,1.33,0,0,1,88.41,88.85Z"/><path class="cls-1" d="M103.57,88.85a5.29,5.29,0,0,1-1.1-.1,2.43,2.43,0,0,1-.84-.34,2,2,0,0,1-.6-.58,2.49,2.49,0,0,1-.34-.88,6,6,0,0,1-.11-1.2v-9.5a2.12,2.12,0,0,1,0-.47.43.43,0,0,1,.24-.29,1.1,1.1,0,0,1,.53-.11,1.17,1.17,0,0,1,.56.1.45.45,0,0,1,.24.28,1.56,1.56,0,0,1,.06.46v9.52a2.49,2.49,0,0,0,.07.65,1.23,1.23,0,0,0,.24.47.88.88,0,0,0,.41.26,2,2,0,0,0,.59.08,1.14,1.14,0,0,1,.39.06.44.44,0,0,1,.25.22,1.1,1.1,0,0,1,.1.54,1.17,1.17,0,0,1-.1.56.41.41,0,0,1-.25.22A1.15,1.15,0,0,1,103.57,88.85Z"/><path class="cls-1" d="M107.23,77.38a1.27,1.27,0,0,1-.62-.13.61.61,0,0,1-.28-.35,2.09,2.09,0,0,1-.06-.53,1.6,1.6,0,0,1,.07-.52.56.56,0,0,1,.29-.33,1.42,1.42,0,0,1,.62-.1,1.38,1.38,0,0,1,.61.11.59.59,0,0,1,.28.34,2.17,2.17,0,0,1,.06.54,2,2,0,0,1-.06.52.57.57,0,0,1-.28.33A1.3,1.3,0,0,1,107.23,77.38Zm0,11.47a1.1,1.1,0,0,1-.54-.1.46.46,0,0,1-.23-.3,1.49,1.49,0,0,1-.06-.45V80.49a1.44,1.44,0,0,1,.06-.45.42.42,0,0,1,.23-.29,1.33,1.33,0,0,1,.56-.09,1.1,1.1,0,0,1,.54.1.49.49,0,0,1,.22.29,1.65,1.65,0,0,1,.06.48V88a1.49,1.49,0,0,1-.06.45.44.44,0,0,1-.23.29A1.34,1.34,0,0,1,107.23,88.85Z"/><path class="cls-1" d="M114.66,88.64a4.2,4.2,0,0,1-1.68-.33,4.06,4.06,0,0,1-1.35-.94,4.43,4.43,0,0,1-.89-1.42,5.32,5.32,0,0,1,0-3.58,4.3,4.3,0,0,1,.88-1.42A3.92,3.92,0,0,1,113,80a4.27,4.27,0,0,1,1.68-.34,3.43,3.43,0,0,1,1.52.33,3.17,3.17,0,0,1,1.17.92,4.11,4.11,0,0,1,.73,1.41,6.18,6.18,0,0,1,.25,1.83,5.93,5.93,0,0,1-.44,2.37,3.49,3.49,0,0,1-1.25,1.56A3.42,3.42,0,0,1,114.66,88.64Zm.06,3.94a5.41,5.41,0,0,1-2.34-.55,3.07,3.07,0,0,1-.72-.54.8.8,0,0,1-.27-.53.68.68,0,0,1,.06-.31,1.64,1.64,0,0,1,.17-.26,2.76,2.76,0,0,1,.31-.27.51.51,0,0,1,.3-.07.57.57,0,0,1,.38.16,5.64,5.64,0,0,0,.47.36,3.3,3.3,0,0,0,.68.36,2.73,2.73,0,0,0,1,.16,3.06,3.06,0,0,0,1.12-.19,2.13,2.13,0,0,0,.85-.57,2.43,2.43,0,0,0,.55-.92,3.59,3.59,0,0,0,.19-1.22l0-7.91a.64.64,0,0,1,.21-.51,1.1,1.1,0,0,1,.64-.15,1,1,0,0,1,.52.1A.47.47,0,0,1,119,80a1.84,1.84,0,0,1,0,.44v7.87a4.76,4.76,0,0,1-.32,1.79,3.65,3.65,0,0,1-.92,1.34,3.88,3.88,0,0,1-1.38.84A5.18,5.18,0,0,1,114.72,92.58Zm0-5.5a2.5,2.5,0,0,0,1.37-.38,2.75,2.75,0,0,0,1-1,3.08,3.08,0,0,0,.37-1.54,3,3,0,0,0-.37-1.51,2.58,2.58,0,0,0-1-1,2.75,2.75,0,0,0-1.4-.36,2.69,2.69,0,0,0-1.39.36,2.44,2.44,0,0,0-.94,1,3.38,3.38,0,0,0-.33,1.53,3.25,3.25,0,0,0,.34,1.53,2.63,2.63,0,0,0,.95,1A2.57,2.57,0,0,0,114.76,87.08Z"/><path class="cls-1" d="M126.2,89a5.26,5.26,0,0,1-2-.38,4.52,4.52,0,0,1-1.51-1,4.63,4.63,0,0,1-.94-1.51,5.27,5.27,0,0,1-.32-1.84,4.46,4.46,0,0,1,.61-2.34,4.29,4.29,0,0,1,1.68-1.62,4.93,4.93,0,0,1,2.46-.6,4.77,4.77,0,0,1,1.7.29,4,4,0,0,1,1.28.79,3.55,3.55,0,0,1,.82,1.1,2.85,2.85,0,0,1,.28,1.22,1.74,1.74,0,0,1-.45,1.36,1.68,1.68,0,0,1-1.12.39h-5.49a2.14,2.14,0,0,0,.44,1.43,3.05,3.05,0,0,0,1.18.92,3.39,3.39,0,0,0,1.43.33,6.07,6.07,0,0,0,.92-.06,4.64,4.64,0,0,0,.66-.15l.5-.19.37-.19a1.06,1.06,0,0,1,.31-.14.62.62,0,0,1,.33,0,.51.51,0,0,1,.26.26,1,1,0,0,1,.15.28.92.92,0,0,1,0,.29c0,.18-.15.37-.46.59a4.15,4.15,0,0,1-1.26.55A6.83,6.83,0,0,1,126.2,89Zm-3-5.3h4.76a1.25,1.25,0,0,0,.55-.1q.18-.09.18-.51a1.51,1.51,0,0,0-.33-1,2.3,2.3,0,0,0-.88-.7,3,3,0,0,0-1.28-.26,3.5,3.5,0,0,0-1.53.33,2.7,2.7,0,0,0-1.09.9A2,2,0,0,0,123.16,83.65Z"/><path class="cls-1" d="M133.24,88.85a1.1,1.1,0,0,1-.54-.1.44.44,0,0,1-.22-.31,1.62,1.62,0,0,1,0-.46V80.49a2,2,0,0,1,0-.47.46.46,0,0,1,.23-.28,1.3,1.3,0,0,1,.55-.08,1.25,1.25,0,0,1,.53.08A.45.45,0,0,1,134,80a.87.87,0,0,1,.07.37l-.08.57a3.74,3.74,0,0,1,.32-.49,1.92,1.92,0,0,1,.45-.45,2.46,2.46,0,0,1,.67-.33,3,3,0,0,1,1-.14,3.1,3.1,0,0,1,.54,0,2.75,2.75,0,0,1,.49.14,2.22,2.22,0,0,1,.41.22,1,1,0,0,1,.28.27.52.52,0,0,1,.1.33,1,1,0,0,1-.26.71.77.77,0,0,1-.56.3.7.7,0,0,1-.36-.07l-.22-.14a.87.87,0,0,0-.29-.14,1.84,1.84,0,0,0-.61-.07,1.91,1.91,0,0,0-.6.11,2.2,2.2,0,0,0-.59.34,1.62,1.62,0,0,0-.47.56,1.65,1.65,0,0,0-.18.79V88a1.49,1.49,0,0,1-.06.45.46.46,0,0,1-.24.29A1.29,1.29,0,0,1,133.24,88.85Z"/><path class="cls-1" d="M148.24,88.83a.83.83,0,0,1-.6-.17.79.79,0,0,1-.22-.53l.07-.95a3.91,3.91,0,0,1-.58.69,3.83,3.83,0,0,1-1,.69,3.91,3.91,0,0,1-1.58.29,4.08,4.08,0,0,1-1.7-.36,4.28,4.28,0,0,1-1.38-1,4.64,4.64,0,0,1-.93-1.48,4.59,4.59,0,0,1-.34-1.78,4.52,4.52,0,0,1,.34-1.76,4.41,4.41,0,0,1,.94-1.46,4.67,4.67,0,0,1,1.39-1,4,4,0,0,1,1.68-.36,4.27,4.27,0,0,1,1.43.21,3.86,3.86,0,0,1,1,.57,5.09,5.09,0,0,1,.75.79l0-.79a.68.68,0,0,1,.18-.6,1.25,1.25,0,0,1,1.16-.07.62.62,0,0,1,.22.32,2.47,2.47,0,0,1,.05.52v7.33a2.12,2.12,0,0,1-.05.47.55.55,0,0,1-.23.32A1.06,1.06,0,0,1,148.24,88.83Zm-3.67-1.57a2.61,2.61,0,0,0,1.39-.4,2.83,2.83,0,0,0,1-1.08,3.11,3.11,0,0,0,.37-1.54,3.07,3.07,0,0,0-.39-1.57,3,3,0,0,0-1-1.07,2.64,2.64,0,0,0-1.4-.39,2.91,2.91,0,0,0-1.55.41,3.07,3.07,0,0,0-1,1.09,3.11,3.11,0,0,0-.38,1.56A3,3,0,0,0,142,85.8,2.77,2.77,0,0,0,143,86.87,3.07,3.07,0,0,0,144.57,87.26Z"/><path class="cls-1" d="M152.42,88.85a1.06,1.06,0,0,1-.54-.11.59.59,0,0,1-.23-.31,1.93,1.93,0,0,1-.05-.45V80.45a1.69,1.69,0,0,1,.05-.43.46.46,0,0,1,.24-.27,1.25,1.25,0,0,1,.54-.09.88.88,0,0,1,.6.16.72.72,0,0,1,.18.56l-.07.82a2.24,2.24,0,0,1,.4-.58,3.26,3.26,0,0,1,.63-.51,3.76,3.76,0,0,1,.79-.36,2.76,2.76,0,0,1,.86-.13,2.84,2.84,0,0,1,2.12.91,3.68,3.68,0,0,1,.71,1.08,6.63,6.63,0,0,1,.8-1.07,2.94,2.94,0,0,1,1-.68,3.08,3.08,0,0,1,1.24-.24,3,3,0,0,1,1.81.54,3.22,3.22,0,0,1,1.1,1.52A6.54,6.54,0,0,1,165,84v4a1.93,1.93,0,0,1-.05.45.46.46,0,0,1-.23.3,1.17,1.17,0,0,1-.56.1,1.09,1.09,0,0,1-.54-.11.56.56,0,0,1-.24-.31,1.49,1.49,0,0,1-.06-.45V84a4.69,4.69,0,0,0-.2-1.48,2,2,0,0,0-.6-1,1.66,1.66,0,0,0-1.06-.34,2.14,2.14,0,0,0-1.21.34,2.18,2.18,0,0,0-.8,1,3.52,3.52,0,0,0-.29,1.48v4a1.07,1.07,0,0,1-.11.49.61.61,0,0,1-.34.29,1,1,0,0,1-.56,0,.85.85,0,0,1-.45-.15.44.44,0,0,1-.19-.29,1.73,1.73,0,0,1,0-.41V84a5,5,0,0,0-.2-1.48,2,2,0,0,0-.61-1,1.61,1.61,0,0,0-1.05-.34,2.15,2.15,0,0,0-1.21.35,2.45,2.45,0,0,0-.81,1,3.47,3.47,0,0,0-.28,1.45v4a1.49,1.49,0,0,1-.06.45.5.5,0,0,1-.23.3A1.17,1.17,0,0,1,152.42,88.85Z"/><path class="cls-1" d="M171.91,89a5.17,5.17,0,0,1-2-.38,4.42,4.42,0,0,1-1.51-1,4.49,4.49,0,0,1-1-1.51,5.27,5.27,0,0,1-.32-1.84,4.39,4.39,0,0,1,2.29-4,5,5,0,0,1,2.46-.6,4.73,4.73,0,0,1,1.7.29,4.18,4.18,0,0,1,1.29.79,3.68,3.68,0,0,1,.81,1.1,2.87,2.87,0,0,1,.29,1.22,1.7,1.7,0,0,1-.46,1.36,1.66,1.66,0,0,1-1.12.39h-5.49a2.2,2.2,0,0,0,.45,1.43,3,3,0,0,0,1.17.92,3.43,3.43,0,0,0,1.44.33,5.93,5.93,0,0,0,.91-.06,5.16,5.16,0,0,0,.67-.15l.49-.19.37-.19a1.19,1.19,0,0,1,.31-.14.65.65,0,0,1,.34,0,.53.53,0,0,1,.25.26.77.77,0,0,1,.15.28.92.92,0,0,1,0,.29c0,.18-.15.37-.45.59a4.34,4.34,0,0,1-1.27.55A6.83,6.83,0,0,1,171.91,89Zm-3-5.3h4.77a1.23,1.23,0,0,0,.54-.1q.18-.09.18-.51a1.56,1.56,0,0,0-.32-1,2.34,2.34,0,0,0-.89-.7,3,3,0,0,0-1.28-.26,3.5,3.5,0,0,0-1.53.33,2.7,2.7,0,0,0-1.09.9A2.1,2.1,0,0,0,168.87,83.65Z"/><path class="cls-1" d="M179,88.83a1.1,1.1,0,0,1-.54-.1.46.46,0,0,1-.23-.3,1.93,1.93,0,0,1-.05-.45V80.44a1.25,1.25,0,0,1,.06-.42.43.43,0,0,1,.24-.27,1.66,1.66,0,0,1,1,0,.49.49,0,0,1,.23.18.75.75,0,0,1,.09.25,2.29,2.29,0,0,1,0,.25l0,.87a3.27,3.27,0,0,1,.47-.62,3.64,3.64,0,0,1,.67-.53,3.38,3.38,0,0,1,.82-.37,3.32,3.32,0,0,1,1-.13,4.06,4.06,0,0,1,1.54.29,3.35,3.35,0,0,1,1.21.86,4.11,4.11,0,0,1,.78,1.34,5.37,5.37,0,0,1,.27,1.76V88a2,2,0,0,1,0,.45.44.44,0,0,1-.23.29,1.25,1.25,0,0,1-.54.09,1.14,1.14,0,0,1-.56-.1.51.51,0,0,1-.24-.3,1.49,1.49,0,0,1-.06-.45V83.86a3.45,3.45,0,0,0-.26-1.39,2.06,2.06,0,0,0-.8-.92,2.46,2.46,0,0,0-1.35-.34,2.62,2.62,0,0,0-1.36.34,2.19,2.19,0,0,0-.89.92,2.88,2.88,0,0,0-.32,1.39V88a1.51,1.51,0,0,1,0,.45.49.49,0,0,1-.24.29A1.25,1.25,0,0,1,179,88.83Z"/><path class="cls-1" d="M189.07,79.86l1.82,0,2.64,0a2.07,2.07,0,0,1,.46,0,.5.5,0,0,1,.29.23,1.1,1.1,0,0,1,.1.54,1.25,1.25,0,0,1-.09.54.47.47,0,0,1-.28.24,1.56,1.56,0,0,1-.46.06l-2.6,0-1.92,0a.62.62,0,0,1-.54-.19,1,1,0,0,1-.15-.63.93.93,0,0,1,.17-.61A.76.76,0,0,1,189.07,79.86Zm4.25,9a5.93,5.93,0,0,1-1.51-.17,2.38,2.38,0,0,1-1-.53,2.06,2.06,0,0,1-.58-.94,5.36,5.36,0,0,1-.17-1.44V77.38a1.56,1.56,0,0,1,.06-.46.48.48,0,0,1,.23-.29,1,1,0,0,1,.53-.11,1.13,1.13,0,0,1,.55.11.49.49,0,0,1,.25.28,1.44,1.44,0,0,1,.06.45v8.41a2.82,2.82,0,0,0,.08.79.91.91,0,0,0,.27.45,1,1,0,0,0,.48.19,7.32,7.32,0,0,0,.74,0,2.2,2.2,0,0,1,.5.05.49.49,0,0,1,.28.23,1.15,1.15,0,0,1,.1.51,1.11,1.11,0,0,1-.11.55.45.45,0,0,1-.3.22A1.59,1.59,0,0,1,193.32,88.85Z"/><path class="cls-1" d="M200.75,89a5.17,5.17,0,0,1-2-.38A4.43,4.43,0,0,1,196.27,86a5.05,5.05,0,0,1-.33-1.84,4.56,4.56,0,0,1,.61-2.34,4.43,4.43,0,0,1,1.68-1.62,5,5,0,0,1,2.46-.6,4.73,4.73,0,0,1,1.7.29,4.18,4.18,0,0,1,1.29.79,3.68,3.68,0,0,1,.81,1.1,2.87,2.87,0,0,1,.29,1.22,1.7,1.7,0,0,1-.46,1.36,1.66,1.66,0,0,1-1.12.39h-5.49a2.2,2.2,0,0,0,.45,1.43,3,3,0,0,0,1.18.92,3.35,3.35,0,0,0,1.43.33,5.93,5.93,0,0,0,.91-.06,4.5,4.5,0,0,0,.67-.15l.49-.19.37-.19a1.12,1.12,0,0,1,.32-.14.62.62,0,0,1,.33,0,.53.53,0,0,1,.25.26,1,1,0,0,1,.16.28,1.36,1.36,0,0,1,0,.29c0,.18-.15.37-.45.59a4.34,4.34,0,0,1-1.27.55A6.78,6.78,0,0,1,200.75,89Zm-3-5.3h4.77a1.23,1.23,0,0,0,.54-.1q.18-.09.18-.51a1.56,1.56,0,0,0-.32-1,2.38,2.38,0,0,0-.88-.7,3.13,3.13,0,0,0-1.29-.26,3.56,3.56,0,0,0-1.53.33,2.77,2.77,0,0,0-1.09.9A2.1,2.1,0,0,0,197.71,83.65Z"/><path class="cls-1" d="M215,88.85a5.19,5.19,0,0,1-1.09-.1,2.57,2.57,0,0,1-.85-.34,1.82,1.82,0,0,1-.59-.58,2.5,2.5,0,0,1-.35-.88,6,6,0,0,1-.1-1.2v-9.5a2.12,2.12,0,0,1,.05-.47.44.44,0,0,1,.23-.29,1.15,1.15,0,0,1,.54-.11,1.17,1.17,0,0,1,.56.1.41.41,0,0,1,.23.28,1.56,1.56,0,0,1,.06.46v9.52a2.46,2.46,0,0,0,.08.65,1.38,1.38,0,0,0,.23.47.93.93,0,0,0,.41.26,2.05,2.05,0,0,0,.59.08,1.14,1.14,0,0,1,.39.06.43.43,0,0,1,.26.22,1.25,1.25,0,0,1,.09.54,1.33,1.33,0,0,1-.09.56.4.4,0,0,1-.26.22A1.15,1.15,0,0,1,215,88.85Z"/><path class="cls-1" d="M225.53,88.83a.83.83,0,0,1-.6-.17.79.79,0,0,1-.22-.53l.08-.95a4.55,4.55,0,0,1-.59.69,3.83,3.83,0,0,1-1,.69,3.88,3.88,0,0,1-1.58.29,4.08,4.08,0,0,1-1.7-.36,4.39,4.39,0,0,1-1.38-1,4.64,4.64,0,0,1-.93-1.48,4.59,4.59,0,0,1-.34-1.78,4.52,4.52,0,0,1,.34-1.76A4.41,4.41,0,0,1,218.5,81a4.67,4.67,0,0,1,1.39-1,4,4,0,0,1,1.68-.36,4.27,4.27,0,0,1,1.43.21,3.86,3.86,0,0,1,1,.57,5.09,5.09,0,0,1,.75.79l0-.79a.75.75,0,0,1,.18-.6.92.92,0,0,1,.64-.18.89.89,0,0,1,.52.11.57.57,0,0,1,.22.32,2.47,2.47,0,0,1,.05.52v7.33a2.12,2.12,0,0,1-.05.47.55.55,0,0,1-.23.32A1.06,1.06,0,0,1,225.53,88.83Zm-3.67-1.57a2.65,2.65,0,0,0,1.4-.4,2.89,2.89,0,0,0,1-1.08,3.11,3.11,0,0,0,.37-1.54,3.07,3.07,0,0,0-.39-1.57,3,3,0,0,0-1-1.07,2.64,2.64,0,0,0-1.4-.39,2.91,2.91,0,0,0-1.55.41,3.07,3.07,0,0,0-1,1.09,3.11,3.11,0,0,0-.38,1.56,3,3,0,0,0,.38,1.53,2.77,2.77,0,0,0,1,1.07A3.07,3.07,0,0,0,221.86,87.26Z"/><path class="cls-1" d="M238.33,88.89a5.37,5.37,0,0,1-1.85-.32,4.71,4.71,0,0,1-1.52-.93,4.35,4.35,0,0,1-1-1.46,4.85,4.85,0,0,1-.37-1.93,4.92,4.92,0,0,1,.37-1.93,4.4,4.4,0,0,1,2.53-2.38,5.35,5.35,0,0,1,1.84-.32,4,4,0,0,1,1.27.2,4.36,4.36,0,0,1,1.11.51,2.2,2.2,0,0,1,.69.66,3.4,3.4,0,0,1,.28.4.43.43,0,0,1,0,.37.83.83,0,0,1-.21.28,1.56,1.56,0,0,1-.27.2.58.58,0,0,1-.68.08,3.6,3.6,0,0,0-.47-.39c-.17-.12-.35-.23-.54-.34a2.6,2.6,0,0,0-.58-.23,2.1,2.1,0,0,0-.61-.09,3.21,3.21,0,0,0-1.58.37,2.61,2.61,0,0,0-1.06,1,3.27,3.27,0,0,0-.37,1.56,3.21,3.21,0,0,0,.37,1.56,2.72,2.72,0,0,0,1.05,1,3.12,3.12,0,0,0,1.55.38,2.87,2.87,0,0,0,.77-.11,3.44,3.44,0,0,0,.69-.28,2.51,2.51,0,0,0,.53-.39l.32-.23a.59.59,0,0,1,.33-.1.57.57,0,0,1,.32.13,1.59,1.59,0,0,1,.36.37.69.69,0,0,1,.18.36.56.56,0,0,1-.06.36,1.37,1.37,0,0,1-.31.34,3.13,3.13,0,0,1-.81.58,4.8,4.8,0,0,1-1.09.45A4.29,4.29,0,0,1,238.33,88.89Z"/><path class="cls-1" d="M251.77,88.83a.83.83,0,0,1-.6-.17.79.79,0,0,1-.22-.53l.07-.95a3.91,3.91,0,0,1-.58.69,3.83,3.83,0,0,1-1.05.69,3.91,3.91,0,0,1-1.58.29,4.08,4.08,0,0,1-1.7-.36,4.39,4.39,0,0,1-1.38-1A4.64,4.64,0,0,1,243.8,86a4.59,4.59,0,0,1-.34-1.78,4.52,4.52,0,0,1,.34-1.76,4.41,4.41,0,0,1,.94-1.46,4.67,4.67,0,0,1,1.39-1,4,4,0,0,1,1.68-.36,4.27,4.27,0,0,1,1.43.21,3.86,3.86,0,0,1,1,.57,5.09,5.09,0,0,1,.75.79l0-.79a.71.71,0,0,1,.18-.6,1.25,1.25,0,0,1,1.16-.07.62.62,0,0,1,.22.32,2.47,2.47,0,0,1,.05.52v7.33a2.12,2.12,0,0,1-.05.47.55.55,0,0,1-.23.32A1.06,1.06,0,0,1,251.77,88.83Zm-3.67-1.57a2.61,2.61,0,0,0,1.39-.4,2.83,2.83,0,0,0,1-1.08,3.11,3.11,0,0,0,.37-1.54,3.07,3.07,0,0,0-.39-1.57,3,3,0,0,0-1-1.07,2.64,2.64,0,0,0-1.4-.39,2.89,2.89,0,0,0-1.55.41,3,3,0,0,0-1,1.09,3.11,3.11,0,0,0-.38,1.56,3,3,0,0,0,.38,1.53,2.77,2.77,0,0,0,1.05,1.07A3.07,3.07,0,0,0,248.1,87.26Z"/><path class="cls-1" d="M255.87,88.87a1.1,1.1,0,0,1-.54-.1.5.5,0,0,1-.24-.31A1.51,1.51,0,0,1,255,88V76.29a1.58,1.58,0,0,1,.06-.47.51.51,0,0,1,.24-.3,1.1,1.1,0,0,1,.54-.1,1,1,0,0,1,.53.11.55.55,0,0,1,.23.31,1.49,1.49,0,0,1,.06.45v11.9a.81.81,0,0,1-.22.52A.88.88,0,0,1,255.87,88.87Zm3.95,0a4.05,4.05,0,0,1-1.69-.34,3.55,3.55,0,0,1-1.29-1,4.55,4.55,0,0,1-.83-1.46,5,5,0,0,1-.27-1.84A5.77,5.77,0,0,1,256,82.4a4.28,4.28,0,0,1,.83-1.46,3.82,3.82,0,0,1,1.29-1,4.22,4.22,0,0,1,3.32,0,4.06,4.06,0,0,1,1.35,1,4.6,4.6,0,0,1,.92,1.45,5,5,0,0,1,.33,1.83,5.07,5.07,0,0,1-.33,1.85,4.81,4.81,0,0,1-.92,1.47,4,4,0,0,1-3,1.31Zm-.25-1.61A2.74,2.74,0,0,0,262,85.8a3.23,3.23,0,0,0,.37-1.55,3.27,3.27,0,0,0-.37-1.56,2.71,2.71,0,0,0-2.47-1.44,2.75,2.75,0,0,0-1.43.38,2.78,2.78,0,0,0-1,1.06,3.27,3.27,0,0,0-.37,1.56,3.23,3.23,0,0,0,.37,1.55,2.78,2.78,0,0,0,1,1.06A2.75,2.75,0,0,0,259.57,87.24Z"/><path class="cls-1" d="M270.8,89a5.21,5.21,0,0,1-2-.38A4.43,4.43,0,0,1,266.32,86a5,5,0,0,1-.32-1.84,4.55,4.55,0,0,1,.6-2.34,4.39,4.39,0,0,1,1.69-1.62,4.93,4.93,0,0,1,2.46-.6,4.77,4.77,0,0,1,1.7.29,4.13,4.13,0,0,1,1.28.79,3.72,3.72,0,0,1,.82,1.1,2.85,2.85,0,0,1,.28,1.22,1.74,1.74,0,0,1-.45,1.36,1.69,1.69,0,0,1-1.13.39h-5.49a2.2,2.2,0,0,0,.45,1.43,3,3,0,0,0,1.18.92,3.35,3.35,0,0,0,1.43.33,5.84,5.84,0,0,0,.91-.06,4.5,4.5,0,0,0,.67-.15l.49-.19.37-.19a1.12,1.12,0,0,1,.32-.14.62.62,0,0,1,.33,0,.55.55,0,0,1,.26.26,1.3,1.3,0,0,1,.15.28,1.35,1.35,0,0,1,0,.29c0,.18-.16.37-.46.59a4.27,4.27,0,0,1-1.26.55A6.86,6.86,0,0,1,270.8,89Zm-3-5.3h4.77a1.23,1.23,0,0,0,.54-.1q.18-.09.18-.51a1.5,1.5,0,0,0-.32-1,2.38,2.38,0,0,0-.88-.7,3.09,3.09,0,0,0-1.29-.26,3.56,3.56,0,0,0-1.53.33,2.77,2.77,0,0,0-1.09.9A2.16,2.16,0,0,0,267.76,83.65Z"/><path class="cls-1" d="M277.36,88.85a.85.85,0,0,1-.62-.21.79.79,0,0,1-.22-.61.9.9,0,0,1,.07-.37.83.83,0,0,1,.22-.29l5.58-6h-4.58a1.93,1.93,0,0,1-.45,0,.45.45,0,0,1-.3-.24,1.15,1.15,0,0,1-.1-.55,1.17,1.17,0,0,1,.1-.56.5.5,0,0,1,.3-.23,2,2,0,0,1,.45,0h6.31a.9.9,0,0,1,.63.2.8.8,0,0,1,.21.59,1,1,0,0,1-.06.35.7.7,0,0,1-.15.24l-5.59,6.12h5.21a1.18,1.18,0,0,1,.45.07.46.46,0,0,1,.29.24,1.3,1.3,0,0,1,.1.56,1.11,1.11,0,0,1-.11.55.45.45,0,0,1-.3.22,1.47,1.47,0,0,1-.45,0Z"/><path class="cls-1" d="M295.22,88.83a.83.83,0,0,1-.6-.17.84.84,0,0,1-.22-.53l.08-.95a4.55,4.55,0,0,1-.59.69,3.6,3.6,0,0,1-2.62,1,4.1,4.1,0,0,1-1.71-.36,4.39,4.39,0,0,1-1.38-1,4.64,4.64,0,0,1-.93-1.48,4.78,4.78,0,0,1-.34-1.78,4.71,4.71,0,0,1,.34-1.76,4.41,4.41,0,0,1,.94-1.46,4.67,4.67,0,0,1,1.39-1,4,4,0,0,1,1.69-.36,4.25,4.25,0,0,1,1.42.21,3.86,3.86,0,0,1,1,.57,5.09,5.09,0,0,1,.75.79l0-.79a.75.75,0,0,1,.18-.6.94.94,0,0,1,.64-.18.89.89,0,0,1,.52.11.57.57,0,0,1,.22.32,2,2,0,0,1,0,.52v7.33a1.65,1.65,0,0,1,0,.47.55.55,0,0,1-.23.32A1.06,1.06,0,0,1,295.22,88.83Zm-3.67-1.57a2.65,2.65,0,0,0,1.4-.4,2.89,2.89,0,0,0,1-1.08,3.11,3.11,0,0,0,.37-1.54,3.17,3.17,0,0,0-.38-1.57,3,3,0,0,0-1-1.07,2.64,2.64,0,0,0-1.4-.39,2.91,2.91,0,0,0-1.55.41,3.07,3.07,0,0,0-1,1.09,3.11,3.11,0,0,0-.38,1.56,3,3,0,0,0,.38,1.53A2.77,2.77,0,0,0,290,86.87,3.1,3.1,0,0,0,291.55,87.26Z"/><path class="cls-1" d="M304.39,88.85a1.17,1.17,0,0,1-.55-.1.46.46,0,0,1-.23-.31,1.62,1.62,0,0,1-.05-.46V76.27a1.53,1.53,0,0,1,.06-.45.48.48,0,0,1,.24-.3,1.17,1.17,0,0,1,.55-.1,1.14,1.14,0,0,1,.56.1.46.46,0,0,1,.23.3,2,2,0,0,1,.05.47V81a4.49,4.49,0,0,1,1.11-.95,2.92,2.92,0,0,1,1.61-.42,3.77,3.77,0,0,1,3.41,2,4.74,4.74,0,0,1,.52,2.26V88a1.49,1.49,0,0,1-.06.45.5.5,0,0,1-.23.3,1.07,1.07,0,0,1-.55.1,1.17,1.17,0,0,1-.55-.1.44.44,0,0,1-.24-.31,1.6,1.6,0,0,1-.06-.46V83.86a3.28,3.28,0,0,0-.27-1.39,2,2,0,0,0-.79-.91,2.41,2.41,0,0,0-1.32-.33,2.56,2.56,0,0,0-1.77.62,2.46,2.46,0,0,0-.81,1.64V88a1.49,1.49,0,0,1-.06.45.53.53,0,0,1-.23.3A1.21,1.21,0,0,1,304.39,88.85Z"/><path class="cls-1" d="M322,88.83a.83.83,0,0,1-.6-.17.84.84,0,0,1-.22-.53l.08-.95a4.55,4.55,0,0,1-.59.69,3.6,3.6,0,0,1-2.62,1,4,4,0,0,1-1.7-.36,4.32,4.32,0,0,1-1.39-1A4.64,4.64,0,0,1,314,86a4.77,4.77,0,0,1-.33-1.78,4.71,4.71,0,0,1,.33-1.76,4.41,4.41,0,0,1,.94-1.46,4.59,4.59,0,0,1,1.4-1,4,4,0,0,1,1.68-.36,4.25,4.25,0,0,1,1.42.21,3.86,3.86,0,0,1,1,.57,5.09,5.09,0,0,1,.75.79l0-.79a.75.75,0,0,1,.18-.6.94.94,0,0,1,.64-.18.89.89,0,0,1,.52.11.57.57,0,0,1,.22.32,1.9,1.9,0,0,1,.06.52v7.33a1.63,1.63,0,0,1-.06.47.51.51,0,0,1-.23.32A1,1,0,0,1,322,88.83Zm-3.67-1.57a2.65,2.65,0,0,0,1.4-.4,3,3,0,0,0,1-1.08,3.22,3.22,0,0,0,.37-1.54,3.07,3.07,0,0,0-.39-1.57,3,3,0,0,0-1-1.07,2.62,2.62,0,0,0-1.4-.39,2.91,2.91,0,0,0-1.55.41,3.07,3.07,0,0,0-1,1.09,3.22,3.22,0,0,0-.38,1.56,3.1,3.1,0,0,0,.38,1.53,2.84,2.84,0,0,0,1.05,1.07A3.1,3.1,0,0,0,318.3,87.26Z"/><path class="cls-1" d="M329.66,88.89a5.37,5.37,0,0,1-1.85-.32,4.71,4.71,0,0,1-1.52-.93,4.35,4.35,0,0,1-1-1.46,4.85,4.85,0,0,1-.37-1.93,4.92,4.92,0,0,1,.37-1.93,4.4,4.4,0,0,1,2.53-2.38,5.35,5.35,0,0,1,1.84-.32,4,4,0,0,1,1.27.2,4.36,4.36,0,0,1,1.11.51,2.2,2.2,0,0,1,.69.66,3.4,3.4,0,0,1,.28.4.43.43,0,0,1,0,.37.83.83,0,0,1-.21.28,1.56,1.56,0,0,1-.27.2.58.58,0,0,1-.68.08,3,3,0,0,0-.47-.39c-.17-.12-.35-.23-.54-.34a2.6,2.6,0,0,0-.58-.23,2,2,0,0,0-.61-.09,3.21,3.21,0,0,0-1.58.37,2.61,2.61,0,0,0-1.06,1,3.27,3.27,0,0,0-.37,1.56,3.21,3.21,0,0,0,.37,1.56,2.72,2.72,0,0,0,1.05,1,3.12,3.12,0,0,0,1.55.38,2.87,2.87,0,0,0,.77-.11,3.22,3.22,0,0,0,.69-.28,2.28,2.28,0,0,0,.53-.39l.33-.23a.53.53,0,0,1,.32-.1.57.57,0,0,1,.32.13,1.41,1.41,0,0,1,.36.37.69.69,0,0,1,.18.36.56.56,0,0,1-.06.36,1.37,1.37,0,0,1-.31.34,3.13,3.13,0,0,1-.81.58,4.8,4.8,0,0,1-1.09.45A4.29,4.29,0,0,1,329.66,88.89Z"/><path class="cls-1" d="M336.2,77.38a1.29,1.29,0,0,1-.63-.13.56.56,0,0,1-.27-.35,1.7,1.7,0,0,1-.07-.53,1.58,1.58,0,0,1,.08-.52.54.54,0,0,1,.28-.33,1.47,1.47,0,0,1,.63-.1,1.41,1.41,0,0,1,.61.11.57.57,0,0,1,.27.34,1.77,1.77,0,0,1,.07.54,1.64,1.64,0,0,1-.07.52.55.55,0,0,1-.27.33A1.3,1.3,0,0,1,336.2,77.38Zm0,11.47a1.1,1.1,0,0,1-.54-.1.51.51,0,0,1-.24-.3,1.49,1.49,0,0,1-.06-.45V80.49a1.44,1.44,0,0,1,.06-.45.46.46,0,0,1,.24-.29,1.29,1.29,0,0,1,.56-.09,1,1,0,0,1,.53.1.55.55,0,0,1,.23.29,1.65,1.65,0,0,1,.06.48V88a1.49,1.49,0,0,1-.06.45.49.49,0,0,1-.24.29A1.25,1.25,0,0,1,336.2,88.85Z"/><path class="cls-1" d="M347.64,88.83a.83.83,0,0,1-.6-.17.84.84,0,0,1-.22-.53l.08-.95a4.55,4.55,0,0,1-.59.69,3.6,3.6,0,0,1-2.62,1,4.1,4.1,0,0,1-1.71-.36,4.39,4.39,0,0,1-1.38-1,4.64,4.64,0,0,1-.93-1.48,4.78,4.78,0,0,1-.34-1.78,4.71,4.71,0,0,1,.34-1.76,4.41,4.41,0,0,1,.94-1.46A4.67,4.67,0,0,1,342,80a4,4,0,0,1,1.69-.36,4.25,4.25,0,0,1,1.42.21,3.86,3.86,0,0,1,1,.57,5.09,5.09,0,0,1,.75.79l0-.79a.75.75,0,0,1,.18-.6.94.94,0,0,1,.64-.18.89.89,0,0,1,.52.11.57.57,0,0,1,.22.32,2,2,0,0,1,.05.52v7.33a1.65,1.65,0,0,1-.05.47.55.55,0,0,1-.23.32A1.06,1.06,0,0,1,347.64,88.83ZM344,87.26a2.65,2.65,0,0,0,1.4-.4,2.89,2.89,0,0,0,1-1.08,3.11,3.11,0,0,0,.37-1.54,3.17,3.17,0,0,0-.38-1.57,3,3,0,0,0-1-1.07,2.64,2.64,0,0,0-1.4-.39,2.91,2.91,0,0,0-1.55.41,3.07,3.07,0,0,0-1,1.09,3.11,3.11,0,0,0-.38,1.56,3,3,0,0,0,.38,1.53,2.77,2.77,0,0,0,1,1.07A3.1,3.1,0,0,0,344,87.26Z"/><path class="cls-1" d="M359,88.85a5.12,5.12,0,0,1-1.09-.1,2.41,2.41,0,0,1-.85-.34,2,2,0,0,1-.6-.58,2.49,2.49,0,0,1-.34-.88,6,6,0,0,1-.1-1.2v-9.5a2.17,2.17,0,0,1,0-.47.46.46,0,0,1,.24-.29,1.46,1.46,0,0,1,1.09,0,.45.45,0,0,1,.24.28,1.56,1.56,0,0,1,.06.46v9.52a2.49,2.49,0,0,0,.07.65,1.23,1.23,0,0,0,.24.47.93.93,0,0,0,.41.26,2,2,0,0,0,.59.08,1.14,1.14,0,0,1,.39.06.41.41,0,0,1,.25.22,1.1,1.1,0,0,1,.1.54,1.17,1.17,0,0,1-.1.56.39.39,0,0,1-.25.22A1.15,1.15,0,0,1,359,88.85Z"/><path class="cls-1" d="M369.56,88.83a.84.84,0,0,1-.6-.17.79.79,0,0,1-.21-.53l.07-.95a3.9,3.9,0,0,1-1.63,1.38,3.91,3.91,0,0,1-1.58.29,4.05,4.05,0,0,1-1.7-.36,4.32,4.32,0,0,1-1.39-1,4.74,4.74,0,0,1-1.26-3.26,4.71,4.71,0,0,1,.33-1.76,4.57,4.57,0,0,1,.94-1.46,4.72,4.72,0,0,1,1.4-1,4,4,0,0,1,1.68-.36,4.31,4.31,0,0,1,1.43.21,3.64,3.64,0,0,1,1,.57,4.3,4.3,0,0,1,.75.79l0-.79a.68.68,0,0,1,.18-.6.91.91,0,0,1,.63-.18.87.87,0,0,1,.52.11.52.52,0,0,1,.22.32,1.9,1.9,0,0,1,.06.52v7.33a1.63,1.63,0,0,1-.06.47.5.5,0,0,1-.22.32A1.1,1.1,0,0,1,369.56,88.83Zm-3.66-1.57a2.61,2.61,0,0,0,1.39-.4,2.91,2.91,0,0,0,1-1.08,3.11,3.11,0,0,0,.37-1.54,3.07,3.07,0,0,0-.39-1.57,2.94,2.94,0,0,0-1-1.07,2.58,2.58,0,0,0-1.39-.39,2.89,2.89,0,0,0-1.55.41,3.1,3.1,0,0,0-1,1.09,3.22,3.22,0,0,0-.38,1.56,3.1,3.1,0,0,0,.38,1.53,2.86,2.86,0,0,0,1.06,1.07A3.07,3.07,0,0,0,365.9,87.26Z"/><path class="cls-1" d="M378.74,88.85a1.17,1.17,0,0,1-.55-.1.44.44,0,0,1-.24-.31,2.09,2.09,0,0,1-.05-.46V76.27a1.53,1.53,0,0,1,.06-.45.49.49,0,0,1,.25-.3,1.15,1.15,0,0,1,.55-.1,1.17,1.17,0,0,1,.56.1.46.46,0,0,1,.23.3,2.11,2.11,0,0,1,0,.47V81a4.73,4.73,0,0,1,1.12-.95,2.89,2.89,0,0,1,1.6-.42,3.86,3.86,0,0,1,2,.52,3.81,3.81,0,0,1,1.4,1.47,4.63,4.63,0,0,1,.52,2.26V88a1.51,1.51,0,0,1-.05.45.53.53,0,0,1-.23.3,1.1,1.1,0,0,1-.55.1,1.15,1.15,0,0,1-.55-.1.49.49,0,0,1-.25-.31,1.6,1.6,0,0,1-.06-.46V83.86a3.45,3.45,0,0,0-.26-1.39,2,2,0,0,0-.79-.91,2.44,2.44,0,0,0-1.32-.33,2.61,2.61,0,0,0-1.78.62,2.51,2.51,0,0,0-.81,1.64V88a1.51,1.51,0,0,1,0,.45.51.51,0,0,1-.24.3A1.17,1.17,0,0,1,378.74,88.85Z"/><path class="cls-1" d="M392.65,89a4.49,4.49,0,0,1-1.78-.36,5.3,5.3,0,0,1-1.51-1,4.71,4.71,0,0,1-1-1.49,4.44,4.44,0,0,1-.38-1.87,4.63,4.63,0,0,1,.36-1.83,4.71,4.71,0,0,1,1-1.49,4.86,4.86,0,0,1,1.5-1,4.54,4.54,0,0,1,1.81-.37,4.64,4.64,0,0,1,4.05,2.3,4.71,4.71,0,0,1,.62,2.4,4.54,4.54,0,0,1-.38,1.9,4.64,4.64,0,0,1-1,1.5,4.87,4.87,0,0,1-1.48,1A4.39,4.39,0,0,1,392.65,89Zm0-1.66a2.84,2.84,0,0,0,1.48-.4,3,3,0,0,0,1.1-1.1,3,3,0,0,0,.42-1.59,3.11,3.11,0,0,0-.39-1.58,2.82,2.82,0,0,0-1.07-1.07,3.21,3.21,0,0,0-1.56-.37,3,3,0,0,0-1.51.39A3,3,0,0,0,390,82.68a2.89,2.89,0,0,0-.41,1.56,3,3,0,0,0,1.53,2.68A3,3,0,0,0,392.61,87.31Z"/><path class="cls-1" d="M397.44,92.56a1.45,1.45,0,0,1-.44-.07.51.51,0,0,1-.3-.24,1,1,0,0,1-.1-.53,1,1,0,0,1,.1-.51A.53.53,0,0,1,397,91a1.52,1.52,0,0,1,.45-.07,4.61,4.61,0,0,0,.84-.07,1.67,1.67,0,0,0,.72-.31,1.46,1.46,0,0,0,.5-.67,3.12,3.12,0,0,0,.18-1.15V80.44a1.61,1.61,0,0,1,.05-.42.5.5,0,0,1,.24-.28,1.1,1.1,0,0,1,.54-.1,1,1,0,0,1,.52.1.44.44,0,0,1,.24.31,1.56,1.56,0,0,1,.06.46V88.7a4.52,4.52,0,0,1-.3,1.72A3.25,3.25,0,0,1,399,92.33,5,5,0,0,1,397.44,92.56Zm3.05-15.2a1,1,0,0,1-.75-.22,1.17,1.17,0,0,1-.19-.77,1,1,0,0,1,.2-.75,1.14,1.14,0,0,1,.76-.2,1,1,0,0,1,.75.22,1,1,0,0,1-.77,1.72Z"/><path class="cls-1" d="M412.08,88.83a.82.82,0,0,1-.59-.17.79.79,0,0,1-.22-.53l.07-.95a3.9,3.9,0,0,1-1.63,1.38,3.91,3.91,0,0,1-1.58.29,4.05,4.05,0,0,1-1.7-.36,4.28,4.28,0,0,1-1.38-1,4.85,4.85,0,0,1-.94-1.48,4.77,4.77,0,0,1-.33-1.78A4.59,4.59,0,0,1,405.05,81a4.85,4.85,0,0,1,1.4-1,4,4,0,0,1,1.68-.36,4.27,4.27,0,0,1,1.43.21,3.64,3.64,0,0,1,1,.57,4.3,4.3,0,0,1,.75.79l0-.79a.68.68,0,0,1,.18-.6.91.91,0,0,1,.63-.18.93.93,0,0,1,.53.11.55.55,0,0,1,.21.32,1.9,1.9,0,0,1,.06.52v7.33a1.63,1.63,0,0,1-.06.47.5.5,0,0,1-.22.32A1.08,1.08,0,0,1,412.08,88.83Zm-3.66-1.57a2.61,2.61,0,0,0,1.39-.4,2.91,2.91,0,0,0,1-1.08,3.11,3.11,0,0,0,.37-1.54,3.07,3.07,0,0,0-.39-1.57,3,3,0,0,0-1-1.07,2.64,2.64,0,0,0-1.4-.39,2.89,2.89,0,0,0-1.55.41,3,3,0,0,0-1,1.09,3.11,3.11,0,0,0-.38,1.56,3,3,0,0,0,.38,1.53,2.77,2.77,0,0,0,1.05,1.07A3.07,3.07,0,0,0,408.42,87.26Z"/><path class="cls-1" d="M415.6,90.37a.27.27,0,0,1-.17-.12.56.56,0,0,1-.06-.3c0-.2,0-.33.09-.38a.19.19,0,0,1,.12-.07.9.9,0,0,1,.21-.18.81.81,0,0,0,.25-.58.77.77,0,0,1-.27-.08,1,1,0,0,1-.21-.15.51.51,0,0,1-.17-.35c0-.15,0-.28,0-.41a2.42,2.42,0,0,1,0-.47.54.54,0,0,1,.25-.38,1.4,1.4,0,0,1,.72-.14,1.14,1.14,0,0,1,.8.23.57.57,0,0,1,.16.34,3.15,3.15,0,0,1,0,.44V88a1,1,0,0,1,0,.21,2.84,2.84,0,0,1-.29,1.07,2.33,2.33,0,0,1-.62.81A1.32,1.32,0,0,1,415.6,90.37Z"/><path class="cls-1" d="M33.19,114a5.39,5.39,0,0,1-.95-.1,5.26,5.26,0,0,1-1-.27,4.21,4.21,0,0,1-.82-.43,1.91,1.91,0,0,1-.52-.55,1.16,1.16,0,0,1-.11-.35.59.59,0,0,1,.06-.32,1.15,1.15,0,0,1,.22-.3.5.5,0,0,1,.38-.22.88.88,0,0,1,.48.26l.49.29a5,5,0,0,0,1.21.5,2.89,2.89,0,0,0,2-.25,1,1,0,0,0,.53-.89,1.09,1.09,0,0,0-.13-.55,1.33,1.33,0,0,0-.36-.39,3.05,3.05,0,0,0-.51-.27,5.93,5.93,0,0,0-.64-.22l-.69-.2c-.34-.09-.68-.19-1-.3a3.91,3.91,0,0,1-.89-.45,2.18,2.18,0,0,1-.65-.7,2.22,2.22,0,0,1-.25-1.09,2.34,2.34,0,0,1,.4-1.35,2.63,2.63,0,0,1,1.12-.89,4.26,4.26,0,0,1,1.7-.31,4.72,4.72,0,0,1,.77.06,2.67,2.67,0,0,1,.7.18,4.46,4.46,0,0,1,.63.28,3.76,3.76,0,0,1,.59.39.68.68,0,0,1,.36.49.78.78,0,0,1-.2.56.89.89,0,0,1-.38.31.43.43,0,0,1-.42-.11,4.3,4.3,0,0,0-.65-.39,4.7,4.7,0,0,0-.7-.29,2.33,2.33,0,0,0-.74-.11,2.26,2.26,0,0,0-.85.14,1.13,1.13,0,0,0-.57.42,1,1,0,0,0-.2.62.78.78,0,0,0,.16.49,1.37,1.37,0,0,0,.42.32,3.53,3.53,0,0,0,.61.24l.73.2c.37.09.75.19,1.13.31a4.21,4.21,0,0,1,1,.48,2.27,2.27,0,0,1,.76.78,2.5,2.5,0,0,1,.29,1.28,2.34,2.34,0,0,1-1,2A4.35,4.35,0,0,1,33.19,114Z"/><path class="cls-1" d="M40.07,102.38a1.29,1.29,0,0,1-.63-.13.56.56,0,0,1-.27-.35,1.7,1.7,0,0,1-.07-.53,1.58,1.58,0,0,1,.08-.52.54.54,0,0,1,.28-.33,1.47,1.47,0,0,1,.63-.1,1.38,1.38,0,0,1,.61.11.54.54,0,0,1,.27.34,1.77,1.77,0,0,1,.07.54,1.64,1.64,0,0,1-.07.52.52.52,0,0,1-.27.33A1.3,1.3,0,0,1,40.07,102.38Zm0,11.47a1.1,1.1,0,0,1-.54-.1.51.51,0,0,1-.24-.3,1.49,1.49,0,0,1-.06-.45v-7.51a1.44,1.44,0,0,1,.06-.45.46.46,0,0,1,.24-.29,1.33,1.33,0,0,1,.56-.09,1,1,0,0,1,.53.1.55.55,0,0,1,.23.29,1.65,1.65,0,0,1,.06.48V113a1.49,1.49,0,0,1-.06.45.49.49,0,0,1-.24.29A1.25,1.25,0,0,1,40.07,113.85Z"/><path class="cls-1" d="M44.52,113.83a1.12,1.12,0,0,1-.55-.1.45.45,0,0,1-.22-.3,1.51,1.51,0,0,1,0-.45v-7.54a1.25,1.25,0,0,1,.06-.42.41.41,0,0,1,.23-.27,1.25,1.25,0,0,1,.54-.09,1.36,1.36,0,0,1,.45.06.54.54,0,0,1,.23.18.73.73,0,0,1,.08.25,1.1,1.1,0,0,1,0,.25l0,.87a3.27,3.27,0,0,1,.47-.62,3.64,3.64,0,0,1,.67-.53,3.21,3.21,0,0,1,.82-.37,3.32,3.32,0,0,1,1-.13,4.06,4.06,0,0,1,1.54.29,3.35,3.35,0,0,1,1.21.86,4.11,4.11,0,0,1,.78,1.34,5.37,5.37,0,0,1,.27,1.76V113a1.51,1.51,0,0,1,0,.45.43.43,0,0,1-.22.29,1.3,1.3,0,0,1-.55.09,1.17,1.17,0,0,1-.56-.1.46.46,0,0,1-.23-.3,1.49,1.49,0,0,1-.06-.45v-4.12a3.28,3.28,0,0,0-.27-1.39,2,2,0,0,0-.79-.92,2.46,2.46,0,0,0-1.35-.34,2.59,2.59,0,0,0-1.36.34,2.14,2.14,0,0,0-.89.92,2.88,2.88,0,0,0-.32,1.39V113a1.49,1.49,0,0,1-.06.45.44.44,0,0,1-.23.29A1.25,1.25,0,0,1,44.52,113.83Z"/><path class="cls-1" d="M67.49,113.83a.83.83,0,0,1-.6-.17.84.84,0,0,1-.22-.53l.08-.95a4.55,4.55,0,0,1-.59.69,3.6,3.6,0,0,1-2.62,1,4.1,4.1,0,0,1-1.71-.36,4.39,4.39,0,0,1-1.38-1,4.64,4.64,0,0,1-.93-1.48,4.59,4.59,0,0,1-.34-1.78,4.52,4.52,0,0,1,.34-1.76,4.41,4.41,0,0,1,.94-1.46,4.67,4.67,0,0,1,1.39-1,4,4,0,0,1,1.69-.36,4.25,4.25,0,0,1,1.42.21,3.86,3.86,0,0,1,1,.57,5.09,5.09,0,0,1,.75.79l0-.79a.75.75,0,0,1,.18-.6.92.92,0,0,1,.64-.18.89.89,0,0,1,.52.11.57.57,0,0,1,.22.32,2,2,0,0,1,0,.52v7.33a1.65,1.65,0,0,1,0,.47.55.55,0,0,1-.23.32A1.06,1.06,0,0,1,67.49,113.83Zm-3.67-1.57a2.65,2.65,0,0,0,1.4-.4,2.89,2.89,0,0,0,1-1.08,3.11,3.11,0,0,0,.37-1.54,3.07,3.07,0,0,0-.39-1.57,3,3,0,0,0-1-1.07,2.64,2.64,0,0,0-1.4-.39,2.91,2.91,0,0,0-1.55.41,3.07,3.07,0,0,0-1,1.09,3.11,3.11,0,0,0-.38,1.56,3,3,0,0,0,.38,1.53,2.77,2.77,0,0,0,1,1.07A3.07,3.07,0,0,0,63.82,112.26Z"/><path class="cls-1" d="M75.18,113.89a5.37,5.37,0,0,1-1.85-.32,4.71,4.71,0,0,1-1.52-.93,4.35,4.35,0,0,1-1-1.46,4.85,4.85,0,0,1-.37-1.93,4.92,4.92,0,0,1,.37-1.93,4.4,4.4,0,0,1,2.53-2.38,5.34,5.34,0,0,1,1.83-.32,4,4,0,0,1,1.28.2,4.53,4.53,0,0,1,1.11.51,2.2,2.2,0,0,1,.69.66,3.4,3.4,0,0,1,.28.4.47.47,0,0,1,0,.37.83.83,0,0,1-.21.28,1.56,1.56,0,0,1-.27.2.58.58,0,0,1-.68.08,3.6,3.6,0,0,0-.47-.39c-.17-.12-.35-.23-.54-.34a2.6,2.6,0,0,0-.58-.23,2.11,2.11,0,0,0-.62-.09,3.2,3.2,0,0,0-1.57.37,2.61,2.61,0,0,0-1.06,1,3.16,3.16,0,0,0-.37,1.56,3.1,3.1,0,0,0,.37,1.56,2.72,2.72,0,0,0,1,1,3.12,3.12,0,0,0,1.55.38,2.87,2.87,0,0,0,.77-.11,3.44,3.44,0,0,0,.69-.28,2.51,2.51,0,0,0,.53-.39l.32-.23a.59.59,0,0,1,.33-.1.57.57,0,0,1,.32.13,1.82,1.82,0,0,1,.36.37.69.69,0,0,1,.18.36.5.5,0,0,1-.07.36,1.15,1.15,0,0,1-.3.34,3.13,3.13,0,0,1-.81.58,4.8,4.8,0,0,1-1.09.45A4.29,4.29,0,0,1,75.18,113.89Z"/><path class="cls-1" d="M85.12,114a5.17,5.17,0,0,1-2-.38,4.56,4.56,0,0,1-1.52-1,4.63,4.63,0,0,1-.94-1.51,5.27,5.27,0,0,1-.32-1.84,4.46,4.46,0,0,1,.61-2.34,4.36,4.36,0,0,1,1.68-1.62,5,5,0,0,1,2.46-.6,4.77,4.77,0,0,1,1.7.29,4,4,0,0,1,1.28.79,3.55,3.55,0,0,1,.82,1.1,2.87,2.87,0,0,1,.29,1.22,1.74,1.74,0,0,1-.46,1.36,1.66,1.66,0,0,1-1.12.39H82.08a2.15,2.15,0,0,0,.45,1.43,3,3,0,0,0,1.17.92,3.43,3.43,0,0,0,1.44.33,5.93,5.93,0,0,0,.91-.06,4.64,4.64,0,0,0,.66-.15l.5-.19.37-.19a1.19,1.19,0,0,1,.31-.14.65.65,0,0,1,.34,0,.53.53,0,0,1,.25.26.77.77,0,0,1,.15.28.92.92,0,0,1,0,.29c0,.18-.15.37-.45.59a4.34,4.34,0,0,1-1.27.55A6.83,6.83,0,0,1,85.12,114Zm-3-5.3h4.77a1.23,1.23,0,0,0,.54-.1q.18-.09.18-.51a1.56,1.56,0,0,0-.32-1,2.34,2.34,0,0,0-.89-.7,3,3,0,0,0-1.28-.26,3.5,3.5,0,0,0-1.53.33,2.7,2.7,0,0,0-1.09.9A2.1,2.1,0,0,0,82.08,108.65Z"/><path class="cls-1" d="M92.17,113.85a1.1,1.1,0,0,1-.54-.1.46.46,0,0,1-.23-.31,2.09,2.09,0,0,1-.05-.46v-7.49a1.53,1.53,0,0,1,.06-.47.43.43,0,0,1,.23-.28,1.83,1.83,0,0,1,1.07,0A.51.51,0,0,1,93,105a1.06,1.06,0,0,1,.06.37l-.07.57a2.87,2.87,0,0,1,.31-.49,1.79,1.79,0,0,1,.46-.45,2.26,2.26,0,0,1,.66-.33,3,3,0,0,1,1-.14,3.1,3.1,0,0,1,.54,0,2.85,2.85,0,0,1,.5.14,2.48,2.48,0,0,1,.4.22,1,1,0,0,1,.28.27.52.52,0,0,1,.1.33,1,1,0,0,1-.26.71.75.75,0,0,1-.55.3.65.65,0,0,1-.36-.07,1.64,1.64,0,0,1-.22-.14,1.05,1.05,0,0,0-.3-.14,1.77,1.77,0,0,0-.6-.07,1.91,1.91,0,0,0-.6.11,2.25,2.25,0,0,0-.6.34,1.62,1.62,0,0,0-.47.56,1.65,1.65,0,0,0-.18.79V113a1.93,1.93,0,0,1,0,.45.49.49,0,0,1-.24.29A1.33,1.33,0,0,1,92.17,113.85Z"/><path class="cls-1" d="M103.66,113.89a5.37,5.37,0,0,1-1.85-.32,4.71,4.71,0,0,1-1.52-.93,4.35,4.35,0,0,1-1-1.46,4.85,4.85,0,0,1-.37-1.93,4.92,4.92,0,0,1,.37-1.93,4.4,4.4,0,0,1,2.53-2.38,5.34,5.34,0,0,1,1.83-.32,4,4,0,0,1,1.28.2,4.36,4.36,0,0,1,1.11.51,2.2,2.2,0,0,1,.69.66,3.4,3.4,0,0,1,.28.4.47.47,0,0,1,0,.37.83.83,0,0,1-.21.28,1.56,1.56,0,0,1-.27.2.58.58,0,0,1-.68.08,3.6,3.6,0,0,0-.47-.39c-.17-.12-.35-.23-.54-.34a2.6,2.6,0,0,0-.58-.23,2.06,2.06,0,0,0-.62-.09,3.2,3.2,0,0,0-1.57.37,2.61,2.61,0,0,0-1.06,1,3.27,3.27,0,0,0-.37,1.56,3.21,3.21,0,0,0,.37,1.56,2.72,2.72,0,0,0,1.05,1,3.12,3.12,0,0,0,1.55.38,2.87,2.87,0,0,0,.77-.11,3.44,3.44,0,0,0,.69-.28,2.51,2.51,0,0,0,.53-.39l.32-.23a.59.59,0,0,1,.33-.1.57.57,0,0,1,.32.13,1.82,1.82,0,0,1,.36.37.69.69,0,0,1,.18.36.56.56,0,0,1-.06.36,1.37,1.37,0,0,1-.31.34,3.13,3.13,0,0,1-.81.58,4.8,4.8,0,0,1-1.09.45A4.29,4.29,0,0,1,103.66,113.89Z"/><path class="cls-1" d="M117.09,113.83a.82.82,0,0,1-.59-.17.79.79,0,0,1-.22-.53l.07-.95a3.9,3.9,0,0,1-1.63,1.38,3.91,3.91,0,0,1-1.58.29,4.05,4.05,0,0,1-1.7-.36,4.28,4.28,0,0,1-1.38-1,4.85,4.85,0,0,1-.94-1.48,4.77,4.77,0,0,1-.33-1.78,4.71,4.71,0,0,1,.33-1.76,4.6,4.6,0,0,1,.95-1.46,4.67,4.67,0,0,1,1.39-1,4,4,0,0,1,1.68-.36,4.27,4.27,0,0,1,1.43.21,3.64,3.64,0,0,1,1,.57,4.72,4.72,0,0,1,.76.79l0-.79a.68.68,0,0,1,.18-.6.91.91,0,0,1,.63-.18.93.93,0,0,1,.53.11.62.62,0,0,1,.22.32,2.47,2.47,0,0,1,0,.52v7.33a2.12,2.12,0,0,1,0,.47.55.55,0,0,1-.23.32A1.08,1.08,0,0,1,117.09,113.83Zm-3.66-1.57a2.61,2.61,0,0,0,1.39-.4,2.91,2.91,0,0,0,1-1.08,3.11,3.11,0,0,0,.37-1.54,3.07,3.07,0,0,0-.39-1.57,3,3,0,0,0-1-1.07,2.64,2.64,0,0,0-1.4-.39,2.89,2.89,0,0,0-1.55.41,3,3,0,0,0-1,1.09,3.11,3.11,0,0,0-.38,1.56,3,3,0,0,0,.38,1.53,2.77,2.77,0,0,0,1,1.07A3.07,3.07,0,0,0,113.43,112.26Z"/><path class="cls-1" d="M121.29,113.85a1.1,1.1,0,0,1-.54-.1.49.49,0,0,1-.23-.31,2.13,2.13,0,0,1,0-.46v-7.49a2,2,0,0,1,0-.47.46.46,0,0,1,.23-.28,1.3,1.3,0,0,1,.55-.08,1.28,1.28,0,0,1,.53.08.45.45,0,0,1,.24.25.87.87,0,0,1,.07.37l-.08.57a3.74,3.74,0,0,1,.32-.49,1.92,1.92,0,0,1,.45-.45,2.46,2.46,0,0,1,.67-.33,3,3,0,0,1,1-.14,3.1,3.1,0,0,1,.54,0,2.75,2.75,0,0,1,.49.14,2.22,2.22,0,0,1,.41.22,1,1,0,0,1,.28.27.52.52,0,0,1,.1.33,1,1,0,0,1-.26.71.77.77,0,0,1-.56.3.7.7,0,0,1-.36-.07l-.22-.14a1,1,0,0,0-.29-.14,1.84,1.84,0,0,0-.61-.07,1.91,1.91,0,0,0-.6.11,2.06,2.06,0,0,0-.59.34,1.62,1.62,0,0,0-.47.56,1.65,1.65,0,0,0-.18.79V113a1.49,1.49,0,0,1-.06.45.49.49,0,0,1-.24.29A1.29,1.29,0,0,1,121.29,113.85Z"/><path class="cls-1" d="M131.52,114a5.2,5.2,0,0,1-1-.1,5.26,5.26,0,0,1-1-.27,3.94,3.94,0,0,1-.82-.43,1.67,1.67,0,0,1-.52-.55,1,1,0,0,1-.12-.35.59.59,0,0,1,.06-.32,1.2,1.2,0,0,1,.23-.3.47.47,0,0,1,.38-.22.89.89,0,0,1,.47.26l.5.29a5.39,5.39,0,0,0,.59.29,6.26,6.26,0,0,0,.61.21,2.7,2.7,0,0,0,.62.08,2.68,2.68,0,0,0,1.41-.33,1,1,0,0,0,.53-.89,1.21,1.21,0,0,0-.13-.55,1.24,1.24,0,0,0-.37-.39,3.05,3.05,0,0,0-.51-.27,5.93,5.93,0,0,0-.64-.22l-.69-.2c-.34-.09-.68-.19-1-.3a4.13,4.13,0,0,1-.89-.45,2.15,2.15,0,0,1-.64-.7,2.12,2.12,0,0,1-.25-1.09,2.27,2.27,0,0,1,.4-1.35,2.57,2.57,0,0,1,1.12-.89,4.18,4.18,0,0,1,1.69-.31,4.75,4.75,0,0,1,.78.06,2.7,2.7,0,0,1,.69.18,4.59,4.59,0,0,1,.64.28,4.29,4.29,0,0,1,.59.39.68.68,0,0,1,.36.49.84.84,0,0,1-.21.56.79.79,0,0,1-.38.31.43.43,0,0,1-.42-.11,4.21,4.21,0,0,0-.64-.39,4.81,4.81,0,0,0-.71-.29,2.33,2.33,0,0,0-.74-.11,2.18,2.18,0,0,0-.84.14,1.13,1.13,0,0,0-.57.42,1,1,0,0,0-.2.62.72.72,0,0,0,.16.49,1.26,1.26,0,0,0,.42.32,3.4,3.4,0,0,0,.6.24c.24.07.48.14.74.2s.74.19,1.13.31a4.31,4.31,0,0,1,1,.48,2.27,2.27,0,0,1,.76.78,2.4,2.4,0,0,1,.3,1.28,2.34,2.34,0,0,1-1,2A4.37,4.37,0,0,1,131.52,114Z"/><path class="cls-1" d="M141.79,114a5.21,5.21,0,0,1-2-.38,4.52,4.52,0,0,1-1.51-1,4.63,4.63,0,0,1-.94-1.51,5.27,5.27,0,0,1-.32-1.84,4.46,4.46,0,0,1,.61-2.34,4.29,4.29,0,0,1,1.68-1.62,4.93,4.93,0,0,1,2.46-.6,4.77,4.77,0,0,1,1.7.29,4,4,0,0,1,1.28.79,3.55,3.55,0,0,1,.82,1.1,2.85,2.85,0,0,1,.28,1.22,1.74,1.74,0,0,1-.45,1.36,1.68,1.68,0,0,1-1.12.39h-5.5a2.2,2.2,0,0,0,.45,1.43,3,3,0,0,0,1.18.92,3.35,3.35,0,0,0,1.43.33,6.07,6.07,0,0,0,.92-.06,4.64,4.64,0,0,0,.66-.15l.49-.19.38-.19a1.06,1.06,0,0,1,.31-.14.62.62,0,0,1,.33,0,.55.55,0,0,1,.26.26,1.3,1.3,0,0,1,.15.28.92.92,0,0,1,0,.29c0,.18-.15.37-.46.59a4.15,4.15,0,0,1-1.26.55A6.86,6.86,0,0,1,141.79,114Zm-3-5.3h4.77a1.32,1.32,0,0,0,.55-.1q.18-.09.18-.51a1.51,1.51,0,0,0-.33-1,2.3,2.3,0,0,0-.88-.7,3,3,0,0,0-1.28-.26,3.5,3.5,0,0,0-1.53.33,2.73,2.73,0,0,0-1.1.9A2.16,2.16,0,0,0,138.75,108.65Z"/><path class="cls-1" d="M157.09,113.85a4.06,4.06,0,0,1-3-1.31,4.61,4.61,0,0,1-.91-1.47,4.87,4.87,0,0,1-.34-1.85,4.77,4.77,0,0,1,.34-1.83,4.41,4.41,0,0,1,.91-1.45,4.1,4.1,0,0,1,1.36-1,4.2,4.2,0,0,1,3.31,0,3.82,3.82,0,0,1,1.29,1,4.28,4.28,0,0,1,.83,1.46,5.77,5.77,0,0,1,.28,1.84,5,5,0,0,1-.27,1.84,4.55,4.55,0,0,1-.83,1.46,3.6,3.6,0,0,1-1.28,1A4,4,0,0,1,157.09,113.85Zm.25-1.61a2.75,2.75,0,0,0,1.43-.38,2.78,2.78,0,0,0,1-1.06,3.12,3.12,0,0,0,.37-1.55,3.16,3.16,0,0,0-.37-1.56,2.78,2.78,0,0,0-1-1.06,2.75,2.75,0,0,0-1.43-.38,2.83,2.83,0,0,0-1.45.38,2.71,2.71,0,0,0-1,1.06,3.16,3.16,0,0,0-.37,1.56,3.12,3.12,0,0,0,.37,1.55,2.74,2.74,0,0,0,1,1.06A2.87,2.87,0,0,0,157.34,112.24Zm3.72,1.61a1,1,0,0,1-.61-.15.72.72,0,0,1-.22-.51v-11.9a2.11,2.11,0,0,1,0-.47.46.46,0,0,1,.23-.3,1.51,1.51,0,0,1,1.08,0,.51.51,0,0,1,.24.3,1.53,1.53,0,0,1,.06.45V113a1.6,1.6,0,0,1-.06.46.49.49,0,0,1-.23.31A1,1,0,0,1,161.06,113.85Z"/><path class="cls-1" d="M168.87,114a5.17,5.17,0,0,1-2-.38,4.42,4.42,0,0,1-1.51-1,4.32,4.32,0,0,1-.94-1.51,5.05,5.05,0,0,1-.33-1.84,4.39,4.39,0,0,1,2.29-4,5,5,0,0,1,2.46-.6,4.73,4.73,0,0,1,1.7.29,4.18,4.18,0,0,1,1.29.79,3.68,3.68,0,0,1,.81,1.1,2.87,2.87,0,0,1,.29,1.22,1.7,1.7,0,0,1-.46,1.36,1.66,1.66,0,0,1-1.12.39h-5.49a2.2,2.2,0,0,0,.45,1.43,3,3,0,0,0,1.17.92,3.43,3.43,0,0,0,1.44.33,5.93,5.93,0,0,0,.91-.06,4.35,4.35,0,0,0,.66-.15l.5-.19.37-.19a1.19,1.19,0,0,1,.31-.14.65.65,0,0,1,.34,0,.53.53,0,0,1,.25.26.77.77,0,0,1,.15.28.92.92,0,0,1,0,.29c0,.18-.15.37-.45.59a4.34,4.34,0,0,1-1.27.55A6.83,6.83,0,0,1,168.87,114Zm-3-5.3h4.77a1.23,1.23,0,0,0,.54-.1q.18-.09.18-.51a1.56,1.56,0,0,0-.32-1,2.34,2.34,0,0,0-.89-.7,3,3,0,0,0-1.28-.26,3.5,3.5,0,0,0-1.53.33,2.77,2.77,0,0,0-1.09.9A2.1,2.1,0,0,0,165.83,108.65Z"/><path class="cls-1" d="M175.9,113.85a1,1,0,0,1-.53-.11.55.55,0,0,1-.23-.31,1.49,1.49,0,0,1-.06-.45v-7.53a1.31,1.31,0,0,1,.06-.43.46.46,0,0,1,.24-.27,1.25,1.25,0,0,1,.54-.09.88.88,0,0,1,.6.16.72.72,0,0,1,.18.56l-.08.82a2.24,2.24,0,0,1,.4-.58,3.34,3.34,0,0,1,.64-.51,3.54,3.54,0,0,1,.79-.36,2.7,2.7,0,0,1,.85-.13,2.84,2.84,0,0,1,1.19.24,2.9,2.9,0,0,1,.94.67,3.66,3.66,0,0,1,.7,1.08,6.12,6.12,0,0,1,.81-1.07,2.75,2.75,0,0,1,1-.68,3.07,3.07,0,0,1,1.23-.24,3,3,0,0,1,1.82.54,3.35,3.35,0,0,1,1.1,1.52,6.55,6.55,0,0,1,.37,2.35v4a1.93,1.93,0,0,1-.05.45.46.46,0,0,1-.23.3,1.14,1.14,0,0,1-.56.1,1.09,1.09,0,0,1-.54-.11.56.56,0,0,1-.24-.31,1.93,1.93,0,0,1,0-.45v-4a5,5,0,0,0-.2-1.48,2.12,2.12,0,0,0-.61-1,1.61,1.61,0,0,0-1.05-.34,2.14,2.14,0,0,0-2,1.3,3.52,3.52,0,0,0-.28,1.48v4a1,1,0,0,1-.12.49.58.58,0,0,1-.34.29,1,1,0,0,1-.55,0,.89.89,0,0,1-.46-.15.48.48,0,0,1-.19-.29,2.54,2.54,0,0,1,0-.41v-4a5,5,0,0,0-.2-1.48,2.12,2.12,0,0,0-.61-1,1.64,1.64,0,0,0-1.06-.34,2.14,2.14,0,0,0-1.2.35,2.37,2.37,0,0,0-.81,1,3.47,3.47,0,0,0-.29,1.45v4a1.51,1.51,0,0,1-.05.45.51.51,0,0,1-.24.3A1.17,1.17,0,0,1,175.9,113.85Z"/><path class="cls-1" d="M198.89,113.83a.83.83,0,0,1-.6-.17.84.84,0,0,1-.22-.53l.08-.95a4,4,0,0,1-.59.69,3.68,3.68,0,0,1-1.05.69,3.86,3.86,0,0,1-1.57.29,4,4,0,0,1-1.7-.36,4.32,4.32,0,0,1-1.39-1,4.64,4.64,0,0,1-.93-1.48,4.77,4.77,0,0,1-.33-1.78,4.71,4.71,0,0,1,.33-1.76,4.41,4.41,0,0,1,.94-1.46,4.59,4.59,0,0,1,1.4-1,4,4,0,0,1,1.68-.36,4.25,4.25,0,0,1,1.42.21,3.7,3.7,0,0,1,1,.57,5.09,5.09,0,0,1,.75.79l0-.79a.75.75,0,0,1,.18-.6.94.94,0,0,1,.64-.18.89.89,0,0,1,.52.11.57.57,0,0,1,.22.32,1.9,1.9,0,0,1,.06.52v7.33a1.63,1.63,0,0,1-.06.47.51.51,0,0,1-.23.32A1,1,0,0,1,198.89,113.83Zm-3.67-1.57a2.65,2.65,0,0,0,1.4-.4,3,3,0,0,0,1-1.08,3.22,3.22,0,0,0,.37-1.54,3.07,3.07,0,0,0-.39-1.57,2.94,2.94,0,0,0-1-1.07,2.62,2.62,0,0,0-1.4-.39,2.85,2.85,0,0,0-1.54.41,3,3,0,0,0-1,1.09,3.22,3.22,0,0,0-.38,1.56,3.1,3.1,0,0,0,.38,1.53,2.84,2.84,0,0,0,1.05,1.07A3.1,3.1,0,0,0,195.22,112.26Z"/><path class="cls-1" d="M205.31,114a5.39,5.39,0,0,1-.95-.1,5.26,5.26,0,0,1-1-.27,4.21,4.21,0,0,1-.82-.43,1.91,1.91,0,0,1-.52-.55,1.16,1.16,0,0,1-.11-.35.51.51,0,0,1,.06-.32,1,1,0,0,1,.22-.3.5.5,0,0,1,.38-.22.88.88,0,0,1,.48.26l.49.29a5,5,0,0,0,1.21.5,2.89,2.89,0,0,0,2-.25,1,1,0,0,0,.53-.89,1.09,1.09,0,0,0-.13-.55,1.33,1.33,0,0,0-.36-.39,3.05,3.05,0,0,0-.51-.27c-.19-.08-.41-.15-.64-.22l-.69-.2c-.35-.09-.68-.19-1-.3a3.91,3.91,0,0,1-.89-.45,2.18,2.18,0,0,1-.65-.7,2.22,2.22,0,0,1-.25-1.09,2.34,2.34,0,0,1,.4-1.35,2.63,2.63,0,0,1,1.12-.89,4.21,4.21,0,0,1,1.69-.31,4.75,4.75,0,0,1,.78.06,2.77,2.77,0,0,1,.7.18,4.46,4.46,0,0,1,.63.28,3.76,3.76,0,0,1,.59.39.68.68,0,0,1,.36.49.78.78,0,0,1-.2.56.85.85,0,0,1-.39.31.42.42,0,0,1-.41-.11,4.3,4.3,0,0,0-.65-.39,4.7,4.7,0,0,0-.7-.29,2.33,2.33,0,0,0-.74-.11,2.26,2.26,0,0,0-.85.14,1.13,1.13,0,0,0-.57.42,1,1,0,0,0-.2.62.78.78,0,0,0,.16.49,1.37,1.37,0,0,0,.42.32,3.23,3.23,0,0,0,.61.24l.73.2c.37.09.74.19,1.13.31a4.21,4.21,0,0,1,1.05.48,2.27,2.27,0,0,1,.76.78,2.5,2.5,0,0,1,.29,1.28,2.34,2.34,0,0,1-1,2A4.35,4.35,0,0,1,205.31,114Z"/><path class="cls-1" d="M212.19,102.38a1.29,1.29,0,0,1-.63-.13.56.56,0,0,1-.27-.35,1.7,1.7,0,0,1-.07-.53,1.58,1.58,0,0,1,.08-.52.54.54,0,0,1,.28-.33,1.47,1.47,0,0,1,.63-.1,1.41,1.41,0,0,1,.61.11.54.54,0,0,1,.27.34,1.77,1.77,0,0,1,.07.54,1.64,1.64,0,0,1-.07.52.52.52,0,0,1-.27.33A1.3,1.3,0,0,1,212.19,102.38Zm0,11.47a1.1,1.1,0,0,1-.54-.1.51.51,0,0,1-.24-.3,1.49,1.49,0,0,1-.06-.45v-7.51a1.44,1.44,0,0,1,.06-.45.46.46,0,0,1,.24-.29,1.33,1.33,0,0,1,.56-.09,1,1,0,0,1,.53.1.55.55,0,0,1,.23.29,1.65,1.65,0,0,1,.06.48V113a1.49,1.49,0,0,1-.06.45.49.49,0,0,1-.24.29A1.25,1.25,0,0,1,212.19,113.85Z"/><path class="cls-1" d="M223.63,113.83a.83.83,0,0,1-.6-.17.84.84,0,0,1-.22-.53l.08-.95a4.55,4.55,0,0,1-.59.69,3.6,3.6,0,0,1-2.62,1,4.1,4.1,0,0,1-1.71-.36,4.39,4.39,0,0,1-1.38-1,4.64,4.64,0,0,1-.93-1.48,4.59,4.59,0,0,1-.34-1.78,4.52,4.52,0,0,1,.34-1.76,4.41,4.41,0,0,1,.94-1.46,4.67,4.67,0,0,1,1.39-1,4,4,0,0,1,1.69-.36,4.25,4.25,0,0,1,1.42.21,3.86,3.86,0,0,1,1,.57,5.09,5.09,0,0,1,.75.79l0-.79a.75.75,0,0,1,.18-.6.92.92,0,0,1,.64-.18.89.89,0,0,1,.52.11.57.57,0,0,1,.22.32,2,2,0,0,1,.05.52v7.33a1.65,1.65,0,0,1-.05.47.55.55,0,0,1-.23.32A1,1,0,0,1,223.63,113.83ZM220,112.26a2.65,2.65,0,0,0,1.4-.4,2.89,2.89,0,0,0,1-1.08,3.11,3.11,0,0,0,.37-1.54,3.07,3.07,0,0,0-.39-1.57,2.91,2.91,0,0,0-1-1.07,2.64,2.64,0,0,0-1.4-.39,2.91,2.91,0,0,0-1.55.41,3.07,3.07,0,0,0-1,1.09,3.11,3.11,0,0,0-.38,1.56,3,3,0,0,0,.38,1.53,2.77,2.77,0,0,0,1,1.07A3.1,3.1,0,0,0,220,112.26Z"/><path class="cls-1" d="M231,113.85a4.06,4.06,0,0,1-3-1.31,4.61,4.61,0,0,1-.91-1.47,4.87,4.87,0,0,1-.34-1.85,4.77,4.77,0,0,1,.34-1.83,4.41,4.41,0,0,1,.91-1.45,4.1,4.1,0,0,1,1.36-1,4.2,4.2,0,0,1,3.31,0,3.82,3.82,0,0,1,1.29,1,4.12,4.12,0,0,1,.83,1.46,5.77,5.77,0,0,1,.29,1.84,5.19,5.19,0,0,1-.28,1.84,4.55,4.55,0,0,1-.83,1.46,3.6,3.6,0,0,1-1.28,1A4,4,0,0,1,231,113.85Zm.25-1.61a2.75,2.75,0,0,0,1.43-.38,2.78,2.78,0,0,0,1-1.06,3.12,3.12,0,0,0,.37-1.55,3.16,3.16,0,0,0-.37-1.56,2.78,2.78,0,0,0-1-1.06,2.75,2.75,0,0,0-1.43-.38,2.85,2.85,0,0,0-1.45.38,2.71,2.71,0,0,0-1,1.06,3.16,3.16,0,0,0-.37,1.56,3.12,3.12,0,0,0,.37,1.55,2.74,2.74,0,0,0,1,1.06A2.87,2.87,0,0,0,231.21,112.24Zm3.72,1.61a1,1,0,0,1-.61-.15.72.72,0,0,1-.22-.51v-11.9a2.11,2.11,0,0,1,0-.47.46.46,0,0,1,.23-.3,1.51,1.51,0,0,1,1.08,0,.51.51,0,0,1,.24.3,1.53,1.53,0,0,1,.06.45V113a1.6,1.6,0,0,1-.06.46.49.49,0,0,1-.23.31A1,1,0,0,1,234.93,113.85Z"/><path class="cls-1" d="M242.57,114a4.53,4.53,0,0,1-1.78-.36,5.44,5.44,0,0,1-1.51-1,4.71,4.71,0,0,1-1-1.49,4.44,4.44,0,0,1-.38-1.87,4.63,4.63,0,0,1,.36-1.83,4.73,4.73,0,0,1,1-1.49,4.82,4.82,0,0,1,1.49-1,4.54,4.54,0,0,1,1.81-.37,4.63,4.63,0,0,1,4.68,4.7,4.71,4.71,0,0,1-.38,1.9,4.83,4.83,0,0,1-1,1.5,4.75,4.75,0,0,1-1.48,1A4.39,4.39,0,0,1,242.57,114Zm0-1.66a2.84,2.84,0,0,0,1.48-.4,3,3,0,0,0,1.11-1.1,3.34,3.34,0,0,0,0-3.17,2.75,2.75,0,0,0-1.07-1.07,3.21,3.21,0,0,0-1.56-.37,3,3,0,0,0-1.51.39,3,3,0,0,0-1.08,1.09,3,3,0,0,0-.41,1.56,3,3,0,0,0,1.53,2.68A3,3,0,0,0,242.53,112.31Z"/><path class="cls-1" d="M250.15,113.87a1.14,1.14,0,0,1-.8-.23,1,1,0,0,1-.22-.76,1.63,1.63,0,0,1,.09-.61.61.61,0,0,1,.32-.33,1.53,1.53,0,0,1,.61-.1,1.05,1.05,0,0,1,.79.23,1.15,1.15,0,0,1,.22.79,1.38,1.38,0,0,1-.1.6.61.61,0,0,1-.31.32A1.65,1.65,0,0,1,250.15,113.87Z"/><path class="cls-1" d="M10.34,12.93a2.2,2.2,0,0,1-1.69-.55,2.83,2.83,0,0,1-.49-1.9A4.12,4.12,0,0,1,8.38,9a1.46,1.46,0,0,1,.69-.79,2.92,2.92,0,0,1,1.3-.25,2.13,2.13,0,0,1,1.68.56,3.16,3.16,0,0,1,.47,2,4.15,4.15,0,0,1-.2,1.45,1.32,1.32,0,0,1-.68.78A2.93,2.93,0,0,1,10.34,12.93Z"/><path class="cls-1" d="M10.34,84.93a2.2,2.2,0,0,1-1.69-.55,2.83,2.83,0,0,1-.49-1.9A4.12,4.12,0,0,1,8.38,81a1.46,1.46,0,0,1,.69-.79,2.92,2.92,0,0,1,1.3-.25,2.13,2.13,0,0,1,1.68.56,3.16,3.16,0,0,1,.47,2,4.15,4.15,0,0,1-.2,1.45,1.32,1.32,0,0,1-.68.78A2.93,2.93,0,0,1,10.34,84.93Z"/><rect class="cls-2" width="455.66" height="220.11"/></g></g></svg>