<svg xmlns="http://www.w3.org/2000/svg" viewBox="0 0 455.66 220.11"><defs><style>.cls-1{fill:#fff;}.cls-2{fill:none;}</style></defs><title>pag32</title><g id="Layer_2" data-name="Layer 2"><g id="Paso_3" data-name="Paso 3"><path class="cls-1" d="M30.25,14.23a1.73,1.73,0,0,1-1-.21.87.87,0,0,1-.37-.55,3.27,3.27,0,0,1-.08-.7V2.39a3.1,3.1,0,0,1,.08-.69.85.85,0,0,1,.38-.54,1.79,1.79,0,0,1,1-.21h3.9a4.79,4.79,0,0,1,1.6.29A4.7,4.7,0,0,1,38.4,3.59a4.69,4.69,0,0,1,.42,2.05,4.68,4.68,0,0,1-.42,2,4.4,4.4,0,0,1-1.13,1.45,4.68,4.68,0,0,1-1.51.87,4.62,4.62,0,0,1-1.61.3H31.72v2.49a3.1,3.1,0,0,1-.08.69.89.89,0,0,1-.38.54A1.83,1.83,0,0,1,30.25,14.23Zm1.47-6.82h2.45A2,2,0,0,0,35,7.23a1.6,1.6,0,0,0,.69-.58,1.81,1.81,0,0,0,.27-1,1.88,1.88,0,0,0-.22-.93,1.73,1.73,0,0,0-.64-.62,1.82,1.82,0,0,0-.94-.23H31.72Z"/><path class="cls-1" d="M48.09,14.21a1.78,1.78,0,0,1-1-.24.75.75,0,0,1-.33-.61l.19-.33a2.24,2.24,0,0,1-.44.47,3.19,3.19,0,0,1-2.11.71,3.67,3.67,0,0,1-1.66-.38,4.44,4.44,0,0,1-1.4-1.05,5.49,5.49,0,0,1-1-1.53A4.78,4.78,0,0,1,40,9.44a4.62,4.62,0,0,1,.35-1.77,4.9,4.9,0,0,1,1-1.5,4.69,4.69,0,0,1,1.4-1,3.77,3.77,0,0,1,1.65-.38,3.27,3.27,0,0,1,1.2.2,3,3,0,0,1,.82.47,2.23,2.23,0,0,1,.51.51l-.15-.27A.74.74,0,0,1,47.06,5a1.81,1.81,0,0,1,1-.24,1.72,1.72,0,0,1,1,.21.82.82,0,0,1,.36.55,3.38,3.38,0,0,1,.07.72v6.56a3.26,3.26,0,0,1-.07.7.78.78,0,0,1-.36.54A1.78,1.78,0,0,1,48.09,14.21Zm-3.3-2.83a1.58,1.58,0,0,0,.9-.26,1.88,1.88,0,0,0,.65-.69,2,2,0,0,0,.23-1,2,2,0,0,0-.24-1,2,2,0,0,0-.67-.68,1.72,1.72,0,0,0-.91-.26,1.8,1.8,0,0,0-1,.27,2.07,2.07,0,0,0-.68.7,1.92,1.92,0,0,0-.26,1,1.8,1.8,0,0,0,.26.94,1.83,1.83,0,0,0,.7.68A1.89,1.89,0,0,0,44.79,11.38Z"/><path class="cls-1" d="M52.75,14.23a1.9,1.9,0,0,1-1-.2.78.78,0,0,1-.36-.54,4.05,4.05,0,0,1-.07-.7V6.16a3.15,3.15,0,0,1,.08-.71.84.84,0,0,1,.37-.52,1.9,1.9,0,0,1,1-.2,1.94,1.94,0,0,1,1,.18.81.81,0,0,1,.37.42,1.35,1.35,0,0,1,.07.41L54,5.85a1.42,1.42,0,0,1,.2-.27,2,2,0,0,1,.44-.42,2.43,2.43,0,0,1,.7-.37,2.69,2.69,0,0,1,.94-.15l.46,0a2.68,2.68,0,0,1,.53.12,2.15,2.15,0,0,1,.51.23,1.24,1.24,0,0,1,.37.35.93.93,0,0,1,.14.51,2.33,2.33,0,0,1-.36,1.32,1.07,1.07,0,0,1-.91.54,1.57,1.57,0,0,1-.46-.05l-.22-.12a.75.75,0,0,0-.2-.1,1.22,1.22,0,0,0-.42,0,1.91,1.91,0,0,0-.54.08,1.58,1.58,0,0,0-.47.23,1.09,1.09,0,0,0-.34.4,1,1,0,0,0-.13.53v4.17a3.88,3.88,0,0,1-.06.7.81.81,0,0,1-.37.52A2,2,0,0,1,52.75,14.23Z"/><path class="cls-1" d="M67.4,14.21a1.79,1.79,0,0,1-1-.24.75.75,0,0,1-.33-.61l.19-.33a2,2,0,0,1-.44.47A3.08,3.08,0,0,1,65,14a3.23,3.23,0,0,1-1.28.22A3.7,3.7,0,0,1,62,13.83a4.56,4.56,0,0,1-1.4-1.05,5.24,5.24,0,0,1-1-1.53,4.6,4.6,0,0,1-.36-1.81,4.45,4.45,0,0,1,.36-1.77,4.7,4.7,0,0,1,1-1.5,4.82,4.82,0,0,1,1.4-1,3.77,3.77,0,0,1,1.65-.38,3.27,3.27,0,0,1,1.2.2,3.11,3.11,0,0,1,.83.47,2.17,2.17,0,0,1,.5.51l-.15-.27A.76.76,0,0,1,66.36,5a1.84,1.84,0,0,1,1.06-.24,1.76,1.76,0,0,1,1,.21.9.9,0,0,1,.36.55,4.2,4.2,0,0,1,.06.72v6.56a4,4,0,0,1-.06.7.85.85,0,0,1-.36.54A1.8,1.8,0,0,1,67.4,14.21Zm-3.31-2.83a1.58,1.58,0,0,0,.9-.26,1.8,1.8,0,0,0,.65-.69,2,2,0,0,0,.24-1,1.91,1.91,0,0,0-.25-1A2,2,0,0,0,65,7.8a1.82,1.82,0,0,0-1.89,0,2,2,0,0,0-.69.7,1.92,1.92,0,0,0-.26,1,1.8,1.8,0,0,0,.26.94,2,2,0,0,0,1.7.94Z"/><path class="cls-1" d="M80.2,14.4A5.54,5.54,0,0,1,77.91,14a4.53,4.53,0,0,1-1.56-1.15,4.87,4.87,0,0,1-.91-1.59,5.63,5.63,0,0,1-.29-1.75A4.84,4.84,0,0,1,75.8,7a4.63,4.63,0,0,1,1.78-1.73,5.24,5.24,0,0,1,2.62-.64,4.82,4.82,0,0,1,1.91.35,4.07,4.07,0,0,1,1.33.91,3.9,3.9,0,0,1,.78,1.21,3.36,3.36,0,0,1,.26,1.23A2.12,2.12,0,0,1,84,9.83a1.75,1.75,0,0,1-1.29.51H78.17a1.36,1.36,0,0,0,.35.83,2,2,0,0,0,.79.53,2.63,2.63,0,0,0,1,.19,6.37,6.37,0,0,0,.8,0,2.74,2.74,0,0,0,.58-.14,4.05,4.05,0,0,0,.46-.17l.37-.14a2,2,0,0,1,.31-.08.8.8,0,0,1,.53.17,1.49,1.49,0,0,1,.42.54,1.6,1.6,0,0,1,.19.4,1.58,1.58,0,0,1,0,.38,1,1,0,0,1-.46.81,3.56,3.56,0,0,1-1.31.57A8.68,8.68,0,0,1,80.2,14.4Zm-2-5.62h3a.76.76,0,0,0,.45-.11.48.48,0,0,0,.14-.4.91.91,0,0,0-.21-.6,1.3,1.3,0,0,0-.56-.4,2,2,0,0,0-.81-.14,2.31,2.31,0,0,0-1,.22,1.94,1.94,0,0,0-.71.61A1.45,1.45,0,0,0,78.17,8.78Z"/><path class="cls-1" d="M89.63,14.23a11.17,11.17,0,0,1-1.38-.08,3.28,3.28,0,0,1-1-.32,1.89,1.89,0,0,1-.69-.63,2.7,2.7,0,0,1-.39-1A8.64,8.64,0,0,1,86,10.6V1.82a3.88,3.88,0,0,1,.06-.7.88.88,0,0,1,.37-.53,1.82,1.82,0,0,1,1-.21,1.74,1.74,0,0,1,1,.21.88.88,0,0,1,.37.53,3.13,3.13,0,0,1,.08.7v8.65a3.43,3.43,0,0,0,0,.5.58.58,0,0,0,.11.32.49.49,0,0,0,.24.15,2,2,0,0,0,.4,0,1.85,1.85,0,0,1,.46,0,.68.68,0,0,1,.41.35,2,2,0,0,1,.17.94,2.17,2.17,0,0,1-.17,1,.61.61,0,0,1-.41.36A2,2,0,0,1,89.63,14.23Z"/><path class="cls-1" d="M95.63,14.23a11.17,11.17,0,0,1-1.38-.08,3.14,3.14,0,0,1-1-.32,1.85,1.85,0,0,1-.7-.63,3.08,3.08,0,0,1-.39-1A8.64,8.64,0,0,1,92,10.6V1.82a3.14,3.14,0,0,1,.07-.7.84.84,0,0,1,.37-.53,1.78,1.78,0,0,1,1-.21,1.7,1.7,0,0,1,1,.21,1,1,0,0,1,.38.53,3.14,3.14,0,0,1,.07.7v8.65a3.43,3.43,0,0,0,0,.5.8.8,0,0,0,.11.32.49.49,0,0,0,.24.15,2.06,2.06,0,0,0,.4,0,1.93,1.93,0,0,1,.47,0,.7.7,0,0,1,.4.35,1.83,1.83,0,0,1,.18.94,2,2,0,0,1-.18,1,.62.62,0,0,1-.4.36A2,2,0,0,1,95.63,14.23Z"/><path class="cls-1" d="M102.55,14.38a4.66,4.66,0,0,1-1.78-.35,5.42,5.42,0,0,1-1.61-1A4.72,4.72,0,0,1,98,11.49a4.88,4.88,0,0,1-.41-2A4.69,4.69,0,0,1,98,7.57,4.89,4.89,0,0,1,99.05,6a5.27,5.27,0,0,1,1.57-1.07,4.63,4.63,0,0,1,1.89-.39A4.77,4.77,0,0,1,105,5.2,4.92,4.92,0,0,1,106.76,7a4.74,4.74,0,0,1,.67,2.49,4.74,4.74,0,0,1-1.57,3.61,5,5,0,0,1-1.57,1A4.88,4.88,0,0,1,102.55,14.38Zm0-2.87a2.18,2.18,0,0,0,.93-.22,2.11,2.11,0,0,0,.8-.69,2,2,0,0,0,.32-1.16,2,2,0,0,0-.27-1.06,1.78,1.78,0,0,0-.73-.71,2.2,2.2,0,0,0-1.07-.26,1.94,1.94,0,0,0-1,.27,2,2,0,0,0-.72.73,2.05,2.05,0,0,0-.27,1.05,2,2,0,0,0,.31,1.15,1.94,1.94,0,0,0,.79.69A2.24,2.24,0,0,0,102.51,11.51Z"/><path class="cls-1" d="M117.18,14.38a5.49,5.49,0,0,1-1.11-.11,7.81,7.81,0,0,1-1.17-.33,3.68,3.68,0,0,1-1-.52,1,1,0,0,1-.44-.67,1,1,0,0,1,0-.41,1.68,1.68,0,0,1,.18-.46l.32-.5a.71.71,0,0,1,.34-.27.84.84,0,0,1,.44,0,3.18,3.18,0,0,1,.62.2l.63.31a4.71,4.71,0,0,0,.65.28,1.89,1.89,0,0,0,.7.13,1.71,1.71,0,0,0,.83-.17.48.48,0,0,0,.3-.44.49.49,0,0,0-.13-.34,1,1,0,0,0-.34-.24,2.91,2.91,0,0,0-.5-.18l-.62-.16-.68-.18a5.89,5.89,0,0,1-.91-.35,3.22,3.22,0,0,1-.8-.54,2.37,2.37,0,0,1-.57-.81,3.22,3.22,0,0,1-.2-1.19,2.68,2.68,0,0,1,.43-1.56,2.71,2.71,0,0,1,1.28-1,5.5,5.5,0,0,1,2-.33,5.17,5.17,0,0,1,.68,0,3.89,3.89,0,0,1,.68.13,5,5,0,0,1,.65.23,4.88,4.88,0,0,1,.65.32.86.86,0,0,1,.59.72,1.47,1.47,0,0,1-.33.93,1.42,1.42,0,0,1-.43.47.62.62,0,0,1-.48.08,3.49,3.49,0,0,1-.65-.24c-.24-.12-.48-.22-.74-.33a2.15,2.15,0,0,0-.77-.15,1.47,1.47,0,0,0-.55.09.77.77,0,0,0-.35.23.52.52,0,0,0-.11.33.56.56,0,0,0,.14.39,1.22,1.22,0,0,0,.39.23,3.83,3.83,0,0,0,.57.18l.7.15a10.8,10.8,0,0,1,1.06.25,3.76,3.76,0,0,1,1,.47,2.3,2.3,0,0,1,.72.82,2.89,2.89,0,0,1,.27,1.35,2.72,2.72,0,0,1-1,2.3A4.85,4.85,0,0,1,117.18,14.38Z"/><path class="cls-1" d="M127.46,14.4a5.47,5.47,0,0,1-2.29-.43,4.57,4.57,0,0,1-1.57-1.15,4.67,4.67,0,0,1-.9-1.59,5.37,5.37,0,0,1-.3-1.75A4.94,4.94,0,0,1,123.05,7a4.63,4.63,0,0,1,1.78-1.73,5.25,5.25,0,0,1,2.63-.64,4.77,4.77,0,0,1,1.9.35,4,4,0,0,1,1.33.91,3.9,3.9,0,0,1,.78,1.21,3.36,3.36,0,0,1,.26,1.23,2.12,2.12,0,0,1-.5,1.55,1.75,1.75,0,0,1-1.29.51h-4.52a1.36,1.36,0,0,0,.35.83,2.08,2.08,0,0,0,.79.53,2.63,2.63,0,0,0,1,.19,6.37,6.37,0,0,0,.8,0,3,3,0,0,0,.59-.14,4.7,4.7,0,0,0,.45-.17l.37-.14a1.87,1.87,0,0,1,.32-.08.78.78,0,0,1,.52.17,1.62,1.62,0,0,1,.43.54,2,2,0,0,1,.18.4,1.58,1.58,0,0,1,0,.38,1,1,0,0,1-.46.81,3.56,3.56,0,0,1-1.31.57A8.65,8.65,0,0,1,127.46,14.4Zm-2-5.62h3a.74.74,0,0,0,.45-.11.45.45,0,0,0,.14-.4.91.91,0,0,0-.21-.6,1.3,1.3,0,0,0-.56-.4,2,2,0,0,0-.8-.14,2.32,2.32,0,0,0-1,.22,1.94,1.94,0,0,0-.71.61A1.45,1.45,0,0,0,125.42,8.78Z"/><path class="cls-1" d="M139.52,14.23a1.9,1.9,0,0,1-1-.2.85.85,0,0,1-.36-.54,4.05,4.05,0,0,1-.07-.7V6.16a3.15,3.15,0,0,1,.08-.71.84.84,0,0,1,.37-.52,1.9,1.9,0,0,1,1-.2,1.94,1.94,0,0,1,1,.18.81.81,0,0,1,.37.42,1.35,1.35,0,0,1,.07.41l-.22.11a1.42,1.42,0,0,1,.2-.27,2,2,0,0,1,.44-.42,2.43,2.43,0,0,1,.7-.37,2.69,2.69,0,0,1,.94-.15l.46,0a2.68,2.68,0,0,1,.53.12,2,2,0,0,1,.51.23,1.24,1.24,0,0,1,.37.35.93.93,0,0,1,.14.51,2.33,2.33,0,0,1-.36,1.32,1.06,1.06,0,0,1-.91.54,1.57,1.57,0,0,1-.46-.05l-.22-.12a.75.75,0,0,0-.2-.1,1.19,1.19,0,0,0-.41,0,2,2,0,0,0-.55.08,1.58,1.58,0,0,0-.47.23,1.09,1.09,0,0,0-.34.4,1.15,1.15,0,0,0-.13.53v4.17a3.88,3.88,0,0,1-.06.7.81.81,0,0,1-.37.52A2,2,0,0,1,139.52,14.23Z"/><path class="cls-1" d="M151.13,14.4a5.51,5.51,0,0,1-2.29-.43,4.67,4.67,0,0,1-1.57-1.15,5,5,0,0,1-.9-1.59,5.37,5.37,0,0,1-.3-1.75A4.94,4.94,0,0,1,146.72,7a4.65,4.65,0,0,1,1.79-1.73,5.22,5.22,0,0,1,2.62-.64,4.86,4.86,0,0,1,1.91.35,4.07,4.07,0,0,1,1.33.91,3.9,3.9,0,0,1,.78,1.21,3.33,3.33,0,0,1,.25,1.23,2.08,2.08,0,0,1-.5,1.55,1.73,1.73,0,0,1-1.28.51H149.1a1.3,1.3,0,0,0,.35.83,2,2,0,0,0,.79.53,2.58,2.58,0,0,0,1,.19,6.27,6.27,0,0,0,.8,0,2.84,2.84,0,0,0,.59-.14l.46-.17.37-.14a1.77,1.77,0,0,1,.31-.08.78.78,0,0,1,.52.17,1.62,1.62,0,0,1,.43.54,1.27,1.27,0,0,1,.18.4,1.58,1.58,0,0,1,0,.38,1,1,0,0,1-.47.81,3.56,3.56,0,0,1-1.31.57A8.53,8.53,0,0,1,151.13,14.4Zm-2-5.62h3a.73.73,0,0,0,.44-.11.45.45,0,0,0,.15-.4.91.91,0,0,0-.21-.6,1.37,1.37,0,0,0-.56-.4,2.09,2.09,0,0,0-.81-.14,2.38,2.38,0,0,0-1.05.22,1.94,1.94,0,0,0-.71.61A1.44,1.44,0,0,0,149.1,8.78Z"/><path class="cls-1" d="M161.6,14.31a4.91,4.91,0,0,1-1.7-.32,5.27,5.27,0,0,1-1.6-.93,4.52,4.52,0,0,1-1.17-1.52,4.72,4.72,0,0,1-.44-2.08,4.7,4.7,0,0,1,.44-2.07,4.65,4.65,0,0,1,1.16-1.5A5.28,5.28,0,0,1,159.88,5a4.85,4.85,0,0,1,1.68-.32,4.41,4.41,0,0,1,1.26.17,3.48,3.48,0,0,1,1,.39,2.47,2.47,0,0,1,.56.4,4.81,4.81,0,0,1,.57.49.8.8,0,0,1,.23.64,1.18,1.18,0,0,1-.13.43,2.85,2.85,0,0,1-.29.45q-.57.8-1.14.72a1.79,1.79,0,0,1-.52-.19l-.46-.27a2,2,0,0,0-.46-.24,1.48,1.48,0,0,0-.57-.1,2,2,0,0,0-1,.25,1.8,1.8,0,0,0-.69.68,2,2,0,0,0-.26,1,1.92,1.92,0,0,0,.26,1,2,2,0,0,0,.68.69,1.87,1.87,0,0,0,1,.26,1.84,1.84,0,0,0,.56-.08,1.74,1.74,0,0,0,.41-.18l.27-.16.43-.27a.8.8,0,0,1,.44-.13,1,1,0,0,1,.55.2,3.18,3.18,0,0,1,.63.64,1.6,1.6,0,0,1,.35.74.87.87,0,0,1-.16.64,2.23,2.23,0,0,1-.65.59,3,3,0,0,1-.54.35,5.86,5.86,0,0,1-.95.38A4.41,4.41,0,0,1,161.6,14.31Z"/><path class="cls-1" d="M171.34,14.38a4.65,4.65,0,0,1-1.77-.35A5.3,5.3,0,0,1,168,13a4.64,4.64,0,0,1-1.56-3.55,4.86,4.86,0,0,1,.38-1.91A5.09,5.09,0,0,1,167.85,6a5.15,5.15,0,0,1,1.57-1.07,4.57,4.57,0,0,1,1.89-.39,4.79,4.79,0,0,1,2.48.66A4.92,4.92,0,0,1,175.56,7a4.74,4.74,0,0,1,.67,2.49,4.8,4.8,0,0,1-.43,2.06,5,5,0,0,1-1.14,1.55,5,5,0,0,1-1.58,1A4.8,4.8,0,0,1,171.34,14.38Zm0-2.87a2.18,2.18,0,0,0,.93-.22,2.08,2.08,0,0,0,.79-.69,1.92,1.92,0,0,0,.33-1.16,2,2,0,0,0-.27-1.06,1.85,1.85,0,0,0-.73-.71,2.2,2.2,0,0,0-1.07-.26,2,2,0,0,0-1.74,1,2,2,0,0,0-.28,1.05,2,2,0,0,0,.32,1.15,1.94,1.94,0,0,0,.79.69A2.24,2.24,0,0,0,171.31,11.51Z"/><path class="cls-1" d="M179.08,14.23a1.78,1.78,0,0,1-1-.21.8.8,0,0,1-.36-.53,3.8,3.8,0,0,1-.06-.7V6.14a3,3,0,0,1,.07-.7.77.77,0,0,1,.37-.51,1.92,1.92,0,0,1,1-.2,1.53,1.53,0,0,1,1,.28,1.1,1.1,0,0,1,.32.9l-.24.21a1.5,1.5,0,0,1,.22-.32,3.87,3.87,0,0,1,.5-.48,3.27,3.27,0,0,1,.71-.43,2.16,2.16,0,0,1,.88-.18,3.41,3.41,0,0,1,1.14.18,3.1,3.1,0,0,1,.91.53,3.36,3.36,0,0,1,.71.89,4.85,4.85,0,0,1,.65-.74,3.24,3.24,0,0,1,.9-.61A2.64,2.64,0,0,1,188,4.71a3.12,3.12,0,0,1,1.87.56,3.52,3.52,0,0,1,1.17,1.61,7.2,7.2,0,0,1,.4,2.52v3.41a3.84,3.84,0,0,1-.07.69A.83.83,0,0,1,191,14a1.94,1.94,0,0,1-1,.2,1.79,1.79,0,0,1-1-.21.9.9,0,0,1-.36-.54,3.85,3.85,0,0,1-.06-.69V9.39a3.06,3.06,0,0,0-.14-1,1.24,1.24,0,0,0-.4-.62,1.15,1.15,0,0,0-.7-.22,1.34,1.34,0,0,0-.74.2,1.32,1.32,0,0,0-.46.61,3,3,0,0,0-.15,1v3.41a2.71,2.71,0,0,1-.09.71.93.93,0,0,1-.41.53,1.88,1.88,0,0,1-1,.18,1.76,1.76,0,0,1-1-.23.83.83,0,0,1-.34-.54,3.71,3.71,0,0,1-.06-.67V9.39a3.19,3.19,0,0,0-.13-1,1.26,1.26,0,0,0-.4-.62,1.1,1.1,0,0,0-.7-.21,1.21,1.21,0,0,0-.78.25,1.46,1.46,0,0,0-.45.65,3,3,0,0,0-.14.93v3.42a3.14,3.14,0,0,1-.07.7.77.77,0,0,1-.37.52A1.9,1.9,0,0,1,179.08,14.23Z"/><path class="cls-1" d="M194.75,3.36a1.85,1.85,0,0,1-1-.21.83.83,0,0,1-.38-.55,4.11,4.11,0,0,1-.06-.72,3.29,3.29,0,0,1,.07-.73.85.85,0,0,1,.38-.53,2,2,0,0,1,1-.2,1.85,1.85,0,0,1,1,.21.87.87,0,0,1,.37.55,4.2,4.2,0,0,1,.06.72,4.2,4.2,0,0,1-.06.72.83.83,0,0,1-.37.54A1.92,1.92,0,0,1,194.75,3.36Zm0,10.87a1.9,1.9,0,0,1-1-.2.85.85,0,0,1-.36-.53,3.85,3.85,0,0,1-.06-.69V6.18a3.92,3.92,0,0,1,.06-.71.84.84,0,0,1,.37-.52,2,2,0,0,1,1-.2,1.74,1.74,0,0,1,1,.21.87.87,0,0,1,.36.53,4,4,0,0,1,.07.72v6.61a3.86,3.86,0,0,1-.07.7.8.8,0,0,1-.36.52A1.91,1.91,0,0,1,194.75,14.23Z"/><path class="cls-1" d="M202.83,14.4a5.51,5.51,0,0,1-2.29-.43A4.57,4.57,0,0,1,199,12.82a4.67,4.67,0,0,1-.9-1.59,5.37,5.37,0,0,1-.3-1.75A4.94,4.94,0,0,1,198.42,7a4.63,4.63,0,0,1,1.78-1.73,5.25,5.25,0,0,1,2.63-.64,4.86,4.86,0,0,1,1.91.35,4.18,4.18,0,0,1,1.33.91,4.06,4.06,0,0,1,.77,1.21,3.16,3.16,0,0,1,.26,1.23,2.12,2.12,0,0,1-.5,1.55,1.74,1.74,0,0,1-1.28.51h-4.53a1.42,1.42,0,0,0,.35.83,2.08,2.08,0,0,0,.79.53,2.67,2.67,0,0,0,1,.19,6.37,6.37,0,0,0,.8,0,2.84,2.84,0,0,0,.59-.14,4.7,4.7,0,0,0,.45-.17l.37-.14a2.14,2.14,0,0,1,.32-.08.78.78,0,0,1,.52.17,1.62,1.62,0,0,1,.43.54,1.27,1.27,0,0,1,.18.4,1.58,1.58,0,0,1,.05.38,1,1,0,0,1-.47.81,3.56,3.56,0,0,1-1.31.57A8.65,8.65,0,0,1,202.83,14.4Zm-2-5.62h3a.73.73,0,0,0,.44-.11.45.45,0,0,0,.14-.4.91.91,0,0,0-.21-.6,1.25,1.25,0,0,0-.56-.4,2,2,0,0,0-.8-.14,2.35,2.35,0,0,0-1.05.22,1.94,1.94,0,0,0-.71.61A1.45,1.45,0,0,0,200.79,8.78Z"/><path class="cls-1" d="M210,14.21a1.8,1.8,0,0,1-1-.2.78.78,0,0,1-.36-.53,3.11,3.11,0,0,1-.07-.69V6.1a3,3,0,0,1,.08-.68.82.82,0,0,1,.37-.5,1.89,1.89,0,0,1,1-.19,1.86,1.86,0,0,1,.89.16.81.81,0,0,1,.37.39,1.16,1.16,0,0,1,.08.43.83.83,0,0,0,0,.28l-.11.36a1.06,1.06,0,0,1,.29-.58,2.47,2.47,0,0,1,.65-.53,3.54,3.54,0,0,1,.84-.38,3.35,3.35,0,0,1,.88-.13,3.78,3.78,0,0,1,1.62.33,3.44,3.44,0,0,1,1.21,1,4.39,4.39,0,0,1,.75,1.48,6.36,6.36,0,0,1,.26,1.85v3.46a3.84,3.84,0,0,1-.07.69.74.74,0,0,1-.36.52,1.91,1.91,0,0,1-1,.19,1.8,1.8,0,0,1-1-.2.83.83,0,0,1-.37-.53,2.61,2.61,0,0,1-.08-.69V9.35a2.21,2.21,0,0,0-.19-1,1.43,1.43,0,0,0-.57-.62,2.08,2.08,0,0,0-1.88,0,1.57,1.57,0,0,0-.62.63,1.88,1.88,0,0,0-.22.95v3.46a3.85,3.85,0,0,1-.06.69A.79.79,0,0,1,211,14,1.85,1.85,0,0,1,210,14.21Z"/><path class="cls-1" d="M223.65,14.21a3.74,3.74,0,0,1-1.64-.37,4.42,4.42,0,0,1-1.4-1,5.07,5.07,0,0,1-1-1.53,4.94,4.94,0,0,1-.35-1.84,4.62,4.62,0,0,1,.35-1.77A5,5,0,0,1,222,5.13a3.68,3.68,0,0,1,1.63-.38,3.36,3.36,0,0,1,1.61.37,3.44,3.44,0,0,1,1.16,1,4.54,4.54,0,0,1,.72,1.5,7.42,7.42,0,0,1,.25,1.78,6.38,6.38,0,0,1-.22,1.83,4.62,4.62,0,0,1-.71,1.52,3.56,3.56,0,0,1-1.17,1.05A3.29,3.29,0,0,1,223.65,14.21ZM224,11.4a1.62,1.62,0,0,0,.92-.26,2.11,2.11,0,0,0,.67-.69,1.87,1.87,0,0,0,.25-1,2,2,0,0,0-.24-1,1.87,1.87,0,0,0-.67-.67,1.91,1.91,0,0,0-1.89,0,1.73,1.73,0,0,0-.67.67,2.08,2.08,0,0,0-.23,1,2,2,0,0,0,.24,1,1.9,1.9,0,0,0,.69.69A1.72,1.72,0,0,0,224,11.4Zm3.32,2.83a1.75,1.75,0,0,1-1-.21.94.94,0,0,1-.42-.64V1.86a5.12,5.12,0,0,1,0-.69.83.83,0,0,1,.34-.54,1.73,1.73,0,0,1,1-.21,1.86,1.86,0,0,1,1,.2.79.79,0,0,1,.36.52,3.14,3.14,0,0,1,.07.7v11a3.11,3.11,0,0,1-.07.69.82.82,0,0,1-.36.54A1.72,1.72,0,0,1,227.35,14.23Z"/><path class="cls-1" d="M238.36,14.21a1.79,1.79,0,0,1-1-.24.75.75,0,0,1-.33-.61l.19-.33a2,2,0,0,1-.44.47,3,3,0,0,1-.84.49,3.14,3.14,0,0,1-1.27.22,3.67,3.67,0,0,1-1.66-.38,4.44,4.44,0,0,1-1.4-1.05,5.49,5.49,0,0,1-1-1.53,4.78,4.78,0,0,1-.35-1.81,4.62,4.62,0,0,1,.35-1.77,4.9,4.9,0,0,1,1-1.5,4.69,4.69,0,0,1,1.4-1,3.77,3.77,0,0,1,1.65-.38,3.27,3.27,0,0,1,1.2.2,3,3,0,0,1,.82.47,2.23,2.23,0,0,1,.51.51L237,5.66a.74.74,0,0,1,.31-.69,1.81,1.81,0,0,1,1.05-.24,1.72,1.72,0,0,1,1,.21.82.82,0,0,1,.36.55,3.38,3.38,0,0,1,.07.72v6.56a3.26,3.26,0,0,1-.07.7.78.78,0,0,1-.36.54A1.77,1.77,0,0,1,238.36,14.21Zm-3.31-2.83a1.58,1.58,0,0,0,.9-.26,1.88,1.88,0,0,0,.65-.69,2,2,0,0,0,.24-1,2,2,0,0,0-.25-1,2,2,0,0,0-.67-.68,1.72,1.72,0,0,0-.91-.26,1.8,1.8,0,0,0-1,.27,2.07,2.07,0,0,0-.68.7,1.92,1.92,0,0,0-.26,1,1.8,1.8,0,0,0,.26.94,1.83,1.83,0,0,0,.7.68A1.89,1.89,0,0,0,235.05,11.38Z"/><path class="cls-1" d="M242.9,14.25a1.7,1.7,0,0,1-1.21-.34,1.63,1.63,0,0,1-.35-1.18,2.38,2.38,0,0,1,.15-.93.94.94,0,0,1,.49-.49,2.21,2.21,0,0,1,.94-.16,1.69,1.69,0,0,1,1.19.34,1.71,1.71,0,0,1,.34,1.22,2.29,2.29,0,0,1-.14.91.86.86,0,0,1-.48.49A2.6,2.6,0,0,1,242.9,14.25Zm0-6a1.75,1.75,0,0,1-1.21-.34,1.57,1.57,0,0,1-.35-1.19,2.38,2.38,0,0,1,.15-.93,1,1,0,0,1,.49-.49,2.38,2.38,0,0,1,.93-.15,1.67,1.67,0,0,1,1.2.34,1.7,1.7,0,0,1,.34,1.22,2.3,2.3,0,0,1-.15.91.87.87,0,0,1-.48.48A2.32,2.32,0,0,1,242.92,8.27Z"/><path class="cls-1" d="M33.08,64.44a5.31,5.31,0,0,1-1.35-.17,5,5,0,0,1-1.16-.47,4.57,4.57,0,0,1-.92-.65,3.38,3.38,0,0,1-.63-.72,2,2,0,0,1-.27-.51.53.53,0,0,1,0-.39,1.67,1.67,0,0,1,.35-.42.86.86,0,0,1,.53-.21.61.61,0,0,1,.43.18,2.29,2.29,0,0,1,.41.45,2.76,2.76,0,0,0,1.16.94,3.37,3.37,0,0,0,1.35.3,4.71,4.71,0,0,0,1.52-.23,2.3,2.3,0,0,0,1-.69A1.83,1.83,0,0,0,36,60.64a1.74,1.74,0,0,0-.3-1,2.74,2.74,0,0,0-.82-.71,6.65,6.65,0,0,0-1.14-.51L32.44,58a9.56,9.56,0,0,1-1-.39,6.83,6.83,0,0,1-.93-.49,3.49,3.49,0,0,1-.77-.66,2.69,2.69,0,0,1-.51-.89,3.61,3.61,0,0,1-.18-1.2,3.43,3.43,0,0,1,.5-1.84A3.46,3.46,0,0,1,31,51.24a4.82,4.82,0,0,1,2.11-.44,5.88,5.88,0,0,1,1.29.13,5.28,5.28,0,0,1,1,.35,4.59,4.59,0,0,1,.78.46,2.88,2.88,0,0,1,.5.45,1.41,1.41,0,0,1,.38.6.82.82,0,0,1-.29.61.76.76,0,0,1-1.22.1,3,3,0,0,0-.75-.65,2.51,2.51,0,0,0-.81-.31,4.62,4.62,0,0,0-.94-.09,3.36,3.36,0,0,0-.92.12,2.21,2.21,0,0,0-.75.38,1.61,1.61,0,0,0-.48.59,1.92,1.92,0,0,0-.17.81,1.44,1.44,0,0,0,.27.88,2.37,2.37,0,0,0,.74.61,6,6,0,0,0,1,.46l1.2.39c.45.14.9.31,1.35.5a5.62,5.62,0,0,1,1.19.72A3.27,3.27,0,0,1,37.36,59a4.05,4.05,0,0,1,0,3.27,3.35,3.35,0,0,1-1,1.2,4.76,4.76,0,0,1-1.48.73A5.86,5.86,0,0,1,33.08,64.44Z"/><path class="cls-1" d="M44.28,64.35a5.26,5.26,0,0,1-2-.38,4.52,4.52,0,0,1-1.51-1,4.63,4.63,0,0,1-.94-1.51,5.27,5.27,0,0,1-.32-1.84,4.44,4.44,0,0,1,.61-2.34,4.39,4.39,0,0,1,1.68-1.63A5,5,0,0,1,44.22,55a4.56,4.56,0,0,1,1.7.29,4,4,0,0,1,1.28.79A3.55,3.55,0,0,1,48,57.2a2.85,2.85,0,0,1,.28,1.22,1.74,1.74,0,0,1-.45,1.36,1.68,1.68,0,0,1-1.12.39H41.24a2.14,2.14,0,0,0,.44,1.43,3.05,3.05,0,0,0,1.18.92,3.37,3.37,0,0,0,1.43.32,8,8,0,0,0,.92-.05,4.64,4.64,0,0,0,.66-.15l.5-.19.37-.19a1.06,1.06,0,0,1,.31-.14.62.62,0,0,1,.33,0,.51.51,0,0,1,.26.26.86.86,0,0,1,.15.28.92.92,0,0,1,0,.29c0,.17-.15.37-.46.59a4.15,4.15,0,0,1-1.26.55A6.83,6.83,0,0,1,44.28,64.35Zm-3-5.31H46a1.27,1.27,0,0,0,.55-.09c.12-.06.18-.24.18-.51a1.51,1.51,0,0,0-.33-1,2.3,2.3,0,0,0-.88-.7,3,3,0,0,0-1.28-.26,3.5,3.5,0,0,0-1.53.33,2.7,2.7,0,0,0-1.09.9A2,2,0,0,0,41.24,59Z"/><path class="cls-1" d="M51.32,64.23a1.1,1.1,0,0,1-.54-.1.5.5,0,0,1-.23-.3,2,2,0,0,1,0-.45V55.83a1.58,1.58,0,0,1,.05-.41.46.46,0,0,1,.24-.27,1.23,1.23,0,0,1,.54-.1,1.32,1.32,0,0,1,.45.07.54.54,0,0,1,.23.18.73.73,0,0,1,.08.25,1.1,1.1,0,0,1,0,.25l0,.87a3.44,3.44,0,0,1,.48-.62,3.93,3.93,0,0,1,.66-.53,3.45,3.45,0,0,1,.83-.37A3.32,3.32,0,0,1,55,55a3.88,3.88,0,0,1,1.54.29,3.35,3.35,0,0,1,1.21.86,3.92,3.92,0,0,1,.77,1.34,5.08,5.08,0,0,1,.28,1.76V63.4a2,2,0,0,1-.05.45.44.44,0,0,1-.23.29,1.25,1.25,0,0,1-.54.09,1.17,1.17,0,0,1-.56-.1.51.51,0,0,1-.24-.3,1.93,1.93,0,0,1,0-.45V59.25a3.27,3.27,0,0,0-.27-1.38,2,2,0,0,0-.8-.92,2.4,2.4,0,0,0-1.34-.34,2.59,2.59,0,0,0-1.36.34,2.22,2.22,0,0,0-.9.92,2.87,2.87,0,0,0-.31,1.38V63.4a1.53,1.53,0,0,1-.06.45.44.44,0,0,1-.23.29A1.3,1.3,0,0,1,51.32,64.23Z"/><path class="cls-1" d="M61.43,55.26l1.83,0,2.64,0a1.93,1.93,0,0,1,.45,0,.46.46,0,0,1,.3.23,1.1,1.1,0,0,1,.1.54,1.25,1.25,0,0,1-.09.54.49.49,0,0,1-.29.24,1.49,1.49,0,0,1-.45.06l-2.61,0-1.92,0a.64.64,0,0,1-.54-.19,1.13,1.13,0,0,1-.14-.63.93.93,0,0,1,.17-.61A.75.75,0,0,1,61.43,55.26Zm4.26,9a5.87,5.87,0,0,1-1.51-.17,2.48,2.48,0,0,1-1-.53,2.13,2.13,0,0,1-.57-.94,5.36,5.36,0,0,1-.17-1.44v-8.4a1.53,1.53,0,0,1,.06-.45.5.5,0,0,1,.23-.3,1,1,0,0,1,.53-.1,1.17,1.17,0,0,1,.55.1.54.54,0,0,1,.25.29,1.87,1.87,0,0,1,0,.45v8.41a2.81,2.81,0,0,0,.09.79.83.83,0,0,0,.26.45,1,1,0,0,0,.49.19,7.32,7.32,0,0,0,.74,0,1.67,1.67,0,0,1,.49,0,.51.51,0,0,1,.29.23,1.5,1.5,0,0,1,0,1,.43.43,0,0,1-.31.23A2,2,0,0,1,65.69,64.25Z"/><path class="cls-1" d="M76.61,64.23a.9.9,0,0,1-.6-.17.79.79,0,0,1-.21-.53l.07-1A3.9,3.9,0,0,1,74.24,64a3.91,3.91,0,0,1-1.58.29,4.05,4.05,0,0,1-1.7-.36,4.43,4.43,0,0,1-1.39-1,4.64,4.64,0,0,1-.93-1.48,4.83,4.83,0,0,1-.33-1.79,4.66,4.66,0,0,1,.33-1.75,4.57,4.57,0,0,1,.94-1.46,4.72,4.72,0,0,1,1.4-1,3.89,3.89,0,0,1,1.68-.37,4.3,4.3,0,0,1,1.43.22,3.64,3.64,0,0,1,1,.57,4.3,4.3,0,0,1,.75.79l0-.8a.66.66,0,0,1,.18-.59,1.16,1.16,0,0,1,1.15-.07.5.5,0,0,1,.22.32,1.88,1.88,0,0,1,.06.51v7.34a1.68,1.68,0,0,1-.06.47.5.5,0,0,1-.22.32A1.1,1.1,0,0,1,76.61,64.23ZM73,62.65a2.61,2.61,0,0,0,1.39-.39,2.91,2.91,0,0,0,1-1.08,3.12,3.12,0,0,0,.37-1.55,3.06,3.06,0,0,0-.39-1.56,2.94,2.94,0,0,0-1-1.07,2.58,2.58,0,0,0-1.39-.39,2.89,2.89,0,0,0-1.55.41,3,3,0,0,0-1,1.09,3.22,3.22,0,0,0-.38,1.56,3.1,3.1,0,0,0,.38,1.53,2.77,2.77,0,0,0,1.06,1.06A3.07,3.07,0,0,0,73,62.65Z"/><path class="cls-1" d="M80.81,64.25a1.1,1.1,0,0,1-.54-.1.48.48,0,0,1-.23-.31,2.09,2.09,0,0,1-.05-.46V55.89a1.53,1.53,0,0,1,.06-.47.46.46,0,0,1,.23-.28,1.24,1.24,0,0,1,.55-.09,1.18,1.18,0,0,1,.52.09.47.47,0,0,1,.25.25,1,1,0,0,1,.07.37l-.08.57a4.53,4.53,0,0,1,.31-.5,2.15,2.15,0,0,1,.46-.44,2.34,2.34,0,0,1,.67-.34,3.34,3.34,0,0,1,1.5-.08,2.75,2.75,0,0,1,.49.14,1.75,1.75,0,0,1,.41.22,1.15,1.15,0,0,1,.27.27.52.52,0,0,1,.11.33,1,1,0,0,1-.27.71.74.74,0,0,1-.55.3.82.82,0,0,1-.36-.07l-.22-.14a1.54,1.54,0,0,0-.29-.15,2.24,2.24,0,0,0-.61-.06,1.91,1.91,0,0,0-.6.11,2.52,2.52,0,0,0-.6.33,1.8,1.8,0,0,0-.46.56,1.71,1.71,0,0,0-.18.8v5.09a1.56,1.56,0,0,1-.06.46.45.45,0,0,1-.24.28A1.14,1.14,0,0,1,80.81,64.25Z"/><path class="cls-1" d="M91,64.35a5.39,5.39,0,0,1-1-.1,4.59,4.59,0,0,1-1-.28,3.84,3.84,0,0,1-.81-.42,1.83,1.83,0,0,1-.53-.55,1.16,1.16,0,0,1-.11-.35.59.59,0,0,1,.06-.32A1,1,0,0,1,88,62a.47.47,0,0,1,.38-.22.89.89,0,0,1,.47.26l.49.29a6.45,6.45,0,0,0,.59.29,5,5,0,0,0,.62.2,2.27,2.27,0,0,0,.62.09,2.61,2.61,0,0,0,1.4-.33,1,1,0,0,0,.54-.89,1.07,1.07,0,0,0-.14-.55,1.21,1.21,0,0,0-.36-.39,2.46,2.46,0,0,0-.51-.27,5.93,5.93,0,0,0-.64-.22l-.69-.2c-.34-.09-.68-.19-1-.31a3.69,3.69,0,0,1-.89-.44,2.29,2.29,0,0,1-.65-.7,2.24,2.24,0,0,1-.24-1.1,2.27,2.27,0,0,1,.4-1.35,2.56,2.56,0,0,1,1.12-.88A4.18,4.18,0,0,1,91.15,55a6.26,6.26,0,0,1,.78,0,3.2,3.2,0,0,1,.69.19,5.17,5.17,0,0,1,.64.28,4.29,4.29,0,0,1,.59.39.73.73,0,0,1,.36.49A.81.81,0,0,1,94,57a.8.8,0,0,1-.38.32.43.43,0,0,1-.42-.11,4.71,4.71,0,0,0-.65-.4,5.38,5.38,0,0,0-.7-.28,2.34,2.34,0,0,0-.74-.12,2.26,2.26,0,0,0-.85.15,1.22,1.22,0,0,0-.57.42,1,1,0,0,0-.2.61.74.74,0,0,0,.17.5,1.36,1.36,0,0,0,.41.32,3.88,3.88,0,0,0,.61.24l.73.2c.37.09.75.19,1.13.31a4.21,4.21,0,0,1,1,.48,2.33,2.33,0,0,1,.76.77,2.44,2.44,0,0,1,.29,1.29,2.33,2.33,0,0,1-1,2A4.38,4.38,0,0,1,91,64.35Z"/><path class="cls-1" d="M101.31,64.35a5.21,5.21,0,0,1-2-.38,4.43,4.43,0,0,1-2.45-2.55,5,5,0,0,1-.32-1.84,4.37,4.37,0,0,1,2.29-4,5,5,0,0,1,2.46-.59,4.56,4.56,0,0,1,1.7.29,4.13,4.13,0,0,1,1.28.79,3.72,3.72,0,0,1,.82,1.1,2.85,2.85,0,0,1,.28,1.22,1.74,1.74,0,0,1-.45,1.36,1.69,1.69,0,0,1-1.13.39H98.27a2.2,2.2,0,0,0,.45,1.43,3,3,0,0,0,1.18.92,3.34,3.34,0,0,0,1.43.32,7.64,7.64,0,0,0,.91-.05,4.5,4.5,0,0,0,.67-.15l.49-.19.37-.19a1.25,1.25,0,0,1,.32-.14.62.62,0,0,1,.33,0,.55.55,0,0,1,.26.26,1.1,1.1,0,0,1,.15.28,1.35,1.35,0,0,1,0,.29c0,.17-.16.37-.46.59a4.15,4.15,0,0,1-1.26.55A6.86,6.86,0,0,1,101.31,64.35Zm-3-5.31H103a1.25,1.25,0,0,0,.54-.09c.12-.06.18-.24.18-.51a1.5,1.5,0,0,0-.32-1,2.3,2.3,0,0,0-.88-.7,3.08,3.08,0,0,0-1.28-.26,3.5,3.5,0,0,0-1.53.33,2.73,2.73,0,0,0-1.1.9A2.15,2.15,0,0,0,98.27,59Z"/><path class="cls-1" d="M117,64.29a5.33,5.33,0,0,1-1.85-.32A4.47,4.47,0,0,1,113.6,63a4.31,4.31,0,0,1-1-1.45,5.22,5.22,0,0,1,0-3.86,4.53,4.53,0,0,1,1-1.45,4.26,4.26,0,0,1,1.51-.93,5.07,5.07,0,0,1,1.83-.32,3.92,3.92,0,0,1,1.27.2,4.6,4.6,0,0,1,1.12.51,2.29,2.29,0,0,1,.69.65,2.77,2.77,0,0,1,.27.41.43.43,0,0,1,0,.37,1.1,1.1,0,0,1-.2.28,1.56,1.56,0,0,1-.27.2.58.58,0,0,1-.69.07,3.62,3.62,0,0,0-.46-.39,4.86,4.86,0,0,0-.54-.33,3.56,3.56,0,0,0-.58-.24,2.51,2.51,0,0,0-.62-.08,3.26,3.26,0,0,0-1.58.37,2.69,2.69,0,0,0-1,1,3.2,3.2,0,0,0-.37,1.57,3.1,3.1,0,0,0,.37,1.56,2.76,2.76,0,0,0,1,1,3.15,3.15,0,0,0,1.55.38,2.76,2.76,0,0,0,.77-.11,3.3,3.3,0,0,0,.7-.28,2.51,2.51,0,0,0,.53-.39l.32-.23a.58.58,0,0,1,.32-.1.53.53,0,0,1,.33.13,1.82,1.82,0,0,1,.36.37.69.69,0,0,1,.18.36.5.5,0,0,1-.07.36,1.15,1.15,0,0,1-.3.34,3.38,3.38,0,0,1-.81.58,6.23,6.23,0,0,1-1.09.45A4.29,4.29,0,0,1,117,64.29Z"/><path class="cls-1" d="M126.73,64.36A4.45,4.45,0,0,1,125,64a4.94,4.94,0,0,1-1.51-1,4.78,4.78,0,0,1-1-1.5,4.79,4.79,0,0,1,0-3.69,4.73,4.73,0,0,1,1-1.49,4.94,4.94,0,0,1,1.49-1,4.45,4.45,0,0,1,1.82-.37,4.59,4.59,0,0,1,2.36.62,4.51,4.51,0,0,1,1.68,1.68,4.61,4.61,0,0,1,.63,2.39,4.72,4.72,0,0,1-.38,1.91A4.37,4.37,0,0,1,130,63a4.61,4.61,0,0,1-1.48,1A4.34,4.34,0,0,1,126.73,64.36Zm0-1.65a2.86,2.86,0,0,0,1.48-.4,3.07,3.07,0,0,0,1.52-2.7,3.1,3.1,0,0,0-.39-1.57A2.82,2.82,0,0,0,128.24,57a3.22,3.22,0,0,0-1.56-.38,3,3,0,0,0-1.51.4,3.22,3.22,0,0,0-1.09,1.08,3,3,0,0,0-.4,1.56,3.13,3.13,0,0,0,.41,1.61,3.06,3.06,0,0,0,2.61,1.47Z"/><path class="cls-1" d="M134.34,64.23a1.12,1.12,0,0,1-.55-.1.45.45,0,0,1-.22-.3,1.51,1.51,0,0,1,0-.45V55.83a1.58,1.58,0,0,1,0-.41.46.46,0,0,1,.24-.27,1.23,1.23,0,0,1,.54-.1,1.32,1.32,0,0,1,.45.07.54.54,0,0,1,.23.18.73.73,0,0,1,.08.25,1.1,1.1,0,0,1,0,.25l0,.87a3.44,3.44,0,0,1,.48-.62,3.93,3.93,0,0,1,.66-.53,3.45,3.45,0,0,1,.83-.37,3.32,3.32,0,0,1,1-.13,3.88,3.88,0,0,1,1.54.29,3.35,3.35,0,0,1,1.21.86,4.11,4.11,0,0,1,.78,1.34,5.33,5.33,0,0,1,.27,1.76V63.4a2,2,0,0,1,0,.45.43.43,0,0,1-.22.29,1.34,1.34,0,0,1-.55.09,1.17,1.17,0,0,1-.56-.1.46.46,0,0,1-.23-.3,1.49,1.49,0,0,1-.06-.45V59.25a3.27,3.27,0,0,0-.27-1.38,2,2,0,0,0-.79-.92,2.46,2.46,0,0,0-1.35-.34,2.59,2.59,0,0,0-1.36.34,2.22,2.22,0,0,0-.9.92,3,3,0,0,0-.31,1.38V63.4a1.53,1.53,0,0,1-.06.45.44.44,0,0,1-.23.29A1.25,1.25,0,0,1,134.34,64.23Z"/><path class="cls-1" d="M152.37,64.25a5.29,5.29,0,0,1-1.1-.1,2.43,2.43,0,0,1-.84-.34,2,2,0,0,1-.6-.59,2.44,2.44,0,0,1-.34-.87,6,6,0,0,1-.11-1.2v-9.5a2,2,0,0,1,.05-.47.45.45,0,0,1,.24-.3,1.11,1.11,0,0,1,.53-.1,1.33,1.33,0,0,1,.56.09.49.49,0,0,1,.24.29,1.53,1.53,0,0,1,.06.45v9.52a2.52,2.52,0,0,0,.07.66,1.23,1.23,0,0,0,.24.47.88.88,0,0,0,.41.26,2,2,0,0,0,.59.08,1.48,1.48,0,0,1,.39,0,.5.5,0,0,1,.25.23,1.06,1.06,0,0,1,.1.53,1.14,1.14,0,0,1-.1.56.4.4,0,0,1-.25.23A1.48,1.48,0,0,1,152.37,64.25Z"/><path class="cls-1" d="M162.93,64.23a.88.88,0,0,1-.6-.17.84.84,0,0,1-.22-.53l.08-1a4,4,0,0,1-.59.69,3.76,3.76,0,0,1-1,.69,4,4,0,0,1-1.58.29,4,4,0,0,1-1.7-.36,4.32,4.32,0,0,1-1.39-1A4.64,4.64,0,0,1,155,61.4a4.83,4.83,0,0,1-.33-1.79,4.66,4.66,0,0,1,.33-1.75,4.41,4.41,0,0,1,.94-1.46,4.72,4.72,0,0,1,1.4-1,3.82,3.82,0,0,1,1.68-.37,4.19,4.19,0,0,1,1.42.22,3.7,3.7,0,0,1,1,.57,5.09,5.09,0,0,1,.75.79l0-.8a.72.72,0,0,1,.18-.59.91.91,0,0,1,.64-.19.89.89,0,0,1,.52.12.53.53,0,0,1,.22.32,1.88,1.88,0,0,1,.06.51v7.34a1.68,1.68,0,0,1-.06.47.51.51,0,0,1-.23.32A1,1,0,0,1,162.93,64.23Zm-3.67-1.58a2.62,2.62,0,0,0,1.4-.39,3,3,0,0,0,1-1.08,3.23,3.23,0,0,0,.37-1.55,3.06,3.06,0,0,0-.39-1.56,2.94,2.94,0,0,0-1-1.07,2.61,2.61,0,0,0-1.39-.39,2.87,2.87,0,0,0-1.55.41,2.94,2.94,0,0,0-1,1.09,3.22,3.22,0,0,0-.38,1.56,3.1,3.1,0,0,0,.38,1.53,2.7,2.7,0,0,0,1.06,1.06A3.06,3.06,0,0,0,159.26,62.65Z"/><path class="cls-1" d="M175.74,64.35a5.26,5.26,0,0,1-2-.38,4.52,4.52,0,0,1-1.51-1,4.63,4.63,0,0,1-.94-1.51,5.27,5.27,0,0,1-.32-1.84,4.44,4.44,0,0,1,.61-2.34,4.39,4.39,0,0,1,1.68-1.63,5,5,0,0,1,2.46-.59,4.56,4.56,0,0,1,1.7.29,4,4,0,0,1,1.28.79,3.55,3.55,0,0,1,.82,1.1,2.85,2.85,0,0,1,.28,1.22,1.74,1.74,0,0,1-.45,1.36,1.68,1.68,0,0,1-1.12.39H172.7a2.14,2.14,0,0,0,.44,1.43,3.05,3.05,0,0,0,1.18.92,3.38,3.38,0,0,0,1.44.32,7.9,7.9,0,0,0,.91-.05,4.64,4.64,0,0,0,.66-.15l.5-.19.37-.19a1.06,1.06,0,0,1,.31-.14.62.62,0,0,1,.33,0,.51.51,0,0,1,.26.26.86.86,0,0,1,.15.28.92.92,0,0,1,0,.29c0,.17-.15.37-.46.59a4.15,4.15,0,0,1-1.26.55A6.83,6.83,0,0,1,175.74,64.35Zm-3-5.31h4.76A1.27,1.27,0,0,0,178,59c.12-.06.18-.24.18-.51a1.51,1.51,0,0,0-.33-1,2.3,2.3,0,0,0-.88-.7,3,3,0,0,0-1.28-.26,3.5,3.5,0,0,0-1.53.33,2.7,2.7,0,0,0-1.09.9A2,2,0,0,0,172.7,59Z"/><path class="cls-1" d="M185,64.35a5.29,5.29,0,0,1-.95-.1,4.59,4.59,0,0,1-1-.28,4.2,4.2,0,0,1-.82-.42,1.79,1.79,0,0,1-.52-.55,1.16,1.16,0,0,1-.11-.35.51.51,0,0,1,0-.32,1.2,1.2,0,0,1,.23-.3.48.48,0,0,1,.38-.22.91.91,0,0,1,.48.26l.49.29a6.45,6.45,0,0,0,.59.29,4.48,4.48,0,0,0,.62.2,2.15,2.15,0,0,0,.61.09,2.65,2.65,0,0,0,1.41-.33,1,1,0,0,0,.53-.89,1.07,1.07,0,0,0-.13-.55,1.33,1.33,0,0,0-.36-.39,2.55,2.55,0,0,0-.52-.27,6.55,6.55,0,0,0-.63-.22l-.7-.2c-.34-.09-.67-.19-1-.31a3.76,3.76,0,0,1-.9-.44,2.25,2.25,0,0,1-.64-.7,2.13,2.13,0,0,1-.25-1.1,2.27,2.27,0,0,1,.4-1.35,2.61,2.61,0,0,1,1.12-.88,4.21,4.21,0,0,1,1.69-.31,6.26,6.26,0,0,1,.78,0,3.2,3.2,0,0,1,.69.19,4.12,4.12,0,0,1,.64.28,4.29,4.29,0,0,1,.59.39.68.68,0,0,1,.36.49A.81.81,0,0,1,188,57a.76.76,0,0,1-.38.32.43.43,0,0,1-.42-.11,4.6,4.6,0,0,0-.64-.4,6,6,0,0,0-.7-.28,2.4,2.4,0,0,0-.75-.12,2.24,2.24,0,0,0-.84.15,1.13,1.13,0,0,0-.57.42,1,1,0,0,0-.2.61.73.73,0,0,0,.16.5,1.55,1.55,0,0,0,.42.32,3.23,3.23,0,0,0,.61.24l.73.2c.37.09.74.19,1.13.31a4.31,4.31,0,0,1,1,.48,2.24,2.24,0,0,1,.76.77,2.44,2.44,0,0,1,.3,1.29,2.31,2.31,0,0,1-1,2A4.35,4.35,0,0,1,185,64.35Z"/><path class="cls-1" d="M191.66,68a1.1,1.1,0,0,1-.54-.1.53.53,0,0,1-.25-.3,1.18,1.18,0,0,1-.07-.45V55.91a1.56,1.56,0,0,1,.06-.46.52.52,0,0,1,.24-.29,1.09,1.09,0,0,1,.54-.11,1.14,1.14,0,0,1,.62.14.59.59,0,0,1,.23.47V67.12a1.34,1.34,0,0,1,0,.46.5.5,0,0,1-.24.31A1.17,1.17,0,0,1,191.66,68Zm4-3.82a4.05,4.05,0,0,1-1.69-.34,3.64,3.64,0,0,1-1.29-1,4.4,4.4,0,0,1-.83-1.45,5,5,0,0,1-.27-1.84,5.66,5.66,0,0,1,.28-1.83,4.33,4.33,0,0,1,.83-1.45,3.67,3.67,0,0,1,1.29-.95,4.13,4.13,0,0,1,1.68-.33,4,4,0,0,1,1.64.34,4.06,4.06,0,0,1,1.35,1,4.4,4.4,0,0,1,.91,1.47,4.86,4.86,0,0,1,.34,1.84,4.77,4.77,0,0,1-.34,1.83,4.36,4.36,0,0,1-.91,1.44,3.87,3.87,0,0,1-1.35.94A4.11,4.11,0,0,1,195.61,64.17Zm-.25-1.55a2.74,2.74,0,0,0,1.45-.39,2.7,2.7,0,0,0,1-1.08,3.14,3.14,0,0,0,.37-1.55,3.1,3.1,0,0,0-.37-1.56,2.64,2.64,0,0,0-1-1,2.83,2.83,0,0,0-1.46-.37,2.75,2.75,0,0,0-1.43.38,2.69,2.69,0,0,0-1,1.05,3.05,3.05,0,0,0-.37,1.54,3.14,3.14,0,0,0,.37,1.55,2.77,2.77,0,0,0,1,1.08A2.67,2.67,0,0,0,195.36,62.62Z"/><path class="cls-1" d="M210,64.23a.85.85,0,0,1-.59-.17.79.79,0,0,1-.22-.53l.07-1A3.9,3.9,0,0,1,207.6,64a3.91,3.91,0,0,1-1.58.29,4.05,4.05,0,0,1-1.7-.36,4.43,4.43,0,0,1-1.39-1,4.74,4.74,0,0,1-1.26-3.27,4.66,4.66,0,0,1,.33-1.75,4.57,4.57,0,0,1,.94-1.46,4.72,4.72,0,0,1,1.4-1,3.89,3.89,0,0,1,1.68-.37,4.3,4.3,0,0,1,1.43.22,3.64,3.64,0,0,1,1,.57,4.3,4.3,0,0,1,.75.79l0-.8a.66.66,0,0,1,.18-.59.86.86,0,0,1,.63-.19.92.92,0,0,1,.53.12.52.52,0,0,1,.21.32,1.88,1.88,0,0,1,.06.51v7.34a1.68,1.68,0,0,1-.06.47.5.5,0,0,1-.22.32A1.1,1.1,0,0,1,210,64.23Zm-3.66-1.58a2.61,2.61,0,0,0,1.39-.39,2.91,2.91,0,0,0,1-1.08,3.12,3.12,0,0,0,.37-1.55,3.06,3.06,0,0,0-.39-1.56,3,3,0,0,0-1-1.07,2.64,2.64,0,0,0-1.4-.39,2.89,2.89,0,0,0-1.55.41,3,3,0,0,0-1,1.09,3.22,3.22,0,0,0-.38,1.56,3.1,3.1,0,0,0,.38,1.53,2.77,2.77,0,0,0,1.06,1.06A3.07,3.07,0,0,0,206.31,62.65Z"/><path class="cls-1" d="M216.22,64.25a5.25,5.25,0,0,1-1.09-.1,2.43,2.43,0,0,1-.84-.34,2,2,0,0,1-.6-.59,2.44,2.44,0,0,1-.34-.87,6,6,0,0,1-.11-1.2v-9.5a2,2,0,0,1,0-.47.45.45,0,0,1,.24-.3,1.09,1.09,0,0,1,.53-.1,1.33,1.33,0,0,1,.56.09.49.49,0,0,1,.24.29,2,2,0,0,1,0,.45v9.52a2.48,2.48,0,0,0,.08.66,1.23,1.23,0,0,0,.24.47.83.83,0,0,0,.41.26,2,2,0,0,0,.58.08,1.37,1.37,0,0,1,.39,0,.49.49,0,0,1,.26.23,1.18,1.18,0,0,1,.1.53,1.27,1.27,0,0,1-.1.56.39.39,0,0,1-.26.23A1.37,1.37,0,0,1,216.22,64.25Z"/><path class="cls-1" d="M222.93,64.25a4.06,4.06,0,0,1-3-1.31,4.61,4.61,0,0,1-.91-1.47,4.89,4.89,0,0,1-.34-1.86,4.75,4.75,0,0,1,.34-1.82,4.41,4.41,0,0,1,.91-1.45,4.1,4.1,0,0,1,1.36-1,4.09,4.09,0,0,1,3.31,0,3.82,3.82,0,0,1,1.29,1,4.12,4.12,0,0,1,.83,1.46,5.66,5.66,0,0,1,.29,1.83,5.24,5.24,0,0,1-.28,1.85,4.66,4.66,0,0,1-.83,1.46,3.6,3.6,0,0,1-1.28,1A4,4,0,0,1,222.93,64.25Zm.25-1.61a2.75,2.75,0,0,0,1.43-.38,2.78,2.78,0,0,0,1-1.06,3.12,3.12,0,0,0,.37-1.55,3.2,3.2,0,0,0-.37-1.57,2.73,2.73,0,0,0-2.44-1.43,2.85,2.85,0,0,0-1.45.38,2.68,2.68,0,0,0-1,1,3.2,3.2,0,0,0-.37,1.57,3.12,3.12,0,0,0,.37,1.55,2.74,2.74,0,0,0,1,1.06A2.87,2.87,0,0,0,223.18,62.64Zm3.72,1.61a1,1,0,0,1-.61-.15.72.72,0,0,1-.22-.51V51.69a2.05,2.05,0,0,1,0-.47.5.5,0,0,1,.23-.3,1.51,1.51,0,0,1,1.08,0,.48.48,0,0,1,.24.3,1.44,1.44,0,0,1,.06.45V63.38a1.6,1.6,0,0,1-.06.46.52.52,0,0,1-.23.31A1,1,0,0,1,226.9,64.25Z"/><path class="cls-1" d="M238.21,64.23a.88.88,0,0,1-.6-.17.84.84,0,0,1-.22-.53l.08-1a4.55,4.55,0,0,1-.59.69,3.6,3.6,0,0,1-2.62,1,4.1,4.1,0,0,1-1.71-.36,4.39,4.39,0,0,1-1.38-1,4.81,4.81,0,0,1-1.27-3.27,4.47,4.47,0,0,1,.34-1.75,4.41,4.41,0,0,1,.94-1.46,4.67,4.67,0,0,1,1.39-1,3.9,3.9,0,0,1,1.69-.37,4.24,4.24,0,0,1,1.42.22,3.86,3.86,0,0,1,1,.57,5.09,5.09,0,0,1,.75.79l0-.8a.72.72,0,0,1,.18-.59.88.88,0,0,1,.64-.19.89.89,0,0,1,.52.12.53.53,0,0,1,.22.32A1.91,1.91,0,0,1,239,56v7.34a1.7,1.7,0,0,1-.05.47.55.55,0,0,1-.23.32A1,1,0,0,1,238.21,64.23Zm-3.67-1.58a2.64,2.64,0,0,0,1.4-.39,2.89,2.89,0,0,0,1-1.08,3.12,3.12,0,0,0,.37-1.55,3.06,3.06,0,0,0-.39-1.56,2.91,2.91,0,0,0-1-1.07,2.64,2.64,0,0,0-1.4-.39A2.91,2.91,0,0,0,233,57a3,3,0,0,0-1,1.09,3.11,3.11,0,0,0-.38,1.56,3,3,0,0,0,.38,1.53A2.68,2.68,0,0,0,233,62.26,3.07,3.07,0,0,0,234.54,62.65Z"/><path class="cls-1" d="M247.52,64.25a1.1,1.1,0,0,1-.54-.1.48.48,0,0,1-.23-.31,2.09,2.09,0,0,1-.05-.46V55.89a1.53,1.53,0,0,1,.06-.47.45.45,0,0,1,.22-.28,1.29,1.29,0,0,1,.56-.09,1.21,1.21,0,0,1,.52.09.51.51,0,0,1,.25.25,1,1,0,0,1,.06.37l-.07.57a3.4,3.4,0,0,1,.31-.5,1.94,1.94,0,0,1,.46-.44,2.28,2.28,0,0,1,.66-.34,3.28,3.28,0,0,1,1-.13,3.1,3.1,0,0,1,.54,0,2.85,2.85,0,0,1,.5.14,1.89,1.89,0,0,1,.4.22,1,1,0,0,1,.28.27.52.52,0,0,1,.1.33,1,1,0,0,1-.26.71.74.74,0,0,1-.91.23l-.22-.14a1.38,1.38,0,0,0-.3-.15,2.19,2.19,0,0,0-.61-.06,1.9,1.9,0,0,0-.59.11,2.52,2.52,0,0,0-.6.33,1.82,1.82,0,0,0-.47.56,1.71,1.71,0,0,0-.18.8v5.09a2,2,0,0,1-.05.46.45.45,0,0,1-.24.28A1.17,1.17,0,0,1,247.52,64.25Z"/><path class="cls-1" d="M259,64.35a5.17,5.17,0,0,1-2-.38,4.43,4.43,0,0,1-2.45-2.55,5,5,0,0,1-.32-1.84,4.38,4.38,0,0,1,2.28-4A5.1,5.1,0,0,1,259,55a4.6,4.6,0,0,1,1.7.29,4.13,4.13,0,0,1,1.28.79,3.72,3.72,0,0,1,.82,1.1,3,3,0,0,1,.28,1.22,1.7,1.7,0,0,1-.46,1.36,1.64,1.64,0,0,1-1.12.39H256a2.2,2.2,0,0,0,.45,1.43,3,3,0,0,0,1.18.92,3.34,3.34,0,0,0,1.43.32,7.64,7.64,0,0,0,.91-.05,4.5,4.5,0,0,0,.67-.15l.49-.19.37-.19a1.12,1.12,0,0,1,.32-.14.62.62,0,0,1,.33,0,.55.55,0,0,1,.26.26,1.1,1.1,0,0,1,.15.28,1.35,1.35,0,0,1,0,.29c0,.17-.16.37-.46.59a4.39,4.39,0,0,1-1.26.55A6.86,6.86,0,0,1,259,64.35ZM256,59h4.77a1.25,1.25,0,0,0,.54-.09c.12-.06.18-.24.18-.51a1.5,1.5,0,0,0-.32-1,2.38,2.38,0,0,0-.88-.7,3.09,3.09,0,0,0-1.29-.26,3.56,3.56,0,0,0-1.53.33,2.77,2.77,0,0,0-1.09.9A2.15,2.15,0,0,0,256,59Z"/><path class="cls-1" d="M269.56,64.29A5.42,5.42,0,0,1,267.7,64a4.67,4.67,0,0,1-1.52-.94,4.42,4.42,0,0,1-1-1.45,5.22,5.22,0,0,1,0-3.86,4.5,4.5,0,0,1,1-1.45,4.39,4.39,0,0,1,1.52-.93,5,5,0,0,1,1.83-.32,4,4,0,0,1,1.27.2,4.36,4.36,0,0,1,1.11.51,2.23,2.23,0,0,1,.7.65,3.94,3.94,0,0,1,.27.41.43.43,0,0,1,0,.37.94.94,0,0,1-.21.28,1.51,1.51,0,0,1-.26.2.58.58,0,0,1-.69.07,4.49,4.49,0,0,0-.46-.39,4.86,4.86,0,0,0-.54-.33,3.56,3.56,0,0,0-.58-.24,2.57,2.57,0,0,0-.62-.08,3.24,3.24,0,0,0-1.58.37,2.63,2.63,0,0,0-1.05,1,3.2,3.2,0,0,0-.37,1.57,3.1,3.1,0,0,0,.37,1.56,2.69,2.69,0,0,0,1,1,3.15,3.15,0,0,0,1.55.38,2.81,2.81,0,0,0,.77-.11,3,3,0,0,0,.69-.28,2.35,2.35,0,0,0,.54-.39l.32-.23a.58.58,0,0,1,.32-.1.51.51,0,0,1,.32.13,1.61,1.61,0,0,1,.37.37.69.69,0,0,1,.18.36.56.56,0,0,1-.07.36,1.15,1.15,0,0,1-.3.34,3.84,3.84,0,0,1-.81.58,6.23,6.23,0,0,1-1.09.45A4.34,4.34,0,0,1,269.56,64.29Z"/><path class="cls-1" d="M275.24,55.26l1.82,0,2.64,0a2,2,0,0,1,.46,0,.47.47,0,0,1,.29.23,1.09,1.09,0,0,1,.11.54,1.1,1.1,0,0,1-.1.54.47.47,0,0,1-.28.24,1.56,1.56,0,0,1-.46.06l-2.6,0-1.92,0a.62.62,0,0,1-.54-.19,1,1,0,0,1-.14-.63.87.87,0,0,1,.17-.61A.71.71,0,0,1,275.24,55.26Zm4.25,9a5.93,5.93,0,0,1-1.51-.17,2.38,2.38,0,0,1-1-.53,2,2,0,0,1-.57-.94,5,5,0,0,1-.17-1.44v-8.4a1.55,1.55,0,0,1,0-.45.53.53,0,0,1,.23-.3,1,1,0,0,1,.53-.1,1.15,1.15,0,0,1,.55.1.5.5,0,0,1,.25.29,1.44,1.44,0,0,1,.06.45v8.41A3.31,3.31,0,0,0,278,62a.91.91,0,0,0,.27.45,1,1,0,0,0,.48.19c.21,0,.45,0,.74,0a1.75,1.75,0,0,1,.5,0,.49.49,0,0,1,.28.23,1,1,0,0,1,.1.51,1.09,1.09,0,0,1-.11.54.43.43,0,0,1-.3.23A2,2,0,0,1,279.49,64.25Z"/><path class="cls-1" d="M290.42,64.23a.88.88,0,0,1-.6-.17.84.84,0,0,1-.22-.53l.08-1a4.55,4.55,0,0,1-.59.69,3.6,3.6,0,0,1-2.62,1,4,4,0,0,1-1.7-.36,4.32,4.32,0,0,1-1.39-1,4.64,4.64,0,0,1-.93-1.48,4.83,4.83,0,0,1-.33-1.79,4.66,4.66,0,0,1,.33-1.75,4.41,4.41,0,0,1,.94-1.46,4.59,4.59,0,0,1,1.4-1,3.82,3.82,0,0,1,1.68-.37,4.24,4.24,0,0,1,1.42.22,3.86,3.86,0,0,1,1,.57,5.09,5.09,0,0,1,.75.79l0-.8a.72.72,0,0,1,.18-.59,1.18,1.18,0,0,1,1.16-.07.53.53,0,0,1,.22.32,1.88,1.88,0,0,1,.06.51v7.34a1.68,1.68,0,0,1-.06.47.55.55,0,0,1-.23.32A1,1,0,0,1,290.42,64.23Zm-3.67-1.58a2.64,2.64,0,0,0,1.4-.39,3,3,0,0,0,1-1.08,3.23,3.23,0,0,0,.37-1.55,3.06,3.06,0,0,0-.39-1.56,3,3,0,0,0-1-1.07,2.62,2.62,0,0,0-1.4-.39,2.85,2.85,0,0,0-1.54.41,2.94,2.94,0,0,0-1,1.09,3.22,3.22,0,0,0-.38,1.56,3.1,3.1,0,0,0,.38,1.53,2.68,2.68,0,0,0,1.05,1.06A3.1,3.1,0,0,0,286.75,62.65Z"/><path class="cls-1" d="M302.81,63l-4.35-6.7a.69.69,0,0,1,.24-1.14.89.89,0,0,1,.68-.2,1,1,0,0,1,.52.44l3.69,5.8Zm-1.88,4.91c-.31-.13-.49-.28-.54-.44a1,1,0,0,1,.14-.68l5-11.31A1.06,1.06,0,0,1,306,55a.89.89,0,0,1,.67.08c.31.14.48.3.52.46a1,1,0,0,1-.12.67L302,67.54q-.19.43-.42.51A1,1,0,0,1,300.93,67.94Z"/><path class="cls-1" d="M322.11,64.23a.88.88,0,0,1-.6-.17.84.84,0,0,1-.22-.53l.08-1a4,4,0,0,1-.59.69,3.76,3.76,0,0,1-1,.69,4,4,0,0,1-1.58.29,4,4,0,0,1-1.7-.36,4.32,4.32,0,0,1-1.39-1,4.64,4.64,0,0,1-.93-1.48,4.83,4.83,0,0,1-.33-1.79,4.66,4.66,0,0,1,.33-1.75,4.41,4.41,0,0,1,.94-1.46,4.72,4.72,0,0,1,1.4-1,3.82,3.82,0,0,1,1.68-.37,4.19,4.19,0,0,1,1.42.22,3.56,3.56,0,0,1,1,.57,5.09,5.09,0,0,1,.75.79l0-.8a.72.72,0,0,1,.18-.59.91.91,0,0,1,.64-.19.89.89,0,0,1,.52.12.53.53,0,0,1,.22.32,1.88,1.88,0,0,1,.06.51v7.34a1.68,1.68,0,0,1-.06.47.51.51,0,0,1-.23.32A1,1,0,0,1,322.11,64.23Zm-3.67-1.58a2.62,2.62,0,0,0,1.4-.39,3,3,0,0,0,1-1.08,3.23,3.23,0,0,0,.37-1.55,3.06,3.06,0,0,0-.39-1.56,2.94,2.94,0,0,0-1-1.07,2.61,2.61,0,0,0-1.39-.39,2.87,2.87,0,0,0-1.55.41,2.94,2.94,0,0,0-1,1.09,3.22,3.22,0,0,0-.38,1.56,3.1,3.1,0,0,0,.38,1.53,2.7,2.7,0,0,0,1.06,1.06A3.06,3.06,0,0,0,318.44,62.65Z"/><path class="cls-1" d="M326.18,68a1.15,1.15,0,0,1-.55-.1.51.51,0,0,1-.24-.3,1.18,1.18,0,0,1-.07-.45V55.91a1.56,1.56,0,0,1,.06-.46.49.49,0,0,1,.24-.29,1.09,1.09,0,0,1,.54-.11,1.08,1.08,0,0,1,.61.14.57.57,0,0,1,.24.47V67.12a1.32,1.32,0,0,1,0,.46.46.46,0,0,1-.23.31A1.17,1.17,0,0,1,326.18,68Zm3.95-3.82a4,4,0,0,1-1.69-.34,3.64,3.64,0,0,1-1.29-1,4.23,4.23,0,0,1-.83-1.45,5.19,5.19,0,0,1-.28-1.84,5.66,5.66,0,0,1,.29-1.83,4.3,4.3,0,0,1,.82-1.45,3.8,3.8,0,0,1,1.3-.95,4.13,4.13,0,0,1,1.68-.33,4,4,0,0,1,1.64.34,4.27,4.27,0,0,1,1.35,1,4.4,4.4,0,0,1,.91,1.47,5.05,5.05,0,0,1,.33,1.84,5,5,0,0,1-.33,1.83,4.36,4.36,0,0,1-.91,1.44,4.06,4.06,0,0,1-1.35.94A4.11,4.11,0,0,1,330.13,64.17Zm-.25-1.55a2.74,2.74,0,0,0,2.46-1.47,3.14,3.14,0,0,0,.37-1.55,3.1,3.1,0,0,0-.37-1.56,2.66,2.66,0,0,0-1-1,3,3,0,0,0-2.88,0,2.69,2.69,0,0,0-1,1.05,3.05,3.05,0,0,0-.37,1.54,3.14,3.14,0,0,0,.37,1.55,2.77,2.77,0,0,0,1,1.08A2.67,2.67,0,0,0,329.88,62.62Z"/><path class="cls-1" d="M340.82,64.36a4.45,4.45,0,0,1-1.77-.36,4.94,4.94,0,0,1-1.51-1,4.78,4.78,0,0,1-1.05-1.5,4.79,4.79,0,0,1,0-3.69,4.73,4.73,0,0,1,1-1.49,4.94,4.94,0,0,1,1.49-1,4.45,4.45,0,0,1,1.82-.37,4.59,4.59,0,0,1,2.36.62,4.51,4.51,0,0,1,1.68,1.68,4.61,4.61,0,0,1,.63,2.39,4.72,4.72,0,0,1-.38,1.91,4.37,4.37,0,0,1-1,1.49,4.61,4.61,0,0,1-1.48,1A4.34,4.34,0,0,1,340.82,64.36Zm0-1.65a2.86,2.86,0,0,0,1.48-.4,3.07,3.07,0,0,0,1.52-2.7A3.1,3.1,0,0,0,343.4,58,2.82,2.82,0,0,0,342.33,57a3.22,3.22,0,0,0-1.56-.38,3,3,0,0,0-1.51.4,3.22,3.22,0,0,0-1.09,1.08,3,3,0,0,0-.4,1.56,3.13,3.13,0,0,0,.41,1.61,3.06,3.06,0,0,0,2.61,1.47Z"/><path class="cls-1" d="M351.5,63l-4.35-6.7a.69.69,0,0,1,.25-1.14.87.87,0,0,1,.67-.2,1,1,0,0,1,.53.44l3.68,5.8Zm-1.88,4.91c-.3-.13-.48-.28-.53-.44a1,1,0,0,1,.13-.68l5-11.31a1.1,1.1,0,0,1,.44-.54.91.91,0,0,1,.68.08c.3.14.48.3.52.46a1,1,0,0,1-.12.67l-5.07,11.36q-.19.43-.42.51A1.05,1.05,0,0,1,349.62,67.94Z"/><path class="cls-1" d="M365.7,64.23a.88.88,0,0,1-.6-.17.79.79,0,0,1-.22-.53l.07-1a3.91,3.91,0,0,1-.58.69,3.83,3.83,0,0,1-1.05.69,3.91,3.91,0,0,1-1.58.29,4.08,4.08,0,0,1-1.7-.36,4.28,4.28,0,0,1-1.38-1,4.81,4.81,0,0,1-1.27-3.27,4.47,4.47,0,0,1,.34-1.75,4.41,4.41,0,0,1,.94-1.46,4.67,4.67,0,0,1,1.39-1,3.89,3.89,0,0,1,1.68-.37,4.26,4.26,0,0,1,1.43.22,3.86,3.86,0,0,1,1,.57,5.09,5.09,0,0,1,.75.79l0-.8a.66.66,0,0,1,.18-.59.86.86,0,0,1,.63-.19.9.9,0,0,1,.53.12.58.58,0,0,1,.22.32,2.44,2.44,0,0,1,.05.51v7.34a2.19,2.19,0,0,1-.05.47.55.55,0,0,1-.23.32A1.06,1.06,0,0,1,365.7,64.23ZM362,62.65a2.61,2.61,0,0,0,1.39-.39,2.83,2.83,0,0,0,1-1.08,3.12,3.12,0,0,0,.37-1.55,3.06,3.06,0,0,0-.39-1.56,3,3,0,0,0-1-1.07,2.64,2.64,0,0,0-1.4-.39,2.91,2.91,0,0,0-1.55.41,3,3,0,0,0-1,1.09,3.11,3.11,0,0,0-.38,1.56,3,3,0,0,0,.38,1.53,2.68,2.68,0,0,0,1,1.06A3.07,3.07,0,0,0,362,62.65Z"/><path class="cls-1" d="M373,64.25a3.94,3.94,0,0,1-1.63-.34,4,4,0,0,1-1.36-1,4.61,4.61,0,0,1-.91-1.47,4.89,4.89,0,0,1-.34-1.86,4.75,4.75,0,0,1,.34-1.82,4.41,4.41,0,0,1,.91-1.45,4.1,4.1,0,0,1,1.36-1,4.09,4.09,0,0,1,3.31,0,3.82,3.82,0,0,1,1.29,1,4.28,4.28,0,0,1,.83,1.46,5.66,5.66,0,0,1,.28,1.83,5,5,0,0,1-.27,1.85,4.66,4.66,0,0,1-.83,1.46,3.6,3.6,0,0,1-1.28,1A4,4,0,0,1,373,64.25Zm.25-1.61a2.75,2.75,0,0,0,1.43-.38,2.78,2.78,0,0,0,1-1.06,3.23,3.23,0,0,0,.37-1.55,3.31,3.31,0,0,0-.37-1.57,2.73,2.73,0,0,0-2.44-1.43,2.83,2.83,0,0,0-1.45.38,2.68,2.68,0,0,0-1,1,3.2,3.2,0,0,0-.37,1.57,3.12,3.12,0,0,0,.37,1.55,2.67,2.67,0,0,0,1,1.06A2.87,2.87,0,0,0,373.28,62.64ZM377,64.25a1,1,0,0,1-.61-.15.76.76,0,0,1-.23-.51V51.69a2,2,0,0,1,0-.47.46.46,0,0,1,.23-.3,1.51,1.51,0,0,1,1.08,0,.51.51,0,0,1,.24.3,1.44,1.44,0,0,1,.06.45V63.38a1.6,1.6,0,0,1-.06.46.52.52,0,0,1-.23.31A1,1,0,0,1,377,64.25Z"/><path class="cls-1" d="M388.31,64.23a.88.88,0,0,1-.6-.17.79.79,0,0,1-.22-.53l.07-1a3.91,3.91,0,0,1-.58.69,3.83,3.83,0,0,1-1.05.69,3.91,3.91,0,0,1-1.58.29,4.08,4.08,0,0,1-1.7-.36,4.28,4.28,0,0,1-1.38-1A4.81,4.81,0,0,1,380,59.61a4.47,4.47,0,0,1,.34-1.75,4.41,4.41,0,0,1,.94-1.46,4.67,4.67,0,0,1,1.39-1,3.89,3.89,0,0,1,1.68-.37,4.26,4.26,0,0,1,1.43.22,3.86,3.86,0,0,1,1,.57,5.09,5.09,0,0,1,.75.79l0-.8a.66.66,0,0,1,.18-.59.86.86,0,0,1,.63-.19.9.9,0,0,1,.53.12.58.58,0,0,1,.22.32,2.44,2.44,0,0,1,.05.51v7.34a2.19,2.19,0,0,1-.05.47.55.55,0,0,1-.23.32A1.06,1.06,0,0,1,388.31,64.23Zm-3.67-1.58a2.61,2.61,0,0,0,1.39-.39,2.83,2.83,0,0,0,1-1.08,3.12,3.12,0,0,0,.37-1.55,3.06,3.06,0,0,0-.39-1.56A3,3,0,0,0,386,57a2.64,2.64,0,0,0-1.4-.39,2.83,2.83,0,0,0-2.58,1.5,3.11,3.11,0,0,0-.38,1.56A3,3,0,0,0,382,61.2a2.68,2.68,0,0,0,1.05,1.06A3.07,3.07,0,0,0,384.64,62.65Z"/><path class="cls-1" d="M401.11,64.35a5.17,5.17,0,0,1-2-.38,4.43,4.43,0,0,1-2.45-2.55,5.05,5.05,0,0,1-.33-1.84,4.42,4.42,0,0,1,2.29-4,5.08,5.08,0,0,1,2.46-.59,4.52,4.52,0,0,1,1.7.29,4.06,4.06,0,0,1,1.29.79,3.68,3.68,0,0,1,.81,1.1,2.87,2.87,0,0,1,.29,1.22,1.7,1.7,0,0,1-.46,1.36,1.64,1.64,0,0,1-1.12.39h-5.49a2.2,2.2,0,0,0,.45,1.43,3,3,0,0,0,1.18.92,3.34,3.34,0,0,0,1.43.32,7.77,7.77,0,0,0,.91-.05,4.5,4.5,0,0,0,.67-.15l.49-.19.37-.19a1.12,1.12,0,0,1,.32-.14.62.62,0,0,1,.33,0,.49.49,0,0,1,.25.26.9.9,0,0,1,.16.28,1.36,1.36,0,0,1,0,.29c0,.17-.15.37-.45.59a4.34,4.34,0,0,1-1.27.55A6.73,6.73,0,0,1,401.11,64.35Zm-3-5.31h4.77a1.25,1.25,0,0,0,.54-.09c.12-.06.18-.24.18-.51a1.56,1.56,0,0,0-.32-1,2.38,2.38,0,0,0-.88-.7,3.13,3.13,0,0,0-1.29-.26,3.56,3.56,0,0,0-1.53.33,2.77,2.77,0,0,0-1.09.9A2.15,2.15,0,0,0,398.07,59Z"/><path class="cls-1" d="M408.16,64.23a1.1,1.1,0,0,1-.54-.1.46.46,0,0,1-.23-.3,1.93,1.93,0,0,1-.05-.45V55.83a1.22,1.22,0,0,1,.06-.41.46.46,0,0,1,.24-.27,1.23,1.23,0,0,1,.54-.1,1.32,1.32,0,0,1,.45.07.51.51,0,0,1,.22.18.58.58,0,0,1,.09.25,2.29,2.29,0,0,1,0,.25l0,.87a3.44,3.44,0,0,1,.48-.62,3.93,3.93,0,0,1,.66-.53,3.28,3.28,0,0,1,.83-.37,3.23,3.23,0,0,1,1-.13,3.83,3.83,0,0,1,1.53.29,3.27,3.27,0,0,1,1.21.86,3.79,3.79,0,0,1,.78,1.34,5.33,5.33,0,0,1,.28,1.76V63.4a2,2,0,0,1,0,.45.44.44,0,0,1-.23.29,1.25,1.25,0,0,1-.54.09,1.17,1.17,0,0,1-.56-.1.51.51,0,0,1-.24-.3,1.49,1.49,0,0,1-.06-.45V59.25a3.27,3.27,0,0,0-.26-1.38,2.06,2.06,0,0,0-.8-.92,2.41,2.41,0,0,0-1.35-.34,2.62,2.62,0,0,0-1.36.34,2.25,2.25,0,0,0-.89.92,2.87,2.87,0,0,0-.31,1.38V63.4a1.53,1.53,0,0,1-.06.45.49.49,0,0,1-.24.29A1.25,1.25,0,0,1,408.16,64.23Z"/><path class="cls-1" d="M33.46,89.35a5.21,5.21,0,0,1-2-.38,4.52,4.52,0,0,1-1.51-1A4.63,4.63,0,0,1,29,86.42a5.27,5.27,0,0,1-.32-1.84,4.44,4.44,0,0,1,.61-2.34A4.39,4.39,0,0,1,31,80.61,5,5,0,0,1,33.41,80a4.56,4.56,0,0,1,1.7.29,4,4,0,0,1,1.28.79,3.55,3.55,0,0,1,.82,1.1,2.85,2.85,0,0,1,.28,1.22A1.74,1.74,0,0,1,37,84.78a1.68,1.68,0,0,1-1.12.39h-5.5a2.2,2.2,0,0,0,.45,1.43,3,3,0,0,0,1.18.92,3.34,3.34,0,0,0,1.43.32,8,8,0,0,0,.92,0,4.64,4.64,0,0,0,.66-.15l.49-.19.37-.19a1.25,1.25,0,0,1,.32-.14.62.62,0,0,1,.33,0,.55.55,0,0,1,.26.26,1.1,1.1,0,0,1,.15.28A.92.92,0,0,1,37,88c0,.17-.15.37-.46.59a4.15,4.15,0,0,1-1.26.55A6.86,6.86,0,0,1,33.46,89.35Zm-3-5.31h4.77a1.25,1.25,0,0,0,.54-.09c.13-.06.19-.24.19-.51a1.51,1.51,0,0,0-.33-1,2.3,2.3,0,0,0-.88-.7,3,3,0,0,0-1.28-.26,3.5,3.5,0,0,0-1.53.33,2.73,2.73,0,0,0-1.1.9A2.15,2.15,0,0,0,30.42,84Z"/><path class="cls-1" d="M42.57,89.25a5.29,5.29,0,0,1-1.1-.1,2.43,2.43,0,0,1-.84-.34,2,2,0,0,1-.6-.59,2.44,2.44,0,0,1-.34-.87,6,6,0,0,1-.11-1.2v-9.5a2,2,0,0,1,.05-.47.45.45,0,0,1,.24-.3,1.09,1.09,0,0,1,.53-.1,1.33,1.33,0,0,1,.56.09.49.49,0,0,1,.24.29,1.55,1.55,0,0,1,0,.45v9.52a2.48,2.48,0,0,0,.08.66,1.23,1.23,0,0,0,.24.47.88.88,0,0,0,.41.26,2,2,0,0,0,.59.08,1.48,1.48,0,0,1,.39.05.5.5,0,0,1,.25.23,1.06,1.06,0,0,1,.1.53,1.14,1.14,0,0,1-.1.56.4.4,0,0,1-.25.23A1.48,1.48,0,0,1,42.57,89.25Z"/><path class="cls-1" d="M51.25,89.25a1.1,1.1,0,0,1-.54-.1.48.48,0,0,1-.23-.31,2.09,2.09,0,0,1,0-.46V80.89a1.53,1.53,0,0,1,.06-.47.43.43,0,0,1,.23-.28,1.21,1.21,0,0,1,.55-.09,1.18,1.18,0,0,1,.52.09.51.51,0,0,1,.25.25,1,1,0,0,1,.06.37l-.07.57a4.53,4.53,0,0,1,.31-.5,1.94,1.94,0,0,1,.46-.44,2.28,2.28,0,0,1,.66-.34,3.28,3.28,0,0,1,1-.13A3.1,3.1,0,0,1,55,80a2.85,2.85,0,0,1,.5.14,2,2,0,0,1,.41.22,1.15,1.15,0,0,1,.27.27.52.52,0,0,1,.11.33,1,1,0,0,1-.27.71.74.74,0,0,1-.91.23l-.22-.14a1.38,1.38,0,0,0-.3-.15,2.15,2.15,0,0,0-.6-.06,1.91,1.91,0,0,0-.6.11,2.52,2.52,0,0,0-.6.33,1.82,1.82,0,0,0-.47.56,1.71,1.71,0,0,0-.18.8v5.09a2,2,0,0,1-.05.46.45.45,0,0,1-.24.28A1.17,1.17,0,0,1,51.25,89.25Z"/><path class="cls-1" d="M62.74,89.35a5.21,5.21,0,0,1-2-.38,4.43,4.43,0,0,1-2.45-2.55,5,5,0,0,1-.32-1.84,4.37,4.37,0,0,1,2.29-4A5,5,0,0,1,62.69,80a4.56,4.56,0,0,1,1.7.29,4.13,4.13,0,0,1,1.28.79,3.72,3.72,0,0,1,.82,1.1,2.85,2.85,0,0,1,.28,1.22,1.74,1.74,0,0,1-.45,1.36,1.69,1.69,0,0,1-1.13.39H59.7a2.2,2.2,0,0,0,.45,1.43,3,3,0,0,0,1.18.92,3.34,3.34,0,0,0,1.43.32,7.64,7.64,0,0,0,.91,0,4.5,4.5,0,0,0,.67-.15l.49-.19.37-.19a1.25,1.25,0,0,1,.32-.14.62.62,0,0,1,.33,0,.55.55,0,0,1,.26.26,1.1,1.1,0,0,1,.15.28,1.35,1.35,0,0,1,0,.29c0,.17-.16.37-.46.59a4.15,4.15,0,0,1-1.26.55A6.86,6.86,0,0,1,62.74,89.35ZM59.7,84h4.77A1.25,1.25,0,0,0,65,84c.12-.06.18-.24.18-.51a1.5,1.5,0,0,0-.32-1,2.3,2.3,0,0,0-.88-.7,3.08,3.08,0,0,0-1.28-.26,3.5,3.5,0,0,0-1.53.33,2.73,2.73,0,0,0-1.1.9A2.15,2.15,0,0,0,59.7,84Z"/><path class="cls-1" d="M72,89.35a5.18,5.18,0,0,1-.94-.1,4.59,4.59,0,0,1-1-.28,3.93,3.93,0,0,1-.82-.42,1.67,1.67,0,0,1-.52-.55,1,1,0,0,1-.12-.35.59.59,0,0,1,.06-.32,1.2,1.2,0,0,1,.23-.3.47.47,0,0,1,.38-.22.89.89,0,0,1,.47.26l.5.29a5.39,5.39,0,0,0,.59.29,4.35,4.35,0,0,0,.61.2,2.27,2.27,0,0,0,.62.09,2.68,2.68,0,0,0,1.41-.33,1,1,0,0,0,.53-.89,1.07,1.07,0,0,0-.14-.55,1.11,1.11,0,0,0-.36-.39,2.46,2.46,0,0,0-.51-.27,5.93,5.93,0,0,0-.64-.22l-.69-.2c-.34-.09-.68-.19-1-.31a3.69,3.69,0,0,1-.89-.44,2.42,2.42,0,0,1-.65-.7,2.24,2.24,0,0,1-.24-1.1,2.27,2.27,0,0,1,.4-1.35,2.56,2.56,0,0,1,1.12-.88A4.18,4.18,0,0,1,72.13,80a6.26,6.26,0,0,1,.78,0,3.2,3.2,0,0,1,.69.19,4.59,4.59,0,0,1,.64.28,4.29,4.29,0,0,1,.59.39.73.73,0,0,1,.36.49A.81.81,0,0,1,75,82a.8.8,0,0,1-.38.32.43.43,0,0,1-.42-.11,4.71,4.71,0,0,0-.65-.4,5.38,5.38,0,0,0-.7-.28,2.34,2.34,0,0,0-.74-.12,2.17,2.17,0,0,0-.84.15,1.13,1.13,0,0,0-.57.42,1,1,0,0,0-.2.61.73.73,0,0,0,.16.5,1.29,1.29,0,0,0,.42.32,3.4,3.4,0,0,0,.6.24l.74.2c.36.09.74.19,1.13.31a4.31,4.31,0,0,1,1,.48,2.33,2.33,0,0,1,.76.77,2.44,2.44,0,0,1,.3,1.29,2.31,2.31,0,0,1-1,2A4.38,4.38,0,0,1,72,89.35Z"/><path class="cls-1" d="M78.67,93a1.12,1.12,0,0,1-.55-.1.51.51,0,0,1-.24-.3,1.18,1.18,0,0,1-.07-.45V80.91a1.56,1.56,0,0,1,.06-.46.5.5,0,0,1,.23-.29,1.16,1.16,0,0,1,.55-.11,1.1,1.1,0,0,1,.61.14.57.57,0,0,1,.24.47V92.12a1.32,1.32,0,0,1,0,.46.46.46,0,0,1-.23.31A1.17,1.17,0,0,1,78.67,93Zm4-3.82a4,4,0,0,1-1.69-.34,3.77,3.77,0,0,1-1.3-1,4.38,4.38,0,0,1-.82-1.45,5.19,5.19,0,0,1-.28-1.84,5.66,5.66,0,0,1,.29-1.83,4.3,4.3,0,0,1,.82-1.45,3.71,3.71,0,0,1,1.3-1A4.13,4.13,0,0,1,82.62,80a4,4,0,0,1,1.64.34,4.27,4.27,0,0,1,1.35,1,4.4,4.4,0,0,1,.91,1.47,5.05,5.05,0,0,1,.33,1.84,5,5,0,0,1-.33,1.83,4.36,4.36,0,0,1-.91,1.44,4.06,4.06,0,0,1-1.35.94A4.11,4.11,0,0,1,82.62,89.17Zm-.25-1.55a2.73,2.73,0,0,0,1.44-.39,2.79,2.79,0,0,0,1-1.08,3.14,3.14,0,0,0,.37-1.55A3.1,3.1,0,0,0,84.83,83a2.66,2.66,0,0,0-1-1,2.79,2.79,0,0,0-1.45-.37,2.75,2.75,0,0,0-1.43.38,2.69,2.69,0,0,0-1,1,3.05,3.05,0,0,0-.37,1.54,3.14,3.14,0,0,0,.37,1.55,2.77,2.77,0,0,0,1,1.08A2.67,2.67,0,0,0,82.37,87.62Z"/><path class="cls-1" d="M97,89.23a.88.88,0,0,1-.6-.17.84.84,0,0,1-.22-.53l.08-1a4,4,0,0,1-.59.69,3.62,3.62,0,0,1-1,.69,3.91,3.91,0,0,1-1.58.29,4,4,0,0,1-1.7-.36,4.32,4.32,0,0,1-1.39-1A4.64,4.64,0,0,1,89,86.4a4.83,4.83,0,0,1-.33-1.79A4.66,4.66,0,0,1,89,82.86,4.57,4.57,0,0,1,90,81.4a4.72,4.72,0,0,1,1.4-1A3.82,3.82,0,0,1,93,80.05a4.19,4.19,0,0,1,1.42.22,3.56,3.56,0,0,1,1,.57,4.3,4.3,0,0,1,.75.79l0-.8a.72.72,0,0,1,.18-.59.91.91,0,0,1,.64-.19.89.89,0,0,1,.52.12.53.53,0,0,1,.22.32,1.88,1.88,0,0,1,.06.51v7.34a1.68,1.68,0,0,1-.06.47.51.51,0,0,1-.23.32A1,1,0,0,1,97,89.23Zm-3.67-1.58a2.62,2.62,0,0,0,1.4-.39,3,3,0,0,0,1-1.08,3.23,3.23,0,0,0,.37-1.55,3.06,3.06,0,0,0-.39-1.56,2.94,2.94,0,0,0-1-1.07,2.61,2.61,0,0,0-1.39-.39,2.87,2.87,0,0,0-1.55.41,3,3,0,0,0-1,1.09,3.22,3.22,0,0,0-.38,1.56,3.1,3.1,0,0,0,.38,1.53,2.77,2.77,0,0,0,1.06,1.06A3.06,3.06,0,0,0,93.31,87.65Z"/><path class="cls-1" d="M103.23,89.25a5.19,5.19,0,0,1-1.09-.1,2.48,2.48,0,0,1-.85-.34,2,2,0,0,1-.6-.59,2.64,2.64,0,0,1-.34-.87,6,6,0,0,1-.1-1.2v-9.5a1.61,1.61,0,0,1,0-.47.46.46,0,0,1,.23-.3,1.16,1.16,0,0,1,.54-.1,1.33,1.33,0,0,1,.56.09.44.44,0,0,1,.23.29,1.53,1.53,0,0,1,.06.45v9.52a2.48,2.48,0,0,0,.08.66,1.38,1.38,0,0,0,.23.47.93.93,0,0,0,.41.26,2.05,2.05,0,0,0,.59.08,1.48,1.48,0,0,1,.39.05.52.52,0,0,1,.26.23,1.2,1.2,0,0,1,.09.53,1.29,1.29,0,0,1-.09.56.41.41,0,0,1-.26.23A1.48,1.48,0,0,1,103.23,89.25Z"/><path class="cls-1" d="M109.94,89.25a4,4,0,0,1-3-1.31,4.81,4.81,0,0,1-.92-1.47,5.08,5.08,0,0,1-.33-1.86,5,5,0,0,1,.33-1.82,4.6,4.6,0,0,1,.92-1.45,4.16,4.16,0,0,1,1.35-1,4,4,0,0,1,1.64-.35,4,4,0,0,1,1.68.35,3.82,3.82,0,0,1,1.29,1,4.28,4.28,0,0,1,.83,1.46,5.66,5.66,0,0,1,.28,1.83,5.25,5.25,0,0,1-.27,1.85,4.66,4.66,0,0,1-.83,1.46,3.6,3.6,0,0,1-1.28,1A4,4,0,0,1,109.94,89.25Zm.25-1.61a2.75,2.75,0,0,0,1.43-.38,2.86,2.86,0,0,0,1-1.06,3.23,3.23,0,0,0,.37-1.55,3.31,3.31,0,0,0-.37-1.57,2.83,2.83,0,0,0-1-1,2.75,2.75,0,0,0-1.43-.38,2.83,2.83,0,0,0-1.45.38,2.68,2.68,0,0,0-1,1,3.2,3.2,0,0,0-.38,1.57,3.12,3.12,0,0,0,.38,1.55,2.67,2.67,0,0,0,1,1.06A2.87,2.87,0,0,0,110.19,87.64Zm3.72,1.61a1,1,0,0,1-.61-.15.72.72,0,0,1-.23-.51V76.69a2,2,0,0,1,.05-.47.46.46,0,0,1,.23-.3,1.51,1.51,0,0,1,1.08,0,.51.51,0,0,1,.24.3,1.44,1.44,0,0,1,.06.45V88.38a1.6,1.6,0,0,1-.06.46.52.52,0,0,1-.23.31A1,1,0,0,1,113.91,89.25Z"/><path class="cls-1" d="M121.55,89.36a4.49,4.49,0,0,1-1.78-.36,5.06,5.06,0,0,1-1.51-1,4.75,4.75,0,0,1-1-1.5,4.42,4.42,0,0,1-.38-1.86,4.6,4.6,0,0,1,.36-1.83,4.71,4.71,0,0,1,1-1.49,4.94,4.94,0,0,1,1.49-1,4.45,4.45,0,0,1,1.82-.37,4.61,4.61,0,0,1,4,2.3,4.7,4.7,0,0,1,.62,2.39,4.56,4.56,0,0,1-.38,1.91,4.49,4.49,0,0,1-1,1.49,4.72,4.72,0,0,1-1.48,1A4.38,4.38,0,0,1,121.55,89.36Zm0-1.65a2.84,2.84,0,0,0,1.48-.4,3,3,0,0,0,1.1-1.1,3.06,3.06,0,0,0,.42-1.6,3.1,3.1,0,0,0-.39-1.57A2.82,2.82,0,0,0,123.05,82a3.22,3.22,0,0,0-1.56-.38A3,3,0,0,0,120,82a3.1,3.1,0,0,0-1.08,1.08,2.93,2.93,0,0,0-.41,1.56A3,3,0,0,0,120,87.32,3,3,0,0,0,121.51,87.71Z"/><path class="cls-1" d="M137.39,89.25a4,4,0,0,1-1.63-.34,4.08,4.08,0,0,1-1.36-1,4.61,4.61,0,0,1-.91-1.47,5.08,5.08,0,0,1-.33-1.86,5,5,0,0,1,.33-1.82,4.41,4.41,0,0,1,.91-1.45,4.2,4.2,0,0,1,1.36-1,4,4,0,0,1,1.63-.35,4.05,4.05,0,0,1,1.69.35,3.82,3.82,0,0,1,1.29,1,4.26,4.26,0,0,1,.82,1.46,5.66,5.66,0,0,1,.29,1.83,5.24,5.24,0,0,1-.28,1.85,4.64,4.64,0,0,1-.82,1.46,3.72,3.72,0,0,1-1.29,1A4,4,0,0,1,137.39,89.25Zm.25-1.61a2.82,2.82,0,0,0,1.44-.38,2.76,2.76,0,0,0,1-1.06,3.12,3.12,0,0,0,.37-1.55,3.2,3.2,0,0,0-.37-1.57,2.73,2.73,0,0,0-1-1,2.92,2.92,0,0,0-2.88,0,2.78,2.78,0,0,0-1,1,3.2,3.2,0,0,0-.37,1.57,3.12,3.12,0,0,0,.37,1.55,2.76,2.76,0,0,0,1,1.06A2.81,2.81,0,0,0,137.64,87.64Zm3.72,1.61a1,1,0,0,1-.6-.15.68.68,0,0,1-.23-.51V76.69a1.57,1.57,0,0,1,.05-.47.45.45,0,0,1,.22-.3,1.15,1.15,0,0,1,.55-.1,1.1,1.1,0,0,1,.54.1.46.46,0,0,1,.23.3,1.44,1.44,0,0,1,.06.45V88.38a1.6,1.6,0,0,1-.06.46.5.5,0,0,1-.22.31A1.08,1.08,0,0,1,141.36,89.25Z"/><path class="cls-1" d="M149.17,89.35a5.21,5.21,0,0,1-2-.38,4.52,4.52,0,0,1-1.51-1,4.47,4.47,0,0,1-.94-1.51,5,5,0,0,1-.32-1.84,4.37,4.37,0,0,1,2.29-4,5,5,0,0,1,2.46-.59,4.56,4.56,0,0,1,1.7.29,4.13,4.13,0,0,1,1.28.79,3.72,3.72,0,0,1,.82,1.1,2.85,2.85,0,0,1,.28,1.22,1.74,1.74,0,0,1-.45,1.36,1.69,1.69,0,0,1-1.13.39h-5.49a2.2,2.2,0,0,0,.45,1.43,3,3,0,0,0,1.18.92,3.34,3.34,0,0,0,1.43.32,7.64,7.64,0,0,0,.91,0,4.5,4.5,0,0,0,.67-.15l.49-.19.37-.19a1.25,1.25,0,0,1,.32-.14.62.62,0,0,1,.33,0,.55.55,0,0,1,.26.26,1.1,1.1,0,0,1,.15.28,1.35,1.35,0,0,1,0,.29c0,.17-.16.37-.46.59a4.15,4.15,0,0,1-1.26.55A6.86,6.86,0,0,1,149.17,89.35Zm-3-5.31h4.77a1.25,1.25,0,0,0,.54-.09c.12-.06.18-.24.18-.51a1.5,1.5,0,0,0-.32-1,2.3,2.3,0,0,0-.88-.7,3.08,3.08,0,0,0-1.28-.26,3.5,3.5,0,0,0-1.53.33,2.73,2.73,0,0,0-1.1.9A2.15,2.15,0,0,0,146.13,84Z"/><path class="cls-1" d="M163.39,89.25a5.29,5.29,0,0,1-1.1-.1,2.43,2.43,0,0,1-.84-.34,2,2,0,0,1-.6-.59,2.44,2.44,0,0,1-.34-.87,6,6,0,0,1-.11-1.2v-9.5a2,2,0,0,1,0-.47.45.45,0,0,1,.24-.3,1.09,1.09,0,0,1,.53-.1,1.33,1.33,0,0,1,.56.09.49.49,0,0,1,.24.29,1.55,1.55,0,0,1,0,.45v9.52a2.48,2.48,0,0,0,.08.66,1.23,1.23,0,0,0,.24.47.88.88,0,0,0,.41.26,2,2,0,0,0,.59.08,1.48,1.48,0,0,1,.39.05.5.5,0,0,1,.25.23,1.18,1.18,0,0,1,.1.53,1.27,1.27,0,0,1-.1.56.4.4,0,0,1-.25.23A1.48,1.48,0,0,1,163.39,89.25Z"/><path class="cls-1" d="M174,89.23a.88.88,0,0,1-.6-.17.84.84,0,0,1-.22-.53l.08-1a4,4,0,0,1-.59.69,3.68,3.68,0,0,1-1.05.69,3.86,3.86,0,0,1-1.57.29,4,4,0,0,1-1.7-.36,4.32,4.32,0,0,1-1.39-1A4.64,4.64,0,0,1,166,86.4a4.83,4.83,0,0,1-.33-1.79,4.66,4.66,0,0,1,.33-1.75,4.41,4.41,0,0,1,.94-1.46,4.59,4.59,0,0,1,1.4-1,3.82,3.82,0,0,1,1.68-.37,4.24,4.24,0,0,1,1.42.22,3.7,3.7,0,0,1,1,.57,5.09,5.09,0,0,1,.75.79l0-.8a.72.72,0,0,1,.18-.59,1.18,1.18,0,0,1,1.16-.07.53.53,0,0,1,.22.32,1.88,1.88,0,0,1,.06.51v7.34a1.68,1.68,0,0,1-.06.47.51.51,0,0,1-.23.32A1,1,0,0,1,174,89.23Zm-3.67-1.58a2.64,2.64,0,0,0,1.4-.39,3,3,0,0,0,1-1.08,3.23,3.23,0,0,0,.37-1.55,3.06,3.06,0,0,0-.39-1.56,2.94,2.94,0,0,0-1-1.07,2.62,2.62,0,0,0-1.4-.39,2.85,2.85,0,0,0-1.54.41,2.94,2.94,0,0,0-1,1.09,3.22,3.22,0,0,0-.38,1.56,3.1,3.1,0,0,0,.38,1.53,2.74,2.74,0,0,0,1.05,1.06A3.1,3.1,0,0,0,170.28,87.65Z"/><path class="cls-1" d="M185.48,89.35a5.39,5.39,0,0,1-.95-.1,4.59,4.59,0,0,1-1-.28,3.84,3.84,0,0,1-.81-.42,1.83,1.83,0,0,1-.53-.55,1.16,1.16,0,0,1-.11-.35.59.59,0,0,1,.06-.32,1.15,1.15,0,0,1,.22-.3.5.5,0,0,1,.38-.22.88.88,0,0,1,.48.26l.49.29a6.45,6.45,0,0,0,.59.29,4.48,4.48,0,0,0,.62.2,2.21,2.21,0,0,0,.62.09,2.61,2.61,0,0,0,1.4-.33,1,1,0,0,0,.54-.89,1.07,1.07,0,0,0-.14-.55,1.33,1.33,0,0,0-.36-.39,2.46,2.46,0,0,0-.51-.27,5.93,5.93,0,0,0-.64-.22l-.69-.2c-.34-.09-.68-.19-1-.31a3.52,3.52,0,0,1-.89-.44,2.29,2.29,0,0,1-.65-.7,2.24,2.24,0,0,1-.24-1.1,2.33,2.33,0,0,1,.39-1.35,2.59,2.59,0,0,1,1.13-.88A4.18,4.18,0,0,1,185.6,80a6.53,6.53,0,0,1,.78,0,3.2,3.2,0,0,1,.69.19,5.17,5.17,0,0,1,.64.28,4.21,4.21,0,0,1,.58.39.72.72,0,0,1,.37.49.81.81,0,0,1-.21.55.8.8,0,0,1-.38.32.43.43,0,0,1-.42-.11,4.71,4.71,0,0,0-.65-.4,6,6,0,0,0-.7-.28,2.34,2.34,0,0,0-.74-.12,2.26,2.26,0,0,0-.85.15,1.22,1.22,0,0,0-.57.42,1,1,0,0,0-.2.61.79.79,0,0,0,.16.5,1.55,1.55,0,0,0,.42.32,3.53,3.53,0,0,0,.61.24l.73.2c.37.09.75.19,1.13.31a4.21,4.21,0,0,1,1,.48,2.33,2.33,0,0,1,.76.77,2.54,2.54,0,0,1,.29,1.29,2.31,2.31,0,0,1-1,2A4.33,4.33,0,0,1,185.48,89.35Z"/><path class="cls-1" d="M192.36,77.77a1.3,1.3,0,0,1-.63-.12.56.56,0,0,1-.27-.35,1.91,1.91,0,0,1,0-1.06.55.55,0,0,1,.28-.32,1.47,1.47,0,0,1,.63-.1,1.38,1.38,0,0,1,.61.11.54.54,0,0,1,.27.34,1.77,1.77,0,0,1,.07.54,1.64,1.64,0,0,1-.07.52.55.55,0,0,1-.27.33A1.32,1.32,0,0,1,192.36,77.77Zm0,11.48a1.1,1.1,0,0,1-.54-.1.51.51,0,0,1-.24-.3,1.53,1.53,0,0,1-.06-.45V80.89a1.56,1.56,0,0,1,.06-.46.47.47,0,0,1,.24-.28,1.3,1.3,0,0,1,.56-.1,1,1,0,0,1,.53.11.5.5,0,0,1,.23.29,1.65,1.65,0,0,1,.06.48v7.48a1.56,1.56,0,0,1-.06.46.45.45,0,0,1-.24.28A1.1,1.1,0,0,1,192.36,89.25Z"/><path class="cls-1" d="M198.86,89.25a5.12,5.12,0,0,1-1.09-.1,2.41,2.41,0,0,1-.85-.34,2,2,0,0,1-.6-.59,2.44,2.44,0,0,1-.34-.87,6,6,0,0,1-.1-1.2v-9.5a2.11,2.11,0,0,1,0-.47.45.45,0,0,1,.24-.3,1.11,1.11,0,0,1,.53-.1,1.29,1.29,0,0,1,.56.09.49.49,0,0,1,.24.29,1.53,1.53,0,0,1,.06.45v9.52a2.52,2.52,0,0,0,.07.66,1.23,1.23,0,0,0,.24.47.88.88,0,0,0,.41.26,2,2,0,0,0,.59.08,1.48,1.48,0,0,1,.39.05.47.47,0,0,1,.25.23,1.06,1.06,0,0,1,.1.53,1.14,1.14,0,0,1-.1.56.38.38,0,0,1-.25.23A1.48,1.48,0,0,1,198.86,89.25Z"/><path class="cls-1" d="M204.48,89.25a5.19,5.19,0,0,1-1.09-.1,2.48,2.48,0,0,1-.85-.34,1.85,1.85,0,0,1-.59-.59,2.44,2.44,0,0,1-.35-.87,6,6,0,0,1-.1-1.2v-9.5a1.61,1.61,0,0,1,.05-.47.46.46,0,0,1,.23-.3,1.16,1.16,0,0,1,.54-.1,1.33,1.33,0,0,1,.56.09.44.44,0,0,1,.23.29,1.53,1.53,0,0,1,.06.45v9.52a2.48,2.48,0,0,0,.08.66,1.38,1.38,0,0,0,.23.47.93.93,0,0,0,.41.26,2.05,2.05,0,0,0,.59.08,1.48,1.48,0,0,1,.39.05.52.52,0,0,1,.26.23,1.2,1.2,0,0,1,.09.53,1.29,1.29,0,0,1-.09.56.41.41,0,0,1-.26.23A1.48,1.48,0,0,1,204.48,89.25Z"/><path class="cls-1" d="M215.05,89.23a.88.88,0,0,1-.6-.17.79.79,0,0,1-.22-.53l.08-1a4.55,4.55,0,0,1-.59.69,3.83,3.83,0,0,1-1.05.69,3.91,3.91,0,0,1-1.58.29,4.08,4.08,0,0,1-1.7-.36,4.39,4.39,0,0,1-1.38-1,4.81,4.81,0,0,1-1.27-3.27,4.47,4.47,0,0,1,.34-1.75A4.41,4.41,0,0,1,208,81.4a4.67,4.67,0,0,1,1.39-1,3.89,3.89,0,0,1,1.68-.37,4.26,4.26,0,0,1,1.43.22,3.86,3.86,0,0,1,1,.57,5.09,5.09,0,0,1,.75.79l0-.8a.72.72,0,0,1,.18-.59.88.88,0,0,1,.64-.19.89.89,0,0,1,.52.12.58.58,0,0,1,.22.32,2.44,2.44,0,0,1,.05.51v7.34a2.19,2.19,0,0,1-.05.47.55.55,0,0,1-.23.32A1.06,1.06,0,0,1,215.05,89.23Zm-3.67-1.58a2.64,2.64,0,0,0,1.4-.39,2.89,2.89,0,0,0,1-1.08,3.12,3.12,0,0,0,.37-1.55,3.06,3.06,0,0,0-.39-1.56,3,3,0,0,0-1-1.07,2.64,2.64,0,0,0-1.4-.39,2.91,2.91,0,0,0-1.55.41,3,3,0,0,0-1,1.09,3.11,3.11,0,0,0-.38,1.56,3,3,0,0,0,.38,1.53,2.68,2.68,0,0,0,1.05,1.06A3.07,3.07,0,0,0,211.38,87.65Z"/><path class="cls-1" d="M219.23,89.27a1.12,1.12,0,0,1-.8-.23,1,1,0,0,1-.23-.76,1.51,1.51,0,0,1,.1-.62.62.62,0,0,1,.32-.32,1.46,1.46,0,0,1,.61-.1,1.05,1.05,0,0,1,.78.22,1.14,1.14,0,0,1,.22.8,1.58,1.58,0,0,1-.09.6.57.57,0,0,1-.32.31A1.36,1.36,0,0,1,219.23,89.27Z"/><path class="cls-1" d="M30.1,139.25a1,1,0,0,1-.52-.11.63.63,0,0,1-.26-.32,1.23,1.23,0,0,1-.07-.44V126.82a1.09,1.09,0,0,1,.07-.42.64.64,0,0,1,.27-.3,1.13,1.13,0,0,1,.55-.11,2,2,0,0,1,.46,0,.85.85,0,0,1,.27.1,1.28,1.28,0,0,1,.22.2l5,7.18h-.59l5-7.24a.93.93,0,0,1,.22-.19A1.11,1.11,0,0,1,41,126a2.75,2.75,0,0,1,.43,0,1.09,1.09,0,0,1,.54.11.61.61,0,0,1,.25.32,1.23,1.23,0,0,1,.08.44v11.55a1.08,1.08,0,0,1-.08.42.65.65,0,0,1-.26.31,1.16,1.16,0,0,1-.55.11,1.07,1.07,0,0,1-.53-.11.55.55,0,0,1-.24-.32,1.23,1.23,0,0,1-.07-.44v-9.54l-4.07,6a.43.43,0,0,1-.15.18.76.76,0,0,1-.23.15,1.25,1.25,0,0,1-.36,0,1,1,0,0,1-.35,0,1.07,1.07,0,0,1-.22-.15,1.88,1.88,0,0,1-.19-.2l-4-5.94v9.55a1.32,1.32,0,0,1-.07.42.58.58,0,0,1-.25.31A1.09,1.09,0,0,1,30.1,139.25Z"/><path class="cls-1" d="M52.92,139.23a.88.88,0,0,1-.6-.17.84.84,0,0,1-.22-.53l.08-.95a4,4,0,0,1-.59.69,3.76,3.76,0,0,1-1,.69,4,4,0,0,1-1.58.29,4,4,0,0,1-1.7-.36,4.32,4.32,0,0,1-1.39-1A4.64,4.64,0,0,1,45,136.4a4.83,4.83,0,0,1-.33-1.79,4.66,4.66,0,0,1,.33-1.75,4.41,4.41,0,0,1,.94-1.46,4.72,4.72,0,0,1,1.4-1,3.82,3.82,0,0,1,1.68-.37,4.19,4.19,0,0,1,1.42.22,3.56,3.56,0,0,1,1,.57,5.09,5.09,0,0,1,.75.79l0-.8a.72.72,0,0,1,.18-.59.91.91,0,0,1,.64-.19.89.89,0,0,1,.52.12.53.53,0,0,1,.22.32,1.88,1.88,0,0,1,.06.51v7.34a1.68,1.68,0,0,1-.06.47.51.51,0,0,1-.23.32A1,1,0,0,1,52.92,139.23Zm-3.67-1.58a2.62,2.62,0,0,0,1.4-.39,3,3,0,0,0,1-1.08,3.23,3.23,0,0,0,.37-1.55,3.06,3.06,0,0,0-.39-1.56,2.94,2.94,0,0,0-1-1.07,2.61,2.61,0,0,0-1.39-.39,2.87,2.87,0,0,0-1.55.41,2.94,2.94,0,0,0-1,1.09,3.22,3.22,0,0,0-.38,1.56,3.1,3.1,0,0,0,.38,1.53,2.7,2.7,0,0,0,1.06,1.06A3.06,3.06,0,0,0,49.25,137.65Z"/><path class="cls-1" d="M57.12,139.23a1.1,1.1,0,0,1-.54-.1.46.46,0,0,1-.23-.3,1.93,1.93,0,0,1-.05-.45v-7.55a1.22,1.22,0,0,1,.06-.41.46.46,0,0,1,.24-.27,1.23,1.23,0,0,1,.54-.1,1.22,1.22,0,0,1,.44.07.49.49,0,0,1,.23.18.58.58,0,0,1,.09.25,2.29,2.29,0,0,1,0,.25l0,.87a3.38,3.38,0,0,1,.47-.62,4,4,0,0,1,.67-.53,3.28,3.28,0,0,1,.83-.37,3.23,3.23,0,0,1,1-.13,3.83,3.83,0,0,1,1.53.29,3.35,3.35,0,0,1,1.21.86,3.79,3.79,0,0,1,.78,1.34,5.33,5.33,0,0,1,.28,1.76v4.13a2,2,0,0,1,0,.45.44.44,0,0,1-.23.29,1.25,1.25,0,0,1-.54.09,1.14,1.14,0,0,1-.56-.1.51.51,0,0,1-.24-.3,1.49,1.49,0,0,1-.06-.45v-4.13a3.43,3.43,0,0,0-.26-1.38,2.06,2.06,0,0,0-.8-.92,2.46,2.46,0,0,0-1.35-.34,2.62,2.62,0,0,0-1.36.34,2.25,2.25,0,0,0-.89.92,2.87,2.87,0,0,0-.31,1.38v4.15a1.53,1.53,0,0,1-.06.45.49.49,0,0,1-.24.29A1.25,1.25,0,0,1,57.12,139.23Z"/><path class="cls-1" d="M67.23,130.26l1.82,0,2.64,0a2,2,0,0,1,.46,0,.47.47,0,0,1,.29.23,1.09,1.09,0,0,1,.11.54,1.1,1.1,0,0,1-.1.54.47.47,0,0,1-.28.24,1.56,1.56,0,0,1-.46.06l-2.6,0-1.92,0a.62.62,0,0,1-.54-.19,1,1,0,0,1-.14-.63.87.87,0,0,1,.17-.61A.71.71,0,0,1,67.23,130.26Zm4.25,9a5.93,5.93,0,0,1-1.51-.17,2.38,2.38,0,0,1-1-.53,2,2,0,0,1-.57-.94,5,5,0,0,1-.17-1.44v-8.4a1.55,1.55,0,0,1,0-.45.53.53,0,0,1,.23-.3,1,1,0,0,1,.53-.1,1.15,1.15,0,0,1,.55.1.5.5,0,0,1,.25.29,1.44,1.44,0,0,1,.06.45v8.41A3.31,3.31,0,0,0,70,137a.91.91,0,0,0,.27.45,1,1,0,0,0,.48.19c.21,0,.45,0,.74,0a1.75,1.75,0,0,1,.5.05.49.49,0,0,1,.28.23,1,1,0,0,1,.1.51,1.09,1.09,0,0,1-.11.54.43.43,0,0,1-.3.23A2,2,0,0,1,71.48,139.25Z"/><path class="cls-1" d="M78.91,139.35a5.17,5.17,0,0,1-2-.38,4.43,4.43,0,0,1-2.45-2.55,5,5,0,0,1-.32-1.84,4.37,4.37,0,0,1,2.29-4,5,5,0,0,1,2.46-.59,4.56,4.56,0,0,1,1.7.29,4.13,4.13,0,0,1,1.28.79,3.72,3.72,0,0,1,.82,1.1,2.85,2.85,0,0,1,.28,1.22,1.7,1.7,0,0,1-.46,1.36,1.64,1.64,0,0,1-1.12.39H75.87a2.2,2.2,0,0,0,.45,1.43,3,3,0,0,0,1.18.92,3.34,3.34,0,0,0,1.43.32,7.64,7.64,0,0,0,.91-.05,4.5,4.5,0,0,0,.67-.15l.49-.19.37-.19a1.25,1.25,0,0,1,.32-.14.62.62,0,0,1,.33,0,.55.55,0,0,1,.26.26,1.1,1.1,0,0,1,.15.28,1.35,1.35,0,0,1,0,.29c0,.17-.16.37-.46.59a4.27,4.27,0,0,1-1.26.55A6.86,6.86,0,0,1,78.91,139.35Zm-3-5.31h4.77a1.25,1.25,0,0,0,.54-.09c.12-.06.18-.24.18-.51a1.5,1.5,0,0,0-.32-1,2.38,2.38,0,0,0-.88-.7,3.09,3.09,0,0,0-1.29-.26,3.56,3.56,0,0,0-1.53.33,2.77,2.77,0,0,0-1.09.9A2.15,2.15,0,0,0,75.87,134Z"/><path class="cls-1" d="M86,139.23a1.1,1.1,0,0,1-.54-.1.46.46,0,0,1-.23-.3,1.93,1.93,0,0,1,0-.45v-7.55a1.22,1.22,0,0,1,.06-.41.46.46,0,0,1,.24-.27,1.23,1.23,0,0,1,.54-.1,1.32,1.32,0,0,1,.45.07.51.51,0,0,1,.22.18.58.58,0,0,1,.09.25,2.29,2.29,0,0,1,0,.25l0,.87a3.44,3.44,0,0,1,.48-.62,3.93,3.93,0,0,1,.66-.53,3.28,3.28,0,0,1,.83-.37,3.23,3.23,0,0,1,1-.13,3.91,3.91,0,0,1,1.54.29,3.31,3.31,0,0,1,1.2.86,3.79,3.79,0,0,1,.78,1.34,5.33,5.33,0,0,1,.28,1.76v4.13a2,2,0,0,1,0,.45.44.44,0,0,1-.23.29,1.25,1.25,0,0,1-.54.09,1.17,1.17,0,0,1-.56-.1.51.51,0,0,1-.24-.3,1.51,1.51,0,0,1,0-.45v-4.13a3.27,3.27,0,0,0-.27-1.38,2,2,0,0,0-.8-.92,2.41,2.41,0,0,0-1.35-.34A2.62,2.62,0,0,0,88,132a2.25,2.25,0,0,0-.89.92,2.87,2.87,0,0,0-.31,1.38v4.15a1.53,1.53,0,0,1-.06.45.49.49,0,0,1-.24.29A1.25,1.25,0,0,1,86,139.23Z"/><path class="cls-1" d="M100.32,139.35a5.25,5.25,0,0,1-2-.38,4.52,4.52,0,0,1-1.51-1,4.63,4.63,0,0,1-.94-1.51,5.27,5.27,0,0,1-.32-1.84,4.44,4.44,0,0,1,.61-2.34,4.39,4.39,0,0,1,1.68-1.63,5,5,0,0,1,2.46-.59,4.56,4.56,0,0,1,1.7.29,4,4,0,0,1,1.28.79,3.55,3.55,0,0,1,.82,1.1,2.85,2.85,0,0,1,.28,1.22,1.74,1.74,0,0,1-.45,1.36,1.68,1.68,0,0,1-1.12.39h-5.5a2.2,2.2,0,0,0,.45,1.43,3,3,0,0,0,1.18.92,3.34,3.34,0,0,0,1.43.32,8,8,0,0,0,.92-.05,4.64,4.64,0,0,0,.66-.15l.5-.19.37-.19a1.06,1.06,0,0,1,.31-.14.62.62,0,0,1,.33,0,.55.55,0,0,1,.26.26,1.1,1.1,0,0,1,.15.28.92.92,0,0,1,0,.29c0,.17-.15.37-.46.59a4.15,4.15,0,0,1-1.26.55A6.86,6.86,0,0,1,100.32,139.35Zm-3-5.31h4.77a1.3,1.3,0,0,0,.55-.09c.12-.06.18-.24.18-.51a1.51,1.51,0,0,0-.33-1,2.3,2.3,0,0,0-.88-.7,3,3,0,0,0-1.28-.26,3.5,3.5,0,0,0-1.53.33,2.7,2.7,0,0,0-1.09.9A2.09,2.09,0,0,0,97.28,134Z"/><path class="cls-1" d="M107.37,139.25a1.1,1.1,0,0,1-.54-.1.52.52,0,0,1-.23-.31,2.13,2.13,0,0,1,0-.46v-7.49a2,2,0,0,1,0-.47.46.46,0,0,1,.23-.28,1.27,1.27,0,0,1,.55-.09,1.23,1.23,0,0,1,.53.09.45.45,0,0,1,.24.25.84.84,0,0,1,.07.37l-.08.57a4.65,4.65,0,0,1,.32-.5,2.09,2.09,0,0,1,.45-.44,2.48,2.48,0,0,1,.67-.34,3.28,3.28,0,0,1,1-.13,3.1,3.1,0,0,1,.54.05,2.75,2.75,0,0,1,.49.14,1.75,1.75,0,0,1,.41.22,1,1,0,0,1,.28.27.52.52,0,0,1,.1.33,1.05,1.05,0,0,1-.26.71.77.77,0,0,1-.56.3.82.82,0,0,1-.36-.07l-.22-.14a1.28,1.28,0,0,0-.29-.15,2.24,2.24,0,0,0-.61-.06,1.91,1.91,0,0,0-.6.11,2.46,2.46,0,0,0-.59.33,1.82,1.82,0,0,0-.47.56,1.71,1.71,0,0,0-.18.8v5.09a1.56,1.56,0,0,1-.06.46.45.45,0,0,1-.24.28A1.14,1.14,0,0,1,107.37,139.25Z"/><path class="cls-1" d="M122.54,139.25a5.29,5.29,0,0,1-1.1-.1,2.43,2.43,0,0,1-.84-.34,2,2,0,0,1-.6-.59,2.44,2.44,0,0,1-.34-.87,6,6,0,0,1-.11-1.2v-9.5a2,2,0,0,1,0-.47.45.45,0,0,1,.24-.3,1.09,1.09,0,0,1,.53-.1,1.33,1.33,0,0,1,.56.09.49.49,0,0,1,.24.29,1.55,1.55,0,0,1,0,.45v9.52a2.48,2.48,0,0,0,.08.66,1.23,1.23,0,0,0,.24.47.88.88,0,0,0,.41.26,2,2,0,0,0,.59.08,1.48,1.48,0,0,1,.39.05.5.5,0,0,1,.25.23,1.06,1.06,0,0,1,.1.53,1.14,1.14,0,0,1-.1.56.4.4,0,0,1-.25.23A1.48,1.48,0,0,1,122.54,139.25Z"/><path class="cls-1" d="M129.43,139.36a4.45,4.45,0,0,1-1.77-.36,4.94,4.94,0,0,1-1.51-1,4.72,4.72,0,0,1-1.07-5.19,4.73,4.73,0,0,1,1-1.49,4.94,4.94,0,0,1,1.49-1,4.41,4.41,0,0,1,1.81-.37,4.6,4.6,0,0,1,2.37.62,4.66,4.66,0,0,1,1.68,1.68,4.61,4.61,0,0,1,.63,2.39,4.72,4.72,0,0,1-.38,1.91,4.51,4.51,0,0,1-1,1.49,4.61,4.61,0,0,1-1.48,1A4.38,4.38,0,0,1,129.43,139.36Zm0-1.65a2.87,2.87,0,0,0,1.49-.4,3.07,3.07,0,0,0,1.52-2.7A3.1,3.1,0,0,0,132,133a2.78,2.78,0,0,0-1.08-1.07,3.15,3.15,0,0,0-1.55-.38,2.93,2.93,0,0,0-1.51.4,3.13,3.13,0,0,0-1.09,1.08,3.06,3.06,0,0,0,2.61,4.64Z"/><path class="cls-1" d="M139.26,139.35a5.2,5.2,0,0,1-.95-.1,4.59,4.59,0,0,1-1-.28,3.93,3.93,0,0,1-.82-.42A1.67,1.67,0,0,1,136,138a1,1,0,0,1-.12-.35.59.59,0,0,1,.06-.32,1.2,1.2,0,0,1,.23-.3.47.47,0,0,1,.38-.22.89.89,0,0,1,.47.26l.5.29a5.39,5.39,0,0,0,.59.29,4.35,4.35,0,0,0,.61.2,2.27,2.27,0,0,0,.62.09,2.68,2.68,0,0,0,1.41-.33,1,1,0,0,0,.53-.89,1.18,1.18,0,0,0-.13-.55,1.24,1.24,0,0,0-.37-.39,2.46,2.46,0,0,0-.51-.27,6.55,6.55,0,0,0-.63-.22l-.7-.2c-.34-.09-.68-.19-1-.31a3.69,3.69,0,0,1-.89-.44,2.25,2.25,0,0,1-.64-.7,2.13,2.13,0,0,1-.25-1.1,2.27,2.27,0,0,1,.4-1.35,2.56,2.56,0,0,1,1.12-.88,4.18,4.18,0,0,1,1.69-.31,6.26,6.26,0,0,1,.78.05,3.2,3.2,0,0,1,.69.19,4.59,4.59,0,0,1,.64.28,4.29,4.29,0,0,1,.59.39.68.68,0,0,1,.36.49.81.81,0,0,1-.21.55.76.76,0,0,1-.38.32.43.43,0,0,1-.42-.11,5.27,5.27,0,0,0-.64-.4,6.15,6.15,0,0,0-.71-.28,2.3,2.3,0,0,0-.74-.12,2.17,2.17,0,0,0-.84.15,1.13,1.13,0,0,0-.57.42,1,1,0,0,0-.2.61.73.73,0,0,0,.16.5,1.55,1.55,0,0,0,.42.32,3.4,3.4,0,0,0,.6.24l.74.2c.36.09.74.19,1.13.31a4.31,4.31,0,0,1,1,.48,2.33,2.33,0,0,1,.76.77,2.44,2.44,0,0,1,.3,1.29,2.31,2.31,0,0,1-1,2A4.37,4.37,0,0,1,139.26,139.35Z"/><path class="cls-1" d="M151,143a1.1,1.1,0,0,1-.54-.1.53.53,0,0,1-.25-.3,1.18,1.18,0,0,1-.07-.45V130.91a1.56,1.56,0,0,1,.06-.46.52.52,0,0,1,.24-.29,1.09,1.09,0,0,1,.54-.11,1.14,1.14,0,0,1,.62.14.59.59,0,0,1,.23.47v11.46a1.34,1.34,0,0,1,0,.46.5.5,0,0,1-.24.31A1.17,1.17,0,0,1,151,143Zm3.95-3.82a4,4,0,0,1-1.69-.34,3.64,3.64,0,0,1-1.29-1,4.4,4.4,0,0,1-.83-1.45,5.19,5.19,0,0,1-.28-1.84,5.66,5.66,0,0,1,.29-1.83,4.16,4.16,0,0,1,.83-1.45,3.67,3.67,0,0,1,1.29-1A4.13,4.13,0,0,1,155,130a4,4,0,0,1,1.64.34,4.06,4.06,0,0,1,1.35,1,4.4,4.4,0,0,1,.91,1.47,4.86,4.86,0,0,1,.34,1.84,4.77,4.77,0,0,1-.34,1.83,4.36,4.36,0,0,1-.91,1.44,3.87,3.87,0,0,1-1.35.94A4.11,4.11,0,0,1,155,139.17Zm-.25-1.55a2.76,2.76,0,0,0,1.45-.39,2.7,2.7,0,0,0,1-1.08,3.14,3.14,0,0,0,.37-1.55,3.1,3.1,0,0,0-.37-1.56,2.64,2.64,0,0,0-1-1,2.83,2.83,0,0,0-1.46-.37,2.75,2.75,0,0,0-1.43.38,2.69,2.69,0,0,0-1,1.05,3.05,3.05,0,0,0-.37,1.54,3.14,3.14,0,0,0,.37,1.55,2.77,2.77,0,0,0,1,1.08A2.67,2.67,0,0,0,154.72,137.62Z"/><path class="cls-1" d="M162.44,127.77a1.3,1.3,0,0,1-.63-.12.61.61,0,0,1-.28-.35,2.09,2.09,0,0,1-.06-.53,1.7,1.7,0,0,1,.07-.53.57.57,0,0,1,.29-.32,1.47,1.47,0,0,1,.63-.1,1.37,1.37,0,0,1,.6.11.59.59,0,0,1,.28.34,2.14,2.14,0,0,1,.07.54,2,2,0,0,1-.07.52.6.6,0,0,1-.28.33A1.3,1.3,0,0,1,162.44,127.77Zm0,11.48a1.15,1.15,0,0,1-.55-.1.5.5,0,0,1-.23-.3,1.53,1.53,0,0,1-.06-.45v-7.51a1.56,1.56,0,0,1,.06-.46.46.46,0,0,1,.23-.28,1.32,1.32,0,0,1,.57-.1,1,1,0,0,1,.53.11.55.55,0,0,1,.23.29,2.14,2.14,0,0,1,.05.48v7.48a2,2,0,0,1-.05.46.45.45,0,0,1-.24.28A1.1,1.1,0,0,1,162.44,139.25Z"/><path class="cls-1" d="M170.38,139.35a5.26,5.26,0,0,1-2-.38,4.43,4.43,0,0,1-2.45-2.55,5.27,5.27,0,0,1-.32-1.84,4.44,4.44,0,0,1,.61-2.34,4.39,4.39,0,0,1,1.68-1.63,5.08,5.08,0,0,1,2.46-.59,4.56,4.56,0,0,1,1.7.29,4,4,0,0,1,1.28.79,3.55,3.55,0,0,1,.82,1.1,2.87,2.87,0,0,1,.29,1.22,1.74,1.74,0,0,1-.46,1.36,1.66,1.66,0,0,1-1.12.39h-5.49a2.14,2.14,0,0,0,.44,1.43,3.05,3.05,0,0,0,1.18.92,3.42,3.42,0,0,0,1.44.32,7.77,7.77,0,0,0,.91-.05,4.64,4.64,0,0,0,.66-.15l.5-.19.37-.19a1.19,1.19,0,0,1,.31-.14.61.61,0,0,1,.33,0,.51.51,0,0,1,.26.26.7.7,0,0,1,.15.28.92.92,0,0,1,0,.29c0,.17-.15.37-.46.59a4.15,4.15,0,0,1-1.26.55A6.83,6.83,0,0,1,170.38,139.35Zm-3-5.31h4.77a1.25,1.25,0,0,0,.54-.09c.12-.06.18-.24.18-.51a1.56,1.56,0,0,0-.32-1,2.34,2.34,0,0,0-.89-.7,3,3,0,0,0-1.28-.26,3.5,3.5,0,0,0-1.53.33,2.7,2.7,0,0,0-1.09.9A2,2,0,0,0,167.34,134Z"/><path class="cls-1" d="M179.65,139.35a5.39,5.39,0,0,1-1-.1,4.59,4.59,0,0,1-1-.28,4.2,4.2,0,0,1-.82-.42,1.79,1.79,0,0,1-.52-.55,1.16,1.16,0,0,1-.11-.35.51.51,0,0,1,.05-.32,1.2,1.2,0,0,1,.23-.3.48.48,0,0,1,.38-.22.88.88,0,0,1,.48.26l.49.29a6.45,6.45,0,0,0,.59.29,4.48,4.48,0,0,0,.62.2,2.2,2.2,0,0,0,.61.09,2.63,2.63,0,0,0,1.41-.33,1,1,0,0,0,.53-.89,1.07,1.07,0,0,0-.13-.55,1.33,1.33,0,0,0-.36-.39,2.46,2.46,0,0,0-.51-.27c-.19-.08-.41-.15-.64-.22l-.69-.2c-.35-.09-.68-.19-1-.31a3.52,3.52,0,0,1-.89-.44,2.17,2.17,0,0,1-.65-.7,2.13,2.13,0,0,1-.25-1.1,2.34,2.34,0,0,1,.4-1.35,2.61,2.61,0,0,1,1.12-.88,4.21,4.21,0,0,1,1.69-.31,6.26,6.26,0,0,1,.78.05,3.46,3.46,0,0,1,.7.19,4.46,4.46,0,0,1,.63.28,3.76,3.76,0,0,1,.59.39.68.68,0,0,1,.36.49.73.73,0,0,1-.21.55.76.76,0,0,1-.38.32.41.41,0,0,1-.41-.11,5.4,5.4,0,0,0-.65-.4,6,6,0,0,0-.7-.28,2.34,2.34,0,0,0-.74-.12,2.26,2.26,0,0,0-.85.15,1.13,1.13,0,0,0-.57.42,1,1,0,0,0-.2.61.73.73,0,0,0,.16.5,1.55,1.55,0,0,0,.42.32,3.23,3.23,0,0,0,.61.24l.73.2c.37.09.74.19,1.13.31a4.38,4.38,0,0,1,1.05.48,2.21,2.21,0,0,1,.75.77,2.44,2.44,0,0,1,.3,1.29,2.31,2.31,0,0,1-1,2A4.35,4.35,0,0,1,179.65,139.35Z"/><path class="cls-1" d="M198.54,139.23a.88.88,0,0,1-.6-.17.79.79,0,0,1-.22-.53l.08-.95a4.55,4.55,0,0,1-.59.69,3.83,3.83,0,0,1-1.05.69,3.91,3.91,0,0,1-1.58.29,4.08,4.08,0,0,1-1.7-.36,4.39,4.39,0,0,1-1.38-1,4.81,4.81,0,0,1-1.27-3.27,4.47,4.47,0,0,1,.34-1.75,4.41,4.41,0,0,1,.94-1.46,4.67,4.67,0,0,1,1.39-1,3.89,3.89,0,0,1,1.68-.37,4.26,4.26,0,0,1,1.43.22,3.86,3.86,0,0,1,1,.57,5.09,5.09,0,0,1,.75.79l0-.8a.72.72,0,0,1,.18-.59.86.86,0,0,1,.63-.19.9.9,0,0,1,.53.12.58.58,0,0,1,.22.32,2.44,2.44,0,0,1,0,.51v7.34a2.19,2.19,0,0,1,0,.47.55.55,0,0,1-.23.32A1.06,1.06,0,0,1,198.54,139.23Zm-3.67-1.58a2.64,2.64,0,0,0,1.4-.39,2.89,2.89,0,0,0,1-1.08,3.12,3.12,0,0,0,.37-1.55,3.06,3.06,0,0,0-.39-1.56,3,3,0,0,0-1-1.07,2.64,2.64,0,0,0-1.4-.39,2.91,2.91,0,0,0-1.55.41,3,3,0,0,0-1,1.09,3.11,3.11,0,0,0-.38,1.56,3,3,0,0,0,.38,1.53,2.68,2.68,0,0,0,1.05,1.06A3.07,3.07,0,0,0,194.87,137.65Z"/><path class="cls-1" d="M202.6,143a1.1,1.1,0,0,1-.54-.1.57.57,0,0,1-.25-.3,1.44,1.44,0,0,1-.06-.45V130.91a2,2,0,0,1,.05-.46.52.52,0,0,1,.24-.29,1.09,1.09,0,0,1,.54-.11,1.11,1.11,0,0,1,.62.14.63.63,0,0,1,.24.47v11.46a1.32,1.32,0,0,1,0,.46.5.5,0,0,1-.24.31A1.14,1.14,0,0,1,202.6,143Zm4-3.82a4.05,4.05,0,0,1-1.69-.34,3.82,3.82,0,0,1-1.29-1,4.58,4.58,0,0,1-.83-1.45,5.43,5.43,0,0,1-.27-1.84,5.66,5.66,0,0,1,.28-1.83,4.33,4.33,0,0,1,.83-1.45,3.67,3.67,0,0,1,1.29-1,4.13,4.13,0,0,1,1.68-.33,4,4,0,0,1,1.65.34,4.27,4.27,0,0,1,1.35,1,4.56,4.56,0,0,1,.91,1.47,5.05,5.05,0,0,1,.33,1.84,5,5,0,0,1-.33,1.83,4.53,4.53,0,0,1-.91,1.44,4.06,4.06,0,0,1-1.35.94A4.16,4.16,0,0,1,206.55,139.17Zm-.24-1.55a2.73,2.73,0,0,0,1.44-.39,2.79,2.79,0,0,0,1-1.08,3.26,3.26,0,0,0,.37-1.55,3.21,3.21,0,0,0-.37-1.56,2.73,2.73,0,0,0-1-1,3,3,0,0,0-2.89,0,2.66,2.66,0,0,0-1,1.05,3.06,3.06,0,0,0-.38,1.54,3.15,3.15,0,0,0,.38,1.55,2.68,2.68,0,0,0,2.44,1.47Z"/><path class="cls-1" d="M217.25,139.36a4.53,4.53,0,0,1-1.78-.36,5.19,5.19,0,0,1-1.51-1,4.75,4.75,0,0,1-1-1.5,4.79,4.79,0,0,1,0-3.69,4.73,4.73,0,0,1,1-1.49,4.82,4.82,0,0,1,1.49-1,4.41,4.41,0,0,1,1.81-.37,4.6,4.6,0,0,1,2.37.62,4.66,4.66,0,0,1,1.68,1.68,4.61,4.61,0,0,1,.63,2.39,4.72,4.72,0,0,1-.38,1.91,4.67,4.67,0,0,1-1,1.49,4.61,4.61,0,0,1-1.48,1A4.38,4.38,0,0,1,217.25,139.36Zm0-1.65a2.84,2.84,0,0,0,1.48-.4,3,3,0,0,0,1.11-1.1,3.05,3.05,0,0,0,.41-1.6,3.2,3.2,0,0,0-.38-1.57,2.78,2.78,0,0,0-1.08-1.07,3.16,3.16,0,0,0-1.56-.38,3,3,0,0,0-1.51.4,3.1,3.1,0,0,0-1.08,1.08,3.08,3.08,0,0,0,1.12,4.25A3,3,0,0,0,217.21,137.71Z"/><path class="cls-1" d="M227.93,138l-4.35-6.7a.86.86,0,0,1-.19-.64,1.21,1.21,0,0,1,1.11-.7,1,1,0,0,1,.52.44l3.69,5.8Zm-1.88,4.91c-.31-.13-.48-.28-.53-.44a.93.93,0,0,1,.13-.68l5-11.31a1.06,1.06,0,0,1,.45-.54,1.17,1.17,0,0,1,1.2.54,1.07,1.07,0,0,1-.13.67l-5.07,11.36q-.19.44-.42.51A1,1,0,0,1,226.05,142.94Z"/><path class="cls-1" d="M242.12,139.23a.88.88,0,0,1-.6-.17.84.84,0,0,1-.22-.53l.08-.95a4,4,0,0,1-.59.69,3.62,3.62,0,0,1-1,.69,3.91,3.91,0,0,1-1.58.29,4,4,0,0,1-1.7-.36,4.32,4.32,0,0,1-1.39-1,4.64,4.64,0,0,1-.93-1.48,4.83,4.83,0,0,1-.33-1.79,4.66,4.66,0,0,1,.33-1.75,4.57,4.57,0,0,1,.94-1.46,4.72,4.72,0,0,1,1.4-1,3.82,3.82,0,0,1,1.68-.37,4.19,4.19,0,0,1,1.42.22,3.56,3.56,0,0,1,1,.57,4.3,4.3,0,0,1,.75.79l0-.8a.72.72,0,0,1,.18-.59.91.91,0,0,1,.64-.19.89.89,0,0,1,.52.12.53.53,0,0,1,.22.32,1.88,1.88,0,0,1,.06.51v7.34a1.68,1.68,0,0,1-.06.47.51.51,0,0,1-.23.32A1,1,0,0,1,242.12,139.23Zm-3.67-1.58a2.62,2.62,0,0,0,1.4-.39,2.91,2.91,0,0,0,1-1.08,3.23,3.23,0,0,0,.37-1.55,3.06,3.06,0,0,0-.39-1.56,2.94,2.94,0,0,0-1-1.07,2.61,2.61,0,0,0-1.39-.39,2.87,2.87,0,0,0-1.55.41,3,3,0,0,0-1,1.09,3.22,3.22,0,0,0-.38,1.56,3.1,3.1,0,0,0,.38,1.53,2.77,2.77,0,0,0,1.06,1.06A3.06,3.06,0,0,0,238.45,137.65Z"/><path class="cls-1" d="M249.46,139.25a4,4,0,0,1-1.64-.34,4.08,4.08,0,0,1-1.36-1,4.79,4.79,0,0,1-.91-1.47,5.08,5.08,0,0,1-.33-1.86,5,5,0,0,1,.33-1.82,4.58,4.58,0,0,1,.91-1.45,4.2,4.2,0,0,1,1.36-1,4,4,0,0,1,1.64-.35,4,4,0,0,1,1.68.35,3.82,3.82,0,0,1,1.29,1,4.28,4.28,0,0,1,.83,1.46,5.66,5.66,0,0,1,.28,1.83,5.24,5.24,0,0,1-.28,1.85,4.64,4.64,0,0,1-.82,1.46,3.69,3.69,0,0,1-1.28,1A4,4,0,0,1,249.46,139.25Zm.24-1.61a2.82,2.82,0,0,0,1.44-.38,2.76,2.76,0,0,0,1-1.06,3.12,3.12,0,0,0,.37-1.55,3.2,3.2,0,0,0-.37-1.57,2.73,2.73,0,0,0-1-1.05,2.92,2.92,0,0,0-2.88,0,2.78,2.78,0,0,0-1,1.05,3.2,3.2,0,0,0-.37,1.57,3.12,3.12,0,0,0,.37,1.55,2.76,2.76,0,0,0,1,1.06A2.81,2.81,0,0,0,249.7,137.64Zm3.73,1.61a1,1,0,0,1-.61-.15.72.72,0,0,1-.23-.51v-11.9a2,2,0,0,1,0-.47.46.46,0,0,1,.23-.3,1.51,1.51,0,0,1,1.08,0,.51.51,0,0,1,.24.3,1.87,1.87,0,0,1,.05.45v11.71a2.09,2.09,0,0,1-.05.46.56.56,0,0,1-.23.31A1.06,1.06,0,0,1,253.43,139.25Z"/><path class="cls-1" d="M261.06,139.36a4.45,4.45,0,0,1-1.77-.36,4.94,4.94,0,0,1-1.51-1,4.72,4.72,0,0,1-1.07-5.19,4.73,4.73,0,0,1,1-1.49,4.94,4.94,0,0,1,1.49-1,4.42,4.42,0,0,1,1.82-.37,4.59,4.59,0,0,1,2.36.62,4.66,4.66,0,0,1,1.68,1.68,4.61,4.61,0,0,1,.63,2.39,4.72,4.72,0,0,1-.38,1.91,4.51,4.51,0,0,1-1,1.49,4.61,4.61,0,0,1-1.48,1A4.38,4.38,0,0,1,261.06,139.36Zm0-1.65a2.86,2.86,0,0,0,1.48-.4,3.07,3.07,0,0,0,1.52-2.7,3.1,3.1,0,0,0-.39-1.57,2.78,2.78,0,0,0-1.08-1.07,3.15,3.15,0,0,0-1.55-.38,3,3,0,0,0-1.51.4,3.22,3.22,0,0,0-1.09,1.08,3.06,3.06,0,0,0,2.62,4.64Z"/><path class="cls-1" d="M270.89,139.35a5.29,5.29,0,0,1-.95-.1,4.59,4.59,0,0,1-1-.28,3.93,3.93,0,0,1-.82-.42,1.79,1.79,0,0,1-.52-.55,1.21,1.21,0,0,1-.12-.35.59.59,0,0,1,.06-.32,1.2,1.2,0,0,1,.23-.3.48.48,0,0,1,.38-.22.86.86,0,0,1,.47.26l.5.29a5.39,5.39,0,0,0,.59.29,4.82,4.82,0,0,0,.61.2,2.27,2.27,0,0,0,.62.09,2.68,2.68,0,0,0,1.41-.33,1,1,0,0,0,.53-.89,1.07,1.07,0,0,0-.13-.55,1.33,1.33,0,0,0-.36-.39,2.84,2.84,0,0,0-.52-.27,6.55,6.55,0,0,0-.63-.22l-.7-.2c-.34-.09-.67-.19-1-.31a3.76,3.76,0,0,1-.9-.44,2.25,2.25,0,0,1-.64-.7,2.13,2.13,0,0,1-.25-1.1,2.27,2.27,0,0,1,.4-1.35,2.61,2.61,0,0,1,1.12-.88A4.21,4.21,0,0,1,271,130a6.26,6.26,0,0,1,.78.05,3.2,3.2,0,0,1,.69.19,4.59,4.59,0,0,1,.64.28,4.29,4.29,0,0,1,.59.39.68.68,0,0,1,.36.49.81.81,0,0,1-.21.55.76.76,0,0,1-.38.32.43.43,0,0,1-.42-.11,5.27,5.27,0,0,0-.64-.4,6.15,6.15,0,0,0-.71-.28,2.3,2.3,0,0,0-.74-.12,2.21,2.21,0,0,0-.84.15,1.13,1.13,0,0,0-.57.42,1,1,0,0,0-.2.61.73.73,0,0,0,.16.5,1.55,1.55,0,0,0,.42.32,3.23,3.23,0,0,0,.61.24l.73.2c.36.09.74.19,1.13.31a4.31,4.31,0,0,1,1,.48,2.24,2.24,0,0,1,.76.77,2.44,2.44,0,0,1,.3,1.29,2.31,2.31,0,0,1-1,2A4.35,4.35,0,0,1,270.89,139.35Z"/><path class="cls-1" d="M286.28,139.35a5.26,5.26,0,0,1-2-.38,4.43,4.43,0,0,1-2.45-2.55,5.27,5.27,0,0,1-.32-1.84,4.44,4.44,0,0,1,.61-2.34,4.39,4.39,0,0,1,1.68-1.63,5.08,5.08,0,0,1,2.46-.59,4.56,4.56,0,0,1,1.7.29,4,4,0,0,1,1.28.79,3.55,3.55,0,0,1,.82,1.1,2.87,2.87,0,0,1,.29,1.22,1.74,1.74,0,0,1-.46,1.36,1.66,1.66,0,0,1-1.12.39h-5.49a2.14,2.14,0,0,0,.44,1.43,3.05,3.05,0,0,0,1.18.92,3.38,3.38,0,0,0,1.44.32,7.9,7.9,0,0,0,.91-.05,4.64,4.64,0,0,0,.66-.15l.5-.19.37-.19a1.19,1.19,0,0,1,.31-.14.61.61,0,0,1,.33,0,.51.51,0,0,1,.26.26.7.7,0,0,1,.15.28.92.92,0,0,1,0,.29c0,.17-.15.37-.46.59a4.15,4.15,0,0,1-1.26.55A6.83,6.83,0,0,1,286.28,139.35Zm-3-5.31H288a1.25,1.25,0,0,0,.54-.09c.12-.06.18-.24.18-.51a1.56,1.56,0,0,0-.32-1,2.34,2.34,0,0,0-.89-.7,3,3,0,0,0-1.28-.26,3.5,3.5,0,0,0-1.53.33,2.7,2.7,0,0,0-1.09.9A2,2,0,0,0,283.24,134Z"/><path class="cls-1" d="M293.33,139.23a1.15,1.15,0,0,1-.55-.1.45.45,0,0,1-.22-.3,1.93,1.93,0,0,1-.05-.45v-7.55a1.22,1.22,0,0,1,.06-.41.41.41,0,0,1,.23-.27,1.23,1.23,0,0,1,.54-.1,1.28,1.28,0,0,1,.45.07.49.49,0,0,1,.23.18,1.06,1.06,0,0,1,.09.25,2.18,2.18,0,0,1,0,.25l0,.87a3,3,0,0,1,.47-.62,3.64,3.64,0,0,1,.67-.53,3.38,3.38,0,0,1,.82-.37,3.32,3.32,0,0,1,1-.13,3.88,3.88,0,0,1,1.54.29,3.35,3.35,0,0,1,1.21.86,4.11,4.11,0,0,1,.78,1.34,5.33,5.33,0,0,1,.27,1.76v4.13a1.55,1.55,0,0,1-.05.45.43.43,0,0,1-.22.29,1.25,1.25,0,0,1-.54.09,1.19,1.19,0,0,1-.57-.1.46.46,0,0,1-.23-.3,1.49,1.49,0,0,1-.06-.45v-4.13a3.27,3.27,0,0,0-.27-1.38,2,2,0,0,0-.79-.92,2.46,2.46,0,0,0-1.35-.34,2.62,2.62,0,0,0-1.36.34,2.14,2.14,0,0,0-.89.92,2.87,2.87,0,0,0-.32,1.38v4.15a2,2,0,0,1-.05.45.49.49,0,0,1-.24.29A1.25,1.25,0,0,1,293.33,139.23Z"/><path class="cls-1" d="M312.8,139.35a5.17,5.17,0,0,1-2-.38,4.43,4.43,0,0,1-2.45-2.55,5.05,5.05,0,0,1-.33-1.84,4.42,4.42,0,0,1,2.29-4,5.08,5.08,0,0,1,2.46-.59,4.52,4.52,0,0,1,1.7.29,4.18,4.18,0,0,1,1.29.79,3.68,3.68,0,0,1,.81,1.1,2.87,2.87,0,0,1,.29,1.22,1.7,1.7,0,0,1-.46,1.36,1.64,1.64,0,0,1-1.12.39h-5.49a2.2,2.2,0,0,0,.45,1.43,3,3,0,0,0,1.18.92,3.34,3.34,0,0,0,1.43.32,7.77,7.77,0,0,0,.91-.05,4.5,4.5,0,0,0,.67-.15l.49-.19.37-.19a1.12,1.12,0,0,1,.32-.14.62.62,0,0,1,.33,0,.49.49,0,0,1,.25.26.9.9,0,0,1,.16.28,1.36,1.36,0,0,1,0,.29c0,.17-.15.37-.45.59a4.34,4.34,0,0,1-1.27.55A6.78,6.78,0,0,1,312.8,139.35Zm-3-5.31h4.77a1.25,1.25,0,0,0,.54-.09c.12-.06.18-.24.18-.51a1.56,1.56,0,0,0-.32-1,2.38,2.38,0,0,0-.88-.7,3.13,3.13,0,0,0-1.29-.26,3.56,3.56,0,0,0-1.53.33,2.77,2.77,0,0,0-1.09.9A2.15,2.15,0,0,0,309.76,134Z"/><path class="cls-1" d="M321.9,139.25a5.19,5.19,0,0,1-1.09-.1,2.48,2.48,0,0,1-.85-.34,1.85,1.85,0,0,1-.59-.59,2.44,2.44,0,0,1-.35-.87,6,6,0,0,1-.1-1.2v-9.5a1.61,1.61,0,0,1,.05-.47.46.46,0,0,1,.23-.3,1.16,1.16,0,0,1,.54-.1,1.33,1.33,0,0,1,.56.09.44.44,0,0,1,.23.29,1.53,1.53,0,0,1,.06.45v9.52a2.48,2.48,0,0,0,.08.66,1.38,1.38,0,0,0,.23.47.93.93,0,0,0,.41.26,2.05,2.05,0,0,0,.59.08,1.48,1.48,0,0,1,.39.05.52.52,0,0,1,.26.23,1.2,1.2,0,0,1,.09.53,1.29,1.29,0,0,1-.09.56.41.41,0,0,1-.26.23A1.48,1.48,0,0,1,321.9,139.25Z"/><path class="cls-1" d="M332.81,139.35a5.29,5.29,0,0,1-.95-.1,4.59,4.59,0,0,1-1-.28,4.2,4.2,0,0,1-.82-.42,1.79,1.79,0,0,1-.52-.55,1.62,1.62,0,0,1-.12-.35.59.59,0,0,1,.06-.32,1.2,1.2,0,0,1,.23-.3.48.48,0,0,1,.38-.22.91.91,0,0,1,.48.26l.49.29a5.39,5.39,0,0,0,.59.29,4.48,4.48,0,0,0,.62.2,2.15,2.15,0,0,0,.61.09,2.65,2.65,0,0,0,1.41-.33,1,1,0,0,0,.53-.89,1.07,1.07,0,0,0-.13-.55,1.33,1.33,0,0,0-.36-.39,2.84,2.84,0,0,0-.52-.27,6.55,6.55,0,0,0-.63-.22l-.7-.2c-.34-.09-.67-.19-1-.31a3.76,3.76,0,0,1-.9-.44,2.25,2.25,0,0,1-.64-.7,2.13,2.13,0,0,1-.25-1.1,2.27,2.27,0,0,1,.4-1.35,2.61,2.61,0,0,1,1.12-.88,4.21,4.21,0,0,1,1.69-.31,6.26,6.26,0,0,1,.78.05,3.2,3.2,0,0,1,.69.19,4.12,4.12,0,0,1,.64.28,4.29,4.29,0,0,1,.59.39.68.68,0,0,1,.36.49.81.81,0,0,1-.21.55.76.76,0,0,1-.38.32.43.43,0,0,1-.42-.11,4.6,4.6,0,0,0-.64-.4,6,6,0,0,0-.7-.28,2.4,2.4,0,0,0-.75-.12,2.24,2.24,0,0,0-.84.15,1.13,1.13,0,0,0-.57.42,1,1,0,0,0-.2.61.73.73,0,0,0,.16.5,1.55,1.55,0,0,0,.42.32,3.23,3.23,0,0,0,.61.24l.73.2c.37.09.74.19,1.13.31a4.31,4.31,0,0,1,1,.48,2.24,2.24,0,0,1,.76.77,2.44,2.44,0,0,1,.3,1.29,2.31,2.31,0,0,1-1,2A4.35,4.35,0,0,1,332.81,139.35Z"/><path class="cls-1" d="M342.4,139.27a4,4,0,0,1-1.55-.3,3.84,3.84,0,0,1-1.24-.86,4,4,0,0,1-.83-1.33,5.13,5.13,0,0,1-.29-1.77v-4.12a1.56,1.56,0,0,1,.06-.46.47.47,0,0,1,.23-.29,1.11,1.11,0,0,1,.55-.11,1,1,0,0,1,.54.12.51.51,0,0,1,.23.3,1.56,1.56,0,0,1,.06.46V135a3.33,3.33,0,0,0,.27,1.38,1.9,1.9,0,0,0,.8.92,2.55,2.55,0,0,0,1.33.32,2.7,2.7,0,0,0,1.37-.32,2.16,2.16,0,0,0,.9-.92,3,3,0,0,0,.31-1.38v-4.14a1.56,1.56,0,0,1,.06-.46.47.47,0,0,1,.23-.29A1.11,1.11,0,0,1,346,130a1,1,0,0,1,.54.12.5.5,0,0,1,.22.3,1.58,1.58,0,0,1,.05.46v7.54a1.32,1.32,0,0,1-.05.41.43.43,0,0,1-.22.28,1.25,1.25,0,0,1-.54.09,1.27,1.27,0,0,1-.43-.06.42.42,0,0,1-.24-.15.41.41,0,0,1-.1-.22,1,1,0,0,1,0-.25l.07-.82a6.32,6.32,0,0,1-.45.49,4.56,4.56,0,0,1-.62.51,3.23,3.23,0,0,1-.79.39A3,3,0,0,1,342.4,139.27Z"/><path class="cls-1" d="M353.69,139.35a5.17,5.17,0,0,1-2-.38,4.42,4.42,0,0,1-1.51-1,4.32,4.32,0,0,1-.94-1.51,5.05,5.05,0,0,1-.33-1.84,4.44,4.44,0,0,1,.61-2.34,4.53,4.53,0,0,1,1.68-1.63,5.08,5.08,0,0,1,2.46-.59,4.52,4.52,0,0,1,1.7.29,4.18,4.18,0,0,1,1.29.79,3.68,3.68,0,0,1,.81,1.1,2.87,2.87,0,0,1,.29,1.22,1.7,1.7,0,0,1-.46,1.36,1.66,1.66,0,0,1-1.12.39h-5.49a2.2,2.2,0,0,0,.45,1.43,3,3,0,0,0,1.17.92,3.42,3.42,0,0,0,1.44.32,7.77,7.77,0,0,0,.91-.05,4.81,4.81,0,0,0,.67-.15l.49-.19.37-.19a1.19,1.19,0,0,1,.31-.14.65.65,0,0,1,.34,0,.53.53,0,0,1,.25.26.7.7,0,0,1,.15.28.92.92,0,0,1,0,.29c0,.17-.15.37-.45.59a4.34,4.34,0,0,1-1.27.55A6.83,6.83,0,0,1,353.69,139.35Zm-3-5.31h4.77A1.25,1.25,0,0,0,356,134c.12-.06.18-.24.18-.51a1.56,1.56,0,0,0-.32-1,2.34,2.34,0,0,0-.89-.7,3,3,0,0,0-1.28-.26,3.5,3.5,0,0,0-1.53.33,2.77,2.77,0,0,0-1.09.9A2.09,2.09,0,0,0,350.65,134Z"/><path class="cls-1" d="M362.79,139.25a5.12,5.12,0,0,1-1.09-.1,2.41,2.41,0,0,1-.85-.34,2,2,0,0,1-.6-.59,2.44,2.44,0,0,1-.34-.87,6,6,0,0,1-.1-1.2v-9.5a2.11,2.11,0,0,1,0-.47.48.48,0,0,1,.24-.3,1.14,1.14,0,0,1,.53-.1,1.29,1.29,0,0,1,.56.09.49.49,0,0,1,.24.29,1.53,1.53,0,0,1,.06.45v9.52a2.52,2.52,0,0,0,.07.66,1.39,1.39,0,0,0,.24.47.93.93,0,0,0,.41.26,2.05,2.05,0,0,0,.59.08,1.48,1.48,0,0,1,.39.05.52.52,0,0,1,.26.23,1.2,1.2,0,0,1,.09.53,1.29,1.29,0,0,1-.09.56.41.41,0,0,1-.26.23A1.48,1.48,0,0,1,362.79,139.25Z"/><path class="cls-1" d="M369.69,139.36a4.49,4.49,0,0,1-1.78-.36,5.06,5.06,0,0,1-1.51-1,5,5,0,0,1-1-1.5,4.58,4.58,0,0,1-.38-1.86,4.44,4.44,0,0,1,.37-1.83,4.71,4.71,0,0,1,1-1.49,4.94,4.94,0,0,1,1.49-1,4.45,4.45,0,0,1,1.82-.37,4.64,4.64,0,0,1,4.05,2.3,4.7,4.7,0,0,1,.62,2.39,4.56,4.56,0,0,1-.38,1.91,4.49,4.49,0,0,1-1,1.49,4.65,4.65,0,0,1-1.49,1A4.33,4.33,0,0,1,369.69,139.36Zm0-1.65a2.86,2.86,0,0,0,1.48-.4,3,3,0,0,0,1.1-1.1,3.06,3.06,0,0,0,.42-1.6,3.1,3.1,0,0,0-.39-1.57,2.82,2.82,0,0,0-1.07-1.07,3.22,3.22,0,0,0-1.56-.38,3,3,0,0,0-1.51.4,3.1,3.1,0,0,0-1.08,1.08,2.93,2.93,0,0,0-.41,1.56,3,3,0,0,0,.42,1.61,2.88,2.88,0,0,0,1.11,1.08A3,3,0,0,0,369.65,137.71Z"/><path class="cls-1" d="M385.72,139.36A4.45,4.45,0,0,1,384,139a4.94,4.94,0,0,1-1.51-1,4.72,4.72,0,0,1-1.07-5.19,4.73,4.73,0,0,1,1-1.49,4.94,4.94,0,0,1,1.49-1,4.42,4.42,0,0,1,1.82-.37,4.59,4.59,0,0,1,2.36.62,4.66,4.66,0,0,1,1.68,1.68,4.61,4.61,0,0,1,.63,2.39,4.72,4.72,0,0,1-.38,1.91,4.51,4.51,0,0,1-1,1.49,4.61,4.61,0,0,1-1.48,1A4.38,4.38,0,0,1,385.72,139.36Zm0-1.65a2.86,2.86,0,0,0,1.48-.4,3.07,3.07,0,0,0,1.52-2.7,3.1,3.1,0,0,0-.39-1.57,2.78,2.78,0,0,0-1.08-1.07,3.15,3.15,0,0,0-1.55-.38,3,3,0,0,0-1.51.4,3.13,3.13,0,0,0-1.09,1.08,3.06,3.06,0,0,0,2.62,4.64Z"/><path class="cls-1" d="M401.93,139.35a5.17,5.17,0,0,1-2-.38,4.43,4.43,0,0,1-2.45-2.55,5.05,5.05,0,0,1-.33-1.84,4.42,4.42,0,0,1,2.29-4,5.08,5.08,0,0,1,2.46-.59,4.52,4.52,0,0,1,1.7.29,4.18,4.18,0,0,1,1.29.79,3.68,3.68,0,0,1,.81,1.1,2.87,2.87,0,0,1,.29,1.22,1.7,1.7,0,0,1-.46,1.36,1.66,1.66,0,0,1-1.12.39h-5.49a2.2,2.2,0,0,0,.45,1.43,3,3,0,0,0,1.17.92,3.42,3.42,0,0,0,1.44.32,7.77,7.77,0,0,0,.91-.05,4.81,4.81,0,0,0,.67-.15l.49-.19.37-.19a1.19,1.19,0,0,1,.31-.14.65.65,0,0,1,.34,0,.53.53,0,0,1,.25.26.9.9,0,0,1,.16.28,1.36,1.36,0,0,1,0,.29c0,.17-.15.37-.45.59a4.34,4.34,0,0,1-1.27.55A6.78,6.78,0,0,1,401.93,139.35Zm-3-5.31h4.77a1.25,1.25,0,0,0,.54-.09c.12-.06.18-.24.18-.51a1.56,1.56,0,0,0-.32-1,2.34,2.34,0,0,0-.89-.7,3,3,0,0,0-1.28-.26,3.56,3.56,0,0,0-1.53.33,2.77,2.77,0,0,0-1.09.9A2.09,2.09,0,0,0,398.89,134Z"/><path class="cls-1" d="M409,139.23a1.1,1.1,0,0,1-.54-.1.46.46,0,0,1-.23-.3,1.93,1.93,0,0,1,0-.45v-7.55a1.22,1.22,0,0,1,.06-.41.46.46,0,0,1,.24-.27,1.23,1.23,0,0,1,.54-.1,1.22,1.22,0,0,1,.44.07.49.49,0,0,1,.23.18.58.58,0,0,1,.09.25,2.29,2.29,0,0,1,0,.25l0,.87a3.38,3.38,0,0,1,.47-.62,4,4,0,0,1,.67-.53,3.28,3.28,0,0,1,.83-.37,3.23,3.23,0,0,1,1-.13,3.83,3.83,0,0,1,1.53.29,3.27,3.27,0,0,1,1.21.86,3.79,3.79,0,0,1,.78,1.34,5.33,5.33,0,0,1,.28,1.76v4.13a2,2,0,0,1-.05.45.44.44,0,0,1-.23.29,1.25,1.25,0,0,1-.54.09,1.14,1.14,0,0,1-.56-.1.51.51,0,0,1-.24-.3,1.49,1.49,0,0,1-.06-.45v-4.13a3.43,3.43,0,0,0-.26-1.38,2.06,2.06,0,0,0-.8-.92,2.46,2.46,0,0,0-1.35-.34A2.62,2.62,0,0,0,411,132a2.25,2.25,0,0,0-.89.92,2.87,2.87,0,0,0-.31,1.38v4.15a1.53,1.53,0,0,1-.06.45.49.49,0,0,1-.24.29A1.25,1.25,0,0,1,409,139.23Z"/><path class="cls-1" d="M32.78,164.27a4,4,0,0,1-1.55-.3,3.81,3.81,0,0,1-2.07-2.19,4.91,4.91,0,0,1-.29-1.77v-4.12a2,2,0,0,1,.05-.46.52.52,0,0,1,.24-.29,1.09,1.09,0,0,1,.54-.11,1,1,0,0,1,.54.12.58.58,0,0,1,.24.3,1.56,1.56,0,0,1,.06.46V160a3.5,3.5,0,0,0,.26,1.38,2,2,0,0,0,.81.92,2.48,2.48,0,0,0,1.32.32,2.76,2.76,0,0,0,1.38-.32,2.14,2.14,0,0,0,.89-.92,2.93,2.93,0,0,0,.32-1.38v-4.14a2,2,0,0,1,0-.46.52.52,0,0,1,.24-.29,1.09,1.09,0,0,1,.54-.11,1,1,0,0,1,.54.12.51.51,0,0,1,.23.3,2,2,0,0,1,.05.46v7.54a1.7,1.7,0,0,1-.05.41.45.45,0,0,1-.23.28,1.25,1.25,0,0,1-.54.09,1.27,1.27,0,0,1-.43-.06.42.42,0,0,1-.23-.15.51.51,0,0,1-.11-.22,1,1,0,0,1,0-.25l.08-.82a6.6,6.6,0,0,1-.46.49,3.92,3.92,0,0,1-.61.51,3.42,3.42,0,0,1-.79.39A3,3,0,0,1,32.78,164.27Z"/><path class="cls-1" d="M40.57,164.23a1.1,1.1,0,0,1-.54-.1.46.46,0,0,1-.23-.3,1.93,1.93,0,0,1,0-.45v-7.55a1.22,1.22,0,0,1,.06-.41.46.46,0,0,1,.24-.27,1.23,1.23,0,0,1,.54-.1,1.32,1.32,0,0,1,.45.07.51.51,0,0,1,.22.18.58.58,0,0,1,.09.25,2.29,2.29,0,0,1,0,.25l0,.87a3.44,3.44,0,0,1,.48-.62,3.93,3.93,0,0,1,.66-.53,3.28,3.28,0,0,1,.83-.37,3.23,3.23,0,0,1,1-.13,3.91,3.91,0,0,1,1.54.29,3.31,3.31,0,0,1,1.2.86,3.79,3.79,0,0,1,.78,1.34,5.33,5.33,0,0,1,.28,1.76v4.13a2,2,0,0,1-.05.45.44.44,0,0,1-.23.29,1.25,1.25,0,0,1-.54.09,1.17,1.17,0,0,1-.56-.1.51.51,0,0,1-.24-.3,1.49,1.49,0,0,1-.06-.45v-4.13a3.27,3.27,0,0,0-.26-1.38,2,2,0,0,0-.8-.92,2.41,2.41,0,0,0-1.35-.34,2.62,2.62,0,0,0-1.36.34,2.25,2.25,0,0,0-.89.92,2.87,2.87,0,0,0-.31,1.38v4.15a1.53,1.53,0,0,1-.06.45.49.49,0,0,1-.24.29A1.25,1.25,0,0,1,40.57,164.23Z"/><path class="cls-1" d="M58.77,164.35a5.39,5.39,0,0,1-1-.1,4.59,4.59,0,0,1-1-.28,3.84,3.84,0,0,1-.81-.42,1.83,1.83,0,0,1-.53-.55,1.16,1.16,0,0,1-.11-.35.59.59,0,0,1,.06-.32,1.15,1.15,0,0,1,.22-.3.5.5,0,0,1,.38-.22.88.88,0,0,1,.48.26l.49.29a6.45,6.45,0,0,0,.59.29,5,5,0,0,0,.62.2,2.27,2.27,0,0,0,.62.09,2.61,2.61,0,0,0,1.4-.33,1,1,0,0,0,.54-.89,1.07,1.07,0,0,0-.14-.55,1.33,1.33,0,0,0-.36-.39,2.46,2.46,0,0,0-.51-.27,5.93,5.93,0,0,0-.64-.22l-.69-.2c-.34-.09-.68-.19-1-.31a3.52,3.52,0,0,1-.89-.44,2.29,2.29,0,0,1-.65-.7,2.24,2.24,0,0,1-.24-1.1,2.33,2.33,0,0,1,.39-1.35,2.59,2.59,0,0,1,1.13-.88,4.18,4.18,0,0,1,1.69-.31,6.39,6.39,0,0,1,.78.05,3.2,3.2,0,0,1,.69.19,5.17,5.17,0,0,1,.64.28,4.21,4.21,0,0,1,.58.39.72.72,0,0,1,.37.49.81.81,0,0,1-.21.55.8.8,0,0,1-.38.32.43.43,0,0,1-.42-.11,4.71,4.71,0,0,0-.65-.4,6,6,0,0,0-.7-.28,2.34,2.34,0,0,0-.74-.12,2.26,2.26,0,0,0-.85.15,1.22,1.22,0,0,0-.57.42,1,1,0,0,0-.2.61.74.74,0,0,0,.17.5,1.36,1.36,0,0,0,.41.32,3.53,3.53,0,0,0,.61.24l.73.2c.37.09.75.19,1.13.31a4.21,4.21,0,0,1,1,.48,2.33,2.33,0,0,1,.76.77,2.54,2.54,0,0,1,.29,1.29,2.31,2.31,0,0,1-1,2A4.33,4.33,0,0,1,58.77,164.35Z"/><path class="cls-1" d="M68.88,164.36A4.53,4.53,0,0,1,67.1,164a5.19,5.19,0,0,1-1.51-1,4.75,4.75,0,0,1-1-1.5,4.79,4.79,0,0,1,0-3.69,4.73,4.73,0,0,1,1-1.49,4.82,4.82,0,0,1,1.49-1,4.41,4.41,0,0,1,1.81-.37,4.6,4.6,0,0,1,2.37.62,4.66,4.66,0,0,1,1.68,1.68,4.61,4.61,0,0,1,.63,2.39,4.72,4.72,0,0,1-.38,1.91,4.67,4.67,0,0,1-1,1.49,4.61,4.61,0,0,1-1.48,1A4.38,4.38,0,0,1,68.88,164.36Zm0-1.65a2.81,2.81,0,0,0,1.48-.4,3,3,0,0,0,1.11-1.1,3.05,3.05,0,0,0,.41-1.6,3.2,3.2,0,0,0-.38-1.57A2.78,2.78,0,0,0,70.38,157a3.16,3.16,0,0,0-1.56-.38,3,3,0,0,0-1.51.4,3.1,3.1,0,0,0-1.08,1.08,3.08,3.08,0,0,0,1.12,4.25A3,3,0,0,0,68.84,162.71Z"/><path class="cls-1" d="M76.35,168a1.1,1.1,0,0,1-.54-.1.53.53,0,0,1-.25-.3,1.18,1.18,0,0,1-.07-.45V155.91a1.56,1.56,0,0,1,.06-.46.52.52,0,0,1,.24-.29,1.09,1.09,0,0,1,.54-.11,1.14,1.14,0,0,1,.62.14.59.59,0,0,1,.23.47v11.46a1.34,1.34,0,0,1,0,.46.5.5,0,0,1-.24.31A1.17,1.17,0,0,1,76.35,168Zm4-3.82a4.05,4.05,0,0,1-1.69-.34,3.64,3.64,0,0,1-1.29-1,4.4,4.4,0,0,1-.83-1.45,5.19,5.19,0,0,1-.28-1.84,5.66,5.66,0,0,1,.29-1.83,4.33,4.33,0,0,1,.83-1.45,3.67,3.67,0,0,1,1.29-1A4.13,4.13,0,0,1,80.3,155a4,4,0,0,1,1.64.34,4.06,4.06,0,0,1,1.35,1,4.4,4.4,0,0,1,.91,1.47,4.86,4.86,0,0,1,.34,1.84,4.77,4.77,0,0,1-.34,1.83,4.36,4.36,0,0,1-.91,1.44,3.87,3.87,0,0,1-1.35.94A4.11,4.11,0,0,1,80.3,164.17Zm-.25-1.55a2.74,2.74,0,0,0,1.45-.39,2.7,2.7,0,0,0,1-1.08,3.14,3.14,0,0,0,.37-1.55,3.1,3.1,0,0,0-.37-1.56,2.64,2.64,0,0,0-1-1,2.83,2.83,0,0,0-1.46-.37,2.75,2.75,0,0,0-1.43.38,2.69,2.69,0,0,0-1,1.05,3.05,3.05,0,0,0-.37,1.54,3.14,3.14,0,0,0,.37,1.55,2.77,2.77,0,0,0,1,1.08A2.67,2.67,0,0,0,80.05,162.62Z"/><path class="cls-1" d="M91,164.36a4.49,4.49,0,0,1-1.78-.36,5.06,5.06,0,0,1-1.51-1,5,5,0,0,1-1-1.5,4.58,4.58,0,0,1-.38-1.86,4.44,4.44,0,0,1,.37-1.83,4.71,4.71,0,0,1,1-1.49,4.94,4.94,0,0,1,1.49-1,4.45,4.45,0,0,1,1.82-.37,4.64,4.64,0,0,1,4.05,2.3,4.7,4.7,0,0,1,.62,2.39,4.56,4.56,0,0,1-.38,1.91,4.49,4.49,0,0,1-1,1.49,4.65,4.65,0,0,1-1.49,1A4.33,4.33,0,0,1,91,164.36Zm0-1.65a2.86,2.86,0,0,0,1.48-.4,3,3,0,0,0,1.1-1.1,3.06,3.06,0,0,0,.42-1.6,3.1,3.1,0,0,0-.39-1.57A2.82,2.82,0,0,0,92.5,157a3.22,3.22,0,0,0-1.56-.38,3,3,0,0,0-1.51.4,3.1,3.1,0,0,0-1.08,1.08,2.93,2.93,0,0,0-.41,1.56,3,3,0,0,0,.42,1.61,3,3,0,0,0,1.11,1.08A3,3,0,0,0,91,162.71Z"/><path class="cls-1" d="M98.6,164.25a1.1,1.1,0,0,1-.54-.1.48.48,0,0,1-.23-.31,2.09,2.09,0,0,1,0-.46v-7.49a1.53,1.53,0,0,1,.06-.47.43.43,0,0,1,.23-.28,1.63,1.63,0,0,1,1.07,0,.51.51,0,0,1,.25.25,1,1,0,0,1,.06.37l-.07.57a3.4,3.4,0,0,1,.31-.5,1.94,1.94,0,0,1,.46-.44,2.28,2.28,0,0,1,.66-.34,3.28,3.28,0,0,1,1-.13,3.1,3.1,0,0,1,.54.05,2.85,2.85,0,0,1,.5.14,1.89,1.89,0,0,1,.4.22,1,1,0,0,1,.28.27.52.52,0,0,1,.1.33,1,1,0,0,1-.26.71.74.74,0,0,1-.91.23l-.22-.14a1.38,1.38,0,0,0-.3-.15,2.15,2.15,0,0,0-.6-.06,1.91,1.91,0,0,0-.6.11,2.52,2.52,0,0,0-.6.33,1.82,1.82,0,0,0-.47.56,1.71,1.71,0,0,0-.18.8v5.09a2,2,0,0,1,0,.46.45.45,0,0,1-.24.28A1.17,1.17,0,0,1,98.6,164.25Z"/><path class="cls-1" d="M105.84,155.26l1.82,0,2.64,0a2,2,0,0,1,.46,0,.47.47,0,0,1,.29.23,1.09,1.09,0,0,1,.11.54,1.23,1.23,0,0,1-.1.54.47.47,0,0,1-.28.24,1.56,1.56,0,0,1-.46.06l-2.6,0-1.92,0a.62.62,0,0,1-.54-.19,1,1,0,0,1-.15-.63.93.93,0,0,1,.17-.61A.76.76,0,0,1,105.84,155.26Zm4.25,9a5.93,5.93,0,0,1-1.51-.17,2.48,2.48,0,0,1-1-.53,2.13,2.13,0,0,1-.57-.94,5.36,5.36,0,0,1-.17-1.44v-8.4a1.53,1.53,0,0,1,.06-.45.5.5,0,0,1,.23-.3,1,1,0,0,1,.53-.1,1.15,1.15,0,0,1,.55.1.5.5,0,0,1,.25.29,1.44,1.44,0,0,1,.06.45v8.41a2.86,2.86,0,0,0,.08.79.91.91,0,0,0,.27.45,1,1,0,0,0,.48.19,7.32,7.32,0,0,0,.74,0,1.75,1.75,0,0,1,.5.05.49.49,0,0,1,.28.23,1.37,1.37,0,0,1,0,1.05.43.43,0,0,1-.3.23A2.06,2.06,0,0,1,110.09,164.25Z"/><path class="cls-1" d="M117.52,164.35a5.17,5.17,0,0,1-2-.38,4.43,4.43,0,0,1-2.45-2.55,5.05,5.05,0,0,1-.33-1.84,4.42,4.42,0,0,1,2.29-4,5.08,5.08,0,0,1,2.46-.59,4.52,4.52,0,0,1,1.7.29,4.18,4.18,0,0,1,1.29.79,3.68,3.68,0,0,1,.81,1.1,2.87,2.87,0,0,1,.29,1.22,1.7,1.7,0,0,1-.46,1.36,1.64,1.64,0,0,1-1.12.39h-5.49a2.2,2.2,0,0,0,.45,1.43,3,3,0,0,0,1.18.92,3.34,3.34,0,0,0,1.43.32,7.77,7.77,0,0,0,.91-.05,4.5,4.5,0,0,0,.67-.15l.49-.19.37-.19a1.12,1.12,0,0,1,.32-.14.62.62,0,0,1,.33,0,.53.53,0,0,1,.25.26.9.9,0,0,1,.16.28,1.36,1.36,0,0,1,0,.29c0,.17-.15.37-.45.59a4.34,4.34,0,0,1-1.27.55A6.78,6.78,0,0,1,117.52,164.35Zm-3-5.31h4.77a1.25,1.25,0,0,0,.54-.09c.12-.06.18-.24.18-.51a1.56,1.56,0,0,0-.32-1,2.38,2.38,0,0,0-.88-.7,3.13,3.13,0,0,0-1.29-.26,3.56,3.56,0,0,0-1.53.33,2.77,2.77,0,0,0-1.09.9A2.09,2.09,0,0,0,114.48,159Z"/><path class="cls-1" d="M133.18,164.35a5.26,5.26,0,0,1-2-.38,4.52,4.52,0,0,1-1.51-1,4.63,4.63,0,0,1-.94-1.51,5.27,5.27,0,0,1-.32-1.84,4.44,4.44,0,0,1,.61-2.34,4.39,4.39,0,0,1,1.68-1.63,5,5,0,0,1,2.46-.59,4.56,4.56,0,0,1,1.7.29,4,4,0,0,1,1.28.79,3.55,3.55,0,0,1,.82,1.1,2.85,2.85,0,0,1,.28,1.22,1.74,1.74,0,0,1-.45,1.36,1.68,1.68,0,0,1-1.12.39h-5.49a2.14,2.14,0,0,0,.44,1.43,3.05,3.05,0,0,0,1.18.92,3.38,3.38,0,0,0,1.44.32,7.9,7.9,0,0,0,.91-.05,4.64,4.64,0,0,0,.66-.15l.5-.19.37-.19a1.06,1.06,0,0,1,.31-.14.61.61,0,0,1,.33,0,.51.51,0,0,1,.26.26.7.7,0,0,1,.15.28.92.92,0,0,1,0,.29c0,.17-.15.37-.46.59a4.15,4.15,0,0,1-1.26.55A6.83,6.83,0,0,1,133.18,164.35Zm-3-5.31h4.77a1.25,1.25,0,0,0,.54-.09c.12-.06.18-.24.18-.51a1.51,1.51,0,0,0-.33-1,2.3,2.3,0,0,0-.88-.7,3,3,0,0,0-1.28-.26,3.5,3.5,0,0,0-1.53.33,2.7,2.7,0,0,0-1.09.9A2,2,0,0,0,130.14,159Z"/><path class="cls-1" d="M142.45,164.35a5.29,5.29,0,0,1-.95-.1,4.59,4.59,0,0,1-1-.28,4.2,4.2,0,0,1-.82-.42,1.79,1.79,0,0,1-.52-.55,1.16,1.16,0,0,1-.11-.35.51.51,0,0,1,0-.32,1.2,1.2,0,0,1,.23-.3.48.48,0,0,1,.38-.22.88.88,0,0,1,.48.26l.49.29a6.45,6.45,0,0,0,.59.29,4.48,4.48,0,0,0,.62.2,2.15,2.15,0,0,0,.61.09,2.65,2.65,0,0,0,1.41-.33,1,1,0,0,0,.53-.89,1.07,1.07,0,0,0-.13-.55,1.33,1.33,0,0,0-.36-.39,2.55,2.55,0,0,0-.52-.27,6.55,6.55,0,0,0-.63-.22l-.7-.2c-.34-.09-.67-.19-1-.31a3.76,3.76,0,0,1-.9-.44,2.25,2.25,0,0,1-.64-.7,2.13,2.13,0,0,1-.25-1.1,2.27,2.27,0,0,1,.4-1.35,2.61,2.61,0,0,1,1.12-.88,4.21,4.21,0,0,1,1.69-.31,6.26,6.26,0,0,1,.78.05,3.2,3.2,0,0,1,.69.19,4.12,4.12,0,0,1,.64.28,4.29,4.29,0,0,1,.59.39.68.68,0,0,1,.36.49.81.81,0,0,1-.21.55.76.76,0,0,1-.38.32.43.43,0,0,1-.42-.11,4.6,4.6,0,0,0-.64-.4,6,6,0,0,0-.7-.28,2.4,2.4,0,0,0-.75-.12,2.24,2.24,0,0,0-.84.15,1.13,1.13,0,0,0-.57.42,1,1,0,0,0-.2.61.73.73,0,0,0,.16.5,1.55,1.55,0,0,0,.42.32,3.23,3.23,0,0,0,.61.24l.73.2c.37.09.74.19,1.13.31a4.14,4.14,0,0,1,1,.48,2.24,2.24,0,0,1,.76.77,2.44,2.44,0,0,1,.3,1.29,2.31,2.31,0,0,1-1,2A4.35,4.35,0,0,1,142.45,164.35Z"/><path class="cls-1" d="M148.47,155.26l1.83,0,2.64,0a1.93,1.93,0,0,1,.45,0,.46.46,0,0,1,.3.23,1.1,1.1,0,0,1,.1.54,1.25,1.25,0,0,1-.09.54.49.49,0,0,1-.29.24,1.49,1.49,0,0,1-.45.06l-2.61,0-1.92,0a.64.64,0,0,1-.54-.19,1.13,1.13,0,0,1-.14-.63.93.93,0,0,1,.17-.61A.73.73,0,0,1,148.47,155.26Zm4.26,9a5.87,5.87,0,0,1-1.51-.17,2.48,2.48,0,0,1-1-.53,2,2,0,0,1-.57-.94,5.36,5.36,0,0,1-.17-1.44v-8.4a1.53,1.53,0,0,1,.06-.45.48.48,0,0,1,.22-.3,1.1,1.1,0,0,1,.54-.1,1.17,1.17,0,0,1,.55.1.49.49,0,0,1,.24.29,1.44,1.44,0,0,1,.06.45v8.41a2.81,2.81,0,0,0,.09.79.83.83,0,0,0,.26.45,1,1,0,0,0,.49.19,7.32,7.32,0,0,0,.74,0,1.67,1.67,0,0,1,.49.05.51.51,0,0,1,.29.23,1.5,1.5,0,0,1,0,1.05.43.43,0,0,1-.31.23A2,2,0,0,1,152.73,164.25Z"/><path class="cls-1" d="M163.65,164.23a.88.88,0,0,1-.6-.17.79.79,0,0,1-.21-.53l.07-.95a3.9,3.9,0,0,1-1.63,1.38,3.91,3.91,0,0,1-1.58.29,4.05,4.05,0,0,1-1.7-.36,4.32,4.32,0,0,1-1.39-1,4.64,4.64,0,0,1-.93-1.48,4.83,4.83,0,0,1-.33-1.79,4.66,4.66,0,0,1,.33-1.75,4.57,4.57,0,0,1,.94-1.46,4.72,4.72,0,0,1,1.4-1,3.89,3.89,0,0,1,1.68-.37,4.3,4.3,0,0,1,1.43.22,3.64,3.64,0,0,1,1,.57,4.3,4.3,0,0,1,.75.79l0-.8a.66.66,0,0,1,.18-.59,1.16,1.16,0,0,1,1.15-.07.5.5,0,0,1,.22.32,1.88,1.88,0,0,1,.06.51v7.34a1.68,1.68,0,0,1-.06.47.5.5,0,0,1-.22.32A1.1,1.1,0,0,1,163.65,164.23ZM160,162.65a2.61,2.61,0,0,0,1.39-.39,2.91,2.91,0,0,0,1-1.08,3.12,3.12,0,0,0,.37-1.55,3.06,3.06,0,0,0-.39-1.56,2.94,2.94,0,0,0-1-1.07,2.61,2.61,0,0,0-1.39-.39,2.89,2.89,0,0,0-1.55.41,3,3,0,0,0-1,1.09,3.22,3.22,0,0,0-.38,1.56,3.1,3.1,0,0,0,.38,1.53,2.77,2.77,0,0,0,1.06,1.06A3.07,3.07,0,0,0,160,162.65Z"/><path class="cls-1" d="M167.76,164.27a1.16,1.16,0,0,1-.55-.11.47.47,0,0,1-.23-.3,1.53,1.53,0,0,1-.06-.45V151.69a1.53,1.53,0,0,1,.06-.47.5.5,0,0,1,.23-.3,1.17,1.17,0,0,1,.55-.1,1,1,0,0,1,.53.11.59.59,0,0,1,.23.31,1.87,1.87,0,0,1,0,.45v11.9a.76.76,0,0,1-.21.52A.92.92,0,0,1,167.76,164.27Zm4,0a4,4,0,0,1-1.69-.34,3.55,3.55,0,0,1-1.29-1,4.66,4.66,0,0,1-.83-1.46,5.24,5.24,0,0,1-.28-1.85,5.66,5.66,0,0,1,.29-1.83,4.26,4.26,0,0,1,.82-1.46,4,4,0,0,1,4.62-1,4.27,4.27,0,0,1,1.35,1,4.41,4.41,0,0,1,.91,1.45,5,5,0,0,1,.34,1.82,5.09,5.09,0,0,1-.34,1.86,4.61,4.61,0,0,1-.91,1.47,4.15,4.15,0,0,1-1.35,1A4,4,0,0,1,171.71,164.25Zm-.25-1.61a2.88,2.88,0,0,0,1.45-.38,2.78,2.78,0,0,0,1-1.06,3.12,3.12,0,0,0,.37-1.55,3.2,3.2,0,0,0-.37-1.57,2.81,2.81,0,0,0-1-1.05,2.84,2.84,0,0,0-1.46-.38,2.73,2.73,0,0,0-2.44,1.43,3.2,3.2,0,0,0-.37,1.57,3.12,3.12,0,0,0,.37,1.55,2.78,2.78,0,0,0,1,1.06A2.75,2.75,0,0,0,171.46,162.64Z"/><path class="cls-1" d="M181.25,164.25a5.29,5.29,0,0,1-1.1-.1,2.43,2.43,0,0,1-.84-.34,2,2,0,0,1-.6-.59,2.44,2.44,0,0,1-.34-.87,6,6,0,0,1-.11-1.2v-9.5a2,2,0,0,1,.05-.47.45.45,0,0,1,.24-.3,1.09,1.09,0,0,1,.53-.1,1.33,1.33,0,0,1,.56.09.49.49,0,0,1,.24.29,1.53,1.53,0,0,1,.06.45v9.52a2.52,2.52,0,0,0,.07.66,1.23,1.23,0,0,0,.24.47.88.88,0,0,0,.41.26,2,2,0,0,0,.59.08,1.48,1.48,0,0,1,.39.05.5.5,0,0,1,.25.23,1.06,1.06,0,0,1,.1.53,1.14,1.14,0,0,1-.1.56.4.4,0,0,1-.25.23A1.48,1.48,0,0,1,181.25,164.25Z"/><path class="cls-1" d="M188.31,164.35a5.21,5.21,0,0,1-2-.38,4.52,4.52,0,0,1-1.51-1,4.63,4.63,0,0,1-.94-1.51,5,5,0,0,1-.32-1.84,4.44,4.44,0,0,1,.61-2.34,4.39,4.39,0,0,1,1.68-1.63,5,5,0,0,1,2.46-.59,4.56,4.56,0,0,1,1.7.29,4,4,0,0,1,1.28.79,3.72,3.72,0,0,1,.82,1.1,2.85,2.85,0,0,1,.28,1.22,1.74,1.74,0,0,1-.45,1.36,1.68,1.68,0,0,1-1.12.39h-5.5a2.2,2.2,0,0,0,.45,1.43,3,3,0,0,0,1.18.92,3.34,3.34,0,0,0,1.43.32,8,8,0,0,0,.92-.05,4.64,4.64,0,0,0,.66-.15l.49-.19.37-.19a1.25,1.25,0,0,1,.32-.14.62.62,0,0,1,.33,0,.55.55,0,0,1,.26.26,1.1,1.1,0,0,1,.15.28,1.35,1.35,0,0,1,0,.29c0,.17-.15.37-.46.59a4.15,4.15,0,0,1-1.26.55A6.86,6.86,0,0,1,188.31,164.35Zm-3-5.31H190a1.25,1.25,0,0,0,.54-.09c.13-.06.19-.24.19-.51a1.51,1.51,0,0,0-.33-1,2.3,2.3,0,0,0-.88-.7,3,3,0,0,0-1.28-.26,3.5,3.5,0,0,0-1.53.33,2.73,2.73,0,0,0-1.1.9A2.15,2.15,0,0,0,185.27,159Z"/><path class="cls-1" d="M195.34,164.27a1.1,1.1,0,0,1-.79-.23,1,1,0,0,1-.23-.76,1.73,1.73,0,0,1,.09-.62.64.64,0,0,1,.33-.32,1.44,1.44,0,0,1,.6-.1,1.08,1.08,0,0,1,.79.22,1.14,1.14,0,0,1,.22.8,1.58,1.58,0,0,1-.09.6.57.57,0,0,1-.32.31A1.38,1.38,0,0,1,195.34,164.27Z"/><rect class="cls-2" width="455.66" height="220.11"/><path class="cls-1" d="M12.23,61.58A2.73,2.73,0,0,1,10.3,61a2.54,2.54,0,0,1-.56-1.89A3.87,3.87,0,0,1,10,57.64a1.58,1.58,0,0,1,.8-.79,3.74,3.74,0,0,1,1.48-.24,2.64,2.64,0,0,1,1.92.55,2.77,2.77,0,0,1,.55,2,3.82,3.82,0,0,1-.23,1.45,1.45,1.45,0,0,1-.78.78A3.82,3.82,0,0,1,12.23,61.58Z"/><path class="cls-1" d="M12.23,136.53A2.73,2.73,0,0,1,10.3,136a2.54,2.54,0,0,1-.56-1.89,3.87,3.87,0,0,1,.24-1.51,1.58,1.58,0,0,1,.8-.79,3.74,3.74,0,0,1,1.48-.24,2.64,2.64,0,0,1,1.92.55,2.77,2.77,0,0,1,.55,2,3.82,3.82,0,0,1-.23,1.45,1.45,1.45,0,0,1-.78.78A3.82,3.82,0,0,1,12.23,136.53Z"/></g></g></svg>