<svg xmlns="http://www.w3.org/2000/svg" viewBox="0 0 455.66 220.11"><defs><style>.cls-1{fill:#fff;}.cls-2{fill:none;}</style></defs><title>pag42</title><g id="Layer_2" data-name="Layer 2"><g id="Paso_4" data-name="Paso 4"><path class="cls-1" d="M30.33,14.23a1.79,1.79,0,0,1-1-.2.83.83,0,0,1-.37-.54,4.05,4.05,0,0,1-.07-.7V2.4a1.52,1.52,0,0,1,.33-1.14A1.65,1.65,0,0,1,30.39,1h7.18a3.08,3.08,0,0,1,.7.07.82.82,0,0,1,.53.37,1.85,1.85,0,0,1,.21,1,1.78,1.78,0,0,1-.21,1,.8.8,0,0,1-.54.37,3.23,3.23,0,0,1-.71.07H31.79V6.29h3.92a3.4,3.4,0,0,1,.67.06.7.7,0,0,1,.47.32,1.79,1.79,0,0,1,.17.89,1.68,1.68,0,0,1-.17.86.72.72,0,0,1-.48.32,3.65,3.65,0,0,1-.7.06H31.79v2.54h5.78a3.06,3.06,0,0,1,.7.08.86.86,0,0,1,.53.37,1.85,1.85,0,0,1,.21,1,1.82,1.82,0,0,1-.21,1,.88.88,0,0,1-.54.37,4,4,0,0,1-.71.06Z"/><path class="cls-1" d="M44.24,14.23a11.17,11.17,0,0,1-1.38-.08,3,3,0,0,1-1-.32,2,2,0,0,1-.69-.62,2.76,2.76,0,0,1-.39-1,8.64,8.64,0,0,1-.12-1.57V1.82a3.88,3.88,0,0,1,.06-.7.88.88,0,0,1,.37-.53,1.82,1.82,0,0,1,1-.21,1.74,1.74,0,0,1,1,.21.88.88,0,0,1,.37.53,3.13,3.13,0,0,1,.08.7v8.65a3.43,3.43,0,0,0,0,.5.67.67,0,0,0,.11.32.49.49,0,0,0,.24.15,2,2,0,0,0,.4,0,2.49,2.49,0,0,1,.46,0,.68.68,0,0,1,.41.35,2,2,0,0,1,.17.95,2.15,2.15,0,0,1-.17,1,.66.66,0,0,1-.41.37A2.61,2.61,0,0,1,44.24,14.23Z"/><path class="cls-1" d="M55.11,14.23a11.17,11.17,0,0,1-1.38-.08,3,3,0,0,1-1-.32,2,2,0,0,1-.69-.62,2.76,2.76,0,0,1-.39-1,8.64,8.64,0,0,1-.12-1.57V1.82a3.88,3.88,0,0,1,.06-.7.88.88,0,0,1,.37-.53,1.78,1.78,0,0,1,1-.21,1.74,1.74,0,0,1,1,.21.93.93,0,0,1,.37.53,3.13,3.13,0,0,1,.08.7v8.65a3.63,3.63,0,0,0,0,.5.67.67,0,0,0,.12.32.45.45,0,0,0,.24.15,2,2,0,0,0,.39,0,2.5,2.5,0,0,1,.47,0,.71.71,0,0,1,.41.35,2,2,0,0,1,.17.95,2.15,2.15,0,0,1-.17,1,.69.69,0,0,1-.41.37A2.61,2.61,0,0,1,55.11,14.23Z"/><path class="cls-1" d="M65.21,14.21a1.76,1.76,0,0,1-1-.24.75.75,0,0,1-.33-.61L64,13a2.24,2.24,0,0,1-.44.47,3.32,3.32,0,0,1-.84.49,3.14,3.14,0,0,1-1.27.22,3.67,3.67,0,0,1-1.66-.38,4.44,4.44,0,0,1-1.4-1.05,5.27,5.27,0,0,1-1-1.53,4.78,4.78,0,0,1-.35-1.81,4.62,4.62,0,0,1,.35-1.77,4.9,4.9,0,0,1,1-1.5,4.69,4.69,0,0,1,1.4-1,3.77,3.77,0,0,1,1.65-.38,3.27,3.27,0,0,1,1.2.2,3,3,0,0,1,.82.47,2.45,2.45,0,0,1,.51.51l-.16-.27A.77.77,0,0,1,64.18,5a1.81,1.81,0,0,1,1-.24,1.74,1.74,0,0,1,1,.21.82.82,0,0,1,.36.55,3.38,3.38,0,0,1,.07.72v6.56a3.26,3.26,0,0,1-.07.7.78.78,0,0,1-.36.54A1.8,1.8,0,0,1,65.21,14.21Zm-3.3-2.83a1.65,1.65,0,0,0,.9-.25,2,2,0,0,0,.65-.7,2.07,2.07,0,0,0,.23-1,1.88,1.88,0,0,0-.91-1.66,1.72,1.72,0,0,0-.91-.26,1.8,1.8,0,0,0-1,.27,2.07,2.07,0,0,0-.68.7,1.92,1.92,0,0,0-.26,1,1.8,1.8,0,0,0,.26.94,1.93,1.93,0,0,0,.7.69A2,2,0,0,0,61.91,11.38Zm-.67-7.33a.7.7,0,0,1-.56-.21,2.17,2.17,0,0,1-.39-.74,1.53,1.53,0,0,1-.07-1,1,1,0,0,1,.7-.51l3.34-1a.67.67,0,0,1,.55.22,1.75,1.75,0,0,1,.38.75,1.38,1.38,0,0,1,.07,1,1.06,1.06,0,0,1-.69.52Z"/><path class="cls-1" d="M69.75,18.16a1.81,1.81,0,0,1-1-.19.86.86,0,0,1-.37-.52,3.55,3.55,0,0,1-.06-.67V6.16a4.9,4.9,0,0,1,.05-.7.81.81,0,0,1,.36-.52,1.7,1.7,0,0,1,1-.21,2.28,2.28,0,0,1,1,.17,1.05,1.05,0,0,1,.5.54V16.76a2.5,2.5,0,0,1-.06.68.86.86,0,0,1-.37.53A1.91,1.91,0,0,1,69.75,18.16Zm3.67-4.1a3.45,3.45,0,0,1-1.64-.37,3.3,3.3,0,0,1-1.18-1,4.35,4.35,0,0,1-.7-1.47,6.17,6.17,0,0,1-.22-1.8,6.48,6.48,0,0,1,.24-1.78,5.21,5.21,0,0,1,.72-1.5,3.28,3.28,0,0,1,1.16-1,3.46,3.46,0,0,1,1.62-.37,3.78,3.78,0,0,1,1.63.38,4.69,4.69,0,0,1,1.39,1,4.74,4.74,0,0,1,1,1.51,4.58,4.58,0,0,1,.35,1.8,4.51,4.51,0,0,1-.35,1.8,4.56,4.56,0,0,1-1,1.47,4.34,4.34,0,0,1-1.39,1A4,4,0,0,1,73.42,14.06ZM73,11.38a1.77,1.77,0,0,0,1-.25,2.07,2.07,0,0,0,.68-.7,1.87,1.87,0,0,0,.25-1,1.94,1.94,0,0,0-.24-1A1.9,1.9,0,0,0,74,7.81,1.87,1.87,0,0,0,73,7.56a1.82,1.82,0,0,0-.94.26,1.79,1.79,0,0,0-.66.68,2.06,2.06,0,0,0,0,1.93,2,2,0,0,0,.67.7A1.71,1.71,0,0,0,73,11.38Z"/><path class="cls-1" d="M80.74,3.36a1.86,1.86,0,0,1-1-.21.81.81,0,0,1-.37-.55,3.26,3.26,0,0,1-.07-.72,3.33,3.33,0,0,1,.08-.73.85.85,0,0,1,.38-.53,2,2,0,0,1,1-.2,1.83,1.83,0,0,1,1,.21.83.83,0,0,1,.37.55,3.38,3.38,0,0,1,.07.72,3.32,3.32,0,0,1-.07.72.79.79,0,0,1-.37.54A1.86,1.86,0,0,1,80.74,3.36Zm0,10.87a1.78,1.78,0,0,1-1-.2.78.78,0,0,1-.36-.53,3.11,3.11,0,0,1-.07-.69V6.18a3.17,3.17,0,0,1,.07-.71A.8.8,0,0,1,79.75,5a1.92,1.92,0,0,1,1-.2,1.72,1.72,0,0,1,1,.21.83.83,0,0,1,.36.53,3.26,3.26,0,0,1,.07.72v6.62a3.11,3.11,0,0,1-.07.69.74.74,0,0,1-.36.52A1.87,1.87,0,0,1,80.74,14.23Z"/><path class="cls-1" d="M85.14,14.23a1.31,1.31,0,0,1-1-.41,1.34,1.34,0,0,1-.41-1,1.45,1.45,0,0,1,.1-.55,1.29,1.29,0,0,1,.33-.48l4.3-4.2H85.58a3.85,3.85,0,0,1-.69-.06.85.85,0,0,1-.54-.37,1.82,1.82,0,0,1-.21-1,1.79,1.79,0,0,1,.21-1,.8.8,0,0,1,.54-.36,3.11,3.11,0,0,1,.69-.07h6a1.33,1.33,0,0,1,1,.4,1.36,1.36,0,0,1,.4,1,1.56,1.56,0,0,1-.1.57,1.15,1.15,0,0,1-.3.44l-4.21,4.21h3.44a3.13,3.13,0,0,1,.7.08.85.85,0,0,1,.52.38,1.94,1.94,0,0,1,.2,1,1.76,1.76,0,0,1-.21,1,.81.81,0,0,1-.53.37,5.12,5.12,0,0,1-.7.05Z"/><path class="cls-1" d="M33.08,64.44a5.31,5.31,0,0,1-1.35-.17,4.62,4.62,0,0,1-1.16-.47,4.57,4.57,0,0,1-.92-.65,3.38,3.38,0,0,1-.63-.72,2,2,0,0,1-.27-.51.53.53,0,0,1,0-.39,1.5,1.5,0,0,1,.35-.41.83.83,0,0,1,.53-.22.61.61,0,0,1,.43.18,2.29,2.29,0,0,1,.41.45,2.76,2.76,0,0,0,1.16.94,3.37,3.37,0,0,0,1.35.3,4.71,4.71,0,0,0,1.52-.23,2.3,2.3,0,0,0,1-.69A1.81,1.81,0,0,0,36,60.64a1.74,1.74,0,0,0-.3-1,2.74,2.74,0,0,0-.82-.71,7.52,7.52,0,0,0-1.14-.51L32.44,58a9.56,9.56,0,0,1-1-.39,6.83,6.83,0,0,1-.93-.49,3.25,3.25,0,0,1-.77-.66,2.69,2.69,0,0,1-.51-.89,3.61,3.61,0,0,1-.18-1.2,3.43,3.43,0,0,1,.5-1.84A3.37,3.37,0,0,1,31,51.25a4.68,4.68,0,0,1,2.11-.45,5.88,5.88,0,0,1,1.29.13,5.28,5.28,0,0,1,1,.35,4.59,4.59,0,0,1,.78.46,2.88,2.88,0,0,1,.5.45,1.41,1.41,0,0,1,.38.6.82.82,0,0,1-.29.61.76.76,0,0,1-1.22.1,3,3,0,0,0-.75-.65,2.51,2.51,0,0,0-.81-.31,4.62,4.62,0,0,0-.94-.09,3,3,0,0,0-.92.13,2,2,0,0,0-.75.37,1.61,1.61,0,0,0-.48.59,1.92,1.92,0,0,0-.17.81,1.44,1.44,0,0,0,.27.88,2.37,2.37,0,0,0,.74.61,6,6,0,0,0,1,.46l1.2.39c.45.14.9.31,1.35.5a5.62,5.62,0,0,1,1.19.72A3.27,3.27,0,0,1,37.36,59a4.05,4.05,0,0,1,0,3.27,3.35,3.35,0,0,1-1,1.2,4.55,4.55,0,0,1-1.48.73A5.86,5.86,0,0,1,33.08,64.44Z"/><path class="cls-1" d="M44.28,64.35a5.26,5.26,0,0,1-2-.38,4.52,4.52,0,0,1-1.51-1,4.63,4.63,0,0,1-.94-1.51,5.27,5.27,0,0,1-.32-1.84,4.44,4.44,0,0,1,.61-2.34,4.29,4.29,0,0,1,1.68-1.62,4.93,4.93,0,0,1,2.46-.6,4.77,4.77,0,0,1,1.7.29,4,4,0,0,1,1.28.79A3.55,3.55,0,0,1,48,57.2a2.85,2.85,0,0,1,.28,1.22,1.74,1.74,0,0,1-.45,1.36,1.68,1.68,0,0,1-1.12.39H41.24a2.14,2.14,0,0,0,.44,1.43,3.05,3.05,0,0,0,1.18.92,3.39,3.39,0,0,0,1.43.33,6.07,6.07,0,0,0,.92-.06,4.64,4.64,0,0,0,.66-.15l.5-.19.37-.19a1.06,1.06,0,0,1,.31-.14.62.62,0,0,1,.33,0,.51.51,0,0,1,.26.26,1,1,0,0,1,.15.28.92.92,0,0,1,0,.29c0,.18-.15.37-.46.59a4.15,4.15,0,0,1-1.26.55A6.83,6.83,0,0,1,44.28,64.35Zm-3-5.3H46a1.25,1.25,0,0,0,.55-.1q.18-.09.18-.51a1.51,1.51,0,0,0-.33-1,2.3,2.3,0,0,0-.88-.7,3,3,0,0,0-1.28-.26,3.5,3.5,0,0,0-1.53.33,2.7,2.7,0,0,0-1.09.9A2,2,0,0,0,41.24,59.05Z"/><path class="cls-1" d="M58.66,64.35A5.77,5.77,0,0,1,56.75,64a4.21,4.21,0,0,1-.82-.43,1.79,1.79,0,0,1-.52-.55,1.16,1.16,0,0,1-.11-.35.51.51,0,0,1,.05-.32,1.2,1.2,0,0,1,.23-.3.48.48,0,0,1,.38-.22.88.88,0,0,1,.48.26l.49.29a5,5,0,0,0,1.21.5,2.55,2.55,0,0,0,.61.08,2.65,2.65,0,0,0,1.41-.33,1,1,0,0,0,.53-.89,1.07,1.07,0,0,0-.13-.55,1.33,1.33,0,0,0-.36-.39,2.55,2.55,0,0,0-.52-.27,6.55,6.55,0,0,0-.63-.22l-.7-.2c-.34-.09-.67-.19-1-.3a4.21,4.21,0,0,1-.9-.45,2,2,0,0,1-.89-1.8A2.24,2.24,0,0,1,56,56.2a2.63,2.63,0,0,1,1.12-.89A4.21,4.21,0,0,1,58.77,55a4.75,4.75,0,0,1,.78.06,2.7,2.7,0,0,1,.69.18,4.12,4.12,0,0,1,.64.28,4.29,4.29,0,0,1,.59.39.68.68,0,0,1,.36.49.8.8,0,0,1-.21.55.76.76,0,0,1-.38.32.43.43,0,0,1-.42-.11,3.77,3.77,0,0,0-.64-.39,4.7,4.7,0,0,0-.7-.29,2.39,2.39,0,0,0-.75-.11,2.25,2.25,0,0,0-.84.14,1.13,1.13,0,0,0-.57.42,1,1,0,0,0-.2.61.73.73,0,0,0,.16.5,1.55,1.55,0,0,0,.42.32,3.23,3.23,0,0,0,.61.24c.23.07.47.14.73.2s.74.19,1.13.31a4.14,4.14,0,0,1,1,.48,2.19,2.19,0,0,1,.76.78,2.4,2.4,0,0,1,.3,1.28,2.31,2.31,0,0,1-1,2A4.28,4.28,0,0,1,58.66,64.35Z"/><path class="cls-1" d="M68.77,64.36A4.49,4.49,0,0,1,67,64a5.06,5.06,0,0,1-1.51-1,4.9,4.9,0,0,1-1-1.49,4.63,4.63,0,0,1-.38-1.87,4.44,4.44,0,0,1,.37-1.83,4.71,4.71,0,0,1,1-1.49,4.94,4.94,0,0,1,1.49-1,4.67,4.67,0,0,1,5.87,1.93,4.7,4.7,0,0,1,.62,2.39A4.56,4.56,0,0,1,73,61.54,4.49,4.49,0,0,1,72,63a4.65,4.65,0,0,1-1.49,1A4.33,4.33,0,0,1,68.77,64.36Zm0-1.65a2.84,2.84,0,0,0,1.48-.4,3,3,0,0,0,1.1-1.1,3.06,3.06,0,0,0,.42-1.6A3.1,3.1,0,0,0,71.34,58,2.82,2.82,0,0,0,70.27,57a3.22,3.22,0,0,0-1.56-.38,3,3,0,0,0-1.51.4,3,3,0,0,0-1.08,1.09,2.87,2.87,0,0,0-.41,1.55,3,3,0,0,0,.42,1.61,3,3,0,0,0,1.11,1.08A3,3,0,0,0,68.73,62.71Z"/><path class="cls-1" d="M78.59,64.35a5.39,5.39,0,0,1-1-.1,5.26,5.26,0,0,1-1-.27,4.21,4.21,0,0,1-.82-.43,1.79,1.79,0,0,1-.52-.55,1.16,1.16,0,0,1-.11-.35.51.51,0,0,1,0-.32,1.2,1.2,0,0,1,.23-.3.48.48,0,0,1,.38-.22.88.88,0,0,1,.48.26l.49.29a5,5,0,0,0,1.21.5,2.89,2.89,0,0,0,2-.25,1,1,0,0,0,.53-.89,1.07,1.07,0,0,0-.13-.55,1.33,1.33,0,0,0-.36-.39,2.46,2.46,0,0,0-.51-.27c-.19-.08-.41-.15-.64-.22l-.69-.2c-.35-.09-.68-.19-1-.3a3.91,3.91,0,0,1-.89-.45,2.07,2.07,0,0,1-.65-.7,2.13,2.13,0,0,1-.25-1.1,2.31,2.31,0,0,1,.4-1.34A2.63,2.63,0,0,1,77,55.31,4.21,4.21,0,0,1,78.7,55a4.75,4.75,0,0,1,.78.06,2.88,2.88,0,0,1,.7.18,4.46,4.46,0,0,1,.63.28,3.76,3.76,0,0,1,.59.39.68.68,0,0,1,.36.49.71.71,0,0,1-.21.55.76.76,0,0,1-.38.32.41.41,0,0,1-.41-.11,4.3,4.3,0,0,0-.65-.39,4.7,4.7,0,0,0-.7-.29,2.33,2.33,0,0,0-.74-.11,2.26,2.26,0,0,0-.85.14,1.13,1.13,0,0,0-.57.42,1,1,0,0,0-.2.61.73.73,0,0,0,.16.5,1.55,1.55,0,0,0,.42.32,3.23,3.23,0,0,0,.61.24l.73.2c.37.09.74.19,1.13.31a4.38,4.38,0,0,1,1.05.48,2.16,2.16,0,0,1,.75.78,2.4,2.4,0,0,1,.3,1.28,2.31,2.31,0,0,1-1,2A4.28,4.28,0,0,1,78.59,64.35Z"/><path class="cls-1" d="M84.61,55.26l1.83,0,2.64,0a1.87,1.87,0,0,1,.45,0,.46.46,0,0,1,.3.23,1.1,1.1,0,0,1,.1.54,1.25,1.25,0,0,1-.09.54.49.49,0,0,1-.29.24,1.49,1.49,0,0,1-.45.06l-2.61,0-1.92,0a.64.64,0,0,1-.54-.19,1.13,1.13,0,0,1-.14-.63.93.93,0,0,1,.17-.61A.75.75,0,0,1,84.61,55.26Zm4.26,9a5.87,5.87,0,0,1-1.51-.17,2.48,2.48,0,0,1-1-.53,2.13,2.13,0,0,1-.57-.94,5.36,5.36,0,0,1-.17-1.44V52.78a1.56,1.56,0,0,1,.06-.46.45.45,0,0,1,.23-.29.93.93,0,0,1,.53-.11A1.05,1.05,0,0,1,87,52a.46.46,0,0,1,.25.28,1.87,1.87,0,0,1,0,.45v8.41a2.76,2.76,0,0,0,.09.79.9.9,0,0,0,.26.45,1,1,0,0,0,.49.19,7.32,7.32,0,0,0,.74,0,1.67,1.67,0,0,1,.49,0,.48.48,0,0,1,.29.23,1.14,1.14,0,0,1,.09.51,1.15,1.15,0,0,1-.1.55.45.45,0,0,1-.3.22A1.64,1.64,0,0,1,88.87,64.25Z"/><path class="cls-1" d="M92.9,52.78a1.29,1.29,0,0,1-.63-.13A.61.61,0,0,1,92,52.3a2.09,2.09,0,0,1-.06-.53,1.6,1.6,0,0,1,.07-.52.56.56,0,0,1,.29-.33,1.47,1.47,0,0,1,.63-.1,1.37,1.37,0,0,1,.6.11.55.55,0,0,1,.28.34,2.14,2.14,0,0,1,.07.54,2,2,0,0,1-.07.52.54.54,0,0,1-.28.33A1.26,1.26,0,0,1,92.9,52.78Zm0,11.47a1.1,1.1,0,0,1-.54-.1.48.48,0,0,1-.24-.3,1.49,1.49,0,0,1-.06-.45V55.89a1.44,1.44,0,0,1,.06-.45.44.44,0,0,1,.24-.29,1.29,1.29,0,0,1,.56-.09,1.06,1.06,0,0,1,.53.1.55.55,0,0,1,.23.29,2.14,2.14,0,0,1,0,.48v7.48a2,2,0,0,1,0,.46.49.49,0,0,1-.24.29A1.25,1.25,0,0,1,92.9,64.25Z"/><path class="cls-1" d="M100.84,64.35a5.17,5.17,0,0,1-2-.38,4.42,4.42,0,0,1-1.51-1,4.49,4.49,0,0,1-1-1.51A5.27,5.27,0,0,1,96,59.58a4.39,4.39,0,0,1,2.29-4,5,5,0,0,1,2.46-.6,4.73,4.73,0,0,1,1.7.29,4,4,0,0,1,1.28.79,3.55,3.55,0,0,1,.82,1.1,2.87,2.87,0,0,1,.29,1.22,1.74,1.74,0,0,1-.46,1.36,1.66,1.66,0,0,1-1.12.39H97.8a2.15,2.15,0,0,0,.45,1.43,3,3,0,0,0,1.17.92,3.43,3.43,0,0,0,1.44.33,5.93,5.93,0,0,0,.91-.06,4.64,4.64,0,0,0,.66-.15l.5-.19.37-.19a1.19,1.19,0,0,1,.31-.14.65.65,0,0,1,.34,0,.53.53,0,0,1,.25.26.77.77,0,0,1,.15.28.92.92,0,0,1,0,.29c0,.18-.15.37-.45.59a4.34,4.34,0,0,1-1.27.55A6.83,6.83,0,0,1,100.84,64.35Zm-3-5.3h4.77a1.23,1.23,0,0,0,.54-.1q.18-.09.18-.51a1.56,1.56,0,0,0-.32-1,2.34,2.34,0,0,0-.89-.7,3,3,0,0,0-1.28-.26,3.5,3.5,0,0,0-1.53.33,2.7,2.7,0,0,0-1.09.9A2.1,2.1,0,0,0,97.8,59.05Z"/><path class="cls-1" d="M107.89,64.23a1.1,1.1,0,0,1-.54-.1.46.46,0,0,1-.23-.3,1.93,1.93,0,0,1-.05-.45V55.83a1.22,1.22,0,0,1,.06-.41.43.43,0,0,1,.24-.27,1.66,1.66,0,0,1,1,0,.49.49,0,0,1,.23.18.75.75,0,0,1,.09.25,2.29,2.29,0,0,1,0,.25l0,.87a3,3,0,0,1,.47-.62,3.64,3.64,0,0,1,.67-.53,3.38,3.38,0,0,1,.82-.37,3.32,3.32,0,0,1,1-.13,4.06,4.06,0,0,1,1.54.29,3.35,3.35,0,0,1,1.21.86,4.11,4.11,0,0,1,.78,1.34,5.33,5.33,0,0,1,.27,1.76V63.4a2,2,0,0,1,0,.45.48.48,0,0,1-.23.29,1.25,1.25,0,0,1-.54.09,1.14,1.14,0,0,1-.56-.1.51.51,0,0,1-.24-.3,1.49,1.49,0,0,1-.06-.45V59.25a3.43,3.43,0,0,0-.26-1.38,2.06,2.06,0,0,0-.8-.92,2.46,2.46,0,0,0-1.35-.34,2.62,2.62,0,0,0-1.36.34,2.19,2.19,0,0,0-.89.92,2.87,2.87,0,0,0-.32,1.38V63.4a1.93,1.93,0,0,1,0,.45.49.49,0,0,1-.24.29A1.25,1.25,0,0,1,107.89,64.23Z"/><path class="cls-1" d="M122.25,64.35a5.17,5.17,0,0,1-2-.38,4.43,4.43,0,0,1-2.45-2.55,5.05,5.05,0,0,1-.33-1.84,4.53,4.53,0,0,1,.61-2.34,4.43,4.43,0,0,1,1.68-1.62,5,5,0,0,1,2.46-.6,4.83,4.83,0,0,1,1.71.29,4.13,4.13,0,0,1,1.28.79,3.68,3.68,0,0,1,.81,1.1,2.87,2.87,0,0,1,.29,1.22,1.7,1.7,0,0,1-.46,1.36,1.64,1.64,0,0,1-1.12.39h-5.49a2.2,2.2,0,0,0,.45,1.43,3,3,0,0,0,1.18.92,3.35,3.35,0,0,0,1.43.33,5.84,5.84,0,0,0,.91-.06,4.5,4.5,0,0,0,.67-.15l.49-.19.37-.19a1.12,1.12,0,0,1,.32-.14.62.62,0,0,1,.33,0,.49.49,0,0,1,.25.26,1,1,0,0,1,.16.28,1.36,1.36,0,0,1,0,.29c0,.18-.15.37-.45.59a4.39,4.39,0,0,1-1.26.55A6.86,6.86,0,0,1,122.25,64.35Zm-3-5.3H124a1.23,1.23,0,0,0,.54-.1q.18-.09.18-.51a1.56,1.56,0,0,0-.32-1,2.38,2.38,0,0,0-.88-.7,3.13,3.13,0,0,0-1.29-.26,3.56,3.56,0,0,0-1.53.33,2.77,2.77,0,0,0-1.09.9A2.16,2.16,0,0,0,119.21,59.05Z"/><path class="cls-1" d="M137.91,64.35a5.26,5.26,0,0,1-2-.38,4.43,4.43,0,0,1-2.45-2.55,5.27,5.27,0,0,1-.32-1.84,4.44,4.44,0,0,1,.61-2.34,4.29,4.29,0,0,1,1.68-1.62,5,5,0,0,1,2.46-.6,4.77,4.77,0,0,1,1.7.29,4,4,0,0,1,1.28.79,3.55,3.55,0,0,1,.82,1.1,2.87,2.87,0,0,1,.29,1.22,1.74,1.74,0,0,1-.46,1.36,1.66,1.66,0,0,1-1.12.39h-5.49a2.14,2.14,0,0,0,.44,1.43,3.05,3.05,0,0,0,1.18.92,3.4,3.4,0,0,0,1.44.33,5.93,5.93,0,0,0,.91-.06,4.64,4.64,0,0,0,.66-.15l.5-.19.37-.19a1.19,1.19,0,0,1,.31-.14.61.61,0,0,1,.33,0,.51.51,0,0,1,.26.26.77.77,0,0,1,.15.28.92.92,0,0,1,0,.29c0,.18-.15.37-.46.59a4.15,4.15,0,0,1-1.26.55A6.83,6.83,0,0,1,137.91,64.35Zm-3-5.3h4.77a1.23,1.23,0,0,0,.54-.1q.18-.09.18-.51a1.56,1.56,0,0,0-.32-1,2.34,2.34,0,0,0-.89-.7,3,3,0,0,0-1.28-.26,3.5,3.5,0,0,0-1.53.33,2.7,2.7,0,0,0-1.09.9A2,2,0,0,0,134.87,59.05Z"/><path class="cls-1" d="M145,64.23a1.1,1.1,0,0,1-.54-.1.43.43,0,0,1-.23-.3,1.93,1.93,0,0,1-.05-.45V55.83a1.22,1.22,0,0,1,.06-.41.41.41,0,0,1,.23-.27,1.27,1.27,0,0,1,.55-.09,1.29,1.29,0,0,1,.44.06.49.49,0,0,1,.23.18,1.06,1.06,0,0,1,.09.25,2.18,2.18,0,0,1,0,.25l0,.87a3,3,0,0,1,.47-.62,3.64,3.64,0,0,1,.67-.53,3.38,3.38,0,0,1,.82-.37,3.32,3.32,0,0,1,1-.13,4.06,4.06,0,0,1,1.54.29,3.35,3.35,0,0,1,1.21.86,4.11,4.11,0,0,1,.78,1.34,5.33,5.33,0,0,1,.27,1.76V63.4a2,2,0,0,1,0,.45.48.48,0,0,1-.23.29,1.25,1.25,0,0,1-.54.09,1.14,1.14,0,0,1-.56-.1.48.48,0,0,1-.24-.3,1.49,1.49,0,0,1-.06-.45V59.25a3.27,3.27,0,0,0-.27-1.38,2,2,0,0,0-.79-.92,2.46,2.46,0,0,0-1.35-.34A2.62,2.62,0,0,0,147,57a2.19,2.19,0,0,0-.89.92,2.87,2.87,0,0,0-.32,1.38V63.4a1.93,1.93,0,0,1,0,.45.49.49,0,0,1-.24.29A1.25,1.25,0,0,1,145,64.23Z"/><path class="cls-1" d="M155.06,55.26l1.83,0,2.64,0a2,2,0,0,1,.46,0,.47.47,0,0,1,.29.23,1.1,1.1,0,0,1,.1.54,1.25,1.25,0,0,1-.09.54.46.46,0,0,1-.29.24,1.44,1.44,0,0,1-.45.06l-2.6,0-1.92,0a.65.65,0,0,1-.55-.19,1.13,1.13,0,0,1-.14-.63.93.93,0,0,1,.17-.61A.75.75,0,0,1,155.06,55.26Zm4.26,9a5.93,5.93,0,0,1-1.51-.17,2.48,2.48,0,0,1-1-.53,2.13,2.13,0,0,1-.57-.94,5.36,5.36,0,0,1-.17-1.44V52.78a1.56,1.56,0,0,1,.06-.46.45.45,0,0,1,.23-.29.93.93,0,0,1,.53-.11,1.05,1.05,0,0,1,.55.11.46.46,0,0,1,.25.28,1.47,1.47,0,0,1,.05.45v8.41a2.76,2.76,0,0,0,.09.79.91.91,0,0,0,.27.45,1,1,0,0,0,.48.19,7.32,7.32,0,0,0,.74,0,1.79,1.79,0,0,1,.5,0,.49.49,0,0,1,.28.23,1.12,1.12,0,0,1,.1.51,1.13,1.13,0,0,1-.11.55.45.45,0,0,1-.3.22A1.64,1.64,0,0,1,159.32,64.25Z"/><path class="cls-1" d="M163.25,64.25a1.1,1.1,0,0,1-.54-.1.49.49,0,0,1-.23-.31,2.13,2.13,0,0,1,0-.46V55.89a2,2,0,0,1,.05-.47.46.46,0,0,1,.23-.28,1.3,1.3,0,0,1,.55-.08,1.28,1.28,0,0,1,.53.08.45.45,0,0,1,.24.25.87.87,0,0,1,.07.37l-.08.57a4.65,4.65,0,0,1,.32-.5,2.09,2.09,0,0,1,.45-.44,2.21,2.21,0,0,1,.67-.33,3,3,0,0,1,1-.14,3.1,3.1,0,0,1,.54,0,2.75,2.75,0,0,1,.49.14,2.22,2.22,0,0,1,.41.22,1.2,1.2,0,0,1,.28.27.52.52,0,0,1,.1.33,1,1,0,0,1-.27.71.74.74,0,0,1-.55.3.82.82,0,0,1-.36-.07l-.22-.14a1.28,1.28,0,0,0-.29-.15,2.24,2.24,0,0,0-.61-.06,1.91,1.91,0,0,0-.6.11,2.52,2.52,0,0,0-.6.33,1.73,1.73,0,0,0-.46.57,1.65,1.65,0,0,0-.18.79v5.09a1.56,1.56,0,0,1-.06.46.49.49,0,0,1-.24.29A1.29,1.29,0,0,1,163.25,64.25Z"/><path class="cls-1" d="M174.75,64.35a5.17,5.17,0,0,1-2-.38,4.56,4.56,0,0,1-1.52-1,4.63,4.63,0,0,1-.94-1.51,5.27,5.27,0,0,1-.32-1.84,4.44,4.44,0,0,1,.61-2.34,4.36,4.36,0,0,1,1.68-1.62,5,5,0,0,1,2.46-.6,4.77,4.77,0,0,1,1.7.29,4,4,0,0,1,1.28.79,3.55,3.55,0,0,1,.82,1.1,2.87,2.87,0,0,1,.29,1.22,1.74,1.74,0,0,1-.46,1.36,1.66,1.66,0,0,1-1.12.39h-5.49a2.2,2.2,0,0,0,.44,1.43,3.05,3.05,0,0,0,1.18.92,3.43,3.43,0,0,0,1.44.33,5.93,5.93,0,0,0,.91-.06,4.64,4.64,0,0,0,.66-.15l.5-.19.37-.19a1.19,1.19,0,0,1,.31-.14.65.65,0,0,1,.34,0,.53.53,0,0,1,.25.26.77.77,0,0,1,.15.28.92.92,0,0,1,0,.29c0,.18-.15.37-.45.59a4.34,4.34,0,0,1-1.27.55A6.83,6.83,0,0,1,174.75,64.35Zm-3-5.3h4.77A1.23,1.23,0,0,0,177,59q.18-.09.18-.51a1.56,1.56,0,0,0-.32-1,2.34,2.34,0,0,0-.89-.7,3,3,0,0,0-1.28-.26,3.5,3.5,0,0,0-1.53.33,2.7,2.7,0,0,0-1.09.9A2.1,2.1,0,0,0,171.71,59.05Z"/><path class="cls-1" d="M190.4,64.35a5.21,5.21,0,0,1-2-.38,4.52,4.52,0,0,1-1.51-1,4.63,4.63,0,0,1-.94-1.51,5,5,0,0,1-.32-1.84,4.44,4.44,0,0,1,.61-2.34,4.29,4.29,0,0,1,1.68-1.62,4.93,4.93,0,0,1,2.46-.6,4.77,4.77,0,0,1,1.7.29,4,4,0,0,1,1.28.79,3.72,3.72,0,0,1,.82,1.1,2.85,2.85,0,0,1,.28,1.22,1.74,1.74,0,0,1-.45,1.36,1.68,1.68,0,0,1-1.12.39h-5.5a2.2,2.2,0,0,0,.45,1.43,3,3,0,0,0,1.18.92,3.35,3.35,0,0,0,1.43.33,6.07,6.07,0,0,0,.92-.06,4.64,4.64,0,0,0,.66-.15l.49-.19.37-.19a1.25,1.25,0,0,1,.32-.14.62.62,0,0,1,.33,0,.55.55,0,0,1,.26.26,1.3,1.3,0,0,1,.15.28,1.35,1.35,0,0,1,0,.29c0,.18-.15.37-.46.59a4.15,4.15,0,0,1-1.26.55A6.86,6.86,0,0,1,190.4,64.35Zm-3-5.3h4.77a1.23,1.23,0,0,0,.54-.1c.13-.06.19-.23.19-.51a1.51,1.51,0,0,0-.33-1,2.3,2.3,0,0,0-.88-.7,3,3,0,0,0-1.28-.26,3.5,3.5,0,0,0-1.53.33,2.73,2.73,0,0,0-1.1.9A2.16,2.16,0,0,0,187.36,59.05Z"/><path class="cls-1" d="M199.51,64.25a5.29,5.29,0,0,1-1.1-.1,2.43,2.43,0,0,1-.84-.34,2,2,0,0,1-.6-.58,2.49,2.49,0,0,1-.34-.88,6,6,0,0,1-.11-1.2v-9.5a2,2,0,0,1,0-.47.45.45,0,0,1,.24-.3,1.22,1.22,0,0,1,.53-.1,1.17,1.17,0,0,1,.56.1.45.45,0,0,1,.24.28,2,2,0,0,1,.05.46v9.52a2.46,2.46,0,0,0,.08.65,1.23,1.23,0,0,0,.24.47.83.83,0,0,0,.41.26,2,2,0,0,0,.59.08,1.35,1.35,0,0,1,.38,0,.49.49,0,0,1,.26.23,1.18,1.18,0,0,1,.1.53,1.32,1.32,0,0,1-.1.57.4.4,0,0,1-.26.22A1.06,1.06,0,0,1,199.51,64.25Z"/><path class="cls-1" d="M208.05,68a1.1,1.1,0,0,1-.54-.1.52.52,0,0,1-.24-.29,1.27,1.27,0,0,1-.07-.46V55.91a1.56,1.56,0,0,1,.06-.46.5.5,0,0,1,.23-.29,1.15,1.15,0,0,1,.55-.1,1.11,1.11,0,0,1,.61.13.59.59,0,0,1,.24.47V67.12a1.4,1.4,0,0,1,0,.47.46.46,0,0,1-.23.3A1.21,1.21,0,0,1,208.05,68Zm4-3.81a4,4,0,0,1-1.69-.35,3.53,3.53,0,0,1-1.3-1,4.38,4.38,0,0,1-.82-1.45,5.19,5.19,0,0,1-.28-1.84,5.66,5.66,0,0,1,.29-1.83A4.3,4.3,0,0,1,209,56.3a3.62,3.62,0,0,1,1.3-.95A4.13,4.13,0,0,1,212,55a4,4,0,0,1,1.64.34,4.27,4.27,0,0,1,1.35,1,4.4,4.4,0,0,1,.91,1.47,5.09,5.09,0,0,1,.33,1.84,5,5,0,0,1-.33,1.83A4.26,4.26,0,0,1,215,62.9a4.06,4.06,0,0,1-1.35.94A4.11,4.11,0,0,1,212,64.18Zm-.25-1.56a2.73,2.73,0,0,0,1.44-.39,2.79,2.79,0,0,0,1-1.08,3.14,3.14,0,0,0,.37-1.55,3.1,3.1,0,0,0-.37-1.56,2.73,2.73,0,0,0-1-1,2.89,2.89,0,0,0-1.45-.37,2.73,2.73,0,0,0-2.44,1.43A3.05,3.05,0,0,0,209,59.6a3.14,3.14,0,0,0,.37,1.55,2.77,2.77,0,0,0,1,1.08A2.67,2.67,0,0,0,211.76,62.62Z"/><path class="cls-1" d="M222.19,64.27a4,4,0,0,1-1.55-.3,3.81,3.81,0,0,1-2.07-2.19,4.91,4.91,0,0,1-.29-1.77V55.89a1.87,1.87,0,0,1,.05-.45.51.51,0,0,1,.24-.3,1.1,1.1,0,0,1,.54-.1,1,1,0,0,1,.54.11.58.58,0,0,1,.24.3,1.56,1.56,0,0,1,.06.46V60a3.5,3.5,0,0,0,.26,1.38,2,2,0,0,0,.81.92,2.48,2.48,0,0,0,1.32.32,2.76,2.76,0,0,0,1.38-.32,2.14,2.14,0,0,0,.89-.92,2.93,2.93,0,0,0,.32-1.38V55.89a1.87,1.87,0,0,1,0-.45.51.51,0,0,1,.24-.3,1.1,1.1,0,0,1,.54-.1,1,1,0,0,1,.54.11.51.51,0,0,1,.23.3,2,2,0,0,1,.05.46v7.54a1.64,1.64,0,0,1-.05.41.45.45,0,0,1-.23.28,1.25,1.25,0,0,1-.54.09,1.55,1.55,0,0,1-.42,0,.48.48,0,0,1-.24-.16.51.51,0,0,1-.11-.22,1,1,0,0,1,0-.25l.08-.82c-.13.15-.28.32-.46.5a4.53,4.53,0,0,1-.61.5,3.42,3.42,0,0,1-.79.39A3,3,0,0,1,222.19,64.27Z"/><path class="cls-1" d="M232,64.25a5.19,5.19,0,0,1-1.09-.1,2.57,2.57,0,0,1-.85-.34,1.82,1.82,0,0,1-.59-.58,2.5,2.5,0,0,1-.35-.88,6,6,0,0,1-.1-1.2v-9.5a2,2,0,0,1,0-.47.45.45,0,0,1,.24-.3,1.22,1.22,0,0,1,.53-.1,1.17,1.17,0,0,1,.56.1.41.41,0,0,1,.23.28,1.56,1.56,0,0,1,.06.46v9.52a2.46,2.46,0,0,0,.08.65,1.23,1.23,0,0,0,.24.47.85.85,0,0,0,.4.26,2.05,2.05,0,0,0,.59.08,1.48,1.48,0,0,1,.39,0,.49.49,0,0,1,.26.23,1.2,1.2,0,0,1,.09.53,1.35,1.35,0,0,1-.09.57.4.4,0,0,1-.26.22A1.15,1.15,0,0,1,232,64.25Z"/><path class="cls-1" d="M238.59,64a4.2,4.2,0,0,1-1.68-.33,4,4,0,0,1-1.35-.94,4.24,4.24,0,0,1-.9-1.43,4.9,4.9,0,0,1-.31-1.78,5,5,0,0,1,.31-1.79,4.33,4.33,0,0,1,.89-1.42,3.83,3.83,0,0,1,1.34-.94,4.2,4.2,0,0,1,1.68-.34,3.46,3.46,0,0,1,1.52.33,3.34,3.34,0,0,1,1.17.92,4.29,4.29,0,0,1,.73,1.41,6.53,6.53,0,0,1,.25,1.83,5.93,5.93,0,0,1-.44,2.37,3.45,3.45,0,0,1-1.26,1.56A3.36,3.36,0,0,1,238.59,64Zm0,3.94a5.32,5.32,0,0,1-1.27-.16,4.25,4.25,0,0,1-1.06-.4,2.49,2.49,0,0,1-.72-.53.8.8,0,0,1-.27-.53.68.68,0,0,1,.06-.31.77.77,0,0,1,.17-.26,2,2,0,0,1,.3-.27.57.57,0,0,1,.31-.07.59.59,0,0,1,.38.16A5.33,5.33,0,0,0,237,66a3.3,3.3,0,0,0,.68.36,2.8,2.8,0,0,0,1,.16,3,3,0,0,0,1.12-.19,2.16,2.16,0,0,0,.86-.57,2.57,2.57,0,0,0,.55-.92,3.59,3.59,0,0,0,.19-1.22l0-7.91a.65.65,0,0,1,.22-.51,1.06,1.06,0,0,1,.64-.15,1,1,0,0,1,.52.1.47.47,0,0,1,.21.29,1.89,1.89,0,0,1,0,.44v7.87a4.57,4.57,0,0,1-.32,1.79,3.62,3.62,0,0,1-.91,1.34,3.92,3.92,0,0,1-1.39.84A5.14,5.14,0,0,1,238.64,68Zm0-5.5a2.48,2.48,0,0,0,1.37-.38,2.7,2.7,0,0,0,1-1,3.18,3.18,0,0,0,.36-1.54A3.09,3.09,0,0,0,241,58a2.6,2.6,0,0,0-1-1,2.73,2.73,0,0,0-1.4-.36,2.66,2.66,0,0,0-1.38.36,2.38,2.38,0,0,0-.94,1,3.38,3.38,0,0,0-.34,1.53,3.26,3.26,0,0,0,.35,1.53,2.58,2.58,0,0,0,2.35,1.41Z"/><path class="cls-1" d="M253.62,64.23a.83.83,0,0,1-.6-.17.79.79,0,0,1-.22-.53l.08-1a4.55,4.55,0,0,1-.59.69,3.83,3.83,0,0,1-1,.69,3.91,3.91,0,0,1-1.58.29,4.08,4.08,0,0,1-1.7-.36,4.39,4.39,0,0,1-1.38-1,4.81,4.81,0,0,1-1.27-3.27,4.47,4.47,0,0,1,.34-1.75,4.41,4.41,0,0,1,.94-1.46,4.67,4.67,0,0,1,1.39-1,4,4,0,0,1,1.68-.36,4.27,4.27,0,0,1,1.43.21,3.86,3.86,0,0,1,1,.57,5.09,5.09,0,0,1,.75.79l0-.8a.74.74,0,0,1,.18-.59.92.92,0,0,1,.64-.18.89.89,0,0,1,.52.11.53.53,0,0,1,.22.32,2.47,2.47,0,0,1,.05.52v7.33a2.19,2.19,0,0,1-.05.47.55.55,0,0,1-.23.32A1.06,1.06,0,0,1,253.62,64.23ZM250,62.65a2.64,2.64,0,0,0,1.4-.39,2.89,2.89,0,0,0,1-1.08,3.12,3.12,0,0,0,.37-1.55,3.06,3.06,0,0,0-.39-1.56,3,3,0,0,0-1-1.07,2.64,2.64,0,0,0-1.4-.39,2.91,2.91,0,0,0-1.55.41,3,3,0,0,0-1,1.09,3.11,3.11,0,0,0-.38,1.56,3,3,0,0,0,.38,1.53,2.77,2.77,0,0,0,1,1.07A3.07,3.07,0,0,0,250,62.65Z"/><path class="cls-1" d="M257.82,64.25a1.12,1.12,0,0,1-.55-.1.44.44,0,0,1-.22-.31,1.62,1.62,0,0,1-.05-.46V55.89a1.53,1.53,0,0,1,.06-.47.42.42,0,0,1,.22-.28,1.3,1.3,0,0,1,.55-.08,1.25,1.25,0,0,1,.53.08.45.45,0,0,1,.24.25.87.87,0,0,1,.07.37l-.08.57a4.65,4.65,0,0,1,.32-.5,2.09,2.09,0,0,1,.45-.44,2.21,2.21,0,0,1,.67-.33,3,3,0,0,1,1-.14,3.1,3.1,0,0,1,.54,0,2.53,2.53,0,0,1,.49.14,2.22,2.22,0,0,1,.41.22,1,1,0,0,1,.28.27.52.52,0,0,1,.1.33,1,1,0,0,1-.26.71.75.75,0,0,1-.55.3.83.83,0,0,1-.37-.07l-.21-.14a1.38,1.38,0,0,0-.3-.15,2.24,2.24,0,0,0-.61-.06,1.91,1.91,0,0,0-.6.11,2.67,2.67,0,0,0-.59.33,1.75,1.75,0,0,0-.47.57,1.65,1.65,0,0,0-.18.79v5.09a1.56,1.56,0,0,1-.06.46.44.44,0,0,1-.23.29A1.33,1.33,0,0,1,257.82,64.25Z"/><path class="cls-1" d="M274,63l-4.35-6.7a.69.69,0,0,1,.25-1.14.87.87,0,0,1,.67-.2,1,1,0,0,1,.53.45l3.68,5.79Zm-1.88,4.91c-.3-.13-.48-.28-.53-.44a1,1,0,0,1,.13-.68l5-11.31a1.1,1.1,0,0,1,.44-.54.88.88,0,0,1,.68.09c.3.14.48.29.52.45a1,1,0,0,1-.12.67l-5.07,11.36q-.19.43-.42.51A1.05,1.05,0,0,1,272.12,67.94Z"/><path class="cls-1" d="M289.81,64.35a5.17,5.17,0,0,1-2-.38,4.43,4.43,0,0,1-2.45-2.55,5.05,5.05,0,0,1-.33-1.84,4.53,4.53,0,0,1,.61-2.34,4.43,4.43,0,0,1,1.68-1.62,5,5,0,0,1,2.46-.6,4.73,4.73,0,0,1,1.7.29,4.18,4.18,0,0,1,1.29.79,3.68,3.68,0,0,1,.81,1.1,2.87,2.87,0,0,1,.29,1.22,1.7,1.7,0,0,1-.46,1.36,1.64,1.64,0,0,1-1.12.39h-5.49a2.2,2.2,0,0,0,.45,1.43,3,3,0,0,0,1.18.92,3.35,3.35,0,0,0,1.43.33,5.93,5.93,0,0,0,.91-.06,4.5,4.5,0,0,0,.67-.15l.49-.19.37-.19a1.12,1.12,0,0,1,.32-.14.62.62,0,0,1,.33,0,.49.49,0,0,1,.25.26,1,1,0,0,1,.16.28,1.36,1.36,0,0,1,0,.29c0,.18-.15.37-.45.59a4.34,4.34,0,0,1-1.27.55A6.78,6.78,0,0,1,289.81,64.35Zm-3-5.3h4.77a1.23,1.23,0,0,0,.54-.1q.18-.09.18-.51a1.56,1.56,0,0,0-.32-1,2.38,2.38,0,0,0-.88-.7,3.13,3.13,0,0,0-1.29-.26,3.56,3.56,0,0,0-1.53.33,2.77,2.77,0,0,0-1.09.9A2.1,2.1,0,0,0,286.77,59.05Z"/><path class="cls-1" d="M298.91,64.25a5.19,5.19,0,0,1-1.09-.1,2.48,2.48,0,0,1-.85-.34,1.82,1.82,0,0,1-.59-.58,2.5,2.5,0,0,1-.35-.88,6,6,0,0,1-.1-1.2v-9.5a1.61,1.61,0,0,1,.05-.47.46.46,0,0,1,.23-.3,1.3,1.3,0,0,1,.54-.1,1.17,1.17,0,0,1,.56.1.41.41,0,0,1,.23.28,1.56,1.56,0,0,1,.06.46v9.52a2.46,2.46,0,0,0,.08.65,1.38,1.38,0,0,0,.23.47.93.93,0,0,0,.41.26,2.05,2.05,0,0,0,.59.08,1.48,1.48,0,0,1,.39,0,.52.52,0,0,1,.26.23,1.2,1.2,0,0,1,.09.53,1.35,1.35,0,0,1-.09.57.43.43,0,0,1-.26.22A1.15,1.15,0,0,1,298.91,64.25Z"/><path class="cls-1" d="M307,53.8a.61.61,0,0,1-.48-.06.82.82,0,0,1-.28-.47.9.9,0,0,1-.05-.61.63.63,0,0,1,.44-.32l3-1a.57.57,0,0,1,.46.07,1,1,0,0,1,.29.48.83.83,0,0,1,0,.6.78.78,0,0,1-.46.33Zm.43,10.45a1.11,1.11,0,0,1-.53-.1.45.45,0,0,1-.24-.3,2,2,0,0,1,0-.45V55.89a1.47,1.47,0,0,1,.05-.45.46.46,0,0,1,.24-.29,1.25,1.25,0,0,1,.54-.09,1.1,1.1,0,0,1,.55.1.5.5,0,0,1,.23.29,1.65,1.65,0,0,1,.06.48v7.48a1.56,1.56,0,0,1-.06.46.49.49,0,0,1-.24.29A1.29,1.29,0,0,1,307.44,64.25Z"/><path class="cls-1" d="M311.68,64.23a1.1,1.1,0,0,1-.54-.1.46.46,0,0,1-.23-.3,1.93,1.93,0,0,1-.05-.45V55.83a1.22,1.22,0,0,1,.06-.41.46.46,0,0,1,.24-.27,1.25,1.25,0,0,1,.54-.09,1.36,1.36,0,0,1,.45.06.51.51,0,0,1,.22.18.58.58,0,0,1,.09.25,2.29,2.29,0,0,1,0,.25l0,.87a3.38,3.38,0,0,1,.47-.62,4,4,0,0,1,.67-.53,3.28,3.28,0,0,1,.83-.37,3.23,3.23,0,0,1,1-.13,4,4,0,0,1,1.53.29,3.27,3.27,0,0,1,1.21.86,3.79,3.79,0,0,1,.78,1.34,5.33,5.33,0,0,1,.28,1.76V63.4a1.93,1.93,0,0,1-.05.45.44.44,0,0,1-.23.29,1.25,1.25,0,0,1-.54.09,1.14,1.14,0,0,1-.56-.1.51.51,0,0,1-.24-.3,1.49,1.49,0,0,1-.06-.45V59.25a3.43,3.43,0,0,0-.26-1.38,2.06,2.06,0,0,0-.8-.92,2.44,2.44,0,0,0-1.35-.34,2.62,2.62,0,0,0-1.36.34,2.25,2.25,0,0,0-.89.92,2.87,2.87,0,0,0-.31,1.38V63.4a1.49,1.49,0,0,1-.06.45.49.49,0,0,1-.24.29A1.25,1.25,0,0,1,311.68,64.23Z"/><path class="cls-1" d="M325.68,64.25a4,4,0,0,1-1.63-.34,4.08,4.08,0,0,1-1.36-1,4.61,4.61,0,0,1-.91-1.47,5.08,5.08,0,0,1-.33-1.86,5,5,0,0,1,.33-1.82,4.41,4.41,0,0,1,.91-1.45,4.2,4.2,0,0,1,1.36-1,4.2,4.2,0,0,1,3.31,0,3.86,3.86,0,0,1,1.3,1,4.26,4.26,0,0,1,.82,1.46,5.71,5.71,0,0,1,.29,1.83,5.21,5.21,0,0,1-.28,1.85,4.64,4.64,0,0,1-.82,1.46,3.72,3.72,0,0,1-1.29,1A4,4,0,0,1,325.68,64.25Zm.25-1.61a2.75,2.75,0,0,0,1.43-.38,2.78,2.78,0,0,0,1-1.06,3.12,3.12,0,0,0,.37-1.55,3.16,3.16,0,0,0-.37-1.56,2.71,2.71,0,0,0-1-1.06,2.75,2.75,0,0,0-1.43-.38,2.82,2.82,0,0,0-1.44.38,2.67,2.67,0,0,0-1,1.06,3.16,3.16,0,0,0-.37,1.56,3.12,3.12,0,0,0,.37,1.55,2.76,2.76,0,0,0,1,1.06A2.81,2.81,0,0,0,325.93,62.64Zm3.72,1.61a1,1,0,0,1-.6-.15.68.68,0,0,1-.23-.51V51.69a1.57,1.57,0,0,1,.05-.47.45.45,0,0,1,.22-.3,1.1,1.1,0,0,1,.54-.1,1.12,1.12,0,0,1,.55.1.46.46,0,0,1,.23.3,1.49,1.49,0,0,1,.06.45V63.38a1.6,1.6,0,0,1-.06.46.48.48,0,0,1-.22.31A1.1,1.1,0,0,1,329.65,64.25Z"/><path class="cls-1" d="M334.06,52.78a1.29,1.29,0,0,1-.63-.13.56.56,0,0,1-.27-.35,1.7,1.7,0,0,1-.07-.53,1.58,1.58,0,0,1,.08-.52.54.54,0,0,1,.28-.33,1.47,1.47,0,0,1,.63-.1,1.38,1.38,0,0,1,.61.11.54.54,0,0,1,.27.34,1.77,1.77,0,0,1,.07.54,1.64,1.64,0,0,1-.07.52.52.52,0,0,1-.27.33A1.3,1.3,0,0,1,334.06,52.78Zm0,11.47a1.1,1.1,0,0,1-.54-.1.51.51,0,0,1-.24-.3,1.51,1.51,0,0,1,0-.45V55.89a1.47,1.47,0,0,1,0-.45.46.46,0,0,1,.24-.29,1.33,1.33,0,0,1,.56-.09,1,1,0,0,1,.53.1.5.5,0,0,1,.23.29,1.65,1.65,0,0,1,.06.48v7.48a1.56,1.56,0,0,1-.06.46.49.49,0,0,1-.24.29A1.25,1.25,0,0,1,334.06,64.25Z"/><path class="cls-1" d="M342,64.29a5.37,5.37,0,0,1-1.85-.32,4.57,4.57,0,0,1-1.52-.94,4.21,4.21,0,0,1-1-1.45,4.85,4.85,0,0,1-.37-1.93,4.92,4.92,0,0,1,.37-1.93,4.53,4.53,0,0,1,1-1.45,4.67,4.67,0,0,1,1.51-.93A5.13,5.13,0,0,1,342,55a4,4,0,0,1,1.27.2,4.36,4.36,0,0,1,1.11.51,2.2,2.2,0,0,1,.69.66,3.4,3.4,0,0,1,.28.4.43.43,0,0,1,0,.37.83.83,0,0,1-.21.28,1.56,1.56,0,0,1-.27.2.58.58,0,0,1-.68.08,3.6,3.6,0,0,0-.47-.39,4.93,4.93,0,0,0-.54-.34,2.6,2.6,0,0,0-.58-.23,2,2,0,0,0-.61-.09,3.21,3.21,0,0,0-1.58.37,2.61,2.61,0,0,0-1.06,1.05,3.27,3.27,0,0,0-.37,1.56,3.21,3.21,0,0,0,.37,1.56,2.79,2.79,0,0,0,1.05,1,3.12,3.12,0,0,0,1.55.38,2.87,2.87,0,0,0,.77-.11,3.44,3.44,0,0,0,.69-.28,2.28,2.28,0,0,0,.53-.39l.33-.23a.53.53,0,0,1,.32-.1.57.57,0,0,1,.32.13,1.41,1.41,0,0,1,.36.37.69.69,0,0,1,.18.36.56.56,0,0,1-.06.36,1.37,1.37,0,0,1-.31.34,3.38,3.38,0,0,1-.81.58,5.31,5.31,0,0,1-1.09.45A4.29,4.29,0,0,1,342,64.29Z"/><path class="cls-1" d="M351.94,64.35a5.17,5.17,0,0,1-2-.38,4.42,4.42,0,0,1-1.51-1,4.32,4.32,0,0,1-.94-1.51,5.05,5.05,0,0,1-.33-1.84,4.53,4.53,0,0,1,.61-2.34,4.43,4.43,0,0,1,1.68-1.62,5,5,0,0,1,2.46-.6,4.73,4.73,0,0,1,1.7.29,4.18,4.18,0,0,1,1.29.79,3.68,3.68,0,0,1,.81,1.1,2.87,2.87,0,0,1,.29,1.22,1.7,1.7,0,0,1-.46,1.36,1.66,1.66,0,0,1-1.12.39H348.9a2.2,2.2,0,0,0,.45,1.43,3,3,0,0,0,1.17.92,3.43,3.43,0,0,0,1.44.33,5.93,5.93,0,0,0,.91-.06,4.81,4.81,0,0,0,.67-.15l.49-.19.37-.19a1.19,1.19,0,0,1,.31-.14.65.65,0,0,1,.34,0,.53.53,0,0,1,.25.26,1,1,0,0,1,.16.28,1.36,1.36,0,0,1,0,.29c0,.18-.15.37-.45.59a4.34,4.34,0,0,1-1.27.55A6.83,6.83,0,0,1,351.94,64.35Zm-3-5.3h4.77a1.23,1.23,0,0,0,.54-.1q.18-.09.18-.51a1.56,1.56,0,0,0-.32-1,2.34,2.34,0,0,0-.89-.7,3,3,0,0,0-1.28-.26,3.53,3.53,0,0,0-1.53.33,2.77,2.77,0,0,0-1.09.9A2.1,2.1,0,0,0,348.9,59.05Z"/><path class="cls-1" d="M358.31,65.77a.34.34,0,0,1-.18-.12.71.71,0,0,1-.05-.3.6.6,0,0,1,.08-.38.23.23,0,0,1,.13-.07s.07-.08.21-.18a.81.81,0,0,0,.24-.58.88.88,0,0,1-.26-.08.8.8,0,0,1-.21-.15.51.51,0,0,1-.17-.35,3,3,0,0,1,0-.41,2.59,2.59,0,0,1,0-.48.53.53,0,0,1,.24-.37,1.4,1.4,0,0,1,.72-.14,1.12,1.12,0,0,1,.8.23.57.57,0,0,1,.16.34,3.15,3.15,0,0,1,0,.44v.21a.59.59,0,0,1,0,.21,2.83,2.83,0,0,1-.28,1.07,2.45,2.45,0,0,1-.63.81A1.27,1.27,0,0,1,358.31,65.77Z"/><path class="cls-1" d="M37,89.23a.83.83,0,0,1-.6-.17.84.84,0,0,1-.22-.53l.08-1a4,4,0,0,1-.59.69,3.76,3.76,0,0,1-1,.69,4,4,0,0,1-1.58.29,4,4,0,0,1-1.7-.36,4.32,4.32,0,0,1-1.39-1A4.64,4.64,0,0,1,29,86.4a4.83,4.83,0,0,1-.33-1.79A4.66,4.66,0,0,1,29,82.86a4.57,4.57,0,0,1,.94-1.46,4.72,4.72,0,0,1,1.4-1A4,4,0,0,1,33,80.06a4.21,4.21,0,0,1,1.42.21,3.56,3.56,0,0,1,1,.57,5.09,5.09,0,0,1,.75.79l0-.8a.74.74,0,0,1,.18-.59,1,1,0,0,1,.64-.18.89.89,0,0,1,.52.11.53.53,0,0,1,.22.32,1.9,1.9,0,0,1,.06.52v7.33a1.68,1.68,0,0,1-.06.47.51.51,0,0,1-.23.32A1,1,0,0,1,37,89.23Zm-3.67-1.58a2.62,2.62,0,0,0,1.4-.39,3,3,0,0,0,1-1.08,3.23,3.23,0,0,0,.37-1.55,3.06,3.06,0,0,0-.39-1.56,2.94,2.94,0,0,0-1-1.07,2.61,2.61,0,0,0-1.39-.39,2.87,2.87,0,0,0-1.55.41,2.94,2.94,0,0,0-1,1.09,3.22,3.22,0,0,0-.38,1.56,3.1,3.1,0,0,0,.38,1.53,2.79,2.79,0,0,0,1.06,1.07A3.06,3.06,0,0,0,33.29,87.65Z"/><path class="cls-1" d="M41,93a1.17,1.17,0,0,1-.55-.1.52.52,0,0,1-.24-.29,1.27,1.27,0,0,1-.07-.46V80.91a1.56,1.56,0,0,1,.06-.46.52.52,0,0,1,.24-.29,1.1,1.1,0,0,1,.54-.1,1.15,1.15,0,0,1,.62.13.61.61,0,0,1,.23.47V92.12a1.18,1.18,0,0,1,0,.47.46.46,0,0,1-.23.3A1.17,1.17,0,0,1,41,93ZM45,89.18a4,4,0,0,1-1.69-.35,3.42,3.42,0,0,1-1.29-1,4.4,4.4,0,0,1-.83-1.45,5.19,5.19,0,0,1-.28-1.84,5.66,5.66,0,0,1,.29-1.83A4.16,4.16,0,0,1,42,81.3a3.67,3.67,0,0,1,1.29-1A4.13,4.13,0,0,1,45,80a4,4,0,0,1,1.64.34,4.27,4.27,0,0,1,1.35,1,4.4,4.4,0,0,1,.91,1.47,5.1,5.1,0,0,1,.34,1.84,5,5,0,0,1-.34,1.83A4.26,4.26,0,0,1,48,87.9a4.06,4.06,0,0,1-1.35.94A4.11,4.11,0,0,1,45,89.18Zm-.25-1.56a2.71,2.71,0,0,0,2.46-1.47,3.14,3.14,0,0,0,.37-1.55A3.1,3.1,0,0,0,47.19,83a2.78,2.78,0,0,0-1-1,2.93,2.93,0,0,0-1.46-.37,2.73,2.73,0,0,0-2.44,1.43,3.05,3.05,0,0,0-.37,1.54,3.14,3.14,0,0,0,.37,1.55,2.77,2.77,0,0,0,1,1.08A2.67,2.67,0,0,0,44.73,87.62Z"/><path class="cls-1" d="M55.67,89.36A4.45,4.45,0,0,1,53.9,89a4.94,4.94,0,0,1-1.51-1,4.74,4.74,0,0,1-1-1.49,4.81,4.81,0,0,1,0-3.7,4.73,4.73,0,0,1,1-1.49,4.94,4.94,0,0,1,1.49-1,4.74,4.74,0,0,1,4.18.25,4.51,4.51,0,0,1,1.68,1.68,4.61,4.61,0,0,1,.63,2.39,4.72,4.72,0,0,1-.38,1.91,4.37,4.37,0,0,1-1,1.49,4.61,4.61,0,0,1-1.48,1A4.34,4.34,0,0,1,55.67,89.36Zm0-1.65a2.86,2.86,0,0,0,1.48-.4,3.07,3.07,0,0,0,1.52-2.7A3.1,3.1,0,0,0,58.25,83,2.82,2.82,0,0,0,57.18,82a3.22,3.22,0,0,0-1.56-.38,3,3,0,0,0-1.51.4A3.16,3.16,0,0,0,53,83.08a3,3,0,0,0-.4,1.55A3.13,3.13,0,0,0,53,86.24a3.06,3.06,0,0,0,2.61,1.47Z"/><path class="cls-1" d="M66.35,88,62,81.33a.69.69,0,0,1,.25-1.14.87.87,0,0,1,.67-.2,1,1,0,0,1,.53.45l3.68,5.79Zm-1.88,4.91c-.3-.13-.48-.28-.53-.44a1,1,0,0,1,.13-.68l5-11.31a1.1,1.1,0,0,1,.44-.54.88.88,0,0,1,.68.09c.3.14.48.29.52.45a1,1,0,0,1-.12.67L65.56,92.54q-.19.43-.42.51A1.05,1.05,0,0,1,64.47,92.94Z"/><path class="cls-1" d="M80.55,89.23a.83.83,0,0,1-.6-.17.79.79,0,0,1-.22-.53l.08-1a4.55,4.55,0,0,1-.59.69,3.83,3.83,0,0,1-1,.69,3.91,3.91,0,0,1-1.58.29,4.08,4.08,0,0,1-1.7-.36,4.39,4.39,0,0,1-1.38-1,4.81,4.81,0,0,1-1.27-3.27,4.47,4.47,0,0,1,.34-1.75,4.41,4.41,0,0,1,.94-1.46,4.67,4.67,0,0,1,1.39-1,4,4,0,0,1,1.68-.36,4.27,4.27,0,0,1,1.43.21,3.86,3.86,0,0,1,1,.57,5.09,5.09,0,0,1,.75.79l0-.8a.74.74,0,0,1,.18-.59.92.92,0,0,1,.64-.18.89.89,0,0,1,.52.11.58.58,0,0,1,.22.32,2.47,2.47,0,0,1,0,.52v7.33a2.19,2.19,0,0,1,0,.47.55.55,0,0,1-.23.32A1.06,1.06,0,0,1,80.55,89.23Zm-3.67-1.58a2.64,2.64,0,0,0,1.4-.39,2.89,2.89,0,0,0,1-1.08,3.12,3.12,0,0,0,.37-1.55,3.06,3.06,0,0,0-.39-1.56,3,3,0,0,0-1-1.07,2.64,2.64,0,0,0-1.4-.39,2.91,2.91,0,0,0-1.55.41,3,3,0,0,0-1,1.09,3.11,3.11,0,0,0-.38,1.56,3,3,0,0,0,.38,1.53,2.77,2.77,0,0,0,1,1.07A3.07,3.07,0,0,0,76.88,87.65Z"/><path class="cls-1" d="M87.88,89.25a3.94,3.94,0,0,1-1.63-.34,4,4,0,0,1-1.36-1A4.61,4.61,0,0,1,84,86.47a4.89,4.89,0,0,1-.34-1.86A4.75,4.75,0,0,1,84,82.79a4.41,4.41,0,0,1,.91-1.45,4.1,4.1,0,0,1,1.36-1,4.2,4.2,0,0,1,3.31,0,3.82,3.82,0,0,1,1.29,1,4.28,4.28,0,0,1,.83,1.46A5.71,5.71,0,0,1,92,84.63a5,5,0,0,1-.27,1.85,4.66,4.66,0,0,1-.83,1.46,3.6,3.6,0,0,1-1.28,1A4,4,0,0,1,87.88,89.25Zm.25-1.61a2.75,2.75,0,0,0,1.43-.38,2.78,2.78,0,0,0,1-1.06,3.12,3.12,0,0,0,.37-1.55,3.16,3.16,0,0,0-.37-1.56,2.71,2.71,0,0,0-1-1.06,2.75,2.75,0,0,0-1.43-.38,2.83,2.83,0,0,0-1.45.38,2.65,2.65,0,0,0-1,1.06,3.16,3.16,0,0,0-.37,1.56,3.12,3.12,0,0,0,.37,1.55,2.74,2.74,0,0,0,1,1.06A2.87,2.87,0,0,0,88.13,87.64Zm3.72,1.61a1,1,0,0,1-.61-.15.76.76,0,0,1-.23-.51V76.69a2,2,0,0,1,0-.47.46.46,0,0,1,.23-.3,1.51,1.51,0,0,1,1.08,0,.51.51,0,0,1,.24.3,1.49,1.49,0,0,1,.06.45V88.38a1.6,1.6,0,0,1-.06.46.49.49,0,0,1-.23.31A1,1,0,0,1,91.85,89.25Z"/><path class="cls-1" d="M99.49,89.36A4.53,4.53,0,0,1,97.71,89a5.06,5.06,0,0,1-1.51-1,4.71,4.71,0,0,1-1-1.49,4.47,4.47,0,0,1-.38-1.87,4.6,4.6,0,0,1,.36-1.83,4.71,4.71,0,0,1,1-1.49,4.86,4.86,0,0,1,1.5-1,4.54,4.54,0,0,1,1.81-.37,4.61,4.61,0,0,1,4,2.3,4.61,4.61,0,0,1,.62,2.39,4.56,4.56,0,0,1-.38,1.91,4.49,4.49,0,0,1-1,1.49,4.72,4.72,0,0,1-1.48,1A4.38,4.38,0,0,1,99.49,89.36Zm0-1.65a2.84,2.84,0,0,0,1.48-.4,2.9,2.9,0,0,0,1.1-1.1,3.06,3.06,0,0,0,.42-1.6,3.1,3.1,0,0,0-.39-1.57A2.75,2.75,0,0,0,101,82a3.22,3.22,0,0,0-1.56-.38,3,3,0,0,0-1.51.4,3,3,0,0,0-1.08,1.09,3,3,0,0,0-.41,1.55A3,3,0,0,0,98,87.32,3,3,0,0,0,99.45,87.71Z"/><path class="cls-1" d="M114.42,89.35a5.39,5.39,0,0,1-1-.1,5.26,5.26,0,0,1-1-.27,3.86,3.86,0,0,1-.81-.43,1.83,1.83,0,0,1-.53-.55,1.16,1.16,0,0,1-.11-.35.59.59,0,0,1,.06-.32,1.15,1.15,0,0,1,.22-.3.5.5,0,0,1,.38-.22.88.88,0,0,1,.48.26l.49.29a5,5,0,0,0,1.21.5,2.7,2.7,0,0,0,.62.08,2.61,2.61,0,0,0,1.4-.33,1,1,0,0,0,.54-.89,1.07,1.07,0,0,0-.14-.55,1.33,1.33,0,0,0-.36-.39,2.46,2.46,0,0,0-.51-.27,5.93,5.93,0,0,0-.64-.22l-.69-.2c-.34-.09-.68-.19-1-.3a3.91,3.91,0,0,1-.89-.45,2.18,2.18,0,0,1-.65-.7,2.24,2.24,0,0,1-.24-1.1,2.3,2.3,0,0,1,.39-1.34,2.6,2.6,0,0,1,1.13-.89,4.18,4.18,0,0,1,1.69-.31,4.84,4.84,0,0,1,.78.06,2.7,2.7,0,0,1,.69.18,5.17,5.17,0,0,1,.64.28,4.21,4.21,0,0,1,.58.39.72.72,0,0,1,.37.49,1.08,1.08,0,0,1-.59.87.43.43,0,0,1-.42-.11,3.86,3.86,0,0,0-.65-.39,4.7,4.7,0,0,0-.7-.29,2.33,2.33,0,0,0-.74-.11,2.26,2.26,0,0,0-.85.14,1.22,1.22,0,0,0-.57.42,1,1,0,0,0-.2.61.74.74,0,0,0,.17.5,1.36,1.36,0,0,0,.41.32,3.53,3.53,0,0,0,.61.24l.73.2c.37.09.75.19,1.13.31a4.21,4.21,0,0,1,1,.48,2.27,2.27,0,0,1,.76.78,2.5,2.5,0,0,1,.29,1.28,2.31,2.31,0,0,1-1,2A4.26,4.26,0,0,1,114.42,89.35Z"/><path class="cls-1" d="M124.53,89.36a4.53,4.53,0,0,1-1.78-.36,5.19,5.19,0,0,1-1.51-1,4.71,4.71,0,0,1-1-1.49,4.81,4.81,0,0,1,0-3.7,4.73,4.73,0,0,1,1-1.49,4.82,4.82,0,0,1,1.49-1,4.74,4.74,0,0,1,4.18.25,4.66,4.66,0,0,1,1.68,1.68,4.61,4.61,0,0,1,.63,2.39,4.72,4.72,0,0,1-.38,1.91,4.67,4.67,0,0,1-1,1.49,4.61,4.61,0,0,1-1.48,1A4.38,4.38,0,0,1,124.53,89.36Zm0-1.65a2.81,2.81,0,0,0,1.48-.4,3,3,0,0,0,1.11-1.1,3.05,3.05,0,0,0,.41-1.6,3.2,3.2,0,0,0-.38-1.57A2.78,2.78,0,0,0,126,82a3.16,3.16,0,0,0-1.56-.38A3,3,0,0,0,123,82a3,3,0,0,0-1.08,1.09,3,3,0,0,0-.41,1.55A3,3,0,0,0,123,87.32,3,3,0,0,0,124.49,87.71Z"/><path class="cls-1" d="M132,89.27a1.15,1.15,0,0,1-.55-.1.52.52,0,0,1-.23-.31,1.53,1.53,0,0,1-.06-.45V76.69a1.53,1.53,0,0,1,.06-.47.5.5,0,0,1,.23-.3,1.15,1.15,0,0,1,.55-.1,1,1,0,0,1,.53.11.59.59,0,0,1,.23.31,1.93,1.93,0,0,1,0,.45v11.9a.72.72,0,0,1-.22.52A.87.87,0,0,1,132,89.27Zm4,0a4,4,0,0,1-1.69-.34,3.55,3.55,0,0,1-1.29-1,4.66,4.66,0,0,1-.83-1.46,5.21,5.21,0,0,1-.28-1.85,5.71,5.71,0,0,1,.29-1.83,4.26,4.26,0,0,1,.82-1.46,4.08,4.08,0,0,1,4.62-1,4.27,4.27,0,0,1,1.35,1,4.41,4.41,0,0,1,.91,1.45,5,5,0,0,1,.34,1.82,5.09,5.09,0,0,1-.34,1.86,4.61,4.61,0,0,1-.91,1.47,4.15,4.15,0,0,1-1.35,1A4,4,0,0,1,136,89.25Zm-.25-1.61a2.88,2.88,0,0,0,1.45-.38,2.78,2.78,0,0,0,1-1.06,3.12,3.12,0,0,0,.37-1.55,3.16,3.16,0,0,0-.37-1.56,2.71,2.71,0,0,0-1-1.06,2.92,2.92,0,0,0-2.88,0,2.71,2.71,0,0,0-1,1.06,3.16,3.16,0,0,0-.37,1.56,3.12,3.12,0,0,0,.37,1.55,2.78,2.78,0,0,0,1,1.06A2.75,2.75,0,0,0,135.74,87.64Z"/><path class="cls-1" d="M143.47,89.25a1.1,1.1,0,0,1-.54-.1.49.49,0,0,1-.23-.31,2.13,2.13,0,0,1,0-.46V80.89a2,2,0,0,1,.05-.47.46.46,0,0,1,.23-.28,1.3,1.3,0,0,1,.55-.08,1.28,1.28,0,0,1,.53.08.45.45,0,0,1,.24.25.87.87,0,0,1,.07.37l-.08.57a4.65,4.65,0,0,1,.32-.5,2.09,2.09,0,0,1,.45-.44,2.21,2.21,0,0,1,.67-.33,3,3,0,0,1,1-.14,3.1,3.1,0,0,1,.54,0,2.75,2.75,0,0,1,.49.14,2.22,2.22,0,0,1,.41.22,1.2,1.2,0,0,1,.28.27.52.52,0,0,1,.1.33,1,1,0,0,1-.27.71.74.74,0,0,1-.55.3.82.82,0,0,1-.36-.07l-.22-.14a1.28,1.28,0,0,0-.29-.15,2.24,2.24,0,0,0-.61-.06,1.91,1.91,0,0,0-.6.11,2.52,2.52,0,0,0-.6.33,1.73,1.73,0,0,0-.46.57,1.65,1.65,0,0,0-.18.79v5.09a1.56,1.56,0,0,1-.06.46.49.49,0,0,1-.24.29A1.29,1.29,0,0,1,143.47,89.25Z"/><path class="cls-1" d="M155,89.35a5.17,5.17,0,0,1-2-.38,4.56,4.56,0,0,1-1.52-1,4.63,4.63,0,0,1-.94-1.51,5.27,5.27,0,0,1-.32-1.84,4.44,4.44,0,0,1,.61-2.34,4.36,4.36,0,0,1,1.68-1.62,5,5,0,0,1,2.46-.6,4.73,4.73,0,0,1,1.7.29,4,4,0,0,1,1.28.79,3.55,3.55,0,0,1,.82,1.1,2.87,2.87,0,0,1,.29,1.22,1.74,1.74,0,0,1-.46,1.36,1.66,1.66,0,0,1-1.12.39h-5.49a2.15,2.15,0,0,0,.45,1.43,3,3,0,0,0,1.17.92,3.43,3.43,0,0,0,1.44.33,5.93,5.93,0,0,0,.91-.06,4.64,4.64,0,0,0,.66-.15l.5-.19.37-.19a1.19,1.19,0,0,1,.31-.14.65.65,0,0,1,.34,0,.53.53,0,0,1,.25.26.77.77,0,0,1,.15.28.92.92,0,0,1,0,.29c0,.18-.15.37-.45.59a4.34,4.34,0,0,1-1.27.55A6.83,6.83,0,0,1,155,89.35Zm-3-5.3h4.77a1.23,1.23,0,0,0,.54-.1q.18-.09.18-.51a1.56,1.56,0,0,0-.32-1,2.34,2.34,0,0,0-.89-.7,3,3,0,0,0-1.28-.26,3.5,3.5,0,0,0-1.53.33,2.7,2.7,0,0,0-1.09.9A2.1,2.1,0,0,0,151.93,84.05Z"/><path class="cls-1" d="M170.62,89.35a5.21,5.21,0,0,1-2-.38,4.52,4.52,0,0,1-1.51-1,4.63,4.63,0,0,1-.94-1.51,5.27,5.27,0,0,1-.32-1.84,4.44,4.44,0,0,1,.61-2.34,4.29,4.29,0,0,1,1.68-1.62,4.93,4.93,0,0,1,2.46-.6,4.77,4.77,0,0,1,1.7.29,4,4,0,0,1,1.28.79,3.55,3.55,0,0,1,.82,1.1,2.85,2.85,0,0,1,.28,1.22,1.74,1.74,0,0,1-.45,1.36,1.68,1.68,0,0,1-1.12.39h-5.5A2.2,2.2,0,0,0,168,86.6a3,3,0,0,0,1.18.92,3.35,3.35,0,0,0,1.43.33,6.07,6.07,0,0,0,.92-.06,4.64,4.64,0,0,0,.66-.15l.49-.19.38-.19a1.06,1.06,0,0,1,.31-.14.62.62,0,0,1,.33,0,.55.55,0,0,1,.26.26,1.3,1.3,0,0,1,.15.28.92.92,0,0,1,0,.29c0,.18-.15.37-.46.59a4.15,4.15,0,0,1-1.26.55A6.86,6.86,0,0,1,170.62,89.35Zm-3-5.3h4.77a1.28,1.28,0,0,0,.55-.1q.18-.09.18-.51a1.51,1.51,0,0,0-.33-1,2.3,2.3,0,0,0-.88-.7,3,3,0,0,0-1.28-.26,3.5,3.5,0,0,0-1.53.33,2.73,2.73,0,0,0-1.1.9A2.16,2.16,0,0,0,167.58,84.05Z"/><path class="cls-1" d="M179.73,89.25a5.29,5.29,0,0,1-1.1-.1,2.43,2.43,0,0,1-.84-.34,2,2,0,0,1-.6-.58,2.49,2.49,0,0,1-.34-.88,6,6,0,0,1-.11-1.2v-9.5a2,2,0,0,1,0-.47.45.45,0,0,1,.24-.3,1.22,1.22,0,0,1,.53-.1,1.17,1.17,0,0,1,.56.1.45.45,0,0,1,.24.28,1.58,1.58,0,0,1,0,.46v9.52a2.46,2.46,0,0,0,.08.65,1.23,1.23,0,0,0,.24.47.88.88,0,0,0,.41.26,2,2,0,0,0,.59.08,1.35,1.35,0,0,1,.38.05.49.49,0,0,1,.26.23,1.18,1.18,0,0,1,.1.53,1.32,1.32,0,0,1-.1.57.4.4,0,0,1-.26.22A1.06,1.06,0,0,1,179.73,89.25Z"/><path class="cls-1" d="M191.54,89.25a4,4,0,0,1-1.63-.34,4.08,4.08,0,0,1-1.36-1,4.61,4.61,0,0,1-.91-1.47,5.08,5.08,0,0,1-.33-1.86,5,5,0,0,1,.33-1.82,4.41,4.41,0,0,1,.91-1.45,4.2,4.2,0,0,1,1.36-1,4,4,0,0,1,1.63-.34,4.05,4.05,0,0,1,1.69.34,3.82,3.82,0,0,1,1.29,1,4.26,4.26,0,0,1,.82,1.46,5.71,5.71,0,0,1,.29,1.83,5.21,5.21,0,0,1-.28,1.85,4.64,4.64,0,0,1-.82,1.46,3.72,3.72,0,0,1-1.29,1A4,4,0,0,1,191.54,89.25Zm.25-1.61a2.68,2.68,0,0,0,2.44-1.44,3.12,3.12,0,0,0,.37-1.55,3.16,3.16,0,0,0-.37-1.56,2.76,2.76,0,0,0-1-1.06,2.92,2.92,0,0,0-2.88,0,2.74,2.74,0,0,0-1,1.06,3.16,3.16,0,0,0-.37,1.56,3.12,3.12,0,0,0,.37,1.55,2.76,2.76,0,0,0,1,1.06A2.81,2.81,0,0,0,191.79,87.64Zm3.72,1.61a1,1,0,0,1-.6-.15.68.68,0,0,1-.23-.51V76.69a1.57,1.57,0,0,1,0-.47.45.45,0,0,1,.22-.3,1.15,1.15,0,0,1,.55-.1,1.1,1.1,0,0,1,.54.1.46.46,0,0,1,.23.3,1.49,1.49,0,0,1,.06.45V88.38a1.6,1.6,0,0,1-.06.46.48.48,0,0,1-.22.31A1.08,1.08,0,0,1,195.51,89.25Z"/><path class="cls-1" d="M203.32,89.35a5.21,5.21,0,0,1-2-.38,4.43,4.43,0,0,1-2.45-2.55,5,5,0,0,1-.32-1.84,4.53,4.53,0,0,1,.6-2.34,4.39,4.39,0,0,1,1.69-1.62,4.93,4.93,0,0,1,2.46-.6,4.77,4.77,0,0,1,1.7.29,4.13,4.13,0,0,1,1.28.79,3.72,3.72,0,0,1,.82,1.1,2.85,2.85,0,0,1,.28,1.22,1.74,1.74,0,0,1-.45,1.36,1.69,1.69,0,0,1-1.13.39h-5.49a2.2,2.2,0,0,0,.45,1.43,3,3,0,0,0,1.18.92,3.35,3.35,0,0,0,1.43.33,5.84,5.84,0,0,0,.91-.06,4.5,4.5,0,0,0,.67-.15l.49-.19.37-.19a1.25,1.25,0,0,1,.32-.14.62.62,0,0,1,.33,0,.55.55,0,0,1,.26.26,1.3,1.3,0,0,1,.15.28,1.35,1.35,0,0,1,0,.29c0,.18-.16.37-.46.59a4.27,4.27,0,0,1-1.26.55A6.86,6.86,0,0,1,203.32,89.35Zm-3-5.3h4.77a1.23,1.23,0,0,0,.54-.1q.18-.09.18-.51a1.5,1.5,0,0,0-.32-1,2.3,2.3,0,0,0-.88-.7,3.08,3.08,0,0,0-1.28-.26,3.5,3.5,0,0,0-1.53.33,2.73,2.73,0,0,0-1.1.9A2.16,2.16,0,0,0,200.28,84.05Z"/><path class="cls-1" d="M213.51,89.25a4,4,0,0,1-1.64-.34,4.08,4.08,0,0,1-1.36-1,4.79,4.79,0,0,1-.91-1.47,5.08,5.08,0,0,1-.33-1.86,5,5,0,0,1,.33-1.82,4.58,4.58,0,0,1,.91-1.45,4.2,4.2,0,0,1,1.36-1,4,4,0,0,1,1.64-.34,4,4,0,0,1,1.68.34,3.82,3.82,0,0,1,1.29,1,4.28,4.28,0,0,1,.83,1.46,5.71,5.71,0,0,1,.28,1.83,5.45,5.45,0,0,1-.27,1.85,4.87,4.87,0,0,1-.83,1.46,3.6,3.6,0,0,1-1.28,1A4,4,0,0,1,213.51,89.25Zm.24-1.61a2.79,2.79,0,0,0,1.44-.38,2.86,2.86,0,0,0,1-1.06,3.23,3.23,0,0,0,.37-1.55,3.27,3.27,0,0,0-.37-1.56,2.71,2.71,0,0,0-2.45-1.44,2.82,2.82,0,0,0-1.44.38,2.74,2.74,0,0,0-1,1.06,3.27,3.27,0,0,0-.37,1.56,3.23,3.23,0,0,0,.37,1.55,2.76,2.76,0,0,0,1,1.06A2.83,2.83,0,0,0,213.75,87.64Zm3.73,1.61a1,1,0,0,1-.61-.15.72.72,0,0,1-.23-.51V76.69a2,2,0,0,1,.05-.47.46.46,0,0,1,.23-.3,1.51,1.51,0,0,1,1.08,0,.51.51,0,0,1,.24.3,1.49,1.49,0,0,1,.06.45V88.38a1.6,1.6,0,0,1-.06.46.53.53,0,0,1-.23.31A1,1,0,0,1,217.48,89.25Z"/><path class="cls-1" d="M225.12,89.36a4.49,4.49,0,0,1-1.78-.36,5.06,5.06,0,0,1-1.51-1,4.9,4.9,0,0,1-1.05-1.49,4.81,4.81,0,0,1,0-3.7,4.84,4.84,0,0,1,2.5-2.51,4.67,4.67,0,0,1,5.87,1.93,4.7,4.7,0,0,1,.62,2.39,4.56,4.56,0,0,1-.38,1.91,4.49,4.49,0,0,1-1,1.49,4.65,4.65,0,0,1-1.49,1A4.33,4.33,0,0,1,225.12,89.36Zm0-1.65a2.86,2.86,0,0,0,1.48-.4,3,3,0,0,0,1.1-1.1,3.06,3.06,0,0,0,.42-1.6,3.1,3.1,0,0,0-.39-1.57A2.82,2.82,0,0,0,226.62,82a3.22,3.22,0,0,0-1.56-.38,3,3,0,0,0-1.51.4,3,3,0,0,0-1.08,1.09,2.87,2.87,0,0,0-.41,1.55,3.13,3.13,0,0,0,.41,1.61,3.06,3.06,0,0,0,2.61,1.47Z"/><path class="cls-1" d="M237.81,89.25a1,1,0,0,1-.53-.11.55.55,0,0,1-.23-.31,1.49,1.49,0,0,1-.06-.45V80.85a1.31,1.31,0,0,1,.06-.43.46.46,0,0,1,.24-.27,1.25,1.25,0,0,1,.54-.09.9.9,0,0,1,.6.16.71.71,0,0,1,.18.56l-.08.81a2.2,2.2,0,0,1,.4-.57,3,3,0,0,1,.64-.51,3.68,3.68,0,0,1,.78-.36,2.8,2.8,0,0,1,.86-.13,3,3,0,0,1,1.19.23,3.22,3.22,0,0,1,.94.68A3.66,3.66,0,0,1,244,82a5.77,5.77,0,0,1,.81-1.07,2.91,2.91,0,0,1,1-.69,3.21,3.21,0,0,1,1.23-.23,3,3,0,0,1,1.82.54,3.35,3.35,0,0,1,1.1,1.52,6.78,6.78,0,0,1,.37,2.35v4a1.93,1.93,0,0,1,0,.45.46.46,0,0,1-.23.3,1.14,1.14,0,0,1-.56.1,1.09,1.09,0,0,1-.54-.11.56.56,0,0,1-.24-.31,1.51,1.51,0,0,1,0-.45v-4a5,5,0,0,0-.2-1.48,2.12,2.12,0,0,0-.61-1,1.64,1.64,0,0,0-1.06-.34,2.21,2.21,0,0,0-1.2.33,2.25,2.25,0,0,0-.81,1,3.6,3.6,0,0,0-.28,1.49v4a1,1,0,0,1-.12.5.61.61,0,0,1-.34.29,1,1,0,0,1-.55,0,.89.89,0,0,1-.46-.15.51.51,0,0,1-.19-.29,2.48,2.48,0,0,1,0-.41v-4a4.69,4.69,0,0,0-.2-1.48,2,2,0,0,0-.6-1,1.66,1.66,0,0,0-1.06-.34,2.12,2.12,0,0,0-1.2.35,2.31,2.31,0,0,0-.81,1,3.47,3.47,0,0,0-.29,1.45v4a1.93,1.93,0,0,1,0,.45.51.51,0,0,1-.24.3A1.17,1.17,0,0,1,237.81,89.25Z"/><path class="cls-1" d="M257.3,89.35a5.17,5.17,0,0,1-2-.38,4.43,4.43,0,0,1-2.45-2.55,5,5,0,0,1-.32-1.84,4.53,4.53,0,0,1,.6-2.34,4.43,4.43,0,0,1,1.68-1.62,5,5,0,0,1,2.47-.6,4.81,4.81,0,0,1,1.7.29,4.13,4.13,0,0,1,1.28.79,3.72,3.72,0,0,1,.82,1.1,3,3,0,0,1,.28,1.22,1.7,1.7,0,0,1-.46,1.36,1.64,1.64,0,0,1-1.12.39h-5.49a2.2,2.2,0,0,0,.45,1.43,3,3,0,0,0,1.18.92,3.35,3.35,0,0,0,1.43.33,5.84,5.84,0,0,0,.91-.06,4.5,4.5,0,0,0,.67-.15l.49-.19.37-.19a1.12,1.12,0,0,1,.32-.14.62.62,0,0,1,.33,0,.55.55,0,0,1,.26.26,1.3,1.3,0,0,1,.15.28,1.35,1.35,0,0,1,0,.29c0,.18-.16.37-.46.59a4.39,4.39,0,0,1-1.26.55A6.86,6.86,0,0,1,257.3,89.35Zm-3-5.3H259a1.23,1.23,0,0,0,.54-.1q.18-.09.18-.51a1.5,1.5,0,0,0-.32-1,2.38,2.38,0,0,0-.88-.7,3.09,3.09,0,0,0-1.29-.26,3.56,3.56,0,0,0-1.53.33,2.77,2.77,0,0,0-1.09.9A2.16,2.16,0,0,0,254.26,84.05Z"/><path class="cls-1" d="M267.49,89.25a4,4,0,0,1-1.64-.34,4.08,4.08,0,0,1-1.36-1,4.79,4.79,0,0,1-.91-1.47,5.08,5.08,0,0,1-.33-1.86,5,5,0,0,1,.33-1.82,4.58,4.58,0,0,1,.91-1.45,4.2,4.2,0,0,1,1.36-1,4,4,0,0,1,1.64-.34,4,4,0,0,1,1.68.34,3.82,3.82,0,0,1,1.29,1,4.28,4.28,0,0,1,.83,1.46,5.71,5.71,0,0,1,.28,1.83,5.45,5.45,0,0,1-.27,1.85,4.87,4.87,0,0,1-.83,1.46,3.69,3.69,0,0,1-1.28,1A4,4,0,0,1,267.49,89.25Zm.24-1.61a2.82,2.82,0,0,0,1.44-.38,2.76,2.76,0,0,0,1-1.06,3.12,3.12,0,0,0,.37-1.55,3.16,3.16,0,0,0-.37-1.56,2.69,2.69,0,0,0-1-1.06,2.92,2.92,0,0,0-2.88,0,2.74,2.74,0,0,0-1,1.06,3.27,3.27,0,0,0-.37,1.56,3.23,3.23,0,0,0,.37,1.55,2.76,2.76,0,0,0,1,1.06A2.81,2.81,0,0,0,267.73,87.64Zm3.73,1.61a1,1,0,0,1-.61-.15.72.72,0,0,1-.23-.51V76.69a2,2,0,0,1,.05-.47.46.46,0,0,1,.23-.3,1.51,1.51,0,0,1,1.08,0,.51.51,0,0,1,.24.3,1.93,1.93,0,0,1,0,.45V88.38a2.09,2.09,0,0,1,0,.46.53.53,0,0,1-.23.31A1.06,1.06,0,0,1,271.46,89.25Z"/><path class="cls-1" d="M275.86,77.78a1.27,1.27,0,0,1-.62-.13.61.61,0,0,1-.28-.35,2.09,2.09,0,0,1-.06-.53,1.6,1.6,0,0,1,.07-.52.56.56,0,0,1,.29-.33,1.42,1.42,0,0,1,.62-.1,1.38,1.38,0,0,1,.61.11.59.59,0,0,1,.28.34,2.17,2.17,0,0,1,.06.54,2,2,0,0,1-.06.52.57.57,0,0,1-.28.33A1.3,1.3,0,0,1,275.86,77.78Zm0,11.47a1.1,1.1,0,0,1-.54-.1.46.46,0,0,1-.23-.3,1.49,1.49,0,0,1-.06-.45V80.89a1.44,1.44,0,0,1,.06-.45.42.42,0,0,1,.23-.29,1.33,1.33,0,0,1,.56-.09,1.1,1.1,0,0,1,.54.1.49.49,0,0,1,.22.29,1.65,1.65,0,0,1,.06.48v7.48a1.56,1.56,0,0,1-.06.46.44.44,0,0,1-.23.29A1.27,1.27,0,0,1,275.86,89.25Z"/><path class="cls-1" d="M283.64,89.36a4.46,4.46,0,0,1-1.78-.36,5.06,5.06,0,0,1-1.51-1,4.74,4.74,0,0,1-1.05-1.49,4.81,4.81,0,0,1,0-3.7,4.84,4.84,0,0,1,2.5-2.51,4.74,4.74,0,0,1,4.18.25,4.51,4.51,0,0,1,1.68,1.68,4.61,4.61,0,0,1,.63,2.39,4.72,4.72,0,0,1-.38,1.91,4.49,4.49,0,0,1-1,1.49,4.76,4.76,0,0,1-1.49,1A4.33,4.33,0,0,1,283.64,89.36Zm0-1.65a2.86,2.86,0,0,0,1.48-.4,3,3,0,0,0,1.1-1.1,3.06,3.06,0,0,0,.42-1.6,3.1,3.1,0,0,0-.39-1.57A2.82,2.82,0,0,0,285.14,82a3.22,3.22,0,0,0-1.56-.38,3,3,0,0,0-1.51.4A3.16,3.16,0,0,0,281,83.08a3,3,0,0,0-.4,1.55,3.13,3.13,0,0,0,.41,1.61,3.06,3.06,0,0,0,2.61,1.47Z"/><path class="cls-1" d="M290.55,90.77a.35.35,0,0,1-.17-.12.56.56,0,0,1-.06-.3c0-.2,0-.33.09-.38a.26.26,0,0,1,.12-.07s.07-.08.21-.18a.81.81,0,0,0,.25-.58,1.07,1.07,0,0,1-.27-.08,1.37,1.37,0,0,1-.21-.15.51.51,0,0,1-.17-.35c0-.15,0-.28,0-.41a3.88,3.88,0,0,1,0-.48.58.58,0,0,1,.25-.37,1.4,1.4,0,0,1,.72-.14,1.12,1.12,0,0,1,.8.23.57.57,0,0,1,.16.34,3.15,3.15,0,0,1,0,.44v.21a.59.59,0,0,1,0,.21,3,3,0,0,1-.28,1.07,2.59,2.59,0,0,1-.63.81A1.32,1.32,0,0,1,290.55,90.77Z"/><path class="cls-1" d="M300.89,89.25a1,1,0,0,1-.53-.11.55.55,0,0,1-.23-.31,1.49,1.49,0,0,1-.06-.45V80.85a1.31,1.31,0,0,1,.06-.43.43.43,0,0,1,.24-.27,1.25,1.25,0,0,1,.54-.09.9.9,0,0,1,.6.16.71.71,0,0,1,.18.56l-.08.81A2.2,2.2,0,0,1,302,81a3,3,0,0,1,.64-.51,3.47,3.47,0,0,1,.78-.36,2.8,2.8,0,0,1,.86-.13,3,3,0,0,1,1.19.23,3.22,3.22,0,0,1,.94.68,3.87,3.87,0,0,1,.7,1.08,5.77,5.77,0,0,1,.81-1.07,2.91,2.91,0,0,1,1-.69,3.17,3.17,0,0,1,1.23-.23,3,3,0,0,1,1.82.54,3.35,3.35,0,0,1,1.1,1.52,6.78,6.78,0,0,1,.37,2.35v4a1.93,1.93,0,0,1-.05.45.46.46,0,0,1-.23.3,1.17,1.17,0,0,1-.56.1,1.09,1.09,0,0,1-.54-.11.56.56,0,0,1-.24-.31,1.51,1.51,0,0,1-.05-.45v-4a5,5,0,0,0-.2-1.48,2.12,2.12,0,0,0-.61-1,1.64,1.64,0,0,0-1.06-.34,2.21,2.21,0,0,0-1.2.33,2.25,2.25,0,0,0-.81,1,3.6,3.6,0,0,0-.29,1.49v4a1,1,0,0,1-.11.5.61.61,0,0,1-.34.29,1,1,0,0,1-.55,0,.86.86,0,0,1-.46-.15.51.51,0,0,1-.19-.29,2.48,2.48,0,0,1,0-.41v-4a4.69,4.69,0,0,0-.2-1.48,2,2,0,0,0-.6-1,1.66,1.66,0,0,0-1.06-.34,2.12,2.12,0,0,0-1.2.35,2.31,2.31,0,0,0-.81,1,3.47,3.47,0,0,0-.29,1.45v4a1.93,1.93,0,0,1-.05.45.51.51,0,0,1-.24.3A1.17,1.17,0,0,1,300.89,89.25Z"/><path class="cls-1" d="M323.88,89.23a.83.83,0,0,1-.6-.17.84.84,0,0,1-.22-.53l.08-1a4.55,4.55,0,0,1-.59.69,3.6,3.6,0,0,1-2.62,1,4.1,4.1,0,0,1-1.71-.36,4.39,4.39,0,0,1-1.38-1,4.81,4.81,0,0,1-1.27-3.27,4.47,4.47,0,0,1,.34-1.75,4.41,4.41,0,0,1,.94-1.46,4.67,4.67,0,0,1,1.39-1,4,4,0,0,1,1.69-.36,4.25,4.25,0,0,1,1.42.21,3.86,3.86,0,0,1,1,.57,5.09,5.09,0,0,1,.75.79l0-.8a.74.74,0,0,1,.18-.59.92.92,0,0,1,.64-.18.89.89,0,0,1,.52.11.53.53,0,0,1,.22.32,2,2,0,0,1,.05.52v7.33a1.7,1.7,0,0,1-.05.47.55.55,0,0,1-.23.32A1,1,0,0,1,323.88,89.23Zm-3.67-1.58a2.64,2.64,0,0,0,1.4-.39,2.89,2.89,0,0,0,1-1.08,3.12,3.12,0,0,0,.37-1.55,3.06,3.06,0,0,0-.39-1.56,2.91,2.91,0,0,0-1-1.07,2.64,2.64,0,0,0-1.4-.39,2.91,2.91,0,0,0-1.55.41,3,3,0,0,0-1,1.09,3.11,3.11,0,0,0-.38,1.56,3,3,0,0,0,.38,1.53,2.77,2.77,0,0,0,1.05,1.07A3.07,3.07,0,0,0,320.21,87.65Z"/><path class="cls-1" d="M328.08,89.23a1.15,1.15,0,0,1-.55-.1.45.45,0,0,1-.22-.3,1.93,1.93,0,0,1-.05-.45V80.83a1.22,1.22,0,0,1,.06-.41.41.41,0,0,1,.23-.27,1.25,1.25,0,0,1,.54-.09,1.32,1.32,0,0,1,.45.06.49.49,0,0,1,.23.18,1.06,1.06,0,0,1,.09.25,2.18,2.18,0,0,1,0,.25l0,.87a3,3,0,0,1,.47-.62,3.64,3.64,0,0,1,.67-.53,3.38,3.38,0,0,1,.82-.37,3.32,3.32,0,0,1,1-.13,4.06,4.06,0,0,1,1.54.29,3.35,3.35,0,0,1,1.21.86,4.11,4.11,0,0,1,.78,1.34,5.33,5.33,0,0,1,.27,1.76V88.4a1.51,1.51,0,0,1-.05.45.43.43,0,0,1-.22.29,1.25,1.25,0,0,1-.54.09,1.19,1.19,0,0,1-.57-.1.46.46,0,0,1-.23-.3,1.49,1.49,0,0,1-.06-.45V84.25a3.27,3.27,0,0,0-.27-1.38,2,2,0,0,0-.79-.92,2.46,2.46,0,0,0-1.35-.34,2.62,2.62,0,0,0-1.36.34,2.14,2.14,0,0,0-.89.92,2.87,2.87,0,0,0-.32,1.38V88.4a1.93,1.93,0,0,1-.05.45.49.49,0,0,1-.24.29A1.25,1.25,0,0,1,328.08,89.23Z"/><path class="cls-1" d="M338.18,80.26l1.83,0,2.64,0a2,2,0,0,1,.46.05.47.47,0,0,1,.29.23,1.1,1.1,0,0,1,.1.54,1.25,1.25,0,0,1-.09.54.46.46,0,0,1-.29.24,1.44,1.44,0,0,1-.45.06l-2.6,0-1.92,0a.65.65,0,0,1-.55-.19,1.13,1.13,0,0,1-.14-.63.93.93,0,0,1,.17-.61A.75.75,0,0,1,338.18,80.26Zm4.26,9a5.87,5.87,0,0,1-1.51-.17,2.48,2.48,0,0,1-1-.53,2.13,2.13,0,0,1-.57-.94,5.36,5.36,0,0,1-.17-1.44V77.78a1.56,1.56,0,0,1,.06-.46.45.45,0,0,1,.23-.29.93.93,0,0,1,.53-.11,1.05,1.05,0,0,1,.55.11.46.46,0,0,1,.25.28,1.47,1.47,0,0,1,0,.45v8.41a2.76,2.76,0,0,0,.09.79.91.91,0,0,0,.27.45,1,1,0,0,0,.48.19,7.32,7.32,0,0,0,.74,0,1.79,1.79,0,0,1,.5,0,.49.49,0,0,1,.28.23,1.12,1.12,0,0,1,.1.51,1.13,1.13,0,0,1-.11.55.45.45,0,0,1-.3.22A1.64,1.64,0,0,1,342.44,89.25Z"/><path class="cls-1" d="M349.87,89.35a5.17,5.17,0,0,1-2-.38,4.42,4.42,0,0,1-1.51-1,4.49,4.49,0,0,1-.95-1.51,5.27,5.27,0,0,1-.32-1.84,4.39,4.39,0,0,1,2.29-4,5,5,0,0,1,2.46-.6,4.73,4.73,0,0,1,1.7.29,4.18,4.18,0,0,1,1.29.79,3.68,3.68,0,0,1,.81,1.1,2.87,2.87,0,0,1,.29,1.22,1.74,1.74,0,0,1-.46,1.36,1.66,1.66,0,0,1-1.12.39h-5.49a2.15,2.15,0,0,0,.45,1.43,3,3,0,0,0,1.17.92,3.43,3.43,0,0,0,1.44.33,5.93,5.93,0,0,0,.91-.06,4.35,4.35,0,0,0,.66-.15l.5-.19.37-.19a1.19,1.19,0,0,1,.31-.14.65.65,0,0,1,.34,0,.53.53,0,0,1,.25.26.77.77,0,0,1,.15.28.92.92,0,0,1,0,.29c0,.18-.15.37-.45.59a4.34,4.34,0,0,1-1.27.55A6.83,6.83,0,0,1,349.87,89.35Zm-3-5.3h4.77a1.23,1.23,0,0,0,.54-.1q.18-.09.18-.51a1.56,1.56,0,0,0-.32-1,2.34,2.34,0,0,0-.89-.7,3,3,0,0,0-1.28-.26,3.5,3.5,0,0,0-1.53.33,2.7,2.7,0,0,0-1.09.9A2.1,2.1,0,0,0,346.83,84.05Z"/><path class="cls-1" d="M356.92,89.23a1.1,1.1,0,0,1-.54-.1.46.46,0,0,1-.23-.3,1.93,1.93,0,0,1,0-.45V80.83a1.22,1.22,0,0,1,.06-.41.46.46,0,0,1,.24-.27,1.66,1.66,0,0,1,1,0,.49.49,0,0,1,.23.18.75.75,0,0,1,.09.25,2.29,2.29,0,0,1,0,.25l0,.87a3,3,0,0,1,.47-.62,3.64,3.64,0,0,1,.67-.53,3.38,3.38,0,0,1,.82-.37,3.32,3.32,0,0,1,1-.13,4.06,4.06,0,0,1,1.54.29,3.35,3.35,0,0,1,1.21.86,4.11,4.11,0,0,1,.78,1.34,5.33,5.33,0,0,1,.27,1.76V88.4a2,2,0,0,1,0,.45.48.48,0,0,1-.23.29,1.25,1.25,0,0,1-.54.09,1.14,1.14,0,0,1-.56-.1.51.51,0,0,1-.24-.3,1.49,1.49,0,0,1-.06-.45V84.25a3.43,3.43,0,0,0-.26-1.38,2.06,2.06,0,0,0-.8-.92,2.46,2.46,0,0,0-1.35-.34A2.62,2.62,0,0,0,359,82a2.19,2.19,0,0,0-.89.92,2.87,2.87,0,0,0-.32,1.38V88.4a1.93,1.93,0,0,1-.05.45.49.49,0,0,1-.24.29A1.25,1.25,0,0,1,356.92,89.23Z"/><path class="cls-1" d="M367.88,77.78a1.29,1.29,0,0,1-.63-.13.56.56,0,0,1-.27-.35,1.7,1.7,0,0,1-.07-.53,1.58,1.58,0,0,1,.08-.52.54.54,0,0,1,.28-.33,1.47,1.47,0,0,1,.63-.1,1.38,1.38,0,0,1,.61.11.54.54,0,0,1,.27.34,1.77,1.77,0,0,1,.07.54,1.64,1.64,0,0,1-.07.52.52.52,0,0,1-.27.33A1.3,1.3,0,0,1,367.88,77.78Zm0,11.47a1.1,1.1,0,0,1-.54-.1.51.51,0,0,1-.24-.3,1.51,1.51,0,0,1-.05-.45V80.89a1.47,1.47,0,0,1,.05-.45.46.46,0,0,1,.24-.29,1.33,1.33,0,0,1,.56-.09,1,1,0,0,1,.53.1.5.5,0,0,1,.23.29,1.65,1.65,0,0,1,.06.48v7.48a1.56,1.56,0,0,1-.06.46.49.49,0,0,1-.24.29A1.25,1.25,0,0,1,367.88,89.25Z"/><path class="cls-1" d="M375.82,89.35a5.17,5.17,0,0,1-2-.38,4.43,4.43,0,0,1-2.45-2.55,5,5,0,0,1-.32-1.84,4.53,4.53,0,0,1,.6-2.34,4.39,4.39,0,0,1,1.69-1.62,4.93,4.93,0,0,1,2.46-.6,4.77,4.77,0,0,1,1.7.29,4.13,4.13,0,0,1,1.28.79,3.72,3.72,0,0,1,.82,1.1,2.85,2.85,0,0,1,.28,1.22,1.7,1.7,0,0,1-.46,1.36,1.64,1.64,0,0,1-1.12.39h-5.49a2.2,2.2,0,0,0,.45,1.43,3,3,0,0,0,1.18.92,3.35,3.35,0,0,0,1.43.33,5.84,5.84,0,0,0,.91-.06,4.5,4.5,0,0,0,.67-.15l.49-.19.37-.19a1.25,1.25,0,0,1,.32-.14.62.62,0,0,1,.33,0,.55.55,0,0,1,.26.26,1.3,1.3,0,0,1,.15.28,1.35,1.35,0,0,1,0,.29c0,.18-.16.37-.46.59a4.27,4.27,0,0,1-1.26.55A6.86,6.86,0,0,1,375.82,89.35Zm-3-5.3h4.77a1.23,1.23,0,0,0,.54-.1q.18-.09.18-.51a1.5,1.5,0,0,0-.32-1,2.38,2.38,0,0,0-.88-.7,3.09,3.09,0,0,0-1.29-.26,3.49,3.49,0,0,0-1.52.33,2.73,2.73,0,0,0-1.1.9A2.16,2.16,0,0,0,372.78,84.05Z"/><path class="cls-1" d="M382.87,89.23a1.1,1.1,0,0,1-.54-.1.46.46,0,0,1-.23-.3,1.93,1.93,0,0,1-.05-.45V80.83a1.22,1.22,0,0,1,.06-.41.46.46,0,0,1,.24-.27,1.25,1.25,0,0,1,.54-.09,1.36,1.36,0,0,1,.45.06.62.62,0,0,1,.23.18.73.73,0,0,1,.08.25,2.29,2.29,0,0,1,0,.25l0,.87a3.44,3.44,0,0,1,.48-.62,3.93,3.93,0,0,1,.66-.53,3.28,3.28,0,0,1,.83-.37,3.32,3.32,0,0,1,1-.13,4.1,4.1,0,0,1,1.54.29,3.23,3.23,0,0,1,1.2.86,3.79,3.79,0,0,1,.78,1.34,5.08,5.08,0,0,1,.28,1.76V88.4a1.93,1.93,0,0,1-.05.45.44.44,0,0,1-.23.29,1.25,1.25,0,0,1-.54.09,1.17,1.17,0,0,1-.56-.1.51.51,0,0,1-.24-.3,1.51,1.51,0,0,1-.05-.45V84.25a3.27,3.27,0,0,0-.27-1.38,2,2,0,0,0-.8-.92,2.41,2.41,0,0,0-1.35-.34,2.62,2.62,0,0,0-1.36.34,2.25,2.25,0,0,0-.89.92,2.87,2.87,0,0,0-.31,1.38V88.4a1.49,1.49,0,0,1-.06.45.49.49,0,0,1-.24.29A1.25,1.25,0,0,1,382.87,89.23Z"/><path class="cls-1" d="M396.87,89.25a4,4,0,0,1-1.63-.34,4.08,4.08,0,0,1-1.36-1,4.79,4.79,0,0,1-.91-1.47,5.08,5.08,0,0,1-.33-1.86,5,5,0,0,1,.33-1.82,4.58,4.58,0,0,1,.91-1.45,4.2,4.2,0,0,1,1.36-1,4.22,4.22,0,0,1,3.32,0,3.82,3.82,0,0,1,1.29,1,4.26,4.26,0,0,1,.82,1.46,5.71,5.71,0,0,1,.29,1.83,5.21,5.21,0,0,1-.28,1.85,4.64,4.64,0,0,1-.82,1.46,3.69,3.69,0,0,1-1.28,1A4.08,4.08,0,0,1,396.87,89.25Zm.25-1.61a2.82,2.82,0,0,0,1.44-.38,2.76,2.76,0,0,0,1-1.06,3.12,3.12,0,0,0,.37-1.55,3.16,3.16,0,0,0-.37-1.56,2.69,2.69,0,0,0-1-1.06,2.92,2.92,0,0,0-2.88,0,2.74,2.74,0,0,0-1,1.06,3.16,3.16,0,0,0-.37,1.56,3.12,3.12,0,0,0,.37,1.55,2.76,2.76,0,0,0,1,1.06A2.81,2.81,0,0,0,397.12,87.64Zm3.73,1.61a1,1,0,0,1-.61-.15.68.68,0,0,1-.23-.51V76.69a2,2,0,0,1,.05-.47.43.43,0,0,1,.23-.3,1.51,1.51,0,0,1,1.08,0,.51.51,0,0,1,.24.3,1.93,1.93,0,0,1,.05.45V88.38a2.09,2.09,0,0,1-.05.46.53.53,0,0,1-.23.31A1.06,1.06,0,0,1,400.85,89.25Z"/><path class="cls-1" d="M408.48,89.36a4.45,4.45,0,0,1-1.77-.36,4.94,4.94,0,0,1-1.51-1,4.58,4.58,0,0,1-1.05-1.49,4.81,4.81,0,0,1,0-3.7,4.73,4.73,0,0,1,1-1.49,4.94,4.94,0,0,1,1.49-1,4.74,4.74,0,0,1,4.18.25,4.66,4.66,0,0,1,1.68,1.68,4.61,4.61,0,0,1,.63,2.39,4.72,4.72,0,0,1-.38,1.91,4.51,4.51,0,0,1-1,1.49,4.61,4.61,0,0,1-1.48,1A4.38,4.38,0,0,1,408.48,89.36Zm0-1.65a2.86,2.86,0,0,0,1.48-.4,3.07,3.07,0,0,0,1.52-2.7,3.1,3.1,0,0,0-.39-1.57A2.78,2.78,0,0,0,410,82a3.15,3.15,0,0,0-1.55-.38,3,3,0,0,0-1.51.4,3.16,3.16,0,0,0-1.09,1.09,3,3,0,0,0-.41,1.55,3,3,0,0,0,3,3.08Z"/><path class="cls-1" d="M32,114.25a5.19,5.19,0,0,1-1.09-.1,2.48,2.48,0,0,1-.85-.34,2,2,0,0,1-.6-.58,2.69,2.69,0,0,1-.34-.88,6,6,0,0,1-.1-1.2v-9.5a1.61,1.61,0,0,1,.05-.47.46.46,0,0,1,.23-.3,1.28,1.28,0,0,1,.53-.1,1.21,1.21,0,0,1,.57.1.43.43,0,0,1,.23.28,1.56,1.56,0,0,1,.06.46v9.52a2.1,2.1,0,0,0,.08.65,1.38,1.38,0,0,0,.23.47.93.93,0,0,0,.41.26,2.05,2.05,0,0,0,.59.08,1.48,1.48,0,0,1,.39.05.52.52,0,0,1,.26.23,1.2,1.2,0,0,1,.09.53,1.35,1.35,0,0,1-.09.57.43.43,0,0,1-.26.22A1.15,1.15,0,0,1,32,114.25Z"/><path class="cls-1" d="M38.92,114.36a4.49,4.49,0,0,1-1.78-.36,5.06,5.06,0,0,1-1.51-1,4.71,4.71,0,0,1-1-1.49,4.47,4.47,0,0,1-.38-1.87,4.6,4.6,0,0,1,.36-1.83,4.71,4.71,0,0,1,1-1.49,4.86,4.86,0,0,1,1.5-1,4.54,4.54,0,0,1,1.81-.37,4.61,4.61,0,0,1,4,2.3,4.7,4.7,0,0,1,.62,2.39,4.56,4.56,0,0,1-.38,1.91,4.49,4.49,0,0,1-1,1.49,4.72,4.72,0,0,1-1.48,1A4.38,4.38,0,0,1,38.92,114.36Zm0-1.65a2.84,2.84,0,0,0,1.48-.4,3,3,0,0,0,1.1-1.1,3.06,3.06,0,0,0,.42-1.6,3.1,3.1,0,0,0-.39-1.57A2.82,2.82,0,0,0,40.42,107a3.22,3.22,0,0,0-1.56-.38,3,3,0,0,0-1.51.4,3,3,0,0,0-1.08,1.09,2.87,2.87,0,0,0-.41,1.55,3,3,0,0,0,1.53,2.69A3,3,0,0,0,38.88,112.71Z"/><path class="cls-1" d="M48.74,114.35a5.39,5.39,0,0,1-1-.1,5.26,5.26,0,0,1-1-.27,4.21,4.21,0,0,1-.82-.43,1.91,1.91,0,0,1-.52-.55,1.16,1.16,0,0,1-.11-.35.51.51,0,0,1,0-.32,1.2,1.2,0,0,1,.23-.3.5.5,0,0,1,.38-.22.88.88,0,0,1,.48.26l.49.29a5,5,0,0,0,1.21.5,2.89,2.89,0,0,0,2-.25,1,1,0,0,0,.53-.89,1.07,1.07,0,0,0-.13-.55,1.33,1.33,0,0,0-.36-.39,2.46,2.46,0,0,0-.51-.27c-.19-.08-.41-.15-.64-.22l-.69-.2c-.35-.09-.68-.19-1-.3a3.91,3.91,0,0,1-.89-.45,2.07,2.07,0,0,1-.65-.7,2.24,2.24,0,0,1-.25-1.1,2.31,2.31,0,0,1,.4-1.34,2.63,2.63,0,0,1,1.12-.89,4.21,4.21,0,0,1,1.69-.31,4.75,4.75,0,0,1,.78.06,2.77,2.77,0,0,1,.7.18,4.46,4.46,0,0,1,.63.28,3.76,3.76,0,0,1,.59.39.68.68,0,0,1,.36.49.71.71,0,0,1-.21.55.76.76,0,0,1-.38.32.42.42,0,0,1-.41-.11,4.3,4.3,0,0,0-.65-.39,4.7,4.7,0,0,0-.7-.29,2.33,2.33,0,0,0-.74-.11,2.26,2.26,0,0,0-.85.14,1.13,1.13,0,0,0-.57.42,1,1,0,0,0-.2.61.79.79,0,0,0,.16.5,1.55,1.55,0,0,0,.42.32,3.23,3.23,0,0,0,.61.24l.73.2c.37.09.74.19,1.13.31a4.21,4.21,0,0,1,1,.48,2.27,2.27,0,0,1,.76.78,2.5,2.5,0,0,1,.29,1.28,2.31,2.31,0,0,1-1,2A4.28,4.28,0,0,1,48.74,114.35Z"/><path class="cls-1" d="M63.77,114.25a4.06,4.06,0,0,1-3-1.31,4.61,4.61,0,0,1-.91-1.47,4.89,4.89,0,0,1-.34-1.86,4.75,4.75,0,0,1,.34-1.82,4.41,4.41,0,0,1,.91-1.45,4.1,4.1,0,0,1,1.36-1,4.2,4.2,0,0,1,3.31,0,3.82,3.82,0,0,1,1.29,1,4.28,4.28,0,0,1,.83,1.46,5.71,5.71,0,0,1,.29,1.83,5.21,5.21,0,0,1-.28,1.85,4.66,4.66,0,0,1-.83,1.46,3.6,3.6,0,0,1-1.28,1A4,4,0,0,1,63.77,114.25Zm.25-1.61a2.75,2.75,0,0,0,1.43-.38,2.78,2.78,0,0,0,1-1.06,3.12,3.12,0,0,0,.37-1.55,3.16,3.16,0,0,0-.37-1.56,2.71,2.71,0,0,0-1-1.06,2.75,2.75,0,0,0-1.43-.38,2.83,2.83,0,0,0-1.45.38,2.65,2.65,0,0,0-1,1.06,3.16,3.16,0,0,0-.37,1.56,3.12,3.12,0,0,0,.37,1.55,2.74,2.74,0,0,0,1,1.06A2.87,2.87,0,0,0,64,112.64Zm3.72,1.61a1,1,0,0,1-.61-.15.72.72,0,0,1-.22-.51v-11.9a2.05,2.05,0,0,1,0-.47.46.46,0,0,1,.23-.3,1.51,1.51,0,0,1,1.08,0,.51.51,0,0,1,.24.3,1.49,1.49,0,0,1,.06.45v11.71a1.6,1.6,0,0,1-.06.46.49.49,0,0,1-.23.31A1,1,0,0,1,67.74,114.25Z"/><path class="cls-1" d="M75.55,114.35a5.17,5.17,0,0,1-2-.38,4.42,4.42,0,0,1-1.51-1,4.32,4.32,0,0,1-.94-1.51,5.05,5.05,0,0,1-.33-1.84,4.39,4.39,0,0,1,2.29-4,5,5,0,0,1,2.46-.6,4.73,4.73,0,0,1,1.7.29,4.18,4.18,0,0,1,1.29.79,3.68,3.68,0,0,1,.81,1.1,2.87,2.87,0,0,1,.29,1.22,1.7,1.7,0,0,1-.46,1.36,1.66,1.66,0,0,1-1.12.39H72.51A2.2,2.2,0,0,0,73,111.6a3,3,0,0,0,1.17.92,3.43,3.43,0,0,0,1.44.33,5.93,5.93,0,0,0,.91-.06,4.81,4.81,0,0,0,.67-.15l.49-.19.37-.19a1.19,1.19,0,0,1,.31-.14.65.65,0,0,1,.34,0,.53.53,0,0,1,.25.26.77.77,0,0,1,.15.28.92.92,0,0,1,0,.29c0,.18-.15.37-.45.59a4.34,4.34,0,0,1-1.27.55A6.83,6.83,0,0,1,75.55,114.35Zm-3-5.3h4.77a1.23,1.23,0,0,0,.54-.1q.18-.09.18-.51a1.56,1.56,0,0,0-.32-1,2.34,2.34,0,0,0-.89-.7,3,3,0,0,0-1.28-.26,3.5,3.5,0,0,0-1.53.33,2.77,2.77,0,0,0-1.09.9A2.1,2.1,0,0,0,72.51,109.05Z"/><path class="cls-1" d="M85.73,114.25a4,4,0,0,1-1.63-.34,4.08,4.08,0,0,1-1.36-1,4.61,4.61,0,0,1-.91-1.47,5.08,5.08,0,0,1-.33-1.86,5,5,0,0,1,.33-1.82,4.41,4.41,0,0,1,.91-1.45,4.2,4.2,0,0,1,1.36-1,4,4,0,0,1,1.63-.34,4.05,4.05,0,0,1,1.69.34,3.82,3.82,0,0,1,1.29,1,4.26,4.26,0,0,1,.82,1.46,5.71,5.71,0,0,1,.29,1.83,5.21,5.21,0,0,1-.28,1.85,4.64,4.64,0,0,1-.82,1.46,3.72,3.72,0,0,1-1.29,1A4,4,0,0,1,85.73,114.25Zm.25-1.61a2.68,2.68,0,0,0,2.44-1.44,3.12,3.12,0,0,0,.37-1.55,3.16,3.16,0,0,0-.37-1.56,2.76,2.76,0,0,0-1-1.06,2.92,2.92,0,0,0-2.88,0,2.74,2.74,0,0,0-1,1.06,3.16,3.16,0,0,0-.37,1.56,3.12,3.12,0,0,0,.37,1.55,2.76,2.76,0,0,0,1,1.06A2.81,2.81,0,0,0,86,112.64Zm3.72,1.61a1,1,0,0,1-.6-.15.68.68,0,0,1-.23-.51v-11.9a1.57,1.57,0,0,1,0-.47.45.45,0,0,1,.22-.3,1.12,1.12,0,0,1,.55-.1,1.1,1.1,0,0,1,.54.1.46.46,0,0,1,.23.3,1.49,1.49,0,0,1,.06.45v11.71a1.6,1.6,0,0,1-.06.46.48.48,0,0,1-.22.31A1.1,1.1,0,0,1,89.7,114.25Z"/><path class="cls-1" d="M97.34,114.36a4.45,4.45,0,0,1-1.77-.36,4.94,4.94,0,0,1-1.51-1,4.58,4.58,0,0,1-1-1.49,4.81,4.81,0,0,1,0-3.7,4.73,4.73,0,0,1,1-1.49,4.94,4.94,0,0,1,1.49-1,4.74,4.74,0,0,1,4.18.25,4.66,4.66,0,0,1,1.68,1.68,4.61,4.61,0,0,1,.63,2.39,4.72,4.72,0,0,1-.38,1.91,4.67,4.67,0,0,1-1,1.49,4.61,4.61,0,0,1-1.48,1A4.38,4.38,0,0,1,97.34,114.36Zm0-1.65a2.87,2.87,0,0,0,1.49-.4,3.07,3.07,0,0,0,1.52-2.7,3.1,3.1,0,0,0-.39-1.57A2.78,2.78,0,0,0,98.84,107a3.15,3.15,0,0,0-1.55-.38,2.93,2.93,0,0,0-1.51.4,3.08,3.08,0,0,0-1.09,1.09,3,3,0,0,0-.41,1.55,3,3,0,0,0,3,3.08Z"/><path class="cls-1" d="M107.17,114.35a5.2,5.2,0,0,1-1-.1,5.26,5.26,0,0,1-1-.27,3.94,3.94,0,0,1-.82-.43,1.67,1.67,0,0,1-.52-.55,1,1,0,0,1-.12-.35.59.59,0,0,1,.06-.32,1.2,1.2,0,0,1,.23-.3.47.47,0,0,1,.38-.22.89.89,0,0,1,.47.26l.5.29a5.39,5.39,0,0,0,.59.29,6.26,6.26,0,0,0,.61.21,2.7,2.7,0,0,0,.62.08,2.68,2.68,0,0,0,1.41-.33,1,1,0,0,0,.53-.89,1.18,1.18,0,0,0-.13-.55,1.24,1.24,0,0,0-.37-.39,2.46,2.46,0,0,0-.51-.27,5.93,5.93,0,0,0-.64-.22l-.69-.2c-.34-.09-.68-.19-1-.3a4.13,4.13,0,0,1-.89-.45,2,2,0,0,1-.89-1.8,2.24,2.24,0,0,1,.4-1.34,2.57,2.57,0,0,1,1.12-.89,4.18,4.18,0,0,1,1.69-.31,4.75,4.75,0,0,1,.78.06,2.7,2.7,0,0,1,.69.18,4.59,4.59,0,0,1,.64.28,4.29,4.29,0,0,1,.59.39.68.68,0,0,1,.36.49.8.8,0,0,1-.21.55.76.76,0,0,1-.38.32.43.43,0,0,1-.42-.11,4.21,4.21,0,0,0-.64-.39,4.81,4.81,0,0,0-.71-.29,2.33,2.33,0,0,0-.74-.11,2.18,2.18,0,0,0-.84.14,1.13,1.13,0,0,0-.57.42,1,1,0,0,0-.2.61.73.73,0,0,0,.16.5,1.41,1.41,0,0,0,.42.32,3.4,3.4,0,0,0,.6.24c.24.07.48.14.74.2s.74.19,1.13.31a4.31,4.31,0,0,1,1,.48,2.27,2.27,0,0,1,.76.78,2.4,2.4,0,0,1,.3,1.28,2.31,2.31,0,0,1-1,2A4.3,4.3,0,0,1,107.17,114.35Z"/><path class="cls-1" d="M119.06,114.25a1.1,1.1,0,0,1-.54-.1.46.46,0,0,1-.23-.31,2.09,2.09,0,0,1-.05-.46v-7.49a1.53,1.53,0,0,1,.06-.47.43.43,0,0,1,.23-.28,1.27,1.27,0,0,1,.55-.08,1.2,1.2,0,0,1,.52.08.51.51,0,0,1,.25.25,1.06,1.06,0,0,1,.07.37l-.08.57a4.53,4.53,0,0,1,.31-.5,1.94,1.94,0,0,1,.46-.44,2,2,0,0,1,.66-.33,3,3,0,0,1,1-.14,3.1,3.1,0,0,1,.54,0,2.25,2.25,0,0,1,.91.36,1.15,1.15,0,0,1,.27.27.52.52,0,0,1,.11.33,1,1,0,0,1-.27.71.75.75,0,0,1-.55.3.82.82,0,0,1-.36-.07,1.64,1.64,0,0,1-.22-.14,1.54,1.54,0,0,0-.29-.15,2.24,2.24,0,0,0-.61-.06,1.91,1.91,0,0,0-.6.11,2.52,2.52,0,0,0-.6.33,1.73,1.73,0,0,0-.46.57,1.54,1.54,0,0,0-.18.79v5.09a1.56,1.56,0,0,1-.06.46.49.49,0,0,1-.24.29A1.33,1.33,0,0,1,119.06,114.25Z"/><path class="cls-1" d="M130.55,114.35a5.21,5.21,0,0,1-2-.38,4.52,4.52,0,0,1-1.51-1,4.63,4.63,0,0,1-.94-1.51,5.27,5.27,0,0,1-.32-1.84,4.44,4.44,0,0,1,.61-2.34,4.29,4.29,0,0,1,1.68-1.62,4.93,4.93,0,0,1,2.46-.6,4.77,4.77,0,0,1,1.7.29,4,4,0,0,1,1.28.79,3.55,3.55,0,0,1,.82,1.1,2.85,2.85,0,0,1,.28,1.22,1.74,1.74,0,0,1-.45,1.36,1.68,1.68,0,0,1-1.12.39h-5.5a2.2,2.2,0,0,0,.45,1.43,3,3,0,0,0,1.18.92,3.35,3.35,0,0,0,1.43.33,6.07,6.07,0,0,0,.92-.06,4.64,4.64,0,0,0,.66-.15l.49-.19.37-.19a1.25,1.25,0,0,1,.32-.14.62.62,0,0,1,.33,0,.55.55,0,0,1,.26.26,1.3,1.3,0,0,1,.15.28,1.35,1.35,0,0,1,0,.29c0,.18-.15.37-.46.59a4.15,4.15,0,0,1-1.26.55A6.86,6.86,0,0,1,130.55,114.35Zm-3-5.3h4.77a1.23,1.23,0,0,0,.54-.1c.13-.06.19-.23.19-.51a1.51,1.51,0,0,0-.33-1,2.3,2.3,0,0,0-.88-.7,3,3,0,0,0-1.28-.26,3.5,3.5,0,0,0-1.53.33,2.73,2.73,0,0,0-1.1.9A2.16,2.16,0,0,0,127.51,109.05Z"/><path class="cls-1" d="M139.66,114.25a5.29,5.29,0,0,1-1.1-.1,2.43,2.43,0,0,1-.84-.34,2,2,0,0,1-.6-.58,2.49,2.49,0,0,1-.34-.88,6,6,0,0,1-.11-1.2v-9.5a2,2,0,0,1,.05-.47.45.45,0,0,1,.24-.3,1.22,1.22,0,0,1,.53-.1,1.17,1.17,0,0,1,.56.1.45.45,0,0,1,.24.28,1.58,1.58,0,0,1,.05.46v9.52a2.46,2.46,0,0,0,.08.65,1.23,1.23,0,0,0,.24.47.88.88,0,0,0,.41.26,2,2,0,0,0,.59.08,1.48,1.48,0,0,1,.39.05.5.5,0,0,1,.25.23,1.18,1.18,0,0,1,.1.53,1.32,1.32,0,0,1-.1.57.41.41,0,0,1-.25.22A1.15,1.15,0,0,1,139.66,114.25Z"/><path class="cls-1" d="M150.22,114.23a.83.83,0,0,1-.6-.17.84.84,0,0,1-.22-.53l.08-1a4,4,0,0,1-.59.69,3.68,3.68,0,0,1-1,.69,3.86,3.86,0,0,1-1.57.29,4,4,0,0,1-1.7-.36,4.32,4.32,0,0,1-1.39-1,4.64,4.64,0,0,1-.93-1.48,4.83,4.83,0,0,1-.33-1.79,4.66,4.66,0,0,1,.33-1.75,4.41,4.41,0,0,1,.94-1.46,4.59,4.59,0,0,1,1.4-1,4,4,0,0,1,1.68-.36,4.25,4.25,0,0,1,1.42.21,3.7,3.7,0,0,1,1,.57,5.09,5.09,0,0,1,.75.79l0-.8a.74.74,0,0,1,.18-.59.94.94,0,0,1,.64-.18.89.89,0,0,1,.52.11.53.53,0,0,1,.22.32,1.9,1.9,0,0,1,.06.52v7.33a1.68,1.68,0,0,1-.06.47.51.51,0,0,1-.23.32A1,1,0,0,1,150.22,114.23Zm-3.67-1.58a2.64,2.64,0,0,0,1.4-.39,3,3,0,0,0,1-1.08,3.23,3.23,0,0,0,.37-1.55,3.06,3.06,0,0,0-.39-1.56,2.94,2.94,0,0,0-1-1.07,2.62,2.62,0,0,0-1.4-.39A2.85,2.85,0,0,0,145,107a2.94,2.94,0,0,0-1,1.09,3.22,3.22,0,0,0-.38,1.56,3.1,3.1,0,0,0,.38,1.53,2.84,2.84,0,0,0,1,1.07A3.1,3.1,0,0,0,146.55,112.65Z"/><path class="cls-1" d="M151.61,118a1.45,1.45,0,0,1-.44-.07.51.51,0,0,1-.3-.24,1.15,1.15,0,0,1-.1-.53,1.09,1.09,0,0,1,.1-.51.53.53,0,0,1,.31-.24,1.25,1.25,0,0,1,.45-.07,4.61,4.61,0,0,0,.84-.07,1.79,1.79,0,0,0,.72-.31,1.46,1.46,0,0,0,.5-.67,3.12,3.12,0,0,0,.18-1.15v-8.27a1.58,1.58,0,0,1,0-.41.5.5,0,0,1,.24-.28,1.1,1.1,0,0,1,.54-.1,1.09,1.09,0,0,1,.53.1.46.46,0,0,1,.23.31,1.56,1.56,0,0,1,.06.46v8.19a4.52,4.52,0,0,1-.3,1.72,3.45,3.45,0,0,1-.84,1.21,3.49,3.49,0,0,1-1.23.7A5.07,5.07,0,0,1,151.61,118Zm3.06-15.2a1.06,1.06,0,0,1-.76-.22,1.17,1.17,0,0,1-.19-.77,1,1,0,0,1,.2-.75,1.08,1.08,0,0,1,.76-.2,1,1,0,0,1,.75.22,1.52,1.52,0,0,1,0,1.51A1.08,1.08,0,0,1,154.67,102.76Z"/><path class="cls-1" d="M166.26,114.23a.83.83,0,0,1-.6-.17.79.79,0,0,1-.22-.53l.07-1a3.9,3.9,0,0,1-1.63,1.38,3.91,3.91,0,0,1-1.58.29,4.05,4.05,0,0,1-1.7-.36,4.28,4.28,0,0,1-1.38-1,4.69,4.69,0,0,1-1.27-3.27,4.66,4.66,0,0,1,.33-1.75,4.6,4.6,0,0,1,.95-1.46,4.67,4.67,0,0,1,1.39-1,4,4,0,0,1,1.68-.36,4.27,4.27,0,0,1,1.43.21,3.64,3.64,0,0,1,1,.57,4.72,4.72,0,0,1,.76.79l0-.8a.67.67,0,0,1,.18-.59.91.91,0,0,1,.63-.18.93.93,0,0,1,.53.11.58.58,0,0,1,.22.32,2.47,2.47,0,0,1,0,.52v7.33a2.19,2.19,0,0,1,0,.47.55.55,0,0,1-.23.32A1.06,1.06,0,0,1,166.26,114.23Zm-3.67-1.58a2.61,2.61,0,0,0,1.39-.39,2.91,2.91,0,0,0,1-1.08,3.12,3.12,0,0,0,.37-1.55,3.06,3.06,0,0,0-.39-1.56,3,3,0,0,0-1-1.07,2.64,2.64,0,0,0-1.4-.39,2.83,2.83,0,0,0-2.58,1.5,3.11,3.11,0,0,0-.38,1.56,3,3,0,0,0,.38,1.53,2.77,2.77,0,0,0,1.05,1.07A3.07,3.07,0,0,0,162.59,112.65Z"/><path class="cls-1" d="M173.59,114.25a3.94,3.94,0,0,1-1.63-.34,4,4,0,0,1-1.36-1,4.81,4.81,0,0,1-.92-1.47,5.08,5.08,0,0,1-.33-1.86,5,5,0,0,1,.33-1.82,4.6,4.6,0,0,1,.92-1.45,4.1,4.1,0,0,1,1.36-1,4.2,4.2,0,0,1,3.31,0,3.82,3.82,0,0,1,1.29,1,4.28,4.28,0,0,1,.83,1.46,5.71,5.71,0,0,1,.28,1.83,5.21,5.21,0,0,1-.27,1.85,4.66,4.66,0,0,1-.83,1.46,3.6,3.6,0,0,1-1.28,1A4,4,0,0,1,173.59,114.25Zm.25-1.61a2.75,2.75,0,0,0,1.43-.38,2.86,2.86,0,0,0,1-1.06,3.23,3.23,0,0,0,.37-1.55,3.27,3.27,0,0,0-.37-1.56,2.79,2.79,0,0,0-1-1.06,2.75,2.75,0,0,0-1.43-.38,2.83,2.83,0,0,0-1.45.38,2.65,2.65,0,0,0-1,1.06,3.16,3.16,0,0,0-.37,1.56,3.12,3.12,0,0,0,.37,1.55,2.67,2.67,0,0,0,1,1.06A2.87,2.87,0,0,0,173.84,112.64Zm3.72,1.61a1,1,0,0,1-.61-.15.76.76,0,0,1-.23-.51v-11.9a2,2,0,0,1,.05-.47.46.46,0,0,1,.23-.3,1.51,1.51,0,0,1,1.08,0,.51.51,0,0,1,.24.3,1.49,1.49,0,0,1,.06.45v11.71a1.6,1.6,0,0,1-.06.46.49.49,0,0,1-.23.31A1,1,0,0,1,177.56,114.25Z"/><path class="cls-1" d="M185.2,114.36a4.49,4.49,0,0,1-1.78-.36,5.06,5.06,0,0,1-1.51-1,4.71,4.71,0,0,1-1-1.49,4.47,4.47,0,0,1-.38-1.87,4.6,4.6,0,0,1,.36-1.83,4.71,4.71,0,0,1,1-1.49,4.86,4.86,0,0,1,1.5-1,4.54,4.54,0,0,1,1.81-.37,4.61,4.61,0,0,1,4.05,2.3,4.61,4.61,0,0,1,.62,2.39,4.56,4.56,0,0,1-.38,1.91,4.49,4.49,0,0,1-1,1.49,4.72,4.72,0,0,1-1.48,1A4.38,4.38,0,0,1,185.2,114.36Zm0-1.65a2.84,2.84,0,0,0,1.48-.4,3,3,0,0,0,1.1-1.1,3.06,3.06,0,0,0,.42-1.6,3.1,3.1,0,0,0-.39-1.57A2.82,2.82,0,0,0,186.7,107a3.22,3.22,0,0,0-1.56-.38,3,3,0,0,0-1.51.4,3,3,0,0,0-1.08,1.09,3,3,0,0,0-.41,1.55,3,3,0,0,0,1.53,2.69A3,3,0,0,0,185.16,112.71Z"/><path class="cls-1" d="M195,114.35a5.39,5.39,0,0,1-1-.1,5.26,5.26,0,0,1-1-.27,4.21,4.21,0,0,1-.82-.43,1.91,1.91,0,0,1-.52-.55,1.16,1.16,0,0,1-.11-.35.59.59,0,0,1,.05-.32,1.5,1.5,0,0,1,.23-.3.5.5,0,0,1,.38-.22.88.88,0,0,1,.48.26l.49.29a5,5,0,0,0,1.21.5,2.89,2.89,0,0,0,2-.25,1,1,0,0,0,.53-.89,1.07,1.07,0,0,0-.13-.55,1.33,1.33,0,0,0-.36-.39,2.46,2.46,0,0,0-.51-.27c-.19-.08-.41-.15-.64-.22l-.69-.2c-.35-.09-.68-.19-1-.3a3.91,3.91,0,0,1-.89-.45,2.18,2.18,0,0,1-.65-.7,2.24,2.24,0,0,1-.25-1.1,2.31,2.31,0,0,1,.4-1.34,2.63,2.63,0,0,1,1.12-.89,4.21,4.21,0,0,1,1.69-.31,4.75,4.75,0,0,1,.78.06,2.77,2.77,0,0,1,.7.18,4.46,4.46,0,0,1,.63.28,3.76,3.76,0,0,1,.59.39.68.68,0,0,1,.36.49.71.71,0,0,1-.21.55.76.76,0,0,1-.38.32.42.42,0,0,1-.41-.11,4.3,4.3,0,0,0-.65-.39,4.7,4.7,0,0,0-.7-.29,2.33,2.33,0,0,0-.74-.11,2.26,2.26,0,0,0-.85.14,1.13,1.13,0,0,0-.57.42,1,1,0,0,0-.2.61.79.79,0,0,0,.16.5,1.55,1.55,0,0,0,.42.32,3.23,3.23,0,0,0,.61.24l.73.2c.37.09.74.19,1.13.31a4.21,4.21,0,0,1,1.05.48,2.27,2.27,0,0,1,.76.78,2.5,2.5,0,0,1,.29,1.28,2.31,2.31,0,0,1-1,2A4.28,4.28,0,0,1,195,114.35Z"/><path class="cls-1" d="M210,113l-4.35-6.7a.69.69,0,0,1,.25-1.14.87.87,0,0,1,.67-.2,1,1,0,0,1,.53.45l3.68,5.79Zm-1.88,4.91c-.3-.13-.48-.28-.53-.44a1,1,0,0,1,.13-.68l5-11.31a1.1,1.1,0,0,1,.44-.54.88.88,0,0,1,.68.09c.3.14.48.29.52.45a1,1,0,0,1-.12.67l-5.07,11.36q-.19.43-.42.51A1.05,1.05,0,0,1,208.11,117.94Z"/><path class="cls-1" d="M224.53,114.35a5.77,5.77,0,0,1-1.91-.37,4.21,4.21,0,0,1-.82-.43,1.79,1.79,0,0,1-.52-.55,1.16,1.16,0,0,1-.11-.35.51.51,0,0,1,.05-.32,1.2,1.2,0,0,1,.23-.3.48.48,0,0,1,.38-.22.91.91,0,0,1,.48.26l.49.29a5,5,0,0,0,1.21.5,2.55,2.55,0,0,0,.61.08,2.65,2.65,0,0,0,1.41-.33,1,1,0,0,0,.53-.89,1.07,1.07,0,0,0-.13-.55,1.33,1.33,0,0,0-.36-.39,2.55,2.55,0,0,0-.52-.27,6.55,6.55,0,0,0-.63-.22l-.7-.2c-.34-.09-.67-.19-1-.3a4.21,4.21,0,0,1-.9-.45,2,2,0,0,1-.89-1.8,2.24,2.24,0,0,1,.4-1.34,2.63,2.63,0,0,1,1.12-.89,4.21,4.21,0,0,1,1.69-.31,4.75,4.75,0,0,1,.78.06,2.7,2.7,0,0,1,.69.18,4.12,4.12,0,0,1,.64.28,4.29,4.29,0,0,1,.59.39.68.68,0,0,1,.36.49.8.8,0,0,1-.21.55.76.76,0,0,1-.38.32.43.43,0,0,1-.42-.11,3.77,3.77,0,0,0-.64-.39,4.7,4.7,0,0,0-.7-.29,2.39,2.39,0,0,0-.75-.11,2.25,2.25,0,0,0-.84.14,1.13,1.13,0,0,0-.57.42,1,1,0,0,0-.2.61.73.73,0,0,0,.16.5,1.55,1.55,0,0,0,.42.32,3.23,3.23,0,0,0,.61.24c.23.07.47.14.73.2s.74.19,1.13.31a4.31,4.31,0,0,1,1,.48,2.19,2.19,0,0,1,.76.78,2.4,2.4,0,0,1,.3,1.28,2.31,2.31,0,0,1-1,2A4.28,4.28,0,0,1,224.53,114.35Z"/><path class="cls-1" d="M231.41,102.78a1.29,1.29,0,0,1-.63-.13.61.61,0,0,1-.28-.35,2.09,2.09,0,0,1-.06-.53,1.6,1.6,0,0,1,.07-.52.56.56,0,0,1,.29-.33,1.47,1.47,0,0,1,.63-.1,1.37,1.37,0,0,1,.6.11.59.59,0,0,1,.28.34,2.14,2.14,0,0,1,.07.54,2,2,0,0,1-.07.52.57.57,0,0,1-.28.33A1.28,1.28,0,0,1,231.41,102.78Zm0,11.47a1.15,1.15,0,0,1-.55-.1.5.5,0,0,1-.23-.3,1.49,1.49,0,0,1-.06-.45v-7.51a1.44,1.44,0,0,1,.06-.45.45.45,0,0,1,.23-.29,1.35,1.35,0,0,1,.57-.09,1.06,1.06,0,0,1,.53.1.55.55,0,0,1,.23.29,2.14,2.14,0,0,1,.05.48v7.48a2,2,0,0,1-.05.46.49.49,0,0,1-.24.29A1.25,1.25,0,0,1,231.41,114.25Z"/><path class="cls-1" d="M235.85,114.23a1.1,1.1,0,0,1-.54-.1.46.46,0,0,1-.23-.3,1.93,1.93,0,0,1-.05-.45v-7.55a1.22,1.22,0,0,1,.06-.41.46.46,0,0,1,.24-.27,1.25,1.25,0,0,1,.54-.09,1.36,1.36,0,0,1,.45.06.62.62,0,0,1,.23.18.73.73,0,0,1,.08.25,2.29,2.29,0,0,1,0,.25l0,.87a3.44,3.44,0,0,1,.48-.62,3.93,3.93,0,0,1,.66-.53,3.45,3.45,0,0,1,.83-.37,3.32,3.32,0,0,1,1-.13,4.06,4.06,0,0,1,1.54.29,3.23,3.23,0,0,1,1.2.86,3.79,3.79,0,0,1,.78,1.34,5.08,5.08,0,0,1,.28,1.76v4.13a1.93,1.93,0,0,1-.05.45.44.44,0,0,1-.23.29,1.25,1.25,0,0,1-.54.09,1.17,1.17,0,0,1-.56-.1.51.51,0,0,1-.24-.3,1.93,1.93,0,0,1-.05-.45v-4.13a3.27,3.27,0,0,0-.27-1.38,2,2,0,0,0-.8-.92,2.41,2.41,0,0,0-1.35-.34,2.62,2.62,0,0,0-1.36.34,2.25,2.25,0,0,0-.89.92,2.87,2.87,0,0,0-.31,1.38v4.15a1.49,1.49,0,0,1-.06.45.49.49,0,0,1-.24.29A1.25,1.25,0,0,1,235.85,114.23Z"/><path class="cls-1" d="M258.82,114.23a.84.84,0,0,1-.6-.17.79.79,0,0,1-.21-.53l.07-1a3.9,3.9,0,0,1-1.63,1.38,3.91,3.91,0,0,1-1.58.29,4.05,4.05,0,0,1-1.7-.36,4.43,4.43,0,0,1-1.39-1,4.64,4.64,0,0,1-.93-1.48,4.83,4.83,0,0,1-.33-1.79,4.66,4.66,0,0,1,.33-1.75,4.57,4.57,0,0,1,.94-1.46,4.72,4.72,0,0,1,1.4-1,4,4,0,0,1,1.68-.36,4.31,4.31,0,0,1,1.43.21,3.64,3.64,0,0,1,1,.57,4.3,4.3,0,0,1,.75.79l0-.8a.67.67,0,0,1,.18-.59.91.91,0,0,1,.63-.18.87.87,0,0,1,.52.11.5.5,0,0,1,.22.32,1.9,1.9,0,0,1,.06.52v7.33a1.68,1.68,0,0,1-.06.47.5.5,0,0,1-.22.32A1.1,1.1,0,0,1,258.82,114.23Zm-3.66-1.58a2.61,2.61,0,0,0,1.39-.39,2.91,2.91,0,0,0,1-1.08,3.12,3.12,0,0,0,.37-1.55,3.06,3.06,0,0,0-.39-1.56,2.94,2.94,0,0,0-1-1.07,2.58,2.58,0,0,0-1.39-.39,2.89,2.89,0,0,0-1.55.41,3,3,0,0,0-1,1.09,3.22,3.22,0,0,0-.38,1.56,3.1,3.1,0,0,0,.38,1.53,2.86,2.86,0,0,0,1.06,1.07A3.07,3.07,0,0,0,255.16,112.65Z"/><path class="cls-1" d="M262.89,118a1.1,1.1,0,0,1-.54-.1.54.54,0,0,1-.25-.29,1.53,1.53,0,0,1-.07-.46V105.91a1.56,1.56,0,0,1,.06-.46.52.52,0,0,1,.24-.29,1.1,1.1,0,0,1,.54-.1,1.15,1.15,0,0,1,.62.13.61.61,0,0,1,.23.47v11.46a1.41,1.41,0,0,1,0,.47.51.51,0,0,1-.24.3A1.17,1.17,0,0,1,262.89,118Zm3.95-3.81a4.05,4.05,0,0,1-1.69-.35,3.42,3.42,0,0,1-1.29-1,4.4,4.4,0,0,1-.83-1.45,5.19,5.19,0,0,1-.27-1.84,5.66,5.66,0,0,1,.28-1.83,4.33,4.33,0,0,1,.83-1.45,3.67,3.67,0,0,1,1.29-1,4.13,4.13,0,0,1,1.68-.33,4,4,0,0,1,1.64.34,4.06,4.06,0,0,1,1.35,1,4.59,4.59,0,0,1,.92,1.47,5.09,5.09,0,0,1,.33,1.84,5,5,0,0,1-.33,1.83,4.44,4.44,0,0,1-.92,1.44,3.87,3.87,0,0,1-1.35.94A4.11,4.11,0,0,1,266.84,114.18Zm-.25-1.56a2.74,2.74,0,0,0,1.45-.39,2.7,2.7,0,0,0,1-1.08,3.14,3.14,0,0,0,.37-1.55,3.1,3.1,0,0,0-.37-1.56,2.7,2.7,0,0,0-1-1,2.93,2.93,0,0,0-1.46-.37,2.73,2.73,0,0,0-2.44,1.43,3.16,3.16,0,0,0-.37,1.54,3.26,3.26,0,0,0,.37,1.55,2.77,2.77,0,0,0,1,1.08A2.67,2.67,0,0,0,266.59,112.62Z"/><path class="cls-1" d="M274.21,114.25a1.1,1.1,0,0,1-.54-.1.46.46,0,0,1-.23-.31,2.13,2.13,0,0,1,0-.46v-7.49a1.57,1.57,0,0,1,.05-.47.46.46,0,0,1,.23-.28,1.3,1.3,0,0,1,.55-.08,1.2,1.2,0,0,1,.52.08.47.47,0,0,1,.25.25.87.87,0,0,1,.07.37l-.08.57a3.49,3.49,0,0,1,.32-.5,2.18,2.18,0,0,1,1.12-.77,3,3,0,0,1,1-.14,3.1,3.1,0,0,1,.54,0,2.75,2.75,0,0,1,.49.14,2.22,2.22,0,0,1,.41.22,1.2,1.2,0,0,1,.28.27.59.59,0,0,1,.1.33,1,1,0,0,1-.27.71.74.74,0,0,1-.55.3.82.82,0,0,1-.36-.07l-.22-.14a1.28,1.28,0,0,0-.29-.15,2.24,2.24,0,0,0-.61-.06,1.91,1.91,0,0,0-.6.11,2.52,2.52,0,0,0-.6.33,1.73,1.73,0,0,0-.46.57,1.65,1.65,0,0,0-.18.79v5.09a1.56,1.56,0,0,1-.06.46.49.49,0,0,1-.24.29A1.29,1.29,0,0,1,274.21,114.25Z"/><path class="cls-1" d="M285.71,114.35a5.26,5.26,0,0,1-2-.38,4.43,4.43,0,0,1-2.45-2.55,5.27,5.27,0,0,1-.32-1.84,4.44,4.44,0,0,1,.61-2.34,4.29,4.29,0,0,1,1.68-1.62,5,5,0,0,1,2.46-.6,4.77,4.77,0,0,1,1.7.29,4,4,0,0,1,1.28.79,3.55,3.55,0,0,1,.82,1.1,2.87,2.87,0,0,1,.29,1.22,1.74,1.74,0,0,1-.46,1.36,1.66,1.66,0,0,1-1.12.39h-5.49a2.14,2.14,0,0,0,.44,1.43,3.05,3.05,0,0,0,1.18.92,3.43,3.43,0,0,0,1.44.33,5.93,5.93,0,0,0,.91-.06,4.64,4.64,0,0,0,.66-.15l.5-.19.37-.19a1.19,1.19,0,0,1,.31-.14.61.61,0,0,1,.33,0,.51.51,0,0,1,.26.26.77.77,0,0,1,.15.28.92.92,0,0,1,0,.29c0,.18-.15.37-.46.59a4.15,4.15,0,0,1-1.26.55A6.83,6.83,0,0,1,285.71,114.35Zm-3-5.3h4.77a1.23,1.23,0,0,0,.54-.1q.18-.09.18-.51a1.56,1.56,0,0,0-.32-1,2.34,2.34,0,0,0-.89-.7,3,3,0,0,0-1.28-.26,3.5,3.5,0,0,0-1.53.33,2.7,2.7,0,0,0-1.09.9A2,2,0,0,0,282.67,109.05Z"/><path class="cls-1" d="M292,105.26l1.82,0,2.64,0a2,2,0,0,1,.46.05.47.47,0,0,1,.29.23,1.09,1.09,0,0,1,.11.54,1.23,1.23,0,0,1-.1.54.47.47,0,0,1-.28.24,1.56,1.56,0,0,1-.46.06l-2.6,0-1.92,0a.62.62,0,0,1-.54-.19,1,1,0,0,1-.15-.63.87.87,0,0,1,.18-.61A.71.71,0,0,1,292,105.26Zm4.25,9a5.93,5.93,0,0,1-1.51-.17,2.38,2.38,0,0,1-1-.53,2,2,0,0,1-.57-.94,5,5,0,0,1-.18-1.44v-8.39a1.56,1.56,0,0,1,.06-.46.48.48,0,0,1,.23-.29.93.93,0,0,1,.53-.11,1,1,0,0,1,.55.11.46.46,0,0,1,.25.28,1.44,1.44,0,0,1,.06.45v8.41a2.82,2.82,0,0,0,.08.79.91.91,0,0,0,.27.45,1,1,0,0,0,.48.19,7.32,7.32,0,0,0,.74,0,1.75,1.75,0,0,1,.5,0,.49.49,0,0,1,.28.23,1,1,0,0,1,.1.51,1.13,1.13,0,0,1-.11.55.45.45,0,0,1-.3.22A1.55,1.55,0,0,1,296.25,114.25Z"/><path class="cls-1" d="M307.18,114.23a.83.83,0,0,1-.6-.17.84.84,0,0,1-.22-.53l.08-1a4.55,4.55,0,0,1-.59.69,3.6,3.6,0,0,1-2.62,1,4,4,0,0,1-1.7-.36,4.32,4.32,0,0,1-1.39-1,4.81,4.81,0,0,1-1.27-3.27,4.47,4.47,0,0,1,.34-1.75,4.41,4.41,0,0,1,.94-1.46,4.67,4.67,0,0,1,1.39-1,4,4,0,0,1,1.69-.36,4.25,4.25,0,0,1,1.42.21,3.86,3.86,0,0,1,1,.57,5.09,5.09,0,0,1,.75.79l0-.8a.74.74,0,0,1,.18-.59.92.92,0,0,1,.64-.18.89.89,0,0,1,.52.11.53.53,0,0,1,.22.32,2,2,0,0,1,.05.52v7.33a1.7,1.7,0,0,1-.05.47.55.55,0,0,1-.23.32A1,1,0,0,1,307.18,114.23Zm-3.67-1.58a2.64,2.64,0,0,0,1.4-.39,2.89,2.89,0,0,0,1-1.08,3.12,3.12,0,0,0,.37-1.55,3.16,3.16,0,0,0-.38-1.56,3,3,0,0,0-1-1.07,2.64,2.64,0,0,0-1.4-.39,2.91,2.91,0,0,0-1.55.41,3,3,0,0,0-1,1.09,3.11,3.11,0,0,0-.38,1.56,3,3,0,0,0,.38,1.53,2.77,2.77,0,0,0,1.05,1.07A3.1,3.1,0,0,0,303.51,112.65Z"/><path class="cls-1" d="M311.38,114.25a1.1,1.1,0,0,1-.54-.1.43.43,0,0,1-.23-.31,2.09,2.09,0,0,1-.05-.46v-7.49a1.53,1.53,0,0,1,.06-.47.42.42,0,0,1,.22-.28,1.32,1.32,0,0,1,.56-.08,1.23,1.23,0,0,1,.52.08.45.45,0,0,1,.24.25.87.87,0,0,1,.07.37l-.07.57a3.4,3.4,0,0,1,.31-.5,2.09,2.09,0,0,1,.45-.44,2.21,2.21,0,0,1,.67-.33,3,3,0,0,1,1-.14,3.1,3.1,0,0,1,.54,0,2.85,2.85,0,0,1,.5.14,2.48,2.48,0,0,1,.4.22,1,1,0,0,1,.28.27.52.52,0,0,1,.1.33,1,1,0,0,1-.26.71.74.74,0,0,1-.91.23,1.64,1.64,0,0,1-.22-.14,1.38,1.38,0,0,0-.3-.15,2.19,2.19,0,0,0-.61-.06,1.8,1.8,0,0,0-.59.11,2.52,2.52,0,0,0-.6.33,1.75,1.75,0,0,0-.47.57,1.65,1.65,0,0,0-.18.79v5.09a1.56,1.56,0,0,1-.06.46.44.44,0,0,1-.23.29A1.33,1.33,0,0,1,311.38,114.25Z"/><path class="cls-1" d="M327.62,114.25a4.06,4.06,0,0,1-3-1.31,4.61,4.61,0,0,1-.91-1.47,4.89,4.89,0,0,1-.34-1.86,4.75,4.75,0,0,1,.34-1.82,4.41,4.41,0,0,1,.91-1.45,4.1,4.1,0,0,1,1.36-1,4.2,4.2,0,0,1,3.31,0,3.82,3.82,0,0,1,1.29,1,4.12,4.12,0,0,1,.83,1.46,5.71,5.71,0,0,1,.29,1.83,5.21,5.21,0,0,1-.28,1.85,4.66,4.66,0,0,1-.83,1.46,3.6,3.6,0,0,1-1.28,1A4,4,0,0,1,327.62,114.25Zm.25-1.61a2.75,2.75,0,0,0,1.43-.38,2.78,2.78,0,0,0,1-1.06,3.12,3.12,0,0,0,.37-1.55,3.16,3.16,0,0,0-.37-1.56,2.71,2.71,0,0,0-1-1.06,2.75,2.75,0,0,0-1.43-.38,2.85,2.85,0,0,0-1.45.38,2.65,2.65,0,0,0-1,1.06,3.16,3.16,0,0,0-.37,1.56,3.12,3.12,0,0,0,.37,1.55,2.74,2.74,0,0,0,1,1.06A2.87,2.87,0,0,0,327.87,112.64Zm3.72,1.61a1,1,0,0,1-.61-.15.72.72,0,0,1-.22-.51v-11.9a2.05,2.05,0,0,1,0-.47.5.5,0,0,1,.23-.3,1.51,1.51,0,0,1,1.08,0,.51.51,0,0,1,.24.3,1.49,1.49,0,0,1,.06.45v11.71a1.6,1.6,0,0,1-.06.46.49.49,0,0,1-.23.31A1,1,0,0,1,331.59,114.25Z"/><path class="cls-1" d="M339.4,114.35a5.17,5.17,0,0,1-2-.38,4.43,4.43,0,0,1-2.45-2.55,5.05,5.05,0,0,1-.33-1.84,4.53,4.53,0,0,1,.61-2.34,4.43,4.43,0,0,1,1.68-1.62,5,5,0,0,1,2.46-.6,4.73,4.73,0,0,1,1.7.29,4.06,4.06,0,0,1,1.29.79,3.68,3.68,0,0,1,.81,1.1,2.87,2.87,0,0,1,.29,1.22,1.7,1.7,0,0,1-.46,1.36,1.64,1.64,0,0,1-1.12.39h-5.49a2.2,2.2,0,0,0,.45,1.43,3,3,0,0,0,1.18.92,3.35,3.35,0,0,0,1.43.33,5.93,5.93,0,0,0,.91-.06,4.5,4.5,0,0,0,.67-.15l.49-.19.37-.19a1.12,1.12,0,0,1,.32-.14.62.62,0,0,1,.33,0,.49.49,0,0,1,.25.26,1,1,0,0,1,.16.28,1.36,1.36,0,0,1,0,.29c0,.18-.15.37-.45.59a4.34,4.34,0,0,1-1.27.55A6.73,6.73,0,0,1,339.4,114.35Zm-3-5.3h4.77a1.23,1.23,0,0,0,.54-.1q.18-.09.18-.51a1.56,1.56,0,0,0-.32-1,2.38,2.38,0,0,0-.88-.7,3.13,3.13,0,0,0-1.29-.26,3.56,3.56,0,0,0-1.53.33,2.77,2.77,0,0,0-1.09.9A2.16,2.16,0,0,0,336.36,109.05Z"/><path class="cls-1" d="M346.43,114.25a1,1,0,0,1-.53-.11.55.55,0,0,1-.23-.31,1.49,1.49,0,0,1-.06-.45v-7.53a1.31,1.31,0,0,1,.06-.43.46.46,0,0,1,.24-.27,1.25,1.25,0,0,1,.54-.09.88.88,0,0,1,.6.16.71.71,0,0,1,.18.56l-.08.81a2.2,2.2,0,0,1,.4-.57,3,3,0,0,1,.64-.51,3.76,3.76,0,0,1,.79-.36,2.74,2.74,0,0,1,.85-.13,3,3,0,0,1,1.19.23,3.09,3.09,0,0,1,.94.68,3.66,3.66,0,0,1,.7,1.08,6.79,6.79,0,0,1,.81-1.07,3,3,0,0,1,1-.69,3.25,3.25,0,0,1,1.23-.23,3,3,0,0,1,1.82.54,3.28,3.28,0,0,1,1.1,1.52,6.55,6.55,0,0,1,.37,2.35v4a1.93,1.93,0,0,1-.05.45.43.43,0,0,1-.23.3,1.14,1.14,0,0,1-.56.1,1.09,1.09,0,0,1-.54-.11.51.51,0,0,1-.23-.31,1.49,1.49,0,0,1-.06-.45v-4a5,5,0,0,0-.2-1.48,2,2,0,0,0-.61-1,1.61,1.61,0,0,0-1.05-.34,2.22,2.22,0,0,0-1.21.33,2.25,2.25,0,0,0-.81,1,3.6,3.6,0,0,0-.28,1.49v4a1,1,0,0,1-.12.5.58.58,0,0,1-.34.29,1,1,0,0,1-.55,0,.92.92,0,0,1-.46-.15.51.51,0,0,1-.19-.29,2.54,2.54,0,0,1,0-.41v-4a5,5,0,0,0-.2-1.48,2.12,2.12,0,0,0-.61-1,1.62,1.62,0,0,0-1.06-.34,2.14,2.14,0,0,0-1.2.35,2.31,2.31,0,0,0-.81,1,3.47,3.47,0,0,0-.28,1.45v4a1.49,1.49,0,0,1-.06.45.51.51,0,0,1-.24.3A1.17,1.17,0,0,1,346.43,114.25Z"/><path class="cls-1" d="M369.42,114.23a.83.83,0,0,1-.6-.17.84.84,0,0,1-.22-.53l.08-1a4,4,0,0,1-.59.69,3.76,3.76,0,0,1-1,.69,4,4,0,0,1-1.58.29,4,4,0,0,1-1.7-.36,4.32,4.32,0,0,1-1.39-1,4.64,4.64,0,0,1-.93-1.48,4.83,4.83,0,0,1-.33-1.79,4.66,4.66,0,0,1,.33-1.75,4.41,4.41,0,0,1,.94-1.46,4.72,4.72,0,0,1,1.4-1,4,4,0,0,1,1.68-.36,4.21,4.21,0,0,1,1.42.21,3.56,3.56,0,0,1,1,.57,5.09,5.09,0,0,1,.75.79l0-.8a.74.74,0,0,1,.18-.59,1,1,0,0,1,.64-.18.89.89,0,0,1,.52.11.53.53,0,0,1,.22.32,1.9,1.9,0,0,1,.06.52v7.33a1.68,1.68,0,0,1-.06.47.51.51,0,0,1-.23.32A1,1,0,0,1,369.42,114.23Zm-3.67-1.58a2.62,2.62,0,0,0,1.4-.39,3,3,0,0,0,1-1.08,3.23,3.23,0,0,0,.37-1.55,3.06,3.06,0,0,0-.39-1.56,2.94,2.94,0,0,0-1-1.07,2.61,2.61,0,0,0-1.39-.39,2.87,2.87,0,0,0-1.55.41,2.94,2.94,0,0,0-1,1.09,3.22,3.22,0,0,0-.38,1.56,3.1,3.1,0,0,0,.38,1.53,2.79,2.79,0,0,0,1.06,1.07A3.06,3.06,0,0,0,365.75,112.65Z"/><path class="cls-1" d="M375.84,114.35a5.39,5.39,0,0,1-.95-.1,5.26,5.26,0,0,1-1-.27,3.86,3.86,0,0,1-.81-.43,1.83,1.83,0,0,1-.53-.55,1.16,1.16,0,0,1-.11-.35.59.59,0,0,1,.06-.32,1.15,1.15,0,0,1,.22-.3.5.5,0,0,1,.38-.22.88.88,0,0,1,.48.26l.49.29a5,5,0,0,0,1.21.5,2.89,2.89,0,0,0,2-.25,1,1,0,0,0,.54-.89,1.07,1.07,0,0,0-.14-.55,1.33,1.33,0,0,0-.36-.39,2.46,2.46,0,0,0-.51-.27,5.93,5.93,0,0,0-.64-.22l-.69-.2c-.34-.09-.68-.19-1-.3a3.91,3.91,0,0,1-.89-.45,2.18,2.18,0,0,1-.65-.7,2.24,2.24,0,0,1-.24-1.1,2.3,2.3,0,0,1,.39-1.34,2.6,2.6,0,0,1,1.13-.89A4.18,4.18,0,0,1,376,105a4.93,4.93,0,0,1,.78.06,2.7,2.7,0,0,1,.69.18,5.17,5.17,0,0,1,.64.28,4.21,4.21,0,0,1,.58.39.72.72,0,0,1,.37.49,1.08,1.08,0,0,1-.59.87.43.43,0,0,1-.42-.11,3.86,3.86,0,0,0-.65-.39,4.7,4.7,0,0,0-.7-.29,2.33,2.33,0,0,0-.74-.11,2.26,2.26,0,0,0-.85.14,1.22,1.22,0,0,0-.57.42,1,1,0,0,0-.2.61.79.79,0,0,0,.16.5,1.55,1.55,0,0,0,.42.32,3.53,3.53,0,0,0,.61.24l.73.2c.37.09.75.19,1.13.31a4.21,4.21,0,0,1,1,.48,2.27,2.27,0,0,1,.76.78,2.5,2.5,0,0,1,.29,1.28,2.31,2.31,0,0,1-1,2A4.26,4.26,0,0,1,375.84,114.35Z"/><path class="cls-1" d="M382.72,102.78a1.29,1.29,0,0,1-.63-.13.56.56,0,0,1-.27-.35,1.7,1.7,0,0,1-.07-.53,1.58,1.58,0,0,1,.08-.52.54.54,0,0,1,.28-.33,1.47,1.47,0,0,1,.63-.1,1.38,1.38,0,0,1,.61.11.54.54,0,0,1,.27.34,1.77,1.77,0,0,1,.07.54,1.64,1.64,0,0,1-.07.52.52.52,0,0,1-.27.33A1.3,1.3,0,0,1,382.72,102.78Zm0,11.47a1.1,1.1,0,0,1-.54-.1.51.51,0,0,1-.24-.3,1.49,1.49,0,0,1-.06-.45v-7.51a1.44,1.44,0,0,1,.06-.45.46.46,0,0,1,.24-.29,1.33,1.33,0,0,1,.56-.09,1,1,0,0,1,.53.1.5.5,0,0,1,.23.29,1.65,1.65,0,0,1,.06.48v7.48a1.56,1.56,0,0,1-.06.46.49.49,0,0,1-.24.29A1.25,1.25,0,0,1,382.72,114.25Z"/><path class="cls-1" d="M394.16,114.23a.83.83,0,0,1-.6-.17.84.84,0,0,1-.22-.53l.08-1a4.55,4.55,0,0,1-.59.69,3.6,3.6,0,0,1-2.62,1,4,4,0,0,1-1.7-.36,4.32,4.32,0,0,1-1.39-1,4.64,4.64,0,0,1-.93-1.48,4.83,4.83,0,0,1-.33-1.79,4.66,4.66,0,0,1,.33-1.75,4.41,4.41,0,0,1,.94-1.46,4.59,4.59,0,0,1,1.4-1,4,4,0,0,1,1.68-.36,4.25,4.25,0,0,1,1.42.21,3.86,3.86,0,0,1,1,.57,5.09,5.09,0,0,1,.75.79l0-.8a.74.74,0,0,1,.18-.59.94.94,0,0,1,.64-.18.89.89,0,0,1,.52.11.53.53,0,0,1,.22.32,1.9,1.9,0,0,1,.06.52v7.33a1.68,1.68,0,0,1-.06.47.55.55,0,0,1-.23.32A1,1,0,0,1,394.16,114.23Zm-3.67-1.58a2.64,2.64,0,0,0,1.4-.39,3,3,0,0,0,1-1.08,3.23,3.23,0,0,0,.37-1.55,3.06,3.06,0,0,0-.39-1.56,3,3,0,0,0-1-1.07,2.62,2.62,0,0,0-1.4-.39,2.91,2.91,0,0,0-1.55.41,3,3,0,0,0-1,1.09,3.22,3.22,0,0,0-.38,1.56,3.1,3.1,0,0,0,.38,1.53,2.77,2.77,0,0,0,1.05,1.07A3.1,3.1,0,0,0,390.49,112.65Z"/><path class="cls-1" d="M401.49,114.25a4,4,0,0,1-1.63-.34,4.08,4.08,0,0,1-1.36-1,4.61,4.61,0,0,1-.91-1.47,5.08,5.08,0,0,1-.33-1.86,5,5,0,0,1,.33-1.82,4.41,4.41,0,0,1,.91-1.45,4.2,4.2,0,0,1,1.36-1,4,4,0,0,1,4.61,1,4.26,4.26,0,0,1,.82,1.46,5.71,5.71,0,0,1,.29,1.83,5.21,5.21,0,0,1-.28,1.85,4.64,4.64,0,0,1-.82,1.46,3.72,3.72,0,0,1-1.29,1A4,4,0,0,1,401.49,114.25Zm.25-1.61a2.75,2.75,0,0,0,1.43-.38,2.78,2.78,0,0,0,1-1.06,3.12,3.12,0,0,0,.37-1.55,3.16,3.16,0,0,0-.37-1.56,2.71,2.71,0,0,0-1-1.06,2.75,2.75,0,0,0-1.43-.38,2.82,2.82,0,0,0-1.44.38,2.67,2.67,0,0,0-1,1.06,3.16,3.16,0,0,0-.37,1.56,3.12,3.12,0,0,0,.37,1.55,2.81,2.81,0,0,0,1,1.06A2.87,2.87,0,0,0,401.74,112.64Zm3.72,1.61a.94.94,0,0,1-.6-.15.68.68,0,0,1-.23-.51v-11.9a2.05,2.05,0,0,1,0-.47.5.5,0,0,1,.23-.3,1.1,1.1,0,0,1,.54-.1,1.15,1.15,0,0,1,.55.1.46.46,0,0,1,.23.3,1.49,1.49,0,0,1,.06.45v11.71a1.6,1.6,0,0,1-.06.46.48.48,0,0,1-.22.31A1.1,1.1,0,0,1,405.46,114.25Z"/><path class="cls-1" d="M413.1,114.36a4.53,4.53,0,0,1-1.78-.36,5.19,5.19,0,0,1-1.51-1,4.71,4.71,0,0,1-1-1.49,4.81,4.81,0,0,1,0-3.7,4.73,4.73,0,0,1,1-1.49,4.94,4.94,0,0,1,1.49-1,4.74,4.74,0,0,1,4.18.25,4.66,4.66,0,0,1,1.68,1.68,4.61,4.61,0,0,1,.63,2.39,4.72,4.72,0,0,1-.38,1.91,4.67,4.67,0,0,1-1,1.49,4.61,4.61,0,0,1-1.48,1A4.38,4.38,0,0,1,413.1,114.36Zm0-1.65a2.87,2.87,0,0,0,1.49-.4,3.07,3.07,0,0,0,1.52-2.7,3.1,3.1,0,0,0-.39-1.57A2.78,2.78,0,0,0,414.6,107a3.16,3.16,0,0,0-1.56-.38,3,3,0,0,0-1.51.4,3,3,0,0,0-1.08,1.09,3,3,0,0,0-.41,1.55,3,3,0,0,0,1.53,2.69A3,3,0,0,0,413.06,112.71Z"/><path class="cls-1" d="M420.68,114.27a1.14,1.14,0,0,1-.8-.23,1,1,0,0,1-.22-.76,1.73,1.73,0,0,1,.09-.62.62.62,0,0,1,.32-.32,1.53,1.53,0,0,1,.61-.1,1.05,1.05,0,0,1,.79.23,1.1,1.1,0,0,1,.22.79,1.38,1.38,0,0,1-.1.6.57.57,0,0,1-.31.32A1.61,1.61,0,0,1,420.68,114.27Z"/><rect class="cls-2" width="455.66" height="220.11"/><path class="cls-1" d="M12.23,61.58A2.73,2.73,0,0,1,10.3,61a2.54,2.54,0,0,1-.56-1.89A3.87,3.87,0,0,1,10,57.64a1.58,1.58,0,0,1,.8-.79,3.74,3.74,0,0,1,1.48-.24,2.64,2.64,0,0,1,1.92.55,2.77,2.77,0,0,1,.55,2,3.82,3.82,0,0,1-.23,1.45,1.45,1.45,0,0,1-.78.78A3.82,3.82,0,0,1,12.23,61.58Z"/></g></g></svg>