<svg xmlns="http://www.w3.org/2000/svg" viewBox="0 0 463.45 220.11"><defs><style>.cls-1{fill:none;}.cls-2{fill:#fff;}</style></defs><title>pag41</title><g id="Layer_2" data-name="Layer 2"><g id="Paso_4" data-name="Paso 4"><rect class="cls-1" width="463.45" height="220.11"/><path class="cls-2" d="M24.77,15.72a1.93,1.93,0,0,1-1-.2.87.87,0,0,1-.37-.55,4,4,0,0,1-.06-.7V3.88a1.52,1.52,0,0,1,.32-1.14,1.7,1.7,0,0,1,1.16-.31H32a3.77,3.77,0,0,1,.7.07.88.88,0,0,1,.54.37,2,2,0,0,1,.2,1,1.93,1.93,0,0,1-.2,1,.87.87,0,0,1-.55.37,4,4,0,0,1-.71.06H26.23V7.77h3.92a3.33,3.33,0,0,1,.67.06.74.74,0,0,1,.47.32,1.81,1.81,0,0,1,.17.9,1.67,1.67,0,0,1-.17.85.67.67,0,0,1-.48.32,3.58,3.58,0,0,1-.7.06H26.23v2.55H32a3.08,3.08,0,0,1,.7.07.92.92,0,0,1,.54.37,2,2,0,0,1,.2,1,1.88,1.88,0,0,1-.2,1,.87.87,0,0,1-.55.37,4,4,0,0,1-.71.07Z"/><path class="cls-2" d="M36.45,15.87a5.69,5.69,0,0,1-1.11-.12,6,6,0,0,1-1.17-.33,3.68,3.68,0,0,1-1-.51,1.08,1.08,0,0,1-.44-.68,1.14,1.14,0,0,1,0-.41,2.63,2.63,0,0,1,.18-.45,4.29,4.29,0,0,1,.33-.5.66.66,0,0,1,.34-.27.75.75,0,0,1,.44,0,2.56,2.56,0,0,1,.61.2l.63.3a6.58,6.58,0,0,0,.66.29,2.06,2.06,0,0,0,.7.12,1.75,1.75,0,0,0,.83-.16.51.51,0,0,0,.29-.45.49.49,0,0,0-.12-.34,1.19,1.19,0,0,0-.35-.24,2.63,2.63,0,0,0-.5-.18L36.21,12l-.67-.18a5.5,5.5,0,0,1-.91-.34,3.31,3.31,0,0,1-.8-.54,2.41,2.41,0,0,1-.57-.82,3,3,0,0,1-.21-1.19,2.68,2.68,0,0,1,.44-1.56,2.81,2.81,0,0,1,1.27-1,5.57,5.57,0,0,1,2-.33c.23,0,.46,0,.69,0a5,5,0,0,1,.67.13c.22.07.44.14.66.23a6.36,6.36,0,0,1,.64.32.86.86,0,0,1,.59.73,1.5,1.5,0,0,1-.32.93,1.5,1.5,0,0,1-.44.46.57.57,0,0,1-.47.09,3,3,0,0,1-.66-.25c-.23-.11-.48-.22-.74-.32a2.15,2.15,0,0,0-.77-.15,1.77,1.77,0,0,0-.55.08.81.81,0,0,0-.34.23.52.52,0,0,0-.12.33.5.5,0,0,0,.15.39.93.93,0,0,0,.39.24,4.4,4.4,0,0,0,.57.17l.7.15c.34.07.69.15,1.05.26a3.74,3.74,0,0,1,1,.46,2.29,2.29,0,0,1,.72.82,2.76,2.76,0,0,1,.28,1.35,2.71,2.71,0,0,1-1,2.3A4.83,4.83,0,0,1,36.45,15.87Z"/><path class="cls-2" d="M48.4,4.85a1.85,1.85,0,0,1-1-.21A.8.8,0,0,1,47,4.09a3.38,3.38,0,0,1-.07-.72A3.45,3.45,0,0,1,47,2.63a.91.91,0,0,1,.38-.53,2,2,0,0,1,1-.2,1.85,1.85,0,0,1,1,.21.87.87,0,0,1,.37.55,4.18,4.18,0,0,1,.07.72,4.21,4.21,0,0,1-.07.73.85.85,0,0,1-.37.54A2,2,0,0,1,48.4,4.85Zm0,10.87a1.9,1.9,0,0,1-1-.2A.87.87,0,0,1,47,15a3.85,3.85,0,0,1-.06-.69V7.66A3.8,3.8,0,0,1,47,7a.86.86,0,0,1,.37-.53,2,2,0,0,1,1-.19,1.75,1.75,0,0,1,1,.2.82.82,0,0,1,.36.54,3.82,3.82,0,0,1,.07.72v6.61a3.84,3.84,0,0,1-.07.69.76.76,0,0,1-.36.53A2,2,0,0,1,48.4,15.72Z"/><path class="cls-2" d="M53.15,15.72a1.82,1.82,0,0,1-1-.21A.82.82,0,0,1,51.8,15a3.78,3.78,0,0,1,0-.7V7.62a3.69,3.69,0,0,1,.06-.69.86.86,0,0,1,.37-.52,2,2,0,0,1,1-.19,1.61,1.61,0,0,1,1,.27,1.14,1.14,0,0,1,.32.9l-.25.21a1.7,1.7,0,0,1,.23-.32A4.5,4.5,0,0,1,55,6.8a3.33,3.33,0,0,1,.72-.42,2.13,2.13,0,0,1,.88-.18,3.35,3.35,0,0,1,1.13.18,2.69,2.69,0,0,1,.91.53,3.3,3.3,0,0,1,.71.88A5.47,5.47,0,0,1,60,7.05a3.47,3.47,0,0,1,.9-.61,2.78,2.78,0,0,1,1.17-.24A3,3,0,0,1,64,6.76a3.35,3.35,0,0,1,1.17,1.6,7,7,0,0,1,.4,2.53v3.4a3.11,3.11,0,0,1-.07.69.78.78,0,0,1-.37.54,1.9,1.9,0,0,1-1,.2,1.79,1.79,0,0,1-1-.21.82.82,0,0,1-.36-.54,3.26,3.26,0,0,1-.07-.7v-3.4a3.17,3.17,0,0,0-.13-1,1.29,1.29,0,0,0-.41-.61,1,1,0,0,0-.69-.22,1.26,1.26,0,0,0-.74.2,1.14,1.14,0,0,0-.46.6,3.09,3.09,0,0,0-.15,1v3.4A2.34,2.34,0,0,1,60,15a.87.87,0,0,1-.41.53,1.74,1.74,0,0,1-1,.19,1.83,1.83,0,0,1-1-.23.8.8,0,0,1-.34-.54,3.91,3.91,0,0,1-.06-.68v-3.4a3.62,3.62,0,0,0-.13-1,1.3,1.3,0,0,0-.4-.61A1.13,1.13,0,0,0,56,9.05a1.25,1.25,0,0,0-.78.24,1.45,1.45,0,0,0-.44.66,2.65,2.65,0,0,0-.14.92v3.42a3.77,3.77,0,0,1-.07.7.86.86,0,0,1-.37.53A1.94,1.94,0,0,1,53.15,15.72Z"/><path class="cls-2" d="M68.62,19.65a1.82,1.82,0,0,1-1-.2.77.77,0,0,1-.36-.51,3,3,0,0,1-.07-.68V7.64A3.69,3.69,0,0,1,67.27,7a.81.81,0,0,1,.35-.53,1.84,1.84,0,0,1,1-.2,2.11,2.11,0,0,1,.94.17,1,1,0,0,1,.5.53V18.24a2.61,2.61,0,0,1-.05.69.89.89,0,0,1-.38.52A1.83,1.83,0,0,1,68.62,19.65Zm3.66-4.11a3.48,3.48,0,0,1-1.64-.37,3.36,3.36,0,0,1-1.18-1,4.76,4.76,0,0,1-.7-1.47,6.2,6.2,0,0,1-.22-1.81,6.18,6.18,0,0,1,.25-1.78,4.94,4.94,0,0,1,.71-1.5,3.26,3.26,0,0,1,2.78-1.39,3.64,3.64,0,0,1,1.63.38,4.65,4.65,0,0,1,1.4,1,5,5,0,0,1,1,1.51A4.6,4.6,0,0,1,76.62,11a4.51,4.51,0,0,1-.36,1.79,4.53,4.53,0,0,1-2.34,2.45A3.87,3.87,0,0,1,72.28,15.54Zm-.39-2.67a1.81,1.81,0,0,0,1-.26,2,2,0,0,0,.67-.69,1.93,1.93,0,0,0,.26-1,2,2,0,0,0-.25-1,1.9,1.9,0,0,0-.67-.68,1.84,1.84,0,0,0-.95-.24,1.78,1.78,0,0,0-1.6.94,1.9,1.9,0,0,0-.24,1,1.92,1.92,0,0,0,.25,1,1.82,1.82,0,0,0,.66.69A1.75,1.75,0,0,0,71.89,12.87Z"/><path class="cls-2" d="M82.64,15.87a4.86,4.86,0,0,1-1.78-.35,5.45,5.45,0,0,1-1.6-1A4.76,4.76,0,0,1,78.12,13a4.68,4.68,0,0,1-.42-2,4.82,4.82,0,0,1,.38-1.91,5.06,5.06,0,0,1,1.06-1.57,5.12,5.12,0,0,1,1.57-1.08,5,5,0,0,1,4.37.27,5.06,5.06,0,0,1,1.78,1.78A4.78,4.78,0,0,1,87.52,11,4.69,4.69,0,0,1,87.09,13,4.76,4.76,0,0,1,86,14.56a5,5,0,0,1-1.57,1A4.68,4.68,0,0,1,82.64,15.87Zm0-2.87a2.13,2.13,0,0,0,.93-.23,2.09,2.09,0,0,0,.8-.68,1.94,1.94,0,0,0,.32-1.16,2.17,2.17,0,0,0-.26-1.07,1.91,1.91,0,0,0-.73-.71,2.21,2.21,0,0,0-1.08-.26,1.88,1.88,0,0,0-1,.27,2.13,2.13,0,0,0-.73.73A2.06,2.06,0,0,0,80.57,11a2,2,0,0,0,.31,1.15,1.91,1.91,0,0,0,.79.68A2.18,2.18,0,0,0,82.6,13Z"/><path class="cls-2" d="M90.41,15.72a1.9,1.9,0,0,1-1-.2.9.9,0,0,1-.36-.55,4,4,0,0,1-.07-.7V7.64a3.06,3.06,0,0,1,.08-.7.86.86,0,0,1,.37-.53,1.91,1.91,0,0,1,1-.19,1.94,1.94,0,0,1,1,.18.84.84,0,0,1,.37.41,1.4,1.4,0,0,1,.07.41l-.22.12a1.39,1.39,0,0,1,.2-.28,2.57,2.57,0,0,1,.44-.42,2.67,2.67,0,0,1,1.64-.52l.46,0a3.58,3.58,0,0,1,.53.11,2.39,2.39,0,0,1,.51.23,1.38,1.38,0,0,1,.37.35.94.94,0,0,1,.14.52,2.35,2.35,0,0,1-.36,1.32,1.07,1.07,0,0,1-.91.54,1.23,1.23,0,0,1-.46-.06L94,9.05a.75.75,0,0,0-.2-.11,1.19,1.19,0,0,0-.41,0,2,2,0,0,0-.55.08,1.4,1.4,0,0,0-.47.24,1.09,1.09,0,0,0-.34.4,1,1,0,0,0-.13.52v4.18a3.85,3.85,0,0,1-.06.69.81.81,0,0,1-.37.53A2.09,2.09,0,0,1,90.41,15.72Z"/><path class="cls-2" d="M97.9,6.37H100l2.62-.08a3,3,0,0,1,.68.07.82.82,0,0,1,.53.37,1.83,1.83,0,0,1,.21,1,1.72,1.72,0,0,1-.2.95.83.83,0,0,1-.52.38,2.63,2.63,0,0,1-.7.09l-2.49-.06h-2.3a.91.91,0,0,1-.77-.33,1.86,1.86,0,0,1-.22-1,1.59,1.59,0,0,1,.27-1A1,1,0,0,1,97.9,6.37Zm4.29,9.35a5.73,5.73,0,0,1-1.66-.21,2.75,2.75,0,0,1-1.15-.65,2.61,2.61,0,0,1-.68-1.11,5.45,5.45,0,0,1-.22-1.61V4.43a3.47,3.47,0,0,1,.07-.68.82.82,0,0,1,.37-.51,1.88,1.88,0,0,1,1-.2,1.8,1.8,0,0,1,1,.21.88.88,0,0,1,.37.53,3.92,3.92,0,0,1,.06.71V12a2.27,2.27,0,0,0,0,.5.65.65,0,0,0,.14.3.57.57,0,0,0,.27.13,1.66,1.66,0,0,0,.42,0,3.32,3.32,0,0,1,.74.07.86.86,0,0,1,.5.35,1.62,1.62,0,0,1,.18.89,1.78,1.78,0,0,1-.21,1,.82.82,0,0,1-.54.36A3.85,3.85,0,0,1,102.19,15.72Z"/><path class="cls-2" d="M113.15,15.7a1.75,1.75,0,0,1-1-.25.76.76,0,0,1-.34-.61l.19-.32a1.91,1.91,0,0,1-.43.46,3.12,3.12,0,0,1-2.11.72,3.81,3.81,0,0,1-1.66-.38,4.51,4.51,0,0,1-1.4-1.06,5.07,5.07,0,0,1-1-1.53,4.77,4.77,0,0,1-.35-1.8,4.67,4.67,0,0,1,.35-1.78,5,5,0,0,1,1-1.5,4.86,4.86,0,0,1,1.4-1,3.72,3.72,0,0,1,1.65-.37,3.28,3.28,0,0,1,1.2.19,3.53,3.53,0,0,1,.82.47,3.05,3.05,0,0,1,.51.51l-.16-.26a.78.78,0,0,1,.32-.7,1.82,1.82,0,0,1,1-.23,1.84,1.84,0,0,1,1,.2.84.84,0,0,1,.36.56,3.26,3.26,0,0,1,.07.72v6.55a3.35,3.35,0,0,1-.07.71.82.82,0,0,1-.36.54A1.9,1.9,0,0,1,113.15,15.7Zm-3.3-2.83a1.66,1.66,0,0,0,.9-.26,1.77,1.77,0,0,0,.64-.69,2,2,0,0,0,.24-1,2,2,0,0,0-.24-1,1.93,1.93,0,0,0-.67-.69,1.71,1.71,0,0,0-.91-.25,1.89,1.89,0,0,0-1,.26,2,2,0,0,0-.68.71,1.83,1.83,0,0,0-.26,1,1.73,1.73,0,0,0,.26.94,1.9,1.9,0,0,0,.7.68A2,2,0,0,0,109.85,12.87Z"/><path class="cls-2" d="M117.81,15.7a1.9,1.9,0,0,1-1-.2.8.8,0,0,1-.36-.53,3.26,3.26,0,0,1-.07-.7V7.58a2.86,2.86,0,0,1,.08-.67.77.77,0,0,1,.37-.5,1.91,1.91,0,0,1,1-.19,1.86,1.86,0,0,1,.89.16.77.77,0,0,1,.37.39,1.14,1.14,0,0,1,.09.42.85.85,0,0,0,0,.28l-.11.36a1.1,1.1,0,0,1,.29-.58,2.94,2.94,0,0,1,.65-.53,3.52,3.52,0,0,1,.84-.37,3,3,0,0,1,.88-.13,3.78,3.78,0,0,1,1.62.33,3.23,3.23,0,0,1,1.21,1A4.44,4.44,0,0,1,125.34,9a6.36,6.36,0,0,1,.26,1.85v3.46a3.11,3.11,0,0,1-.07.69.76.76,0,0,1-.36.53,2,2,0,0,1-1,.19,1.89,1.89,0,0,1-1-.2.86.86,0,0,1-.37-.53,2.74,2.74,0,0,1-.08-.7V10.83a2.21,2.21,0,0,0-.19-1,1.4,1.4,0,0,0-.57-.61,2.08,2.08,0,0,0-1.88,0,1.61,1.61,0,0,0-.62.62,2,2,0,0,0-.22.95v3.46a3.85,3.85,0,0,1-.06.69.83.83,0,0,1-.36.53A2,2,0,0,1,117.81,15.7Z"/><path class="cls-2" d="M128,6.37H130l2.62-.08a3,3,0,0,1,.69.07.84.84,0,0,1,.53.37,1.83,1.83,0,0,1,.21,1,1.82,1.82,0,0,1-.2.95.85.85,0,0,1-.52.38,2.65,2.65,0,0,1-.71.09l-2.48-.06h-2.3a.89.89,0,0,1-.77-.33,1.86,1.86,0,0,1-.22-1,1.66,1.66,0,0,1,.26-1A1,1,0,0,1,128,6.37Zm4.3,9.35a5.85,5.85,0,0,1-1.67-.21,2.88,2.88,0,0,1-1.15-.65,2.69,2.69,0,0,1-.67-1.11,5.14,5.14,0,0,1-.22-1.61V4.43a2.84,2.84,0,0,1,.07-.68.78.78,0,0,1,.37-.51,1.88,1.88,0,0,1,1-.2,1.76,1.76,0,0,1,1,.21.86.86,0,0,1,.38.53,3.92,3.92,0,0,1,.06.71V12a2.27,2.27,0,0,0,.05.5.65.65,0,0,0,.14.3.49.49,0,0,0,.27.13,1.66,1.66,0,0,0,.42,0,3.38,3.38,0,0,1,.74.07.86.86,0,0,1,.5.35,1.62,1.62,0,0,1,.18.89,1.78,1.78,0,0,1-.21,1,.82.82,0,0,1-.54.36A3.85,3.85,0,0,1,132.25,15.72Z"/><path class="cls-2" d="M140.17,15.89a5.5,5.5,0,0,1-2.29-.44,4.42,4.42,0,0,1-1.57-1.15,4.92,4.92,0,0,1-.9-1.59,5.29,5.29,0,0,1-.29-1.74,4.91,4.91,0,0,1,.64-2.53,4.61,4.61,0,0,1,1.79-1.74,5.32,5.32,0,0,1,2.62-.64,4.86,4.86,0,0,1,1.91.35,3.94,3.94,0,0,1,1.33.92,3.75,3.75,0,0,1,.78,1.2,3.41,3.41,0,0,1,.26,1.24,2.1,2.1,0,0,1-.51,1.55,1.74,1.74,0,0,1-1.28.5h-4.52a1.33,1.33,0,0,0,.35.84,2.24,2.24,0,0,0,.79.53,2.58,2.58,0,0,0,1,.19,6.1,6.1,0,0,0,.8-.05,2.73,2.73,0,0,0,.59-.13l.46-.17.37-.15a1.73,1.73,0,0,1,.31-.07.75.75,0,0,1,.52.16,1.62,1.62,0,0,1,.43.54,1.27,1.27,0,0,1,.18.4,1.65,1.65,0,0,1,.05.38,1,1,0,0,1-.47.82,3.48,3.48,0,0,1-1.31.57A8.53,8.53,0,0,1,140.17,15.89Zm-2-5.63h3a.79.79,0,0,0,.45-.1.5.5,0,0,0,.14-.41.91.91,0,0,0-.21-.6,1.46,1.46,0,0,0-.56-.4,2.44,2.44,0,0,0-1.85.09,1.73,1.73,0,0,0-.72.61A1.41,1.41,0,0,0,138.14,10.26Z"/><path class="cls-2" d="M155.52,15.89a5.54,5.54,0,0,1-2.29-.44,4.42,4.42,0,0,1-1.57-1.15,4.92,4.92,0,0,1-.9-1.59,5.57,5.57,0,0,1-.29-1.74,4.91,4.91,0,0,1,.64-2.53A4.61,4.61,0,0,1,152.9,6.7a5.32,5.32,0,0,1,2.62-.64,4.82,4.82,0,0,1,1.91.35,3.94,3.94,0,0,1,1.33.92,3.75,3.75,0,0,1,.78,1.2,3.41,3.41,0,0,1,.26,1.24,2.1,2.1,0,0,1-.51,1.55,1.74,1.74,0,0,1-1.28.5h-4.52a1.33,1.33,0,0,0,.35.84,2.24,2.24,0,0,0,.79.53,2.63,2.63,0,0,0,1,.19,5.94,5.94,0,0,0,.79-.05,2.73,2.73,0,0,0,.59-.13l.46-.17.37-.15a2,2,0,0,1,.31-.07.79.79,0,0,1,.53.16,1.61,1.61,0,0,1,.42.54,1.27,1.27,0,0,1,.18.4,1.24,1.24,0,0,1,.05.38,1,1,0,0,1-.46.82,3.54,3.54,0,0,1-1.32.57A8.53,8.53,0,0,1,155.52,15.89Zm-2-5.63h3a.79.79,0,0,0,.45-.1.5.5,0,0,0,.14-.41.91.91,0,0,0-.21-.6,1.46,1.46,0,0,0-.56-.4,2.21,2.21,0,0,0-.81-.14,2.31,2.31,0,0,0-1,.23,1.7,1.7,0,0,0-.71.61A1.35,1.35,0,0,0,153.49,10.26Z"/><path class="cls-2" d="M162.72,15.7a1.9,1.9,0,0,1-1-.2.88.88,0,0,1-.36-.53,4,4,0,0,1-.06-.7V7.58a2.87,2.87,0,0,1,.07-.67.81.81,0,0,1,.37-.5,1.91,1.91,0,0,1,1-.19,1.83,1.83,0,0,1,.89.16.73.73,0,0,1,.37.39,1.14,1.14,0,0,1,.09.42.61.61,0,0,0,0,.28l-.12.36a1.2,1.2,0,0,1,.3-.58,3.11,3.11,0,0,1,.64-.53,3.52,3.52,0,0,1,.84-.37,3,3,0,0,1,.88-.13,3.86,3.86,0,0,1,1.63.33,3.31,3.31,0,0,1,1.21,1A4.85,4.85,0,0,1,170.26,9a6.37,6.37,0,0,1,.25,1.85v3.46a3.85,3.85,0,0,1-.06.69.81.81,0,0,1-.37.53,2.69,2.69,0,0,1-2,0,.86.86,0,0,1-.37-.53,3.27,3.27,0,0,1-.08-.7V10.83a2.21,2.21,0,0,0-.19-1,1.3,1.3,0,0,0-.57-.61,1.78,1.78,0,0,0-.93-.22,1.83,1.83,0,0,0-1,.23,1.58,1.58,0,0,0-.61.62,1.93,1.93,0,0,0-.22.95v3.46a3.11,3.11,0,0,1-.07.69.76.76,0,0,1-.36.53A2,2,0,0,1,162.72,15.7Z"/><path class="cls-2" d="M175.7,15.87a5.69,5.69,0,0,1-1.11-.12,6,6,0,0,1-1.17-.33,3.68,3.68,0,0,1-.95-.51,1.08,1.08,0,0,1-.44-.68,1.14,1.14,0,0,1,0-.41,1.62,1.62,0,0,1,.18-.45,4.29,4.29,0,0,1,.33-.5.66.66,0,0,1,.34-.27.71.71,0,0,1,.43,0,2.49,2.49,0,0,1,.62.2q.31.13.63.3c.21.11.43.2.65.29a2.16,2.16,0,0,0,.71.12,1.68,1.68,0,0,0,.82-.16.5.5,0,0,0,.3-.45.45.45,0,0,0-.13-.34,1,1,0,0,0-.34-.24,2.63,2.63,0,0,0-.5-.18l-.62-.16-.67-.18a5.5,5.5,0,0,1-.91-.34,3.13,3.13,0,0,1-.8-.54,2.41,2.41,0,0,1-.57-.82,3,3,0,0,1-.21-1.19,2.61,2.61,0,0,1,.44-1.56,2.81,2.81,0,0,1,1.27-1,5.53,5.53,0,0,1,2-.33c.23,0,.46,0,.69,0a5.28,5.28,0,0,1,.67.13c.22.07.44.14.66.23a6.36,6.36,0,0,1,.64.32.86.86,0,0,1,.59.73,1.5,1.5,0,0,1-.32.93,1.5,1.5,0,0,1-.44.46.57.57,0,0,1-.47.09,2.85,2.85,0,0,1-.66-.25c-.23-.11-.48-.22-.74-.32a2.15,2.15,0,0,0-.77-.15,1.73,1.73,0,0,0-.55.08.81.81,0,0,0-.34.23.52.52,0,0,0-.12.33.53.53,0,0,0,.14.39,1.08,1.08,0,0,0,.39.24,5.6,5.6,0,0,0,.57.17l.71.15c.34.07.69.15,1.05.26a3.74,3.74,0,0,1,1,.46,2.29,2.29,0,0,1,.72.82,2.76,2.76,0,0,1,.28,1.35,2.71,2.71,0,0,1-1,2.3A4.83,4.83,0,0,1,175.7,15.87Z"/><path class="cls-2" d="M186,15.89a5.5,5.5,0,0,1-2.29-.44,4.42,4.42,0,0,1-1.57-1.15,4.74,4.74,0,0,1-.9-1.59,5.31,5.31,0,0,1-.3-1.74,4.91,4.91,0,0,1,.65-2.53,4.61,4.61,0,0,1,1.79-1.74A5.32,5.32,0,0,1,186,6.06a4.86,4.86,0,0,1,1.91.35,3.94,3.94,0,0,1,1.33.92,3.75,3.75,0,0,1,.78,1.2,3.38,3.38,0,0,1,.25,1.24,2.1,2.1,0,0,1-.5,1.55,1.76,1.76,0,0,1-1.28.5H184a1.33,1.33,0,0,0,.35.84,2.24,2.24,0,0,0,.79.53,2.58,2.58,0,0,0,1,.19,6.1,6.1,0,0,0,.8-.05,2.88,2.88,0,0,0,.59-.13l.46-.17.37-.15a1.73,1.73,0,0,1,.31-.07.77.77,0,0,1,.52.16,1.62,1.62,0,0,1,.43.54,1.27,1.27,0,0,1,.18.4,1.65,1.65,0,0,1,.05.38,1,1,0,0,1-.47.82,3.56,3.56,0,0,1-1.31.57A8.53,8.53,0,0,1,186,15.89Zm-2-5.63h3a.73.73,0,0,0,.44-.1.48.48,0,0,0,.15-.41.91.91,0,0,0-.21-.6,1.46,1.46,0,0,0-.56-.4,2.29,2.29,0,0,0-.81-.14,2.38,2.38,0,0,0-1.05.23,1.77,1.77,0,0,0-.71.61A1.41,1.41,0,0,0,184,10.26Z"/><path class="cls-2" d="M193.18,15.7a1.9,1.9,0,0,1-1-.2.8.8,0,0,1-.36-.53,4.05,4.05,0,0,1-.07-.7V7.58a2.86,2.86,0,0,1,.08-.67.77.77,0,0,1,.37-.5,1.91,1.91,0,0,1,1-.19,1.86,1.86,0,0,1,.89.16.77.77,0,0,1,.37.39,1.14,1.14,0,0,1,.09.42.85.85,0,0,0,0,.28l-.11.36a1.18,1.18,0,0,1,.29-.58,3.19,3.19,0,0,1,.65-.53,3.52,3.52,0,0,1,.84-.37,3,3,0,0,1,.88-.13,3.78,3.78,0,0,1,1.62.33,3.23,3.23,0,0,1,1.21,1A4.44,4.44,0,0,1,200.71,9a6.36,6.36,0,0,1,.26,1.85v3.46a3.11,3.11,0,0,1-.07.69.76.76,0,0,1-.36.53,2,2,0,0,1-1,.19,1.89,1.89,0,0,1-1-.2.86.86,0,0,1-.37-.53,3.27,3.27,0,0,1-.08-.7V10.83a2.21,2.21,0,0,0-.19-1,1.4,1.4,0,0,0-.57-.61,1.78,1.78,0,0,0-.93-.22,1.81,1.81,0,0,0-.95.23,1.61,1.61,0,0,0-.62.62,2,2,0,0,0-.22.95v3.46a3.85,3.85,0,0,1-.06.69.83.83,0,0,1-.36.53A2,2,0,0,1,193.18,15.7Zm2.16-13.63a1.24,1.24,0,0,1,.77.22,4.36,4.36,0,0,1,.49.45A.6.6,0,0,0,197,3a.51.51,0,0,0,.4-.19l.35-.39a.71.71,0,0,1,.46-.24.69.69,0,0,1,.35,0,1.08,1.08,0,0,1,.41.19,1.53,1.53,0,0,1,.62.64.87.87,0,0,1-.14.75,2.5,2.5,0,0,1-.54.73,3,3,0,0,1-.81.56,2.15,2.15,0,0,1-.9.21,1.18,1.18,0,0,1-.73-.23,4.79,4.79,0,0,1-.52-.47.68.68,0,0,0-.47-.23,1.09,1.09,0,0,0-.69.19,1.71,1.71,0,0,0-.38.38.77.77,0,0,1-.35.29c-.12,0-.33,0-.64-.27a1.39,1.39,0,0,1-.55-.68,1,1,0,0,1,.21-.75,2.73,2.73,0,0,1,.61-.67,3.67,3.67,0,0,1,.82-.52A2,2,0,0,1,195.34,2.07Z"/><path class="cls-2" d="M210.49,15.7a1.79,1.79,0,0,1-1-.25.75.75,0,0,1-.33-.61l.19-.32a2,2,0,0,1-.44.46,3.09,3.09,0,0,1-.83.5,3.42,3.42,0,0,1-1.28.22,3.84,3.84,0,0,1-1.66-.38,4.76,4.76,0,0,1-1.4-1.06,5.49,5.49,0,0,1-1-1.53,4.77,4.77,0,0,1-.35-1.8,4.67,4.67,0,0,1,.35-1.78,5.15,5.15,0,0,1,1-1.5,5,5,0,0,1,1.4-1,3.76,3.76,0,0,1,1.65-.37,3.28,3.28,0,0,1,1.2.19,3.41,3.41,0,0,1,.83.47,2.62,2.62,0,0,1,.5.51l-.15-.26a.77.77,0,0,1,.31-.7,1.83,1.83,0,0,1,1.06-.23,1.8,1.8,0,0,1,1,.2.89.89,0,0,1,.37.56,4,4,0,0,1,.06.72v6.55a4.17,4.17,0,0,1-.06.71.88.88,0,0,1-.37.54A1.83,1.83,0,0,1,210.49,15.7Zm-3.31-2.83a1.66,1.66,0,0,0,.9-.26,1.8,1.8,0,0,0,.65-.69,2,2,0,0,0,.24-1,1.86,1.86,0,0,0-.25-1,1.9,1.9,0,0,0-.66-.69,1.74,1.74,0,0,0-.92-.25,1.91,1.91,0,0,0-1,.26,2.1,2.1,0,0,0-.68.71,1.92,1.92,0,0,0-.26,1,1.82,1.82,0,0,0,.26.94,2,2,0,0,0,1.7.94Z"/><path class="cls-2" d="M215.14,15.72a1.9,1.9,0,0,1-1-.2.9.9,0,0,1-.36-.55,4,4,0,0,1-.06-.7V7.64a3.08,3.08,0,0,1,.07-.7.9.9,0,0,1,.37-.53,1.91,1.91,0,0,1,1-.19,1.94,1.94,0,0,1,1,.18.79.79,0,0,1,.37.41,1.46,1.46,0,0,1,.08.41l-.23.12a1.39,1.39,0,0,1,.2-.28,3.14,3.14,0,0,1,.45-.42,2.8,2.8,0,0,1,.69-.37,2.69,2.69,0,0,1,.94-.15l.46,0a3.7,3.7,0,0,1,.54.11,2.54,2.54,0,0,1,.5.23,1.24,1.24,0,0,1,.37.35.86.86,0,0,1,.14.52,2.35,2.35,0,0,1-.36,1.32,1.06,1.06,0,0,1-.91.54,1.23,1.23,0,0,1-.46-.06l-.21-.11-.2-.11a1.31,1.31,0,0,0-.42,0,1.91,1.91,0,0,0-.54.08,1.54,1.54,0,0,0-.48.24,1.19,1.19,0,0,0-.34.4,1.14,1.14,0,0,0-.12.52v4.18a3.84,3.84,0,0,1-.07.69.77.77,0,0,1-.37.53A2.06,2.06,0,0,1,215.14,15.72Z"/><path class="cls-2" d="M234.65,15.7a1.77,1.77,0,0,1-1-.25.75.75,0,0,1-.33-.61l.19-.32A2,2,0,0,1,233,15a3.16,3.16,0,0,1-.84.5,3.33,3.33,0,0,1-1.27.22,3.81,3.81,0,0,1-1.66-.38,4.63,4.63,0,0,1-1.4-1.06,5.49,5.49,0,0,1-1-1.53,4.77,4.77,0,0,1-.35-1.8,4.67,4.67,0,0,1,.35-1.78,5.15,5.15,0,0,1,1-1.5,4.86,4.86,0,0,1,1.4-1,3.76,3.76,0,0,1,1.65-.37,3.28,3.28,0,0,1,1.2.19,3.34,3.34,0,0,1,.82.47,2.71,2.71,0,0,1,.51.51l-.15-.26a.75.75,0,0,1,.31-.7,2.51,2.51,0,0,1,2,0A.84.84,0,0,1,236,7a3.26,3.26,0,0,1,.07.72v6.55A3.35,3.35,0,0,1,236,15a.82.82,0,0,1-.36.54A1.87,1.87,0,0,1,234.65,15.7Zm-3.3-2.83a1.66,1.66,0,0,0,.9-.26,1.88,1.88,0,0,0,.65-.69,2,2,0,0,0,.24-1,2,2,0,0,0-.25-1,1.93,1.93,0,0,0-.67-.69,1.71,1.71,0,0,0-.91-.25,1.89,1.89,0,0,0-1,.26,2.1,2.1,0,0,0-.68.71,1.92,1.92,0,0,0-.26,1,1.82,1.82,0,0,0,.26.94,1.9,1.9,0,0,0,.7.68A2,2,0,0,0,231.35,12.87Z"/><path class="cls-2" d="M241.53,15.72a9.16,9.16,0,0,1-1.37-.09,3.2,3.2,0,0,1-1-.31,1.82,1.82,0,0,1-.69-.63,2.76,2.76,0,0,1-.39-1,7.64,7.64,0,0,1-.13-1.56V3.31a3.08,3.08,0,0,1,.07-.7.84.84,0,0,1,.37-.54,2.42,2.42,0,0,1,2,0,.92.92,0,0,1,.37.54,3.08,3.08,0,0,1,.07.7V12a3.58,3.58,0,0,0,0,.51.63.63,0,0,0,.12.31.34.34,0,0,0,.23.15,1.49,1.49,0,0,0,.4,0A2,2,0,0,1,242,13a.69.69,0,0,1,.41.34,2,2,0,0,1,.17,1,2.17,2.17,0,0,1-.17,1,.7.7,0,0,1-.41.36A2,2,0,0,1,241.53,15.72Z"/><path class="cls-2" d="M250.18,15.7a1.9,1.9,0,0,1-1-.2.8.8,0,0,1-.36-.53,3.26,3.26,0,0,1-.07-.7V7.58a2.86,2.86,0,0,1,.08-.67.77.77,0,0,1,.37-.5,1.91,1.91,0,0,1,1-.19,1.86,1.86,0,0,1,.89.16.77.77,0,0,1,.37.39,1.14,1.14,0,0,1,.09.42.85.85,0,0,0,0,.28l-.11.36a1.1,1.1,0,0,1,.29-.58,2.94,2.94,0,0,1,.65-.53,3.52,3.52,0,0,1,.84-.37,3,3,0,0,1,.88-.13,3.78,3.78,0,0,1,1.62.33,3.23,3.23,0,0,1,1.21,1A4.44,4.44,0,0,1,257.71,9a6.36,6.36,0,0,1,.26,1.85v3.46a3.11,3.11,0,0,1-.07.69.76.76,0,0,1-.36.53,2,2,0,0,1-1,.19,1.89,1.89,0,0,1-1-.2.86.86,0,0,1-.37-.53,2.74,2.74,0,0,1-.08-.7V10.83a2.21,2.21,0,0,0-.19-1,1.4,1.4,0,0,0-.57-.61,2.08,2.08,0,0,0-1.88,0,1.61,1.61,0,0,0-.62.62,2,2,0,0,0-.22.95v3.46a3.85,3.85,0,0,1-.06.69.83.83,0,0,1-.36.53A2,2,0,0,1,250.18,15.7Z"/><path class="cls-2" d="M261.25,4.85a1.85,1.85,0,0,1-1-.21.83.83,0,0,1-.37-.55,3.38,3.38,0,0,1-.07-.72,3.43,3.43,0,0,1,.08-.74.83.83,0,0,1,.38-.53,2,2,0,0,1,1-.2,1.83,1.83,0,0,1,1,.21.83.83,0,0,1,.37.55,3.38,3.38,0,0,1,.07.72,3.41,3.41,0,0,1-.07.73.82.82,0,0,1-.37.54A2,2,0,0,1,261.25,4.85Zm0,10.87a1.86,1.86,0,0,1-1-.2.8.8,0,0,1-.36-.54,3.11,3.11,0,0,1-.07-.69V7.66a3.08,3.08,0,0,1,.07-.7.79.79,0,0,1,.37-.53,1.91,1.91,0,0,1,1-.19,1.73,1.73,0,0,1,1,.2.82.82,0,0,1,.36.54,3.14,3.14,0,0,1,.07.72v6.61a3.11,3.11,0,0,1-.07.69.76.76,0,0,1-.36.53A2,2,0,0,1,261.25,15.72Z"/><path class="cls-2" d="M266,15.7a1.9,1.9,0,0,1-1-.2.88.88,0,0,1-.36-.53,4,4,0,0,1-.06-.7V7.58a2.87,2.87,0,0,1,.07-.67.81.81,0,0,1,.37-.5,1.91,1.91,0,0,1,1-.19,1.83,1.83,0,0,1,.89.16.73.73,0,0,1,.37.39,1.14,1.14,0,0,1,.09.42.61.61,0,0,0,0,.28l-.12.36a1.2,1.2,0,0,1,.3-.58,2.87,2.87,0,0,1,.64-.53,3.52,3.52,0,0,1,.84-.37,3,3,0,0,1,.88-.13,3.86,3.86,0,0,1,1.63.33,3.28,3.28,0,0,1,1.2,1A4.66,4.66,0,0,1,273.58,9a6.37,6.37,0,0,1,.25,1.85v3.46a3.85,3.85,0,0,1-.06.69.81.81,0,0,1-.37.53,2.69,2.69,0,0,1-2,0A.86.86,0,0,1,271,15a3.27,3.27,0,0,1-.08-.7V10.83a2.21,2.21,0,0,0-.19-1,1.3,1.3,0,0,0-.57-.61,1.78,1.78,0,0,0-.93-.22,1.83,1.83,0,0,0-.95.23,1.58,1.58,0,0,0-.61.62,1.93,1.93,0,0,0-.22.95v3.46a3.84,3.84,0,0,1-.07.69.76.76,0,0,1-.36.53A2,2,0,0,1,266,15.7Zm2.17-13.63a1.26,1.26,0,0,1,.77.22,5.27,5.27,0,0,1,.48.45.62.62,0,0,0,.44.23.55.55,0,0,0,.41-.19c.1-.13.22-.26.34-.39a.71.71,0,0,1,.46-.24.73.73,0,0,1,.36,0,1,1,0,0,1,.4.19,1.53,1.53,0,0,1,.62.64.84.84,0,0,1-.14.75,2.46,2.46,0,0,1-.53.73A3.06,3.06,0,0,1,271,5a2.1,2.1,0,0,1-.89.21,1.16,1.16,0,0,1-.73-.23,4.92,4.92,0,0,1-.53-.47.68.68,0,0,0-.47-.23,1.11,1.11,0,0,0-.69.19,1.71,1.71,0,0,0-.38.38.77.77,0,0,1-.35.29c-.12,0-.33,0-.63-.27a1.34,1.34,0,0,1-.55-.68.93.93,0,0,1,.2-.75,2.94,2.94,0,0,1,.61-.67,4.19,4.19,0,0,1,.82-.52A2,2,0,0,1,268.21,2.07Z"/><path class="cls-2" d="M280.16,15.87a4.86,4.86,0,0,1-1.78-.35,5.45,5.45,0,0,1-1.6-1A4.76,4.76,0,0,1,275.64,13a4.68,4.68,0,0,1-.42-2,4.82,4.82,0,0,1,.38-1.91,5.06,5.06,0,0,1,1.06-1.57,5.12,5.12,0,0,1,1.57-1.08,5,5,0,0,1,4.37.27,5.06,5.06,0,0,1,1.78,1.78A4.78,4.78,0,0,1,285,11a4.69,4.69,0,0,1-.43,2.06,4.76,4.76,0,0,1-1.14,1.55,5,5,0,0,1-1.57,1A4.68,4.68,0,0,1,280.16,15.87Zm0-2.87a2.2,2.2,0,0,0,.93-.23,2.09,2.09,0,0,0,.8-.68,2,2,0,0,0,.32-1.16,2.17,2.17,0,0,0-.26-1.07,1.91,1.91,0,0,0-.73-.71,2.24,2.24,0,0,0-1.08-.26,1.88,1.88,0,0,0-1,.27,2.13,2.13,0,0,0-.73.73,2.06,2.06,0,0,0-.27,1.06,2,2,0,0,0,.31,1.15,1.91,1.91,0,0,0,.79.68A2.18,2.18,0,0,0,280.12,13Z"/><path class="cls-2" d="M299.12,15.7a1.81,1.81,0,0,1-1-.25.75.75,0,0,1-.33-.61l.19-.32a1.91,1.91,0,0,1-.43.46,3.12,3.12,0,0,1-2.11.72,3.85,3.85,0,0,1-1.67-.38,4.59,4.59,0,0,1-1.39-1.06,5.07,5.07,0,0,1-1-1.53,4.58,4.58,0,0,1-.35-1.8,4.49,4.49,0,0,1,.35-1.78,5,5,0,0,1,2.36-2.54,3.77,3.77,0,0,1,1.66-.37,3.27,3.27,0,0,1,1.19.19,3.41,3.41,0,0,1,.83.47,2.62,2.62,0,0,1,.5.51l-.15-.26a.77.77,0,0,1,.31-.7,1.87,1.87,0,0,1,1.06-.23,1.84,1.84,0,0,1,1,.2.92.92,0,0,1,.36.56,4,4,0,0,1,.07.72v6.55a4.17,4.17,0,0,1-.07.71.9.9,0,0,1-.36.54A1.9,1.9,0,0,1,299.12,15.7Zm-3.31-2.83a1.72,1.72,0,0,0,.91-.26,1.85,1.85,0,0,0,.64-.69,2,2,0,0,0,.24-1,1.86,1.86,0,0,0-.25-1,1.82,1.82,0,0,0-.66-.69,1.71,1.71,0,0,0-.91-.25,1.86,1.86,0,0,0-1,.26,2,2,0,0,0-.69.71,1.92,1.92,0,0,0-.25,1,1.81,1.81,0,0,0,.25.94,2,2,0,0,0,1.7.94Z"/><path class="cls-2" d="M311.3,15.7a4,4,0,0,1-1.64-.35,3.86,3.86,0,0,1-1.34-.95,4.45,4.45,0,0,1-.89-1.47,5.24,5.24,0,0,1-.31-1.85V7.64a2.59,2.59,0,0,1,.08-.7.86.86,0,0,1,.37-.53,1.73,1.73,0,0,1,1-.21,1.79,1.79,0,0,1,1,.21.82.82,0,0,1,.36.54,3.23,3.23,0,0,1,.07.71v3.42a2.19,2.19,0,0,0,.2,1,1.36,1.36,0,0,0,.59.62,1.89,1.89,0,0,0,.92.21,2,2,0,0,0,.94-.22,1.58,1.58,0,0,0,.61-.62,2,2,0,0,0,.22-.95V7.62a3.08,3.08,0,0,1,.07-.7.85.85,0,0,1,.37-.52,2.54,2.54,0,0,1,2,0,.9.9,0,0,1,.36.54,3.85,3.85,0,0,1,.06.69v6.69a3.55,3.55,0,0,1-.06.67.82.82,0,0,1-.37.51,2,2,0,0,1-1,.19,2.14,2.14,0,0,1-.8-.12,1,1,0,0,1-.42-.28.82.82,0,0,1-.16-.36,2.26,2.26,0,0,1,0-.35l.25-.2-.25.28a3.31,3.31,0,0,1-.5.45,3.39,3.39,0,0,1-.73.41A2.63,2.63,0,0,1,311.3,15.7Z"/><path class="cls-2" d="M321.56,15.87a5.69,5.69,0,0,1-1.11-.12,6,6,0,0,1-1.17-.33,3.68,3.68,0,0,1-.95-.51,1.08,1.08,0,0,1-.44-.68,1.14,1.14,0,0,1,0-.41,1.62,1.62,0,0,1,.18-.45,4.29,4.29,0,0,1,.33-.5.66.66,0,0,1,.34-.27.71.71,0,0,1,.43,0,2.49,2.49,0,0,1,.62.2q.31.13.63.3c.21.11.43.2.65.29a2.16,2.16,0,0,0,.71.12,1.68,1.68,0,0,0,.82-.16.5.5,0,0,0,.3-.45.45.45,0,0,0-.13-.34,1,1,0,0,0-.34-.24,2.63,2.63,0,0,0-.5-.18l-.62-.16-.67-.18a5.5,5.5,0,0,1-.91-.34,3.13,3.13,0,0,1-.8-.54,2.41,2.41,0,0,1-.57-.82,3,3,0,0,1-.21-1.19,2.61,2.61,0,0,1,.44-1.56,2.81,2.81,0,0,1,1.27-1,5.53,5.53,0,0,1,2-.33c.23,0,.46,0,.69,0a5.28,5.28,0,0,1,.67.13c.22.07.44.14.66.23a6.36,6.36,0,0,1,.64.32.86.86,0,0,1,.59.73,1.5,1.5,0,0,1-.32.93,1.5,1.5,0,0,1-.44.46.57.57,0,0,1-.47.09,2.85,2.85,0,0,1-.66-.25c-.23-.11-.48-.22-.74-.32a2.15,2.15,0,0,0-.77-.15,1.73,1.73,0,0,0-.55.08.81.81,0,0,0-.34.23.52.52,0,0,0-.12.33.53.53,0,0,0,.14.39,1.08,1.08,0,0,0,.39.24,5.6,5.6,0,0,0,.57.17l.71.15c.34.07.69.15,1.05.26a3.74,3.74,0,0,1,1,.46,2.29,2.29,0,0,1,.72.82,2.88,2.88,0,0,1,.28,1.35,2.71,2.71,0,0,1-1,2.3A4.83,4.83,0,0,1,321.56,15.87Z"/><path class="cls-2" d="M334.88,15.7a1.79,1.79,0,0,1-1-.25.75.75,0,0,1-.33-.61l.19-.32a2,2,0,0,1-.44.46,3.09,3.09,0,0,1-.83.5,3.42,3.42,0,0,1-1.28.22,3.84,3.84,0,0,1-1.66-.38,4.59,4.59,0,0,1-1.39-1.06,5.07,5.07,0,0,1-1-1.53,4.59,4.59,0,0,1-.36-1.8,4.49,4.49,0,0,1,.36-1.78,4.93,4.93,0,0,1,1-1.5,5,5,0,0,1,1.4-1,3.76,3.76,0,0,1,1.65-.37,3.28,3.28,0,0,1,1.2.19,3.41,3.41,0,0,1,.83.47,2.62,2.62,0,0,1,.5.51l-.15-.26a.77.77,0,0,1,.31-.7,2.53,2.53,0,0,1,2,0,.92.92,0,0,1,.36.56,4,4,0,0,1,.06.72v6.55a4.17,4.17,0,0,1-.06.71.9.9,0,0,1-.36.54A1.9,1.9,0,0,1,334.88,15.7Zm-3.31-2.83a1.66,1.66,0,0,0,.9-.26,1.8,1.8,0,0,0,.65-.69,2,2,0,0,0,.24-1,1.86,1.86,0,0,0-.25-1,1.9,1.9,0,0,0-.66-.69,1.74,1.74,0,0,0-.92-.25,1.85,1.85,0,0,0-1,.26,2,2,0,0,0-.69.71,1.92,1.92,0,0,0-.25,1,1.81,1.81,0,0,0,.25.94,2,2,0,0,0,1.7.94Z"/><path class="cls-2" d="M339.53,15.72a1.83,1.83,0,0,1-1-.2.87.87,0,0,1-.37-.55,4,4,0,0,1-.06-.7V7.64a3.08,3.08,0,0,1,.07-.7.9.9,0,0,1,.37-.53,1.91,1.91,0,0,1,1-.19,1.94,1.94,0,0,1,1,.18.79.79,0,0,1,.37.41,1.46,1.46,0,0,1,.08.41l-.23.12a2,2,0,0,1,.2-.28,3.14,3.14,0,0,1,.45-.42,2.8,2.8,0,0,1,.69-.37,2.73,2.73,0,0,1,.94-.15l.47,0a3.86,3.86,0,0,1,.53.11,2.54,2.54,0,0,1,.5.23,1.24,1.24,0,0,1,.37.35.86.86,0,0,1,.14.52,2.35,2.35,0,0,1-.36,1.32,1.06,1.06,0,0,1-.91.54,1.27,1.27,0,0,1-.46-.06l-.21-.11-.2-.11a1.31,1.31,0,0,0-.42,0,1.91,1.91,0,0,0-.54.08,1.54,1.54,0,0,0-.48.24,1.19,1.19,0,0,0-.34.4,1.14,1.14,0,0,0-.12.52v4.18a3.84,3.84,0,0,1-.07.69.77.77,0,0,1-.37.53A2.06,2.06,0,0,1,339.53,15.72Z"/><path class="cls-2" d="M27.84,40.72a4.9,4.9,0,0,1-1.7-.31,5.27,5.27,0,0,1-1.6-.93A4.52,4.52,0,0,1,23.37,38a4.71,4.71,0,0,1-.43-2.08,4.64,4.64,0,0,1,.43-2.07,4.45,4.45,0,0,1,1.16-1.5,5.3,5.3,0,0,1,3.27-1.24,4.82,4.82,0,0,1,1.26.16,4.25,4.25,0,0,1,1,.39,3.31,3.31,0,0,1,.56.4,4.84,4.84,0,0,1,.57.5.8.8,0,0,1,.23.64,1.06,1.06,0,0,1-.13.43A3.39,3.39,0,0,1,31,34q-.57.8-1.14.72a1.79,1.79,0,0,1-.52-.19,4.92,4.92,0,0,1-.45-.28,2.92,2.92,0,0,0-.47-.23,1.42,1.42,0,0,0-.57-.1,1.92,1.92,0,0,0-1,.25,1.8,1.8,0,0,0-.69.68,2,2,0,0,0-.26,1,1.92,1.92,0,0,0,.26,1,2,2,0,0,0,.68.69,1.87,1.87,0,0,0,1,.26,1.84,1.84,0,0,0,.56-.08,1.74,1.74,0,0,0,.41-.18l.27-.16.43-.28a.88.88,0,0,1,.44-.12,1,1,0,0,1,.55.2,2.93,2.93,0,0,1,.63.64,1.6,1.6,0,0,1,.35.74.89.89,0,0,1-.16.64,2.23,2.23,0,0,1-.65.59,3.06,3.06,0,0,1-.54.34,5.07,5.07,0,0,1-.95.38A4.09,4.09,0,0,1,27.84,40.72Z"/><path class="cls-2" d="M37.58,40.8a4.85,4.85,0,0,1-1.77-.35,5.3,5.3,0,0,1-1.61-1,4.68,4.68,0,0,1-1.56-3.55A4.86,4.86,0,0,1,33,34a5.09,5.09,0,0,1,1.07-1.57,5.15,5.15,0,0,1,1.57-1.07A4.63,4.63,0,0,1,37.55,31a4.86,4.86,0,0,1,2.48.65,5,5,0,0,1,1.77,1.78,4.74,4.74,0,0,1,.67,2.49A4.69,4.69,0,0,1,42,37.94a5,5,0,0,1-2.72,2.53A4.8,4.8,0,0,1,37.58,40.8Zm0-2.87a2.06,2.06,0,0,0,.93-.23,2.16,2.16,0,0,0,.8-.68,2,2,0,0,0,.32-1.16,2,2,0,0,0-.27-1.06,1.87,1.87,0,0,0-.73-.72,2.2,2.2,0,0,0-1.07-.25,2,2,0,0,0-1,.26,2,2,0,0,0-.72.74,2.06,2.06,0,0,0-.28,1.05A2,2,0,0,0,35.83,37a1.84,1.84,0,0,0,.79.68A2.11,2.11,0,0,0,37.55,37.93Z"/><path class="cls-2" d="M45.36,40.65a1.87,1.87,0,0,1-1-.2.78.78,0,0,1-.36-.54,3.29,3.29,0,0,1-.07-.71V32.57a3.13,3.13,0,0,1,.08-.7.84.84,0,0,1,.37-.52,1.86,1.86,0,0,1,1-.2,1.89,1.89,0,0,1,1,.18.77.77,0,0,1,.37.42,1.4,1.4,0,0,1,.08.41l-.23.11a2.88,2.88,0,0,1,.2-.28,2.65,2.65,0,0,1,.45-.41,2.7,2.7,0,0,1,1.63-.53l.47,0a2.68,2.68,0,0,1,.53.12,2.05,2.05,0,0,1,.5.22,1.16,1.16,0,0,1,.37.36.85.85,0,0,1,.15.51,2.33,2.33,0,0,1-.36,1.32,1.09,1.09,0,0,1-.92.54,1.21,1.21,0,0,1-.45-.06A.9.9,0,0,1,48.9,34a.93.93,0,0,0-.2-.1,1.07,1.07,0,0,0-.42-.05,1.9,1.9,0,0,0-.54.07,1.54,1.54,0,0,0-.48.24,1.19,1.19,0,0,0-.34.4,1.14,1.14,0,0,0-.12.52v4.18a3.2,3.2,0,0,1-.07.7.75.75,0,0,1-.37.52A1.94,1.94,0,0,1,45.36,40.65Z"/><path class="cls-2" d="M53.68,40.65a1.9,1.9,0,0,1-1-.2.78.78,0,0,1-.36-.54,3.29,3.29,0,0,1-.07-.71V32.57a3.13,3.13,0,0,1,.08-.7.84.84,0,0,1,.37-.52,1.87,1.87,0,0,1,1-.2,1.94,1.94,0,0,1,1,.18.81.81,0,0,1,.37.42,1.35,1.35,0,0,1,.07.41l-.23.11.2-.28a2.65,2.65,0,0,1,.45-.41,2.51,2.51,0,0,1,.69-.37,2.54,2.54,0,0,1,.94-.16l.47,0a2.68,2.68,0,0,1,.53.12,2.05,2.05,0,0,1,.5.22,1.31,1.31,0,0,1,.38.36.93.93,0,0,1,.14.51,2.33,2.33,0,0,1-.36,1.32,1.08,1.08,0,0,1-.92.54,1.21,1.21,0,0,1-.45-.06.9.9,0,0,1-.22-.11.93.93,0,0,0-.2-.1,1,1,0,0,0-.42-.05,1.9,1.9,0,0,0-.54.07,1.4,1.4,0,0,0-.47.24,1.22,1.22,0,0,0-.35.4,1.14,1.14,0,0,0-.12.52v4.18a3.2,3.2,0,0,1-.07.7.75.75,0,0,1-.37.52A1.91,1.91,0,0,1,53.68,40.65Z"/><path class="cls-2" d="M65.29,40.82A5.5,5.5,0,0,1,63,40.38a4.33,4.33,0,0,1-1.57-1.15,4.53,4.53,0,0,1-.9-1.58,5.41,5.41,0,0,1-.3-1.75,4.94,4.94,0,0,1,.65-2.53,4.72,4.72,0,0,1,1.78-1.74A5.36,5.36,0,0,1,65.29,31a4.6,4.6,0,0,1,1.9.35,3.77,3.77,0,0,1,2.11,2.12,3.16,3.16,0,0,1,.26,1.23,2.12,2.12,0,0,1-.5,1.55,1.74,1.74,0,0,1-1.29.5H63.25a1.45,1.45,0,0,0,.35.84,2.08,2.08,0,0,0,.79.53,2.63,2.63,0,0,0,1,.19,4.82,4.82,0,0,0,.8-.05,2.88,2.88,0,0,0,.59-.13l.45-.17.37-.14a1.25,1.25,0,0,1,.32-.08.77.77,0,0,1,.52.16,1.62,1.62,0,0,1,.43.54,1.71,1.71,0,0,1,.18.4,1.69,1.69,0,0,1,0,.38,1,1,0,0,1-.46.82,3.56,3.56,0,0,1-1.31.57A8.65,8.65,0,0,1,65.29,40.82Zm-2-5.62h3a.74.74,0,0,0,.45-.11c.1-.07.14-.2.14-.41a.93.93,0,0,0-.21-.6,1.32,1.32,0,0,0-.56-.4,2.2,2.2,0,0,0-.8-.14,2.35,2.35,0,0,0-1,.23,1.85,1.85,0,0,0-.71.61A1.43,1.43,0,0,0,63.25,35.2Z"/><path class="cls-2" d="M75.75,40.72a5,5,0,0,1-1.7-.31,5.35,5.35,0,0,1-1.59-.93A4.52,4.52,0,0,1,71.29,38a4.72,4.72,0,0,1-.44-2.08,4.64,4.64,0,0,1,.44-2.07,4.45,4.45,0,0,1,1.16-1.5,5.24,5.24,0,0,1,3.27-1.24,4.88,4.88,0,0,1,1.26.16,4.46,4.46,0,0,1,1,.39,3.31,3.31,0,0,1,.56.4,4.84,4.84,0,0,1,.57.5.83.83,0,0,1,.23.64,1.24,1.24,0,0,1-.13.43,4.82,4.82,0,0,1-.29.45q-.57.8-1.14.72a1.79,1.79,0,0,1-.52-.19l-.46-.28a2.47,2.47,0,0,0-.46-.23,1.48,1.48,0,0,0-.57-.1,1.93,1.93,0,0,0-1.69.93,2,2,0,0,0-.25,1,1.92,1.92,0,0,0,.25,1,2,2,0,0,0,.69.69,1.82,1.82,0,0,0,1,.26,1.89,1.89,0,0,0,.56-.08,2,2,0,0,0,.41-.18l.26-.16.44-.28a.88.88,0,0,1,.44-.12,1,1,0,0,1,.55.2,2.93,2.93,0,0,1,.63.64,1.6,1.6,0,0,1,.35.74.94.94,0,0,1-.16.64,2.23,2.23,0,0,1-.65.59,3.06,3.06,0,0,1-.54.34,5.07,5.07,0,0,1-1,.38A4.2,4.2,0,0,1,75.75,40.72Z"/><path class="cls-2" d="M81.53,31.3h2.09l2.62-.08a3.84,3.84,0,0,1,.69.07.88.88,0,0,1,.53.37,1.83,1.83,0,0,1,.21,1,1.79,1.79,0,0,1-.2.95.93.93,0,0,1-.53.39,2.59,2.59,0,0,1-.7.08L83.75,34h-2.3a1,1,0,0,1-.77-.34,1.94,1.94,0,0,1-.21-1.05,1.6,1.6,0,0,1,.26-1A1,1,0,0,1,81.53,31.3Zm4.29,9.35a5.78,5.78,0,0,1-1.66-.21A2.77,2.77,0,0,1,83,39.79a2.59,2.59,0,0,1-.67-1.11,5.07,5.07,0,0,1-.22-1.6V29.36a2.84,2.84,0,0,1,.07-.68.75.75,0,0,1,.37-.5,1.77,1.77,0,0,1,1-.2,1.88,1.88,0,0,1,1,.2.84.84,0,0,1,.37.54,3.08,3.08,0,0,1,.07.7V37a1.87,1.87,0,0,0,0,.51.6.6,0,0,0,.14.29.49.49,0,0,0,.26.13,1.76,1.76,0,0,0,.42,0,3.22,3.22,0,0,1,.74.08.8.8,0,0,1,.51.34,1.65,1.65,0,0,1,.18.89,1.78,1.78,0,0,1-.21,1,.82.82,0,0,1-.54.36A4,4,0,0,1,85.82,40.65Z"/><path class="cls-2" d="M96.79,40.63a1.71,1.71,0,0,1-1-.25.72.72,0,0,1-.33-.61l.19-.32a2.21,2.21,0,0,1-.44.47,3.08,3.08,0,0,1-.83.49,3.23,3.23,0,0,1-1.28.22,3.84,3.84,0,0,1-1.66-.38,4.6,4.6,0,0,1-1.4-1,5.49,5.49,0,0,1-1-1.53,4.82,4.82,0,0,1-.35-1.81A4.71,4.71,0,0,1,89,34.08a5.15,5.15,0,0,1,1-1.5,4.83,4.83,0,0,1,1.4-1,3.63,3.63,0,0,1,1.65-.38,3.08,3.08,0,0,1,1.2.2,3.6,3.6,0,0,1,.83.46,2.39,2.39,0,0,1,.5.52l-.15-.27a.76.76,0,0,1,.31-.69,1.82,1.82,0,0,1,1.06-.24,1.7,1.7,0,0,1,1,.21.87.87,0,0,1,.37.55,4.2,4.2,0,0,1,.06.72v6.56a4,4,0,0,1-.06.7.83.83,0,0,1-.37.54A1.83,1.83,0,0,1,96.79,40.63ZM93.48,37.8a1.66,1.66,0,0,0,.9-.26,1.8,1.8,0,0,0,.65-.69,2.06,2.06,0,0,0,0-2,2,2,0,0,0-.66-.68,1.75,1.75,0,0,0-.92-.26,1.83,1.83,0,0,0-1,.27,2,2,0,0,0-.68.7,1.92,1.92,0,0,0-.26,1,1.82,1.82,0,0,0,.26.94,2,2,0,0,0,1.7.94Z"/><path class="cls-2" d="M101.4,40.65a1.76,1.76,0,0,1-1-.21.81.81,0,0,1-.37-.53,5.16,5.16,0,0,1,0-.71V32.55a3.69,3.69,0,0,1,.06-.69.82.82,0,0,1,.37-.51,2,2,0,0,1,1-.2,1.61,1.61,0,0,1,1,.27,1.17,1.17,0,0,1,.32.91l-.25.21a1.83,1.83,0,0,1,.23-.33,3.3,3.3,0,0,1,.5-.47,2.92,2.92,0,0,1,.71-.43,2.16,2.16,0,0,1,.88-.18,3.31,3.31,0,0,1,1.13.18,2.86,2.86,0,0,1,.91.53,3.38,3.38,0,0,1,.72.89,4.82,4.82,0,0,1,.64-.75,3.42,3.42,0,0,1,.91-.6,2.57,2.57,0,0,1,1.16-.25,3.15,3.15,0,0,1,1.88.56,3.38,3.38,0,0,1,1.16,1.61,7,7,0,0,1,.4,2.52v3.4a4,4,0,0,1-.06.7.83.83,0,0,1-.37.53,2,2,0,0,1-1,.2,1.79,1.79,0,0,1-1-.21.82.82,0,0,1-.36-.54,3.86,3.86,0,0,1-.07-.7V35.8a3.06,3.06,0,0,0-.13-1,1.21,1.21,0,0,0-.41-.62,1,1,0,0,0-.69-.22,1.34,1.34,0,0,0-.74.2,1.17,1.17,0,0,0-.46.61,3,3,0,0,0-.15,1v3.4a2.37,2.37,0,0,1-.1.72.88.88,0,0,1-.4.53,1.88,1.88,0,0,1-1,.18,1.74,1.74,0,0,1-1-.23.83.83,0,0,1-.34-.54,3.82,3.82,0,0,1-.06-.68V35.8a3.17,3.17,0,0,0-.13-1,1.22,1.22,0,0,0-.4-.62,1.1,1.1,0,0,0-.7-.21,1.16,1.16,0,0,0-.78.25,1.39,1.39,0,0,0-.45.65,2.91,2.91,0,0,0-.14.92v3.42a3.17,3.17,0,0,1-.07.71.8.8,0,0,1-.37.52A1.94,1.94,0,0,1,101.4,40.65Z"/><path class="cls-2" d="M120.27,40.82a5.5,5.5,0,0,1-2.29-.44,4.42,4.42,0,0,1-1.57-1.15,4.87,4.87,0,0,1-.9-1.58,5.4,5.4,0,0,1-.29-1.75,4.93,4.93,0,0,1,.64-2.53,4.75,4.75,0,0,1,1.79-1.74,5.32,5.32,0,0,1,2.62-.63,4.69,4.69,0,0,1,1.91.35,3.92,3.92,0,0,1,1.33.91,3.79,3.79,0,0,1,.78,1.21,3.36,3.36,0,0,1,.26,1.23,2.08,2.08,0,0,1-.51,1.55,1.7,1.7,0,0,1-1.28.5h-4.52a1.33,1.33,0,0,0,.35.84,2,2,0,0,0,.79.53,2.58,2.58,0,0,0,1,.19,4.75,4.75,0,0,0,.8-.05,2.73,2.73,0,0,0,.59-.13l.46-.17.37-.14a1.29,1.29,0,0,1,.31-.08.75.75,0,0,1,.52.16,1.62,1.62,0,0,1,.43.54,1.38,1.38,0,0,1,.18.4,1.73,1.73,0,0,1,0,.38,1,1,0,0,1-.47.82,3.48,3.48,0,0,1-1.31.57A8.53,8.53,0,0,1,120.27,40.82Zm-2-5.62h3a.78.78,0,0,0,.45-.11.49.49,0,0,0,.14-.41.93.93,0,0,0-.21-.6,1.46,1.46,0,0,0-.56-.4,2.25,2.25,0,0,0-.81-.14,2.31,2.31,0,0,0-1,.23,1.88,1.88,0,0,0-.72.61A1.42,1.42,0,0,0,118.24,35.2Z"/><path class="cls-2" d="M127.47,40.63a1.9,1.9,0,0,1-1-.2.85.85,0,0,1-.36-.53,3.88,3.88,0,0,1-.06-.7V32.52a3,3,0,0,1,.07-.68.84.84,0,0,1,.37-.5,1.91,1.91,0,0,1,1-.19,1.83,1.83,0,0,1,.89.16.76.76,0,0,1,.37.39,1.14,1.14,0,0,1,.09.43.58.58,0,0,0,0,.27l-.12.36a1.2,1.2,0,0,1,.3-.58,2.87,2.87,0,0,1,.64-.53,3.52,3.52,0,0,1,.84-.37,3,3,0,0,1,.88-.13,3.86,3.86,0,0,1,1.63.33,3.28,3.28,0,0,1,1.2,1,4.44,4.44,0,0,1,.75,1.47,6.11,6.11,0,0,1,.26,1.86v3.45a3.2,3.2,0,0,1-.07.7.76.76,0,0,1-.36.52,1.87,1.87,0,0,1-1,.19,1.93,1.93,0,0,1-1-.2.83.83,0,0,1-.37-.53,3.13,3.13,0,0,1-.08-.7V35.77a2.18,2.18,0,0,0-.19-1,1.32,1.32,0,0,0-.57-.62,1.78,1.78,0,0,0-.93-.22,1.91,1.91,0,0,0-1,.23,1.63,1.63,0,0,0-.62.63,2,2,0,0,0-.21,1v3.45a4,4,0,0,1-.07.7.76.76,0,0,1-.36.52A1.91,1.91,0,0,1,127.47,40.63Z"/><path class="cls-2" d="M137.62,31.3h2.09l2.62-.08a3.64,3.64,0,0,1,.68.07.88.88,0,0,1,.54.37,1.94,1.94,0,0,1,.2,1,1.7,1.7,0,0,1-.2.95A.88.88,0,0,1,143,34a2.59,2.59,0,0,1-.7.08L139.84,34h-2.3a.94.94,0,0,1-.77-.34,1.93,1.93,0,0,1-.22-1.05,1.59,1.59,0,0,1,.27-1A1,1,0,0,1,137.62,31.3Zm4.29,9.35a5.78,5.78,0,0,1-1.66-.21,2.62,2.62,0,0,1-1.83-1.76,5.4,5.4,0,0,1-.21-1.6V29.36a3.51,3.51,0,0,1,.06-.68.82.82,0,0,1,.37-.5,1.81,1.81,0,0,1,1-.2,1.88,1.88,0,0,1,1,.2.88.88,0,0,1,.37.54,3.77,3.77,0,0,1,.07.7V37a2.45,2.45,0,0,0,0,.51.53.53,0,0,0,.15.29.49.49,0,0,0,.26.13,1.76,1.76,0,0,0,.42,0,3.22,3.22,0,0,1,.74.08.77.77,0,0,1,.5.34,1.55,1.55,0,0,1,.19.89,1.78,1.78,0,0,1-.21,1,.82.82,0,0,1-.55.36A3.85,3.85,0,0,1,141.91,40.65Z"/><path class="cls-2" d="M149.83,40.82a5.54,5.54,0,0,1-2.29-.44A4.29,4.29,0,0,1,146,39.23a4.72,4.72,0,0,1-.91-1.58,5.68,5.68,0,0,1-.29-1.75,4.94,4.94,0,0,1,.65-2.53,4.72,4.72,0,0,1,1.78-1.74,5.35,5.35,0,0,1,2.62-.63,4.65,4.65,0,0,1,1.91.35,3.92,3.92,0,0,1,1.33.91,3.79,3.79,0,0,1,.78,1.21,3.36,3.36,0,0,1,.26,1.23,2.12,2.12,0,0,1-.5,1.55,1.74,1.74,0,0,1-1.29.5H147.8a1.39,1.39,0,0,0,.35.84,2,2,0,0,0,.79.53,2.63,2.63,0,0,0,1,.19,4.82,4.82,0,0,0,.8-.05,3,3,0,0,0,.59-.13l.45-.17.37-.14a1.29,1.29,0,0,1,.31-.08.79.79,0,0,1,.53.16,1.49,1.49,0,0,1,.42.54,1.79,1.79,0,0,1,.19.4,1.69,1.69,0,0,1,0,.38,1,1,0,0,1-.46.82,3.56,3.56,0,0,1-1.31.57A8.68,8.68,0,0,1,149.83,40.82Zm-2-5.62h3a.76.76,0,0,0,.45-.11.49.49,0,0,0,.14-.41.93.93,0,0,0-.21-.6,1.39,1.39,0,0,0-.56-.4,2.2,2.2,0,0,0-.8-.14,2.32,2.32,0,0,0-1,.23,1.85,1.85,0,0,0-.71.61A1.43,1.43,0,0,0,147.8,35.2Z"/><path class="cls-2" d="M165.53,40.94a9.39,9.39,0,0,1-1.38-.09,3.28,3.28,0,0,1-1-.31,1.89,1.89,0,0,1-.69-.63,2.77,2.77,0,0,1-.39-1,8.72,8.72,0,0,1-.12-1.57V28.53a3.8,3.8,0,0,1,.06-.7.86.86,0,0,1,.37-.53,1.82,1.82,0,0,1,1-.21,1.74,1.74,0,0,1,1,.21.86.86,0,0,1,.37.53,3.06,3.06,0,0,1,.08.7v8.65a3.43,3.43,0,0,0,0,.5.55.55,0,0,0,.11.31.38.38,0,0,0,.24.15,1.45,1.45,0,0,0,.4,0,1.88,1.88,0,0,1,.46.06.67.67,0,0,1,.41.34,2,2,0,0,1,.17,1,2.17,2.17,0,0,1-.17,1,.67.67,0,0,1-.41.36A2,2,0,0,1,165.53,40.94Z"/><path class="cls-2" d="M172.44,41.09a4.81,4.81,0,0,1-1.77-.35,5.5,5.5,0,0,1-1.61-1,4.76,4.76,0,0,1-1.14-1.55,4.68,4.68,0,0,1-.42-2,4.82,4.82,0,0,1,.38-1.91A5.09,5.09,0,0,1,169,32.71a4.93,4.93,0,0,1,1.56-1.07,4.63,4.63,0,0,1,1.89-.39,4.83,4.83,0,0,1,2.48.65,5,5,0,0,1,1.78,1.78,5,5,0,0,1,.24,4.55,5.07,5.07,0,0,1-1.14,1.55,5.22,5.22,0,0,1-1.58,1A4.88,4.88,0,0,1,172.44,41.09Zm0-2.87a2.2,2.2,0,0,0,.94-.23,2.06,2.06,0,0,0,.79-.68,1.94,1.94,0,0,0,.33-1.16,2,2,0,0,0-.27-1.06,1.87,1.87,0,0,0-.73-.72,2.2,2.2,0,0,0-1.07-.25,1.94,1.94,0,0,0-1,.26,2.14,2.14,0,0,0-.68,2.94,1.82,1.82,0,0,0,.78.68A2.18,2.18,0,0,0,172.4,38.22Z"/><path class="cls-2" d="M182.21,41.09A6.51,6.51,0,0,1,181.1,41a6.81,6.81,0,0,1-1.17-.34,3.4,3.4,0,0,1-1-.51,1,1,0,0,1-.44-.67,1.14,1.14,0,0,1,0-.41,1.56,1.56,0,0,1,.18-.46,5.91,5.91,0,0,1,.32-.5.73.73,0,0,1,.35-.27.71.71,0,0,1,.43,0,2.49,2.49,0,0,1,.62.2l.63.3a5.37,5.37,0,0,0,.65.29,2.16,2.16,0,0,0,.71.12,1.68,1.68,0,0,0,.82-.16.5.5,0,0,0,.3-.45.45.45,0,0,0-.13-.34,1,1,0,0,0-.34-.24l-.5-.18-.62-.16c-.22,0-.45-.11-.67-.18a6,6,0,0,1-.92-.34,3.26,3.26,0,0,1-.79-.54,2.41,2.41,0,0,1-.57-.82,3,3,0,0,1-.21-1.19,2.62,2.62,0,0,1,.43-1.55,2.76,2.76,0,0,1,1.28-1,5.48,5.48,0,0,1,2-.34c.23,0,.46,0,.68,0a3.91,3.91,0,0,1,.68.14,4.94,4.94,0,0,1,1.3.55.83.83,0,0,1,.59.72,1.56,1.56,0,0,1-.32.93,1.5,1.5,0,0,1-.44.46.59.59,0,0,1-.48.09,3,3,0,0,1-.65-.25c-.24-.11-.48-.22-.74-.32a2.15,2.15,0,0,0-.77-.15,1.73,1.73,0,0,0-.55.08.81.81,0,0,0-.34.23.52.52,0,0,0-.12.33.53.53,0,0,0,.14.39,1.08,1.08,0,0,0,.39.24,5.6,5.6,0,0,0,.57.17l.71.15c.34.07.69.15,1.05.26a3.47,3.47,0,0,1,1,.47,2.18,2.18,0,0,1,.72.81,2.91,2.91,0,0,1,.28,1.35,2.71,2.71,0,0,1-1.05,2.3A4.85,4.85,0,0,1,182.21,41.09Z"/><path class="cls-2" d="M195.54,40.72a1.76,1.76,0,0,1-1-.21.76.76,0,0,1-.36-.54,3.73,3.73,0,0,1-.06-.7V32.62a3.69,3.69,0,0,1,.06-.69.84.84,0,0,1,.38-.52,1.91,1.91,0,0,1,1-.19,1.61,1.61,0,0,1,1,.27,1.14,1.14,0,0,1,.32.9l-.25.21a2.38,2.38,0,0,1,.23-.32,3.89,3.89,0,0,1,.5-.48,3.25,3.25,0,0,1,.71-.42,2.16,2.16,0,0,1,.88-.18,3.31,3.31,0,0,1,1.13.18,2.69,2.69,0,0,1,.91.53,3.33,3.33,0,0,1,.72.88,4.77,4.77,0,0,1,.64-.74,3.71,3.71,0,0,1,.91-.61,2.7,2.7,0,0,1,1.16-.24,3.08,3.08,0,0,1,1.88.56,3.4,3.4,0,0,1,1.16,1.6,7,7,0,0,1,.4,2.53v3.4a3.85,3.85,0,0,1-.06.69.85.85,0,0,1-.37.54,2,2,0,0,1-1,.2,1.79,1.79,0,0,1-1-.21.9.9,0,0,1-.36-.54,4.05,4.05,0,0,1-.07-.7v-3.4a3.17,3.17,0,0,0-.13-1,1.23,1.23,0,0,0-.41-.61,1,1,0,0,0-.69-.22,1.26,1.26,0,0,0-.74.2,1.19,1.19,0,0,0-.46.6,3.09,3.09,0,0,0-.15,1v3.4a2.71,2.71,0,0,1-.09.71.9.9,0,0,1-.41.53,1.77,1.77,0,0,1-1,.19,1.83,1.83,0,0,1-1-.23.83.83,0,0,1-.34-.54,3.91,3.91,0,0,1-.06-.68v-3.4a3.28,3.28,0,0,0-.13-1,1.23,1.23,0,0,0-.4-.61,1.1,1.1,0,0,0-.7-.21,1.21,1.21,0,0,0-.78.24,1.47,1.47,0,0,0-.45.66,2.91,2.91,0,0,0-.14.92v3.42a3.08,3.08,0,0,1-.07.7.82.82,0,0,1-.37.53A1.94,1.94,0,0,1,195.54,40.72Z"/><path class="cls-2" d="M217.45,40.7a1.75,1.75,0,0,1-1-.25.73.73,0,0,1-.34-.61l.19-.32a1.91,1.91,0,0,1-.43.46,3.12,3.12,0,0,1-2.11.72,3.85,3.85,0,0,1-1.67-.38,4.59,4.59,0,0,1-1.39-1.06,5.07,5.07,0,0,1-1-1.53,4.58,4.58,0,0,1-.35-1.8,4.49,4.49,0,0,1,.35-1.78,5,5,0,0,1,1-1.5,4.82,4.82,0,0,1,1.39-1,3.77,3.77,0,0,1,1.66-.37,3.23,3.23,0,0,1,1.19.19,3.41,3.41,0,0,1,.83.47,2.62,2.62,0,0,1,.5.51l-.15-.26a.76.76,0,0,1,.32-.7,1.82,1.82,0,0,1,1.05-.23,1.84,1.84,0,0,1,1,.2.88.88,0,0,1,.36.56,4,4,0,0,1,.07.72v6.55a4.17,4.17,0,0,1-.07.71.86.86,0,0,1-.36.54A1.9,1.9,0,0,1,217.45,40.7Zm-3.3-2.83a1.68,1.68,0,0,0,.9-.26,1.77,1.77,0,0,0,.64-.69,2,2,0,0,0,.24-1,1.86,1.86,0,0,0-.25-1,1.82,1.82,0,0,0-.66-.69,1.71,1.71,0,0,0-.91-.25,1.86,1.86,0,0,0-1,.26,2.13,2.13,0,0,0-.69.71,1.92,1.92,0,0,0-.25,1,1.81,1.81,0,0,0,.25.94,2,2,0,0,0,.71.68A2,2,0,0,0,214.15,37.87Z"/><path class="cls-2" d="M221.27,31.37h2.09l2.62-.08a3.11,3.11,0,0,1,.69.07.84.84,0,0,1,.53.37,2.44,2.44,0,0,1,0,2,.87.87,0,0,1-.53.38,2.58,2.58,0,0,1-.7.09l-2.49-.06h-2.3a.92.92,0,0,1-.77-.33,2,2,0,0,1-.21-1.05,1.6,1.6,0,0,1,.26-1A1,1,0,0,1,221.27,31.37Zm4.29,9.35a5.78,5.78,0,0,1-1.66-.21,2.88,2.88,0,0,1-1.15-.65,2.59,2.59,0,0,1-.67-1.11,5.14,5.14,0,0,1-.22-1.61V29.43a2.84,2.84,0,0,1,.07-.68.75.75,0,0,1,.37-.51,1.86,1.86,0,0,1,1-.2,1.78,1.78,0,0,1,1,.21.84.84,0,0,1,.37.53,3.17,3.17,0,0,1,.07.71V37a1.79,1.79,0,0,0,0,.5.65.65,0,0,0,.14.3.49.49,0,0,0,.26.13,1.76,1.76,0,0,0,.42,0,3.26,3.26,0,0,1,.74.07.85.85,0,0,1,.51.35,1.62,1.62,0,0,1,.18.89,1.78,1.78,0,0,1-.21,1,.82.82,0,0,1-.54.36A4,4,0,0,1,225.56,40.72Z"/><path class="cls-2" d="M233.49,40.89a5.5,5.5,0,0,1-2.29-.44,4.42,4.42,0,0,1-1.57-1.15,4.58,4.58,0,0,1-.9-1.59,5.31,5.31,0,0,1-.3-1.74,4.91,4.91,0,0,1,.65-2.53,4.54,4.54,0,0,1,1.79-1.74,5.3,5.3,0,0,1,2.62-.64,4.86,4.86,0,0,1,1.91.35,4,4,0,0,1,1.33.92,4.12,4.12,0,0,1,.78,1.2,3.38,3.38,0,0,1,.25,1.24,2.14,2.14,0,0,1-.5,1.55,1.76,1.76,0,0,1-1.28.5h-4.53a1.4,1.4,0,0,0,.36.84,2.2,2.2,0,0,0,.78.53,2.67,2.67,0,0,0,1,.19,6.1,6.1,0,0,0,.8-.05,2.88,2.88,0,0,0,.59-.13l.45-.17.37-.15a2.06,2.06,0,0,1,.32-.07.77.77,0,0,1,.52.16,1.62,1.62,0,0,1,.43.54,1.27,1.27,0,0,1,.18.4,1.65,1.65,0,0,1,.05.38,1,1,0,0,1-.47.82,3.56,3.56,0,0,1-1.31.57A8.53,8.53,0,0,1,233.49,40.89Zm-2-5.63h3a.73.73,0,0,0,.44-.1.47.47,0,0,0,.14-.41.91.91,0,0,0-.2-.6,1.46,1.46,0,0,0-.56-.4,2.29,2.29,0,0,0-.81-.14,2.38,2.38,0,0,0-1.05.23,1.77,1.77,0,0,0-.71.61A1.42,1.42,0,0,0,231.45,35.26Z"/><path class="cls-2" d="M240.69,40.72a1.9,1.9,0,0,1-1-.2.82.82,0,0,1-.36-.55,3.2,3.2,0,0,1-.07-.7V32.64a3.06,3.06,0,0,1,.08-.7.86.86,0,0,1,.37-.53,1.91,1.91,0,0,1,1-.19,1.94,1.94,0,0,1,1,.18.84.84,0,0,1,.37.41,1.4,1.4,0,0,1,.07.41l-.23.12c0-.05.1-.15.2-.28a3.14,3.14,0,0,1,.45-.42,2.8,2.8,0,0,1,.69-.37,2.77,2.77,0,0,1,.94-.15l.47,0a3.58,3.58,0,0,1,.53.11,2.64,2.64,0,0,1,.51.23,1.38,1.38,0,0,1,.37.35.94.94,0,0,1,.14.52,2.35,2.35,0,0,1-.36,1.32,1.07,1.07,0,0,1-.91.54,1.23,1.23,0,0,1-.46-.06l-.22-.11a1,1,0,0,0-.2-.11,1.22,1.22,0,0,0-.42,0,1.91,1.91,0,0,0-.54.08,1.4,1.4,0,0,0-.47.24,1.09,1.09,0,0,0-.34.4,1,1,0,0,0-.13.52v4.18a3.85,3.85,0,0,1-.06.69.79.79,0,0,1-.38.53A2,2,0,0,1,240.69,40.72Z"/><path class="cls-2" d="M249.1,29.85a1.85,1.85,0,0,1-1-.21.83.83,0,0,1-.37-.55,3.38,3.38,0,0,1-.07-.72,3.43,3.43,0,0,1,.08-.74.83.83,0,0,1,.38-.53,2,2,0,0,1,1-.2,1.83,1.83,0,0,1,1,.21.83.83,0,0,1,.37.55,3.79,3.79,0,0,1,0,1.45.82.82,0,0,1-.37.54A2,2,0,0,1,249.1,29.85Zm0,10.87a1.86,1.86,0,0,1-1-.2.8.8,0,0,1-.36-.54,3.11,3.11,0,0,1-.07-.69V32.66a3.08,3.08,0,0,1,.07-.7.79.79,0,0,1,.37-.53,1.91,1.91,0,0,1,1-.19,1.73,1.73,0,0,1,1,.2.82.82,0,0,1,.36.54,3.14,3.14,0,0,1,.07.72v6.61a3.11,3.11,0,0,1-.07.69.76.76,0,0,1-.36.53A2,2,0,0,1,249.1,40.72Z"/><path class="cls-2" d="M260.22,40.7a1.79,1.79,0,0,1-1-.25.75.75,0,0,1-.33-.61l.19-.32a2,2,0,0,1-.44.46,3.09,3.09,0,0,1-.83.5,3.36,3.36,0,0,1-1.27.22,3.85,3.85,0,0,1-1.67-.38,4.59,4.59,0,0,1-1.39-1.06,5.07,5.07,0,0,1-1-1.53,4.59,4.59,0,0,1-.36-1.8,4.49,4.49,0,0,1,.36-1.78,5,5,0,0,1,2.36-2.54,3.77,3.77,0,0,1,1.66-.37,3.27,3.27,0,0,1,1.19.19,3.41,3.41,0,0,1,.83.47,2.62,2.62,0,0,1,.5.51l-.15-.26a.77.77,0,0,1,.31-.7,2.53,2.53,0,0,1,2,0,.92.92,0,0,1,.36.56,4,4,0,0,1,.06.72v6.55a4.17,4.17,0,0,1-.06.71.9.9,0,0,1-.36.54A1.9,1.9,0,0,1,260.22,40.7Zm-3.31-2.83a1.72,1.72,0,0,0,.91-.26,1.85,1.85,0,0,0,.64-.69,2,2,0,0,0,.24-1,1.86,1.86,0,0,0-.25-1,1.82,1.82,0,0,0-.66-.69,1.74,1.74,0,0,0-.92-.25,1.85,1.85,0,0,0-1,.26,2,2,0,0,0-.69.71,1.92,1.92,0,0,0-.25,1,1.81,1.81,0,0,0,.25.94,2,2,0,0,0,1.7.94Z"/><path class="cls-2" d="M267.1,40.72a9.39,9.39,0,0,1-1.38-.09,3.28,3.28,0,0,1-1-.31,2,2,0,0,1-.69-.63,2.76,2.76,0,0,1-.39-1,8.52,8.52,0,0,1-.12-1.56V28.31a3.8,3.8,0,0,1,.06-.7.88.88,0,0,1,.37-.54,1.82,1.82,0,0,1,1-.21,1.74,1.74,0,0,1,1,.21.88.88,0,0,1,.37.54,3.06,3.06,0,0,1,.08.7V37a3.58,3.58,0,0,0,0,.51.55.55,0,0,0,.11.31.38.38,0,0,0,.24.15,1.45,1.45,0,0,0,.4,0,1.88,1.88,0,0,1,.46.06.67.67,0,0,1,.41.34,2,2,0,0,1,.17,1,2.17,2.17,0,0,1-.17,1,.67.67,0,0,1-.41.36A2,2,0,0,1,267.1,40.72Z"/><path class="cls-2" d="M274.16,40.89a5.54,5.54,0,0,1-2.29-.44,4.29,4.29,0,0,1-1.56-1.15,4.77,4.77,0,0,1-.91-1.59,5.57,5.57,0,0,1-.29-1.74,4.91,4.91,0,0,1,.65-2.53,4.58,4.58,0,0,1,1.78-1.74,5.35,5.35,0,0,1,2.62-.64,4.79,4.79,0,0,1,1.91.35,3.85,3.85,0,0,1,1.33.92,3.75,3.75,0,0,1,.78,1.2,3.41,3.41,0,0,1,.26,1.24,2.14,2.14,0,0,1-.5,1.55,1.78,1.78,0,0,1-1.29.5h-4.52a1.39,1.39,0,0,0,.35.84,2.24,2.24,0,0,0,.79.53,2.63,2.63,0,0,0,1,.19,6.22,6.22,0,0,0,.8-.05,3,3,0,0,0,.59-.13l.45-.17.37-.15a1.83,1.83,0,0,1,.32-.07.77.77,0,0,1,.52.16,1.62,1.62,0,0,1,.43.54,2,2,0,0,1,.18.4,1.64,1.64,0,0,1,0,.38,1,1,0,0,1-.46.82,3.56,3.56,0,0,1-1.31.57A8.68,8.68,0,0,1,274.16,40.89Zm-2-5.63h3a.77.77,0,0,0,.45-.1.5.5,0,0,0,.14-.41.91.91,0,0,0-.21-.6,1.39,1.39,0,0,0-.56-.4,2.2,2.2,0,0,0-.8-.14,2.32,2.32,0,0,0-1,.23,1.77,1.77,0,0,0-.71.61A1.42,1.42,0,0,0,272.13,35.26Z"/><path class="cls-2" d="M283.36,40.87a5.69,5.69,0,0,1-1.11-.12,6,6,0,0,1-1.17-.33,3.68,3.68,0,0,1-.95-.51,1.08,1.08,0,0,1-.44-.68,1.14,1.14,0,0,1,0-.41,1.62,1.62,0,0,1,.18-.45,4.29,4.29,0,0,1,.33-.5.66.66,0,0,1,.34-.27.75.75,0,0,1,.44,0,2.56,2.56,0,0,1,.61.2l.63.3a6.58,6.58,0,0,0,.66.29,2.06,2.06,0,0,0,.7.12,1.68,1.68,0,0,0,.82-.16.5.5,0,0,0,.3-.45.49.49,0,0,0-.12-.34,1.19,1.19,0,0,0-.35-.24,2.63,2.63,0,0,0-.5-.18l-.62-.16-.67-.18a5.5,5.5,0,0,1-.91-.34,3.13,3.13,0,0,1-.8-.54,2.41,2.41,0,0,1-.57-.82,3,3,0,0,1-.21-1.19,2.61,2.61,0,0,1,.44-1.56,2.81,2.81,0,0,1,1.27-1,5.53,5.53,0,0,1,2-.33c.23,0,.46,0,.69,0a5.28,5.28,0,0,1,.67.13c.22.07.44.14.66.23a6.36,6.36,0,0,1,.64.32.86.86,0,0,1,.59.73,1.89,1.89,0,0,1-.76,1.39.57.57,0,0,1-.47.09,2.85,2.85,0,0,1-.66-.25c-.23-.11-.48-.22-.74-.32a2.15,2.15,0,0,0-.77-.15,1.73,1.73,0,0,0-.55.08.81.81,0,0,0-.34.23.52.52,0,0,0-.12.33.5.5,0,0,0,.15.39.93.93,0,0,0,.39.24,4.73,4.73,0,0,0,.56.17l.71.15c.34.07.69.15,1,.26a3.74,3.74,0,0,1,1,.46,2.29,2.29,0,0,1,.72.82,2.76,2.76,0,0,1,.28,1.35,2.71,2.71,0,0,1-1.05,2.3A4.83,4.83,0,0,1,283.36,40.87Z"/><path class="cls-2" d="M297.14,40.13l-4.46-6.81a1.48,1.48,0,0,1-.34-1,1.59,1.59,0,0,1,.75-.86,1.67,1.67,0,0,1,1.15-.35,1.57,1.57,0,0,1,.83.75l3.29,5Zm-1.65,4.42c-.52-.22-.82-.48-.9-.76a1.61,1.61,0,0,1,.2-1.12L299.55,32a1.55,1.55,0,0,1,.72-.88,1.76,1.76,0,0,1,1.17.16c.5.24.8.5.88.76a1.6,1.6,0,0,1-.18,1.07l-4.79,10.73a1.57,1.57,0,0,1-.7.89A1.62,1.62,0,0,1,295.49,44.55Z"/><path class="cls-2" d="M316.31,40.7a1.75,1.75,0,0,1-1-.25.76.76,0,0,1-.34-.61l.19-.32a1.91,1.91,0,0,1-.43.46,3.12,3.12,0,0,1-2.11.72,3.81,3.81,0,0,1-1.66-.38,4.51,4.51,0,0,1-1.4-1.06,5.07,5.07,0,0,1-1-1.53,4.77,4.77,0,0,1-.35-1.8,4.67,4.67,0,0,1,.35-1.78,5,5,0,0,1,1-1.5,4.86,4.86,0,0,1,1.4-1,3.72,3.72,0,0,1,1.65-.37,3.28,3.28,0,0,1,1.2.19,3.53,3.53,0,0,1,.82.47,3.05,3.05,0,0,1,.51.51l-.16-.26a.78.78,0,0,1,.32-.7,1.82,1.82,0,0,1,1.05-.23,1.84,1.84,0,0,1,1,.2.84.84,0,0,1,.36.56,3.26,3.26,0,0,1,.07.72v6.55a3.35,3.35,0,0,1-.07.71.82.82,0,0,1-.36.54A1.9,1.9,0,0,1,316.31,40.7ZM313,37.87a1.66,1.66,0,0,0,.9-.26,1.88,1.88,0,0,0,.65-.69,2.13,2.13,0,0,0,.23-1,2,2,0,0,0-.24-1,1.93,1.93,0,0,0-.67-.69A1.71,1.71,0,0,0,313,34a1.89,1.89,0,0,0-1,.26,2,2,0,0,0-.68.71,1.92,1.92,0,0,0-.26,1,1.82,1.82,0,0,0,.26.94,1.9,1.9,0,0,0,.7.68A2,2,0,0,0,313,37.87Z"/><path class="cls-2" d="M329.1,40.79a4.94,4.94,0,0,1-1.7-.31,5.27,5.27,0,0,1-1.6-.93A4.65,4.65,0,0,1,324.63,38,4.75,4.75,0,0,1,324.2,36a4.64,4.64,0,0,1,.43-2.07,4.72,4.72,0,0,1,1.16-1.51,5.28,5.28,0,0,1,1.59-.92,4.91,4.91,0,0,1,1.68-.31,4.43,4.43,0,0,1,1.26.16,4.06,4.06,0,0,1,.95.39,3.33,3.33,0,0,1,.57.4,7.22,7.22,0,0,1,.57.49.81.81,0,0,1,.22.65,1.06,1.06,0,0,1-.13.43,4.54,4.54,0,0,1-.28.44c-.38.54-.76.78-1.14.73a2.22,2.22,0,0,1-.53-.19l-.45-.28a3.45,3.45,0,0,0-.47-.24,1.62,1.62,0,0,0-.57-.09,1.92,1.92,0,0,0-1,.25,1.8,1.8,0,0,0-.69.68,2,2,0,0,0-.26,1,1.91,1.91,0,0,0,.26,1,2,2,0,0,0,.68.7,1.86,1.86,0,0,0,1,.25,1.82,1.82,0,0,0,.56-.07,1.74,1.74,0,0,0,.41-.18c.12-.07.2-.13.27-.16a4.54,4.54,0,0,1,.44-.28.82.82,0,0,1,.43-.12.91.91,0,0,1,.55.2,3.09,3.09,0,0,1,.63.63,1.69,1.69,0,0,1,.35.74.9.9,0,0,1-.16.65,2.24,2.24,0,0,1-.65.59,3.06,3.06,0,0,1-.54.34,4.81,4.81,0,0,1-.95.38A4.09,4.09,0,0,1,329.1,40.79Z"/><path class="cls-2" d="M338.85,40.87a4.86,4.86,0,0,1-1.78-.35,5.63,5.63,0,0,1-1.61-1A4.76,4.76,0,0,1,334.32,38a4.83,4.83,0,0,1-.41-2,4.66,4.66,0,0,1,.38-1.91,4.89,4.89,0,0,1,1.06-1.57,5.12,5.12,0,0,1,1.57-1.08,5,5,0,0,1,4.37.27,5,5,0,0,1,1.77,1.78A5,5,0,0,1,343.3,38a4.76,4.76,0,0,1-1.14,1.55,4.89,4.89,0,0,1-1.58,1A4.59,4.59,0,0,1,338.85,40.87Zm0-2.87a2.2,2.2,0,0,0,.93-.23,2.09,2.09,0,0,0,.8-.68,2,2,0,0,0,.32-1.16,2.07,2.07,0,0,0-.27-1.07,1.85,1.85,0,0,0-.73-.71,2.2,2.2,0,0,0-1.07-.26,1.94,1.94,0,0,0-1,.27,2.1,2.1,0,0,0-.72.73,2.06,2.06,0,0,0-.27,1.06,2,2,0,0,0,.31,1.15,1.91,1.91,0,0,0,.79.68A2.11,2.11,0,0,0,338.81,38Z"/><path class="cls-2" d="M348.84,40.72a9.39,9.39,0,0,1-1.38-.09,3.14,3.14,0,0,1-1-.31,1.93,1.93,0,0,1-.7-.63,3.14,3.14,0,0,1-.39-1,8.52,8.52,0,0,1-.12-1.56V28.31a3.08,3.08,0,0,1,.07-.7.8.8,0,0,1,.37-.54,1.78,1.78,0,0,1,1-.21,1.7,1.7,0,0,1,1,.21.88.88,0,0,1,.37.54,3.06,3.06,0,0,1,.08.7V37a3.58,3.58,0,0,0,0,.51.75.75,0,0,0,.11.31.38.38,0,0,0,.24.15,1.45,1.45,0,0,0,.4,0,1.82,1.82,0,0,1,.46.06.67.67,0,0,1,.41.34,1.89,1.89,0,0,1,.17,1,2,2,0,0,1-.17,1,.67.67,0,0,1-.41.36A1.91,1.91,0,0,1,348.84,40.72Z"/><path class="cls-2" d="M355.76,40.87a4.86,4.86,0,0,1-1.78-.35,5.5,5.5,0,0,1-1.61-1A4.76,4.76,0,0,1,351.23,38a5,5,0,0,1,0-3.91,4.89,4.89,0,0,1,1.06-1.57,5.12,5.12,0,0,1,1.57-1.08,5,5,0,0,1,4.37.27A5,5,0,0,1,360,33.46a5,5,0,0,1,.24,4.55,4.76,4.76,0,0,1-1.14,1.55,4.89,4.89,0,0,1-1.58,1A4.59,4.59,0,0,1,355.76,40.87Zm0-2.87a2.2,2.2,0,0,0,.93-.23,2.16,2.16,0,0,0,.8-.68,2,2,0,0,0,.32-1.16,2.07,2.07,0,0,0-.27-1.07,1.85,1.85,0,0,0-.73-.71,2.2,2.2,0,0,0-1.07-.26,1.94,1.94,0,0,0-1,.27,2,2,0,0,0-.72.73,2.07,2.07,0,0,0-.28,1.06A2,2,0,0,0,354,37.1a1.91,1.91,0,0,0,.79.68A2.11,2.11,0,0,0,355.72,38Z"/><path class="cls-2" d="M366.79,40.79a5,5,0,0,1-1.7-.31,5.35,5.35,0,0,1-1.59-.93A4.52,4.52,0,0,1,362.33,38a4.75,4.75,0,0,1-.44-2.08,4.64,4.64,0,0,1,.44-2.07,4.59,4.59,0,0,1,1.16-1.51,5.36,5.36,0,0,1,1.58-.92,4.93,4.93,0,0,1,1.69-.31,4.38,4.38,0,0,1,2.21.55,2.83,2.83,0,0,1,.56.4,4.81,4.81,0,0,1,.57.49.85.85,0,0,1,.23.65,1.24,1.24,0,0,1-.13.43,4.73,4.73,0,0,1-.29.44c-.38.54-.76.78-1.14.73a2.14,2.14,0,0,1-.52-.19l-.46-.28a3.33,3.33,0,0,0-.46-.24,1.7,1.7,0,0,0-.57-.09,1.93,1.93,0,0,0-1.69.93,2,2,0,0,0-.25,1,1.91,1.91,0,0,0,.25,1,2,2,0,0,0,.69.7,1.81,1.81,0,0,0,1,.25,1.91,1.91,0,0,0,.56-.07,2,2,0,0,0,.41-.18l.26-.16.44-.28a.88.88,0,0,1,.44-.12.93.93,0,0,1,.55.2,3.09,3.09,0,0,1,.63.63,1.69,1.69,0,0,1,.35.74,1,1,0,0,1-.16.65,2.38,2.38,0,0,1-.65.59,3.06,3.06,0,0,1-.54.34,5.07,5.07,0,0,1-.95.38A4.2,4.2,0,0,1,366.79,40.79Z"/><path class="cls-2" d="M379.73,40.7a1.75,1.75,0,0,1-1-.25.75.75,0,0,1-.33-.61l.19-.32a2.24,2.24,0,0,1-.44.46,3.12,3.12,0,0,1-2.11.72,3.81,3.81,0,0,1-1.66-.38,4.63,4.63,0,0,1-1.4-1.06,5.27,5.27,0,0,1-1-1.53,4.77,4.77,0,0,1-.35-1.8,4.67,4.67,0,0,1,.35-1.78,5.15,5.15,0,0,1,1-1.5,4.86,4.86,0,0,1,1.4-1,3.76,3.76,0,0,1,1.65-.37,3.28,3.28,0,0,1,1.2.19,3.34,3.34,0,0,1,.82.47,3.05,3.05,0,0,1,.51.51l-.16-.26a.78.78,0,0,1,.32-.7,1.82,1.82,0,0,1,1.05-.23,1.84,1.84,0,0,1,1,.2.84.84,0,0,1,.36.56,3.26,3.26,0,0,1,.07.72v6.55a3.35,3.35,0,0,1-.07.71.82.82,0,0,1-.36.54A1.9,1.9,0,0,1,379.73,40.7Zm-3.3-2.83a1.66,1.66,0,0,0,.9-.26,1.88,1.88,0,0,0,.65-.69,2.13,2.13,0,0,0,.23-1,2,2,0,0,0-.24-1,1.93,1.93,0,0,0-.67-.69,1.71,1.71,0,0,0-.91-.25,1.89,1.89,0,0,0-1,.26,2.1,2.1,0,0,0-.68.71,1.92,1.92,0,0,0-.26,1,1.82,1.82,0,0,0,.26.94,1.9,1.9,0,0,0,.7.68A2,2,0,0,0,376.43,37.87Z"/><path class="cls-2" d="M384.39,40.72a1.9,1.9,0,0,1-1-.2A.82.82,0,0,1,383,40a3.2,3.2,0,0,1-.07-.7V32.64a3.06,3.06,0,0,1,.08-.7.86.86,0,0,1,.37-.53,1.91,1.91,0,0,1,1-.19,1.94,1.94,0,0,1,1,.18.84.84,0,0,1,.37.41,1.4,1.4,0,0,1,.07.41l-.23.12.2-.28a3.14,3.14,0,0,1,.45-.42,2.8,2.8,0,0,1,.69-.37,2.77,2.77,0,0,1,.94-.15l.47,0a3.58,3.58,0,0,1,.53.11,2.64,2.64,0,0,1,.51.23,1.38,1.38,0,0,1,.37.35.94.94,0,0,1,.14.52,2.35,2.35,0,0,1-.36,1.32,1.07,1.07,0,0,1-.91.54,1.23,1.23,0,0,1-.46-.06l-.22-.11a1,1,0,0,0-.2-.11,1.22,1.22,0,0,0-.42,0,1.91,1.91,0,0,0-.54.08,1.4,1.4,0,0,0-.47.24,1.22,1.22,0,0,0-.35.4,1.14,1.14,0,0,0-.12.52v4.18a3.85,3.85,0,0,1-.06.69.79.79,0,0,1-.38.53A2,2,0,0,1,384.39,40.72Z"/><path class="cls-2" d="M261.26,65.79a4.94,4.94,0,0,1-1.7-.31,5.27,5.27,0,0,1-1.6-.93,4.51,4.51,0,0,1-1.6-3.6,4.64,4.64,0,0,1,.43-2.07A4.72,4.72,0,0,1,258,57.37a5.41,5.41,0,0,1,1.59-.92,4.91,4.91,0,0,1,1.68-.31,4.55,4.55,0,0,1,1.27.16,4.46,4.46,0,0,1,.95.39,3.61,3.61,0,0,1,.56.4,7.22,7.22,0,0,1,.57.49.81.81,0,0,1,.22.65,1.06,1.06,0,0,1-.13.43,4.54,4.54,0,0,1-.28.44c-.38.54-.76.78-1.14.73a2.22,2.22,0,0,1-.53-.19l-.45-.28a3.45,3.45,0,0,0-.47-.24,1.62,1.62,0,0,0-.57-.09,1.94,1.94,0,0,0-1,.25,1.8,1.8,0,0,0-.69.68,2,2,0,0,0-.26,1,1.91,1.91,0,0,0,.26,1,2,2,0,0,0,.68.7,1.86,1.86,0,0,0,1,.25,1.82,1.82,0,0,0,.56-.07,1.74,1.74,0,0,0,.41-.18l.27-.16a4.54,4.54,0,0,1,.44-.28.82.82,0,0,1,.43-.12.91.91,0,0,1,.55.2,3.09,3.09,0,0,1,.63.63,1.69,1.69,0,0,1,.35.74.9.9,0,0,1-.16.65,2.24,2.24,0,0,1-.65.59,3.06,3.06,0,0,1-.54.34,4.81,4.81,0,0,1-1,.38A4.09,4.09,0,0,1,261.26,65.79Z"/><path class="cls-2" d="M271,65.87a4.86,4.86,0,0,1-1.78-.35,5.63,5.63,0,0,1-1.61-1A4.76,4.76,0,0,1,266.48,63a4.83,4.83,0,0,1-.41-2,4.66,4.66,0,0,1,.38-1.91,4.89,4.89,0,0,1,1.06-1.57,5.12,5.12,0,0,1,1.57-1.08,5,5,0,0,1,4.37.27,5,5,0,0,1,1.77,1.78,5,5,0,0,1,.24,4.55,4.76,4.76,0,0,1-1.14,1.55,5,5,0,0,1-1.57,1A4.68,4.68,0,0,1,271,65.87ZM271,63a2.2,2.2,0,0,0,.93-.23,2.09,2.09,0,0,0,.8-.68,2,2,0,0,0,.32-1.16,2.07,2.07,0,0,0-.27-1.07,1.85,1.85,0,0,0-.73-.71,2.2,2.2,0,0,0-1.07-.26,1.94,1.94,0,0,0-1,.27,2.1,2.1,0,0,0-.72.73,2.06,2.06,0,0,0-.27,1.06,2,2,0,0,0,.31,1.15,1.91,1.91,0,0,0,.79.68A2.11,2.11,0,0,0,271,63Z"/><path class="cls-2" d="M278.78,65.7a1.9,1.9,0,0,1-1-.2.8.8,0,0,1-.36-.53,3.26,3.26,0,0,1-.07-.7V57.58a2.86,2.86,0,0,1,.08-.67.77.77,0,0,1,.37-.5,1.89,1.89,0,0,1,1-.19,1.86,1.86,0,0,1,.89.16.77.77,0,0,1,.37.39,1.11,1.11,0,0,1,.08.42.78.78,0,0,0,0,.28l-.11.36a1.1,1.1,0,0,1,.29-.58,2.94,2.94,0,0,1,.65-.53,3.52,3.52,0,0,1,.84-.37,3,3,0,0,1,.88-.13,3.78,3.78,0,0,1,1.62.33,3.23,3.23,0,0,1,1.21,1,4.44,4.44,0,0,1,.75,1.47,6.36,6.36,0,0,1,.26,1.85v3.46a3.84,3.84,0,0,1-.07.69.76.76,0,0,1-.36.53,2,2,0,0,1-1,.19,1.89,1.89,0,0,1-1-.2.86.86,0,0,1-.37-.53,2.74,2.74,0,0,1-.08-.7V60.83a2.21,2.21,0,0,0-.19-1,1.4,1.4,0,0,0-.57-.61,2.08,2.08,0,0,0-1.88,0,1.61,1.61,0,0,0-.62.62,1.93,1.93,0,0,0-.22.95v3.46a3.85,3.85,0,0,1-.06.69.81.81,0,0,1-.37.53A2,2,0,0,1,278.78,65.7Z"/><path class="cls-2" d="M294.59,65.72a1.78,1.78,0,0,1-1-.21.76.76,0,0,1-.36-.54,3.73,3.73,0,0,1-.06-.7V57.62a3,3,0,0,1,.07-.69.79.79,0,0,1,.37-.52,1.91,1.91,0,0,1,1-.19,1.61,1.61,0,0,1,1,.27,1.14,1.14,0,0,1,.32.9l-.24.21a1.5,1.5,0,0,1,.22-.32,3.89,3.89,0,0,1,.5-.48,3.25,3.25,0,0,1,.71-.42,2.16,2.16,0,0,1,.88-.18,3.31,3.31,0,0,1,1.13.18,2.83,2.83,0,0,1,.92.53,3.3,3.3,0,0,1,.71.88,5.37,5.37,0,0,1,.64-.74,3.71,3.71,0,0,1,.91-.61,2.72,2.72,0,0,1,1.17-.24,3.07,3.07,0,0,1,1.87.56,3.49,3.49,0,0,1,1.17,1.6,7.27,7.27,0,0,1,.39,2.53v3.4a3.85,3.85,0,0,1-.06.69.85.85,0,0,1-.37.54,2,2,0,0,1-1,.2,1.79,1.79,0,0,1-1-.21.9.9,0,0,1-.36-.54,4,4,0,0,1-.06-.7v-3.4a3.15,3.15,0,0,0-.14-1,1.23,1.23,0,0,0-.41-.61,1,1,0,0,0-.69-.22,1.26,1.26,0,0,0-.74.2,1.19,1.19,0,0,0-.46.6,3.09,3.09,0,0,0-.15,1v3.4a2.71,2.71,0,0,1-.09.71.9.9,0,0,1-.41.53,1.77,1.77,0,0,1-1,.19,1.83,1.83,0,0,1-1-.23.83.83,0,0,1-.34-.54,3.91,3.91,0,0,1-.06-.68v-3.4a3.28,3.28,0,0,0-.13-1,1.23,1.23,0,0,0-.4-.61,1.1,1.1,0,0,0-.7-.21,1.21,1.21,0,0,0-.78.24,1.56,1.56,0,0,0-.45.66,2.91,2.91,0,0,0-.14.92v3.42a3.08,3.08,0,0,1-.07.7.82.82,0,0,1-.37.53A1.92,1.92,0,0,1,294.59,65.72Z"/><path class="cls-2" d="M316.49,65.7a1.75,1.75,0,0,1-1-.25.73.73,0,0,1-.34-.61l.19-.32a1.91,1.91,0,0,1-.43.46,3.12,3.12,0,0,1-2.11.72,3.78,3.78,0,0,1-1.66-.38,4.51,4.51,0,0,1-1.4-1.06,5.07,5.07,0,0,1-1-1.53,4.58,4.58,0,0,1-.35-1.8,4.49,4.49,0,0,1,.35-1.78,5,5,0,0,1,1-1.5,4.82,4.82,0,0,1,1.39-1,3.77,3.77,0,0,1,1.66-.37,3.23,3.23,0,0,1,1.19.19,3.41,3.41,0,0,1,.83.47,2.62,2.62,0,0,1,.5.51l-.15-.26a.76.76,0,0,1,.32-.7,1.82,1.82,0,0,1,1.05-.23,1.84,1.84,0,0,1,1,.2.84.84,0,0,1,.36.56,4,4,0,0,1,.07.72v6.55a4.17,4.17,0,0,1-.07.71.82.82,0,0,1-.36.54A1.9,1.9,0,0,1,316.49,65.7Zm-3.3-2.83a1.68,1.68,0,0,0,.9-.26,1.77,1.77,0,0,0,.64-.69,2,2,0,0,0,.24-1,1.86,1.86,0,0,0-.25-1,1.82,1.82,0,0,0-.66-.69,1.71,1.71,0,0,0-.91-.25,1.86,1.86,0,0,0-1,.26,2,2,0,0,0-.68.71,1.83,1.83,0,0,0-.26,1,1.73,1.73,0,0,0,.26.94,1.9,1.9,0,0,0,.7.68A2,2,0,0,0,313.19,62.87Z"/><path class="cls-2" d="M324.07,65.13l-4.46-6.81a1.42,1.42,0,0,1-.33-1c.05-.28.3-.56.75-.86a1.63,1.63,0,0,1,1.14-.35,1.57,1.57,0,0,1,.83.75l3.29,5Zm-1.65,4.42c-.52-.22-.82-.48-.9-.76a1.61,1.61,0,0,1,.2-1.12L326.49,57a1.51,1.51,0,0,1,.71-.88,1.76,1.76,0,0,1,1.17.16c.5.24.8.5.88.76a1.6,1.6,0,0,1-.18,1.07l-4.79,10.73a1.57,1.57,0,0,1-.7.89A1.62,1.62,0,0,1,322.42,69.55Z"/><path class="cls-2" d="M335.19,65.87a4.86,4.86,0,0,1-1.78-.35,5.45,5.45,0,0,1-1.6-1A4.49,4.49,0,0,1,330.67,63a5,5,0,0,1,0-3.91,5.06,5.06,0,0,1,1.06-1.57,5.12,5.12,0,0,1,1.57-1.08,5,5,0,0,1,4.37.27,5.06,5.06,0,0,1,1.78,1.78,4.78,4.78,0,0,1,.66,2.49,4.69,4.69,0,0,1-.43,2.06,4.76,4.76,0,0,1-1.14,1.55,5,5,0,0,1-1.57,1A4.68,4.68,0,0,1,335.19,65.87Zm0-2.87a2.2,2.2,0,0,0,.93-.23,2.09,2.09,0,0,0,.8-.68,2,2,0,0,0,.32-1.16,2.17,2.17,0,0,0-.26-1.07,1.94,1.94,0,0,0-.74-.71,2.17,2.17,0,0,0-1.07-.26,1.94,1.94,0,0,0-1,.27,2.19,2.19,0,0,0-.72.73,2.06,2.06,0,0,0-.27,1.06,2,2,0,0,0,.31,1.15,1.91,1.91,0,0,0,.79.68A2.14,2.14,0,0,0,335.15,63Z"/><path class="cls-2" d="M343,65.72a1.9,1.9,0,0,1-1-.2.82.82,0,0,1-.36-.55,3.2,3.2,0,0,1-.07-.7V57.64a3.06,3.06,0,0,1,.08-.7.86.86,0,0,1,.37-.53,1.91,1.91,0,0,1,1-.19,1.94,1.94,0,0,1,1,.18.84.84,0,0,1,.37.41,1.4,1.4,0,0,1,.07.41l-.23.12c0-.05.1-.15.2-.28a3.14,3.14,0,0,1,.45-.42,2.8,2.8,0,0,1,.69-.37,2.77,2.77,0,0,1,.94-.15l.47,0a3.58,3.58,0,0,1,.53.11,2.64,2.64,0,0,1,.51.23,1.38,1.38,0,0,1,.37.35.94.94,0,0,1,.14.52,2.35,2.35,0,0,1-.36,1.32,1.07,1.07,0,0,1-.91.54,1.23,1.23,0,0,1-.46-.06l-.22-.11a1,1,0,0,0-.2-.11,1.22,1.22,0,0,0-.42,0,1.91,1.91,0,0,0-.54.08,1.4,1.4,0,0,0-.47.24,1.09,1.09,0,0,0-.34.4,1,1,0,0,0-.13.52v4.18a3.85,3.85,0,0,1-.06.69.79.79,0,0,1-.38.53A2,2,0,0,1,343,65.72Z"/><path class="cls-2" d="M359.41,65.79a4.94,4.94,0,0,1-1.7-.31,5.27,5.27,0,0,1-1.6-.93,4.59,4.59,0,0,1-1.6-3.6,4.51,4.51,0,0,1,.44-2.07,4.46,4.46,0,0,1,1.16-1.51,5.36,5.36,0,0,1,1.58-.92,4.91,4.91,0,0,1,1.68-.31,4.55,4.55,0,0,1,1.27.16,4.46,4.46,0,0,1,.95.39,3.17,3.17,0,0,1,.56.4,7.22,7.22,0,0,1,.57.49.85.85,0,0,1,.23.65,1.27,1.27,0,0,1-.14.43,3.19,3.19,0,0,1-.28.44c-.38.54-.76.78-1.14.73a2.22,2.22,0,0,1-.53-.19l-.45-.28a3.45,3.45,0,0,0-.47-.24,1.62,1.62,0,0,0-.57-.09,1.91,1.91,0,0,0-1,.25,1.76,1.76,0,0,0-.7.68,2,2,0,0,0-.25,1,1.91,1.91,0,0,0,.25,1,1.93,1.93,0,0,0,.69.7,1.81,1.81,0,0,0,1,.25,1.91,1.91,0,0,0,.56-.07,1.85,1.85,0,0,0,.4-.18l.27-.16a4.54,4.54,0,0,1,.44-.28.85.85,0,0,1,.43-.12.94.94,0,0,1,.56.2,3.08,3.08,0,0,1,.62.63,1.69,1.69,0,0,1,.35.74.85.85,0,0,1-.16.65,2.32,2.32,0,0,1-.64.59,3.5,3.5,0,0,1-.54.34,4.92,4.92,0,0,1-1,.38A4.09,4.09,0,0,1,359.41,65.79Z"/><path class="cls-2" d="M369.16,65.87a4.86,4.86,0,0,1-1.78-.35,5.45,5.45,0,0,1-1.6-1A4.49,4.49,0,0,1,364.64,63a5,5,0,0,1,0-3.91,5.06,5.06,0,0,1,1.06-1.57,5.12,5.12,0,0,1,1.57-1.08,5,5,0,0,1,4.37.27,5.06,5.06,0,0,1,1.78,1.78A4.78,4.78,0,0,1,374,61a4.69,4.69,0,0,1-.43,2.06,4.76,4.76,0,0,1-1.14,1.55,5,5,0,0,1-1.57,1A4.68,4.68,0,0,1,369.16,65.87Zm0-2.87a2.2,2.2,0,0,0,.93-.23,2.09,2.09,0,0,0,.8-.68,2,2,0,0,0,.32-1.16,2.17,2.17,0,0,0-.26-1.07,1.94,1.94,0,0,0-.74-.71,2.17,2.17,0,0,0-1.07-.26,1.94,1.94,0,0,0-1,.27,2.19,2.19,0,0,0-.72.73,2.06,2.06,0,0,0-.27,1.06,2,2,0,0,0,.31,1.15,1.91,1.91,0,0,0,.79.68A2.18,2.18,0,0,0,369.12,63Z"/><path class="cls-2" d="M376.89,65.72a1.8,1.8,0,0,1-1-.21.82.82,0,0,1-.36-.54,3.73,3.73,0,0,1-.06-.7V57.62a3.66,3.66,0,0,1,.07-.69.86.86,0,0,1,.37-.52,2,2,0,0,1,1-.19,1.56,1.56,0,0,1,1,.27,1.11,1.11,0,0,1,.33.9l-.25.21a1.7,1.7,0,0,1,.23-.32,4.5,4.5,0,0,1,.49-.48,3.33,3.33,0,0,1,.72-.42,2.13,2.13,0,0,1,.88-.18,3.35,3.35,0,0,1,1.13.18,2.79,2.79,0,0,1,.91.53,3.3,3.3,0,0,1,.71.88,5.47,5.47,0,0,1,.65-.74,3.47,3.47,0,0,1,.9-.61,2.78,2.78,0,0,1,1.17-.24,3,3,0,0,1,1.87.56,3.42,3.42,0,0,1,1.17,1.6,7,7,0,0,1,.4,2.53v3.4a3.11,3.11,0,0,1-.07.69.78.78,0,0,1-.37.54,1.92,1.92,0,0,1-1,.2,1.77,1.77,0,0,1-1-.21.82.82,0,0,1-.36-.54,3.26,3.26,0,0,1-.07-.7v-3.4a3.17,3.17,0,0,0-.13-1,1.29,1.29,0,0,0-.41-.61,1.06,1.06,0,0,0-.69-.22,1.29,1.29,0,0,0-.75.2,1.17,1.17,0,0,0-.45.6,3.09,3.09,0,0,0-.15,1v3.4a2.34,2.34,0,0,1-.1.71.87.87,0,0,1-.41.53,1.76,1.76,0,0,1-1,.19,1.83,1.83,0,0,1-1-.23A.85.85,0,0,1,381,65a5.19,5.19,0,0,1-.05-.68v-3.4a3.26,3.26,0,0,0-.14-1,1.22,1.22,0,0,0-.39-.61,1.13,1.13,0,0,0-.71-.21,1.25,1.25,0,0,0-.78.24,1.45,1.45,0,0,0-.44.66,2.65,2.65,0,0,0-.15.92v3.42a3.8,3.8,0,0,1-.06.7.86.86,0,0,1-.37.53A2,2,0,0,1,376.89,65.72Z"/><path class="cls-2" d="M395.61,65.87a4.86,4.86,0,0,1-1.78-.35,5.63,5.63,0,0,1-1.61-1A4.76,4.76,0,0,1,391.08,63a5,5,0,0,1,0-3.91,4.89,4.89,0,0,1,1.06-1.57,5.12,5.12,0,0,1,1.57-1.08,5,5,0,0,1,4.37.27,5,5,0,0,1,1.77,1.78,5,5,0,0,1,.24,4.55,4.76,4.76,0,0,1-1.14,1.55,4.89,4.89,0,0,1-1.58,1A4.59,4.59,0,0,1,395.61,65.87Zm0-2.87a2.2,2.2,0,0,0,.93-.23,2.09,2.09,0,0,0,.8-.68,2,2,0,0,0,.32-1.16,2.07,2.07,0,0,0-.27-1.07,1.85,1.85,0,0,0-.73-.71,2.2,2.2,0,0,0-1.07-.26,1.94,1.94,0,0,0-1,.27,2,2,0,0,0-.72.73,2.07,2.07,0,0,0-.28,1.06,2,2,0,0,0,.32,1.15,1.91,1.91,0,0,0,.79.68A2.11,2.11,0,0,0,395.57,63Z"/><path class="cls-2" d="M400,40.86a1.78,1.78,0,0,1-1-.21.84.84,0,0,1-.37-.54,4.05,4.05,0,0,1-.07-.7V28.49a3.11,3.11,0,0,1,.08-.72.86.86,0,0,1,.37-.53,1.9,1.9,0,0,1,1-.2,1.7,1.7,0,0,1,1,.21.83.83,0,0,1,.34.54,3.25,3.25,0,0,1,0,.7V40a1.06,1.06,0,0,1-.4.65A1.77,1.77,0,0,1,400,40.86Zm3.7,0a3.37,3.37,0,0,1-1.64-.39,3.42,3.42,0,0,1-1.18-1.06,4.93,4.93,0,0,1-.7-1.52,6.31,6.31,0,0,1-.22-1.82,6.24,6.24,0,0,1,.25-1.79,4.73,4.73,0,0,1,.71-1.5,3.31,3.31,0,0,1,1.16-1,3.34,3.34,0,0,1,1.62-.37,3.64,3.64,0,0,1,1.63.38,4.49,4.49,0,0,1,1.39,1,4.93,4.93,0,0,1,1,1.5,4.53,4.53,0,0,1,.36,1.78,4.67,4.67,0,0,1-.36,1.83,4.84,4.84,0,0,1-1,1.53,4.33,4.33,0,0,1-1.38,1A3.89,3.89,0,0,1,403.67,40.84Zm-.4-2.81a1.76,1.76,0,0,0,1-.26,2,2,0,0,0,.68-.69,1.93,1.93,0,0,0,.26-1,2,2,0,0,0-.25-1,1.9,1.9,0,0,0-.67-.68,1.86,1.86,0,0,0-.95-.24,1.91,1.91,0,0,0-.94.24,1.8,1.8,0,0,0-.66.68,2,2,0,0,0-.24,1,1.92,1.92,0,0,0,.25,1,1.82,1.82,0,0,0,.66.69A1.74,1.74,0,0,0,403.27,38Z"/><path class="cls-2" d="M411.08,30a1.85,1.85,0,0,1-1-.21.8.8,0,0,1-.37-.55,3.38,3.38,0,0,1-.07-.72,3.26,3.26,0,0,1,.08-.73.83.83,0,0,1,.38-.54,2,2,0,0,1,1-.2,1.83,1.83,0,0,1,1,.21.9.9,0,0,1,.37.55,3.79,3.79,0,0,1,0,1.45.83.83,0,0,1-.37.54A2,2,0,0,1,411.08,30Zm0,10.87a1.83,1.83,0,0,1-1-.2.86.86,0,0,1-.37-.53,4,4,0,0,1-.06-.7V32.8a3.8,3.8,0,0,1,.06-.7.79.79,0,0,1,.38-.52,1.8,1.8,0,0,1,1-.2,1.74,1.74,0,0,1,1,.21.78.78,0,0,1,.36.53,3.14,3.14,0,0,1,.07.72v6.61a3.11,3.11,0,0,1-.07.69.76.76,0,0,1-.36.53A2,2,0,0,1,411.08,40.86Z"/><path class="cls-2" d="M419.16,41a5.5,5.5,0,0,1-2.29-.44,4.42,4.42,0,0,1-1.57-1.15,4.65,4.65,0,0,1-.9-1.59,5.31,5.31,0,0,1-.3-1.74,4.91,4.91,0,0,1,.65-2.53,4.68,4.68,0,0,1,1.79-1.74,5.32,5.32,0,0,1,2.62-.64,4.68,4.68,0,0,1,1.91.36,3.88,3.88,0,0,1,2.11,2.11,3.42,3.42,0,0,1,.25,1.24,2.14,2.14,0,0,1-.5,1.55,1.76,1.76,0,0,1-1.28.5h-4.53a1.4,1.4,0,0,0,.36.84,2.16,2.16,0,0,0,.78.53,2.67,2.67,0,0,0,1,.19,6.1,6.1,0,0,0,.8-.05,2.88,2.88,0,0,0,.59-.13l.46-.17a2.48,2.48,0,0,1,.37-.14,1.18,1.18,0,0,1,.31-.08.77.77,0,0,1,.52.16,1.62,1.62,0,0,1,.43.54,1.27,1.27,0,0,1,.18.4,1.65,1.65,0,0,1,.05.38,1,1,0,0,1-.47.82,3.56,3.56,0,0,1-1.31.57A8.53,8.53,0,0,1,419.16,41Zm-2-5.63h3a.73.73,0,0,0,.44-.1.48.48,0,0,0,.15-.41.91.91,0,0,0-.21-.6,1.46,1.46,0,0,0-.56-.4,2.29,2.29,0,0,0-.81-.14,2.38,2.38,0,0,0-1.05.23,1.77,1.77,0,0,0-.71.61A1.42,1.42,0,0,0,417.12,35.4Z"/><path class="cls-2" d="M426.36,40.84a1.9,1.9,0,0,1-1-.2.78.78,0,0,1-.36-.53,4.05,4.05,0,0,1-.07-.7V32.72a2.86,2.86,0,0,1,.08-.67.77.77,0,0,1,.37-.5,1.91,1.91,0,0,1,1-.19,1.86,1.86,0,0,1,.89.16.81.81,0,0,1,.37.39,1.14,1.14,0,0,1,.09.43.82.82,0,0,0,0,.27l-.11.36a1.12,1.12,0,0,1,.3-.58,2.87,2.87,0,0,1,.64-.53,3.52,3.52,0,0,1,.84-.37,3,3,0,0,1,.88-.13,3.78,3.78,0,0,1,1.62.33,3.23,3.23,0,0,1,1.21,1,4.44,4.44,0,0,1,.75,1.47,6.36,6.36,0,0,1,.26,1.85v3.46a3.26,3.26,0,0,1-.07.7.76.76,0,0,1-.36.52,2,2,0,0,1-1,.19,1.89,1.89,0,0,1-1-.2.83.83,0,0,1-.37-.53,3.27,3.27,0,0,1-.08-.7V36a2.13,2.13,0,0,0-.19-1,1.37,1.37,0,0,0-.57-.62,1.78,1.78,0,0,0-.93-.22,1.81,1.81,0,0,0-.95.23A1.61,1.61,0,0,0,428,35a2,2,0,0,0-.22.95v3.46a4,4,0,0,1-.06.7.83.83,0,0,1-.36.52A2,2,0,0,1,426.36,40.84Z"/><path class="cls-2" d="M359.4,65.78a4.91,4.91,0,0,1-1.7-.32,5.27,5.27,0,0,1-1.6-.93A4.52,4.52,0,0,1,354.93,63a5.11,5.11,0,0,1,0-4.15,4.45,4.45,0,0,1,1.16-1.5,5.08,5.08,0,0,1,1.59-.92,4.85,4.85,0,0,1,1.68-.32,4.41,4.41,0,0,1,1.26.17,3.48,3.48,0,0,1,.95.39,2.87,2.87,0,0,1,.56.39,4.84,4.84,0,0,1,.57.5.8.8,0,0,1,.23.64,1.18,1.18,0,0,1-.13.43,2.85,2.85,0,0,1-.29.45q-.57.79-1.14.72a1.79,1.79,0,0,1-.52-.19l-.46-.28a2.47,2.47,0,0,0-.46-.23,1.48,1.48,0,0,0-.57-.1,1.92,1.92,0,0,0-1,.25,1.8,1.8,0,0,0-.69.68,2,2,0,0,0-.26,1,1.92,1.92,0,0,0,.26,1,2,2,0,0,0,.68.69,1.87,1.87,0,0,0,1,.26,1.84,1.84,0,0,0,.56-.08,1.74,1.74,0,0,0,.41-.18l.27-.16.43-.28a.88.88,0,0,1,.44-.12,1,1,0,0,1,.55.2,3.18,3.18,0,0,1,.63.64,1.6,1.6,0,0,1,.35.74.87.87,0,0,1-.16.64,2.23,2.23,0,0,1-.65.59,3,3,0,0,1-.54.35,6.93,6.93,0,0,1-.95.38A4.41,4.41,0,0,1,359.4,65.78Z"/><path class="cls-2" d="M369.14,65.85a4.65,4.65,0,0,1-1.77-.35,5.3,5.3,0,0,1-1.61-1A4.68,4.68,0,0,1,364.2,61a4.86,4.86,0,0,1,.38-1.91,5.09,5.09,0,0,1,1.07-1.57,5.15,5.15,0,0,1,1.57-1.07,4.57,4.57,0,0,1,1.89-.39,4.73,4.73,0,0,1,2.47.66,5,5,0,0,1,2,6.32,5,5,0,0,1-2.72,2.53A4.8,4.8,0,0,1,369.14,65.85Zm0-2.87a2.16,2.16,0,0,0,1.72-.91,1.92,1.92,0,0,0,.33-1.16,2,2,0,0,0-.27-1.06,1.85,1.85,0,0,0-.73-.71,2.1,2.1,0,0,0-1.07-.26,2,2,0,0,0-1.74,1,2,2,0,0,0-.28,1,2,2,0,0,0,.32,1.15,1.82,1.82,0,0,0,.78.68A2.19,2.19,0,0,0,369.11,63Z"/><path class="cls-2" d="M376.88,65.7a1.78,1.78,0,0,1-1-.21.83.83,0,0,1-.36-.53,3.88,3.88,0,0,1-.06-.7V57.61a3,3,0,0,1,.07-.7.75.75,0,0,1,.37-.51,1.92,1.92,0,0,1,1-.2,1.55,1.55,0,0,1,1,.28,1.1,1.1,0,0,1,.32.9l-.24.21a1.49,1.49,0,0,1,.22-.33,3.85,3.85,0,0,1,.5-.47,2.92,2.92,0,0,1,.71-.43,2.16,2.16,0,0,1,.88-.18,3.31,3.31,0,0,1,1.13.18,3,3,0,0,1,.92.53,3.36,3.36,0,0,1,.71.89,4.42,4.42,0,0,1,.65-.74,3.24,3.24,0,0,1,.9-.61,2.64,2.64,0,0,1,1.17-.25,3.14,3.14,0,0,1,1.87.56,3.47,3.47,0,0,1,1.17,1.61,7.2,7.2,0,0,1,.4,2.52v3.41a3.84,3.84,0,0,1-.07.69.83.83,0,0,1-.37.53,1.94,1.94,0,0,1-1,.2,1.79,1.79,0,0,1-1-.21.9.9,0,0,1-.36-.54,3.85,3.85,0,0,1-.06-.69v-3.4a3.06,3.06,0,0,0-.14-1,1.26,1.26,0,0,0-.41-.62,1,1,0,0,0-.69-.22,1.34,1.34,0,0,0-.74.2,1.27,1.27,0,0,0-.46.61,3,3,0,0,0-.15,1v3.41a2.71,2.71,0,0,1-.09.71.93.93,0,0,1-.41.53,1.88,1.88,0,0,1-1,.18,1.76,1.76,0,0,1-1-.23.83.83,0,0,1-.34-.54,3.79,3.79,0,0,1-.06-.67v-3.4a3.19,3.19,0,0,0-.13-1,1.26,1.26,0,0,0-.4-.62,1.1,1.1,0,0,0-.7-.21,1.16,1.16,0,0,0-.78.25,1.46,1.46,0,0,0-.45.65,3,3,0,0,0-.14.93v3.42a3.14,3.14,0,0,1-.07.7.77.77,0,0,1-.37.52A1.92,1.92,0,0,1,376.88,65.7Z"/><path class="cls-2" d="M395.59,65.85a4.7,4.7,0,0,1-1.78-.35,5.37,5.37,0,0,1-1.6-1A4.68,4.68,0,0,1,390.65,61,4.86,4.86,0,0,1,391,59a5.06,5.06,0,0,1,1.06-1.57,5.27,5.27,0,0,1,1.57-1.07,4.63,4.63,0,0,1,1.89-.39,4.74,4.74,0,0,1,2.48.66,5,5,0,0,1,1.78,1.77,5.13,5.13,0,0,1,.24,4.55,5,5,0,0,1-2.72,2.53A4.88,4.88,0,0,1,395.59,65.85Zm0-2.87a2.19,2.19,0,0,0,1.73-.91,1.92,1.92,0,0,0,.33-1.16,2,2,0,0,0-.27-1.06,1.85,1.85,0,0,0-.73-.71,2.11,2.11,0,0,0-1.08-.26,1.91,1.91,0,0,0-1,.27,1.94,1.94,0,0,0-.72.73,2,2,0,0,0-.28,1,2,2,0,0,0,.31,1.15,1.9,1.9,0,0,0,.79.68A2.18,2.18,0,0,0,395.55,63Z"/><path class="cls-2" d="M406,65.68a3.78,3.78,0,0,1-1.64-.37,4.53,4.53,0,0,1-1.4-1,5.49,5.49,0,0,1-1-1.53,4.94,4.94,0,0,1-.35-1.84,4.62,4.62,0,0,1,.35-1.77,5.07,5.07,0,0,1,1-1.51,4.83,4.83,0,0,1,1.4-1,3.71,3.71,0,0,1,1.63-.38,3.33,3.33,0,0,1,1.61.37,3.57,3.57,0,0,1,1.17,1,4.73,4.73,0,0,1,.71,1.5,7.43,7.43,0,0,1,.26,1.78,6.38,6.38,0,0,1-.22,1.83,5.06,5.06,0,0,1-.71,1.52,3.66,3.66,0,0,1-1.17,1.05A3.33,3.33,0,0,1,406,65.68Zm.38-2.81a1.7,1.7,0,0,0,.92-.26,1.93,1.93,0,0,0,.67-.69,1.9,1.9,0,0,0,.26-1,2,2,0,0,0-.25-1,1.87,1.87,0,0,0-.67-.67,1.75,1.75,0,0,0-.95-.25,1.81,1.81,0,0,0-.94.25,1.77,1.77,0,0,0-.66.67,2,2,0,0,0-.24,1,1.9,1.9,0,0,0,.25,1,1.88,1.88,0,0,0,1.61.95Zm3.33,2.83a1.79,1.79,0,0,1-1-.21.94.94,0,0,1-.42-.64V53.33a5.09,5.09,0,0,1,.05-.69.78.78,0,0,1,.33-.54,1.73,1.73,0,0,1,1-.21,1.8,1.8,0,0,1,1,.2.83.83,0,0,1,.36.52,3.8,3.8,0,0,1,.06.7v11a3.85,3.85,0,0,1-.06.69.9.9,0,0,1-.36.54A1.76,1.76,0,0,1,409.71,65.7Z"/><path class="cls-2" d="M414.48,54.83a1.86,1.86,0,0,1-1-.21.83.83,0,0,1-.37-.55,4.18,4.18,0,0,1-.07-.72,3.26,3.26,0,0,1,.08-.73.85.85,0,0,1,.38-.53,1.88,1.88,0,0,1,1-.2,1.82,1.82,0,0,1,1,.21.83.83,0,0,1,.37.55,3.32,3.32,0,0,1,.07.72,3.38,3.38,0,0,1-.07.72.79.79,0,0,1-.37.54A1.86,1.86,0,0,1,414.48,54.83Zm0,10.87a1.9,1.9,0,0,1-1-.2.78.78,0,0,1-.36-.53,3.11,3.11,0,0,1-.07-.69V57.64a3.14,3.14,0,0,1,.07-.7.8.8,0,0,1,.37-.52,1.94,1.94,0,0,1,1-.2,1.7,1.7,0,0,1,1,.21.86.86,0,0,1,.37.53,4,4,0,0,1,.06.72v6.61a4,4,0,0,1-.06.7.81.81,0,0,1-.37.52A1.85,1.85,0,0,1,414.48,65.7Z"/><path class="cls-2" d="M421.91,65.68a3.82,3.82,0,0,1-1.65-.37,4.49,4.49,0,0,1-1.39-1,5.07,5.07,0,0,1-1-1.53,4.75,4.75,0,0,1-.36-1.84,4.45,4.45,0,0,1,.36-1.77,4.86,4.86,0,0,1,1-1.51,5,5,0,0,1,1.4-1,3.75,3.75,0,0,1,1.64-.38,3.31,3.31,0,0,1,1.6.37,3.57,3.57,0,0,1,1.17,1,4.52,4.52,0,0,1,.71,1.5,7,7,0,0,1,.26,1.78,6.38,6.38,0,0,1-.22,1.83,5.06,5.06,0,0,1-.71,1.52,3.66,3.66,0,0,1-1.17,1.05A3.29,3.29,0,0,1,421.91,65.68Zm.38-2.81a1.73,1.73,0,0,0,.92-.26,2,2,0,0,0,.66-.69,1.9,1.9,0,0,0,.26-1,1.88,1.88,0,0,0-.25-1,1.84,1.84,0,0,0-.66-.67,1.8,1.8,0,0,0-1-.25,1.76,1.76,0,0,0-.94.25,1.73,1.73,0,0,0-.67.67,2,2,0,0,0-.24,1,2,2,0,0,0,.25,1,1.8,1.8,0,0,0,.68.69A1.88,1.88,0,0,0,422.29,62.87Zm3.32,2.83a1.81,1.81,0,0,1-1-.21,1,1,0,0,1-.42-.64V53.33a5.09,5.09,0,0,1,0-.69.78.78,0,0,1,.33-.54,1.73,1.73,0,0,1,1-.21,1.8,1.8,0,0,1,1,.2.8.8,0,0,1,.36.52,3.77,3.77,0,0,1,.07.7v11A3.84,3.84,0,0,1,427,65a.86.86,0,0,1-.36.54A1.74,1.74,0,0,1,425.61,65.7Z"/><path class="cls-2" d="M436.61,65.68a1.68,1.68,0,0,1-1-.25.71.71,0,0,1-.34-.6l.19-.33A2.11,2.11,0,0,1,435,65a3.32,3.32,0,0,1-.84.49,3.18,3.18,0,0,1-1.27.22,3.85,3.85,0,0,1-1.67-.38,4.4,4.4,0,0,1-1.39-1,5.07,5.07,0,0,1-1-1.53,4.6,4.6,0,0,1-.35-1.81,4.44,4.44,0,0,1,.35-1.77,4.88,4.88,0,0,1,1-1.51,4.79,4.79,0,0,1,1.39-1,3.78,3.78,0,0,1,1.66-.38,3.22,3.22,0,0,1,1.19.2,3.4,3.4,0,0,1,.83.46,2.39,2.39,0,0,1,.5.52l-.15-.27a.75.75,0,0,1,.32-.69,1.81,1.81,0,0,1,1.05-.24,1.74,1.74,0,0,1,1,.21A.86.86,0,0,1,438,57a4.18,4.18,0,0,1,.07.72v6.56a4.05,4.05,0,0,1-.07.7.81.81,0,0,1-.36.54A1.9,1.9,0,0,1,436.61,65.68Zm-3.3-2.83a1.68,1.68,0,0,0,.9-.26,1.77,1.77,0,0,0,.64-.69,2,2,0,0,0,.24-1,1.9,1.9,0,0,0-.91-1.66,1.72,1.72,0,0,0-.91-.26,1.78,1.78,0,0,0-1,.27,2.1,2.1,0,0,0-.69.7,1.92,1.92,0,0,0-.25,1,1.81,1.81,0,0,0,.25.94,2,2,0,0,0,.71.68A2,2,0,0,0,433.31,62.85Z"/><path class="cls-2" d="M443.91,65.68a3.82,3.82,0,0,1-1.65-.37,4.49,4.49,0,0,1-1.39-1,5.07,5.07,0,0,1-1-1.53,4.75,4.75,0,0,1-.35-1.84,4.44,4.44,0,0,1,.35-1.77,4.71,4.71,0,0,1,1-1.51,4.79,4.79,0,0,1,1.39-1,3.75,3.75,0,0,1,1.64-.38,3.31,3.31,0,0,1,1.6.37,3.57,3.57,0,0,1,1.17,1,4.52,4.52,0,0,1,.71,1.5,7,7,0,0,1,.26,1.78,6.38,6.38,0,0,1-.22,1.83,4.83,4.83,0,0,1-.71,1.52,3.66,3.66,0,0,1-1.17,1.05A3.29,3.29,0,0,1,443.91,65.68Zm.38-2.81a1.7,1.7,0,0,0,.92-.26,2,2,0,0,0,.66-.69,1.9,1.9,0,0,0,.26-1,1.88,1.88,0,0,0-.25-1,1.77,1.77,0,0,0-.66-.67,1.91,1.91,0,0,0-1.89,0,1.73,1.73,0,0,0-.67.67,2,2,0,0,0-.24,1,2,2,0,0,0,.25,1,1.91,1.91,0,0,0,1.62.95Zm3.32,2.83a1.81,1.81,0,0,1-1-.21,1,1,0,0,1-.42-.64V53.33a5.09,5.09,0,0,1,0-.69.78.78,0,0,1,.33-.54,1.73,1.73,0,0,1,1-.21,1.8,1.8,0,0,1,1,.2.76.76,0,0,1,.36.52,3.08,3.08,0,0,1,.07.7v11A3.11,3.11,0,0,1,449,65a.82.82,0,0,1-.36.54A1.74,1.74,0,0,1,447.61,65.7Z"/><path class="cls-2" d="M452.15,65.72a1.67,1.67,0,0,1-1.21-.34,1.63,1.63,0,0,1-.35-1.18,2.36,2.36,0,0,1,.16-.93,1,1,0,0,1,.49-.5,2.3,2.3,0,0,1,.91-.15,1.7,1.7,0,0,1,1.21.34,1.76,1.76,0,0,1,.33,1.22,2.52,2.52,0,0,1-.14.91.91.91,0,0,1-.49.49A2.48,2.48,0,0,1,452.15,65.72Z"/><path class="cls-2" d="M28.25,65.7A5.5,5.5,0,0,1,26,65.26a4.45,4.45,0,0,1-1.57-1.15,4.58,4.58,0,0,1-.9-1.59,5.31,5.31,0,0,1-.3-1.74,4.89,4.89,0,0,1,.65-2.53,4.58,4.58,0,0,1,1.78-1.74,5.36,5.36,0,0,1,2.63-.64,4.77,4.77,0,0,1,1.9.35,4,4,0,0,1,1.34.92,3.89,3.89,0,0,1,.77,1.2,3.21,3.21,0,0,1,.26,1.24,2.14,2.14,0,0,1-.5,1.55,1.78,1.78,0,0,1-1.29.5H26.21a1.45,1.45,0,0,0,.35.84,2.34,2.34,0,0,0,.79.53,2.83,2.83,0,0,0,1,.19,6.22,6.22,0,0,0,.8,0,2.88,2.88,0,0,0,.59-.13l.45-.17.37-.15a1.83,1.83,0,0,1,.32-.07.77.77,0,0,1,.52.16,1.62,1.62,0,0,1,.43.54,1.55,1.55,0,0,1,.18.4,1.64,1.64,0,0,1,0,.38,1,1,0,0,1-.46.82,3.56,3.56,0,0,1-1.31.57A8.65,8.65,0,0,1,28.25,65.7Zm-2-5.63h3a.75.75,0,0,0,.45-.1.47.47,0,0,0,.14-.41.91.91,0,0,0-.21-.6,1.32,1.32,0,0,0-.56-.4,2.2,2.2,0,0,0-.8-.14,2.22,2.22,0,0,0-1.05.23,1.77,1.77,0,0,0-.71.61A1.42,1.42,0,0,0,26.21,60.07Z"/><path class="cls-2" d="M37.67,65.53a9.39,9.39,0,0,1-1.38-.09,3.14,3.14,0,0,1-1-.31,1.93,1.93,0,0,1-.7-.63,2.94,2.94,0,0,1-.39-1,8.52,8.52,0,0,1-.12-1.56V53.12a3.17,3.17,0,0,1,.07-.71.81.81,0,0,1,.37-.53,1.76,1.76,0,0,1,1-.21,1.72,1.72,0,0,1,1,.21.88.88,0,0,1,.37.53,3.15,3.15,0,0,1,.08.71v8.64a3.58,3.58,0,0,0,0,.51.67.67,0,0,0,.11.31.38.38,0,0,0,.24.15,1.45,1.45,0,0,0,.4,0,1.82,1.82,0,0,1,.46.06.63.63,0,0,1,.41.34,1.89,1.89,0,0,1,.17,1,2.09,2.09,0,0,1-.17,1,.67.67,0,0,1-.41.36A1.91,1.91,0,0,1,37.67,65.53Z"/><path class="cls-2" d="M49.58,65.6a4.94,4.94,0,0,1-1.7-.31,5.11,5.11,0,0,1-1.59-.93,4.52,4.52,0,0,1-1.17-1.52,4.75,4.75,0,0,1-.44-2.08,4.64,4.64,0,0,1,.44-2.07,4.46,4.46,0,0,1,1.16-1.51,5.36,5.36,0,0,1,1.58-.92A4.91,4.91,0,0,1,49.54,56a4.55,4.55,0,0,1,1.27.16,4.46,4.46,0,0,1,.95.39,2.73,2.73,0,0,1,.56.4,7.22,7.22,0,0,1,.57.49.85.85,0,0,1,.23.65,1.27,1.27,0,0,1-.14.43,3.19,3.19,0,0,1-.28.44c-.38.54-.76.78-1.14.73a2,2,0,0,1-.52-.19l-.46-.28a2.6,2.6,0,0,0-.47-.24,1.62,1.62,0,0,0-.57-.09,2,2,0,0,0-1,.24,1.86,1.86,0,0,0-.7.69,2,2,0,0,0-.25,1,1.91,1.91,0,0,0,.25,1,1.93,1.93,0,0,0,.69.7,1.81,1.81,0,0,0,1,.25,1.91,1.91,0,0,0,.56-.07,2.2,2.2,0,0,0,.41-.18l.26-.16a4.54,4.54,0,0,1,.44-.28.85.85,0,0,1,.43-.12.94.94,0,0,1,.56.2,2.85,2.85,0,0,1,.62.63,1.55,1.55,0,0,1,.35.74.85.85,0,0,1-.16.65,2.32,2.32,0,0,1-.64.59,3.5,3.5,0,0,1-.54.34,5.07,5.07,0,0,1-.95.38A4.54,4.54,0,0,1,49.58,65.6Z"/><path class="cls-2" d="M58.85,65.51a4,4,0,0,1-1.64-.35,3.85,3.85,0,0,1-1.34-1A4.29,4.29,0,0,1,55,62.74a5.24,5.24,0,0,1-.32-1.85V57.45a3.06,3.06,0,0,1,.08-.7.86.86,0,0,1,.37-.53,2.49,2.49,0,0,1,2,0,.87.87,0,0,1,.36.54,4,4,0,0,1,.06.71v3.42a2.19,2.19,0,0,0,.2,1,1.42,1.42,0,0,0,.59.62,1.92,1.92,0,0,0,.92.21,2,2,0,0,0,.94-.22,1.52,1.52,0,0,0,.61-.62,1.91,1.91,0,0,0,.22-1V57.43a3.06,3.06,0,0,1,.08-.7.81.81,0,0,1,.37-.52,1.77,1.77,0,0,1,1-.2,1.79,1.79,0,0,1,1,.21.8.8,0,0,1,.36.54,3.11,3.11,0,0,1,.07.69v6.69a2.87,2.87,0,0,1-.07.67.78.78,0,0,1-.37.51,2,2,0,0,1-1,.19,2.08,2.08,0,0,1-.79-.12,1,1,0,0,1-.42-.28.82.82,0,0,1-.16-.36,2.26,2.26,0,0,1,0-.35l.24-.2s-.12.14-.24.28a4,4,0,0,1-.51.45,3.16,3.16,0,0,1-.73.41A2.63,2.63,0,0,1,58.85,65.51Z"/><path class="cls-2" d="M73.45,65.51a1.79,1.79,0,0,1-1-.25.75.75,0,0,1-.33-.61l.19-.32a2.21,2.21,0,0,1-.44.46,3,3,0,0,1-.84.5,3.33,3.33,0,0,1-1.27.22,3.81,3.81,0,0,1-1.66-.38,4.63,4.63,0,0,1-1.4-1.06,5.49,5.49,0,0,1-1-1.53,4.77,4.77,0,0,1-.35-1.8A4.67,4.67,0,0,1,65.7,59a5.15,5.15,0,0,1,1-1.5,4.86,4.86,0,0,1,1.4-1A3.77,3.77,0,0,1,69.72,56a3.27,3.27,0,0,1,1.2.2,3.61,3.61,0,0,1,.83.47,3,3,0,0,1,.5.51L72.1,57a.75.75,0,0,1,.31-.7,2.51,2.51,0,0,1,2,0,.84.84,0,0,1,.36.55,3.41,3.41,0,0,1,.07.73v6.55a3.35,3.35,0,0,1-.07.71.82.82,0,0,1-.36.54A1.86,1.86,0,0,1,73.45,65.51Zm-3.31-2.83a1.66,1.66,0,0,0,.9-.26,1.88,1.88,0,0,0,.65-.69,2,2,0,0,0,.24-1,2,2,0,0,0-.25-1,1.93,1.93,0,0,0-.67-.69,1.68,1.68,0,0,0-.91-.25,1.89,1.89,0,0,0-1,.26,2.1,2.1,0,0,0-.68.71,1.91,1.91,0,0,0-.26,1,1.83,1.83,0,0,0,.26,1,1.9,1.9,0,0,0,.7.68A2,2,0,0,0,70.14,62.68Z"/><path class="cls-2" d="M80.74,65.51a3.89,3.89,0,0,1-1.64-.37,4.57,4.57,0,0,1-1.4-1,5.22,5.22,0,0,1-1-1.53,4.92,4.92,0,0,1-.35-1.83A4.67,4.67,0,0,1,76.74,59a5.15,5.15,0,0,1,1-1.5,4.86,4.86,0,0,1,1.4-1A3.71,3.71,0,0,1,80.74,56a3.47,3.47,0,0,1,1.61.37,3.57,3.57,0,0,1,1.17,1,4.73,4.73,0,0,1,.71,1.5,7,7,0,0,1,.25,1.79,6.36,6.36,0,0,1-.21,1.82,4.74,4.74,0,0,1-.72,1.52,3.39,3.39,0,0,1-1.17,1.06A3.29,3.29,0,0,1,80.74,65.51Zm.38-2.82a1.69,1.69,0,0,0,.92-.25,1.88,1.88,0,0,0,.67-.7,1.86,1.86,0,0,0,.25-1,2,2,0,0,0-.24-1,1.9,1.9,0,0,0-.67-.68,1.86,1.86,0,0,0-1-.24,1.91,1.91,0,0,0-.94.24,1.8,1.8,0,0,0-.66.68,2,2,0,0,0-.24,1,1.86,1.86,0,0,0,.25,1,1.76,1.76,0,0,0,.68.7A1.8,1.8,0,0,0,81.12,62.69Zm3.33,2.84a1.79,1.79,0,0,1-1-.21,1,1,0,0,1-.42-.65V53.16a5.24,5.24,0,0,1,0-.7.78.78,0,0,1,.33-.54,1.73,1.73,0,0,1,1-.21,1.83,1.83,0,0,1,1,.2.84.84,0,0,1,.37.52,3.92,3.92,0,0,1,.06.71V64.08a4,4,0,0,1-.06.7.88.88,0,0,1-.37.54A1.7,1.7,0,0,1,84.45,65.53Z"/><path class="cls-2" d="M92.41,65.7a5.5,5.5,0,0,1-2.29-.44,4.54,4.54,0,0,1-1.57-1.15,4.74,4.74,0,0,1-.9-1.59,5.31,5.31,0,0,1-.3-1.74A4.89,4.89,0,0,1,88,58.25a4.61,4.61,0,0,1,1.79-1.74,5.32,5.32,0,0,1,2.62-.64,4.86,4.86,0,0,1,1.91.35,3.94,3.94,0,0,1,1.33.92,3.75,3.75,0,0,1,.78,1.2,3.38,3.38,0,0,1,.25,1.24,2.14,2.14,0,0,1-.5,1.55,1.76,1.76,0,0,1-1.28.5H90.37a1.4,1.4,0,0,0,.36.84,2.29,2.29,0,0,0,.78.53,2.87,2.87,0,0,0,1,.19,6.1,6.1,0,0,0,.8,0,2.88,2.88,0,0,0,.59-.13l.45-.17.38-.15a1.73,1.73,0,0,1,.31-.07.77.77,0,0,1,.52.16,1.62,1.62,0,0,1,.43.54,1.27,1.27,0,0,1,.18.4,1.65,1.65,0,0,1,0,.38,1,1,0,0,1-.47.82,3.56,3.56,0,0,1-1.31.57A8.53,8.53,0,0,1,92.41,65.7Zm-2-5.63h3a.73.73,0,0,0,.44-.1.48.48,0,0,0,.15-.41.91.91,0,0,0-.21-.6,1.46,1.46,0,0,0-.56-.4,2.29,2.29,0,0,0-.81-.14,2.25,2.25,0,0,0-1,.23,1.77,1.77,0,0,0-.71.61A1.42,1.42,0,0,0,90.37,60.07Z"/><path class="cls-2" d="M99.61,65.53a1.9,1.9,0,0,1-1-.2.82.82,0,0,1-.36-.55,3.2,3.2,0,0,1-.07-.7V57.45a3.06,3.06,0,0,1,.08-.7.86.86,0,0,1,.37-.53,1.91,1.91,0,0,1,1-.19,1.94,1.94,0,0,1,1,.18.84.84,0,0,1,.37.41A1.4,1.4,0,0,1,101,57l-.23.12.2-.28a3.14,3.14,0,0,1,.45-.42,2.61,2.61,0,0,1,1.64-.52l.46,0a3.58,3.58,0,0,1,.53.11,2.64,2.64,0,0,1,.51.23,1.38,1.38,0,0,1,.37.35.93.93,0,0,1,.14.51,2.38,2.38,0,0,1-.36,1.33,1.07,1.07,0,0,1-.91.54,1.23,1.23,0,0,1-.46-.06l-.22-.11a1,1,0,0,0-.2-.11,1.22,1.22,0,0,0-.42,0,1.91,1.91,0,0,0-.54.08,1.4,1.4,0,0,0-.47.24,1.09,1.09,0,0,0-.34.4,1,1,0,0,0-.13.52v4.18a3.85,3.85,0,0,1-.06.69.81.81,0,0,1-.38.53A2,2,0,0,1,99.61,65.53Z"/><path class="cls-2" d="M107.93,65.51a1.9,1.9,0,0,1-1-.2.88.88,0,0,1-.36-.53,4.05,4.05,0,0,1-.07-.7V57.39a2.86,2.86,0,0,1,.08-.67.77.77,0,0,1,.37-.5,1.91,1.91,0,0,1,1-.19,1.86,1.86,0,0,1,.89.16.7.7,0,0,1,.37.39,1.14,1.14,0,0,1,.09.42.61.61,0,0,0,0,.28l-.12.36a1.2,1.2,0,0,1,.3-.58,2.62,2.62,0,0,1,.64-.53,3.52,3.52,0,0,1,.84-.37,3,3,0,0,1,.88-.13,3.86,3.86,0,0,1,1.63.33,3.28,3.28,0,0,1,1.2,1,4.44,4.44,0,0,1,.75,1.47,6.36,6.36,0,0,1,.26,1.85V64.1a3.11,3.11,0,0,1-.07.69.76.76,0,0,1-.36.53,2,2,0,0,1-1,.19,1.89,1.89,0,0,1-1-.2.86.86,0,0,1-.37-.53,3.27,3.27,0,0,1-.08-.7V60.64a2.21,2.21,0,0,0-.19-1,1.4,1.4,0,0,0-.57-.61,1.78,1.78,0,0,0-.93-.22,1.81,1.81,0,0,0-1,.23,1.61,1.61,0,0,0-.62.62,2,2,0,0,0-.22,1V64.1a3.85,3.85,0,0,1-.06.69.83.83,0,0,1-.36.53A2,2,0,0,1,107.93,65.51Z"/><path class="cls-2" d="M122.05,65.68a4.86,4.86,0,0,1-1.78-.35,5.63,5.63,0,0,1-1.61-1,4.76,4.76,0,0,1-1.14-1.55,4.83,4.83,0,0,1-.41-2,4.62,4.62,0,0,1,.38-1.91,4.79,4.79,0,0,1,1.06-1.57,5.12,5.12,0,0,1,1.57-1.08,5,5,0,0,1,4.37.27,5,5,0,0,1,1.77,1.78,5,5,0,0,1,.24,4.55,4.76,4.76,0,0,1-1.14,1.55,5,5,0,0,1-1.57,1A4.68,4.68,0,0,1,122.05,65.68Zm0-2.87a2.2,2.2,0,0,0,.93-.23,2.09,2.09,0,0,0,.8-.68,2,2,0,0,0,.32-1.16,2.07,2.07,0,0,0-.27-1.07,1.85,1.85,0,0,0-.73-.71A2.2,2.2,0,0,0,122,58.7a1.94,1.94,0,0,0-1,.27,2.1,2.1,0,0,0-.72.73,2.06,2.06,0,0,0-.27,1.06,2,2,0,0,0,.31,1.15,1.91,1.91,0,0,0,.79.68A2.11,2.11,0,0,0,122,62.81Z"/><path class="cls-2" d="M134.57,69.46a1.82,1.82,0,0,1-1-.2.79.79,0,0,1-.36-.51,3,3,0,0,1-.07-.68V57.45a3.69,3.69,0,0,1,.06-.69.81.81,0,0,1,.35-.53,1.84,1.84,0,0,1,1-.2,2.11,2.11,0,0,1,.94.17,1,1,0,0,1,.5.53V68.05a2.61,2.61,0,0,1-.05.69.89.89,0,0,1-.38.52A1.83,1.83,0,0,1,134.57,69.46Zm3.66-4.11a3.48,3.48,0,0,1-1.64-.37,3.36,3.36,0,0,1-1.18-1,4.71,4.71,0,0,1-.7-1.48,6.09,6.09,0,0,1-.22-1.8,6.18,6.18,0,0,1,.25-1.78,4.94,4.94,0,0,1,.71-1.5A3.26,3.26,0,0,1,138.23,56a3.77,3.77,0,0,1,1.63.37,4.86,4.86,0,0,1,1.4,1,5,5,0,0,1,1,1.51,4.6,4.6,0,0,1,.36,1.81A4.79,4.79,0,0,1,141.26,64a4.45,4.45,0,0,1-1.39,1A3.87,3.87,0,0,1,138.23,65.35Zm-.39-2.67a1.81,1.81,0,0,0,.95-.26,2,2,0,0,0,.67-.69,1.93,1.93,0,0,0,.26-1,2,2,0,0,0-.25-1,1.9,1.9,0,0,0-.67-.68,1.84,1.84,0,0,0-1-.24,1.78,1.78,0,0,0-1.6.94,1.9,1.9,0,0,0-.24,1,1.92,1.92,0,0,0,.25,1,1.82,1.82,0,0,0,.66.69A1.75,1.75,0,0,0,137.84,62.68Z"/><path class="cls-2" d="M151.78,65.51a1.75,1.75,0,0,1-1-.25.73.73,0,0,1-.34-.61l.19-.32a2.11,2.11,0,0,1-.43.46,3.12,3.12,0,0,1-2.11.72,3.85,3.85,0,0,1-1.67-.38A4.59,4.59,0,0,1,145,64.07a5.07,5.07,0,0,1-1-1.53,4.58,4.58,0,0,1-.35-1.8A4.49,4.49,0,0,1,144,59a5,5,0,0,1,1-1.5,4.82,4.82,0,0,1,1.39-1,3.78,3.78,0,0,1,1.66-.38,3.22,3.22,0,0,1,1.19.2,3.41,3.41,0,0,1,.83.47,2.62,2.62,0,0,1,.5.51l-.15-.26a.76.76,0,0,1,.32-.7A1.82,1.82,0,0,1,151.8,56a1.84,1.84,0,0,1,1,.2.92.92,0,0,1,.36.55,4.21,4.21,0,0,1,.07.73v6.55a4.17,4.17,0,0,1-.07.71.9.9,0,0,1-.36.54A1.9,1.9,0,0,1,151.78,65.51Zm-3.3-2.83a1.68,1.68,0,0,0,.9-.26,1.85,1.85,0,0,0,.64-.69,2,2,0,0,0,.24-1,1.86,1.86,0,0,0-.25-1,1.82,1.82,0,0,0-.66-.69,1.71,1.71,0,0,0-.91-.25,1.86,1.86,0,0,0-1,.26,2.13,2.13,0,0,0-.69.71,1.91,1.91,0,0,0-.25,1,1.82,1.82,0,0,0,.25,1,2,2,0,0,0,.71.68A2,2,0,0,0,148.48,62.68Z"/><path class="cls-2" d="M156.44,65.53a1.87,1.87,0,0,1-1-.2.82.82,0,0,1-.36-.55,3.2,3.2,0,0,1-.07-.7V57.45a3.06,3.06,0,0,1,.08-.7.86.86,0,0,1,.37-.53,2.66,2.66,0,0,1,1.95,0,.86.86,0,0,1,.38.41,1.4,1.4,0,0,1,.07.41l-.23.12a2,2,0,0,1,.2-.28,3.14,3.14,0,0,1,.45-.42,2.8,2.8,0,0,1,.69-.37,2.73,2.73,0,0,1,.94-.15l.47,0a3.58,3.58,0,0,1,.53.11,2.54,2.54,0,0,1,.5.23,1.13,1.13,0,0,1,.37.35.85.85,0,0,1,.15.51,2.38,2.38,0,0,1-.36,1.33,1.08,1.08,0,0,1-.92.54,1.21,1.21,0,0,1-.45-.06l-.22-.11a1,1,0,0,0-.2-.11,1.31,1.31,0,0,0-.42,0,1.91,1.91,0,0,0-.54.08,1.4,1.4,0,0,0-.47.24,1.22,1.22,0,0,0-.35.4,1.11,1.11,0,0,0-.12.52v4.18a3.11,3.11,0,0,1-.07.69.76.76,0,0,1-.37.53A2,2,0,0,1,156.44,65.53Z"/><path class="cls-2" d="M171.08,65.51a1.77,1.77,0,0,1-1-.25.75.75,0,0,1-.33-.61l.19-.32a2.52,2.52,0,0,1-.44.46,3.16,3.16,0,0,1-.84.5,3.33,3.33,0,0,1-1.27.22,3.81,3.81,0,0,1-1.66-.38,4.63,4.63,0,0,1-1.4-1.06,5.49,5.49,0,0,1-1-1.53,4.77,4.77,0,0,1-.35-1.8,4.67,4.67,0,0,1,.35-1.78,5.15,5.15,0,0,1,1-1.5,4.86,4.86,0,0,1,1.4-1,3.77,3.77,0,0,1,1.65-.38,3.27,3.27,0,0,1,1.2.2,3.34,3.34,0,0,1,.82.47,2.71,2.71,0,0,1,.51.51l-.15-.26a.75.75,0,0,1,.31-.7,2.51,2.51,0,0,1,2,0,.84.84,0,0,1,.36.55,3.41,3.41,0,0,1,.07.73v6.55a3.35,3.35,0,0,1-.07.71.82.82,0,0,1-.36.54A1.87,1.87,0,0,1,171.08,65.51Zm-3.3-2.83a1.66,1.66,0,0,0,.9-.26,1.88,1.88,0,0,0,.65-.69,2,2,0,0,0,.23-1,2,2,0,0,0-.24-1,1.93,1.93,0,0,0-.67-.69,1.71,1.71,0,0,0-.91-.25,1.89,1.89,0,0,0-1,.26,2.1,2.1,0,0,0-.68.71,1.91,1.91,0,0,0-.26,1,1.83,1.83,0,0,0,.26,1,1.9,1.9,0,0,0,.7.68A2,2,0,0,0,167.78,62.68Z"/><path class="cls-2" d="M179.77,56.34h2.09l2.62-.08a3,3,0,0,1,.68.07.84.84,0,0,1,.54.37,1.94,1.94,0,0,1,.2,1,1.83,1.83,0,0,1-.19.95.93.93,0,0,1-.53.39,3.06,3.06,0,0,1-.7.08L182,59.07h-2.3a.91.91,0,0,1-.77-.33,2,2,0,0,1-.22-1.05,1.59,1.59,0,0,1,.27-1A1,1,0,0,1,179.77,56.34Zm4.29,9.35a5.78,5.78,0,0,1-1.66-.21,2.81,2.81,0,0,1-1.15-.65,2.71,2.71,0,0,1-.68-1.11,5.42,5.42,0,0,1-.21-1.61V54.4a3.51,3.51,0,0,1,.06-.68.84.84,0,0,1,.37-.51,1.93,1.93,0,0,1,1-.2,1.78,1.78,0,0,1,1,.21.84.84,0,0,1,.37.53,3.88,3.88,0,0,1,.07.71V62a2.35,2.35,0,0,0,0,.5.6.6,0,0,0,.15.3.49.49,0,0,0,.26.13,1.76,1.76,0,0,0,.42,0,2.75,2.75,0,0,1,.74.08.77.77,0,0,1,.5.34,1.55,1.55,0,0,1,.19.89,1.78,1.78,0,0,1-.21,1,.82.82,0,0,1-.54.36A4,4,0,0,1,184.06,65.69Z"/><path class="cls-2" d="M188.7,65.69a1.9,1.9,0,0,1-1-.2.82.82,0,0,1-.36-.54,3.35,3.35,0,0,1-.07-.71V57.61a3.06,3.06,0,0,1,.08-.7.81.81,0,0,1,.37-.52,1.8,1.8,0,0,1,1-.2,1.94,1.94,0,0,1,1,.18.84.84,0,0,1,.37.41,1.4,1.4,0,0,1,.07.41l-.23.12.2-.28a3.14,3.14,0,0,1,.45-.42,2.8,2.8,0,0,1,.69-.37,2.77,2.77,0,0,1,.94-.15l.47,0a3.58,3.58,0,0,1,.53.11,2.64,2.64,0,0,1,.51.23,1.38,1.38,0,0,1,.37.35.94.94,0,0,1,.14.52,2.33,2.33,0,0,1-.36,1.32,1.07,1.07,0,0,1-.91.54,1.23,1.23,0,0,1-.46-.06l-.22-.11-.2-.11a1.22,1.22,0,0,0-.42,0,1.91,1.91,0,0,0-.54.08,1.4,1.4,0,0,0-.47.24,1.22,1.22,0,0,0-.35.4,1.14,1.14,0,0,0-.12.52v4.18a3.11,3.11,0,0,1-.07.69.74.74,0,0,1-.37.53A2,2,0,0,1,188.7,65.69Z"/><path class="cls-2" d="M203.35,65.67a1.79,1.79,0,0,1-1-.25.73.73,0,0,1-.33-.61l.19-.32a2,2,0,0,1-.44.46,3.09,3.09,0,0,1-.83.5,3.42,3.42,0,0,1-1.28.22,3.84,3.84,0,0,1-1.66-.38,4.63,4.63,0,0,1-1.4-1.06,5.49,5.49,0,0,1-1-1.53,4.77,4.77,0,0,1-.35-1.8,4.71,4.71,0,0,1,.35-1.78,5.15,5.15,0,0,1,1-1.5,4.65,4.65,0,0,1,1.4-1,3.63,3.63,0,0,1,1.65-.38,3.28,3.28,0,0,1,1.2.19,3.61,3.61,0,0,1,.83.47,2.62,2.62,0,0,1,.5.51l-.15-.26a.75.75,0,0,1,.31-.7,1.9,1.9,0,0,1,1.05-.23,1.72,1.72,0,0,1,1,.21.8.8,0,0,1,.36.55,3.26,3.26,0,0,1,.07.72v6.55a3.35,3.35,0,0,1-.07.71.82.82,0,0,1-.36.54A1.86,1.86,0,0,1,203.35,65.67ZM200,62.84a1.66,1.66,0,0,0,.9-.26,1.8,1.8,0,0,0,.65-.69,2,2,0,0,0,.24-1,2,2,0,0,0-.25-1,2,2,0,0,0-.67-.69A1.68,1.68,0,0,0,200,59a1.89,1.89,0,0,0-1,.26,2.1,2.1,0,0,0-.68.71,1.92,1.92,0,0,0-.26,1,1.82,1.82,0,0,0,.26.94,1.9,1.9,0,0,0,.7.68A2,2,0,0,0,200,62.84Z"/><path class="cls-2" d="M208,65.69a1.76,1.76,0,0,1-1-.21.85.85,0,0,1-.38-.54,4,4,0,0,1-.06-.7V53.32a3.14,3.14,0,0,1,.07-.72.9.9,0,0,1,.37-.53,1.9,1.9,0,0,1,1-.2,1.68,1.68,0,0,1,1,.21.8.8,0,0,1,.34.54,3.25,3.25,0,0,1,0,.7V64.83a1,1,0,0,1-.4.65A1.72,1.72,0,0,1,208,65.69Zm3.71,0a3.28,3.28,0,0,1-2.82-1.45,5,5,0,0,1-.71-1.52,7,7,0,0,1,0-3.61,5,5,0,0,1,.71-1.5,3.31,3.31,0,0,1,1.16-1,3.41,3.41,0,0,1,1.63-.37,3.57,3.57,0,0,1,1.62.38,4.53,4.53,0,0,1,1.4,1,5.34,5.34,0,0,1,1,1.5A4.71,4.71,0,0,1,216,60.9a4.88,4.88,0,0,1-.35,1.83,5.22,5.22,0,0,1-1,1.53,4.65,4.65,0,0,1-1.39,1A3.85,3.85,0,0,1,211.67,65.67Zm-.4-2.81a1.81,1.81,0,0,0,.95-.26,2,2,0,0,0,.93-1.66,1.86,1.86,0,0,0-.25-1,1.8,1.8,0,0,0-.66-.68,2,2,0,0,0-1.89,0,1.75,1.75,0,0,0-.67.68,2,2,0,0,0,0,1.94,1.88,1.88,0,0,0,.67.7A1.72,1.72,0,0,0,211.27,62.86Z"/><path class="cls-2" d="M225.31,65.67a1.81,1.81,0,0,1-1-.25.73.73,0,0,1-.33-.61l.19-.32a1.79,1.79,0,0,1-.44.46,3.09,3.09,0,0,1-.83.5,3.36,3.36,0,0,1-1.27.22,3.85,3.85,0,0,1-1.67-.38,4.59,4.59,0,0,1-1.39-1.06,5.07,5.07,0,0,1-1-1.53,4.58,4.58,0,0,1-.35-1.8,4.52,4.52,0,0,1,.35-1.78,4.78,4.78,0,0,1,1-1.5,4.61,4.61,0,0,1,1.39-1,3.64,3.64,0,0,1,1.66-.38,3.27,3.27,0,0,1,1.19.19,3.41,3.41,0,0,1,.83.47,2.62,2.62,0,0,1,.5.51l-.15-.26a.77.77,0,0,1,.31-.7,2,2,0,0,1,1.06-.23,1.76,1.76,0,0,1,1,.21.87.87,0,0,1,.36.55,4,4,0,0,1,.06.72v6.55a4.17,4.17,0,0,1-.06.71.9.9,0,0,1-.36.54A1.9,1.9,0,0,1,225.31,65.67ZM222,62.84a1.72,1.72,0,0,0,.91-.26,1.85,1.85,0,0,0,.64-.69,2,2,0,0,0,.24-1,1.86,1.86,0,0,0-.25-1,1.9,1.9,0,0,0-.66-.69A1.73,1.73,0,0,0,222,59a1.86,1.86,0,0,0-1,.26,2,2,0,0,0-.69.71,1.92,1.92,0,0,0-.25,1,1.81,1.81,0,0,0,.25.94,2,2,0,0,0,1.7.94Z"/><path class="cls-2" d="M226.94,69.58a2.9,2.9,0,0,1-.66-.07.76.76,0,0,1-.52-.36,1.71,1.71,0,0,1-.2-1,1.62,1.62,0,0,1,.2-.94.85.85,0,0,1,.53-.38,3.11,3.11,0,0,1,.69-.07,2.53,2.53,0,0,0,.53-.06,1.45,1.45,0,0,0,.54-.24,1.27,1.27,0,0,0,.4-.52,2,2,0,0,0,.17-.89V57.46a3.21,3.21,0,0,1,.06-.63.81.81,0,0,1,.37-.49,1.89,1.89,0,0,1,1-.19,1.74,1.74,0,0,1,1,.21.79.79,0,0,1,.35.53,3.74,3.74,0,0,1,.06.68v7.58a4.46,4.46,0,0,1-.39,1.93,4.16,4.16,0,0,1-1,1.39,4.6,4.6,0,0,1-1.43.84A5,5,0,0,1,226.94,69.58Zm3-14.78a1.56,1.56,0,0,1-1.12-.31,1.72,1.72,0,0,1-.3-1.17,1.53,1.53,0,0,1,.31-1.12,1.62,1.62,0,0,1,1.15-.31,1.53,1.53,0,0,1,1.13.31,1.62,1.62,0,0,1,.3,1.14,1.68,1.68,0,0,1-.31,1.15A1.61,1.61,0,0,1,230,54.8Z"/><path class="cls-2" d="M241.06,65.67a1.75,1.75,0,0,1-1-.25.72.72,0,0,1-.34-.61l.19-.32a1.91,1.91,0,0,1-.43.46,3.12,3.12,0,0,1-2.11.72,3.85,3.85,0,0,1-1.67-.38,4.59,4.59,0,0,1-1.39-1.06,5.07,5.07,0,0,1-1-1.53,4.58,4.58,0,0,1-.35-1.8,4.52,4.52,0,0,1,.35-1.78,5,5,0,0,1,1-1.5,4.61,4.61,0,0,1,1.39-1,3.64,3.64,0,0,1,1.66-.38,3.27,3.27,0,0,1,1.19.19,3.41,3.41,0,0,1,.83.47,2.62,2.62,0,0,1,.5.51l-.15-.26a.76.76,0,0,1,.32-.7,1.9,1.9,0,0,1,1.05-.23,1.74,1.74,0,0,1,1,.21.87.87,0,0,1,.36.55,4,4,0,0,1,.07.72v6.55a4.17,4.17,0,0,1-.07.71.9.9,0,0,1-.36.54A1.9,1.9,0,0,1,241.06,65.67Zm-3.31-2.83a1.72,1.72,0,0,0,.91-.26,1.85,1.85,0,0,0,.64-.69,2,2,0,0,0,.24-1,1.86,1.86,0,0,0-.25-1,1.9,1.9,0,0,0-.66-.69,1.71,1.71,0,0,0-.91-.25,1.86,1.86,0,0,0-1,.26,2,2,0,0,0-.69.71,1.92,1.92,0,0,0-.25,1,1.81,1.81,0,0,0,.25.94,2,2,0,0,0,1.7.94Z"/><path class="cls-2" d="M245.72,65.69a1.87,1.87,0,0,1-1-.2.82.82,0,0,1-.36-.54,3.35,3.35,0,0,1-.07-.71V57.61a3.06,3.06,0,0,1,.08-.7.81.81,0,0,1,.37-.52,1.77,1.77,0,0,1,1-.2,1.89,1.89,0,0,1,1,.18.79.79,0,0,1,.37.41,1.46,1.46,0,0,1,.08.41l-.23.12a2,2,0,0,1,.2-.28,3.14,3.14,0,0,1,.45-.42,2.8,2.8,0,0,1,.69-.37,2.73,2.73,0,0,1,.94-.15l.47,0a3.58,3.58,0,0,1,.53.11,2.54,2.54,0,0,1,.5.23,1.24,1.24,0,0,1,.37.35.86.86,0,0,1,.15.52,2.25,2.25,0,0,1-.37,1.32,1.06,1.06,0,0,1-.91.54,1.21,1.21,0,0,1-.45-.06l-.22-.11-.2-.11a1.31,1.31,0,0,0-.42,0,1.91,1.91,0,0,0-.54.08,1.54,1.54,0,0,0-.48.24,1.19,1.19,0,0,0-.34.4,1.14,1.14,0,0,0-.12.52v4.18a3.11,3.11,0,0,1-.07.69.77.77,0,0,1-.37.53A2,2,0,0,1,245.72,65.69Z"/></g></g></svg>