<svg xmlns="http://www.w3.org/2000/svg" xmlns:xlink="http://www.w3.org/1999/xlink" viewBox="0 0 188.25 149.91"><defs><style>.cls-1,.cls-28,.cls-29,.cls-30,.cls-38,.cls-50{fill:none;}.cls-2{fill:#e5e5e5;}.cls-3{fill:#760dc9;}.cls-4{fill:#d7840b;}.cls-32,.cls-34,.cls-35,.cls-36,.cls-43,.cls-5{fill:#fff;}.cls-10,.cls-11,.cls-12,.cls-13,.cls-14,.cls-15,.cls-16,.cls-17,.cls-18,.cls-19,.cls-20,.cls-22,.cls-23,.cls-26,.cls-27,.cls-28,.cls-30,.cls-31,.cls-32,.cls-33,.cls-35,.cls-36,.cls-37,.cls-38,.cls-39,.cls-40,.cls-43,.cls-44,.cls-45,.cls-46,.cls-48,.cls-49,.cls-5,.cls-50,.cls-52,.cls-54,.cls-6,.cls-7,.cls-8,.cls-9{stroke:#000;}.cls-10,.cls-11,.cls-12,.cls-13,.cls-14,.cls-15,.cls-16,.cls-17,.cls-18,.cls-19,.cls-20,.cls-22,.cls-23,.cls-27,.cls-28,.cls-29,.cls-30,.cls-31,.cls-32,.cls-33,.cls-35,.cls-36,.cls-37,.cls-38,.cls-39,.cls-40,.cls-43,.cls-44,.cls-45,.cls-46,.cls-48,.cls-49,.cls-5,.cls-50,.cls-52,.cls-54,.cls-55,.cls-56,.cls-6,.cls-7,.cls-8,.cls-9{stroke-miterlimit:10;}.cls-22,.cls-23,.cls-30,.cls-38,.cls-5{stroke-width:0.68px;}.cls-23,.cls-49,.cls-6{fill:#ccc;}.cls-11,.cls-12,.cls-13,.cls-6{stroke-width:0.53px;}.cls-17,.cls-7{fill:#a4aeaf;}.cls-7{stroke-width:0.54px;}.cls-10,.cls-8{fill:#3d3d3d;}.cls-16,.cls-17,.cls-18,.cls-19,.cls-20,.cls-28,.cls-31,.cls-32,.cls-33,.cls-54,.cls-8{stroke-width:0.51px;}.cls-16,.cls-9{fill:#9caeae;}.cls-10,.cls-9{stroke-width:0.45px;}.cls-11{fill:#80644f;}.cls-12{fill:#b58148;}.cls-13{fill:#c39156;}.cls-14{fill:#a97746;stroke-width:0.54px;}.cls-15{fill:#a27242;stroke-width:0.53px;}.cls-18{fill:#9fafaf;}.cls-19{fill:#9cabae;}.cls-20{fill:#9e7549;}.cls-21{fill:#fbccac;}.cls-22,.cls-48{fill:#ff7bac;}.cls-24{fill:#d88500;}.cls-25,.cls-52{fill:#f9b233;}.cls-26,.cls-35,.cls-38{stroke-linecap:round;}.cls-26{stroke-linejoin:round;stroke-width:0px;}.cls-27{fill:#666;}.cls-27,.cls-35,.cls-43,.cls-44,.cls-45,.cls-46,.cls-50,.cls-52{stroke-width:0.34px;}.cls-29{stroke:#bf720c;stroke-width:0.27px;}.cls-31{fill:#c18a51;}.cls-33,.cls-42{fill:#d88407;}.cls-36{stroke-width:0.31px;}.cls-37{stroke-width:0.04px;}.cls-39{fill:#ffd18f;stroke-width:0.21px;}.cls-40{stroke-width:0.04px;}.cls-41{clip-path:url(#clip-path);}.cls-44{fill:#e35154;}.cls-45{fill:#873f4a;}.cls-46{fill:#b94244;}.cls-47{fill:#afaeac;}.cls-48,.cls-49{stroke-width:0.43px;}.cls-51{fill:#7f7f7f;}.cls-53{clip-path:url(#clip-path-2);}.cls-54{fill:#d37d06;}.cls-55,.cls-56{fill:#148adb;stroke-width:1.32px;}.cls-55{stroke:#098943;}.cls-56{stroke:#ed0018;}</style><clipPath id="clip-path"><rect class="cls-1" x="101.28" y="54.96" width="32.17" height="35.65"/></clipPath><clipPath id="clip-path-2"><path class="cls-1" d="M36.29,58.75a63.82,63.82,0,0,1,6.29,12.52L26.92,86.07s-7.69,2.23-8.47,2.09S7.85,78.3,7.85,78.3l4-13.38,20.14-5.5Z"/></clipPath></defs><title>paso3img1</title><g id="Layer_2" data-name="Layer 2"><g id="Paso_3" data-name="Paso 3"><path class="cls-2" d="M131.94,125.41a5.52,5.52,0,0,1-1-.1l-.19,0a37.58,37.58,0,0,0-5.25-.79A44.38,44.38,0,0,0,121,125a17.8,17.8,0,0,1-2,.22,7.62,7.62,0,0,1-6-2.53,3.4,3.4,0,0,0,1.59,3.13c2.23,1.25,3.92,1,6.27.75a28.35,28.35,0,0,1,5-.28,22.7,22.7,0,0,1,3.19.41c2.26.4,4,.72,6.18-.75a2.68,2.68,0,0,0,1-3.06A4.87,4.87,0,0,1,131.94,125.41Z"/><path class="cls-3" d="M133.44,114.23a10.06,10.06,0,0,1-1.42.38.32.32,0,0,1-.37-.25.32.32,0,0,1,.26-.37,9,9,0,0,0,1.43-.4l0,0c1.21-.48,2-1.19,2-1.94,0-1.38-2.46-2.54-5.38-2.54s-5.37,1.16-5.37,2.54c0,.7.65,1.37,1.71,1.84h0a8.18,8.18,0,0,0,2.32.61.32.32,0,0,1,0,.63h0a9.07,9.07,0,0,1-2.35-.6,6.62,6.62,0,0,0-2.3,2.46,6.58,6.58,0,0,1,1.46,2.19.3.3,0,0,1-.16.41.32.32,0,0,1-.42-.16,5.09,5.09,0,0,0-2.4-2.75h0a8.15,8.15,0,0,0-3.4-.71c-3.49,0-6.34,2-6.34,4.53a3.4,3.4,0,0,0,.4,1.58c.93,1.77,3.31,3,5.94,3,.09,0,1.39-.1,1.9-.21h0a42.6,42.6,0,0,1,4.64-.57,37.25,37.25,0,0,1,5.36.8l.19,0a4.27,4.27,0,0,0,4.85-2.65l0,0a6.66,6.66,0,0,0,.41-2.29A6.58,6.58,0,0,0,133.44,114.23Z"/><path d="M134.12,113.93a2.79,2.79,0,0,0,1.85-2.3c0-1.78-2.64-3.18-6-3.18s-6,1.4-6,3.18a2.69,2.69,0,0,0,1.61,2.17,7.08,7.08,0,0,0-2.13,2.36,3.44,3.44,0,0,0-.8-.47,8.8,8.8,0,0,0-3.65-.76c-3.84,0-7,2.31-7,5.16a3.9,3.9,0,0,0,.42,1.76,5.17,5.17,0,0,0,0,1.52,3.83,3.83,0,0,0,1.88,3c2.41,1.35,4.29,1.12,6.65.83a27.41,27.41,0,0,1,4.91-.28,23.5,23.5,0,0,1,3.11.4,16.61,16.61,0,0,0,2.89.35,6.29,6.29,0,0,0,3.76-1.2,3.46,3.46,0,0,0,1-4.42,7.38,7.38,0,0,0,.4-2.38A7.22,7.22,0,0,0,134.12,113.93ZM135.23,126c-2.13,1.47-3.92,1.15-6.18.75a22.7,22.7,0,0,0-3.19-.41,28.35,28.35,0,0,0-5,.28c-2.35.29-4,.5-6.27-.75a3.4,3.4,0,0,1-1.59-3.13,7.62,7.62,0,0,0,6,2.53,17.8,17.8,0,0,0,2-.22,44.38,44.38,0,0,1,4.51-.56,37.58,37.58,0,0,1,5.25.79l.19,0a5.52,5.52,0,0,0,1,.1,4.87,4.87,0,0,0,4.27-2.48A2.68,2.68,0,0,1,135.23,126Zm.72-4,0,0a4.27,4.27,0,0,1-4.85,2.65l-.19,0a37.25,37.25,0,0,0-5.36-.8,42.6,42.6,0,0,0-4.64.57h0c-.51.11-1.81.2-1.9.21-2.63,0-5-1.19-5.94-3a3.4,3.4,0,0,1-.4-1.58c0-2.5,2.85-4.53,6.34-4.53a8.15,8.15,0,0,1,3.4.71h0a5.09,5.09,0,0,1,2.4,2.75.32.32,0,0,0,.42.16.3.3,0,0,0,.16-.41,6.58,6.58,0,0,0-1.46-2.19,6.62,6.62,0,0,1,2.3-2.46,9.07,9.07,0,0,0,2.35.6h0a.32.32,0,0,0,0-.63,8.18,8.18,0,0,1-2.32-.61h0c-1.06-.47-1.71-1.14-1.71-1.84,0-1.38,2.46-2.54,5.37-2.54s5.38,1.16,5.38,2.54c0,.75-.75,1.46-2,1.94l0,0a9,9,0,0,1-1.43.4.32.32,0,0,0-.26.37.32.32,0,0,0,.37.25,10.06,10.06,0,0,0,1.42-.38,6.58,6.58,0,0,1,2.92,5.48A6.66,6.66,0,0,1,136,122Z"/><path class="cls-4" d="M130.06,112.89a2.14,2.14,0,0,1-2.12-1.81c-1.75-10.77,3.09-21.9,3.3-22.37a2.16,2.16,0,0,1,2-1.28,2.05,2.05,0,0,1,.88.19,2.16,2.16,0,0,1,1.1,2.84c-.05.1-4.54,10.43-3,19.93a2.16,2.16,0,0,1-1.79,2.47A2,2,0,0,1,130.06,112.89Z"/><path d="M133.21,87.77a1.92,1.92,0,0,1,.74.15,1.83,1.83,0,0,1,.93,2.4c-.08.17-4.57,10.57-3,20.12a1.82,1.82,0,0,1-1.5,2.09l-.3,0a1.82,1.82,0,0,1-1.79-1.53c-1.73-10.66,3.07-21.7,3.28-22.17a1.82,1.82,0,0,1,1.66-1.08m0-.68h0a2.51,2.51,0,0,0-2.28,1.49c-.21.47-5.09,11.68-3.32,22.55a2.47,2.47,0,0,0,2.45,2.1,1.9,1.9,0,0,0,.41,0,2.49,2.49,0,0,0,2.06-2.86c-1.52-9.32,2.92-19.63,3-19.74a2.49,2.49,0,0,0-1.28-3.28,2.36,2.36,0,0,0-1-.22Z"/><path class="cls-5" d="M127.75,107.56H132a.27.27,0,0,1,.27.27v3.61a1.63,1.63,0,0,1-1.63,1.63h-1.57a1.63,1.63,0,0,1-1.63-1.63v-3.61A.27.27,0,0,1,127.75,107.56Z" transform="translate(-6.51 8.16) rotate(-3.51)"/><path class="cls-2" d="M148.38,124.87a5.52,5.52,0,0,1-1-.09l-.19,0A37.23,37.23,0,0,0,142,124a41.91,41.91,0,0,0-4.52.56,17.8,17.8,0,0,1-2,.22,7.63,7.63,0,0,1-6-2.53,3.42,3.42,0,0,0,1.59,3.13c2.23,1.25,3.93,1,6.27.75a28.24,28.24,0,0,1,5-.29,23,23,0,0,1,3.2.42c2.26.4,4,.72,6.18-.75a2.71,2.71,0,0,0,1-3.06A4.9,4.9,0,0,1,148.38,124.87Z"/><path class="cls-3" d="M149.88,113.69a9.15,9.15,0,0,1-1.42.39.32.32,0,0,1-.12-.62,8.41,8.41,0,0,0,1.43-.4l0,0c1.21-.48,2-1.19,2-2,0-1.37-2.46-2.54-5.37-2.54s-5.38,1.17-5.38,2.54c0,.71.66,1.37,1.71,1.85h0a8.62,8.62,0,0,0,2.32.61.31.31,0,0,1,.28.35.32.32,0,0,1-.32.28h0a8.66,8.66,0,0,1-2.36-.6,6.65,6.65,0,0,0-2.3,2.47,6.48,6.48,0,0,1,1.47,2.19.31.31,0,0,1-.17.41.3.3,0,0,1-.41-.16,5,5,0,0,0-2.41-2.75h0a8.27,8.27,0,0,0-3.4-.7c-3.49,0-6.33,2-6.33,4.53a3.31,3.31,0,0,0,.4,1.58c.92,1.77,3.31,3,5.93,3a17.82,17.82,0,0,0,1.9-.2h0a42.88,42.88,0,0,1,4.63-.56,35.91,35.91,0,0,1,5.36.8l.19,0a4.27,4.27,0,0,0,4.86-2.66v0a6.61,6.61,0,0,0-2.5-7.77Z"/><path d="M150.55,113.4a2.8,2.8,0,0,0,1.86-2.31c0-1.78-2.64-3.17-6-3.17s-6,1.39-6,3.17a2.67,2.67,0,0,0,1.6,2.17,7.23,7.23,0,0,0-2.13,2.37,4,4,0,0,0-.79-.48,9,9,0,0,0-3.66-.76c-3.84,0-7,2.32-7,5.17a4,4,0,0,0,.41,1.76,5.16,5.16,0,0,0,0,1.52,3.88,3.88,0,0,0,1.88,3c2.42,1.35,4.29,1.12,6.66.83a26.39,26.39,0,0,1,4.9-.28,22.29,22.29,0,0,1,3.12.4,16.39,16.39,0,0,0,2.89.35A6.36,6.36,0,0,0,152,126a3.46,3.46,0,0,0,1-4.42,7.26,7.26,0,0,0-2.47-8.16Zm1.12,12.06c-2.14,1.47-3.92,1.15-6.18.75a23,23,0,0,0-3.2-.42,28.24,28.24,0,0,0-5,.29c-2.34.29-4,.5-6.27-.75a3.42,3.42,0,0,1-1.59-3.13,7.63,7.63,0,0,0,6,2.53,17.8,17.8,0,0,0,2-.22A41.91,41.91,0,0,1,142,124a37.23,37.23,0,0,1,5.24.79l.19,0a5.52,5.52,0,0,0,1,.09,4.9,4.9,0,0,0,4.27-2.47A2.71,2.71,0,0,1,151.67,125.46Zm.71-4v0a4.27,4.27,0,0,1-4.86,2.66l-.19,0a35.91,35.91,0,0,0-5.36-.8,42.88,42.88,0,0,0-4.63.56h0a17.82,17.82,0,0,1-1.9.2c-2.62,0-5-1.18-5.93-3a3.31,3.31,0,0,1-.4-1.58c0-2.5,2.84-4.53,6.33-4.53a8.27,8.27,0,0,1,3.4.7h0a5,5,0,0,1,2.41,2.75.3.3,0,0,0,.41.16.31.31,0,0,0,.17-.41,6.48,6.48,0,0,0-1.47-2.19,6.65,6.65,0,0,1,2.3-2.47,8.66,8.66,0,0,0,2.36.6h0a.32.32,0,0,0,.32-.28.31.31,0,0,0-.28-.35,8.62,8.62,0,0,1-2.32-.61h0c-1-.48-1.71-1.14-1.71-1.85,0-1.37,2.46-2.54,5.38-2.54s5.37,1.17,5.37,2.54c0,.76-.74,1.47-2,2l0,0a8.41,8.41,0,0,1-1.43.4.32.32,0,0,0,.12.62,9.15,9.15,0,0,0,1.42-.39,6.61,6.61,0,0,1,2.5,7.77Z"/><path class="cls-4" d="M146.5,112.36a2.16,2.16,0,0,1-2.13-1.82c-1.74-10.74,3.1-21.89,3.3-22.36a2.16,2.16,0,0,1,2-1.28,2.19,2.19,0,0,1,.87.18,2.16,2.16,0,0,1,1.1,2.85c-.05.1-4.53,10.48-3,19.92a2.16,2.16,0,0,1-1.78,2.48Z"/><path d="M149.65,87.24a1.91,1.91,0,0,1,.73.15,1.82,1.82,0,0,1,.93,2.4c-.07.17-4.57,10.57-3,20.12a1.82,1.82,0,0,1-1.51,2.08,1.43,1.43,0,0,1-.29,0,1.81,1.81,0,0,1-1.79-1.53C143,99.83,147.78,88.78,148,88.32a1.82,1.82,0,0,1,1.67-1.08m0-.68h0a2.48,2.48,0,0,0-2.28,1.49c-.21.47-5.09,11.69-3.33,22.55a2.48,2.48,0,0,0,2.46,2.09,2.69,2.69,0,0,0,.4,0A2.49,2.49,0,0,0,149,109.8c-1.52-9.35,2.92-19.64,3-19.74a2.51,2.51,0,0,0-1.27-3.29,2.54,2.54,0,0,0-1-.21Z"/><path class="cls-5" d="M144.18,107h4.29a.27.27,0,0,1,.27.27v3.61a1.63,1.63,0,0,1-1.63,1.63h-1.57a1.63,1.63,0,0,1-1.63-1.63v-3.61a.27.27,0,0,1,.27-.27Z" transform="translate(-6.45 9.17) rotate(-3.51)"/><polygon class="cls-6" points="163.54 85.98 164.34 68.53 166.67 68.53 166.31 85.98 163.54 85.98"/><polygon class="cls-6" points="142.72 82.58 143.52 65.13 145.85 65.13 145.49 82.58 142.72 82.58"/><path class="cls-7" d="M149.8,97.71l-1.28,0a13.28,13.28,0,0,0-1.41,0l-.28,0-.9,26.73c1.14,1.31,2.33,1.38,3.57,0l.71-26.82A2.83,2.83,0,0,1,149.8,97.71Z"/><path class="cls-8" d="M149.57,124.51l.38,4.55a3.64,3.64,0,0,1-4.53,0l.58-4.68A2.68,2.68,0,0,0,149.57,124.51Z"/><path class="cls-9" d="M163,91.1,165.58,114c.95.65,1.85.75,2.62-.32l-3.07-23.58A14.52,14.52,0,0,0,163,91.1Z"/><path class="cls-10" d="M165.52,113.51l.07,4c1.27,1.67,2.41,1.25,3.5-.22l-1-4.32A1.64,1.64,0,0,1,165.52,113.51Z"/><path class="cls-11" d="M168.69,67.9l.66-13.12a2.45,2.45,0,0,0-1.86-2.52l-21.35-5a2.4,2.4,0,0,0-2.91,2.24l-.8,12.66a2.44,2.44,0,0,0,1.82,2.54l21.48,5.42a2.62,2.62,0,0,0,.73.07A2.44,2.44,0,0,0,168.69,67.9Z"/><path class="cls-12" d="M166.81,69.16,167.47,56a2.45,2.45,0,0,0-1.86-2.53l-21.35-5a2.4,2.4,0,0,0-2.91,2.24l-.8,12.66A2.44,2.44,0,0,0,142.37,66l21.48,5.42a2,2,0,0,0,.73.07A2.44,2.44,0,0,0,166.81,69.16Z"/><path class="cls-13" d="M165,85.52l-29.09-7.68a2,2,0,0,0-1.13.06l-14.7,5.53a1.26,1.26,0,0,0,0,2.44l27.75,9.75a1.86,1.86,0,0,0,1.41-.07l16-7.61A1.26,1.26,0,0,0,165,85.52Z"/><polygon class="cls-14" points="166.11 87.31 166.11 90.47 149.07 99.4 149.28 95.75 166.11 87.31"/><polygon class="cls-15" points="118.74 89.19 119.18 85.87 148.56 95.55 148.56 99.37 118.74 89.19"/><path class="cls-16" d="M153.28,100.81l.64.46a2.36,2.36,0,0,1,1,1.58L159,130.73c1.23.66,2.38.75,3.38-.32l-4.72-28.08a4.67,4.67,0,0,0-1-2.14l-1-1.29Z"/><path class="cls-8" d="M159,130.29l.09,4c1.63,1.68,3.1,1.25,4.51-.21l-1.27-4.32A2.43,2.43,0,0,1,159,130.29Z"/><path class="cls-17" d="M127.38,110.94l.88,1.72a9,9,0,0,1,1,3.79l.84,28a2.23,2.23,0,0,0,3.57,0l-1.11-29.27a6.58,6.58,0,0,0-.35-1.87l-1.09-3.17Z"/><path class="cls-8" d="M130,144.32l-.38,4.55a3.66,3.66,0,0,0,4.53,0l-.58-4.68A2.68,2.68,0,0,1,130,144.32Z"/><path class="cls-18" d="M98.42,99.5l-.89,1.78a3.63,3.63,0,0,0-.37,1.37l-1.84,27,0,.32a2.32,2.32,0,0,0,3.12,0l1.32-26.73a3.81,3.81,0,0,1,.17-1l.55-1.8Z"/><path class="cls-8" d="M94.75,133.31a3,3,0,0,0,4.16,0l-.47-4.22a2.23,2.23,0,0,1-3.13.18Z"/><path class="cls-19" d="M94.86,91.51l1.54,6.12a3.3,3.3,0,0,0,2.06,2.31l31.65,12a5,5,0,0,0,4.07-.27l21.21-11.4a3.62,3.62,0,0,0,1.9-3l.19-5.28L132,103.83Z"/><path class="cls-20" d="M91.89,87.5v1.31A2.28,2.28,0,0,0,93.38,91L130,104.66a4.94,4.94,0,0,0,4.08-.27l23.73-12.68A2.25,2.25,0,0,0,159,89.48l-.1-.92L132,102.3Z"/><polygon class="cls-21" points="156.71 22.26 152.89 26.11 149.16 22.26 145.43 26.11 141.68 22.26 137.94 26.11 134.14 22.26 145.41 6.07 156.71 22.26"/><path class="cls-22" d="M156.33,84.12a9.9,9.9,0,0,1-2,3.87c-3.23,3.76-8.21,3.52-8.88,3.48A12,12,0,0,1,136.94,88a11.27,11.27,0,0,1-2.45-3.92Z"/><path class="cls-23" d="M156.52,74.65q0,4.35,0,8.72c-.05.22-.1.47-.17.75H134.49c-.12-.34-.22-.65-.29-.91V74.65Z"/><path class="cls-24" d="M156.71,22.26V29s-.15,30.44-.19,45.66h-7.36V22.26l3.73,3.85Z"/><polygon class="cls-24" points="141.66 22.25 141.66 74.64 134.19 74.64 134.13 28.98 134.13 22.25 137.93 26.09 141.66 22.25"/><polygon class="cls-25" points="149.16 22.26 149.16 74.65 141.68 74.65 141.68 22.26 145.43 26.11 149.16 22.26"/><path class="cls-26" d="M142.94,9.79a3.58,3.58,0,0,0,4.83,0l-2.36-3.72Z"/><line class="cls-27" x1="134.2" y1="76.39" x2="156.66" y2="76.39"/><line class="cls-27" x1="134.2" y1="82.47" x2="156.66" y2="82.47"/><line class="cls-1" x1="149.16" y1="22.26" x2="149.16" y2="22.23"/><line class="cls-28" x1="141.68" y1="74.65" x2="141.68" y2="74.65"/><line class="cls-28" x1="141.68" y1="22.26" x2="141.68" y2="22.26"/><line class="cls-29" x1="149.16" y1="22.23" x2="149.16" y2="74.65"/><line class="cls-29" x1="141.68" y1="22.29" x2="141.68" y2="74.65"/><path class="cls-30" d="M156.71,22.26,145.41,6.07,134.14,22.26V29l.06,45.66h22.32c0-15.22.19-45.66.19-45.66Z"/><polyline class="cls-30" points="134.14 22.26 137.94 26.11 141.68 22.26 145.43 26.11 149.16 22.26 152.89 26.11 156.71 22.26"/><path class="cls-31" d="M158.9,88.43l-24.31,13.1a6.84,6.84,0,0,1-5.73.34L92.43,87.58a.85.85,0,0,1,0-1.56l24.72-11.15a4.84,4.84,0,0,1,3.53-.17l38.19,12.82A.5.5,0,0,1,158.9,88.43Z"/><polygon class="cls-32" points="104.95 92.79 127.7 96.97 144.05 82.32 122.87 78.26 104.95 92.79"/><path class="cls-33" d="M151.77,59.1a13.55,13.55,0,0,1,.81,3.24,17.94,17.94,0,0,1-3.47,12.94c-2.72,3.66-4.63,4.73-6.39,5.31a1.17,1.17,0,0,0-.46,2l3.1,3a1.13,1.13,0,0,0,1.39.13c9.08-5.88,15.08-13.85,10.19-29.21a2.77,2.77,0,0,0-5.12-.4l0,.06A3.83,3.83,0,0,0,151.77,59.1Z"/><polygon class="cls-34" points="134.79 86.81 135.39 88 142.1 88 144.93 83.06 143.25 81.99 140.92 82.16 138.04 82.35 135.84 83.23 134.79 86.81"/><path class="cls-35" d="M141.16,81.43c.61-1.15,1.67-1.58,3.75-.37a5.1,5.1,0,0,1,1.14.86,3.41,3.41,0,0,1,1.07,2.34,2.49,2.49,0,0,1-1.73,2.4l-.46.16"/><path class="cls-35" d="M143.05,82.22c-1.36-1-3.41-.66-5.61-.1a4.22,4.22,0,0,1-.7.1,6.38,6.38,0,0,0-2.05.33A1.82,1.82,0,0,0,133.61,85a2.5,2.5,0,0,0,.51.75"/><path class="cls-35" d="M137.43,83.45c-4.38,1.85-5.63,4-5.73,6.3a1.55,1.55,0,0,0,1.56,1.62l.5,0"/><path class="cls-35" d="M137.24,86.18c-3.54,2.44-4.25,4.53-3.62,6.47a1.21,1.21,0,0,0,1.26.84H135a2,2,0,0,0,1.5-1.19,13.24,13.24,0,0,1,3.2-4.2c-1.3,1.45-2.26,3-1.78,5.17a1.27,1.27,0,0,0,1.28,1l.14,0a1.43,1.43,0,0,0,1.1-1l1.08-3.09c3.8-.36,4.52-2.73,3.67-6.12"/><ellipse class="cls-36" cx="134.79" cy="41.78" rx="4.26" ry="6.31"/><ellipse class="cls-37" cx="134.79" cy="44.84" rx="2.19" ry="3.24"/><circle class="cls-34" cx="135.63" cy="43.28" r="0.84"/><ellipse class="cls-36" cx="146.93" cy="41.6" rx="4.26" ry="6.31"/><ellipse class="cls-37" cx="146.24" cy="44.12" rx="2.19" ry="3.24"/><circle class="cls-34" cx="147.08" cy="42.62" r="0.84"/><path class="cls-38" d="M131.25,33s2.45-2.57,4.83,0"/><path class="cls-38" d="M145,32s2.46-2.57,4.84,0"/><path class="cls-39" d="M148.86,50.65a1.57,1.57,0,0,1,1.44,2.64,12.75,12.75,0,0,1-13.55,2.89,1.57,1.57,0,0,1,1.12-2.94,9.59,9.59,0,0,0,10.21-2.17A1.54,1.54,0,0,1,148.86,50.65Z"/><path class="cls-40" d="M137.2,54.2a.51.51,0,0,1,.3,0,10.63,10.63,0,0,0,11.31-2.41.53.53,0,0,1,.75.75,11.7,11.7,0,0,1-12.44,2.64.52.52,0,0,1,.08-1Z"/><polygon class="cls-1" points="131.23 78.26 140.27 81.32 128.78 83.53 126.63 96.24 140.27 96.97 149.45 84.37 158.83 87.52 169.35 21.12 152.24 0 129.76 2.64 105.61 15.35 100.23 46.53 102.58 72.15 102.58 83.39 110.11 89.97 120.08 88.2 123.21 78.89 126.81 76.74 131.23 78.26"/><g class="cls-41"><path class="cls-42" d="M119.14,83.52a2.88,2.88,0,0,1-.91-5.61c13-4.35,15.69-20.6,15.71-20.77a2.9,2.9,0,0,1,2.85-2.43,3.11,3.11,0,0,1,.43,0A2.88,2.88,0,0,1,139.63,58c-.12.81-3.19,19.87-19.57,25.36A2.86,2.86,0,0,1,119.14,83.52Z"/><path d="M136.79,55a2.56,2.56,0,0,1,.39,0,2.62,2.62,0,0,1,2.2,3c-.12.8-3.17,19.7-19.4,25.15a2.74,2.74,0,0,1-.84.14,2.63,2.63,0,0,1-.83-5.12c13.17-4.41,15.86-20.8,15.88-21a2.64,2.64,0,0,1,2.6-2.22m0-.51h0a3.16,3.16,0,0,0-3.1,2.66c0,.16-2.69,16.26-15.54,20.56a3.17,3.17,0,0,0-1.81,1.58,3.13,3.13,0,0,0,3.8,4.36c16.52-5.54,19.62-24.74,19.74-25.56a3.13,3.13,0,0,0-2.62-3.56,3.89,3.89,0,0,0-.47,0Z"/><path class="cls-43" d="M109.76,82.67a2.66,2.66,0,0,0-.77,2.77,3.36,3.36,0,0,0,3.14,2.66,1.34,1.34,0,0,0,1.4-1c.43-1.73-.83-2.49-2.62-3"/><path class="cls-43" d="M109.53,80.12a2.66,2.66,0,0,0-.77,2.77,3.35,3.35,0,0,0,3.14,2.66,1.34,1.34,0,0,0,1.39-1c.44-1.72-.83-2.49-2.62-3"/><path class="cls-43" d="M117,76.63c1.78-.11,3.34.55,4.24,3.49.6,3.44-.93,4-2.48,4.55"/><path class="cls-43" d="M113.61,87.6c3-.74,6-1.31,5.6-6.28"/><path class="cls-43" d="M118.77,79.13c-.12-2.57-5.82-4.49-9.24-1.49a2.66,2.66,0,0,0-.77,2.77,3.36,3.36,0,0,0,3.14,2.66,1.34,1.34,0,0,0,1.39-1c.44-1.73-.83-2.5-2.62-3,1.3-1.1,2.7-1.91,4.76-.86-1.69,1.88-1.55,3.33-.69,4.61a1.51,1.51,0,0,0,2.31.26c.9-.86.91-2.07,0-3.63"/><path class="cls-44" d="M112.64,69.92a.08.08,0,0,1,0,0l3.78,14.44-3.45.91-3.79-14.49a.24.24,0,0,1,.14-.31,4.88,4.88,0,0,1,3-.8C112.48,69.68,112.6,69.78,112.64,69.92Z"/><rect class="cls-45" x="109.76" y="71.94" width="3.56" height="1.63" transform="translate(-14.79 30.63) rotate(-14.68)"/><rect class="cls-45" x="112.48" y="82.36" width="3.56" height="1.63" transform="translate(-17.34 31.66) rotate(-14.68)"/><path class="cls-46" d="M115.84,88.28l.58-3.8s0-.07,0-.06l-3.33.87a.06.06,0,0,0,0,.08l2.36,3Z"/><path class="cls-43" d="M110.52,79l.34-.28c-.19-.63-.23-1.3-.41-1.93a5.82,5.82,0,0,0-1.08.75,2.67,2.67,0,0,0-.77,2.76,3.35,3.35,0,0,0,3.14,2.66,1.33,1.33,0,0,0,1.4-1C113.57,80.19,112.31,79.42,110.52,79Z"/><path class="cls-43" d="M114.94,77.87a3.82,3.82,0,0,1,.51.23c-1.68,1.88-1.54,3.33-.68,4.62a1.51,1.51,0,0,0,2.3.25c.91-.86.91-2.07,0-3.63"/></g><path class="cls-34" d="M66.42,114.78c0,.3,0,.59,0,.88.19.15.37.31.54.47,0-.24,0-.49,0-.72a10.47,10.47,0,0,0-.57-2.53,17.18,17.18,0,0,1,.1,1.77Z"/><path class="cls-3" d="M55.74,115.38a9.27,9.27,0,0,1,5.37-1.57,8.62,8.62,0,0,1,4.68,1.4v-.55a16.71,16.71,0,0,0-.43-3.73,13.54,13.54,0,0,0-.53-1.7A5.55,5.55,0,0,1,61,111h0a.3.3,0,0,1,0-.6,4.75,4.75,0,0,0,3.66-1.85.37.37,0,0,1,.07-.12,2.2,2.2,0,0,0,.3-1.08c0-1.69-2-3.07-4.5-3.07S56,105.61,56,107.3a2.37,2.37,0,0,0,.62,1.53.27.27,0,0,1,.07.08,4.77,4.77,0,0,0,2.75,1.37.3.3,0,1,1-.1.59,5.57,5.57,0,0,1-2.79-1.24c-.11.34-.22.69-.31,1a16.59,16.59,0,0,0-.5,4.11v.12C55.74,115.06,55.74,115.22,55.74,115.38Z"/><path class="cls-3" d="M66.94,117a6.52,6.52,0,0,0-1-1h0a7.91,7.91,0,0,0-4.78-1.61,8.46,8.46,0,0,0-5.45,1.79,5.54,5.54,0,0,0-1.19,1.39,4.32,4.32,0,0,0-.59,1.77.66.66,0,0,0,0,.14,4.6,4.6,0,0,0,1.5,1.6,7.71,7.71,0,0,0,2.12,1,11.38,11.38,0,0,0,3.49.53c3.26,0,6.16-1.29,7.12-3.15a4.43,4.43,0,0,0-1.09-2.4Z"/><path class="cls-47" d="M61,123.24a12.46,12.46,0,0,1-3.66-.54A8.76,8.76,0,0,1,55,121.61a6.08,6.08,0,0,1-1.12-1c.27,1.58,1.47,2.69,3.51,3.25l.08,0a13.65,13.65,0,0,0,3.07.39h.53c4,0,6.42-1.25,6.91-3.63C66.64,122.24,64,123.24,61,123.24Z"/><path d="M67.56,116.81v-.2c0-.43,0-.86-.06-1.26A10.72,10.72,0,0,0,66,110.79h0a12.83,12.83,0,0,0-.71-2.17,2.86,2.86,0,0,0,.33-1.31c0-2-2.29-3.67-5.1-3.67s-5.1,1.64-5.1,3.67a2.9,2.9,0,0,0,.67,1.82,12,12,0,0,0-.44,1.4,10.77,10.77,0,0,0-1.73,5.4h0c0,.21,0,.43,0,.68s0,.51,0,.75a5,5,0,0,0-.64,2c0,.07,0,.13,0,.2-.16,2.42,1.25,4.17,4,4.92l.07,0a14.86,14.86,0,0,0,3.3.43h.54c6.55,0,7.59-3.2,7.63-5.11h0a2.79,2.79,0,0,0,0-.29A5,5,0,0,0,67.56,116.81Zm-.67-1.4c0,.23,0,.48,0,.72-.17-.16-.35-.32-.54-.47,0-.29,0-.58,0-.88v-.13a17.18,17.18,0,0,0-.1-1.77A10.47,10.47,0,0,1,66.89,115.41Zm-10.66-4.74c.09-.35.2-.7.31-1a5.57,5.57,0,0,0,2.79,1.24.3.3,0,1,0,.1-.59,4.77,4.77,0,0,1-2.75-1.37.27.27,0,0,0-.07-.08A2.37,2.37,0,0,1,56,107.3c0-1.69,2-3.07,4.5-3.07s4.5,1.38,4.5,3.07a2.2,2.2,0,0,1-.3,1.08.37.37,0,0,0-.07.12A4.75,4.75,0,0,1,61,110.35a.3.3,0,0,0,0,.6h0a5.55,5.55,0,0,0,3.82-1.72,13.54,13.54,0,0,1,.53,1.7,16.71,16.71,0,0,1,.43,3.73v.55a8.62,8.62,0,0,0-4.68-1.4,9.27,9.27,0,0,0-5.37,1.57c0-.16,0-.32,0-.48v-.12A16.59,16.59,0,0,1,56.23,110.67ZM54.48,116h0a11,11,0,0,1,.77-3.47,17.42,17.42,0,0,0-.15,2.3v.14c0,.3,0,.62,0,.93a6.31,6.31,0,0,0-.68.69C54.46,116.33,54.47,116.14,54.48,116Zm6.63,8.32h-.53a13.65,13.65,0,0,1-3.07-.39l-.08,0c-2-.56-3.24-1.67-3.51-3.25a6.08,6.08,0,0,0,1.12,1,8.76,8.76,0,0,0,2.28,1.09,12.46,12.46,0,0,0,3.66.54c3,0,5.66-1,7-2.59C67.53,123,65.16,124.28,61.11,124.28ZM61,122.67a11.38,11.38,0,0,1-3.49-.53,7.71,7.71,0,0,1-2.12-1,4.6,4.6,0,0,1-1.5-1.6.66.66,0,0,1,0-.14,4.32,4.32,0,0,1,.59-1.77,5.54,5.54,0,0,1,1.19-1.39,8.46,8.46,0,0,1,5.45-1.79,7.91,7.91,0,0,1,4.78,1.61h0a6.52,6.52,0,0,1,1,1l.07.08a4.43,4.43,0,0,1,1.09,2.4C67.14,121.38,64.24,122.67,61,122.67Z"/><path class="cls-4" d="M60.66,107.58a2.24,2.24,0,0,1-2.24-2.23V89.42a2.24,2.24,0,0,1,4.47,0v15.93A2.23,2.23,0,0,1,60.66,107.58Z"/><path d="M60.66,87.61a1.81,1.81,0,0,1,1.81,1.81v15.93a1.81,1.81,0,0,1-3.62,0V89.42a1.81,1.81,0,0,1,1.81-1.81m0-.84A2.66,2.66,0,0,0,58,89.42v15.93a2.66,2.66,0,0,0,5.31,0V89.42a2.65,2.65,0,0,0-2.65-2.65Z"/><polygon class="cls-6" points="73.29 85.77 74.1 68.31 76.42 68.31 76.07 85.77 73.29 85.77"/><polygon class="cls-6" points="52.47 82.37 53.28 64.92 55.6 64.92 55.24 82.37 52.47 82.37"/><path class="cls-7" d="M59.55,97.49l-1.27,0c-.47,0-1,0-1.41,0l-.29,0-.89,26.73c1.13,1.32,2.32,1.38,3.57,0L60,97.47Z"/><path class="cls-8" d="M59.32,124.29l.38,4.55a3.61,3.61,0,0,1-4.52,0l.57-4.68A2.67,2.67,0,0,0,59.32,124.29Z"/><path class="cls-9" d="M72.7,90.88l2.63,22.86c1,.65,1.85.75,2.62-.32L74.88,89.84A15.57,15.57,0,0,0,72.7,90.88Z"/><path class="cls-10" d="M75.28,113.3l.07,4c1.26,1.68,2.41,1.25,3.49-.22l-1-4.32A1.64,1.64,0,0,1,75.28,113.3Z"/><path class="cls-11" d="M78.44,67.69l.66-13.12A2.44,2.44,0,0,0,77.25,52l-21.36-5A2.41,2.41,0,0,0,53,49.32L52.19,62A2.44,2.44,0,0,0,54,64.52l21.48,5.42a2.06,2.06,0,0,0,.73.07A2.44,2.44,0,0,0,78.44,67.69Z"/><path class="cls-12" d="M76.56,68.94l.67-13.12a2.44,2.44,0,0,0-1.86-2.52L54,48.34a2.4,2.4,0,0,0-2.91,2.23l-.79,12.66a2.45,2.45,0,0,0,1.81,2.55L73.6,71.2a2.34,2.34,0,0,0,.74.06A2.42,2.42,0,0,0,76.56,68.94Z"/><path class="cls-13" d="M74.75,85.3,45.66,77.63a1.9,1.9,0,0,0-1.13.05l-14.7,5.53a1.26,1.26,0,0,0,0,2.44L57.63,95.4a1.84,1.84,0,0,0,1.4-.07l16-7.61A1.26,1.26,0,0,0,74.75,85.3Z"/><polygon class="cls-14" points="75.86 87.09 75.86 90.25 58.82 99.18 59.03 95.53 75.86 87.09"/><polygon class="cls-15" points="28.5 88.97 28.93 85.65 58.31 95.33 58.31 99.16 28.5 88.97"/><path class="cls-25" d="M45.39,76.28c-2.57-8.69-13.29-33.59-28.3-34l.56-21.23c10.14.27,24.91,5,37.75,26.17A107.58,107.58,0,0,1,65.77,70.32l-10.2,3Z"/><path class="cls-24" d="M14.9,27.26S48.79,30.7,61,73.39l.07.25,5.52-2.85S56.88,42.81,44,32c0,0-14-13.12-27.37-11.36Z"/><path class="cls-24" d="M14.38,34.75S45.69,40,52.47,75.16H44.54S34.77,41.6,16,42.61Z"/><path d="M17.65,21.06c10.14.27,24.91,5,37.75,26.17A107.58,107.58,0,0,1,65.77,70.32l-10.2,3-10.18,3c-2.57-8.69-13.29-33.59-28.3-34l.56-21.23M17,20.37l0,.68-.56,21.23,0,.67.67,0c14.61.39,25.14,24.93,27.67,33.5l.19.65.65-.19,10.18-3L66,71l.64-.19-.18-.65A108.54,108.54,0,0,0,56,46.88C43,25.48,28,20.66,17.67,20.39l-.67,0Z"/><polygon class="cls-21" points="16.62 20.68 20.25 24.5 16.41 28.02 20.04 31.75 16.2 35.29 19.83 39.03 15.99 42.61 0.59 31.21 16.62 20.68"/><path class="cls-26" d="M4.14,33.64A3.49,3.49,0,0,0,4.27,29L.59,31.14Z"/><polygon class="cls-30" points="15.99 42.61 0.59 31.21 16.62 20.68 20.25 24.36 16.41 27.88 20.04 31.61 16.2 35.15 19.83 38.89 15.99 42.61"/><path class="cls-48" d="M67.38,77.58a9.8,9.8,0,0,1-.89,4.28c-2.1,4.49-7,5.6-7.62,5.74a12,12,0,0,1-9.1-1,11.19,11.19,0,0,1-3.41-3.11Z"/><path class="cls-49" d="M65.52,68.41c2.11,4.06,2.3,5.28,2.27,8.42,0,.23,0,.48,0,.77C62,83.39,54.55,85,46.76,83.34c-.21-.29-.38-.56-.52-.8L44,74.28A65.88,65.88,0,0,0,65.52,68.41Z"/><path class="cls-50" d="M44.44,76a44.49,44.49,0,0,0,21.67-5.91"/><path class="cls-50" d="M46,81.83c8.1-.3,15.4-2.11,21.66-5.91"/><path class="cls-4" d="M45.3,115.91a2.24,2.24,0,0,1-1.35-4c7.09-5.39,6-18.82,6-19a2.25,2.25,0,0,1,2-2.42h.2a2.25,2.25,0,0,1,2.22,2c.06.65,1.32,16-7.74,22.91A2.2,2.2,0,0,1,45.3,115.91Z"/><path d="M52.17,90.93A1.8,1.8,0,0,1,54,92.58c.06.64,1.3,15.79-7.57,22.53a1.82,1.82,0,0,1-1.1.37,1.78,1.78,0,0,1-1.44-.71,1.81,1.81,0,0,1,.34-2.54c7.27-5.53,6.17-19.2,6.16-19.34a1.82,1.82,0,0,1,1.65-2h.16m0-.85h-.24A2.66,2.66,0,0,0,49.52,93c0,.13,1,13.36-5.83,18.59a2.66,2.66,0,0,0,1.61,4.77,2.67,2.67,0,0,0,1.61-.54c9.23-7,8-22.63,7.9-23.29a2.64,2.64,0,0,0-2.64-2.42Z"/><path class="cls-34" d="M39.94,118.68a7.15,7.15,0,0,1-2.07-3.24c-.43-1.41-.75-2.35-.92-2.73a8.82,8.82,0,0,0-1.26-2.08c-1.82-2.27-4.69-4.41-7.29-3.57a3.68,3.68,0,0,0-1,.52,4.82,4.82,0,0,0-.45.52,3.51,3.51,0,0,1,1.4-.35,5.67,5.67,0,0,1,3.41.86c2.49,1.42,4.5,4.3,6,8.57a3.48,3.48,0,0,0,.69,1.17c1.4,1.56,3.68,4.49,3.21,6.55a1.91,1.91,0,0,1-.19.52,5.26,5.26,0,0,0,1.08-.81C43.15,123,42.14,120.63,39.94,118.68Z"/><path class="cls-3" d="M42.51,110.7l-.17.11-.09.08a1.29,1.29,0,0,0-.35.91,4.39,4.39,0,0,1,1.6.74.32.32,0,0,1,.07.46.32.32,0,0,1-.27.14.33.33,0,0,1-.19-.06,3.84,3.84,0,0,0-2.21-.75l0,.46a2.62,2.62,0,0,0,0,.28c0,.24-.06,1.35-.07,1.57a.33.33,0,0,1-.35.31.33.33,0,0,1-.32-.35c0-.5.08-1.34.07-1.49s0-.19,0-.29a6.32,6.32,0,0,0-.06-.77,7.48,7.48,0,0,0-.54-2,7.64,7.64,0,0,0-10.32-3.87c2.57-.13,5.17,1.87,6.87,4a10.16,10.16,0,0,1,1.36,2.23c.18.41.49,1.35.94,2.81a6.32,6.32,0,0,0,1.88,2.93c2.07,1.84,3.15,4,3,5.83a7.65,7.65,0,0,0,3.15-6.17v-.2a11.73,11.73,0,0,0-.35-2.12.34.34,0,0,1,.65-.17,13.54,13.54,0,0,1,.35,2.05,2.05,2.05,0,0,0,.66,0,1.18,1.18,0,0,0,.63-.31c.83-.83.12-2.95-1.56-4.63C45.37,110.94,43.49,110.19,42.51,110.7Z"/><path class="cls-51" d="M37.66,118.47l-.29.3a9.8,9.8,0,0,1-3.67,2.37l-.3.1c.22.31.41.61.6.91a11,11,0,0,0,3.11,3.38,3.46,3.46,0,0,0,2.06.46,5.07,5.07,0,0,0,.68,0,1.7,1.7,0,0,0,1.13-1.2c.43-1.89-2.23-5-3.06-6A4,4,0,0,1,37.66,118.47Z"/><path class="cls-47" d="M36.89,118.3l.41-.42c-.07-.15-.14-.32-.2-.48-1.75-5.08-4-7.25-5.62-8.18a5.11,5.11,0,0,0-3-.81h0a2.54,2.54,0,0,0-2.51,2.16v0a4.08,4.08,0,0,0,0,1.15,10,10,0,0,0,2.72,4.72c.31.36,1.54,1.49,2.44,2.32l1.21,1.13c.26.27.48.52.68.77l.49-.17A9.13,9.13,0,0,0,36.89,118.3Z"/><path d="M42.25,110.2a1.06,1.06,0,0,0-.26.17.87.87,0,0,0-.14.12,1.79,1.79,0,0,0-.51,1.21,4.53,4.53,0,0,0-.52,0,8.39,8.39,0,0,0-.55-1.85,8.29,8.29,0,0,0-12.64-3.34c-.12.1-.36.29-.65.57a.46.46,0,0,1-.07.07l0,0a5.77,5.77,0,0,0-1.66,3.32v0h0a4.56,4.56,0,0,0,.05,1.37,10.63,10.63,0,0,0,2.87,5c.33.37,1.53,1.48,2.49,2.36l1.18,1.11a11.25,11.25,0,0,1,.77.88l0,0c.31.41.56.8.82,1.2a11.54,11.54,0,0,0,3.27,3.57,4.08,4.08,0,0,0,2.46.59,5.93,5.93,0,0,0,.84-.06h0a5.37,5.37,0,0,0,3-1.57s0,0,.05,0a8.34,8.34,0,0,0,4-7h.29a2.25,2.25,0,0,0,.46,0,1.8,1.8,0,0,0,.93-.47c1.08-1.09.4-3.47-1.56-5.43C45.57,110.34,43.46,109.57,42.25,110.2Zm-10,9.71-1.21-1.13c-.9-.83-2.13-2-2.44-2.32a10,10,0,0,1-2.72-4.72,4.08,4.08,0,0,1,0-1.15v0a2.54,2.54,0,0,1,2.51-2.16h0a5.11,5.11,0,0,1,3,.81c1.6.93,3.87,3.1,5.62,8.18.06.16.13.33.2.48l-.41.42a9.13,9.13,0,0,1-3.42,2.21l-.49.17C32.78,120.43,32.56,120.18,32.3,119.91ZM41,124.75a1.7,1.7,0,0,1-1.13,1.2,5.07,5.07,0,0,1-.68,0,3.46,3.46,0,0,1-2.06-.46A11,11,0,0,1,34,122.15c-.19-.3-.38-.6-.6-.91l.3-.1a9.8,9.8,0,0,0,3.67-2.37l.29-.3a4,4,0,0,0,.26.32C38.75,119.72,41.41,122.86,41,124.75Zm1.54-.14a5.26,5.26,0,0,1-1.08.81,1.91,1.91,0,0,0,.19-.52c.47-2.06-1.81-5-3.21-6.55a3.48,3.48,0,0,1-.69-1.17c-1.47-4.27-3.48-7.15-6-8.57a5.67,5.67,0,0,0-3.41-.86,3.51,3.51,0,0,0-1.4.35,4.82,4.82,0,0,1,.45-.52,3.68,3.68,0,0,1,1-.52c2.6-.84,5.47,1.3,7.29,3.57A8.82,8.82,0,0,1,37,112.71c.17.38.49,1.32.92,2.73a7.15,7.15,0,0,0,2.07,3.24C42.14,120.63,43.15,123,42.52,124.61Zm5.91-7.54a1.18,1.18,0,0,1-.63.31,2.05,2.05,0,0,1-.66,0,13.54,13.54,0,0,0-.35-2.05.34.34,0,0,0-.65.17,11.73,11.73,0,0,1,.35,2.12v.2A7.65,7.65,0,0,1,43.34,124c.2-1.8-.88-4-3-5.83a6.32,6.32,0,0,1-1.88-2.93c-.45-1.46-.76-2.4-.94-2.81a10.16,10.16,0,0,0-1.36-2.23c-1.7-2.13-4.3-4.13-6.87-4a7.64,7.64,0,0,1,10.32,3.87,7.48,7.48,0,0,1,.54,2,6.32,6.32,0,0,1,.06.77c0,.1,0,.19,0,.29s0,1-.07,1.49a.33.33,0,0,0,.32.35.33.33,0,0,0,.35-.31c0-.22.08-1.33.07-1.57a2.62,2.62,0,0,1,0-.28l0-.46a3.84,3.84,0,0,1,2.21.75.33.33,0,0,0,.19.06.32.32,0,0,0,.27-.14.32.32,0,0,0-.07-.46,4.39,4.39,0,0,0-1.6-.74,1.29,1.29,0,0,1,.35-.91l.09-.08.17-.11c1-.51,2.86.24,4.36,1.74C48.55,114.12,49.26,116.24,48.43,117.07Z"/><ellipse class="cls-36" cx="31.19" cy="48.93" rx="4.26" ry="6.31" transform="translate(-23.68 30.06) rotate(-38.51)"/><ellipse class="cls-37" cx="33.1" cy="51.33" rx="2.19" ry="3.24" transform="translate(-24.76 31.77) rotate(-38.51)"/><circle class="cls-34" cx="32.78" cy="49.58" r="0.84"/><path class="cls-52" d="M34.61,46.36c-2.16-2.72-5.41-3.75-7.25-2.28s-1.58,4.86.59,7.58A17.47,17.47,0,0,0,34.61,46.36Z"/><ellipse class="cls-36" cx="40.58" cy="41.23" rx="4.26" ry="6.31" transform="translate(-16.85 34.23) rotate(-38.51)"/><ellipse class="cls-37" cx="41.61" cy="43.63" rx="2.19" ry="3.24" transform="translate(-18.12 35.4) rotate(-38.51)"/><circle class="cls-34" cx="41.33" cy="41.94" r="0.84"/><path class="cls-52" d="M44,38.51c-2.17-2.72-5.42-3.74-7.26-2.28s-1.57,4.86.6,7.59A17.51,17.51,0,0,0,44,38.51Z"/><path class="cls-38" d="M27.61,40.54s0,3.55-3.48,3.36"/><path class="cls-38" d="M38.13,32.72s-.78,3.47-4.15,2.5"/><path class="cls-39" d="M42.22,60.45a1.57,1.57,0,0,1-2.52-1.66,12.73,12.73,0,0,1,10.58-8.93A1.57,1.57,0,1,1,50.67,53a9.6,9.6,0,0,0-8,6.72A1.55,1.55,0,0,1,42.22,60.45Z"/><path class="cls-40" d="M50.82,51.82a.55.55,0,0,1-.28.12A10.64,10.64,0,0,0,41.7,59.4a.52.52,0,0,1-1-.3,11.67,11.67,0,0,1,9.71-8.2.52.52,0,0,1,.59.45A.53.53,0,0,1,50.82,51.82Z"/><path class="cls-16" d="M67.73,100.36l.64.46a2.32,2.32,0,0,1,1,1.58l4.13,27.87c1.23.66,2.39.75,3.38-.31l-4.71-28.09a4.62,4.62,0,0,0-1-2.14l-1-1.29Z"/><path class="cls-8" d="M73.4,129.83l.09,3.95c1.63,1.68,3.11,1.26,4.51-.21l-1.27-4.32A2.43,2.43,0,0,1,73.4,129.83Z"/><path class="cls-17" d="M41.84,110.49l.87,1.71a9,9,0,0,1,1,3.79l.83,28a2.23,2.23,0,0,0,3.57,0L47,114.69a6.19,6.19,0,0,0-.35-1.86l-1.09-3.18Z"/><path class="cls-8" d="M44.45,143.86l-.39,4.55a3.63,3.63,0,0,0,4.53,0L48,143.73A2.65,2.65,0,0,1,44.45,143.86Z"/><path class="cls-18" d="M12.88,99.05,12,100.82a3.68,3.68,0,0,0-.37,1.37l-1.85,27,0,.31a2.33,2.33,0,0,0,3.13,0l1.31-26.73a4.29,4.29,0,0,1,.18-1l.55-1.8Z"/><path class="cls-8" d="M9.2,132.86a3,3,0,0,0,4.17,0l-.47-4.23a2.22,2.22,0,0,1-3.13.18Z"/><path class="cls-19" d="M9.32,91.05l1.53,6.12a3.36,3.36,0,0,0,2.06,2.32l31.65,11.94a4.91,4.91,0,0,0,4.07-.27l21.21-11.4a3.6,3.6,0,0,0,1.9-3l.2-5.29L46.4,103.38Z"/><path class="cls-20" d="M6.34,87.05v1.3A2.31,2.31,0,0,0,7.83,90.5l36.64,13.71a5,5,0,0,0,4.08-.27L72.28,91.25A2.24,2.24,0,0,0,73.46,89l-.1-.92L46.49,101.85Z"/><path class="cls-31" d="M73.36,88l-24.31,13.1a6.83,6.83,0,0,1-5.74.34L6.88,87.12a.85.85,0,0,1,0-1.56L31.57,74.42a4.77,4.77,0,0,1,3.52-.18L73.28,87.07A.49.49,0,0,1,73.36,88Z"/><polygon class="cls-32" points="14.92 87.76 36.61 95.8 55.23 84.19 35.08 76.54 14.92 87.76"/><g class="cls-53"><path class="cls-54" d="M40.38,56.91a17.76,17.76,0,0,1-2,6.35,22.36,22.36,0,0,1-6.87,7.79,18.07,18.07,0,0,1-5.74,3l1.67,5.87,4.06-2.34a38.67,38.67,0,0,0,8.23-6.39l2.63-2.69-.31-13.39h0A2.1,2.1,0,0,0,40.38,56.91Z"/><path class="cls-43" d="M16.69,79.66a2.65,2.65,0,0,0-.77,2.76,3.35,3.35,0,0,0,3.14,2.66,1.33,1.33,0,0,0,1.39-1c.44-1.72-.83-2.49-2.62-3"/><path class="cls-43" d="M16.45,77.11a2.65,2.65,0,0,0-.77,2.76,3.34,3.34,0,0,0,3.14,2.66,1.34,1.34,0,0,0,1.4-1c.43-1.72-.83-2.49-2.62-3"/><path class="cls-43" d="M23.93,73.61c1.78-.11,3.35.55,4.24,3.5.61,3.43-.92,4-2.47,4.54"/><path class="cls-43" d="M20.54,84.58c2.95-.74,6-1.31,5.59-6.28"/><path class="cls-43" d="M25.7,76.11c-.13-2.57-5.83-4.49-9.25-1.49a2.66,2.66,0,0,0-.77,2.77,3.35,3.35,0,0,0,3.14,2.66,1.35,1.35,0,0,0,1.4-1c.43-1.72-.83-2.49-2.62-3,1.29-1.1,2.69-1.91,4.75-.86-1.68,1.88-1.54,3.33-.68,4.62a1.51,1.51,0,0,0,2.3.26c.91-.87.91-2.07,0-3.64"/><path class="cls-44" d="M19.57,66.91v0l3.78,14.44-3.44.9L16.12,67.81a.25.25,0,0,1,.13-.32,4.88,4.88,0,0,1,3-.79A.25.25,0,0,1,19.57,66.91Z"/><rect class="cls-45" x="16.68" y="68.93" width="3.56" height="1.63" transform="translate(-17.07 6.95) rotate(-14.68)"/><rect class="cls-45" x="19.41" y="79.34" width="3.56" height="1.63" transform="translate(-19.62 7.98) rotate(-14.68)"/><path class="cls-46" d="M22.77,85.26l.57-3.8s0-.07-.05-.06L20,82.27a.05.05,0,0,0,0,.08l2.37,3Z"/><path class="cls-43" d="M17.44,75.93l.34-.28c-.19-.63-.22-1.3-.4-1.93a6,6,0,0,0-1.08.75,2.66,2.66,0,0,0-.77,2.77,3.36,3.36,0,0,0,3.14,2.66,1.33,1.33,0,0,0,1.39-1C20.5,77.17,19.23,76.4,17.44,75.93Z"/><path class="cls-43" d="M21.86,74.86a3.74,3.74,0,0,1,.51.22c-1.68,1.88-1.54,3.33-.68,4.62A1.52,1.52,0,0,0,24,80c.9-.87.9-2.07,0-3.63"/></g><path class="cls-33" d="M53.06,57.09a13,13,0,0,1,1.25,3.09,17.89,17.89,0,0,1-1.63,13.3c-2.18,4-3.92,5.33-5.59,6.15a1.17,1.17,0,0,0-.18,2l3.49,2.53a1.11,1.11,0,0,0,1.39-.07c8.17-7.08,13-15.81,6-30.34a2.77,2.77,0,0,0-5.13.32l0,.06A3.82,3.82,0,0,0,53.06,57.09Z"/><polygon class="cls-34" points="39.87 85.46 40.47 86.66 47.18 86.66 50.02 81.72 48.33 80.64 46.01 80.81 43.12 81.01 40.92 81.89 39.87 85.46"/><path class="cls-35" d="M46.24,80.09c.61-1.15,1.67-1.58,3.76-.37a5.27,5.27,0,0,1,1.13.86,3.39,3.39,0,0,1,1.07,2.34,2.49,2.49,0,0,1-1.72,2.4l-.47.16"/><path class="cls-35" d="M48.14,80.87c-1.37-.94-3.42-.65-5.62-.1a3.29,3.29,0,0,1-.7.11,6.06,6.06,0,0,0-2,.33,1.82,1.82,0,0,0-1.09,2.44,3.08,3.08,0,0,0,.52.75"/><path class="cls-35" d="M42.51,82.11c-4.38,1.84-5.63,4-5.73,6.3A1.55,1.55,0,0,0,38.34,90l.51,0"/><path class="cls-35" d="M42.32,84.84c-3.54,2.43-4.24,4.53-3.62,6.47a1.22,1.22,0,0,0,1.26.84l.11,0A2,2,0,0,0,41.57,91a13,13,0,0,1,3.21-4.2c-1.3,1.45-2.27,3-1.79,5.16a1.27,1.27,0,0,0,1.28,1l.14,0a1.45,1.45,0,0,0,1.1-1l1.09-3.09c3.79-.36,4.52-2.73,3.66-6.13"/><circle class="cls-55" cx="178.47" cy="32.72" r="9.12"/><path class="cls-34" d="M183.8,29.12a1.35,1.35,0,0,0-1.93,0l-4.67,4.67-2-2a1.35,1.35,0,0,0-1.93,0,1.37,1.37,0,0,0,0,1.93l2.94,2.93a1.33,1.33,0,0,0,1,.4,1.37,1.37,0,0,0,1-.4l5.63-5.63A1.35,1.35,0,0,0,183.8,29.12Z"/><circle class="cls-56" cx="64.82" cy="33.03" r="9.12"/><path class="cls-34" d="M69.33,28.83a1.27,1.27,0,0,0-1.8,0l-2.71,2.71L62.1,28.83a1.27,1.27,0,1,0-1.79,1.8L63,33.34l-2.71,2.71a1.27,1.27,0,0,0,0,1.8,1.24,1.24,0,0,0,1.79,0l2.72-2.71,2.71,2.71a1.28,1.28,0,0,0,.9.38,1.28,1.28,0,0,0,.9-2.18l-2.71-2.71,2.71-2.71A1.27,1.27,0,0,0,69.33,28.83Z"/></g></g></svg>