<svg xmlns="http://www.w3.org/2000/svg" viewBox="0 0 178.4 152.11"><defs><style>.cls-1,.cls-8,.cls-9{fill:#fff;}.cls-2{fill:#ffd396;stroke-width:0.89px;}.cls-2,.cls-3,.cls-4,.cls-5,.cls-6,.cls-7,.cls-8,.cls-9{stroke:#000;}.cls-2,.cls-3,.cls-4,.cls-5,.cls-6,.cls-7{stroke-miterlimit:10;}.cls-3{stroke-width:0.8px;}.cls-4{fill:#fbca2c;}.cls-4,.cls-5,.cls-6,.cls-7{stroke-width:0.84px;}.cls-5{fill:#f4b21c;}.cls-6{fill:#cac3b9;}.cls-7{fill:#fc5465;}.cls-8,.cls-9{stroke-linecap:round;stroke-linejoin:round;}.cls-8{stroke-width:1.57px;}.cls-9{stroke-width:1.12px;}</style></defs><title>paso4img2</title><g id="Layer_2" data-name="Layer 2"><g id="Paso_4" data-name="Paso 4"><path class="cls-1" d="M73.4,107.78A22,22,0,0,1,64.76,125c7.76,4.16,11.91,13.82,12.09,14.25l0,.06c.08.27.16.53.23.8l4.28,1.36a7.21,7.21,0,0,0,6.86-1.39,7,7,0,0,0,2.44-6.37,10.45,10.45,0,0,0-1.42-4c-.27-.38-4.24-5.8-9.46-8.43a13.71,13.71,0,0,1-8.3-.63,13.28,13.28,0,0,0,6.74-.27c.41-.14.82-.29,1.22-.46a28,28,0,0,0,4.4-13.85,77.31,77.31,0,0,1-3.15-8.37C79,102.61,74.57,106.75,73.4,107.78Z"/><path class="cls-1" d="M62.9,125.85l-.3-.13-6.93.52,7.61-2.09a20.72,20.72,0,0,0,8.54-16.1,27.85,27.85,0,0,1-3-1.42,12,12,0,0,1-3.36-2.6,14.66,14.66,0,0,0,5.67,2.45c.35.09.71.17,1.07.24.89-.77,7-6.27,7.56-11.84h.09A98,98,0,0,1,77.5,83.77c-3.07,6.31-9.21,9.35-10.75,10-5,15.18-13.36,20.87-15.5,22.12l2.75,22V138a17.56,17.56,0,0,1-.18,2.68l10.79,8.41a7,7,0,0,0,7,1,6.8,6.8,0,0,0,4.25-5.41,10.71,10.71,0,0,0-.47-4.75C75.13,139.25,70.66,129.25,62.9,125.85Z"/><path class="cls-1" d="M41.41,115.72a13.37,13.37,0,0,0,6.67-.34c.68-.18,1.37-.38,2-.61S59.68,109.51,65,94c-1.87,0-3.72-.09-5.59-.27a24.51,24.51,0,0,1-6.57-1.33,24.4,24.4,0,0,0,6.6.55c2.15,0,4.32-.23,6.45-.49.92-.4,8.84-4,11.14-11.88a84.78,84.78,0,0,1-.72-10.19C67.38,76.21,54,76.32,53,76.32H53c-2.11,9.59-11.22,17.77-11.22,17.77,0,.23-.07.47-.1.69V95h0a34.23,34.23,0,0,1-7.38,16.4v19.08a64.51,64.51,0,0,0,3.33,12.1,7.74,7.74,0,0,0,4.79,4.45,7.52,7.52,0,0,0,6.28-.72c2.54-1.56,3.82-4.36,3.79-8.33l-2.7-21.64C47,116.74,43.89,116.87,41.41,115.72Z"/><path class="cls-1" d="M160.65,71.26h-1.54a8.46,8.46,0,0,0-4.83,2.07,5.2,5.2,0,0,1,.35.42l0,0c4.72,7.33,5.92,19,6,19.52,1.17,16.38-1.58,26.21-4.1,31.58a21.9,21.9,0,0,1-5.29,7.48,18.53,18.53,0,0,0,3.38,2.62,12.2,12.2,0,0,0,4.25,1.61,7.74,7.74,0,0,0,1.91.1c9.32-.71,14.58-10.39,16.06-29.6v-4.78c-.41-10-2.21-18.07-5.2-23.44C168.86,73.89,165.06,71.26,160.65,71.26Z"/><path d="M173,78.12c-3.06-5.51-7.33-8.43-12.35-8.43H159a10.09,10.09,0,0,0-6.11,2.76l-.23.21v.11C148.92,69,135.77,57.82,97.29,38.29a17.09,17.09,0,0,0-13.43-.89L43.45,51.65A17.57,17.57,0,0,0,33.26,61L11.24,110a7.31,7.31,0,0,0,4,9.83,12.52,12.52,0,0,0,4.5.87c3.18,0,6.81-1.32,10.54-5.28l0,0a22.49,22.49,0,0,0,1.83-1.64.3.3,0,0,1,.52.21V130.7a64.68,64.68,0,0,0,3.44,12.5,9.31,9.31,0,0,0,5.76,5.35,9.07,9.07,0,0,0,7.58-.87,8.92,8.92,0,0,0,3.86-4.93.3.3,0,0,1,.47-.14l9.85,7.67a8.57,8.57,0,0,0,5.28,1.83,8.79,8.79,0,0,0,3.29-.64,8.38,8.38,0,0,0,5.21-6.65,12.16,12.16,0,0,0,.07-2.49.3.3,0,0,1,.39-.31l3,1a8.78,8.78,0,0,0,8.34-1.68,8.59,8.59,0,0,0,3-7.79,12.27,12.27,0,0,0-1.65-4.61l0,0a32.79,32.79,0,0,0-9.14-8.46.29.29,0,0,1-.12-.41,29.81,29.81,0,0,0,3.76-10.12.3.3,0,0,1,.56-.1,49.75,49.75,0,0,0,16.57,19S115.52,138,131,138a33.49,33.49,0,0,0,18.22-5.14.29.29,0,0,1,.4.08,17.06,17.06,0,0,0,4.17,3.42,13.66,13.66,0,0,0,4.8,1.82,9.18,9.18,0,0,0,1.64.15q.33,0,.66,0c10.23-.77,16-10.93,17.51-31.06v-4.93C178,91.91,176.15,83.78,173,78.12ZM48.64,146.34a7.49,7.49,0,0,1-6.28.72,7.76,7.76,0,0,1-4.79-4.45,64.54,64.54,0,0,1-3.33-12.08v-19a.28.28,0,0,1,.07-.19A34.13,34.13,0,0,0,41.62,95h0v-.28c0-.19.06-.37.08-.56a.32.32,0,0,1,.1-.18c.9-.83,9.15-8.64,11.14-17.7H53c1,0,13.89-.1,22.83-5.64a.31.31,0,0,1,.47.25,87.59,87.59,0,0,0,.7,9.59.2.2,0,0,1,0,.13C74.74,88.37,67,92,66,92.44l-.08,0c-2.12.26-4.28.44-6.41.49L58,93a.31.31,0,0,0,0,.61l1.5.15c1.73.17,3.44.25,5.17.27a.3.3,0,0,1,.28.4c-5.3,15-14.06,20-14.77,20.36l0,0c-.64.22-1.32.42-2,.6a25.14,25.14,0,0,1-3.23.59.3.3,0,0,0,0,.6,21.76,21.76,0,0,0,4.57-.16.31.31,0,0,1,.35.26L52.43,138v0C52.45,142,51.18,144.79,48.64,146.34Zm27.23-1.74A6.8,6.8,0,0,1,71.62,150a7,7,0,0,1-7-1L54,140.75a.33.33,0,0,1-.11-.28A16.82,16.82,0,0,0,54,138v-.05l-2.72-21.79a.3.3,0,0,1,.14-.3c2.37-1.43,10.38-7.17,15.28-21.89a.3.3,0,0,1,.17-.18,22.93,22.93,0,0,0,10.21-9.17.3.3,0,0,1,.56.09,99,99,0,0,0,2.24,10.22h-.09c-.59,5.37-6.24,10.67-7.44,11.74a.3.3,0,0,1-.27.07c-.31-.06-.62-.13-.92-.21-.68-.17-1.36-.36-2-.58a.39.39,0,0,0-.31.71l0,0A29.4,29.4,0,0,0,71.62,108a.28.28,0,0,1,.19.29,20.73,20.73,0,0,1-8.49,15.86l-.1,0-4.53,1.25a.31.31,0,0,0,.1.6l3.73-.28a.26.26,0,0,1,.15,0l.23.1c7.71,3.37,12.17,13.26,12.49,14a0,0,0,0,1,0,0A10.61,10.61,0,0,1,75.87,144.6Zm3.65-24.72a.28.28,0,0,1-.13.11c-.38.16-.76.3-1.14.43a12.94,12.94,0,0,1-3.2.56.31.31,0,0,0,0,.61,13.16,13.16,0,0,0,4.68-.25.31.31,0,0,1,.21,0c5.12,2.62,9,7.91,9.35,8.37l0,0a10.44,10.44,0,0,1,1.41,4,7,7,0,0,1-2.44,6.37,7.21,7.21,0,0,1-6.86,1.39l-4.12-1.31a.3.3,0,0,1-.2-.21c-.06-.21-.12-.43-.2-.64l0-.06c-.18-.42-4.19-9.75-11.68-14a.3.3,0,0,1,0-.5,22,22,0,0,0,8.27-16.83.25.25,0,0,1,.1-.21,28.57,28.57,0,0,0,6.91-9.16.3.3,0,0,1,.57,0A78.32,78.32,0,0,0,83.84,106a.35.35,0,0,1,0,.14A28.06,28.06,0,0,1,79.52,119.88Zm69.76,11h0l0,0A31.85,31.85,0,0,1,131,136.39,50.5,50.5,0,0,1,111.49,132a56,56,0,0,1-8.4-4.47h0a46.93,46.93,0,0,1-14.62-15.86,63.7,63.7,0,0,1-3-5.83v-.14h-.07A79.45,79.45,0,0,1,80.94,92.8a97.78,97.78,0,0,1-3-22.4v-.55a1.55,1.55,0,0,0-.28-.9,1.11,1.11,0,0,0-1.52-.29l-.63.41C66.85,74.69,53.6,74.75,53,74.75h-.31a12.77,12.77,0,0,0-.69-1.5,34.09,34.09,0,0,0-2.18-3.5.31.31,0,0,0-.52.32A33.18,33.18,0,0,1,51,73.73a10.9,10.9,0,0,1,.53,1.93.49.49,0,0,1,0,.12l0,.2c-1.59,7.26-7.58,13.81-9.85,16.09a.31.31,0,0,1-.5-.11A11.93,11.93,0,0,0,39,88.56a.31.31,0,0,0-.49.36,9.28,9.28,0,0,1,1.63,5.19s0,0,0,0a32.89,32.89,0,0,1-6,14.86,26.56,26.56,0,0,1-4.78,5.1l-.11.09-.09.1c-3,3.18-6.17,4.8-9.42,4.8a10.84,10.84,0,0,1-3.93-.76,5.6,5.6,0,0,1-3.21-3.14,5.74,5.74,0,0,1,.07-4.58l22-48.95A16.06,16.06,0,0,1,44,53.13L84.38,38.88a15.7,15.7,0,0,1,9.24-.35,13.7,13.7,0,0,1,2.81,1.08c17.74,9,32.11,17.24,42.7,24.49,8.48,5.81,12,9.28,13.14,10.5.24.26.38.43.44.51s0,0,0,0c4.29,6.72,5.5,17.87,5.55,18.39,1.1,15.6-1.43,25-3.74,30.05C152.12,128.9,149.44,130.79,149.28,130.91Zm27.55-23.8c-1.48,19.2-6.74,28.88-16.06,29.59a7.74,7.74,0,0,1-1.91-.1,12.2,12.2,0,0,1-4.25-1.61,19.88,19.88,0,0,1-3.15-2.39.31.31,0,0,1,0-.45,22.37,22.37,0,0,0,5.05-7.26c2.52-5.37,5.27-15.2,4.1-31.58,0-.49-1.24-12.2-6-19.52l0,0-.15-.19a.3.3,0,0,1,0-.43,8.45,8.45,0,0,1,4.58-1.87h1.55c4.41,0,8.21,2.63,11,7.62,3,5.37,4.79,13.47,5.2,23.44Z"/><path class="cls-1" d="M154.54,123.58c-2.42,5.32-5.1,7.21-5.26,7.33h0l0,0A31.85,31.85,0,0,1,131,136.39,50.5,50.5,0,0,1,111.49,132a56,56,0,0,1-8.4-4.47h0a46.93,46.93,0,0,1-14.62-15.86,63.7,63.7,0,0,1-3-5.83v-.14h-.07A79.45,79.45,0,0,1,80.94,92.8a97.78,97.78,0,0,1-3-22.4v-.55a1.55,1.55,0,0,0-.28-.9,1.11,1.11,0,0,0-1.52-.29l-.63.41C66.85,74.69,53.6,74.75,53,74.75h-.31a12.77,12.77,0,0,0-.69-1.5,34.09,34.09,0,0,0-2.18-3.5.31.31,0,0,0-.52.32A33.18,33.18,0,0,1,51,73.73a10.9,10.9,0,0,1,.53,1.93.49.49,0,0,1,0,.12l0,.2c-1.59,7.26-7.58,13.81-9.85,16.09a.31.31,0,0,1-.5-.11A11.93,11.93,0,0,0,39,88.56a.31.31,0,0,0-.49.36,9.28,9.28,0,0,1,1.63,5.19s0,0,0,0a32.89,32.89,0,0,1-6,14.86,26.56,26.56,0,0,1-4.78,5.1l-.11.09-.09.1c-3,3.18-6.17,4.8-9.42,4.8a10.84,10.84,0,0,1-3.93-.76,5.6,5.6,0,0,1-3.21-3.14,5.74,5.74,0,0,1,.07-4.58l22-48.95A16.06,16.06,0,0,1,44,53.13L84.38,38.88a15.7,15.7,0,0,1,9.24-.35,13.7,13.7,0,0,1,2.81,1.08c17.74,9,32.11,17.24,42.7,24.49,8.48,5.81,12,9.28,13.14,10.5.24.26.38.43.44.51s0,0,0,0c4.29,6.72,5.5,17.87,5.55,18.39C159.38,109.13,156.85,118.48,154.54,123.58Z"/><path class="cls-2" d="M9.14,138.83c8.78-3.63,21.1-7.87,21.1-7.87l-6.37-10.68L12.4,114.66s-4.9,10.86-9.06,18.85Z"/><path class="cls-3" d="M1,138.09c-2,4,1.62,3.44,3.12,2.82l5-2.08-5.8-5.32C2.39,135.34,1.57,136.94,1,138.09Z"/><path class="cls-4" d="M139.2,22.57a4.69,4.69,0,0,1,6.14-.05h0a3.65,3.65,0,0,1-.08,5.53L31.53,130a4.69,4.69,0,0,1-6.14.05h0a3.65,3.65,0,0,1,.09-5.54Z"/><path class="cls-5" d="M133.14,17.09a4.68,4.68,0,0,1,6.14-.05h0a3.64,3.64,0,0,1-.08,5.53L25.48,124.51a4.67,4.67,0,0,1-6.14,0h0a3.64,3.64,0,0,1,.08-5.53Z"/><path class="cls-4" d="M127.09,11.6a4.69,4.69,0,0,1,6.14,0h0a3.65,3.65,0,0,1-.09,5.54L19.42,119a4.68,4.68,0,0,1-6.14,0h0a3.64,3.64,0,0,1,.09-5.53Z"/><polygon class="cls-6" points="125.09 13.4 143.25 29.85 148.78 24.89 130.61 8.44 125.09 13.4"/><path class="cls-7" d="M130.61,8.44l18.17,16.45,5.77-5.18h0l.27-.23c4.33-3.89,3.78-10.72-1.24-15.26S141-.86,136.65,3a3,3,0,0,0-.26.24h0Z"/><path class="cls-8" d="M103.26,90.74S96.47,89.24,83,95.9a93,93,0,0,1-24.32,4.74s-28.59,3.68-28.41,19.64c0,0,.36,17.2,19.46,13,0,0,22.63-7.32,44-8.4,0,0,11.76.16,17.37-4.58"/><path class="cls-9" d="M93.63,91.77a25.59,25.59,0,0,0,8.31-13.49"/></g></g></svg>