<svg xmlns="http://www.w3.org/2000/svg" xmlns:xlink="http://www.w3.org/1999/xlink" viewBox="0 0 169.62 185.44"><defs><style>.cls-1,.cls-28,.cls-29,.cls-30,.cls-38,.cls-50{fill:none;}.cls-2{fill:#e5e5e5;}.cls-3{fill:#760dc9;}.cls-4{fill:#d7840b;}.cls-32,.cls-34,.cls-35,.cls-36,.cls-43,.cls-5{fill:#fff;}.cls-10,.cls-11,.cls-12,.cls-13,.cls-14,.cls-15,.cls-16,.cls-17,.cls-18,.cls-19,.cls-20,.cls-22,.cls-23,.cls-26,.cls-27,.cls-28,.cls-30,.cls-31,.cls-32,.cls-33,.cls-35,.cls-36,.cls-37,.cls-38,.cls-39,.cls-40,.cls-43,.cls-44,.cls-45,.cls-46,.cls-48,.cls-49,.cls-5,.cls-50,.cls-52,.cls-54,.cls-6,.cls-7,.cls-8,.cls-9{stroke:#000;}.cls-10,.cls-11,.cls-12,.cls-13,.cls-14,.cls-15,.cls-16,.cls-17,.cls-18,.cls-19,.cls-20,.cls-22,.cls-23,.cls-27,.cls-28,.cls-29,.cls-30,.cls-31,.cls-32,.cls-33,.cls-35,.cls-36,.cls-37,.cls-38,.cls-39,.cls-40,.cls-43,.cls-44,.cls-45,.cls-46,.cls-48,.cls-49,.cls-5,.cls-50,.cls-52,.cls-54,.cls-55,.cls-56,.cls-6,.cls-7,.cls-8,.cls-9{stroke-miterlimit:10;}.cls-22,.cls-23,.cls-30,.cls-38,.cls-5{stroke-width:0.68px;}.cls-23,.cls-49,.cls-6{fill:#ccc;}.cls-11,.cls-12,.cls-13,.cls-6{stroke-width:0.53px;}.cls-17,.cls-7{fill:#a4aeaf;}.cls-7{stroke-width:0.54px;}.cls-10,.cls-8{fill:#3d3d3d;}.cls-16,.cls-17,.cls-18,.cls-19,.cls-20,.cls-28,.cls-31,.cls-32,.cls-33,.cls-54,.cls-8{stroke-width:0.51px;}.cls-16,.cls-9{fill:#9caeae;}.cls-10,.cls-9{stroke-width:0.45px;}.cls-11{fill:#80644f;}.cls-12{fill:#b58148;}.cls-13{fill:#c39156;}.cls-14{fill:#a97746;stroke-width:0.54px;}.cls-15{fill:#a27242;stroke-width:0.53px;}.cls-18{fill:#9fafaf;}.cls-19{fill:#9cabae;}.cls-20{fill:#9e7549;}.cls-21{fill:#fbccac;}.cls-22,.cls-48{fill:#ff7bac;}.cls-24{fill:#d88500;}.cls-25,.cls-52{fill:#f9b233;}.cls-26,.cls-35,.cls-38{stroke-linecap:round;}.cls-26{stroke-linejoin:round;stroke-width:0px;}.cls-27{fill:#666;}.cls-27,.cls-35,.cls-43,.cls-44,.cls-45,.cls-46,.cls-50,.cls-52{stroke-width:0.34px;}.cls-29{stroke:#bf720c;stroke-width:0.27px;}.cls-31{fill:#c18a51;}.cls-33,.cls-42{fill:#d88407;}.cls-36{stroke-width:0.31px;}.cls-37{stroke-width:0.04px;}.cls-39{fill:#ffd18f;stroke-width:0.21px;}.cls-40{stroke-width:0.04px;}.cls-41{clip-path:url(#clip-path);}.cls-44{fill:#e35154;}.cls-45{fill:#873f4a;}.cls-46{fill:#b94244;}.cls-47{fill:#afaeac;}.cls-48,.cls-49{stroke-width:0.43px;}.cls-51{fill:#7f7f7f;}.cls-53{clip-path:url(#clip-path-2);}.cls-54{fill:#d37d06;}.cls-55{fill:#39b54a;stroke:#009245;}.cls-55,.cls-56{stroke-width:2.26px;}.cls-56{fill:red;stroke:#ed0018;}</style><clipPath id="clip-path"><rect class="cls-1" x="101.28" y="90.49" width="32.17" height="35.65"/></clipPath><clipPath id="clip-path-2"><path class="cls-1" d="M36.29,94.28a63.82,63.82,0,0,1,6.29,12.52L26.92,121.6s-7.69,2.22-8.47,2.09-10.6-9.86-10.6-9.86l4-13.39L31.94,95Z"/></clipPath></defs><title>paso3img1</title><g id="Layer_2" data-name="Layer 2"><g id="Paso_3" data-name="Paso 3"><path class="cls-2" d="M131.94,160.93a5.5,5.5,0,0,1-1-.09l-.19,0a37.58,37.58,0,0,0-5.25-.79,41.66,41.66,0,0,0-4.51.56,17.8,17.8,0,0,1-2,.22,7.62,7.62,0,0,1-6-2.53,3.4,3.4,0,0,0,1.59,3.13c2.23,1.25,3.92,1,6.27.75a28.24,28.24,0,0,1,5-.29,22.64,22.64,0,0,1,3.19.42c2.26.4,4,.72,6.18-.75a2.68,2.68,0,0,0,1-3.06A4.88,4.88,0,0,1,131.94,160.93Z"/><path class="cls-3" d="M133.44,149.75a8.85,8.85,0,0,1-1.42.39.32.32,0,0,1-.37-.25.32.32,0,0,1,.26-.37,9,9,0,0,0,1.43-.4l0,0c1.21-.48,2-1.19,2-1.95,0-1.37-2.46-2.54-5.38-2.54s-5.37,1.17-5.37,2.54c0,.71.65,1.37,1.71,1.85h0a8.18,8.18,0,0,0,2.32.6.32.32,0,0,1,.27.36.31.31,0,0,1-.31.28h0a8.68,8.68,0,0,1-2.35-.6,6.65,6.65,0,0,0-2.3,2.47,6.48,6.48,0,0,1,1.46,2.19.31.31,0,0,1-.16.41.32.32,0,0,1-.42-.16,5,5,0,0,0-2.4-2.75h0a8.3,8.3,0,0,0-3.4-.7c-3.49,0-6.34,2-6.34,4.53a3.43,3.43,0,0,0,.4,1.58c.93,1.77,3.31,3,5.94,3a18.08,18.08,0,0,0,1.9-.2h0a43.14,43.14,0,0,1,4.64-.56,35.91,35.91,0,0,1,5.36.8l.19,0a4.27,4.27,0,0,0,4.85-2.66l0,0a6.6,6.6,0,0,0-2.51-7.77Z"/><path d="M134.12,149.46a2.79,2.79,0,0,0,1.85-2.31c0-1.78-2.64-3.17-6-3.17s-6,1.39-6,3.17a2.66,2.66,0,0,0,1.61,2.17,7.12,7.12,0,0,0-2.13,2.37,3.69,3.69,0,0,0-.8-.48,9,9,0,0,0-3.65-.76c-3.84,0-7,2.32-7,5.17a3.9,3.9,0,0,0,.42,1.76,5.16,5.16,0,0,0,0,1.52,3.83,3.83,0,0,0,1.88,3c2.41,1.35,4.29,1.12,6.65.83a26.51,26.51,0,0,1,4.91-.28,20.58,20.58,0,0,1,3.11.4,16.61,16.61,0,0,0,2.89.35,6.36,6.36,0,0,0,3.76-1.2,3.47,3.47,0,0,0,1-4.42,7.44,7.44,0,0,0,.4-2.39A7.21,7.21,0,0,0,134.12,149.46Zm1.11,12.06c-2.13,1.47-3.92,1.15-6.18.75a22.64,22.64,0,0,0-3.19-.42,28.24,28.24,0,0,0-5,.29c-2.35.29-4,.5-6.27-.75a3.4,3.4,0,0,1-1.59-3.13,7.62,7.62,0,0,0,6,2.53,17.8,17.8,0,0,0,2-.22,41.66,41.66,0,0,1,4.51-.56,37.58,37.58,0,0,1,5.25.79l.19,0a5.5,5.5,0,0,0,1,.09,4.88,4.88,0,0,0,4.27-2.47A2.68,2.68,0,0,1,135.23,161.52Zm.72-4,0,0a4.27,4.27,0,0,1-4.85,2.66l-.19,0a35.91,35.91,0,0,0-5.36-.8,43.14,43.14,0,0,0-4.64.56h0a18.08,18.08,0,0,1-1.9.2c-2.63,0-5-1.18-5.94-3a3.43,3.43,0,0,1-.4-1.58c0-2.5,2.85-4.53,6.34-4.53a8.3,8.3,0,0,1,3.4.7h0a5,5,0,0,1,2.4,2.75.32.32,0,0,0,.42.16.31.31,0,0,0,.16-.41,6.48,6.48,0,0,0-1.46-2.19,6.65,6.65,0,0,1,2.3-2.47,8.68,8.68,0,0,0,2.35.6h0a.31.31,0,0,0,.31-.28.32.32,0,0,0-.27-.36,8.18,8.18,0,0,1-2.32-.6h0c-1.06-.48-1.71-1.14-1.71-1.85,0-1.37,2.46-2.54,5.37-2.54s5.38,1.17,5.38,2.54c0,.76-.75,1.47-2,1.95l0,0a9,9,0,0,1-1.43.4.32.32,0,0,0-.26.37.32.32,0,0,0,.37.25,8.85,8.85,0,0,0,1.42-.39,6.6,6.6,0,0,1,2.51,7.77Z"/><path class="cls-4" d="M130.06,148.42a2.15,2.15,0,0,1-2.12-1.81c-1.75-10.77,3.09-21.9,3.3-22.37a2.16,2.16,0,0,1,2-1.28,2.12,2.12,0,0,1,.87.18,2.17,2.17,0,0,1,1.11,2.85c-.05.1-4.53,10.47-3,19.92a2.14,2.14,0,0,1-1.78,2.48A2,2,0,0,1,130.06,148.42Z"/><path d="M133.21,123.3a1.92,1.92,0,0,1,.74.15,1.83,1.83,0,0,1,.93,2.4c-.08.17-4.57,10.57-3,20.12a1.81,1.81,0,0,1-1.5,2.08l-.3,0a1.83,1.83,0,0,1-1.79-1.53c-1.73-10.66,3.07-21.71,3.28-22.17a1.82,1.82,0,0,1,1.66-1.08m0-.68h0a2.49,2.49,0,0,0-2.28,1.49c-.21.47-5.09,11.69-3.32,22.55a2.47,2.47,0,0,0,2.45,2.09,2.83,2.83,0,0,0,.41,0,2.5,2.5,0,0,0,2.06-2.86c-1.52-9.34,2.92-19.64,3-19.74a2.53,2.53,0,0,0,0-1.91,2.49,2.49,0,0,0-2.33-1.59Z"/><path class="cls-5" d="M127.75,143.08H132a.27.27,0,0,1,.27.27V147a1.63,1.63,0,0,1-1.63,1.63h-1.57a1.63,1.63,0,0,1-1.63-1.63v-3.61a.27.27,0,0,1,.27-.27Z" transform="translate(-8.69 8.23) rotate(-3.51)"/><path class="cls-2" d="M148.38,160.4a4.75,4.75,0,0,1-1-.1l-.19,0a37.23,37.23,0,0,0-5.24-.79,42.4,42.4,0,0,0-4.52.55,17.8,17.8,0,0,1-2,.22,7.66,7.66,0,0,1-6-2.52,3.43,3.43,0,0,0,1.59,3.13c2.23,1.25,3.93,1,6.27.75a27.32,27.32,0,0,1,5-.29,24.66,24.66,0,0,1,3.2.41c2.26.41,4,.73,6.18-.75a2.69,2.69,0,0,0,1-3A4.9,4.9,0,0,1,148.38,160.4Z"/><path class="cls-3" d="M149.88,149.22a9.15,9.15,0,0,1-1.42.39.32.32,0,0,1-.37-.26.31.31,0,0,1,.25-.36,7.56,7.56,0,0,0,1.43-.41h0c1.21-.48,2-1.19,2-1.95,0-1.38-2.46-2.54-5.37-2.54s-5.38,1.16-5.38,2.54c0,.71.66,1.37,1.71,1.84l0,0a8.63,8.63,0,0,0,2.32.6.32.32,0,0,1,.28.36.31.31,0,0,1-.32.27h0a9,9,0,0,1-2.36-.6,6.62,6.62,0,0,0-2.3,2.46,6.69,6.69,0,0,1,1.47,2.19.32.32,0,0,1-.17.42.31.31,0,0,1-.41-.17,4.94,4.94,0,0,0-2.41-2.74h0a8.28,8.28,0,0,0-3.4-.71c-3.49,0-6.33,2-6.33,4.54a3.34,3.34,0,0,0,.4,1.58c.92,1.76,3.31,3,5.93,3a16,16,0,0,0,1.9-.21h0a42.88,42.88,0,0,1,4.63-.56,35.91,35.91,0,0,1,5.36.8l.19,0a4.27,4.27,0,0,0,4.86-2.65v0a6.61,6.61,0,0,0-2.5-7.77Z"/><path d="M150.55,148.93a2.8,2.8,0,0,0,1.86-2.31c0-1.78-2.64-3.17-6-3.17s-6,1.39-6,3.17a2.68,2.68,0,0,0,1.6,2.17,7.29,7.29,0,0,0-2.13,2.36,3.7,3.7,0,0,0-.79-.47,8.88,8.88,0,0,0-3.66-.76c-3.84,0-7,2.32-7,5.17a4.09,4.09,0,0,0,.41,1.76,5.16,5.16,0,0,0,0,1.52,3.88,3.88,0,0,0,1.88,3c2.42,1.35,4.29,1.12,6.66.82a28.25,28.25,0,0,1,4.9-.28,22.24,22.24,0,0,1,3.12.41,16.39,16.39,0,0,0,2.89.35,6.36,6.36,0,0,0,3.76-1.2,3.46,3.46,0,0,0,1-4.42,7.26,7.26,0,0,0-2.47-8.16Zm1.12,12c-2.14,1.48-3.92,1.16-6.18.75a24.66,24.66,0,0,0-3.2-.41,27.32,27.32,0,0,0-5,.29c-2.34.29-4,.5-6.27-.75a3.43,3.43,0,0,1-1.59-3.13,7.66,7.66,0,0,0,6,2.52,17.8,17.8,0,0,0,2-.22,42.4,42.4,0,0,1,4.52-.55,37.23,37.23,0,0,1,5.24.79l.19,0a4.75,4.75,0,0,0,1,.1,4.9,4.9,0,0,0,4.27-2.47A2.69,2.69,0,0,1,151.67,161Zm.71-4v0a4.27,4.27,0,0,1-4.86,2.65l-.19,0a35.91,35.91,0,0,0-5.36-.8,42.88,42.88,0,0,0-4.63.56h0a16,16,0,0,1-1.9.21c-2.62,0-5-1.19-5.93-3a3.34,3.34,0,0,1-.4-1.58c0-2.5,2.84-4.54,6.33-4.54a8.28,8.28,0,0,1,3.4.71h0a4.94,4.94,0,0,1,2.41,2.74.31.31,0,0,0,.41.17.32.32,0,0,0,.17-.42,6.69,6.69,0,0,0-1.47-2.19,6.62,6.62,0,0,1,2.3-2.46,9,9,0,0,0,2.36.6h0a.31.31,0,0,0,.32-.27.32.32,0,0,0-.28-.36,8.63,8.63,0,0,1-2.32-.6l0,0c-1-.47-1.71-1.13-1.71-1.84,0-1.38,2.46-2.54,5.38-2.54s5.37,1.16,5.37,2.54c0,.76-.74,1.47-2,1.95h0a7.56,7.56,0,0,1-1.43.41.31.31,0,0,0-.25.36.32.32,0,0,0,.37.26,9.15,9.15,0,0,0,1.42-.39,6.61,6.61,0,0,1,2.5,7.77Z"/><path class="cls-4" d="M146.5,147.88a2.15,2.15,0,0,1-2.13-1.81c-1.75-10.76,3.1-21.89,3.31-22.36a2.14,2.14,0,0,1,2-1.28,2.19,2.19,0,0,1,.87.18,2.15,2.15,0,0,1,1.1,2.84c-.05.11-4.52,10.53-3,19.93a2.17,2.17,0,0,1-1.78,2.48Z"/><path d="M149.65,122.76a1.75,1.75,0,0,1,.73.16,1.81,1.81,0,0,1,.93,2.4c-.07.16-4.57,10.56-3,20.12a1.82,1.82,0,0,1-1.51,2.08,1.43,1.43,0,0,1-.29,0,1.81,1.81,0,0,1-1.79-1.53c-1.74-10.67,3.07-21.71,3.27-22.17a1.83,1.83,0,0,1,1.67-1.09m0-.67h0a2.49,2.49,0,0,0-2.28,1.48c-.21.48-5.1,11.7-3.33,22.56a2.48,2.48,0,0,0,2.46,2.09,2.69,2.69,0,0,0,.4,0,2.5,2.5,0,0,0,2.06-2.86c-1.52-9.35,2.92-19.64,3-19.74a2.49,2.49,0,0,0-2.28-3.5Z"/><path class="cls-5" d="M144.18,142.55h4.29a.27.27,0,0,1,.27.27v3.61a1.63,1.63,0,0,1-1.63,1.63h-1.57a1.63,1.63,0,0,1-1.63-1.63v-3.61a.27.27,0,0,1,.27-.27Z" transform="translate(-8.62 9.23) rotate(-3.51)"/><polygon class="cls-6" points="163.54 121.51 164.34 104.06 166.67 104.06 166.31 121.51 163.54 121.51"/><polygon class="cls-6" points="142.72 118.11 143.52 100.66 145.85 100.66 145.49 118.11 142.72 118.11"/><path class="cls-7" d="M149.8,133.24l-1.28,0a11.07,11.07,0,0,0-1.41,0l-.28,0-.9,26.73c1.14,1.31,2.33,1.38,3.57,0l.71-26.82A2.83,2.83,0,0,1,149.8,133.24Z"/><path class="cls-8" d="M149.57,160l.38,4.55a3.66,3.66,0,0,1-4.53,0l.58-4.68A2.68,2.68,0,0,0,149.57,160Z"/><path class="cls-9" d="M163,126.63l2.63,22.85c.95.66,1.85.75,2.62-.31l-3.07-23.59A15.62,15.62,0,0,0,163,126.63Z"/><path class="cls-10" d="M165.52,149l.07,4c1.27,1.68,2.41,1.25,3.5-.21l-1-4.32A1.64,1.64,0,0,1,165.52,149Z"/><path class="cls-11" d="M168.69,103.43l.66-13.12a2.44,2.44,0,0,0-1.86-2.52l-21.35-5a2.4,2.4,0,0,0-2.91,2.24l-.8,12.66a2.45,2.45,0,0,0,1.82,2.54l21.48,5.42a2.28,2.28,0,0,0,.73.06A2.43,2.43,0,0,0,168.69,103.43Z"/><path class="cls-12" d="M166.81,104.68l.66-13.12A2.45,2.45,0,0,0,165.61,89l-21.35-5a2.4,2.4,0,0,0-2.91,2.24L140.55,99a2.44,2.44,0,0,0,1.82,2.54l21.48,5.42a2.62,2.62,0,0,0,.73.07A2.44,2.44,0,0,0,166.81,104.68Z"/><path class="cls-13" d="M165,121l-29.09-7.67a1.82,1.82,0,0,0-1.13.06L120.08,119a1.25,1.25,0,0,0,0,2.43l27.75,9.76a1.91,1.91,0,0,0,1.41-.07l16-7.62A1.26,1.26,0,0,0,165,121Z"/><polygon class="cls-14" points="166.11 122.84 166.11 126 149.07 134.92 149.28 131.27 166.11 122.84"/><polygon class="cls-15" points="118.74 124.72 119.18 121.39 148.56 131.08 148.56 134.9 118.74 124.72"/><path class="cls-16" d="M153.28,136.34l.64.46a2.34,2.34,0,0,1,1,1.58L159,166.26c1.23.65,2.38.75,3.38-.32l-4.72-28.09a4.68,4.68,0,0,0-1-2.13l-1-1.29Z"/><path class="cls-8" d="M159,165.82l.09,4c1.63,1.68,3.1,1.25,4.51-.22l-1.27-4.32A2.43,2.43,0,0,1,159,165.82Z"/><path class="cls-17" d="M127.38,146.47l.88,1.72a9,9,0,0,1,1,3.78l.84,28a2.23,2.23,0,0,0,3.57,0l-1.11-29.28a6.58,6.58,0,0,0-.35-1.86l-1.09-3.18Z"/><path class="cls-8" d="M130,179.85l-.38,4.55a3.66,3.66,0,0,0,4.53,0l-.58-4.68A2.69,2.69,0,0,1,130,179.85Z"/><path class="cls-18" d="M98.42,135l-.89,1.78a3.63,3.63,0,0,0-.37,1.37l-1.84,27,0,.32a2.32,2.32,0,0,0,3.12,0l1.32-26.73a3.74,3.74,0,0,1,.17-1l.55-1.81Z"/><path class="cls-8" d="M94.75,168.84a3,3,0,0,0,4.16,0l-.47-4.23a2.22,2.22,0,0,1-3.13.18Z"/><path class="cls-19" d="M94.86,127l1.54,6.12a3.32,3.32,0,0,0,2.06,2.31l31.65,11.95a5,5,0,0,0,4.07-.27l21.21-11.4a3.62,3.62,0,0,0,1.9-3.05l.19-5.28L132,139.36Z"/><path class="cls-20" d="M91.89,123v1.3a2.28,2.28,0,0,0,1.49,2.15L130,140.19a5,5,0,0,0,4.08-.27l23.73-12.69A2.23,2.23,0,0,0,159,125l-.1-.92L132,137.83Z"/><polygon class="cls-21" points="156.71 57.79 152.89 61.63 149.16 57.79 145.43 61.63 141.68 57.79 137.94 61.63 134.14 57.79 145.41 41.59 156.71 57.79"/><path class="cls-22" d="M156.33,119.64a9.93,9.93,0,0,1-2,3.88c-3.23,3.76-8.21,3.52-8.88,3.48a12,12,0,0,1-8.49-3.44,11.19,11.19,0,0,1-2.45-3.92Z"/><path class="cls-23" d="M156.52,110.18q0,4.35,0,8.72c-.05.22-.1.47-.17.74H134.49c-.12-.34-.22-.64-.29-.9v-8.56Z"/><path class="cls-24" d="M156.71,57.79v6.73s-.15,30.44-.19,45.66h-7.36V57.79l3.73,3.85Z"/><polygon class="cls-24" points="141.66 57.77 141.66 110.16 134.19 110.16 134.13 64.5 134.13 57.77 137.93 61.62 141.66 57.77"/><polygon class="cls-25" points="149.16 57.79 149.16 110.18 141.68 110.18 141.68 57.79 145.43 61.63 149.16 57.79"/><path class="cls-26" d="M142.94,45.32a3.58,3.58,0,0,0,4.83,0l-2.36-3.73Z"/><line class="cls-27" x1="134.2" y1="111.92" x2="156.66" y2="111.92"/><line class="cls-27" x1="134.2" y1="117.99" x2="156.66" y2="117.99"/><line class="cls-1" x1="149.16" y1="57.79" x2="149.16" y2="57.76"/><line class="cls-28" x1="141.68" y1="110.18" x2="141.68" y2="110.18"/><line class="cls-28" x1="141.68" y1="57.79" x2="141.68" y2="57.78"/><line class="cls-29" x1="149.16" y1="57.76" x2="149.16" y2="110.18"/><line class="cls-29" x1="141.68" y1="57.81" x2="141.68" y2="110.18"/><path class="cls-30" d="M156.71,57.79l-11.3-16.2-11.27,16.2v6.73l.06,45.66h22.32c0-15.22.19-45.66.19-45.66Z"/><polyline class="cls-30" points="134.14 57.79 137.94 61.63 141.68 57.79 145.43 61.63 149.16 57.79 152.89 61.63 156.71 57.79"/><path class="cls-31" d="M158.9,124l-24.31,13.09a6.84,6.84,0,0,1-5.73.35L92.43,123.1a.84.84,0,0,1,0-1.55l24.72-11.15a4.89,4.89,0,0,1,3.53-.18l38.19,12.83A.5.5,0,0,1,158.9,124Z"/><polygon class="cls-32" points="104.95 128.31 127.7 132.5 144.05 117.85 122.87 113.78 104.95 128.31"/><path class="cls-33" d="M151.77,94.63a13.58,13.58,0,0,1,.81,3.23,18,18,0,0,1-3.47,13c-2.72,3.65-4.63,4.73-6.39,5.31a1.16,1.16,0,0,0-.46,1.94l3.1,3a1.12,1.12,0,0,0,1.39.14c9.08-5.88,15.08-13.85,10.19-29.22a2.77,2.77,0,0,0-5.12-.39l0,.06A3.83,3.83,0,0,0,151.77,94.63Z"/><polygon class="cls-34" points="134.79 122.33 135.39 123.53 142.1 123.53 144.93 118.59 143.25 117.51 140.92 117.69 138.04 117.88 135.84 118.76 134.79 122.33"/><path class="cls-35" d="M141.16,117c.61-1.15,1.67-1.58,3.75-.37a5.1,5.1,0,0,1,1.14.86,3.39,3.39,0,0,1,1.07,2.34,2.5,2.5,0,0,1-1.73,2.4l-.46.16"/><path class="cls-35" d="M143.05,117.74c-1.36-.94-3.41-.65-5.61-.1a3.4,3.4,0,0,1-.7.11,6.12,6.12,0,0,0-2.05.33,1.82,1.82,0,0,0-1.08,2.44,2.77,2.77,0,0,0,.51.75"/><path class="cls-35" d="M137.43,119c-4.38,1.84-5.63,4-5.73,6.3a1.55,1.55,0,0,0,1.56,1.62l.5,0"/><path class="cls-35" d="M137.24,121.71c-3.54,2.43-4.25,4.53-3.62,6.47a1.21,1.21,0,0,0,1.26.84l.11,0a2,2,0,0,0,1.5-1.18,13,13,0,0,1,3.2-4.2c-1.3,1.45-2.26,3-1.78,5.16a1.27,1.27,0,0,0,1.28,1l.14,0a1.45,1.45,0,0,0,1.1-1l1.08-3.09c3.8-.36,4.52-2.73,3.67-6.13"/><ellipse class="cls-36" cx="134.79" cy="77.31" rx="4.26" ry="6.31"/><ellipse class="cls-37" cx="134.79" cy="80.37" rx="2.19" ry="3.24"/><circle class="cls-34" cx="135.63" cy="78.81" r="0.84"/><ellipse class="cls-36" cx="146.93" cy="77.13" rx="4.26" ry="6.31"/><ellipse class="cls-37" cx="146.24" cy="79.65" rx="2.19" ry="3.24"/><circle class="cls-34" cx="147.08" cy="78.15" r="0.84"/><path class="cls-38" d="M131.25,68.55s2.45-2.56,4.83,0"/><path class="cls-38" d="M145,67.56s2.46-2.56,4.84,0"/><path class="cls-39" d="M148.86,86.18a1.57,1.57,0,0,1,1.44,2.64,12.72,12.72,0,0,1-13.55,2.88,1.57,1.57,0,0,1,1.12-2.93,9.61,9.61,0,0,0,10.21-2.17A1.54,1.54,0,0,1,148.86,86.18Z"/><path class="cls-40" d="M137.2,89.72a.52.52,0,0,1,.3,0,10.65,10.65,0,0,0,11.31-2.41.53.53,0,0,1,.75,0,.53.53,0,0,1,0,.74,11.69,11.69,0,0,1-12.44,2.65.53.53,0,0,1-.3-.68A.57.57,0,0,1,137.2,89.72Z"/><polygon class="cls-1" points="131.23 113.78 140.27 116.84 128.78 119.06 126.63 131.77 140.27 132.5 149.45 119.9 158.83 123.05 169.35 56.64 152.24 35.53 129.76 38.17 105.61 50.88 100.23 82.06 102.58 107.68 102.58 118.92 110.11 125.5 120.08 123.73 123.21 114.42 126.81 112.27 131.23 113.78"/><g class="cls-41"><path class="cls-42" d="M119.14,119.05a2.87,2.87,0,0,1-2.72-2,2.83,2.83,0,0,1,.15-2.19,2.86,2.86,0,0,1,1.66-1.45c13-4.36,15.69-20.6,15.71-20.77a2.9,2.9,0,0,1,2.84-2.44,3.27,3.27,0,0,1,.44,0,2.88,2.88,0,0,1,2.41,3.27c-.12.81-3.19,19.86-19.57,25.36A2.91,2.91,0,0,1,119.14,119.05Z"/><path d="M136.79,90.49a2.56,2.56,0,0,1,.39,0,2.62,2.62,0,0,1,2.2,3c-.12.8-3.17,19.71-19.4,25.16a2.72,2.72,0,0,1-.84.13,2.62,2.62,0,0,1-.83-5.11c13.17-4.41,15.86-20.8,15.88-21a2.64,2.64,0,0,1,2.6-2.22m0-.51h0a3.16,3.16,0,0,0-3.09,2.65c0,.17-2.69,16.26-15.54,20.57a3.19,3.19,0,0,0-1.81,1.57,3.14,3.14,0,0,0,2.8,4.53,3.37,3.37,0,0,0,1-.16c16.52-5.54,19.62-24.75,19.74-25.56A3.13,3.13,0,0,0,137.26,90a2.56,2.56,0,0,0-.47,0Z"/><path class="cls-43" d="M109.76,118.2A2.66,2.66,0,0,0,109,121a3.37,3.37,0,0,0,3.14,2.66,1.34,1.34,0,0,0,1.4-1c.43-1.72-.83-2.49-2.62-3"/><path class="cls-43" d="M109.53,115.65a2.66,2.66,0,0,0-.77,2.77,3.36,3.36,0,0,0,3.14,2.66,1.34,1.34,0,0,0,1.39-1c.44-1.73-.83-2.5-2.62-3"/><path class="cls-43" d="M117,112.16c1.78-.11,3.34.54,4.24,3.49.6,3.43-.93,4-2.48,4.54"/><path class="cls-43" d="M113.61,123.13c3-.74,6-1.32,5.6-6.29"/><path class="cls-43" d="M118.77,114.66c-.12-2.57-5.82-4.5-9.24-1.49a2.65,2.65,0,0,0-.77,2.76,3.36,3.36,0,0,0,3.14,2.67,1.34,1.34,0,0,0,1.39-1c.44-1.72-.83-2.49-2.62-3,1.3-1.11,2.7-1.92,4.76-.87-1.69,1.88-1.55,3.34-.69,4.62a1.52,1.52,0,0,0,2.31.26c.9-.86.91-2.07,0-3.63"/><path class="cls-44" d="M112.64,105.45a.06.06,0,0,1,0,0l3.78,14.44-3.45.9-3.79-14.48a.24.24,0,0,1,.14-.31,4.88,4.88,0,0,1,3-.8C112.48,105.21,112.6,105.3,112.64,105.45Z"/><rect class="cls-45" x="109.76" y="107.47" width="3.56" height="1.63" transform="matrix(0.97, -0.25, 0.25, 0.97, -23.79, 31.79)"/><rect class="cls-45" x="112.48" y="117.88" width="3.56" height="1.63" transform="translate(-26.34 32.82) rotate(-14.68)"/><path class="cls-46" d="M115.84,123.8l.58-3.79s0-.07,0-.06l-3.33.87s0,.05,0,.07l2.36,3Z"/><path class="cls-43" d="M110.52,114.47l.34-.27c-.19-.63-.23-1.3-.41-1.93a6.28,6.28,0,0,0-1.08.74,2.69,2.69,0,0,0-.77,2.77,3.36,3.36,0,0,0,3.14,2.66,1.33,1.33,0,0,0,1.4-1C113.57,115.72,112.31,115,110.52,114.47Z"/><path class="cls-43" d="M114.94,113.4a3.82,3.82,0,0,1,.51.23c-1.68,1.88-1.54,3.33-.68,4.61a1.5,1.5,0,0,0,2.3.26c.91-.86.91-2.07,0-3.63"/></g><path class="cls-34" d="M66.42,150.31c0,.29,0,.59,0,.88a6.06,6.06,0,0,1,.54.47c0-.25,0-.49,0-.72a10.37,10.37,0,0,0-.57-2.53,17.18,17.18,0,0,1,.1,1.77Z"/><path class="cls-3" d="M55.74,150.9a9.34,9.34,0,0,1,5.37-1.56,8.53,8.53,0,0,1,4.68,1.4v-.55a16.65,16.65,0,0,0-.43-3.73,13.54,13.54,0,0,0-.53-1.7A5.55,5.55,0,0,1,61,146.48h0a.31.31,0,0,1-.3-.28.3.3,0,0,1,.28-.32A4.75,4.75,0,0,0,64.62,144a.24.24,0,0,1,.07-.12,2.23,2.23,0,0,0,.3-1.08c0-1.7-2-3.07-4.5-3.07s-4.5,1.37-4.5,3.07a2.39,2.39,0,0,0,.62,1.53.27.27,0,0,1,.07.08,4.83,4.83,0,0,0,2.75,1.37.29.29,0,0,1,.25.34.3.3,0,0,1-.35.25,5.65,5.65,0,0,1-2.79-1.24c-.11.34-.22.68-.31,1a16.59,16.59,0,0,0-.5,4.11v.12C55.74,150.59,55.74,150.75,55.74,150.9Z"/><path class="cls-3" d="M66.94,152.56a7.56,7.56,0,0,0-1-1h0A7.91,7.91,0,0,0,61.11,150a8.41,8.41,0,0,0-5.45,1.79,5.37,5.37,0,0,0-1.19,1.39,4.32,4.32,0,0,0-.59,1.77.61.61,0,0,0,0,.14,4.6,4.6,0,0,0,1.5,1.6,8,8,0,0,0,2.12,1,11.69,11.69,0,0,0,3.49.52c3.26,0,6.16-1.29,7.12-3.15A4.44,4.44,0,0,0,67,152.65Z"/><path class="cls-47" d="M61,158.77a12.14,12.14,0,0,1-3.66-.55A8.45,8.45,0,0,1,55,157.13a5.43,5.43,0,0,1-1.12-1c.27,1.59,1.47,2.7,3.51,3.25l.08,0a13.65,13.65,0,0,0,3.07.39h.53c4,0,6.42-1.25,6.91-3.63C66.64,157.76,64,158.77,61,158.77Z"/><path d="M67.56,152.33h0v-.19q0-.65-.06-1.26A10.77,10.77,0,0,0,66,146.31h0a12.66,12.66,0,0,0-.71-2.18,2.79,2.79,0,0,0,.33-1.3c0-2-2.29-3.68-5.1-3.68s-5.1,1.65-5.1,3.68a2.9,2.9,0,0,0,.67,1.82,12.5,12.5,0,0,0-.44,1.39,10.8,10.8,0,0,0-1.73,5.41h0c0,.21,0,.43,0,.67s0,.52,0,.76a4.86,4.86,0,0,0-.64,2c0,.07,0,.13,0,.2-.16,2.42,1.25,4.16,4,4.92l.07,0a13.76,13.76,0,0,0,3.3.43h.54c6.55,0,7.59-3.2,7.63-5.11h0a2.78,2.78,0,0,0,0-.29A5,5,0,0,0,67.56,152.33Zm-.67-1.39c0,.23,0,.47,0,.72a6.06,6.06,0,0,0-.54-.47c0-.29,0-.59,0-.88v-.13a17.18,17.18,0,0,0-.1-1.77A10.37,10.37,0,0,1,66.89,150.94ZM56.23,146.2c.09-.36.2-.7.31-1a5.65,5.65,0,0,0,2.79,1.24.3.3,0,0,0,.35-.25.29.29,0,0,0-.25-.34,4.83,4.83,0,0,1-2.75-1.37.27.27,0,0,0-.07-.08,2.39,2.39,0,0,1-.62-1.53c0-1.7,2-3.07,4.5-3.07s4.5,1.37,4.5,3.07a2.23,2.23,0,0,1-.3,1.08.24.24,0,0,0-.07.12A4.75,4.75,0,0,1,61,145.88a.3.3,0,0,0-.28.32.31.31,0,0,0,.3.28h0a5.55,5.55,0,0,0,3.82-1.72,13.54,13.54,0,0,1,.53,1.7,16.65,16.65,0,0,1,.43,3.73v.55a8.53,8.53,0,0,0-4.68-1.4,9.34,9.34,0,0,0-5.37,1.56c0-.15,0-.31,0-.47v-.12A16.59,16.59,0,0,1,56.23,146.2Zm-1.75,5.29h0a11,11,0,0,1,.77-3.47,17.31,17.31,0,0,0-.15,2.3v.13c0,.31,0,.62,0,.94a6.31,6.31,0,0,0-.68.69C54.46,151.86,54.47,151.67,54.48,151.49Zm6.63,8.32h-.53a13.65,13.65,0,0,1-3.07-.39l-.08,0c-2-.55-3.24-1.66-3.51-3.25a5.43,5.43,0,0,0,1.12,1,8.45,8.45,0,0,0,2.28,1.09,12.14,12.14,0,0,0,3.66.55c3,0,5.66-1,7-2.59C67.53,158.56,65.16,159.81,61.11,159.81ZM61,158.19a11.69,11.69,0,0,1-3.49-.52,8,8,0,0,1-2.12-1,4.6,4.6,0,0,1-1.5-1.6.61.61,0,0,1,0-.14,4.32,4.32,0,0,1,.59-1.77,5.37,5.37,0,0,1,1.19-1.39A8.41,8.41,0,0,1,61.11,150a7.91,7.91,0,0,1,4.78,1.61h0a7.56,7.56,0,0,1,1,1l.07.09A4.44,4.44,0,0,1,68.1,155C67.14,156.9,64.24,158.19,61,158.19Z"/><path class="cls-4" d="M60.66,143.11a2.24,2.24,0,0,1-2.24-2.23V125a2.24,2.24,0,0,1,4.47,0v15.93A2.23,2.23,0,0,1,60.66,143.11Z"/><path d="M60.66,123.14A1.81,1.81,0,0,1,62.47,125v15.93a1.81,1.81,0,0,1-3.62,0V125a1.81,1.81,0,0,1,1.81-1.81m0-.84A2.66,2.66,0,0,0,58,125v15.93a2.66,2.66,0,0,0,5.31,0V125a2.65,2.65,0,0,0-2.65-2.65Z"/><polygon class="cls-6" points="73.29 121.29 74.1 103.84 76.42 103.84 76.07 121.29 73.29 121.29"/><polygon class="cls-6" points="52.47 117.89 53.28 100.44 55.6 100.44 55.24 117.89 52.47 117.89"/><path class="cls-7" d="M59.55,133l-1.27,0a13.2,13.2,0,0,0-1.41,0l-.29,0-.89,26.73c1.13,1.31,2.32,1.38,3.57,0L60,133A2.73,2.73,0,0,1,59.55,133Z"/><path class="cls-8" d="M59.32,159.82l.38,4.55a3.63,3.63,0,0,1-4.52,0l.57-4.68A2.68,2.68,0,0,0,59.32,159.82Z"/><path class="cls-9" d="M72.7,126.41l2.63,22.86c1,.65,1.85.75,2.62-.32l-3.07-23.58A14.52,14.52,0,0,0,72.7,126.41Z"/><path class="cls-10" d="M75.28,148.82l.07,4c1.26,1.68,2.41,1.26,3.49-.21l-1-4.32A1.63,1.63,0,0,1,75.28,148.82Z"/><path class="cls-11" d="M78.44,103.21l.66-13.12a2.44,2.44,0,0,0-1.85-2.52l-21.36-5A2.41,2.41,0,0,0,53,84.85l-.79,12.66A2.44,2.44,0,0,0,54,100.05l21.48,5.42a2.66,2.66,0,0,0,.73.07A2.44,2.44,0,0,0,78.44,103.21Z"/><path class="cls-12" d="M76.56,104.47l.67-13.12a2.46,2.46,0,0,0-1.86-2.53L54,83.86A2.41,2.41,0,0,0,51.1,86.1l-.79,12.66a2.44,2.44,0,0,0,1.81,2.54l21.48,5.42a2.09,2.09,0,0,0,.74.07A2.43,2.43,0,0,0,76.56,104.47Z"/><path class="cls-13" d="M74.75,120.83l-29.09-7.68a2,2,0,0,0-1.13.06l-14.7,5.53a1.26,1.26,0,0,0,0,2.44l27.76,9.75a1.84,1.84,0,0,0,1.4-.07l16-7.61A1.26,1.26,0,0,0,74.75,120.83Z"/><polygon class="cls-14" points="75.86 122.62 75.86 125.78 58.82 134.71 59.03 131.06 75.86 122.62"/><polygon class="cls-15" points="28.5 124.5 28.93 121.18 58.31 130.86 58.31 134.68 28.5 124.5"/><path class="cls-25" d="M45.39,111.81c-2.57-8.69-13.29-33.59-28.3-34l.56-21.23c10.14.27,24.91,5,37.75,26.17a107.85,107.85,0,0,1,10.37,23.08l-10.2,3Z"/><path class="cls-24" d="M14.9,62.79S48.79,66.23,61,108.91c0,.09.05.17.07.26l5.52-2.86S56.88,78.34,44,67.56c0,0-14-13.11-27.37-11.35Z"/><path class="cls-24" d="M14.38,70.28s31.31,5.25,38.09,40.41H44.54S34.77,77.13,16,78.14Z"/><path d="M17.65,56.59c10.14.27,24.91,5,37.75,26.17a107.85,107.85,0,0,1,10.37,23.08l-10.2,3-10.18,3c-2.57-8.69-13.29-33.59-28.3-34l.56-21.23M17,55.9l0,.67L16.42,77.8l0,.68.67,0c14.61.38,25.14,24.93,27.67,33.5l.19.65.65-.19,10.18-3,10.2-3,.64-.19-.18-.64A108.3,108.3,0,0,0,56,82.41C43,61,28,56.19,17.67,55.92l-.67,0Z"/><polygon class="cls-21" points="16.62 56.21 20.25 60.03 16.41 63.55 20.04 67.28 16.2 70.82 19.83 74.56 15.99 78.14 0.59 66.74 16.62 56.21"/><path class="cls-26" d="M4.14,69.17a3.5,3.5,0,0,0,.13-4.7L.59,66.67Z"/><polygon class="cls-30" points="15.99 78.14 0.59 66.74 16.62 56.21 20.25 59.89 16.41 63.41 20.04 67.14 16.2 70.68 19.83 74.42 15.99 78.14"/><path class="cls-48" d="M67.38,113.11a9.8,9.8,0,0,1-.89,4.28c-2.1,4.49-7,5.6-7.62,5.74a12,12,0,0,1-9.1-1A11.08,11.08,0,0,1,46.36,119Z"/><path class="cls-49" d="M65.52,103.94c2.11,4.06,2.3,5.28,2.27,8.42,0,.22,0,.48,0,.77-5.85,5.79-13.27,7.35-21.06,5.74-.21-.29-.38-.57-.52-.8L44,109.81A65.88,65.88,0,0,0,65.52,103.94Z"/><path class="cls-50" d="M44.44,111.49a44.37,44.37,0,0,0,21.67-5.9"/><path class="cls-50" d="M46,117.36c8.1-.31,15.4-2.12,21.66-5.91"/><path class="cls-4" d="M45.3,151.43a2.22,2.22,0,0,1-2.21-2.53,2.2,2.2,0,0,1,.86-1.48c7.09-5.39,6-18.83,6-19A2.24,2.24,0,0,1,52,126h.2a2.22,2.22,0,0,1,2.22,2c.06.65,1.32,16-7.74,22.91A2.19,2.19,0,0,1,45.3,151.43Z"/><path d="M52.17,126.45A1.81,1.81,0,0,1,54,128.1c.06.64,1.3,15.8-7.57,22.54a1.82,1.82,0,0,1-1.1.37,1.78,1.78,0,0,1-1.44-.71,1.81,1.81,0,0,1,.34-2.54c7.27-5.53,6.17-19.2,6.16-19.34a1.82,1.82,0,0,1,1.65-2h.16m0-.84h-.24a2.66,2.66,0,0,0-2.41,2.88c0,.13,1,13.36-5.83,18.59a2.65,2.65,0,1,0,3.22,4.22c9.23-7,8-22.62,7.9-23.28a2.64,2.64,0,0,0-2.64-2.42Z"/><path class="cls-34" d="M39.94,154.21A7.15,7.15,0,0,1,37.87,151c-.43-1.41-.75-2.36-.92-2.74a9,9,0,0,0-1.26-2.07c-1.82-2.28-4.69-4.41-7.29-3.58a3.72,3.72,0,0,0-1,.53,5.83,5.83,0,0,0-.45.51,3.51,3.51,0,0,1,1.4-.35,5.76,5.76,0,0,1,3.41.86c2.49,1.43,4.5,4.31,6,8.58a3.48,3.48,0,0,0,.69,1.17c1.4,1.56,3.68,4.49,3.21,6.55a1.84,1.84,0,0,1-.19.51,4.87,4.87,0,0,0,1.08-.8C43.15,158.48,42.14,156.15,39.94,154.21Z"/><path class="cls-3" d="M42.51,146.23a.62.62,0,0,0-.17.11l-.09.08a1.27,1.27,0,0,0-.35.9,4.75,4.75,0,0,1,1.6.74.34.34,0,0,1,.07.47.32.32,0,0,1-.27.14.28.28,0,0,1-.19-.07,3.91,3.91,0,0,0-2.21-.74l0,.46a2.62,2.62,0,0,0,0,.28c0,.23-.06,1.35-.07,1.57a.34.34,0,0,1-.67,0c0-.5.08-1.34.07-1.49s0-.2,0-.29a6.32,6.32,0,0,0-.06-.77,7.38,7.38,0,0,0-.54-2,7.64,7.64,0,0,0-10.32-3.87c2.57-.14,5.17,1.87,6.87,4A10.34,10.34,0,0,1,37.57,148c.18.41.49,1.36.94,2.81a6.35,6.35,0,0,0,1.88,2.94c2.07,1.83,3.15,4,3,5.83a7.67,7.67,0,0,0,3.15-6.18v-.19a11.73,11.73,0,0,0-.35-2.12.35.35,0,0,1,.24-.41.33.33,0,0,1,.41.24,13.54,13.54,0,0,1,.35,2.05,2.38,2.38,0,0,0,.66,0,1.25,1.25,0,0,0,.63-.31c.83-.84.12-2.95-1.56-4.63C45.37,146.46,43.49,145.72,42.51,146.23Z"/><path class="cls-51" d="M37.66,154l-.29.3a9.66,9.66,0,0,1-3.67,2.36l-.3.11c.22.31.41.61.6.9a10.91,10.91,0,0,0,3.11,3.39,3.46,3.46,0,0,0,2.06.46,3.82,3.82,0,0,0,.68-.05A1.68,1.68,0,0,0,41,160.28c.43-1.89-2.23-5-3.06-6A4,4,0,0,1,37.66,154Z"/><path class="cls-47" d="M36.89,153.83l.41-.42c-.07-.16-.14-.32-.2-.49-1.75-5.07-4-7.25-5.62-8.18a5,5,0,0,0-3-.8h0a2.54,2.54,0,0,0-2.51,2.16h0a4.15,4.15,0,0,0,0,1.16A10,10,0,0,0,28.65,152c.31.35,1.54,1.49,2.44,2.32l1.21,1.13c.26.27.48.52.68.77l.49-.18A9,9,0,0,0,36.89,153.83Z"/><path d="M42.25,145.72a1.45,1.45,0,0,0-.26.17.58.58,0,0,0-.14.13,1.77,1.77,0,0,0-.51,1.2l-.52,0a8.47,8.47,0,0,0-.55-1.84A8.29,8.29,0,0,0,27.63,142a7.71,7.71,0,0,0-.65.57l-.07.07,0,0A5.77,5.77,0,0,0,25.23,146v0h0a4.57,4.57,0,0,0,.05,1.37,10.55,10.55,0,0,0,2.87,5c.33.38,1.53,1.48,2.49,2.37l1.18,1.1c.3.32.55.61.77.89l0,0c.31.41.56.8.82,1.2a11.53,11.53,0,0,0,3.27,3.56,4,4,0,0,0,2.46.6,4.76,4.76,0,0,0,.84-.07h0a5.37,5.37,0,0,0,3-1.57l.05-.06a8.31,8.31,0,0,0,4-7h.29a2.25,2.25,0,0,0,.46,0,1.8,1.8,0,0,0,.93-.47c1.08-1.09.4-3.47-1.56-5.43C45.57,145.87,43.46,145.09,42.25,145.72Zm-10,9.72-1.21-1.13c-.9-.83-2.13-2-2.44-2.32a10,10,0,0,1-2.72-4.72,4.15,4.15,0,0,1,0-1.16h0a2.54,2.54,0,0,1,2.51-2.16h0a5,5,0,0,1,3,.8c1.6.93,3.87,3.11,5.62,8.18.06.17.13.33.2.49l-.41.42a9,9,0,0,1-3.42,2.2l-.49.18C32.78,156,32.56,155.71,32.3,155.44ZM41,160.28a1.68,1.68,0,0,1-1.13,1.19,3.82,3.82,0,0,1-.68.05,3.46,3.46,0,0,1-2.06-.46A10.91,10.91,0,0,1,34,157.67c-.19-.29-.38-.59-.6-.9l.3-.11a9.66,9.66,0,0,0,3.67-2.36l.29-.3a4,4,0,0,0,.26.32C38.75,155.24,41.41,158.39,41,160.28Zm1.54-.14a4.87,4.87,0,0,1-1.08.8,1.84,1.84,0,0,0,.19-.51c.47-2.06-1.81-5-3.21-6.55a3.48,3.48,0,0,1-.69-1.17c-1.47-4.27-3.48-7.15-6-8.58a5.76,5.76,0,0,0-3.41-.86,3.51,3.51,0,0,0-1.4.35,5.83,5.83,0,0,1,.45-.51,3.72,3.72,0,0,1,1-.53c2.6-.83,5.47,1.3,7.29,3.58A9,9,0,0,1,37,148.23c.17.38.49,1.33.92,2.74a7.15,7.15,0,0,0,2.07,3.24C42.14,156.15,43.15,158.48,42.52,160.14Zm5.91-7.54a1.25,1.25,0,0,1-.63.31,2.38,2.38,0,0,1-.66,0,13.54,13.54,0,0,0-.35-2.05.33.33,0,0,0-.41-.24.35.35,0,0,0-.24.41,11.73,11.73,0,0,1,.35,2.12v.19a7.67,7.67,0,0,1-3.15,6.18c.2-1.8-.88-4-3-5.83a6.35,6.35,0,0,1-1.88-2.94c-.45-1.45-.76-2.4-.94-2.81a10.34,10.34,0,0,0-1.36-2.22c-1.7-2.13-4.3-4.14-6.87-4a7.64,7.64,0,0,1,10.32,3.87,7.38,7.38,0,0,1,.54,2,6.32,6.32,0,0,1,.06.77c0,.09,0,.19,0,.29s0,1-.07,1.49a.34.34,0,0,0,.67,0c0-.22.08-1.34.07-1.57a2.62,2.62,0,0,1,0-.28l0-.46a3.91,3.91,0,0,1,2.21.74.28.28,0,0,0,.19.07.32.32,0,0,0,.27-.14.34.34,0,0,0-.07-.47,4.75,4.75,0,0,0-1.6-.74,1.27,1.27,0,0,1,.35-.9l.09-.08a.62.62,0,0,1,.17-.11c1-.51,2.86.23,4.36,1.74C48.55,149.65,49.26,151.76,48.43,152.6Z"/><ellipse class="cls-36" cx="31.19" cy="84.46" rx="4.26" ry="6.31" transform="translate(-45.81 37.79) rotate(-38.51)"/><ellipse class="cls-37" cx="33.1" cy="86.86" rx="2.19" ry="3.24" transform="translate(-46.88 39.5) rotate(-38.51)"/><circle class="cls-34" cx="32.78" cy="85.11" r="0.84"/><path class="cls-52" d="M34.61,81.89c-2.16-2.73-5.41-3.75-7.25-2.28s-1.58,4.86.59,7.58A17.47,17.47,0,0,0,34.61,81.89Z"/><ellipse class="cls-36" cx="40.58" cy="76.76" rx="4.26" ry="6.31" transform="translate(-38.97 41.96) rotate(-38.51)"/><ellipse class="cls-37" cx="41.61" cy="79.16" rx="2.19" ry="3.24" transform="translate(-40.24 43.12) rotate(-38.51)"/><circle class="cls-34" cx="41.33" cy="77.46" r="0.84"/><path class="cls-52" d="M44,74c-2.17-2.72-5.42-3.75-7.26-2.28s-1.57,4.86.6,7.58A17.47,17.47,0,0,0,44,74Z"/><path class="cls-38" d="M27.61,76.07s0,3.55-3.48,3.36"/><path class="cls-38" d="M38.13,68.25s-.78,3.47-4.15,2.5"/><path class="cls-39" d="M42.22,96a1.57,1.57,0,0,1-2.52-1.66,12.73,12.73,0,0,1,10.58-8.93,1.57,1.57,0,1,1,.39,3.11,9.63,9.63,0,0,0-8,6.73A1.6,1.6,0,0,1,42.22,96Z"/><path class="cls-40" d="M50.82,87.35a.65.65,0,0,1-.28.12,10.64,10.64,0,0,0-8.84,7.46.52.52,0,1,1-1-.31,11.7,11.7,0,0,1,9.71-8.2.54.54,0,0,1,.59.46A.54.54,0,0,1,50.82,87.35Z"/><path class="cls-16" d="M67.73,135.89l.64.45a2.36,2.36,0,0,1,1,1.59l4.13,27.87c1.23.66,2.39.75,3.38-.32L72.14,137.4a4.58,4.58,0,0,0-1-2.14l-1-1.29Z"/><path class="cls-8" d="M73.4,165.36l.09,3.95c1.63,1.68,3.11,1.25,4.51-.21l-1.27-4.32A2.43,2.43,0,0,1,73.4,165.36Z"/><path class="cls-17" d="M41.84,146l.87,1.72a9,9,0,0,1,1,3.79l.83,28a2.24,2.24,0,0,0,3.57,0L47,150.22a6.25,6.25,0,0,0-.35-1.87l-1.09-3.17Z"/><path class="cls-8" d="M44.45,179.39l-.39,4.55a3.66,3.66,0,0,0,4.53,0L48,179.26A2.66,2.66,0,0,1,44.45,179.39Z"/><path class="cls-18" d="M12.88,134.57,12,136.35a3.63,3.63,0,0,0-.37,1.37l-1.85,27,0,.32a2.34,2.34,0,0,0,3.13,0l1.31-26.73a4.29,4.29,0,0,1,.18-1l.55-1.8Z"/><path class="cls-8" d="M9.2,168.39a3,3,0,0,0,4.17,0l-.47-4.23a2.23,2.23,0,0,1-3.13.18Z"/><path class="cls-19" d="M9.32,126.58l1.53,6.12A3.34,3.34,0,0,0,12.91,135l31.65,12a5,5,0,0,0,4.07-.27l21.21-11.4a3.61,3.61,0,0,0,1.9-3l.2-5.28L46.4,138.9Z"/><path class="cls-20" d="M6.34,122.58v1.3A2.29,2.29,0,0,0,7.83,126l36.64,13.72a5,5,0,0,0,4.08-.28l23.73-12.68a2.24,2.24,0,0,0,1.18-2.22l-.1-.93L46.49,137.37Z"/><path class="cls-31" d="M73.36,123.5,49.05,136.6a6.86,6.86,0,0,1-5.74.34L6.88,122.65a.85.85,0,0,1,0-1.56l24.73-11.15a4.81,4.81,0,0,1,3.52-.17l38.19,12.82A.5.5,0,0,1,73.36,123.5Z"/><polygon class="cls-32" points="14.92 123.29 36.61 131.33 55.23 119.72 35.08 112.06 14.92 123.29"/><g class="cls-53"><path class="cls-54" d="M40.38,92.43a17.81,17.81,0,0,1-2,6.36,22.36,22.36,0,0,1-6.87,7.79,18.07,18.07,0,0,1-5.74,3l1.67,5.87,4.06-2.35a38.3,38.3,0,0,0,8.23-6.38L42.38,104l-.31-13.4h0A2.11,2.11,0,0,0,40.38,92.43Z"/><path class="cls-43" d="M16.69,115.18a2.66,2.66,0,0,0-.77,2.77,3.35,3.35,0,0,0,3.14,2.66,1.34,1.34,0,0,0,1.39-1c.44-1.72-.83-2.49-2.62-3"/><path class="cls-43" d="M16.45,112.63a2.67,2.67,0,0,0-.77,2.77,3.35,3.35,0,0,0,3.14,2.66,1.34,1.34,0,0,0,1.4-1c.43-1.72-.83-2.49-2.62-3"/><path class="cls-43" d="M23.93,109.14c1.78-.11,3.35.55,4.24,3.49.61,3.44-.92,4-2.47,4.55"/><path class="cls-43" d="M20.54,120.11c2.95-.74,6-1.31,5.59-6.28"/><path class="cls-43" d="M25.7,111.64c-.13-2.57-5.83-4.49-9.25-1.49a2.66,2.66,0,0,0-.77,2.77,3.36,3.36,0,0,0,3.14,2.66,1.35,1.35,0,0,0,1.4-1c.43-1.73-.83-2.5-2.62-3,1.29-1.1,2.69-1.91,4.75-.86-1.68,1.88-1.54,3.33-.68,4.62a1.51,1.51,0,0,0,2.3.25c.91-.86.91-2.07,0-3.63"/><path class="cls-44" d="M19.57,102.43v0l3.78,14.44-3.44.91-3.79-14.48a.25.25,0,0,1,.13-.32,5,5,0,0,1,3-.8C19.4,102.19,19.53,102.29,19.57,102.43Z"/><rect class="cls-45" x="16.68" y="104.45" width="3.56" height="1.63" transform="translate(-26.07 8.11) rotate(-14.68)"/><rect class="cls-45" x="19.41" y="114.87" width="3.56" height="1.63" transform="translate(-28.62 9.14) rotate(-14.68)"/><path class="cls-46" d="M22.77,120.79l.57-3.8s0-.07-.05-.06L20,117.8a.05.05,0,0,0,0,.08l2.37,3Z"/><path class="cls-43" d="M17.44,111.46l.34-.28c-.19-.63-.22-1.3-.4-1.93a6,6,0,0,0-1.08.75,2.65,2.65,0,0,0-.77,2.76,3.36,3.36,0,0,0,3.14,2.67,1.33,1.33,0,0,0,1.39-1C20.5,112.7,19.23,111.93,17.44,111.46Z"/><path class="cls-43" d="M21.86,110.38c.17.07.34.14.51.23-1.68,1.88-1.54,3.33-.68,4.62a1.52,1.52,0,0,0,2.31.26c.9-.87.9-2.07,0-3.64"/></g><path class="cls-33" d="M53.06,92.62a13,13,0,0,1,1.25,3.09A17.89,17.89,0,0,1,52.68,109c-2.18,4-3.92,5.33-5.59,6.15a1.17,1.17,0,0,0-.18,2l3.49,2.53a1.13,1.13,0,0,0,1.39-.07c8.17-7.08,13-15.81,6-30.34a2.77,2.77,0,0,0-5.13.32l0,.06A3.83,3.83,0,0,0,53.06,92.62Z"/><polygon class="cls-34" points="39.87 120.99 40.47 122.18 47.18 122.18 50.02 117.25 48.33 116.17 46.01 116.34 43.12 116.54 40.92 117.42 39.87 120.99"/><path class="cls-35" d="M46.24,115.61c.61-1.14,1.67-1.57,3.76-.36a5.27,5.27,0,0,1,1.13.86,3.39,3.39,0,0,1,1.07,2.33,2.47,2.47,0,0,1-1.72,2.4L50,121"/><path class="cls-35" d="M48.14,116.4c-1.37-1-3.42-.66-5.62-.1a2.75,2.75,0,0,1-.7.1,6.31,6.31,0,0,0-2,.34,1.82,1.82,0,0,0-1.09,2.44,3.08,3.08,0,0,0,.52.75"/><path class="cls-35" d="M42.51,117.64c-4.38,1.84-5.63,4-5.73,6.29a1.55,1.55,0,0,0,1.56,1.63l.51,0"/><path class="cls-35" d="M42.32,120.37c-3.54,2.43-4.24,4.53-3.62,6.47a1.2,1.2,0,0,0,1.26.83h.11a2,2,0,0,0,1.5-1.18,13,13,0,0,1,3.21-4.2c-1.3,1.44-2.27,3-1.79,5.16a1.26,1.26,0,0,0,1.28,1h.14a1.45,1.45,0,0,0,1.1-1l1.09-3.1c3.79-.35,4.52-2.72,3.66-6.12"/><circle class="cls-55" cx="143.97" cy="16.75" r="15.62"/><path class="cls-34" d="M153.1,10.58a2.32,2.32,0,0,0-3.3,0l-8,8-3.38-3.37a2.34,2.34,0,1,0-3.3,3.31l5,5a2.32,2.32,0,0,0,3.3,0l9.65-9.65A2.32,2.32,0,0,0,153.1,10.58Z"/><circle class="cls-56" cx="30.32" cy="17.27" r="15.62"/><path class="cls-34" d="M38.05,10.08a2.18,2.18,0,0,0-3.08,0l-4.65,4.65-4.65-4.65a2.18,2.18,0,0,0-3.08,3.08l4.65,4.65-4.65,4.65a2.18,2.18,0,1,0,3.08,3.08l4.65-4.65L35,25.54a2.18,2.18,0,0,0,1.54.64,2.22,2.22,0,0,0,1.54-.64,2.18,2.18,0,0,0,0-3.08L33.4,17.81l4.65-4.65A2.18,2.18,0,0,0,38.05,10.08Z"/></g></g></svg>