<svg xmlns="http://www.w3.org/2000/svg" xmlns:xlink="http://www.w3.org/1999/xlink" viewBox="0 0 162.68 190.49"><defs><style>.cls-1{fill:none;}.cls-2{fill:#747e7f;}.cls-3{fill:#9ba7a7;}.cls-4{fill:#c08d54;}.cls-5{fill:#996e43;}.cls-6,.cls-7{fill:#fff;}.cls-6{stroke:#1d1d1b;stroke-width:0.58px;}.cls-10,.cls-11,.cls-12,.cls-13,.cls-6,.cls-8,.cls-9{stroke-miterlimit:10;}.cls-8{fill:#ffd396;stroke-width:0.2px;}.cls-10,.cls-11,.cls-12,.cls-13,.cls-8,.cls-9{stroke:#000;}.cls-9{stroke-width:0.18px;}.cls-10{fill:#fbca2c;}.cls-10,.cls-11,.cls-12,.cls-13{stroke-width:0.19px;}.cls-11{fill:#f4b21c;}.cls-12{fill:#cac3b9;}.cls-13{fill:#fc5465;}.cls-14{clip-path:url(#clip-path);}.cls-15{clip-path:url(#clip-path-2);}</style><clipPath id="clip-path"><polygon class="cls-1" points="58.45 14.06 59.51 23.23 55.81 25.03 50.92 24.45 47.24 18.56 55.35 10.96 58.45 14.06"/></clipPath><clipPath id="clip-path-2"><path class="cls-1" d="M52.85,27.23H65.22a0,0,0,0,1,0,0v13a0,0,0,0,1,0,0H47.72a0,0,0,0,1,0,0V32.36A5.13,5.13,0,0,1,52.85,27.23Z" transform="translate(62.13 -31.8) rotate(64.08)"/></clipPath></defs><title>paso4img3</title><g id="Layer_2" data-name="Layer 2"><g id="Paso_4" data-name="Paso 4"><path class="cls-2" d="M135,119.59a3.41,3.41,0,0,0,4.53.28l3.16-36a15.26,15.26,0,0,0-4.41-2.18Z"/><path class="cls-2" d="M20,81a10.8,10.8,0,0,1-6.22-2A19.37,19.37,0,0,0,7.06,93.72v87a4.3,4.3,0,0,0,5.84-.43V96A16,16,0,0,1,23.5,81Z"/><path class="cls-2" d="M142.73,81h-3.44a16,16,0,0,1,10.6,15v84a4.32,4.32,0,0,0,5.85.21V93.72A19.43,19.43,0,0,0,149,79,10.74,10.74,0,0,1,142.73,81Z"/><path class="cls-2" d="M21.71,82.82l3.09,37.24a3.49,3.49,0,0,0,5-.4L26.66,81.17A14.91,14.91,0,0,0,21.71,82.82Z"/><path class="cls-3" d="M10.58,73.05a9.92,9.92,0,0,0,9.44,7H142.73a9.93,9.93,0,0,0,9.45-7l2.94-9.82H7.64Z"/><path class="cls-4" d="M147.45,4.54A5.14,5.14,0,0,0,142.52.93H20.15a5.14,5.14,0,0,0-4.92,3.61L1.17,49.19a5.35,5.35,0,0,0-.22,1v1.06a5.2,5.2,0,0,0,1,2.5A5.11,5.11,0,0,0,6.09,55.9H156.58a5.13,5.13,0,0,0,4.17-2.11,5.07,5.07,0,0,0,.95-2.35V50.07h0a4.46,4.46,0,0,0-.19-.88Z"/><path class="cls-5" d="M156.58,56.83H6.09A6.05,6.05,0,0,1,1,54v3.46A4.86,4.86,0,0,0,5.8,62.31H156.86a4.85,4.85,0,0,0,4.84-4.85V54A6.07,6.07,0,0,1,156.58,56.83Z"/><path d="M148.33,4.26A6.08,6.08,0,0,0,142.52,0H20.15a6.09,6.09,0,0,0-5.81,4.26L.28,48.91A5.83,5.83,0,0,0,0,50.07H0v.12A5.15,5.15,0,0,0,0,51.3v6.16A5.78,5.78,0,0,0,5.8,63.23h.87l3,10.09a10.75,10.75,0,0,0,3.36,5.11A20.32,20.32,0,0,0,6.13,93.72V180a.45.45,0,0,0-.68.39V187a2.75,2.75,0,0,0,.89,2.05c2.66,2.46,5.38,1.25,6.91.15a2.82,2.82,0,0,0,1.18-2.48L14,180.25a.42.42,0,0,0-.21-.36V96a15,15,0,0,1,7-12.7l3,36.33a.39.39,0,0,0-.15.31l-.21,6.58a3.44,3.44,0,0,0,.82,2.43c2.87,3.14,5.67,1.29,7.11-.24a3.39,3.39,0,0,0,.77-3l-1.28-6.27a.42.42,0,0,0-.15-.23L27.58,81.07c.42,0,.85-.06,1.28-.06H133.94a14.91,14.91,0,0,1,3.43.4l-3.23,37.38a.41.41,0,0,0-.47.32l-1.29,6.27a3.43,3.43,0,0,0,.77,3c1.44,1.53,4.24,3.38,7.11.24a3.46,3.46,0,0,0,.83-2.43l-.21-6.58a.42.42,0,0,0-.36-.4l3-34.73A15,15,0,0,1,149,96v83.44a.44.44,0,0,0-.34.41l-.4,6.48a2.84,2.84,0,0,0,1.19,2.48c1.53,1.1,4.25,2.3,6.91-.15a2.78,2.78,0,0,0,.89-2.06V180a.46.46,0,0,0-.55-.45V93.72a20.31,20.31,0,0,0-6.94-15.31,10.75,10.75,0,0,0,3.35-5.09l3-10.09h.78a5.78,5.78,0,0,0,5.77-5.77v-6a5.92,5.92,0,0,0-.24-2.59ZM12.9,96v84.25a4.3,4.3,0,0,1-5.84.43v-87A19.37,19.37,0,0,1,13.8,79,10.8,10.8,0,0,0,20,81H23.5A16,16,0,0,0,12.9,96Zm16.94,23.62a3.49,3.49,0,0,1-5,.4L21.71,82.82a14.91,14.91,0,0,1,4.95-1.65Zm109.69.21a3.41,3.41,0,0,1-4.53-.28l3.28-37.94a15.26,15.26,0,0,1,4.41,2.18Zm16.21-26.15v86.55a4.32,4.32,0,0,1-5.85-.21V96a16,16,0,0,0-10.6-15h3.44A10.74,10.74,0,0,0,149,79,19.43,19.43,0,0,1,155.74,93.72Zm-3.56-20.67a9.93,9.93,0,0,1-9.45,7H20a9.92,9.92,0,0,1-9.44-7L7.64,63.23H155.12Zm9.52-15.59a4.85,4.85,0,0,1-4.84,4.85H5.8A4.86,4.86,0,0,1,1,57.46V54a6.05,6.05,0,0,0,5.14,2.83H156.58A6.07,6.07,0,0,0,161.7,54Zm0-7.39v1.37a5.07,5.07,0,0,1-.95,2.35,5.13,5.13,0,0,1-4.17,2.11H6.09a5.11,5.11,0,0,1-4.16-2.11,5.2,5.2,0,0,1-1-2.5V50.23a5.35,5.35,0,0,1,.22-1L15.23,4.54A5.14,5.14,0,0,1,20.15.93H142.52a5.14,5.14,0,0,1,4.93,3.61l14.06,44.65a4.46,4.46,0,0,1,.19.88Z"/><polygon class="cls-6" points="30.95 41.05 139.1 53.93 134.9 12.01 44.88 1.29 30.95 41.05"/><path class="cls-7" d="M136.68,40.56a9.08,9.08,0,0,0,1.07-4.24c.12-4.93-2.65-10.9-7.24-15.58C124,14.15,118.62,12,114.4,14.37a29.15,29.15,0,0,1,12,9.77.42.42,0,0,1,0,.54l0,0a.4.4,0,0,1-.57-.08,28.12,28.12,0,0,0-12.27-9.74l-.18-.06c-3-1.13-5.41-1-6.64.28a3.17,3.17,0,0,0-.48.71c6.09,1,13,9.42,13.31,9.87a.41.41,0,0,1-.63.51c-.09-.11-7.42-9.11-13.3-9.63h0a4.74,4.74,0,0,0-3.27.84,1.94,1.94,0,0,0-.44,1.51c.09,1.2,1.07,3.22,5.15,6,2.82,1.94,7.32,6.24,8.18,10.14a1,1,0,0,1-.29.95h0a1,1,0,0,1-1,.25c-2.31-.62-10-2.26-11.82,2.65a3.54,3.54,0,0,0,.52,2.87c.8,1,2.34,1.46,4.59,1.36.55-.15,5-1.15,11.66,3.07a11.75,11.75,0,0,0,7.36,1.47h.14a11.47,11.47,0,0,0,6.68-3.22.4.4,0,0,1,.57,0,.41.41,0,0,1,0,.58,12.3,12.3,0,0,1-6.79,3.39,3.59,3.59,0,0,0,.89,1.61c2.09,2.13,6.6,1.1,10-2.29s4.57-7.88,2.48-10a3.58,3.58,0,0,0-1.75-1A9.74,9.74,0,0,1,137.39,41a.86.86,0,0,1-.07.1.42.42,0,0,1-.49.06A.41.41,0,0,1,136.68,40.56Z"/><path d="M113.45,14l0,0h0c-3.21-1.16-5.84-.94-7.28.57a4,4,0,0,0-.75,1.18,5.49,5.49,0,0,0-3.54,1l0,0a2.75,2.75,0,0,0-.72,2.15c.14,2,2,4.26,5.51,6.67,2.71,1.87,7,6,7.84,9.65a.21.21,0,0,1-.06.19.17.17,0,0,1-.19,0c-.49-.13-1.2-.3-2-.45l-.08,0c-3.45-.6-9-.8-10.68,3.64v0a4.31,4.31,0,0,0,.66,3.6c1,1.23,2.76,1.79,5.31,1.67l.1,0s4.38-1.24,11,3a12.58,12.58,0,0,0,7.57,1.62,4.41,4.41,0,0,0,1.13,2.08c2.4,2.45,7.43,1.43,11.2-2.28s4.89-8.71,2.49-11.15A4.39,4.39,0,0,0,138.56,36c0-5.07-2.84-11.1-7.47-15.82C124,13,118.11,10.92,113.45,14Zm23.38,27.12a.42.42,0,0,0,.49-.06.86.86,0,0,0,.07-.1,9.74,9.74,0,0,0,1.15-4.13,3.58,3.58,0,0,1,1.75,1c2.09,2.12,1,6.61-2.48,10s-8,4.42-10,2.29a3.59,3.59,0,0,1-.89-1.61,12.3,12.3,0,0,0,6.79-3.39.41.41,0,0,0,0-.58.4.4,0,0,0-.57,0,11.47,11.47,0,0,1-6.68,3.22h-.14a11.75,11.75,0,0,1-7.36-1.47C112.22,42,107.8,43,107.25,43.18c-2.25.1-3.79-.36-4.59-1.36a3.54,3.54,0,0,1-.52-2.87C104,34,111.65,35.68,114,36.3a1,1,0,0,0,1-.25h0a1,1,0,0,0,.29-.95c-.86-3.9-5.36-8.2-8.18-10.14-4.08-2.81-5.06-4.83-5.15-6a1.94,1.94,0,0,1,.44-1.51,4.74,4.74,0,0,1,3.27-.84h0c5.88.52,13.21,9.52,13.3,9.63a.41.41,0,0,0,.63-.51c-.36-.45-7.22-8.87-13.31-9.87a3.17,3.17,0,0,1,.48-.71c1.23-1.31,3.65-1.41,6.64-.28l.18.06a28.12,28.12,0,0,1,12.27,9.74.4.4,0,0,0,.57.08l0,0a.42.42,0,0,0,0-.54,29.15,29.15,0,0,0-12-9.77c4.22-2.36,9.64-.22,16.11,6.37,4.59,4.68,7.36,10.65,7.24,15.58a9.08,9.08,0,0,1-1.07,4.24A.41.41,0,0,0,136.83,41.11Z"/><path class="cls-7" d="M51.29,37.75c1.44-2.07,2.8-4,4.4-4.86a3.81,3.81,0,0,0,2.41-3.15A2,2,0,0,0,57.2,28a5.83,5.83,0,0,0-4.74-.65c-2.2.78-3.6,3.15-4.4,5A1.51,1.51,0,0,1,45.18,32c-.83-5,1.92-8.86,4.13-11.08a.52.52,0,0,1,.1-.11.1.1,0,0,1,.05,0,17.1,17.1,0,0,1,2.37-2,.41.41,0,1,1,.43.69,16.74,16.74,0,0,0-2,1.66c2.72,3.13,5.46,2.28,5.58,2.24a1.58,1.58,0,0,0,1-.82c.35-.81-.17-2.07-.72-3.4A18.3,18.3,0,0,1,55.27,17c-.68-2.67-1.85-4.2-3.48-4.58a4.91,4.91,0,0,0-2.55.19l-.08,0c-4.52,1.44-9.7,7.55-9.76,7.63a.42.42,0,0,1-.58.05.45.45,0,0,1-.1-.14.4.4,0,0,1,.05-.43c.25-.3,4.87-5.75,9.41-7.61a6,6,0,0,0-4-.77c-4.75.71-9,6.4-9,6.46a.4.4,0,0,1-.57.08.44.44,0,0,1-.12-.15.38.38,0,0,1,0-.41,22,22,0,0,1,5.94-5.44c-10-1.64-15.74,16.61-15.9,17.1a12.94,12.94,0,0,0,1,8.45c.11.22.21.42.32.61a.41.41,0,0,1-.71.39c-.11-.2-.22-.41-.34-.65a13.61,13.61,0,0,1-1.33-7,3.84,3.84,0,0,0-2.56.68,4.7,4.7,0,0,0-1.59,4.32,12.15,12.15,0,0,0,2.44,6.15c3.09,4.23,6.83,6,9.1,4.36a4.4,4.4,0,0,0,1.33-1.72,13.86,13.86,0,0,1-4.57-2.89.36.36,0,0,1-.08-.12.4.4,0,0,1,.07-.45.41.41,0,0,1,.58,0,12.83,12.83,0,0,0,4.66,2.86,12.67,12.67,0,0,0,3.45.7h0c4.07.17,11.1-1.52,13.75-5.15C50.49,38.9,50.9,38.31,51.29,37.75Z"/><path d="M52,38.22c1.38-2,2.68-3.87,4.11-4.61a4.55,4.55,0,0,0,2.84-3.86,2.73,2.73,0,0,0-1.33-2.48,6.57,6.57,0,0,0-5.4-.69c-2.47.87-4,3.45-4.86,5.45a.68.68,0,0,1-.73.42.66.66,0,0,1-.6-.57c-.76-4.48,1.61-8,3.65-10.13,3.08,3.51,6.28,2.48,6.44,2.43a2.45,2.45,0,0,0,1.47-1.27c.49-1.12-.1-2.54-.71-4a16.34,16.34,0,0,1-.78-2.14c-.76-3-2.14-4.71-4.09-5.16a5.58,5.58,0,0,0-2.82.17,6.77,6.77,0,0,0-5.09-1.24,9.56,9.56,0,0,0-2.49.76c-4.73-1.32-9.3,1.28-13.24,7.53A44.1,44.1,0,0,0,25,25.49l0,0h0a13.41,13.41,0,0,0-1.17,3.21v0c-.09.4-.15.79-.2,1.18a4.63,4.63,0,0,0-3.14.82,5.53,5.53,0,0,0-1.91,5,11.73,11.73,0,0,0,1.21,4.28,15.14,15.14,0,0,0,1.38,2.29c3.43,4.69,7.54,6.51,10.24,4.53A5.08,5.08,0,0,0,33,44.8a13.91,13.91,0,0,0,3.27.63h.06a13.93,13.93,0,0,0,2.51-.08l.12,0h0c4.1-.43,9.42-2.11,11.8-5.38C51.16,39.37,51.56,38.78,52,38.22Zm-15.63,6.4h0a12.67,12.67,0,0,1-3.45-.7,12.83,12.83,0,0,1-4.66-2.86.41.41,0,0,0-.58,0,.4.4,0,0,0-.07.45.36.36,0,0,0,.08.12,13.86,13.86,0,0,0,4.57,2.89,4.4,4.4,0,0,1-1.33,1.72c-2.27,1.65-6-.13-9.1-4.36a12.15,12.15,0,0,1-2.44-6.15,4.7,4.7,0,0,1,1.59-4.32,3.84,3.84,0,0,1,2.56-.68,13.61,13.61,0,0,0,1.33,7c.12.24.23.45.34.65a.41.41,0,0,0,.71-.39c-.11-.19-.21-.39-.32-.61a12.94,12.94,0,0,1-1-8.45c.16-.49,5.91-18.74,15.9-17.1a22,22,0,0,0-5.94,5.44.38.38,0,0,0,0,.41.44.44,0,0,0,.12.15.4.4,0,0,0,.57-.08c.05-.06,4.27-5.75,9-6.46a6,6,0,0,1,4,.77c-4.54,1.86-9.16,7.31-9.41,7.61a.4.4,0,0,0-.05.43.45.45,0,0,0,.1.14.42.42,0,0,0,.58-.05c.06-.08,5.24-6.19,9.76-7.63l.08,0a4.91,4.91,0,0,1,2.55-.19c1.63.38,2.8,1.91,3.48,4.58a18.3,18.3,0,0,0,.81,2.24c.55,1.33,1.07,2.59.72,3.4a1.58,1.58,0,0,1-1,.82c-.12,0-2.86.89-5.58-2.24a16.74,16.74,0,0,1,2-1.66.41.41,0,1,0-.43-.69,17.1,17.1,0,0,0-2.37,2,.1.1,0,0,0-.05,0,.52.52,0,0,0-.1.11C47.1,23.15,44.35,27,45.18,32a1.51,1.51,0,0,0,2.88.34c.8-1.86,2.2-4.23,4.4-5A5.83,5.83,0,0,1,57.2,28a2,2,0,0,1,.9,1.75,3.81,3.81,0,0,1-2.41,3.15c-1.6.83-3,2.79-4.4,4.86-.39.56-.8,1.15-1.21,1.72C47.43,43.1,40.4,44.79,36.33,44.62Z"/><path class="cls-8" d="M66.15,21.59C64,21.47,61,21.12,61,21.12L61.28,24l1.81,2.29s2.08-1.76,3.73-3Z"/><path class="cls-9" d="M67.75,22.55c.82-.63,0-.87-.36-.89l-1.24-.07.67,1.67Z"/><path class="cls-10" d="M27.86,32.67a1.06,1.06,0,0,1-1.27-.6h0a.83.83,0,0,1,.56-1.13l33.51-9.75a1.07,1.07,0,0,1,1.27.6h0a.83.83,0,0,1-.56,1.13Z"/><path class="cls-11" d="M28.56,34.4a1.07,1.07,0,0,1-1.27-.6h0a.84.84,0,0,1,.57-1.13l33.51-9.75a1.07,1.07,0,0,1,1.27.6h0a.84.84,0,0,1-.57,1.13Z"/><path class="cls-10" d="M29.27,36.13a1.07,1.07,0,0,1-1.27-.6h0a.83.83,0,0,1,.56-1.13l33.51-9.75a1.06,1.06,0,0,1,1.27.6h0a.83.83,0,0,1-.56,1.13Z"/><polygon class="cls-12" points="29.86 35.95 27.74 30.77 26.11 31.25 28.23 36.43 29.86 35.95"/><path class="cls-13" d="M28.23,36.43l-2.12-5.19-1.7.5h0l-.08,0A2.33,2.33,0,0,0,23.08,35,3,3,0,0,0,26.45,37l.08,0h0Z"/><g class="cls-14"><path class="cls-7" d="M51.29,37.75c1.44-2.07,2.8-4,4.4-4.86a3.81,3.81,0,0,0,2.41-3.15A2,2,0,0,0,57.2,28a5.83,5.83,0,0,0-4.74-.65c-2.2.78-3.6,3.15-4.4,5A1.51,1.51,0,0,1,45.18,32c-.83-5,1.92-8.86,4.13-11.08a.52.52,0,0,1,.1-.11.1.1,0,0,1,.05,0,17.1,17.1,0,0,1,2.37-2,.41.41,0,1,1,.43.69,16.74,16.74,0,0,0-2,1.66c2.72,3.13,5.46,2.28,5.58,2.24a1.58,1.58,0,0,0,1-.82c.35-.81-.17-2.07-.72-3.4A18.3,18.3,0,0,1,55.27,17c-.68-2.67-1.85-4.2-3.48-4.58a4.91,4.91,0,0,0-2.55.19l-.08,0c-4.52,1.44-9.7,7.55-9.76,7.63a.42.42,0,0,1-.58.05.45.45,0,0,1-.1-.14.4.4,0,0,1,.05-.43c.25-.3,4.87-5.75,9.41-7.61a6,6,0,0,0-4-.77c-4.75.71-9,6.4-9,6.46a.4.4,0,0,1-.57.08.44.44,0,0,1-.12-.15.38.38,0,0,1,0-.41,22,22,0,0,1,5.94-5.44c-10-1.64-15.74,16.61-15.9,17.1a12.94,12.94,0,0,0,1,8.45c.11.22.21.42.32.61a.41.41,0,0,1-.71.39c-.11-.2-.22-.41-.34-.65a13.61,13.61,0,0,1-1.33-7,3.84,3.84,0,0,0-2.56.68,4.7,4.7,0,0,0-1.59,4.32,12.15,12.15,0,0,0,2.44,6.15c3.09,4.23,6.83,6,9.1,4.36a4.4,4.4,0,0,0,1.33-1.72,13.86,13.86,0,0,1-4.57-2.89.36.36,0,0,1-.08-.12.4.4,0,0,1,.07-.45.41.41,0,0,1,.58,0,12.83,12.83,0,0,0,4.66,2.86,12.67,12.67,0,0,0,3.45.7h0c4.07.17,11.1-1.52,13.75-5.15C50.49,38.9,50.9,38.31,51.29,37.75Z"/><path d="M52,38.22c1.38-2,2.68-3.87,4.11-4.61a4.55,4.55,0,0,0,2.84-3.86,2.73,2.73,0,0,0-1.33-2.48,6.57,6.57,0,0,0-5.4-.69c-2.47.87-4,3.45-4.86,5.45a.68.68,0,0,1-.73.42.66.66,0,0,1-.6-.57c-.76-4.48,1.61-8,3.65-10.13,3.08,3.51,6.28,2.48,6.44,2.43a2.45,2.45,0,0,0,1.47-1.27c.49-1.12-.1-2.54-.71-4a16.34,16.34,0,0,1-.78-2.14c-.76-3-2.14-4.71-4.09-5.16a5.58,5.58,0,0,0-2.82.17,6.77,6.77,0,0,0-5.09-1.24,9.56,9.56,0,0,0-2.49.76c-4.73-1.32-9.3,1.28-13.24,7.53A44.1,44.1,0,0,0,25,25.49l0,0h0a13.41,13.41,0,0,0-1.17,3.21v0c-.09.4-.15.79-.2,1.18a4.63,4.63,0,0,0-3.14.82,5.53,5.53,0,0,0-1.91,5,11.73,11.73,0,0,0,1.21,4.28,15.14,15.14,0,0,0,1.38,2.29c3.43,4.69,7.54,6.51,10.24,4.53A5.08,5.08,0,0,0,33,44.8a13.91,13.91,0,0,0,3.27.63h.06a13.93,13.93,0,0,0,2.51-.08l.12,0h0c4.1-.43,9.42-2.11,11.8-5.38C51.16,39.37,51.56,38.78,52,38.22Zm-15.63,6.4h0a12.67,12.67,0,0,1-3.45-.7,12.83,12.83,0,0,1-4.66-2.86.41.41,0,0,0-.58,0,.4.4,0,0,0-.07.45.36.36,0,0,0,.08.12,13.86,13.86,0,0,0,4.57,2.89,4.4,4.4,0,0,1-1.33,1.72c-2.27,1.65-6-.13-9.1-4.36a12.15,12.15,0,0,1-2.44-6.15,4.7,4.7,0,0,1,1.59-4.32,3.84,3.84,0,0,1,2.56-.68,13.61,13.61,0,0,0,1.33,7c.12.24.23.45.34.65a.41.41,0,0,0,.71-.39c-.11-.19-.21-.39-.32-.61a12.94,12.94,0,0,1-1-8.45c.16-.49,5.91-18.74,15.9-17.1a22,22,0,0,0-5.94,5.44.38.38,0,0,0,0,.41.44.44,0,0,0,.12.15.4.4,0,0,0,.57-.08c.05-.06,4.27-5.75,9-6.46a6,6,0,0,1,4,.77c-4.54,1.86-9.16,7.31-9.41,7.61a.4.4,0,0,0-.05.43.45.45,0,0,0,.1.14.42.42,0,0,0,.58-.05c.06-.08,5.24-6.19,9.76-7.63l.08,0a4.91,4.91,0,0,1,2.55-.19c1.63.38,2.8,1.91,3.48,4.58a18.3,18.3,0,0,0,.81,2.24c.55,1.33,1.07,2.59.72,3.4a1.58,1.58,0,0,1-1,.82c-.12,0-2.86.89-5.58-2.24a16.74,16.74,0,0,1,2-1.66.41.41,0,1,0-.43-.69,17.1,17.1,0,0,0-2.37,2,.1.1,0,0,0-.05,0,.52.52,0,0,0-.1.11C47.1,23.15,44.35,27,45.18,32a1.51,1.51,0,0,0,2.88.34c.8-1.86,2.2-4.23,4.4-5A5.83,5.83,0,0,1,57.2,28a2,2,0,0,1,.9,1.75,3.81,3.81,0,0,1-2.41,3.15c-1.6.83-3,2.79-4.4,4.86-.39.56-.8,1.15-1.21,1.72C47.43,43.1,40.4,44.79,36.33,44.62Z"/></g><g class="cls-15"><path class="cls-7" d="M51.29,37.75c1.44-2.07,2.8-4,4.4-4.86a3.81,3.81,0,0,0,2.41-3.15A2,2,0,0,0,57.2,28a5.83,5.83,0,0,0-4.74-.65c-2.2.78-3.6,3.15-4.4,5A1.51,1.51,0,0,1,45.18,32c-.83-5,1.92-8.86,4.13-11.08a.52.52,0,0,1,.1-.11.1.1,0,0,1,.05,0,17.1,17.1,0,0,1,2.37-2,.41.41,0,1,1,.43.69,16.74,16.74,0,0,0-2,1.66c2.72,3.13,5.46,2.28,5.58,2.24a1.58,1.58,0,0,0,1-.82c.35-.81-.17-2.07-.72-3.4A18.3,18.3,0,0,1,55.27,17c-.68-2.67-1.85-4.2-3.48-4.58a4.91,4.91,0,0,0-2.55.19l-.08,0c-4.52,1.44-9.7,7.55-9.76,7.63a.42.42,0,0,1-.58.05.45.45,0,0,1-.1-.14.4.4,0,0,1,.05-.43c.25-.3,4.87-5.75,9.41-7.61a6,6,0,0,0-4-.77c-4.75.71-9,6.4-9,6.46a.4.4,0,0,1-.57.08.44.44,0,0,1-.12-.15.38.38,0,0,1,0-.41,22,22,0,0,1,5.94-5.44c-10-1.64-15.74,16.61-15.9,17.1a12.94,12.94,0,0,0,1,8.45c.11.22.21.42.32.61a.41.41,0,0,1-.71.39c-.11-.2-.22-.41-.34-.65a13.61,13.61,0,0,1-1.33-7,3.84,3.84,0,0,0-2.56.68,4.7,4.7,0,0,0-1.59,4.32,12.15,12.15,0,0,0,2.44,6.15c3.09,4.23,6.83,6,9.1,4.36a4.4,4.4,0,0,0,1.33-1.72,13.86,13.86,0,0,1-4.57-2.89.36.36,0,0,1-.08-.12.4.4,0,0,1,.07-.45.41.41,0,0,1,.58,0,12.83,12.83,0,0,0,4.66,2.86,12.67,12.67,0,0,0,3.45.7h0c4.07.17,11.1-1.52,13.75-5.15C50.49,38.9,50.9,38.31,51.29,37.75Z"/><path d="M52,38.22c1.38-2,2.68-3.87,4.11-4.61a4.55,4.55,0,0,0,2.84-3.86,2.73,2.73,0,0,0-1.33-2.48,6.57,6.57,0,0,0-5.4-.69c-2.47.87-4,3.45-4.86,5.45a.68.68,0,0,1-.73.42.66.66,0,0,1-.6-.57c-.76-4.48,1.61-8,3.65-10.13,3.08,3.51,6.28,2.48,6.44,2.43a2.45,2.45,0,0,0,1.47-1.27c.49-1.12-.1-2.54-.71-4a16.34,16.34,0,0,1-.78-2.14c-.76-3-2.14-4.71-4.09-5.16a5.58,5.58,0,0,0-2.82.17,6.77,6.77,0,0,0-5.09-1.24,9.56,9.56,0,0,0-2.49.76c-4.73-1.32-9.3,1.28-13.24,7.53A44.1,44.1,0,0,0,25,25.49l0,0h0a13.41,13.41,0,0,0-1.17,3.21v0c-.09.4-.15.79-.2,1.18a4.63,4.63,0,0,0-3.14.82,5.53,5.53,0,0,0-1.91,5,11.73,11.73,0,0,0,1.21,4.28,15.14,15.14,0,0,0,1.38,2.29c3.43,4.69,7.54,6.51,10.24,4.53A5.08,5.08,0,0,0,33,44.8a13.91,13.91,0,0,0,3.27.63h.06a13.93,13.93,0,0,0,2.51-.08l.12,0h0c4.1-.43,9.42-2.11,11.8-5.38C51.16,39.37,51.56,38.78,52,38.22Zm-15.63,6.4h0a12.67,12.67,0,0,1-3.45-.7,12.83,12.83,0,0,1-4.66-2.86.41.41,0,0,0-.58,0,.4.4,0,0,0-.07.45.36.36,0,0,0,.08.12,13.86,13.86,0,0,0,4.57,2.89,4.4,4.4,0,0,1-1.33,1.72c-2.27,1.65-6-.13-9.1-4.36a12.15,12.15,0,0,1-2.44-6.15,4.7,4.7,0,0,1,1.59-4.32,3.84,3.84,0,0,1,2.56-.68,13.61,13.61,0,0,0,1.33,7c.12.24.23.45.34.65a.41.41,0,0,0,.71-.39c-.11-.19-.21-.39-.32-.61a12.94,12.94,0,0,1-1-8.45c.16-.49,5.91-18.74,15.9-17.1a22,22,0,0,0-5.94,5.44.38.38,0,0,0,0,.41.44.44,0,0,0,.12.15.4.4,0,0,0,.57-.08c.05-.06,4.27-5.75,9-6.46a6,6,0,0,1,4,.77c-4.54,1.86-9.16,7.31-9.41,7.61a.4.4,0,0,0-.05.43.45.45,0,0,0,.1.14.42.42,0,0,0,.58-.05c.06-.08,5.24-6.19,9.76-7.63l.08,0a4.91,4.91,0,0,1,2.55-.19c1.63.38,2.8,1.91,3.48,4.58a18.3,18.3,0,0,0,.81,2.24c.55,1.33,1.07,2.59.72,3.4a1.58,1.58,0,0,1-1,.82c-.12,0-2.86.89-5.58-2.24a16.74,16.74,0,0,1,2-1.66.41.41,0,1,0-.43-.69,17.1,17.1,0,0,0-2.37,2,.1.1,0,0,0-.05,0,.52.52,0,0,0-.1.11C47.1,23.15,44.35,27,45.18,32a1.51,1.51,0,0,0,2.88.34c.8-1.86,2.2-4.23,4.4-5A5.83,5.83,0,0,1,57.2,28a2,2,0,0,1,.9,1.75,3.81,3.81,0,0,1-2.41,3.15c-1.6.83-3,2.79-4.4,4.86-.39.56-.8,1.15-1.21,1.72C47.43,43.1,40.4,44.79,36.33,44.62Z"/></g></g></g></svg>