<svg xmlns="http://www.w3.org/2000/svg" viewBox="0 0 114.23 208.93"><defs><style>.cls-1,.cls-10,.cls-11,.cls-13,.cls-14,.cls-2,.cls-3,.cls-4,.cls-5,.cls-6,.cls-7,.cls-8,.cls-9{stroke:#000;stroke-miterlimit:10;}.cls-1{stroke-width:1.16px;}.cls-2{fill:#ffd396;stroke-width:0.39px;}.cls-3{stroke-width:0.35px;}.cls-4{fill:#fbca2c;}.cls-4,.cls-5,.cls-6,.cls-7{stroke-width:0.37px;}.cls-5{fill:#f4b21c;}.cls-6{fill:#cac3b9;}.cls-7{fill:#fc5465;}.cls-8{fill:#f9d34e;}.cls-10,.cls-11,.cls-8,.cls-9{stroke-width:0.39px;}.cls-9{fill:#716cc8;}.cls-10{fill:#9b5cc5;}.cls-11{fill:#b3b3b3;}.cls-12{fill:#4d4d4d;opacity:0.25;}.cls-13{fill:#c1272d;stroke-width:0.61px;}.cls-14{fill:#fff;stroke-width:0.96px;}</style></defs><title>paso4img1</title><g id="Layer_2" data-name="Layer 2"><g id="Paso_4" data-name="Paso 4"><ellipse class="cls-1" cx="64.81" cy="48.11" rx="29.89" ry="10.47"/><path class="cls-2" d="M90.76,3.85C87.91,8.32,83.64,14.2,83.64,14.2L90,17l7-1.11S95.77,9.4,95.11,4.42Z"/><path class="cls-3" d="M94.71,1.57c-.37-2.48-1.84-1-2.32-.28L90.76,3.85l4.35.57C95,3.28,94.82,2.29,94.71,1.57Z"/><path class="cls-4" d="M68.62,98.62a2.62,2.62,0,0,1-2.79,2h0a2,2,0,0,1-1.73-2.56l19.26-83a2.61,2.61,0,0,1,2.79-2h0a2,2,0,0,1,1.73,2.55Z"/><path class="cls-5" d="M73.14,99.18a2.62,2.62,0,0,1-2.79,2h0a2,2,0,0,1-1.73-2.55l19.26-83a2.62,2.62,0,0,1,2.79-2h0a2,2,0,0,1,1.73,2.55Z"/><path class="cls-4" d="M77.66,99.74a2.6,2.6,0,0,1-2.78,2h0a2,2,0,0,1-1.74-2.55l19.26-83a2.62,2.62,0,0,1,2.79-2h0a2,2,0,0,1,1.74,2.56Z"/><polygon class="cls-6" points="78 98.28 64.43 96.59 63.5 100.63 77.07 102.32 78 98.28"/><path class="cls-7" d="M77.07,102.32,63.5,100.63l-1,4.21h0c0,.07,0,.13-.05.19-.73,3.17,1.71,6.11,5.46,6.58s7.38-1.72,8.11-4.89a1.62,1.62,0,0,1,0-.19h0Z"/><path class="cls-8" d="M49.33,41.72l8.55,39.41A1.21,1.21,0,0,1,57,82.56a5.29,5.29,0,0,1-4-1,5.4,5.4,0,0,1-2.2-2.92L41.29,48.72c1.56-.91,2.79-3.38,3.81-6.9Z"/><path class="cls-9" d="M33.38,11.31c-1.33,4.26-.33,7.76,1.55,11a13.25,13.25,0,0,1,.65,1.24l8.23,17.76a1.61,1.61,0,0,0,1.11.89,7.48,7.48,0,0,0,4-.26,1.72,1.72,0,0,0,1.21-1.87,29.76,29.76,0,0,1-.23-5.59,3.23,3.23,0,0,1,.52-1.6l3-4.61a10.71,10.71,0,0,0,1.6-4,17.39,17.39,0,0,0-.88-8.62,15.06,15.06,0,0,0-1-2.43,15.08,15.08,0,0,0-7.38-7.31,9.33,9.33,0,0,0-5.73-.62A8.56,8.56,0,0,0,33.38,11.31Zm4.15-.73A5.45,5.45,0,0,1,39.3,9,5.2,5.2,0,0,1,43,8.48c2.87.65,5.1,2.77,6.94,5.84a11.13,11.13,0,0,1,1.31,3.19,12.79,12.79,0,0,1-.56,8.36A8,8,0,0,1,49.35,28a4.72,4.72,0,0,1-3.32,2h-.28a5,5,0,0,1-4.41-2.7l-2.24-4.4A8.82,8.82,0,0,1,38.38,21l-1.62-6.07A5.12,5.12,0,0,1,37.53,10.58Z"/><path class="cls-8" d="M42.35,44.9l2.21,1.46,4.77,1.28a1.62,1.62,0,0,1,1.1,1l8.79,25.54a8.59,8.59,0,0,1,.07,5.42,4.43,4.43,0,0,1-3,3.22,1.17,1.17,0,0,1-1.37-.67l-15-34.43Z"/><path class="cls-10" d="M20.22,43.29a10.59,10.59,0,0,0,9.49,3.42,12.34,12.34,0,0,1,3.38,0l1.32.18a3.4,3.4,0,0,1,1.61.65l2.09,1.55a2,2,0,0,0,2.36,0,7.7,7.7,0,0,0,2.66-3.77,2.21,2.21,0,0,0-.45-2.15L40.4,40.59a5.66,5.66,0,0,1-.89-1.37l-.82-1.84a10.62,10.62,0,1,0-18.47,5.91ZM33.78,31.65a7.12,7.12,0,1,1-10-.56A7.12,7.12,0,0,1,33.78,31.65Z"/><circle class="cls-11" cx="46.67" cy="51.94" r="2.28"/><ellipse class="cls-12" cx="64.81" cy="115.43" rx="29.89" ry="8.04"/><path class="cls-13" d="M34.92,49.47l8.57,65.76c7.37,5.48,35,6.17,42.05,0L94.7,49.47C85.87,61.29,43.89,62,34.92,49.47Z"/><polygon class="cls-14" points="5.61 208.45 101.02 208.45 113.64 149.9 43.98 149.39 5.61 208.45"/><polygon class="cls-14" points="3.61 207.22 99.01 207.22 111.63 148.67 41.97 148.16 3.61 207.22"/><polygon class="cls-14" points="0.88 205.67 96.28 205.67 108.9 147.12 39.24 146.62 0.88 205.67"/></g></g></svg>