<svg xmlns="http://www.w3.org/2000/svg" viewBox="0 0 179.95 135.39"><defs><style>.cls-1,.cls-2{fill:#fff;}.cls-2,.cls-3,.cls-4,.cls-5,.cls-6{stroke:#000;stroke-miterlimit:10;}.cls-2{stroke-width:0.79px;}.cls-3{fill:#f9d34e;}.cls-3,.cls-4,.cls-5,.cls-6{stroke-width:1.12px;}.cls-4{fill:#6969ff;}.cls-5{fill:#b04aff;}.cls-6{fill:#b3b3b3;}</style></defs><title>paso4img4</title><g id="Layer_2" data-name="Layer 2"><g id="Paso_4" data-name="Paso 4"><path class="cls-1" d="M174.14,85.08c0,18-19.84,32.63-44.32,32.63S85.5,103.1,85.5,85.08c-8.79-19.21,32-32.08,44.32-32.62S174.14,67.06,174.14,85.08Z"/><path class="cls-2" d="M167.48,80.37l1-10.46a5.2,5.2,0,0,1,3.42-4.43c1.6-.55,3.21-.22,4.86,1.83a10.45,10.45,0,0,1,2.18,5.4c2.26,20.89-2.19,34-11.83,41.05-4,1.89-6.72.92-8.61-1.83a2.58,2.58,0,0,1,.27-3.25c5.55-5.76,8.67-13.07,8.47-22.51A46.85,46.85,0,0,1,167.48,80.37Z"/><path class="cls-2" d="M167.53,79.59c2.42-22.77-8.07-32.27-21-36.84-3,13.49-11.59,14.16-21.06,12.82,5.56,17.72,14.07,27.82,25.55,30.2"/><path class="cls-2" d="M119.86,54,89.33,63.3A33.61,33.61,0,0,0,82,66.51l-9.61,5.71a19.42,19.42,0,0,0-5.85,5.35c-3.28,4.58-4.58,9-3.75,13.37a8.27,8.27,0,0,0,3.26,5.24,9.11,9.11,0,0,0,7,1.29,15.66,15.66,0,0,0,11.07-8c.46-.83.89-1.67,1.28-2.53a14.73,14.73,0,0,0-1.11-14.17l-.9-1.38"/><path class="cls-2" d="M84.88,88.09c5.07-5.49,11-10.48,22.66-12.26"/><path class="cls-2" d="M158.09,111.17a26.64,26.64,0,0,1-10,6,34.33,34.33,0,0,1-15.68,1.56l-10.18-1.29c7.46-3.81,12-8.79,10.82-16a9.49,9.49,0,0,0-1.05-3.2c-2.65-4.82-7.45-3.12-12.15-1.7,2.53-7.84.1-11.65-5.73-12.68a8.52,8.52,0,0,1-2.61-.86,6.27,6.27,0,0,1-3.5-6.46c0-.59.06-1.19.06-1.79V67.52"/><path class="cls-3" d="M76.72,71.18l-66-63.53a2.72,2.72,0,0,1-.06-3.86C12.57,1.86,15.33.63,19.56.56A12.21,12.21,0,0,1,27.4,3.27L83.05,47.81c-1.81,3.69-1,9.92,1.53,17.85Z"/><path class="cls-4" d="M145.26,108.4c-2.86-9.73-9.18-15.08-16.79-18.76-1-.46-1.9-1-2.81-1.51L87.68,65a3.69,3.69,0,0,0-3.22-.29,17.06,17.06,0,0,0-7.16,5.51,3.89,3.89,0,0,0,.08,5,68.53,68.53,0,0,1,7.51,10.27,7.39,7.39,0,0,1,1,3.69l.1,12.52a24.26,24.26,0,0,0,2.07,9.61c3.14,7,7.75,11.27,12.56,15.15a34.43,34.43,0,0,0,4.93,3.34c8.19,4.55,15.86,5.75,23.16,4.47a21.32,21.32,0,0,0,11.61-6.1C145.22,123.25,147.49,116.94,145.26,108.4Zm-6.9,6.63a12.5,12.5,0,0,1-1.3,5.28,11.78,11.78,0,0,1-6.35,5.57c-6.23,2.4-13.13,1.23-20.47-2.23a26,26,0,0,1-6.51-4.36c-4.72-4.35-8.25-9.59-9.52-16.5a18.33,18.33,0,0,1-.14-5.63c.43-3.34,1.42-6.21,3.79-7.88l.52-.36a11.23,11.23,0,0,1,11.74-.49l9.79,5.45a21.88,21.88,0,0,1,3.72,2.62l10.74,9.41A11.63,11.63,0,0,1,138.36,115Z"/><path class="cls-3" d="M88.8,52.73l-5.68,2-8.94,6.79a3.59,3.59,0,0,1-3.35.55L12.7,42.41A19.22,19.22,0,0,1,2.86,35Q-.7,29.8,1.24,25.13a2.65,2.65,0,0,1,3.1-1.53L87.15,44.29Z"/><path class="cls-5" d="M122.4,15.15a24.12,24.12,0,0,0-19.33,12.34,27,27,0,0,1-4.61,6.11L96.3,35.74a8,8,0,0,1-3.41,2l-5.68,1.61a4.5,4.5,0,0,0-3.28,4.25,17.37,17.37,0,0,0,3.1,10,5,5,0,0,0,4.49,2.18l7.73-.57a12.26,12.26,0,0,1,3.72.31l4.44,1.06a24.13,24.13,0,1,0,15-41.42Zm2.13,40.55a16.17,16.17,0,1,1,14.95-17.31A16.16,16.16,0,0,1,124.53,55.7Z"/><circle class="cls-6" cx="70.16" cy="50.73" r="5.18"/><path class="cls-2" d="M114.26,100.45c-7.17.57-12,4.32-12,14.48a7.22,7.22,0,0,0,4.11,6.57,17.29,17.29,0,0,0,6.73,1.36c5.58-.56,11.21-3.46,16.88-8.44a12.2,12.2,0,0,0,4.06-7.19l0-.19A7.55,7.55,0,0,0,129.53,99c-5.57-2.27-12.19,1.43-18.85,5.33"/><path class="cls-2" d="M100.64,88.79c-7.17.58-12,4.32-12,14.48a7.22,7.22,0,0,0,4.11,6.58,17.3,17.3,0,0,0,6.73,1.35c5.58-.56,11.21-3.46,16.88-8.43a12.22,12.22,0,0,0,4.06-7.2,1.23,1.23,0,0,0,0-.19,7.53,7.53,0,0,0-4.53-8.09c-5.57-2.27-12.2,1.43-18.85,5.34"/><path class="cls-2" d="M138.34,42a38.11,38.11,0,0,1-16.06-16.14,9.09,9.09,0,0,0-3.8-3.82,7.41,7.41,0,0,0-4.89-.71,8.29,8.29,0,0,0-6.19,5.62,23.93,23.93,0,0,0-1.1,6.87,21,21,0,0,0,3,11.26c3.18,5.29,6.38,8.81,9.58,10.38C132.79,57.06,138.79,52.18,138.34,42Z"/></g></g></svg>