<svg xmlns="http://www.w3.org/2000/svg" viewBox="0 0 399.98 98.13"><defs><style>.cls-1{fill:#c49e00;}.cls-2{fill:#fff;}.cls-3,.cls-4{fill:none;stroke-width:5px;}.cls-3{stroke:#148adb;stroke-linejoin:round;}.cls-4{stroke:#fff;}.cls-5{fill:#148adb;}</style></defs><title>t1</title><g id="Layer_2" data-name="Layer 2"><g id="Pestaña_Paso_4" data-name="Pestaña Paso 4"><rect class="cls-1" width="399.98" height="98.13" rx="32.4"/><path class="cls-2" d="M79.6,33.82a2.21,2.21,0,0,1-1.22-.26,1,1,0,0,1-.45-.66,4.8,4.8,0,0,1-.08-.85V19.49a3.86,3.86,0,0,1,.09-.84,1.13,1.13,0,0,1,.46-.66,2.25,2.25,0,0,1,1.22-.25h4.72a5.84,5.84,0,0,1,1.93.35,5.67,5.67,0,0,1,1.83,1.07,5.45,5.45,0,0,1,1.35,1.78A5.57,5.57,0,0,1,90,23.43a5.32,5.32,0,0,1-1.88,4.23,5.83,5.83,0,0,1-1.83,1.06,5.89,5.89,0,0,1-2,.34H81.38v3a3.86,3.86,0,0,1-.09.84,1.05,1.05,0,0,1-.46.66A2.29,2.29,0,0,1,79.6,33.82Zm1.78-8.26h3a2.53,2.53,0,0,0,1-.21,2,2,0,0,0,.83-.7,2.12,2.12,0,0,0,.34-1.25,2.15,2.15,0,0,0-.29-1.12,2,2,0,0,0-.77-.76,2.18,2.18,0,0,0-1.13-.28H81.38Z"/><path class="cls-2" d="M93.65,33.83a2.12,2.12,0,0,1-1.2-.25,1,1,0,0,1-.44-.65,4.8,4.8,0,0,1-.08-.85v-8A3.76,3.76,0,0,1,92,23.2a1,1,0,0,1,.44-.63,2.35,2.35,0,0,1,1.22-.24,2.3,2.3,0,0,1,1.17.22.94.94,0,0,1,.44.5,1.43,1.43,0,0,1,.09.5l-.27.13a2.36,2.36,0,0,1,.24-.33,3,3,0,0,1,.54-.5,3,3,0,0,1,.84-.45,3.1,3.1,0,0,1,1.14-.19c.17,0,.36,0,.56,0a3.3,3.3,0,0,1,.65.14,3.05,3.05,0,0,1,.61.27,1.51,1.51,0,0,1,.44.43,1.05,1.05,0,0,1,.18.62,2.84,2.84,0,0,1-.44,1.6,1.28,1.28,0,0,1-1.11.65,2.26,2.26,0,0,1-.55-.05,1.26,1.26,0,0,1-.26-.14,1,1,0,0,0-.24-.14,1.48,1.48,0,0,0-.51-.06,2.27,2.27,0,0,0-.65.09A1.86,1.86,0,0,0,96,26a1.35,1.35,0,0,0-.41.48,1.4,1.4,0,0,0-.15.66v5a3.86,3.86,0,0,1-.08.84,1,1,0,0,1-.45.63A2.43,2.43,0,0,1,93.65,33.83Z"/><path class="cls-2" d="M107.82,34a6.68,6.68,0,0,1-2.77-.53,5.45,5.45,0,0,1-1.9-1.39,6.14,6.14,0,0,1-1.1-1.92,6.57,6.57,0,0,1-.37-2.12,6,6,0,0,1,.79-3.06,5.55,5.55,0,0,1,2.17-2.1,6.52,6.52,0,0,1,3.19-.77,5.64,5.64,0,0,1,2.31.43,4.74,4.74,0,0,1,1.61,1.1,4.84,4.84,0,0,1,.94,1.46,4,4,0,0,1,.31,1.5,2.56,2.56,0,0,1-.61,1.88,2.07,2.07,0,0,1-1.55.63h-5.48a1.63,1.63,0,0,0,.43,1,2.46,2.46,0,0,0,.95.64A3.16,3.16,0,0,0,108,31a7.06,7.06,0,0,0,1-.06,3.88,3.88,0,0,0,.72-.16l.54-.21.45-.17a1.55,1.55,0,0,1,.39-.09.91.91,0,0,1,.62.19,1.9,1.9,0,0,1,.53.66,1.68,1.68,0,0,1,.22.48,1.88,1.88,0,0,1,.06.46,1.22,1.22,0,0,1-.57,1,4.22,4.22,0,0,1-1.59.68A10.33,10.33,0,0,1,107.82,34Zm-2.46-6.81H109a1,1,0,0,0,.53-.12.58.58,0,0,0,.18-.5,1.12,1.12,0,0,0-.25-.71,1.64,1.64,0,0,0-.68-.49,2.55,2.55,0,0,0-1-.18,2.66,2.66,0,0,0-1.24.28,2.14,2.14,0,0,0-.86.73A1.74,1.74,0,0,0,105.36,27.23Z"/><path class="cls-2" d="M116.51,38.6a2.23,2.23,0,0,1-1.19-.24.93.93,0,0,1-.44-.62,4.32,4.32,0,0,1-.07-.82V24.06a4.46,4.46,0,0,1,.07-.84,1,1,0,0,1,.42-.63,2.13,2.13,0,0,1,1.19-.25,2.64,2.64,0,0,1,1.14.21,1.27,1.27,0,0,1,.61.64V36.9a3.21,3.21,0,0,1-.07.83,1,1,0,0,1-.45.63A2.27,2.27,0,0,1,116.51,38.6Zm4.42-5a4.19,4.19,0,0,1-2-.45A4.24,4.24,0,0,1,117.54,32a5.49,5.49,0,0,1-.85-1.79,7.29,7.29,0,0,1-.26-2.18,7.6,7.6,0,0,1,.3-2.15,6,6,0,0,1,.86-1.82,3.93,3.93,0,0,1,3.35-1.69,4.56,4.56,0,0,1,2,.46,6,6,0,0,1,1.69,1.26,6.22,6.22,0,0,1,1.17,1.83,5.75,5.75,0,0,1,.42,2.18,5.54,5.54,0,0,1-.43,2.18A5.65,5.65,0,0,1,124.61,32a5.44,5.44,0,0,1-1.68,1.18A4.86,4.86,0,0,1,120.93,33.64Zm-.46-3.25a2.11,2.11,0,0,0,1.15-.31,2.28,2.28,0,0,0,.82-.84,2.23,2.23,0,0,0,.31-1.17,2.32,2.32,0,0,0-.3-1.17,2.23,2.23,0,0,0-.81-.83,2.26,2.26,0,0,0-1.14-.3,2.17,2.17,0,0,0-1.14.31,2.22,2.22,0,0,0-.81.83,2.34,2.34,0,0,0-.28,1.16,2.42,2.42,0,0,0,.29,1.17,2.33,2.33,0,0,0,.81.84A2,2,0,0,0,120.47,30.39Z"/><path class="cls-2" d="M137.47,33.83a2.18,2.18,0,0,1-1.27-.3.85.85,0,0,1-.39-.74l.23-.39a2.58,2.58,0,0,1-.53.57,3.75,3.75,0,0,1-1,.59,3.88,3.88,0,0,1-1.53.27,4.63,4.63,0,0,1-2-.46,5.52,5.52,0,0,1-1.69-1.28,6.59,6.59,0,0,1-1.17-1.85,5.57,5.57,0,0,1,0-4.34,6.33,6.33,0,0,1,1.18-1.82,6.07,6.07,0,0,1,1.7-1.25,4.55,4.55,0,0,1,2-.46,3.73,3.73,0,0,1,1.45.25,4,4,0,0,1,1,.56,3.11,3.11,0,0,1,.6.62l-.2-.32a1,1,0,0,1,.4-.84,2.24,2.24,0,0,1,1.28-.29,2.08,2.08,0,0,1,1.18.26,1.06,1.06,0,0,1,.44.66,5,5,0,0,1,.08.88v7.93a4,4,0,0,1-.08.85,1,1,0,0,1-.43.66A2.27,2.27,0,0,1,137.47,33.83Zm-4-3.43a2,2,0,0,0,1.11-.31,2.42,2.42,0,0,0,.78-.84,2.47,2.47,0,0,0,0-2.36,2.22,2.22,0,0,0-.8-.81,2.3,2.3,0,0,0-2.29,0,2.23,2.23,0,0,0-.83.84,2.27,2.27,0,0,0-.31,1.19,2.12,2.12,0,0,0,.31,1.14,2.36,2.36,0,0,0,2,1.14Z"/><path class="cls-2" d="M143.22,33.86a2.25,2.25,0,0,1-1.21-.25,1,1,0,0,1-.44-.65,4.8,4.8,0,0,1-.08-.85v-8a4.46,4.46,0,0,1,.08-.85,1,1,0,0,1,.45-.63,3.19,3.19,0,0,1,2.38,0,.93.93,0,0,1,.45.5,1.71,1.71,0,0,1,.09.5l-.28.13a2.36,2.36,0,0,1,.24-.33,3,3,0,0,1,.54-.5,3.35,3.35,0,0,1,.84-.45,3.1,3.1,0,0,1,1.14-.19c.17,0,.36,0,.57,0a3.21,3.21,0,0,1,.64.14,2.82,2.82,0,0,1,.61.27,1.68,1.68,0,0,1,.45.43,1.1,1.1,0,0,1,.17.62,2.84,2.84,0,0,1-.44,1.6,1.3,1.3,0,0,1-1.1.65,2.2,2.2,0,0,1-.55,0,1.13,1.13,0,0,1-.27-.14,1,1,0,0,0-.24-.14,1.44,1.44,0,0,0-.51-.06,2.32,2.32,0,0,0-.65.09,1.86,1.86,0,0,0-.58.29,1.46,1.46,0,0,0-.41.48,1.4,1.4,0,0,0-.15.66v5a4.44,4.44,0,0,1-.08.84,1,1,0,0,1-.45.64A2.48,2.48,0,0,1,143.22,33.86Z"/><path class="cls-2" d="M161.07,33.84a2.18,2.18,0,0,1-1.27-.3.79.79,0,0,1-.39-.73l.23-.39a2.57,2.57,0,0,1-.53.56,3.79,3.79,0,0,1-2.55.86,4.49,4.49,0,0,1-2-.46,5.37,5.37,0,0,1-1.69-1.28,6.48,6.48,0,0,1-1.18-1.85,5.59,5.59,0,0,1-.43-2.19,5.22,5.22,0,0,1,.44-2.14,6,6,0,0,1,1.18-1.82,5.67,5.67,0,0,1,1.69-1.25,4.48,4.48,0,0,1,2-.46,3.89,3.89,0,0,1,1.45.24,4.09,4.09,0,0,1,1,.56,3.5,3.5,0,0,1,.61.62l-.2-.32a1,1,0,0,1,.4-.84,2.25,2.25,0,0,1,1.28-.28,2.09,2.09,0,0,1,1.18.25,1.06,1.06,0,0,1,.44.67,4.85,4.85,0,0,1,.08.87V32.1a4.8,4.8,0,0,1-.08.85,1,1,0,0,1-.44.65A2.22,2.22,0,0,1,161.07,33.84Zm-4-3.43a2,2,0,0,0,1.11-.31,2.31,2.31,0,0,0,.78-.83,2.38,2.38,0,0,0,.3-1.18,2.3,2.3,0,0,0-.3-1.18,2.25,2.25,0,0,0-.8-.82,2.2,2.2,0,0,0-1.13-.3,2.17,2.17,0,0,0-1.16.31,2.38,2.38,0,0,0-.83.84,2.28,2.28,0,0,0-.31,1.2,2.11,2.11,0,0,0,.31,1.13,2.19,2.19,0,0,0,.85.83A2.29,2.29,0,0,0,157,30.41Z"/><path class="cls-2" d="M166.82,33.87a2.27,2.27,0,0,1-1.21-.24,1,1,0,0,1-.44-.66,4.71,4.71,0,0,1-.08-.85v-8a3.84,3.84,0,0,1,.08-.85,1,1,0,0,1,.45-.63,3.19,3.19,0,0,1,2.38,0,1,1,0,0,1,.44.51,1.42,1.42,0,0,1,.1.49l-.28.14a2.36,2.36,0,0,1,.24-.33,3,3,0,0,1,.54-.51,3,3,0,0,1,.84-.45,3.33,3.33,0,0,1,1.14-.18l.56,0a4,4,0,0,1,.65.14,2.6,2.6,0,0,1,.61.28,1.51,1.51,0,0,1,.45.42,1.13,1.13,0,0,1,.17.62,2.81,2.81,0,0,1-.44,1.6,1.29,1.29,0,0,1-1.1.66,1.84,1.84,0,0,1-.56-.06,1.26,1.26,0,0,1-.26-.14,1.38,1.38,0,0,0-.24-.14,1.83,1.83,0,0,0-.51-.05,2.27,2.27,0,0,0-.65.09,1.83,1.83,0,0,0-.58.28,1.4,1.4,0,0,0-.56,1.14v5a3.86,3.86,0,0,1-.08.84.9.9,0,0,1-.45.63A2.41,2.41,0,0,1,166.82,33.87Z"/><path class="cls-2" d="M187,34.09a6.73,6.73,0,0,1-2.78-.53,5.41,5.41,0,0,1-1.89-1.39,6.17,6.17,0,0,1-1.11-1.92,6.6,6.6,0,0,1-.36-2.12,6,6,0,0,1,.78-3.06,5.58,5.58,0,0,1,2.18-2.1A6.37,6.37,0,0,1,187,22.2a5.64,5.64,0,0,1,2.31.43,4.71,4.71,0,0,1,2.56,2.56,4.17,4.17,0,0,1,.3,1.5,2.56,2.56,0,0,1-.61,1.88,2,2,0,0,1-1.55.62h-5.47a1.64,1.64,0,0,0,.42,1,2.53,2.53,0,0,0,1,.64,3.12,3.12,0,0,0,1.22.23,9,9,0,0,0,1-.05,4.62,4.62,0,0,0,.72-.16l.55-.21a4.31,4.31,0,0,1,.44-.17,1.55,1.55,0,0,1,.39-.09.94.94,0,0,1,.63.19,2,2,0,0,1,.52.66,1.68,1.68,0,0,1,.22.48,1.82,1.82,0,0,1,.06.46,1.24,1.24,0,0,1-.56,1,4.55,4.55,0,0,1-1.59.68A10.38,10.38,0,0,1,187,34.09Zm-2.46-6.81h3.63a1,1,0,0,0,.53-.12.58.58,0,0,0,.19-.5,1.11,1.11,0,0,0-.26-.71,1.62,1.62,0,0,0-.67-.5,2.81,2.81,0,0,0-1-.17,2.66,2.66,0,0,0-1.24.28,2.13,2.13,0,0,0-.86.73A1.73,1.73,0,0,0,184.53,27.28Z"/><path class="cls-2" d="M198.51,33.89a14,14,0,0,1-1.68-.09,3.7,3.7,0,0,1-1.24-.37,2.27,2.27,0,0,1-.83-.77,3.62,3.62,0,0,1-.48-1.27,9.22,9.22,0,0,1-.16-1.9V18.87a3.74,3.74,0,0,1,.1-.85,1.08,1.08,0,0,1,.45-.65,2.12,2.12,0,0,1,1.2-.25,2.19,2.19,0,0,1,1.19.25,1.08,1.08,0,0,1,.45.65,3.76,3.76,0,0,1,.09.85V29.33a3.44,3.44,0,0,0,0,.61.74.74,0,0,0,.13.38.48.48,0,0,0,.29.19,2.09,2.09,0,0,0,.48,0,2.78,2.78,0,0,1,.57.07.85.85,0,0,1,.49.42,2.32,2.32,0,0,1,.21,1.15,2.5,2.5,0,0,1-.21,1.19.82.82,0,0,1-.49.44A2.38,2.38,0,0,1,198.51,33.89Z"/><path class="cls-2" d="M213.18,34.11a6.52,6.52,0,0,1-2.77-.54,5.33,5.33,0,0,1-1.9-1.39,5.93,5.93,0,0,1-1.1-1.92,6.51,6.51,0,0,1-.37-2.11,6,6,0,0,1,.79-3.06A5.71,5.71,0,0,1,210,23a6.52,6.52,0,0,1,3.19-.77,5.81,5.81,0,0,1,2.31.43,4.76,4.76,0,0,1,1.61,1.11,4.55,4.55,0,0,1,.94,1.46,4,4,0,0,1,.31,1.49,2.59,2.59,0,0,1-.61,1.89,2.09,2.09,0,0,1-1.55.62h-5.48a1.6,1.6,0,0,0,.43,1,2.48,2.48,0,0,0,.95.65,3.35,3.35,0,0,0,1.22.23,7.06,7.06,0,0,0,1-.06,3.88,3.88,0,0,0,.72-.16l.54-.2.45-.18.39-.09a.92.92,0,0,1,.62.2,1.77,1.77,0,0,1,.53.65,1.62,1.62,0,0,1,.22.49,1.76,1.76,0,0,1,.06.46,1.24,1.24,0,0,1-.57,1,4.24,4.24,0,0,1-1.58.67A10.43,10.43,0,0,1,213.18,34.11Zm-2.45-6.81h3.63a.88.88,0,0,0,.53-.13.56.56,0,0,0,.18-.49,1.15,1.15,0,0,0-.25-.72,1.57,1.57,0,0,0-.68-.49,2.56,2.56,0,0,0-1-.17,2.79,2.79,0,0,0-1.24.27,2.16,2.16,0,0,0-.86.74A1.68,1.68,0,0,0,210.73,27.3Z"/><path class="cls-2" d="M224.43,34.09a7.57,7.57,0,0,1-1.36-.14,8.16,8.16,0,0,1-1.41-.4,5.16,5.16,0,0,1-1.15-.62,1.18,1.18,0,0,1-.52-.82,1.21,1.21,0,0,1,0-.5,2.36,2.36,0,0,1,.21-.55,4.2,4.2,0,0,1,.4-.61.86.86,0,0,1,.41-.32,1,1,0,0,1,.54,0,3,3,0,0,1,.73.25l.76.36a5.82,5.82,0,0,0,.81.35,2.41,2.41,0,0,0,.85.15,2,2,0,0,0,1-.2.58.58,0,0,0,.35-.54.59.59,0,0,0-.15-.41,1.09,1.09,0,0,0-.41-.28c-.18-.07-.38-.14-.62-.21l-.75-.2c-.26-.06-.53-.14-.82-.23a7.76,7.76,0,0,1-1.1-.42,3.32,3.32,0,0,1-1-.65,2.91,2.91,0,0,1-.68-1,3.61,3.61,0,0,1-.25-1.44,3.21,3.21,0,0,1,.52-1.88,3.11,3.11,0,0,1,1.53-1.16,6.66,6.66,0,0,1,2.48-.41,7.7,7.7,0,0,1,.83.05,5.53,5.53,0,0,1,.81.16,7.58,7.58,0,0,1,.8.28,7.09,7.09,0,0,1,.78.39c.46.22.7.51.71.87a2.22,2.22,0,0,1-.92,1.69.78.78,0,0,1-.57.13,3.53,3.53,0,0,1-.8-.31,8,8,0,0,0-.89-.4,2.47,2.47,0,0,0-.94-.19A1.82,1.82,0,0,0,224,25a.93.93,0,0,0-.42.27.64.64,0,0,0-.13.4.61.61,0,0,0,.17.47,1.14,1.14,0,0,0,.47.29,4.73,4.73,0,0,0,.69.21l.85.18a11.4,11.4,0,0,1,1.28.32,4.48,4.48,0,0,1,1.19.56,2.79,2.79,0,0,1,.87,1,3.35,3.35,0,0,1,.34,1.63A3.29,3.29,0,0,1,228,33.12,5.81,5.81,0,0,1,224.43,34.09Z"/><path class="cls-2" d="M232.87,38.67a2.3,2.3,0,0,1-1.2-.24,1,1,0,0,1-.44-.62,5.36,5.36,0,0,1-.06-.82V24.13a5.49,5.49,0,0,1,.07-.84,1,1,0,0,1,.43-.63,2.09,2.09,0,0,1,1.18-.25,2.58,2.58,0,0,1,1.14.21,1.19,1.19,0,0,1,.61.64V37a2.83,2.83,0,0,1-.07.83,1,1,0,0,1-.45.63A2.22,2.22,0,0,1,232.87,38.67Zm4.42-5a4.05,4.05,0,0,1-3.4-1.67,5.93,5.93,0,0,1-.85-1.79,8.51,8.51,0,0,1,0-4.33A6,6,0,0,1,234,24.1a4,4,0,0,1,1.4-1.24,4.05,4.05,0,0,1,1.94-.45,4.56,4.56,0,0,1,2,.46A6,6,0,0,1,242.13,26a5.58,5.58,0,0,1,.43,2.18,5.73,5.73,0,0,1-.43,2.18A5.65,5.65,0,0,1,241,32.1a5.44,5.44,0,0,1-1.68,1.18A4.89,4.89,0,0,1,237.29,33.71Zm-.46-3.25a2.13,2.13,0,0,0,1.15-.31,2.28,2.28,0,0,0,.82-.84,2.4,2.4,0,0,0,0-2.34,2.11,2.11,0,0,0-.82-.83,2.21,2.21,0,0,0-1.14-.3,2.11,2.11,0,0,0-1.13.31,2.15,2.15,0,0,0-.81.83,2.35,2.35,0,0,0-.29,1.16,2.32,2.32,0,0,0,.3,1.17,2.39,2.39,0,0,0,.8.84A2.07,2.07,0,0,0,236.83,30.46Z"/><path class="cls-2" d="M253.82,33.9a2.15,2.15,0,0,1-1.26-.3.81.81,0,0,1-.39-.74l.23-.39a2.58,2.58,0,0,1-.53.57,3.67,3.67,0,0,1-1,.59,3.88,3.88,0,0,1-1.53.27,4.69,4.69,0,0,1-2-.46,5.64,5.64,0,0,1-1.69-1.28,6.59,6.59,0,0,1-1.17-1.85,5.69,5.69,0,0,1,0-4.34,6.16,6.16,0,0,1,1.19-1.82,6,6,0,0,1,1.69-1.25,4.61,4.61,0,0,1,2-.46,3.69,3.69,0,0,1,1.45.25,3.79,3.79,0,0,1,1,.56,2.94,2.94,0,0,1,.61.62l-.21-.32a1,1,0,0,1,.41-.84,2.2,2.2,0,0,1,1.27-.29,2.12,2.12,0,0,1,1.19.26,1,1,0,0,1,.43.66,4.18,4.18,0,0,1,.08.88v7.93a4.71,4.71,0,0,1-.08.85,1,1,0,0,1-.44.66A2.27,2.27,0,0,1,253.82,33.9Zm-4-3.43a2,2,0,0,0,1.1-.31,2.36,2.36,0,0,0,.79-.84,2.47,2.47,0,0,0,0-2.36,2.25,2.25,0,0,0-.81-.81,2.13,2.13,0,0,0-1.12-.3,2.27,2.27,0,0,0-2,1.15,2.27,2.27,0,0,0-.31,1.19,2.14,2.14,0,0,0,.3,1.14,2.36,2.36,0,0,0,.86.83A2.29,2.29,0,0,0,249.8,30.47Z"/><path class="cls-2" d="M263.53,34a6.08,6.08,0,0,1-2.06-.38,6.36,6.36,0,0,1-1.93-1.12,5.29,5.29,0,0,1-1.41-1.84,6.23,6.23,0,0,1,0-5,5.51,5.51,0,0,1,1.4-1.82,6.66,6.66,0,0,1,1.92-1.12,6,6,0,0,1,2-.37,5.52,5.52,0,0,1,1.53.19,4.91,4.91,0,0,1,1.15.48,3.47,3.47,0,0,1,.68.48,7.08,7.08,0,0,1,.69.6,1,1,0,0,1,.27.78,1.35,1.35,0,0,1-.16.52,5.84,5.84,0,0,1-.34.54q-.72,1-1.38.87a2.21,2.21,0,0,1-.64-.23l-.55-.32a3.71,3.71,0,0,0-.56-.29,1.67,1.67,0,0,0-.69-.13,2.32,2.32,0,0,0-2,1.14,2.48,2.48,0,0,0,0,2.4,2.23,2.23,0,0,0,.83.84,2.17,2.17,0,0,0,1.16.31,2.36,2.36,0,0,0,.67-.09,2.09,2.09,0,0,0,.5-.22l.32-.19.53-.33a1,1,0,0,1,.51-.15,1.15,1.15,0,0,1,.68.24,3.94,3.94,0,0,1,.74.77,1.81,1.81,0,0,1,.45.9,1.09,1.09,0,0,1-.19.79,2.39,2.39,0,0,1-.79.7,3.67,3.67,0,0,1-.65.42,6.73,6.73,0,0,1-1.15.45A5.15,5.15,0,0,1,263.53,34Z"/><path class="cls-2" d="M271.77,20.78a2.24,2.24,0,0,1-1.24-.26,1,1,0,0,1-.45-.66A5,5,0,0,1,270,19a4.79,4.79,0,0,1,.08-.88,1,1,0,0,1,.46-.65,2.45,2.45,0,0,1,1.26-.24,2.17,2.17,0,0,1,1.21.26,1,1,0,0,1,.45.66,4.31,4.31,0,0,1,.08.9,4.71,4.71,0,0,1-.08.85,1,1,0,0,1-.45.66A2.36,2.36,0,0,1,271.77,20.78Zm0,13.15a2.33,2.33,0,0,1-1.22-.24.93.93,0,0,1-.43-.64,4.61,4.61,0,0,1-.07-.84v-8a4.6,4.6,0,0,1,.08-.84,1,1,0,0,1,.45-.64,2.33,2.33,0,0,1,1.22-.24,2.13,2.13,0,0,1,1.19.25,1,1,0,0,1,.43.66,3.87,3.87,0,0,1,.08.86v8a4.6,4.6,0,0,1-.08.84,1,1,0,0,1-.44.63A2.28,2.28,0,0,1,271.76,33.93Z"/><path class="cls-2" d="M281.47,34.12a5.83,5.83,0,0,1-2.15-.42,6.7,6.7,0,0,1-1.95-1.21A5.94,5.94,0,0,1,276,30.61a5.64,5.64,0,0,1-.51-2.42,5.8,5.8,0,0,1,.47-2.32,6.31,6.31,0,0,1,1.3-1.89,6.18,6.18,0,0,1,1.9-1.3,5.69,5.69,0,0,1,2.29-.47,5.9,5.9,0,0,1,3,.79,6,6,0,0,1,2.15,2.16,6.15,6.15,0,0,1,.28,5.51,5.83,5.83,0,0,1-1.38,1.87,6,6,0,0,1-1.91,1.18A5.79,5.79,0,0,1,281.47,34.12Zm-.05-3.47a2.51,2.51,0,0,0,1.13-.28,2.46,2.46,0,0,0,1-.82,2.38,2.38,0,0,0,.39-1.4,2.54,2.54,0,0,0-.32-1.29,2.32,2.32,0,0,0-.89-.87,2.71,2.71,0,0,0-1.3-.31,2.4,2.4,0,0,0-1.23.32,2.61,2.61,0,0,0-.83,3.56,2.39,2.39,0,0,0,1,.83A2.76,2.76,0,0,0,281.42,30.65Z"/><path class="cls-3" d="M79.6,33.82a2.21,2.21,0,0,1-1.22-.26,1,1,0,0,1-.45-.66,4.8,4.8,0,0,1-.08-.85V19.49a3.86,3.86,0,0,1,.09-.84,1.13,1.13,0,0,1,.46-.66,2.25,2.25,0,0,1,1.22-.25h4.72a5.84,5.84,0,0,1,1.93.35,5.67,5.67,0,0,1,1.83,1.07,5.45,5.45,0,0,1,1.35,1.78A5.57,5.57,0,0,1,90,23.43a5.32,5.32,0,0,1-1.88,4.23,5.83,5.83,0,0,1-1.83,1.06,5.89,5.89,0,0,1-2,.34H81.38v3a3.86,3.86,0,0,1-.09.84,1.05,1.05,0,0,1-.46.66A2.29,2.29,0,0,1,79.6,33.82Zm1.78-8.26h3a2.53,2.53,0,0,0,1-.21,2,2,0,0,0,.83-.7,2.12,2.12,0,0,0,.34-1.25,2.15,2.15,0,0,0-.29-1.12,2,2,0,0,0-.77-.76,2.18,2.18,0,0,0-1.13-.28H81.38Z"/><path class="cls-3" d="M93.65,33.83a2.12,2.12,0,0,1-1.2-.25,1,1,0,0,1-.44-.65,4.8,4.8,0,0,1-.08-.85v-8A3.76,3.76,0,0,1,92,23.2a1,1,0,0,1,.44-.63,2.35,2.35,0,0,1,1.22-.24,2.3,2.3,0,0,1,1.17.22.94.94,0,0,1,.44.5,1.43,1.43,0,0,1,.09.5l-.27.13a2.36,2.36,0,0,1,.24-.33,3,3,0,0,1,.54-.5,3,3,0,0,1,.84-.45,3.1,3.1,0,0,1,1.14-.19c.17,0,.36,0,.56,0a3.3,3.3,0,0,1,.65.14,3.05,3.05,0,0,1,.61.27,1.51,1.51,0,0,1,.44.43,1.05,1.05,0,0,1,.18.62,2.84,2.84,0,0,1-.44,1.6,1.28,1.28,0,0,1-1.11.65,2.26,2.26,0,0,1-.55-.05,1.26,1.26,0,0,1-.26-.14,1,1,0,0,0-.24-.14,1.48,1.48,0,0,0-.51-.06,2.27,2.27,0,0,0-.65.09A1.86,1.86,0,0,0,96,26a1.35,1.35,0,0,0-.41.48,1.4,1.4,0,0,0-.15.66v5a3.86,3.86,0,0,1-.08.84,1,1,0,0,1-.45.63A2.43,2.43,0,0,1,93.65,33.83Z"/><path class="cls-3" d="M107.82,34a6.68,6.68,0,0,1-2.77-.53,5.45,5.45,0,0,1-1.9-1.39,6.14,6.14,0,0,1-1.1-1.92,6.57,6.57,0,0,1-.37-2.12,6,6,0,0,1,.79-3.06,5.55,5.55,0,0,1,2.17-2.1,6.52,6.52,0,0,1,3.19-.77,5.64,5.64,0,0,1,2.31.43,4.74,4.74,0,0,1,1.61,1.1,4.84,4.84,0,0,1,.94,1.46,4,4,0,0,1,.31,1.5,2.56,2.56,0,0,1-.61,1.88,2.07,2.07,0,0,1-1.55.63h-5.48a1.63,1.63,0,0,0,.43,1,2.46,2.46,0,0,0,.95.64A3.16,3.16,0,0,0,108,31a7.06,7.06,0,0,0,1-.06,3.88,3.88,0,0,0,.72-.16l.54-.21.45-.17a1.55,1.55,0,0,1,.39-.09.91.91,0,0,1,.62.19,1.9,1.9,0,0,1,.53.66,1.68,1.68,0,0,1,.22.48,1.88,1.88,0,0,1,.06.46,1.22,1.22,0,0,1-.57,1,4.22,4.22,0,0,1-1.59.68A10.33,10.33,0,0,1,107.82,34Zm-2.46-6.81H109a1,1,0,0,0,.53-.12.58.58,0,0,0,.18-.5,1.12,1.12,0,0,0-.25-.71,1.64,1.64,0,0,0-.68-.49,2.55,2.55,0,0,0-1-.18,2.66,2.66,0,0,0-1.24.28,2.14,2.14,0,0,0-.86.73A1.74,1.74,0,0,0,105.36,27.23Z"/><path class="cls-3" d="M116.51,38.6a2.23,2.23,0,0,1-1.19-.24.93.93,0,0,1-.44-.62,4.32,4.32,0,0,1-.07-.82V24.06a4.46,4.46,0,0,1,.07-.84,1,1,0,0,1,.42-.63,2.13,2.13,0,0,1,1.19-.25,2.64,2.64,0,0,1,1.14.21,1.27,1.27,0,0,1,.61.64V36.9a3.21,3.21,0,0,1-.07.83,1,1,0,0,1-.45.63A2.27,2.27,0,0,1,116.51,38.6Zm4.42-5a4.19,4.19,0,0,1-2-.45A4.24,4.24,0,0,1,117.54,32a5.49,5.49,0,0,1-.85-1.79,7.29,7.29,0,0,1-.26-2.18,7.6,7.6,0,0,1,.3-2.15,6,6,0,0,1,.86-1.82,3.93,3.93,0,0,1,3.35-1.69,4.56,4.56,0,0,1,2,.46,6,6,0,0,1,1.69,1.26,6.22,6.22,0,0,1,1.17,1.83,5.75,5.75,0,0,1,.42,2.18,5.54,5.54,0,0,1-.43,2.18A5.65,5.65,0,0,1,124.61,32a5.44,5.44,0,0,1-1.68,1.18A4.86,4.86,0,0,1,120.93,33.64Zm-.46-3.25a2.11,2.11,0,0,0,1.15-.31,2.28,2.28,0,0,0,.82-.84,2.23,2.23,0,0,0,.31-1.17,2.32,2.32,0,0,0-.3-1.17,2.23,2.23,0,0,0-.81-.83,2.26,2.26,0,0,0-1.14-.3,2.17,2.17,0,0,0-1.14.31,2.22,2.22,0,0,0-.81.83,2.34,2.34,0,0,0-.28,1.16,2.42,2.42,0,0,0,.29,1.17,2.33,2.33,0,0,0,.81.84A2,2,0,0,0,120.47,30.39Z"/><path class="cls-3" d="M137.47,33.83a2.18,2.18,0,0,1-1.27-.3.85.85,0,0,1-.39-.74l.23-.39a2.58,2.58,0,0,1-.53.57,3.75,3.75,0,0,1-1,.59,3.88,3.88,0,0,1-1.53.27,4.63,4.63,0,0,1-2-.46,5.52,5.52,0,0,1-1.69-1.28,6.59,6.59,0,0,1-1.17-1.85,5.57,5.57,0,0,1,0-4.34,6.33,6.33,0,0,1,1.18-1.82,6.07,6.07,0,0,1,1.7-1.25,4.55,4.55,0,0,1,2-.46,3.73,3.73,0,0,1,1.45.25,4,4,0,0,1,1,.56,3.11,3.11,0,0,1,.6.62l-.2-.32a1,1,0,0,1,.4-.84,2.24,2.24,0,0,1,1.28-.29,2.08,2.08,0,0,1,1.18.26,1.06,1.06,0,0,1,.44.66,5,5,0,0,1,.08.88v7.93a4,4,0,0,1-.08.85,1,1,0,0,1-.43.66A2.27,2.27,0,0,1,137.47,33.83Zm-4-3.43a2,2,0,0,0,1.11-.31,2.42,2.42,0,0,0,.78-.84,2.47,2.47,0,0,0,0-2.36,2.22,2.22,0,0,0-.8-.81,2.3,2.3,0,0,0-2.29,0,2.23,2.23,0,0,0-.83.84,2.27,2.27,0,0,0-.31,1.19,2.12,2.12,0,0,0,.31,1.14,2.36,2.36,0,0,0,2,1.14Z"/><path class="cls-3" d="M143.22,33.86a2.25,2.25,0,0,1-1.21-.25,1,1,0,0,1-.44-.65,4.8,4.8,0,0,1-.08-.85v-8a4.46,4.46,0,0,1,.08-.85,1,1,0,0,1,.45-.63,3.19,3.19,0,0,1,2.38,0,.93.93,0,0,1,.45.5,1.71,1.71,0,0,1,.09.5l-.28.13a2.36,2.36,0,0,1,.24-.33,3,3,0,0,1,.54-.5,3.35,3.35,0,0,1,.84-.45,3.1,3.1,0,0,1,1.14-.19c.17,0,.36,0,.57,0a3.21,3.21,0,0,1,.64.14,2.82,2.82,0,0,1,.61.27,1.68,1.68,0,0,1,.45.43,1.1,1.1,0,0,1,.17.62,2.84,2.84,0,0,1-.44,1.6,1.3,1.3,0,0,1-1.1.65,2.2,2.2,0,0,1-.55,0,1.13,1.13,0,0,1-.27-.14,1,1,0,0,0-.24-.14,1.44,1.44,0,0,0-.51-.06,2.32,2.32,0,0,0-.65.09,1.86,1.86,0,0,0-.58.29,1.46,1.46,0,0,0-.41.48,1.4,1.4,0,0,0-.15.66v5a4.44,4.44,0,0,1-.08.84,1,1,0,0,1-.45.64A2.48,2.48,0,0,1,143.22,33.86Z"/><path class="cls-3" d="M161.07,33.84a2.18,2.18,0,0,1-1.27-.3.79.79,0,0,1-.39-.73l.23-.39a2.57,2.57,0,0,1-.53.56,3.79,3.79,0,0,1-2.55.86,4.49,4.49,0,0,1-2-.46,5.37,5.37,0,0,1-1.69-1.28,6.48,6.48,0,0,1-1.18-1.85,5.59,5.59,0,0,1-.43-2.19,5.22,5.22,0,0,1,.44-2.14,6,6,0,0,1,1.18-1.82,5.67,5.67,0,0,1,1.69-1.25,4.48,4.48,0,0,1,2-.46,3.89,3.89,0,0,1,1.45.24,4.09,4.09,0,0,1,1,.56,3.5,3.5,0,0,1,.61.62l-.2-.32a1,1,0,0,1,.4-.84,2.25,2.25,0,0,1,1.28-.28,2.09,2.09,0,0,1,1.18.25,1.06,1.06,0,0,1,.44.67,4.85,4.85,0,0,1,.08.87V32.1a4.8,4.8,0,0,1-.08.85,1,1,0,0,1-.44.65A2.22,2.22,0,0,1,161.07,33.84Zm-4-3.43a2,2,0,0,0,1.11-.31,2.31,2.31,0,0,0,.78-.83,2.38,2.38,0,0,0,.3-1.18,2.3,2.3,0,0,0-.3-1.18,2.25,2.25,0,0,0-.8-.82,2.2,2.2,0,0,0-1.13-.3,2.17,2.17,0,0,0-1.16.31,2.38,2.38,0,0,0-.83.84,2.28,2.28,0,0,0-.31,1.2,2.11,2.11,0,0,0,.31,1.13,2.19,2.19,0,0,0,.85.83A2.29,2.29,0,0,0,157,30.41Z"/><path class="cls-3" d="M166.82,33.87a2.27,2.27,0,0,1-1.21-.24,1,1,0,0,1-.44-.66,4.71,4.71,0,0,1-.08-.85v-8a3.84,3.84,0,0,1,.08-.85,1,1,0,0,1,.45-.63,3.19,3.19,0,0,1,2.38,0,1,1,0,0,1,.44.51,1.42,1.42,0,0,1,.1.49l-.28.14a2.36,2.36,0,0,1,.24-.33,3,3,0,0,1,.54-.51,3,3,0,0,1,.84-.45,3.33,3.33,0,0,1,1.14-.18l.56,0a4,4,0,0,1,.65.14,2.6,2.6,0,0,1,.61.28,1.51,1.51,0,0,1,.45.42,1.13,1.13,0,0,1,.17.62,2.81,2.81,0,0,1-.44,1.6,1.29,1.29,0,0,1-1.1.66,1.84,1.84,0,0,1-.56-.06,1.26,1.26,0,0,1-.26-.14,1.38,1.38,0,0,0-.24-.14,1.83,1.83,0,0,0-.51-.05,2.27,2.27,0,0,0-.65.09,1.83,1.83,0,0,0-.58.28,1.4,1.4,0,0,0-.56,1.14v5a3.86,3.86,0,0,1-.08.84.9.9,0,0,1-.45.63A2.41,2.41,0,0,1,166.82,33.87Z"/><path class="cls-3" d="M187,34.09a6.73,6.73,0,0,1-2.78-.53,5.41,5.41,0,0,1-1.89-1.39,6.17,6.17,0,0,1-1.11-1.92,6.6,6.6,0,0,1-.36-2.12,6,6,0,0,1,.78-3.06,5.58,5.58,0,0,1,2.18-2.1A6.37,6.37,0,0,1,187,22.2a5.64,5.64,0,0,1,2.31.43,4.71,4.71,0,0,1,2.56,2.56,4.17,4.17,0,0,1,.3,1.5,2.56,2.56,0,0,1-.61,1.88,2,2,0,0,1-1.55.62h-5.47a1.64,1.64,0,0,0,.42,1,2.53,2.53,0,0,0,1,.64,3.12,3.12,0,0,0,1.22.23,9,9,0,0,0,1-.05,4.62,4.62,0,0,0,.72-.16l.55-.21a4.31,4.31,0,0,1,.44-.17,1.55,1.55,0,0,1,.39-.09.94.94,0,0,1,.63.19,2,2,0,0,1,.52.66,1.68,1.68,0,0,1,.22.48,1.82,1.82,0,0,1,.06.46,1.24,1.24,0,0,1-.56,1,4.55,4.55,0,0,1-1.59.68A10.38,10.38,0,0,1,187,34.09Zm-2.46-6.81h3.63a1,1,0,0,0,.53-.12.58.58,0,0,0,.19-.5,1.11,1.11,0,0,0-.26-.71,1.62,1.62,0,0,0-.67-.5,2.81,2.81,0,0,0-1-.17,2.66,2.66,0,0,0-1.24.28,2.13,2.13,0,0,0-.86.73A1.73,1.73,0,0,0,184.53,27.28Z"/><path class="cls-3" d="M198.51,33.89a14,14,0,0,1-1.68-.09,3.7,3.7,0,0,1-1.24-.37,2.27,2.27,0,0,1-.83-.77,3.62,3.62,0,0,1-.48-1.27,9.22,9.22,0,0,1-.16-1.9V18.87a3.74,3.74,0,0,1,.1-.85,1.08,1.08,0,0,1,.45-.65,2.12,2.12,0,0,1,1.2-.25,2.19,2.19,0,0,1,1.19.25,1.08,1.08,0,0,1,.45.65,3.76,3.76,0,0,1,.09.85V29.33a3.44,3.44,0,0,0,0,.61.74.74,0,0,0,.13.38.48.48,0,0,0,.29.19,2.09,2.09,0,0,0,.48,0,2.78,2.78,0,0,1,.57.07.85.85,0,0,1,.49.42,2.32,2.32,0,0,1,.21,1.15,2.5,2.5,0,0,1-.21,1.19.82.82,0,0,1-.49.44A2.38,2.38,0,0,1,198.51,33.89Z"/><path class="cls-3" d="M213.18,34.11a6.52,6.52,0,0,1-2.77-.54,5.33,5.33,0,0,1-1.9-1.39,5.93,5.93,0,0,1-1.1-1.92,6.51,6.51,0,0,1-.37-2.11,6,6,0,0,1,.79-3.06A5.71,5.71,0,0,1,210,23a6.52,6.52,0,0,1,3.19-.77,5.81,5.81,0,0,1,2.31.43,4.76,4.76,0,0,1,1.61,1.11,4.55,4.55,0,0,1,.94,1.46,4,4,0,0,1,.31,1.49,2.59,2.59,0,0,1-.61,1.89,2.09,2.09,0,0,1-1.55.62h-5.48a1.6,1.6,0,0,0,.43,1,2.48,2.48,0,0,0,.95.65,3.35,3.35,0,0,0,1.22.23,7.06,7.06,0,0,0,1-.06,3.88,3.88,0,0,0,.72-.16l.54-.2.45-.18.39-.09a.92.92,0,0,1,.62.2,1.77,1.77,0,0,1,.53.65,1.62,1.62,0,0,1,.22.49,1.76,1.76,0,0,1,.06.46,1.24,1.24,0,0,1-.57,1,4.24,4.24,0,0,1-1.58.67A10.43,10.43,0,0,1,213.18,34.11Zm-2.45-6.81h3.63a.88.88,0,0,0,.53-.13.56.56,0,0,0,.18-.49,1.15,1.15,0,0,0-.25-.72,1.57,1.57,0,0,0-.68-.49,2.56,2.56,0,0,0-1-.17,2.79,2.79,0,0,0-1.24.27,2.16,2.16,0,0,0-.86.74A1.68,1.68,0,0,0,210.73,27.3Z"/><path class="cls-3" d="M224.43,34.09a7.57,7.57,0,0,1-1.36-.14,8.16,8.16,0,0,1-1.41-.4,5.16,5.16,0,0,1-1.15-.62,1.18,1.18,0,0,1-.52-.82,1.21,1.21,0,0,1,0-.5,2.36,2.36,0,0,1,.21-.55,4.2,4.2,0,0,1,.4-.61.86.86,0,0,1,.41-.32,1,1,0,0,1,.54,0,3,3,0,0,1,.73.25l.76.36a5.82,5.82,0,0,0,.81.35,2.41,2.41,0,0,0,.85.15,2,2,0,0,0,1-.2.58.58,0,0,0,.35-.54.59.59,0,0,0-.15-.41,1.09,1.09,0,0,0-.41-.28c-.18-.07-.38-.14-.62-.21l-.75-.2c-.26-.06-.53-.14-.82-.23a7.76,7.76,0,0,1-1.1-.42,3.32,3.32,0,0,1-1-.65,2.91,2.91,0,0,1-.68-1,3.61,3.61,0,0,1-.25-1.44,3.21,3.21,0,0,1,.52-1.88,3.11,3.11,0,0,1,1.53-1.16,6.66,6.66,0,0,1,2.48-.41,7.7,7.7,0,0,1,.83.05,5.53,5.53,0,0,1,.81.16,7.58,7.58,0,0,1,.8.28,7.09,7.09,0,0,1,.78.39c.46.22.7.51.71.87a2.22,2.22,0,0,1-.92,1.69.78.78,0,0,1-.57.13,3.53,3.53,0,0,1-.8-.31,8,8,0,0,0-.89-.4,2.47,2.47,0,0,0-.94-.19A1.82,1.82,0,0,0,224,25a.93.93,0,0,0-.42.27.64.64,0,0,0-.13.4.61.61,0,0,0,.17.47,1.14,1.14,0,0,0,.47.29,4.73,4.73,0,0,0,.69.21l.85.18a11.4,11.4,0,0,1,1.28.32,4.48,4.48,0,0,1,1.19.56,2.79,2.79,0,0,1,.87,1,3.35,3.35,0,0,1,.34,1.63A3.29,3.29,0,0,1,228,33.12,5.81,5.81,0,0,1,224.43,34.09Z"/><path class="cls-3" d="M232.87,38.67a2.3,2.3,0,0,1-1.2-.24,1,1,0,0,1-.44-.62,5.36,5.36,0,0,1-.06-.82V24.13a5.49,5.49,0,0,1,.07-.84,1,1,0,0,1,.43-.63,2.09,2.09,0,0,1,1.18-.25,2.58,2.58,0,0,1,1.14.21,1.19,1.19,0,0,1,.61.64V37a2.83,2.83,0,0,1-.07.83,1,1,0,0,1-.45.63A2.22,2.22,0,0,1,232.87,38.67Zm4.42-5a4.05,4.05,0,0,1-3.4-1.67,5.93,5.93,0,0,1-.85-1.79,8.51,8.51,0,0,1,0-4.33A6,6,0,0,1,234,24.1a4,4,0,0,1,1.4-1.24,4.05,4.05,0,0,1,1.94-.45,4.56,4.56,0,0,1,2,.46A6,6,0,0,1,242.13,26a5.58,5.58,0,0,1,.43,2.18,5.73,5.73,0,0,1-.43,2.18A5.65,5.65,0,0,1,241,32.1a5.44,5.44,0,0,1-1.68,1.18A4.89,4.89,0,0,1,237.29,33.71Zm-.46-3.25a2.13,2.13,0,0,0,1.15-.31,2.28,2.28,0,0,0,.82-.84,2.4,2.4,0,0,0,0-2.34,2.11,2.11,0,0,0-.82-.83,2.21,2.21,0,0,0-1.14-.3,2.11,2.11,0,0,0-1.13.31,2.15,2.15,0,0,0-.81.83,2.35,2.35,0,0,0-.29,1.16,2.32,2.32,0,0,0,.3,1.17,2.39,2.39,0,0,0,.8.84A2.07,2.07,0,0,0,236.83,30.46Z"/><path class="cls-3" d="M253.82,33.9a2.15,2.15,0,0,1-1.26-.3.81.81,0,0,1-.39-.74l.23-.39a2.58,2.58,0,0,1-.53.57,3.67,3.67,0,0,1-1,.59,3.88,3.88,0,0,1-1.53.27,4.69,4.69,0,0,1-2-.46,5.64,5.64,0,0,1-1.69-1.28,6.59,6.59,0,0,1-1.17-1.85,5.69,5.69,0,0,1,0-4.34,6.16,6.16,0,0,1,1.19-1.82,6,6,0,0,1,1.69-1.25,4.61,4.61,0,0,1,2-.46,3.69,3.69,0,0,1,1.45.25,3.79,3.79,0,0,1,1,.56,2.94,2.94,0,0,1,.61.62l-.21-.32a1,1,0,0,1,.41-.84,2.2,2.2,0,0,1,1.27-.29,2.12,2.12,0,0,1,1.19.26,1,1,0,0,1,.43.66,4.18,4.18,0,0,1,.08.88v7.93a4.71,4.71,0,0,1-.08.85,1,1,0,0,1-.44.66A2.27,2.27,0,0,1,253.82,33.9Zm-4-3.43a2,2,0,0,0,1.1-.31,2.36,2.36,0,0,0,.79-.84,2.47,2.47,0,0,0,0-2.36,2.25,2.25,0,0,0-.81-.81,2.13,2.13,0,0,0-1.12-.3,2.27,2.27,0,0,0-2,1.15,2.27,2.27,0,0,0-.31,1.19,2.14,2.14,0,0,0,.3,1.14,2.36,2.36,0,0,0,.86.83A2.29,2.29,0,0,0,249.8,30.47Z"/><path class="cls-3" d="M263.53,34a6.08,6.08,0,0,1-2.06-.38,6.36,6.36,0,0,1-1.93-1.12,5.29,5.29,0,0,1-1.41-1.84,6.23,6.23,0,0,1,0-5,5.51,5.51,0,0,1,1.4-1.82,6.66,6.66,0,0,1,1.92-1.12,6,6,0,0,1,2-.37,5.52,5.52,0,0,1,1.53.19,4.91,4.91,0,0,1,1.15.48,3.47,3.47,0,0,1,.68.48,7.08,7.08,0,0,1,.69.6,1,1,0,0,1,.27.78,1.35,1.35,0,0,1-.16.52,5.84,5.84,0,0,1-.34.54q-.72,1-1.38.87a2.21,2.21,0,0,1-.64-.23l-.55-.32a3.71,3.71,0,0,0-.56-.29,1.67,1.67,0,0,0-.69-.13,2.32,2.32,0,0,0-2,1.14,2.48,2.48,0,0,0,0,2.4,2.23,2.23,0,0,0,.83.84,2.17,2.17,0,0,0,1.16.31,2.36,2.36,0,0,0,.67-.09,2.09,2.09,0,0,0,.5-.22l.32-.19.53-.33a1,1,0,0,1,.51-.15,1.15,1.15,0,0,1,.68.24,3.94,3.94,0,0,1,.74.77,1.81,1.81,0,0,1,.45.9,1.09,1.09,0,0,1-.19.79,2.39,2.39,0,0,1-.79.7,3.67,3.67,0,0,1-.65.42,6.73,6.73,0,0,1-1.15.45A5.15,5.15,0,0,1,263.53,34Z"/><path class="cls-3" d="M271.77,20.78a2.24,2.24,0,0,1-1.24-.26,1,1,0,0,1-.45-.66A5,5,0,0,1,270,19a4.79,4.79,0,0,1,.08-.88,1,1,0,0,1,.46-.65,2.45,2.45,0,0,1,1.26-.24,2.17,2.17,0,0,1,1.21.26,1,1,0,0,1,.45.66,4.31,4.31,0,0,1,.08.9,4.71,4.71,0,0,1-.08.85,1,1,0,0,1-.45.66A2.36,2.36,0,0,1,271.77,20.78Zm0,13.15a2.33,2.33,0,0,1-1.22-.24.93.93,0,0,1-.43-.64,4.61,4.61,0,0,1-.07-.84v-8a4.6,4.6,0,0,1,.08-.84,1,1,0,0,1,.45-.64,2.33,2.33,0,0,1,1.22-.24,2.13,2.13,0,0,1,1.19.25,1,1,0,0,1,.43.66,3.87,3.87,0,0,1,.08.86v8a4.6,4.6,0,0,1-.08.84,1,1,0,0,1-.44.63A2.28,2.28,0,0,1,271.76,33.93Z"/><path class="cls-3" d="M281.47,34.12a5.83,5.83,0,0,1-2.15-.42,6.7,6.7,0,0,1-1.95-1.21A5.94,5.94,0,0,1,276,30.61a5.64,5.64,0,0,1-.51-2.42,5.8,5.8,0,0,1,.47-2.32,6.31,6.31,0,0,1,1.3-1.89,6.18,6.18,0,0,1,1.9-1.3,5.69,5.69,0,0,1,2.29-.47,5.9,5.9,0,0,1,3,.79,6,6,0,0,1,2.15,2.16,6.15,6.15,0,0,1,.28,5.51,5.83,5.83,0,0,1-1.38,1.87,6,6,0,0,1-1.91,1.18A5.79,5.79,0,0,1,281.47,34.12Zm-.05-3.47a2.51,2.51,0,0,0,1.13-.28,2.46,2.46,0,0,0,1-.82,2.38,2.38,0,0,0,.39-1.4,2.54,2.54,0,0,0-.32-1.29,2.32,2.32,0,0,0-.89-.87,2.71,2.71,0,0,0-1.3-.31,2.4,2.4,0,0,0-1.23.32,2.61,2.61,0,0,0-.83,3.56,2.39,2.39,0,0,0,1,.83A2.76,2.76,0,0,0,281.42,30.65Z"/><path class="cls-2" d="M79.6,33.82a2.21,2.21,0,0,1-1.22-.26,1,1,0,0,1-.45-.66,4.8,4.8,0,0,1-.08-.85V19.49a3.86,3.86,0,0,1,.09-.84,1.13,1.13,0,0,1,.46-.66,2.25,2.25,0,0,1,1.22-.25h4.72a5.84,5.84,0,0,1,1.93.35,5.67,5.67,0,0,1,1.83,1.07,5.45,5.45,0,0,1,1.35,1.78A5.57,5.57,0,0,1,90,23.43a5.32,5.32,0,0,1-1.88,4.23,5.83,5.83,0,0,1-1.83,1.06,5.89,5.89,0,0,1-2,.34H81.38v3a3.86,3.86,0,0,1-.09.84,1.05,1.05,0,0,1-.46.66A2.29,2.29,0,0,1,79.6,33.82Zm1.78-8.26h3a2.53,2.53,0,0,0,1-.21,2,2,0,0,0,.83-.7,2.12,2.12,0,0,0,.34-1.25,2.15,2.15,0,0,0-.29-1.12,2,2,0,0,0-.77-.76,2.18,2.18,0,0,0-1.13-.28H81.38Z"/><path class="cls-2" d="M93.65,33.83a2.12,2.12,0,0,1-1.2-.25,1,1,0,0,1-.44-.65,4.8,4.8,0,0,1-.08-.85v-8A3.76,3.76,0,0,1,92,23.2a1,1,0,0,1,.44-.63,2.35,2.35,0,0,1,1.22-.24,2.3,2.3,0,0,1,1.17.22.94.94,0,0,1,.44.5,1.43,1.43,0,0,1,.09.5l-.27.13a2.36,2.36,0,0,1,.24-.33,3,3,0,0,1,.54-.5,3,3,0,0,1,.84-.45,3.1,3.1,0,0,1,1.14-.19c.17,0,.36,0,.56,0a3.3,3.3,0,0,1,.65.14,3.05,3.05,0,0,1,.61.27,1.51,1.51,0,0,1,.44.43,1.05,1.05,0,0,1,.18.62,2.84,2.84,0,0,1-.44,1.6,1.28,1.28,0,0,1-1.11.65,2.26,2.26,0,0,1-.55-.05,1.26,1.26,0,0,1-.26-.14,1,1,0,0,0-.24-.14,1.48,1.48,0,0,0-.51-.06,2.27,2.27,0,0,0-.65.09A1.86,1.86,0,0,0,96,26a1.35,1.35,0,0,0-.41.48,1.4,1.4,0,0,0-.15.66v5a3.86,3.86,0,0,1-.08.84,1,1,0,0,1-.45.63A2.43,2.43,0,0,1,93.65,33.83Z"/><path class="cls-2" d="M107.82,34a6.68,6.68,0,0,1-2.77-.53,5.45,5.45,0,0,1-1.9-1.39,6.14,6.14,0,0,1-1.1-1.92,6.57,6.57,0,0,1-.37-2.12,6,6,0,0,1,.79-3.06,5.55,5.55,0,0,1,2.17-2.1,6.52,6.52,0,0,1,3.19-.77,5.64,5.64,0,0,1,2.31.43,4.74,4.74,0,0,1,1.61,1.1,4.84,4.84,0,0,1,.94,1.46,4,4,0,0,1,.31,1.5,2.56,2.56,0,0,1-.61,1.88,2.07,2.07,0,0,1-1.55.63h-5.48a1.63,1.63,0,0,0,.43,1,2.46,2.46,0,0,0,.95.64A3.16,3.16,0,0,0,108,31a7.06,7.06,0,0,0,1-.06,3.88,3.88,0,0,0,.72-.16l.54-.21.45-.17a1.55,1.55,0,0,1,.39-.09.91.91,0,0,1,.62.19,1.9,1.9,0,0,1,.53.66,1.68,1.68,0,0,1,.22.48,1.88,1.88,0,0,1,.06.46,1.22,1.22,0,0,1-.57,1,4.22,4.22,0,0,1-1.59.68A10.33,10.33,0,0,1,107.82,34Zm-2.46-6.81H109a1,1,0,0,0,.53-.12.58.58,0,0,0,.18-.5,1.12,1.12,0,0,0-.25-.71,1.64,1.64,0,0,0-.68-.49,2.55,2.55,0,0,0-1-.18,2.66,2.66,0,0,0-1.24.28,2.14,2.14,0,0,0-.86.73A1.74,1.74,0,0,0,105.36,27.23Z"/><path class="cls-2" d="M116.51,38.6a2.23,2.23,0,0,1-1.19-.24.93.93,0,0,1-.44-.62,4.32,4.32,0,0,1-.07-.82V24.06a4.46,4.46,0,0,1,.07-.84,1,1,0,0,1,.42-.63,2.13,2.13,0,0,1,1.19-.25,2.64,2.64,0,0,1,1.14.21,1.27,1.27,0,0,1,.61.64V36.9a3.21,3.21,0,0,1-.07.83,1,1,0,0,1-.45.63A2.27,2.27,0,0,1,116.51,38.6Zm4.42-5a4.19,4.19,0,0,1-2-.45A4.24,4.24,0,0,1,117.54,32a5.49,5.49,0,0,1-.85-1.79,7.29,7.29,0,0,1-.26-2.18,7.6,7.6,0,0,1,.3-2.15,6,6,0,0,1,.86-1.82,3.93,3.93,0,0,1,3.35-1.69,4.56,4.56,0,0,1,2,.46,6,6,0,0,1,1.69,1.26,6.22,6.22,0,0,1,1.17,1.83,5.75,5.75,0,0,1,.42,2.18,5.54,5.54,0,0,1-.43,2.18A5.65,5.65,0,0,1,124.61,32a5.44,5.44,0,0,1-1.68,1.18A4.86,4.86,0,0,1,120.93,33.64Zm-.46-3.25a2.11,2.11,0,0,0,1.15-.31,2.28,2.28,0,0,0,.82-.84,2.23,2.23,0,0,0,.31-1.17,2.32,2.32,0,0,0-.3-1.17,2.23,2.23,0,0,0-.81-.83,2.26,2.26,0,0,0-1.14-.3,2.17,2.17,0,0,0-1.14.31,2.22,2.22,0,0,0-.81.83,2.34,2.34,0,0,0-.28,1.16,2.42,2.42,0,0,0,.29,1.17,2.33,2.33,0,0,0,.81.84A2,2,0,0,0,120.47,30.39Z"/><path class="cls-2" d="M137.47,33.83a2.18,2.18,0,0,1-1.27-.3.85.85,0,0,1-.39-.74l.23-.39a2.58,2.58,0,0,1-.53.57,3.75,3.75,0,0,1-1,.59,3.88,3.88,0,0,1-1.53.27,4.63,4.63,0,0,1-2-.46,5.52,5.52,0,0,1-1.69-1.28,6.59,6.59,0,0,1-1.17-1.85,5.57,5.57,0,0,1,0-4.34,6.33,6.33,0,0,1,1.18-1.82,6.07,6.07,0,0,1,1.7-1.25,4.55,4.55,0,0,1,2-.46,3.73,3.73,0,0,1,1.45.25,4,4,0,0,1,1,.56,3.11,3.11,0,0,1,.6.62l-.2-.32a1,1,0,0,1,.4-.84,2.24,2.24,0,0,1,1.28-.29,2.08,2.08,0,0,1,1.18.26,1.06,1.06,0,0,1,.44.66,5,5,0,0,1,.08.88v7.93a4,4,0,0,1-.08.85,1,1,0,0,1-.43.66A2.27,2.27,0,0,1,137.47,33.83Zm-4-3.43a2,2,0,0,0,1.11-.31,2.42,2.42,0,0,0,.78-.84,2.47,2.47,0,0,0,0-2.36,2.22,2.22,0,0,0-.8-.81,2.3,2.3,0,0,0-2.29,0,2.23,2.23,0,0,0-.83.84,2.27,2.27,0,0,0-.31,1.19,2.12,2.12,0,0,0,.31,1.14,2.36,2.36,0,0,0,2,1.14Z"/><path class="cls-2" d="M143.22,33.86a2.25,2.25,0,0,1-1.21-.25,1,1,0,0,1-.44-.65,4.8,4.8,0,0,1-.08-.85v-8a4.46,4.46,0,0,1,.08-.85,1,1,0,0,1,.45-.63,3.19,3.19,0,0,1,2.38,0,.93.93,0,0,1,.45.5,1.71,1.71,0,0,1,.09.5l-.28.13a2.36,2.36,0,0,1,.24-.33,3,3,0,0,1,.54-.5,3.35,3.35,0,0,1,.84-.45,3.1,3.1,0,0,1,1.14-.19c.17,0,.36,0,.57,0a3.21,3.21,0,0,1,.64.14,2.82,2.82,0,0,1,.61.27,1.68,1.68,0,0,1,.45.43,1.1,1.1,0,0,1,.17.62,2.84,2.84,0,0,1-.44,1.6,1.3,1.3,0,0,1-1.1.65,2.2,2.2,0,0,1-.55,0,1.13,1.13,0,0,1-.27-.14,1,1,0,0,0-.24-.14,1.44,1.44,0,0,0-.51-.06,2.32,2.32,0,0,0-.65.09,1.86,1.86,0,0,0-.58.29,1.46,1.46,0,0,0-.41.48,1.4,1.4,0,0,0-.15.66v5a4.44,4.44,0,0,1-.08.84,1,1,0,0,1-.45.64A2.48,2.48,0,0,1,143.22,33.86Z"/><path class="cls-2" d="M161.07,33.84a2.18,2.18,0,0,1-1.27-.3.79.79,0,0,1-.39-.73l.23-.39a2.57,2.57,0,0,1-.53.56,3.79,3.79,0,0,1-2.55.86,4.49,4.49,0,0,1-2-.46,5.37,5.37,0,0,1-1.69-1.28,6.48,6.48,0,0,1-1.18-1.85,5.59,5.59,0,0,1-.43-2.19,5.22,5.22,0,0,1,.44-2.14,6,6,0,0,1,1.18-1.82,5.67,5.67,0,0,1,1.69-1.25,4.48,4.48,0,0,1,2-.46,3.89,3.89,0,0,1,1.45.24,4.09,4.09,0,0,1,1,.56,3.5,3.5,0,0,1,.61.62l-.2-.32a1,1,0,0,1,.4-.84,2.25,2.25,0,0,1,1.28-.28,2.09,2.09,0,0,1,1.18.25,1.06,1.06,0,0,1,.44.67,4.85,4.85,0,0,1,.08.87V32.1a4.8,4.8,0,0,1-.08.85,1,1,0,0,1-.44.65A2.22,2.22,0,0,1,161.07,33.84Zm-4-3.43a2,2,0,0,0,1.11-.31,2.31,2.31,0,0,0,.78-.83,2.38,2.38,0,0,0,.3-1.18,2.3,2.3,0,0,0-.3-1.18,2.25,2.25,0,0,0-.8-.82,2.2,2.2,0,0,0-1.13-.3,2.17,2.17,0,0,0-1.16.31,2.38,2.38,0,0,0-.83.84,2.28,2.28,0,0,0-.31,1.2,2.11,2.11,0,0,0,.31,1.13,2.19,2.19,0,0,0,.85.83A2.29,2.29,0,0,0,157,30.41Z"/><path class="cls-2" d="M166.82,33.87a2.27,2.27,0,0,1-1.21-.24,1,1,0,0,1-.44-.66,4.71,4.71,0,0,1-.08-.85v-8a3.84,3.84,0,0,1,.08-.85,1,1,0,0,1,.45-.63,3.19,3.19,0,0,1,2.38,0,1,1,0,0,1,.44.51,1.42,1.42,0,0,1,.1.49l-.28.14a2.36,2.36,0,0,1,.24-.33,3,3,0,0,1,.54-.51,3,3,0,0,1,.84-.45,3.33,3.33,0,0,1,1.14-.18l.56,0a4,4,0,0,1,.65.14,2.6,2.6,0,0,1,.61.28,1.51,1.51,0,0,1,.45.42,1.13,1.13,0,0,1,.17.62,2.81,2.81,0,0,1-.44,1.6,1.29,1.29,0,0,1-1.1.66,1.84,1.84,0,0,1-.56-.06,1.26,1.26,0,0,1-.26-.14,1.38,1.38,0,0,0-.24-.14,1.83,1.83,0,0,0-.51-.05,2.27,2.27,0,0,0-.65.09,1.83,1.83,0,0,0-.58.28,1.4,1.4,0,0,0-.56,1.14v5a3.86,3.86,0,0,1-.08.84.9.9,0,0,1-.45.63A2.41,2.41,0,0,1,166.82,33.87Z"/><path class="cls-2" d="M187,34.09a6.73,6.73,0,0,1-2.78-.53,5.41,5.41,0,0,1-1.89-1.39,6.17,6.17,0,0,1-1.11-1.92,6.6,6.6,0,0,1-.36-2.12,6,6,0,0,1,.78-3.06,5.58,5.58,0,0,1,2.18-2.1A6.37,6.37,0,0,1,187,22.2a5.64,5.64,0,0,1,2.31.43,4.71,4.71,0,0,1,2.56,2.56,4.17,4.17,0,0,1,.3,1.5,2.56,2.56,0,0,1-.61,1.88,2,2,0,0,1-1.55.62h-5.47a1.64,1.64,0,0,0,.42,1,2.53,2.53,0,0,0,1,.64,3.12,3.12,0,0,0,1.22.23,9,9,0,0,0,1-.05,4.62,4.62,0,0,0,.72-.16l.55-.21a4.31,4.31,0,0,1,.44-.17,1.55,1.55,0,0,1,.39-.09.94.94,0,0,1,.63.19,2,2,0,0,1,.52.66,1.68,1.68,0,0,1,.22.48,1.82,1.82,0,0,1,.06.46,1.24,1.24,0,0,1-.56,1,4.55,4.55,0,0,1-1.59.68A10.38,10.38,0,0,1,187,34.09Zm-2.46-6.81h3.63a1,1,0,0,0,.53-.12.58.58,0,0,0,.19-.5,1.11,1.11,0,0,0-.26-.71,1.62,1.62,0,0,0-.67-.5,2.81,2.81,0,0,0-1-.17,2.66,2.66,0,0,0-1.24.28,2.13,2.13,0,0,0-.86.73A1.73,1.73,0,0,0,184.53,27.28Z"/><path class="cls-2" d="M198.51,33.89a14,14,0,0,1-1.68-.09,3.7,3.7,0,0,1-1.24-.37,2.27,2.27,0,0,1-.83-.77,3.62,3.62,0,0,1-.48-1.27,9.22,9.22,0,0,1-.16-1.9V18.87a3.74,3.74,0,0,1,.1-.85,1.08,1.08,0,0,1,.45-.65,2.12,2.12,0,0,1,1.2-.25,2.19,2.19,0,0,1,1.19.25,1.08,1.08,0,0,1,.45.65,3.76,3.76,0,0,1,.09.85V29.33a3.44,3.44,0,0,0,0,.61.74.74,0,0,0,.13.38.48.48,0,0,0,.29.19,2.09,2.09,0,0,0,.48,0,2.78,2.78,0,0,1,.57.07.85.85,0,0,1,.49.42,2.32,2.32,0,0,1,.21,1.15,2.5,2.5,0,0,1-.21,1.19.82.82,0,0,1-.49.44A2.38,2.38,0,0,1,198.51,33.89Z"/><path class="cls-2" d="M213.18,34.11a6.52,6.52,0,0,1-2.77-.54,5.33,5.33,0,0,1-1.9-1.39,5.93,5.93,0,0,1-1.1-1.92,6.51,6.51,0,0,1-.37-2.11,6,6,0,0,1,.79-3.06A5.71,5.71,0,0,1,210,23a6.52,6.52,0,0,1,3.19-.77,5.81,5.81,0,0,1,2.31.43,4.76,4.76,0,0,1,1.61,1.11,4.55,4.55,0,0,1,.94,1.46,4,4,0,0,1,.31,1.49,2.59,2.59,0,0,1-.61,1.89,2.09,2.09,0,0,1-1.55.62h-5.48a1.6,1.6,0,0,0,.43,1,2.48,2.48,0,0,0,.95.65,3.35,3.35,0,0,0,1.22.23,7.06,7.06,0,0,0,1-.06,3.88,3.88,0,0,0,.72-.16l.54-.2.45-.18.39-.09a.92.92,0,0,1,.62.2,1.77,1.77,0,0,1,.53.65,1.62,1.62,0,0,1,.22.49,1.76,1.76,0,0,1,.06.46,1.24,1.24,0,0,1-.57,1,4.24,4.24,0,0,1-1.58.67A10.43,10.43,0,0,1,213.18,34.11Zm-2.45-6.81h3.63a.88.88,0,0,0,.53-.13.56.56,0,0,0,.18-.49,1.15,1.15,0,0,0-.25-.72,1.57,1.57,0,0,0-.68-.49,2.56,2.56,0,0,0-1-.17,2.79,2.79,0,0,0-1.24.27,2.16,2.16,0,0,0-.86.74A1.68,1.68,0,0,0,210.73,27.3Z"/><path class="cls-2" d="M224.43,34.09a7.57,7.57,0,0,1-1.36-.14,8.16,8.16,0,0,1-1.41-.4,5.16,5.16,0,0,1-1.15-.62,1.18,1.18,0,0,1-.52-.82,1.21,1.21,0,0,1,0-.5,2.36,2.36,0,0,1,.21-.55,4.2,4.2,0,0,1,.4-.61.86.86,0,0,1,.41-.32,1,1,0,0,1,.54,0,3,3,0,0,1,.73.25l.76.36a5.82,5.82,0,0,0,.81.35,2.41,2.41,0,0,0,.85.15,2,2,0,0,0,1-.2.58.58,0,0,0,.35-.54.59.59,0,0,0-.15-.41,1.09,1.09,0,0,0-.41-.28c-.18-.07-.38-.14-.62-.21l-.75-.2c-.26-.06-.53-.14-.82-.23a7.76,7.76,0,0,1-1.1-.42,3.32,3.32,0,0,1-1-.65,2.91,2.91,0,0,1-.68-1,3.61,3.61,0,0,1-.25-1.44,3.21,3.21,0,0,1,.52-1.88,3.11,3.11,0,0,1,1.53-1.16,6.66,6.66,0,0,1,2.48-.41,7.7,7.7,0,0,1,.83.05,5.53,5.53,0,0,1,.81.16,7.58,7.58,0,0,1,.8.28,7.09,7.09,0,0,1,.78.39c.46.22.7.51.71.87a2.22,2.22,0,0,1-.92,1.69.78.78,0,0,1-.57.13,3.53,3.53,0,0,1-.8-.31,8,8,0,0,0-.89-.4,2.47,2.47,0,0,0-.94-.19A1.82,1.82,0,0,0,224,25a.93.93,0,0,0-.42.27.64.64,0,0,0-.13.4.61.61,0,0,0,.17.47,1.14,1.14,0,0,0,.47.29,4.73,4.73,0,0,0,.69.21l.85.18a11.4,11.4,0,0,1,1.28.32,4.48,4.48,0,0,1,1.19.56,2.79,2.79,0,0,1,.87,1,3.35,3.35,0,0,1,.34,1.63A3.29,3.29,0,0,1,228,33.12,5.81,5.81,0,0,1,224.43,34.09Z"/><path class="cls-2" d="M232.87,38.67a2.3,2.3,0,0,1-1.2-.24,1,1,0,0,1-.44-.62,5.36,5.36,0,0,1-.06-.82V24.13a5.49,5.49,0,0,1,.07-.84,1,1,0,0,1,.43-.63,2.09,2.09,0,0,1,1.18-.25,2.58,2.58,0,0,1,1.14.21,1.19,1.19,0,0,1,.61.64V37a2.83,2.83,0,0,1-.07.83,1,1,0,0,1-.45.63A2.22,2.22,0,0,1,232.87,38.67Zm4.42-5a4.05,4.05,0,0,1-3.4-1.67,5.93,5.93,0,0,1-.85-1.79,8.51,8.51,0,0,1,0-4.33A6,6,0,0,1,234,24.1a4,4,0,0,1,1.4-1.24,4.05,4.05,0,0,1,1.94-.45,4.56,4.56,0,0,1,2,.46A6,6,0,0,1,242.13,26a5.58,5.58,0,0,1,.43,2.18,5.73,5.73,0,0,1-.43,2.18A5.65,5.65,0,0,1,241,32.1a5.44,5.44,0,0,1-1.68,1.18A4.89,4.89,0,0,1,237.29,33.71Zm-.46-3.25a2.13,2.13,0,0,0,1.15-.31,2.28,2.28,0,0,0,.82-.84,2.4,2.4,0,0,0,0-2.34,2.11,2.11,0,0,0-.82-.83,2.21,2.21,0,0,0-1.14-.3,2.11,2.11,0,0,0-1.13.31,2.15,2.15,0,0,0-.81.83,2.35,2.35,0,0,0-.29,1.16,2.32,2.32,0,0,0,.3,1.17,2.39,2.39,0,0,0,.8.84A2.07,2.07,0,0,0,236.83,30.46Z"/><path class="cls-2" d="M253.82,33.9a2.15,2.15,0,0,1-1.26-.3.81.81,0,0,1-.39-.74l.23-.39a2.58,2.58,0,0,1-.53.57,3.67,3.67,0,0,1-1,.59,3.88,3.88,0,0,1-1.53.27,4.69,4.69,0,0,1-2-.46,5.64,5.64,0,0,1-1.69-1.28,6.59,6.59,0,0,1-1.17-1.85,5.69,5.69,0,0,1,0-4.34,6.16,6.16,0,0,1,1.19-1.82,6,6,0,0,1,1.69-1.25,4.61,4.61,0,0,1,2-.46,3.69,3.69,0,0,1,1.45.25,3.79,3.79,0,0,1,1,.56,2.94,2.94,0,0,1,.61.62l-.21-.32a1,1,0,0,1,.41-.84,2.2,2.2,0,0,1,1.27-.29,2.12,2.12,0,0,1,1.19.26,1,1,0,0,1,.43.66,4.18,4.18,0,0,1,.08.88v7.93a4.71,4.71,0,0,1-.08.85,1,1,0,0,1-.44.66A2.27,2.27,0,0,1,253.82,33.9Zm-4-3.43a2,2,0,0,0,1.1-.31,2.36,2.36,0,0,0,.79-.84,2.47,2.47,0,0,0,0-2.36,2.25,2.25,0,0,0-.81-.81,2.13,2.13,0,0,0-1.12-.3,2.27,2.27,0,0,0-2,1.15,2.27,2.27,0,0,0-.31,1.19,2.14,2.14,0,0,0,.3,1.14,2.36,2.36,0,0,0,.86.83A2.29,2.29,0,0,0,249.8,30.47Z"/><path class="cls-2" d="M263.53,34a6.08,6.08,0,0,1-2.06-.38,6.36,6.36,0,0,1-1.93-1.12,5.29,5.29,0,0,1-1.41-1.84,6.23,6.23,0,0,1,0-5,5.51,5.51,0,0,1,1.4-1.82,6.66,6.66,0,0,1,1.92-1.12,6,6,0,0,1,2-.37,5.52,5.52,0,0,1,1.53.19,4.91,4.91,0,0,1,1.15.48,3.47,3.47,0,0,1,.68.48,7.08,7.08,0,0,1,.69.6,1,1,0,0,1,.27.78,1.35,1.35,0,0,1-.16.52,5.84,5.84,0,0,1-.34.54q-.72,1-1.38.87a2.21,2.21,0,0,1-.64-.23l-.55-.32a3.71,3.71,0,0,0-.56-.29,1.67,1.67,0,0,0-.69-.13,2.32,2.32,0,0,0-2,1.14,2.48,2.48,0,0,0,0,2.4,2.23,2.23,0,0,0,.83.84,2.17,2.17,0,0,0,1.16.31,2.36,2.36,0,0,0,.67-.09,2.09,2.09,0,0,0,.5-.22l.32-.19.53-.33a1,1,0,0,1,.51-.15,1.15,1.15,0,0,1,.68.24,3.94,3.94,0,0,1,.74.77,1.81,1.81,0,0,1,.45.9,1.09,1.09,0,0,1-.19.79,2.39,2.39,0,0,1-.79.7,3.67,3.67,0,0,1-.65.42,6.73,6.73,0,0,1-1.15.45A5.15,5.15,0,0,1,263.53,34Z"/><path class="cls-2" d="M271.77,20.78a2.24,2.24,0,0,1-1.24-.26,1,1,0,0,1-.45-.66A5,5,0,0,1,270,19a4.79,4.79,0,0,1,.08-.88,1,1,0,0,1,.46-.65,2.45,2.45,0,0,1,1.26-.24,2.17,2.17,0,0,1,1.21.26,1,1,0,0,1,.45.66,4.31,4.31,0,0,1,.08.9,4.71,4.71,0,0,1-.08.85,1,1,0,0,1-.45.66A2.36,2.36,0,0,1,271.77,20.78Zm0,13.15a2.33,2.33,0,0,1-1.22-.24.93.93,0,0,1-.43-.64,4.61,4.61,0,0,1-.07-.84v-8a4.6,4.6,0,0,1,.08-.84,1,1,0,0,1,.45-.64,2.33,2.33,0,0,1,1.22-.24,2.13,2.13,0,0,1,1.19.25,1,1,0,0,1,.43.66,3.87,3.87,0,0,1,.08.86v8a4.6,4.6,0,0,1-.08.84,1,1,0,0,1-.44.63A2.28,2.28,0,0,1,271.76,33.93Z"/><path class="cls-2" d="M281.47,34.12a5.83,5.83,0,0,1-2.15-.42,6.7,6.7,0,0,1-1.95-1.21A5.94,5.94,0,0,1,276,30.61a5.64,5.64,0,0,1-.51-2.42,5.8,5.8,0,0,1,.47-2.32,6.31,6.31,0,0,1,1.3-1.89,6.18,6.18,0,0,1,1.9-1.3,5.69,5.69,0,0,1,2.29-.47,5.9,5.9,0,0,1,3,.79,6,6,0,0,1,2.15,2.16,6.15,6.15,0,0,1,.28,5.51,5.83,5.83,0,0,1-1.38,1.87,6,6,0,0,1-1.91,1.18A5.79,5.79,0,0,1,281.47,34.12Zm-.05-3.47a2.51,2.51,0,0,0,1.13-.28,2.46,2.46,0,0,0,1-.82,2.38,2.38,0,0,0,.39-1.4,2.54,2.54,0,0,0-.32-1.29,2.32,2.32,0,0,0-.89-.87,2.71,2.71,0,0,0-1.3-.31,2.4,2.4,0,0,0-1.23.32,2.61,2.61,0,0,0-.83,3.56,2.39,2.39,0,0,0,1,.83A2.76,2.76,0,0,0,281.42,30.65Z"/><path class="cls-4" d="M46.88,34.13c0,2.27-.4,3.89-1.18,4.85a4.36,4.36,0,0,1-3.59,1.45,5.73,5.73,0,0,1-2.57-.5,3.25,3.25,0,0,1-1.48-1.85,11.09,11.09,0,0,1-.55-3.61L37.44,18.8a6.3,6.3,0,0,1-3.21-.73A2.58,2.58,0,0,1,33,15.61a2.77,2.77,0,0,1,1.16-2.29,5.16,5.16,0,0,1,3.24-.9l2.3,0,2.1,0c2,0,3.36.34,4,1a5,5,0,0,1,1,3.59Z"/><path class="cls-4" d="M50.63,37.58a2.75,2.75,0,0,1,1.16-2.31,5.31,5.31,0,0,1,3.28-.89q4.44,0,4.44,3.2a3.1,3.1,0,0,1-.57,2,2.8,2.8,0,0,1-1.51,1,9.68,9.68,0,0,1-2.36.25A6,6,0,0,1,51.89,40,2.61,2.61,0,0,1,50.63,37.58Z"/><path class="cls-5" d="M46.88,34.13c0,2.27-.4,3.89-1.18,4.85a4.36,4.36,0,0,1-3.59,1.45,5.73,5.73,0,0,1-2.57-.5,3.25,3.25,0,0,1-1.48-1.85,11.09,11.09,0,0,1-.55-3.61L37.44,18.8a6.3,6.3,0,0,1-3.21-.73A2.58,2.58,0,0,1,33,15.61a2.77,2.77,0,0,1,1.16-2.29,5.16,5.16,0,0,1,3.24-.9l2.3,0,2.1,0c2,0,3.36.34,4,1a5,5,0,0,1,1,3.59Z"/><path class="cls-5" d="M50.63,37.58a2.75,2.75,0,0,1,1.16-2.31,5.31,5.31,0,0,1,3.28-.89q4.44,0,4.44,3.2a3.1,3.1,0,0,1-.57,2,2.8,2.8,0,0,1-1.51,1,9.68,9.68,0,0,1-2.36.25A6,6,0,0,1,51.89,40,2.61,2.61,0,0,1,50.63,37.58Z"/></g></g></svg>