<svg xmlns="http://www.w3.org/2000/svg" viewBox="0 0 399.98 98.13"><defs><style>.cls-1{fill:#c49e00;}.cls-2{fill:#fff;}.cls-3,.cls-4{fill:none;stroke-width:5px;}.cls-3{stroke:#148adb;stroke-linejoin:round;}.cls-4{stroke:#fff;}.cls-5{fill:#148adb;}</style></defs><title>t2</title><g id="Layer_2" data-name="Layer 2"><g id="Pestaña_Paso_4" data-name="Pestaña Paso 4"><rect class="cls-1" width="399.98" height="98.13" rx="32.4"/><path class="cls-2" d="M92.62,31.39a2.89,2.89,0,0,1,.3,1,1,1,0,0,1-.24.71,2.78,2.78,0,0,1-.87.61,1.89,1.89,0,0,1-1.42.27,2,2,0,0,1-.94-1.1l-4.51-9.43-4.49,9.42a1.46,1.46,0,0,1-2.37.81,2.62,2.62,0,0,1-.87-.59,1,1,0,0,1-.24-.74,2.7,2.7,0,0,1,.33-1l6.06-12.57A1.73,1.73,0,0,1,84,18a1.8,1.8,0,0,1,.93-.28,1.7,1.7,0,0,1,.64.13,1.76,1.76,0,0,1,.54.36,1.88,1.88,0,0,1,.41.55ZM81.08,30.07l1.42-3h4.9l1.43,3Z"/><path class="cls-2" d="M100.19,33.92a5.85,5.85,0,0,1-2.06-.38,6.33,6.33,0,0,1-1.93-1.11,5.58,5.58,0,0,1-1.42-1.85,5.81,5.81,0,0,1-.52-2.53,5.48,5.48,0,0,1,1.93-4.32,6.17,6.17,0,0,1,1.92-1.11,5.82,5.82,0,0,1,2-.38,5.25,5.25,0,0,1,1.53.2,4.92,4.92,0,0,1,1.15.47,3.07,3.07,0,0,1,.67.48,7.08,7.08,0,0,1,.69.6,1,1,0,0,1,.28.78,1.55,1.55,0,0,1-.16.52,3.78,3.78,0,0,1-.35.54q-.7,1-1.38.87a1.9,1.9,0,0,1-.63-.23c-.19-.11-.38-.21-.55-.32a5.93,5.93,0,0,0-.56-.29,1.84,1.84,0,0,0-.69-.13A2.38,2.38,0,0,0,99,26a2.47,2.47,0,0,0-.84.83,2.41,2.41,0,0,0,.82,3.25,2.32,2.32,0,0,0,1.17.31,2,2,0,0,0,.66-.1,2.45,2.45,0,0,0,.51-.21l.32-.2.53-.33a1,1,0,0,1,.51-.15,1.17,1.17,0,0,1,.68.24,3.94,3.94,0,0,1,.74.77,1.9,1.9,0,0,1,.45.9,1.09,1.09,0,0,1-.2.79,2.25,2.25,0,0,1-.78.7,3.67,3.67,0,0,1-.65.42,6.7,6.7,0,0,1-1.15.46A5.61,5.61,0,0,1,100.19,33.92Z"/><path class="cls-2" d="M112.1,34a5.65,5.65,0,0,1-2.15-.43,6.42,6.42,0,0,1-1.94-1.2,5.76,5.76,0,0,1-1.39-1.88,5.55,5.55,0,0,1-.52-2.43,5.78,5.78,0,0,1,.47-2.31,6.31,6.31,0,0,1,1.3-1.89,6.12,6.12,0,0,1,1.9-1.3,5.56,5.56,0,0,1,2.29-.47,5.77,5.77,0,0,1,3,.79,6,6,0,0,1,2.15,2.15,6.2,6.2,0,0,1,.29,5.51,5.94,5.94,0,0,1-1.39,1.88,6,6,0,0,1-1.91,1.18A5.71,5.71,0,0,1,112.1,34Zm0-3.47a2.5,2.5,0,0,0,1.12-.28,2.47,2.47,0,0,0,1-.82,2.4,2.4,0,0,0,.39-1.41,2.57,2.57,0,0,0-.32-1.29,2.34,2.34,0,0,0-.88-.86,2.74,2.74,0,0,0-1.3-.31,2.4,2.4,0,0,0-1.23.32,2.42,2.42,0,0,0-.88.89,2.7,2.7,0,0,0,0,2.66,2.3,2.3,0,0,0,1,.83A2.63,2.63,0,0,0,112.06,30.55Z"/><path class="cls-2" d="M121.55,33.84a2.13,2.13,0,0,1-1.19-.25,1,1,0,0,1-.44-.65,4.5,4.5,0,0,1-.07-.85V24a3.62,3.62,0,0,1,.08-.82,1,1,0,0,1,.45-.64,2.31,2.31,0,0,1,1.22-.24,1.91,1.91,0,0,1,1.24.34,1.35,1.35,0,0,1,.39,1.09l-.3.25a2.3,2.3,0,0,1,.27-.39,5.61,5.61,0,0,1,.6-.57,4.09,4.09,0,0,1,.87-.52,2.69,2.69,0,0,1,1.07-.22,4.13,4.13,0,0,1,1.36.22,3.45,3.45,0,0,1,1.11.65,4,4,0,0,1,.86,1.07,5.84,5.84,0,0,1,.78-.9,4.39,4.39,0,0,1,1.08-.74,3.38,3.38,0,0,1,1.41-.29,3.71,3.71,0,0,1,2.28.68A4.09,4.09,0,0,1,136.05,25a8.62,8.62,0,0,1,.48,3.06v4.12a3.33,3.33,0,0,1-.1.84,1.06,1.06,0,0,1-.44.64,2.27,2.27,0,0,1-1.21.24,2.2,2.2,0,0,1-1.22-.25,1,1,0,0,1-.44-.66,5.71,5.71,0,0,1-.07-.84V28a3.72,3.72,0,0,0-.17-1.18,1.77,1.77,0,0,0-.5-.76,1.23,1.23,0,0,0-.83-.26,1.51,1.51,0,0,0-.89.25,1.55,1.55,0,0,0-.56.73,3.67,3.67,0,0,0-.18,1.25v4.11a3,3,0,0,1-.12.87,1.14,1.14,0,0,1-.49.64,2.37,2.37,0,0,1-1.24.22,1.91,1.91,0,0,1-1.15-.27,1,1,0,0,1-.41-.67,5.42,5.42,0,0,1-.07-.81V28a4.25,4.25,0,0,0-.16-1.2,1.47,1.47,0,0,0-.49-.75,1.33,1.33,0,0,0-.85-.26,1.43,1.43,0,0,0-.94.3,1.65,1.65,0,0,0-.54.79A3.55,3.55,0,0,0,123.3,28v4.14a4.46,4.46,0,0,1-.08.85,1,1,0,0,1-.45.63A2.31,2.31,0,0,1,121.55,33.84Z"/><path class="cls-2" d="M140.36,38.62a2.32,2.32,0,0,1-1.19-.25.91.91,0,0,1-.44-.62,5.09,5.09,0,0,1-.07-.81V24.08a4.32,4.32,0,0,1,.07-.84,1,1,0,0,1,.43-.63,2,2,0,0,1,1.18-.25,2.59,2.59,0,0,1,1.14.2,1.25,1.25,0,0,1,.61.65v13.7a3.17,3.17,0,0,1-.07.83,1,1,0,0,1-.45.63A2.16,2.16,0,0,1,140.36,38.62Zm4.42-5a4.12,4.12,0,0,1-2-.45A4.18,4.18,0,0,1,141.39,32a5.65,5.65,0,0,1-.85-1.78,7.4,7.4,0,0,1-.26-2.19,7.6,7.6,0,0,1,.3-2.15,6.06,6.06,0,0,1,.86-1.81,3.9,3.9,0,0,1,3.35-1.69,4.42,4.42,0,0,1,2,.46,5.84,5.84,0,0,1,1.69,1.25,6,6,0,0,1,1.17,1.83,5.77,5.77,0,0,1,.42,2.19,5.67,5.67,0,0,1-.42,2.17A5.73,5.73,0,0,1,148.46,32a5.47,5.47,0,0,1-1.68,1.19A4.85,4.85,0,0,1,144.78,33.65Zm-.46-3.24a2.2,2.2,0,0,0,1.15-.31,2.44,2.44,0,0,0,.82-.84,2.25,2.25,0,0,0,.31-1.17,2.38,2.38,0,0,0-.3-1.18,2.15,2.15,0,0,0-.81-.83,2.25,2.25,0,0,0-3.37,2,2.38,2.38,0,0,0,.3,1.18,2.3,2.3,0,0,0,.8.84A2.15,2.15,0,0,0,144.32,30.41Z"/><path class="cls-2" d="M161.32,33.84a2.18,2.18,0,0,1-1.27-.3.83.83,0,0,1-.39-.73l.23-.39a2.48,2.48,0,0,1-.52.56,4.3,4.3,0,0,1-1,.6,4.08,4.08,0,0,1-1.53.26,4.52,4.52,0,0,1-2-.46,5.37,5.37,0,0,1-1.69-1.28,6.46,6.46,0,0,1-1.17-1.85,5.6,5.6,0,0,1-.44-2.19,5.39,5.39,0,0,1,.44-2.14,6,6,0,0,1,1.19-1.82,5.54,5.54,0,0,1,1.69-1.25,4.45,4.45,0,0,1,2-.46,3.89,3.89,0,0,1,1.45.24,4.09,4.09,0,0,1,1,.56,3.5,3.5,0,0,1,.61.62l-.21-.32a1,1,0,0,1,.4-.84,2.27,2.27,0,0,1,1.28-.28,2.07,2.07,0,0,1,1.18.25,1,1,0,0,1,.44.67,4.85,4.85,0,0,1,.08.87V32.1A4,4,0,0,1,163,33a1,1,0,0,1-.43.65A2.27,2.27,0,0,1,161.32,33.84Zm-4-3.43a2,2,0,0,0,1.1-.3,2.42,2.42,0,0,0,.78-.84,2.38,2.38,0,0,0,.3-1.18,2.3,2.3,0,0,0-.3-1.18,2.1,2.1,0,0,0-.8-.82,2.3,2.3,0,0,0-2.29,0,2.47,2.47,0,0,0-.83.84,2.38,2.38,0,0,0-.31,1.2,2.2,2.2,0,0,0,.31,1.13,2.26,2.26,0,0,0,.85.83A2.32,2.32,0,0,0,157.3,30.41Z"/><path class="cls-2" d="M167.07,33.85a2.27,2.27,0,0,1-1.21-.24,1,1,0,0,1-.43-.65,3.86,3.86,0,0,1-.08-.84V24a4.12,4.12,0,0,1,.08-.81.91.91,0,0,1,.45-.61,2.45,2.45,0,0,1,1.22-.23,2.27,2.27,0,0,1,1.08.2.92.92,0,0,1,.45.47,1.45,1.45,0,0,1,.1.52.8.8,0,0,0,.05.33l-.14.44a1.31,1.31,0,0,1,.36-.7,3,3,0,0,1,.78-.65,4.38,4.38,0,0,1,1-.45,4,4,0,0,1,1.07-.16,4.59,4.59,0,0,1,2,.41,4,4,0,0,1,1.46,1.16,5.43,5.43,0,0,1,.9,1.78A7.6,7.6,0,0,1,176.5,28v4.18a4.6,4.6,0,0,1-.08.84.92.92,0,0,1-.44.63,3.31,3.31,0,0,1-2.45,0,1,1,0,0,1-.45-.64,4.6,4.6,0,0,1-.08-.84V28a2.6,2.6,0,0,0-.24-1.17,1.71,1.71,0,0,0-.69-.74A2.24,2.24,0,0,0,171,25.8a2.44,2.44,0,0,0-1.15.26,1.93,1.93,0,0,0-.75.75A2.44,2.44,0,0,0,168.8,28v4.19a3.86,3.86,0,0,1-.09.84,1,1,0,0,1-.43.63A2.38,2.38,0,0,1,167.07,33.85Zm2.63-16.49a1.49,1.49,0,0,1,.93.26,6.32,6.32,0,0,1,.59.54.7.7,0,0,0,.53.28.62.62,0,0,0,.49-.23l.42-.47a.87.87,0,0,1,.56-.29,1,1,0,0,1,.43,0,1.27,1.27,0,0,1,.49.23,1.85,1.85,0,0,1,.75.77,1.08,1.08,0,0,1-.18.94,3,3,0,0,1-.64.86,3.56,3.56,0,0,1-1,.68,2.73,2.73,0,0,1-1.08.25,1.39,1.39,0,0,1-.89-.28,7.09,7.09,0,0,1-.63-.55.78.78,0,0,0-.57-.28,1.41,1.41,0,0,0-.83.22,2,2,0,0,0-.46.45,1.07,1.07,0,0,1-.43.36c-.14,0-.4-.06-.77-.32a1.68,1.68,0,0,1-.66-.84A1.14,1.14,0,0,1,167,19a3.15,3.15,0,0,1,.74-.82,4.23,4.23,0,0,1,1-.62A2.33,2.33,0,0,1,169.7,17.36Z"/><path class="cls-2" d="M188.14,33.86a2.18,2.18,0,0,1-1.27-.3.85.85,0,0,1-.39-.74l.23-.39a2.58,2.58,0,0,1-.53.57,3.75,3.75,0,0,1-1,.59,3.88,3.88,0,0,1-1.53.27,4.63,4.63,0,0,1-2-.46,5.52,5.52,0,0,1-1.69-1.28,6.86,6.86,0,0,1-1.18-1.85,5.59,5.59,0,0,1-.43-2.19,5.44,5.44,0,0,1,.44-2.15,6,6,0,0,1,2.87-3.07,4.63,4.63,0,0,1,2-.46,3.87,3.87,0,0,1,2.44.81,2.93,2.93,0,0,1,.61.62l-.2-.32a1,1,0,0,1,.4-.84,2.24,2.24,0,0,1,1.28-.29,2.08,2.08,0,0,1,1.18.26,1.06,1.06,0,0,1,.44.66,5,5,0,0,1,.08.88v7.93a4,4,0,0,1-.08.85,1,1,0,0,1-.44.66A2.22,2.22,0,0,1,188.14,33.86Zm-4-3.43a2,2,0,0,0,1.11-.31,2.42,2.42,0,0,0,.78-.84,2.33,2.33,0,0,0-.8-3.17,2.2,2.2,0,0,0-1.13-.3,2.17,2.17,0,0,0-1.16.31,2.23,2.23,0,0,0-.83.84,2.27,2.27,0,0,0-.31,1.19,2.12,2.12,0,0,0,.31,1.14,2.33,2.33,0,0,0,.85.83A2.29,2.29,0,0,0,184.11,30.43Z"/><path class="cls-2" d="M193.89,33.89a2.16,2.16,0,0,1-1.21-.25,1,1,0,0,1-.44-.65,4.8,4.8,0,0,1-.08-.85v-8a3.78,3.78,0,0,1,.08-.85,1,1,0,0,1,.45-.63,3.19,3.19,0,0,1,2.38,0,1,1,0,0,1,.45.5,1.71,1.71,0,0,1,.09.5l-.28.13a2.36,2.36,0,0,1,.24-.33,3,3,0,0,1,.54-.5,3,3,0,0,1,.84-.45,3.32,3.32,0,0,1,1.14-.19c.17,0,.36,0,.57,0a3.21,3.21,0,0,1,.64.14,2.82,2.82,0,0,1,.61.27,1.68,1.68,0,0,1,.45.43,1.13,1.13,0,0,1,.17.62,2.84,2.84,0,0,1-.44,1.6A1.28,1.28,0,0,1,199,26a2.2,2.2,0,0,1-.55-.05,1.13,1.13,0,0,1-.27-.14,1,1,0,0,0-.24-.14,1.44,1.44,0,0,0-.51-.06,2.32,2.32,0,0,0-.65.09,1.86,1.86,0,0,0-.58.29,1.46,1.46,0,0,0-.41.48,1.43,1.43,0,0,0-.15.66v5a3.7,3.7,0,0,1-.09.83,1,1,0,0,1-.44.64A2.48,2.48,0,0,1,193.89,33.89Z"/><path class="cls-2" d="M212.77,33.9a14,14,0,0,1-1.68-.09,3.7,3.7,0,0,1-1.24-.37,2.35,2.35,0,0,1-.83-.77,3.7,3.7,0,0,1-.48-1.27,9.29,9.29,0,0,1-.16-1.9V18.88a4.61,4.61,0,0,1,.1-.86,1.09,1.09,0,0,1,.45-.64,3,3,0,0,1,2.39,0,1.08,1.08,0,0,1,.45.65,3.76,3.76,0,0,1,.09.85V29.34a3.44,3.44,0,0,0,0,.61.78.78,0,0,0,.13.38.53.53,0,0,0,.29.19,2.09,2.09,0,0,0,.48,0,2.78,2.78,0,0,1,.57.07.85.85,0,0,1,.49.42,2.32,2.32,0,0,1,.21,1.15,2.5,2.5,0,0,1-.21,1.19.82.82,0,0,1-.49.44A2.38,2.38,0,0,1,212.77,33.9Z"/><path class="cls-2" d="M221.26,34.09a5.85,5.85,0,0,1-2.15-.43,6.49,6.49,0,0,1-2-1.21,5.9,5.9,0,0,1-1.39-1.87,5.69,5.69,0,0,1-.51-2.43,5.55,5.55,0,0,1,.47-2.31,6.18,6.18,0,0,1,1.3-1.9,6.36,6.36,0,0,1,1.9-1.3,5.65,5.65,0,0,1,2.29-.47,5.81,5.81,0,0,1,3,.8,6.07,6.07,0,0,1,2.15,2.15,5.84,5.84,0,0,1,.8,3,5.71,5.71,0,0,1-1.9,4.37,6,6,0,0,1-4,1.59Zm0-3.48a2.6,2.6,0,0,0,2.1-1.1,2.36,2.36,0,0,0,.39-1.4,2.57,2.57,0,0,0-.32-1.29,2.23,2.23,0,0,0-.89-.86,2.6,2.6,0,0,0-1.3-.31A2.3,2.3,0,0,0,220,26a2.45,2.45,0,0,0-.87.88,2.4,2.4,0,0,0-.34,1.28,2.45,2.45,0,0,0,.38,1.39,2.26,2.26,0,0,0,1,.83A2.58,2.58,0,0,0,221.21,30.61Z"/><path class="cls-2" d="M233.17,34.09a7.59,7.59,0,0,1-1.36-.13,8.18,8.18,0,0,1-1.41-.41,4.46,4.46,0,0,1-1.15-.62,1.16,1.16,0,0,1-.52-.82,1.36,1.36,0,0,1,0-.49,2.21,2.21,0,0,1,.21-.55,4.52,4.52,0,0,1,.4-.61.8.8,0,0,1,.41-.32.92.92,0,0,1,.54,0,3.46,3.46,0,0,1,.73.24l.76.37a7.32,7.32,0,0,0,.81.35,2.45,2.45,0,0,0,.85.15,2.11,2.11,0,0,0,1-.2.6.6,0,0,0,.36-.54.56.56,0,0,0-.15-.41,1.23,1.23,0,0,0-.42-.28,4.38,4.38,0,0,0-.62-.22l-.75-.19c-.26-.07-.53-.14-.82-.24a6.66,6.66,0,0,1-1.1-.41,3.57,3.57,0,0,1-1-.66,2.73,2.73,0,0,1-.68-1,3.59,3.59,0,0,1-.25-1.43,3.26,3.26,0,0,1,.52-1.89,3.23,3.23,0,0,1,1.53-1.16,6.68,6.68,0,0,1,2.48-.4,7.7,7.7,0,0,1,.83.05,4.57,4.57,0,0,1,.82.16,8.19,8.19,0,0,1,.79.27,5.76,5.76,0,0,1,.78.4,1,1,0,0,1,.71.87,2.22,2.22,0,0,1-.92,1.69.78.78,0,0,1-.57.13,4.16,4.16,0,0,1-.8-.32c-.28-.14-.58-.27-.89-.4a2.64,2.64,0,0,0-.93-.18,1.86,1.86,0,0,0-.67.1.94.94,0,0,0-.42.28.62.62,0,0,0-.13.4.61.61,0,0,0,.17.47,1.26,1.26,0,0,0,.47.29l.69.21.85.18c.41.08.84.18,1.28.31a4.22,4.22,0,0,1,1.19.57,2.79,2.79,0,0,1,.88,1,3.51,3.51,0,0,1,.33,1.64,3.27,3.27,0,0,1-1.27,2.78A5.81,5.81,0,0,1,233.17,34.09Z"/><path class="cls-2" d="M246.75,22.6h2.53l3.17-.09a4.41,4.41,0,0,1,.83.08,1.06,1.06,0,0,1,.64.45,2.25,2.25,0,0,1,.25,1.22,2.14,2.14,0,0,1-.24,1.15,1,1,0,0,1-.63.47,3.24,3.24,0,0,1-.85.11l-3-.07-2.79,0a1.18,1.18,0,0,1-.93-.43,2.29,2.29,0,0,1-.26-1.28,2,2,0,0,1,.32-1.23A1.2,1.2,0,0,1,246.75,22.6Zm5.19,11.32a7.18,7.18,0,0,1-2-.25,3.27,3.27,0,0,1-1.39-.79,3.16,3.16,0,0,1-.8-1.34,6,6,0,0,1-.26-1.95V20.28a4.23,4.23,0,0,1,.08-.85,1,1,0,0,1,.45-.61,2.3,2.3,0,0,1,1.2-.24,2.13,2.13,0,0,1,1.19.25,1,1,0,0,1,.45.66,4.6,4.6,0,0,1,.08.84v9.13a2.68,2.68,0,0,0,.05.61.86.86,0,0,0,.17.36.73.73,0,0,0,.33.16,2.35,2.35,0,0,0,.5,0,3.49,3.49,0,0,1,.9.1,1,1,0,0,1,.61.41,2,2,0,0,1,.22,1.08,2.18,2.18,0,0,1-.26,1.2,1,1,0,0,1-.65.43A4.61,4.61,0,0,1,251.94,33.92Z"/><path class="cls-2" d="M257.66,33.93a2.33,2.33,0,0,1-1.2-.25A1,1,0,0,1,256,33a4.8,4.8,0,0,1-.08-.85v-8a3.78,3.78,0,0,1,.08-.85,1,1,0,0,1,.45-.63,2.2,2.2,0,0,1,1.21-.24,2.43,2.43,0,0,1,1.17.21,1,1,0,0,1,.44.51,1.47,1.47,0,0,1,.1.5l-.28.13a2.36,2.36,0,0,1,.24-.33,3.38,3.38,0,0,1,.54-.51,3.31,3.31,0,0,1,.84-.44,3.1,3.1,0,0,1,1.14-.19,3.78,3.78,0,0,1,.56,0,3.16,3.16,0,0,1,.65.14,3.05,3.05,0,0,1,.61.27,1.68,1.68,0,0,1,.45.43,1.1,1.1,0,0,1,.17.62,2.84,2.84,0,0,1-.44,1.6,1.3,1.3,0,0,1-1.1.65,1.79,1.79,0,0,1-.56-.06.9.9,0,0,1-.26-.13,1,1,0,0,0-.24-.14,1.44,1.44,0,0,0-.51-.06,2.27,2.27,0,0,0-.65.09,1.86,1.86,0,0,0-.58.29,1.35,1.35,0,0,0-.41.48,1.4,1.4,0,0,0-.15.66v5a3.74,3.74,0,0,1-.08.84.94.94,0,0,1-.45.64A2.43,2.43,0,0,1,257.66,33.93Z"/><path class="cls-2" d="M275.51,33.91a2.15,2.15,0,0,1-1.26-.3.8.8,0,0,1-.39-.73l.23-.39a2.85,2.85,0,0,1-.53.56,3.94,3.94,0,0,1-1,.6,4.08,4.08,0,0,1-1.53.26,4.55,4.55,0,0,1-2-.46,5.48,5.48,0,0,1-1.69-1.28,6.46,6.46,0,0,1-1.17-1.85,5.6,5.6,0,0,1-.44-2.19,5.66,5.66,0,0,1,.44-2.15,6.11,6.11,0,0,1,1.19-1.81A5.88,5.88,0,0,1,269,22.91a4.61,4.61,0,0,1,2-.45,3.89,3.89,0,0,1,1.45.24,4.09,4.09,0,0,1,1,.56,3.5,3.5,0,0,1,.61.62l-.21-.32a1,1,0,0,1,.41-.84,2.21,2.21,0,0,1,1.27-.28,2.13,2.13,0,0,1,1.19.25,1,1,0,0,1,.43.67,4,4,0,0,1,.08.87v7.94a4.8,4.8,0,0,1-.08.85,1,1,0,0,1-.44.65A2.27,2.27,0,0,1,275.51,33.91Zm-4-3.43a2,2,0,0,0,1.1-.31,2.21,2.21,0,0,0,.79-.84,2.45,2.45,0,0,0,0-2.35,2.2,2.2,0,0,0-.81-.82,2.13,2.13,0,0,0-1.12-.3,2.23,2.23,0,0,0-1.17.31,2.36,2.36,0,0,0-.82.84,2.28,2.28,0,0,0-.32,1.19,2.21,2.21,0,0,0,.31,1.14,2.29,2.29,0,0,0,.86.83A2.26,2.26,0,0,0,271.49,30.48Z"/><path class="cls-2" d="M280.8,33.94a1.73,1.73,0,0,1-1.57-2.39,1.58,1.58,0,0,1,.38-.58l5.22-5.06h-3.49a3.73,3.73,0,0,1-.84-.09,1.12,1.12,0,0,1-.67-.45,2.07,2.07,0,0,1-.26-1.21,2,2,0,0,1,.26-1.2,1.07,1.07,0,0,1,.67-.44,4.6,4.6,0,0,1,.84-.08h7.2a1.68,1.68,0,0,1,1.22.49,1.66,1.66,0,0,1,.48,1.22,1.85,1.85,0,0,1-.13.7,1.29,1.29,0,0,1-.36.54l-5.11,5.08h4.17a3.82,3.82,0,0,1,.85.09,1,1,0,0,1,.63.46,2.35,2.35,0,0,1,.24,1.22,2.19,2.19,0,0,1-.25,1.2,1,1,0,0,1-.65.44,5.57,5.57,0,0,1-.85.06Z"/><path class="cls-2" d="M297.94,34.13a5.83,5.83,0,0,1-2.15-.42,6.7,6.7,0,0,1-2-1.21,5.94,5.94,0,0,1-1.39-1.88,5.64,5.64,0,0,1-.51-2.42,5.8,5.8,0,0,1,.47-2.32,6.28,6.28,0,0,1,3.2-3.19,5.65,5.65,0,0,1,2.29-.47,5.8,5.8,0,0,1,3,.79,6,6,0,0,1,2.15,2.16,5.84,5.84,0,0,1,.8,3,5.73,5.73,0,0,1-.52,2.5A5.83,5.83,0,0,1,302,32.55,6,6,0,0,1,300,33.73,5.79,5.79,0,0,1,297.94,34.13Zm-.05-3.47a2.63,2.63,0,0,0,1.13-.27,2.57,2.57,0,0,0,1-.83,2.4,2.4,0,0,0,.39-1.41,2.51,2.51,0,0,0-.32-1.28,2.32,2.32,0,0,0-.89-.87,2.71,2.71,0,0,0-1.3-.31,2.4,2.4,0,0,0-1.23.32,2.48,2.48,0,0,0-.87.89,2.37,2.37,0,0,0-.34,1.27,2.48,2.48,0,0,0,.38,1.4,2.33,2.33,0,0,0,1,.83A2.73,2.73,0,0,0,297.89,30.66Z"/><path class="cls-2" d="M309.85,34.14a7.66,7.66,0,0,1-1.36-.14,8.16,8.16,0,0,1-1.41-.4,5.16,5.16,0,0,1-1.15-.62,1.19,1.19,0,0,1-.52-.82,1.41,1.41,0,0,1,0-.5,2.55,2.55,0,0,1,.21-.55,4.34,4.34,0,0,1,.41-.61.85.85,0,0,1,.4-.32.93.93,0,0,1,.54,0,2.6,2.6,0,0,1,.73.24c.25.11.5.24.76.37a7.27,7.27,0,0,0,.81.34,2.45,2.45,0,0,0,.85.15,2.12,2.12,0,0,0,1-.19.61.61,0,0,0,.21-1,1.22,1.22,0,0,0-.42-.27,4.38,4.38,0,0,0-.62-.22l-.75-.2c-.26-.06-.53-.14-.82-.23a7.7,7.7,0,0,1-1.1-.41,3.57,3.57,0,0,1-1-.66,3.06,3.06,0,0,1-.68-1,3.61,3.61,0,0,1-.25-1.44,3.21,3.21,0,0,1,.52-1.88,3.11,3.11,0,0,1,1.53-1.16,6.48,6.48,0,0,1,2.48-.4,7.69,7.69,0,0,1,.83,0,5.66,5.66,0,0,1,.82.16,8.29,8.29,0,0,1,.79.28,7.09,7.09,0,0,1,.78.39,1,1,0,0,1,.71.88,1.85,1.85,0,0,1-.39,1.15,2,2,0,0,1-.53.54.83.83,0,0,1-.57.12,3.53,3.53,0,0,1-.8-.31,8,8,0,0,0-.89-.4,2.45,2.45,0,0,0-.93-.19,1.88,1.88,0,0,0-.67.11,1.09,1.09,0,0,0-.42.27.72.72,0,0,0,0,.88,1.25,1.25,0,0,0,.47.28,4.73,4.73,0,0,0,.69.21l.85.19a11.28,11.28,0,0,1,1.28.31,4.48,4.48,0,0,1,1.19.56,2.91,2.91,0,0,1,.88,1,3.5,3.5,0,0,1,.33,1.63,3.29,3.29,0,0,1-1.27,2.79A5.88,5.88,0,0,1,309.85,34.14Z"/><path class="cls-3" d="M92.62,31.39a2.89,2.89,0,0,1,.3,1,1,1,0,0,1-.24.71,2.78,2.78,0,0,1-.87.61,1.89,1.89,0,0,1-1.42.27,2,2,0,0,1-.94-1.1l-4.51-9.43-4.49,9.42a1.46,1.46,0,0,1-2.37.81,2.62,2.62,0,0,1-.87-.59,1,1,0,0,1-.24-.74,2.7,2.7,0,0,1,.33-1l6.06-12.57A1.73,1.73,0,0,1,84,18a1.8,1.8,0,0,1,.93-.28,1.7,1.7,0,0,1,.64.13,1.76,1.76,0,0,1,.54.36,1.88,1.88,0,0,1,.41.55ZM81.08,30.07l1.42-3h4.9l1.43,3Z"/><path class="cls-3" d="M100.19,33.92a5.85,5.85,0,0,1-2.06-.38,6.33,6.33,0,0,1-1.93-1.11,5.58,5.58,0,0,1-1.42-1.85,5.81,5.81,0,0,1-.52-2.53,5.48,5.48,0,0,1,1.93-4.32,6.17,6.17,0,0,1,1.92-1.11,5.82,5.82,0,0,1,2-.38,5.25,5.25,0,0,1,1.53.2,4.92,4.92,0,0,1,1.15.47,3.07,3.07,0,0,1,.67.48,7.08,7.08,0,0,1,.69.6,1,1,0,0,1,.28.78,1.55,1.55,0,0,1-.16.52,3.78,3.78,0,0,1-.35.54q-.7,1-1.38.87a1.9,1.9,0,0,1-.63-.23c-.19-.11-.38-.21-.55-.32a5.93,5.93,0,0,0-.56-.29,1.84,1.84,0,0,0-.69-.13A2.38,2.38,0,0,0,99,26a2.47,2.47,0,0,0-.84.83,2.41,2.41,0,0,0,.82,3.25,2.32,2.32,0,0,0,1.17.31,2,2,0,0,0,.66-.1,2.45,2.45,0,0,0,.51-.21l.32-.2.53-.33a1,1,0,0,1,.51-.15,1.17,1.17,0,0,1,.68.24,3.94,3.94,0,0,1,.74.77,1.9,1.9,0,0,1,.45.9,1.09,1.09,0,0,1-.2.79,2.25,2.25,0,0,1-.78.7,3.67,3.67,0,0,1-.65.42,6.7,6.7,0,0,1-1.15.46A5.61,5.61,0,0,1,100.19,33.92Z"/><path class="cls-3" d="M112.1,34a5.65,5.65,0,0,1-2.15-.43,6.42,6.42,0,0,1-1.94-1.2,5.76,5.76,0,0,1-1.39-1.88,5.55,5.55,0,0,1-.52-2.43,5.78,5.78,0,0,1,.47-2.31,6.31,6.31,0,0,1,1.3-1.89,6.12,6.12,0,0,1,1.9-1.3,5.56,5.56,0,0,1,2.29-.47,5.77,5.77,0,0,1,3,.79,6,6,0,0,1,2.15,2.15,6.2,6.2,0,0,1,.29,5.51,5.94,5.94,0,0,1-1.39,1.88,6,6,0,0,1-1.91,1.18A5.71,5.71,0,0,1,112.1,34Zm0-3.47a2.5,2.5,0,0,0,1.12-.28,2.47,2.47,0,0,0,1-.82,2.4,2.4,0,0,0,.39-1.41,2.57,2.57,0,0,0-.32-1.29,2.34,2.34,0,0,0-.88-.86,2.74,2.74,0,0,0-1.3-.31,2.4,2.4,0,0,0-1.23.32,2.42,2.42,0,0,0-.88.89,2.7,2.7,0,0,0,0,2.66,2.3,2.3,0,0,0,1,.83A2.63,2.63,0,0,0,112.06,30.55Z"/><path class="cls-3" d="M121.55,33.84a2.13,2.13,0,0,1-1.19-.25,1,1,0,0,1-.44-.65,4.5,4.5,0,0,1-.07-.85V24a3.62,3.62,0,0,1,.08-.82,1,1,0,0,1,.45-.64,2.31,2.31,0,0,1,1.22-.24,1.91,1.91,0,0,1,1.24.34,1.35,1.35,0,0,1,.39,1.09l-.3.25a2.3,2.3,0,0,1,.27-.39,5.61,5.61,0,0,1,.6-.57,4.09,4.09,0,0,1,.87-.52,2.69,2.69,0,0,1,1.07-.22,4.13,4.13,0,0,1,1.36.22,3.45,3.45,0,0,1,1.11.65,4,4,0,0,1,.86,1.07,5.84,5.84,0,0,1,.78-.9,4.39,4.39,0,0,1,1.08-.74,3.38,3.38,0,0,1,1.41-.29,3.71,3.71,0,0,1,2.28.68A4.09,4.09,0,0,1,136.05,25a8.62,8.62,0,0,1,.48,3.06v4.12a3.33,3.33,0,0,1-.1.84,1.06,1.06,0,0,1-.44.64,2.27,2.27,0,0,1-1.21.24,2.2,2.2,0,0,1-1.22-.25,1,1,0,0,1-.44-.66,5.71,5.71,0,0,1-.07-.84V28a3.72,3.72,0,0,0-.17-1.18,1.77,1.77,0,0,0-.5-.76,1.23,1.23,0,0,0-.83-.26,1.51,1.51,0,0,0-.89.25,1.55,1.55,0,0,0-.56.73,3.67,3.67,0,0,0-.18,1.25v4.11a3,3,0,0,1-.12.87,1.14,1.14,0,0,1-.49.64,2.37,2.37,0,0,1-1.24.22,1.91,1.91,0,0,1-1.15-.27,1,1,0,0,1-.41-.67,5.42,5.42,0,0,1-.07-.81V28a4.25,4.25,0,0,0-.16-1.2,1.47,1.47,0,0,0-.49-.75,1.33,1.33,0,0,0-.85-.26,1.43,1.43,0,0,0-.94.3,1.65,1.65,0,0,0-.54.79A3.55,3.55,0,0,0,123.3,28v4.14a4.46,4.46,0,0,1-.08.85,1,1,0,0,1-.45.63A2.31,2.31,0,0,1,121.55,33.84Z"/><path class="cls-3" d="M140.36,38.62a2.32,2.32,0,0,1-1.19-.25.91.91,0,0,1-.44-.62,5.09,5.09,0,0,1-.07-.81V24.08a4.32,4.32,0,0,1,.07-.84,1,1,0,0,1,.43-.63,2,2,0,0,1,1.18-.25,2.59,2.59,0,0,1,1.14.2,1.25,1.25,0,0,1,.61.65v13.7a3.17,3.17,0,0,1-.07.83,1,1,0,0,1-.45.63A2.16,2.16,0,0,1,140.36,38.62Zm4.42-5a4.12,4.12,0,0,1-2-.45A4.18,4.18,0,0,1,141.39,32a5.65,5.65,0,0,1-.85-1.78,7.4,7.4,0,0,1-.26-2.19,7.6,7.6,0,0,1,.3-2.15,6.06,6.06,0,0,1,.86-1.81,3.9,3.9,0,0,1,3.35-1.69,4.42,4.42,0,0,1,2,.46,5.84,5.84,0,0,1,1.69,1.25,6,6,0,0,1,1.17,1.83,5.77,5.77,0,0,1,.42,2.19,5.67,5.67,0,0,1-.42,2.17A5.73,5.73,0,0,1,148.46,32a5.47,5.47,0,0,1-1.68,1.19A4.85,4.85,0,0,1,144.78,33.65Zm-.46-3.24a2.2,2.2,0,0,0,1.15-.31,2.44,2.44,0,0,0,.82-.84,2.25,2.25,0,0,0,.31-1.17,2.38,2.38,0,0,0-.3-1.18,2.15,2.15,0,0,0-.81-.83,2.25,2.25,0,0,0-3.37,2,2.38,2.38,0,0,0,.3,1.18,2.3,2.3,0,0,0,.8.84A2.15,2.15,0,0,0,144.32,30.41Z"/><path class="cls-3" d="M161.32,33.84a2.18,2.18,0,0,1-1.27-.3.83.83,0,0,1-.39-.73l.23-.39a2.48,2.48,0,0,1-.52.56,4.3,4.3,0,0,1-1,.6,4.08,4.08,0,0,1-1.53.26,4.52,4.52,0,0,1-2-.46,5.37,5.37,0,0,1-1.69-1.28,6.46,6.46,0,0,1-1.17-1.85,5.6,5.6,0,0,1-.44-2.19,5.39,5.39,0,0,1,.44-2.14,6,6,0,0,1,1.19-1.82,5.54,5.54,0,0,1,1.69-1.25,4.45,4.45,0,0,1,2-.46,3.89,3.89,0,0,1,1.45.24,4.09,4.09,0,0,1,1,.56,3.5,3.5,0,0,1,.61.62l-.21-.32a1,1,0,0,1,.4-.84,2.27,2.27,0,0,1,1.28-.28,2.07,2.07,0,0,1,1.18.25,1,1,0,0,1,.44.67,4.85,4.85,0,0,1,.08.87V32.1A4,4,0,0,1,163,33a1,1,0,0,1-.43.65A2.27,2.27,0,0,1,161.32,33.84Zm-4-3.43a2,2,0,0,0,1.1-.3,2.42,2.42,0,0,0,.78-.84,2.38,2.38,0,0,0,.3-1.18,2.3,2.3,0,0,0-.3-1.18,2.1,2.1,0,0,0-.8-.82,2.3,2.3,0,0,0-2.29,0,2.47,2.47,0,0,0-.83.84,2.38,2.38,0,0,0-.31,1.2,2.2,2.2,0,0,0,.31,1.13,2.26,2.26,0,0,0,.85.83A2.32,2.32,0,0,0,157.3,30.41Z"/><path class="cls-3" d="M167.07,33.85a2.27,2.27,0,0,1-1.21-.24,1,1,0,0,1-.43-.65,3.86,3.86,0,0,1-.08-.84V24a4.12,4.12,0,0,1,.08-.81.91.91,0,0,1,.45-.61,2.45,2.45,0,0,1,1.22-.23,2.27,2.27,0,0,1,1.08.2.92.92,0,0,1,.45.47,1.45,1.45,0,0,1,.1.52.8.8,0,0,0,.05.33l-.14.44a1.31,1.31,0,0,1,.36-.7,3,3,0,0,1,.78-.65,4.38,4.38,0,0,1,1-.45,4,4,0,0,1,1.07-.16,4.59,4.59,0,0,1,2,.41,4,4,0,0,1,1.46,1.16,5.43,5.43,0,0,1,.9,1.78A7.6,7.6,0,0,1,176.5,28v4.18a4.6,4.6,0,0,1-.08.84.92.92,0,0,1-.44.63,3.31,3.31,0,0,1-2.45,0,1,1,0,0,1-.45-.64,4.6,4.6,0,0,1-.08-.84V28a2.6,2.6,0,0,0-.24-1.17,1.71,1.71,0,0,0-.69-.74A2.24,2.24,0,0,0,171,25.8a2.44,2.44,0,0,0-1.15.26,1.93,1.93,0,0,0-.75.75A2.44,2.44,0,0,0,168.8,28v4.19a3.86,3.86,0,0,1-.09.84,1,1,0,0,1-.43.63A2.38,2.38,0,0,1,167.07,33.85Zm2.63-16.49a1.49,1.49,0,0,1,.93.26,6.32,6.32,0,0,1,.59.54.7.7,0,0,0,.53.28.62.62,0,0,0,.49-.23l.42-.47a.87.87,0,0,1,.56-.29,1,1,0,0,1,.43,0,1.27,1.27,0,0,1,.49.23,1.85,1.85,0,0,1,.75.77,1.08,1.08,0,0,1-.18.94,3,3,0,0,1-.64.86,3.56,3.56,0,0,1-1,.68,2.73,2.73,0,0,1-1.08.25,1.39,1.39,0,0,1-.89-.28,7.09,7.09,0,0,1-.63-.55.78.78,0,0,0-.57-.28,1.41,1.41,0,0,0-.83.22,2,2,0,0,0-.46.45,1.07,1.07,0,0,1-.43.36c-.14,0-.4-.06-.77-.32a1.68,1.68,0,0,1-.66-.84A1.14,1.14,0,0,1,167,19a3.15,3.15,0,0,1,.74-.82,4.23,4.23,0,0,1,1-.62A2.33,2.33,0,0,1,169.7,17.36Z"/><path class="cls-3" d="M188.14,33.86a2.18,2.18,0,0,1-1.27-.3.85.85,0,0,1-.39-.74l.23-.39a2.58,2.58,0,0,1-.53.57,3.75,3.75,0,0,1-1,.59,3.88,3.88,0,0,1-1.53.27,4.63,4.63,0,0,1-2-.46,5.52,5.52,0,0,1-1.69-1.28,6.86,6.86,0,0,1-1.18-1.85,5.59,5.59,0,0,1-.43-2.19,5.44,5.44,0,0,1,.44-2.15,6,6,0,0,1,2.87-3.07,4.63,4.63,0,0,1,2-.46,3.87,3.87,0,0,1,2.44.81,2.93,2.93,0,0,1,.61.62l-.2-.32a1,1,0,0,1,.4-.84,2.24,2.24,0,0,1,1.28-.29,2.08,2.08,0,0,1,1.18.26,1.06,1.06,0,0,1,.44.66,5,5,0,0,1,.08.88v7.93a4,4,0,0,1-.08.85,1,1,0,0,1-.44.66A2.22,2.22,0,0,1,188.14,33.86Zm-4-3.43a2,2,0,0,0,1.11-.31,2.42,2.42,0,0,0,.78-.84,2.33,2.33,0,0,0-.8-3.17,2.2,2.2,0,0,0-1.13-.3,2.17,2.17,0,0,0-1.16.31,2.23,2.23,0,0,0-.83.84,2.27,2.27,0,0,0-.31,1.19,2.12,2.12,0,0,0,.31,1.14,2.33,2.33,0,0,0,.85.83A2.29,2.29,0,0,0,184.11,30.43Z"/><path class="cls-3" d="M193.89,33.89a2.16,2.16,0,0,1-1.21-.25,1,1,0,0,1-.44-.65,4.8,4.8,0,0,1-.08-.85v-8a3.78,3.78,0,0,1,.08-.85,1,1,0,0,1,.45-.63,3.19,3.19,0,0,1,2.38,0,1,1,0,0,1,.45.5,1.71,1.71,0,0,1,.09.5l-.28.13a2.36,2.36,0,0,1,.24-.33,3,3,0,0,1,.54-.5,3,3,0,0,1,.84-.45,3.32,3.32,0,0,1,1.14-.19c.17,0,.36,0,.57,0a3.21,3.21,0,0,1,.64.14,2.82,2.82,0,0,1,.61.27,1.68,1.68,0,0,1,.45.43,1.13,1.13,0,0,1,.17.62,2.84,2.84,0,0,1-.44,1.6A1.28,1.28,0,0,1,199,26a2.2,2.2,0,0,1-.55-.05,1.13,1.13,0,0,1-.27-.14,1,1,0,0,0-.24-.14,1.44,1.44,0,0,0-.51-.06,2.32,2.32,0,0,0-.65.09,1.86,1.86,0,0,0-.58.29,1.46,1.46,0,0,0-.41.48,1.43,1.43,0,0,0-.15.66v5a3.7,3.7,0,0,1-.09.83,1,1,0,0,1-.44.64A2.48,2.48,0,0,1,193.89,33.89Z"/><path class="cls-3" d="M212.77,33.9a14,14,0,0,1-1.68-.09,3.7,3.7,0,0,1-1.24-.37,2.35,2.35,0,0,1-.83-.77,3.7,3.7,0,0,1-.48-1.27,9.29,9.29,0,0,1-.16-1.9V18.88a4.61,4.61,0,0,1,.1-.86,1.09,1.09,0,0,1,.45-.64,3,3,0,0,1,2.39,0,1.08,1.08,0,0,1,.45.65,3.76,3.76,0,0,1,.09.85V29.34a3.44,3.44,0,0,0,0,.61.78.78,0,0,0,.13.38.53.53,0,0,0,.29.19,2.09,2.09,0,0,0,.48,0,2.78,2.78,0,0,1,.57.07.85.85,0,0,1,.49.42,2.32,2.32,0,0,1,.21,1.15,2.5,2.5,0,0,1-.21,1.19.82.82,0,0,1-.49.44A2.38,2.38,0,0,1,212.77,33.9Z"/><path class="cls-3" d="M221.26,34.09a5.85,5.85,0,0,1-2.15-.43,6.49,6.49,0,0,1-2-1.21,5.9,5.9,0,0,1-1.39-1.87,5.69,5.69,0,0,1-.51-2.43,5.55,5.55,0,0,1,.47-2.31,6.18,6.18,0,0,1,1.3-1.9,6.36,6.36,0,0,1,1.9-1.3,5.65,5.65,0,0,1,2.29-.47,5.81,5.81,0,0,1,3,.8,6.07,6.07,0,0,1,2.15,2.15,5.84,5.84,0,0,1,.8,3,5.71,5.71,0,0,1-1.9,4.37,6,6,0,0,1-4,1.59Zm0-3.48a2.6,2.6,0,0,0,2.1-1.1,2.36,2.36,0,0,0,.39-1.4,2.57,2.57,0,0,0-.32-1.29,2.23,2.23,0,0,0-.89-.86,2.6,2.6,0,0,0-1.3-.31A2.3,2.3,0,0,0,220,26a2.45,2.45,0,0,0-.87.88,2.4,2.4,0,0,0-.34,1.28,2.45,2.45,0,0,0,.38,1.39,2.26,2.26,0,0,0,1,.83A2.58,2.58,0,0,0,221.21,30.61Z"/><path class="cls-3" d="M233.17,34.09a7.59,7.59,0,0,1-1.36-.13,8.18,8.18,0,0,1-1.41-.41,4.46,4.46,0,0,1-1.15-.62,1.16,1.16,0,0,1-.52-.82,1.36,1.36,0,0,1,0-.49,2.21,2.21,0,0,1,.21-.55,4.52,4.52,0,0,1,.4-.61.8.8,0,0,1,.41-.32.92.92,0,0,1,.54,0,3.46,3.46,0,0,1,.73.24l.76.37a7.32,7.32,0,0,0,.81.35,2.45,2.45,0,0,0,.85.15,2.11,2.11,0,0,0,1-.2.6.6,0,0,0,.36-.54.56.56,0,0,0-.15-.41,1.23,1.23,0,0,0-.42-.28,4.38,4.38,0,0,0-.62-.22l-.75-.19c-.26-.07-.53-.14-.82-.24a6.66,6.66,0,0,1-1.1-.41,3.57,3.57,0,0,1-1-.66,2.73,2.73,0,0,1-.68-1,3.59,3.59,0,0,1-.25-1.43,3.26,3.26,0,0,1,.52-1.89,3.23,3.23,0,0,1,1.53-1.16,6.68,6.68,0,0,1,2.48-.4,7.7,7.7,0,0,1,.83.05,4.57,4.57,0,0,1,.82.16,8.19,8.19,0,0,1,.79.27,5.76,5.76,0,0,1,.78.4,1,1,0,0,1,.71.87,2.22,2.22,0,0,1-.92,1.69.78.78,0,0,1-.57.13,4.16,4.16,0,0,1-.8-.32c-.28-.14-.58-.27-.89-.4a2.64,2.64,0,0,0-.93-.18,1.86,1.86,0,0,0-.67.1.94.94,0,0,0-.42.28.62.62,0,0,0-.13.4.61.61,0,0,0,.17.47,1.26,1.26,0,0,0,.47.29l.69.21.85.18c.41.08.84.18,1.28.31a4.22,4.22,0,0,1,1.19.57,2.79,2.79,0,0,1,.88,1,3.51,3.51,0,0,1,.33,1.64,3.27,3.27,0,0,1-1.27,2.78A5.81,5.81,0,0,1,233.17,34.09Z"/><path class="cls-3" d="M246.75,22.6h2.53l3.17-.09a4.41,4.41,0,0,1,.83.08,1.06,1.06,0,0,1,.64.45,2.25,2.25,0,0,1,.25,1.22,2.14,2.14,0,0,1-.24,1.15,1,1,0,0,1-.63.47,3.24,3.24,0,0,1-.85.11l-3-.07-2.79,0a1.18,1.18,0,0,1-.93-.43,2.29,2.29,0,0,1-.26-1.28,2,2,0,0,1,.32-1.23A1.2,1.2,0,0,1,246.75,22.6Zm5.19,11.32a7.18,7.18,0,0,1-2-.25,3.27,3.27,0,0,1-1.39-.79,3.16,3.16,0,0,1-.8-1.34,6,6,0,0,1-.26-1.95V20.28a4.23,4.23,0,0,1,.08-.85,1,1,0,0,1,.45-.61,2.3,2.3,0,0,1,1.2-.24,2.13,2.13,0,0,1,1.19.25,1,1,0,0,1,.45.66,4.6,4.6,0,0,1,.08.84v9.13a2.68,2.68,0,0,0,.05.61.86.86,0,0,0,.17.36.73.73,0,0,0,.33.16,2.35,2.35,0,0,0,.5,0,3.49,3.49,0,0,1,.9.1,1,1,0,0,1,.61.41,2,2,0,0,1,.22,1.08,2.18,2.18,0,0,1-.26,1.2,1,1,0,0,1-.65.43A4.61,4.61,0,0,1,251.94,33.92Z"/><path class="cls-3" d="M257.66,33.93a2.33,2.33,0,0,1-1.2-.25A1,1,0,0,1,256,33a4.8,4.8,0,0,1-.08-.85v-8a3.78,3.78,0,0,1,.08-.85,1,1,0,0,1,.45-.63,2.2,2.2,0,0,1,1.21-.24,2.43,2.43,0,0,1,1.17.21,1,1,0,0,1,.44.51,1.47,1.47,0,0,1,.1.5l-.28.13a2.36,2.36,0,0,1,.24-.33,3.38,3.38,0,0,1,.54-.51,3.31,3.31,0,0,1,.84-.44,3.1,3.1,0,0,1,1.14-.19,3.78,3.78,0,0,1,.56,0,3.16,3.16,0,0,1,.65.14,3.05,3.05,0,0,1,.61.27,1.68,1.68,0,0,1,.45.43,1.1,1.1,0,0,1,.17.62,2.84,2.84,0,0,1-.44,1.6,1.3,1.3,0,0,1-1.1.65,1.79,1.79,0,0,1-.56-.06.9.9,0,0,1-.26-.13,1,1,0,0,0-.24-.14,1.44,1.44,0,0,0-.51-.06,2.27,2.27,0,0,0-.65.09,1.86,1.86,0,0,0-.58.29,1.35,1.35,0,0,0-.41.48,1.4,1.4,0,0,0-.15.66v5a3.74,3.74,0,0,1-.08.84.94.94,0,0,1-.45.64A2.43,2.43,0,0,1,257.66,33.93Z"/><path class="cls-3" d="M275.51,33.91a2.15,2.15,0,0,1-1.26-.3.8.8,0,0,1-.39-.73l.23-.39a2.85,2.85,0,0,1-.53.56,3.94,3.94,0,0,1-1,.6,4.08,4.08,0,0,1-1.53.26,4.55,4.55,0,0,1-2-.46,5.48,5.48,0,0,1-1.69-1.28,6.46,6.46,0,0,1-1.17-1.85,5.6,5.6,0,0,1-.44-2.19,5.66,5.66,0,0,1,.44-2.15,6.11,6.11,0,0,1,1.19-1.81A5.88,5.88,0,0,1,269,22.91a4.61,4.61,0,0,1,2-.45,3.89,3.89,0,0,1,1.45.24,4.09,4.09,0,0,1,1,.56,3.5,3.5,0,0,1,.61.62l-.21-.32a1,1,0,0,1,.41-.84,2.21,2.21,0,0,1,1.27-.28,2.13,2.13,0,0,1,1.19.25,1,1,0,0,1,.43.67,4,4,0,0,1,.08.87v7.94a4.8,4.8,0,0,1-.08.85,1,1,0,0,1-.44.65A2.27,2.27,0,0,1,275.51,33.91Zm-4-3.43a2,2,0,0,0,1.1-.31,2.21,2.21,0,0,0,.79-.84,2.45,2.45,0,0,0,0-2.35,2.2,2.2,0,0,0-.81-.82,2.13,2.13,0,0,0-1.12-.3,2.23,2.23,0,0,0-1.17.31,2.36,2.36,0,0,0-.82.84,2.28,2.28,0,0,0-.32,1.19,2.21,2.21,0,0,0,.31,1.14,2.29,2.29,0,0,0,.86.83A2.26,2.26,0,0,0,271.49,30.48Z"/><path class="cls-3" d="M280.8,33.94a1.73,1.73,0,0,1-1.57-2.39,1.58,1.58,0,0,1,.38-.58l5.22-5.06h-3.49a3.73,3.73,0,0,1-.84-.09,1.12,1.12,0,0,1-.67-.45,2.07,2.07,0,0,1-.26-1.21,2,2,0,0,1,.26-1.2,1.07,1.07,0,0,1,.67-.44,4.6,4.6,0,0,1,.84-.08h7.2a1.68,1.68,0,0,1,1.22.49,1.66,1.66,0,0,1,.48,1.22,1.85,1.85,0,0,1-.13.7,1.29,1.29,0,0,1-.36.54l-5.11,5.08h4.17a3.82,3.82,0,0,1,.85.09,1,1,0,0,1,.63.46,2.35,2.35,0,0,1,.24,1.22,2.19,2.19,0,0,1-.25,1.2,1,1,0,0,1-.65.44,5.57,5.57,0,0,1-.85.06Z"/><path class="cls-3" d="M297.94,34.13a5.83,5.83,0,0,1-2.15-.42,6.7,6.7,0,0,1-2-1.21,5.94,5.94,0,0,1-1.39-1.88,5.64,5.64,0,0,1-.51-2.42,5.8,5.8,0,0,1,.47-2.32,6.28,6.28,0,0,1,3.2-3.19,5.65,5.65,0,0,1,2.29-.47,5.8,5.8,0,0,1,3,.79,6,6,0,0,1,2.15,2.16,5.84,5.84,0,0,1,.8,3,5.73,5.73,0,0,1-.52,2.5A5.83,5.83,0,0,1,302,32.55,6,6,0,0,1,300,33.73,5.79,5.79,0,0,1,297.94,34.13Zm-.05-3.47a2.63,2.63,0,0,0,1.13-.27,2.57,2.57,0,0,0,1-.83,2.4,2.4,0,0,0,.39-1.41,2.51,2.51,0,0,0-.32-1.28,2.32,2.32,0,0,0-.89-.87,2.71,2.71,0,0,0-1.3-.31,2.4,2.4,0,0,0-1.23.32,2.48,2.48,0,0,0-.87.89,2.37,2.37,0,0,0-.34,1.27,2.48,2.48,0,0,0,.38,1.4,2.33,2.33,0,0,0,1,.83A2.73,2.73,0,0,0,297.89,30.66Z"/><path class="cls-3" d="M309.85,34.14a7.66,7.66,0,0,1-1.36-.14,8.16,8.16,0,0,1-1.41-.4,5.16,5.16,0,0,1-1.15-.62,1.19,1.19,0,0,1-.52-.82,1.41,1.41,0,0,1,0-.5,2.55,2.55,0,0,1,.21-.55,4.34,4.34,0,0,1,.41-.61.85.85,0,0,1,.4-.32.93.93,0,0,1,.54,0,2.6,2.6,0,0,1,.73.24c.25.11.5.24.76.37a7.27,7.27,0,0,0,.81.34,2.45,2.45,0,0,0,.85.15,2.12,2.12,0,0,0,1-.19.61.61,0,0,0,.21-1,1.22,1.22,0,0,0-.42-.27,4.38,4.38,0,0,0-.62-.22l-.75-.2c-.26-.06-.53-.14-.82-.23a7.7,7.7,0,0,1-1.1-.41,3.57,3.57,0,0,1-1-.66,3.06,3.06,0,0,1-.68-1,3.61,3.61,0,0,1-.25-1.44,3.21,3.21,0,0,1,.52-1.88,3.11,3.11,0,0,1,1.53-1.16,6.48,6.48,0,0,1,2.48-.4,7.69,7.69,0,0,1,.83,0,5.66,5.66,0,0,1,.82.16,8.29,8.29,0,0,1,.79.28,7.09,7.09,0,0,1,.78.39,1,1,0,0,1,.71.88,1.85,1.85,0,0,1-.39,1.15,2,2,0,0,1-.53.54.83.83,0,0,1-.57.12,3.53,3.53,0,0,1-.8-.31,8,8,0,0,0-.89-.4,2.45,2.45,0,0,0-.93-.19,1.88,1.88,0,0,0-.67.11,1.09,1.09,0,0,0-.42.27.72.72,0,0,0,0,.88,1.25,1.25,0,0,0,.47.28,4.73,4.73,0,0,0,.69.21l.85.19a11.28,11.28,0,0,1,1.28.31,4.48,4.48,0,0,1,1.19.56,2.91,2.91,0,0,1,.88,1,3.5,3.5,0,0,1,.33,1.63,3.29,3.29,0,0,1-1.27,2.79A5.88,5.88,0,0,1,309.85,34.14Z"/><path class="cls-2" d="M92.62,31.39a2.89,2.89,0,0,1,.3,1,1,1,0,0,1-.24.71,2.78,2.78,0,0,1-.87.61,1.89,1.89,0,0,1-1.42.27,2,2,0,0,1-.94-1.1l-4.51-9.43-4.49,9.42a1.46,1.46,0,0,1-2.37.81,2.62,2.62,0,0,1-.87-.59,1,1,0,0,1-.24-.74,2.7,2.7,0,0,1,.33-1l6.06-12.57A1.73,1.73,0,0,1,84,18a1.8,1.8,0,0,1,.93-.28,1.7,1.7,0,0,1,.64.13,1.76,1.76,0,0,1,.54.36,1.88,1.88,0,0,1,.41.55ZM81.08,30.07l1.42-3h4.9l1.43,3Z"/><path class="cls-2" d="M100.19,33.92a5.85,5.85,0,0,1-2.06-.38,6.33,6.33,0,0,1-1.93-1.11,5.58,5.58,0,0,1-1.42-1.85,5.81,5.81,0,0,1-.52-2.53,5.48,5.48,0,0,1,1.93-4.32,6.17,6.17,0,0,1,1.92-1.11,5.82,5.82,0,0,1,2-.38,5.25,5.25,0,0,1,1.53.2,4.92,4.92,0,0,1,1.15.47,3.07,3.07,0,0,1,.67.48,7.08,7.08,0,0,1,.69.6,1,1,0,0,1,.28.78,1.55,1.55,0,0,1-.16.52,3.78,3.78,0,0,1-.35.54q-.7,1-1.38.87a1.9,1.9,0,0,1-.63-.23c-.19-.11-.38-.21-.55-.32a5.93,5.93,0,0,0-.56-.29,1.84,1.84,0,0,0-.69-.13A2.38,2.38,0,0,0,99,26a2.47,2.47,0,0,0-.84.83,2.41,2.41,0,0,0,.82,3.25,2.32,2.32,0,0,0,1.17.31,2,2,0,0,0,.66-.1,2.45,2.45,0,0,0,.51-.21l.32-.2.53-.33a1,1,0,0,1,.51-.15,1.17,1.17,0,0,1,.68.24,3.94,3.94,0,0,1,.74.77,1.9,1.9,0,0,1,.45.9,1.09,1.09,0,0,1-.2.79,2.25,2.25,0,0,1-.78.7,3.67,3.67,0,0,1-.65.42,6.7,6.7,0,0,1-1.15.46A5.61,5.61,0,0,1,100.19,33.92Z"/><path class="cls-2" d="M112.1,34a5.65,5.65,0,0,1-2.15-.43,6.42,6.42,0,0,1-1.94-1.2,5.76,5.76,0,0,1-1.39-1.88,5.55,5.55,0,0,1-.52-2.43,5.78,5.78,0,0,1,.47-2.31,6.31,6.31,0,0,1,1.3-1.89,6.12,6.12,0,0,1,1.9-1.3,5.56,5.56,0,0,1,2.29-.47,5.77,5.77,0,0,1,3,.79,6,6,0,0,1,2.15,2.15,6.2,6.2,0,0,1,.29,5.51,5.94,5.94,0,0,1-1.39,1.88,6,6,0,0,1-1.91,1.18A5.71,5.71,0,0,1,112.1,34Zm0-3.47a2.5,2.5,0,0,0,1.12-.28,2.47,2.47,0,0,0,1-.82,2.4,2.4,0,0,0,.39-1.41,2.57,2.57,0,0,0-.32-1.29,2.34,2.34,0,0,0-.88-.86,2.74,2.74,0,0,0-1.3-.31,2.4,2.4,0,0,0-1.23.32,2.42,2.42,0,0,0-.88.89,2.7,2.7,0,0,0,0,2.66,2.3,2.3,0,0,0,1,.83A2.63,2.63,0,0,0,112.06,30.55Z"/><path class="cls-2" d="M121.55,33.84a2.13,2.13,0,0,1-1.19-.25,1,1,0,0,1-.44-.65,4.5,4.5,0,0,1-.07-.85V24a3.62,3.62,0,0,1,.08-.82,1,1,0,0,1,.45-.64,2.31,2.31,0,0,1,1.22-.24,1.91,1.91,0,0,1,1.24.34,1.35,1.35,0,0,1,.39,1.09l-.3.25a2.3,2.3,0,0,1,.27-.39,5.61,5.61,0,0,1,.6-.57,4.09,4.09,0,0,1,.87-.52,2.69,2.69,0,0,1,1.07-.22,4.13,4.13,0,0,1,1.36.22,3.45,3.45,0,0,1,1.11.65,4,4,0,0,1,.86,1.07,5.84,5.84,0,0,1,.78-.9,4.39,4.39,0,0,1,1.08-.74,3.38,3.38,0,0,1,1.41-.29,3.71,3.71,0,0,1,2.28.68A4.09,4.09,0,0,1,136.05,25a8.62,8.62,0,0,1,.48,3.06v4.12a3.33,3.33,0,0,1-.1.84,1.06,1.06,0,0,1-.44.64,2.27,2.27,0,0,1-1.21.24,2.2,2.2,0,0,1-1.22-.25,1,1,0,0,1-.44-.66,5.71,5.71,0,0,1-.07-.84V28a3.72,3.72,0,0,0-.17-1.18,1.77,1.77,0,0,0-.5-.76,1.23,1.23,0,0,0-.83-.26,1.51,1.51,0,0,0-.89.25,1.55,1.55,0,0,0-.56.73,3.67,3.67,0,0,0-.18,1.25v4.11a3,3,0,0,1-.12.87,1.14,1.14,0,0,1-.49.64,2.37,2.37,0,0,1-1.24.22,1.91,1.91,0,0,1-1.15-.27,1,1,0,0,1-.41-.67,5.42,5.42,0,0,1-.07-.81V28a4.25,4.25,0,0,0-.16-1.2,1.47,1.47,0,0,0-.49-.75,1.33,1.33,0,0,0-.85-.26,1.43,1.43,0,0,0-.94.3,1.65,1.65,0,0,0-.54.79A3.55,3.55,0,0,0,123.3,28v4.14a4.46,4.46,0,0,1-.08.85,1,1,0,0,1-.45.63A2.31,2.31,0,0,1,121.55,33.84Z"/><path class="cls-2" d="M140.36,38.62a2.32,2.32,0,0,1-1.19-.25.91.91,0,0,1-.44-.62,5.09,5.09,0,0,1-.07-.81V24.08a4.32,4.32,0,0,1,.07-.84,1,1,0,0,1,.43-.63,2,2,0,0,1,1.18-.25,2.59,2.59,0,0,1,1.14.2,1.25,1.25,0,0,1,.61.65v13.7a3.17,3.17,0,0,1-.07.83,1,1,0,0,1-.45.63A2.16,2.16,0,0,1,140.36,38.62Zm4.42-5a4.12,4.12,0,0,1-2-.45A4.18,4.18,0,0,1,141.39,32a5.65,5.65,0,0,1-.85-1.78,7.4,7.4,0,0,1-.26-2.19,7.6,7.6,0,0,1,.3-2.15,6.06,6.06,0,0,1,.86-1.81,3.9,3.9,0,0,1,3.35-1.69,4.42,4.42,0,0,1,2,.46,5.84,5.84,0,0,1,1.69,1.25,6,6,0,0,1,1.17,1.83,5.77,5.77,0,0,1,.42,2.19,5.67,5.67,0,0,1-.42,2.17A5.73,5.73,0,0,1,148.46,32a5.47,5.47,0,0,1-1.68,1.19A4.85,4.85,0,0,1,144.78,33.65Zm-.46-3.24a2.2,2.2,0,0,0,1.15-.31,2.44,2.44,0,0,0,.82-.84,2.25,2.25,0,0,0,.31-1.17,2.38,2.38,0,0,0-.3-1.18,2.15,2.15,0,0,0-.81-.83,2.25,2.25,0,0,0-3.37,2,2.38,2.38,0,0,0,.3,1.18,2.3,2.3,0,0,0,.8.84A2.15,2.15,0,0,0,144.32,30.41Z"/><path class="cls-2" d="M161.32,33.84a2.18,2.18,0,0,1-1.27-.3.83.83,0,0,1-.39-.73l.23-.39a2.48,2.48,0,0,1-.52.56,4.3,4.3,0,0,1-1,.6,4.08,4.08,0,0,1-1.53.26,4.52,4.52,0,0,1-2-.46,5.37,5.37,0,0,1-1.69-1.28,6.46,6.46,0,0,1-1.17-1.85,5.6,5.6,0,0,1-.44-2.19,5.39,5.39,0,0,1,.44-2.14,6,6,0,0,1,1.19-1.82,5.54,5.54,0,0,1,1.69-1.25,4.45,4.45,0,0,1,2-.46,3.89,3.89,0,0,1,1.45.24,4.09,4.09,0,0,1,1,.56,3.5,3.5,0,0,1,.61.62l-.21-.32a1,1,0,0,1,.4-.84,2.27,2.27,0,0,1,1.28-.28,2.07,2.07,0,0,1,1.18.25,1,1,0,0,1,.44.67,4.85,4.85,0,0,1,.08.87V32.1A4,4,0,0,1,163,33a1,1,0,0,1-.43.65A2.27,2.27,0,0,1,161.32,33.84Zm-4-3.43a2,2,0,0,0,1.1-.3,2.42,2.42,0,0,0,.78-.84,2.38,2.38,0,0,0,.3-1.18,2.3,2.3,0,0,0-.3-1.18,2.1,2.1,0,0,0-.8-.82,2.3,2.3,0,0,0-2.29,0,2.47,2.47,0,0,0-.83.84,2.38,2.38,0,0,0-.31,1.2,2.2,2.2,0,0,0,.31,1.13,2.26,2.26,0,0,0,.85.83A2.32,2.32,0,0,0,157.3,30.41Z"/><path class="cls-2" d="M167.07,33.85a2.27,2.27,0,0,1-1.21-.24,1,1,0,0,1-.43-.65,3.86,3.86,0,0,1-.08-.84V24a4.12,4.12,0,0,1,.08-.81.91.91,0,0,1,.45-.61,2.45,2.45,0,0,1,1.22-.23,2.27,2.27,0,0,1,1.08.2.92.92,0,0,1,.45.47,1.45,1.45,0,0,1,.1.52.8.8,0,0,0,.05.33l-.14.44a1.31,1.31,0,0,1,.36-.7,3,3,0,0,1,.78-.65,4.38,4.38,0,0,1,1-.45,4,4,0,0,1,1.07-.16,4.59,4.59,0,0,1,2,.41,4,4,0,0,1,1.46,1.16,5.43,5.43,0,0,1,.9,1.78A7.6,7.6,0,0,1,176.5,28v4.18a4.6,4.6,0,0,1-.08.84.92.92,0,0,1-.44.63,3.31,3.31,0,0,1-2.45,0,1,1,0,0,1-.45-.64,4.6,4.6,0,0,1-.08-.84V28a2.6,2.6,0,0,0-.24-1.17,1.71,1.71,0,0,0-.69-.74A2.24,2.24,0,0,0,171,25.8a2.44,2.44,0,0,0-1.15.26,1.93,1.93,0,0,0-.75.75A2.44,2.44,0,0,0,168.8,28v4.19a3.86,3.86,0,0,1-.09.84,1,1,0,0,1-.43.63A2.38,2.38,0,0,1,167.07,33.85Zm2.63-16.49a1.49,1.49,0,0,1,.93.26,6.32,6.32,0,0,1,.59.54.7.7,0,0,0,.53.28.62.62,0,0,0,.49-.23l.42-.47a.87.87,0,0,1,.56-.29,1,1,0,0,1,.43,0,1.27,1.27,0,0,1,.49.23,1.85,1.85,0,0,1,.75.77,1.08,1.08,0,0,1-.18.94,3,3,0,0,1-.64.86,3.56,3.56,0,0,1-1,.68,2.73,2.73,0,0,1-1.08.25,1.39,1.39,0,0,1-.89-.28,7.09,7.09,0,0,1-.63-.55.78.78,0,0,0-.57-.28,1.41,1.41,0,0,0-.83.22,2,2,0,0,0-.46.45,1.07,1.07,0,0,1-.43.36c-.14,0-.4-.06-.77-.32a1.68,1.68,0,0,1-.66-.84A1.14,1.14,0,0,1,167,19a3.15,3.15,0,0,1,.74-.82,4.23,4.23,0,0,1,1-.62A2.33,2.33,0,0,1,169.7,17.36Z"/><path class="cls-2" d="M188.14,33.86a2.18,2.18,0,0,1-1.27-.3.85.85,0,0,1-.39-.74l.23-.39a2.58,2.58,0,0,1-.53.57,3.75,3.75,0,0,1-1,.59,3.88,3.88,0,0,1-1.53.27,4.63,4.63,0,0,1-2-.46,5.52,5.52,0,0,1-1.69-1.28,6.86,6.86,0,0,1-1.18-1.85,5.59,5.59,0,0,1-.43-2.19,5.44,5.44,0,0,1,.44-2.15,6,6,0,0,1,2.87-3.07,4.63,4.63,0,0,1,2-.46,3.87,3.87,0,0,1,2.44.81,2.93,2.93,0,0,1,.61.62l-.2-.32a1,1,0,0,1,.4-.84,2.24,2.24,0,0,1,1.28-.29,2.08,2.08,0,0,1,1.18.26,1.06,1.06,0,0,1,.44.66,5,5,0,0,1,.08.88v7.93a4,4,0,0,1-.08.85,1,1,0,0,1-.44.66A2.22,2.22,0,0,1,188.14,33.86Zm-4-3.43a2,2,0,0,0,1.11-.31,2.42,2.42,0,0,0,.78-.84,2.33,2.33,0,0,0-.8-3.17,2.2,2.2,0,0,0-1.13-.3,2.17,2.17,0,0,0-1.16.31,2.23,2.23,0,0,0-.83.84,2.27,2.27,0,0,0-.31,1.19,2.12,2.12,0,0,0,.31,1.14,2.33,2.33,0,0,0,.85.83A2.29,2.29,0,0,0,184.11,30.43Z"/><path class="cls-2" d="M193.89,33.89a2.16,2.16,0,0,1-1.21-.25,1,1,0,0,1-.44-.65,4.8,4.8,0,0,1-.08-.85v-8a3.78,3.78,0,0,1,.08-.85,1,1,0,0,1,.45-.63,3.19,3.19,0,0,1,2.38,0,1,1,0,0,1,.45.5,1.71,1.71,0,0,1,.09.5l-.28.13a2.36,2.36,0,0,1,.24-.33,3,3,0,0,1,.54-.5,3,3,0,0,1,.84-.45,3.32,3.32,0,0,1,1.14-.19c.17,0,.36,0,.57,0a3.21,3.21,0,0,1,.64.14,2.82,2.82,0,0,1,.61.27,1.68,1.68,0,0,1,.45.43,1.13,1.13,0,0,1,.17.62,2.84,2.84,0,0,1-.44,1.6A1.28,1.28,0,0,1,199,26a2.2,2.2,0,0,1-.55-.05,1.13,1.13,0,0,1-.27-.14,1,1,0,0,0-.24-.14,1.44,1.44,0,0,0-.51-.06,2.32,2.32,0,0,0-.65.09,1.86,1.86,0,0,0-.58.29,1.46,1.46,0,0,0-.41.48,1.43,1.43,0,0,0-.15.66v5a3.7,3.7,0,0,1-.09.83,1,1,0,0,1-.44.64A2.48,2.48,0,0,1,193.89,33.89Z"/><path class="cls-2" d="M212.77,33.9a14,14,0,0,1-1.68-.09,3.7,3.7,0,0,1-1.24-.37,2.35,2.35,0,0,1-.83-.77,3.7,3.7,0,0,1-.48-1.27,9.29,9.29,0,0,1-.16-1.9V18.88a4.61,4.61,0,0,1,.1-.86,1.09,1.09,0,0,1,.45-.64,3,3,0,0,1,2.39,0,1.08,1.08,0,0,1,.45.65,3.76,3.76,0,0,1,.09.85V29.34a3.44,3.44,0,0,0,0,.61.78.78,0,0,0,.13.38.53.53,0,0,0,.29.19,2.09,2.09,0,0,0,.48,0,2.78,2.78,0,0,1,.57.07.85.85,0,0,1,.49.42,2.32,2.32,0,0,1,.21,1.15,2.5,2.5,0,0,1-.21,1.19.82.82,0,0,1-.49.44A2.38,2.38,0,0,1,212.77,33.9Z"/><path class="cls-2" d="M221.26,34.09a5.85,5.85,0,0,1-2.15-.43,6.49,6.49,0,0,1-2-1.21,5.9,5.9,0,0,1-1.39-1.87,5.69,5.69,0,0,1-.51-2.43,5.55,5.55,0,0,1,.47-2.31,6.18,6.18,0,0,1,1.3-1.9,6.36,6.36,0,0,1,1.9-1.3,5.65,5.65,0,0,1,2.29-.47,5.81,5.81,0,0,1,3,.8,6.07,6.07,0,0,1,2.15,2.15,5.84,5.84,0,0,1,.8,3,5.71,5.71,0,0,1-1.9,4.37,6,6,0,0,1-4,1.59Zm0-3.48a2.6,2.6,0,0,0,2.1-1.1,2.36,2.36,0,0,0,.39-1.4,2.57,2.57,0,0,0-.32-1.29,2.23,2.23,0,0,0-.89-.86,2.6,2.6,0,0,0-1.3-.31A2.3,2.3,0,0,0,220,26a2.45,2.45,0,0,0-.87.88,2.4,2.4,0,0,0-.34,1.28,2.45,2.45,0,0,0,.38,1.39,2.26,2.26,0,0,0,1,.83A2.58,2.58,0,0,0,221.21,30.61Z"/><path class="cls-2" d="M233.17,34.09a7.59,7.59,0,0,1-1.36-.13,8.18,8.18,0,0,1-1.41-.41,4.46,4.46,0,0,1-1.15-.62,1.16,1.16,0,0,1-.52-.82,1.36,1.36,0,0,1,0-.49,2.21,2.21,0,0,1,.21-.55,4.52,4.52,0,0,1,.4-.61.8.8,0,0,1,.41-.32.92.92,0,0,1,.54,0,3.46,3.46,0,0,1,.73.24l.76.37a7.32,7.32,0,0,0,.81.35,2.45,2.45,0,0,0,.85.15,2.11,2.11,0,0,0,1-.2.6.6,0,0,0,.36-.54.56.56,0,0,0-.15-.41,1.23,1.23,0,0,0-.42-.28,4.38,4.38,0,0,0-.62-.22l-.75-.19c-.26-.07-.53-.14-.82-.24a6.66,6.66,0,0,1-1.1-.41,3.57,3.57,0,0,1-1-.66,2.73,2.73,0,0,1-.68-1,3.59,3.59,0,0,1-.25-1.43,3.26,3.26,0,0,1,.52-1.89,3.23,3.23,0,0,1,1.53-1.16,6.68,6.68,0,0,1,2.48-.4,7.7,7.7,0,0,1,.83.05,4.57,4.57,0,0,1,.82.16,8.19,8.19,0,0,1,.79.27,5.76,5.76,0,0,1,.78.4,1,1,0,0,1,.71.87,2.22,2.22,0,0,1-.92,1.69.78.78,0,0,1-.57.13,4.16,4.16,0,0,1-.8-.32c-.28-.14-.58-.27-.89-.4a2.64,2.64,0,0,0-.93-.18,1.86,1.86,0,0,0-.67.1.94.94,0,0,0-.42.28.62.62,0,0,0-.13.4.61.61,0,0,0,.17.47,1.26,1.26,0,0,0,.47.29l.69.21.85.18c.41.08.84.18,1.28.31a4.22,4.22,0,0,1,1.19.57,2.79,2.79,0,0,1,.88,1,3.51,3.51,0,0,1,.33,1.64,3.27,3.27,0,0,1-1.27,2.78A5.81,5.81,0,0,1,233.17,34.09Z"/><path class="cls-2" d="M246.75,22.6h2.53l3.17-.09a4.41,4.41,0,0,1,.83.08,1.06,1.06,0,0,1,.64.45,2.25,2.25,0,0,1,.25,1.22,2.14,2.14,0,0,1-.24,1.15,1,1,0,0,1-.63.47,3.24,3.24,0,0,1-.85.11l-3-.07-2.79,0a1.18,1.18,0,0,1-.93-.43,2.29,2.29,0,0,1-.26-1.28,2,2,0,0,1,.32-1.23A1.2,1.2,0,0,1,246.75,22.6Zm5.19,11.32a7.18,7.18,0,0,1-2-.25,3.27,3.27,0,0,1-1.39-.79,3.16,3.16,0,0,1-.8-1.34,6,6,0,0,1-.26-1.95V20.28a4.23,4.23,0,0,1,.08-.85,1,1,0,0,1,.45-.61,2.3,2.3,0,0,1,1.2-.24,2.13,2.13,0,0,1,1.19.25,1,1,0,0,1,.45.66,4.6,4.6,0,0,1,.08.84v9.13a2.68,2.68,0,0,0,.05.61.86.86,0,0,0,.17.36.73.73,0,0,0,.33.16,2.35,2.35,0,0,0,.5,0,3.49,3.49,0,0,1,.9.1,1,1,0,0,1,.61.41,2,2,0,0,1,.22,1.08,2.18,2.18,0,0,1-.26,1.2,1,1,0,0,1-.65.43A4.61,4.61,0,0,1,251.94,33.92Z"/><path class="cls-2" d="M257.66,33.93a2.33,2.33,0,0,1-1.2-.25A1,1,0,0,1,256,33a4.8,4.8,0,0,1-.08-.85v-8a3.78,3.78,0,0,1,.08-.85,1,1,0,0,1,.45-.63,2.2,2.2,0,0,1,1.21-.24,2.43,2.43,0,0,1,1.17.21,1,1,0,0,1,.44.51,1.47,1.47,0,0,1,.1.5l-.28.13a2.36,2.36,0,0,1,.24-.33,3.38,3.38,0,0,1,.54-.51,3.31,3.31,0,0,1,.84-.44,3.1,3.1,0,0,1,1.14-.19,3.78,3.78,0,0,1,.56,0,3.16,3.16,0,0,1,.65.14,3.05,3.05,0,0,1,.61.27,1.68,1.68,0,0,1,.45.43,1.1,1.1,0,0,1,.17.62,2.84,2.84,0,0,1-.44,1.6,1.3,1.3,0,0,1-1.1.65,1.79,1.79,0,0,1-.56-.06.9.9,0,0,1-.26-.13,1,1,0,0,0-.24-.14,1.44,1.44,0,0,0-.51-.06,2.27,2.27,0,0,0-.65.09,1.86,1.86,0,0,0-.58.29,1.35,1.35,0,0,0-.41.48,1.4,1.4,0,0,0-.15.66v5a3.74,3.74,0,0,1-.08.84.94.94,0,0,1-.45.64A2.43,2.43,0,0,1,257.66,33.93Z"/><path class="cls-2" d="M275.51,33.91a2.15,2.15,0,0,1-1.26-.3.8.8,0,0,1-.39-.73l.23-.39a2.85,2.85,0,0,1-.53.56,3.94,3.94,0,0,1-1,.6,4.08,4.08,0,0,1-1.53.26,4.55,4.55,0,0,1-2-.46,5.48,5.48,0,0,1-1.69-1.28,6.46,6.46,0,0,1-1.17-1.85,5.6,5.6,0,0,1-.44-2.19,5.66,5.66,0,0,1,.44-2.15,6.11,6.11,0,0,1,1.19-1.81A5.88,5.88,0,0,1,269,22.91a4.61,4.61,0,0,1,2-.45,3.89,3.89,0,0,1,1.45.24,4.09,4.09,0,0,1,1,.56,3.5,3.5,0,0,1,.61.62l-.21-.32a1,1,0,0,1,.41-.84,2.21,2.21,0,0,1,1.27-.28,2.13,2.13,0,0,1,1.19.25,1,1,0,0,1,.43.67,4,4,0,0,1,.08.87v7.94a4.8,4.8,0,0,1-.08.85,1,1,0,0,1-.44.65A2.27,2.27,0,0,1,275.51,33.91Zm-4-3.43a2,2,0,0,0,1.1-.31,2.21,2.21,0,0,0,.79-.84,2.45,2.45,0,0,0,0-2.35,2.2,2.2,0,0,0-.81-.82,2.13,2.13,0,0,0-1.12-.3,2.23,2.23,0,0,0-1.17.31,2.36,2.36,0,0,0-.82.84,2.28,2.28,0,0,0-.32,1.19,2.21,2.21,0,0,0,.31,1.14,2.29,2.29,0,0,0,.86.83A2.26,2.26,0,0,0,271.49,30.48Z"/><path class="cls-2" d="M280.8,33.94a1.73,1.73,0,0,1-1.57-2.39,1.58,1.58,0,0,1,.38-.58l5.22-5.06h-3.49a3.73,3.73,0,0,1-.84-.09,1.12,1.12,0,0,1-.67-.45,2.07,2.07,0,0,1-.26-1.21,2,2,0,0,1,.26-1.2,1.07,1.07,0,0,1,.67-.44,4.6,4.6,0,0,1,.84-.08h7.2a1.68,1.68,0,0,1,1.22.49,1.66,1.66,0,0,1,.48,1.22,1.85,1.85,0,0,1-.13.7,1.29,1.29,0,0,1-.36.54l-5.11,5.08h4.17a3.82,3.82,0,0,1,.85.09,1,1,0,0,1,.63.46,2.35,2.35,0,0,1,.24,1.22,2.19,2.19,0,0,1-.25,1.2,1,1,0,0,1-.65.44,5.57,5.57,0,0,1-.85.06Z"/><path class="cls-2" d="M297.94,34.13a5.83,5.83,0,0,1-2.15-.42,6.7,6.7,0,0,1-2-1.21,5.94,5.94,0,0,1-1.39-1.88,5.64,5.64,0,0,1-.51-2.42,5.8,5.8,0,0,1,.47-2.32,6.28,6.28,0,0,1,3.2-3.19,5.65,5.65,0,0,1,2.29-.47,5.8,5.8,0,0,1,3,.79,6,6,0,0,1,2.15,2.16,5.84,5.84,0,0,1,.8,3,5.73,5.73,0,0,1-.52,2.5A5.83,5.83,0,0,1,302,32.55,6,6,0,0,1,300,33.73,5.79,5.79,0,0,1,297.94,34.13Zm-.05-3.47a2.63,2.63,0,0,0,1.13-.27,2.57,2.57,0,0,0,1-.83,2.4,2.4,0,0,0,.39-1.41,2.51,2.51,0,0,0-.32-1.28,2.32,2.32,0,0,0-.89-.87,2.71,2.71,0,0,0-1.3-.31,2.4,2.4,0,0,0-1.23.32,2.48,2.48,0,0,0-.87.89,2.37,2.37,0,0,0-.34,1.27,2.48,2.48,0,0,0,.38,1.4,2.33,2.33,0,0,0,1,.83A2.73,2.73,0,0,0,297.89,30.66Z"/><path class="cls-2" d="M309.85,34.14a7.66,7.66,0,0,1-1.36-.14,8.16,8.16,0,0,1-1.41-.4,5.16,5.16,0,0,1-1.15-.62,1.19,1.19,0,0,1-.52-.82,1.41,1.41,0,0,1,0-.5,2.55,2.55,0,0,1,.21-.55,4.34,4.34,0,0,1,.41-.61.85.85,0,0,1,.4-.32.93.93,0,0,1,.54,0,2.6,2.6,0,0,1,.73.24c.25.11.5.24.76.37a7.27,7.27,0,0,0,.81.34,2.45,2.45,0,0,0,.85.15,2.12,2.12,0,0,0,1-.19.61.61,0,0,0,.21-1,1.22,1.22,0,0,0-.42-.27,4.38,4.38,0,0,0-.62-.22l-.75-.2c-.26-.06-.53-.14-.82-.23a7.7,7.7,0,0,1-1.1-.41,3.57,3.57,0,0,1-1-.66,3.06,3.06,0,0,1-.68-1,3.61,3.61,0,0,1-.25-1.44,3.21,3.21,0,0,1,.52-1.88,3.11,3.11,0,0,1,1.53-1.16,6.48,6.48,0,0,1,2.48-.4,7.69,7.69,0,0,1,.83,0,5.66,5.66,0,0,1,.82.16,8.29,8.29,0,0,1,.79.28,7.09,7.09,0,0,1,.78.39,1,1,0,0,1,.71.88,1.85,1.85,0,0,1-.39,1.15,2,2,0,0,1-.53.54.83.83,0,0,1-.57.12,3.53,3.53,0,0,1-.8-.31,8,8,0,0,0-.89-.4,2.45,2.45,0,0,0-.93-.19,1.88,1.88,0,0,0-.67.11,1.09,1.09,0,0,0-.42.27.72.72,0,0,0,0,.88,1.25,1.25,0,0,0,.47.28,4.73,4.73,0,0,0,.69.21l.85.19a11.28,11.28,0,0,1,1.28.31,4.48,4.48,0,0,1,1.19.56,2.91,2.91,0,0,1,.88,1,3.5,3.5,0,0,1,.33,1.63,3.29,3.29,0,0,1-1.27,2.79A5.88,5.88,0,0,1,309.85,34.14Z"/><path class="cls-4" d="M46,32.66h4.52q3.42,0,3.42,4a4,4,0,0,1-1.08,3.17,6,6,0,0,1-3.85.95H38A6.91,6.91,0,0,1,34.1,40c-.69-.52-1-1.63-1-3.34a5.64,5.64,0,0,1,.16-1.45,3.63,3.63,0,0,1,.62-1.2,5.18,5.18,0,0,1,1.22-1.13c1.47-1,2.62-1.82,3.46-2.44S40.2,29.13,41,28.44a12.68,12.68,0,0,0,1.77-1.76,10.41,10.41,0,0,0,1-1.66,6.12,6.12,0,0,0,.62-1.85A15.24,15.24,0,0,0,44.57,21c0-1.57-.47-2.36-1.42-2.36s-1.55.93-1.55,2.78a2,2,0,0,1-1,2,7,7,0,0,1-2.9.46c-1.73,0-2.91-.39-3.52-1.17a6.48,6.48,0,0,1-.91-3.91,5.45,5.45,0,0,1,2.51-4.55,11.66,11.66,0,0,1,7-1.83q11.07,0,11.07,8.69a14.05,14.05,0,0,1-.45,3.68,11.66,11.66,0,0,1-1.1,2.77,9.08,9.08,0,0,1-1.78,2.12,17.42,17.42,0,0,1-2.1,1.64A24.42,24.42,0,0,1,46,32.66Z"/><path class="cls-4" d="M56.66,37.58a2.75,2.75,0,0,1,1.16-2.31,5.31,5.31,0,0,1,3.28-.89q4.44,0,4.44,3.2a3.1,3.1,0,0,1-.57,2,2.8,2.8,0,0,1-1.51,1,9.68,9.68,0,0,1-2.36.25A6,6,0,0,1,57.92,40,2.61,2.61,0,0,1,56.66,37.58Z"/><path class="cls-5" d="M46,32.66h4.52q3.42,0,3.42,4a4,4,0,0,1-1.08,3.17,6,6,0,0,1-3.85.95H38A6.91,6.91,0,0,1,34.1,40c-.69-.52-1-1.63-1-3.34a5.64,5.64,0,0,1,.16-1.45,3.63,3.63,0,0,1,.62-1.2,5.18,5.18,0,0,1,1.22-1.13c1.47-1,2.62-1.82,3.46-2.44S40.2,29.13,41,28.44a12.68,12.68,0,0,0,1.77-1.76,10.41,10.41,0,0,0,1-1.66,6.12,6.12,0,0,0,.62-1.85A15.24,15.24,0,0,0,44.57,21c0-1.57-.47-2.36-1.42-2.36s-1.55.93-1.55,2.78a2,2,0,0,1-1,2,7,7,0,0,1-2.9.46c-1.73,0-2.91-.39-3.52-1.17a6.48,6.48,0,0,1-.91-3.91,5.45,5.45,0,0,1,2.51-4.55,11.66,11.66,0,0,1,7-1.83q11.07,0,11.07,8.69a14.05,14.05,0,0,1-.45,3.68,11.66,11.66,0,0,1-1.1,2.77,9.08,9.08,0,0,1-1.78,2.12,17.42,17.42,0,0,1-2.1,1.64A24.42,24.42,0,0,1,46,32.66Z"/><path class="cls-5" d="M56.66,37.58a2.75,2.75,0,0,1,1.16-2.31,5.31,5.31,0,0,1,3.28-.89q4.44,0,4.44,3.2a3.1,3.1,0,0,1-.57,2,2.8,2.8,0,0,1-1.51,1,9.68,9.68,0,0,1-2.36.25A6,6,0,0,1,57.92,40,2.61,2.61,0,0,1,56.66,37.58Z"/></g></g></svg>