<svg xmlns="http://www.w3.org/2000/svg" viewBox="0 0 399.98 98.13"><defs><style>.cls-1{fill:#c49e00;}.cls-2{fill:#fff;}.cls-3,.cls-4{fill:none;stroke-width:5px;}.cls-3{stroke:#148adb;stroke-linejoin:round;}.cls-4{stroke:#fff;}.cls-5{fill:#148adb;}</style></defs><title>t3</title><g id="Layer_2" data-name="Layer 2"><g id="Pestaña_Paso_4" data-name="Pestaña Paso 4"><rect class="cls-1" width="399.98" height="98.13" rx="32.4"/><path class="cls-2" d="M79.6,33.82a2.21,2.21,0,0,1-1.22-.26,1,1,0,0,1-.45-.66,4.8,4.8,0,0,1-.08-.85V19.49a3.86,3.86,0,0,1,.09-.84,1.13,1.13,0,0,1,.46-.66,2.25,2.25,0,0,1,1.22-.25h4.72a5.84,5.84,0,0,1,1.93.35,5.67,5.67,0,0,1,1.83,1.07,5.45,5.45,0,0,1,1.35,1.78A5.57,5.57,0,0,1,90,23.43a5.32,5.32,0,0,1-1.88,4.23,5.83,5.83,0,0,1-1.83,1.06,5.89,5.89,0,0,1-2,.34H81.38v3a3.86,3.86,0,0,1-.09.84,1.05,1.05,0,0,1-.46.66A2.29,2.29,0,0,1,79.6,33.82Zm1.78-8.26h3a2.53,2.53,0,0,0,1-.21,2,2,0,0,0,.83-.7,2.12,2.12,0,0,0,.34-1.25,2.15,2.15,0,0,0-.29-1.12,2,2,0,0,0-.77-.76,2.18,2.18,0,0,0-1.13-.28H81.38Z"/><path class="cls-2" d="M97.45,34a5.83,5.83,0,0,1-2.15-.42,6.65,6.65,0,0,1-1.94-1.21A5.65,5.65,0,0,1,92,30.5a5.55,5.55,0,0,1-.52-2.43,5.78,5.78,0,0,1,.47-2.31,6.31,6.31,0,0,1,1.3-1.89,6.12,6.12,0,0,1,1.9-1.3,5.69,5.69,0,0,1,2.29-.47,5.8,5.8,0,0,1,3,.79,6,6,0,0,1,2.15,2.16,5.75,5.75,0,0,1,.8,3,5.66,5.66,0,0,1-.52,2.49,5.76,5.76,0,0,1-1.38,1.88,6,6,0,0,1-1.91,1.18A5.75,5.75,0,0,1,97.45,34Zm0-3.47a2.51,2.51,0,0,0,1.13-.28,2.46,2.46,0,0,0,1-.82A2.4,2.4,0,0,0,99.89,28a2.51,2.51,0,0,0-.32-1.28,2.32,2.32,0,0,0-.89-.87,2.69,2.69,0,0,0-1.3-.31,2.4,2.4,0,0,0-1.23.32A2.49,2.49,0,0,0,95,28.05a2.4,2.4,0,0,0,.37,1.4,2.29,2.29,0,0,0,1,.82A2.63,2.63,0,0,0,97.4,30.54Z"/><path class="cls-2" d="M109.36,34a7.55,7.55,0,0,1-1.35-.14,8,8,0,0,1-1.42-.4,5.39,5.39,0,0,1-1.15-.62,1.18,1.18,0,0,1-.51-.82,1.06,1.06,0,0,1,0-.5,2.06,2.06,0,0,1,.2-.55,4.34,4.34,0,0,1,.41-.61.85.85,0,0,1,.4-.32.93.93,0,0,1,.54,0,2.66,2.66,0,0,1,.74.24l.76.37a7.11,7.11,0,0,0,.8.34,2.5,2.5,0,0,0,.85.15,2.12,2.12,0,0,0,1-.19.61.61,0,0,0,.21-1,1.09,1.09,0,0,0-.42-.27,4.38,4.38,0,0,0-.62-.22c-.23-.07-.48-.14-.74-.2s-.54-.14-.83-.23a9,9,0,0,1-1.09-.41,3.62,3.62,0,0,1-1-.66,3.06,3.06,0,0,1-.68-1,3.61,3.61,0,0,1-.25-1.44,3.21,3.21,0,0,1,.52-1.88,3.15,3.15,0,0,1,1.53-1.16,6.48,6.48,0,0,1,2.48-.4,7.56,7.56,0,0,1,.83,0,5.66,5.66,0,0,1,.82.16,7.41,7.41,0,0,1,.79.28,7.09,7.09,0,0,1,.78.39,1.06,1.06,0,0,1,.72.88,1.88,1.88,0,0,1-.4,1.14,1.75,1.75,0,0,1-.53.55.83.83,0,0,1-.57.12,3.3,3.3,0,0,1-.79-.31,9.1,9.1,0,0,0-.9-.4,2.38,2.38,0,0,0-.93-.19,1.92,1.92,0,0,0-.67.11,1,1,0,0,0-.41.27.65.65,0,0,0-.14.4.69.69,0,0,0,.17.48,1.33,1.33,0,0,0,.47.28,4.73,4.73,0,0,0,.69.21l.85.19a10.79,10.79,0,0,1,1.28.31,4.4,4.4,0,0,1,1.2.56,2.79,2.79,0,0,1,.87,1,3.47,3.47,0,0,1,.33,1.63A3.3,3.3,0,0,1,113,33.06,5.86,5.86,0,0,1,109.36,34Z"/><path class="cls-2" d="M116.94,22.52h2.53l3.17-.09a3.71,3.71,0,0,1,.83.08,1,1,0,0,1,.64.45,2.2,2.2,0,0,1,.25,1.22,2.1,2.1,0,0,1-.24,1.14,1.06,1.06,0,0,1-.63.48,3.74,3.74,0,0,1-.85.1l-3-.07-2.79,0a1.15,1.15,0,0,1-.93-.43,2.27,2.27,0,0,1-.26-1.27,2,2,0,0,1,.32-1.23A1.18,1.18,0,0,1,116.94,22.52Zm5.19,11.32a7.18,7.18,0,0,1-2-.25,3.37,3.37,0,0,1-1.39-.78,3.2,3.2,0,0,1-.8-1.35,5.92,5.92,0,0,1-.26-1.94V20.2a4.31,4.31,0,0,1,.08-.85,1,1,0,0,1,.45-.61,2.3,2.3,0,0,1,1.2-.24,2.22,2.22,0,0,1,1.19.25,1,1,0,0,1,.45.66,4.6,4.6,0,0,1,.08.84v9.13a2.62,2.62,0,0,0,.05.61.86.86,0,0,0,.17.36.73.73,0,0,0,.33.16,2.35,2.35,0,0,0,.5,0,4.66,4.66,0,0,1,.9.1,1,1,0,0,1,.61.41,2.08,2.08,0,0,1,.22,1.08,2.18,2.18,0,0,1-.26,1.2,1,1,0,0,1-.65.43A4.61,4.61,0,0,1,122.13,33.84Z"/><path class="cls-2" d="M131.07,33.83a4.78,4.78,0,0,1-2-.42,5,5,0,0,1-1.61-1.16,5.25,5.25,0,0,1-1.06-1.77,6.29,6.29,0,0,1-.38-2.25V24.07a4.46,4.46,0,0,1,.08-.85,1,1,0,0,1,.45-.64,2.21,2.21,0,0,1,1.22-.26,2.15,2.15,0,0,1,1.21.26,1.05,1.05,0,0,1,.43.65,4,4,0,0,1,.08.87v4.14a2.64,2.64,0,0,0,.24,1.16,1.66,1.66,0,0,0,.71.75,2.47,2.47,0,0,0,1.12.25,2.4,2.4,0,0,0,1.14-.26,1.88,1.88,0,0,0,.73-.75,2.33,2.33,0,0,0,.27-1.15V24.05a4.54,4.54,0,0,1,.08-.85,1,1,0,0,1,.45-.63,2.33,2.33,0,0,1,1.22-.24,2.16,2.16,0,0,1,1.21.25,1.06,1.06,0,0,1,.44.66,4.6,4.6,0,0,1,.08.84v8.09a4.15,4.15,0,0,1-.08.82.91.91,0,0,1-.45.61,2.39,2.39,0,0,1-1.2.23,2.71,2.71,0,0,1-1-.14,1.26,1.26,0,0,1-.51-.34,1,1,0,0,1-.19-.44,2.19,2.19,0,0,1,0-.42l.3-.25a1.71,1.71,0,0,1-.3.36,5.14,5.14,0,0,1-.61.53,4.1,4.1,0,0,1-.88.49A3.07,3.07,0,0,1,131.07,33.83Z"/><path class="cls-2" d="M141.19,33.86a2.21,2.21,0,0,1-1.2-.25,1,1,0,0,1-.44-.65,4.8,4.8,0,0,1-.08-.85v-8a3.78,3.78,0,0,1,.08-.85,1,1,0,0,1,.45-.63,2.29,2.29,0,0,1,1.21-.24,2.43,2.43,0,0,1,1.17.21,1,1,0,0,1,.44.51,1.47,1.47,0,0,1,.1.49l-.28.14a2.36,2.36,0,0,1,.24-.33,3.38,3.38,0,0,1,.54-.51,3.31,3.31,0,0,1,.84-.44,3.1,3.1,0,0,1,1.14-.19,3.78,3.78,0,0,1,.56,0,3.16,3.16,0,0,1,.65.14,2.57,2.57,0,0,1,.61.27,1.68,1.68,0,0,1,.45.43,1.1,1.1,0,0,1,.17.62,2.84,2.84,0,0,1-.44,1.6,1.3,1.3,0,0,1-1.1.65,1.79,1.79,0,0,1-.56-.06.9.9,0,0,1-.26-.13,1,1,0,0,0-.24-.14,1.44,1.44,0,0,0-.51-.06,2.27,2.27,0,0,0-.65.09,1.86,1.86,0,0,0-.58.29,1.35,1.35,0,0,0-.41.48,1.4,1.4,0,0,0-.15.66v5a3.74,3.74,0,0,1-.08.84.94.94,0,0,1-.45.64A2.43,2.43,0,0,1,141.19,33.86Z"/><path class="cls-2" d="M159,33.84a2.13,2.13,0,0,1-1.26-.3.8.8,0,0,1-.39-.73l.23-.39a2.85,2.85,0,0,1-.53.56,3.94,3.94,0,0,1-1,.6,4.08,4.08,0,0,1-1.53.26,4.55,4.55,0,0,1-2-.46,5.48,5.48,0,0,1-1.69-1.28,6.46,6.46,0,0,1-1.17-1.85,5.6,5.6,0,0,1-.44-2.19,5.48,5.48,0,0,1,.44-2.15,6.11,6.11,0,0,1,1.19-1.81,5.67,5.67,0,0,1,1.69-1.25,4.48,4.48,0,0,1,2-.46,3.89,3.89,0,0,1,1.45.24,4.09,4.09,0,0,1,1,.56,3.2,3.2,0,0,1,.61.62l-.21-.32a1,1,0,0,1,.41-.84,2.21,2.21,0,0,1,1.27-.28,2.13,2.13,0,0,1,1.19.25,1,1,0,0,1,.43.67,4,4,0,0,1,.08.87V32.1a4.8,4.8,0,0,1-.08.85,1,1,0,0,1-.44.65A2.27,2.27,0,0,1,159,33.84Zm-4-3.43a2,2,0,0,0,1.1-.31,2.21,2.21,0,0,0,.79-.84,2.42,2.42,0,0,0,.3-1.17,2.3,2.3,0,0,0-.3-1.18,2.2,2.2,0,0,0-.81-.82,2.13,2.13,0,0,0-1.12-.3,2.23,2.23,0,0,0-1.17.31,2.36,2.36,0,0,0-.82.84,2.29,2.29,0,0,0-.32,1.2,2.2,2.2,0,0,0,.31,1.13,2.26,2.26,0,0,0,.85.83A2.32,2.32,0,0,0,155,30.41Z"/><path class="cls-2" d="M174.75,34a6.12,6.12,0,0,1-2.06-.38,6.58,6.58,0,0,1-1.93-1.12,5.29,5.29,0,0,1-1.41-1.84,5.84,5.84,0,0,1-.53-2.53,5.69,5.69,0,0,1,.53-2.51,5.47,5.47,0,0,1,1.4-1.81,6.36,6.36,0,0,1,1.93-1.12,6,6,0,0,1,2-.38,5.51,5.51,0,0,1,1.53.2,5.18,5.18,0,0,1,1.15.47,3.9,3.9,0,0,1,.68.49,5.9,5.9,0,0,1,.69.59,1,1,0,0,1,.27.79,1.16,1.16,0,0,1-.16.51,3.21,3.21,0,0,1-.34.54c-.48.65-.94.94-1.38.88a2.71,2.71,0,0,1-.64-.23l-.55-.33a4.18,4.18,0,0,0-.56-.28,1.67,1.67,0,0,0-.69-.13,2.31,2.31,0,0,0-1.2.31,2.38,2.38,0,0,0-.84.83,2.33,2.33,0,0,0-.31,1.2,2.32,2.32,0,0,0,1.14,2,2.17,2.17,0,0,0,1.16.31,2.31,2.31,0,0,0,.67-.09,1.79,1.79,0,0,0,.5-.22l.33-.19c.18-.13.36-.24.53-.34a.94.94,0,0,1,.5-.15,1.1,1.1,0,0,1,.68.25,3.94,3.94,0,0,1,.75.77,1.8,1.8,0,0,1,.44.89,1.12,1.12,0,0,1-.19.8,2.58,2.58,0,0,1-.78.7,4.44,4.44,0,0,1-.66.41,6.39,6.39,0,0,1-1.15.46A5.15,5.15,0,0,1,174.75,34Z"/><path class="cls-2" d="M186.66,34.07a5.89,5.89,0,0,1-2.15-.43,6.45,6.45,0,0,1-1.94-1.21,6,6,0,0,1-1.39-1.87,5.87,5.87,0,0,1,0-4.74,6.25,6.25,0,0,1,3.2-3.2,5.65,5.65,0,0,1,2.29-.47,5.81,5.81,0,0,1,3,.8,6.07,6.07,0,0,1,2.15,2.15,5.84,5.84,0,0,1,.8,3,5.7,5.7,0,0,1-.52,2.5,6,6,0,0,1-3.29,3A5.82,5.82,0,0,1,186.66,34.07Zm0-3.48a2.67,2.67,0,0,0,1.13-.27,2.54,2.54,0,0,0,1-.83,2.39,2.39,0,0,0,.4-1.4,2.57,2.57,0,0,0-.32-1.29,2.3,2.3,0,0,0-.89-.86,2.63,2.63,0,0,0-1.3-.31,2.3,2.3,0,0,0-1.23.32,2.45,2.45,0,0,0-.87.88,2.4,2.4,0,0,0-.34,1.28,2.47,2.47,0,0,0,.38,1.39,2.29,2.29,0,0,0,1,.83A2.65,2.65,0,0,0,186.62,30.59Z"/><path class="cls-2" d="M196.16,33.89a2.22,2.22,0,0,1-1.2-.24,1,1,0,0,1-.44-.66,4.8,4.8,0,0,1-.08-.85v-8a3.82,3.82,0,0,1,.09-.85,1,1,0,0,1,.44-.63,2.35,2.35,0,0,1,1.22-.24,2.24,2.24,0,0,1,1.16.22.93.93,0,0,1,.45.5,1.77,1.77,0,0,1,.09.5l-.27.14a2.26,2.26,0,0,1,.24-.34,3,3,0,0,1,.54-.5,3,3,0,0,1,.84-.45,3.32,3.32,0,0,1,1.14-.19l.56,0a3.3,3.3,0,0,1,.65.14,2.6,2.6,0,0,1,.61.28,1.36,1.36,0,0,1,.44.42,1.05,1.05,0,0,1,.18.62,2.84,2.84,0,0,1-.44,1.6,1.28,1.28,0,0,1-1.11.65,1.84,1.84,0,0,1-.55-.05,1.26,1.26,0,0,1-.26-.14,1,1,0,0,0-.24-.14,1.48,1.48,0,0,0-.51-.06,2,2,0,0,0-.65.1,1.83,1.83,0,0,0-.58.28,1.26,1.26,0,0,0-.41.48,1.43,1.43,0,0,0-.15.66v5a3.86,3.86,0,0,1-.08.84.92.92,0,0,1-.45.63A2.43,2.43,0,0,1,196.16,33.89Z"/><path class="cls-2" d="M206.35,33.89a2.29,2.29,0,0,1-1.21-.24,1,1,0,0,1-.43-.65,4,4,0,0,1-.08-.85v-8a4.46,4.46,0,0,1,.08-.85,1,1,0,0,1,.45-.63,2.22,2.22,0,0,1,1.22-.25,2.34,2.34,0,0,1,1.16.22,1,1,0,0,1,.45.51,1.71,1.71,0,0,1,.09.49l-.27.14a2.36,2.36,0,0,1,.24-.33,3.38,3.38,0,0,1,.54-.51,3.67,3.67,0,0,1,.84-.45,3.33,3.33,0,0,1,1.14-.18,3.87,3.87,0,0,1,.56,0,4.15,4.15,0,0,1,.65.13,3.08,3.08,0,0,1,.61.28,1.51,1.51,0,0,1,.44.43,1,1,0,0,1,.18.62,2.84,2.84,0,0,1-.44,1.6,1.3,1.3,0,0,1-1.11.65,1.76,1.76,0,0,1-.55-.06.79.79,0,0,1-.26-.13,1,1,0,0,0-.24-.14,1.52,1.52,0,0,0-.51-.06,2.39,2.39,0,0,0-.66.09,1.92,1.92,0,0,0-.57.29,1.38,1.38,0,0,0-.42.48,1.4,1.4,0,0,0-.15.66v5A4.6,4.6,0,0,1,208,33a.9.9,0,0,1-.45.63A2.32,2.32,0,0,1,206.35,33.89Z"/><path class="cls-2" d="M220.52,34.11a6.68,6.68,0,0,1-2.77-.53,5.36,5.36,0,0,1-1.9-1.39,6,6,0,0,1-1.1-1.92,6.31,6.31,0,0,1-.37-2.12,5.86,5.86,0,0,1,.79-3.06,5.55,5.55,0,0,1,2.17-2.1,6.41,6.41,0,0,1,3.19-.77,5.64,5.64,0,0,1,2.31.43,4.65,4.65,0,0,1,2.55,2.56,4,4,0,0,1,.31,1.5,2.56,2.56,0,0,1-.61,1.88,2.07,2.07,0,0,1-1.55.62h-5.48a1.6,1.6,0,0,0,.43,1,2.57,2.57,0,0,0,.95.64,3.12,3.12,0,0,0,1.22.23,6.9,6.9,0,0,0,1-.05,3.82,3.82,0,0,0,.73-.16l.54-.21a3.67,3.67,0,0,1,.45-.17,1.55,1.55,0,0,1,.39-.09.93.93,0,0,1,.62.19,1.9,1.9,0,0,1,.53.66,1.68,1.68,0,0,1,.22.48,2.4,2.4,0,0,1,0,.46,1.22,1.22,0,0,1-.56,1,4.46,4.46,0,0,1-1.59.68A10.33,10.33,0,0,1,220.52,34.11Zm-2.46-6.81h3.64a1,1,0,0,0,.53-.12.58.58,0,0,0,.18-.5,1.1,1.1,0,0,0-.25-.71,1.66,1.66,0,0,0-.68-.5,2.75,2.75,0,0,0-1-.17,2.66,2.66,0,0,0-1.24.28,2.24,2.24,0,0,0-.87.73A1.81,1.81,0,0,0,218.06,27.3Z"/><path class="cls-2" d="M233.31,34a6.08,6.08,0,0,1-2.06-.38,6.33,6.33,0,0,1-1.93-1.11,5.42,5.42,0,0,1-1.41-1.85,5.67,5.67,0,0,1-.53-2.53,5.48,5.48,0,0,1,1.93-4.32,6.29,6.29,0,0,1,1.92-1.11,5.82,5.82,0,0,1,2-.38,5.16,5.16,0,0,1,1.53.2A4.92,4.92,0,0,1,236,23a3.47,3.47,0,0,1,.68.48,7.08,7.08,0,0,1,.69.6,1,1,0,0,1,.27.78,1.35,1.35,0,0,1-.16.52,3.78,3.78,0,0,1-.35.54q-.71,1-1.38.87a2.15,2.15,0,0,1-.63-.23l-.55-.32a4.92,4.92,0,0,0-.56-.29,1.84,1.84,0,0,0-.69-.13,2.38,2.38,0,0,0-1.2.31,2.47,2.47,0,0,0-.84.83,2.29,2.29,0,0,0-.31,1.21,2.33,2.33,0,0,0,.31,1.2,2.28,2.28,0,0,0,.83.83,2.17,2.17,0,0,0,1.16.32,2,2,0,0,0,.67-.1,2.59,2.59,0,0,0,.5-.21l.32-.2.53-.33a1,1,0,0,1,.51-.15,1.17,1.17,0,0,1,.68.24,3.94,3.94,0,0,1,.74.77,1.9,1.9,0,0,1,.45.9,1.14,1.14,0,0,1-.19.79,2.29,2.29,0,0,1-.79.7,3.67,3.67,0,0,1-.65.42,6.7,6.7,0,0,1-1.15.46A5.56,5.56,0,0,1,233.31,34Z"/><path class="cls-2" d="M240.42,22.6H243l3.18-.09a4.3,4.3,0,0,1,.82.08,1,1,0,0,1,.65.45,2.22,2.22,0,0,1,.25,1.22,2.17,2.17,0,0,1-.24,1.15,1.08,1.08,0,0,1-.64.47,3.25,3.25,0,0,1-.85.1l-3-.07-2.78,0a1.14,1.14,0,0,1-.93-.42,2.3,2.3,0,0,1-.27-1.28,2,2,0,0,1,.32-1.23A1.17,1.17,0,0,1,240.42,22.6Zm5.19,11.32a7.08,7.08,0,0,1-2-.26,3.3,3.3,0,0,1-1.39-.78,3.26,3.26,0,0,1-.81-1.35,6.51,6.51,0,0,1-.26-1.94V20.28a3.56,3.56,0,0,1,.08-.85.93.93,0,0,1,.45-.61,2.06,2.06,0,0,1,1.19-.24,2.19,2.19,0,0,1,1.2.25,1.08,1.08,0,0,1,.45.65,4.6,4.6,0,0,1,.08.84v9.14a2.52,2.52,0,0,0,.06.6.71.71,0,0,0,.17.36.61.61,0,0,0,.32.16,2.44,2.44,0,0,0,.51.05,4,4,0,0,1,.89.09.93.93,0,0,1,.61.42,1.94,1.94,0,0,1,.22,1.08,2.13,2.13,0,0,1-.25,1.19,1,1,0,0,1-.66.44A4.61,4.61,0,0,1,245.61,33.92Z"/><path class="cls-2" d="M259,33.9a2.18,2.18,0,0,1-1.27-.3.84.84,0,0,1-.39-.73l.23-.39A2.57,2.57,0,0,1,257,33a3.79,3.79,0,0,1-2.55.86,4.52,4.52,0,0,1-2-.46,5.37,5.37,0,0,1-1.69-1.28,6.46,6.46,0,0,1-1.17-1.85,5.6,5.6,0,0,1-.44-2.19,5.48,5.48,0,0,1,.44-2.15,6.11,6.11,0,0,1,1.19-1.81,5.74,5.74,0,0,1,1.69-1.26,4.57,4.57,0,0,1,2-.45,3.93,3.93,0,0,1,1.45.24,4.29,4.29,0,0,1,1,.56,3.51,3.51,0,0,1,.61.62l-.21-.32a1,1,0,0,1,.4-.84,2.27,2.27,0,0,1,1.28-.28,2.09,2.09,0,0,1,1.18.25,1,1,0,0,1,.44.67,4.77,4.77,0,0,1,.08.87v7.94a4,4,0,0,1-.08.85,1,1,0,0,1-.43.65A2.27,2.27,0,0,1,259,33.9Zm-4-3.43a2,2,0,0,0,1.1-.31,2.26,2.26,0,0,0,.78-.84,2.45,2.45,0,0,0,0-2.35,2.26,2.26,0,0,0-3.09-.81,2.47,2.47,0,0,0-.83.84,2.37,2.37,0,0,0-.31,1.19,2.12,2.12,0,0,0,.31,1.14,2.36,2.36,0,0,0,2,1.14Z"/><path class="cls-3" d="M79.6,33.82a2.21,2.21,0,0,1-1.22-.26,1,1,0,0,1-.45-.66,4.8,4.8,0,0,1-.08-.85V19.49a3.86,3.86,0,0,1,.09-.84,1.13,1.13,0,0,1,.46-.66,2.25,2.25,0,0,1,1.22-.25h4.72a5.84,5.84,0,0,1,1.93.35,5.67,5.67,0,0,1,1.83,1.07,5.45,5.45,0,0,1,1.35,1.78A5.57,5.57,0,0,1,90,23.43a5.32,5.32,0,0,1-1.88,4.23,5.83,5.83,0,0,1-1.83,1.06,5.89,5.89,0,0,1-2,.34H81.38v3a3.86,3.86,0,0,1-.09.84,1.05,1.05,0,0,1-.46.66A2.29,2.29,0,0,1,79.6,33.82Zm1.78-8.26h3a2.53,2.53,0,0,0,1-.21,2,2,0,0,0,.83-.7,2.12,2.12,0,0,0,.34-1.25,2.15,2.15,0,0,0-.29-1.12,2,2,0,0,0-.77-.76,2.18,2.18,0,0,0-1.13-.28H81.38Z"/><path class="cls-3" d="M97.45,34a5.83,5.83,0,0,1-2.15-.42,6.65,6.65,0,0,1-1.94-1.21A5.65,5.65,0,0,1,92,30.5a5.55,5.55,0,0,1-.52-2.43,5.78,5.78,0,0,1,.47-2.31,6.31,6.31,0,0,1,1.3-1.89,6.12,6.12,0,0,1,1.9-1.3,5.69,5.69,0,0,1,2.29-.47,5.8,5.8,0,0,1,3,.79,6,6,0,0,1,2.15,2.16,5.75,5.75,0,0,1,.8,3,5.66,5.66,0,0,1-.52,2.49,5.76,5.76,0,0,1-1.38,1.88,6,6,0,0,1-1.91,1.18A5.75,5.75,0,0,1,97.45,34Zm0-3.47a2.51,2.51,0,0,0,1.13-.28,2.46,2.46,0,0,0,1-.82A2.4,2.4,0,0,0,99.89,28a2.51,2.51,0,0,0-.32-1.28,2.32,2.32,0,0,0-.89-.87,2.69,2.69,0,0,0-1.3-.31,2.4,2.4,0,0,0-1.23.32A2.49,2.49,0,0,0,95,28.05a2.4,2.4,0,0,0,.37,1.4,2.29,2.29,0,0,0,1,.82A2.63,2.63,0,0,0,97.4,30.54Z"/><path class="cls-3" d="M109.36,34a7.55,7.55,0,0,1-1.35-.14,8,8,0,0,1-1.42-.4,5.39,5.39,0,0,1-1.15-.62,1.18,1.18,0,0,1-.51-.82,1.06,1.06,0,0,1,0-.5,2.06,2.06,0,0,1,.2-.55,4.34,4.34,0,0,1,.41-.61.85.85,0,0,1,.4-.32.93.93,0,0,1,.54,0,2.66,2.66,0,0,1,.74.24l.76.37a7.11,7.11,0,0,0,.8.34,2.5,2.5,0,0,0,.85.15,2.12,2.12,0,0,0,1-.19.61.61,0,0,0,.21-1,1.09,1.09,0,0,0-.42-.27,4.38,4.38,0,0,0-.62-.22c-.23-.07-.48-.14-.74-.2s-.54-.14-.83-.23a9,9,0,0,1-1.09-.41,3.62,3.62,0,0,1-1-.66,3.06,3.06,0,0,1-.68-1,3.61,3.61,0,0,1-.25-1.44,3.21,3.21,0,0,1,.52-1.88,3.15,3.15,0,0,1,1.53-1.16,6.48,6.48,0,0,1,2.48-.4,7.56,7.56,0,0,1,.83,0,5.66,5.66,0,0,1,.82.16,7.41,7.41,0,0,1,.79.28,7.09,7.09,0,0,1,.78.39,1.06,1.06,0,0,1,.72.88,1.88,1.88,0,0,1-.4,1.14,1.75,1.75,0,0,1-.53.55.83.83,0,0,1-.57.12,3.3,3.3,0,0,1-.79-.31,9.1,9.1,0,0,0-.9-.4,2.38,2.38,0,0,0-.93-.19,1.92,1.92,0,0,0-.67.11,1,1,0,0,0-.41.27.65.65,0,0,0-.14.4.69.69,0,0,0,.17.48,1.33,1.33,0,0,0,.47.28,4.73,4.73,0,0,0,.69.21l.85.19a10.79,10.79,0,0,1,1.28.31,4.4,4.4,0,0,1,1.2.56,2.79,2.79,0,0,1,.87,1,3.47,3.47,0,0,1,.33,1.63A3.3,3.3,0,0,1,113,33.06,5.86,5.86,0,0,1,109.36,34Z"/><path class="cls-3" d="M116.94,22.52h2.53l3.17-.09a3.71,3.71,0,0,1,.83.08,1,1,0,0,1,.64.45,2.2,2.2,0,0,1,.25,1.22,2.1,2.1,0,0,1-.24,1.14,1.06,1.06,0,0,1-.63.48,3.74,3.74,0,0,1-.85.1l-3-.07-2.79,0a1.15,1.15,0,0,1-.93-.43,2.27,2.27,0,0,1-.26-1.27,2,2,0,0,1,.32-1.23A1.18,1.18,0,0,1,116.94,22.52Zm5.19,11.32a7.18,7.18,0,0,1-2-.25,3.37,3.37,0,0,1-1.39-.78,3.2,3.2,0,0,1-.8-1.35,5.92,5.92,0,0,1-.26-1.94V20.2a4.31,4.31,0,0,1,.08-.85,1,1,0,0,1,.45-.61,2.3,2.3,0,0,1,1.2-.24,2.22,2.22,0,0,1,1.19.25,1,1,0,0,1,.45.66,4.6,4.6,0,0,1,.08.84v9.13a2.62,2.62,0,0,0,.05.61.86.86,0,0,0,.17.36.73.73,0,0,0,.33.16,2.35,2.35,0,0,0,.5,0,4.66,4.66,0,0,1,.9.1,1,1,0,0,1,.61.41,2.08,2.08,0,0,1,.22,1.08,2.18,2.18,0,0,1-.26,1.2,1,1,0,0,1-.65.43A4.61,4.61,0,0,1,122.13,33.84Z"/><path class="cls-3" d="M131.07,33.83a4.78,4.78,0,0,1-2-.42,5,5,0,0,1-1.61-1.16,5.25,5.25,0,0,1-1.06-1.77,6.29,6.29,0,0,1-.38-2.25V24.07a4.46,4.46,0,0,1,.08-.85,1,1,0,0,1,.45-.64,2.21,2.21,0,0,1,1.22-.26,2.15,2.15,0,0,1,1.21.26,1.05,1.05,0,0,1,.43.65,4,4,0,0,1,.08.87v4.14a2.64,2.64,0,0,0,.24,1.16,1.66,1.66,0,0,0,.71.75,2.47,2.47,0,0,0,1.12.25,2.4,2.4,0,0,0,1.14-.26,1.88,1.88,0,0,0,.73-.75,2.33,2.33,0,0,0,.27-1.15V24.05a4.54,4.54,0,0,1,.08-.85,1,1,0,0,1,.45-.63,2.33,2.33,0,0,1,1.22-.24,2.16,2.16,0,0,1,1.21.25,1.06,1.06,0,0,1,.44.66,4.6,4.6,0,0,1,.08.84v8.09a4.15,4.15,0,0,1-.08.82.91.91,0,0,1-.45.61,2.39,2.39,0,0,1-1.2.23,2.71,2.71,0,0,1-1-.14,1.26,1.26,0,0,1-.51-.34,1,1,0,0,1-.19-.44,2.19,2.19,0,0,1,0-.42l.3-.25a1.71,1.71,0,0,1-.3.36,5.14,5.14,0,0,1-.61.53,4.1,4.1,0,0,1-.88.49A3.07,3.07,0,0,1,131.07,33.83Z"/><path class="cls-3" d="M141.19,33.86a2.21,2.21,0,0,1-1.2-.25,1,1,0,0,1-.44-.65,4.8,4.8,0,0,1-.08-.85v-8a3.78,3.78,0,0,1,.08-.85,1,1,0,0,1,.45-.63,2.29,2.29,0,0,1,1.21-.24,2.43,2.43,0,0,1,1.17.21,1,1,0,0,1,.44.51,1.47,1.47,0,0,1,.1.49l-.28.14a2.36,2.36,0,0,1,.24-.33,3.38,3.38,0,0,1,.54-.51,3.31,3.31,0,0,1,.84-.44,3.1,3.1,0,0,1,1.14-.19,3.78,3.78,0,0,1,.56,0,3.16,3.16,0,0,1,.65.14,2.57,2.57,0,0,1,.61.27,1.68,1.68,0,0,1,.45.43,1.1,1.1,0,0,1,.17.62,2.84,2.84,0,0,1-.44,1.6,1.3,1.3,0,0,1-1.1.65,1.79,1.79,0,0,1-.56-.06.9.9,0,0,1-.26-.13,1,1,0,0,0-.24-.14,1.44,1.44,0,0,0-.51-.06,2.27,2.27,0,0,0-.65.09,1.86,1.86,0,0,0-.58.29,1.35,1.35,0,0,0-.41.48,1.4,1.4,0,0,0-.15.66v5a3.74,3.74,0,0,1-.08.84.94.94,0,0,1-.45.64A2.43,2.43,0,0,1,141.19,33.86Z"/><path class="cls-3" d="M159,33.84a2.13,2.13,0,0,1-1.26-.3.8.8,0,0,1-.39-.73l.23-.39a2.85,2.85,0,0,1-.53.56,3.94,3.94,0,0,1-1,.6,4.08,4.08,0,0,1-1.53.26,4.55,4.55,0,0,1-2-.46,5.48,5.48,0,0,1-1.69-1.28,6.46,6.46,0,0,1-1.17-1.85,5.6,5.6,0,0,1-.44-2.19,5.48,5.48,0,0,1,.44-2.15,6.11,6.11,0,0,1,1.19-1.81,5.67,5.67,0,0,1,1.69-1.25,4.48,4.48,0,0,1,2-.46,3.89,3.89,0,0,1,1.45.24,4.09,4.09,0,0,1,1,.56,3.2,3.2,0,0,1,.61.62l-.21-.32a1,1,0,0,1,.41-.84,2.21,2.21,0,0,1,1.27-.28,2.13,2.13,0,0,1,1.19.25,1,1,0,0,1,.43.67,4,4,0,0,1,.08.87V32.1a4.8,4.8,0,0,1-.08.85,1,1,0,0,1-.44.65A2.27,2.27,0,0,1,159,33.84Zm-4-3.43a2,2,0,0,0,1.1-.31,2.21,2.21,0,0,0,.79-.84,2.42,2.42,0,0,0,.3-1.17,2.3,2.3,0,0,0-.3-1.18,2.2,2.2,0,0,0-.81-.82,2.13,2.13,0,0,0-1.12-.3,2.23,2.23,0,0,0-1.17.31,2.36,2.36,0,0,0-.82.84,2.29,2.29,0,0,0-.32,1.2,2.2,2.2,0,0,0,.31,1.13,2.26,2.26,0,0,0,.85.83A2.32,2.32,0,0,0,155,30.41Z"/><path class="cls-3" d="M174.75,34a6.12,6.12,0,0,1-2.06-.38,6.58,6.58,0,0,1-1.93-1.12,5.29,5.29,0,0,1-1.41-1.84,5.84,5.84,0,0,1-.53-2.53,5.69,5.69,0,0,1,.53-2.51,5.47,5.47,0,0,1,1.4-1.81,6.36,6.36,0,0,1,1.93-1.12,6,6,0,0,1,2-.38,5.51,5.51,0,0,1,1.53.2,5.18,5.18,0,0,1,1.15.47,3.9,3.9,0,0,1,.68.49,5.9,5.9,0,0,1,.69.59,1,1,0,0,1,.27.79,1.16,1.16,0,0,1-.16.51,3.21,3.21,0,0,1-.34.54c-.48.65-.94.94-1.38.88a2.71,2.71,0,0,1-.64-.23l-.55-.33a4.18,4.18,0,0,0-.56-.28,1.67,1.67,0,0,0-.69-.13,2.31,2.31,0,0,0-1.2.31,2.38,2.38,0,0,0-.84.83,2.33,2.33,0,0,0-.31,1.2,2.32,2.32,0,0,0,1.14,2,2.17,2.17,0,0,0,1.16.31,2.31,2.31,0,0,0,.67-.09,1.79,1.79,0,0,0,.5-.22l.33-.19c.18-.13.36-.24.53-.34a.94.94,0,0,1,.5-.15,1.1,1.1,0,0,1,.68.25,3.94,3.94,0,0,1,.75.77,1.8,1.8,0,0,1,.44.89,1.12,1.12,0,0,1-.19.8,2.58,2.58,0,0,1-.78.7,4.44,4.44,0,0,1-.66.41,6.39,6.39,0,0,1-1.15.46A5.15,5.15,0,0,1,174.75,34Z"/><path class="cls-3" d="M186.66,34.07a5.89,5.89,0,0,1-2.15-.43,6.45,6.45,0,0,1-1.94-1.21,6,6,0,0,1-1.39-1.87,5.87,5.87,0,0,1,0-4.74,6.25,6.25,0,0,1,3.2-3.2,5.65,5.65,0,0,1,2.29-.47,5.81,5.81,0,0,1,3,.8,6.07,6.07,0,0,1,2.15,2.15,5.84,5.84,0,0,1,.8,3,5.7,5.7,0,0,1-.52,2.5,6,6,0,0,1-3.29,3A5.82,5.82,0,0,1,186.66,34.07Zm0-3.48a2.67,2.67,0,0,0,1.13-.27,2.54,2.54,0,0,0,1-.83,2.39,2.39,0,0,0,.4-1.4,2.57,2.57,0,0,0-.32-1.29,2.3,2.3,0,0,0-.89-.86,2.63,2.63,0,0,0-1.3-.31,2.3,2.3,0,0,0-1.23.32,2.45,2.45,0,0,0-.87.88,2.4,2.4,0,0,0-.34,1.28,2.47,2.47,0,0,0,.38,1.39,2.29,2.29,0,0,0,1,.83A2.65,2.65,0,0,0,186.62,30.59Z"/><path class="cls-3" d="M196.16,33.89a2.22,2.22,0,0,1-1.2-.24,1,1,0,0,1-.44-.66,4.8,4.8,0,0,1-.08-.85v-8a3.82,3.82,0,0,1,.09-.85,1,1,0,0,1,.44-.63,2.35,2.35,0,0,1,1.22-.24,2.24,2.24,0,0,1,1.16.22.93.93,0,0,1,.45.5,1.77,1.77,0,0,1,.09.5l-.27.14a2.26,2.26,0,0,1,.24-.34,3,3,0,0,1,.54-.5,3,3,0,0,1,.84-.45,3.32,3.32,0,0,1,1.14-.19l.56,0a3.3,3.3,0,0,1,.65.14,2.6,2.6,0,0,1,.61.28,1.36,1.36,0,0,1,.44.42,1.05,1.05,0,0,1,.18.62,2.84,2.84,0,0,1-.44,1.6,1.28,1.28,0,0,1-1.11.65,1.84,1.84,0,0,1-.55-.05,1.26,1.26,0,0,1-.26-.14,1,1,0,0,0-.24-.14,1.48,1.48,0,0,0-.51-.06,2,2,0,0,0-.65.1,1.83,1.83,0,0,0-.58.28,1.26,1.26,0,0,0-.41.48,1.43,1.43,0,0,0-.15.66v5a3.86,3.86,0,0,1-.08.84.92.92,0,0,1-.45.63A2.43,2.43,0,0,1,196.16,33.89Z"/><path class="cls-3" d="M206.35,33.89a2.29,2.29,0,0,1-1.21-.24,1,1,0,0,1-.43-.65,4,4,0,0,1-.08-.85v-8a4.46,4.46,0,0,1,.08-.85,1,1,0,0,1,.45-.63,2.22,2.22,0,0,1,1.22-.25,2.34,2.34,0,0,1,1.16.22,1,1,0,0,1,.45.51,1.71,1.71,0,0,1,.09.49l-.27.14a2.36,2.36,0,0,1,.24-.33,3.38,3.38,0,0,1,.54-.51,3.67,3.67,0,0,1,.84-.45,3.33,3.33,0,0,1,1.14-.18,3.87,3.87,0,0,1,.56,0,4.15,4.15,0,0,1,.65.13,3.08,3.08,0,0,1,.61.28,1.51,1.51,0,0,1,.44.43,1,1,0,0,1,.18.62,2.84,2.84,0,0,1-.44,1.6,1.3,1.3,0,0,1-1.11.65,1.76,1.76,0,0,1-.55-.06.79.79,0,0,1-.26-.13,1,1,0,0,0-.24-.14,1.52,1.52,0,0,0-.51-.06,2.39,2.39,0,0,0-.66.09,1.92,1.92,0,0,0-.57.29,1.38,1.38,0,0,0-.42.48,1.4,1.4,0,0,0-.15.66v5A4.6,4.6,0,0,1,208,33a.9.9,0,0,1-.45.63A2.32,2.32,0,0,1,206.35,33.89Z"/><path class="cls-3" d="M220.52,34.11a6.68,6.68,0,0,1-2.77-.53,5.36,5.36,0,0,1-1.9-1.39,6,6,0,0,1-1.1-1.92,6.31,6.31,0,0,1-.37-2.12,5.86,5.86,0,0,1,.79-3.06,5.55,5.55,0,0,1,2.17-2.1,6.41,6.41,0,0,1,3.19-.77,5.64,5.64,0,0,1,2.31.43,4.65,4.65,0,0,1,2.55,2.56,4,4,0,0,1,.31,1.5,2.56,2.56,0,0,1-.61,1.88,2.07,2.07,0,0,1-1.55.62h-5.48a1.6,1.6,0,0,0,.43,1,2.57,2.57,0,0,0,.95.64,3.12,3.12,0,0,0,1.22.23,6.9,6.9,0,0,0,1-.05,3.82,3.82,0,0,0,.73-.16l.54-.21a3.67,3.67,0,0,1,.45-.17,1.55,1.55,0,0,1,.39-.09.93.93,0,0,1,.62.19,1.9,1.9,0,0,1,.53.66,1.68,1.68,0,0,1,.22.48,2.4,2.4,0,0,1,0,.46,1.22,1.22,0,0,1-.56,1,4.46,4.46,0,0,1-1.59.68A10.33,10.33,0,0,1,220.52,34.11Zm-2.46-6.81h3.64a1,1,0,0,0,.53-.12.58.58,0,0,0,.18-.5,1.1,1.1,0,0,0-.25-.71,1.66,1.66,0,0,0-.68-.5,2.75,2.75,0,0,0-1-.17,2.66,2.66,0,0,0-1.24.28,2.24,2.24,0,0,0-.87.73A1.81,1.81,0,0,0,218.06,27.3Z"/><path class="cls-3" d="M233.31,34a6.08,6.08,0,0,1-2.06-.38,6.33,6.33,0,0,1-1.93-1.11,5.42,5.42,0,0,1-1.41-1.85,5.67,5.67,0,0,1-.53-2.53,5.48,5.48,0,0,1,1.93-4.32,6.29,6.29,0,0,1,1.92-1.11,5.82,5.82,0,0,1,2-.38,5.16,5.16,0,0,1,1.53.2A4.92,4.92,0,0,1,236,23a3.47,3.47,0,0,1,.68.48,7.08,7.08,0,0,1,.69.6,1,1,0,0,1,.27.78,1.35,1.35,0,0,1-.16.52,3.78,3.78,0,0,1-.35.54q-.71,1-1.38.87a2.15,2.15,0,0,1-.63-.23l-.55-.32a4.92,4.92,0,0,0-.56-.29,1.84,1.84,0,0,0-.69-.13,2.38,2.38,0,0,0-1.2.31,2.47,2.47,0,0,0-.84.83,2.29,2.29,0,0,0-.31,1.21,2.33,2.33,0,0,0,.31,1.2,2.28,2.28,0,0,0,.83.83,2.17,2.17,0,0,0,1.16.32,2,2,0,0,0,.67-.1,2.59,2.59,0,0,0,.5-.21l.32-.2.53-.33a1,1,0,0,1,.51-.15,1.17,1.17,0,0,1,.68.24,3.94,3.94,0,0,1,.74.77,1.9,1.9,0,0,1,.45.9,1.14,1.14,0,0,1-.19.79,2.29,2.29,0,0,1-.79.7,3.67,3.67,0,0,1-.65.42,6.7,6.7,0,0,1-1.15.46A5.56,5.56,0,0,1,233.31,34Z"/><path class="cls-3" d="M240.42,22.6H243l3.18-.09a4.3,4.3,0,0,1,.82.08,1,1,0,0,1,.65.45,2.22,2.22,0,0,1,.25,1.22,2.17,2.17,0,0,1-.24,1.15,1.08,1.08,0,0,1-.64.47,3.25,3.25,0,0,1-.85.1l-3-.07-2.78,0a1.14,1.14,0,0,1-.93-.42,2.3,2.3,0,0,1-.27-1.28,2,2,0,0,1,.32-1.23A1.17,1.17,0,0,1,240.42,22.6Zm5.19,11.32a7.08,7.08,0,0,1-2-.26,3.3,3.3,0,0,1-1.39-.78,3.26,3.26,0,0,1-.81-1.35,6.51,6.51,0,0,1-.26-1.94V20.28a3.56,3.56,0,0,1,.08-.85.93.93,0,0,1,.45-.61,2.06,2.06,0,0,1,1.19-.24,2.19,2.19,0,0,1,1.2.25,1.08,1.08,0,0,1,.45.65,4.6,4.6,0,0,1,.08.84v9.14a2.52,2.52,0,0,0,.06.6.71.71,0,0,0,.17.36.61.61,0,0,0,.32.16,2.44,2.44,0,0,0,.51.05,4,4,0,0,1,.89.09.93.93,0,0,1,.61.42,1.94,1.94,0,0,1,.22,1.08,2.13,2.13,0,0,1-.25,1.19,1,1,0,0,1-.66.44A4.61,4.61,0,0,1,245.61,33.92Z"/><path class="cls-3" d="M259,33.9a2.18,2.18,0,0,1-1.27-.3.84.84,0,0,1-.39-.73l.23-.39A2.57,2.57,0,0,1,257,33a3.79,3.79,0,0,1-2.55.86,4.52,4.52,0,0,1-2-.46,5.37,5.37,0,0,1-1.69-1.28,6.46,6.46,0,0,1-1.17-1.85,5.6,5.6,0,0,1-.44-2.19,5.48,5.48,0,0,1,.44-2.15,6.11,6.11,0,0,1,1.19-1.81,5.74,5.74,0,0,1,1.69-1.26,4.57,4.57,0,0,1,2-.45,3.93,3.93,0,0,1,1.45.24,4.29,4.29,0,0,1,1,.56,3.51,3.51,0,0,1,.61.62l-.21-.32a1,1,0,0,1,.4-.84,2.27,2.27,0,0,1,1.28-.28,2.09,2.09,0,0,1,1.18.25,1,1,0,0,1,.44.67,4.77,4.77,0,0,1,.08.87v7.94a4,4,0,0,1-.08.85,1,1,0,0,1-.43.65A2.27,2.27,0,0,1,259,33.9Zm-4-3.43a2,2,0,0,0,1.1-.31,2.26,2.26,0,0,0,.78-.84,2.45,2.45,0,0,0,0-2.35,2.26,2.26,0,0,0-3.09-.81,2.47,2.47,0,0,0-.83.84,2.37,2.37,0,0,0-.31,1.19,2.12,2.12,0,0,0,.31,1.14,2.36,2.36,0,0,0,2,1.14Z"/><path class="cls-2" d="M79.6,33.82a2.21,2.21,0,0,1-1.22-.26,1,1,0,0,1-.45-.66,4.8,4.8,0,0,1-.08-.85V19.49a3.86,3.86,0,0,1,.09-.84,1.13,1.13,0,0,1,.46-.66,2.25,2.25,0,0,1,1.22-.25h4.72a5.84,5.84,0,0,1,1.93.35,5.67,5.67,0,0,1,1.83,1.07,5.45,5.45,0,0,1,1.35,1.78A5.57,5.57,0,0,1,90,23.43a5.32,5.32,0,0,1-1.88,4.23,5.83,5.83,0,0,1-1.83,1.06,5.89,5.89,0,0,1-2,.34H81.38v3a3.86,3.86,0,0,1-.09.84,1.05,1.05,0,0,1-.46.66A2.29,2.29,0,0,1,79.6,33.82Zm1.78-8.26h3a2.53,2.53,0,0,0,1-.21,2,2,0,0,0,.83-.7,2.12,2.12,0,0,0,.34-1.25,2.15,2.15,0,0,0-.29-1.12,2,2,0,0,0-.77-.76,2.18,2.18,0,0,0-1.13-.28H81.38Z"/><path class="cls-2" d="M97.45,34a5.83,5.83,0,0,1-2.15-.42,6.65,6.65,0,0,1-1.94-1.21A5.65,5.65,0,0,1,92,30.5a5.55,5.55,0,0,1-.52-2.43,5.78,5.78,0,0,1,.47-2.31,6.31,6.31,0,0,1,1.3-1.89,6.12,6.12,0,0,1,1.9-1.3,5.69,5.69,0,0,1,2.29-.47,5.8,5.8,0,0,1,3,.79,6,6,0,0,1,2.15,2.16,5.75,5.75,0,0,1,.8,3,5.66,5.66,0,0,1-.52,2.49,5.76,5.76,0,0,1-1.38,1.88,6,6,0,0,1-1.91,1.18A5.75,5.75,0,0,1,97.45,34Zm0-3.47a2.51,2.51,0,0,0,1.13-.28,2.46,2.46,0,0,0,1-.82A2.4,2.4,0,0,0,99.89,28a2.51,2.51,0,0,0-.32-1.28,2.32,2.32,0,0,0-.89-.87,2.69,2.69,0,0,0-1.3-.31,2.4,2.4,0,0,0-1.23.32A2.49,2.49,0,0,0,95,28.05a2.4,2.4,0,0,0,.37,1.4,2.29,2.29,0,0,0,1,.82A2.63,2.63,0,0,0,97.4,30.54Z"/><path class="cls-2" d="M109.36,34a7.55,7.55,0,0,1-1.35-.14,8,8,0,0,1-1.42-.4,5.39,5.39,0,0,1-1.15-.62,1.18,1.18,0,0,1-.51-.82,1.06,1.06,0,0,1,0-.5,2.06,2.06,0,0,1,.2-.55,4.34,4.34,0,0,1,.41-.61.85.85,0,0,1,.4-.32.93.93,0,0,1,.54,0,2.66,2.66,0,0,1,.74.24l.76.37a7.11,7.11,0,0,0,.8.34,2.5,2.5,0,0,0,.85.15,2.12,2.12,0,0,0,1-.19.61.61,0,0,0,.21-1,1.09,1.09,0,0,0-.42-.27,4.38,4.38,0,0,0-.62-.22c-.23-.07-.48-.14-.74-.2s-.54-.14-.83-.23a9,9,0,0,1-1.09-.41,3.62,3.62,0,0,1-1-.66,3.06,3.06,0,0,1-.68-1,3.61,3.61,0,0,1-.25-1.44,3.21,3.21,0,0,1,.52-1.88,3.15,3.15,0,0,1,1.53-1.16,6.48,6.48,0,0,1,2.48-.4,7.56,7.56,0,0,1,.83,0,5.66,5.66,0,0,1,.82.16,7.41,7.41,0,0,1,.79.28,7.09,7.09,0,0,1,.78.39,1.06,1.06,0,0,1,.72.88,1.88,1.88,0,0,1-.4,1.14,1.75,1.75,0,0,1-.53.55.83.83,0,0,1-.57.12,3.3,3.3,0,0,1-.79-.31,9.1,9.1,0,0,0-.9-.4,2.38,2.38,0,0,0-.93-.19,1.92,1.92,0,0,0-.67.11,1,1,0,0,0-.41.27.65.65,0,0,0-.14.4.69.69,0,0,0,.17.48,1.33,1.33,0,0,0,.47.28,4.73,4.73,0,0,0,.69.21l.85.19a10.79,10.79,0,0,1,1.28.31,4.4,4.4,0,0,1,1.2.56,2.79,2.79,0,0,1,.87,1,3.47,3.47,0,0,1,.33,1.63A3.3,3.3,0,0,1,113,33.06,5.86,5.86,0,0,1,109.36,34Z"/><path class="cls-2" d="M116.94,22.52h2.53l3.17-.09a3.71,3.71,0,0,1,.83.08,1,1,0,0,1,.64.45,2.2,2.2,0,0,1,.25,1.22,2.1,2.1,0,0,1-.24,1.14,1.06,1.06,0,0,1-.63.48,3.74,3.74,0,0,1-.85.1l-3-.07-2.79,0a1.15,1.15,0,0,1-.93-.43,2.27,2.27,0,0,1-.26-1.27,2,2,0,0,1,.32-1.23A1.18,1.18,0,0,1,116.94,22.52Zm5.19,11.32a7.18,7.18,0,0,1-2-.25,3.37,3.37,0,0,1-1.39-.78,3.2,3.2,0,0,1-.8-1.35,5.92,5.92,0,0,1-.26-1.94V20.2a4.31,4.31,0,0,1,.08-.85,1,1,0,0,1,.45-.61,2.3,2.3,0,0,1,1.2-.24,2.22,2.22,0,0,1,1.19.25,1,1,0,0,1,.45.66,4.6,4.6,0,0,1,.08.84v9.13a2.62,2.62,0,0,0,.05.61.86.86,0,0,0,.17.36.73.73,0,0,0,.33.16,2.35,2.35,0,0,0,.5,0,4.66,4.66,0,0,1,.9.1,1,1,0,0,1,.61.41,2.08,2.08,0,0,1,.22,1.08,2.18,2.18,0,0,1-.26,1.2,1,1,0,0,1-.65.43A4.61,4.61,0,0,1,122.13,33.84Z"/><path class="cls-2" d="M131.07,33.83a4.78,4.78,0,0,1-2-.42,5,5,0,0,1-1.61-1.16,5.25,5.25,0,0,1-1.06-1.77,6.29,6.29,0,0,1-.38-2.25V24.07a4.46,4.46,0,0,1,.08-.85,1,1,0,0,1,.45-.64,2.21,2.21,0,0,1,1.22-.26,2.15,2.15,0,0,1,1.21.26,1.05,1.05,0,0,1,.43.65,4,4,0,0,1,.08.87v4.14a2.64,2.64,0,0,0,.24,1.16,1.66,1.66,0,0,0,.71.75,2.47,2.47,0,0,0,1.12.25,2.4,2.4,0,0,0,1.14-.26,1.88,1.88,0,0,0,.73-.75,2.33,2.33,0,0,0,.27-1.15V24.05a4.54,4.54,0,0,1,.08-.85,1,1,0,0,1,.45-.63,2.33,2.33,0,0,1,1.22-.24,2.16,2.16,0,0,1,1.21.25,1.06,1.06,0,0,1,.44.66,4.6,4.6,0,0,1,.08.84v8.09a4.15,4.15,0,0,1-.08.82.91.91,0,0,1-.45.61,2.39,2.39,0,0,1-1.2.23,2.71,2.71,0,0,1-1-.14,1.26,1.26,0,0,1-.51-.34,1,1,0,0,1-.19-.44,2.19,2.19,0,0,1,0-.42l.3-.25a1.71,1.71,0,0,1-.3.36,5.14,5.14,0,0,1-.61.53,4.1,4.1,0,0,1-.88.49A3.07,3.07,0,0,1,131.07,33.83Z"/><path class="cls-2" d="M141.19,33.86a2.21,2.21,0,0,1-1.2-.25,1,1,0,0,1-.44-.65,4.8,4.8,0,0,1-.08-.85v-8a3.78,3.78,0,0,1,.08-.85,1,1,0,0,1,.45-.63,2.29,2.29,0,0,1,1.21-.24,2.43,2.43,0,0,1,1.17.21,1,1,0,0,1,.44.51,1.47,1.47,0,0,1,.1.49l-.28.14a2.36,2.36,0,0,1,.24-.33,3.38,3.38,0,0,1,.54-.51,3.31,3.31,0,0,1,.84-.44,3.1,3.1,0,0,1,1.14-.19,3.78,3.78,0,0,1,.56,0,3.16,3.16,0,0,1,.65.14,2.57,2.57,0,0,1,.61.27,1.68,1.68,0,0,1,.45.43,1.1,1.1,0,0,1,.17.62,2.84,2.84,0,0,1-.44,1.6,1.3,1.3,0,0,1-1.1.65,1.79,1.79,0,0,1-.56-.06.9.9,0,0,1-.26-.13,1,1,0,0,0-.24-.14,1.44,1.44,0,0,0-.51-.06,2.27,2.27,0,0,0-.65.09,1.86,1.86,0,0,0-.58.29,1.35,1.35,0,0,0-.41.48,1.4,1.4,0,0,0-.15.66v5a3.74,3.74,0,0,1-.08.84.94.94,0,0,1-.45.64A2.43,2.43,0,0,1,141.19,33.86Z"/><path class="cls-2" d="M159,33.84a2.13,2.13,0,0,1-1.26-.3.8.8,0,0,1-.39-.73l.23-.39a2.85,2.85,0,0,1-.53.56,3.94,3.94,0,0,1-1,.6,4.08,4.08,0,0,1-1.53.26,4.55,4.55,0,0,1-2-.46,5.48,5.48,0,0,1-1.69-1.28,6.46,6.46,0,0,1-1.17-1.85,5.6,5.6,0,0,1-.44-2.19,5.48,5.48,0,0,1,.44-2.15,6.11,6.11,0,0,1,1.19-1.81,5.67,5.67,0,0,1,1.69-1.25,4.48,4.48,0,0,1,2-.46,3.89,3.89,0,0,1,1.45.24,4.09,4.09,0,0,1,1,.56,3.2,3.2,0,0,1,.61.62l-.21-.32a1,1,0,0,1,.41-.84,2.21,2.21,0,0,1,1.27-.28,2.13,2.13,0,0,1,1.19.25,1,1,0,0,1,.43.67,4,4,0,0,1,.08.87V32.1a4.8,4.8,0,0,1-.08.85,1,1,0,0,1-.44.65A2.27,2.27,0,0,1,159,33.84Zm-4-3.43a2,2,0,0,0,1.1-.31,2.21,2.21,0,0,0,.79-.84,2.42,2.42,0,0,0,.3-1.17,2.3,2.3,0,0,0-.3-1.18,2.2,2.2,0,0,0-.81-.82,2.13,2.13,0,0,0-1.12-.3,2.23,2.23,0,0,0-1.17.31,2.36,2.36,0,0,0-.82.84,2.29,2.29,0,0,0-.32,1.2,2.2,2.2,0,0,0,.31,1.13,2.26,2.26,0,0,0,.85.83A2.32,2.32,0,0,0,155,30.41Z"/><path class="cls-2" d="M174.75,34a6.12,6.12,0,0,1-2.06-.38,6.58,6.58,0,0,1-1.93-1.12,5.29,5.29,0,0,1-1.41-1.84,5.84,5.84,0,0,1-.53-2.53,5.69,5.69,0,0,1,.53-2.51,5.47,5.47,0,0,1,1.4-1.81,6.36,6.36,0,0,1,1.93-1.12,6,6,0,0,1,2-.38,5.51,5.51,0,0,1,1.53.2,5.18,5.18,0,0,1,1.15.47,3.9,3.9,0,0,1,.68.49,5.9,5.9,0,0,1,.69.59,1,1,0,0,1,.27.79,1.16,1.16,0,0,1-.16.51,3.21,3.21,0,0,1-.34.54c-.48.65-.94.94-1.38.88a2.71,2.71,0,0,1-.64-.23l-.55-.33a4.18,4.18,0,0,0-.56-.28,1.67,1.67,0,0,0-.69-.13,2.31,2.31,0,0,0-1.2.31,2.38,2.38,0,0,0-.84.83,2.33,2.33,0,0,0-.31,1.2,2.32,2.32,0,0,0,1.14,2,2.17,2.17,0,0,0,1.16.31,2.31,2.31,0,0,0,.67-.09,1.79,1.79,0,0,0,.5-.22l.33-.19c.18-.13.36-.24.53-.34a.94.94,0,0,1,.5-.15,1.1,1.1,0,0,1,.68.25,3.94,3.94,0,0,1,.75.77,1.8,1.8,0,0,1,.44.89,1.12,1.12,0,0,1-.19.8,2.58,2.58,0,0,1-.78.7,4.44,4.44,0,0,1-.66.41,6.39,6.39,0,0,1-1.15.46A5.15,5.15,0,0,1,174.75,34Z"/><path class="cls-2" d="M186.66,34.07a5.89,5.89,0,0,1-2.15-.43,6.45,6.45,0,0,1-1.94-1.21,6,6,0,0,1-1.39-1.87,5.87,5.87,0,0,1,0-4.74,6.25,6.25,0,0,1,3.2-3.2,5.65,5.65,0,0,1,2.29-.47,5.81,5.81,0,0,1,3,.8,6.07,6.07,0,0,1,2.15,2.15,5.84,5.84,0,0,1,.8,3,5.7,5.7,0,0,1-.52,2.5,6,6,0,0,1-3.29,3A5.82,5.82,0,0,1,186.66,34.07Zm0-3.48a2.67,2.67,0,0,0,1.13-.27,2.54,2.54,0,0,0,1-.83,2.39,2.39,0,0,0,.4-1.4,2.57,2.57,0,0,0-.32-1.29,2.3,2.3,0,0,0-.89-.86,2.63,2.63,0,0,0-1.3-.31,2.3,2.3,0,0,0-1.23.32,2.45,2.45,0,0,0-.87.88,2.4,2.4,0,0,0-.34,1.28,2.47,2.47,0,0,0,.38,1.39,2.29,2.29,0,0,0,1,.83A2.65,2.65,0,0,0,186.62,30.59Z"/><path class="cls-2" d="M196.16,33.89a2.22,2.22,0,0,1-1.2-.24,1,1,0,0,1-.44-.66,4.8,4.8,0,0,1-.08-.85v-8a3.82,3.82,0,0,1,.09-.85,1,1,0,0,1,.44-.63,2.35,2.35,0,0,1,1.22-.24,2.24,2.24,0,0,1,1.16.22.93.93,0,0,1,.45.5,1.77,1.77,0,0,1,.09.5l-.27.14a2.26,2.26,0,0,1,.24-.34,3,3,0,0,1,.54-.5,3,3,0,0,1,.84-.45,3.32,3.32,0,0,1,1.14-.19l.56,0a3.3,3.3,0,0,1,.65.14,2.6,2.6,0,0,1,.61.28,1.36,1.36,0,0,1,.44.42,1.05,1.05,0,0,1,.18.62,2.84,2.84,0,0,1-.44,1.6,1.28,1.28,0,0,1-1.11.65,1.84,1.84,0,0,1-.55-.05,1.26,1.26,0,0,1-.26-.14,1,1,0,0,0-.24-.14,1.48,1.48,0,0,0-.51-.06,2,2,0,0,0-.65.1,1.83,1.83,0,0,0-.58.28,1.26,1.26,0,0,0-.41.48,1.43,1.43,0,0,0-.15.66v5a3.86,3.86,0,0,1-.08.84.92.92,0,0,1-.45.63A2.43,2.43,0,0,1,196.16,33.89Z"/><path class="cls-2" d="M206.35,33.89a2.29,2.29,0,0,1-1.21-.24,1,1,0,0,1-.43-.65,4,4,0,0,1-.08-.85v-8a4.46,4.46,0,0,1,.08-.85,1,1,0,0,1,.45-.63,2.22,2.22,0,0,1,1.22-.25,2.34,2.34,0,0,1,1.16.22,1,1,0,0,1,.45.51,1.71,1.71,0,0,1,.09.49l-.27.14a2.36,2.36,0,0,1,.24-.33,3.38,3.38,0,0,1,.54-.51,3.67,3.67,0,0,1,.84-.45,3.33,3.33,0,0,1,1.14-.18,3.87,3.87,0,0,1,.56,0,4.15,4.15,0,0,1,.65.13,3.08,3.08,0,0,1,.61.28,1.51,1.51,0,0,1,.44.43,1,1,0,0,1,.18.62,2.84,2.84,0,0,1-.44,1.6,1.3,1.3,0,0,1-1.11.65,1.76,1.76,0,0,1-.55-.06.79.79,0,0,1-.26-.13,1,1,0,0,0-.24-.14,1.52,1.52,0,0,0-.51-.06,2.39,2.39,0,0,0-.66.09,1.92,1.92,0,0,0-.57.29,1.38,1.38,0,0,0-.42.48,1.4,1.4,0,0,0-.15.66v5A4.6,4.6,0,0,1,208,33a.9.9,0,0,1-.45.63A2.32,2.32,0,0,1,206.35,33.89Z"/><path class="cls-2" d="M220.52,34.11a6.68,6.68,0,0,1-2.77-.53,5.36,5.36,0,0,1-1.9-1.39,6,6,0,0,1-1.1-1.92,6.31,6.31,0,0,1-.37-2.12,5.86,5.86,0,0,1,.79-3.06,5.55,5.55,0,0,1,2.17-2.1,6.41,6.41,0,0,1,3.19-.77,5.64,5.64,0,0,1,2.31.43,4.65,4.65,0,0,1,2.55,2.56,4,4,0,0,1,.31,1.5,2.56,2.56,0,0,1-.61,1.88,2.07,2.07,0,0,1-1.55.62h-5.48a1.6,1.6,0,0,0,.43,1,2.57,2.57,0,0,0,.95.64,3.12,3.12,0,0,0,1.22.23,6.9,6.9,0,0,0,1-.05,3.82,3.82,0,0,0,.73-.16l.54-.21a3.67,3.67,0,0,1,.45-.17,1.55,1.55,0,0,1,.39-.09.93.93,0,0,1,.62.19,1.9,1.9,0,0,1,.53.66,1.68,1.68,0,0,1,.22.48,2.4,2.4,0,0,1,0,.46,1.22,1.22,0,0,1-.56,1,4.46,4.46,0,0,1-1.59.68A10.33,10.33,0,0,1,220.52,34.11Zm-2.46-6.81h3.64a1,1,0,0,0,.53-.12.58.58,0,0,0,.18-.5,1.1,1.1,0,0,0-.25-.71,1.66,1.66,0,0,0-.68-.5,2.75,2.75,0,0,0-1-.17,2.66,2.66,0,0,0-1.24.28,2.24,2.24,0,0,0-.87.73A1.81,1.81,0,0,0,218.06,27.3Z"/><path class="cls-2" d="M233.31,34a6.08,6.08,0,0,1-2.06-.38,6.33,6.33,0,0,1-1.93-1.11,5.42,5.42,0,0,1-1.41-1.85,5.67,5.67,0,0,1-.53-2.53,5.48,5.48,0,0,1,1.93-4.32,6.29,6.29,0,0,1,1.92-1.11,5.82,5.82,0,0,1,2-.38,5.16,5.16,0,0,1,1.53.2A4.92,4.92,0,0,1,236,23a3.47,3.47,0,0,1,.68.48,7.08,7.08,0,0,1,.69.6,1,1,0,0,1,.27.78,1.35,1.35,0,0,1-.16.52,3.78,3.78,0,0,1-.35.54q-.71,1-1.38.87a2.15,2.15,0,0,1-.63-.23l-.55-.32a4.92,4.92,0,0,0-.56-.29,1.84,1.84,0,0,0-.69-.13,2.38,2.38,0,0,0-1.2.31,2.47,2.47,0,0,0-.84.83,2.29,2.29,0,0,0-.31,1.21,2.33,2.33,0,0,0,.31,1.2,2.28,2.28,0,0,0,.83.83,2.17,2.17,0,0,0,1.16.32,2,2,0,0,0,.67-.1,2.59,2.59,0,0,0,.5-.21l.32-.2.53-.33a1,1,0,0,1,.51-.15,1.17,1.17,0,0,1,.68.24,3.94,3.94,0,0,1,.74.77,1.9,1.9,0,0,1,.45.9,1.14,1.14,0,0,1-.19.79,2.29,2.29,0,0,1-.79.7,3.67,3.67,0,0,1-.65.42,6.7,6.7,0,0,1-1.15.46A5.56,5.56,0,0,1,233.31,34Z"/><path class="cls-2" d="M240.42,22.6H243l3.18-.09a4.3,4.3,0,0,1,.82.08,1,1,0,0,1,.65.45,2.22,2.22,0,0,1,.25,1.22,2.17,2.17,0,0,1-.24,1.15,1.08,1.08,0,0,1-.64.47,3.25,3.25,0,0,1-.85.1l-3-.07-2.78,0a1.14,1.14,0,0,1-.93-.42,2.3,2.3,0,0,1-.27-1.28,2,2,0,0,1,.32-1.23A1.17,1.17,0,0,1,240.42,22.6Zm5.19,11.32a7.08,7.08,0,0,1-2-.26,3.3,3.3,0,0,1-1.39-.78,3.26,3.26,0,0,1-.81-1.35,6.51,6.51,0,0,1-.26-1.94V20.28a3.56,3.56,0,0,1,.08-.85.93.93,0,0,1,.45-.61,2.06,2.06,0,0,1,1.19-.24,2.19,2.19,0,0,1,1.2.25,1.08,1.08,0,0,1,.45.65,4.6,4.6,0,0,1,.08.84v9.14a2.52,2.52,0,0,0,.06.6.71.71,0,0,0,.17.36.61.61,0,0,0,.32.16,2.44,2.44,0,0,0,.51.05,4,4,0,0,1,.89.09.93.93,0,0,1,.61.42,1.94,1.94,0,0,1,.22,1.08,2.13,2.13,0,0,1-.25,1.19,1,1,0,0,1-.66.44A4.61,4.61,0,0,1,245.61,33.92Z"/><path class="cls-2" d="M259,33.9a2.18,2.18,0,0,1-1.27-.3.84.84,0,0,1-.39-.73l.23-.39A2.57,2.57,0,0,1,257,33a3.79,3.79,0,0,1-2.55.86,4.52,4.52,0,0,1-2-.46,5.37,5.37,0,0,1-1.69-1.28,6.46,6.46,0,0,1-1.17-1.85,5.6,5.6,0,0,1-.44-2.19,5.48,5.48,0,0,1,.44-2.15,6.11,6.11,0,0,1,1.19-1.81,5.74,5.74,0,0,1,1.69-1.26,4.57,4.57,0,0,1,2-.45,3.93,3.93,0,0,1,1.45.24,4.29,4.29,0,0,1,1,.56,3.51,3.51,0,0,1,.61.62l-.21-.32a1,1,0,0,1,.4-.84,2.27,2.27,0,0,1,1.28-.28,2.09,2.09,0,0,1,1.18.25,1,1,0,0,1,.44.67,4.77,4.77,0,0,1,.08.87v7.94a4,4,0,0,1-.08.85,1,1,0,0,1-.43.65A2.27,2.27,0,0,1,259,33.9Zm-4-3.43a2,2,0,0,0,1.1-.31,2.26,2.26,0,0,0,.78-.84,2.45,2.45,0,0,0,0-2.35,2.26,2.26,0,0,0-3.09-.81,2.47,2.47,0,0,0-.83.84,2.37,2.37,0,0,0-.31,1.19,2.12,2.12,0,0,0,.31,1.14,2.36,2.36,0,0,0,2,1.14Z"/><path class="cls-4" d="M44.69,21.53c0-1.37-1.23-2.06-3.7-2.06a19.62,19.62,0,0,0-2.1.15,19.23,19.23,0,0,1-1.94.15c-2,0-2.93-1.21-2.93-3.61s2.83-3.74,8.48-3.74c3.67,0,6.41.61,8.23,1.85a5.57,5.57,0,0,1,2.72,4.83A7.74,7.74,0,0,1,50,25.73a9.38,9.38,0,0,1,3.31,2.71,7.17,7.17,0,0,1,1,4.05,7.35,7.35,0,0,1-2.8,5.95,11.46,11.46,0,0,1-7.48,2.29c-3.91,0-6.71-.42-8.41-1.24A4,4,0,0,1,33,35.73a3.92,3.92,0,0,1,.82-2.88,3.15,3.15,0,0,1,2.28-.78c.49,0,1.25.06,2.28.17s1.82.17,2.36.17q4.44,0,4.44-1.68a1.62,1.62,0,0,0-.85-1.58,8,8,0,0,0-3.22-.44,6.5,6.5,0,0,1-3.34-.63,2.56,2.56,0,0,1-1-2.35c0-1.73,1.11-2.6,3.34-2.6a17.73,17.73,0,0,0,3.2-.21q1-.21,1.2-.48A1.9,1.9,0,0,0,44.69,21.53Z"/><path class="cls-4" d="M56.82,37.58A2.75,2.75,0,0,1,58,35.27a5.33,5.33,0,0,1,3.28-.89q4.44,0,4.44,3.2a3.1,3.1,0,0,1-.57,2,2.76,2.76,0,0,1-1.51,1,9.63,9.63,0,0,1-2.36.25A6,6,0,0,1,58.08,40,2.61,2.61,0,0,1,56.82,37.58Z"/><path class="cls-5" d="M44.69,21.53c0-1.37-1.23-2.06-3.7-2.06a19.62,19.62,0,0,0-2.1.15,19.23,19.23,0,0,1-1.94.15c-2,0-2.93-1.21-2.93-3.61s2.83-3.74,8.48-3.74c3.67,0,6.41.61,8.23,1.85a5.57,5.57,0,0,1,2.72,4.83A7.74,7.74,0,0,1,50,25.73a9.38,9.38,0,0,1,3.31,2.71,7.17,7.17,0,0,1,1,4.05,7.35,7.35,0,0,1-2.8,5.95,11.46,11.46,0,0,1-7.48,2.29c-3.91,0-6.71-.42-8.41-1.24A4,4,0,0,1,33,35.73a3.92,3.92,0,0,1,.82-2.88,3.15,3.15,0,0,1,2.28-.78c.49,0,1.25.06,2.28.17s1.82.17,2.36.17q4.44,0,4.44-1.68a1.62,1.62,0,0,0-.85-1.58,8,8,0,0,0-3.22-.44,6.5,6.5,0,0,1-3.34-.63,2.56,2.56,0,0,1-1-2.35c0-1.73,1.11-2.6,3.34-2.6a17.73,17.73,0,0,0,3.2-.21q1-.21,1.2-.48A1.9,1.9,0,0,0,44.69,21.53Z"/><path class="cls-5" d="M56.82,37.58A2.75,2.75,0,0,1,58,35.27a5.33,5.33,0,0,1,3.28-.89q4.44,0,4.44,3.2a3.1,3.1,0,0,1-.57,2,2.76,2.76,0,0,1-1.51,1,9.63,9.63,0,0,1-2.36.25A6,6,0,0,1,58.08,40,2.61,2.61,0,0,1,56.82,37.58Z"/></g></g></svg>