<svg xmlns="http://www.w3.org/2000/svg" viewBox="0 0 399.98 98.13"><defs><style>.cls-1{fill:#c49e00;}.cls-2{fill:#fff;}.cls-3{fill:none;stroke:#148adb;stroke-linejoin:round;stroke-width:5px;}</style></defs><title>tpg</title><g id="Layer_2" data-name="Layer 2"><g id="Pestaña_Paso_4" data-name="Pestaña Paso 4"><rect class="cls-1" width="399.98" height="98.13" rx="32.4"/><path class="cls-2" d="M38.21,34.32A2.4,2.4,0,0,1,36.89,34a1.12,1.12,0,0,1-.49-.72,4.73,4.73,0,0,1-.09-.93V18.74a3.85,3.85,0,0,1,.1-.91,1.15,1.15,0,0,1,.5-.71,2.37,2.37,0,0,1,1.33-.28h5.12a6.37,6.37,0,0,1,2.1.37,6.18,6.18,0,0,1,2,1.16,5.9,5.9,0,0,1,2,4.64,6.06,6.06,0,0,1-.56,2.69,5.87,5.87,0,0,1-1.48,1.91,6.15,6.15,0,0,1-2,1.15,6.36,6.36,0,0,1-2.12.37h-3.2v3.28a4.53,4.53,0,0,1-.1.91,1.19,1.19,0,0,1-.5.71A2.37,2.37,0,0,1,38.21,34.32Zm1.93-9h3.23a2.61,2.61,0,0,0,1.08-.24,2.12,2.12,0,0,0,.9-.76A2.27,2.27,0,0,0,45.72,23a2.44,2.44,0,0,0-.31-1.23,2.38,2.38,0,0,0-.84-.83,2.54,2.54,0,0,0-1.23-.3h-3.2Z"/><path class="cls-2" d="M53.49,34.33a2.41,2.41,0,0,1-1.32-.27,1.06,1.06,0,0,1-.47-.71,4.7,4.7,0,0,1-.09-.92V23.7a5.46,5.46,0,0,1,.08-.93,1.08,1.08,0,0,1,.49-.68,2.49,2.49,0,0,1,1.33-.26,2.63,2.63,0,0,1,1.26.23,1.1,1.1,0,0,1,.49.55,2.08,2.08,0,0,1,.1.54l-.3.15a2.48,2.48,0,0,1,.26-.36,3.2,3.2,0,0,1,.59-.55,3.71,3.71,0,0,1,.91-.49,3.62,3.62,0,0,1,1.24-.2c.18,0,.39,0,.61,0a4.62,4.62,0,0,1,.7.15,3.32,3.32,0,0,1,.66.3,1.8,1.8,0,0,1,.49.46,1.24,1.24,0,0,1,.19.68,3.06,3.06,0,0,1-.48,1.74,1.42,1.42,0,0,1-1.2.71,2.11,2.11,0,0,1-.6-.06,1.3,1.3,0,0,1-.29-.15.93.93,0,0,0-.26-.15,1.39,1.39,0,0,0-.55-.07,2.71,2.71,0,0,0-.71.1,1.88,1.88,0,0,0-.63.32A1.45,1.45,0,0,0,55.39,27v5.48a4.53,4.53,0,0,1-.09.91,1,1,0,0,1-.49.69A2.69,2.69,0,0,1,53.49,34.33Z"/><path class="cls-2" d="M68.68,34.53a6.2,6.2,0,0,1-2.33-.46,7.11,7.11,0,0,1-2.11-1.31,6.41,6.41,0,0,1-1.52-2,6.41,6.41,0,0,1,0-5.15,6.63,6.63,0,0,1,1.41-2.06,6.75,6.75,0,0,1,2.06-1.41,6,6,0,0,1,2.49-.51,6.23,6.23,0,0,1,3.26.86,6.4,6.4,0,0,1,2.34,2.34,6.71,6.71,0,0,1,.31,6,6.5,6.5,0,0,1-1.5,2A6.57,6.57,0,0,1,71,34.1,6.36,6.36,0,0,1,68.68,34.53Zm0-3.77a2.78,2.78,0,0,0,1.22-.3,2.67,2.67,0,0,0,1-.9A2.53,2.53,0,0,0,71.34,28a2.74,2.74,0,0,0-.35-1.4,2.41,2.41,0,0,0-1-.94,2.83,2.83,0,0,0-1.41-.34,2.6,2.6,0,0,0-1.34.35,2.65,2.65,0,0,0-1,1A2.7,2.7,0,0,0,66,28.06a2.61,2.61,0,0,0,.42,1.51,2.47,2.47,0,0,0,1,.9A3,3,0,0,0,68.64,30.76Z"/><path class="cls-2" d="M78.86,39.52a2.38,2.38,0,0,1-1.3-.27,1,1,0,0,1-.48-.67,5,5,0,0,1-.07-.89v-14a5.17,5.17,0,0,1,.07-.91,1.1,1.1,0,0,1,.47-.69,2.28,2.28,0,0,1,1.28-.27,2.86,2.86,0,0,1,1.24.23,1.29,1.29,0,0,1,.66.7v14.9a3.36,3.36,0,0,1-.07.9,1.11,1.11,0,0,1-.49.68A2.39,2.39,0,0,1,78.86,39.52Zm4.8-5.4a4.61,4.61,0,0,1-2.15-.49A4.49,4.49,0,0,1,80,32.3a6.16,6.16,0,0,1-.92-1.93A8.31,8.31,0,0,1,78.76,28a8.22,8.22,0,0,1,.33-2.34,6.53,6.53,0,0,1,.94-2,4.3,4.3,0,0,1,1.53-1.35,4.44,4.44,0,0,1,2.11-.49,4.79,4.79,0,0,1,2.15.51,6.15,6.15,0,0,1,1.83,1.36,6.47,6.47,0,0,1,1.28,2,6.14,6.14,0,0,1,.46,2.37,6.29,6.29,0,0,1-.46,2.37,6.23,6.23,0,0,1-1.27,1.93,5.92,5.92,0,0,1-1.82,1.29A5.23,5.23,0,0,1,83.66,34.12Zm-.5-3.53a2.36,2.36,0,0,0,1.25-.33,2.67,2.67,0,0,0,.89-.91,2.45,2.45,0,0,0,.34-1.28,2.54,2.54,0,0,0-.33-1.28,2.38,2.38,0,0,0-.88-.9,2.52,2.52,0,0,0-1.24-.32,2.34,2.34,0,0,0-1.24.34,2.4,2.4,0,0,0-.87.89,2.58,2.58,0,0,0-.32,1.27A2.59,2.59,0,0,0,82,30.26,2.31,2.31,0,0,0,83.16,30.59Z"/><path class="cls-2" d="M97.43,34.55a6.2,6.2,0,0,1-2.33-.46A6.94,6.94,0,0,1,93,32.77a6.08,6.08,0,0,1-2.08-4.67,6.16,6.16,0,0,1,.52-2.51,6.67,6.67,0,0,1,1.41-2.07,6.75,6.75,0,0,1,2.06-1.41,6.16,6.16,0,0,1,2.49-.51,6.24,6.24,0,0,1,3.26.87A6.4,6.4,0,0,1,103,24.81a6.3,6.3,0,0,1,.87,3.27,6.17,6.17,0,0,1-.56,2.71,6.66,6.66,0,0,1-1.5,2,6.57,6.57,0,0,1-2.08,1.29A6.36,6.36,0,0,1,97.43,34.55Zm0-3.77a2.81,2.81,0,0,0,1.22-.3,2.67,2.67,0,0,0,1-.9,2.54,2.54,0,0,0,.43-1.53,2.77,2.77,0,0,0-.35-1.4,2.45,2.45,0,0,0-1-.93,2.83,2.83,0,0,0-1.41-.34,2.51,2.51,0,0,0-1.34.35,2.65,2.65,0,0,0-1,1,2.7,2.7,0,0,0-.37,1.39,2.61,2.61,0,0,0,.42,1.51,2.47,2.47,0,0,0,1,.9A3,3,0,0,0,97.39,30.78Zm-1-9.83a.85.85,0,0,1-.74-.25,2.63,2.63,0,0,1-.51-1,2,2,0,0,1-.1-1.3,1.38,1.38,0,0,1,.92-.67l4.41-1.35a.87.87,0,0,1,.72.29,2.35,2.35,0,0,1,.5,1,2,2,0,0,1,.09,1.28,1.34,1.34,0,0,1-.92.67Z"/><path class="cls-2" d="M110.38,34.56a8,8,0,0,1-1.47-.15,8.79,8.79,0,0,1-1.54-.44,5.08,5.08,0,0,1-1.25-.68,1.24,1.24,0,0,1-.56-.88,1.41,1.41,0,0,1,0-.54,2.37,2.37,0,0,1,.23-.6,3.78,3.78,0,0,1,.44-.66.86.86,0,0,1,.43-.35,1.09,1.09,0,0,1,.59,0,3,3,0,0,1,.8.27c.27.12.54.25.83.4a8.41,8.41,0,0,0,.87.37,2.68,2.68,0,0,0,.93.16,2.18,2.18,0,0,0,1.08-.21.64.64,0,0,0,.39-.58.61.61,0,0,0-.16-.45,1.27,1.27,0,0,0-.45-.3,4.32,4.32,0,0,0-.67-.24c-.26-.08-.53-.15-.82-.22s-.58-.15-.9-.25a7.22,7.22,0,0,1-1.19-.45,3.76,3.76,0,0,1-1-.71,3.1,3.1,0,0,1-.74-1.08,4,4,0,0,1-.28-1.56,3.59,3.59,0,0,1,.57-2.05,3.48,3.48,0,0,1,1.66-1.26,7.18,7.18,0,0,1,2.7-.43,6.79,6.79,0,0,1,.9,0,5.38,5.38,0,0,1,.89.17,8.75,8.75,0,0,1,.86.3,6.79,6.79,0,0,1,.85.43,1.13,1.13,0,0,1,.78.95,2.12,2.12,0,0,1-.43,1.25,2.17,2.17,0,0,1-.58.59.86.86,0,0,1-.62.13,4.13,4.13,0,0,1-.86-.34c-.31-.16-.64-.3-1-.44a2.82,2.82,0,0,0-1-.19,2,2,0,0,0-.72.11.89.89,0,0,0-.45.3.62.62,0,0,0-.16.43.74.74,0,0,0,.19.52,1.58,1.58,0,0,0,.51.31,5.64,5.64,0,0,0,.75.22l.93.21a13.23,13.23,0,0,1,1.39.33,5,5,0,0,1,1.3.62,3,3,0,0,1,1,1.07,3.78,3.78,0,0,1,.36,1.78,3.57,3.57,0,0,1-1.38,3A6.38,6.38,0,0,1,110.38,34.56Z"/><path class="cls-2" d="M119.84,20.07a2.61,2.61,0,0,1-1.35-.28,1.1,1.1,0,0,1-.48-.73,5.11,5.11,0,0,1,0-1.91,1.06,1.06,0,0,1,.5-.7,2.69,2.69,0,0,1,1.36-.26,2.37,2.37,0,0,1,1.33.28,1.11,1.11,0,0,1,.48.72,5,5,0,0,1,.09,1,4.7,4.7,0,0,1-.09.92,1.05,1.05,0,0,1-.49.71A2.48,2.48,0,0,1,119.84,20.07Zm0,14.3a2.55,2.55,0,0,1-1.32-.27,1,1,0,0,1-.47-.7,4.47,4.47,0,0,1-.08-.91V23.76a5.4,5.4,0,0,1,.08-.91,1.08,1.08,0,0,1,.49-.7,2.59,2.59,0,0,1,1.33-.26,2.18,2.18,0,0,1,1.28.28,1.12,1.12,0,0,1,.48.71,4.62,4.62,0,0,1,.09.94v8.7a4.53,4.53,0,0,1-.09.91,1,1,0,0,1-.47.69A2.64,2.64,0,0,1,119.83,34.37Z"/><path class="cls-2" d="M125.17,22.07h2.75l3.45-.1a4.43,4.43,0,0,1,.9.09,1.13,1.13,0,0,1,.7.49,2.46,2.46,0,0,1,.27,1.32,2.35,2.35,0,0,1-.26,1.25,1.21,1.21,0,0,1-.69.52,3.83,3.83,0,0,1-.93.11l-3.27-.08-3,0a1.23,1.23,0,0,1-1-.46,2.47,2.47,0,0,1-.28-1.39,2.05,2.05,0,0,1,.35-1.33A1.23,1.23,0,0,1,125.17,22.07Zm5.64,12.3a7.92,7.92,0,0,1-2.2-.27,3.41,3.41,0,0,1-2.39-2.32,6.91,6.91,0,0,1-.28-2.11V19.54a4.22,4.22,0,0,1,.09-.92,1,1,0,0,1,.49-.66,3.21,3.21,0,0,1,2.6,0,1.1,1.1,0,0,1,.49.71,5.52,5.52,0,0,1,.08.92v9.92a3,3,0,0,0,.06.66.71.71,0,0,0,.19.39.69.69,0,0,0,.35.18,2.79,2.79,0,0,0,.55.05,4.07,4.07,0,0,1,1,.1,1,1,0,0,1,.66.45,2.13,2.13,0,0,1,.24,1.17,2.28,2.28,0,0,1-.28,1.3,1,1,0,0,1-.71.48A5.33,5.33,0,0,1,130.81,34.37Z"/><path class="cls-2" d="M141.16,34.58a6.3,6.3,0,0,1-2.34-.47,6.84,6.84,0,0,1-2.11-1.31,6.38,6.38,0,0,1-1.51-2,6,6,0,0,1-.56-2.64,6.19,6.19,0,0,1,.51-2.51,6.93,6.93,0,0,1,1.41-2.06,6.79,6.79,0,0,1,2.07-1.41,6.09,6.09,0,0,1,2.49-.51,6.35,6.35,0,0,1,3.26.86,6.72,6.72,0,0,1,2.34,2.34,6.36,6.36,0,0,1,.87,3.28,6.2,6.2,0,0,1-.57,2.71,6.35,6.35,0,0,1-1.5,2,6.68,6.68,0,0,1-2.07,1.28A6.38,6.38,0,0,1,141.16,34.58Zm0-3.78a2.85,2.85,0,0,0,1.23-.3,2.88,2.88,0,0,0,1-.89,2.63,2.63,0,0,0,.42-1.53,2.67,2.67,0,0,0-.35-1.4,2.48,2.48,0,0,0-1-.94,2.94,2.94,0,0,0-1.41-.34,2.6,2.6,0,0,0-1.34.35,2.82,2.82,0,0,0-.95,1,2.72,2.72,0,0,0-.36,1.39,2.58,2.58,0,0,0,.41,1.51,2.53,2.53,0,0,0,1,.91A2.89,2.89,0,0,0,141.11,30.8Z"/><path class="cls-2" d="M154.11,34.59a9.16,9.16,0,0,1-1.48-.15A9.62,9.62,0,0,1,151.1,34a5.23,5.23,0,0,1-1.25-.68,1.26,1.26,0,0,1-.56-.89,1.19,1.19,0,0,1,0-.53,2.08,2.08,0,0,1,.22-.6,5.08,5.08,0,0,1,.44-.67.94.94,0,0,1,.44-.35,1,1,0,0,1,.59,0,3.72,3.72,0,0,1,.8.26l.82.4a8.64,8.64,0,0,0,.88.38,2.62,2.62,0,0,0,.92.16,2.32,2.32,0,0,0,1.09-.21.65.65,0,0,0,.39-.59.64.64,0,0,0-.17-.45,1.35,1.35,0,0,0-.45-.3c-.19-.08-.41-.16-.67-.24l-.81-.21c-.29-.07-.59-.15-.9-.25a9.05,9.05,0,0,1-1.19-.45,4,4,0,0,1-1-.71,3.34,3.34,0,0,1-.74-1.08,4,4,0,0,1-.27-1.56,3.59,3.59,0,0,1,.56-2.05,3.51,3.51,0,0,1,1.67-1.26,7.34,7.34,0,0,1,2.7-.44c.3,0,.6,0,.9.05a5.28,5.28,0,0,1,.88.18,7.47,7.47,0,0,1,.87.3c.28.12.56.26.85.42a1.13,1.13,0,0,1,.77.95,2.39,2.39,0,0,1-1,1.84.89.89,0,0,1-.63.14,4.36,4.36,0,0,1-.86-.34c-.31-.16-.63-.3-1-.44a2.85,2.85,0,0,0-1-.2,2.18,2.18,0,0,0-.72.11,1.11,1.11,0,0,0-.45.3.69.69,0,0,0-.15.44.66.66,0,0,0,.19.51,1.4,1.4,0,0,0,.51.32,7.67,7.67,0,0,0,.75.22c.28.07.59.14.92.2s.92.2,1.39.34a4.71,4.71,0,0,1,1.3.61,3,3,0,0,1,1,1.08,3.76,3.76,0,0,1,.36,1.77,3.58,3.58,0,0,1-1.38,3A6.33,6.33,0,0,1,154.11,34.59Z"/><path class="cls-2" d="M173.26,34.07a4.82,4.82,0,0,1-2.16-.49,5.81,5.81,0,0,1-1.79-1.33,6.47,6.47,0,0,1-1.22-2,6,6,0,0,1-.45-2.32,6,6,0,0,1,.45-2.31,6.2,6.2,0,0,1,1.24-1.93,6,6,0,0,1,1.8-1.32,4.73,4.73,0,0,1,2.11-.49,3.84,3.84,0,0,1,1.9.44,3.33,3.33,0,0,1,1.25,1.25,6.46,6.46,0,0,1,.71,1.93,11.79,11.79,0,0,1,.24,2.48,11,11,0,0,1-.42,3.22,4.2,4.2,0,0,1-1.3,2.1A3.58,3.58,0,0,1,173.26,34.07Zm.45,5.48a7,7,0,0,1-1.77-.23,7.61,7.61,0,0,1-1.58-.6,4.52,4.52,0,0,1-1.15-.8,1.21,1.21,0,0,1-.43-.85,1.81,1.81,0,0,1,.15-.74,2.58,2.58,0,0,1,.45-.66,7,7,0,0,1,.6-.57.91.91,0,0,1,.6-.2,1.13,1.13,0,0,1,.63.18l.59.42a3.75,3.75,0,0,0,.78.41,3.43,3.43,0,0,0,1.2.19,2.26,2.26,0,0,0,.94-.19,2,2,0,0,0,.75-.55,2.65,2.65,0,0,0,.5-.85,2.9,2.9,0,0,0,.19-1.09V23.07a1.21,1.21,0,0,1,.51-.93,2.49,2.49,0,0,1,1.34-.29,2.31,2.31,0,0,1,1.25.26,1.11,1.11,0,0,1,.46.69,4.37,4.37,0,0,1,.08.9v9.88a5.84,5.84,0,0,1-.53,2.53,5.52,5.52,0,0,1-1.4,1.88,6.35,6.35,0,0,1-4.17,1.56Zm0-9.1a2.13,2.13,0,0,0,1.2-.34,2.37,2.37,0,0,0,.83-.89A2.45,2.45,0,0,0,176,28a2.6,2.6,0,0,0-.31-1.25,2.53,2.53,0,0,0-.85-.87,2.3,2.3,0,0,0-1.22-.33,2.13,2.13,0,0,0-1.2.34,2.37,2.37,0,0,0-.83.89,2.45,2.45,0,0,0-.32,1.25,2.3,2.3,0,0,0,.33,1.22,2.53,2.53,0,0,0,.86.89A2.15,2.15,0,0,0,173.69,30.45Z"/><path class="cls-2" d="M188.58,34.63a7.12,7.12,0,0,1-3-.58,5.72,5.72,0,0,1-2.06-1.51,6.51,6.51,0,0,1-1.2-2.09,6.83,6.83,0,0,1-.4-2.3,6.48,6.48,0,0,1,.85-3.32,6.14,6.14,0,0,1,2.37-2.29,7,7,0,0,1,3.46-.83,6.22,6.22,0,0,1,2.51.46,5.23,5.23,0,0,1,1.75,1.2,5.1,5.1,0,0,1,1,1.59,4.51,4.51,0,0,1,.33,1.63,2.8,2.8,0,0,1-.66,2,2.28,2.28,0,0,1-1.69.68h-6a1.76,1.76,0,0,0,.46,1.07,2.85,2.85,0,0,0,1,.7,3.5,3.5,0,0,0,1.33.25,8.05,8.05,0,0,0,1-.06,4.49,4.49,0,0,0,.79-.17l.59-.23.49-.19a2.53,2.53,0,0,1,.42-.1,1.06,1.06,0,0,1,.68.22,2,2,0,0,1,.57.71,1.71,1.71,0,0,1,.24.52,2.2,2.2,0,0,1,.06.5,1.36,1.36,0,0,1-.61,1.09,4.73,4.73,0,0,1-1.73.74A11.56,11.56,0,0,1,188.58,34.63Zm-2.67-7.4h4a1.06,1.06,0,0,0,.58-.13.65.65,0,0,0,.2-.54,1.21,1.21,0,0,0-.28-.78,1.84,1.84,0,0,0-.73-.54,3.27,3.27,0,0,0-2.44.12,2.38,2.38,0,0,0-.94.8A1.91,1.91,0,0,0,185.91,27.23Z"/><path class="cls-2" d="M198.18,34.39a2.39,2.39,0,0,1-1.31-.27,1,1,0,0,1-.47-.7,4.46,4.46,0,0,1-.09-.91v-8.8a4.26,4.26,0,0,1,.09-.89,1,1,0,0,1,.49-.66,2.71,2.71,0,0,1,1.33-.25,2.35,2.35,0,0,1,1.17.22,1,1,0,0,1,.49.51,1.73,1.73,0,0,1,.11.56.91.91,0,0,0,0,.36l-.15.48a1.39,1.39,0,0,1,.39-.76,3.32,3.32,0,0,1,.85-.7,4.73,4.73,0,0,1,1.1-.49,3.93,3.93,0,0,1,1.16-.17,4.9,4.9,0,0,1,2.14.44,4.29,4.29,0,0,1,1.58,1.26,5.56,5.56,0,0,1,1,1.94,8.16,8.16,0,0,1,.34,2.43v4.55a5.52,5.52,0,0,1-.08.92,1,1,0,0,1-.48.68,2.57,2.57,0,0,1-1.34.25,2.54,2.54,0,0,1-1.32-.26,1.08,1.08,0,0,1-.49-.7,4.53,4.53,0,0,1-.09-.91V28a2.87,2.87,0,0,0-.26-1.27,1.88,1.88,0,0,0-.75-.8,2.39,2.39,0,0,0-1.22-.28,2.59,2.59,0,0,0-1.25.29,2,2,0,0,0-.81.81,2.59,2.59,0,0,0-.29,1.25v4.55a4.46,4.46,0,0,1-.09.91,1.08,1.08,0,0,1-.47.69A2.64,2.64,0,0,1,198.18,34.39Z"/><path class="cls-2" d="M217.08,34.65a7.12,7.12,0,0,1-3-.58A5.84,5.84,0,0,1,212,32.56a6.61,6.61,0,0,1-1.2-2.09,6.88,6.88,0,0,1-.4-2.3,6.48,6.48,0,0,1,.85-3.32,6.14,6.14,0,0,1,2.37-2.29,7,7,0,0,1,3.46-.84,6.21,6.21,0,0,1,2.51.47,5.23,5.23,0,0,1,1.75,1.2,5.1,5.1,0,0,1,1,1.59,4.46,4.46,0,0,1,.33,1.62,2.82,2.82,0,0,1-.66,2,2.28,2.28,0,0,1-1.69.68h-6a1.77,1.77,0,0,0,.46,1.08,2.85,2.85,0,0,0,1,.7,3.48,3.48,0,0,0,1.32.25,8.1,8.1,0,0,0,1-.06,3.7,3.7,0,0,0,.79-.18c.22-.07.41-.15.59-.22a3.78,3.78,0,0,1,.49-.19,2.32,2.32,0,0,1,.42-.1,1.06,1.06,0,0,1,.67.21,2.06,2.06,0,0,1,.58.72,1.71,1.71,0,0,1,.24.52,2.2,2.2,0,0,1,.06.5,1.36,1.36,0,0,1-.61,1.09,4.74,4.74,0,0,1-1.73.73A11,11,0,0,1,217.08,34.65Zm-2.67-7.4h4a1.06,1.06,0,0,0,.58-.14.61.61,0,0,0,.2-.53,1.19,1.19,0,0,0-.28-.78,1.84,1.84,0,0,0-.73-.54,3,3,0,0,0-1.09-.19,3,3,0,0,0-1.35.3,2.39,2.39,0,0,0-.94.8A1.94,1.94,0,0,0,214.41,27.25Z"/><path class="cls-2" d="M226.68,34.43a2.5,2.5,0,0,1-1.31-.26,1.11,1.11,0,0,1-.48-.72,5.52,5.52,0,0,1-.08-.92V23.8a4.42,4.42,0,0,1,.09-.92,1.08,1.08,0,0,1,.49-.69,2.57,2.57,0,0,1,1.32-.26,2.52,2.52,0,0,1,1.27.24,1,1,0,0,1,.48.55,1.73,1.73,0,0,1,.1.54l-.3.15a4.13,4.13,0,0,1,.27-.37,3.92,3.92,0,0,1,.58-.55A3.46,3.46,0,0,1,230,22a3.38,3.38,0,0,1,1.23-.2,4.7,4.7,0,0,1,.62,0,3.14,3.14,0,0,1,.7.15,2.47,2.47,0,0,1,.66.3,1.66,1.66,0,0,1,.49.46,1.2,1.2,0,0,1,.18.67,3.09,3.09,0,0,1-.47,1.74,1.4,1.4,0,0,1-1.2.71,2,2,0,0,1-.6-.06,1,1,0,0,1-.29-.15,1.1,1.1,0,0,0-.26-.15,1.72,1.72,0,0,0-.55-.06,2.34,2.34,0,0,0-.71.1,1.85,1.85,0,0,0-.63.31,1.6,1.6,0,0,0-.45.52,1.53,1.53,0,0,0-.16.72v5.47a5.31,5.31,0,0,1-.08.91,1.07,1.07,0,0,1-.49.69A2.6,2.6,0,0,1,226.68,34.43Z"/><path class="cls-2" d="M246.08,34.42a2.33,2.33,0,0,1-1.37-.33.92.92,0,0,1-.43-.8l.25-.43a2.73,2.73,0,0,1-.57.62,4.45,4.45,0,0,1-1.11.65,4.39,4.39,0,0,1-1.67.28,4.87,4.87,0,0,1-2.18-.5,5.78,5.78,0,0,1-1.84-1.39,7,7,0,0,1-1.27-2,6,6,0,0,1-.48-2.38,5.82,5.82,0,0,1,.48-2.33,6.51,6.51,0,0,1,1.29-2A6.33,6.33,0,0,1,239,22.46a5,5,0,0,1,2.18-.5,4.05,4.05,0,0,1,1.57.27,4.15,4.15,0,0,1,1.09.61,3.2,3.2,0,0,1,.66.68l-.22-.35a1.07,1.07,0,0,1,.44-.92,2.39,2.39,0,0,1,1.38-.31,2.22,2.22,0,0,1,1.29.28,1.11,1.11,0,0,1,.48.72,5.8,5.8,0,0,1,.08.95v8.63a4.7,4.7,0,0,1-.09.92,1.07,1.07,0,0,1-.48.71A2.35,2.35,0,0,1,246.08,34.42Zm-4.37-3.73a2.13,2.13,0,0,0,1.2-.34,2.57,2.57,0,0,0,.85-.91,2.51,2.51,0,0,0,.33-1.27,2.48,2.48,0,0,0-.33-1.29,2.4,2.4,0,0,0-.87-.89,2.48,2.48,0,0,0-2.49,0,2.53,2.53,0,0,0-.9.91,2.5,2.5,0,0,0-.34,1.3,2.34,2.34,0,0,0,.34,1.24,2.56,2.56,0,0,0,.92.9A2.49,2.49,0,0,0,241.71,30.69Z"/><path class="cls-2" d="M255.26,34.45a16.4,16.4,0,0,1-1.83-.1,3.9,3.9,0,0,1-1.35-.41,2.55,2.55,0,0,1-.9-.83,4,4,0,0,1-.52-1.38,10,10,0,0,1-.18-2.06V18.12a4.57,4.57,0,0,1,.1-.93,1.21,1.21,0,0,1,.49-.7,2.39,2.39,0,0,1,1.31-.27,2.24,2.24,0,0,1,1.29.28,1.15,1.15,0,0,1,.49.7,4.4,4.4,0,0,1,.1.92V29.5a4.16,4.16,0,0,0,0,.66.8.8,0,0,0,.15.41.51.51,0,0,0,.31.2,2.4,2.4,0,0,0,.52.05,2.7,2.7,0,0,1,.62.08.9.9,0,0,1,.53.45,2.56,2.56,0,0,1,.23,1.25,2.79,2.79,0,0,1-.23,1.3.89.89,0,0,1-.54.47A2.65,2.65,0,0,1,255.26,34.45Z"/><path class="cls-2" d="M264.68,34.68a7.25,7.25,0,0,1-3-.58,5.84,5.84,0,0,1-2.06-1.51,6.43,6.43,0,0,1-1.2-2.09,6.92,6.92,0,0,1-.4-2.3,6.45,6.45,0,0,1,.85-3.33,6.19,6.19,0,0,1,2.37-2.28,7,7,0,0,1,3.46-.84,6.21,6.21,0,0,1,2.51.47,5.08,5.08,0,0,1,1.75,1.2A4.89,4.89,0,0,1,270,25a4.25,4.25,0,0,1,.34,1.62,2.82,2.82,0,0,1-.66,2.05,2.28,2.28,0,0,1-1.69.68H262a1.77,1.77,0,0,0,.46,1.08,2.85,2.85,0,0,0,1,.7,3.68,3.68,0,0,0,1.32.25,8.1,8.1,0,0,0,1-.06,4.43,4.43,0,0,0,.79-.18c.22-.07.41-.15.59-.22a4.32,4.32,0,0,1,.48-.19,2.63,2.63,0,0,1,.43-.1,1,1,0,0,1,.67.21,2.06,2.06,0,0,1,.58.72,2.18,2.18,0,0,1,.24.52,2.14,2.14,0,0,1,.06.5,1.36,1.36,0,0,1-.61,1.09,4.74,4.74,0,0,1-1.73.73A11,11,0,0,1,264.68,34.68ZM262,27.27H266a1.06,1.06,0,0,0,.58-.14.62.62,0,0,0,.2-.54,1.24,1.24,0,0,0-.28-.77,1.8,1.8,0,0,0-.74-.54,2.94,2.94,0,0,0-1.08-.19,3,3,0,0,0-1.35.3,2.39,2.39,0,0,0-.94.8A1.84,1.84,0,0,0,262,27.27Z"/><path class="cls-2" d="M276.91,34.66a8.07,8.07,0,0,1-1.48-.15,9,9,0,0,1-1.54-.44,5.27,5.27,0,0,1-1.25-.68,1.28,1.28,0,0,1-.56-.88,1.24,1.24,0,0,1,0-.54,2.32,2.32,0,0,1,.22-.6,3.78,3.78,0,0,1,.44-.66.84.84,0,0,1,.44-.35,1.06,1.06,0,0,1,.58,0,3,3,0,0,1,.8.27c.27.12.54.25.83.4a8.41,8.41,0,0,0,.87.37,2.69,2.69,0,0,0,.93.17,2.22,2.22,0,0,0,1.09-.22.64.64,0,0,0,.38-.58.61.61,0,0,0-.16-.45,1.43,1.43,0,0,0-.45-.31,5.77,5.77,0,0,0-.67-.23c-.26-.08-.53-.15-.82-.22s-.58-.15-.9-.25a6.8,6.8,0,0,1-1.18-.45,4,4,0,0,1-1.05-.71,3.1,3.1,0,0,1-.74-1.08,4,4,0,0,1-.27-1.56,3.61,3.61,0,0,1,.56-2.05,3.53,3.53,0,0,1,1.66-1.26,7.41,7.41,0,0,1,2.7-.44,6.8,6.8,0,0,1,.9.06,5.38,5.38,0,0,1,.89.17,8.75,8.75,0,0,1,.86.3,6.16,6.16,0,0,1,.85.43,1.13,1.13,0,0,1,.78,1,2.12,2.12,0,0,1-.43,1.25,2,2,0,0,1-.57.58.89.89,0,0,1-.63.14,3.82,3.82,0,0,1-.86-.34c-.31-.15-.63-.3-1-.43a2.68,2.68,0,0,0-1-.2,2,2,0,0,0-.72.11.94.94,0,0,0-.45.3.66.66,0,0,0-.15.43.73.73,0,0,0,.18.52,1.53,1.53,0,0,0,.52.31,6.19,6.19,0,0,0,.75.23l.92.19c.45.09.91.2,1.39.34a4.87,4.87,0,0,1,1.3.62,2.91,2.91,0,0,1,1,1.07,3.8,3.8,0,0,1,.36,1.78,3.57,3.57,0,0,1-1.38,3A6.35,6.35,0,0,1,276.91,34.66Z"/><path class="cls-3" d="M38.21,34.32A2.4,2.4,0,0,1,36.89,34a1.12,1.12,0,0,1-.49-.72,4.73,4.73,0,0,1-.09-.93V18.74a3.85,3.85,0,0,1,.1-.91,1.15,1.15,0,0,1,.5-.71,2.37,2.37,0,0,1,1.33-.28h5.12a6.37,6.37,0,0,1,2.1.37,6.18,6.18,0,0,1,2,1.16,5.9,5.9,0,0,1,2,4.64,6.06,6.06,0,0,1-.56,2.69,5.87,5.87,0,0,1-1.48,1.91,6.15,6.15,0,0,1-2,1.15,6.36,6.36,0,0,1-2.12.37h-3.2v3.28a4.53,4.53,0,0,1-.1.91,1.19,1.19,0,0,1-.5.71A2.37,2.37,0,0,1,38.21,34.32Zm1.93-9h3.23a2.61,2.61,0,0,0,1.08-.24,2.12,2.12,0,0,0,.9-.76A2.27,2.27,0,0,0,45.72,23a2.44,2.44,0,0,0-.31-1.23,2.38,2.38,0,0,0-.84-.83,2.54,2.54,0,0,0-1.23-.3h-3.2Z"/><path class="cls-3" d="M53.49,34.33a2.41,2.41,0,0,1-1.32-.27,1.06,1.06,0,0,1-.47-.71,4.7,4.7,0,0,1-.09-.92V23.7a5.46,5.46,0,0,1,.08-.93,1.08,1.08,0,0,1,.49-.68,2.49,2.49,0,0,1,1.33-.26,2.63,2.63,0,0,1,1.26.23,1.1,1.1,0,0,1,.49.55,2.08,2.08,0,0,1,.1.54l-.3.15a2.48,2.48,0,0,1,.26-.36,3.2,3.2,0,0,1,.59-.55,3.71,3.71,0,0,1,.91-.49,3.62,3.62,0,0,1,1.24-.2c.18,0,.39,0,.61,0a4.62,4.62,0,0,1,.7.15,3.32,3.32,0,0,1,.66.3,1.8,1.8,0,0,1,.49.46,1.24,1.24,0,0,1,.19.68,3.06,3.06,0,0,1-.48,1.74,1.42,1.42,0,0,1-1.2.71,2.11,2.11,0,0,1-.6-.06,1.3,1.3,0,0,1-.29-.15.93.93,0,0,0-.26-.15,1.39,1.39,0,0,0-.55-.07,2.71,2.71,0,0,0-.71.1,1.88,1.88,0,0,0-.63.32A1.45,1.45,0,0,0,55.39,27v5.48a4.53,4.53,0,0,1-.09.91,1,1,0,0,1-.49.69A2.69,2.69,0,0,1,53.49,34.33Z"/><path class="cls-3" d="M68.68,34.53a6.2,6.2,0,0,1-2.33-.46,7.11,7.11,0,0,1-2.11-1.31,6.41,6.41,0,0,1-1.52-2,6.41,6.41,0,0,1,0-5.15,6.63,6.63,0,0,1,1.41-2.06,6.75,6.75,0,0,1,2.06-1.41,6,6,0,0,1,2.49-.51,6.23,6.23,0,0,1,3.26.86,6.4,6.4,0,0,1,2.34,2.34,6.71,6.71,0,0,1,.31,6,6.5,6.5,0,0,1-1.5,2A6.57,6.57,0,0,1,71,34.1,6.36,6.36,0,0,1,68.68,34.53Zm0-3.77a2.78,2.78,0,0,0,1.22-.3,2.67,2.67,0,0,0,1-.9A2.53,2.53,0,0,0,71.34,28a2.74,2.74,0,0,0-.35-1.4,2.41,2.41,0,0,0-1-.94,2.83,2.83,0,0,0-1.41-.34,2.6,2.6,0,0,0-1.34.35,2.65,2.65,0,0,0-1,1A2.7,2.7,0,0,0,66,28.06a2.61,2.61,0,0,0,.42,1.51,2.47,2.47,0,0,0,1,.9A3,3,0,0,0,68.64,30.76Z"/><path class="cls-3" d="M78.86,39.52a2.38,2.38,0,0,1-1.3-.27,1,1,0,0,1-.48-.67,5,5,0,0,1-.07-.89v-14a5.17,5.17,0,0,1,.07-.91,1.1,1.1,0,0,1,.47-.69,2.28,2.28,0,0,1,1.28-.27,2.86,2.86,0,0,1,1.24.23,1.29,1.29,0,0,1,.66.7v14.9a3.36,3.36,0,0,1-.07.9,1.11,1.11,0,0,1-.49.68A2.39,2.39,0,0,1,78.86,39.52Zm4.8-5.4a4.61,4.61,0,0,1-2.15-.49A4.49,4.49,0,0,1,80,32.3a6.16,6.16,0,0,1-.92-1.93A8.31,8.31,0,0,1,78.76,28a8.22,8.22,0,0,1,.33-2.34,6.53,6.53,0,0,1,.94-2,4.3,4.3,0,0,1,1.53-1.35,4.44,4.44,0,0,1,2.11-.49,4.79,4.79,0,0,1,2.15.51,6.15,6.15,0,0,1,1.83,1.36,6.47,6.47,0,0,1,1.28,2,6.14,6.14,0,0,1,.46,2.37,6.29,6.29,0,0,1-.46,2.37,6.23,6.23,0,0,1-1.27,1.93,5.92,5.92,0,0,1-1.82,1.29A5.23,5.23,0,0,1,83.66,34.12Zm-.5-3.53a2.36,2.36,0,0,0,1.25-.33,2.67,2.67,0,0,0,.89-.91,2.45,2.45,0,0,0,.34-1.28,2.54,2.54,0,0,0-.33-1.28,2.38,2.38,0,0,0-.88-.9,2.52,2.52,0,0,0-1.24-.32,2.34,2.34,0,0,0-1.24.34,2.4,2.4,0,0,0-.87.89,2.58,2.58,0,0,0-.32,1.27A2.59,2.59,0,0,0,82,30.26,2.31,2.31,0,0,0,83.16,30.59Z"/><path class="cls-3" d="M97.43,34.55a6.2,6.2,0,0,1-2.33-.46A6.94,6.94,0,0,1,93,32.77a6.08,6.08,0,0,1-2.08-4.67,6.16,6.16,0,0,1,.52-2.51,6.67,6.67,0,0,1,1.41-2.07,6.75,6.75,0,0,1,2.06-1.41,6.16,6.16,0,0,1,2.49-.51,6.24,6.24,0,0,1,3.26.87A6.4,6.4,0,0,1,103,24.81a6.3,6.3,0,0,1,.87,3.27,6.17,6.17,0,0,1-.56,2.71,6.66,6.66,0,0,1-1.5,2,6.57,6.57,0,0,1-2.08,1.29A6.36,6.36,0,0,1,97.43,34.55Zm0-3.77a2.81,2.81,0,0,0,1.22-.3,2.67,2.67,0,0,0,1-.9,2.54,2.54,0,0,0,.43-1.53,2.77,2.77,0,0,0-.35-1.4,2.45,2.45,0,0,0-1-.93,2.83,2.83,0,0,0-1.41-.34,2.51,2.51,0,0,0-1.34.35,2.65,2.65,0,0,0-1,1,2.7,2.7,0,0,0-.37,1.39,2.61,2.61,0,0,0,.42,1.51,2.47,2.47,0,0,0,1,.9A3,3,0,0,0,97.39,30.78Zm-1-9.83a.85.85,0,0,1-.74-.25,2.63,2.63,0,0,1-.51-1,2,2,0,0,1-.1-1.3,1.38,1.38,0,0,1,.92-.67l4.41-1.35a.87.87,0,0,1,.72.29,2.35,2.35,0,0,1,.5,1,2,2,0,0,1,.09,1.28,1.34,1.34,0,0,1-.92.67Z"/><path class="cls-3" d="M110.38,34.56a8,8,0,0,1-1.47-.15,8.79,8.79,0,0,1-1.54-.44,5.08,5.08,0,0,1-1.25-.68,1.24,1.24,0,0,1-.56-.88,1.41,1.41,0,0,1,0-.54,2.37,2.37,0,0,1,.23-.6,3.78,3.78,0,0,1,.44-.66.86.86,0,0,1,.43-.35,1.09,1.09,0,0,1,.59,0,3,3,0,0,1,.8.27c.27.12.54.25.83.4a8.41,8.41,0,0,0,.87.37,2.68,2.68,0,0,0,.93.16,2.18,2.18,0,0,0,1.08-.21.64.64,0,0,0,.39-.58.61.61,0,0,0-.16-.45,1.27,1.27,0,0,0-.45-.3,4.32,4.32,0,0,0-.67-.24c-.26-.08-.53-.15-.82-.22s-.58-.15-.9-.25a7.22,7.22,0,0,1-1.19-.45,3.76,3.76,0,0,1-1-.71,3.1,3.1,0,0,1-.74-1.08,4,4,0,0,1-.28-1.56,3.59,3.59,0,0,1,.57-2.05,3.48,3.48,0,0,1,1.66-1.26,7.18,7.18,0,0,1,2.7-.43,6.79,6.79,0,0,1,.9,0,5.38,5.38,0,0,1,.89.17,8.75,8.75,0,0,1,.86.3,6.79,6.79,0,0,1,.85.43,1.13,1.13,0,0,1,.78.95,2.12,2.12,0,0,1-.43,1.25,2.17,2.17,0,0,1-.58.59.86.86,0,0,1-.62.13,4.13,4.13,0,0,1-.86-.34c-.31-.16-.64-.3-1-.44a2.82,2.82,0,0,0-1-.19,2,2,0,0,0-.72.11.89.89,0,0,0-.45.3.62.62,0,0,0-.16.43.74.74,0,0,0,.19.52,1.58,1.58,0,0,0,.51.31,5.64,5.64,0,0,0,.75.22l.93.21a13.23,13.23,0,0,1,1.39.33,5,5,0,0,1,1.3.62,3,3,0,0,1,1,1.07,3.78,3.78,0,0,1,.36,1.78,3.57,3.57,0,0,1-1.38,3A6.38,6.38,0,0,1,110.38,34.56Z"/><path class="cls-3" d="M119.84,20.07a2.61,2.61,0,0,1-1.35-.28,1.1,1.1,0,0,1-.48-.73,5.11,5.11,0,0,1,0-1.91,1.06,1.06,0,0,1,.5-.7,2.69,2.69,0,0,1,1.36-.26,2.37,2.37,0,0,1,1.33.28,1.11,1.11,0,0,1,.48.72,5,5,0,0,1,.09,1,4.7,4.7,0,0,1-.09.92,1.05,1.05,0,0,1-.49.71A2.48,2.48,0,0,1,119.84,20.07Zm0,14.3a2.55,2.55,0,0,1-1.32-.27,1,1,0,0,1-.47-.7,4.47,4.47,0,0,1-.08-.91V23.76a5.4,5.4,0,0,1,.08-.91,1.08,1.08,0,0,1,.49-.7,2.59,2.59,0,0,1,1.33-.26,2.18,2.18,0,0,1,1.28.28,1.12,1.12,0,0,1,.48.71,4.62,4.62,0,0,1,.09.94v8.7a4.53,4.53,0,0,1-.09.91,1,1,0,0,1-.47.69A2.64,2.64,0,0,1,119.83,34.37Z"/><path class="cls-3" d="M125.17,22.07h2.75l3.45-.1a4.43,4.43,0,0,1,.9.09,1.13,1.13,0,0,1,.7.49,2.46,2.46,0,0,1,.27,1.32,2.35,2.35,0,0,1-.26,1.25,1.21,1.21,0,0,1-.69.52,3.83,3.83,0,0,1-.93.11l-3.27-.08-3,0a1.23,1.23,0,0,1-1-.46,2.47,2.47,0,0,1-.28-1.39,2.05,2.05,0,0,1,.35-1.33A1.23,1.23,0,0,1,125.17,22.07Zm5.64,12.3a7.92,7.92,0,0,1-2.2-.27,3.41,3.41,0,0,1-2.39-2.32,6.91,6.91,0,0,1-.28-2.11V19.54a4.22,4.22,0,0,1,.09-.92,1,1,0,0,1,.49-.66,3.21,3.21,0,0,1,2.6,0,1.1,1.1,0,0,1,.49.71,5.52,5.52,0,0,1,.08.92v9.92a3,3,0,0,0,.06.66.71.71,0,0,0,.19.39.69.69,0,0,0,.35.18,2.79,2.79,0,0,0,.55.05,4.07,4.07,0,0,1,1,.1,1,1,0,0,1,.66.45,2.13,2.13,0,0,1,.24,1.17,2.28,2.28,0,0,1-.28,1.3,1,1,0,0,1-.71.48A5.33,5.33,0,0,1,130.81,34.37Z"/><path class="cls-3" d="M141.16,34.58a6.3,6.3,0,0,1-2.34-.47,6.84,6.84,0,0,1-2.11-1.31,6.38,6.38,0,0,1-1.51-2,6,6,0,0,1-.56-2.64,6.19,6.19,0,0,1,.51-2.51,6.93,6.93,0,0,1,1.41-2.06,6.79,6.79,0,0,1,2.07-1.41,6.09,6.09,0,0,1,2.49-.51,6.35,6.35,0,0,1,3.26.86,6.72,6.72,0,0,1,2.34,2.34,6.36,6.36,0,0,1,.87,3.28,6.2,6.2,0,0,1-.57,2.71,6.35,6.35,0,0,1-1.5,2,6.68,6.68,0,0,1-2.07,1.28A6.38,6.38,0,0,1,141.16,34.58Zm0-3.78a2.85,2.85,0,0,0,1.23-.3,2.88,2.88,0,0,0,1-.89,2.63,2.63,0,0,0,.42-1.53,2.67,2.67,0,0,0-.35-1.4,2.48,2.48,0,0,0-1-.94,2.94,2.94,0,0,0-1.41-.34,2.6,2.6,0,0,0-1.34.35,2.82,2.82,0,0,0-.95,1,2.72,2.72,0,0,0-.36,1.39,2.58,2.58,0,0,0,.41,1.51,2.53,2.53,0,0,0,1,.91A2.89,2.89,0,0,0,141.11,30.8Z"/><path class="cls-3" d="M154.11,34.59a9.16,9.16,0,0,1-1.48-.15A9.62,9.62,0,0,1,151.1,34a5.23,5.23,0,0,1-1.25-.68,1.26,1.26,0,0,1-.56-.89,1.19,1.19,0,0,1,0-.53,2.08,2.08,0,0,1,.22-.6,5.08,5.08,0,0,1,.44-.67.94.94,0,0,1,.44-.35,1,1,0,0,1,.59,0,3.72,3.72,0,0,1,.8.26l.82.4a8.64,8.64,0,0,0,.88.38,2.62,2.62,0,0,0,.92.16,2.32,2.32,0,0,0,1.09-.21.65.65,0,0,0,.39-.59.64.64,0,0,0-.17-.45,1.35,1.35,0,0,0-.45-.3c-.19-.08-.41-.16-.67-.24l-.81-.21c-.29-.07-.59-.15-.9-.25a9.05,9.05,0,0,1-1.19-.45,4,4,0,0,1-1-.71,3.34,3.34,0,0,1-.74-1.08,4,4,0,0,1-.27-1.56,3.59,3.59,0,0,1,.56-2.05,3.51,3.51,0,0,1,1.67-1.26,7.34,7.34,0,0,1,2.7-.44c.3,0,.6,0,.9.05a5.28,5.28,0,0,1,.88.18,7.47,7.47,0,0,1,.87.3c.28.12.56.26.85.42a1.13,1.13,0,0,1,.77.95,2.39,2.39,0,0,1-1,1.84.89.89,0,0,1-.63.14,4.36,4.36,0,0,1-.86-.34c-.31-.16-.63-.3-1-.44a2.85,2.85,0,0,0-1-.2,2.18,2.18,0,0,0-.72.11,1.11,1.11,0,0,0-.45.3.69.69,0,0,0-.15.44.66.66,0,0,0,.19.51,1.4,1.4,0,0,0,.51.32,7.67,7.67,0,0,0,.75.22c.28.07.59.14.92.2s.92.2,1.39.34a4.71,4.71,0,0,1,1.3.61,3,3,0,0,1,1,1.08,3.76,3.76,0,0,1,.36,1.77,3.58,3.58,0,0,1-1.38,3A6.33,6.33,0,0,1,154.11,34.59Z"/><path class="cls-3" d="M173.26,34.07a4.82,4.82,0,0,1-2.16-.49,5.81,5.81,0,0,1-1.79-1.33,6.47,6.47,0,0,1-1.22-2,6,6,0,0,1-.45-2.32,6,6,0,0,1,.45-2.31,6.2,6.2,0,0,1,1.24-1.93,6,6,0,0,1,1.8-1.32,4.73,4.73,0,0,1,2.11-.49,3.84,3.84,0,0,1,1.9.44,3.33,3.33,0,0,1,1.25,1.25,6.46,6.46,0,0,1,.71,1.93,11.79,11.79,0,0,1,.24,2.48,11,11,0,0,1-.42,3.22,4.2,4.2,0,0,1-1.3,2.1A3.58,3.58,0,0,1,173.26,34.07Zm.45,5.48a7,7,0,0,1-1.77-.23,7.61,7.61,0,0,1-1.58-.6,4.52,4.52,0,0,1-1.15-.8,1.21,1.21,0,0,1-.43-.85,1.81,1.81,0,0,1,.15-.74,2.58,2.58,0,0,1,.45-.66,7,7,0,0,1,.6-.57.91.91,0,0,1,.6-.2,1.13,1.13,0,0,1,.63.18l.59.42a3.75,3.75,0,0,0,.78.41,3.43,3.43,0,0,0,1.2.19,2.26,2.26,0,0,0,.94-.19,2,2,0,0,0,.75-.55,2.65,2.65,0,0,0,.5-.85,2.9,2.9,0,0,0,.19-1.09V23.07a1.21,1.21,0,0,1,.51-.93,2.49,2.49,0,0,1,1.34-.29,2.31,2.31,0,0,1,1.25.26,1.11,1.11,0,0,1,.46.69,4.37,4.37,0,0,1,.08.9v9.88a5.84,5.84,0,0,1-.53,2.53,5.52,5.52,0,0,1-1.4,1.88,6.35,6.35,0,0,1-4.17,1.56Zm0-9.1a2.13,2.13,0,0,0,1.2-.34,2.37,2.37,0,0,0,.83-.89A2.45,2.45,0,0,0,176,28a2.6,2.6,0,0,0-.31-1.25,2.53,2.53,0,0,0-.85-.87,2.3,2.3,0,0,0-1.22-.33,2.13,2.13,0,0,0-1.2.34,2.37,2.37,0,0,0-.83.89,2.45,2.45,0,0,0-.32,1.25,2.3,2.3,0,0,0,.33,1.22,2.53,2.53,0,0,0,.86.89A2.15,2.15,0,0,0,173.69,30.45Z"/><path class="cls-3" d="M188.58,34.63a7.12,7.12,0,0,1-3-.58,5.72,5.72,0,0,1-2.06-1.51,6.51,6.51,0,0,1-1.2-2.09,6.83,6.83,0,0,1-.4-2.3,6.48,6.48,0,0,1,.85-3.32,6.14,6.14,0,0,1,2.37-2.29,7,7,0,0,1,3.46-.83,6.22,6.22,0,0,1,2.51.46,5.23,5.23,0,0,1,1.75,1.2,5.1,5.1,0,0,1,1,1.59,4.51,4.51,0,0,1,.33,1.63,2.8,2.8,0,0,1-.66,2,2.28,2.28,0,0,1-1.69.68h-6a1.76,1.76,0,0,0,.46,1.07,2.85,2.85,0,0,0,1,.7,3.5,3.5,0,0,0,1.33.25,8.05,8.05,0,0,0,1-.06,4.49,4.49,0,0,0,.79-.17l.59-.23.49-.19a2.53,2.53,0,0,1,.42-.1,1.06,1.06,0,0,1,.68.22,2,2,0,0,1,.57.71,1.71,1.71,0,0,1,.24.52,2.2,2.2,0,0,1,.06.5,1.36,1.36,0,0,1-.61,1.09,4.73,4.73,0,0,1-1.73.74A11.56,11.56,0,0,1,188.58,34.63Zm-2.67-7.4h4a1.06,1.06,0,0,0,.58-.13.65.65,0,0,0,.2-.54,1.21,1.21,0,0,0-.28-.78,1.84,1.84,0,0,0-.73-.54,3.27,3.27,0,0,0-2.44.12,2.38,2.38,0,0,0-.94.8A1.91,1.91,0,0,0,185.91,27.23Z"/><path class="cls-3" d="M198.18,34.39a2.39,2.39,0,0,1-1.31-.27,1,1,0,0,1-.47-.7,4.46,4.46,0,0,1-.09-.91v-8.8a4.26,4.26,0,0,1,.09-.89,1,1,0,0,1,.49-.66,2.71,2.71,0,0,1,1.33-.25,2.35,2.35,0,0,1,1.17.22,1,1,0,0,1,.49.51,1.73,1.73,0,0,1,.11.56.91.91,0,0,0,0,.36l-.15.48a1.39,1.39,0,0,1,.39-.76,3.32,3.32,0,0,1,.85-.7,4.73,4.73,0,0,1,1.1-.49,3.93,3.93,0,0,1,1.16-.17,4.9,4.9,0,0,1,2.14.44,4.29,4.29,0,0,1,1.58,1.26,5.56,5.56,0,0,1,1,1.94,8.16,8.16,0,0,1,.34,2.43v4.55a5.52,5.52,0,0,1-.08.92,1,1,0,0,1-.48.68,2.57,2.57,0,0,1-1.34.25,2.54,2.54,0,0,1-1.32-.26,1.08,1.08,0,0,1-.49-.7,4.53,4.53,0,0,1-.09-.91V28a2.87,2.87,0,0,0-.26-1.27,1.88,1.88,0,0,0-.75-.8,2.39,2.39,0,0,0-1.22-.28,2.59,2.59,0,0,0-1.25.29,2,2,0,0,0-.81.81,2.59,2.59,0,0,0-.29,1.25v4.55a4.46,4.46,0,0,1-.09.91,1.08,1.08,0,0,1-.47.69A2.64,2.64,0,0,1,198.18,34.39Z"/><path class="cls-3" d="M217.08,34.65a7.12,7.12,0,0,1-3-.58A5.84,5.84,0,0,1,212,32.56a6.61,6.61,0,0,1-1.2-2.09,6.88,6.88,0,0,1-.4-2.3,6.48,6.48,0,0,1,.85-3.32,6.14,6.14,0,0,1,2.37-2.29,7,7,0,0,1,3.46-.84,6.21,6.21,0,0,1,2.51.47,5.23,5.23,0,0,1,1.75,1.2,5.1,5.1,0,0,1,1,1.59,4.46,4.46,0,0,1,.33,1.62,2.82,2.82,0,0,1-.66,2,2.28,2.28,0,0,1-1.69.68h-6a1.77,1.77,0,0,0,.46,1.08,2.85,2.85,0,0,0,1,.7,3.48,3.48,0,0,0,1.32.25,8.1,8.1,0,0,0,1-.06,3.7,3.7,0,0,0,.79-.18c.22-.07.41-.15.59-.22a3.78,3.78,0,0,1,.49-.19,2.32,2.32,0,0,1,.42-.1,1.06,1.06,0,0,1,.67.21,2.06,2.06,0,0,1,.58.72,1.71,1.71,0,0,1,.24.52,2.2,2.2,0,0,1,.06.5,1.36,1.36,0,0,1-.61,1.09,4.74,4.74,0,0,1-1.73.73A11,11,0,0,1,217.08,34.65Zm-2.67-7.4h4a1.06,1.06,0,0,0,.58-.14.61.61,0,0,0,.2-.53,1.19,1.19,0,0,0-.28-.78,1.84,1.84,0,0,0-.73-.54,3,3,0,0,0-1.09-.19,3,3,0,0,0-1.35.3,2.39,2.39,0,0,0-.94.8A1.94,1.94,0,0,0,214.41,27.25Z"/><path class="cls-3" d="M226.68,34.43a2.5,2.5,0,0,1-1.31-.26,1.11,1.11,0,0,1-.48-.72,5.52,5.52,0,0,1-.08-.92V23.8a4.42,4.42,0,0,1,.09-.92,1.08,1.08,0,0,1,.49-.69,2.57,2.57,0,0,1,1.32-.26,2.52,2.52,0,0,1,1.27.24,1,1,0,0,1,.48.55,1.73,1.73,0,0,1,.1.54l-.3.15a4.13,4.13,0,0,1,.27-.37,3.92,3.92,0,0,1,.58-.55A3.46,3.46,0,0,1,230,22a3.38,3.38,0,0,1,1.23-.2,4.7,4.7,0,0,1,.62,0,3.14,3.14,0,0,1,.7.15,2.47,2.47,0,0,1,.66.3,1.66,1.66,0,0,1,.49.46,1.2,1.2,0,0,1,.18.67,3.09,3.09,0,0,1-.47,1.74,1.4,1.4,0,0,1-1.2.71,2,2,0,0,1-.6-.06,1,1,0,0,1-.29-.15,1.1,1.1,0,0,0-.26-.15,1.72,1.72,0,0,0-.55-.06,2.34,2.34,0,0,0-.71.1,1.85,1.85,0,0,0-.63.31,1.6,1.6,0,0,0-.45.52,1.53,1.53,0,0,0-.16.72v5.47a5.31,5.31,0,0,1-.08.91,1.07,1.07,0,0,1-.49.69A2.6,2.6,0,0,1,226.68,34.43Z"/><path class="cls-3" d="M246.08,34.42a2.33,2.33,0,0,1-1.37-.33.92.92,0,0,1-.43-.8l.25-.43a2.73,2.73,0,0,1-.57.62,4.45,4.45,0,0,1-1.11.65,4.39,4.39,0,0,1-1.67.28,4.87,4.87,0,0,1-2.18-.5,5.78,5.78,0,0,1-1.84-1.39,7,7,0,0,1-1.27-2,6,6,0,0,1-.48-2.38,5.82,5.82,0,0,1,.48-2.33,6.51,6.51,0,0,1,1.29-2A6.33,6.33,0,0,1,239,22.46a5,5,0,0,1,2.18-.5,4.05,4.05,0,0,1,1.57.27,4.15,4.15,0,0,1,1.09.61,3.2,3.2,0,0,1,.66.68l-.22-.35a1.07,1.07,0,0,1,.44-.92,2.39,2.39,0,0,1,1.38-.31,2.22,2.22,0,0,1,1.29.28,1.11,1.11,0,0,1,.48.72,5.8,5.8,0,0,1,.08.95v8.63a4.7,4.7,0,0,1-.09.92,1.07,1.07,0,0,1-.48.71A2.35,2.35,0,0,1,246.08,34.42Zm-4.37-3.73a2.13,2.13,0,0,0,1.2-.34,2.57,2.57,0,0,0,.85-.91,2.51,2.51,0,0,0,.33-1.27,2.48,2.48,0,0,0-.33-1.29,2.4,2.4,0,0,0-.87-.89,2.48,2.48,0,0,0-2.49,0,2.53,2.53,0,0,0-.9.91,2.5,2.5,0,0,0-.34,1.3,2.34,2.34,0,0,0,.34,1.24,2.56,2.56,0,0,0,.92.9A2.49,2.49,0,0,0,241.71,30.69Z"/><path class="cls-3" d="M255.26,34.45a16.4,16.4,0,0,1-1.83-.1,3.9,3.9,0,0,1-1.35-.41,2.55,2.55,0,0,1-.9-.83,4,4,0,0,1-.52-1.38,10,10,0,0,1-.18-2.06V18.12a4.57,4.57,0,0,1,.1-.93,1.21,1.21,0,0,1,.49-.7,2.39,2.39,0,0,1,1.31-.27,2.24,2.24,0,0,1,1.29.28,1.15,1.15,0,0,1,.49.7,4.4,4.4,0,0,1,.1.92V29.5a4.16,4.16,0,0,0,0,.66.8.8,0,0,0,.15.41.51.51,0,0,0,.31.2,2.4,2.4,0,0,0,.52.05,2.7,2.7,0,0,1,.62.08.9.9,0,0,1,.53.45,2.56,2.56,0,0,1,.23,1.25,2.79,2.79,0,0,1-.23,1.3.89.89,0,0,1-.54.47A2.65,2.65,0,0,1,255.26,34.45Z"/><path class="cls-3" d="M264.68,34.68a7.25,7.25,0,0,1-3-.58,5.84,5.84,0,0,1-2.06-1.51,6.43,6.43,0,0,1-1.2-2.09,6.92,6.92,0,0,1-.4-2.3,6.45,6.45,0,0,1,.85-3.33,6.19,6.19,0,0,1,2.37-2.28,7,7,0,0,1,3.46-.84,6.21,6.21,0,0,1,2.51.47,5.08,5.08,0,0,1,1.75,1.2A4.89,4.89,0,0,1,270,25a4.25,4.25,0,0,1,.34,1.62,2.82,2.82,0,0,1-.66,2.05,2.28,2.28,0,0,1-1.69.68H262a1.77,1.77,0,0,0,.46,1.08,2.85,2.85,0,0,0,1,.7,3.68,3.68,0,0,0,1.32.25,8.1,8.1,0,0,0,1-.06,4.43,4.43,0,0,0,.79-.18c.22-.07.41-.15.59-.22a4.32,4.32,0,0,1,.48-.19,2.63,2.63,0,0,1,.43-.1,1,1,0,0,1,.67.21,2.06,2.06,0,0,1,.58.72,2.18,2.18,0,0,1,.24.52,2.14,2.14,0,0,1,.06.5,1.36,1.36,0,0,1-.61,1.09,4.74,4.74,0,0,1-1.73.73A11,11,0,0,1,264.68,34.68ZM262,27.27H266a1.06,1.06,0,0,0,.58-.14.62.62,0,0,0,.2-.54,1.24,1.24,0,0,0-.28-.77,1.8,1.8,0,0,0-.74-.54,2.94,2.94,0,0,0-1.08-.19,3,3,0,0,0-1.35.3,2.39,2.39,0,0,0-.94.8A1.84,1.84,0,0,0,262,27.27Z"/><path class="cls-3" d="M276.91,34.66a8.07,8.07,0,0,1-1.48-.15,9,9,0,0,1-1.54-.44,5.27,5.27,0,0,1-1.25-.68,1.28,1.28,0,0,1-.56-.88,1.24,1.24,0,0,1,0-.54,2.32,2.32,0,0,1,.22-.6,3.78,3.78,0,0,1,.44-.66.84.84,0,0,1,.44-.35,1.06,1.06,0,0,1,.58,0,3,3,0,0,1,.8.27c.27.12.54.25.83.4a8.41,8.41,0,0,0,.87.37,2.69,2.69,0,0,0,.93.17,2.22,2.22,0,0,0,1.09-.22.64.64,0,0,0,.38-.58.61.61,0,0,0-.16-.45,1.43,1.43,0,0,0-.45-.31,5.77,5.77,0,0,0-.67-.23c-.26-.08-.53-.15-.82-.22s-.58-.15-.9-.25a6.8,6.8,0,0,1-1.18-.45,4,4,0,0,1-1.05-.71,3.1,3.1,0,0,1-.74-1.08,4,4,0,0,1-.27-1.56,3.61,3.61,0,0,1,.56-2.05,3.53,3.53,0,0,1,1.66-1.26,7.41,7.41,0,0,1,2.7-.44,6.8,6.8,0,0,1,.9.06,5.38,5.38,0,0,1,.89.17,8.75,8.75,0,0,1,.86.3,6.16,6.16,0,0,1,.85.43,1.13,1.13,0,0,1,.78,1,2.12,2.12,0,0,1-.43,1.25,2,2,0,0,1-.57.58.89.89,0,0,1-.63.14,3.82,3.82,0,0,1-.86-.34c-.31-.15-.63-.3-1-.43a2.68,2.68,0,0,0-1-.2,2,2,0,0,0-.72.11.94.94,0,0,0-.45.3.66.66,0,0,0-.15.43.73.73,0,0,0,.18.52,1.53,1.53,0,0,0,.52.31,6.19,6.19,0,0,0,.75.23l.92.19c.45.09.91.2,1.39.34a4.87,4.87,0,0,1,1.3.62,2.91,2.91,0,0,1,1,1.07,3.8,3.8,0,0,1,.36,1.78,3.57,3.57,0,0,1-1.38,3A6.35,6.35,0,0,1,276.91,34.66Z"/><path class="cls-2" d="M38.21,34.32A2.4,2.4,0,0,1,36.89,34a1.12,1.12,0,0,1-.49-.72,4.73,4.73,0,0,1-.09-.93V18.74a3.85,3.85,0,0,1,.1-.91,1.15,1.15,0,0,1,.5-.71,2.37,2.37,0,0,1,1.33-.28h5.12a6.37,6.37,0,0,1,2.1.37,6.18,6.18,0,0,1,2,1.16,5.9,5.9,0,0,1,2,4.64,6.06,6.06,0,0,1-.56,2.69,5.87,5.87,0,0,1-1.48,1.91,6.15,6.15,0,0,1-2,1.15,6.36,6.36,0,0,1-2.12.37h-3.2v3.28a4.53,4.53,0,0,1-.1.91,1.19,1.19,0,0,1-.5.71A2.37,2.37,0,0,1,38.21,34.32Zm1.93-9h3.23a2.61,2.61,0,0,0,1.08-.24,2.12,2.12,0,0,0,.9-.76A2.27,2.27,0,0,0,45.72,23a2.44,2.44,0,0,0-.31-1.23,2.38,2.38,0,0,0-.84-.83,2.54,2.54,0,0,0-1.23-.3h-3.2Z"/><path class="cls-2" d="M53.49,34.33a2.41,2.41,0,0,1-1.32-.27,1.06,1.06,0,0,1-.47-.71,4.7,4.7,0,0,1-.09-.92V23.7a5.46,5.46,0,0,1,.08-.93,1.08,1.08,0,0,1,.49-.68,2.49,2.49,0,0,1,1.33-.26,2.63,2.63,0,0,1,1.26.23,1.1,1.1,0,0,1,.49.55,2.08,2.08,0,0,1,.1.54l-.3.15a2.48,2.48,0,0,1,.26-.36,3.2,3.2,0,0,1,.59-.55,3.71,3.71,0,0,1,.91-.49,3.62,3.62,0,0,1,1.24-.2c.18,0,.39,0,.61,0a4.62,4.62,0,0,1,.7.15,3.32,3.32,0,0,1,.66.3,1.8,1.8,0,0,1,.49.46,1.24,1.24,0,0,1,.19.68,3.06,3.06,0,0,1-.48,1.74,1.42,1.42,0,0,1-1.2.71,2.11,2.11,0,0,1-.6-.06,1.3,1.3,0,0,1-.29-.15.93.93,0,0,0-.26-.15,1.39,1.39,0,0,0-.55-.07,2.71,2.71,0,0,0-.71.1,1.88,1.88,0,0,0-.63.32A1.45,1.45,0,0,0,55.39,27v5.48a4.53,4.53,0,0,1-.09.91,1,1,0,0,1-.49.69A2.69,2.69,0,0,1,53.49,34.33Z"/><path class="cls-2" d="M68.68,34.53a6.2,6.2,0,0,1-2.33-.46,7.11,7.11,0,0,1-2.11-1.31,6.41,6.41,0,0,1-1.52-2,6.41,6.41,0,0,1,0-5.15,6.63,6.63,0,0,1,1.41-2.06,6.75,6.75,0,0,1,2.06-1.41,6,6,0,0,1,2.49-.51,6.23,6.23,0,0,1,3.26.86,6.4,6.4,0,0,1,2.34,2.34,6.71,6.71,0,0,1,.31,6,6.5,6.5,0,0,1-1.5,2A6.57,6.57,0,0,1,71,34.1,6.36,6.36,0,0,1,68.68,34.53Zm0-3.77a2.78,2.78,0,0,0,1.22-.3,2.67,2.67,0,0,0,1-.9A2.53,2.53,0,0,0,71.34,28a2.74,2.74,0,0,0-.35-1.4,2.41,2.41,0,0,0-1-.94,2.83,2.83,0,0,0-1.41-.34,2.6,2.6,0,0,0-1.34.35,2.65,2.65,0,0,0-1,1A2.7,2.7,0,0,0,66,28.06a2.61,2.61,0,0,0,.42,1.51,2.47,2.47,0,0,0,1,.9A3,3,0,0,0,68.64,30.76Z"/><path class="cls-2" d="M78.86,39.52a2.38,2.38,0,0,1-1.3-.27,1,1,0,0,1-.48-.67,5,5,0,0,1-.07-.89v-14a5.17,5.17,0,0,1,.07-.91,1.1,1.1,0,0,1,.47-.69,2.28,2.28,0,0,1,1.28-.27,2.86,2.86,0,0,1,1.24.23,1.29,1.29,0,0,1,.66.7v14.9a3.36,3.36,0,0,1-.07.9,1.11,1.11,0,0,1-.49.68A2.39,2.39,0,0,1,78.86,39.52Zm4.8-5.4a4.61,4.61,0,0,1-2.15-.49A4.49,4.49,0,0,1,80,32.3a6.16,6.16,0,0,1-.92-1.93A8.31,8.31,0,0,1,78.76,28a8.22,8.22,0,0,1,.33-2.34,6.53,6.53,0,0,1,.94-2,4.3,4.3,0,0,1,1.53-1.35,4.44,4.44,0,0,1,2.11-.49,4.79,4.79,0,0,1,2.15.51,6.15,6.15,0,0,1,1.83,1.36,6.47,6.47,0,0,1,1.28,2,6.14,6.14,0,0,1,.46,2.37,6.29,6.29,0,0,1-.46,2.37,6.23,6.23,0,0,1-1.27,1.93,5.92,5.92,0,0,1-1.82,1.29A5.23,5.23,0,0,1,83.66,34.12Zm-.5-3.53a2.36,2.36,0,0,0,1.25-.33,2.67,2.67,0,0,0,.89-.91,2.45,2.45,0,0,0,.34-1.28,2.54,2.54,0,0,0-.33-1.28,2.38,2.38,0,0,0-.88-.9,2.52,2.52,0,0,0-1.24-.32,2.34,2.34,0,0,0-1.24.34,2.4,2.4,0,0,0-.87.89,2.58,2.58,0,0,0-.32,1.27A2.59,2.59,0,0,0,82,30.26,2.31,2.31,0,0,0,83.16,30.59Z"/><path class="cls-2" d="M97.43,34.55a6.2,6.2,0,0,1-2.33-.46A6.94,6.94,0,0,1,93,32.77a6.08,6.08,0,0,1-2.08-4.67,6.16,6.16,0,0,1,.52-2.51,6.67,6.67,0,0,1,1.41-2.07,6.75,6.75,0,0,1,2.06-1.41,6.16,6.16,0,0,1,2.49-.51,6.24,6.24,0,0,1,3.26.87A6.4,6.4,0,0,1,103,24.81a6.3,6.3,0,0,1,.87,3.27,6.17,6.17,0,0,1-.56,2.71,6.66,6.66,0,0,1-1.5,2,6.57,6.57,0,0,1-2.08,1.29A6.36,6.36,0,0,1,97.43,34.55Zm0-3.77a2.81,2.81,0,0,0,1.22-.3,2.67,2.67,0,0,0,1-.9,2.54,2.54,0,0,0,.43-1.53,2.77,2.77,0,0,0-.35-1.4,2.45,2.45,0,0,0-1-.93,2.83,2.83,0,0,0-1.41-.34,2.51,2.51,0,0,0-1.34.35,2.65,2.65,0,0,0-1,1,2.7,2.7,0,0,0-.37,1.39,2.61,2.61,0,0,0,.42,1.51,2.47,2.47,0,0,0,1,.9A3,3,0,0,0,97.39,30.78Zm-1-9.83a.85.85,0,0,1-.74-.25,2.63,2.63,0,0,1-.51-1,2,2,0,0,1-.1-1.3,1.38,1.38,0,0,1,.92-.67l4.41-1.35a.87.87,0,0,1,.72.29,2.35,2.35,0,0,1,.5,1,2,2,0,0,1,.09,1.28,1.34,1.34,0,0,1-.92.67Z"/><path class="cls-2" d="M110.38,34.56a8,8,0,0,1-1.47-.15,8.79,8.79,0,0,1-1.54-.44,5.08,5.08,0,0,1-1.25-.68,1.24,1.24,0,0,1-.56-.88,1.41,1.41,0,0,1,0-.54,2.37,2.37,0,0,1,.23-.6,3.78,3.78,0,0,1,.44-.66.86.86,0,0,1,.43-.35,1.09,1.09,0,0,1,.59,0,3,3,0,0,1,.8.27c.27.12.54.25.83.4a8.41,8.41,0,0,0,.87.37,2.68,2.68,0,0,0,.93.16,2.18,2.18,0,0,0,1.08-.21.64.64,0,0,0,.39-.58.61.61,0,0,0-.16-.45,1.27,1.27,0,0,0-.45-.3,4.32,4.32,0,0,0-.67-.24c-.26-.08-.53-.15-.82-.22s-.58-.15-.9-.25a7.22,7.22,0,0,1-1.19-.45,3.76,3.76,0,0,1-1-.71,3.1,3.1,0,0,1-.74-1.08,4,4,0,0,1-.28-1.56,3.59,3.59,0,0,1,.57-2.05,3.48,3.48,0,0,1,1.66-1.26,7.18,7.18,0,0,1,2.7-.43,6.79,6.79,0,0,1,.9,0,5.38,5.38,0,0,1,.89.17,8.75,8.75,0,0,1,.86.3,6.79,6.79,0,0,1,.85.43,1.13,1.13,0,0,1,.78.95,2.12,2.12,0,0,1-.43,1.25,2.17,2.17,0,0,1-.58.59.86.86,0,0,1-.62.13,4.13,4.13,0,0,1-.86-.34c-.31-.16-.64-.3-1-.44a2.82,2.82,0,0,0-1-.19,2,2,0,0,0-.72.11.89.89,0,0,0-.45.3.62.62,0,0,0-.16.43.74.74,0,0,0,.19.52,1.58,1.58,0,0,0,.51.31,5.64,5.64,0,0,0,.75.22l.93.21a13.23,13.23,0,0,1,1.39.33,5,5,0,0,1,1.3.62,3,3,0,0,1,1,1.07,3.78,3.78,0,0,1,.36,1.78,3.57,3.57,0,0,1-1.38,3A6.38,6.38,0,0,1,110.38,34.56Z"/><path class="cls-2" d="M119.84,20.07a2.61,2.61,0,0,1-1.35-.28,1.1,1.1,0,0,1-.48-.73,5.11,5.11,0,0,1,0-1.91,1.06,1.06,0,0,1,.5-.7,2.69,2.69,0,0,1,1.36-.26,2.37,2.37,0,0,1,1.33.28,1.11,1.11,0,0,1,.48.72,5,5,0,0,1,.09,1,4.7,4.7,0,0,1-.09.92,1.05,1.05,0,0,1-.49.71A2.48,2.48,0,0,1,119.84,20.07Zm0,14.3a2.55,2.55,0,0,1-1.32-.27,1,1,0,0,1-.47-.7,4.47,4.47,0,0,1-.08-.91V23.76a5.4,5.4,0,0,1,.08-.91,1.08,1.08,0,0,1,.49-.7,2.59,2.59,0,0,1,1.33-.26,2.18,2.18,0,0,1,1.28.28,1.12,1.12,0,0,1,.48.71,4.62,4.62,0,0,1,.09.94v8.7a4.53,4.53,0,0,1-.09.91,1,1,0,0,1-.47.69A2.64,2.64,0,0,1,119.83,34.37Z"/><path class="cls-2" d="M125.17,22.07h2.75l3.45-.1a4.43,4.43,0,0,1,.9.09,1.13,1.13,0,0,1,.7.49,2.46,2.46,0,0,1,.27,1.32,2.35,2.35,0,0,1-.26,1.25,1.21,1.21,0,0,1-.69.52,3.83,3.83,0,0,1-.93.11l-3.27-.08-3,0a1.23,1.23,0,0,1-1-.46,2.47,2.47,0,0,1-.28-1.39,2.05,2.05,0,0,1,.35-1.33A1.23,1.23,0,0,1,125.17,22.07Zm5.64,12.3a7.92,7.92,0,0,1-2.2-.27,3.41,3.41,0,0,1-2.39-2.32,6.91,6.91,0,0,1-.28-2.11V19.54a4.22,4.22,0,0,1,.09-.92,1,1,0,0,1,.49-.66,3.21,3.21,0,0,1,2.6,0,1.1,1.1,0,0,1,.49.71,5.52,5.52,0,0,1,.08.92v9.92a3,3,0,0,0,.06.66.71.71,0,0,0,.19.39.69.69,0,0,0,.35.18,2.79,2.79,0,0,0,.55.05,4.07,4.07,0,0,1,1,.1,1,1,0,0,1,.66.45,2.13,2.13,0,0,1,.24,1.17,2.28,2.28,0,0,1-.28,1.3,1,1,0,0,1-.71.48A5.33,5.33,0,0,1,130.81,34.37Z"/><path class="cls-2" d="M141.16,34.58a6.3,6.3,0,0,1-2.34-.47,6.84,6.84,0,0,1-2.11-1.31,6.38,6.38,0,0,1-1.51-2,6,6,0,0,1-.56-2.64,6.19,6.19,0,0,1,.51-2.51,6.93,6.93,0,0,1,1.41-2.06,6.79,6.79,0,0,1,2.07-1.41,6.09,6.09,0,0,1,2.49-.51,6.35,6.35,0,0,1,3.26.86,6.72,6.72,0,0,1,2.34,2.34,6.36,6.36,0,0,1,.87,3.28,6.2,6.2,0,0,1-.57,2.71,6.35,6.35,0,0,1-1.5,2,6.68,6.68,0,0,1-2.07,1.28A6.38,6.38,0,0,1,141.16,34.58Zm0-3.78a2.85,2.85,0,0,0,1.23-.3,2.88,2.88,0,0,0,1-.89,2.63,2.63,0,0,0,.42-1.53,2.67,2.67,0,0,0-.35-1.4,2.48,2.48,0,0,0-1-.94,2.94,2.94,0,0,0-1.41-.34,2.6,2.6,0,0,0-1.34.35,2.82,2.82,0,0,0-.95,1,2.72,2.72,0,0,0-.36,1.39,2.58,2.58,0,0,0,.41,1.51,2.53,2.53,0,0,0,1,.91A2.89,2.89,0,0,0,141.11,30.8Z"/><path class="cls-2" d="M154.11,34.59a9.16,9.16,0,0,1-1.48-.15A9.62,9.62,0,0,1,151.1,34a5.23,5.23,0,0,1-1.25-.68,1.26,1.26,0,0,1-.56-.89,1.19,1.19,0,0,1,0-.53,2.08,2.08,0,0,1,.22-.6,5.08,5.08,0,0,1,.44-.67.94.94,0,0,1,.44-.35,1,1,0,0,1,.59,0,3.72,3.72,0,0,1,.8.26l.82.4a8.64,8.64,0,0,0,.88.38,2.62,2.62,0,0,0,.92.16,2.32,2.32,0,0,0,1.09-.21.65.65,0,0,0,.39-.59.64.64,0,0,0-.17-.45,1.35,1.35,0,0,0-.45-.3c-.19-.08-.41-.16-.67-.24l-.81-.21c-.29-.07-.59-.15-.9-.25a9.05,9.05,0,0,1-1.19-.45,4,4,0,0,1-1-.71,3.34,3.34,0,0,1-.74-1.08,4,4,0,0,1-.27-1.56,3.59,3.59,0,0,1,.56-2.05,3.51,3.51,0,0,1,1.67-1.26,7.34,7.34,0,0,1,2.7-.44c.3,0,.6,0,.9.05a5.28,5.28,0,0,1,.88.18,7.47,7.47,0,0,1,.87.3c.28.12.56.26.85.42a1.13,1.13,0,0,1,.77.95,2.39,2.39,0,0,1-1,1.84.89.89,0,0,1-.63.14,4.36,4.36,0,0,1-.86-.34c-.31-.16-.63-.3-1-.44a2.85,2.85,0,0,0-1-.2,2.18,2.18,0,0,0-.72.11,1.11,1.11,0,0,0-.45.3.69.69,0,0,0-.15.44.66.66,0,0,0,.19.51,1.4,1.4,0,0,0,.51.32,7.67,7.67,0,0,0,.75.22c.28.07.59.14.92.2s.92.2,1.39.34a4.71,4.71,0,0,1,1.3.61,3,3,0,0,1,1,1.08,3.76,3.76,0,0,1,.36,1.77,3.58,3.58,0,0,1-1.38,3A6.33,6.33,0,0,1,154.11,34.59Z"/><path class="cls-2" d="M173.26,34.07a4.82,4.82,0,0,1-2.16-.49,5.81,5.81,0,0,1-1.79-1.33,6.47,6.47,0,0,1-1.22-2,6,6,0,0,1-.45-2.32,6,6,0,0,1,.45-2.31,6.2,6.2,0,0,1,1.24-1.93,6,6,0,0,1,1.8-1.32,4.73,4.73,0,0,1,2.11-.49,3.84,3.84,0,0,1,1.9.44,3.33,3.33,0,0,1,1.25,1.25,6.46,6.46,0,0,1,.71,1.93,11.79,11.79,0,0,1,.24,2.48,11,11,0,0,1-.42,3.22,4.2,4.2,0,0,1-1.3,2.1A3.58,3.58,0,0,1,173.26,34.07Zm.45,5.48a7,7,0,0,1-1.77-.23,7.61,7.61,0,0,1-1.58-.6,4.52,4.52,0,0,1-1.15-.8,1.21,1.21,0,0,1-.43-.85,1.81,1.81,0,0,1,.15-.74,2.58,2.58,0,0,1,.45-.66,7,7,0,0,1,.6-.57.91.91,0,0,1,.6-.2,1.13,1.13,0,0,1,.63.18l.59.42a3.75,3.75,0,0,0,.78.41,3.43,3.43,0,0,0,1.2.19,2.26,2.26,0,0,0,.94-.19,2,2,0,0,0,.75-.55,2.65,2.65,0,0,0,.5-.85,2.9,2.9,0,0,0,.19-1.09V23.07a1.21,1.21,0,0,1,.51-.93,2.49,2.49,0,0,1,1.34-.29,2.31,2.31,0,0,1,1.25.26,1.11,1.11,0,0,1,.46.69,4.37,4.37,0,0,1,.08.9v9.88a5.84,5.84,0,0,1-.53,2.53,5.52,5.52,0,0,1-1.4,1.88,6.35,6.35,0,0,1-4.17,1.56Zm0-9.1a2.13,2.13,0,0,0,1.2-.34,2.37,2.37,0,0,0,.83-.89A2.45,2.45,0,0,0,176,28a2.6,2.6,0,0,0-.31-1.25,2.53,2.53,0,0,0-.85-.87,2.3,2.3,0,0,0-1.22-.33,2.13,2.13,0,0,0-1.2.34,2.37,2.37,0,0,0-.83.89,2.45,2.45,0,0,0-.32,1.25,2.3,2.3,0,0,0,.33,1.22,2.53,2.53,0,0,0,.86.89A2.15,2.15,0,0,0,173.69,30.45Z"/><path class="cls-2" d="M188.58,34.63a7.12,7.12,0,0,1-3-.58,5.72,5.72,0,0,1-2.06-1.51,6.51,6.51,0,0,1-1.2-2.09,6.83,6.83,0,0,1-.4-2.3,6.48,6.48,0,0,1,.85-3.32,6.14,6.14,0,0,1,2.37-2.29,7,7,0,0,1,3.46-.83,6.22,6.22,0,0,1,2.51.46,5.23,5.23,0,0,1,1.75,1.2,5.1,5.1,0,0,1,1,1.59,4.51,4.51,0,0,1,.33,1.63,2.8,2.8,0,0,1-.66,2,2.28,2.28,0,0,1-1.69.68h-6a1.76,1.76,0,0,0,.46,1.07,2.85,2.85,0,0,0,1,.7,3.5,3.5,0,0,0,1.33.25,8.05,8.05,0,0,0,1-.06,4.49,4.49,0,0,0,.79-.17l.59-.23.49-.19a2.53,2.53,0,0,1,.42-.1,1.06,1.06,0,0,1,.68.22,2,2,0,0,1,.57.71,1.71,1.71,0,0,1,.24.52,2.2,2.2,0,0,1,.06.5,1.36,1.36,0,0,1-.61,1.09,4.73,4.73,0,0,1-1.73.74A11.56,11.56,0,0,1,188.58,34.63Zm-2.67-7.4h4a1.06,1.06,0,0,0,.58-.13.65.65,0,0,0,.2-.54,1.21,1.21,0,0,0-.28-.78,1.84,1.84,0,0,0-.73-.54,3.27,3.27,0,0,0-2.44.12,2.38,2.38,0,0,0-.94.8A1.91,1.91,0,0,0,185.91,27.23Z"/><path class="cls-2" d="M198.18,34.39a2.39,2.39,0,0,1-1.31-.27,1,1,0,0,1-.47-.7,4.46,4.46,0,0,1-.09-.91v-8.8a4.26,4.26,0,0,1,.09-.89,1,1,0,0,1,.49-.66,2.71,2.71,0,0,1,1.33-.25,2.35,2.35,0,0,1,1.17.22,1,1,0,0,1,.49.51,1.73,1.73,0,0,1,.11.56.91.91,0,0,0,0,.36l-.15.48a1.39,1.39,0,0,1,.39-.76,3.32,3.32,0,0,1,.85-.7,4.73,4.73,0,0,1,1.1-.49,3.93,3.93,0,0,1,1.16-.17,4.9,4.9,0,0,1,2.14.44,4.29,4.29,0,0,1,1.58,1.26,5.56,5.56,0,0,1,1,1.94,8.16,8.16,0,0,1,.34,2.43v4.55a5.52,5.52,0,0,1-.08.92,1,1,0,0,1-.48.68,2.57,2.57,0,0,1-1.34.25,2.54,2.54,0,0,1-1.32-.26,1.08,1.08,0,0,1-.49-.7,4.53,4.53,0,0,1-.09-.91V28a2.87,2.87,0,0,0-.26-1.27,1.88,1.88,0,0,0-.75-.8,2.39,2.39,0,0,0-1.22-.28,2.59,2.59,0,0,0-1.25.29,2,2,0,0,0-.81.81,2.59,2.59,0,0,0-.29,1.25v4.55a4.46,4.46,0,0,1-.09.91,1.08,1.08,0,0,1-.47.69A2.64,2.64,0,0,1,198.18,34.39Z"/><path class="cls-2" d="M217.08,34.65a7.12,7.12,0,0,1-3-.58A5.84,5.84,0,0,1,212,32.56a6.61,6.61,0,0,1-1.2-2.09,6.88,6.88,0,0,1-.4-2.3,6.48,6.48,0,0,1,.85-3.32,6.14,6.14,0,0,1,2.37-2.29,7,7,0,0,1,3.46-.84,6.21,6.21,0,0,1,2.51.47,5.23,5.23,0,0,1,1.75,1.2,5.1,5.1,0,0,1,1,1.59,4.46,4.46,0,0,1,.33,1.62,2.82,2.82,0,0,1-.66,2,2.28,2.28,0,0,1-1.69.68h-6a1.77,1.77,0,0,0,.46,1.08,2.85,2.85,0,0,0,1,.7,3.48,3.48,0,0,0,1.32.25,8.1,8.1,0,0,0,1-.06,3.7,3.7,0,0,0,.79-.18c.22-.07.41-.15.59-.22a3.78,3.78,0,0,1,.49-.19,2.32,2.32,0,0,1,.42-.1,1.06,1.06,0,0,1,.67.21,2.06,2.06,0,0,1,.58.72,1.71,1.71,0,0,1,.24.52,2.2,2.2,0,0,1,.06.5,1.36,1.36,0,0,1-.61,1.09,4.74,4.74,0,0,1-1.73.73A11,11,0,0,1,217.08,34.65Zm-2.67-7.4h4a1.06,1.06,0,0,0,.58-.14.61.61,0,0,0,.2-.53,1.19,1.19,0,0,0-.28-.78,1.84,1.84,0,0,0-.73-.54,3,3,0,0,0-1.09-.19,3,3,0,0,0-1.35.3,2.39,2.39,0,0,0-.94.8A1.94,1.94,0,0,0,214.41,27.25Z"/><path class="cls-2" d="M226.68,34.43a2.5,2.5,0,0,1-1.31-.26,1.11,1.11,0,0,1-.48-.72,5.52,5.52,0,0,1-.08-.92V23.8a4.42,4.42,0,0,1,.09-.92,1.08,1.08,0,0,1,.49-.69,2.57,2.57,0,0,1,1.32-.26,2.52,2.52,0,0,1,1.27.24,1,1,0,0,1,.48.55,1.73,1.73,0,0,1,.1.54l-.3.15a4.13,4.13,0,0,1,.27-.37,3.92,3.92,0,0,1,.58-.55A3.46,3.46,0,0,1,230,22a3.38,3.38,0,0,1,1.23-.2,4.7,4.7,0,0,1,.62,0,3.14,3.14,0,0,1,.7.15,2.47,2.47,0,0,1,.66.3,1.66,1.66,0,0,1,.49.46,1.2,1.2,0,0,1,.18.67,3.09,3.09,0,0,1-.47,1.74,1.4,1.4,0,0,1-1.2.71,2,2,0,0,1-.6-.06,1,1,0,0,1-.29-.15,1.1,1.1,0,0,0-.26-.15,1.72,1.72,0,0,0-.55-.06,2.34,2.34,0,0,0-.71.1,1.85,1.85,0,0,0-.63.31,1.6,1.6,0,0,0-.45.52,1.53,1.53,0,0,0-.16.72v5.47a5.31,5.31,0,0,1-.08.91,1.07,1.07,0,0,1-.49.69A2.6,2.6,0,0,1,226.68,34.43Z"/><path class="cls-2" d="M246.08,34.42a2.33,2.33,0,0,1-1.37-.33.92.92,0,0,1-.43-.8l.25-.43a2.73,2.73,0,0,1-.57.62,4.45,4.45,0,0,1-1.11.65,4.39,4.39,0,0,1-1.67.28,4.87,4.87,0,0,1-2.18-.5,5.78,5.78,0,0,1-1.84-1.39,7,7,0,0,1-1.27-2,6,6,0,0,1-.48-2.38,5.82,5.82,0,0,1,.48-2.33,6.51,6.51,0,0,1,1.29-2A6.33,6.33,0,0,1,239,22.46a5,5,0,0,1,2.18-.5,4.05,4.05,0,0,1,1.57.27,4.15,4.15,0,0,1,1.09.61,3.2,3.2,0,0,1,.66.68l-.22-.35a1.07,1.07,0,0,1,.44-.92,2.39,2.39,0,0,1,1.38-.31,2.22,2.22,0,0,1,1.29.28,1.11,1.11,0,0,1,.48.72,5.8,5.8,0,0,1,.08.95v8.63a4.7,4.7,0,0,1-.09.92,1.07,1.07,0,0,1-.48.71A2.35,2.35,0,0,1,246.08,34.42Zm-4.37-3.73a2.13,2.13,0,0,0,1.2-.34,2.57,2.57,0,0,0,.85-.91,2.51,2.51,0,0,0,.33-1.27,2.48,2.48,0,0,0-.33-1.29,2.4,2.4,0,0,0-.87-.89,2.48,2.48,0,0,0-2.49,0,2.53,2.53,0,0,0-.9.91,2.5,2.5,0,0,0-.34,1.3,2.34,2.34,0,0,0,.34,1.24,2.56,2.56,0,0,0,.92.9A2.49,2.49,0,0,0,241.71,30.69Z"/><path class="cls-2" d="M255.26,34.45a16.4,16.4,0,0,1-1.83-.1,3.9,3.9,0,0,1-1.35-.41,2.55,2.55,0,0,1-.9-.83,4,4,0,0,1-.52-1.38,10,10,0,0,1-.18-2.06V18.12a4.57,4.57,0,0,1,.1-.93,1.21,1.21,0,0,1,.49-.7,2.39,2.39,0,0,1,1.31-.27,2.24,2.24,0,0,1,1.29.28,1.15,1.15,0,0,1,.49.7,4.4,4.4,0,0,1,.1.92V29.5a4.16,4.16,0,0,0,0,.66.8.8,0,0,0,.15.41.51.51,0,0,0,.31.2,2.4,2.4,0,0,0,.52.05,2.7,2.7,0,0,1,.62.08.9.9,0,0,1,.53.45,2.56,2.56,0,0,1,.23,1.25,2.79,2.79,0,0,1-.23,1.3.89.89,0,0,1-.54.47A2.65,2.65,0,0,1,255.26,34.45Z"/><path class="cls-2" d="M264.68,34.68a7.25,7.25,0,0,1-3-.58,5.84,5.84,0,0,1-2.06-1.51,6.43,6.43,0,0,1-1.2-2.09,6.92,6.92,0,0,1-.4-2.3,6.45,6.45,0,0,1,.85-3.33,6.19,6.19,0,0,1,2.37-2.28,7,7,0,0,1,3.46-.84,6.21,6.21,0,0,1,2.51.47,5.08,5.08,0,0,1,1.75,1.2A4.89,4.89,0,0,1,270,25a4.25,4.25,0,0,1,.34,1.62,2.82,2.82,0,0,1-.66,2.05,2.28,2.28,0,0,1-1.69.68H262a1.77,1.77,0,0,0,.46,1.08,2.85,2.85,0,0,0,1,.7,3.68,3.68,0,0,0,1.32.25,8.1,8.1,0,0,0,1-.06,4.43,4.43,0,0,0,.79-.18c.22-.07.41-.15.59-.22a4.32,4.32,0,0,1,.48-.19,2.63,2.63,0,0,1,.43-.1,1,1,0,0,1,.67.21,2.06,2.06,0,0,1,.58.72,2.18,2.18,0,0,1,.24.52,2.14,2.14,0,0,1,.06.5,1.36,1.36,0,0,1-.61,1.09,4.74,4.74,0,0,1-1.73.73A11,11,0,0,1,264.68,34.68ZM262,27.27H266a1.06,1.06,0,0,0,.58-.14.62.62,0,0,0,.2-.54,1.24,1.24,0,0,0-.28-.77,1.8,1.8,0,0,0-.74-.54,2.94,2.94,0,0,0-1.08-.19,3,3,0,0,0-1.35.3,2.39,2.39,0,0,0-.94.8A1.84,1.84,0,0,0,262,27.27Z"/><path class="cls-2" d="M276.91,34.66a8.07,8.07,0,0,1-1.48-.15,9,9,0,0,1-1.54-.44,5.27,5.27,0,0,1-1.25-.68,1.28,1.28,0,0,1-.56-.88,1.24,1.24,0,0,1,0-.54,2.32,2.32,0,0,1,.22-.6,3.78,3.78,0,0,1,.44-.66.84.84,0,0,1,.44-.35,1.06,1.06,0,0,1,.58,0,3,3,0,0,1,.8.27c.27.12.54.25.83.4a8.41,8.41,0,0,0,.87.37,2.69,2.69,0,0,0,.93.17,2.22,2.22,0,0,0,1.09-.22.64.64,0,0,0,.38-.58.61.61,0,0,0-.16-.45,1.43,1.43,0,0,0-.45-.31,5.77,5.77,0,0,0-.67-.23c-.26-.08-.53-.15-.82-.22s-.58-.15-.9-.25a6.8,6.8,0,0,1-1.18-.45,4,4,0,0,1-1.05-.71,3.1,3.1,0,0,1-.74-1.08,4,4,0,0,1-.27-1.56,3.61,3.61,0,0,1,.56-2.05,3.53,3.53,0,0,1,1.66-1.26,7.41,7.41,0,0,1,2.7-.44,6.8,6.8,0,0,1,.9.06,5.38,5.38,0,0,1,.89.17,8.75,8.75,0,0,1,.86.3,6.16,6.16,0,0,1,.85.43,1.13,1.13,0,0,1,.78,1,2.12,2.12,0,0,1-.43,1.25,2,2,0,0,1-.57.58.89.89,0,0,1-.63.14,3.82,3.82,0,0,1-.86-.34c-.31-.15-.63-.3-1-.43a2.68,2.68,0,0,0-1-.2,2,2,0,0,0-.72.11.94.94,0,0,0-.45.3.66.66,0,0,0-.15.43.73.73,0,0,0,.18.52,1.53,1.53,0,0,0,.52.31,6.19,6.19,0,0,0,.75.23l.92.19c.45.09.91.2,1.39.34a4.87,4.87,0,0,1,1.3.62,2.91,2.91,0,0,1,1,1.07,3.8,3.8,0,0,1,.36,1.78,3.57,3.57,0,0,1-1.38,3A6.35,6.35,0,0,1,276.91,34.66Z"/></g></g></svg>