<?xml version="1.0" encoding="utf-8"?>
<!-- Generator: Adobe Illustrator 24.0.2, SVG Export Plug-In . SVG Version: 6.00 Build 0)  -->
<svg version="1.1" id="Layer_1" xmlns="http://www.w3.org/2000/svg" xmlns:xlink="http://www.w3.org/1999/xlink" x="0px" y="0px"
	 viewBox="0 0 260.7 349.3" style="enable-background:new 0 0 260.7 349.3;" xml:space="preserve">
<style type="text/css">
	.st0{fill:#D88500;stroke:#000000;stroke-width:2.21;stroke-linecap:round;stroke-linejoin:round;}
	.st1{fill:#FFFFFF;stroke:#000000;stroke-width:1.45;stroke-miterlimit:10;}
	.st2{fill:#FFFFFF;}
	.st3{fill:#FFFFFF;stroke:#000000;stroke-width:1.54;stroke-linecap:round;stroke-linejoin:round;}
	.st4{fill:#D88500;stroke:#000000;stroke-width:1.47;stroke-miterlimit:10;}
	.st5{fill:#FFFFFF;stroke:#000000;stroke-width:1.44;stroke-miterlimit:10;}
	.st6{fill:none;stroke:#000000;stroke-width:1.44;stroke-linecap:round;stroke-miterlimit:10;}
	.st7{fill:#E5E5E5;}
	.st8{fill:#760DC9;}
	.st9{fill:#D7840B;stroke:#000000;stroke-width:2.45;stroke-miterlimit:10;}
	.st10{fill:#FFFFFF;stroke:#000000;stroke-width:2.25;stroke-miterlimit:10;}
	.st11{fill:#FBCCAC;}
	.st12{fill:#FF7BAC;stroke:#000000;stroke-width:2.92;stroke-miterlimit:10;}
	.st13{fill:#CCCCCC;stroke:#000000;stroke-width:2.92;stroke-miterlimit:10;}
	.st14{fill:#D88500;}
	.st15{fill:#F9B233;}
	.st16{stroke:#000000;stroke-width:2.000000e-02;stroke-linecap:round;stroke-linejoin:round;}
	.st17{fill:none;stroke:#000000;stroke-width:1.46;stroke-miterlimit:10;}
	.st18{fill:none;}
	.st19{fill:none;stroke:#000000;stroke-width:2.19;stroke-miterlimit:10;}
	.st20{fill:none;stroke:#BF720C;stroke-width:1.17;stroke-miterlimit:10;}
	.st21{fill:none;stroke:#000000;stroke-width:2.92;stroke-miterlimit:10;}
	.st22{fill:none;stroke:#000000;stroke-width:2.92;stroke-linecap:round;stroke-miterlimit:10;}
	.st23{fill:#FFFFFF;stroke:#000000;stroke-width:1.46;stroke-miterlimit:10;}
	.st24{stroke:#000000;stroke-width:0.19;stroke-miterlimit:10;}
	.st25{fill:#FFD18F;stroke:#000000;stroke-width:0.72;stroke-miterlimit:10;}
	.st26{stroke:#000000;stroke-width:0.12;stroke-miterlimit:10;}
</style>
<title>lp</title>
<g>
	<g id="Layer_2_1_">
		<g id="Portada_Guia_1">
			<path class="st0" d="M42.5,228.8c4.8,1,9.6,1.8,14.5,2.5c4.6-22.3,11-36.6,16-45c6.1-10.3,11.3-14.1,11.8-14.5h-0.1l-1.7-15
				c-0.8,0.5-13.9,7.6-21.8,20.5c-4.9,8.1-8.8,16.7-11.8,25.7C46.6,211.4,44.3,220.1,42.5,228.8z"/>
			<path class="st1" d="M34.9,236.8c0,0-2.9-7.2,7-10.7c11.5-4.1,26.9,6,18.1,14.8L34.9,236.8z"/>
			<ellipse class="st2" cx="47" cy="239.7" rx="11.5" ry="8.9"/>
			<path class="st3" d="M44.6,231.1c-7,0.3-12.4,4.6-15.1,15.4c-1.8,7.4-1.5,13.1,0.6,17.4c1.1,2.2,3.6,3.3,5.9,2.6l0,0l1-6.2"/>
			<path class="st3" d="M35.7,250.4c-2,4.4-2.6,9.3-1.9,14.1c0.5,3.2,2.1,6.2,4.5,8.3c1,1,2.5,1.4,3.9,1h0c1.4-0.4,2.2-1.9,1.8-3.3
				c0,0,0-0.1,0-0.1l-1.3-3.4c-0.6-1.7-1-3.4-1.1-5.2c-0.1-3.2,0.2-6.3,0.8-9.4c-1.5,6.4-1.1,12.4,1.3,17.9c0.7,1.6,2.1,2.9,3.7,3.6
				l0,0c1.3,0.5,2.9,0.2,3.9-0.8l0.6-0.6c1.1-1.1,1.7-2.6,1.7-4.1l0,0c0-0.7-0.1-1.3-0.4-1.9l-0.5-1.2c-1-2.4-1.4-5.1-1.2-7.7
				l0.6-5.5c0-0.2,0.2-0.2,0.4-0.2c0.1,0,0.2,0.1,0.2,0.2c0.2,1.7,0.5,3.5,1,5.1c0.5,1.7,1.4,3.3,2.5,4.6l0.4,0.4
				c0.7,0.8,1.6,1.3,2.6,1.5c0.8,0.2,1.7,0.1,2.5-0.3c1.8-1,2.6-3.2,1.8-5.1l-1-2.5c-1.2-2.8-1.6-5.9-1.2-8.9l0.2-1.4
				c0.2-1.5,0-3-0.5-4.4l0,0c-0.8-2.1-2-4-3.7-5.5l-2.8-2.5"/>
			<path class="st4" d="M139.1,155.1l1.4,18.5c1.4-0.1,13.6-1.2,30.4-9.4c10-5,19.3-11.4,27.7-18.9c9.5-8.6,17.8-18.3,24.8-28.9
				l-15.5-10.8c-12.4,18.8-27.4,32.7-44.7,41.5C149.9,154,140,155.1,139.1,155.1z"/>
			<path class="st5" d="M210.4,97.1c0,0-7,4.1-2.7,13.1c4.9,10.3,22.5,11.5,22.7-1L210.4,97.1z"/>
			<path class="st5" d="M209.3,97.2c0.5-7.8-9.6-12.5-11.3-18.1c-2-6.4,5.6-15.3,16.2,1.9c0,0,3.9-10,1.8-18.1
				c-2.4-9.3,5.7-13,9.6-8.9c3.6,3.7,3.4,15.9,1.1,22.5c-0.3,0.8,0.1,1.6,0.9,1.9c0.1,0,0.2,0.1,0.4,0.1h0.4c0.7,0.1,1.4-0.3,1.6-1
				c1.1-3.1,4-11.6,4.6-16.4c1-7.5,14.6-5.7,13.4,4.4c-0.9,7.9-6.5,14.1-8.8,16.4c-0.5,0.5-0.6,1.4-0.1,2l0,0c0.5,0.6,1.4,0.7,2,0.3
				c4.2-2.9,8.3-6.1,12.2-9.5c4.7-4.3,16.1,9.5-7.4,19.5c0,0-2.8,16.9-18.6,16.5C209,110.1,209.3,97.2,209.3,97.2z"/>
			<path class="st6" d="M216.8,85.2c0,0,11.4,2.3,7.1,13.8"/>
			<path class="st7" d="M57.4,341.6c1.7-0.7,3.4-1.5,5-2.4c0.5-0.3,8.2-4.5,11.1-5.6h0.1c3.4-1.2,10.2-2.2,14.3-2.8l0.5-0.1
				c5.8-0.8,10.4-5.3,11.4-11c2.4,3.4,1.8,6.7,0.3,8.8c-4.2,5.8-9.1,6.6-15.3,7.6c-2.9,0.4-5.8,1-8.6,1.8c-4.4,1.4-8.7,3.2-12.7,5.3
				c-5.8,2.9-10,5-17,3.8c-4.2-0.7-6.2-4.3-7-6.7C44.2,343.4,50.9,343.9,57.4,341.6z"/>
			<path class="st8" d="M48.5,316.4c3-1.1,6.3-1.5,9.5-1.3l0,0c0,0,4.4,0.2,8.8,4.9c0.3,0.4,0.9,0.4,1.2,0c0.4-0.3,0.4-0.9,0.1-1.2
				l0,0c-1.6-1.8-3.6-3.3-5.8-4.3c0.5-3.1,1.8-6.1,3.8-8.5c2.2,0.1,4.5-0.1,6.7-0.6c0,0,0.1,0,0.1,0c0.4-0.1,0.7-0.6,0.6-1
				c-0.1-0.4-0.5-0.7-1-0.7c-2.2,0.5-4.4,0.7-6.6,0.6h-0.1c-3.2-0.3-5.5-1.4-6.1-3.2c-1.3-3.6,4.1-8.9,11.6-11.5s15-1.9,16.3,1.6
				c0.7,2-0.6,4.5-3.3,6.9l-0.1,0.1c-1,0.9-2.2,1.7-3.3,2.4c-0.4,0.2-0.6,0.8-0.3,1.2c0,0,0,0,0,0c0.2,0.4,0.8,0.6,1.2,0.3
				c0,0,0,0,0,0c1.2-0.7,2.3-1.4,3.3-2.3c5.8,1.5,10.5,5.8,12.5,11.5c0.7,2,1,4.2,1,6.3v0.1c-0.1,5.8-4.4,10.6-10.1,11.4l-0.5,0.1
				c-4.4,0.6-11.1,1.6-14.6,2.8c-3.1,1-11.2,5.5-11.5,5.7l0,0c-1.5,0.8-3.1,1.6-4.7,2.3c-6.8,2.4-14.1,1.5-18.1-2.2
				c-1.1-1-2-2.3-2.5-3.7C33.9,327.5,39.4,319.6,48.5,316.4z"/>
			<path d="M34.6,334.6c0.6,1.6,1.5,3,2.7,4.2c0.2,1.4,0.7,2.7,1.3,4c1.4,3.2,4.3,5.5,7.7,6.2c7.5,1.3,12.2-1,18-4
				c4-2.1,8.2-3.9,12.5-5.2c2.8-0.8,5.6-1.4,8.4-1.8c2.7-0.3,5.3-0.9,7.8-1.8c3.5-1.2,6.6-3.5,8.7-6.6c2-2.8,2.8-7.7-1.5-12.4
				c0-8.6-5.7-16.3-13.9-18.9c2.5-2.6,3.5-5.3,2.7-7.7c-1.6-4.6-9.8-5.8-18.5-2.7s-14.3,9.1-12.7,13.8c0.8,2.2,3,3.6,6.2,4.2
				c-1.7,2.4-2.9,5.2-3.3,8.1c-0.8-0.3-1.6-0.4-2.5-0.5c-3.4-0.3-6.9,0.2-10.2,1.4C38,318.3,32,327.2,34.6,334.6z M39.5,340.6
				c4.6,2.9,11.4,3.4,17.9,1c1.7-0.7,3.4-1.5,5-2.4c0.5-0.3,8.2-4.5,11.1-5.6h0.1c3.4-1.2,10.2-2.2,14.3-2.8l0.5-0.1
				c5.8-0.8,10.4-5.3,11.4-11c2.4,3.4,1.8,6.7,0.3,8.8c-4.2,5.8-9.1,6.6-15.3,7.6c-2.9,0.4-5.8,1-8.6,1.8c-4.4,1.4-8.7,3.2-12.7,5.3
				c-5.8,2.9-10,5-17,3.8C42.3,346.5,40.4,342.9,39.5,340.6L39.5,340.6z M36.2,334c-2.3-6.5,3.2-14.4,12.3-17.6
				c3-1.1,6.3-1.5,9.5-1.3l0,0c0,0,4.4,0.2,8.8,4.9c0.3,0.4,0.9,0.4,1.2,0c0.4-0.3,0.4-0.9,0.1-1.2l0,0c-1.6-1.8-3.6-3.3-5.8-4.3
				c0.5-3.1,1.8-6.1,3.8-8.5c2.2,0.1,4.5-0.1,6.7-0.6c0,0,0.1,0,0.1,0c0.4-0.1,0.7-0.6,0.6-1c-0.1-0.4-0.5-0.7-1-0.7
				c-2.2,0.5-4.4,0.7-6.6,0.6h-0.1c-3.2-0.3-5.5-1.4-6.1-3.2c-1.3-3.6,4.1-8.9,11.6-11.5s15-1.9,16.3,1.6c0.7,2-0.6,4.5-3.3,6.9
				l-0.1,0.1c-1,0.9-2.2,1.7-3.3,2.4c-0.4,0.2-0.6,0.8-0.3,1.2c0,0,0,0,0,0c0.2,0.4,0.8,0.6,1.2,0.3c0,0,0,0,0,0
				c1.2-0.7,2.3-1.4,3.3-2.3c5.8,1.5,10.5,5.8,12.5,11.5c0.7,2,1,4.2,1,6.3v0.1c-0.1,5.8-4.4,10.6-10.1,11.4l-0.5,0.1
				c-4.4,0.6-11.1,1.6-14.6,2.8c-3.1,1-11.2,5.5-11.5,5.7l0,0c-1.5,0.8-3.1,1.6-4.7,2.3c-6.8,2.4-14.1,1.5-18.1-2.2
				C37.6,336.7,36.8,335.4,36.2,334z"/>
			<path class="st9" d="M81.7,229.4L81.7,229.4c3.4-0.9,7,0.7,8.6,3.9v0.1c1.7,3.5,0.4,7.7-3,9.6l-7.1,4.1
				c-4.1,2.4-6.7,6.6-7.1,11.2l0,0c-0.6,7.4,0.3,14.8,2.7,21.8l2.8,8.3c1.3,3.9-0.7,8.1-4.6,9.4c-0.2,0.1-0.5,0.2-0.7,0.2l0,0
				c-3.9,0.9-7.8-1.4-8.8-5.3L57.9,268c-0.1-0.4-0.2-0.7-0.2-1.1l0,0c-1-8.3,0.7-16.7,4.7-24.1l0,0c1.4-2.7,3.5-4.9,6-6.6l6.1-3.7
				C76.7,231.2,79.1,230.1,81.7,229.4z"/>
			<path class="st10" d="M62.3,282.8l13.2-3.7c0.7-0.2,1.5,0.2,1.7,0.9c0,0,0,0,0,0l2.5,8.8c1.2,4.4-1.3,8.9-5.7,10.1l0,0
				c-4.4,1.2-8.9-1.3-10.1-5.7l-2.5-8.8C61.2,283.8,61.6,283,62.3,282.8L62.3,282.8z"/>
			<path class="st7" d="M153.1,341.6c-1.7-0.7-3.4-1.5-5-2.4c-0.4-0.3-8.2-4.5-11.1-5.6h-0.1c-3.4-1.2-10.2-2.2-14.3-2.8l-0.5-0.1
				c-5.8-0.8-10.4-5.3-11.4-11c-2.4,3.4-1.8,6.7-0.3,8.8c4.2,5.8,9.1,6.6,15.3,7.6c2.9,0.4,5.8,1,8.7,1.9c4.4,1.4,8.7,3.2,12.7,5.3
				c5.8,2.9,10,5,17,3.8c4.2-0.7,6.2-4.3,7-6.7C166.4,343.4,159.7,343.9,153.1,341.6z"/>
			<path class="st8" d="M162.1,316.4c-3-1.1-6.3-1.5-9.5-1.3h-0.1c0,0-4.4,0.2-8.8,4.9c-0.3,0.4-0.9,0.4-1.2,0
				c-0.4-0.3-0.4-0.9-0.1-1.2l0,0c1.6-1.8,3.6-3.3,5.8-4.3c-0.5-3.1-1.8-6-3.7-8.5c-2.2,0.1-4.5-0.1-6.7-0.6c0,0-0.1,0-0.1,0
				c-0.4-0.1-0.7-0.6-0.6-1c0.1-0.4,0.5-0.7,1-0.7c2.2,0.5,4.4,0.7,6.6,0.6h0.1c3.2-0.3,5.5-1.4,6.1-3.2c1.3-3.6-4.1-8.9-11.6-11.5
				s-15-1.9-16.3,1.6c-0.7,2,0.6,4.5,3.3,6.9l0.1,0.1c1,0.9,2.2,1.7,3.3,2.4c0.4,0.2,0.6,0.8,0.3,1.2c0,0,0,0,0,0
				c-0.2,0.4-0.8,0.6-1.2,0.3c0,0,0,0,0,0c-1.2-0.7-2.3-1.4-3.3-2.3c-8.1,2.1-13.8,9.5-13.6,17.9v0.1c0.2,5.7,4.4,10.5,10.1,11.3
				l0.5,0.1c4.4,0.6,11.1,1.6,14.6,2.8c3.1,1,11.2,5.5,11.5,5.7l0,0c1.5,0.8,3.1,1.6,4.7,2.3c6.8,2.4,14.1,1.5,18.1-2.2
				c1.1-1,2-2.3,2.5-3.7C176.6,327.5,171.1,319.6,162.1,316.4z"/>
			<path d="M176,334.6c-0.6,1.6-1.5,3-2.7,4.2c-0.2,1.4-0.7,2.7-1.3,4c-1.4,3.2-4.3,5.5-7.7,6.2c-7.5,1.3-12.1-1-18-4
				c-4-2.1-8.2-3.9-12.5-5.2c-2.8-0.8-5.6-1.4-8.4-1.8c-2.7-0.3-5.3-0.9-7.8-1.8c-3.5-1.2-6.6-3.5-8.7-6.6c-2-2.8-2.8-7.7,1.5-12.4
				c0-8.6,5.7-16.3,13.9-18.9c-2.5-2.6-3.5-5.3-2.7-7.7c1.6-4.6,9.8-5.8,18.5-2.7s14.3,9.1,12.7,13.8c-0.8,2.2-3,3.6-6.1,4.2
				c1.7,2.4,2.8,5.2,3.4,8.1c0.8-0.3,1.6-0.4,2.5-0.5c3.4-0.3,6.9,0.2,10.2,1.4C172.6,318.3,178.6,327.2,176,334.6z M171.1,340.6
				c-4.6,2.9-11.4,3.4-17.9,1c-1.7-0.7-3.4-1.5-5-2.4c-0.4-0.3-8.2-4.5-11.1-5.6H137c-3.4-1.2-10.2-2.2-14.3-2.8l-0.5-0.1
				c-5.8-0.8-10.4-5.3-11.4-11c-2.4,3.4-1.8,6.7-0.3,8.8c4.2,5.8,9.1,6.6,15.3,7.6c2.9,0.4,5.8,1,8.7,1.9c4.4,1.4,8.7,3.2,12.7,5.3
				c5.8,2.9,10,5,17,3.8C168.3,346.5,170.2,342.9,171.1,340.6L171.1,340.6z M174.4,334c2.3-6.5-3.2-14.4-12.3-17.6
				c-3-1.1-6.3-1.5-9.5-1.3h-0.1c0,0-4.4,0.2-8.8,4.9c-0.3,0.4-0.9,0.4-1.2,0c-0.4-0.3-0.4-0.9-0.1-1.2c1.6-1.8,3.6-3.3,5.8-4.3
				c-0.5-3.1-1.8-6-3.7-8.5c-2.2,0.1-4.5-0.1-6.7-0.6c0,0-0.1,0-0.1,0c-0.4-0.1-0.7-0.6-0.6-1c0.1-0.4,0.5-0.7,1-0.7
				c2.2,0.5,4.4,0.7,6.6,0.6h0.1c3.2-0.3,5.5-1.4,6.1-3.2c1.3-3.6-4.1-8.9-11.6-11.5s-15-1.9-16.3,1.6c-0.7,2,0.6,4.5,3.3,6.9
				l0.1,0.1c1,0.9,2.2,1.7,3.3,2.4c0.4,0.2,0.6,0.8,0.3,1.2c0,0,0,0,0,0c-0.2,0.4-0.8,0.6-1.2,0.3c0,0,0,0,0,0
				c-1.2-0.7-2.3-1.4-3.3-2.3c-8.1,2.1-13.8,9.5-13.6,17.9v0.1c0.2,5.7,4.5,10.5,10.1,11.3l0.5,0.1c4.4,0.6,11.1,1.6,14.6,2.8
				c3.1,1,11.2,5.5,11.5,5.7l0,0c1.5,0.8,3.1,1.6,4.7,2.3c6.8,2.4,14.1,1.5,18.1-2.2C172.9,336.7,173.8,335.4,174.4,334L174.4,334z"
				/>
			<path class="st9" d="M128.4,229L128.4,229c-3.4-0.9-7,0.7-8.6,3.9l-0.1,0.1c-1.7,3.5-0.4,7.7,3,9.6l7.1,4.1c4,2.4,6.7,6.6,7,11.2
				l0,0c0.6,7.4-0.3,14.8-2.7,21.8l-2.8,8.3c-1.3,3.9,0.7,8.1,4.6,9.4c0.2,0.1,0.5,0.1,0.7,0.2l0,0c3.9,0.9,7.8-1.4,8.8-5.3
				l6.7-24.9c0.1-0.4,0.2-0.7,0.2-1.1l0,0c0.9-8.3-0.7-16.7-4.6-24.1l0,0c-1.4-2.7-3.5-4.9-6-6.6l-6.1-3.7
				C133.4,230.7,130.9,229.7,128.4,229z"/>
			<path class="st10" d="M136.2,298.5L136.2,298.5c-4.4-1.2-6.9-5.7-5.7-10.1l2.5-8.8c0.2-0.7,0.9-1.1,1.7-0.9l13.2,3.7
				c0.7,0.2,1.1,0.9,0.9,1.7l-2.5,8.8C145,297.2,140.5,299.7,136.2,298.5z"/>
			<polygon class="st11" points="142,49.9 130.8,61.2 119.9,49.9 109,61.2 98,49.9 87.1,61.2 76,49.9 108.9,2.6 			"/>
			<path class="st12" d="M140.9,230.8c-1.1,4.2-3.1,8.1-5.9,11.3c-9.4,11-24,10.3-26,10.1c-2.7,0-15.3-0.2-24.8-10
				C81,239,78.5,235,77,230.8H140.9z"/>
			<path class="st13" d="M141.4,203.1c0,8.5,0,17-0.1,25.5c-0.1,0.6-0.3,1.4-0.5,2.2H77c-0.4-1-0.6-1.9-0.8-2.6v-25L141.4,203.1z"/>
			<path class="st14" d="M142,49.9v19.7c0,0-0.4,89-0.6,133.5h-21.5V49.9l10.9,11.3L142,49.9z"/>
			<polygon class="st14" points="98,49.9 98,203 76.1,203 76,69.5 76,49.9 87.1,61.1 			"/>
			<polygon class="st15" points="119.9,49.9 119.9,203.1 98,203.1 98,49.9 109,61.2 			"/>
			<path class="st16" d="M101.7,13.4c0,0,6.7,6.3,14.1,0l-6.9-10.9L101.7,13.4z"/>
			<line class="st17" x1="76.2" y1="208.2" x2="141.8" y2="208.2"/>
			<line class="st17" x1="76.2" y1="225.9" x2="141.8" y2="225.9"/>
			<line class="st18" x1="119.9" y1="49.9" x2="119.9" y2="49.8"/>
			<line class="st19" x1="98" y1="203.1" x2="98" y2="203.1"/>
			<line class="st19" x1="98" y1="49.9" x2="98" y2="49.9"/>
			<line class="st20" x1="119.9" y1="49.8" x2="119.9" y2="203.1"/>
			<line class="st20" x1="98" y1="50" x2="98" y2="203.1"/>
			<path class="st21" d="M142,49.9L108.9,2.6L76,49.9v19.7l0.2,133.5h65.2c0.1-44.5,0.6-133.5,0.6-133.5L142,49.9z"/>
			<polyline class="st21" points="76,49.9 87.1,61.2 98,49.9 109,61.2 119.9,49.9 130.8,61.2 142,49.9 			"/>
			<path class="st22" d="M81.7,87.8c0,0,7.2-7.5,14.1,0"/>
			<path class="st22" d="M120.9,87.8c0,0,7.2-7.5,14.1,0"/>
			<ellipse class="st23" cx="91.4" cy="114.6" rx="13.5" ry="20.1"/>
			<ellipse class="st24" cx="97.9" cy="117.9" rx="7" ry="10.3"/>
			<circle class="st2" cx="95" cy="114.1" r="2.7"/>
			<ellipse class="st23" cx="127.5" cy="113.5" rx="13.5" ry="20.1"/>
			<ellipse class="st24" cx="134.3" cy="115.4" rx="7" ry="10.3"/>
			<circle class="st2" cx="131.6" cy="111.6" r="2.7"/>
			<path class="st25" d="M129.3,141.8c2.9,0,5.3,2.4,5.3,5.3c0,1.8-0.9,3.5-2.4,4.5c-14.3,9.3-32.7,9.3-47,0c-2.4-1.7-3-5-1.4-7.4
				c1.6-2.3,4.8-3,7.2-1.5c10.8,7,24.6,7,35.4,0C127.2,142.1,128.3,141.8,129.3,141.8z"/>
			<path class="st26" d="M88.1,145.3c0.4,0,0.7,0.1,1,0.3c11.9,7.7,27.3,7.7,39.2,0c0.8-0.6,1.9-0.3,2.5,0.5s0.3,1.9-0.5,2.5
				c-13.1,8.5-30,8.5-43.1,0c-0.8-0.5-1.1-1.6-0.5-2.5c0.3-0.5,0.9-0.8,1.5-0.8L88.1,145.3z"/>
		</g>
	</g>
</g>
</svg>
